<?xml version="1.0" encoding="UTF-8" standalone="no"?>
<!DOCTYPE svg PUBLIC "-//W3C//DTD SVG 1.1//EN"
 "http://www.w3.org/Graphics/SVG/1.1/DTD/svg11.dtd">
<!-- Generated by graphviz version 12.2.0 (20241103.1931)
 -->
<!-- Title: getNextTokenString Pages: 1 -->
<svg width="1738pt" height="84pt"
 viewBox="0.00 0.00 1738.00 84.00" xmlns="http://www.w3.org/2000/svg" xmlns:xlink="http://www.w3.org/1999/xlink">
<g id="graph0" class="graph" transform="scale(1 1) rotate(0) translate(4 80)">
<title>getNextTokenString</title>
<!-- Node1 -->
<g id="Node000001" class="node">
<title>Node1</title>
<g id="a_Node000001"><a xlink:title=" ">
<polygon fill="#999999" stroke="#666666" points="1730,-39 1627.75,-39 1627.75,-19 1730,-19 1730,-39"/>
<text text-anchor="middle" x="1678.88" y="-25.5" font-family="Helvetica,sans-Serif" font-size="10.00">getNextTokenString</text>
</a>
</g>
</g>
<!-- Node2 -->
<g id="Node000002" class="node">
<title>Node2</title>
<g id="a_Node000002"><a xlink:href="$class_lexer.html#ab0ca8b5adc1af3cdec4855fba11491c1" xlink:title=" ">
<polygon fill="white" stroke="#666666" points="1591.75,-58 1484.25,-58 1484.25,-38 1591.75,-38 1591.75,-58"/>
<text text-anchor="middle" x="1538" y="-44.5" font-family="Helvetica,sans-Serif" font-size="10.00">Lexer::extractTokens</text>
</a>
</g>
</g>
<!-- Node1&#45;&gt;Node2 -->
<g id="edge13_Node000001_Node000002" class="edge">
<title>Node1&#45;&gt;Node2</title>
<g id="a_edge13_Node000001_Node000002"><a xlink:title=" ">
<path fill="none" stroke="#63b8ff" d="M1616.13,-37.45C1608.1,-38.55 1599.93,-39.66 1592.06,-40.74"/>
<polygon fill="#63b8ff" stroke="#63b8ff" points="1616.41,-40.94 1625.85,-36.12 1615.46,-34.01 1616.41,-40.94"/>
</a>
</g>
</g>
<!-- Node12 -->
<g id="Node000012" class="node">
<title>Node12</title>
<g id="a_Node000012"><a xlink:href="$_interpretor_8cpp.html#a1efffcc83c5a23c247b70fca364ece06" xlink:title=" ">
<polygon fill="white" stroke="#666666" points="1588.38,-20 1487.62,-20 1487.62,0 1588.38,0 1588.38,-20"/>
<text text-anchor="middle" x="1538" y="-6.5" font-family="Helvetica,sans-Serif" font-size="10.00">getNextTokenValue</text>
</a>
</g>
</g>
<!-- Node1&#45;&gt;Node12 -->
<g id="edge24_Node000001_Node000012" class="edge">
<title>Node1&#45;&gt;Node12</title>
<g id="a_edge24_Node000001_Node000012"><a xlink:title=" ">
<path fill="none" stroke="#63b8ff" d="M1615.97,-20.53C1606.87,-19.29 1597.6,-18.02 1588.8,-16.81"/>
<polygon fill="#63b8ff" stroke="#63b8ff" points="1615.46,-23.99 1625.85,-21.88 1616.41,-17.06 1615.46,-23.99"/>
</a>
</g>
</g>
<!-- Node2&#45;&gt;Node2 -->
<g id="edge23_Node000002_Node000002" class="edge">
<title>Node2&#45;&gt;Node2</title>
<g id="a_edge23_Node000002_Node000002"><a xlink:title=" ">
<path fill="none" stroke="#63b8ff" d="M1562.9,-69.44C1559.69,-73.3 1551.39,-76 1538,-76 1513.51,-76 1506.05,-66.98 1515.62,-58.34"/>
<polygon fill="#63b8ff" stroke="#63b8ff" points="1566.34,-68.79 1560.72,-59.81 1559.51,-70.34 1566.34,-68.79"/>
</a>
</g>
</g>
<!-- Node3 -->
<g id="Node000003" class="node">
<title>Node3</title>
<g id="a_Node000003"><a xlink:href="$class_interpretor.html#aa49f073000719629567f5563fc487836" xlink:title=" ">
<polygon fill="white" stroke="#666666" points="1448.25,-58 1318.25,-58 1318.25,-38 1448.25,-38 1448.25,-58"/>
<text text-anchor="middle" x="1383.25" y="-44.5" font-family="Helvetica,sans-Serif" font-size="10.00">Interpretor::createMainTag</text>
</a>
</g>
</g>
<!-- Node2&#45;&gt;Node3 -->
<g id="edge14_Node000002_Node000003" class="edge">
<title>Node2&#45;&gt;Node3</title>
<g id="a_edge14_Node000002_Node000003"><a xlink:title=" ">
<path fill="none" stroke="#63b8ff" d="M1472.6,-48C1464.7,-48 1456.63,-48 1448.74,-48"/>
<polygon fill="#63b8ff" stroke="#63b8ff" points="1472.49,-51.5 1482.49,-48 1472.49,-44.5 1472.49,-51.5"/>
</a>
</g>
</g>
<!-- Node4 -->
<g id="Node000004" class="node">
<title>Node4</title>
<g id="a_Node000004"><a xlink:href="$class_interpretor.html#a860d7cc665a3202f6f462dc1293fe5e6" xlink:title=" ">
<polygon fill="white" stroke="#666666" points="1282.25,-58 1148.5,-58 1148.5,-38 1282.25,-38 1282.25,-58"/>
<text text-anchor="middle" x="1215.38" y="-44.5" font-family="Helvetica,sans-Serif" font-size="10.00">Interpretor::readActivityFile</text>
</a>
</g>
</g>
<!-- Node3&#45;&gt;Node4 -->
<g id="edge15_Node000003_Node000004" class="edge">
<title>Node3&#45;&gt;Node4</title>
<g id="a_edge15_Node000003_Node000004"><a xlink:title=" ">
<path fill="none" stroke="#63b8ff" d="M1306.78,-48C1298.69,-48 1290.5,-48 1282.53,-48"/>
<polygon fill="#63b8ff" stroke="#63b8ff" points="1306.6,-51.5 1316.6,-48 1306.6,-44.5 1306.6,-51.5"/>
</a>
</g>
</g>
<!-- Node5 -->
<g id="Node000005" class="node">
<title>Node5</title>
<g id="a_Node000005"><a xlink:href="$class_my_frame.html#a6e0ebad55b1d785b586997826c512f7d" xlink:title=" ">
<polygon fill="white" stroke="#666666" points="1112.5,-58 999,-58 999,-38 1112.5,-38 1112.5,-58"/>
<text text-anchor="middle" x="1055.75" y="-44.5" font-family="Helvetica,sans-Serif" font-size="10.00">MyFrame::getMainTag</text>
</a>
</g>
</g>
<!-- Node4&#45;&gt;Node5 -->
<g id="edge16_Node000004_Node000005" class="edge">
<title>Node4&#45;&gt;Node5</title>
<g id="a_edge16_Node000004_Node000005"><a xlink:title=" ">
<path fill="none" stroke="#63b8ff" d="M1137.01,-48C1128.88,-48 1120.74,-48 1112.92,-48"/>
<polygon fill="#63b8ff" stroke="#63b8ff" points="1136.93,-51.5 1146.93,-48 1136.93,-44.5 1136.93,-51.5"/>
</a>
</g>
</g>
<!-- Node6 -->
<g id="Node000006" class="node">
<title>Node6</title>
<g id="a_Node000006"><a xlink:href="$class_my_frame.html#abb986879321b4dceaffb43eae82e37f1" xlink:title=" ">
<polygon fill="white" stroke="#666666" points="963,-58 827,-58 827,-38 963,-38 963,-58"/>
<text text-anchor="middle" x="895" y="-44.5" font-family="Helvetica,sans-Serif" font-size="10.00">MyFrame::createPanelTags</text>
</a>
</g>
</g>
<!-- Node5&#45;&gt;Node6 -->
<g id="edge17_Node000005_Node000006" class="edge">
<title>Node5&#45;&gt;Node6</title>
<g id="a_edge17_Node000005_Node000006"><a xlink:title=" ">
<path fill="none" stroke="#63b8ff" d="M987.34,-48C979.43,-48 971.35,-48 963.44,-48"/>
<polygon fill="#63b8ff" stroke="#63b8ff" points="987.27,-51.5 997.27,-48 987.27,-44.5 987.27,-51.5"/>
</a>
</g>
</g>
<!-- Node7 -->
<g id="Node000007" class="node">
<title>Node7</title>
<g id="a_Node000007"><a xlink:href="$class_my_frame.html#a7795237fe8d78e10023b2e078f9728e3" xlink:title=" ">
<polygon fill="white" stroke="#666666" points="791,-58 642.25,-58 642.25,-38 791,-38 791,-58"/>
<text text-anchor="middle" x="716.62" y="-44.5" font-family="Helvetica,sans-Serif" font-size="10.00">MyFrame::setProgramWindow</text>
</a>
</g>
</g>
<!-- Node6&#45;&gt;Node7 -->
<g id="edge18_Node000006_Node000007" class="edge">
<title>Node6&#45;&gt;Node7</title>
<g id="a_edge18_Node000006_Node000007"><a xlink:title=" ">
<path fill="none" stroke="#63b8ff" d="M815.14,-48C807.27,-48 799.3,-48 791.49,-48"/>
<polygon fill="#63b8ff" stroke="#63b8ff" points="815.05,-51.5 825.05,-48 815.05,-44.5 815.05,-51.5"/>
</a>
</g>
</g>
<!-- Node8 -->
<g id="Node000008" class="node">
<title>Node8</title>
<g id="a_Node000008"><a xlink:href="$class_my_frame.html#a72b4f4c02d1a12561c4cc1f5f7685db8" xlink:title=" ">
<polygon fill="white" stroke="#666666" points="606.25,-58 468,-58 468,-38 606.25,-38 606.25,-58"/>
<text text-anchor="middle" x="537.12" y="-44.5" font-family="Helvetica,sans-Serif" font-size="10.00">MyFrame::setProgramPanel</text>
</a>
</g>
</g>
<!-- Node7&#45;&gt;Node8 -->
<g id="edge19_Node000007_Node000008" class="edge">
<title>Node7&#45;&gt;Node8</title>
<g id="a_edge19_Node000007_Node000008"><a xlink:title=" ">
<path fill="none" stroke="#63b8ff" d="M630.55,-48C622.49,-48 614.39,-48 606.51,-48"/>
<polygon fill="#63b8ff" stroke="#63b8ff" points="630.38,-51.5 640.38,-48 630.38,-44.5 630.38,-51.5"/>
</a>
</g>
</g>
<!-- Node9 -->
<g id="Node000009" class="node">
<title>Node9</title>
<g id="a_Node000009"><a xlink:href="$class_my_frame.html#a0281cb45b6735fcbd2c885d98c874d18" xlink:title=" ">
<polygon fill="white" stroke="#666666" points="432,-58 299,-58 299,-38 432,-38 432,-58"/>
<text text-anchor="middle" x="365.5" y="-44.5" font-family="Helvetica,sans-Serif" font-size="10.00">MyFrame::setBottomPanel</text>
</a>
</g>
</g>
<!-- Node8&#45;&gt;Node9 -->
<g id="edge20_Node000008_Node000009" class="edge">
<title>Node8&#45;&gt;Node9</title>
<g id="a_edge20_Node000008_Node000009"><a xlink:title=" ">
<path fill="none" stroke="#63b8ff" d="M456.3,-48C448.24,-48 440.12,-48 432.23,-48"/>
<polygon fill="#63b8ff" stroke="#63b8ff" points="456.11,-51.5 466.11,-48 456.11,-44.5 456.11,-51.5"/>
</a>
</g>
</g>
<!-- Node10 -->
<g id="Node000010" class="node">
<title>Node10</title>
<g id="a_Node000010"><a xlink:href="$class_my_frame.html#a774684146b2b14e42891f6d8b8a73912" xlink:title=" ">
<polygon fill="white" stroke="#666666" points="263,-58 140.5,-58 140.5,-38 263,-38 263,-58"/>
<text text-anchor="middle" x="201.75" y="-44.5" font-family="Helvetica,sans-Serif" font-size="10.00">MyFrame::setMainPanel</text>
</a>
</g>
</g>
<!-- Node9&#45;&gt;Node10 -->
<g id="edge21_Node000009_Node000010" class="edge">
<title>Node9&#45;&gt;Node10</title>
<g id="a_edge21_Node000009_Node000010"><a xlink:title=" ">
<path fill="none" stroke="#63b8ff" d="M287.35,-48C279.26,-48 271.13,-48 263.27,-48"/>
<polygon fill="#63b8ff" stroke="#63b8ff" points="287.2,-51.5 297.2,-48 287.2,-44.5 287.2,-51.5"/>
</a>
</g>
</g>
<!-- Node11 -->
<g id="Node000011" class="node">
<title>Node11</title>
<g id="a_Node000011"><a xlink:href="$class_my_frame.html#af13d7bffe3d6844c2331085f423764a4" xlink:title=" ">
<polygon fill="white" stroke="#666666" points="104.5,-58 0,-58 0,-38 104.5,-38 104.5,-58"/>
<text text-anchor="middle" x="52.25" y="-44.5" font-family="Helvetica,sans-Serif" font-size="10.00">MyFrame::MyFrame</text>
</a>
</g>
</g>
<!-- Node10&#45;&gt;Node11 -->
<g id="edge22_Node000010_Node000011" class="edge">
<title>Node10&#45;&gt;Node11</title>
<g id="a_edge22_Node000010_Node000011"><a xlink:title=" ">
<path fill="none" stroke="#63b8ff" d="M128.91,-48C120.79,-48 112.64,-48 104.85,-48"/>
<polygon fill="#63b8ff" stroke="#63b8ff" points="128.82,-51.5 138.82,-48 128.82,-44.5 128.82,-51.5"/>
</a>
</g>
</g>
</g>
</svg>
