<?xml version="1.0" encoding="UTF-8" standalone="no"?>
<!DOCTYPE svg PUBLIC "-//W3C//DTD SVG 1.1//EN"
 "http://www.w3.org/Graphics/SVG/1.1/DTD/svg11.dtd">
<!-- Generated by graphviz version 12.2.0 (20241103.1931)
 -->
<!-- Title: src/Interpretor.h Pages: 1 -->
<svg width="348pt" height="196pt"
 viewBox="0.00 0.00 348.38 196.00" xmlns="http://www.w3.org/2000/svg" xmlns:xlink="http://www.w3.org/1999/xlink">
<g id="graph0" class="graph" transform="scale(1 1) rotate(0) translate(4 192)">
<title>src/Interpretor.h</title>
<!-- Node1 -->
<g id="Node000001" class="node">
<title>Node1</title>
<g id="a_Node000001"><a xlink:title=" ">
<polygon fill="#999999" stroke="#666666" points="197.25,-188 112.25,-188 112.25,-168 197.25,-168 197.25,-188"/>
<text text-anchor="middle" x="154.75" y="-174.5" font-family="Helvetica,sans-Serif" font-size="10.00">src/Interpretor.h</text>
</a>
</g>
</g>
<!-- Node2 -->
<g id="Node000002" class="node">
<title>Node2</title>
<g id="a_Node000002"><a xlink:href="$_interpretor_8cpp.html" xlink:title=" ">
<polygon fill="white" stroke="#666666" points="95.5,-132 0,-132 0,-112 95.5,-112 95.5,-132"/>
<text text-anchor="middle" x="47.75" y="-118.5" font-family="Helvetica,sans-Serif" font-size="10.00">src/Interpretor.cpp</text>
</a>
</g>
</g>
<!-- Node1&#45;&gt;Node2 -->
<g id="edge9_Node000001_Node000002" class="edge">
<title>Node1&#45;&gt;Node2</title>
<g id="a_edge9_Node000001_Node000002"><a xlink:title=" ">
<path fill="none" stroke="#63b8ff" d="M125.98,-162.48C107.11,-152.96 82.97,-140.78 66.53,-132.48"/>
<polygon fill="#63b8ff" stroke="#63b8ff" points="124.26,-165.53 134.76,-166.91 127.41,-159.28 124.26,-165.53"/>
</a>
</g>
</g>
<!-- Node3 -->
<g id="Node000003" class="node">
<title>Node3</title>
<g id="a_Node000003"><a xlink:href="$_my_frame_8h.html" xlink:title=" ">
<polygon fill="white" stroke="#666666" points="195.75,-132 113.75,-132 113.75,-112 195.75,-112 195.75,-132"/>
<text text-anchor="middle" x="154.75" y="-118.5" font-family="Helvetica,sans-Serif" font-size="10.00">src/MyFrame.h</text>
</a>
</g>
</g>
<!-- Node1&#45;&gt;Node3 -->
<g id="edge10_Node000001_Node000003" class="edge">
<title>Node1&#45;&gt;Node3</title>
<g id="a_edge10_Node000001_Node000003"><a xlink:title=" ">
<path fill="none" stroke="#63b8ff" d="M154.75,-156.13C154.75,-147.9 154.75,-138.85 154.75,-132.3"/>
<polygon fill="#63b8ff" stroke="#63b8ff" points="151.25,-156.08 154.75,-166.08 158.25,-156.08 151.25,-156.08"/>
</a>
</g>
</g>
<!-- Node7 -->
<g id="Node000007" class="node">
<title>Node7</title>
<g id="a_Node000007"><a xlink:href="$game_8h.html" xlink:title=" ">
<polygon fill="white" stroke="#666666" points="278.12,-132 213.38,-132 213.38,-112 278.12,-112 278.12,-132"/>
<text text-anchor="middle" x="245.75" y="-118.5" font-family="Helvetica,sans-Serif" font-size="10.00">src/game.h</text>
</a>
</g>
</g>
<!-- Node1&#45;&gt;Node7 -->
<g id="edge14_Node000001_Node000007" class="edge">
<title>Node1&#45;&gt;Node7</title>
<g id="a_edge14_Node000001_Node000007"><a xlink:title=" ">
<path fill="none" stroke="#63b8ff" d="M180.35,-161.81C196.22,-152.39 216.12,-140.58 229.78,-132.48"/>
<polygon fill="#63b8ff" stroke="#63b8ff" points="178.72,-158.71 171.9,-166.82 182.29,-164.73 178.72,-158.71"/>
</a>
</g>
</g>
<!-- Node4 -->
<g id="Node000004" class="node">
<title>Node4</title>
<g id="a_Node000004"><a xlink:href="$_my_frame_8cpp.html" xlink:title=" ">
<polygon fill="white" stroke="#666666" points="134,-76 41.5,-76 41.5,-56 134,-56 134,-76"/>
<text text-anchor="middle" x="87.75" y="-62.5" font-family="Helvetica,sans-Serif" font-size="10.00">src/MyFrame.cpp</text>
</a>
</g>
</g>
<!-- Node3&#45;&gt;Node4 -->
<g id="edge11_Node000003_Node000004" class="edge">
<title>Node3&#45;&gt;Node4</title>
<g id="a_edge11_Node000003_Node000004"><a xlink:title=" ">
<path fill="none" stroke="#63b8ff" d="M134.16,-104.4C122.7,-95.17 108.85,-84.01 99.29,-76.3"/>
<polygon fill="#63b8ff" stroke="#63b8ff" points="131.92,-107.09 141.9,-110.64 136.31,-101.64 131.92,-107.09"/>
</a>
</g>
</g>
<!-- Node5 -->
<g id="Node000005" class="node">
<title>Node5</title>
<g id="a_Node000005"><a xlink:href="$_w_x_manager_8h.html" xlink:title=" ">
<polygon fill="white" stroke="#666666" points="247.12,-76 152.38,-76 152.38,-56 247.12,-56 247.12,-76"/>
<text text-anchor="middle" x="199.75" y="-62.5" font-family="Helvetica,sans-Serif" font-size="10.00">src/WXManager.h</text>
</a>
</g>
</g>
<!-- Node3&#45;&gt;Node5 -->
<g id="edge12_Node000003_Node000005" class="edge">
<title>Node3&#45;&gt;Node5</title>
<g id="a_edge12_Node000003_Node000005"><a xlink:title=" ">
<path fill="none" stroke="#63b8ff" d="M169.75,-103C177.2,-94.06 185.9,-83.62 192,-76.3"/>
<polygon fill="#63b8ff" stroke="#63b8ff" points="167.27,-100.51 163.56,-110.43 172.65,-104.99 167.27,-100.51"/>
</a>
</g>
</g>
<!-- Node6 -->
<g id="Node000006" class="node">
<title>Node6</title>
<g id="a_Node000006"><a xlink:href="$_w_x_manager_8cpp.html" xlink:title=" ">
<polygon fill="white" stroke="#666666" points="252.38,-20 147.12,-20 147.12,0 252.38,0 252.38,-20"/>
<text text-anchor="middle" x="199.75" y="-6.5" font-family="Helvetica,sans-Serif" font-size="10.00">src/WXManager.cpp</text>
</a>
</g>
</g>
<!-- Node5&#45;&gt;Node6 -->
<g id="edge13_Node000005_Node000006" class="edge">
<title>Node5&#45;&gt;Node6</title>
<g id="a_edge13_Node000005_Node000006"><a xlink:title=" ">
<path fill="none" stroke="#63b8ff" d="M199.75,-44.13C199.75,-35.9 199.75,-26.85 199.75,-20.3"/>
<polygon fill="#63b8ff" stroke="#63b8ff" points="196.25,-44.08 199.75,-54.08 203.25,-44.08 196.25,-44.08"/>
</a>
</g>
</g>
<!-- Node7&#45;&gt;Node5 -->
<g id="edge15_Node000007_Node000005" class="edge">
<title>Node7&#45;&gt;Node5</title>
<g id="a_edge15_Node000007_Node000005"><a xlink:title=" ">
<path fill="none" stroke="#63b8ff" d="M230.42,-103C222.8,-94.06 213.91,-83.62 207.67,-76.3"/>
<polygon fill="#63b8ff" stroke="#63b8ff" points="227.61,-105.1 236.76,-110.44 232.94,-100.56 227.61,-105.1"/>
</a>
</g>
</g>
<!-- Node8 -->
<g id="Node000008" class="node">
<title>Node8</title>
<g id="a_Node000008"><a xlink:href="$game_8cpp.html" xlink:title=" ">
<polygon fill="white" stroke="#666666" points="340.38,-76 265.12,-76 265.12,-56 340.38,-56 340.38,-76"/>
<text text-anchor="middle" x="302.75" y="-62.5" font-family="Helvetica,sans-Serif" font-size="10.00">src/game.cpp</text>
</a>
</g>
</g>
<!-- Node7&#45;&gt;Node8 -->
<g id="edge16_Node000007_Node000008" class="edge">
<title>Node7&#45;&gt;Node8</title>
<g id="a_edge16_Node000007_Node000008"><a xlink:title=" ">
<path fill="none" stroke="#63b8ff" d="M263.86,-103.85C273.49,-94.72 284.96,-83.86 292.94,-76.3"/>
<polygon fill="#63b8ff" stroke="#63b8ff" points="261.63,-101.13 256.78,-110.55 266.44,-106.22 261.63,-101.13"/>
</a>
</g>
</g>
</g>
</svg>
