<?xml version="1.0" encoding="UTF-8" standalone="no"?>
<!DOCTYPE svg PUBLIC "-//W3C//DTD SVG 1.1//EN"
 "http://www.w3.org/Graphics/SVG/1.1/DTD/svg11.dtd">
<!-- Generated by graphviz version 12.2.0 (20241103.1931)
 -->
<!-- Title: isBooleanToken Pages: 1 -->
<svg width="436pt" height="28pt"
 viewBox="0.00 0.00 436.25 28.00" xmlns="http://www.w3.org/2000/svg" xmlns:xlink="http://www.w3.org/1999/xlink">
<g id="graph0" class="graph" transform="scale(1 1) rotate(0) translate(4 24)">
<title>isBooleanToken</title>
<!-- Node1 -->
<g id="Node000001" class="node">
<title>Node1</title>
<g id="a_Node000001"><a xlink:title=" ">
<polygon fill="#999999" stroke="#666666" points="428.25,-20 343.25,-20 343.25,0 428.25,0 428.25,-20"/>
<text text-anchor="middle" x="385.75" y="-6.5" font-family="Helvetica,sans-Serif" font-size="10.00">isBooleanToken</text>
</a>
</g>
</g>
<!-- Node2 -->
<g id="Node000002" class="node">
<title>Node2</title>
<g id="a_Node000002"><a xlink:href="$class_flow_k_c_token.html#aa8e871c7b557b02746ffad16e531a567" xlink:title=" ">
<polygon fill="white" stroke="#666666" points="307.25,-20 166.75,-20 166.75,0 307.25,0 307.25,-20"/>
<text text-anchor="middle" x="237" y="-6.5" font-family="Helvetica,sans-Serif" font-size="10.00">FlowKCToken::addCondition</text>
</a>
</g>
</g>
<!-- Node1&#45;&gt;Node2 -->
<g id="edge3_Node000001_Node000002" class="edge">
<title>Node1&#45;&gt;Node2</title>
<g id="a_edge3_Node000001_Node000002"><a xlink:title=" ">
<path fill="none" stroke="#63b8ff" d="M331.82,-10C323.93,-10 315.7,-10 307.53,-10"/>
<polygon fill="#63b8ff" stroke="#63b8ff" points="331.58,-13.5 341.58,-10 331.58,-6.5 331.58,-13.5"/>
</a>
</g>
</g>
<!-- Node3 -->
<g id="Node000003" class="node">
<title>Node3</title>
<g id="a_Node000003"><a xlink:href="$class_flow_k_c_token.html#aabbf4019cb69b07eb25b11bd070824fc" xlink:title=" ">
<polygon fill="white" stroke="#666666" points="130.75,-20 0,-20 0,0 130.75,0 130.75,-20"/>
<text text-anchor="middle" x="65.38" y="-6.5" font-family="Helvetica,sans-Serif" font-size="10.00">FlowKCToken::addTokens</text>
</a>
</g>
</g>
<!-- Node2&#45;&gt;Node3 -->
<g id="edge4_Node000002_Node000003" class="edge">
<title>Node2&#45;&gt;Node3</title>
<g id="a_edge4_Node000002_Node000003"><a xlink:title=" ">
<path fill="none" stroke="#63b8ff" d="M155.17,-10C147.1,-10 138.98,-10 131.11,-10"/>
<polygon fill="#63b8ff" stroke="#63b8ff" points="155,-13.5 165,-10 155,-6.5 155,-13.5"/>
</a>
</g>
</g>
</g>
</svg>
