<?xml version="1.0" encoding="UTF-8" standalone="no"?>
<!DOCTYPE svg PUBLIC "-//W3C//DTD SVG 1.1//EN"
 "http://www.w3.org/Graphics/SVG/1.1/DTD/svg11.dtd">
<!-- Generated by graphviz version 12.2.0 (20241103.1931)
 -->
<!-- Title: src/LDPlayer.h Pages: 1 -->
<svg width="1397pt" height="252pt"
 viewBox="0.00 0.00 1397.12 252.00" xmlns="http://www.w3.org/2000/svg" xmlns:xlink="http://www.w3.org/1999/xlink">
<g id="graph0" class="graph" transform="scale(1 1) rotate(0) translate(4 248)">
<title>src/LDPlayer.h</title>
<!-- Node1 -->
<g id="Node000001" class="node">
<title>Node1</title>
<g id="a_Node000001"><a xlink:title=" ">
<polygon fill="#999999" stroke="#666666" points="1281.25,-244 1200,-244 1200,-224 1281.25,-224 1281.25,-244"/>
<text text-anchor="middle" x="1240.62" y="-230.5" font-family="Helvetica,sans-Serif" font-size="10.00">src/LDPlayer.h</text>
</a>
</g>
</g>
<!-- Node2 -->
<g id="Node000002" class="node">
<title>Node2</title>
<g id="a_Node000002"><a xlink:title=" ">
<polygon fill="#e0e0e0" stroke="#999999" points="1389.12,-20 1346.12,-20 1346.12,0 1389.12,0 1389.12,-20"/>
<text text-anchor="middle" x="1367.62" y="-6.5" font-family="Helvetica,sans-Serif" font-size="10.00">vector</text>
</a>
</g>
</g>
<!-- Node1&#45;&gt;Node2 -->
<g id="edge50_Node000001_Node000002" class="edge">
<title>Node1&#45;&gt;Node2</title>
<g id="a_edge50_Node000001_Node000002"><a xlink:title=" ">
<path fill="none" stroke="#63b8ff" d="M1258.01,-223.63C1271.29,-215.7 1289.2,-203.2 1300.62,-188 1337.73,-138.64 1356.46,-66.37 1363.8,-31.42"/>
<polygon fill="#63b8ff" stroke="#63b8ff" points="1367.19,-32.32 1365.71,-21.83 1360.33,-30.96 1367.19,-32.32"/>
</a>
</g>
</g>
<!-- Node3 -->
<g id="Node000003" class="node">
<title>Node3</title>
<g id="a_Node000003"><a xlink:href="$_emulator_8h.html" xlink:title=" ">
<polygon fill="white" stroke="#666666" points="1171.25,-188 1108,-188 1108,-168 1171.25,-168 1171.25,-188"/>
<text text-anchor="middle" x="1139.62" y="-174.5" font-family="Helvetica,sans-Serif" font-size="10.00">Emulator.h</text>
</a>
</g>
</g>
<!-- Node1&#45;&gt;Node3 -->
<g id="edge51_Node000001_Node000003" class="edge">
<title>Node1&#45;&gt;Node3</title>
<g id="a_edge51_Node000001_Node000003"><a xlink:title=" ">
<path fill="none" stroke="#63b8ff" d="M1223.03,-223.59C1207.7,-215.4 1185.21,-203.37 1167.44,-193.87"/>
<polygon fill="#63b8ff" stroke="#63b8ff" points="1169.16,-190.82 1158.69,-189.19 1165.86,-196.99 1169.16,-190.82"/>
</a>
</g>
</g>
<!-- Node28 -->
<g id="Node000028" class="node">
<title>Node28</title>
<g id="a_Node000028"><a xlink:href="$_l_d_player_instance_8h.html" xlink:title=" ">
<polygon fill="white" stroke="#666666" points="1291.75,-188 1189.5,-188 1189.5,-168 1291.75,-168 1291.75,-188"/>
<text text-anchor="middle" x="1240.62" y="-174.5" font-family="Helvetica,sans-Serif" font-size="10.00">LDPlayerInstance.h</text>
</a>
</g>
</g>
<!-- Node1&#45;&gt;Node28 -->
<g id="edge97_Node000001_Node000028" class="edge">
<title>Node1&#45;&gt;Node28</title>
<g id="a_edge97_Node000001_Node000028"><a xlink:title=" ">
<path fill="none" stroke="#63b8ff" d="M1240.62,-223.59C1240.62,-217.01 1240.62,-207.96 1240.62,-199.73"/>
<polygon fill="#63b8ff" stroke="#63b8ff" points="1244.13,-199.81 1240.63,-189.81 1237.13,-199.81 1244.13,-199.81"/>
</a>
</g>
</g>
<!-- Node3&#45;&gt;Node2 -->
<g id="edge82_Node000003_Node000002" class="edge">
<title>Node3&#45;&gt;Node2</title>
<g id="a_edge82_Node000003_Node000002"><a xlink:title=" ">
<path fill="none" stroke="#63b8ff" d="M1171.46,-168.06C1204.23,-158.48 1252.69,-143.15 1268.62,-132 1308.31,-104.24 1340.76,-56.4 1356.79,-29.96"/>
<polygon fill="#63b8ff" stroke="#63b8ff" points="1359.62,-32.05 1361.69,-21.65 1353.59,-28.49 1359.62,-32.05"/>
</a>
</g>
</g>
<!-- Node4 -->
<g id="Node000004" class="node">
<title>Node4</title>
<g id="a_Node000004"><a xlink:href="$_instance_8h.html" xlink:title=" ">
<polygon fill="white" stroke="#666666" points="1259.5,-132 1197.75,-132 1197.75,-112 1259.5,-112 1259.5,-132"/>
<text text-anchor="middle" x="1228.62" y="-118.5" font-family="Helvetica,sans-Serif" font-size="10.00">Instance.h</text>
</a>
</g>
</g>
<!-- Node3&#45;&gt;Node4 -->
<g id="edge52_Node000003_Node000004" class="edge">
<title>Node3&#45;&gt;Node4</title>
<g id="a_edge52_Node000003_Node000004"><a xlink:title=" ">
<path fill="none" stroke="#63b8ff" d="M1155.13,-167.59C1168.45,-159.51 1187.9,-147.71 1203.45,-138.27"/>
<polygon fill="#63b8ff" stroke="#63b8ff" points="1204.97,-141.44 1211.71,-133.26 1201.34,-135.46 1204.97,-141.44"/>
</a>
</g>
</g>
<!-- Node7 -->
<g id="Node000007" class="node">
<title>Node7</title>
<g id="a_Node000007"><a xlink:href="$sys_commands_8h.html" xlink:title=" ">
<polygon fill="white" stroke="#666666" points="722.75,-76 632.5,-76 632.5,-56 722.75,-56 722.75,-76"/>
<text text-anchor="middle" x="677.62" y="-62.5" font-family="Helvetica,sans-Serif" font-size="10.00">sysCommands.h</text>
</a>
</g>
</g>
<!-- Node3&#45;&gt;Node7 -->
<g id="edge55_Node000003_Node000007" class="edge">
<title>Node3&#45;&gt;Node7</title>
<g id="a_edge55_Node000003_Node000007"><a xlink:title=" ">
<path fill="none" stroke="#63b8ff" d="M1107.5,-169.35C1028.46,-150.53 823.98,-101.85 728.34,-79.08"/>
<polygon fill="#63b8ff" stroke="#63b8ff" points="729.25,-75.69 718.71,-76.78 727.62,-82.5 729.25,-75.69"/>
</a>
</g>
</g>
<!-- Node25 -->
<g id="Node000025" class="node">
<title>Node25</title>
<g id="a_Node000025"><a xlink:href="$_text_manager_8h.html" xlink:title=" ">
<polygon fill="white" stroke="#666666" points="1179.88,-76 1099.38,-76 1099.38,-56 1179.88,-56 1179.88,-76"/>
<text text-anchor="middle" x="1139.62" y="-62.5" font-family="Helvetica,sans-Serif" font-size="10.00">TextManager.h</text>
</a>
</g>
</g>
<!-- Node3&#45;&gt;Node25 -->
<g id="edge76_Node000003_Node000025" class="edge">
<title>Node3&#45;&gt;Node25</title>
<g id="a_edge76_Node000003_Node000025"><a xlink:title=" ">
<path fill="none" stroke="#63b8ff" d="M1139.62,-167.62C1139.62,-150.01 1139.62,-111.59 1139.62,-87.65"/>
<polygon fill="#63b8ff" stroke="#63b8ff" points="1143.13,-87.87 1139.63,-77.87 1136.13,-87.87 1143.13,-87.87"/>
</a>
</g>
</g>
<!-- Node27 -->
<g id="Node000027" class="node">
<title>Node27</title>
<g id="a_Node000027"><a xlink:href="$fadb_8h.html" xlink:title=" ">
<polygon fill="white" stroke="#666666" points="484.12,-132 441.12,-132 441.12,-112 484.12,-112 484.12,-132"/>
<text text-anchor="middle" x="462.62" y="-118.5" font-family="Helvetica,sans-Serif" font-size="10.00">fadb.h</text>
</a>
</g>
</g>
<!-- Node3&#45;&gt;Node27 -->
<g id="edge83_Node000003_Node000027" class="edge">
<title>Node3&#45;&gt;Node27</title>
<g id="a_edge83_Node000003_Node000027"><a xlink:title=" ">
<path fill="none" stroke="#63b8ff" d="M1107.88,-174.47C994.64,-165.44 611.15,-134.85 495.75,-125.64"/>
<polygon fill="#63b8ff" stroke="#63b8ff" points="496.28,-122.17 486.04,-124.87 495.73,-129.15 496.28,-122.17"/>
</a>
</g>
</g>
<!-- Node5 -->
<g id="Node000005" class="node">
<title>Node5</title>
<g id="a_Node000005"><a xlink:title=" ">
<polygon fill="#e0e0e0" stroke="#999999" points="1254.62,-20 1214.62,-20 1214.62,0 1254.62,0 1254.62,-20"/>
<text text-anchor="middle" x="1234.62" y="-6.5" font-family="Helvetica,sans-Serif" font-size="10.00">string</text>
</a>
</g>
</g>
<!-- Node4&#45;&gt;Node5 -->
<g id="edge53_Node000004_Node000005" class="edge">
<title>Node4&#45;&gt;Node5</title>
<g id="a_edge53_Node000004_Node000005"><a xlink:title=" ">
<path fill="none" stroke="#63b8ff" d="M1229.14,-111.62C1230.1,-94.01 1232.19,-55.59 1233.5,-31.65"/>
<polygon fill="#63b8ff" stroke="#63b8ff" points="1236.98,-32.04 1234.03,-21.87 1229.99,-31.66 1236.98,-32.04"/>
</a>
</g>
</g>
<!-- Node6 -->
<g id="Node000006" class="node">
<title>Node6</title>
<g id="a_Node000006"><a xlink:title=" ">
<polygon fill="#e0e0e0" stroke="#999999" points="1196.38,-20 1142.88,-20 1142.88,0 1196.38,0 1196.38,-20"/>
<text text-anchor="middle" x="1169.62" y="-6.5" font-family="Helvetica,sans-Serif" font-size="10.00">iostream</text>
</a>
</g>
</g>
<!-- Node4&#45;&gt;Node6 -->
<g id="edge54_Node000004_Node000006" class="edge">
<title>Node4&#45;&gt;Node6</title>
<g id="a_edge54_Node000004_Node000006"><a xlink:title=" ">
<path fill="none" stroke="#63b8ff" d="M1223.59,-111.62C1213.97,-93.68 1192.78,-54.17 1180,-30.35"/>
<polygon fill="#63b8ff" stroke="#63b8ff" points="1183.17,-28.85 1175.36,-21.69 1177,-32.16 1183.17,-28.85"/>
</a>
</g>
</g>
<!-- Node7&#45;&gt;Node2 -->
<g id="edge61_Node000007_Node000002" class="edge">
<title>Node7&#45;&gt;Node2</title>
<g id="a_edge61_Node000007_Node000002"><a xlink:title=" ">
<path fill="none" stroke="#63b8ff" d="M722.87,-65.37C828.72,-65.52 1100.69,-61.61 1334.69,-20.16"/>
<polygon fill="#63b8ff" stroke="#63b8ff" points="1335.1,-23.65 1344.32,-18.43 1333.86,-16.76 1335.1,-23.65"/>
</a>
</g>
</g>
<!-- Node7&#45;&gt;Node5 -->
<g id="edge73_Node000007_Node000005" class="edge">
<title>Node7&#45;&gt;Node5</title>
<g id="a_edge73_Node000007_Node000005"><a xlink:title=" ">
<path fill="none" stroke="#63b8ff" d="M722.93,-64.42C812.98,-62.56 1020.79,-54.77 1203.03,-20.11"/>
<polygon fill="#63b8ff" stroke="#63b8ff" points="1203.53,-23.57 1212.68,-18.24 1202.2,-16.7 1203.53,-23.57"/>
</a>
</g>
</g>
<!-- Node7&#45;&gt;Node6 -->
<g id="edge57_Node000007_Node000006" class="edge">
<title>Node7&#45;&gt;Node6</title>
<g id="a_edge57_Node000007_Node000006"><a xlink:title=" ">
<path fill="none" stroke="#63b8ff" d="M723.02,-62.84C803.57,-58.52 976.89,-46.96 1131.49,-20.33"/>
<polygon fill="#63b8ff" stroke="#63b8ff" points="1131.84,-23.82 1141.09,-18.65 1130.64,-16.93 1131.84,-23.82"/>
</a>
</g>
</g>
<!-- Node8 -->
<g id="Node000008" class="node">
<title>Node8</title>
<g id="a_Node000008"><a xlink:title=" ">
<polygon fill="#e0e0e0" stroke="#999999" points="406,-20 341.25,-20 341.25,0 406,0 406,-20"/>
<text text-anchor="middle" x="373.62" y="-6.5" font-family="Helvetica,sans-Serif" font-size="10.00">Windows.h</text>
</a>
</g>
</g>
<!-- Node7&#45;&gt;Node8 -->
<g id="edge56_Node000007_Node000008" class="edge">
<title>Node7&#45;&gt;Node8</title>
<g id="a_edge56_Node000007_Node000008"><a xlink:title=" ">
<path fill="none" stroke="#63b8ff" d="M632.37,-57.91C582.13,-49.9 498.37,-36.11 417.19,-20.43"/>
<polygon fill="#63b8ff" stroke="#63b8ff" points="418.24,-17.07 407.76,-18.6 416.9,-23.94 418.24,-17.07"/>
</a>
</g>
</g>
<!-- Node9 -->
<g id="Node000009" class="node">
<title>Node9</title>
<g id="a_Node000009"><a xlink:title=" ">
<polygon fill="#e0e0e0" stroke="#999999" points="461.5,-20 423.75,-20 423.75,0 461.5,0 461.5,-20"/>
<text text-anchor="middle" x="442.62" y="-6.5" font-family="Helvetica,sans-Serif" font-size="10.00">array</text>
</a>
</g>
</g>
<!-- Node7&#45;&gt;Node9 -->
<g id="edge58_Node000007_Node000009" class="edge">
<title>Node7&#45;&gt;Node9</title>
<g id="a_edge58_Node000007_Node000009"><a xlink:title=" ">
<path fill="none" stroke="#63b8ff" d="M632.09,-56.42C592.34,-48.64 532.89,-36.29 472.68,-20.35"/>
<polygon fill="#63b8ff" stroke="#63b8ff" points="473.86,-17.05 463.29,-17.84 472.05,-23.81 473.86,-17.05"/>
</a>
</g>
</g>
<!-- Node10 -->
<g id="Node000010" class="node">
<title>Node10</title>
<g id="a_Node000010"><a xlink:title=" ">
<polygon fill="#e0e0e0" stroke="#999999" points="589.25,-20 538,-20 538,0 589.25,0 589.25,-20"/>
<text text-anchor="middle" x="563.62" y="-6.5" font-family="Helvetica,sans-Serif" font-size="10.00">memory</text>
</a>
</g>
</g>
<!-- Node7&#45;&gt;Node10 -->
<g id="edge59_Node000007_Node000010" class="edge">
<title>Node7&#45;&gt;Node10</title>
<g id="a_edge59_Node000007_Node000010"><a xlink:title=" ">
<path fill="none" stroke="#63b8ff" d="M657.77,-55.59C640.14,-47.24 614.12,-34.92 593.9,-25.34"/>
<polygon fill="#63b8ff" stroke="#63b8ff" points="595.54,-22.25 585.01,-21.13 592.54,-28.57 595.54,-22.25"/>
</a>
</g>
</g>
<!-- Node11 -->
<g id="Node000011" class="node">
<title>Node11</title>
<g id="a_Node000011"><a xlink:title=" ">
<polygon fill="#e0e0e0" stroke="#999999" points="519.62,-20 479.62,-20 479.62,0 519.62,0 519.62,-20"/>
<text text-anchor="middle" x="499.62" y="-6.5" font-family="Helvetica,sans-Serif" font-size="10.00">ctime</text>
</a>
</g>
</g>
<!-- Node7&#45;&gt;Node11 -->
<g id="edge60_Node000007_Node000011" class="edge">
<title>Node7&#45;&gt;Node11</title>
<g id="a_edge60_Node000007_Node000011"><a xlink:title=" ">
<path fill="none" stroke="#63b8ff" d="M645.92,-55.5C617.98,-47.11 575.9,-34.44 530.8,-20.65"/>
<polygon fill="#63b8ff" stroke="#63b8ff" points="531.93,-17.34 521.35,-17.76 529.89,-24.03 531.93,-17.34"/>
</a>
</g>
</g>
<!-- Node12 -->
<g id="Node000012" class="node">
<title>Node12</title>
<g id="a_Node000012"><a xlink:title=" ">
<polygon fill="#e0e0e0" stroke="#999999" points="1058.25,-20 1013,-20 1013,0 1058.25,0 1058.25,-20"/>
<text text-anchor="middle" x="1035.62" y="-6.5" font-family="Helvetica,sans-Serif" font-size="10.00">atomic</text>
</a>
</g>
</g>
<!-- Node7&#45;&gt;Node12 -->
<g id="edge62_Node000007_Node000012" class="edge">
<title>Node7&#45;&gt;Node12</title>
<g id="a_edge62_Node000007_Node000012"><a xlink:title=" ">
<path fill="none" stroke="#63b8ff" d="M723.05,-60.72C784.19,-54.52 896.48,-41.6 1001.52,-20.18"/>
<polygon fill="#63b8ff" stroke="#63b8ff" points="1002.08,-23.63 1011.16,-18.18 1000.66,-16.78 1002.08,-23.63"/>
</a>
</g>
</g>
<!-- Node13 -->
<g id="Node000013" class="node">
<title>Node13</title>
<g id="a_Node000013"><a xlink:title=" ">
<polygon fill="#e0e0e0" stroke="#999999" points="45.25,-20 0,-20 0,0 45.25,0 45.25,-20"/>
<text text-anchor="middle" x="22.62" y="-6.5" font-family="Helvetica,sans-Serif" font-size="10.00">chrono</text>
</a>
</g>
</g>
<!-- Node7&#45;&gt;Node13 -->
<g id="edge63_Node000007_Node000013" class="edge">
<title>Node7&#45;&gt;Node13</title>
<g id="a_edge63_Node000007_Node000013"><a xlink:title=" ">
<path fill="none" stroke="#63b8ff" d="M632.19,-64.98C530.4,-64.25 276.34,-58.55 56.62,-20.2"/>
<polygon fill="#63b8ff" stroke="#63b8ff" points="57.47,-16.8 47.01,-18.49 56.24,-23.69 57.47,-16.8"/>
</a>
</g>
</g>
<!-- Node14 -->
<g id="Node000014" class="node">
<title>Node14</title>
<g id="a_Node000014"><a xlink:title=" ">
<polygon fill="#e0e0e0" stroke="#999999" points="106.12,-20 63.12,-20 63.12,0 106.12,0 106.12,-20"/>
<text text-anchor="middle" x="84.62" y="-6.5" font-family="Helvetica,sans-Serif" font-size="10.00">thread</text>
</a>
</g>
</g>
<!-- Node7&#45;&gt;Node14 -->
<g id="edge64_Node000007_Node000014" class="edge">
<title>Node7&#45;&gt;Node14</title>
<g id="a_edge64_Node000007_Node000014"><a xlink:title=" ">
<path fill="none" stroke="#63b8ff" d="M632.05,-64.47C537.64,-62.7 313.8,-55.05 117.61,-19.97"/>
<polygon fill="#63b8ff" stroke="#63b8ff" points="118.46,-16.57 108,-18.22 117.21,-23.45 118.46,-16.57"/>
</a>
</g>
</g>
<!-- Node15 -->
<g id="Node000015" class="node">
<title>Node15</title>
<g id="a_Node000015"><a xlink:title=" ">
<polygon fill="#e0e0e0" stroke="#999999" points="183,-20 124.25,-20 124.25,0 183,0 183,-20"/>
<text text-anchor="middle" x="153.62" y="-6.5" font-family="Helvetica,sans-Serif" font-size="10.00">stdexcept</text>
</a>
</g>
</g>
<!-- Node7&#45;&gt;Node15 -->
<g id="edge65_Node000007_Node000015" class="edge">
<title>Node7&#45;&gt;Node15</title>
<g id="a_edge65_Node000007_Node000015"><a xlink:title=" ">
<path fill="none" stroke="#63b8ff" d="M632.13,-62.92C547.63,-58.6 360.65,-46.87 194.34,-20.25"/>
<polygon fill="#63b8ff" stroke="#63b8ff" points="195.34,-16.86 184.91,-18.72 194.22,-23.77 195.34,-16.86"/>
</a>
</g>
</g>
<!-- Node16 -->
<g id="Node000016" class="node">
<title>Node16</title>
<g id="a_Node000016"><a xlink:title=" ">
<polygon fill="#e0e0e0" stroke="#999999" points="322.75,-20 280.5,-20 280.5,0 322.75,0 322.75,-20"/>
<text text-anchor="middle" x="301.62" y="-6.5" font-family="Helvetica,sans-Serif" font-size="10.00">cstdio</text>
</a>
</g>
</g>
<!-- Node7&#45;&gt;Node16 -->
<g id="edge66_Node000007_Node000016" class="edge">
<title>Node7&#45;&gt;Node16</title>
<g id="a_edge66_Node000007_Node000016"><a xlink:title=" ">
<path fill="none" stroke="#63b8ff" d="M632.05,-61.29C567.81,-55.58 446.87,-43.03 334.4,-20.05"/>
<polygon fill="#63b8ff" stroke="#63b8ff" points="335.18,-16.64 324.68,-18.03 333.76,-23.49 335.18,-16.64"/>
</a>
</g>
</g>
<!-- Node17 -->
<g id="Node000017" class="node">
<title>Node17</title>
<g id="a_Node000017"><a xlink:title=" ">
<polygon fill="#e0e0e0" stroke="#999999" points="846.88,-20 802.38,-20 802.38,0 846.88,0 846.88,-20"/>
<text text-anchor="middle" x="824.62" y="-6.5" font-family="Helvetica,sans-Serif" font-size="10.00">cstdlib</text>
</a>
</g>
</g>
<!-- Node7&#45;&gt;Node17 -->
<g id="edge67_Node000007_Node000017" class="edge">
<title>Node7&#45;&gt;Node17</title>
<g id="a_edge67_Node000007_Node000017"><a xlink:title=" ">
<path fill="none" stroke="#63b8ff" d="M703.23,-55.59C727.7,-46.6 764.72,-33.01 791.44,-23.19"/>
<polygon fill="#63b8ff" stroke="#63b8ff" points="792.6,-26.49 800.78,-19.76 790.18,-19.92 792.6,-26.49"/>
</a>
</g>
</g>
<!-- Node18 -->
<g id="Node000018" class="node">
<title>Node18</title>
<g id="a_Node000018"><a xlink:title=" ">
<polygon fill="#e0e0e0" stroke="#999999" points="928.25,-20 865,-20 865,0 928.25,0 928.25,-20"/>
<text text-anchor="middle" x="896.62" y="-6.5" font-family="Helvetica,sans-Serif" font-size="10.00">TlHelp32.h</text>
</a>
</g>
</g>
<!-- Node7&#45;&gt;Node18 -->
<g id="edge68_Node000007_Node000018" class="edge">
<title>Node7&#45;&gt;Node18</title>
<g id="a_edge68_Node000007_Node000018"><a xlink:title=" ">
<path fill="none" stroke="#63b8ff" d="M716.02,-55.53C754.51,-46.04 813.65,-31.46 853.68,-21.59"/>
<polygon fill="#63b8ff" stroke="#63b8ff" points="854.34,-25.03 863.21,-19.24 852.66,-18.23 854.34,-25.03"/>
</a>
</g>
</g>
<!-- Node19 -->
<g id="Node000019" class="node">
<title>Node19</title>
<g id="a_Node000019"><a xlink:title=" ">
<polygon fill="#e0e0e0" stroke="#999999" points="994.75,-20 946.5,-20 946.5,0 994.75,0 994.75,-20"/>
<text text-anchor="middle" x="970.62" y="-6.5" font-family="Helvetica,sans-Serif" font-size="10.00">direct.h</text>
</a>
</g>
</g>
<!-- Node7&#45;&gt;Node19 -->
<g id="edge69_Node000007_Node000019" class="edge">
<title>Node7&#45;&gt;Node19</title>
<g id="a_edge69_Node000007_Node000019"><a xlink:title=" ">
<path fill="none" stroke="#63b8ff" d="M722.97,-58.49C772.72,-51.05 855.12,-37.86 934.94,-20.43"/>
<polygon fill="#63b8ff" stroke="#63b8ff" points="935.7,-23.85 944.7,-18.27 934.18,-17.01 935.7,-23.85"/>
</a>
</g>
</g>
<!-- Node20 -->
<g id="Node000020" class="node">
<title>Node20</title>
<g id="a_Node000020"><a xlink:title=" ">
<polygon fill="#e0e0e0" stroke="#999999" points="1125.12,-20 1076.12,-20 1076.12,0 1125.12,0 1125.12,-20"/>
<text text-anchor="middle" x="1100.62" y="-6.5" font-family="Helvetica,sans-Serif" font-size="10.00">fstream</text>
</a>
</g>
</g>
<!-- Node7&#45;&gt;Node20 -->
<g id="edge70_Node000007_Node000020" class="edge">
<title>Node7&#45;&gt;Node20</title>
<g id="a_edge70_Node000007_Node000020"><a xlink:title=" ">
<path fill="none" stroke="#63b8ff" d="M723,-62C794.01,-56.83 935.82,-44.54 1064.63,-20.34"/>
<polygon fill="#63b8ff" stroke="#63b8ff" points="1065.2,-23.79 1074.37,-18.47 1063.89,-16.91 1065.2,-23.79"/>
</a>
</g>
</g>
<!-- Node21 -->
<g id="Node000021" class="node">
<title>Node21</title>
<g id="a_Node000021"><a xlink:title=" ">
<polygon fill="#e0e0e0" stroke="#999999" points="676.25,-20 607,-20 607,0 676.25,0 676.25,-20"/>
<text text-anchor="middle" x="641.62" y="-6.5" font-family="Helvetica,sans-Serif" font-size="10.00">Netlistmgr.h</text>
</a>
</g>
</g>
<!-- Node7&#45;&gt;Node21 -->
<g id="edge71_Node000007_Node000021" class="edge">
<title>Node7&#45;&gt;Node21</title>
<g id="a_edge71_Node000007_Node000021"><a xlink:title=" ">
<path fill="none" stroke="#63b8ff" d="M671.35,-55.59C666.61,-48.47 659.93,-38.45 654.1,-29.72"/>
<polygon fill="#63b8ff" stroke="#63b8ff" points="657.12,-27.94 648.66,-21.56 651.3,-31.82 657.12,-27.94"/>
</a>
</g>
</g>
<!-- Node22 -->
<g id="Node000022" class="node">
<title>Node22</title>
<g id="a_Node000022"><a xlink:title=" ">
<polygon fill="#e0e0e0" stroke="#999999" points="734.62,-20 694.62,-20 694.62,0 734.62,0 734.62,-20"/>
<text text-anchor="middle" x="714.62" y="-6.5" font-family="Helvetica,sans-Serif" font-size="10.00">bitset</text>
</a>
</g>
</g>
<!-- Node7&#45;&gt;Node22 -->
<g id="edge72_Node000007_Node000022" class="edge">
<title>Node7&#45;&gt;Node22</title>
<g id="a_edge72_Node000007_Node000022"><a xlink:title=" ">
<path fill="none" stroke="#63b8ff" d="M684.07,-55.59C688.95,-48.47 695.82,-38.45 701.8,-29.72"/>
<polygon fill="#63b8ff" stroke="#63b8ff" points="704.63,-31.77 707.4,-21.55 698.86,-27.82 704.63,-31.77"/>
</a>
</g>
</g>
<!-- Node23 -->
<g id="Node000023" class="node">
<title>Node23</title>
<g id="a_Node000023"><a xlink:title=" ">
<polygon fill="#e0e0e0" stroke="#999999" points="784.5,-20 752.75,-20 752.75,0 784.5,0 784.5,-20"/>
<text text-anchor="middle" x="768.62" y="-6.5" font-family="Helvetica,sans-Serif" font-size="10.00">io.h</text>
</a>
</g>
</g>
<!-- Node7&#45;&gt;Node23 -->
<g id="edge74_Node000007_Node000023" class="edge">
<title>Node7&#45;&gt;Node23</title>
<g id="a_edge74_Node000007_Node000023"><a xlink:title=" ">
<path fill="none" stroke="#63b8ff" d="M693.48,-55.59C707.09,-47.51 726.99,-35.71 742.89,-26.27"/>
<polygon fill="#63b8ff" stroke="#63b8ff" points="744.53,-29.37 751.35,-21.25 740.96,-23.35 744.53,-29.37"/>
</a>
</g>
</g>
<!-- Node24 -->
<g id="Node000024" class="node">
<title>Node24</title>
<g id="a_Node000024"><a xlink:title=" ">
<polygon fill="#e0e0e0" stroke="#999999" points="262.12,-20 201.12,-20 201.12,0 262.12,0 262.12,-20"/>
<text text-anchor="middle" x="231.62" y="-6.5" font-family="Helvetica,sans-Serif" font-size="10.00">filesystem</text>
</a>
</g>
</g>
<!-- Node7&#45;&gt;Node24 -->
<g id="edge75_Node000007_Node000024" class="edge">
<title>Node7&#45;&gt;Node24</title>
<g id="a_edge75_Node000007_Node000024"><a xlink:title=" ">
<path fill="none" stroke="#63b8ff" d="M632.04,-61.61C558.67,-55.78 409.67,-42.47 273.59,-20.15"/>
<polygon fill="#63b8ff" stroke="#63b8ff" points="274.5,-16.75 264.06,-18.57 273.35,-23.66 274.5,-16.75"/>
</a>
</g>
</g>
<!-- Node25&#45;&gt;Node2 -->
<g id="edge80_Node000025_Node000002" class="edge">
<title>Node25&#45;&gt;Node2</title>
<g id="a_edge80_Node000025_Node000002"><a xlink:title=" ">
<path fill="none" stroke="#63b8ff" d="M1180.02,-56.66C1217.82,-48.67 1276.09,-35.88 1334.76,-20.63"/>
<polygon fill="#63b8ff" stroke="#63b8ff" points="1335.47,-24.07 1344.25,-18.14 1333.69,-17.3 1335.47,-24.07"/>
</a>
</g>
</g>
<!-- Node25&#45;&gt;Node5 -->
<g id="edge77_Node000025_Node000005" class="edge">
<title>Node25&#45;&gt;Node5</title>
<g id="a_edge77_Node000025_Node000005"><a xlink:title=" ">
<path fill="none" stroke="#63b8ff" d="M1156.17,-55.59C1170.52,-47.44 1191.55,-35.48 1208.23,-26"/>
<polygon fill="#63b8ff" stroke="#63b8ff" points="1209.67,-29.21 1216.63,-21.23 1206.21,-23.13 1209.67,-29.21"/>
</a>
</g>
</g>
<!-- Node25&#45;&gt;Node6 -->
<g id="edge78_Node000025_Node000006" class="edge">
<title>Node25&#45;&gt;Node6</title>
<g id="a_edge78_Node000025_Node000006"><a xlink:title=" ">
<path fill="none" stroke="#63b8ff" d="M1144.85,-55.59C1148.72,-48.63 1154.13,-38.89 1158.91,-30.29"/>
<polygon fill="#63b8ff" stroke="#63b8ff" points="1161.93,-32.06 1163.72,-21.62 1155.81,-28.66 1161.93,-32.06"/>
</a>
</g>
</g>
<!-- Node25&#45;&gt;Node20 -->
<g id="edge79_Node000025_Node000020" class="edge">
<title>Node25&#45;&gt;Node20</title>
<g id="a_edge79_Node000025_Node000020"><a xlink:title=" ">
<path fill="none" stroke="#63b8ff" d="M1132.83,-55.59C1127.63,-48.39 1120.29,-38.23 1113.94,-29.43"/>
<polygon fill="#63b8ff" stroke="#63b8ff" points="1116.92,-27.58 1108.23,-21.53 1111.24,-31.68 1116.92,-27.58"/>
</a>
</g>
</g>
<!-- Node26 -->
<g id="Node000026" class="node">
<title>Node26</title>
<g id="a_Node000026"><a xlink:title=" ">
<polygon fill="#e0e0e0" stroke="#999999" points="1328.5,-20 1272.75,-20 1272.75,0 1328.5,0 1328.5,-20"/>
<text text-anchor="middle" x="1300.62" y="-6.5" font-family="Helvetica,sans-Serif" font-size="10.00">algorithm</text>
</a>
</g>
</g>
<!-- Node25&#45;&gt;Node26 -->
<g id="edge81_Node000025_Node000026" class="edge">
<title>Node25&#45;&gt;Node26</title>
<g id="a_edge81_Node000025_Node000026"><a xlink:title=" ">
<path fill="none" stroke="#63b8ff" d="M1167.67,-55.59C1193.71,-46.86 1232.73,-33.77 1261.77,-24.03"/>
<polygon fill="#63b8ff" stroke="#63b8ff" points="1262.56,-27.46 1270.93,-20.96 1260.33,-20.82 1262.56,-27.46"/>
</a>
</g>
</g>
<!-- Node27&#45;&gt;Node6 -->
<g id="edge85_Node000027_Node000006" class="edge">
<title>Node27&#45;&gt;Node6</title>
<g id="a_edge85_Node000027_Node000006"><a xlink:title=" ">
<path fill="none" stroke="#63b8ff" d="M484.55,-118.65C567.85,-109.55 872.73,-74.41 1131.43,-20.55"/>
<polygon fill="#63b8ff" stroke="#63b8ff" points="1132,-24 1141.07,-18.52 1130.56,-17.15 1132,-24"/>
</a>
</g>
</g>
<!-- Node27&#45;&gt;Node7 -->
<g id="edge95_Node000027_Node000007" class="edge">
<title>Node27&#45;&gt;Node7</title>
<g id="a_edge95_Node000027_Node000007"><a xlink:title=" ">
<path fill="none" stroke="#63b8ff" d="M484.42,-115.53C518.08,-107.07 583.55,-90.63 628.88,-79.24"/>
<polygon fill="#63b8ff" stroke="#63b8ff" points="629.63,-82.66 638.48,-76.83 627.93,-75.87 629.63,-82.66"/>
</a>
</g>
</g>
<!-- Node27&#45;&gt;Node8 -->
<g id="edge84_Node000027_Node000008" class="edge">
<title>Node27&#45;&gt;Node8</title>
<g id="a_edge84_Node000027_Node000008"><a xlink:title=" ">
<path fill="none" stroke="#63b8ff" d="M455.04,-111.62C440.26,-93.36 407.39,-52.73 388.24,-29.07"/>
<polygon fill="#63b8ff" stroke="#63b8ff" points="391.16,-27.1 382.15,-21.53 385.71,-31.51 391.16,-27.1"/>
</a>
</g>
</g>
<!-- Node27&#45;&gt;Node9 -->
<g id="edge86_Node000027_Node000009" class="edge">
<title>Node27&#45;&gt;Node9</title>
<g id="a_edge86_Node000027_Node000009"><a xlink:title=" ">
<path fill="none" stroke="#63b8ff" d="M460.92,-111.62C457.72,-94.01 450.73,-55.59 446.38,-31.65"/>
<polygon fill="#63b8ff" stroke="#63b8ff" points="449.83,-31.06 444.6,-21.84 442.94,-32.31 449.83,-31.06"/>
</a>
</g>
</g>
<!-- Node27&#45;&gt;Node10 -->
<g id="edge87_Node000027_Node000010" class="edge">
<title>Node27&#45;&gt;Node10</title>
<g id="a_edge87_Node000027_Node000010"><a xlink:title=" ">
<path fill="none" stroke="#63b8ff" d="M471.24,-111.62C488.08,-93.27 525.64,-52.37 547.32,-28.75"/>
<polygon fill="#63b8ff" stroke="#63b8ff" points="549.83,-31.2 554.01,-21.47 544.67,-26.47 549.83,-31.2"/>
</a>
</g>
</g>
<!-- Node27&#45;&gt;Node11 -->
<g id="edge88_Node000027_Node000011" class="edge">
<title>Node27&#45;&gt;Node11</title>
<g id="a_edge88_Node000027_Node000011"><a xlink:title=" ">
<path fill="none" stroke="#63b8ff" d="M465.78,-111.62C471.76,-93.84 484.86,-54.88 492.9,-31"/>
<polygon fill="#63b8ff" stroke="#63b8ff" points="496.13,-32.38 496,-21.79 489.49,-30.15 496.13,-32.38"/>
</a>
</g>
</g>
<!-- Node27&#45;&gt;Node12 -->
<g id="edge90_Node000027_Node000012" class="edge">
<title>Node27&#45;&gt;Node12</title>
<g id="a_edge90_Node000027_Node000012"><a xlink:title=" ">
<path fill="none" stroke="#63b8ff" d="M484.45,-117.79C556.81,-106.98 795.43,-69.89 1001.57,-20.36"/>
<polygon fill="#63b8ff" stroke="#63b8ff" points="1002.24,-23.8 1011.13,-18.04 1000.59,-16.99 1002.24,-23.8"/>
</a>
</g>
</g>
<!-- Node27&#45;&gt;Node13 -->
<g id="edge91_Node000027_Node000013" class="edge">
<title>Node27&#45;&gt;Node13</title>
<g id="a_edge91_Node000027_Node000013"><a xlink:title=" ">
<path fill="none" stroke="#63b8ff" d="M440.95,-118.62C395.73,-113.35 288.26,-99.32 200.62,-76 148.56,-62.14 90.26,-39.41 55.01,-24.83"/>
<polygon fill="#63b8ff" stroke="#63b8ff" points="56.39,-21.62 45.81,-20.99 53.69,-28.08 56.39,-21.62"/>
</a>
</g>
</g>
<!-- Node27&#45;&gt;Node14 -->
<g id="edge92_Node000027_Node000014" class="edge">
<title>Node27&#45;&gt;Node14</title>
<g id="a_edge92_Node000027_Node000014"><a xlink:title=" ">
<path fill="none" stroke="#63b8ff" d="M440.72,-116.94C403.97,-109.92 327.72,-94.48 264.62,-76 212.04,-60.59 152.49,-38.06 116.79,-23.97"/>
<polygon fill="#63b8ff" stroke="#63b8ff" points="118.5,-20.89 107.91,-20.45 115.91,-27.39 118.5,-20.89"/>
</a>
</g>
</g>
<!-- Node27&#45;&gt;Node15 -->
<g id="edge93_Node000027_Node000015" class="edge">
<title>Node27&#45;&gt;Node15</title>
<g id="a_edge93_Node000027_Node000015"><a xlink:title=" ">
<path fill="none" stroke="#63b8ff" d="M440.67,-114.6C412.46,-106.26 362.09,-90.98 319.62,-76 273.08,-59.58 220.11,-38.4 186.78,-24.75"/>
<polygon fill="#63b8ff" stroke="#63b8ff" points="188.24,-21.57 177.66,-21.01 185.58,-28.05 188.24,-21.57"/>
</a>
</g>
</g>
<!-- Node27&#45;&gt;Node16 -->
<g id="edge94_Node000027_Node000016" class="edge">
<title>Node27&#45;&gt;Node16</title>
<g id="a_edge94_Node000027_Node000016"><a xlink:title=" ">
<path fill="none" stroke="#63b8ff" d="M448.9,-111.62C421.21,-92.71 358.44,-49.82 324.47,-26.61"/>
<polygon fill="#63b8ff" stroke="#63b8ff" points="326.8,-23.96 316.57,-21.21 322.85,-29.74 326.8,-23.96"/>
</a>
</g>
</g>
<!-- Node27&#45;&gt;Node24 -->
<g id="edge89_Node000027_Node000024" class="edge">
<title>Node27&#45;&gt;Node24</title>
<g id="a_edge89_Node000027_Node000024"><a xlink:title=" ">
<path fill="none" stroke="#63b8ff" d="M441.29,-111.53C421.18,-102.55 390.25,-88.6 363.62,-76 327.91,-59.09 287.16,-38.89 260.5,-25.54"/>
<polygon fill="#63b8ff" stroke="#63b8ff" points="262.2,-22.47 251.69,-21.12 259.06,-28.73 262.2,-22.47"/>
</a>
</g>
</g>
<!-- Node27&#45;&gt;Node25 -->
<g id="edge96_Node000027_Node000025" class="edge">
<title>Node27&#45;&gt;Node25</title>
<g id="a_edge96_Node000027_Node000025"><a xlink:title=" ">
<path fill="none" stroke="#63b8ff" d="M484.38,-119.26C578.18,-111.78 949.42,-82.17 1087.52,-71.16"/>
<polygon fill="#63b8ff" stroke="#63b8ff" points="1087.79,-74.65 1097.48,-70.36 1087.23,-67.67 1087.79,-74.65"/>
</a>
</g>
</g>
<!-- Node28&#45;&gt;Node4 -->
<g id="edge98_Node000028_Node000004" class="edge">
<title>Node28&#45;&gt;Node4</title>
<g id="a_edge98_Node000028_Node000004"><a xlink:title=" ">
<path fill="none" stroke="#63b8ff" d="M1238.53,-167.59C1237.05,-160.93 1235.01,-151.75 1233.17,-143.44"/>
<polygon fill="#63b8ff" stroke="#63b8ff" points="1236.61,-142.78 1231.02,-133.78 1229.77,-144.3 1236.61,-142.78"/>
</a>
</g>
</g>
</g>
</svg>
