<?xml version="1.0" encoding="UTF-8" standalone="no"?>
<!DOCTYPE svg PUBLIC "-//W3C//DTD SVG 1.1//EN"
 "http://www.w3.org/Graphics/SVG/1.1/DTD/svg11.dtd">
<!-- Generated by graphviz version 12.2.0 (20241103.1931)
 -->
<!-- Title: src/MyFrame.h Pages: 1 -->
<svg width="219pt" height="140pt"
 viewBox="0.00 0.00 218.88 140.00" xmlns="http://www.w3.org/2000/svg" xmlns:xlink="http://www.w3.org/1999/xlink">
<g id="graph0" class="graph" transform="scale(1 1) rotate(0) translate(4 136)">
<title>src/MyFrame.h</title>
<!-- Node1 -->
<g id="Node000001" class="node">
<title>Node1</title>
<g id="a_Node000001"><a xlink:title=" ">
<polygon fill="#999999" stroke="#666666" points="143.25,-132 61.25,-132 61.25,-112 143.25,-112 143.25,-132"/>
<text text-anchor="middle" x="102.25" y="-118.5" font-family="Helvetica,sans-Serif" font-size="10.00">src/MyFrame.h</text>
</a>
</g>
</g>
<!-- Node2 -->
<g id="Node000002" class="node">
<title>Node2</title>
<g id="a_Node000002"><a xlink:href="$_my_frame_8cpp.html" xlink:title=" ">
<polygon fill="white" stroke="#666666" points="92.5,-76 0,-76 0,-56 92.5,-56 92.5,-76"/>
<text text-anchor="middle" x="46.25" y="-62.5" font-family="Helvetica,sans-Serif" font-size="10.00">src/MyFrame.cpp</text>
</a>
</g>
</g>
<!-- Node1&#45;&gt;Node2 -->
<g id="edge4_Node000001_Node000002" class="edge">
<title>Node1&#45;&gt;Node2</title>
<g id="a_edge4_Node000001_Node000002"><a xlink:title=" ">
<path fill="none" stroke="#63b8ff" d="M84.46,-103.85C75,-94.72 63.73,-83.86 55.89,-76.3"/>
<polygon fill="#63b8ff" stroke="#63b8ff" points="81.78,-106.12 91.41,-110.54 86.64,-101.08 81.78,-106.12"/>
</a>
</g>
</g>
<!-- Node3 -->
<g id="Node000003" class="node">
<title>Node3</title>
<g id="a_Node000003"><a xlink:href="$_w_x_manager_8h.html" xlink:title=" ">
<polygon fill="white" stroke="#666666" points="205.62,-76 110.88,-76 110.88,-56 205.62,-56 205.62,-76"/>
<text text-anchor="middle" x="158.25" y="-62.5" font-family="Helvetica,sans-Serif" font-size="10.00">src/WXManager.h</text>
</a>
</g>
</g>
<!-- Node1&#45;&gt;Node3 -->
<g id="edge5_Node000001_Node000003" class="edge">
<title>Node1&#45;&gt;Node3</title>
<g id="a_edge5_Node000001_Node000003"><a xlink:title=" ">
<path fill="none" stroke="#63b8ff" d="M120.04,-103.85C129.5,-94.72 140.77,-83.86 148.61,-76.3"/>
<polygon fill="#63b8ff" stroke="#63b8ff" points="117.86,-101.08 113.09,-110.54 122.72,-106.12 117.86,-101.08"/>
</a>
</g>
</g>
<!-- Node4 -->
<g id="Node000004" class="node">
<title>Node4</title>
<g id="a_Node000004"><a xlink:href="$_w_x_manager_8cpp.html" xlink:title=" ">
<polygon fill="white" stroke="#666666" points="210.88,-20 105.62,-20 105.62,0 210.88,0 210.88,-20"/>
<text text-anchor="middle" x="158.25" y="-6.5" font-family="Helvetica,sans-Serif" font-size="10.00">src/WXManager.cpp</text>
</a>
</g>
</g>
<!-- Node3&#45;&gt;Node4 -->
<g id="edge6_Node000003_Node000004" class="edge">
<title>Node3&#45;&gt;Node4</title>
<g id="a_edge6_Node000003_Node000004"><a xlink:title=" ">
<path fill="none" stroke="#63b8ff" d="M158.25,-44.13C158.25,-35.9 158.25,-26.85 158.25,-20.3"/>
<polygon fill="#63b8ff" stroke="#63b8ff" points="154.75,-44.08 158.25,-54.08 161.75,-44.08 154.75,-44.08"/>
</a>
</g>
</g>
</g>
</svg>
