<?xml version="1.0" encoding="UTF-8" standalone="no"?>
<!DOCTYPE svg PUBLIC "-//W3C//DTD SVG 1.1//EN"
 "http://www.w3.org/Graphics/SVG/1.1/DTD/svg11.dtd">
<!-- Generated by graphviz version 12.2.0 (20241103.1931)
 -->
<!-- Title: executeString Pages: 1 -->
<svg width="254pt" height="142pt"
 viewBox="0.00 0.00 253.75 142.00" xmlns="http://www.w3.org/2000/svg" xmlns:xlink="http://www.w3.org/1999/xlink">
<g id="graph0" class="graph" transform="scale(1 1) rotate(0) translate(4 138)">
<title>executeString</title>
<!-- Node1 -->
<g id="Node000001" class="node">
<title>Node1</title>
<g id="a_Node000001"><a xlink:title=" ">
<polygon fill="#999999" stroke="#666666" points="245.75,-77 169.75,-77 169.75,-57 245.75,-57 245.75,-77"/>
<text text-anchor="middle" x="207.75" y="-63.5" font-family="Helvetica,sans-Serif" font-size="10.00">executeString</text>
</a>
</g>
</g>
<!-- Node2 -->
<g id="Node000002" class="node">
<title>Node2</title>
<g id="a_Node000002"><a xlink:href="$class_print_tag.html#add24872f30feaec9a360660b92d353ec" xlink:title=" ">
<polygon fill="white" stroke="#666666" points="113.12,-134 20.62,-134 20.62,-114 113.12,-114 113.12,-134"/>
<text text-anchor="middle" x="66.88" y="-120.5" font-family="Helvetica,sans-Serif" font-size="10.00">PrintTag::execute</text>
</a>
</g>
</g>
<!-- Node1&#45;&gt;Node2 -->
<g id="edge5_Node000001_Node000002" class="edge">
<title>Node1&#45;&gt;Node2</title>
<g id="a_edge5_Node000001_Node000002"><a xlink:title=" ">
<path fill="none" stroke="#63b8ff" d="M179.21,-83C165.79,-90.35 149.24,-98.81 133.75,-105 125.79,-108.18 117.1,-111.08 108.72,-113.59"/>
<polygon fill="#63b8ff" stroke="#63b8ff" points="180.88,-86.07 187.9,-78.13 177.46,-79.96 180.88,-86.07"/>
</a>
</g>
</g>
<!-- Node3 -->
<g id="Node000003" class="node">
<title>Node3</title>
<g id="a_Node000003"><a xlink:href="$class_store_tag.html#af902d7fcdb93431a74211efaec81965f" xlink:title=" ">
<polygon fill="white" stroke="#666666" points="114.62,-96 19.12,-96 19.12,-76 114.62,-76 114.62,-96"/>
<text text-anchor="middle" x="66.88" y="-82.5" font-family="Helvetica,sans-Serif" font-size="10.00">StoreTag::execute</text>
</a>
</g>
</g>
<!-- Node1&#45;&gt;Node3 -->
<g id="edge6_Node000001_Node000003" class="edge">
<title>Node1&#45;&gt;Node3</title>
<g id="a_edge6_Node000001_Node000003"><a xlink:title=" ">
<path fill="none" stroke="#63b8ff" d="M158.53,-73.6C144.39,-75.53 128.96,-77.64 114.9,-79.57"/>
<polygon fill="#63b8ff" stroke="#63b8ff" points="158.6,-77.12 168.03,-72.3 157.65,-70.18 158.6,-77.12"/>
</a>
</g>
</g>
<!-- Node4 -->
<g id="Node000004" class="node">
<title>Node4</title>
<g id="a_Node000004"><a xlink:href="$class_string_tag.html#a3c3b61a64de4cafa2a26b413b0bed686" xlink:title=" ">
<polygon fill="white" stroke="#666666" points="115.75,-58 18,-58 18,-38 115.75,-38 115.75,-58"/>
<text text-anchor="middle" x="66.88" y="-44.5" font-family="Helvetica,sans-Serif" font-size="10.00">StringTag::execute</text>
</a>
</g>
</g>
<!-- Node1&#45;&gt;Node4 -->
<g id="edge7_Node000001_Node000004" class="edge">
<title>Node1&#45;&gt;Node4</title>
<g id="a_edge7_Node000001_Node000004"><a xlink:title=" ">
<path fill="none" stroke="#63b8ff" d="M158.39,-60.38C144.72,-58.51 129.85,-56.48 116.18,-54.61"/>
<polygon fill="#63b8ff" stroke="#63b8ff" points="157.65,-63.82 168.03,-61.7 158.6,-56.88 157.65,-63.82"/>
</a>
</g>
</g>
<!-- Node5 -->
<g id="Node000005" class="node">
<title>Node5</title>
<g id="a_Node000005"><a xlink:href="$class_list_tag.html#a295acc5454205ee47ffb6da7d06e9a8f" xlink:title=" ">
<polygon fill="white" stroke="#666666" points="133.75,-20 0,-20 0,0 133.75,0 133.75,-20"/>
<text text-anchor="middle" x="66.88" y="-6.5" font-family="Helvetica,sans-Serif" font-size="10.00">ListTag::executeSimpleTag</text>
</a>
</g>
</g>
<!-- Node1&#45;&gt;Node5 -->
<g id="edge8_Node000001_Node000005" class="edge">
<title>Node1&#45;&gt;Node5</title>
<g id="a_edge8_Node000001_Node000005"><a xlink:title=" ">
<path fill="none" stroke="#63b8ff" d="M179.21,-51C165.79,-43.65 149.24,-35.19 133.75,-29 125.79,-25.82 117.1,-22.92 108.72,-20.41"/>
<polygon fill="#63b8ff" stroke="#63b8ff" points="177.46,-54.04 187.9,-55.87 180.88,-47.93 177.46,-54.04"/>
</a>
</g>
</g>
</g>
</svg>
