<?xml version="1.0" encoding="UTF-8" standalone="no"?>
<!DOCTYPE svg PUBLIC "-//W3C//DTD SVG 1.1//EN"
 "http://www.w3.org/Graphics/SVG/1.1/DTD/svg11.dtd">
<!-- Generated by graphviz version 12.2.0 (20241103.1931)
 -->
<!-- Title: getCoordTag Pages: 1 -->
<svg width="362pt" height="180pt"
 viewBox="0.00 0.00 362.00 180.00" xmlns="http://www.w3.org/2000/svg" xmlns:xlink="http://www.w3.org/1999/xlink">
<g id="graph0" class="graph" transform="scale(1 1) rotate(0) translate(4 176)">
<title>getCoordTag</title>
<!-- Node1 -->
<g id="Node000001" class="node">
<title>Node1</title>
<g id="a_Node000001"><a xlink:title=" ">
<polygon fill="#999999" stroke="#666666" points="354,-96 282.5,-96 282.5,-76 354,-76 354,-96"/>
<text text-anchor="middle" x="318.25" y="-82.5" font-family="Helvetica,sans-Serif" font-size="10.00">getCoordTag</text>
</a>
</g>
</g>
<!-- Node2 -->
<g id="Node000002" class="node">
<title>Node2</title>
<g id="a_Node000002"><a xlink:href="$_tags_8cpp.html#acc7a7317843e349ecdffda47724bf380" xlink:title=" ">
<polygon fill="white" stroke="#666666" points="246.5,-96 169.75,-96 169.75,-76 246.5,-76 246.5,-96"/>
<text text-anchor="middle" x="208.12" y="-82.5" font-family="Helvetica,sans-Serif" font-size="10.00">executeCoord</text>
</a>
</g>
</g>
<!-- Node1&#45;&gt;Node2 -->
<g id="edge8_Node000001_Node000002" class="edge">
<title>Node1&#45;&gt;Node2</title>
<g id="a_edge8_Node000001_Node000002"><a xlink:title=" ">
<path fill="none" stroke="#63b8ff" d="M270.65,-86C262.63,-86 254.4,-86 246.66,-86"/>
<polygon fill="#63b8ff" stroke="#63b8ff" points="270.63,-89.5 280.63,-86 270.63,-82.5 270.63,-89.5"/>
</a>
</g>
</g>
<!-- Node2&#45;&gt;Node2 -->
<g id="edge12_Node000002_Node000002" class="edge">
<title>Node2&#45;&gt;Node2</title>
<g id="a_edge12_Node000002_Node000002"><a xlink:title=" ">
<path fill="none" stroke="#63b8ff" d="M227.59,-107.44C225.08,-111.3 218.59,-114 208.12,-114 188.98,-114 183.15,-104.98 190.63,-96.34"/>
<polygon fill="#63b8ff" stroke="#63b8ff" points="231.08,-107.07 225.89,-97.83 224.18,-108.29 231.08,-107.07"/>
</a>
</g>
</g>
<!-- Node3 -->
<g id="Node000003" class="node">
<title>Node3</title>
<g id="a_Node000003"><a xlink:href="$class_coord_tag.html#a05fd30fa6bcce4b90c96f81adcc7f096" xlink:title=" ">
<polygon fill="white" stroke="#666666" points="116.12,-172 17.62,-172 17.62,-152 116.12,-152 116.12,-172"/>
<text text-anchor="middle" x="66.88" y="-158.5" font-family="Helvetica,sans-Serif" font-size="10.00">CoordTag::execute</text>
</a>
</g>
</g>
<!-- Node2&#45;&gt;Node3 -->
<g id="edge9_Node000002_Node000003" class="edge">
<title>Node2&#45;&gt;Node3</title>
<g id="a_edge9_Node000002_Node000003"><a xlink:title=" ">
<path fill="none" stroke="#63b8ff" d="M188.31,-103.9C174.25,-116.42 154.04,-132.68 133.75,-143 127.17,-146.35 119.92,-149.19 112.7,-151.57"/>
<polygon fill="#63b8ff" stroke="#63b8ff" points="190.47,-106.67 195.48,-97.34 185.74,-101.51 190.47,-106.67"/>
</a>
</g>
</g>
<!-- Node4 -->
<g id="Node000004" class="node">
<title>Node4</title>
<g id="a_Node000004"><a xlink:href="$class_print_tag.html#aaa0074d42cc27ed9be51cf6b680ccba8" xlink:title=" ">
<polygon fill="white" stroke="#666666" points="113.12,-134 20.62,-134 20.62,-114 113.12,-114 113.12,-134"/>
<text text-anchor="middle" x="66.88" y="-120.5" font-family="Helvetica,sans-Serif" font-size="10.00">PrintTag::execute</text>
</a>
</g>
</g>
<!-- Node2&#45;&gt;Node4 -->
<g id="edge10_Node000002_Node000004" class="edge">
<title>Node2&#45;&gt;Node4</title>
<g id="a_edge10_Node000002_Node000004"><a xlink:title=" ">
<path fill="none" stroke="#63b8ff" d="M158.48,-99.28C141.31,-103.96 122.26,-109.16 106.07,-113.58"/>
<polygon fill="#63b8ff" stroke="#63b8ff" points="159.26,-102.69 167.98,-96.68 157.41,-95.94 159.26,-102.69"/>
</a>
</g>
</g>
<!-- Node5 -->
<g id="Node000005" class="node">
<title>Node5</title>
<g id="a_Node000005"><a xlink:href="$class_store_tag.html#a851b13b9fe7597c4d44f24acc4fc0bff" xlink:title=" ">
<polygon fill="white" stroke="#666666" points="114.62,-96 19.12,-96 19.12,-76 114.62,-76 114.62,-96"/>
<text text-anchor="middle" x="66.88" y="-82.5" font-family="Helvetica,sans-Serif" font-size="10.00">StoreTag::execute</text>
</a>
</g>
</g>
<!-- Node2&#45;&gt;Node5 -->
<g id="edge11_Node000002_Node000005" class="edge">
<title>Node2&#45;&gt;Node5</title>
<g id="a_edge11_Node000002_Node000005"><a xlink:title=" ">
<path fill="none" stroke="#63b8ff" d="M158.05,-86C144.08,-86 128.91,-86 115.06,-86"/>
<polygon fill="#63b8ff" stroke="#63b8ff" points="157.93,-89.5 167.93,-86 157.93,-82.5 157.93,-89.5"/>
</a>
</g>
</g>
<!-- Node6 -->
<g id="Node000006" class="node">
<title>Node6</title>
<g id="a_Node000006"><a xlink:href="$class_list_tag.html#ae4d69bbe6f70fb5303486e8cb901c0e4" xlink:title=" ">
<polygon fill="white" stroke="#666666" points="133.75,-58 0,-58 0,-38 133.75,-38 133.75,-58"/>
<text text-anchor="middle" x="66.88" y="-44.5" font-family="Helvetica,sans-Serif" font-size="10.00">ListTag::executeSimpleTag</text>
</a>
</g>
</g>
<!-- Node2&#45;&gt;Node6 -->
<g id="edge13_Node000002_Node000006" class="edge">
<title>Node2&#45;&gt;Node6</title>
<g id="a_edge13_Node000002_Node000006"><a xlink:title=" ">
<path fill="none" stroke="#63b8ff" d="M158.48,-72.72C141.31,-68.04 122.26,-62.84 106.07,-58.42"/>
<polygon fill="#63b8ff" stroke="#63b8ff" points="157.41,-76.06 167.98,-75.32 159.26,-69.31 157.41,-76.06"/>
</a>
</g>
</g>
<!-- Node7 -->
<g id="Node000007" class="node">
<title>Node7</title>
<g id="a_Node000007"><a xlink:href="$_tags_8cpp.html#a50b5a098d92d9488b24f241307659676" xlink:title=" ">
<polygon fill="white" stroke="#666666" points="103,-20 30.75,-20 30.75,0 103,0 103,-20"/>
<text text-anchor="middle" x="66.88" y="-6.5" font-family="Helvetica,sans-Serif" font-size="10.00">executeZone</text>
</a>
</g>
</g>
<!-- Node2&#45;&gt;Node7 -->
<g id="edge14_Node000002_Node000007" class="edge">
<title>Node2&#45;&gt;Node7</title>
<g id="a_edge14_Node000002_Node000007"><a xlink:title=" ">
<path fill="none" stroke="#63b8ff" d="M188.31,-68.1C174.25,-55.58 154.04,-39.32 133.75,-29 124.31,-24.2 113.47,-20.44 103.35,-17.57"/>
<polygon fill="#63b8ff" stroke="#63b8ff" points="185.74,-70.49 195.48,-74.66 190.47,-65.33 185.74,-70.49"/>
</a>
</g>
</g>
</g>
</svg>
