<?xml version="1.0" encoding="UTF-8" standalone="no"?>
<!DOCTYPE svg PUBLIC "-//W3C//DTD SVG 1.1//EN"
 "http://www.w3.org/Graphics/SVG/1.1/DTD/svg11.dtd">
<!-- Generated by graphviz version 12.2.0 (20241103.1931)
 -->
<!-- Title: getDirectionTag Pages: 1 -->
<svg width="388pt" height="142pt"
 viewBox="0.00 0.00 387.50 142.00" xmlns="http://www.w3.org/2000/svg" xmlns:xlink="http://www.w3.org/1999/xlink">
<g id="graph0" class="graph" transform="scale(1 1) rotate(0) translate(4 138)">
<title>getDirectionTag</title>
<!-- Node1 -->
<g id="Node000001" class="node">
<title>Node1</title>
<g id="a_Node000001"><a xlink:title=" ">
<polygon fill="#999999" stroke="#666666" points="379.5,-77 295.25,-77 295.25,-57 379.5,-57 379.5,-77"/>
<text text-anchor="middle" x="337.38" y="-63.5" font-family="Helvetica,sans-Serif" font-size="10.00">getDirectionTag</text>
</a>
</g>
</g>
<!-- Node2 -->
<g id="Node000002" class="node">
<title>Node2</title>
<g id="a_Node000002"><a xlink:href="$_tags_8cpp.html#adb0c764ef1f20ef3d860516a5040b43a" xlink:title=" ">
<polygon fill="white" stroke="#666666" points="259.25,-77 169.75,-77 169.75,-57 259.25,-57 259.25,-77"/>
<text text-anchor="middle" x="214.5" y="-63.5" font-family="Helvetica,sans-Serif" font-size="10.00">executeDirection</text>
</a>
</g>
</g>
<!-- Node1&#45;&gt;Node2 -->
<g id="edge6_Node000001_Node000002" class="edge">
<title>Node1&#45;&gt;Node2</title>
<g id="a_edge6_Node000001_Node000002"><a xlink:title=" ">
<path fill="none" stroke="#63b8ff" d="M283.36,-67C275.45,-67 267.36,-67 259.65,-67"/>
<polygon fill="#63b8ff" stroke="#63b8ff" points="283.26,-70.5 293.26,-67 283.26,-63.5 283.26,-70.5"/>
</a>
</g>
</g>
<!-- Node3 -->
<g id="Node000003" class="node">
<title>Node3</title>
<g id="a_Node000003"><a xlink:href="$class_direction_tag.html#a2b90667db99f9bfdecdf45a7cc72dd0e" xlink:title=" ">
<polygon fill="white" stroke="#666666" points="122.5,-134 11.25,-134 11.25,-114 122.5,-114 122.5,-134"/>
<text text-anchor="middle" x="66.88" y="-120.5" font-family="Helvetica,sans-Serif" font-size="10.00">DirectionTag::execute</text>
</a>
</g>
</g>
<!-- Node2&#45;&gt;Node3 -->
<g id="edge7_Node000002_Node000003" class="edge">
<title>Node2&#45;&gt;Node3</title>
<g id="a_edge7_Node000002_Node000003"><a xlink:title=" ">
<path fill="none" stroke="#63b8ff" d="M183.82,-82.57C169.03,-89.96 150.71,-98.56 133.75,-105 125.52,-108.13 116.54,-111.03 107.93,-113.58"/>
<polygon fill="#63b8ff" stroke="#63b8ff" points="185.22,-85.78 192.55,-78.14 182.05,-79.54 185.22,-85.78"/>
</a>
</g>
</g>
<!-- Node4 -->
<g id="Node000004" class="node">
<title>Node4</title>
<g id="a_Node000004"><a xlink:href="$class_print_tag.html#a3edc98e922d8e2250bdb3970a6cb4d1b" xlink:title=" ">
<polygon fill="white" stroke="#666666" points="113.12,-96 20.62,-96 20.62,-76 113.12,-76 113.12,-96"/>
<text text-anchor="middle" x="66.88" y="-82.5" font-family="Helvetica,sans-Serif" font-size="10.00">PrintTag::execute</text>
</a>
</g>
</g>
<!-- Node2&#45;&gt;Node4 -->
<g id="edge8_Node000002_Node000004" class="edge">
<title>Node2&#45;&gt;Node4</title>
<g id="a_edge8_Node000002_Node000004"><a xlink:title=" ">
<path fill="none" stroke="#63b8ff" d="M158.36,-74.19C143.59,-76.12 127.78,-78.18 113.58,-80.04"/>
<polygon fill="#63b8ff" stroke="#63b8ff" points="158.45,-77.71 167.91,-72.95 157.54,-70.77 158.45,-77.71"/>
</a>
</g>
</g>
<!-- Node5 -->
<g id="Node000005" class="node">
<title>Node5</title>
<g id="a_Node000005"><a xlink:href="$class_store_tag.html#a167c9b06d677b3430d6ac1f8236fc4ae" xlink:title=" ">
<polygon fill="white" stroke="#666666" points="114.62,-58 19.12,-58 19.12,-38 114.62,-38 114.62,-58"/>
<text text-anchor="middle" x="66.88" y="-44.5" font-family="Helvetica,sans-Serif" font-size="10.00">StoreTag::execute</text>
</a>
</g>
</g>
<!-- Node2&#45;&gt;Node5 -->
<g id="edge9_Node000002_Node000005" class="edge">
<title>Node2&#45;&gt;Node5</title>
<g id="a_edge9_Node000002_Node000005"><a xlink:title=" ">
<path fill="none" stroke="#63b8ff" d="M158.26,-59.79C144.04,-57.94 128.87,-55.96 115.1,-54.16"/>
<polygon fill="#63b8ff" stroke="#63b8ff" points="157.54,-63.23 167.91,-61.05 158.45,-56.29 157.54,-63.23"/>
</a>
</g>
</g>
<!-- Node6 -->
<g id="Node000006" class="node">
<title>Node6</title>
<g id="a_Node000006"><a xlink:href="$class_list_tag.html#a13d2ab53f05b3e556994c739567374a1" xlink:title=" ">
<polygon fill="white" stroke="#666666" points="133.75,-20 0,-20 0,0 133.75,0 133.75,-20"/>
<text text-anchor="middle" x="66.88" y="-6.5" font-family="Helvetica,sans-Serif" font-size="10.00">ListTag::executeSimpleTag</text>
</a>
</g>
</g>
<!-- Node2&#45;&gt;Node6 -->
<g id="edge10_Node000002_Node000006" class="edge">
<title>Node2&#45;&gt;Node6</title>
<g id="a_edge10_Node000002_Node000006"><a xlink:title=" ">
<path fill="none" stroke="#63b8ff" d="M183.82,-51.43C169.03,-44.04 150.71,-35.44 133.75,-29 125.52,-25.87 116.54,-22.97 107.93,-20.42"/>
<polygon fill="#63b8ff" stroke="#63b8ff" points="182.05,-54.46 192.55,-55.86 185.22,-48.22 182.05,-54.46"/>
</a>
</g>
</g>
</g>
</svg>
