<?xml version="1.0" encoding="UTF-8" standalone="no"?>
<!DOCTYPE svg PUBLIC "-//W3C//DTD SVG 1.1//EN"
 "http://www.w3.org/Graphics/SVG/1.1/DTD/svg11.dtd">
<!-- Generated by graphviz version 12.2.0 (20241103.1931)
 -->
<!-- Title: countMatches Pages: 1 -->
<svg width="326pt" height="66pt"
 viewBox="0.00 0.00 326.00 66.00" xmlns="http://www.w3.org/2000/svg" xmlns:xlink="http://www.w3.org/1999/xlink">
<g id="graph0" class="graph" transform="scale(1 1) rotate(0) translate(4 62)">
<title>countMatches</title>
<!-- Node1 -->
<g id="Node000001" class="node">
<title>Node1</title>
<g id="a_Node000001"><a xlink:title=" ">
<polygon fill="#999999" stroke="#666666" points="318,-39 240.5,-39 240.5,-19 318,-19 318,-39"/>
<text text-anchor="middle" x="279.25" y="-25.5" font-family="Helvetica,sans-Serif" font-size="10.00">countMatches</text>
</a>
</g>
</g>
<!-- Node2 -->
<g id="Node000002" class="node">
<title>Node2</title>
<g id="a_Node000002"><a xlink:href="$_text_manager_8cpp.html#a87f06bcc7caeab328ba32f4aec7883e2" xlink:title=" ">
<polygon fill="white" stroke="#666666" points="200,-58 94,-58 94,-38 200,-38 200,-58"/>
<text text-anchor="middle" x="147" y="-44.5" font-family="Helvetica,sans-Serif" font-size="10.00">countMatchesBefore</text>
</a>
</g>
</g>
<!-- Node1&#45;&gt;Node2 -->
<g id="edge4_Node000001_Node000002" class="edge">
<title>Node1&#45;&gt;Node2</title>
<g id="a_edge4_Node000001_Node000002"><a xlink:title=" ">
<path fill="none" stroke="#63b8ff" d="M229.07,-36.17C219.69,-37.54 209.83,-38.98 200.35,-40.36"/>
<polygon fill="#63b8ff" stroke="#63b8ff" points="229.34,-39.67 238.73,-34.77 228.33,-32.75 229.34,-39.67"/>
</a>
</g>
</g>
<!-- Node3 -->
<g id="Node000003" class="node">
<title>Node3</title>
<g id="a_Node000003"><a xlink:href="$_text_manager_8cpp.html#a5adfb1e14ce20866bfe01ed05b344a87" xlink:title=" ">
<polygon fill="white" stroke="#666666" points="204.5,-20 89.5,-20 89.5,0 204.5,0 204.5,-20"/>
<text text-anchor="middle" x="147" y="-6.5" font-family="Helvetica,sans-Serif" font-size="10.00">getStringInsideBorders</text>
</a>
</g>
</g>
<!-- Node1&#45;&gt;Node3 -->
<g id="edge5_Node000001_Node000003" class="edge">
<title>Node1&#45;&gt;Node3</title>
<g id="a_edge5_Node000001_Node000003"><a xlink:title=" ">
<path fill="none" stroke="#63b8ff" d="M228.93,-21.81C221.02,-20.65 212.78,-19.45 204.71,-18.27"/>
<polygon fill="#63b8ff" stroke="#63b8ff" points="228.33,-25.25 238.73,-23.23 229.34,-18.33 228.33,-25.25"/>
</a>
</g>
</g>
<!-- Node4 -->
<g id="Node000004" class="node">
<title>Node4</title>
<g id="a_Node000004"><a xlink:href="$_w_x_manager_8cpp.html#a5dcb537699bebb9e9db36ab19c5aacf7" xlink:title=" ">
<polygon fill="white" stroke="#666666" points="53.5,-20 0,-20 0,0 53.5,0 53.5,-20"/>
<text text-anchor="middle" x="26.75" y="-6.5" font-family="Helvetica,sans-Serif" font-size="10.00">runTests</text>
</a>
</g>
</g>
<!-- Node3&#45;&gt;Node4 -->
<g id="edge6_Node000003_Node000004" class="edge">
<title>Node3&#45;&gt;Node4</title>
<g id="a_edge6_Node000003_Node000004"><a xlink:title=" ">
<path fill="none" stroke="#63b8ff" d="M77.94,-10C69.37,-10 61.05,-10 53.74,-10"/>
<polygon fill="#63b8ff" stroke="#63b8ff" points="77.79,-13.5 87.79,-10 77.79,-6.5 77.79,-13.5"/>
</a>
</g>
</g>
</g>
</svg>
