<?xml version="1.0" encoding="UTF-8" standalone="no"?>
<!DOCTYPE svg PUBLIC "-//W3C//DTD SVG 1.1//EN"
 "http://www.w3.org/Graphics/SVG/1.1/DTD/svg11.dtd">
<!-- Generated by graphviz version 12.2.0 (20241103.1931)
 -->
<!-- Title: getLine Pages: 1 -->
<svg width="1293pt" height="727pt"
 viewBox="0.00 0.00 1292.50 726.92" xmlns="http://www.w3.org/2000/svg" xmlns:xlink="http://www.w3.org/1999/xlink">
<g id="graph0" class="graph" transform="scale(1 1) rotate(0) translate(4 722.92)">
<title>getLine</title>
<!-- Node1 -->
<g id="Node000001" class="node">
<title>Node1</title>
<g id="a_Node000001"><a xlink:title=" ">
<polygon fill="#999999" stroke="#666666" points="1284.5,-243 1237,-243 1237,-223 1284.5,-223 1284.5,-243"/>
<text text-anchor="middle" x="1260.75" y="-229.5" font-family="Helvetica,sans-Serif" font-size="10.00">getLine</text>
</a>
</g>
</g>
<!-- Node2 -->
<g id="Node000002" class="node">
<title>Node2</title>
<g id="a_Node000002"><a xlink:href="$_text_manager_8cpp.html#ae390b108793fa81984968410a695c1af" xlink:title=" ">
<polygon fill="white" stroke="#666666" points="1201,-262 1102.5,-262 1102.5,-242 1201,-242 1201,-262"/>
<text text-anchor="middle" x="1151.75" y="-248.5" font-family="Helvetica,sans-Serif" font-size="10.00">extractLineContent</text>
</a>
</g>
</g>
<!-- Node1&#45;&gt;Node2 -->
<g id="edge63_Node000001_Node000002" class="edge">
<title>Node1&#45;&gt;Node2</title>
<g id="a_edge63_Node000001_Node000002"><a xlink:title=" ">
<path fill="none" stroke="#63b8ff" d="M1225.46,-239.09C1217.8,-240.45 1209.53,-241.92 1201.41,-243.36"/>
<polygon fill="#63b8ff" stroke="#63b8ff" points="1225.81,-242.58 1235.04,-237.39 1224.58,-235.69 1225.81,-242.58"/>
</a>
</g>
</g>
<!-- Node12 -->
<g id="Node000012" class="node">
<title>Node12</title>
<g id="a_Node000012"><a xlink:href="$_text_manager_8cpp.html#a42b898aede0151587625671fa5ba1ef3" xlink:title=" ">
<polygon fill="white" stroke="#666666" points="1183.75,-186 1119.75,-186 1119.75,-166 1183.75,-166 1183.75,-186"/>
<text text-anchor="middle" x="1151.75" y="-172.5" font-family="Helvetica,sans-Serif" font-size="10.00">getAllLines</text>
</a>
</g>
</g>
<!-- Node1&#45;&gt;Node12 -->
<g id="edge71_Node000001_Node000012" class="edge">
<title>Node1&#45;&gt;Node12</title>
<g id="a_edge71_Node000001_Node000012"><a xlink:title=" ">
<path fill="none" stroke="#63b8ff" d="M1231.72,-216.88C1222.04,-211.41 1211.1,-205.34 1201,-200 1192.23,-195.36 1182.46,-190.45 1174.01,-186.29"/>
<polygon fill="#63b8ff" stroke="#63b8ff" points="1229.88,-219.86 1240.3,-221.76 1233.34,-213.77 1229.88,-219.86"/>
</a>
</g>
</g>
<!-- Node13 -->
<g id="Node000013" class="node">
<title>Node13</title>
<g id="a_Node000013"><a xlink:href="$class_bot_config.html#a623d05e4d8e0122d35b1a3e391fc2464" xlink:title=" ">
<polygon fill="white" stroke="#666666" points="1056.75,-586 947,-586 947,-566 1056.75,-566 1056.75,-586"/>
<text text-anchor="middle" x="1001.88" y="-572.5" font-family="Helvetica,sans-Serif" font-size="10.00">BotConfig::readString</text>
</a>
</g>
</g>
<!-- Node1&#45;&gt;Node13 -->
<g id="edge72_Node000001_Node000013" class="edge">
<title>Node1&#45;&gt;Node13</title>
<g id="a_edge72_Node000001_Node000013"><a xlink:title=" ">
<path fill="none" stroke="#63b8ff" d="M1245.34,-252.24C1197.72,-315.83 1046.36,-517.93 1010.53,-565.77"/>
<polygon fill="#63b8ff" stroke="#63b8ff" points="1247.96,-254.58 1251.15,-244.48 1242.36,-250.38 1247.96,-254.58"/>
</a>
</g>
</g>
<!-- Node38 -->
<g id="Node000038" class="node">
<title>Node38</title>
<g id="a_Node000038"><a xlink:href="$class_bot_config.html#ab92a15dd3027a7f42b452cdf5eaf9529" xlink:title=" ">
<polygon fill="white" stroke="#666666" points="1062,-136 941.75,-136 941.75,-116 1062,-116 1062,-136"/>
<text text-anchor="middle" x="1001.88" y="-122.5" font-family="Helvetica,sans-Serif" font-size="10.00">BotConfig::updateString</text>
</a>
</g>
</g>
<!-- Node1&#45;&gt;Node38 -->
<g id="edge103_Node000001_Node000038" class="edge">
<title>Node1&#45;&gt;Node38</title>
<g id="a_edge103_Node000001_Node000038"><a xlink:title=" ">
<path fill="none" stroke="#63b8ff" d="M1225.56,-228.46C1192.89,-223.27 1142.79,-213.06 1102.5,-195 1067.75,-179.42 1032.34,-151.38 1014.57,-136.29"/>
<polygon fill="#63b8ff" stroke="#63b8ff" points="1224.85,-231.89 1235.26,-229.92 1225.9,-224.97 1224.85,-231.89"/>
</a>
</g>
</g>
<!-- Node3 -->
<g id="Node000003" class="node">
<title>Node3</title>
<g id="a_Node000003"><a xlink:href="$class_l_d_player.html#afd9b51341bf5b7b0a2d23777744c97b3" xlink:title=" ">
<polygon fill="white" stroke="#666666" points="1061.62,-284 942.12,-284 942.12,-264 1061.62,-264 1061.62,-284"/>
<text text-anchor="middle" x="1001.88" y="-270.5" font-family="Helvetica,sans-Serif" font-size="10.00">LDPlayer::adbActivated</text>
</a>
</g>
</g>
<!-- Node2&#45;&gt;Node3 -->
<g id="edge64_Node000002_Node000003" class="edge">
<title>Node2&#45;&gt;Node3</title>
<g id="a_edge64_Node000002_Node000003"><a xlink:title=" ">
<path fill="none" stroke="#63b8ff" d="M1091.22,-260.86C1081.58,-262.29 1071.61,-263.77 1061.99,-265.21"/>
<polygon fill="#63b8ff" stroke="#63b8ff" points="1091.46,-264.36 1100.83,-259.43 1090.43,-257.44 1091.46,-264.36"/>
</a>
</g>
</g>
<!-- Node4 -->
<g id="Node000004" class="node">
<title>Node4</title>
<g id="a_Node000004"><a xlink:href="$class_l_d_player.html#ae531fb07962ccef1e326f231c520ae28" xlink:title=" ">
<polygon fill="white" stroke="#666666" points="1066.5,-246 937.25,-246 937.25,-214 1066.5,-214 1066.5,-246"/>
<text text-anchor="start" x="945.25" y="-232.5" font-family="Helvetica,sans-Serif" font-size="10.00">LDPlayer::searchInstance</text>
<text text-anchor="middle" x="1001.88" y="-220.5" font-family="Helvetica,sans-Serif" font-size="10.00">Config</text>
</a>
</g>
</g>
<!-- Node2&#45;&gt;Node4 -->
<g id="edge65_Node000002_Node000004" class="edge">
<title>Node2&#45;&gt;Node4</title>
<g id="a_edge65_Node000002_Node000004"><a xlink:title=" ">
<path fill="none" stroke="#63b8ff" d="M1091.16,-243.13C1083.12,-241.94 1074.85,-240.71 1066.74,-239.5"/>
<polygon fill="#63b8ff" stroke="#63b8ff" points="1090.43,-246.56 1100.83,-244.57 1091.46,-239.64 1090.43,-246.56"/>
</a>
</g>
</g>
<!-- Node5 -->
<g id="Node000005" class="node">
<title>Node5</title>
<g id="a_Node000005"><a xlink:href="$class_l_d_player.html#a0f72cc2becd0739ee469eca4088c4f2a" xlink:title=" ">
<polygon fill="white" stroke="#666666" points="901.25,-246 755.5,-246 755.5,-214 901.25,-214 901.25,-246"/>
<text text-anchor="start" x="763.5" y="-232.5" font-family="Helvetica,sans-Serif" font-size="10.00">LDPlayer::searchAllInstances</text>
<text text-anchor="middle" x="828.38" y="-220.5" font-family="Helvetica,sans-Serif" font-size="10.00">Config</text>
</a>
</g>
</g>
<!-- Node4&#45;&gt;Node5 -->
<g id="edge66_Node000004_Node000005" class="edge">
<title>Node4&#45;&gt;Node5</title>
<g id="a_edge66_Node000004_Node000005"><a xlink:title=" ">
<path fill="none" stroke="#63b8ff" d="M925.52,-230C917.6,-230 909.55,-230 901.66,-230"/>
<polygon fill="#63b8ff" stroke="#63b8ff" points="925.5,-233.5 935.5,-230 925.5,-226.5 925.5,-233.5"/>
</a>
</g>
</g>
<!-- Node6 -->
<g id="Node000006" class="node">
<title>Node6</title>
<g id="a_Node000006"><a xlink:href="$class_l_d_player.html#a5a7ed2dad62f72bc13993da3d50f385e" xlink:title=" ">
<polygon fill="white" stroke="#666666" points="701.5,-240 583.5,-240 583.5,-220 701.5,-220 701.5,-240"/>
<text text-anchor="middle" x="642.5" y="-226.5" font-family="Helvetica,sans-Serif" font-size="10.00">LDPlayer::initInstances</text>
</a>
</g>
</g>
<!-- Node5&#45;&gt;Node6 -->
<g id="edge67_Node000005_Node000006" class="edge">
<title>Node5&#45;&gt;Node6</title>
<g id="a_edge67_Node000005_Node000006"><a xlink:title=" ">
<path fill="none" stroke="#63b8ff" d="M743.91,-230C729.7,-230 715.21,-230 701.82,-230"/>
<polygon fill="#63b8ff" stroke="#63b8ff" points="743.72,-233.5 753.72,-230 743.72,-226.5 743.72,-233.5"/>
</a>
</g>
</g>
<!-- Node7 -->
<g id="Node000007" class="node">
<title>Node7</title>
<g id="a_Node000007"><a xlink:href="$class_l_d_player.html#aa4d08272c0957b3f9ccd69bee91d39ac" xlink:title=" ">
<polygon fill="white" stroke="#666666" points="484.88,-240 409.62,-240 409.62,-220 484.88,-220 484.88,-240"/>
<text text-anchor="middle" x="447.25" y="-226.5" font-family="Helvetica,sans-Serif" font-size="10.00">LDPlayer::init</text>
</a>
</g>
</g>
<!-- Node6&#45;&gt;Node7 -->
<g id="edge68_Node000006_Node000007" class="edge">
<title>Node6&#45;&gt;Node7</title>
<g id="a_edge68_Node000006_Node000007"><a xlink:title=" ">
<path fill="none" stroke="#63b8ff" d="M571.84,-230C542.62,-230 509.82,-230 485.36,-230"/>
<polygon fill="#63b8ff" stroke="#63b8ff" points="571.74,-233.5 581.74,-230 571.74,-226.5 571.74,-233.5"/>
</a>
</g>
</g>
<!-- Node8 -->
<g id="Node000008" class="node">
<title>Node8</title>
<g id="a_Node000008"><a xlink:href="$class_bot_config.html#ac91f46c5dca7953454d5a2340dfd7f5c" xlink:title=" ">
<polygon fill="white" stroke="#666666" points="305.38,-218 188.88,-218 188.88,-198 305.38,-198 305.38,-218"/>
<text text-anchor="middle" x="247.12" y="-204.5" font-family="Helvetica,sans-Serif" font-size="10.00">BotConfig::initLdPlayer</text>
</a>
</g>
</g>
<!-- Node7&#45;&gt;Node8 -->
<g id="edge69_Node000007_Node000008" class="edge">
<title>Node7&#45;&gt;Node8</title>
<g id="a_edge69_Node000007_Node000008"><a xlink:title=" ">
<path fill="none" stroke="#63b8ff" d="M398.01,-224.64C370.19,-221.55 335.02,-217.65 305.75,-214.4"/>
<polygon fill="#63b8ff" stroke="#63b8ff" points="397.62,-228.12 407.94,-225.75 398.39,-221.16 397.62,-228.12"/>
</a>
</g>
</g>
<!-- Node9 -->
<g id="Node000009" class="node">
<title>Node9</title>
<g id="a_Node000009"><a xlink:href="$class_bot_config.html#af8c906f3cd22726a96e758886c756068" xlink:title=" ">
<polygon fill="#fff0f0" stroke="red" points="125.88,-218 3.38,-218 3.38,-198 125.88,-198 125.88,-218"/>
<text text-anchor="middle" x="64.62" y="-204.5" font-family="Helvetica,sans-Serif" font-size="10.00">BotConfig::initEmulators</text>
</a>
</g>
</g>
<!-- Node8&#45;&gt;Node9 -->
<g id="edge70_Node000008_Node000009" class="edge">
<title>Node8&#45;&gt;Node9</title>
<g id="a_edge70_Node000008_Node000009"><a xlink:title=" ">
<path fill="none" stroke="#63b8ff" d="M177.09,-208C160.3,-208 142.47,-208 126.11,-208"/>
<polygon fill="#63b8ff" stroke="#63b8ff" points="177,-211.5 187,-208 177,-204.5 177,-211.5"/>
</a>
</g>
</g>
<!-- Node14 -->
<g id="Node000014" class="node">
<title>Node14</title>
<g id="a_Node000014"><a xlink:href="$class_bot_config.html#a459cd36b6c6f36f9bd73ff207e2fe5ec" xlink:title=" ">
<polygon fill="white" stroke="#666666" points="880.25,-586 776.5,-586 776.5,-566 880.25,-566 880.25,-586"/>
<text text-anchor="middle" x="828.38" y="-572.5" font-family="Helvetica,sans-Serif" font-size="10.00">BotConfig::readBool</text>
</a>
</g>
</g>
<!-- Node13&#45;&gt;Node14 -->
<g id="edge73_Node000013_Node000014" class="edge">
<title>Node13&#45;&gt;Node14</title>
<g id="a_edge73_Node000013_Node000014"><a xlink:title=" ">
<path fill="none" stroke="#63b8ff" d="M935.25,-576C917.16,-576 897.8,-576 880.66,-576"/>
<polygon fill="#63b8ff" stroke="#63b8ff" points="935.1,-579.5 945.1,-576 935.1,-572.5 935.1,-579.5"/>
</a>
</g>
</g>
<!-- Node23 -->
<g id="Node000023" class="node">
<title>Node23</title>
<g id="a_Node000023"><a xlink:href="$class_bot_config.html#ab2bc74b90f5fa9c6761c2b5a8f06903e" xlink:title=" ">
<polygon fill="white" stroke="#666666" points="876.12,-668 780.62,-668 780.62,-648 876.12,-648 876.12,-668"/>
<text text-anchor="middle" x="828.38" y="-654.5" font-family="Helvetica,sans-Serif" font-size="10.00">BotConfig::readInt</text>
</a>
</g>
</g>
<!-- Node13&#45;&gt;Node23 -->
<g id="edge82_Node000013_Node000023" class="edge">
<title>Node13&#45;&gt;Node23</title>
<g id="a_edge82_Node000013_Node000023"><a xlink:title=" ">
<path fill="none" stroke="#63b8ff" d="M975.04,-592.55C955.33,-604.73 927.23,-621.17 901.25,-633 889.23,-638.47 875.63,-643.49 863.52,-647.56"/>
<polygon fill="#63b8ff" stroke="#63b8ff" points="976.9,-595.52 983.51,-587.24 973.18,-589.58 976.9,-595.52"/>
</a>
</g>
</g>
<!-- Node25 -->
<g id="Node000025" class="node">
<title>Node25</title>
<g id="a_Node000025"><a xlink:href="$class_bot_config.html#a78cc040bd6fa993620e33882fe5a9641" xlink:title=" ">
<polygon fill="white" stroke="#666666" points="894.88,-624 761.88,-624 761.88,-604 894.88,-604 894.88,-624"/>
<text text-anchor="middle" x="828.38" y="-610.5" font-family="Helvetica,sans-Serif" font-size="10.00">BotConfig::readLineBotFile</text>
</a>
</g>
</g>
<!-- Node13&#45;&gt;Node25 -->
<g id="edge84_Node000013_Node000025" class="edge">
<title>Node13&#45;&gt;Node25</title>
<g id="a_edge84_Node000013_Node000025"><a xlink:title=" ">
<path fill="none" stroke="#63b8ff" d="M942.57,-588.92C921.05,-593.69 896.95,-599.03 876.54,-603.55"/>
<polygon fill="#63b8ff" stroke="#63b8ff" points="943.07,-592.39 952.08,-586.81 941.56,-585.56 943.07,-592.39"/>
</a>
</g>
</g>
<!-- Node26 -->
<g id="Node000026" class="node">
<title>Node26</title>
<g id="a_Node000026"><a xlink:href="$class_bot_config.html#a6347ad0b79f04a755fe1d7151ed87cd2" xlink:title=" ">
<polygon fill="white" stroke="#666666" points="712.75,-516 572.25,-516 572.25,-496 712.75,-496 712.75,-516"/>
<text text-anchor="middle" x="642.5" y="-502.5" font-family="Helvetica,sans-Serif" font-size="10.00">BotConfig::readStringBotFile</text>
</a>
</g>
</g>
<!-- Node13&#45;&gt;Node26 -->
<g id="edge85_Node000013_Node000026" class="edge">
<title>Node13&#45;&gt;Node26</title>
<g id="a_edge85_Node000013_Node000026"><a xlink:title=" ">
<path fill="none" stroke="#63b8ff" d="M936.31,-563.35C867.87,-549.95 761.02,-529.02 697.08,-516.49"/>
<polygon fill="#63b8ff" stroke="#63b8ff" points="935.4,-566.74 945.89,-565.23 936.75,-559.87 935.4,-566.74"/>
</a>
</g>
</g>
<!-- Node15 -->
<g id="Node000015" class="node">
<title>Node15</title>
<g id="a_Node000015"><a xlink:href="$class_bot_config.html#a5aafe893fa75e1b711e3ef3f4e4db9cc" xlink:title=" ">
<polygon fill="white" stroke="#666666" points="709.75,-642 575.25,-642 575.25,-622 709.75,-622 709.75,-642"/>
<text text-anchor="middle" x="642.5" y="-628.5" font-family="Helvetica,sans-Serif" font-size="10.00">BotConfig::readBoolBotFile</text>
</a>
</g>
</g>
<!-- Node14&#45;&gt;Node15 -->
<g id="edge74_Node000014_Node000015" class="edge">
<title>Node14&#45;&gt;Node15</title>
<g id="a_edge74_Node000014_Node000015"><a xlink:title=" ">
<path fill="none" stroke="#63b8ff" d="M775.16,-589.41C768.52,-591.23 761.84,-593.12 755.5,-595 727.43,-603.34 695.77,-613.91 673.29,-621.61"/>
<polygon fill="#63b8ff" stroke="#63b8ff" points="776,-592.8 784.74,-586.82 774.18,-586.04 776,-592.8"/>
</a>
</g>
</g>
<!-- Node16 -->
<g id="Node000016" class="node">
<title>Node16</title>
<g id="a_Node000016"><a xlink:href="$class_bot_config.html#ad461209f70e41b763999c7453e4529ee" xlink:title=" ">
<polygon fill="white" stroke="#666666" points="524.25,-642 370.25,-642 370.25,-622 524.25,-622 524.25,-642"/>
<text text-anchor="middle" x="447.25" y="-628.5" font-family="Helvetica,sans-Serif" font-size="10.00">BotConfig::readDataBluestacks</text>
</a>
</g>
</g>
<!-- Node15&#45;&gt;Node16 -->
<g id="edge75_Node000015_Node000016" class="edge">
<title>Node15&#45;&gt;Node16</title>
<g id="a_edge75_Node000015_Node000016"><a xlink:title=" ">
<path fill="none" stroke="#63b8ff" d="M563.77,-632C550.83,-632 537.41,-632 524.51,-632"/>
<polygon fill="#63b8ff" stroke="#63b8ff" points="563.48,-635.5 573.48,-632 563.48,-628.5 563.48,-635.5"/>
</a>
</g>
</g>
<!-- Node19 -->
<g id="Node000019" class="node">
<title>Node19</title>
<g id="a_Node000019"><a xlink:href="$class_bot_config.html#a0c63abf2bd51de63c3de85b91fc1e5f1" xlink:title=" ">
<polygon fill="white" stroke="#666666" points="320.38,-718 173.88,-718 173.88,-698 320.38,-698 320.38,-718"/>
<text text-anchor="middle" x="247.12" y="-704.5" font-family="Helvetica,sans-Serif" font-size="10.00">BotConfig::readDataCollected</text>
</a>
</g>
</g>
<!-- Node15&#45;&gt;Node19 -->
<g id="edge77_Node000015_Node000019" class="edge">
<title>Node15&#45;&gt;Node19</title>
<g id="a_edge77_Node000015_Node000019"><a xlink:title=" ">
<path fill="none" stroke="#63b8ff" d="M573.81,-646.71C570.95,-648.02 568.16,-649.45 565.5,-651 545.41,-662.73 550.55,-679.09 529.5,-689 463.83,-719.91 379.85,-721.39 320.8,-717.16"/>
<polygon fill="#63b8ff" stroke="#63b8ff" points="575.08,-649.97 583.07,-643.01 572.48,-643.47 575.08,-649.97"/>
</a>
</g>
</g>
<!-- Node21 -->
<g id="Node000021" class="node">
<title>Node21</title>
<g id="a_Node000021"><a xlink:href="$class_bot_config.html#a0c8b3da81dd5f06097ee696f2f466b67" xlink:title=" ">
<polygon fill="white" stroke="#666666" points="520.12,-680 374.38,-680 374.38,-660 520.12,-660 520.12,-680"/>
<text text-anchor="middle" x="447.25" y="-666.5" font-family="Helvetica,sans-Serif" font-size="10.00">BotConfig::readDataLDPlayer</text>
</a>
</g>
</g>
<!-- Node15&#45;&gt;Node21 -->
<g id="edge79_Node000015_Node000021" class="edge">
<title>Node15&#45;&gt;Node21</title>
<g id="a_edge79_Node000015_Node000021"><a xlink:title=" ">
<path fill="none" stroke="#63b8ff" d="M577.13,-644.66C552.55,-649.49 524.82,-654.94 501.39,-659.55"/>
<polygon fill="#63b8ff" stroke="#63b8ff" points="577.56,-648.14 586.7,-642.78 576.21,-641.27 577.56,-648.14"/>
</a>
</g>
</g>
<!-- Node17 -->
<g id="Node000017" class="node">
<title>Node17</title>
<g id="a_Node000017"><a xlink:href="$class_bot_config.html#abe575477e07b1c120141f019fc7101af" xlink:title=" ">
<polygon fill="#fff0f0" stroke="red" points="329,-636 165.25,-636 165.25,-616 329,-616 329,-636"/>
<text text-anchor="middle" x="247.12" y="-622.5" font-family="Helvetica,sans-Serif" font-size="10.00">BotConfig::readSearchBluestacks</text>
</a>
</g>
</g>
<!-- Node16&#45;&gt;Node17 -->
<g id="edge76_Node000016_Node000017" class="edge">
<title>Node16&#45;&gt;Node17</title>
<g id="a_edge76_Node000016_Node000017"><a xlink:title=" ">
<path fill="none" stroke="#63b8ff" d="M358.6,-629.35C348.86,-629.05 338.98,-628.75 329.33,-628.46"/>
<polygon fill="#63b8ff" stroke="#63b8ff" points="358.32,-632.84 368.42,-629.64 358.53,-625.84 358.32,-632.84"/>
</a>
</g>
</g>
<!-- Node20 -->
<g id="Node000020" class="node">
<title>Node20</title>
<g id="a_Node000020"><a xlink:href="$class_bot_config.html#ae75cf338c4da36cf1996494dae4273ca" xlink:title=" ">
<polygon fill="#fff0f0" stroke="red" points="127.75,-699 1.5,-699 1.5,-679 127.75,-679 127.75,-699"/>
<text text-anchor="middle" x="64.62" y="-685.5" font-family="Helvetica,sans-Serif" font-size="10.00">BotConfig::readSearchAll</text>
</a>
</g>
</g>
<!-- Node19&#45;&gt;Node20 -->
<g id="edge78_Node000019_Node000020" class="edge">
<title>Node19&#45;&gt;Node20</title>
<g id="a_edge78_Node000019_Node000020"><a xlink:title=" ">
<path fill="none" stroke="#63b8ff" d="M162.15,-699.16C150.74,-697.96 139.19,-696.74 128.24,-695.59"/>
<polygon fill="#63b8ff" stroke="#63b8ff" points="161.67,-702.63 171.98,-700.2 162.41,-695.67 161.67,-702.63"/>
</a>
</g>
</g>
<!-- Node22 -->
<g id="Node000022" class="node">
<title>Node22</title>
<g id="a_Node000022"><a xlink:href="$class_bot_config.html#ab89c77f603cb134bb5a1859dcd1bd850" xlink:title=" ">
<polygon fill="#fff0f0" stroke="red" points="323.75,-680 170.5,-680 170.5,-660 323.75,-660 323.75,-680"/>
<text text-anchor="middle" x="247.12" y="-666.5" font-family="Helvetica,sans-Serif" font-size="10.00">BotConfig::readSearchLdPlayer</text>
</a>
</g>
</g>
<!-- Node21&#45;&gt;Node22 -->
<g id="edge80_Node000021_Node000022" class="edge">
<title>Node21&#45;&gt;Node22</title>
<g id="a_edge80_Node000021_Node000022"><a xlink:title=" ">
<path fill="none" stroke="#63b8ff" d="M362.7,-670C349.85,-670 336.63,-670 323.96,-670"/>
<polygon fill="#63b8ff" stroke="#63b8ff" points="362.37,-673.5 372.37,-670 362.37,-666.5 362.37,-673.5"/>
</a>
</g>
</g>
<!-- Node22&#45;&gt;Node20 -->
<g id="edge81_Node000022_Node000020" class="edge">
<title>Node22&#45;&gt;Node20</title>
<g id="a_edge81_Node000022_Node000020"><a xlink:title=" ">
<path fill="none" stroke="#63b8ff" d="M158.89,-679.18C148.52,-680.27 138.1,-681.37 128.17,-682.42"/>
<polygon fill="#63b8ff" stroke="#63b8ff" points="159.02,-682.69 168.59,-678.16 158.28,-675.73 159.02,-682.69"/>
</a>
</g>
</g>
<!-- Node24 -->
<g id="Node000024" class="node">
<title>Node24</title>
<g id="a_Node000024"><a xlink:href="$class_bot_config.html#ab692e666bc268ac76e501e29fe80d7fc" xlink:title=" ">
<polygon fill="white" stroke="#666666" points="705.62,-680 579.38,-680 579.38,-660 705.62,-660 705.62,-680"/>
<text text-anchor="middle" x="642.5" y="-666.5" font-family="Helvetica,sans-Serif" font-size="10.00">BotConfig::readIntBotFile</text>
</a>
</g>
</g>
<!-- Node23&#45;&gt;Node24 -->
<g id="edge83_Node000023_Node000024" class="edge">
<title>Node23&#45;&gt;Node24</title>
<g id="a_edge83_Node000023_Node000024"><a xlink:title=" ">
<path fill="none" stroke="#63b8ff" d="M769.27,-661.79C749.1,-663.11 726.41,-664.59 705.91,-665.93"/>
<polygon fill="#63b8ff" stroke="#63b8ff" points="769.24,-665.3 778.99,-661.16 768.78,-658.32 769.24,-665.3"/>
</a>
</g>
</g>
<!-- Node27 -->
<g id="Node000027" class="node">
<title>Node27</title>
<g id="a_Node000027"><a xlink:href="$class_bot_config.html#a0e6d03f4aaf4a056c97882717f03870f" xlink:title=" ">
<polygon fill="white" stroke="#666666" points="513.75,-428 380.75,-428 380.75,-396 513.75,-396 513.75,-428"/>
<text text-anchor="start" x="388.75" y="-414.5" font-family="Helvetica,sans-Serif" font-size="10.00">BotConfig::readBluestacks</text>
<text text-anchor="middle" x="447.25" y="-402.5" font-family="Helvetica,sans-Serif" font-size="10.00">Config</text>
</a>
</g>
</g>
<!-- Node26&#45;&gt;Node27 -->
<g id="edge86_Node000026_Node000027" class="edge">
<title>Node26&#45;&gt;Node27</title>
<g id="a_edge86_Node000026_Node000027"><a xlink:title=" ">
<path fill="none" stroke="#63b8ff" d="M618.11,-489.14C596.1,-473.89 561.79,-451.63 529.5,-437 522.64,-433.89 515.29,-431.03 507.92,-428.44"/>
<polygon fill="#63b8ff" stroke="#63b8ff" points="615.87,-491.85 626.07,-494.74 619.9,-486.12 615.87,-491.85"/>
</a>
</g>
</g>
<!-- Node29 -->
<g id="Node000029" class="node">
<title>Node29</title>
<g id="a_Node000029"><a xlink:href="$class_bot_config.html#a47a08f20862705d00d5647b7ba975664" xlink:title=" ">
<polygon fill="white" stroke="#666666" points="513.75,-478 380.75,-478 380.75,-446 513.75,-446 513.75,-478"/>
<text text-anchor="start" x="388.75" y="-464.5" font-family="Helvetica,sans-Serif" font-size="10.00">BotConfig::readBluestacks</text>
<text text-anchor="middle" x="447.25" y="-452.5" font-family="Helvetica,sans-Serif" font-size="10.00">Folder</text>
</a>
</g>
</g>
<!-- Node26&#45;&gt;Node29 -->
<g id="edge89_Node000026_Node000029" class="edge">
<title>Node26&#45;&gt;Node29</title>
<g id="a_edge89_Node000026_Node000029"><a xlink:title=" ">
<path fill="none" stroke="#63b8ff" d="M584.5,-493.02C562.44,-488 537.05,-482.22 514.2,-477.02"/>
<polygon fill="#63b8ff" stroke="#63b8ff" points="583.7,-496.43 594.23,-495.24 585.25,-489.6 583.7,-496.43"/>
</a>
</g>
</g>
<!-- Node30 -->
<g id="Node000030" class="node">
<title>Node30</title>
<g id="a_Node000030"><a xlink:href="$class_bot_config.html#abf2a58007d9d7ea7d39e4f5a47f70bfc" xlink:title=" ">
<polygon fill="white" stroke="#666666" points="525.75,-516 368.75,-516 368.75,-496 525.75,-496 525.75,-516"/>
<text text-anchor="middle" x="447.25" y="-502.5" font-family="Helvetica,sans-Serif" font-size="10.00">BotConfig::readFavoriteInstance</text>
</a>
</g>
</g>
<!-- Node26&#45;&gt;Node30 -->
<g id="edge91_Node000026_Node000030" class="edge">
<title>Node26&#45;&gt;Node30</title>
<g id="a_edge91_Node000026_Node000030"><a xlink:title=" ">
<path fill="none" stroke="#63b8ff" d="M560.65,-506C549.18,-506 537.39,-506 525.98,-506"/>
<polygon fill="#63b8ff" stroke="#63b8ff" points="560.49,-509.5 570.49,-506 560.49,-502.5 560.49,-509.5"/>
</a>
</g>
</g>
<!-- Node33 -->
<g id="Node000033" class="node">
<title>Node33</title>
<g id="a_Node000033"><a xlink:href="$class_bot_config.html#ad4f685732935069ed53b312cf6a35b58" xlink:title=" ">
<polygon fill="white" stroke="#666666" points="521.25,-554 373.25,-554 373.25,-534 521.25,-534 521.25,-554"/>
<text text-anchor="middle" x="447.25" y="-540.5" font-family="Helvetica,sans-Serif" font-size="10.00">BotConfig::readFavoritePreset</text>
</a>
</g>
</g>
<!-- Node26&#45;&gt;Node33 -->
<g id="edge94_Node000026_Node000033" class="edge">
<title>Node26&#45;&gt;Node33</title>
<g id="a_edge94_Node000026_Node000033"><a xlink:title=" ">
<path fill="none" stroke="#63b8ff" d="M577.13,-518.66C552.55,-523.49 524.82,-528.94 501.39,-533.55"/>
<polygon fill="#63b8ff" stroke="#63b8ff" points="577.56,-522.14 586.7,-516.78 576.21,-515.27 577.56,-522.14"/>
</a>
</g>
</g>
<!-- Node36 -->
<g id="Node000036" class="node">
<title>Node36</title>
<g id="a_Node000036"><a xlink:href="$class_bot_config.html#a0be029b74be2d6925d33d6d3a7cf08b3" xlink:title=" ">
<polygon fill="white" stroke="#666666" points="522,-278 372.5,-278 372.5,-258 522,-258 522,-278"/>
<text text-anchor="middle" x="447.25" y="-264.5" font-family="Helvetica,sans-Serif" font-size="10.00">BotConfig::readLdPlayerFolder</text>
</a>
</g>
</g>
<!-- Node26&#45;&gt;Node36 -->
<g id="edge98_Node000026_Node000036" class="edge">
<title>Node26&#45;&gt;Node36</title>
<g id="a_edge98_Node000026_Node000036"><a xlink:title=" ">
<path fill="none" stroke="#63b8ff" d="M636.88,-484.43C626.23,-440.13 595.61,-338.72 529.5,-287 525.16,-283.61 520.33,-280.8 515.23,-278.49"/>
<polygon fill="#63b8ff" stroke="#63b8ff" points="633.45,-485.1 639.08,-494.07 640.27,-483.54 633.45,-485.1"/>
</a>
</g>
</g>
<!-- Node37 -->
<g id="Node000037" class="node">
<title>Node37</title>
<g id="a_Node000037"><a xlink:href="$class_bot_config.html#a1ede9834fcb1b8dcedf47a367241d030" xlink:title=" ">
<polygon fill="white" stroke="#666666" points="511.5,-604 383,-604 383,-572 511.5,-572 511.5,-604"/>
<text text-anchor="start" x="391" y="-590.5" font-family="Helvetica,sans-Serif" font-size="10.00">BotConfig::verifyEmulator</text>
<text text-anchor="middle" x="447.25" y="-578.5" font-family="Helvetica,sans-Serif" font-size="10.00">Folder</text>
</a>
</g>
</g>
<!-- Node26&#45;&gt;Node37 -->
<g id="edge100_Node000026_Node000037" class="edge">
<title>Node26&#45;&gt;Node37</title>
<g id="a_edge100_Node000026_Node000037"><a xlink:title=" ">
<path fill="none" stroke="#63b8ff" d="M613.54,-521.93C591.26,-534.21 559.01,-551.06 529.5,-563 521.98,-566.05 513.93,-568.94 505.95,-571.6"/>
<polygon fill="#63b8ff" stroke="#63b8ff" points="614.97,-525.14 622.01,-517.22 611.57,-519.03 614.97,-525.14"/>
</a>
</g>
</g>
<!-- Node28 -->
<g id="Node000028" class="node">
<title>Node28</title>
<g id="a_Node000028"><a xlink:href="$class_bot_config.html#a24360fdf5b92d7fb02ca39004ceb06cf" xlink:title=" ">
<polygon fill="white" stroke="#666666" points="310.62,-347 183.62,-347 183.62,-327 310.62,-327 310.62,-347"/>
<text text-anchor="middle" x="247.12" y="-333.5" font-family="Helvetica,sans-Serif" font-size="10.00">BotConfig::initBluestacks</text>
</a>
</g>
</g>
<!-- Node27&#45;&gt;Node28 -->
<g id="edge87_Node000027_Node000028" class="edge">
<title>Node27&#45;&gt;Node28</title>
<g id="a_edge87_Node000027_Node000028"><a xlink:title=" ">
<path fill="none" stroke="#63b8ff" d="M379.34,-392.03C374.47,-390.39 369.65,-388.7 365,-387 331.64,-374.77 294.01,-358.15 270.68,-347.49"/>
<polygon fill="#63b8ff" stroke="#63b8ff" points="378.01,-395.28 388.61,-395.08 380.2,-388.63 378.01,-395.28"/>
</a>
</g>
</g>
<!-- Node28&#45;&gt;Node9 -->
<g id="edge88_Node000028_Node000009" class="edge">
<title>Node28&#45;&gt;Node9</title>
<g id="a_edge88_Node000028_Node000009"><a xlink:title=" ">
<path fill="none" stroke="#63b8ff" d="M222.39,-320.03C184.44,-292.92 111.25,-240.61 80.16,-218.39"/>
<polygon fill="#63b8ff" stroke="#63b8ff" points="220.26,-322.81 230.43,-325.78 224.33,-317.12 220.26,-322.81"/>
</a>
</g>
</g>
<!-- Node29&#45;&gt;Node28 -->
<g id="edge90_Node000029_Node000028" class="edge">
<title>Node29&#45;&gt;Node28</title>
<g id="a_edge90_Node000029_Node000028"><a xlink:title=" ">
<path fill="none" stroke="#63b8ff" d="M373.16,-441.14C370.37,-439.83 367.64,-438.45 365,-437 319.61,-412.02 275.9,-367.47 257.38,-347.36"/>
<polygon fill="#63b8ff" stroke="#63b8ff" points="371.55,-444.25 382.12,-444.98 374.3,-437.82 371.55,-444.25"/>
</a>
</g>
</g>
<!-- Node31 -->
<g id="Node000031" class="node">
<title>Node31</title>
<g id="a_Node000031"><a xlink:href="$class_bot_config.html#ac00a1d2728bca4fe8ad17e8dc8b792e2" xlink:title=" ">
<polygon fill="white" stroke="#666666" points="311.75,-516 182.5,-516 182.5,-484 311.75,-484 311.75,-516"/>
<text text-anchor="start" x="190.5" y="-502.5" font-family="Helvetica,sans-Serif" font-size="10.00">BotConfig::handleFavorite</text>
<text text-anchor="middle" x="247.12" y="-490.5" font-family="Helvetica,sans-Serif" font-size="10.00">Instance</text>
</a>
</g>
</g>
<!-- Node30&#45;&gt;Node31 -->
<g id="edge92_Node000030_Node000031" class="edge">
<title>Node30&#45;&gt;Node31</title>
<g id="a_edge92_Node000030_Node000031"><a xlink:title=" ">
<path fill="none" stroke="#63b8ff" d="M357.04,-503.3C341.94,-502.84 326.52,-502.37 312.22,-501.94"/>
<polygon fill="#63b8ff" stroke="#63b8ff" points="356.9,-506.8 367,-503.6 357.11,-499.8 356.9,-506.8"/>
</a>
</g>
</g>
<!-- Node32 -->
<g id="Node000032" class="node">
<title>Node32</title>
<g id="a_Node000032"><a xlink:href="$class_bot_config.html#a72e8877046483a6c3c8f03a21ea9c6b2" xlink:title=" ">
<polygon fill="#fff0f0" stroke="red" points="129.25,-516 0,-516 0,-484 129.25,-484 129.25,-516"/>
<text text-anchor="start" x="8" y="-502.5" font-family="Helvetica,sans-Serif" font-size="10.00">BotConfig::choosePlaying</text>
<text text-anchor="middle" x="64.62" y="-490.5" font-family="Helvetica,sans-Serif" font-size="10.00">Instance</text>
</a>
</g>
</g>
<!-- Node31&#45;&gt;Node32 -->
<g id="edge93_Node000031_Node000032" class="edge">
<title>Node31&#45;&gt;Node32</title>
<g id="a_edge93_Node000031_Node000032"><a xlink:title=" ">
<path fill="none" stroke="#63b8ff" d="M170.88,-500C157.21,-500 143.05,-500 129.74,-500"/>
<polygon fill="#63b8ff" stroke="#63b8ff" points="170.72,-503.5 180.72,-500 170.72,-496.5 170.72,-503.5"/>
</a>
</g>
</g>
<!-- Node34 -->
<g id="Node000034" class="node">
<title>Node34</title>
<g id="a_Node000034"><a xlink:href="$classgame.html#ad156d149bb90f491291189604771673e" xlink:title=" ">
<polygon fill="white" stroke="#666666" points="315.12,-554 179.12,-554 179.12,-534 315.12,-534 315.12,-554"/>
<text text-anchor="middle" x="247.12" y="-540.5" font-family="Helvetica,sans-Serif" font-size="10.00">game::explainPresetChoice</text>
</a>
</g>
</g>
<!-- Node33&#45;&gt;Node34 -->
<g id="edge95_Node000033_Node000034" class="edge">
<title>Node33&#45;&gt;Node34</title>
<g id="a_edge95_Node000033_Node000034"><a xlink:title=" ">
<path fill="none" stroke="#63b8ff" d="M361.66,-544C346.27,-544 330.41,-544 315.6,-544"/>
<polygon fill="#63b8ff" stroke="#63b8ff" points="361.24,-547.5 371.24,-544 361.24,-540.5 361.24,-547.5"/>
</a>
</g>
</g>
<!-- Node35 -->
<g id="Node000035" class="node">
<title>Node35</title>
<g id="a_Node000035"><a xlink:href="$classgame.html#a8e1e939e9ccca1570f7be33d1026e7a8" xlink:title=" ">
<polygon fill="#fff0f0" stroke="red" points="117.25,-573 12,-573 12,-553 117.25,-553 117.25,-573"/>
<text text-anchor="middle" x="64.62" y="-559.5" font-family="Helvetica,sans-Serif" font-size="10.00">game::selectActivity</text>
</a>
</g>
</g>
<!-- Node33&#45;&gt;Node35 -->
<g id="edge97_Node000033_Node000035" class="edge">
<title>Node33&#45;&gt;Node35</title>
<g id="a_edge97_Node000033_Node000035"><a xlink:title=" ">
<path fill="none" stroke="#63b8ff" d="M382.02,-556.32C364.86,-559.08 346.28,-561.61 329,-563 255.85,-568.89 170.9,-567.39 117.7,-565.46"/>
<polygon fill="#63b8ff" stroke="#63b8ff" points="382.28,-559.82 391.57,-554.72 381.13,-552.92 382.28,-559.82"/>
</a>
</g>
</g>
<!-- Node34&#45;&gt;Node35 -->
<g id="edge96_Node000034_Node000035" class="edge">
<title>Node34&#45;&gt;Node35</title>
<g id="a_edge96_Node000034_Node000035"><a xlink:title=" ">
<path fill="none" stroke="#63b8ff" d="M167.62,-552.26C150.66,-554.05 133.14,-555.89 117.51,-557.54"/>
<polygon fill="#63b8ff" stroke="#63b8ff" points="167.57,-555.79 177.15,-551.26 166.84,-548.83 167.57,-555.79"/>
</a>
</g>
</g>
<!-- Node36&#45;&gt;Node8 -->
<g id="edge99_Node000036_Node000008" class="edge">
<title>Node36&#45;&gt;Node8</title>
<g id="a_edge99_Node000036_Node000008"><a xlink:title=" ">
<path fill="none" stroke="#63b8ff" d="M386.8,-254.88C379.43,-253.02 372.02,-251.05 365,-249 333.83,-239.92 298.77,-227.28 275.25,-218.45"/>
<polygon fill="#63b8ff" stroke="#63b8ff" points="385.89,-258.26 396.44,-257.24 387.56,-251.46 385.89,-258.26"/>
</a>
</g>
</g>
<!-- Node37&#45;&gt;Node17 -->
<g id="edge101_Node000037_Node000017" class="edge">
<title>Node37&#45;&gt;Node17</title>
<g id="a_edge101_Node000037_Node000017"><a xlink:title=" ">
<path fill="none" stroke="#63b8ff" d="M371.66,-602.31C348.73,-606.7 323.93,-611.46 302.61,-615.55"/>
<polygon fill="#63b8ff" stroke="#63b8ff" points="372.1,-605.79 381.26,-600.47 370.78,-598.91 372.1,-605.79"/>
</a>
</g>
</g>
<!-- Node37&#45;&gt;Node22 -->
<g id="edge102_Node000037_Node000022" class="edge">
<title>Node37&#45;&gt;Node22</title>
<g id="a_edge102_Node000037_Node000022"><a xlink:title=" ">
<path fill="none" stroke="#63b8ff" d="M372.66,-609.02C370.04,-610.28 367.48,-611.61 365,-613 346.34,-623.5 347.65,-634.49 329,-645 318.25,-651.06 305.84,-655.84 294.03,-659.52"/>
<polygon fill="#63b8ff" stroke="#63b8ff" points="373.88,-612.31 381.63,-605.09 371.07,-605.9 373.88,-612.31"/>
</a>
</g>
</g>
<!-- Node39 -->
<g id="Node000039" class="node">
<title>Node39</title>
<g id="a_Node000039"><a xlink:href="$class_bot_config.html#a7b0b572a14dd5f0630b335041f83049a" xlink:title=" ">
<polygon fill="white" stroke="#666666" points="885.5,-158 771.25,-158 771.25,-138 885.5,-138 885.5,-158"/>
<text text-anchor="middle" x="828.38" y="-144.5" font-family="Helvetica,sans-Serif" font-size="10.00">BotConfig::updateBool</text>
</a>
</g>
</g>
<!-- Node38&#45;&gt;Node39 -->
<g id="edge104_Node000038_Node000039" class="edge">
<title>Node38&#45;&gt;Node39</title>
<g id="a_edge104_Node000038_Node000039"><a xlink:title=" ">
<path fill="none" stroke="#63b8ff" d="M930.23,-135.06C915.45,-136.96 900.06,-138.93 885.89,-140.75"/>
<polygon fill="#63b8ff" stroke="#63b8ff" points="930.4,-138.57 939.87,-133.83 929.51,-131.63 930.4,-138.57"/>
</a>
</g>
</g>
<!-- Node48 -->
<g id="Node000048" class="node">
<title>Node48</title>
<g id="a_Node000048"><a xlink:href="$class_bot_config.html#a9c0206c0081858886963267f855a9ec8" xlink:title=" ">
<polygon fill="white" stroke="#666666" points="893.38,-32 763.38,-32 763.38,0 893.38,0 893.38,-32"/>
<text text-anchor="start" x="771.38" y="-18.5" font-family="Helvetica,sans-Serif" font-size="10.00">BotConfig::updateFavorite</text>
<text text-anchor="middle" x="828.38" y="-6.5" font-family="Helvetica,sans-Serif" font-size="10.00">Instance</text>
</a>
</g>
</g>
<!-- Node38&#45;&gt;Node48 -->
<g id="edge112_Node000038_Node000048" class="edge">
<title>Node38&#45;&gt;Node48</title>
<g id="a_edge112_Node000038_Node000048"><a xlink:title=" ">
<path fill="none" stroke="#63b8ff" d="M983.47,-107.55C964.73,-88.6 933.26,-59.35 901.25,-41 895.75,-37.85 889.78,-35 883.72,-32.45"/>
<polygon fill="#63b8ff" stroke="#63b8ff" points="980.84,-109.87 990.32,-114.61 985.87,-104.99 980.84,-109.87"/>
</a>
</g>
</g>
<!-- Node50 -->
<g id="Node000050" class="node">
<title>Node50</title>
<g id="a_Node000050"><a xlink:href="$class_bot_config.html#ac766bf2645c392ae3057a93c7628aa85" xlink:title=" ">
<polygon fill="white" stroke="#666666" points="893.38,-120 763.38,-120 763.38,-88 893.38,-88 893.38,-120"/>
<text text-anchor="start" x="771.38" y="-106.5" font-family="Helvetica,sans-Serif" font-size="10.00">BotConfig::updateFavorite</text>
<text text-anchor="middle" x="828.38" y="-94.5" font-family="Helvetica,sans-Serif" font-size="10.00">Preset</text>
</a>
</g>
</g>
<!-- Node38&#45;&gt;Node50 -->
<g id="edge114_Node000038_Node000050" class="edge">
<title>Node38&#45;&gt;Node50</title>
<g id="a_edge114_Node000038_Node000050"><a xlink:title=" ">
<path fill="none" stroke="#63b8ff" d="M930.01,-116.91C918,-115.37 905.58,-113.78 893.74,-112.26"/>
<polygon fill="#63b8ff" stroke="#63b8ff" points="929.51,-120.37 939.87,-118.17 930.4,-113.43 929.51,-120.37"/>
</a>
</g>
</g>
<!-- Node52 -->
<g id="Node000052" class="node">
<title>Node52</title>
<g id="a_Node000052"><a xlink:href="$class_bot_config.html#a6156a0424ed044c8309b986c62a61d62" xlink:title=" ">
<polygon fill="white" stroke="#666666" points="881.38,-70 775.38,-70 775.38,-50 881.38,-50 881.38,-70"/>
<text text-anchor="middle" x="828.38" y="-56.5" font-family="Helvetica,sans-Serif" font-size="10.00">BotConfig::updateInt</text>
</a>
</g>
</g>
<!-- Node38&#45;&gt;Node52 -->
<g id="edge116_Node000038_Node000052" class="edge">
<title>Node38&#45;&gt;Node52</title>
<g id="a_edge116_Node000038_Node000052"><a xlink:title=" ">
<path fill="none" stroke="#63b8ff" d="M971.4,-110.35C951.88,-100.43 925.51,-87.84 901.25,-79 892.52,-75.82 883.01,-72.92 873.86,-70.4"/>
<polygon fill="#63b8ff" stroke="#63b8ff" points="969.64,-113.38 980.14,-114.86 972.85,-107.16 969.64,-113.38"/>
</a>
</g>
</g>
<!-- Node54 -->
<g id="Node000054" class="node">
<title>Node54</title>
<g id="a_Node000054"><a xlink:href="$class_bot_config.html#a7fe6cbda7ec98c3070e6f9437f6eeb84" xlink:title=" ">
<polygon fill="white" stroke="#666666" points="718,-199 567,-199 567,-179 718,-179 718,-199"/>
<text text-anchor="middle" x="642.5" y="-185.5" font-family="Helvetica,sans-Serif" font-size="10.00">BotConfig::updateStringBotFile</text>
</a>
</g>
</g>
<!-- Node38&#45;&gt;Node54 -->
<g id="edge118_Node000038_Node000054" class="edge">
<title>Node38&#45;&gt;Node54</title>
<g id="a_edge118_Node000038_Node000054"><a xlink:title=" ">
<path fill="none" stroke="#63b8ff" d="M970.59,-141.3C951.25,-150.35 925.37,-161.15 901.25,-167 840.8,-181.65 770.31,-186.89 718.35,-188.61"/>
<polygon fill="#63b8ff" stroke="#63b8ff" points="972.01,-144.5 979.52,-137.02 968.99,-138.19 972.01,-144.5"/>
</a>
</g>
</g>
<!-- Node40 -->
<g id="Node000040" class="node">
<title>Node40</title>
<g id="a_Node000040"><a xlink:href="$class_bot_config.html#a70992bec079cbf9412e69b0f0e712ca2" xlink:title=" ">
<polygon fill="white" stroke="#666666" points="715,-152 570,-152 570,-132 715,-132 715,-152"/>
<text text-anchor="middle" x="642.5" y="-138.5" font-family="Helvetica,sans-Serif" font-size="10.00">BotConfig::updateBoolBotFile</text>
</a>
</g>
</g>
<!-- Node39&#45;&gt;Node40 -->
<g id="edge105_Node000039_Node000040" class="edge">
<title>Node39&#45;&gt;Node40</title>
<g id="a_edge105_Node000039_Node000040"><a xlink:title=" ">
<path fill="none" stroke="#63b8ff" d="M759.63,-145.79C745.23,-145.32 729.99,-144.82 715.44,-144.35"/>
<polygon fill="#63b8ff" stroke="#63b8ff" points="759.34,-149.28 769.44,-146.11 759.56,-142.29 759.34,-149.28"/>
</a>
</g>
</g>
<!-- Node41 -->
<g id="Node000041" class="node">
<title>Node41</title>
<g id="a_Node000041"><a xlink:href="$class_bot_config.html#a53485f20f89c00397495b545b91044da" xlink:title=" ">
<polygon fill="#fff0f0" stroke="red" points="310.62,-128 183.62,-128 183.62,-108 310.62,-108 310.62,-128"/>
<text text-anchor="middle" x="247.12" y="-114.5" font-family="Helvetica,sans-Serif" font-size="10.00">BotConfig::updateDataAll</text>
</a>
</g>
</g>
<!-- Node40&#45;&gt;Node41 -->
<g id="edge106_Node000040_Node000041" class="edge">
<title>Node40&#45;&gt;Node41</title>
<g id="a_edge106_Node000040_Node000041"><a xlink:title=" ">
<path fill="none" stroke="#63b8ff" d="M573.81,-127.29C570.95,-125.98 568.16,-124.55 565.5,-123 545.41,-111.27 550.87,-94.19 529.5,-85 440.27,-46.62 321.25,-87.1 271.51,-107.6"/>
<polygon fill="#63b8ff" stroke="#63b8ff" points="572.48,-130.53 583.07,-130.99 575.08,-124.03 572.48,-130.53"/>
</a>
</g>
</g>
<!-- Node44 -->
<g id="Node000044" class="node">
<title>Node44</title>
<g id="a_Node000044"><a xlink:href="$class_bot_config.html#ab4929dd1c99a9e725800349a9cfc3b0e" xlink:title=" ">
<polygon fill="#fff0f0" stroke="red" points="529.5,-152 365,-152 365,-132 529.5,-132 529.5,-152"/>
<text text-anchor="middle" x="447.25" y="-138.5" font-family="Helvetica,sans-Serif" font-size="10.00">BotConfig::updateDataBluestacks</text>
</a>
</g>
</g>
<!-- Node40&#45;&gt;Node44 -->
<g id="edge108_Node000040_Node000044" class="edge">
<title>Node40&#45;&gt;Node44</title>
<g id="a_edge108_Node000040_Node000044"><a xlink:title=" ">
<path fill="none" stroke="#63b8ff" d="M558.15,-142C548.71,-142 539.11,-142 529.7,-142"/>
<polygon fill="#63b8ff" stroke="#63b8ff" points="558.03,-145.5 568.03,-142 558.03,-138.5 558.03,-145.5"/>
</a>
</g>
</g>
<!-- Node46 -->
<g id="Node000046" class="node">
<title>Node46</title>
<g id="a_Node000046"><a xlink:href="$class_bot_config.html#ae1e96b6b256aa8894b603259674f6a6f" xlink:title=" ">
<polygon fill="#fff0f0" stroke="red" points="524.25,-114 370.25,-114 370.25,-94 524.25,-94 524.25,-114"/>
<text text-anchor="middle" x="447.25" y="-100.5" font-family="Helvetica,sans-Serif" font-size="10.00">BotConfig::updateDataLdPlayer</text>
</a>
</g>
</g>
<!-- Node40&#45;&gt;Node46 -->
<g id="edge110_Node000040_Node000046" class="edge">
<title>Node40&#45;&gt;Node46</title>
<g id="a_edge110_Node000040_Node000046"><a xlink:title=" ">
<path fill="none" stroke="#63b8ff" d="M577.13,-129.34C552.55,-124.51 524.82,-119.06 501.39,-114.45"/>
<polygon fill="#63b8ff" stroke="#63b8ff" points="576.21,-132.73 586.7,-131.22 577.56,-125.86 576.21,-132.73"/>
</a>
</g>
</g>
<!-- Node41&#45;&gt;Node9 -->
<g id="edge107_Node000041_Node000009" class="edge">
<title>Node41&#45;&gt;Node9</title>
<g id="a_edge107_Node000041_Node000009"><a xlink:title=" ">
<path fill="none" stroke="#63b8ff" d="M215.3,-133.37C178.61,-151.66 118.36,-181.71 86.65,-197.52"/>
<polygon fill="#63b8ff" stroke="#63b8ff" points="216.68,-136.59 224.06,-129 213.55,-130.33 216.68,-136.59"/>
</a>
</g>
</g>
<!-- Node44&#45;&gt;Node28 -->
<g id="edge109_Node000044_Node000028" class="edge">
<title>Node44&#45;&gt;Node28</title>
<g id="a_edge109_Node000044_Node000028"><a xlink:title=" ">
<path fill="none" stroke="#63b8ff" d="M369.81,-157.68C368.15,-158.72 366.55,-159.82 365,-161 338.41,-181.24 346.94,-198.81 329,-227 304.7,-265.2 271.64,-307.63 256.42,-326.71"/>
<polygon fill="#63b8ff" stroke="#63b8ff" points="371.21,-160.9 378.43,-153.14 367.95,-154.7 371.21,-160.9"/>
</a>
</g>
</g>
<!-- Node46&#45;&gt;Node8 -->
<g id="edge111_Node000046_Node000008" class="edge">
<title>Node46&#45;&gt;Node8</title>
<g id="a_edge111_Node000046_Node000008"><a xlink:title=" ">
<path fill="none" stroke="#63b8ff" d="M377.59,-117.96C373.27,-119.48 369.03,-121.15 365,-123 321.88,-142.74 278.73,-179.66 259.09,-197.64"/>
<polygon fill="#63b8ff" stroke="#63b8ff" points="378.56,-121.32 387.03,-114.95 376.44,-114.65 378.56,-121.32"/>
</a>
</g>
</g>
<!-- Node49 -->
<g id="Node000049" class="node">
<title>Node49</title>
<g id="a_Node000049"><a xlink:href="$class_bot_config.html#af5d808aed675a21368cb8669ed12b756" xlink:title=" ">
<polygon fill="white" stroke="#666666" points="719.5,-32 565.5,-32 565.5,0 719.5,0 719.5,-32"/>
<text text-anchor="start" x="573.5" y="-18.5" font-family="Helvetica,sans-Serif" font-size="10.00">BotConfig::interactUserFavorite</text>
<text text-anchor="middle" x="642.5" y="-6.5" font-family="Helvetica,sans-Serif" font-size="10.00">Instance</text>
</a>
</g>
</g>
<!-- Node48&#45;&gt;Node49 -->
<g id="edge113_Node000048_Node000049" class="edge">
<title>Node48&#45;&gt;Node49</title>
<g id="a_edge113_Node000048_Node000049"><a xlink:title=" ">
<path fill="none" stroke="#63b8ff" d="M751.75,-16C741.19,-16 730.34,-16 719.77,-16"/>
<polygon fill="#63b8ff" stroke="#63b8ff" points="751.55,-19.5 761.55,-16 751.55,-12.5 751.55,-19.5"/>
</a>
</g>
</g>
<!-- Node51 -->
<g id="Node000051" class="node">
<title>Node51</title>
<g id="a_Node000051"><a xlink:href="$classgame.html#a8aa5386b248e0602728af471e0e19184" xlink:title=" ">
<polygon fill="white" stroke="#666666" points="710.5,-114 574.5,-114 574.5,-94 710.5,-94 710.5,-114"/>
<text text-anchor="middle" x="642.5" y="-100.5" font-family="Helvetica,sans-Serif" font-size="10.00">game::selectFavoritePreset</text>
</a>
</g>
</g>
<!-- Node50&#45;&gt;Node51 -->
<g id="edge115_Node000050_Node000051" class="edge">
<title>Node50&#45;&gt;Node51</title>
<g id="a_edge115_Node000050_Node000051"><a xlink:title=" ">
<path fill="none" stroke="#63b8ff" d="M751.82,-104C738.26,-104 724.21,-104 710.9,-104"/>
<polygon fill="#63b8ff" stroke="#63b8ff" points="751.55,-107.5 761.55,-104 751.55,-100.5 751.55,-107.5"/>
</a>
</g>
</g>
<!-- Node53 -->
<g id="Node000053" class="node">
<title>Node53</title>
<g id="a_Node000053"><a xlink:href="$class_bot_config.html#a84ab86ab1cdcf8c6c9bac78044bc0f12" xlink:title=" ">
<polygon fill="white" stroke="#666666" points="710.88,-70 574.12,-70 574.12,-50 710.88,-50 710.88,-70"/>
<text text-anchor="middle" x="642.5" y="-56.5" font-family="Helvetica,sans-Serif" font-size="10.00">BotConfig::updateIntBotFile</text>
</a>
</g>
</g>
<!-- Node52&#45;&gt;Node53 -->
<g id="edge117_Node000052_Node000053" class="edge">
<title>Node52&#45;&gt;Node53</title>
<g id="a_edge117_Node000052_Node000053"><a xlink:title=" ">
<path fill="none" stroke="#63b8ff" d="M763.72,-60C746.79,-60 728.45,-60 711.31,-60"/>
<polygon fill="#63b8ff" stroke="#63b8ff" points="763.66,-63.5 773.66,-60 763.66,-56.5 763.66,-63.5"/>
</a>
</g>
</g>
<!-- Node55 -->
<g id="Node000055" class="node">
<title>Node55</title>
<g id="a_Node000055"><a xlink:href="$class_bot_config.html#ab9fe07595e423fcdfc22322dd1ede393" xlink:title=" ">
<polygon fill="white" stroke="#666666" points="519,-378 375.5,-378 375.5,-346 519,-346 519,-378"/>
<text text-anchor="start" x="383.5" y="-364.5" font-family="Helvetica,sans-Serif" font-size="10.00">BotConfig::updateBluestacks</text>
<text text-anchor="middle" x="447.25" y="-352.5" font-family="Helvetica,sans-Serif" font-size="10.00">Config</text>
</a>
</g>
</g>
<!-- Node54&#45;&gt;Node55 -->
<g id="edge119_Node000054_Node000055" class="edge">
<title>Node54&#45;&gt;Node55</title>
<g id="a_edge119_Node000054_Node000055"><a xlink:title=" ">
<path fill="none" stroke="#63b8ff" d="M572.66,-205.02C570.1,-206.81 567.7,-208.8 565.5,-211 524.39,-252.25 570.26,-295.4 529.5,-337 526.3,-340.27 522.68,-343.11 518.79,-345.58"/>
<polygon fill="#63b8ff" stroke="#63b8ff" points="574.25,-208.14 581.17,-200.12 570.76,-202.07 574.25,-208.14"/>
</a>
</g>
</g>
<!-- Node56 -->
<g id="Node000056" class="node">
<title>Node56</title>
<g id="a_Node000056"><a xlink:href="$class_bot_config.html#ae21ba22e6f1b9dfcacf38dd78f904d82" xlink:title=" ">
<polygon fill="white" stroke="#666666" points="519,-328 375.5,-328 375.5,-296 519,-296 519,-328"/>
<text text-anchor="start" x="383.5" y="-314.5" font-family="Helvetica,sans-Serif" font-size="10.00">BotConfig::updateBluestacks</text>
<text text-anchor="middle" x="447.25" y="-302.5" font-family="Helvetica,sans-Serif" font-size="10.00">Folder</text>
</a>
</g>
</g>
<!-- Node54&#45;&gt;Node56 -->
<g id="edge121_Node000054_Node000056" class="edge">
<title>Node54&#45;&gt;Node56</title>
<g id="a_edge121_Node000054_Node000056"><a xlink:title=" ">
<path fill="none" stroke="#63b8ff" d="M574.64,-204.55C571.4,-206.45 568.32,-208.6 565.5,-211 537.04,-235.22 557.76,-262.54 529.5,-287 525.71,-290.28 521.49,-293.14 517.02,-295.61"/>
<polygon fill="#63b8ff" stroke="#63b8ff" points="576.03,-207.77 583.41,-200.17 572.9,-201.5 576.03,-207.77"/>
</a>
</g>
</g>
<!-- Node57 -->
<g id="Node000057" class="node">
<title>Node57</title>
<g id="a_Node000057"><a xlink:href="$class_bot_config.html#a095c01a9b9e6ff1db9c683716337f45f" xlink:title=" ">
<polygon fill="white" stroke="#666666" points="513.75,-202 380.75,-202 380.75,-170 513.75,-170 513.75,-202"/>
<text text-anchor="start" x="388.75" y="-188.5" font-family="Helvetica,sans-Serif" font-size="10.00">BotConfig::updateLdPlayer</text>
<text text-anchor="middle" x="447.25" y="-176.5" font-family="Helvetica,sans-Serif" font-size="10.00">Folder</text>
</a>
</g>
</g>
<!-- Node54&#45;&gt;Node57 -->
<g id="edge123_Node000054_Node000057" class="edge">
<title>Node54&#45;&gt;Node57</title>
<g id="a_edge123_Node000054_Node000057"><a xlink:title=" ">
<path fill="none" stroke="#63b8ff" d="M555.04,-187.66C541.29,-187.44 527.26,-187.23 514.08,-187.02"/>
<polygon fill="#63b8ff" stroke="#63b8ff" points="554.94,-191.16 564.99,-187.81 555.05,-184.16 554.94,-191.16"/>
</a>
</g>
</g>
<!-- Node55&#45;&gt;Node28 -->
<g id="edge120_Node000055_Node000028" class="edge">
<title>Node55&#45;&gt;Node28</title>
<g id="a_edge120_Node000055_Node000028"><a xlink:title=" ">
<path fill="none" stroke="#63b8ff" d="M363.8,-351.6C346.1,-349.36 327.67,-347.04 310.87,-344.92"/>
<polygon fill="#63b8ff" stroke="#63b8ff" points="363.14,-355.04 373.5,-352.82 364.02,-348.1 363.14,-355.04"/>
</a>
</g>
</g>
<!-- Node56&#45;&gt;Node28 -->
<g id="edge122_Node000056_Node000028" class="edge">
<title>Node56&#45;&gt;Node28</title>
<g id="a_edge122_Node000056_Node000028"><a xlink:title=" ">
<path fill="none" stroke="#63b8ff" d="M363.8,-322.4C346.1,-324.64 327.67,-326.96 310.87,-329.08"/>
<polygon fill="#63b8ff" stroke="#63b8ff" points="364.02,-325.9 373.5,-321.18 363.14,-318.96 364.02,-325.9"/>
</a>
</g>
</g>
<!-- Node57&#45;&gt;Node8 -->
<g id="edge124_Node000057_Node000008" class="edge">
<title>Node57&#45;&gt;Node8</title>
<g id="a_edge124_Node000057_Node000008"><a xlink:title=" ">
<path fill="none" stroke="#63b8ff" d="M369.09,-194.57C348.04,-196.91 325.6,-199.4 305.83,-201.59"/>
<polygon fill="#63b8ff" stroke="#63b8ff" points="369.22,-198.08 378.77,-193.49 368.45,-191.12 369.22,-198.08"/>
</a>
</g>
</g>
</g>
</svg>
