<?xml version="1.0" encoding="UTF-8" standalone="no"?>
<!DOCTYPE svg PUBLIC "-//W3C//DTD SVG 1.1//EN"
 "http://www.w3.org/Graphics/SVG/1.1/DTD/svg11.dtd">
<!-- Generated by graphviz version 12.2.0 (20241103.1931)
 -->
<!-- Title: skipSequence Pages: 1 -->
<svg width="2033pt" height="142pt"
 viewBox="0.00 0.00 2033.25 142.00" xmlns="http://www.w3.org/2000/svg" xmlns:xlink="http://www.w3.org/1999/xlink">
<g id="graph0" class="graph" transform="scale(1 1) rotate(0) translate(4 138)">
<title>skipSequence</title>
<!-- Node1 -->
<g id="Node000001" class="node">
<title>Node1</title>
<g id="a_Node000001"><a xlink:title=" ">
<polygon fill="#999999" stroke="#666666" points="2025.25,-77 1947.75,-77 1947.75,-57 2025.25,-57 2025.25,-77"/>
<text text-anchor="middle" x="1986.5" y="-63.5" font-family="Helvetica,sans-Serif" font-size="10.00">skipSequence</text>
</a>
</g>
</g>
<!-- Node2 -->
<g id="Node000002" class="node">
<title>Node2</title>
<g id="a_Node000002"><a xlink:href="$_text_manager_8cpp.html#a8f90c1ec899f25ae8d1087459a6bc108" xlink:title=" ">
<polygon fill="white" stroke="#666666" points="1886.62,-134 1809.12,-134 1809.12,-114 1886.62,-114 1886.62,-134"/>
<text text-anchor="middle" x="1847.88" y="-120.5" font-family="Helvetica,sans-Serif" font-size="10.00">countMatches</text>
</a>
</g>
</g>
<!-- Node1&#45;&gt;Node2 -->
<g id="edge22_Node000001_Node000002" class="edge">
<title>Node1&#45;&gt;Node2</title>
<g id="a_edge22_Node000001_Node000002"><a xlink:title=" ">
<path fill="none" stroke="#63b8ff" d="M1952.88,-82.07C1940.12,-87.84 1925.32,-94.38 1911.75,-100 1900.52,-104.65 1888.04,-109.48 1877.18,-113.58"/>
<polygon fill="#63b8ff" stroke="#63b8ff" points="1954.02,-85.4 1961.67,-78.07 1951.12,-79.03 1954.02,-85.4"/>
</a>
</g>
</g>
<!-- Node4 -->
<g id="Node000004" class="node">
<title>Node4</title>
<g id="a_Node000004"><a xlink:href="$_text_manager_8cpp.html#a5adfb1e14ce20866bfe01ed05b344a87" xlink:title=" ">
<polygon fill="white" stroke="#666666" points="1748,-96 1633,-96 1633,-76 1748,-76 1748,-96"/>
<text text-anchor="middle" x="1690.5" y="-82.5" font-family="Helvetica,sans-Serif" font-size="10.00">getStringInsideBorders</text>
</a>
</g>
</g>
<!-- Node1&#45;&gt;Node4 -->
<g id="edge42_Node000001_Node000004" class="edge">
<title>Node1&#45;&gt;Node4</title>
<g id="a_edge42_Node000001_Node000004"><a xlink:title=" ">
<path fill="none" stroke="#63b8ff" d="M1936.14,-70.19C1884.34,-73.54 1802.99,-78.79 1748.48,-82.32"/>
<polygon fill="#63b8ff" stroke="#63b8ff" points="1936.1,-73.7 1945.86,-69.56 1935.65,-66.71 1936.1,-73.7"/>
</a>
</g>
</g>
<!-- Node6 -->
<g id="Node000006" class="node">
<title>Node6</title>
<g id="a_Node000006"><a xlink:href="$class_lexer.html#a38487c80f0fe8c7f35a2a495015945be" xlink:title=" ">
<polygon fill="white" stroke="#666666" points="1911.75,-58 1784,-58 1784,-38 1911.75,-38 1911.75,-58"/>
<text text-anchor="middle" x="1847.88" y="-44.5" font-family="Helvetica,sans-Serif" font-size="10.00">Lexer::extractStringLiteral</text>
</a>
</g>
</g>
<!-- Node1&#45;&gt;Node6 -->
<g id="edge26_Node000001_Node000006" class="edge">
<title>Node1&#45;&gt;Node6</title>
<g id="a_edge26_Node000001_Node000006"><a xlink:title=" ">
<path fill="none" stroke="#63b8ff" d="M1936.27,-60.15C1928.43,-59.06 1920.23,-57.92 1912.12,-56.79"/>
<polygon fill="#63b8ff" stroke="#63b8ff" points="1935.56,-63.59 1945.94,-61.5 1936.52,-56.65 1935.56,-63.59"/>
</a>
</g>
</g>
<!-- Node20 -->
<g id="Node000020" class="node">
<title>Node20</title>
<g id="a_Node000020"><a xlink:href="$_text_manager_8cpp.html#a42b898aede0151587625671fa5ba1ef3" xlink:title=" ">
<polygon fill="white" stroke="#666666" points="1879.88,-20 1815.88,-20 1815.88,0 1879.88,0 1879.88,-20"/>
<text text-anchor="middle" x="1847.88" y="-6.5" font-family="Helvetica,sans-Serif" font-size="10.00">getAllLines</text>
</a>
</g>
</g>
<!-- Node1&#45;&gt;Node20 -->
<g id="edge41_Node000001_Node000020" class="edge">
<title>Node1&#45;&gt;Node20</title>
<g id="a_edge41_Node000001_Node000020"><a xlink:title=" ">
<path fill="none" stroke="#63b8ff" d="M1957.75,-51.18C1944.16,-43.82 1927.39,-35.33 1911.75,-29 1901.71,-24.94 1890.46,-21.27 1880.29,-18.27"/>
<polygon fill="#63b8ff" stroke="#63b8ff" points="1955.68,-54.03 1966.12,-55.79 1959.05,-47.9 1955.68,-54.03"/>
</a>
</g>
</g>
<!-- Node3 -->
<g id="Node000003" class="node">
<title>Node3</title>
<g id="a_Node000003"><a xlink:href="$_text_manager_8cpp.html#a87f06bcc7caeab328ba32f4aec7883e2" xlink:title=" ">
<polygon fill="white" stroke="#666666" points="1743.5,-134 1637.5,-134 1637.5,-114 1743.5,-114 1743.5,-134"/>
<text text-anchor="middle" x="1690.5" y="-120.5" font-family="Helvetica,sans-Serif" font-size="10.00">countMatchesBefore</text>
</a>
</g>
</g>
<!-- Node2&#45;&gt;Node3 -->
<g id="edge23_Node000002_Node000003" class="edge">
<title>Node2&#45;&gt;Node3</title>
<g id="a_edge23_Node000002_Node000003"><a xlink:title=" ">
<path fill="none" stroke="#63b8ff" d="M1797.41,-124C1780.31,-124 1761.1,-124 1743.78,-124"/>
<polygon fill="#63b8ff" stroke="#63b8ff" points="1797.35,-127.5 1807.35,-124 1797.35,-120.5 1797.35,-127.5"/>
</a>
</g>
</g>
<!-- Node2&#45;&gt;Node4 -->
<g id="edge24_Node000002_Node000004" class="edge">
<title>Node2&#45;&gt;Node4</title>
<g id="a_edge24_Node000002_Node000004"><a xlink:title=" ">
<path fill="none" stroke="#63b8ff" d="M1797.89,-112.02C1777.49,-107.03 1754.02,-101.29 1734.32,-96.47"/>
<polygon fill="#63b8ff" stroke="#63b8ff" points="1796.85,-115.37 1807.4,-114.34 1798.51,-108.57 1796.85,-115.37"/>
</a>
</g>
</g>
<!-- Node5 -->
<g id="Node000005" class="node">
<title>Node5</title>
<g id="a_Node000005"><a xlink:href="$_w_x_manager_8cpp.html#a5dcb537699bebb9e9db36ab19c5aacf7" xlink:title=" ">
<polygon fill="white" stroke="#666666" points="1568.12,-96 1514.62,-96 1514.62,-76 1568.12,-76 1568.12,-96"/>
<text text-anchor="middle" x="1541.38" y="-82.5" font-family="Helvetica,sans-Serif" font-size="10.00">runTests</text>
</a>
</g>
</g>
<!-- Node4&#45;&gt;Node5 -->
<g id="edge25_Node000004_Node000005" class="edge">
<title>Node4&#45;&gt;Node5</title>
<g id="a_edge25_Node000004_Node000005"><a xlink:title=" ">
<path fill="none" stroke="#63b8ff" d="M1621.31,-86C1602.49,-86 1583.19,-86 1568.38,-86"/>
<polygon fill="#63b8ff" stroke="#63b8ff" points="1621.1,-89.5 1631.1,-86 1621.1,-82.5 1621.1,-89.5"/>
</a>
</g>
</g>
<!-- Node7 -->
<g id="Node000007" class="node">
<title>Node7</title>
<g id="a_Node000007"><a xlink:href="$class_lexer.html#acf897fb607a542d5c7c8cd4b0dcb1d18" xlink:title=" ">
<polygon fill="white" stroke="#666666" points="1744.25,-58 1636.75,-58 1636.75,-38 1744.25,-38 1744.25,-58"/>
<text text-anchor="middle" x="1690.5" y="-44.5" font-family="Helvetica,sans-Serif" font-size="10.00">Lexer::extractTokens</text>
</a>
</g>
</g>
<!-- Node6&#45;&gt;Node7 -->
<g id="edge27_Node000006_Node000007" class="edge">
<title>Node6&#45;&gt;Node7</title>
<g id="a_edge27_Node000006_Node000007"><a xlink:title=" ">
<path fill="none" stroke="#63b8ff" d="M1772.35,-48C1763.02,-48 1753.62,-48 1744.7,-48"/>
<polygon fill="#63b8ff" stroke="#63b8ff" points="1772.16,-51.5 1782.16,-48 1772.16,-44.5 1772.16,-51.5"/>
</a>
</g>
</g>
<!-- Node8 -->
<g id="Node000008" class="node">
<title>Node8</title>
<g id="a_Node000008"><a xlink:href="$class_interpretor.html#a213dd04d8ca9dbb188f29e2284fcbc5a" xlink:title=" ">
<polygon fill="white" stroke="#666666" points="1597,-58 1485.75,-58 1485.75,-38 1597,-38 1597,-58"/>
<text text-anchor="middle" x="1541.38" y="-44.5" font-family="Helvetica,sans-Serif" font-size="10.00">Interpretor::getTokens</text>
</a>
</g>
</g>
<!-- Node7&#45;&gt;Node8 -->
<g id="edge28_Node000007_Node000008" class="edge">
<title>Node7&#45;&gt;Node8</title>
<g id="a_edge28_Node000007_Node000008"><a xlink:title=" ">
<path fill="none" stroke="#63b8ff" d="M1624.91,-48C1615.73,-48 1606.37,-48 1597.39,-48"/>
<polygon fill="#63b8ff" stroke="#63b8ff" points="1624.87,-51.5 1634.87,-48 1624.87,-44.5 1624.87,-51.5"/>
</a>
</g>
</g>
<!-- Node9 -->
<g id="Node000009" class="node">
<title>Node9</title>
<g id="a_Node000009"><a xlink:href="$class_interpretor.html#ad464f7beab8778df1253377d8084325c" xlink:title=" ">
<polygon fill="white" stroke="#666666" points="1444.5,-77 1323.5,-77 1323.5,-57 1444.5,-57 1444.5,-77"/>
<text text-anchor="middle" x="1384" y="-63.5" font-family="Helvetica,sans-Serif" font-size="10.00">Interpretor::compileTags</text>
</a>
</g>
</g>
<!-- Node8&#45;&gt;Node9 -->
<g id="edge29_Node000008_Node000009" class="edge">
<title>Node8&#45;&gt;Node9</title>
<g id="a_edge29_Node000008_Node000009"><a xlink:title=" ">
<path fill="none" stroke="#63b8ff" d="M1474.27,-56.08C1464.5,-57.28 1454.47,-58.5 1444.83,-59.68"/>
<polygon fill="#63b8ff" stroke="#63b8ff" points="1474.59,-59.57 1484.09,-54.88 1473.74,-52.62 1474.59,-59.57"/>
</a>
</g>
</g>
<!-- Node18 -->
<g id="Node000018" class="node">
<title>Node18</title>
<g id="a_Node000018"><a xlink:href="$class_interpretor.html#a73bdd0d1c2896aa2039bdccde17c0fa1" xlink:title=" ">
<polygon fill="white" stroke="#666666" points="1449.75,-39 1318.25,-39 1318.25,-19 1449.75,-19 1449.75,-39"/>
<text text-anchor="middle" x="1384" y="-25.5" font-family="Helvetica,sans-Serif" font-size="10.00">Interpretor::compileTokens</text>
</a>
</g>
</g>
<!-- Node8&#45;&gt;Node18 -->
<g id="edge38_Node000008_Node000018" class="edge">
<title>Node8&#45;&gt;Node18</title>
<g id="a_edge38_Node000008_Node000018"><a xlink:title=" ">
<path fill="none" stroke="#63b8ff" d="M1474.41,-39.93C1466.39,-38.95 1458.2,-37.95 1450.2,-36.97"/>
<polygon fill="#63b8ff" stroke="#63b8ff" points="1473.74,-43.38 1484.09,-41.12 1474.59,-36.43 1473.74,-43.38"/>
</a>
</g>
</g>
<!-- Node10 -->
<g id="Node000010" class="node">
<title>Node10</title>
<g id="a_Node000010"><a xlink:href="$class_interpretor.html#a6e04dd33cb518270ae83197706689a2e" xlink:title=" ">
<polygon fill="white" stroke="#666666" points="1282.25,-77 1148.5,-77 1148.5,-57 1282.25,-57 1282.25,-77"/>
<text text-anchor="middle" x="1215.38" y="-63.5" font-family="Helvetica,sans-Serif" font-size="10.00">Interpretor::readActivityFile</text>
</a>
</g>
</g>
<!-- Node9&#45;&gt;Node10 -->
<g id="edge30_Node000009_Node000010" class="edge">
<title>Node9&#45;&gt;Node10</title>
<g id="a_edge30_Node000009_Node000010"><a xlink:title=" ">
<path fill="none" stroke="#63b8ff" d="M1312.03,-67C1302.31,-67 1292.35,-67 1282.71,-67"/>
<polygon fill="#63b8ff" stroke="#63b8ff" points="1311.8,-70.5 1321.8,-67 1311.8,-63.5 1311.8,-70.5"/>
</a>
</g>
</g>
<!-- Node11 -->
<g id="Node000011" class="node">
<title>Node11</title>
<g id="a_Node000011"><a xlink:href="$class_my_frame.html#a6e0ebad55b1d785b586997826c512f7d" xlink:title=" ">
<polygon fill="white" stroke="#666666" points="1112.5,-58 999,-58 999,-38 1112.5,-38 1112.5,-58"/>
<text text-anchor="middle" x="1055.75" y="-44.5" font-family="Helvetica,sans-Serif" font-size="10.00">MyFrame::getMainTag</text>
</a>
</g>
</g>
<!-- Node10&#45;&gt;Node11 -->
<g id="edge31_Node000010_Node000011" class="edge">
<title>Node10&#45;&gt;Node11</title>
<g id="a_edge31_Node000010_Node000011"><a xlink:title=" ">
<path fill="none" stroke="#63b8ff" d="M1137.29,-57.71C1129.07,-56.72 1120.83,-55.72 1112.92,-54.77"/>
<polygon fill="#63b8ff" stroke="#63b8ff" points="1136.59,-61.15 1146.94,-58.87 1137.43,-54.2 1136.59,-61.15"/>
</a>
</g>
</g>
<!-- Node12 -->
<g id="Node000012" class="node">
<title>Node12</title>
<g id="a_Node000012"><a xlink:href="$class_my_frame.html#abb986879321b4dceaffb43eae82e37f1" xlink:title=" ">
<polygon fill="white" stroke="#666666" points="963,-58 827,-58 827,-38 963,-38 963,-58"/>
<text text-anchor="middle" x="895" y="-44.5" font-family="Helvetica,sans-Serif" font-size="10.00">MyFrame::createPanelTags</text>
</a>
</g>
</g>
<!-- Node11&#45;&gt;Node12 -->
<g id="edge32_Node000011_Node000012" class="edge">
<title>Node11&#45;&gt;Node12</title>
<g id="a_edge32_Node000011_Node000012"><a xlink:title=" ">
<path fill="none" stroke="#63b8ff" d="M987.34,-48C979.43,-48 971.35,-48 963.44,-48"/>
<polygon fill="#63b8ff" stroke="#63b8ff" points="987.27,-51.5 997.27,-48 987.27,-44.5 987.27,-51.5"/>
</a>
</g>
</g>
<!-- Node13 -->
<g id="Node000013" class="node">
<title>Node13</title>
<g id="a_Node000013"><a xlink:href="$class_my_frame.html#a7795237fe8d78e10023b2e078f9728e3" xlink:title=" ">
<polygon fill="white" stroke="#666666" points="791,-58 642.25,-58 642.25,-38 791,-38 791,-58"/>
<text text-anchor="middle" x="716.62" y="-44.5" font-family="Helvetica,sans-Serif" font-size="10.00">MyFrame::setProgramWindow</text>
</a>
</g>
</g>
<!-- Node12&#45;&gt;Node13 -->
<g id="edge33_Node000012_Node000013" class="edge">
<title>Node12&#45;&gt;Node13</title>
<g id="a_edge33_Node000012_Node000013"><a xlink:title=" ">
<path fill="none" stroke="#63b8ff" d="M815.14,-48C807.27,-48 799.3,-48 791.49,-48"/>
<polygon fill="#63b8ff" stroke="#63b8ff" points="815.05,-51.5 825.05,-48 815.05,-44.5 815.05,-51.5"/>
</a>
</g>
</g>
<!-- Node14 -->
<g id="Node000014" class="node">
<title>Node14</title>
<g id="a_Node000014"><a xlink:href="$class_my_frame.html#a72b4f4c02d1a12561c4cc1f5f7685db8" xlink:title=" ">
<polygon fill="white" stroke="#666666" points="606.25,-58 468,-58 468,-38 606.25,-38 606.25,-58"/>
<text text-anchor="middle" x="537.12" y="-44.5" font-family="Helvetica,sans-Serif" font-size="10.00">MyFrame::setProgramPanel</text>
</a>
</g>
</g>
<!-- Node13&#45;&gt;Node14 -->
<g id="edge34_Node000013_Node000014" class="edge">
<title>Node13&#45;&gt;Node14</title>
<g id="a_edge34_Node000013_Node000014"><a xlink:title=" ">
<path fill="none" stroke="#63b8ff" d="M630.55,-48C622.49,-48 614.39,-48 606.51,-48"/>
<polygon fill="#63b8ff" stroke="#63b8ff" points="630.38,-51.5 640.38,-48 630.38,-44.5 630.38,-51.5"/>
</a>
</g>
</g>
<!-- Node15 -->
<g id="Node000015" class="node">
<title>Node15</title>
<g id="a_Node000015"><a xlink:href="$class_my_frame.html#a0281cb45b6735fcbd2c885d98c874d18" xlink:title=" ">
<polygon fill="white" stroke="#666666" points="432,-58 299,-58 299,-38 432,-38 432,-58"/>
<text text-anchor="middle" x="365.5" y="-44.5" font-family="Helvetica,sans-Serif" font-size="10.00">MyFrame::setBottomPanel</text>
</a>
</g>
</g>
<!-- Node14&#45;&gt;Node15 -->
<g id="edge35_Node000014_Node000015" class="edge">
<title>Node14&#45;&gt;Node15</title>
<g id="a_edge35_Node000014_Node000015"><a xlink:title=" ">
<path fill="none" stroke="#63b8ff" d="M456.3,-48C448.24,-48 440.12,-48 432.23,-48"/>
<polygon fill="#63b8ff" stroke="#63b8ff" points="456.11,-51.5 466.11,-48 456.11,-44.5 456.11,-51.5"/>
</a>
</g>
</g>
<!-- Node16 -->
<g id="Node000016" class="node">
<title>Node16</title>
<g id="a_Node000016"><a xlink:href="$class_my_frame.html#a774684146b2b14e42891f6d8b8a73912" xlink:title=" ">
<polygon fill="white" stroke="#666666" points="263,-58 140.5,-58 140.5,-38 263,-38 263,-58"/>
<text text-anchor="middle" x="201.75" y="-44.5" font-family="Helvetica,sans-Serif" font-size="10.00">MyFrame::setMainPanel</text>
</a>
</g>
</g>
<!-- Node15&#45;&gt;Node16 -->
<g id="edge36_Node000015_Node000016" class="edge">
<title>Node15&#45;&gt;Node16</title>
<g id="a_edge36_Node000015_Node000016"><a xlink:title=" ">
<path fill="none" stroke="#63b8ff" d="M287.35,-48C279.26,-48 271.13,-48 263.27,-48"/>
<polygon fill="#63b8ff" stroke="#63b8ff" points="287.2,-51.5 297.2,-48 287.2,-44.5 287.2,-51.5"/>
</a>
</g>
</g>
<!-- Node17 -->
<g id="Node000017" class="node">
<title>Node17</title>
<g id="a_Node000017"><a xlink:href="$class_my_frame.html#af13d7bffe3d6844c2331085f423764a4" xlink:title=" ">
<polygon fill="white" stroke="#666666" points="104.5,-58 0,-58 0,-38 104.5,-38 104.5,-58"/>
<text text-anchor="middle" x="52.25" y="-44.5" font-family="Helvetica,sans-Serif" font-size="10.00">MyFrame::MyFrame</text>
</a>
</g>
</g>
<!-- Node16&#45;&gt;Node17 -->
<g id="edge37_Node000016_Node000017" class="edge">
<title>Node16&#45;&gt;Node17</title>
<g id="a_edge37_Node000016_Node000017"><a xlink:title=" ">
<path fill="none" stroke="#63b8ff" d="M128.91,-48C120.79,-48 112.64,-48 104.85,-48"/>
<polygon fill="#63b8ff" stroke="#63b8ff" points="128.82,-51.5 138.82,-48 128.82,-44.5 128.82,-51.5"/>
</a>
</g>
</g>
<!-- Node19 -->
<g id="Node000019" class="node">
<title>Node19</title>
<g id="a_Node000019"><a xlink:href="$class_interpretor.html#a885b425a60dd2467089fc680f4528f03" xlink:title=" ">
<polygon fill="white" stroke="#666666" points="1274.75,-39 1156,-39 1156,-19 1274.75,-19 1274.75,-39"/>
<text text-anchor="middle" x="1215.38" y="-25.5" font-family="Helvetica,sans-Serif" font-size="10.00">Interpretor::doUnitTests</text>
</a>
</g>
</g>
<!-- Node18&#45;&gt;Node19 -->
<g id="edge39_Node000018_Node000019" class="edge">
<title>Node18&#45;&gt;Node19</title>
<g id="a_edge39_Node000018_Node000019"><a xlink:title=" ">
<path fill="none" stroke="#63b8ff" d="M1306.69,-29C1296.09,-29 1285.33,-29 1275.12,-29"/>
<polygon fill="#63b8ff" stroke="#63b8ff" points="1306.59,-32.5 1316.59,-29 1306.59,-25.5 1306.59,-32.5"/>
</a>
</g>
</g>
<!-- Node19&#45;&gt;Node11 -->
<g id="edge40_Node000019_Node000011" class="edge">
<title>Node19&#45;&gt;Node11</title>
<g id="a_edge40_Node000019_Node000011"><a xlink:title=" ">
<path fill="none" stroke="#63b8ff" d="M1144.37,-37.44C1133.83,-38.71 1123.08,-40.01 1112.88,-41.23"/>
<polygon fill="#63b8ff" stroke="#63b8ff" points="1144.67,-40.93 1154.18,-36.26 1143.83,-33.98 1144.67,-40.93"/>
</a>
</g>
</g>
</g>
</svg>
