<?xml version="1.0" encoding="UTF-8" standalone="no"?>
<!DOCTYPE svg PUBLIC "-//W3C//DTD SVG 1.1//EN"
 "http://www.w3.org/Graphics/SVG/1.1/DTD/svg11.dtd">
<!-- Generated by graphviz version 12.2.0 (20241103.1931)
 -->
<!-- Title: skipSpace Pages: 1 -->
<svg width="1846pt" height="66pt"
 viewBox="0.00 0.00 1846.25 66.00" xmlns="http://www.w3.org/2000/svg" xmlns:xlink="http://www.w3.org/1999/xlink">
<g id="graph0" class="graph" transform="scale(1 1) rotate(0) translate(4 62)">
<title>skipSpace</title>
<!-- Node1 -->
<g id="Node000001" class="node">
<title>Node1</title>
<g id="a_Node000001"><a xlink:title=" ">
<polygon fill="#999999" stroke="#666666" points="1838.25,-39 1776.5,-39 1776.5,-19 1838.25,-19 1838.25,-39"/>
<text text-anchor="middle" x="1807.38" y="-25.5" font-family="Helvetica,sans-Serif" font-size="10.00">skipSpace</text>
</a>
</g>
</g>
<!-- Node2 -->
<g id="Node000002" class="node">
<title>Node2</title>
<g id="a_Node000002"><a xlink:href="$class_lexer.html#acf897fb607a542d5c7c8cd4b0dcb1d18" xlink:title=" ">
<polygon fill="white" stroke="#666666" points="1740.5,-39 1633,-39 1633,-19 1740.5,-19 1740.5,-39"/>
<text text-anchor="middle" x="1686.75" y="-25.5" font-family="Helvetica,sans-Serif" font-size="10.00">Lexer::extractTokens</text>
</a>
</g>
</g>
<!-- Node1&#45;&gt;Node2 -->
<g id="edge15_Node000001_Node000002" class="edge">
<title>Node1&#45;&gt;Node2</title>
<g id="a_edge15_Node000001_Node000002"><a xlink:title=" ">
<path fill="none" stroke="#63b8ff" d="M1764.85,-29C1757.14,-29 1748.99,-29 1740.99,-29"/>
<polygon fill="#63b8ff" stroke="#63b8ff" points="1764.62,-32.5 1774.62,-29 1764.62,-25.5 1764.62,-32.5"/>
</a>
</g>
</g>
<!-- Node3 -->
<g id="Node000003" class="node">
<title>Node3</title>
<g id="a_Node000003"><a xlink:href="$class_interpretor.html#a213dd04d8ca9dbb188f29e2284fcbc5a" xlink:title=" ">
<polygon fill="white" stroke="#666666" points="1597,-39 1485.75,-39 1485.75,-19 1597,-19 1597,-39"/>
<text text-anchor="middle" x="1541.38" y="-25.5" font-family="Helvetica,sans-Serif" font-size="10.00">Interpretor::getTokens</text>
</a>
</g>
</g>
<!-- Node2&#45;&gt;Node3 -->
<g id="edge16_Node000002_Node000003" class="edge">
<title>Node2&#45;&gt;Node3</title>
<g id="a_edge16_Node000002_Node000003"><a xlink:title=" ">
<path fill="none" stroke="#63b8ff" d="M1621.4,-29C1613.27,-29 1605.02,-29 1597.06,-29"/>
<polygon fill="#63b8ff" stroke="#63b8ff" points="1621.26,-32.5 1631.26,-29 1621.26,-25.5 1621.26,-32.5"/>
</a>
</g>
</g>
<!-- Node4 -->
<g id="Node000004" class="node">
<title>Node4</title>
<g id="a_Node000004"><a xlink:href="$class_interpretor.html#ad464f7beab8778df1253377d8084325c" xlink:title=" ">
<polygon fill="white" stroke="#666666" points="1444.5,-58 1323.5,-58 1323.5,-38 1444.5,-38 1444.5,-58"/>
<text text-anchor="middle" x="1384" y="-44.5" font-family="Helvetica,sans-Serif" font-size="10.00">Interpretor::compileTags</text>
</a>
</g>
</g>
<!-- Node3&#45;&gt;Node4 -->
<g id="edge17_Node000003_Node000004" class="edge">
<title>Node3&#45;&gt;Node4</title>
<g id="a_edge17_Node000003_Node000004"><a xlink:title=" ">
<path fill="none" stroke="#63b8ff" d="M1474.27,-37.08C1464.5,-38.28 1454.47,-39.5 1444.83,-40.68"/>
<polygon fill="#63b8ff" stroke="#63b8ff" points="1474.59,-40.57 1484.09,-35.88 1473.74,-33.62 1474.59,-40.57"/>
</a>
</g>
</g>
<!-- Node13 -->
<g id="Node000013" class="node">
<title>Node13</title>
<g id="a_Node000013"><a xlink:href="$class_interpretor.html#a73bdd0d1c2896aa2039bdccde17c0fa1" xlink:title=" ">
<polygon fill="white" stroke="#666666" points="1449.75,-20 1318.25,-20 1318.25,0 1449.75,0 1449.75,-20"/>
<text text-anchor="middle" x="1384" y="-6.5" font-family="Helvetica,sans-Serif" font-size="10.00">Interpretor::compileTokens</text>
</a>
</g>
</g>
<!-- Node3&#45;&gt;Node13 -->
<g id="edge26_Node000003_Node000013" class="edge">
<title>Node3&#45;&gt;Node13</title>
<g id="a_edge26_Node000003_Node000013"><a xlink:title=" ">
<path fill="none" stroke="#63b8ff" d="M1474.41,-20.93C1466.39,-19.95 1458.2,-18.95 1450.2,-17.97"/>
<polygon fill="#63b8ff" stroke="#63b8ff" points="1473.74,-24.38 1484.09,-22.12 1474.59,-17.43 1473.74,-24.38"/>
</a>
</g>
</g>
<!-- Node5 -->
<g id="Node000005" class="node">
<title>Node5</title>
<g id="a_Node000005"><a xlink:href="$class_interpretor.html#a6e04dd33cb518270ae83197706689a2e" xlink:title=" ">
<polygon fill="white" stroke="#666666" points="1282.25,-58 1148.5,-58 1148.5,-38 1282.25,-38 1282.25,-58"/>
<text text-anchor="middle" x="1215.38" y="-44.5" font-family="Helvetica,sans-Serif" font-size="10.00">Interpretor::readActivityFile</text>
</a>
</g>
</g>
<!-- Node4&#45;&gt;Node5 -->
<g id="edge18_Node000004_Node000005" class="edge">
<title>Node4&#45;&gt;Node5</title>
<g id="a_edge18_Node000004_Node000005"><a xlink:title=" ">
<path fill="none" stroke="#63b8ff" d="M1312.03,-48C1302.31,-48 1292.35,-48 1282.71,-48"/>
<polygon fill="#63b8ff" stroke="#63b8ff" points="1311.8,-51.5 1321.8,-48 1311.8,-44.5 1311.8,-51.5"/>
</a>
</g>
</g>
<!-- Node6 -->
<g id="Node000006" class="node">
<title>Node6</title>
<g id="a_Node000006"><a xlink:href="$class_my_frame.html#a6e0ebad55b1d785b586997826c512f7d" xlink:title=" ">
<polygon fill="white" stroke="#666666" points="1112.5,-39 999,-39 999,-19 1112.5,-19 1112.5,-39"/>
<text text-anchor="middle" x="1055.75" y="-25.5" font-family="Helvetica,sans-Serif" font-size="10.00">MyFrame::getMainTag</text>
</a>
</g>
</g>
<!-- Node5&#45;&gt;Node6 -->
<g id="edge19_Node000005_Node000006" class="edge">
<title>Node5&#45;&gt;Node6</title>
<g id="a_edge19_Node000005_Node000006"><a xlink:title=" ">
<path fill="none" stroke="#63b8ff" d="M1137.29,-38.71C1129.07,-37.72 1120.83,-36.72 1112.92,-35.77"/>
<polygon fill="#63b8ff" stroke="#63b8ff" points="1136.59,-42.15 1146.94,-39.87 1137.43,-35.2 1136.59,-42.15"/>
</a>
</g>
</g>
<!-- Node7 -->
<g id="Node000007" class="node">
<title>Node7</title>
<g id="a_Node000007"><a xlink:href="$class_my_frame.html#abb986879321b4dceaffb43eae82e37f1" xlink:title=" ">
<polygon fill="white" stroke="#666666" points="963,-39 827,-39 827,-19 963,-19 963,-39"/>
<text text-anchor="middle" x="895" y="-25.5" font-family="Helvetica,sans-Serif" font-size="10.00">MyFrame::createPanelTags</text>
</a>
</g>
</g>
<!-- Node6&#45;&gt;Node7 -->
<g id="edge20_Node000006_Node000007" class="edge">
<title>Node6&#45;&gt;Node7</title>
<g id="a_edge20_Node000006_Node000007"><a xlink:title=" ">
<path fill="none" stroke="#63b8ff" d="M987.34,-29C979.43,-29 971.35,-29 963.44,-29"/>
<polygon fill="#63b8ff" stroke="#63b8ff" points="987.27,-32.5 997.27,-29 987.27,-25.5 987.27,-32.5"/>
</a>
</g>
</g>
<!-- Node8 -->
<g id="Node000008" class="node">
<title>Node8</title>
<g id="a_Node000008"><a xlink:href="$class_my_frame.html#a7795237fe8d78e10023b2e078f9728e3" xlink:title=" ">
<polygon fill="white" stroke="#666666" points="791,-39 642.25,-39 642.25,-19 791,-19 791,-39"/>
<text text-anchor="middle" x="716.62" y="-25.5" font-family="Helvetica,sans-Serif" font-size="10.00">MyFrame::setProgramWindow</text>
</a>
</g>
</g>
<!-- Node7&#45;&gt;Node8 -->
<g id="edge21_Node000007_Node000008" class="edge">
<title>Node7&#45;&gt;Node8</title>
<g id="a_edge21_Node000007_Node000008"><a xlink:title=" ">
<path fill="none" stroke="#63b8ff" d="M815.14,-29C807.27,-29 799.3,-29 791.49,-29"/>
<polygon fill="#63b8ff" stroke="#63b8ff" points="815.05,-32.5 825.05,-29 815.05,-25.5 815.05,-32.5"/>
</a>
</g>
</g>
<!-- Node9 -->
<g id="Node000009" class="node">
<title>Node9</title>
<g id="a_Node000009"><a xlink:href="$class_my_frame.html#a72b4f4c02d1a12561c4cc1f5f7685db8" xlink:title=" ">
<polygon fill="white" stroke="#666666" points="606.25,-39 468,-39 468,-19 606.25,-19 606.25,-39"/>
<text text-anchor="middle" x="537.12" y="-25.5" font-family="Helvetica,sans-Serif" font-size="10.00">MyFrame::setProgramPanel</text>
</a>
</g>
</g>
<!-- Node8&#45;&gt;Node9 -->
<g id="edge22_Node000008_Node000009" class="edge">
<title>Node8&#45;&gt;Node9</title>
<g id="a_edge22_Node000008_Node000009"><a xlink:title=" ">
<path fill="none" stroke="#63b8ff" d="M630.55,-29C622.49,-29 614.39,-29 606.51,-29"/>
<polygon fill="#63b8ff" stroke="#63b8ff" points="630.38,-32.5 640.38,-29 630.38,-25.5 630.38,-32.5"/>
</a>
</g>
</g>
<!-- Node10 -->
<g id="Node000010" class="node">
<title>Node10</title>
<g id="a_Node000010"><a xlink:href="$class_my_frame.html#a0281cb45b6735fcbd2c885d98c874d18" xlink:title=" ">
<polygon fill="white" stroke="#666666" points="432,-39 299,-39 299,-19 432,-19 432,-39"/>
<text text-anchor="middle" x="365.5" y="-25.5" font-family="Helvetica,sans-Serif" font-size="10.00">MyFrame::setBottomPanel</text>
</a>
</g>
</g>
<!-- Node9&#45;&gt;Node10 -->
<g id="edge23_Node000009_Node000010" class="edge">
<title>Node9&#45;&gt;Node10</title>
<g id="a_edge23_Node000009_Node000010"><a xlink:title=" ">
<path fill="none" stroke="#63b8ff" d="M456.3,-29C448.24,-29 440.12,-29 432.23,-29"/>
<polygon fill="#63b8ff" stroke="#63b8ff" points="456.11,-32.5 466.11,-29 456.11,-25.5 456.11,-32.5"/>
</a>
</g>
</g>
<!-- Node11 -->
<g id="Node000011" class="node">
<title>Node11</title>
<g id="a_Node000011"><a xlink:href="$class_my_frame.html#a774684146b2b14e42891f6d8b8a73912" xlink:title=" ">
<polygon fill="white" stroke="#666666" points="263,-39 140.5,-39 140.5,-19 263,-19 263,-39"/>
<text text-anchor="middle" x="201.75" y="-25.5" font-family="Helvetica,sans-Serif" font-size="10.00">MyFrame::setMainPanel</text>
</a>
</g>
</g>
<!-- Node10&#45;&gt;Node11 -->
<g id="edge24_Node000010_Node000011" class="edge">
<title>Node10&#45;&gt;Node11</title>
<g id="a_edge24_Node000010_Node000011"><a xlink:title=" ">
<path fill="none" stroke="#63b8ff" d="M287.35,-29C279.26,-29 271.13,-29 263.27,-29"/>
<polygon fill="#63b8ff" stroke="#63b8ff" points="287.2,-32.5 297.2,-29 287.2,-25.5 287.2,-32.5"/>
</a>
</g>
</g>
<!-- Node12 -->
<g id="Node000012" class="node">
<title>Node12</title>
<g id="a_Node000012"><a xlink:href="$class_my_frame.html#af13d7bffe3d6844c2331085f423764a4" xlink:title=" ">
<polygon fill="white" stroke="#666666" points="104.5,-39 0,-39 0,-19 104.5,-19 104.5,-39"/>
<text text-anchor="middle" x="52.25" y="-25.5" font-family="Helvetica,sans-Serif" font-size="10.00">MyFrame::MyFrame</text>
</a>
</g>
</g>
<!-- Node11&#45;&gt;Node12 -->
<g id="edge25_Node000011_Node000012" class="edge">
<title>Node11&#45;&gt;Node12</title>
<g id="a_edge25_Node000011_Node000012"><a xlink:title=" ">
<path fill="none" stroke="#63b8ff" d="M128.91,-29C120.79,-29 112.64,-29 104.85,-29"/>
<polygon fill="#63b8ff" stroke="#63b8ff" points="128.82,-32.5 138.82,-29 128.82,-25.5 128.82,-32.5"/>
</a>
</g>
</g>
<!-- Node14 -->
<g id="Node000014" class="node">
<title>Node14</title>
<g id="a_Node000014"><a xlink:href="$class_interpretor.html#a885b425a60dd2467089fc680f4528f03" xlink:title=" ">
<polygon fill="white" stroke="#666666" points="1274.75,-20 1156,-20 1156,0 1274.75,0 1274.75,-20"/>
<text text-anchor="middle" x="1215.38" y="-6.5" font-family="Helvetica,sans-Serif" font-size="10.00">Interpretor::doUnitTests</text>
</a>
</g>
</g>
<!-- Node13&#45;&gt;Node14 -->
<g id="edge27_Node000013_Node000014" class="edge">
<title>Node13&#45;&gt;Node14</title>
<g id="a_edge27_Node000013_Node000014"><a xlink:title=" ">
<path fill="none" stroke="#63b8ff" d="M1306.69,-10C1296.09,-10 1285.33,-10 1275.12,-10"/>
<polygon fill="#63b8ff" stroke="#63b8ff" points="1306.59,-13.5 1316.59,-10 1306.59,-6.5 1306.59,-13.5"/>
</a>
</g>
</g>
<!-- Node14&#45;&gt;Node6 -->
<g id="edge28_Node000014_Node000006" class="edge">
<title>Node14&#45;&gt;Node6</title>
<g id="a_edge28_Node000014_Node000006"><a xlink:title=" ">
<path fill="none" stroke="#63b8ff" d="M1144.37,-18.44C1133.83,-19.71 1123.08,-21.01 1112.88,-22.23"/>
<polygon fill="#63b8ff" stroke="#63b8ff" points="1144.67,-21.93 1154.18,-17.26 1143.83,-14.98 1144.67,-21.93"/>
</a>
</g>
</g>
</g>
</svg>
