<?xml version="1.0" encoding="UTF-8" standalone="no"?>
<!DOCTYPE svg PUBLIC "-//W3C//DTD SVG 1.1//EN"
 "http://www.w3.org/Graphics/SVG/1.1/DTD/svg11.dtd">
<!-- Generated by graphviz version 12.2.0 (20241103.1931)
 -->
<!-- Title: getLine Pages: 1 -->
<svg width="583pt" height="122pt"
 viewBox="0.00 0.00 583.00 122.00" xmlns="http://www.w3.org/2000/svg" xmlns:xlink="http://www.w3.org/1999/xlink">
<g id="graph0" class="graph" transform="scale(1 1) rotate(0) translate(4 118)">
<title>getLine</title>
<!-- Node1 -->
<g id="Node000001" class="node">
<title>Node1</title>
<g id="a_Node000001"><a xlink:title=" ">
<polygon fill="#999999" stroke="#666666" points="47.5,-39 0,-39 0,-19 47.5,-19 47.5,-39"/>
<text text-anchor="middle" x="23.75" y="-25.5" font-family="Helvetica,sans-Serif" font-size="10.00">getLine</text>
</a>
</g>
</g>
<!-- Node2 -->
<g id="Node000002" class="node">
<title>Node2</title>
<g id="a_Node000002"><a xlink:href="$_text_manager_8cpp.html#a85a282af68cca7cf7d69487d1bacdc47" xlink:title=" ">
<polygon fill="white" stroke="#666666" points="186.12,-58 101.88,-58 101.88,-38 186.12,-38 186.12,-58"/>
<text text-anchor="middle" x="144" y="-44.5" font-family="Helvetica,sans-Serif" font-size="10.00">extractBetween</text>
</a>
</g>
</g>
<!-- Node1&#45;&gt;Node2 -->
<g id="edge13_Node000001_Node000002" class="edge">
<title>Node1&#45;&gt;Node2</title>
<g id="a_edge13_Node000001_Node000002"><a xlink:title=" ">
<path fill="none" stroke="#63b8ff" d="M47.83,-32.71C60.04,-34.67 75.57,-37.17 90.53,-39.57"/>
<polygon fill="#63b8ff" stroke="#63b8ff" points="89.86,-43.01 100.29,-41.14 90.97,-36.1 89.86,-43.01"/>
</a>
</g>
</g>
<!-- Node8 -->
<g id="Node000008" class="node">
<title>Node8</title>
<g id="a_Node000008"><a xlink:href="$_text_manager_8cpp.html#a84a9e24fc5cce3cebf746bb656909bf8" xlink:title=" ">
<polygon fill="white" stroke="#666666" points="204.5,-20 83.5,-20 83.5,0 204.5,0 204.5,-20"/>
<text text-anchor="middle" x="144" y="-6.5" font-family="Helvetica,sans-Serif" font-size="10.00">extractBetweenReverse</text>
</a>
</g>
</g>
<!-- Node1&#45;&gt;Node8 -->
<g id="edge22_Node000001_Node000008" class="edge">
<title>Node1&#45;&gt;Node8</title>
<g id="a_edge22_Node000001_Node000008"><a xlink:title=" ">
<path fill="none" stroke="#63b8ff" d="M47.83,-25.29C55.01,-24.14 63.35,-22.8 72.03,-21.4"/>
<polygon fill="#63b8ff" stroke="#63b8ff" points="72.35,-24.9 81.67,-19.85 71.24,-17.98 72.35,-24.9"/>
</a>
</g>
</g>
<!-- Node3 -->
<g id="Node000003" class="node">
<title>Node3</title>
<g id="a_Node000003"><a xlink:href="$_text_manager_8cpp.html#a6956d58559ef67f422247fdeb1c22775" xlink:title=" ">
<polygon fill="white" stroke="#666666" points="320.25,-58 244.25,-58 244.25,-38 320.25,-38 320.25,-58"/>
<text text-anchor="middle" x="282.25" y="-44.5" font-family="Helvetica,sans-Serif" font-size="10.00">getStringAfter</text>
</a>
</g>
</g>
<!-- Node2&#45;&gt;Node3 -->
<g id="edge14_Node000002_Node000003" class="edge">
<title>Node2&#45;&gt;Node3</title>
<g id="a_edge14_Node000002_Node000003"><a xlink:title=" ">
<path fill="none" stroke="#63b8ff" d="M186.62,-48C201.21,-48 217.73,-48 232.83,-48"/>
<polygon fill="#63b8ff" stroke="#63b8ff" points="232.53,-51.5 242.53,-48 232.53,-44.5 232.53,-51.5"/>
</a>
</g>
</g>
<!-- Node7 -->
<g id="Node000007" class="node">
<title>Node7</title>
<g id="a_Node000007"><a xlink:href="$_text_manager_8cpp.html#aff8311b88dbf5f3091f3ac1262543242" xlink:title=" ">
<polygon fill="white" stroke="#666666" points="324,-20 240.5,-20 240.5,0 324,0 324,-20"/>
<text text-anchor="middle" x="282.25" y="-6.5" font-family="Helvetica,sans-Serif" font-size="10.00">getStringBefore</text>
</a>
</g>
</g>
<!-- Node2&#45;&gt;Node7 -->
<g id="edge20_Node000002_Node000007" class="edge">
<title>Node2&#45;&gt;Node7</title>
<g id="a_edge20_Node000002_Node000007"><a xlink:title=" ">
<path fill="none" stroke="#63b8ff" d="M182.59,-37.52C198.08,-33.2 216.22,-28.14 232.7,-23.54"/>
<polygon fill="#63b8ff" stroke="#63b8ff" points="233.63,-26.91 242.32,-20.86 231.75,-20.17 233.63,-26.91"/>
</a>
</g>
</g>
<!-- Node4 -->
<g id="Node000004" class="node">
<title>Node4</title>
<g id="a_Node000004"><a xlink:href="$_text_manager_8cpp.html#a5b66873abcff2faee361721f86b65dd0" xlink:title=" ">
<polygon fill="white" stroke="#666666" points="438.25,-58 370.5,-58 370.5,-38 438.25,-38 438.25,-58"/>
<text text-anchor="middle" x="404.38" y="-44.5" font-family="Helvetica,sans-Serif" font-size="10.00">getPosAfter</text>
</a>
</g>
</g>
<!-- Node3&#45;&gt;Node4 -->
<g id="edge15_Node000003_Node000004" class="edge">
<title>Node3&#45;&gt;Node4</title>
<g id="a_edge15_Node000003_Node000004"><a xlink:title=" ">
<path fill="none" stroke="#63b8ff" d="M320.6,-48C332.73,-48 346.3,-48 358.9,-48"/>
<polygon fill="#63b8ff" stroke="#63b8ff" points="358.61,-51.5 368.61,-48 358.61,-44.5 358.61,-51.5"/>
</a>
</g>
</g>
<!-- Node6 -->
<g id="Node000006" class="node">
<title>Node6</title>
<g id="a_Node000006"><a xlink:href="$_text_manager_8cpp.html#a2946b90fb3df56b0a74d53eb4160f4e2" xlink:title=" ">
<polygon fill="white" stroke="#666666" points="448.75,-96 360,-96 360,-76 448.75,-76 448.75,-96"/>
<text text-anchor="middle" x="404.38" y="-82.5" font-family="Helvetica,sans-Serif" font-size="10.00">getStringStarting</text>
</a>
</g>
</g>
<!-- Node3&#45;&gt;Node6 -->
<g id="edge17_Node000003_Node000006" class="edge">
<title>Node3&#45;&gt;Node6</title>
<g id="a_edge17_Node000003_Node000006"><a xlink:title=" ">
<path fill="none" stroke="#63b8ff" d="M316.39,-58.48C329.78,-62.72 345.43,-67.67 359.73,-72.19"/>
<polygon fill="#63b8ff" stroke="#63b8ff" points="358.31,-75.41 368.9,-75.09 360.42,-68.74 358.31,-75.41"/>
</a>
</g>
</g>
<!-- Node5 -->
<g id="Node000005" class="node">
<title>Node5</title>
<g id="a_Node000005"><a xlink:href="$_text_manager_8cpp.html#a3f4afb2b62acd297e783a22ffa9a7000" xlink:title=" ">
<polygon fill="white" stroke="#666666" points="575,-58 484.75,-58 484.75,-38 575,-38 575,-58"/>
<text text-anchor="middle" x="529.88" y="-44.5" font-family="Helvetica,sans-Serif" font-size="10.00">getSequencePos</text>
</a>
</g>
</g>
<!-- Node4&#45;&gt;Node5 -->
<g id="edge16_Node000004_Node000005" class="edge">
<title>Node4&#45;&gt;Node5</title>
<g id="a_edge16_Node000004_Node000005"><a xlink:title=" ">
<path fill="none" stroke="#63b8ff" d="M438.47,-48C449.19,-48 461.39,-48 473.29,-48"/>
<polygon fill="#63b8ff" stroke="#63b8ff" points="473.02,-51.5 483.02,-48 473.02,-44.5 473.02,-51.5"/>
</a>
</g>
</g>
<!-- Node6&#45;&gt;Node5 -->
<g id="edge18_Node000006_Node000005" class="edge">
<title>Node6&#45;&gt;Node5</title>
<g id="a_edge18_Node000006_Node000005"><a xlink:title=" ">
<path fill="none" stroke="#63b8ff" d="M439.45,-75.52C453.22,-71.28 469.3,-66.33 484,-61.81"/>
<polygon fill="#63b8ff" stroke="#63b8ff" points="484.94,-65.18 493.47,-58.9 482.88,-58.49 484.94,-65.18"/>
</a>
</g>
</g>
<!-- Node6&#45;&gt;Node6 -->
<g id="edge19_Node000006_Node000006" class="edge">
<title>Node6&#45;&gt;Node6</title>
<g id="a_edge19_Node000006_Node000006"><a xlink:title=" ">
<path fill="none" stroke="#63b8ff" d="M384.97,-96.34C376.68,-104.98 383.15,-114 404.38,-114 415.98,-114 423.18,-111.3 425.96,-107.44"/>
<polygon fill="#63b8ff" stroke="#63b8ff" points="429.43,-106.96 424.07,-97.82 422.56,-108.31 429.43,-106.96"/>
</a>
</g>
</g>
<!-- Node7&#45;&gt;Node5 -->
<g id="edge21_Node000007_Node000005" class="edge">
<title>Node7&#45;&gt;Node5</title>
<g id="a_edge21_Node000007_Node000005"><a xlink:title=" ">
<path fill="none" stroke="#63b8ff" d="M324.25,-13.34C357.86,-16.41 406.59,-21.61 448.75,-29 458.26,-30.67 468.34,-32.78 478.01,-34.98"/>
<polygon fill="#63b8ff" stroke="#63b8ff" points="477.12,-38.37 487.65,-37.25 478.72,-31.55 477.12,-38.37"/>
</a>
</g>
</g>
<!-- Node8&#45;&gt;Node3 -->
<g id="edge23_Node000008_Node000003" class="edge">
<title>Node8&#45;&gt;Node3</title>
<g id="a_edge23_Node000008_Node000003"><a xlink:title=" ">
<path fill="none" stroke="#63b8ff" d="M182.59,-20.48C198.08,-24.8 216.22,-29.86 232.7,-34.46"/>
<polygon fill="#63b8ff" stroke="#63b8ff" points="231.75,-37.83 242.32,-37.14 233.63,-31.09 231.75,-37.83"/>
</a>
</g>
</g>
<!-- Node8&#45;&gt;Node7 -->
<g id="edge24_Node000008_Node000007" class="edge">
<title>Node8&#45;&gt;Node7</title>
<g id="a_edge24_Node000008_Node000007"><a xlink:title=" ">
<path fill="none" stroke="#63b8ff" d="M204.76,-10C212.83,-10 221.06,-10 228.99,-10"/>
<polygon fill="#63b8ff" stroke="#63b8ff" points="228.82,-13.5 238.82,-10 228.82,-6.5 228.82,-13.5"/>
</a>
</g>
</g>
</g>
</svg>
