<?xml version="1.0" encoding="UTF-8" standalone="no"?>
<!DOCTYPE svg PUBLIC "-//W3C//DTD SVG 1.1//EN"
 "http://www.w3.org/Graphics/SVG/1.1/DTD/svg11.dtd">
<!-- Generated by graphviz version 12.2.0 (20241103.1931)
 -->
<!-- Title: countMatches Pages: 1 -->
<svg width="448pt" height="122pt"
 viewBox="0.00 0.00 447.75 122.00" xmlns="http://www.w3.org/2000/svg" xmlns:xlink="http://www.w3.org/1999/xlink">
<g id="graph0" class="graph" transform="scale(1 1) rotate(0) translate(4 118)">
<title>countMatches</title>
<!-- Node1 -->
<g id="Node000001" class="node">
<title>Node1</title>
<g id="a_Node000001"><a xlink:title=" ">
<polygon fill="#999999" stroke="#666666" points="77.5,-58 0,-58 0,-38 77.5,-38 77.5,-58"/>
<text text-anchor="middle" x="38.75" y="-44.5" font-family="Helvetica,sans-Serif" font-size="10.00">countMatches</text>
</a>
</g>
</g>
<!-- Node2 -->
<g id="Node000002" class="node">
<title>Node2</title>
<g id="a_Node000002"><a xlink:href="$_text_manager_8cpp.html#a079e0c70f384def9d00b70f9ee62ee4a" xlink:title=" ">
<polygon fill="white" stroke="#666666" points="209.75,-114 113.5,-114 113.5,-94 209.75,-94 209.75,-114"/>
<text text-anchor="middle" x="161.62" y="-100.5" font-family="Helvetica,sans-Serif" font-size="10.00">containsSequence</text>
</a>
</g>
</g>
<!-- Node1&#45;&gt;Node2 -->
<g id="edge8_Node000001_Node000002" class="edge">
<title>Node1&#45;&gt;Node2</title>
<g id="a_edge8_Node000001_Node000002"><a xlink:title=" ">
<path fill="none" stroke="#63b8ff" d="M59.57,-58.5C74.3,-66.16 94.96,-76.63 113.5,-85 116.62,-86.41 119.87,-87.82 123.14,-89.21"/>
<polygon fill="#63b8ff" stroke="#63b8ff" points="121.57,-92.35 132.15,-92.95 124.25,-85.88 121.57,-92.35"/>
</a>
</g>
</g>
<!-- Node3 -->
<g id="Node000003" class="node">
<title>Node3</title>
<g id="a_Node000003"><a xlink:href="$_text_manager_8cpp.html#a4d2b9819e5e2504ea8d55a553812146a" xlink:title=" ">
<polygon fill="white" stroke="#666666" points="199.25,-58 124,-58 124,-38 199.25,-38 199.25,-58"/>
<text text-anchor="middle" x="161.62" y="-44.5" font-family="Helvetica,sans-Serif" font-size="10.00">getStringUntil</text>
</a>
</g>
</g>
<!-- Node1&#45;&gt;Node3 -->
<g id="edge9_Node000001_Node000003" class="edge">
<title>Node1&#45;&gt;Node3</title>
<g id="a_edge9_Node000001_Node000003"><a xlink:title=" ">
<path fill="none" stroke="#63b8ff" d="M78,-48C88.99,-48 101.13,-48 112.63,-48"/>
<polygon fill="#63b8ff" stroke="#63b8ff" points="112.35,-51.5 122.35,-48 112.35,-44.5 112.35,-51.5"/>
</a>
</g>
</g>
<!-- Node6 -->
<g id="Node000006" class="node">
<title>Node6</title>
<g id="a_Node000006"><a xlink:href="$_text_manager_8cpp.html#a053e0b36b2796cc4d128150353f13449" xlink:title=" ">
<polygon fill="white" stroke="#666666" points="200.38,-20 122.88,-20 122.88,0 200.38,0 200.38,-20"/>
<text text-anchor="middle" x="161.62" y="-6.5" font-family="Helvetica,sans-Serif" font-size="10.00">skipSequence</text>
</a>
</g>
</g>
<!-- Node1&#45;&gt;Node6 -->
<g id="edge13_Node000001_Node000006" class="edge">
<title>Node1&#45;&gt;Node6</title>
<g id="a_edge13_Node000001_Node000006"><a xlink:title=" ">
<path fill="none" stroke="#63b8ff" d="M73.1,-37.52C86.58,-33.28 102.32,-28.33 116.7,-23.81"/>
<polygon fill="#63b8ff" stroke="#63b8ff" points="117.45,-27.24 125.94,-20.9 115.35,-20.56 117.45,-27.24"/>
</a>
</g>
</g>
<!-- Node3&#45;&gt;Node3 -->
<g id="edge12_Node000003_Node000003" class="edge">
<title>Node3&#45;&gt;Node3</title>
<g id="a_edge12_Node000003_Node000003"><a xlink:title=" ">
<path fill="none" stroke="#63b8ff" d="M142.88,-58.34C134.86,-66.98 141.11,-76 161.62,-76 172.84,-76 179.79,-73.3 182.48,-69.44"/>
<polygon fill="#63b8ff" stroke="#63b8ff" points="185.96,-69 180.66,-59.83 179.08,-70.3 185.96,-69"/>
</a>
</g>
</g>
<!-- Node4 -->
<g id="Node000004" class="node">
<title>Node4</title>
<g id="a_Node000004"><a xlink:href="$_text_manager_8cpp.html#a5b66873abcff2faee361721f86b65dd0" xlink:title=" ">
<polygon fill="white" stroke="#666666" points="313.5,-39 245.75,-39 245.75,-19 313.5,-19 313.5,-39"/>
<text text-anchor="middle" x="279.62" y="-25.5" font-family="Helvetica,sans-Serif" font-size="10.00">getPosAfter</text>
</a>
</g>
</g>
<!-- Node3&#45;&gt;Node4 -->
<g id="edge10_Node000003_Node000004" class="edge">
<title>Node3&#45;&gt;Node4</title>
<g id="a_edge10_Node000003_Node000004"><a xlink:title=" ">
<path fill="none" stroke="#63b8ff" d="M199.65,-41.94C210.69,-40.13 222.9,-38.13 234.35,-36.25"/>
<polygon fill="#63b8ff" stroke="#63b8ff" points="234.69,-39.74 243.99,-34.67 233.55,-32.84 234.69,-39.74"/>
</a>
</g>
</g>
<!-- Node5 -->
<g id="Node000005" class="node">
<title>Node5</title>
<g id="a_Node000005"><a xlink:href="$_text_manager_8cpp.html#a3f4afb2b62acd297e783a22ffa9a7000" xlink:title=" ">
<polygon fill="white" stroke="#666666" points="439.75,-39 349.5,-39 349.5,-19 439.75,-19 439.75,-39"/>
<text text-anchor="middle" x="394.62" y="-25.5" font-family="Helvetica,sans-Serif" font-size="10.00">getSequencePos</text>
</a>
</g>
</g>
<!-- Node4&#45;&gt;Node5 -->
<g id="edge11_Node000004_Node000005" class="edge">
<title>Node4&#45;&gt;Node5</title>
<g id="a_edge11_Node000004_Node000005"><a xlink:title=" ">
<path fill="none" stroke="#63b8ff" d="M313.92,-29C321.44,-29 329.63,-29 337.79,-29"/>
<polygon fill="#63b8ff" stroke="#63b8ff" points="337.74,-32.5 347.74,-29 337.74,-25.5 337.74,-32.5"/>
</a>
</g>
</g>
<!-- Node6&#45;&gt;Node4 -->
<g id="edge14_Node000006_Node000004" class="edge">
<title>Node6&#45;&gt;Node4</title>
<g id="a_edge14_Node000006_Node000004"><a xlink:title=" ">
<path fill="none" stroke="#63b8ff" d="M200.61,-16.22C211.4,-17.99 223.24,-19.93 234.36,-21.75"/>
<polygon fill="#63b8ff" stroke="#63b8ff" points="233.7,-25.19 244.13,-23.35 234.83,-18.28 233.7,-25.19"/>
</a>
</g>
</g>
</g>
</svg>
