<?xml version="1.0" encoding="UTF-8" standalone="no"?>
<!DOCTYPE svg PUBLIC "-//W3C//DTD SVG 1.1//EN"
 "http://www.w3.org/Graphics/SVG/1.1/DTD/svg11.dtd">
<!-- Generated by graphviz version 12.2.0 (20241103.1931)
 -->
<!-- Title: tolower Pages: 1 -->
<svg width="139pt" height="46pt"
 viewBox="0.00 0.00 139.00 46.00" xmlns="http://www.w3.org/2000/svg" xmlns:xlink="http://www.w3.org/1999/xlink">
<g id="graph0" class="graph" transform="scale(1 1) rotate(0) translate(4 42)">
<title>tolower</title>
<!-- Node1 -->
<g id="Node000001" class="node">
<title>Node1</title>
<g id="a_Node000001"><a xlink:title=" ">
<polygon fill="#999999" stroke="#666666" points="131,-20 83.5,-20 83.5,0 131,0 131,-20"/>
<text text-anchor="middle" x="107.25" y="-6.5" font-family="Helvetica,sans-Serif" font-size="10.00">tolower</text>
</a>
</g>
</g>
<!-- Node1&#45;&gt;Node1 -->
<g id="edge4_Node000001_Node000001" class="edge">
<title>Node1&#45;&gt;Node1</title>
<g id="a_edge4_Node000001_Node000001"><a xlink:title=" ">
<path fill="none" stroke="#63b8ff" d="M121.84,-31.77C119.82,-35.45 114.96,-38 107.25,-38 92.74,-38 88.31,-28.98 93.98,-20.34"/>
<polygon fill="#63b8ff" stroke="#63b8ff" points="125.32,-31.37 120.69,-21.84 118.36,-32.18 125.32,-31.37"/>
</a>
</g>
</g>
<!-- Node2 -->
<g id="Node000002" class="node">
<title>Node2</title>
<g id="a_Node000002"><a xlink:href="$_text_manager_8cpp.html#a298789aa768d11d50d04a2f246a19a74" xlink:title=" ">
<polygon fill="white" stroke="#666666" points="47.5,-20 0,-20 0,0 47.5,0 47.5,-20"/>
<text text-anchor="middle" x="23.75" y="-6.5" font-family="Helvetica,sans-Serif" font-size="10.00">to_bool</text>
</a>
</g>
</g>
<!-- Node1&#45;&gt;Node2 -->
<g id="edge3_Node000001_Node000002" class="edge">
<title>Node1&#45;&gt;Node2</title>
<g id="a_edge3_Node000001_Node000002"><a xlink:title=" ">
<path fill="none" stroke="#63b8ff" d="M71.74,-10C63.71,-10 55.35,-10 47.94,-10"/>
<polygon fill="#63b8ff" stroke="#63b8ff" points="71.6,-13.5 81.6,-10 71.6,-6.5 71.6,-13.5"/>
</a>
</g>
</g>
</g>
</svg>
