<?xml version="1.0" encoding="UTF-8" standalone="no"?>
<!DOCTYPE svg PUBLIC "-//W3C//DTD SVG 1.1//EN"
 "http://www.w3.org/Graphics/SVG/1.1/DTD/svg11.dtd">
<!-- Generated by graphviz version 12.2.0 (20241103.1931)
 -->
<!-- Title: PKToken::addType Pages: 1 -->
<svg width="417pt" height="104pt"
 viewBox="0.00 0.00 416.75 104.00" xmlns="http://www.w3.org/2000/svg" xmlns:xlink="http://www.w3.org/1999/xlink">
<g id="graph0" class="graph" transform="scale(1 1) rotate(0) translate(4 100)">
<title>PKToken::addType</title>
<!-- Node1 -->
<g id="Node000001" class="node">
<title>Node1</title>
<g id="a_Node000001"><a xlink:title=" ">
<polygon fill="#999999" stroke="#666666" points="98.5,-58 0,-58 0,-38 98.5,-38 98.5,-58"/>
<text text-anchor="middle" x="49.25" y="-44.5" font-family="Helvetica,sans-Serif" font-size="10.00">PKToken::addType</text>
</a>
</g>
</g>
<!-- Node2 -->
<g id="Node000002" class="node">
<title>Node2</title>
<g id="a_Node000002"><a xlink:href="$class_token.html#ade47ed51e2f495f6d847c1bff9fe8db6" xlink:title=" ">
<polygon fill="white" stroke="#666666" points="239.38,-96 154.38,-96 154.38,-76 239.38,-76 239.38,-96"/>
<text text-anchor="middle" x="196.88" y="-82.5" font-family="Helvetica,sans-Serif" font-size="10.00">Token::addError</text>
</a>
</g>
</g>
<!-- Node1&#45;&gt;Node2 -->
<g id="edge5_Node000001_Node000002" class="edge">
<title>Node1&#45;&gt;Node2</title>
<g id="a_edge5_Node000001_Node000002"><a xlink:title=" ">
<path fill="none" stroke="#63b8ff" d="M90.43,-58.48C107.22,-62.87 126.93,-68.01 144.74,-72.66"/>
<polygon fill="#63b8ff" stroke="#63b8ff" points="143.8,-76.03 154.36,-75.17 145.57,-69.26 143.8,-76.03"/>
</a>
</g>
</g>
<!-- Node4 -->
<g id="Node000004" class="node">
<title>Node4</title>
<g id="a_Node000004"><a xlink:href="$class_iterator_list.html#a4acf162e4a194bddd3c2fe26b073f45a" xlink:title=" ">
<polygon fill="white" stroke="#666666" points="259.25,-58 134.5,-58 134.5,-38 259.25,-38 259.25,-58"/>
<text text-anchor="middle" x="196.88" y="-44.5" font-family="Helvetica,sans-Serif" font-size="10.00">IteratorList::currentToken</text>
</a>
</g>
</g>
<!-- Node1&#45;&gt;Node4 -->
<g id="edge7_Node000001_Node000004" class="edge">
<title>Node1&#45;&gt;Node4</title>
<g id="a_edge7_Node000001_Node000004"><a xlink:title=" ">
<path fill="none" stroke="#63b8ff" d="M98.74,-48C106.45,-48 114.56,-48 122.68,-48"/>
<polygon fill="#63b8ff" stroke="#63b8ff" points="122.61,-51.5 132.61,-48 122.61,-44.5 122.61,-51.5"/>
</a>
</g>
</g>
<!-- Node5 -->
<g id="Node000005" class="node">
<title>Node5</title>
<g id="a_Node000005"><a xlink:href="$class_iterator_list.html#a2ebc1118094754b7d333b0a9d257d12b" xlink:title=" ">
<polygon fill="white" stroke="#666666" points="244.25,-20 149.5,-20 149.5,0 244.25,0 244.25,-20"/>
<text text-anchor="middle" x="196.88" y="-6.5" font-family="Helvetica,sans-Serif" font-size="10.00">IteratorList::ended</text>
</a>
</g>
</g>
<!-- Node1&#45;&gt;Node5 -->
<g id="edge8_Node000001_Node000005" class="edge">
<title>Node1&#45;&gt;Node5</title>
<g id="a_edge8_Node000001_Node000005"><a xlink:title=" ">
<path fill="none" stroke="#63b8ff" d="M90.43,-37.52C107.22,-33.13 126.93,-27.99 144.74,-23.34"/>
<polygon fill="#63b8ff" stroke="#63b8ff" points="145.57,-26.74 154.36,-20.83 143.8,-19.97 145.57,-26.74"/>
</a>
</g>
</g>
<!-- Node3 -->
<g id="Node000003" class="node">
<title>Node3</title>
<g id="a_Node000003"><a xlink:href="$class_token_result.html#af997915a62dcb5643b9d61b78a22c9f4" xlink:title=" ">
<polygon fill="white" stroke="#666666" points="408.75,-96 295.25,-96 295.25,-76 408.75,-76 408.75,-96"/>
<text text-anchor="middle" x="352" y="-82.5" font-family="Helvetica,sans-Serif" font-size="10.00">TokenResult::addError</text>
</a>
</g>
</g>
<!-- Node2&#45;&gt;Node3 -->
<g id="edge6_Node000002_Node000003" class="edge">
<title>Node2&#45;&gt;Node3</title>
<g id="a_edge6_Node000002_Node000003"><a xlink:title=" ">
<path fill="none" stroke="#63b8ff" d="M239.72,-86C253.27,-86 268.65,-86 283.57,-86"/>
<polygon fill="#63b8ff" stroke="#63b8ff" points="283.34,-89.5 293.34,-86 283.34,-82.5 283.34,-89.5"/>
</a>
</g>
</g>
</g>
</svg>
