<?xml version="1.0" encoding="UTF-8" standalone="no"?>
<!DOCTYPE svg PUBLIC "-//W3C//DTD SVG 1.1//EN"
 "http://www.w3.org/Graphics/SVG/1.1/DTD/svg11.dtd">
<!-- Generated by graphviz version 12.2.0 (20241103.1931)
 -->
<!-- Title: FlowToken::addNestedTokens Pages: 1 -->
<svg width="466pt" height="142pt"
 viewBox="0.00 0.00 466.25 142.00" xmlns="http://www.w3.org/2000/svg" xmlns:xlink="http://www.w3.org/1999/xlink">
<g id="graph0" class="graph" transform="scale(1 1) rotate(0) translate(4 138)">
<title>FlowToken::addNestedTokens</title>
<!-- Node1 -->
<g id="Node000001" class="node">
<title>Node1</title>
<g id="a_Node000001"><a xlink:title=" ">
<polygon fill="#999999" stroke="#666666" points="148,-77 0,-77 0,-57 148,-57 148,-77"/>
<text text-anchor="middle" x="74" y="-63.5" font-family="Helvetica,sans-Serif" font-size="10.00">FlowToken::addNestedTokens</text>
</a>
</g>
</g>
<!-- Node2 -->
<g id="Node000002" class="node">
<title>Node2</title>
<g id="a_Node000002"><a xlink:href="$class_flow_token.html#a1bbf1118c555638aca5acb0e758f8c87" xlink:title=" ">
<polygon fill="white" stroke="#666666" points="295.25,-134 197.5,-134 197.5,-114 295.25,-114 295.25,-134"/>
<text text-anchor="middle" x="246.38" y="-120.5" font-family="Helvetica,sans-Serif" font-size="10.00">FlowToken::addCb</text>
</a>
</g>
</g>
<!-- Node1&#45;&gt;Node2 -->
<g id="edge7_Node000001_Node000002" class="edge">
<title>Node1&#45;&gt;Node2</title>
<g id="a_edge7_Node000001_Node000002"><a xlink:title=" ">
<path fill="none" stroke="#63b8ff" d="M104.05,-77.44C125.96,-85.24 156.78,-96.04 184,-105 189.16,-106.7 194.58,-108.44 199.96,-110.14"/>
<polygon fill="#63b8ff" stroke="#63b8ff" points="198.87,-113.46 209.45,-113.11 200.96,-106.78 198.87,-113.46"/>
</a>
</g>
</g>
<!-- Node4 -->
<g id="Node000004" class="node">
<title>Node4</title>
<g id="a_Node000004"><a xlink:href="$class_flow_token.html#a3a3cb964ee95cd5e565a009e4d6aabca" xlink:title=" ">
<polygon fill="white" stroke="#666666" points="299.38,-96 193.38,-96 193.38,-76 299.38,-76 299.38,-96"/>
<text text-anchor="middle" x="246.38" y="-82.5" font-family="Helvetica,sans-Serif" font-size="10.00">FlowToken::addError</text>
</a>
</g>
</g>
<!-- Node1&#45;&gt;Node4 -->
<g id="edge9_Node000001_Node000004" class="edge">
<title>Node1&#45;&gt;Node4</title>
<g id="a_edge9_Node000001_Node000004"><a xlink:title=" ">
<path fill="none" stroke="#63b8ff" d="M148.24,-75.17C159.42,-76.41 170.88,-77.69 181.83,-78.91"/>
<polygon fill="#63b8ff" stroke="#63b8ff" points="181.19,-82.36 191.51,-79.99 181.96,-75.41 181.19,-82.36"/>
</a>
</g>
</g>
<!-- Node6 -->
<g id="Node000006" class="node">
<title>Node6</title>
<g id="a_Node000006"><a xlink:href="$class_iterator_list.html#a4acf162e4a194bddd3c2fe26b073f45a" xlink:title=" ">
<polygon fill="white" stroke="#666666" points="308.75,-58 184,-58 184,-38 308.75,-38 308.75,-58"/>
<text text-anchor="middle" x="246.38" y="-44.5" font-family="Helvetica,sans-Serif" font-size="10.00">IteratorList::currentToken</text>
</a>
</g>
</g>
<!-- Node1&#45;&gt;Node6 -->
<g id="edge11_Node000001_Node000006" class="edge">
<title>Node1&#45;&gt;Node6</title>
<g id="a_edge11_Node000001_Node000006"><a xlink:title=" ">
<path fill="none" stroke="#63b8ff" d="M148.24,-58.83C156.27,-57.94 164.45,-57.02 172.47,-56.13"/>
<polygon fill="#63b8ff" stroke="#63b8ff" points="172.64,-59.63 182.19,-55.05 171.86,-52.68 172.64,-59.63"/>
</a>
</g>
</g>
<!-- Node7 -->
<g id="Node000007" class="node">
<title>Node7</title>
<g id="a_Node000007"><a xlink:href="$class_iterator_list.html#a2ebc1118094754b7d333b0a9d257d12b" xlink:title=" ">
<polygon fill="white" stroke="#666666" points="293.75,-20 199,-20 199,0 293.75,0 293.75,-20"/>
<text text-anchor="middle" x="246.38" y="-6.5" font-family="Helvetica,sans-Serif" font-size="10.00">IteratorList::ended</text>
</a>
</g>
</g>
<!-- Node1&#45;&gt;Node7 -->
<g id="edge12_Node000001_Node000007" class="edge">
<title>Node1&#45;&gt;Node7</title>
<g id="a_edge12_Node000001_Node000007"><a xlink:title=" ">
<path fill="none" stroke="#63b8ff" d="M104.05,-56.56C125.96,-48.76 156.78,-37.96 184,-29 189.16,-27.3 194.58,-25.56 199.96,-23.86"/>
<polygon fill="#63b8ff" stroke="#63b8ff" points="200.96,-27.22 209.45,-20.89 198.87,-20.54 200.96,-27.22"/>
</a>
</g>
</g>
<!-- Node3 -->
<g id="Node000003" class="node">
<title>Node3</title>
<g id="a_Node000003"><a xlink:href="$class_flow_token.html#adca9213b63d564c72ec40a97f0af8210" xlink:title=" ">
<polygon fill="white" stroke="#666666" points="457.12,-134 345.88,-134 345.88,-114 457.12,-114 457.12,-134"/>
<text text-anchor="middle" x="401.5" y="-120.5" font-family="Helvetica,sans-Serif" font-size="10.00">FlowToken::addToken</text>
</a>
</g>
</g>
<!-- Node2&#45;&gt;Node3 -->
<g id="edge8_Node000002_Node000003" class="edge">
<title>Node2&#45;&gt;Node3</title>
<g id="a_edge8_Node000002_Node000003"><a xlink:title=" ">
<path fill="none" stroke="#63b8ff" d="M295.4,-124C307.68,-124 321.1,-124 334.12,-124"/>
<polygon fill="#63b8ff" stroke="#63b8ff" points="333.91,-127.5 343.91,-124 333.91,-120.5 333.91,-127.5"/>
</a>
</g>
</g>
<!-- Node5 -->
<g id="Node000005" class="node">
<title>Node5</title>
<g id="a_Node000005"><a xlink:href="$class_token_result.html#af997915a62dcb5643b9d61b78a22c9f4" xlink:title=" ">
<polygon fill="white" stroke="#666666" points="458.25,-96 344.75,-96 344.75,-76 458.25,-76 458.25,-96"/>
<text text-anchor="middle" x="401.5" y="-82.5" font-family="Helvetica,sans-Serif" font-size="10.00">TokenResult::addError</text>
</a>
</g>
</g>
<!-- Node4&#45;&gt;Node5 -->
<g id="edge10_Node000004_Node000005" class="edge">
<title>Node4&#45;&gt;Node5</title>
<g id="a_edge10_Node000004_Node000005"><a xlink:title=" ">
<path fill="none" stroke="#63b8ff" d="M299.64,-86C310.32,-86 321.69,-86 332.82,-86"/>
<polygon fill="#63b8ff" stroke="#63b8ff" points="332.76,-89.5 342.76,-86 332.76,-82.5 332.76,-89.5"/>
</a>
</g>
</g>
</g>
</svg>
