<?xml version="1.0" encoding="UTF-8" standalone="no"?>
<!DOCTYPE svg PUBLIC "-//W3C//DTD SVG 1.1//EN"
 "http://www.w3.org/Graphics/SVG/1.1/DTD/svg11.dtd">
<!-- Generated by graphviz version 12.2.0 (20241103.1931)
 -->
<!-- Title: BotConfig::readInt Pages: 1 -->
<svg width="893pt" height="160pt"
 viewBox="0.00 0.00 892.50 160.00" xmlns="http://www.w3.org/2000/svg" xmlns:xlink="http://www.w3.org/1999/xlink">
<g id="graph0" class="graph" transform="scale(1 1) rotate(0) translate(4 156)">
<title>BotConfig::readInt</title>
<!-- Node1 -->
<g id="Node000001" class="node">
<title>Node1</title>
<g id="a_Node000001"><a xlink:title=" ">
<polygon fill="#999999" stroke="#666666" points="95.5,-58 0,-58 0,-38 95.5,-38 95.5,-58"/>
<text text-anchor="middle" x="47.75" y="-44.5" font-family="Helvetica,sans-Serif" font-size="10.00">BotConfig::readInt</text>
</a>
</g>
</g>
<!-- Node2 -->
<g id="Node000002" class="node">
<title>Node2</title>
<g id="a_Node000002"><a xlink:href="$class_bot_config.html#a623d05e4d8e0122d35b1a3e391fc2464" xlink:title=" ">
<polygon fill="white" stroke="#666666" points="241.25,-58 131.5,-58 131.5,-38 241.25,-38 241.25,-58"/>
<text text-anchor="middle" x="186.38" y="-44.5" font-family="Helvetica,sans-Serif" font-size="10.00">BotConfig::readString</text>
</a>
</g>
</g>
<!-- Node1&#45;&gt;Node2 -->
<g id="edge17_Node000001_Node000002" class="edge">
<title>Node1&#45;&gt;Node2</title>
<g id="a_edge17_Node000001_Node000002"><a xlink:title=" ">
<path fill="none" stroke="#63b8ff" d="M95.77,-48C103.53,-48 111.71,-48 119.83,-48"/>
<polygon fill="#63b8ff" stroke="#63b8ff" points="119.71,-51.5 129.71,-48 119.71,-44.5 119.71,-51.5"/>
</a>
</g>
</g>
<!-- Node3 -->
<g id="Node000003" class="node">
<title>Node3</title>
<g id="a_Node000003"><a xlink:href="$_text_manager_8cpp.html#a85a282af68cca7cf7d69487d1bacdc47" xlink:title=" ">
<polygon fill="white" stroke="#666666" points="495.62,-96 411.38,-96 411.38,-76 495.62,-76 495.62,-96"/>
<text text-anchor="middle" x="453.5" y="-82.5" font-family="Helvetica,sans-Serif" font-size="10.00">extractBetween</text>
</a>
</g>
</g>
<!-- Node2&#45;&gt;Node3 -->
<g id="edge18_Node000002_Node000003" class="edge">
<title>Node2&#45;&gt;Node3</title>
<g id="a_edge18_Node000002_Node000003"><a xlink:title=" ">
<path fill="none" stroke="#63b8ff" d="M232.47,-58.46C246.74,-61.52 262.6,-64.66 277.25,-67 318.11,-73.52 364.7,-78.45 399.57,-81.66"/>
<polygon fill="#63b8ff" stroke="#63b8ff" points="399.13,-85.13 409.41,-82.54 399.76,-78.16 399.13,-85.13"/>
</a>
</g>
</g>
<!-- Node9 -->
<g id="Node000009" class="node">
<title>Node9</title>
<g id="a_Node000009"><a xlink:href="$_text_manager_8cpp.html#add36cc54cd9616a393a17b8961491477" xlink:title=" ">
<polygon fill="white" stroke="#666666" points="357,-20 277.25,-20 277.25,0 357,0 357,-20"/>
<text text-anchor="middle" x="317.12" y="-6.5" font-family="Helvetica,sans-Serif" font-size="10.00">getFileContent</text>
</a>
</g>
</g>
<!-- Node2&#45;&gt;Node9 -->
<g id="edge27_Node000002_Node000009" class="edge">
<title>Node2&#45;&gt;Node9</title>
<g id="a_edge27_Node000002_Node000009"><a xlink:title=" ">
<path fill="none" stroke="#63b8ff" d="M222.9,-37.52C237.39,-33.24 254.35,-28.23 269.79,-23.67"/>
<polygon fill="#63b8ff" stroke="#63b8ff" points="270.67,-27.07 279.27,-20.88 268.69,-20.35 270.67,-27.07"/>
</a>
</g>
</g>
<!-- Node10 -->
<g id="Node000010" class="node">
<title>Node10</title>
<g id="a_Node000010"><a xlink:href="$_text_manager_8cpp.html#af24bee60aa1d3d5b4ae3bf6ebd267ecd" xlink:title=" ">
<polygon fill="white" stroke="#666666" points="340.88,-58 293.38,-58 293.38,-38 340.88,-38 340.88,-58"/>
<text text-anchor="middle" x="317.12" y="-44.5" font-family="Helvetica,sans-Serif" font-size="10.00">getLine</text>
</a>
</g>
</g>
<!-- Node2&#45;&gt;Node10 -->
<g id="edge28_Node000002_Node000010" class="edge">
<title>Node2&#45;&gt;Node10</title>
<g id="a_edge28_Node000002_Node000010"><a xlink:title=" ">
<path fill="none" stroke="#63b8ff" d="M241.6,-48C255.25,-48 269.52,-48 281.87,-48"/>
<polygon fill="#63b8ff" stroke="#63b8ff" points="281.54,-51.5 291.54,-48 281.54,-44.5 281.54,-51.5"/>
</a>
</g>
</g>
<!-- Node4 -->
<g id="Node000004" class="node">
<title>Node4</title>
<g id="a_Node000004"><a xlink:href="$_text_manager_8cpp.html#a6956d58559ef67f422247fdeb1c22775" xlink:title=" ">
<polygon fill="white" stroke="#666666" points="629.75,-96 553.75,-96 553.75,-76 629.75,-76 629.75,-96"/>
<text text-anchor="middle" x="591.75" y="-82.5" font-family="Helvetica,sans-Serif" font-size="10.00">getStringAfter</text>
</a>
</g>
</g>
<!-- Node3&#45;&gt;Node4 -->
<g id="edge19_Node000003_Node000004" class="edge">
<title>Node3&#45;&gt;Node4</title>
<g id="a_edge19_Node000003_Node000004"><a xlink:title=" ">
<path fill="none" stroke="#63b8ff" d="M496.12,-86C510.71,-86 527.23,-86 542.33,-86"/>
<polygon fill="#63b8ff" stroke="#63b8ff" points="542.03,-89.5 552.03,-86 542.03,-82.5 542.03,-89.5"/>
</a>
</g>
</g>
<!-- Node8 -->
<g id="Node000008" class="node">
<title>Node8</title>
<g id="a_Node000008"><a xlink:href="$_text_manager_8cpp.html#aff8311b88dbf5f3091f3ac1262543242" xlink:title=" ">
<polygon fill="white" stroke="#666666" points="633.5,-58 550,-58 550,-38 633.5,-38 633.5,-58"/>
<text text-anchor="middle" x="591.75" y="-44.5" font-family="Helvetica,sans-Serif" font-size="10.00">getStringBefore</text>
</a>
</g>
</g>
<!-- Node3&#45;&gt;Node8 -->
<g id="edge25_Node000003_Node000008" class="edge">
<title>Node3&#45;&gt;Node8</title>
<g id="a_edge25_Node000003_Node000008"><a xlink:title=" ">
<path fill="none" stroke="#63b8ff" d="M492.09,-75.52C507.58,-71.2 525.72,-66.14 542.2,-61.54"/>
<polygon fill="#63b8ff" stroke="#63b8ff" points="543.13,-64.91 551.82,-58.86 541.25,-58.17 543.13,-64.91"/>
</a>
</g>
</g>
<!-- Node5 -->
<g id="Node000005" class="node">
<title>Node5</title>
<g id="a_Node000005"><a xlink:href="$_text_manager_8cpp.html#a5b66873abcff2faee361721f86b65dd0" xlink:title=" ">
<polygon fill="white" stroke="#666666" points="747.75,-96 680,-96 680,-76 747.75,-76 747.75,-96"/>
<text text-anchor="middle" x="713.88" y="-82.5" font-family="Helvetica,sans-Serif" font-size="10.00">getPosAfter</text>
</a>
</g>
</g>
<!-- Node4&#45;&gt;Node5 -->
<g id="edge20_Node000004_Node000005" class="edge">
<title>Node4&#45;&gt;Node5</title>
<g id="a_edge20_Node000004_Node000005"><a xlink:title=" ">
<path fill="none" stroke="#63b8ff" d="M630.1,-86C642.23,-86 655.8,-86 668.4,-86"/>
<polygon fill="#63b8ff" stroke="#63b8ff" points="668.11,-89.5 678.11,-86 668.11,-82.5 668.11,-89.5"/>
</a>
</g>
</g>
<!-- Node7 -->
<g id="Node000007" class="node">
<title>Node7</title>
<g id="a_Node000007"><a xlink:href="$_text_manager_8cpp.html#a2946b90fb3df56b0a74d53eb4160f4e2" xlink:title=" ">
<polygon fill="white" stroke="#666666" points="758.25,-134 669.5,-134 669.5,-114 758.25,-114 758.25,-134"/>
<text text-anchor="middle" x="713.88" y="-120.5" font-family="Helvetica,sans-Serif" font-size="10.00">getStringStarting</text>
</a>
</g>
</g>
<!-- Node4&#45;&gt;Node7 -->
<g id="edge22_Node000004_Node000007" class="edge">
<title>Node4&#45;&gt;Node7</title>
<g id="a_edge22_Node000004_Node000007"><a xlink:title=" ">
<path fill="none" stroke="#63b8ff" d="M625.89,-96.48C639.28,-100.72 654.93,-105.67 669.23,-110.19"/>
<polygon fill="#63b8ff" stroke="#63b8ff" points="667.81,-113.41 678.4,-113.09 669.92,-106.74 667.81,-113.41"/>
</a>
</g>
</g>
<!-- Node6 -->
<g id="Node000006" class="node">
<title>Node6</title>
<g id="a_Node000006"><a xlink:href="$_text_manager_8cpp.html#a3f4afb2b62acd297e783a22ffa9a7000" xlink:title=" ">
<polygon fill="white" stroke="#666666" points="884.5,-96 794.25,-96 794.25,-76 884.5,-76 884.5,-96"/>
<text text-anchor="middle" x="839.38" y="-82.5" font-family="Helvetica,sans-Serif" font-size="10.00">getSequencePos</text>
</a>
</g>
</g>
<!-- Node5&#45;&gt;Node6 -->
<g id="edge21_Node000005_Node000006" class="edge">
<title>Node5&#45;&gt;Node6</title>
<g id="a_edge21_Node000005_Node000006"><a xlink:title=" ">
<path fill="none" stroke="#63b8ff" d="M747.97,-86C758.69,-86 770.89,-86 782.79,-86"/>
<polygon fill="#63b8ff" stroke="#63b8ff" points="782.52,-89.5 792.52,-86 782.52,-82.5 782.52,-89.5"/>
</a>
</g>
</g>
<!-- Node7&#45;&gt;Node6 -->
<g id="edge23_Node000007_Node000006" class="edge">
<title>Node7&#45;&gt;Node6</title>
<g id="a_edge23_Node000007_Node000006"><a xlink:title=" ">
<path fill="none" stroke="#63b8ff" d="M748.95,-113.52C762.72,-109.28 778.8,-104.33 793.5,-99.81"/>
<polygon fill="#63b8ff" stroke="#63b8ff" points="794.44,-103.18 802.97,-96.9 792.38,-96.49 794.44,-103.18"/>
</a>
</g>
</g>
<!-- Node7&#45;&gt;Node7 -->
<g id="edge24_Node000007_Node000007" class="edge">
<title>Node7&#45;&gt;Node7</title>
<g id="a_edge24_Node000007_Node000007"><a xlink:title=" ">
<path fill="none" stroke="#63b8ff" d="M694.47,-134.34C686.18,-142.98 692.65,-152 713.88,-152 725.48,-152 732.68,-149.3 735.46,-145.44"/>
<polygon fill="#63b8ff" stroke="#63b8ff" points="738.93,-144.96 733.57,-135.82 732.06,-146.31 738.93,-144.96"/>
</a>
</g>
</g>
<!-- Node8&#45;&gt;Node6 -->
<g id="edge26_Node000008_Node000006" class="edge">
<title>Node8&#45;&gt;Node6</title>
<g id="a_edge26_Node000008_Node000006"><a xlink:title=" ">
<path fill="none" stroke="#63b8ff" d="M633.75,-51.34C667.36,-54.41 716.09,-59.61 758.25,-67 767.76,-68.67 777.84,-70.78 787.51,-72.98"/>
<polygon fill="#63b8ff" stroke="#63b8ff" points="786.62,-76.37 797.15,-75.25 788.22,-69.55 786.62,-76.37"/>
</a>
</g>
</g>
<!-- Node10&#45;&gt;Node3 -->
<g id="edge29_Node000010_Node000003" class="edge">
<title>Node10&#45;&gt;Node3</title>
<g id="a_edge29_Node000010_Node000003"><a xlink:title=" ">
<path fill="none" stroke="#63b8ff" d="M341.22,-54.53C358.61,-59.45 383.03,-66.36 404.58,-72.45"/>
<polygon fill="#63b8ff" stroke="#63b8ff" points="403.49,-75.78 414.07,-75.13 405.4,-69.04 403.49,-75.78"/>
</a>
</g>
</g>
<!-- Node11 -->
<g id="Node000011" class="node">
<title>Node11</title>
<g id="a_Node000011"><a xlink:href="$_text_manager_8cpp.html#a84a9e24fc5cce3cebf746bb656909bf8" xlink:title=" ">
<polygon fill="white" stroke="#666666" points="514,-58 393,-58 393,-38 514,-38 514,-58"/>
<text text-anchor="middle" x="453.5" y="-44.5" font-family="Helvetica,sans-Serif" font-size="10.00">extractBetweenReverse</text>
</a>
</g>
</g>
<!-- Node10&#45;&gt;Node11 -->
<g id="edge30_Node000010_Node000011" class="edge">
<title>Node10&#45;&gt;Node11</title>
<g id="a_edge30_Node000010_Node000011"><a xlink:title=" ">
<path fill="none" stroke="#63b8ff" d="M341.22,-48C352.59,-48 366.96,-48 381.57,-48"/>
<polygon fill="#63b8ff" stroke="#63b8ff" points="381.23,-51.5 391.23,-48 381.23,-44.5 381.23,-51.5"/>
</a>
</g>
</g>
<!-- Node11&#45;&gt;Node4 -->
<g id="edge31_Node000011_Node000004" class="edge">
<title>Node11&#45;&gt;Node4</title>
<g id="a_edge31_Node000011_Node000004"><a xlink:title=" ">
<path fill="none" stroke="#63b8ff" d="M492.09,-58.48C507.58,-62.8 525.72,-67.86 542.2,-72.46"/>
<polygon fill="#63b8ff" stroke="#63b8ff" points="541.25,-75.83 551.82,-75.14 543.13,-69.09 541.25,-75.83"/>
</a>
</g>
</g>
<!-- Node11&#45;&gt;Node8 -->
<g id="edge32_Node000011_Node000008" class="edge">
<title>Node11&#45;&gt;Node8</title>
<g id="a_edge32_Node000011_Node000008"><a xlink:title=" ">
<path fill="none" stroke="#63b8ff" d="M514.26,-48C522.33,-48 530.56,-48 538.49,-48"/>
<polygon fill="#63b8ff" stroke="#63b8ff" points="538.32,-51.5 548.32,-48 538.32,-44.5 538.32,-51.5"/>
</a>
</g>
</g>
</g>
</svg>
