<?xml version="1.0" encoding="UTF-8" standalone="no"?>
<!DOCTYPE svg PUBLIC "-//W3C//DTD SVG 1.1//EN"
 "http://www.w3.org/Graphics/SVG/1.1/DTD/svg11.dtd">
<!-- Generated by graphviz version 12.2.0 (20241103.1931)
 -->
<!-- Title: Interactions::fCompareOneTemplateA Pages: 1 -->
<svg width="1116pt" height="405pt"
 viewBox="0.00 0.00 1115.50 405.00" xmlns="http://www.w3.org/2000/svg" xmlns:xlink="http://www.w3.org/1999/xlink">
<g id="graph0" class="graph" transform="scale(1 1) rotate(0) translate(4 401)">
<title>Interactions::fCompareOneTemplateA</title>
<!-- Node1 -->
<g id="Node000001" class="node">
<title>Node1</title>
<g id="a_Node000001"><a xlink:title=" ">
<polygon fill="#999999" stroke="#666666" points="133.75,-102 0,-102 0,-70 133.75,-70 133.75,-102"/>
<text text-anchor="start" x="8" y="-88.5" font-family="Helvetica,sans-Serif" font-size="10.00">Interactions::fCompareOne</text>
<text text-anchor="middle" x="66.88" y="-76.5" font-family="Helvetica,sans-Serif" font-size="10.00">TemplateA</text>
</a>
</g>
</g>
<!-- Node2 -->
<g id="Node000002" class="node">
<title>Node2</title>
<g id="a_Node000002"><a xlink:href="$fopencv_8cpp.html#a4b7f4310e3f3a9227fa4b12401c3a94b" xlink:title=" ">
<polygon fill="white" stroke="#666666" points="308,-218 169.75,-218 169.75,-198 308,-198 308,-218"/>
<text text-anchor="middle" x="238.88" y="-204.5" font-family="Helvetica,sans-Serif" font-size="10.00">cvmtfCompareOneTemplate</text>
</a>
</g>
</g>
<!-- Node1&#45;&gt;Node2 -->
<g id="edge37_Node000001_Node000002" class="edge">
<title>Node1&#45;&gt;Node2</title>
<g id="a_edge37_Node000001_Node000002"><a xlink:title=" ">
<path fill="none" stroke="#63b8ff" d="M90.8,-102.45C123,-125.56 181.32,-167.41 214.01,-190.88"/>
<polygon fill="#63b8ff" stroke="#63b8ff" points="211.89,-193.66 222.05,-196.64 215.97,-187.97 211.89,-193.66"/>
</a>
</g>
</g>
<!-- Node13 -->
<g id="Node000013" class="node">
<title>Node13</title>
<g id="a_Node000013"><a xlink:href="$class_interactions.html#a5b5af2b125ff152043789cfcf70ffb2b" xlink:title=" ">
<polygon fill="white" stroke="#666666" points="302,-58 175.75,-58 175.75,-38 302,-38 302,-58"/>
<text text-anchor="middle" x="238.88" y="-44.5" font-family="Helvetica,sans-Serif" font-size="10.00">Interactions::getTemplate</text>
</a>
</g>
</g>
<!-- Node1&#45;&gt;Node13 -->
<g id="edge53_Node000001_Node000013" class="edge">
<title>Node1&#45;&gt;Node13</title>
<g id="a_edge53_Node000001_Node000013"><a xlink:title=" ">
<path fill="none" stroke="#63b8ff" d="M134.09,-71.2C149.24,-67.81 165.24,-64.24 180.01,-60.93"/>
<polygon fill="#63b8ff" stroke="#63b8ff" points="180.56,-64.4 189.56,-58.8 179.04,-57.57 180.56,-64.4"/>
</a>
</g>
</g>
<!-- Node15 -->
<g id="Node000015" class="node">
<title>Node15</title>
<g id="a_Node000015"><a xlink:href="$class_interactions.html#a0a0ffd9ad1990de31fd7b2773db32667" xlink:title=" ">
<polygon fill="white" stroke="#666666" points="299.38,-143 178.38,-143 178.38,-123 299.38,-123 299.38,-143"/>
<text text-anchor="middle" x="238.88" y="-129.5" font-family="Helvetica,sans-Serif" font-size="10.00">Interactions::loopPopUp</text>
</a>
</g>
</g>
<!-- Node1&#45;&gt;Node15 -->
<g id="edge55_Node000001_Node000015" class="edge">
<title>Node1&#45;&gt;Node15</title>
<g id="a_edge55_Node000001_Node000015"><a xlink:title=" ">
<path fill="none" stroke="#63b8ff" d="M127.33,-102.44C147.5,-108.01 169.79,-114.18 189.03,-119.5"/>
<polygon fill="#63b8ff" stroke="#63b8ff" points="187.94,-122.83 198.52,-122.12 189.81,-116.08 187.94,-122.83"/>
</a>
</g>
</g>
<!-- Node27 -->
<g id="Node000027" class="node">
<title>Node27</title>
<g id="a_Node000027"><a xlink:href="$class_interactions.html#ade7f52c59105f434650b9358b22e5488" xlink:title=" ">
<polygon fill="white" stroke="#666666" points="299.38,-20 178.38,-20 178.38,0 299.38,0 299.38,-20"/>
<text text-anchor="middle" x="238.88" y="-6.5" font-family="Helvetica,sans-Serif" font-size="10.00">Interactions::resetCount</text>
</a>
</g>
</g>
<!-- Node1&#45;&gt;Node27 -->
<g id="edge69_Node000001_Node000027" class="edge">
<title>Node1&#45;&gt;Node27</title>
<g id="a_edge69_Node000001_Node000027"><a xlink:title=" ">
<path fill="none" stroke="#63b8ff" d="M92.99,-69.72C113.11,-57.23 142.39,-40.28 169.75,-29 174.28,-27.13 179.05,-25.39 183.88,-23.77"/>
<polygon fill="#63b8ff" stroke="#63b8ff" points="184.54,-27.23 193.02,-20.89 182.43,-20.55 184.54,-27.23"/>
</a>
</g>
</g>
<!-- Node28 -->
<g id="Node000028" class="node">
<title>Node28</title>
<g id="a_Node000028"><a xlink:href="$class_interactions.html#ad7daddd9df3cea80e69872b8afd6c8dc" xlink:title=" ">
<polygon fill="white" stroke="#666666" points="489.75,-86 352.25,-86 352.25,-66 489.75,-66 489.75,-86"/>
<text text-anchor="middle" x="421" y="-72.5" font-family="Helvetica,sans-Serif" font-size="10.00">Interactions::templateFound</text>
</a>
</g>
</g>
<!-- Node1&#45;&gt;Node28 -->
<g id="edge70_Node000001_Node000028" class="edge">
<title>Node1&#45;&gt;Node28</title>
<g id="a_edge70_Node000001_Node000028"><a xlink:title=" ">
<path fill="none" stroke="#63b8ff" d="M134.11,-84.12C192.72,-82.45 278.36,-80.02 340.62,-78.25"/>
<polygon fill="#63b8ff" stroke="#63b8ff" points="340.56,-81.76 350.45,-77.98 340.36,-74.76 340.56,-81.76"/>
</a>
</g>
</g>
<!-- Node3 -->
<g id="Node000003" class="node">
<title>Node3</title>
<g id="a_Node000003"><a xlink:href="$fopencv_8cpp.html#ade157d547c93a4a6c0c6395cbcd15e10" xlink:title=" ">
<polygon fill="white" stroke="#666666" points="498,-256 344,-256 344,-236 498,-236 498,-256"/>
<text text-anchor="middle" x="421" y="-242.5" font-family="Helvetica,sans-Serif" font-size="10.00">cvmtfCompareMultipleTemplate</text>
</a>
</g>
</g>
<!-- Node2&#45;&gt;Node3 -->
<g id="edge38_Node000002_Node000003" class="edge">
<title>Node2&#45;&gt;Node3</title>
<g id="a_edge38_Node000002_Node000003"><a xlink:title=" ">
<path fill="none" stroke="#63b8ff" d="M289.57,-218.48C311.13,-223.03 336.58,-228.4 359.25,-233.18"/>
<polygon fill="#63b8ff" stroke="#63b8ff" points="358.48,-236.6 368.98,-235.24 359.92,-229.75 358.48,-236.6"/>
</a>
</g>
</g>
<!-- Node4 -->
<g id="Node000004" class="node">
<title>Node4</title>
<g id="a_Node000004"><a xlink:href="$fopencv_8cpp.html#a95c56af5716e2b2d1b4df612796cc229" xlink:title=" ">
<polygon fill="white" stroke="#666666" points="648.25,-313 534,-313 534,-293 648.25,-293 648.25,-313"/>
<text text-anchor="middle" x="591.12" y="-299.5" font-family="Helvetica,sans-Serif" font-size="10.00">cvmtfMultipleTemplate</text>
</a>
</g>
</g>
<!-- Node3&#45;&gt;Node4 -->
<g id="edge39_Node000003_Node000004" class="edge">
<title>Node3&#45;&gt;Node4</title>
<g id="a_edge39_Node000003_Node000004"><a xlink:title=" ">
<path fill="none" stroke="#63b8ff" d="M452.84,-256.45C479.65,-265.55 518.74,-278.8 548.36,-288.84"/>
<polygon fill="#63b8ff" stroke="#63b8ff" points="547.17,-292.13 557.77,-292.03 549.42,-285.5 547.17,-292.13"/>
</a>
</g>
</g>
<!-- Node9 -->
<g id="Node000009" class="node">
<title>Node9</title>
<g id="a_Node000009"><a xlink:href="$fopencv_8cpp.html#a6abdcaeee06b3da6f210daf0162bcd01" xlink:title=" ">
<polygon fill="white" stroke="#666666" points="902.62,-379 843.88,-379 843.88,-359 902.62,-359 902.62,-379"/>
<text text-anchor="middle" x="873.25" y="-365.5" font-family="Helvetica,sans-Serif" font-size="10.00">intersects</text>
</a>
</g>
</g>
<!-- Node3&#45;&gt;Node9 -->
<g id="edge51_Node000003_Node000009" class="edge">
<title>Node3&#45;&gt;Node9</title>
<g id="a_edge51_Node000003_Node000009"><a xlink:title=" ">
<path fill="none" stroke="#63b8ff" d="M434.68,-256.46C454.68,-272.5 495.27,-303.31 534,-322 597.01,-352.41 615.08,-358.43 684.25,-369 734.83,-376.73 793.97,-374.99 832.22,-372.48"/>
<polygon fill="#63b8ff" stroke="#63b8ff" points="832.14,-376 841.87,-371.8 831.65,-369.01 832.14,-376"/>
</a>
</g>
</g>
<!-- Node10 -->
<g id="Node000010" class="node">
<title>Node10</title>
<g id="a_Node000010"><a xlink:href="$fopencv_8cpp.html#a69713584f69a121e4ed91918a64448a0" xlink:title=" ">
<polygon fill="white" stroke="#666666" points="631.38,-256 550.88,-256 550.88,-236 631.38,-236 631.38,-256"/>
<text text-anchor="middle" x="591.12" y="-242.5" font-family="Helvetica,sans-Serif" font-size="10.00">cvmtfTemplate</text>
</a>
</g>
</g>
<!-- Node3&#45;&gt;Node10 -->
<g id="edge46_Node000003_Node000010" class="edge">
<title>Node3&#45;&gt;Node10</title>
<g id="a_edge46_Node000003_Node000010"><a xlink:title=" ">
<path fill="none" stroke="#63b8ff" d="M498.19,-246C512.03,-246 526.15,-246 539.04,-246"/>
<polygon fill="#63b8ff" stroke="#63b8ff" points="538.98,-249.5 548.98,-246 538.98,-242.5 538.98,-249.5"/>
</a>
</g>
</g>
<!-- Node11 -->
<g id="Node000011" class="node">
<title>Node11</title>
<g id="a_Node000011"><a xlink:href="$fopencv_8cpp.html#a1ed1ff1a9df2ab889e1423cb11a58c06" xlink:title=" ">
<polygon fill="white" stroke="#666666" points="783.88,-208 701.12,-208 701.12,-188 783.88,-188 783.88,-208"/>
<text text-anchor="middle" x="742.5" y="-194.5" font-family="Helvetica,sans-Serif" font-size="10.00">messageFound</text>
</a>
</g>
</g>
<!-- Node3&#45;&gt;Node11 -->
<g id="edge52_Node000003_Node000011" class="edge">
<title>Node3&#45;&gt;Node11</title>
<g id="a_edge52_Node000003_Node000011"><a xlink:title=" ">
<path fill="none" stroke="#63b8ff" d="M481.82,-235.52C498.68,-232.66 517.04,-229.62 534,-227 586.9,-218.82 647.55,-210.46 689.56,-204.83"/>
<polygon fill="#63b8ff" stroke="#63b8ff" points="689.94,-208.31 699.39,-203.52 689.02,-201.37 689.94,-208.31"/>
</a>
</g>
</g>
<!-- Node5 -->
<g id="Node000005" class="node">
<title>Node5</title>
<g id="a_Node000005"><a xlink:href="$fopencv_8cpp.html#af6fc77188d314c0d5a58888452f9b313" xlink:title=" ">
<polygon fill="white" stroke="#666666" points="776.38,-284 708.62,-284 708.62,-264 776.38,-264 776.38,-284"/>
<text text-anchor="middle" x="742.5" y="-270.5" font-family="Helvetica,sans-Serif" font-size="10.00">extractZone</text>
</a>
</g>
</g>
<!-- Node4&#45;&gt;Node5 -->
<g id="edge40_Node000004_Node000005" class="edge">
<title>Node4&#45;&gt;Node5</title>
<g id="a_edge40_Node000004_Node000005"><a xlink:title=" ">
<path fill="none" stroke="#63b8ff" d="M646.05,-292.53C662.86,-289.27 681.2,-285.71 697.27,-282.59"/>
<polygon fill="#63b8ff" stroke="#63b8ff" points="697.88,-286.03 707.03,-280.69 696.54,-279.16 697.88,-286.03"/>
</a>
</g>
</g>
<!-- Node6 -->
<g id="Node000006" class="node">
<title>Node6</title>
<g id="a_Node000006"><a xlink:href="$struct_zone.html#a5301e7fcf185a5a79c1bf7d7930f4b8a" xlink:title=" ">
<polygon fill="white" stroke="#666666" points="776.75,-322 708.25,-322 708.25,-302 776.75,-302 776.75,-322"/>
<text text-anchor="middle" x="742.5" y="-308.5" font-family="Helvetica,sans-Serif" font-size="10.00">Zone::isNull</text>
</a>
</g>
</g>
<!-- Node4&#45;&gt;Node6 -->
<g id="edge41_Node000004_Node000006" class="edge">
<title>Node4&#45;&gt;Node6</title>
<g id="a_edge41_Node000004_Node000006"><a xlink:title=" ">
<path fill="none" stroke="#63b8ff" d="M648.6,-306.4C664.53,-307.36 681.64,-308.39 696.78,-309.31"/>
<polygon fill="#63b8ff" stroke="#63b8ff" points="696.22,-312.78 706.41,-309.89 696.64,-305.79 696.22,-312.78"/>
</a>
</g>
</g>
<!-- Node8 -->
<g id="Node000008" class="node">
<title>Node8</title>
<g id="a_Node000008"><a xlink:href="$fopencv_8cpp.html#a7521a083566181475d36ee14aad60f1d" xlink:title=" ">
<polygon fill="white" stroke="#666666" points="800.75,-360 684.25,-360 684.25,-340 800.75,-340 800.75,-360"/>
<text text-anchor="middle" x="742.5" y="-346.5" font-family="Helvetica,sans-Serif" font-size="10.00">multipleMatchTemplate</text>
</a>
</g>
</g>
<!-- Node4&#45;&gt;Node8 -->
<g id="edge43_Node000004_Node000008" class="edge">
<title>Node4&#45;&gt;Node8</title>
<g id="a_edge43_Node000004_Node000008"><a xlink:title=" ">
<path fill="none" stroke="#63b8ff" d="M625.28,-313.43C646.48,-320.1 674.22,-328.83 697.29,-336.09"/>
<polygon fill="#63b8ff" stroke="#63b8ff" points="696.15,-339.4 706.74,-339.06 698.25,-332.72 696.15,-339.4"/>
</a>
</g>
</g>
<!-- Node7 -->
<g id="Node000007" class="node">
<title>Node7</title>
<g id="a_Node000007"><a xlink:href="$struct_coord.html#a34c573cd6230e5a532f12ae97e7395e2" xlink:title=" ">
<polygon fill="white" stroke="#666666" points="909.75,-322 836.75,-322 836.75,-302 909.75,-302 909.75,-322"/>
<text text-anchor="middle" x="873.25" y="-308.5" font-family="Helvetica,sans-Serif" font-size="10.00">Coord::isNull</text>
</a>
</g>
</g>
<!-- Node6&#45;&gt;Node7 -->
<g id="edge42_Node000006_Node000007" class="edge">
<title>Node6&#45;&gt;Node7</title>
<g id="a_edge42_Node000006_Node000007"><a xlink:title=" ">
<path fill="none" stroke="#63b8ff" d="M776.99,-312C791.74,-312 809.32,-312 825.35,-312"/>
<polygon fill="#63b8ff" stroke="#63b8ff" points="825.16,-315.5 835.16,-312 825.16,-308.5 825.16,-315.5"/>
</a>
</g>
</g>
<!-- Node8&#45;&gt;Node9 -->
<g id="edge44_Node000008_Node000009" class="edge">
<title>Node8&#45;&gt;Node9</title>
<g id="a_edge44_Node000008_Node000009"><a xlink:title=" ">
<path fill="none" stroke="#63b8ff" d="M801.1,-358.5C811.68,-360.06 822.52,-361.66 832.44,-363.12"/>
<polygon fill="#63b8ff" stroke="#63b8ff" points="831.69,-366.55 842.09,-364.55 832.71,-359.63 831.69,-366.55"/>
</a>
</g>
</g>
<!-- Node9&#45;&gt;Node9 -->
<g id="edge45_Node000009_Node000009" class="edge">
<title>Node9&#45;&gt;Node9</title>
<g id="a_edge45_Node000009_Node000009"><a xlink:title=" ">
<path fill="none" stroke="#63b8ff" d="M856.41,-379.34C849.21,-387.98 854.82,-397 873.25,-397 883.33,-397 889.57,-394.3 891.98,-390.44"/>
<polygon fill="#63b8ff" stroke="#63b8ff" points="895.48,-390.1 890.35,-380.83 888.58,-391.28 895.48,-390.1"/>
</a>
</g>
</g>
<!-- Node10&#45;&gt;Node5 -->
<g id="edge47_Node000010_Node000005" class="edge">
<title>Node10&#45;&gt;Node5</title>
<g id="a_edge47_Node000010_Node000005"><a xlink:title=" ">
<path fill="none" stroke="#63b8ff" d="M631.76,-253.43C651.89,-257.2 676.41,-261.8 697.16,-265.69"/>
<polygon fill="#63b8ff" stroke="#63b8ff" points="696.29,-269.09 706.77,-267.49 697.58,-262.21 696.29,-269.09"/>
</a>
</g>
</g>
<!-- Node10&#45;&gt;Node6 -->
<g id="edge48_Node000010_Node000006" class="edge">
<title>Node10&#45;&gt;Node6</title>
<g id="a_edge48_Node000010_Node000006"><a xlink:title=" ">
<path fill="none" stroke="#63b8ff" d="M610.44,-256.39C628.75,-266.52 657.91,-281.99 684.25,-293 688.37,-294.72 692.71,-296.4 697.08,-298"/>
<polygon fill="#63b8ff" stroke="#63b8ff" points="695.86,-301.28 706.46,-301.29 698.18,-294.68 695.86,-301.28"/>
</a>
</g>
</g>
<!-- Node10&#45;&gt;Node11 -->
<g id="edge49_Node000010_Node000011" class="edge">
<title>Node10&#45;&gt;Node11</title>
<g id="a_edge49_Node000010_Node000011"><a xlink:title=" ">
<path fill="none" stroke="#63b8ff" d="M624.54,-235.58C646.09,-228.66 674.65,-219.48 698.16,-211.93"/>
<polygon fill="#63b8ff" stroke="#63b8ff" points="699,-215.33 707.45,-208.94 696.86,-208.67 699,-215.33"/>
</a>
</g>
</g>
<!-- Node12 -->
<g id="Node000012" class="node">
<title>Node12</title>
<g id="a_Node000012"><a xlink:href="$fopencv_8cpp.html#ae51fd1f3ed39bd8c9b8da4a313d5aeb3" xlink:title=" ">
<polygon fill="white" stroke="#666666" points="791.75,-246 693.25,-246 693.25,-226 791.75,-226 791.75,-246"/>
<text text-anchor="middle" x="742.5" y="-232.5" font-family="Helvetica,sans-Serif" font-size="10.00">oneMatchTemplate</text>
</a>
</g>
</g>
<!-- Node10&#45;&gt;Node12 -->
<g id="edge50_Node000010_Node000012" class="edge">
<title>Node10&#45;&gt;Node12</title>
<g id="a_edge50_Node000010_Node000012"><a xlink:title=" ">
<path fill="none" stroke="#63b8ff" d="M631.76,-243.35C647,-242.33 664.76,-241.14 681.49,-240.02"/>
<polygon fill="#63b8ff" stroke="#63b8ff" points="681.62,-243.52 691.36,-239.36 681.15,-236.53 681.62,-243.52"/>
</a>
</g>
</g>
<!-- Node14 -->
<g id="Node000014" class="node">
<title>Node14</title>
<g id="a_Node000014"><a xlink:href="$struct_template.html#a93d3c6f97592ba09d7819fda3c3296d7" xlink:title=" ">
<polygon fill="white" stroke="#666666" points="469.12,-48 372.88,-48 372.88,-28 469.12,-28 469.12,-48"/>
<text text-anchor="middle" x="421" y="-34.5" font-family="Helvetica,sans-Serif" font-size="10.00">Template::setType</text>
</a>
</g>
</g>
<!-- Node13&#45;&gt;Node14 -->
<g id="edge54_Node000013_Node000014" class="edge">
<title>Node13&#45;&gt;Node14</title>
<g id="a_edge54_Node000013_Node000014"><a xlink:title=" ">
<path fill="none" stroke="#63b8ff" d="M302.37,-44.53C321.39,-43.47 342.22,-42.32 361,-41.28"/>
<polygon fill="#63b8ff" stroke="#63b8ff" points="361.09,-44.78 370.88,-40.73 360.7,-37.79 361.09,-44.78"/>
</a>
</g>
</g>
<!-- Node16 -->
<g id="Node000016" class="node">
<title>Node16</title>
<g id="a_Node000016"><a xlink:href="$fopencv_8cpp.html#a5c455ed716b7fa4c675446fc5b8ba4fb" xlink:title=" ">
<polygon fill="white" stroke="#666666" points="451.88,-124 390.12,-124 390.12,-104 451.88,-104 451.88,-124"/>
<text text-anchor="middle" x="421" y="-110.5" font-family="Helvetica,sans-Serif" font-size="10.00">CreateMat</text>
</a>
</g>
</g>
<!-- Node15&#45;&gt;Node16 -->
<g id="edge56_Node000015_Node000016" class="edge">
<title>Node15&#45;&gt;Node16</title>
<g id="a_edge56_Node000015_Node000016"><a xlink:title=" ">
<path fill="none" stroke="#63b8ff" d="M299.85,-126.67C325.68,-123.95 355.24,-120.83 378.57,-118.37"/>
<polygon fill="#63b8ff" stroke="#63b8ff" points="378.73,-121.87 388.31,-117.34 378,-114.91 378.73,-121.87"/>
</a>
</g>
</g>
<!-- Node17 -->
<g id="Node000017" class="node">
<title>Node17</title>
<g id="a_Node000017"><a xlink:href="$class_interactions.html#aed04f9177d2aba467d71818a5e82c7bc" xlink:title=" ">
<polygon fill="white" stroke="#666666" points="478.12,-162 363.88,-162 363.88,-142 478.12,-142 478.12,-162"/>
<text text-anchor="middle" x="421" y="-148.5" font-family="Helvetica,sans-Serif" font-size="10.00">Interactions::fcpopupA</text>
</a>
</g>
</g>
<!-- Node15&#45;&gt;Node17 -->
<g id="edge57_Node000015_Node000017" class="edge">
<title>Node15&#45;&gt;Node17</title>
<g id="a_edge57_Node000015_Node000017"><a xlink:title=" ">
<path fill="none" stroke="#63b8ff" d="M299.85,-139.33C316.73,-141.11 335.19,-143.05 352.48,-144.88"/>
<polygon fill="#63b8ff" stroke="#63b8ff" points="351.82,-148.33 362.13,-145.9 352.55,-141.37 351.82,-148.33"/>
</a>
</g>
</g>
<!-- Node20 -->
<g id="Node000020" class="node">
<title>Node20</title>
<g id="a_Node000020"><a xlink:href="$fadb_8cpp.html#aeec40a5f78ae4713eedd84cb5f75746f" xlink:title=" ">
<polygon fill="white" stroke="#666666" points="453,-200 389,-200 389,-180 453,-180 453,-200"/>
<text text-anchor="middle" x="421" y="-186.5" font-family="Helvetica,sans-Serif" font-size="10.00">screenshot</text>
</a>
</g>
</g>
<!-- Node15&#45;&gt;Node20 -->
<g id="edge62_Node000015_Node000020" class="edge">
<title>Node15&#45;&gt;Node20</title>
<g id="a_edge62_Node000015_Node000020"><a xlink:title=" ">
<path fill="none" stroke="#63b8ff" d="M266.15,-143.46C287.05,-151.56 317.14,-162.77 344,-171 354.81,-174.31 366.61,-177.48 377.62,-180.24"/>
<polygon fill="#63b8ff" stroke="#63b8ff" points="376.72,-183.62 387.27,-182.61 378.39,-176.83 376.72,-183.62"/>
</a>
</g>
</g>
<!-- Node17&#45;&gt;Node10 -->
<g id="edge60_Node000017_Node000010" class="edge">
<title>Node17&#45;&gt;Node10</title>
<g id="a_edge60_Node000017_Node000010"><a xlink:title=" ">
<path fill="none" stroke="#63b8ff" d="M476.21,-162.43C483.72,-164.76 491.19,-167.59 498,-171 526.9,-185.47 554.93,-210.32 572.34,-227.43"/>
<polygon fill="#63b8ff" stroke="#63b8ff" points="569.82,-229.86 579.35,-234.5 574.79,-224.93 569.82,-229.86"/>
</a>
</g>
</g>
<!-- Node18 -->
<g id="Node000018" class="node">
<title>Node18</title>
<g id="a_Node000018"><a xlink:href="$class_interactions.html#aae6172962092f278714536142e987cde" xlink:title=" ">
<polygon fill="white" stroke="#666666" points="637.75,-124 544.5,-124 544.5,-104 637.75,-104 637.75,-124"/>
<text text-anchor="middle" x="591.12" y="-110.5" font-family="Helvetica,sans-Serif" font-size="10.00">Interactions::click</text>
</a>
</g>
</g>
<!-- Node17&#45;&gt;Node18 -->
<g id="edge58_Node000017_Node000018" class="edge">
<title>Node17&#45;&gt;Node18</title>
<g id="a_edge58_Node000017_Node000018"><a xlink:title=" ">
<path fill="none" stroke="#63b8ff" d="M468.39,-141.52C488.41,-136.99 512.02,-131.65 533.1,-126.89"/>
<polygon fill="#63b8ff" stroke="#63b8ff" points="533.72,-130.34 542.71,-124.72 532.18,-123.51 533.72,-130.34"/>
</a>
</g>
</g>
<!-- Node19 -->
<g id="Node000019" class="node">
<title>Node19</title>
<g id="a_Node000019"><a xlink:href="$class_interactions.html#abd5b5d8a44970e1333e3611e302f166c" xlink:title=" ">
<polygon fill="white" stroke="#666666" points="636.62,-86 545.62,-86 545.62,-66 636.62,-66 636.62,-86"/>
<text text-anchor="middle" x="591.12" y="-72.5" font-family="Helvetica,sans-Serif" font-size="10.00">Interactions::wait</text>
</a>
</g>
</g>
<!-- Node17&#45;&gt;Node19 -->
<g id="edge61_Node000017_Node000019" class="edge">
<title>Node17&#45;&gt;Node19</title>
<g id="a_edge61_Node000017_Node000019"><a xlink:title=" ">
<path fill="none" stroke="#63b8ff" d="M478.23,-141.83C485.13,-139.47 491.89,-136.57 498,-133 518.09,-121.27 514.41,-107.54 534,-95 536.23,-93.57 538.58,-92.24 541,-91"/>
<polygon fill="#63b8ff" stroke="#63b8ff" points="542.18,-94.31 549.86,-87.01 539.31,-87.92 542.18,-94.31"/>
</a>
</g>
</g>
<!-- Node18&#45;&gt;Node18 -->
<g id="edge59_Node000018_Node000018" class="edge">
<title>Node18&#45;&gt;Node18</title>
<g id="a_edge59_Node000018_Node000018"><a xlink:title=" ">
<path fill="none" stroke="#63b8ff" d="M567.07,-124.34C556.79,-132.98 564.81,-142 591.12,-142 605.52,-142 614.43,-139.3 617.88,-135.44"/>
<polygon fill="#63b8ff" stroke="#63b8ff" points="621.3,-134.7 615.53,-125.81 614.5,-136.35 621.3,-134.7"/>
</a>
</g>
</g>
<!-- Node21 -->
<g id="Node000021" class="node">
<title>Node21</title>
<g id="a_Node000021"><a xlink:href="$fadb_8cpp.html#a7ab9819839864ebd26d0e7e68e330418" xlink:title=" ">
<polygon fill="white" stroke="#666666" points="633.25,-180 549,-180 549,-160 633.25,-160 633.25,-180"/>
<text text-anchor="middle" x="591.12" y="-166.5" font-family="Helvetica,sans-Serif" font-size="10.00">takeScreenshot</text>
</a>
</g>
</g>
<!-- Node20&#45;&gt;Node21 -->
<g id="edge63_Node000020_Node000021" class="edge">
<title>Node20&#45;&gt;Node21</title>
<g id="a_edge63_Node000020_Node000021"><a xlink:title=" ">
<path fill="none" stroke="#63b8ff" d="M453.23,-186.29C476.85,-183.48 509.83,-179.55 537.5,-176.26"/>
<polygon fill="#63b8ff" stroke="#63b8ff" points="537.57,-179.78 547.09,-175.12 536.75,-172.83 537.57,-179.78"/>
</a>
</g>
</g>
<!-- Node22 -->
<g id="Node000022" class="node">
<title>Node22</title>
<g id="a_Node000022"><a xlink:href="$fadb_8cpp.html#ac6339b59ba8238f7483dece7f3fdf51b" xlink:title=" ">
<polygon fill="white" stroke="#666666" points="786.88,-170 698.12,-170 698.12,-150 786.88,-150 786.88,-170"/>
<text text-anchor="middle" x="742.5" y="-156.5" font-family="Helvetica,sans-Serif" font-size="10.00">runAdbLocalhost</text>
</a>
</g>
</g>
<!-- Node21&#45;&gt;Node22 -->
<g id="edge64_Node000021_Node000022" class="edge">
<title>Node21&#45;&gt;Node22</title>
<g id="a_edge64_Node000021_Node000022"><a xlink:title=" ">
<path fill="none" stroke="#63b8ff" d="M633.73,-167.21C650.09,-166.12 669.1,-164.85 686.56,-163.68"/>
<polygon fill="#63b8ff" stroke="#63b8ff" points="686.51,-167.19 696.26,-163.03 686.05,-160.2 686.51,-167.19"/>
</a>
</g>
</g>
<!-- Node23 -->
<g id="Node000023" class="node">
<title>Node23</title>
<g id="a_Node000023"><a xlink:href="$fadb_8cpp.html#a383ae5fedc9f597a03c74c729a2eb740" xlink:title=" ">
<polygon fill="white" stroke="#666666" points="896.62,-170 849.88,-170 849.88,-150 896.62,-150 896.62,-170"/>
<text text-anchor="middle" x="873.25" y="-156.5" font-family="Helvetica,sans-Serif" font-size="10.00">runAdb</text>
</a>
</g>
</g>
<!-- Node22&#45;&gt;Node23 -->
<g id="edge65_Node000022_Node000023" class="edge">
<title>Node22&#45;&gt;Node23</title>
<g id="a_edge65_Node000022_Node000023"><a xlink:title=" ">
<path fill="none" stroke="#63b8ff" d="M787.09,-160C803.83,-160 822.68,-160 838.37,-160"/>
<polygon fill="#63b8ff" stroke="#63b8ff" points="838.16,-163.5 848.16,-160 838.16,-156.5 838.16,-163.5"/>
</a>
</g>
</g>
<!-- Node24 -->
<g id="Node000024" class="node">
<title>Node24</title>
<g id="a_Node000024"><a xlink:href="$sys_commands_8cpp.html#a321eb7e335377aa7182bafc8a1605032" xlink:title=" ">
<polygon fill="white" stroke="#666666" points="1012.75,-170 945.75,-170 945.75,-150 1012.75,-150 1012.75,-170"/>
<text text-anchor="middle" x="979.25" y="-156.5" font-family="Helvetica,sans-Serif" font-size="10.00">receivePipe</text>
</a>
</g>
</g>
<!-- Node23&#45;&gt;Node24 -->
<g id="edge66_Node000023_Node000024" class="edge">
<title>Node23&#45;&gt;Node24</title>
<g id="a_edge66_Node000023_Node000024"><a xlink:title=" ">
<path fill="none" stroke="#63b8ff" d="M897.07,-160C907.97,-160 921.39,-160 934.16,-160"/>
<polygon fill="#63b8ff" stroke="#63b8ff" points="934.1,-163.5 944.1,-160 934.1,-156.5 934.1,-163.5"/>
</a>
</g>
</g>
<!-- Node25 -->
<g id="Node000025" class="node">
<title>Node25</title>
<g id="a_Node000025"><a xlink:href="$sys_commands_8cpp.html#a4771c79171a937893508dabadadbe099" xlink:title=" ">
<polygon fill="white" stroke="#666666" points="1107.5,-189 1048.75,-189 1048.75,-169 1107.5,-169 1107.5,-189"/>
<text text-anchor="middle" x="1078.12" y="-175.5" font-family="Helvetica,sans-Serif" font-size="10.00">closePipe</text>
</a>
</g>
</g>
<!-- Node24&#45;&gt;Node25 -->
<g id="edge67_Node000024_Node000025" class="edge">
<title>Node24&#45;&gt;Node25</title>
<g id="a_edge67_Node000024_Node000025"><a xlink:title=" ">
<path fill="none" stroke="#63b8ff" d="M1013.05,-166.43C1020.81,-167.95 1029.17,-169.59 1037.21,-171.17"/>
<polygon fill="#63b8ff" stroke="#63b8ff" points="1036.28,-174.56 1046.77,-173.05 1037.63,-167.69 1036.28,-174.56"/>
</a>
</g>
</g>
<!-- Node26 -->
<g id="Node000026" class="node">
<title>Node26</title>
<g id="a_Node000026"><a xlink:href="$sys_commands_8cpp.html#a3499ce0cd7e4ed28b3c5461a4d3aec84" xlink:title=" ">
<polygon fill="white" stroke="#666666" points="1106.38,-151 1049.88,-151 1049.88,-131 1106.38,-131 1106.38,-151"/>
<text text-anchor="middle" x="1078.12" y="-137.5" font-family="Helvetica,sans-Serif" font-size="10.00">openPipe</text>
</a>
</g>
</g>
<!-- Node24&#45;&gt;Node26 -->
<g id="edge68_Node000024_Node000026" class="edge">
<title>Node24&#45;&gt;Node26</title>
<g id="a_edge68_Node000024_Node000026"><a xlink:title=" ">
<path fill="none" stroke="#63b8ff" d="M1013.05,-153.57C1021.2,-151.97 1030.01,-150.24 1038.42,-148.59"/>
<polygon fill="#63b8ff" stroke="#63b8ff" points="1038.9,-152.06 1048.04,-146.7 1037.55,-145.19 1038.9,-152.06"/>
</a>
</g>
</g>
<!-- Node28&#45;&gt;Node18 -->
<g id="edge71_Node000028_Node000018" class="edge">
<title>Node28&#45;&gt;Node18</title>
<g id="a_edge71_Node000028_Node000018"><a xlink:title=" ">
<path fill="none" stroke="#63b8ff" d="M468.39,-86.48C488.41,-91.01 512.02,-96.35 533.1,-101.11"/>
<polygon fill="#63b8ff" stroke="#63b8ff" points="532.18,-104.49 542.71,-103.28 533.72,-97.66 532.18,-104.49"/>
</a>
</g>
</g>
<!-- Node28&#45;&gt;Node19 -->
<g id="edge72_Node000028_Node000019" class="edge">
<title>Node28&#45;&gt;Node19</title>
<g id="a_edge72_Node000028_Node000019"><a xlink:title=" ">
<path fill="none" stroke="#63b8ff" d="M489.9,-76C504.42,-76 519.62,-76 533.66,-76"/>
<polygon fill="#63b8ff" stroke="#63b8ff" points="533.62,-79.5 543.62,-76 533.62,-72.5 533.62,-79.5"/>
</a>
</g>
</g>
</g>
</svg>
