<?xml version="1.0" encoding="UTF-8" standalone="no"?>
<!DOCTYPE svg PUBLIC "-//W3C//DTD SVG 1.1//EN"
 "http://www.w3.org/Graphics/SVG/1.1/DTD/svg11.dtd">
<!-- Generated by graphviz version 12.2.0 (20241103.1931)
 -->
<!-- Title: ZoneToken::setOverloads Pages: 1 -->
<svg width="424pt" height="40pt"
 viewBox="0.00 0.00 424.25 40.00" xmlns="http://www.w3.org/2000/svg" xmlns:xlink="http://www.w3.org/1999/xlink">
<g id="graph0" class="graph" transform="scale(1 1) rotate(0) translate(4 36)">
<title>ZoneToken::setOverloads</title>
<!-- Node1 -->
<g id="Node000001" class="node">
<title>Node1</title>
<g id="a_Node000001"><a xlink:title=" ">
<polygon fill="#999999" stroke="#666666" points="127.75,-26 0,-26 0,-6 127.75,-6 127.75,-26"/>
<text text-anchor="middle" x="63.88" y="-12.5" font-family="Helvetica,sans-Serif" font-size="10.00">ZoneToken::setOverloads</text>
</a>
</g>
</g>
<!-- Node2 -->
<g id="Node000002" class="node">
<title>Node2</title>
<g id="a_Node000002"><a xlink:href="$class_arguments_overload.html#a17fba6858e03080178ab2cf098861e5f" xlink:title=" ">
<polygon fill="white" stroke="#666666" points="272,-32 163.75,-32 163.75,0 272,0 272,-32"/>
<text text-anchor="start" x="171.75" y="-18.5" font-family="Helvetica,sans-Serif" font-size="10.00">ArgumentsOverload::</text>
<text text-anchor="middle" x="217.88" y="-6.5" font-family="Helvetica,sans-Serif" font-size="10.00">addArgs</text>
</a>
</g>
</g>
<!-- Node1&#45;&gt;Node2 -->
<g id="edge3_Node000001_Node000002" class="edge">
<title>Node1&#45;&gt;Node2</title>
<g id="a_edge3_Node000001_Node000002"><a xlink:title=" ">
<path fill="none" stroke="#63b8ff" d="M128.02,-16C135.91,-16 143.99,-16 151.91,-16"/>
<polygon fill="#63b8ff" stroke="#63b8ff" points="151.84,-19.5 161.84,-16 151.84,-12.5 151.84,-19.5"/>
</a>
</g>
</g>
<!-- Node3 -->
<g id="Node000003" class="node">
<title>Node3</title>
<g id="a_Node000003"><a xlink:href="$class_arguments_overload.html#a1dfc9815d235cec325412121bea6b559" xlink:title=" ">
<polygon fill="white" stroke="#666666" points="416.25,-32 308,-32 308,0 416.25,0 416.25,-32"/>
<text text-anchor="start" x="316" y="-18.5" font-family="Helvetica,sans-Serif" font-size="10.00">ArgumentsOverload::</text>
<text text-anchor="middle" x="362.12" y="-6.5" font-family="Helvetica,sans-Serif" font-size="10.00">isPresent</text>
</a>
</g>
</g>
<!-- Node2&#45;&gt;Node3 -->
<g id="edge4_Node000002_Node000003" class="edge">
<title>Node2&#45;&gt;Node3</title>
<g id="a_edge4_Node000002_Node000003"><a xlink:title=" ">
<path fill="none" stroke="#63b8ff" d="M272.25,-16C280.18,-16 288.42,-16 296.55,-16"/>
<polygon fill="#63b8ff" stroke="#63b8ff" points="296.41,-19.5 306.41,-16 296.41,-12.5 296.41,-19.5"/>
</a>
</g>
</g>
</g>
</svg>
