<?xml version="1.0" encoding="UTF-8" standalone="no"?>
<!DOCTYPE svg PUBLIC "-//W3C//DTD SVG 1.1//EN"
 "http://www.w3.org/Graphics/SVG/1.1/DTD/svg11.dtd">
<!-- Generated by graphviz version 12.2.0 (20241103.1931)
 -->
<!-- Title: fsfml::autoSeparate Pages: 1 -->
<svg width="730pt" height="104pt"
 viewBox="0.00 0.00 730.00 104.00" xmlns="http://www.w3.org/2000/svg" xmlns:xlink="http://www.w3.org/1999/xlink">
<g id="graph0" class="graph" transform="scale(1 1) rotate(0) translate(4 100)">
<title>fsfml::autoSeparate</title>
<!-- Node1 -->
<g id="Node000001" class="node">
<title>Node1</title>
<g id="a_Node000001"><a xlink:title=" ">
<polygon fill="#999999" stroke="#666666" points="101.5,-58 0,-58 0,-38 101.5,-38 101.5,-58"/>
<text text-anchor="middle" x="50.75" y="-44.5" font-family="Helvetica,sans-Serif" font-size="10.00">fsfml::autoSeparate</text>
</a>
</g>
</g>
<!-- Node2 -->
<g id="Node000002" class="node">
<title>Node2</title>
<g id="a_Node000002"><a xlink:href="$classfsfml.html#aac1968ad932a98b9142e4cee0c38cd2a" xlink:title=" ">
<polygon fill="white" stroke="#666666" points="261.5,-77 137.5,-77 137.5,-57 261.5,-57 261.5,-77"/>
<text text-anchor="middle" x="199.5" y="-63.5" font-family="Helvetica,sans-Serif" font-size="10.00">fsfml::separateElementX</text>
</a>
</g>
</g>
<!-- Node1&#45;&gt;Node2 -->
<g id="edge11_Node000001_Node000002" class="edge">
<title>Node1&#45;&gt;Node2</title>
<g id="a_edge11_Node000001_Node000002"><a xlink:title=" ">
<path fill="none" stroke="#63b8ff" d="M101.84,-54.49C109.57,-55.49 117.69,-56.54 125.8,-57.59"/>
<polygon fill="#63b8ff" stroke="#63b8ff" points="125.34,-61.06 135.71,-58.87 126.24,-54.11 125.34,-61.06"/>
</a>
</g>
</g>
<!-- Node9 -->
<g id="Node000009" class="node">
<title>Node9</title>
<g id="a_Node000009"><a xlink:href="$classfsfml.html#a9f922766e67798b7172b4479a89eed9b" xlink:title=" ">
<polygon fill="white" stroke="#666666" points="261.5,-39 137.5,-39 137.5,-19 261.5,-19 261.5,-39"/>
<text text-anchor="middle" x="199.5" y="-25.5" font-family="Helvetica,sans-Serif" font-size="10.00">fsfml::separateElementY</text>
</a>
</g>
</g>
<!-- Node1&#45;&gt;Node9 -->
<g id="edge18_Node000001_Node000009" class="edge">
<title>Node1&#45;&gt;Node9</title>
<g id="a_edge18_Node000001_Node000009"><a xlink:title=" ">
<path fill="none" stroke="#63b8ff" d="M101.84,-41.51C109.57,-40.51 117.69,-39.46 125.8,-38.41"/>
<polygon fill="#63b8ff" stroke="#63b8ff" points="126.24,-41.89 135.71,-37.13 125.34,-34.94 126.24,-41.89"/>
</a>
</g>
</g>
<!-- Node3 -->
<g id="Node000003" class="node">
<title>Node3</title>
<g id="a_Node000003"><a xlink:href="$classfsfml.html#a27da377b199c90dbed037bf3c298b58f" xlink:title=" ">
<polygon fill="white" stroke="#666666" points="449.25,-96 297.5,-96 297.5,-76 449.25,-76 449.25,-96"/>
<text text-anchor="middle" x="373.38" y="-82.5" font-family="Helvetica,sans-Serif" font-size="10.00">fsfml::distanceBorderElementX</text>
</a>
</g>
</g>
<!-- Node2&#45;&gt;Node3 -->
<g id="edge12_Node000002_Node000003" class="edge">
<title>Node2&#45;&gt;Node3</title>
<g id="a_edge12_Node000002_Node000003"><a xlink:title=" ">
<path fill="none" stroke="#63b8ff" d="M261.58,-73.75C269.47,-74.62 277.67,-75.53 285.88,-76.44"/>
<polygon fill="#63b8ff" stroke="#63b8ff" points="285.22,-79.89 295.54,-77.51 285.99,-72.93 285.22,-79.89"/>
</a>
</g>
</g>
<!-- Node4 -->
<g id="Node000004" class="node">
<title>Node4</title>
<g id="a_Node000004"><a xlink:href="$classfsfml.html#a9cfc61fa4330f08605082f2dc0a3763f" xlink:title=" ">
<polygon fill="white" stroke="#666666" points="425.25,-58 321.5,-58 321.5,-38 425.25,-38 425.25,-58"/>
<text text-anchor="middle" x="373.38" y="-44.5" font-family="Helvetica,sans-Serif" font-size="10.00">fsfml::moveElement</text>
</a>
</g>
</g>
<!-- Node2&#45;&gt;Node4 -->
<g id="edge13_Node000002_Node000004" class="edge">
<title>Node2&#45;&gt;Node4</title>
<g id="a_edge13_Node000002_Node000004"><a xlink:title=" ">
<path fill="none" stroke="#63b8ff" d="M261.58,-60.25C277.26,-58.51 294.16,-56.65 309.91,-54.91"/>
<polygon fill="#63b8ff" stroke="#63b8ff" points="310.09,-58.41 319.64,-53.83 309.32,-51.45 310.09,-58.41"/>
</a>
</g>
</g>
<!-- Node5 -->
<g id="Node000005" class="node">
<title>Node5</title>
<g id="a_Node000005"><a xlink:href="$classfsfml.html#a914f1f9ee2c9f8a97db5704052161a3e" xlink:title=" ">
<polygon fill="white" stroke="#666666" points="586.38,-77 493.12,-77 493.12,-57 586.38,-57 586.38,-77"/>
<text text-anchor="middle" x="539.75" y="-63.5" font-family="Helvetica,sans-Serif" font-size="10.00">fsfml::moveSprite</text>
</a>
</g>
</g>
<!-- Node4&#45;&gt;Node5 -->
<g id="edge14_Node000004_Node000005" class="edge">
<title>Node4&#45;&gt;Node5</title>
<g id="a_edge14_Node000004_Node000005"><a xlink:title=" ">
<path fill="none" stroke="#63b8ff" d="M425.48,-53.91C443.19,-55.95 463.16,-58.26 481.35,-60.36"/>
<polygon fill="#63b8ff" stroke="#63b8ff" points="480.86,-63.83 491.19,-61.5 481.66,-56.88 480.86,-63.83"/>
</a>
</g>
</g>
<!-- Node6 -->
<g id="Node000006" class="node">
<title>Node6</title>
<g id="a_Node000006"><a xlink:href="$classfsfml.html#aa9726b537036754c5927b584939e0e75" xlink:title=" ">
<polygon fill="white" stroke="#666666" points="594.25,-39 485.25,-39 485.25,-19 594.25,-19 594.25,-39"/>
<text text-anchor="middle" x="539.75" y="-25.5" font-family="Helvetica,sans-Serif" font-size="10.00">fsfml::updateElement</text>
</a>
</g>
</g>
<!-- Node4&#45;&gt;Node6 -->
<g id="edge15_Node000004_Node000006" class="edge">
<title>Node4&#45;&gt;Node6</title>
<g id="a_edge15_Node000004_Node000006"><a xlink:title=" ">
<path fill="none" stroke="#63b8ff" d="M425.48,-42.09C440.65,-40.34 457.47,-38.39 473.41,-36.55"/>
<polygon fill="#63b8ff" stroke="#63b8ff" points="473.79,-40.03 483.32,-35.41 472.99,-33.08 473.79,-40.03"/>
</a>
</g>
</g>
<!-- Node7 -->
<g id="Node000007" class="node">
<title>Node7</title>
<g id="a_Node000007"><a xlink:href="$struct_element.html#afb65b315f0c1ce49bcaa10aec825fc45" xlink:title=" ">
<polygon fill="white" stroke="#666666" points="722,-58 630.25,-58 630.25,-38 722,-38 722,-58"/>
<text text-anchor="middle" x="676.12" y="-44.5" font-family="Helvetica,sans-Serif" font-size="10.00">Element::setArea</text>
</a>
</g>
</g>
<!-- Node6&#45;&gt;Node7 -->
<g id="edge16_Node000006_Node000007" class="edge">
<title>Node6&#45;&gt;Node7</title>
<g id="a_edge16_Node000006_Node000007"><a xlink:title=" ">
<path fill="none" stroke="#63b8ff" d="M594.63,-36.62C602.48,-37.73 610.58,-38.87 618.48,-39.99"/>
<polygon fill="#63b8ff" stroke="#63b8ff" points="617.98,-43.45 628.37,-41.39 618.96,-36.52 617.98,-43.45"/>
</a>
</g>
</g>
<!-- Node8 -->
<g id="Node000008" class="node">
<title>Node8</title>
<g id="a_Node000008"><a xlink:href="$struct_element.html#a40f17d5f017c9c43f204fc5d92010485" xlink:title=" ">
<polygon fill="white" stroke="#666666" points="721.62,-20 630.62,-20 630.62,0 721.62,0 721.62,-20"/>
<text text-anchor="middle" x="676.12" y="-6.5" font-family="Helvetica,sans-Serif" font-size="10.00">Element::setSize</text>
</a>
</g>
</g>
<!-- Node6&#45;&gt;Node8 -->
<g id="edge17_Node000006_Node000008" class="edge">
<title>Node6&#45;&gt;Node8</title>
<g id="a_edge17_Node000006_Node000008"><a xlink:title=" ">
<path fill="none" stroke="#63b8ff" d="M594.63,-21.38C602.67,-20.24 610.98,-19.07 619.06,-17.93"/>
<polygon fill="#63b8ff" stroke="#63b8ff" points="619.38,-21.42 628.79,-16.55 618.4,-14.49 619.38,-21.42"/>
</a>
</g>
</g>
<!-- Node9&#45;&gt;Node4 -->
<g id="edge20_Node000009_Node000004" class="edge">
<title>Node9&#45;&gt;Node4</title>
<g id="a_edge20_Node000009_Node000004"><a xlink:title=" ">
<path fill="none" stroke="#63b8ff" d="M261.58,-35.75C277.26,-37.49 294.16,-39.35 309.91,-41.09"/>
<polygon fill="#63b8ff" stroke="#63b8ff" points="309.32,-44.55 319.64,-42.17 310.09,-37.59 309.32,-44.55"/>
</a>
</g>
</g>
<!-- Node10 -->
<g id="Node000010" class="node">
<title>Node10</title>
<g id="a_Node000010"><a xlink:href="$classfsfml.html#a46e8d36f5909284ba10f98b1062b2e8d" xlink:title=" ">
<polygon fill="white" stroke="#666666" points="449.25,-20 297.5,-20 297.5,0 449.25,0 449.25,-20"/>
<text text-anchor="middle" x="373.38" y="-6.5" font-family="Helvetica,sans-Serif" font-size="10.00">fsfml::distanceBorderElementY</text>
</a>
</g>
</g>
<!-- Node9&#45;&gt;Node10 -->
<g id="edge19_Node000009_Node000010" class="edge">
<title>Node9&#45;&gt;Node10</title>
<g id="a_edge19_Node000009_Node000010"><a xlink:title=" ">
<path fill="none" stroke="#63b8ff" d="M261.58,-22.25C269.47,-21.38 277.67,-20.47 285.88,-19.56"/>
<polygon fill="#63b8ff" stroke="#63b8ff" points="285.99,-23.07 295.54,-18.49 285.22,-16.11 285.99,-23.07"/>
</a>
</g>
</g>
</g>
</svg>
