<?xml version="1.0" encoding="UTF-8" standalone="no"?>
<!DOCTYPE svg PUBLIC "-//W3C//DTD SVG 1.1//EN"
 "http://www.w3.org/Graphics/SVG/1.1/DTD/svg11.dtd">
<!-- Generated by graphviz version 12.2.0 (20241103.1931)
 -->
<!-- Title: FloatToken::FloatToken Pages: 1 -->
<svg width="578pt" height="40pt"
 viewBox="0.00 0.00 578.25 40.00" xmlns="http://www.w3.org/2000/svg" xmlns:xlink="http://www.w3.org/1999/xlink">
<g id="graph0" class="graph" transform="scale(1 1) rotate(0) translate(4 36)">
<title>FloatToken::FloatToken</title>
<!-- Node1 -->
<g id="Node000001" class="node">
<title>Node1</title>
<g id="a_Node000001"><a xlink:title=" ">
<polygon fill="#999999" stroke="#666666" points="118,-26 0,-26 0,-6 118,-6 118,-26"/>
<text text-anchor="middle" x="59" y="-12.5" font-family="Helvetica,sans-Serif" font-size="10.00">FloatToken::FloatToken</text>
</a>
</g>
</g>
<!-- Node2 -->
<g id="Node000002" class="node">
<title>Node2</title>
<g id="a_Node000002"><a xlink:href="$class_float_token.html#a0f59e32a7fff30d2b09e509a69126305" xlink:title=" ">
<polygon fill="white" stroke="#666666" points="281.75,-26 154,-26 154,-6 281.75,-6 281.75,-26"/>
<text text-anchor="middle" x="217.88" y="-12.5" font-family="Helvetica,sans-Serif" font-size="10.00">FloatToken::setOverloads</text>
</a>
</g>
</g>
<!-- Node1&#45;&gt;Node2 -->
<g id="edge4_Node000001_Node000002" class="edge">
<title>Node1&#45;&gt;Node2</title>
<g id="a_edge4_Node000001_Node000002"><a xlink:title=" ">
<path fill="none" stroke="#63b8ff" d="M118.41,-16C126.23,-16 134.33,-16 142.37,-16"/>
<polygon fill="#63b8ff" stroke="#63b8ff" points="142.16,-19.5 152.16,-16 142.16,-12.5 142.16,-19.5"/>
</a>
</g>
</g>
<!-- Node3 -->
<g id="Node000003" class="node">
<title>Node3</title>
<g id="a_Node000003"><a xlink:href="$class_arguments_overload.html#a17fba6858e03080178ab2cf098861e5f" xlink:title=" ">
<polygon fill="white" stroke="#666666" points="426,-32 317.75,-32 317.75,0 426,0 426,-32"/>
<text text-anchor="start" x="325.75" y="-18.5" font-family="Helvetica,sans-Serif" font-size="10.00">ArgumentsOverload::</text>
<text text-anchor="middle" x="371.88" y="-6.5" font-family="Helvetica,sans-Serif" font-size="10.00">addArgs</text>
</a>
</g>
</g>
<!-- Node2&#45;&gt;Node3 -->
<g id="edge5_Node000002_Node000003" class="edge">
<title>Node2&#45;&gt;Node3</title>
<g id="a_edge5_Node000002_Node000003"><a xlink:title=" ">
<path fill="none" stroke="#63b8ff" d="M282.02,-16C289.91,-16 297.99,-16 305.91,-16"/>
<polygon fill="#63b8ff" stroke="#63b8ff" points="305.84,-19.5 315.84,-16 305.84,-12.5 305.84,-19.5"/>
</a>
</g>
</g>
<!-- Node4 -->
<g id="Node000004" class="node">
<title>Node4</title>
<g id="a_Node000004"><a xlink:href="$class_arguments_overload.html#a1dfc9815d235cec325412121bea6b559" xlink:title=" ">
<polygon fill="white" stroke="#666666" points="570.25,-32 462,-32 462,0 570.25,0 570.25,-32"/>
<text text-anchor="start" x="470" y="-18.5" font-family="Helvetica,sans-Serif" font-size="10.00">ArgumentsOverload::</text>
<text text-anchor="middle" x="516.12" y="-6.5" font-family="Helvetica,sans-Serif" font-size="10.00">isPresent</text>
</a>
</g>
</g>
<!-- Node3&#45;&gt;Node4 -->
<g id="edge6_Node000003_Node000004" class="edge">
<title>Node3&#45;&gt;Node4</title>
<g id="a_edge6_Node000003_Node000004"><a xlink:title=" ">
<path fill="none" stroke="#63b8ff" d="M426.25,-16C434.18,-16 442.42,-16 450.55,-16"/>
<polygon fill="#63b8ff" stroke="#63b8ff" points="450.41,-19.5 460.41,-16 450.41,-12.5 450.41,-19.5"/>
</a>
</g>
</g>
</g>
</svg>
