<?xml version="1.0" encoding="UTF-8" standalone="no"?>
<!DOCTYPE svg PUBLIC "-//W3C//DTD SVG 1.1//EN"
 "http://www.w3.org/Graphics/SVG/1.1/DTD/svg11.dtd">
<!-- Generated by graphviz version 12.2.0 (20241103.1931)
 -->
<!-- Title: BotConfig::initBotFile Pages: 1 -->
<svg width="1835pt" height="417pt"
 viewBox="0.00 0.00 1835.00 417.00" xmlns="http://www.w3.org/2000/svg" xmlns:xlink="http://www.w3.org/1999/xlink">
<g id="graph0" class="graph" transform="scale(1 1) rotate(0) translate(4 413)">
<title>BotConfig::initBotFile</title>
<!-- Node1 -->
<g id="Node000001" class="node">
<title>Node1</title>
<g id="a_Node000001"><a xlink:title=" ">
<polygon fill="#999999" stroke="#666666" points="109,-194 0,-194 0,-174 109,-174 109,-194"/>
<text text-anchor="middle" x="54.5" y="-180.5" font-family="Helvetica,sans-Serif" font-size="10.00">BotConfig::initBotFile</text>
</a>
</g>
</g>
<!-- Node2 -->
<g id="Node000002" class="node">
<title>Node2</title>
<g id="a_Node000002"><a xlink:href="$class_bot_config.html#aaa9ade6d9deb18e7457ab5d1d925e9e6" xlink:title=" ">
<polygon fill="white" stroke="#666666" points="811.25,-230 699.25,-230 699.25,-210 811.25,-210 811.25,-230"/>
<text text-anchor="middle" x="755.25" y="-216.5" font-family="Helvetica,sans-Serif" font-size="10.00">BotConfig::doWriteInit</text>
</a>
</g>
</g>
<!-- Node1&#45;&gt;Node2 -->
<g id="edge44_Node000001_Node000002" class="edge">
<title>Node1&#45;&gt;Node2</title>
<g id="a_edge44_Node000001_Node000002"><a xlink:title=" ">
<path fill="none" stroke="#63b8ff" d="M109.46,-186.78C235.72,-193.28 550.08,-209.48 687.82,-216.58"/>
<polygon fill="#63b8ff" stroke="#63b8ff" points="687.33,-220.06 697.5,-217.08 687.69,-213.07 687.33,-220.06"/>
</a>
</g>
</g>
<!-- Node14 -->
<g id="Node000014" class="node">
<title>Node14</title>
<g id="a_Node000014"><a xlink:href="$class_bot_config.html#add6ae08a184d93e02b4ad2a03aa95e90" xlink:title=" ">
<polygon fill="white" stroke="#666666" points="253.25,-166 145,-166 145,-146 253.25,-146 253.25,-166"/>
<text text-anchor="middle" x="199.12" y="-152.5" font-family="Helvetica,sans-Serif" font-size="10.00">BotConfig::updateInit</text>
</a>
</g>
</g>
<!-- Node1&#45;&gt;Node14 -->
<g id="edge56_Node000001_Node000014" class="edge">
<title>Node1&#45;&gt;Node14</title>
<g id="a_edge56_Node000001_Node000014"><a xlink:title=" ">
<path fill="none" stroke="#63b8ff" d="M108.61,-173.57C116.87,-171.95 125.48,-170.26 133.95,-168.6"/>
<polygon fill="#63b8ff" stroke="#63b8ff" points="134.35,-172.09 143.49,-166.73 133,-165.22 134.35,-172.09"/>
</a>
</g>
</g>
<!-- Node3 -->
<g id="Node000003" class="node">
<title>Node3</title>
<g id="a_Node000003"><a xlink:href="$class_bot_config.html#a100e179305b4c6eb54ff8a680616ec03" xlink:title=" ">
<polygon fill="white" stroke="#666666" points="1003.5,-230 863.75,-230 863.75,-210 1003.5,-210 1003.5,-230"/>
<text text-anchor="middle" x="933.62" y="-216.5" font-family="Helvetica,sans-Serif" font-size="10.00">BotConfig::verifyParameters</text>
</a>
</g>
</g>
<!-- Node2&#45;&gt;Node3 -->
<g id="edge45_Node000002_Node000003" class="edge">
<title>Node2&#45;&gt;Node3</title>
<g id="a_edge45_Node000002_Node000003"><a xlink:title=" ">
<path fill="none" stroke="#63b8ff" d="M811.57,-220C824.44,-220 838.39,-220 852.1,-220"/>
<polygon fill="#63b8ff" stroke="#63b8ff" points="852.01,-223.5 862.01,-220 852.01,-216.5 852.01,-223.5"/>
</a>
</g>
</g>
<!-- Node9 -->
<g id="Node000009" class="node">
<title>Node9</title>
<g id="a_Node000009"><a xlink:href="$class_bot_config.html#a5ea5db5fbc78be03cd9450d4b4c0e73c" xlink:title=" ">
<polygon fill="white" stroke="#666666" points="983.62,-352 883.62,-352 883.62,-332 983.62,-332 983.62,-352"/>
<text text-anchor="middle" x="933.62" y="-338.5" font-family="Helvetica,sans-Serif" font-size="10.00">BotConfig::writeInit</text>
</a>
</g>
</g>
<!-- Node2&#45;&gt;Node9 -->
<g id="edge51_Node000002_Node000009" class="edge">
<title>Node2&#45;&gt;Node9</title>
<g id="a_edge51_Node000002_Node000009"><a xlink:title=" ">
<path fill="none" stroke="#63b8ff" d="M771.29,-230.4C801.88,-251.56 871.57,-299.77 908.55,-325.35"/>
<polygon fill="#63b8ff" stroke="#63b8ff" points="906.17,-327.95 916.38,-330.76 910.15,-322.2 906.17,-327.95"/>
</a>
</g>
</g>
<!-- Node4 -->
<g id="Node000004" class="node">
<title>Node4</title>
<g id="a_Node000004"><a xlink:href="$class_bot_config.html#a1652dcc0a496d11e8d7f35d8c88e6014" xlink:title=" ">
<polygon fill="white" stroke="#666666" points="1182.62,-195 1040.62,-195 1040.62,-175 1182.62,-175 1182.62,-195"/>
<text text-anchor="middle" x="1111.62" y="-181.5" font-family="Helvetica,sans-Serif" font-size="10.00">BotConfig::getBotFilecontent</text>
</a>
</g>
</g>
<!-- Node3&#45;&gt;Node4 -->
<g id="edge46_Node000003_Node000004" class="edge">
<title>Node3&#45;&gt;Node4</title>
<g id="a_edge46_Node000003_Node000004"><a xlink:title=" ">
<path fill="none" stroke="#63b8ff" d="M986.95,-209.59C1005.76,-205.85 1027.18,-201.59 1046.86,-197.68"/>
<polygon fill="#63b8ff" stroke="#63b8ff" points="1047.28,-201.17 1056.4,-195.78 1045.91,-194.3 1047.28,-201.17"/>
</a>
</g>
</g>
<!-- Node6 -->
<g id="Node000006" class="node">
<title>Node6</title>
<g id="a_Node000006"><a xlink:href="$class_bot_config.html#a87ca6a00d5b852b1c96966bcd1cbb417" xlink:title=" ">
<polygon fill="white" stroke="#666666" points="1180.75,-157 1042.5,-157 1042.5,-125 1180.75,-125 1180.75,-157"/>
<text text-anchor="start" x="1050.5" y="-143.5" font-family="Helvetica,sans-Serif" font-size="10.00">BotConfig::verifyBluestacks</text>
<text text-anchor="middle" x="1111.62" y="-131.5" font-family="Helvetica,sans-Serif" font-size="10.00">Parameters</text>
</a>
</g>
</g>
<!-- Node3&#45;&gt;Node6 -->
<g id="edge48_Node000003_Node000006" class="edge">
<title>Node3&#45;&gt;Node6</title>
<g id="a_edge48_Node000003_Node000006"><a xlink:title=" ">
<path fill="none" stroke="#63b8ff" d="M952.82,-209.66C973.45,-198.16 1008.28,-179.45 1039.5,-166 1043.03,-164.48 1046.69,-162.98 1050.4,-161.51"/>
<polygon fill="#63b8ff" stroke="#63b8ff" points="1051.43,-164.87 1059.52,-158.02 1048.92,-158.33 1051.43,-164.87"/>
</a>
</g>
</g>
<!-- Node7 -->
<g id="Node000007" class="node">
<title>Node7</title>
<g id="a_Node000007"><a xlink:href="$class_bot_config.html#a065587486500e26019a183c4727ac9ef" xlink:title=" ">
<polygon fill="white" stroke="#666666" points="1172.5,-295 1050.75,-295 1050.75,-263 1172.5,-263 1172.5,-295"/>
<text text-anchor="start" x="1058.75" y="-281.5" font-family="Helvetica,sans-Serif" font-size="10.00">BotConfig::verifyfavorite</text>
<text text-anchor="middle" x="1111.62" y="-269.5" font-family="Helvetica,sans-Serif" font-size="10.00">Parameters</text>
</a>
</g>
</g>
<!-- Node3&#45;&gt;Node7 -->
<g id="edge49_Node000003_Node000007" class="edge">
<title>Node3&#45;&gt;Node7</title>
<g id="a_edge49_Node000003_Node000007"><a xlink:title=" ">
<path fill="none" stroke="#63b8ff" d="M965.69,-230.41C989.22,-238.3 1022.29,-249.39 1050.89,-258.98"/>
<polygon fill="#63b8ff" stroke="#63b8ff" points="1049.58,-262.23 1060.17,-262.09 1051.81,-255.59 1049.58,-262.23"/>
</a>
</g>
</g>
<!-- Node8 -->
<g id="Node000008" class="node">
<title>Node8</title>
<g id="a_Node000008"><a xlink:href="$class_bot_config.html#a6ed63ab2d1ba5fcb75a28e8068296585" xlink:title=" ">
<polygon fill="white" stroke="#666666" points="1175.5,-245 1047.75,-245 1047.75,-213 1175.5,-213 1175.5,-245"/>
<text text-anchor="start" x="1055.75" y="-231.5" font-family="Helvetica,sans-Serif" font-size="10.00">BotConfig::verifyLdPlayer</text>
<text text-anchor="middle" x="1111.62" y="-219.5" font-family="Helvetica,sans-Serif" font-size="10.00">Parameters</text>
</a>
</g>
</g>
<!-- Node3&#45;&gt;Node8 -->
<g id="edge50_Node000003_Node000008" class="edge">
<title>Node3&#45;&gt;Node8</title>
<g id="a_edge50_Node000003_Node000008"><a xlink:title=" ">
<path fill="none" stroke="#63b8ff" d="M1003.93,-223.54C1014.46,-224.08 1025.36,-224.64 1035.99,-225.18"/>
<polygon fill="#63b8ff" stroke="#63b8ff" points="1035.72,-228.67 1045.88,-225.69 1036.07,-221.68 1035.72,-228.67"/>
</a>
</g>
</g>
<!-- Node5 -->
<g id="Node000005" class="node">
<title>Node5</title>
<g id="a_Node000005"><a xlink:href="$_text_manager_8cpp.html#add36cc54cd9616a393a17b8961491477" xlink:title=" ">
<polygon fill="white" stroke="#666666" points="1299.5,-195 1219.75,-195 1219.75,-175 1299.5,-175 1299.5,-195"/>
<text text-anchor="middle" x="1259.62" y="-181.5" font-family="Helvetica,sans-Serif" font-size="10.00">getFileContent</text>
</a>
</g>
</g>
<!-- Node4&#45;&gt;Node5 -->
<g id="edge47_Node000004_Node000005" class="edge">
<title>Node4&#45;&gt;Node5</title>
<g id="a_edge47_Node000004_Node000005"><a xlink:title=" ">
<path fill="none" stroke="#63b8ff" d="M1183.06,-185C1191.49,-185 1199.96,-185 1208.03,-185"/>
<polygon fill="#63b8ff" stroke="#63b8ff" points="1207.99,-188.5 1217.99,-185 1207.99,-181.5 1207.99,-188.5"/>
</a>
</g>
</g>
<!-- Node10 -->
<g id="Node000010" class="node">
<title>Node10</title>
<g id="a_Node000010"><a xlink:href="$class_bot_config.html#aeb7fe97edfbfb8a9d0a30c156e8a5bb9" xlink:title=" ">
<polygon fill="white" stroke="#666666" points="1183.75,-409 1039.5,-409 1039.5,-389 1183.75,-389 1183.75,-409"/>
<text text-anchor="middle" x="1111.62" y="-395.5" font-family="Helvetica,sans-Serif" font-size="10.00">BotConfig::textInitBluestacks</text>
</a>
</g>
</g>
<!-- Node9&#45;&gt;Node10 -->
<g id="edge52_Node000009_Node000010" class="edge">
<title>Node9&#45;&gt;Node10</title>
<g id="a_edge52_Node000009_Node000010"><a xlink:title=" ">
<path fill="none" stroke="#63b8ff" d="M961.57,-352.49C982.62,-360.51 1012.71,-371.59 1039.5,-380 1045.59,-381.91 1052.02,-383.8 1058.41,-385.61"/>
<polygon fill="#63b8ff" stroke="#63b8ff" points="1057.05,-388.86 1067.62,-388.15 1058.91,-382.11 1057.05,-388.86"/>
</a>
</g>
</g>
<!-- Node11 -->
<g id="Node000011" class="node">
<title>Node11</title>
<g id="a_Node000011"><a xlink:href="$class_bot_config.html#a734ee0b264983e8da4ee33926e076602" xlink:title=" ">
<polygon fill="white" stroke="#666666" points="1178.5,-371 1044.75,-371 1044.75,-351 1178.5,-351 1178.5,-371"/>
<text text-anchor="middle" x="1111.62" y="-357.5" font-family="Helvetica,sans-Serif" font-size="10.00">BotConfig::textInitLdPlayer</text>
</a>
</g>
</g>
<!-- Node9&#45;&gt;Node11 -->
<g id="edge53_Node000009_Node000011" class="edge">
<title>Node9&#45;&gt;Node11</title>
<g id="a_edge53_Node000009_Node000011"><a xlink:title=" ">
<path fill="none" stroke="#63b8ff" d="M984.12,-347.34C999.32,-348.98 1016.43,-350.83 1033.04,-352.62"/>
<polygon fill="#63b8ff" stroke="#63b8ff" points="1032.6,-356.1 1042.92,-353.69 1033.35,-349.14 1032.6,-356.1"/>
</a>
</g>
</g>
<!-- Node12 -->
<g id="Node000012" class="node">
<title>Node12</title>
<g id="a_Node000012"><a xlink:href="$_text_manager_8cpp.html#ab55140c566370b105b9bf81756293fa5" xlink:title=" ">
<polygon fill="white" stroke="#666666" points="1291.25,-283 1228,-283 1228,-263 1291.25,-263 1291.25,-283"/>
<text text-anchor="middle" x="1259.62" y="-269.5" font-family="Helvetica,sans-Serif" font-size="10.00">writeToFile</text>
</a>
</g>
</g>
<!-- Node9&#45;&gt;Node12 -->
<g id="edge54_Node000009_Node000012" class="edge">
<title>Node9&#45;&gt;Node12</title>
<g id="a_edge54_Node000009_Node000012"><a xlink:title=" ">
<path fill="none" stroke="#63b8ff" d="M984.05,-338C1034.86,-333.07 1115.9,-322.92 1183.75,-304 1198.36,-299.93 1213.95,-293.78 1227.09,-288.04"/>
<polygon fill="#63b8ff" stroke="#63b8ff" points="1228.42,-291.28 1236.11,-283.98 1225.55,-284.9 1228.42,-291.28"/>
</a>
</g>
</g>
<!-- Node13 -->
<g id="Node000013" class="node">
<title>Node13</title>
<g id="a_Node000013"><a xlink:href="$_text_manager_8cpp.html#a4a86df56d2737552b2fd63bfa85c5800" xlink:title=" ">
<polygon fill="white" stroke="#666666" points="1438.88,-283 1353.12,-283 1353.12,-263 1438.88,-263 1438.88,-283"/>
<text text-anchor="middle" x="1396" y="-269.5" font-family="Helvetica,sans-Serif" font-size="10.00">getOfstreamFile</text>
</a>
</g>
</g>
<!-- Node12&#45;&gt;Node13 -->
<g id="edge55_Node000012_Node000013" class="edge">
<title>Node12&#45;&gt;Node13</title>
<g id="a_edge55_Node000012_Node000013"><a xlink:title=" ">
<path fill="none" stroke="#63b8ff" d="M1291.45,-273C1306.25,-273 1324.41,-273 1341.37,-273"/>
<polygon fill="#63b8ff" stroke="#63b8ff" points="1341.35,-276.5 1351.35,-273 1341.35,-269.5 1341.35,-276.5"/>
</a>
</g>
</g>
<!-- Node15 -->
<g id="Node000015" class="node">
<title>Node15</title>
<g id="a_Node000015"><a xlink:href="$class_bot_config.html#a53485f20f89c00397495b545b91044da" xlink:title=" ">
<polygon fill="white" stroke="#666666" points="628,-185 501,-185 501,-165 628,-165 628,-185"/>
<text text-anchor="middle" x="564.5" y="-171.5" font-family="Helvetica,sans-Serif" font-size="10.00">BotConfig::updateDataAll</text>
</a>
</g>
</g>
<!-- Node14&#45;&gt;Node15 -->
<g id="edge57_Node000014_Node000015" class="edge">
<title>Node14&#45;&gt;Node15</title>
<g id="a_edge57_Node000014_Node000015"><a xlink:title=" ">
<path fill="none" stroke="#63b8ff" d="M253.74,-158.8C316.11,-162.06 419.44,-167.47 489.44,-171.13"/>
<polygon fill="#63b8ff" stroke="#63b8ff" points="489.13,-174.62 499.3,-171.64 489.5,-167.63 489.13,-174.62"/>
</a>
</g>
</g>
<!-- Node28 -->
<g id="Node000028" class="node">
<title>Node28</title>
<g id="a_Node000028"><a xlink:href="$class_bot_config.html#a994d7a4b890c4ab02c1da5778cc36f9c" xlink:title=" ">
<polygon fill="white" stroke="#666666" points="446.25,-147 289.25,-147 289.25,-127 446.25,-127 446.25,-147"/>
<text text-anchor="middle" x="367.75" y="-133.5" font-family="Helvetica,sans-Serif" font-size="10.00">BotConfig::updateInitBluestacks</text>
</a>
</g>
</g>
<!-- Node14&#45;&gt;Node28 -->
<g id="edge81_Node000014_Node000028" class="edge">
<title>Node14&#45;&gt;Node28</title>
<g id="a_edge81_Node000014_Node000028"><a xlink:title=" ">
<path fill="none" stroke="#63b8ff" d="M253.3,-149.94C261.1,-149.05 269.29,-148.11 277.57,-147.17"/>
<polygon fill="#63b8ff" stroke="#63b8ff" points="277.83,-150.66 287.37,-146.05 277.04,-143.71 277.83,-150.66"/>
</a>
</g>
</g>
<!-- Node30 -->
<g id="Node000030" class="node">
<title>Node30</title>
<g id="a_Node000030"><a xlink:href="$class_bot_config.html#a4630e1c0cfc4366a1e97df9452cad69d" xlink:title=" ">
<polygon fill="white" stroke="#666666" points="441,-109 294.5,-109 294.5,-89 441,-89 441,-109"/>
<text text-anchor="middle" x="367.75" y="-95.5" font-family="Helvetica,sans-Serif" font-size="10.00">BotConfig::updateInitLdPlayer</text>
</a>
</g>
</g>
<!-- Node14&#45;&gt;Node30 -->
<g id="edge84_Node000014_Node000030" class="edge">
<title>Node14&#45;&gt;Node30</title>
<g id="a_edge84_Node000014_Node000030"><a xlink:title=" ">
<path fill="none" stroke="#63b8ff" d="M221.72,-145.62C239.53,-137.34 265.63,-125.87 289.25,-118 295.31,-115.98 301.71,-114.07 308.11,-112.3"/>
<polygon fill="#63b8ff" stroke="#63b8ff" points="308.63,-115.78 317.4,-109.84 306.83,-109.02 308.63,-115.78"/>
</a>
</g>
</g>
<!-- Node16 -->
<g id="Node000016" class="node">
<title>Node16</title>
<g id="a_Node000016"><a xlink:href="$class_bot_config.html#a70992bec079cbf9412e69b0f0e712ca2" xlink:title=" ">
<polygon fill="white" stroke="#666666" points="827.75,-128 682.75,-128 682.75,-108 827.75,-108 827.75,-128"/>
<text text-anchor="middle" x="755.25" y="-114.5" font-family="Helvetica,sans-Serif" font-size="10.00">BotConfig::updateBoolBotFile</text>
</a>
</g>
</g>
<!-- Node15&#45;&gt;Node16 -->
<g id="edge58_Node000015_Node000016" class="edge">
<title>Node15&#45;&gt;Node16</title>
<g id="a_edge58_Node000015_Node000016"><a xlink:title=" ">
<path fill="none" stroke="#63b8ff" d="M614.28,-164.51C625.03,-161.95 636.32,-159.05 646.75,-156 670.31,-149.1 696.28,-139.97 716.79,-132.38"/>
<polygon fill="#63b8ff" stroke="#63b8ff" points="718.01,-135.66 726.15,-128.88 715.56,-129.11 718.01,-135.66"/>
</a>
</g>
</g>
<!-- Node17 -->
<g id="Node000017" class="node">
<title>Node17</title>
<g id="a_Node000017"><a xlink:href="$class_bot_config.html#a7b0b572a14dd5f0630b335041f83049a" xlink:title=" ">
<polygon fill="white" stroke="#666666" points="990.75,-114 876.5,-114 876.5,-94 990.75,-94 990.75,-114"/>
<text text-anchor="middle" x="933.62" y="-100.5" font-family="Helvetica,sans-Serif" font-size="10.00">BotConfig::updateBool</text>
</a>
</g>
</g>
<!-- Node16&#45;&gt;Node17 -->
<g id="edge59_Node000016_Node000017" class="edge">
<title>Node16&#45;&gt;Node17</title>
<g id="a_edge59_Node000016_Node000017"><a xlink:title=" ">
<path fill="none" stroke="#63b8ff" d="M828.24,-112.29C840.37,-111.32 852.92,-110.33 864.93,-109.37"/>
<polygon fill="#63b8ff" stroke="#63b8ff" points="865.05,-112.87 874.75,-108.59 864.5,-105.9 865.05,-112.87"/>
</a>
</g>
</g>
<!-- Node18 -->
<g id="Node000018" class="node">
<title>Node18</title>
<g id="a_Node000018"><a xlink:href="$class_bot_config.html#ab92a15dd3027a7f42b452cdf5eaf9529" xlink:title=" ">
<polygon fill="white" stroke="#666666" points="1171.75,-107 1051.5,-107 1051.5,-87 1171.75,-87 1171.75,-107"/>
<text text-anchor="middle" x="1111.62" y="-93.5" font-family="Helvetica,sans-Serif" font-size="10.00">BotConfig::updateString</text>
</a>
</g>
</g>
<!-- Node17&#45;&gt;Node18 -->
<g id="edge60_Node000017_Node000018" class="edge">
<title>Node17&#45;&gt;Node18</title>
<g id="a_edge60_Node000017_Node000018"><a xlink:title=" ">
<path fill="none" stroke="#63b8ff" d="M990.8,-101.77C1006.41,-101.14 1023.57,-100.46 1039.9,-99.81"/>
<polygon fill="#63b8ff" stroke="#63b8ff" points="1039.68,-103.32 1049.53,-99.43 1039.4,-96.33 1039.68,-103.32"/>
</a>
</g>
</g>
<!-- Node18&#45;&gt;Node5 -->
<g id="edge61_Node000018_Node000005" class="edge">
<title>Node18&#45;&gt;Node5</title>
<g id="a_edge61_Node000018_Node000005"><a xlink:title=" ">
<path fill="none" stroke="#63b8ff" d="M1166.65,-107.46C1172.66,-109.77 1178.51,-112.58 1183.75,-116 1205.19,-130.01 1200.57,-144.02 1219.75,-161 1222.69,-163.6 1225.95,-166.1 1229.29,-168.42"/>
<polygon fill="#63b8ff" stroke="#63b8ff" points="1227.16,-171.22 1237.46,-173.69 1230.95,-165.33 1227.16,-171.22"/>
</a>
</g>
</g>
<!-- Node18&#45;&gt;Node12 -->
<g id="edge80_Node000018_Node000012" class="edge">
<title>Node18&#45;&gt;Node12</title>
<g id="a_edge80_Node000018_Node000012"><a xlink:title=" ">
<path fill="none" stroke="#63b8ff" d="M1170.54,-107.37C1175.32,-109.7 1179.82,-112.54 1183.75,-116 1215.47,-143.92 1201.34,-165.96 1219.75,-204 1227.97,-220.99 1238.56,-239.61 1246.61,-253.21"/>
<polygon fill="#63b8ff" stroke="#63b8ff" points="1243.5,-254.85 1251.64,-261.63 1249.51,-251.25 1243.5,-254.85"/>
</a>
</g>
</g>
<!-- Node19 -->
<g id="Node000019" class="node">
<title>Node19</title>
<g id="a_Node000019"><a xlink:href="$_text_manager_8cpp.html#af24bee60aa1d3d5b4ae3bf6ebd267ecd" xlink:title=" ">
<polygon fill="white" stroke="#666666" points="1283.38,-107 1235.88,-107 1235.88,-87 1283.38,-87 1283.38,-107"/>
<text text-anchor="middle" x="1259.62" y="-93.5" font-family="Helvetica,sans-Serif" font-size="10.00">getLine</text>
</a>
</g>
</g>
<!-- Node18&#45;&gt;Node19 -->
<g id="edge62_Node000018_Node000019" class="edge">
<title>Node18&#45;&gt;Node19</title>
<g id="a_edge62_Node000018_Node000019"><a xlink:title=" ">
<path fill="none" stroke="#63b8ff" d="M1172.01,-97C1189.88,-97 1208.87,-97 1224.51,-97"/>
<polygon fill="#63b8ff" stroke="#63b8ff" points="1224.22,-100.5 1234.22,-97 1224.22,-93.5 1224.22,-100.5"/>
</a>
</g>
</g>
<!-- Node21 -->
<g id="Node000021" class="node">
<title>Node21</title>
<g id="a_Node000021"><a xlink:href="$_text_manager_8cpp.html#a6956d58559ef67f422247fdeb1c22775" xlink:title=" ">
<polygon fill="white" stroke="#666666" points="1572.25,-48 1496.25,-48 1496.25,-28 1572.25,-28 1572.25,-48"/>
<text text-anchor="middle" x="1534.25" y="-34.5" font-family="Helvetica,sans-Serif" font-size="10.00">getStringAfter</text>
</a>
</g>
</g>
<!-- Node18&#45;&gt;Node21 -->
<g id="edge75_Node000018_Node000021" class="edge">
<title>Node18&#45;&gt;Node21</title>
<g id="a_edge75_Node000018_Node000021"><a xlink:title=" ">
<path fill="none" stroke="#63b8ff" d="M1132.47,-86.53C1170.54,-67.16 1257.02,-26.55 1335.5,-14 1388.6,-5.51 1403.34,-5.88 1456.5,-14 1469.6,-16 1483.54,-19.82 1495.9,-23.83"/>
<polygon fill="#63b8ff" stroke="#63b8ff" points="1494.7,-27.12 1505.29,-27.03 1496.96,-20.49 1494.7,-27.12"/>
</a>
</g>
</g>
<!-- Node25 -->
<g id="Node000025" class="node">
<title>Node25</title>
<g id="a_Node000025"><a xlink:href="$_text_manager_8cpp.html#aff8311b88dbf5f3091f3ac1262543242" xlink:title=" ">
<polygon fill="white" stroke="#666666" points="1576,-114 1492.5,-114 1492.5,-94 1576,-94 1576,-114"/>
<text text-anchor="middle" x="1534.25" y="-100.5" font-family="Helvetica,sans-Serif" font-size="10.00">getStringBefore</text>
</a>
</g>
</g>
<!-- Node18&#45;&gt;Node25 -->
<g id="edge76_Node000018_Node000025" class="edge">
<title>Node18&#45;&gt;Node25</title>
<g id="a_edge76_Node000018_Node000025"><a xlink:title=" ">
<path fill="none" stroke="#63b8ff" d="M1155.45,-107.46C1220.7,-121.91 1348.8,-144.45 1456.5,-128 1469.6,-126 1483.54,-122.18 1495.9,-118.17"/>
<polygon fill="#63b8ff" stroke="#63b8ff" points="1496.96,-121.51 1505.29,-114.97 1494.7,-114.88 1496.96,-121.51"/>
</a>
</g>
</g>
<!-- Node27 -->
<g id="Node000027" class="node">
<title>Node27</title>
<g id="a_Node000027"><a xlink:href="$_text_manager_8cpp.html#ac695ebe5513185f42689b419f58d8a83" xlink:title=" ">
<polygon fill="white" stroke="#666666" points="1435.88,-43 1356.12,-43 1356.12,-23 1435.88,-23 1435.88,-43"/>
<text text-anchor="middle" x="1396" y="-29.5" font-family="Helvetica,sans-Serif" font-size="10.00">updateContent</text>
</a>
</g>
</g>
<!-- Node18&#45;&gt;Node27 -->
<g id="edge77_Node000018_Node000027" class="edge">
<title>Node18&#45;&gt;Node27</title>
<g id="a_edge77_Node000018_Node000027"><a xlink:title=" ">
<path fill="none" stroke="#63b8ff" d="M1158.94,-86.5C1210.1,-74.91 1292.2,-56.3 1344.85,-44.37"/>
<polygon fill="#63b8ff" stroke="#63b8ff" points="1345.49,-47.81 1354.47,-42.19 1343.94,-40.98 1345.49,-47.81"/>
</a>
</g>
</g>
<!-- Node20 -->
<g id="Node000020" class="node">
<title>Node20</title>
<g id="a_Node000020"><a xlink:href="$_text_manager_8cpp.html#a85a282af68cca7cf7d69487d1bacdc47" xlink:title=" ">
<polygon fill="white" stroke="#666666" points="1438.12,-81 1353.88,-81 1353.88,-61 1438.12,-61 1438.12,-81"/>
<text text-anchor="middle" x="1396" y="-67.5" font-family="Helvetica,sans-Serif" font-size="10.00">extractBetween</text>
</a>
</g>
</g>
<!-- Node19&#45;&gt;Node20 -->
<g id="edge63_Node000019_Node000020" class="edge">
<title>Node19&#45;&gt;Node20</title>
<g id="a_edge63_Node000019_Node000020"><a xlink:title=" ">
<path fill="none" stroke="#63b8ff" d="M1283.72,-92.53C1299.87,-89.41 1322.1,-85.11 1342.44,-81.17"/>
<polygon fill="#63b8ff" stroke="#63b8ff" points="1342.86,-84.65 1352.01,-79.32 1341.53,-77.78 1342.86,-84.65"/>
</a>
</g>
</g>
<!-- Node26 -->
<g id="Node000026" class="node">
<title>Node26</title>
<g id="a_Node000026"><a xlink:href="$_text_manager_8cpp.html#a84a9e24fc5cce3cebf746bb656909bf8" xlink:title=" ">
<polygon fill="white" stroke="#666666" points="1456.5,-119 1335.5,-119 1335.5,-99 1456.5,-99 1456.5,-119"/>
<text text-anchor="middle" x="1396" y="-105.5" font-family="Helvetica,sans-Serif" font-size="10.00">extractBetweenReverse</text>
</a>
</g>
</g>
<!-- Node19&#45;&gt;Node26 -->
<g id="edge72_Node000019_Node000026" class="edge">
<title>Node19&#45;&gt;Node26</title>
<g id="a_edge72_Node000019_Node000026"><a xlink:title=" ">
<path fill="none" stroke="#63b8ff" d="M1283.72,-99.06C1295.09,-100.08 1309.46,-101.36 1324.07,-102.67"/>
<polygon fill="#63b8ff" stroke="#63b8ff" points="1323.46,-106.13 1333.73,-103.53 1324.08,-99.15 1323.46,-106.13"/>
</a>
</g>
</g>
<!-- Node20&#45;&gt;Node21 -->
<g id="edge64_Node000020_Node000021" class="edge">
<title>Node20&#45;&gt;Node21</title>
<g id="a_edge64_Node000020_Node000021"><a xlink:title=" ">
<path fill="none" stroke="#63b8ff" d="M1438.62,-60.92C1453.36,-57.35 1470.05,-53.31 1485.27,-49.62"/>
<polygon fill="#63b8ff" stroke="#63b8ff" points="1485.68,-53.12 1494.58,-47.37 1484.03,-46.32 1485.68,-53.12"/>
</a>
</g>
</g>
<!-- Node20&#45;&gt;Node25 -->
<g id="edge70_Node000020_Node000025" class="edge">
<title>Node20&#45;&gt;Node25</title>
<g id="a_edge70_Node000020_Node000025"><a xlink:title=" ">
<path fill="none" stroke="#63b8ff" d="M1438.62,-81.08C1452.08,-84.34 1467.18,-88 1481.29,-91.42"/>
<polygon fill="#63b8ff" stroke="#63b8ff" points="1480.34,-94.79 1490.88,-93.74 1481.99,-87.98 1480.34,-94.79"/>
</a>
</g>
</g>
<!-- Node22 -->
<g id="Node000022" class="node">
<title>Node22</title>
<g id="a_Node000022"><a xlink:href="$_text_manager_8cpp.html#a5b66873abcff2faee361721f86b65dd0" xlink:title=" ">
<polygon fill="white" stroke="#666666" points="1690.25,-20 1622.5,-20 1622.5,0 1690.25,0 1690.25,-20"/>
<text text-anchor="middle" x="1656.38" y="-6.5" font-family="Helvetica,sans-Serif" font-size="10.00">getPosAfter</text>
</a>
</g>
</g>
<!-- Node21&#45;&gt;Node22 -->
<g id="edge65_Node000021_Node000022" class="edge">
<title>Node21&#45;&gt;Node22</title>
<g id="a_edge65_Node000021_Node000022"><a xlink:title=" ">
<path fill="none" stroke="#63b8ff" d="M1572.6,-29.29C1584.85,-26.44 1598.58,-23.24 1611.28,-20.28"/>
<polygon fill="#63b8ff" stroke="#63b8ff" points="1611.7,-23.77 1620.65,-18.09 1610.11,-16.96 1611.7,-23.77"/>
</a>
</g>
</g>
<!-- Node24 -->
<g id="Node000024" class="node">
<title>Node24</title>
<g id="a_Node000024"><a xlink:href="$_text_manager_8cpp.html#a2946b90fb3df56b0a74d53eb4160f4e2" xlink:title=" ">
<polygon fill="white" stroke="#666666" points="1700.75,-58 1612,-58 1612,-38 1700.75,-38 1700.75,-58"/>
<text text-anchor="middle" x="1656.38" y="-44.5" font-family="Helvetica,sans-Serif" font-size="10.00">getStringStarting</text>
</a>
</g>
</g>
<!-- Node21&#45;&gt;Node24 -->
<g id="edge67_Node000021_Node000024" class="edge">
<title>Node21&#45;&gt;Node24</title>
<g id="a_edge67_Node000021_Node000024"><a xlink:title=" ">
<path fill="none" stroke="#63b8ff" d="M1572.6,-41.11C1581.41,-41.84 1590.99,-42.64 1600.4,-43.42"/>
<polygon fill="#63b8ff" stroke="#63b8ff" points="1599.97,-46.9 1610.23,-44.24 1600.55,-39.92 1599.97,-46.9"/>
</a>
</g>
</g>
<!-- Node23 -->
<g id="Node000023" class="node">
<title>Node23</title>
<g id="a_Node000023"><a xlink:href="$_text_manager_8cpp.html#a3f4afb2b62acd297e783a22ffa9a7000" xlink:title=" ">
<polygon fill="white" stroke="#666666" points="1827,-58 1736.75,-58 1736.75,-38 1827,-38 1827,-58"/>
<text text-anchor="middle" x="1781.88" y="-44.5" font-family="Helvetica,sans-Serif" font-size="10.00">getSequencePos</text>
</a>
</g>
</g>
<!-- Node22&#45;&gt;Node23 -->
<g id="edge66_Node000022_Node000023" class="edge">
<title>Node22&#45;&gt;Node23</title>
<g id="a_edge66_Node000022_Node000023"><a xlink:title=" ">
<path fill="none" stroke="#63b8ff" d="M1690.47,-20.18C1704.5,-24.5 1721.06,-29.6 1736.16,-34.24"/>
<polygon fill="#63b8ff" stroke="#63b8ff" points="1734.79,-37.48 1745.38,-37.08 1736.85,-30.79 1734.79,-37.48"/>
</a>
</g>
</g>
<!-- Node24&#45;&gt;Node23 -->
<g id="edge68_Node000024_Node000023" class="edge">
<title>Node24&#45;&gt;Node23</title>
<g id="a_edge68_Node000024_Node000023"><a xlink:title=" ">
<path fill="none" stroke="#63b8ff" d="M1700.92,-48C1708.75,-48 1717.02,-48 1725.14,-48"/>
<polygon fill="#63b8ff" stroke="#63b8ff" points="1724.96,-51.5 1734.96,-48 1724.96,-44.5 1724.96,-51.5"/>
</a>
</g>
</g>
<!-- Node24&#45;&gt;Node24 -->
<g id="edge69_Node000024_Node000024" class="edge">
<title>Node24&#45;&gt;Node24</title>
<g id="a_edge69_Node000024_Node000024"><a xlink:title=" ">
<path fill="none" stroke="#63b8ff" d="M1636.97,-58.34C1628.68,-66.98 1635.15,-76 1656.38,-76 1667.98,-76 1675.18,-73.3 1677.96,-69.44"/>
<polygon fill="#63b8ff" stroke="#63b8ff" points="1681.43,-68.96 1676.07,-59.82 1674.56,-70.31 1681.43,-68.96"/>
</a>
</g>
</g>
<!-- Node25&#45;&gt;Node23 -->
<g id="edge71_Node000025_Node000023" class="edge">
<title>Node25&#45;&gt;Node23</title>
<g id="a_edge71_Node000025_Node000023"><a xlink:title=" ">
<path fill="none" stroke="#63b8ff" d="M1576.42,-102.9C1610.33,-101.13 1659.4,-96.6 1700.75,-85 1718.68,-79.97 1737.64,-71.38 1752.61,-63.74"/>
<polygon fill="#63b8ff" stroke="#63b8ff" points="1754.18,-66.87 1761.4,-59.12 1750.92,-60.68 1754.18,-66.87"/>
</a>
</g>
</g>
<!-- Node26&#45;&gt;Node21 -->
<g id="edge73_Node000026_Node000021" class="edge">
<title>Node26&#45;&gt;Node21</title>
<g id="a_edge73_Node000026_Node000021"><a xlink:title=" ">
<path fill="none" stroke="#63b8ff" d="M1435.41,-98.52C1442.56,-96.07 1449.87,-93.22 1456.5,-90 1476.21,-80.42 1496.67,-66.32 1511.5,-55.22"/>
<polygon fill="#63b8ff" stroke="#63b8ff" points="1513.35,-58.21 1519.17,-49.35 1509.1,-52.65 1513.35,-58.21"/>
</a>
</g>
</g>
<!-- Node26&#45;&gt;Node25 -->
<g id="edge74_Node000026_Node000025" class="edge">
<title>Node26&#45;&gt;Node25</title>
<g id="a_edge74_Node000026_Node000025"><a xlink:title=" ">
<path fill="none" stroke="#63b8ff" d="M1456.76,-106.81C1464.83,-106.51 1473.06,-106.21 1480.99,-105.92"/>
<polygon fill="#63b8ff" stroke="#63b8ff" points="1480.95,-109.42 1490.82,-105.56 1480.7,-102.43 1480.95,-109.42"/>
</a>
</g>
</g>
<!-- Node27&#45;&gt;Node21 -->
<g id="edge78_Node000027_Node000021" class="edge">
<title>Node27&#45;&gt;Node21</title>
<g id="a_edge78_Node000027_Node000021"><a xlink:title=" ">
<path fill="none" stroke="#63b8ff" d="M1436.04,-34.43C1451.23,-34.99 1468.79,-35.63 1484.77,-36.22"/>
<polygon fill="#63b8ff" stroke="#63b8ff" points="1484.44,-39.71 1494.56,-36.58 1484.7,-32.72 1484.44,-39.71"/>
</a>
</g>
</g>
<!-- Node27&#45;&gt;Node25 -->
<g id="edge79_Node000027_Node000025" class="edge">
<title>Node27&#45;&gt;Node25</title>
<g id="a_edge79_Node000027_Node000025"><a xlink:title=" ">
<path fill="none" stroke="#63b8ff" d="M1435.41,-43.48C1442.56,-45.93 1449.87,-48.78 1456.5,-52 1476.21,-61.58 1496.67,-75.68 1511.5,-86.78"/>
<polygon fill="#63b8ff" stroke="#63b8ff" points="1509.1,-89.35 1519.17,-92.65 1513.35,-83.79 1509.1,-89.35"/>
</a>
</g>
</g>
<!-- Node29 -->
<g id="Node000029" class="node">
<title>Node29</title>
<g id="a_Node000029"><a xlink:href="$class_bot_config.html#ab4929dd1c99a9e725800349a9cfc3b0e" xlink:title=" ">
<polygon fill="white" stroke="#666666" points="646.75,-147 482.25,-147 482.25,-127 646.75,-127 646.75,-147"/>
<text text-anchor="middle" x="564.5" y="-133.5" font-family="Helvetica,sans-Serif" font-size="10.00">BotConfig::updateDataBluestacks</text>
</a>
</g>
</g>
<!-- Node28&#45;&gt;Node29 -->
<g id="edge82_Node000028_Node000029" class="edge">
<title>Node28&#45;&gt;Node29</title>
<g id="a_edge82_Node000028_Node000029"><a xlink:title=" ">
<path fill="none" stroke="#63b8ff" d="M446.56,-137C454.48,-137 462.58,-137 470.64,-137"/>
<polygon fill="#63b8ff" stroke="#63b8ff" points="470.47,-140.5 480.47,-137 470.47,-133.5 470.47,-140.5"/>
</a>
</g>
</g>
<!-- Node29&#45;&gt;Node16 -->
<g id="edge83_Node000029_Node000016" class="edge">
<title>Node29&#45;&gt;Node16</title>
<g id="a_edge83_Node000029_Node000016"><a xlink:title=" ">
<path fill="none" stroke="#63b8ff" d="M647.19,-128.78C655.18,-127.97 663.3,-127.16 671.3,-126.35"/>
<polygon fill="#63b8ff" stroke="#63b8ff" points="671.41,-129.86 681.01,-125.37 670.71,-122.89 671.41,-129.86"/>
</a>
</g>
</g>
<!-- Node31 -->
<g id="Node000031" class="node">
<title>Node31</title>
<g id="a_Node000031"><a xlink:href="$class_bot_config.html#ae1e96b6b256aa8894b603259674f6a6f" xlink:title=" ">
<polygon fill="white" stroke="#666666" points="641.5,-109 487.5,-109 487.5,-89 641.5,-89 641.5,-109"/>
<text text-anchor="middle" x="564.5" y="-95.5" font-family="Helvetica,sans-Serif" font-size="10.00">BotConfig::updateDataLdPlayer</text>
</a>
</g>
</g>
<!-- Node30&#45;&gt;Node31 -->
<g id="edge85_Node000030_Node000031" class="edge">
<title>Node30&#45;&gt;Node31</title>
<g id="a_edge85_Node000030_Node000031"><a xlink:title=" ">
<path fill="none" stroke="#63b8ff" d="M441.27,-99C452.46,-99 464.12,-99 475.61,-99"/>
<polygon fill="#63b8ff" stroke="#63b8ff" points="475.5,-102.5 485.5,-99 475.5,-95.5 475.5,-102.5"/>
</a>
</g>
</g>
<!-- Node31&#45;&gt;Node16 -->
<g id="edge86_Node000031_Node000016" class="edge">
<title>Node31&#45;&gt;Node16</title>
<g id="a_edge86_Node000031_Node000016"><a xlink:title=" ">
<path fill="none" stroke="#63b8ff" d="M642,-106.7C651.62,-107.67 661.5,-108.66 671.22,-109.64"/>
<polygon fill="#63b8ff" stroke="#63b8ff" points="670.72,-113.11 681.02,-110.63 671.42,-106.14 670.72,-113.11"/>
</a>
</g>
</g>
</g>
</svg>
