<?xml version="1.0" encoding="UTF-8" standalone="no"?>
<!DOCTYPE svg PUBLIC "-//W3C//DTD SVG 1.1//EN"
 "http://www.w3.org/Graphics/SVG/1.1/DTD/svg11.dtd">
<!-- Generated by graphviz version 12.2.0 (20241103.1931)
 -->
<!-- Title: Ranking::doActivity Pages: 1 -->
<svg width="1371pt" height="426pt"
 viewBox="0.00 0.00 1371.00 426.00" xmlns="http://www.w3.org/2000/svg" xmlns:xlink="http://www.w3.org/1999/xlink">
<g id="graph0" class="graph" transform="scale(1 1) rotate(0) translate(4 422)">
<title>Ranking::doActivity</title>
<!-- Node1 -->
<g id="Node000001" class="node">
<title>Node1</title>
<g id="a_Node000001"><a xlink:title=" ">
<polygon fill="#999999" stroke="#666666" points="101.5,-200 0,-200 0,-180 101.5,-180 101.5,-200"/>
<text text-anchor="middle" x="50.75" y="-186.5" font-family="Helvetica,sans-Serif" font-size="10.00">Ranking::doActivity</text>
</a>
</g>
</g>
<!-- Node2 -->
<g id="Node000002" class="node">
<title>Node2</title>
<g id="a_Node000002"><a xlink:href="$class_interactions.html#a25637266a0bf2b2c77d5c7e276baabd0" xlink:title=" ">
<polygon fill="white" stroke="#666666" points="403.88,-276 321.12,-276 321.12,-256 403.88,-256 403.88,-276"/>
<text text-anchor="middle" x="362.5" y="-262.5" font-family="Helvetica,sans-Serif" font-size="10.00">Interactions::fA</text>
</a>
</g>
</g>
<!-- Node1&#45;&gt;Node2 -->
<g id="edge52_Node000001_Node000002" class="edge">
<title>Node1&#45;&gt;Node2</title>
<g id="a_edge52_Node000001_Node000002"><a xlink:title=" ">
<path fill="none" stroke="#63b8ff" d="M94.49,-200.49C150.62,-214.26 249.1,-238.42 309.49,-253.24"/>
<polygon fill="#63b8ff" stroke="#63b8ff" points="308.66,-256.64 319.2,-255.62 310.32,-249.84 308.66,-256.64"/>
</a>
</g>
</g>
<!-- Node15 -->
<g id="Node000015" class="node">
<title>Node15</title>
<g id="a_Node000015"><a xlink:href="$class_interactions.html#abd5b5d8a44970e1333e3611e302f166c" xlink:title=" ">
<polygon fill="white" stroke="#666666" points="892.12,-96 801.12,-96 801.12,-76 892.12,-76 892.12,-96"/>
<text text-anchor="middle" x="846.62" y="-82.5" font-family="Helvetica,sans-Serif" font-size="10.00">Interactions::wait</text>
</a>
</g>
</g>
<!-- Node1&#45;&gt;Node15 -->
<g id="edge102_Node000001_Node000015" class="edge">
<title>Node1&#45;&gt;Node15</title>
<g id="a_edge102_Node000001_Node000015"><a xlink:title=" ">
<path fill="none" stroke="#63b8ff" d="M64.08,-179.56C104.12,-146.77 235.2,-48 361.5,-48 361.5,-48 361.5,-48 529.5,-48 621.09,-48 726.54,-63.92 789.55,-75.15"/>
<polygon fill="#63b8ff" stroke="#63b8ff" points="788.85,-78.58 799.32,-76.92 790.1,-71.69 788.85,-78.58"/>
</a>
</g>
</g>
<!-- Node25 -->
<g id="Node000025" class="node">
<title>Node25</title>
<g id="a_Node000025"><a xlink:href="$class_interactions.html#a85395e185b74c6e25d0f27459b0de33c" xlink:title=" ">
<polygon fill="white" stroke="#666666" points="245.38,-276 157.38,-276 157.38,-256 245.38,-256 245.38,-276"/>
<text text-anchor="middle" x="201.38" y="-262.5" font-family="Helvetica,sans-Serif" font-size="10.00">Interactions::fcA</text>
</a>
</g>
</g>
<!-- Node1&#45;&gt;Node25 -->
<g id="edge79_Node000001_Node000025" class="edge">
<title>Node1&#45;&gt;Node25</title>
<g id="a_edge79_Node000001_Node000025"><a xlink:title=" ">
<path fill="none" stroke="#63b8ff" d="M67.08,-200.46C83.87,-211.64 111.85,-229.45 137.5,-242 144.41,-245.38 151.93,-248.61 159.28,-251.54"/>
<polygon fill="#63b8ff" stroke="#63b8ff" points="157.84,-254.74 168.43,-255.06 160.35,-248.21 157.84,-254.74"/>
</a>
</g>
</g>
<!-- Node26 -->
<g id="Node000026" class="node">
<title>Node26</title>
<g id="a_Node000026"><a xlink:href="$class_interactions.html#afd8c8bc50bb964d44f8880afefe7a6f9" xlink:title=" ">
<polygon fill="white" stroke="#666666" points="265.25,-200 137.5,-200 137.5,-180 265.25,-180 265.25,-200"/>
<text text-anchor="middle" x="201.38" y="-186.5" font-family="Helvetica,sans-Serif" font-size="10.00">Interactions::fcCompareA</text>
</a>
</g>
</g>
<!-- Node1&#45;&gt;Node26 -->
<g id="edge81_Node000001_Node000026" class="edge">
<title>Node1&#45;&gt;Node26</title>
<g id="a_edge81_Node000001_Node000026"><a xlink:title=" ">
<path fill="none" stroke="#63b8ff" d="M101.65,-190C109.39,-190 117.53,-190 125.67,-190"/>
<polygon fill="#63b8ff" stroke="#63b8ff" points="125.63,-193.5 135.63,-190 125.63,-186.5 125.63,-193.5"/>
</a>
</g>
</g>
<!-- Node32 -->
<g id="Node000032" class="node">
<title>Node32</title>
<g id="a_Node000032"><a xlink:href="$class_interactions.html#a9044fca002a4287ad1a89ce0422a68e5" xlink:title=" ">
<polygon fill="white" stroke="#666666" points="254,-20 148.75,-20 148.75,0 254,0 254,-20"/>
<text text-anchor="middle" x="201.38" y="-6.5" font-family="Helvetica,sans-Serif" font-size="10.00">Interactions::gSwipe</text>
</a>
</g>
</g>
<!-- Node1&#45;&gt;Node32 -->
<g id="edge97_Node000001_Node000032" class="edge">
<title>Node1&#45;&gt;Node32</title>
<g id="a_edge97_Node000001_Node000032"><a xlink:title=" ">
<path fill="none" stroke="#63b8ff" d="M54.67,-179.66C62.97,-152.08 89.25,-76.01 137.5,-34 141.32,-30.67 145.65,-27.78 150.21,-25.28"/>
<polygon fill="#63b8ff" stroke="#63b8ff" points="151.56,-28.52 159.07,-21.05 148.54,-22.2 151.56,-28.52"/>
</a>
</g>
</g>
<!-- Node3 -->
<g id="Node000003" class="node">
<title>Node3</title>
<g id="a_Node000003"><a xlink:href="$fopencv_8cpp.html#a69713584f69a121e4ed91918a64448a0" xlink:title=" ">
<polygon fill="white" stroke="#666666" points="886.88,-342 806.38,-342 806.38,-322 886.88,-322 886.88,-342"/>
<text text-anchor="middle" x="846.62" y="-328.5" font-family="Helvetica,sans-Serif" font-size="10.00">cvmtfTemplate</text>
</a>
</g>
</g>
<!-- Node2&#45;&gt;Node3 -->
<g id="edge53_Node000002_Node000003" class="edge">
<title>Node2&#45;&gt;Node3</title>
<g id="a_edge53_Node000002_Node000003"><a xlink:title=" ">
<path fill="none" stroke="#63b8ff" d="M373.58,-276.26C389.92,-292.08 424.01,-321.78 459.75,-333 575.27,-369.25 719.99,-353.82 795.12,-341.61"/>
<polygon fill="#63b8ff" stroke="#63b8ff" points="795.35,-345.12 804.63,-340.01 794.19,-338.22 795.35,-345.12"/>
</a>
</g>
</g>
<!-- Node9 -->
<g id="Node000009" class="node">
<title>Node9</title>
<g id="a_Node000009"><a xlink:href="$class_interactions.html#a5b5af2b125ff152043789cfcf70ffb2b" xlink:title=" ">
<polygon fill="white" stroke="#666666" points="591.62,-286 465.38,-286 465.38,-266 591.62,-266 591.62,-286"/>
<text text-anchor="middle" x="528.5" y="-272.5" font-family="Helvetica,sans-Serif" font-size="10.00">Interactions::getTemplate</text>
</a>
</g>
</g>
<!-- Node2&#45;&gt;Node9 -->
<g id="edge59_Node000002_Node000009" class="edge">
<title>Node2&#45;&gt;Node9</title>
<g id="a_edge59_Node000002_Node000009"><a xlink:title=" ">
<path fill="none" stroke="#63b8ff" d="M404.04,-268.47C419.13,-269.39 436.77,-270.47 453.92,-271.51"/>
<polygon fill="#63b8ff" stroke="#63b8ff" points="453.37,-274.99 463.57,-272.1 453.8,-268 453.37,-274.99"/>
</a>
</g>
</g>
<!-- Node11 -->
<g id="Node000011" class="node">
<title>Node11</title>
<g id="a_Node000011"><a xlink:href="$class_interactions.html#a0a0ffd9ad1990de31fd7b2773db32667" xlink:title=" ">
<polygon fill="white" stroke="#666666" points="589,-210 468,-210 468,-190 589,-190 589,-210"/>
<text text-anchor="middle" x="528.5" y="-196.5" font-family="Helvetica,sans-Serif" font-size="10.00">Interactions::loopPopUp</text>
</a>
</g>
</g>
<!-- Node2&#45;&gt;Node11 -->
<g id="edge61_Node000002_Node000011" class="edge">
<title>Node2&#45;&gt;Node11</title>
<g id="a_edge61_Node000002_Node000011"><a xlink:title=" ">
<path fill="none" stroke="#63b8ff" d="M389.49,-255.54C416.96,-244.49 460.49,-226.97 491.31,-214.56"/>
<polygon fill="#63b8ff" stroke="#63b8ff" points="492.26,-217.95 500.23,-210.97 489.65,-211.46 492.26,-217.95"/>
</a>
</g>
</g>
<!-- Node23 -->
<g id="Node000023" class="node">
<title>Node23</title>
<g id="a_Node000023"><a xlink:href="$class_interactions.html#ade7f52c59105f434650b9358b22e5488" xlink:title=" ">
<polygon fill="white" stroke="#666666" points="589,-324 468,-324 468,-304 589,-304 589,-324"/>
<text text-anchor="middle" x="528.5" y="-310.5" font-family="Helvetica,sans-Serif" font-size="10.00">Interactions::resetCount</text>
</a>
</g>
</g>
<!-- Node2&#45;&gt;Node23 -->
<g id="edge75_Node000002_Node000023" class="edge">
<title>Node2&#45;&gt;Node23</title>
<g id="a_edge75_Node000002_Node000023"><a xlink:title=" ">
<path fill="none" stroke="#63b8ff" d="M397.75,-276.49C416.11,-282.08 439.14,-289.01 459.75,-295 465.99,-296.81 472.56,-298.69 479.05,-300.53"/>
<polygon fill="#63b8ff" stroke="#63b8ff" points="477.8,-303.82 488.38,-303.17 479.7,-297.08 477.8,-303.82"/>
</a>
</g>
</g>
<!-- Node24 -->
<g id="Node000024" class="node">
<title>Node24</title>
<g id="a_Node000024"><a xlink:href="$class_interactions.html#ad7daddd9df3cea80e69872b8afd6c8dc" xlink:title=" ">
<polygon fill="white" stroke="#666666" points="597.25,-172 459.75,-172 459.75,-152 597.25,-152 597.25,-172"/>
<text text-anchor="middle" x="528.5" y="-158.5" font-family="Helvetica,sans-Serif" font-size="10.00">Interactions::templateFound</text>
</a>
</g>
</g>
<!-- Node2&#45;&gt;Node24 -->
<g id="edge76_Node000002_Node000024" class="edge">
<title>Node2&#45;&gt;Node24</title>
<g id="a_edge76_Node000002_Node000024"><a xlink:title=" ">
<path fill="none" stroke="#63b8ff" d="M383.73,-255.64C396.05,-248.77 411.69,-239.01 423.75,-228 443.18,-210.26 437.96,-195.75 459.75,-181 461.73,-179.66 463.79,-178.42 465.93,-177.26"/>
<polygon fill="#63b8ff" stroke="#63b8ff" points="467.34,-180.47 474.94,-173.09 464.4,-174.11 467.34,-180.47"/>
</a>
</g>
</g>
<!-- Node4 -->
<g id="Node000004" class="node">
<title>Node4</title>
<g id="a_Node000004"><a xlink:href="$fopencv_8cpp.html#af6fc77188d314c0d5a58888452f9b313" xlink:title=" ">
<polygon fill="white" stroke="#666666" points="1031.88,-342 964.12,-342 964.12,-322 1031.88,-322 1031.88,-342"/>
<text text-anchor="middle" x="998" y="-328.5" font-family="Helvetica,sans-Serif" font-size="10.00">extractZone</text>
</a>
</g>
</g>
<!-- Node3&#45;&gt;Node4 -->
<g id="edge54_Node000003_Node000004" class="edge">
<title>Node3&#45;&gt;Node4</title>
<g id="a_edge54_Node000003_Node000004"><a xlink:title=" ">
<path fill="none" stroke="#63b8ff" d="M887.26,-332C907.3,-332 931.68,-332 952.37,-332"/>
<polygon fill="#63b8ff" stroke="#63b8ff" points="952.24,-335.5 962.24,-332 952.24,-328.5 952.24,-335.5"/>
</a>
</g>
</g>
<!-- Node5 -->
<g id="Node000005" class="node">
<title>Node5</title>
<g id="a_Node000005"><a xlink:href="$struct_zone.html#a5301e7fcf185a5a79c1bf7d7930f4b8a" xlink:title=" ">
<polygon fill="white" stroke="#666666" points="1032.25,-304 963.75,-304 963.75,-284 1032.25,-284 1032.25,-304"/>
<text text-anchor="middle" x="998" y="-290.5" font-family="Helvetica,sans-Serif" font-size="10.00">Zone::isNull</text>
</a>
</g>
</g>
<!-- Node3&#45;&gt;Node5 -->
<g id="edge55_Node000003_Node000005" class="edge">
<title>Node3&#45;&gt;Node5</title>
<g id="a_edge55_Node000003_Node000005"><a xlink:title=" ">
<path fill="none" stroke="#63b8ff" d="M887.26,-321.92C907.24,-316.83 931.56,-310.65 952.21,-305.39"/>
<polygon fill="#63b8ff" stroke="#63b8ff" points="952.97,-308.81 961.79,-302.96 951.24,-302.03 952.97,-308.81"/>
</a>
</g>
</g>
<!-- Node7 -->
<g id="Node000007" class="node">
<title>Node7</title>
<g id="a_Node000007"><a xlink:href="$fopencv_8cpp.html#a1ed1ff1a9df2ab889e1423cb11a58c06" xlink:title=" ">
<polygon fill="white" stroke="#666666" points="1039.38,-418 956.62,-418 956.62,-398 1039.38,-398 1039.38,-418"/>
<text text-anchor="middle" x="998" y="-404.5" font-family="Helvetica,sans-Serif" font-size="10.00">messageFound</text>
</a>
</g>
</g>
<!-- Node3&#45;&gt;Node7 -->
<g id="edge57_Node000003_Node000007" class="edge">
<title>Node3&#45;&gt;Node7</title>
<g id="a_edge57_Node000003_Node000007"><a xlink:title=" ">
<path fill="none" stroke="#63b8ff" d="M862.02,-342.39C879.66,-354.77 910.78,-375.46 939.75,-389 943.22,-390.62 946.87,-392.17 950.58,-393.63"/>
<polygon fill="#63b8ff" stroke="#63b8ff" points="949.06,-396.8 959.65,-396.98 951.48,-390.23 949.06,-396.8"/>
</a>
</g>
</g>
<!-- Node8 -->
<g id="Node000008" class="node">
<title>Node8</title>
<g id="a_Node000008"><a xlink:href="$fopencv_8cpp.html#ae51fd1f3ed39bd8c9b8da4a313d5aeb3" xlink:title=" ">
<polygon fill="white" stroke="#666666" points="1047.25,-380 948.75,-380 948.75,-360 1047.25,-360 1047.25,-380"/>
<text text-anchor="middle" x="998" y="-366.5" font-family="Helvetica,sans-Serif" font-size="10.00">oneMatchTemplate</text>
</a>
</g>
</g>
<!-- Node3&#45;&gt;Node8 -->
<g id="edge58_Node000003_Node000008" class="edge">
<title>Node3&#45;&gt;Node8</title>
<g id="a_edge58_Node000003_Node000008"><a xlink:title=" ">
<path fill="none" stroke="#63b8ff" d="M887.26,-342.08C904.88,-346.57 925.87,-351.9 944.74,-356.71"/>
<polygon fill="#63b8ff" stroke="#63b8ff" points="943.85,-360.09 954.41,-359.16 945.58,-353.31 943.85,-360.09"/>
</a>
</g>
</g>
<!-- Node6 -->
<g id="Node000006" class="node">
<title>Node6</title>
<g id="a_Node000006"><a xlink:href="$struct_coord.html#a34c573cd6230e5a532f12ae97e7395e2" xlink:title=" ">
<polygon fill="white" stroke="#666666" points="1165.25,-304 1092.25,-304 1092.25,-284 1165.25,-284 1165.25,-304"/>
<text text-anchor="middle" x="1128.75" y="-290.5" font-family="Helvetica,sans-Serif" font-size="10.00">Coord::isNull</text>
</a>
</g>
</g>
<!-- Node5&#45;&gt;Node6 -->
<g id="edge56_Node000005_Node000006" class="edge">
<title>Node5&#45;&gt;Node6</title>
<g id="a_edge56_Node000005_Node000006"><a xlink:title=" ">
<path fill="none" stroke="#63b8ff" d="M1032.49,-294C1047.24,-294 1064.82,-294 1080.85,-294"/>
<polygon fill="#63b8ff" stroke="#63b8ff" points="1080.66,-297.5 1090.66,-294 1080.66,-290.5 1080.66,-297.5"/>
</a>
</g>
</g>
<!-- Node10 -->
<g id="Node000010" class="node">
<title>Node10</title>
<g id="a_Node000010"><a xlink:href="$struct_template.html#a93d3c6f97592ba09d7819fda3c3296d7" xlink:title=" ">
<polygon fill="white" stroke="#666666" points="741.5,-324 645.25,-324 645.25,-304 741.5,-304 741.5,-324"/>
<text text-anchor="middle" x="693.38" y="-310.5" font-family="Helvetica,sans-Serif" font-size="10.00">Template::setType</text>
</a>
</g>
</g>
<!-- Node9&#45;&gt;Node10 -->
<g id="edge60_Node000009_Node000010" class="edge">
<title>Node9&#45;&gt;Node10</title>
<g id="a_edge60_Node000009_Node000010"><a xlink:title=" ">
<path fill="none" stroke="#63b8ff" d="M574.44,-286.48C593.66,-290.97 616.31,-296.25 636.6,-300.99"/>
<polygon fill="#63b8ff" stroke="#63b8ff" points="635.58,-304.34 646.11,-303.21 637.17,-297.53 635.58,-304.34"/>
</a>
</g>
</g>
<!-- Node12 -->
<g id="Node000012" class="node">
<title>Node12</title>
<g id="a_Node000012"><a xlink:href="$fopencv_8cpp.html#a5c455ed716b7fa4c675446fc5b8ba4fb" xlink:title=" ">
<polygon fill="white" stroke="#666666" points="724.25,-248 662.5,-248 662.5,-228 724.25,-228 724.25,-248"/>
<text text-anchor="middle" x="693.38" y="-234.5" font-family="Helvetica,sans-Serif" font-size="10.00">CreateMat</text>
</a>
</g>
</g>
<!-- Node11&#45;&gt;Node12 -->
<g id="edge62_Node000011_Node000012" class="edge">
<title>Node11&#45;&gt;Node12</title>
<g id="a_edge62_Node000011_Node000012"><a xlink:title=" ">
<path fill="none" stroke="#63b8ff" d="M574.44,-210.48C598.55,-216.11 628.05,-222.99 651.51,-228.47"/>
<polygon fill="#63b8ff" stroke="#63b8ff" points="650.49,-231.82 661.02,-230.68 652.08,-225 650.49,-231.82"/>
</a>
</g>
</g>
<!-- Node13 -->
<g id="Node000013" class="node">
<title>Node13</title>
<g id="a_Node000013"><a xlink:href="$class_interactions.html#aed04f9177d2aba467d71818a5e82c7bc" xlink:title=" ">
<polygon fill="white" stroke="#666666" points="750.5,-210 636.25,-210 636.25,-190 750.5,-190 750.5,-210"/>
<text text-anchor="middle" x="693.38" y="-196.5" font-family="Helvetica,sans-Serif" font-size="10.00">Interactions::fcpopupA</text>
</a>
</g>
</g>
<!-- Node11&#45;&gt;Node13 -->
<g id="edge63_Node000011_Node000013" class="edge">
<title>Node11&#45;&gt;Node13</title>
<g id="a_edge63_Node000011_Node000013"><a xlink:title=" ">
<path fill="none" stroke="#63b8ff" d="M589.22,-200C600.66,-200 612.72,-200 624.4,-200"/>
<polygon fill="#63b8ff" stroke="#63b8ff" points="624.4,-203.5 634.4,-200 624.4,-196.5 624.4,-203.5"/>
</a>
</g>
</g>
<!-- Node16 -->
<g id="Node000016" class="node">
<title>Node16</title>
<g id="a_Node000016"><a xlink:href="$fadb_8cpp.html#aeec40a5f78ae4713eedd84cb5f75746f" xlink:title=" ">
<polygon fill="white" stroke="#666666" points="725.38,-134 661.38,-134 661.38,-114 725.38,-114 725.38,-134"/>
<text text-anchor="middle" x="693.38" y="-120.5" font-family="Helvetica,sans-Serif" font-size="10.00">screenshot</text>
</a>
</g>
</g>
<!-- Node11&#45;&gt;Node16 -->
<g id="edge68_Node000011_Node000016" class="edge">
<title>Node11&#45;&gt;Node16</title>
<g id="a_edge68_Node000011_Node000016"><a xlink:title=" ">
<path fill="none" stroke="#63b8ff" d="M573.47,-189.52C581.51,-187.08 589.73,-184.24 597.25,-181 622.76,-170.01 649.73,-153.31 668.41,-140.81"/>
<polygon fill="#63b8ff" stroke="#63b8ff" points="670.33,-143.74 676.63,-135.22 666.39,-137.96 670.33,-143.74"/>
</a>
</g>
</g>
<!-- Node13&#45;&gt;Node3 -->
<g id="edge66_Node000013_Node000003" class="edge">
<title>Node13&#45;&gt;Node3</title>
<g id="a_edge66_Node000013_Node000003"><a xlink:title=" ">
<path fill="none" stroke="#63b8ff" d="M740.77,-210.48C745.4,-212.78 749.76,-215.58 753.5,-219 783.78,-246.68 761.41,-274.1 789.5,-304 793.99,-308.78 799.47,-312.86 805.23,-316.3"/>
<polygon fill="#63b8ff" stroke="#63b8ff" points="803.25,-319.21 813.73,-320.81 806.53,-313.03 803.25,-319.21"/>
</a>
</g>
</g>
<!-- Node14 -->
<g id="Node000014" class="node">
<title>Node14</title>
<g id="a_Node000014"><a xlink:href="$class_interactions.html#aae6172962092f278714536142e987cde" xlink:title=" ">
<polygon fill="white" stroke="#666666" points="893.25,-172 800,-172 800,-152 893.25,-152 893.25,-172"/>
<text text-anchor="middle" x="846.62" y="-158.5" font-family="Helvetica,sans-Serif" font-size="10.00">Interactions::click</text>
</a>
</g>
</g>
<!-- Node13&#45;&gt;Node14 -->
<g id="edge64_Node000013_Node000014" class="edge">
<title>Node13&#45;&gt;Node14</title>
<g id="a_edge64_Node000013_Node000014"><a xlink:title=" ">
<path fill="none" stroke="#63b8ff" d="M736.11,-189.52C753.71,-185.09 774.41,-179.89 793.04,-175.21"/>
<polygon fill="#63b8ff" stroke="#63b8ff" points="793.72,-178.65 802.56,-172.82 792.01,-171.86 793.72,-178.65"/>
</a>
</g>
</g>
<!-- Node13&#45;&gt;Node15 -->
<g id="edge67_Node000013_Node000015" class="edge">
<title>Node13&#45;&gt;Node15</title>
<g id="a_edge67_Node000013_Node000015"><a xlink:title=" ">
<path fill="none" stroke="#63b8ff" d="M705.42,-189.64C717.4,-178.33 737.04,-159.61 753.5,-143 769.88,-126.48 769.91,-117.54 789.5,-105 791.73,-103.57 794.08,-102.24 796.5,-101"/>
<polygon fill="#63b8ff" stroke="#63b8ff" points="797.68,-104.31 805.36,-97.01 794.81,-97.92 797.68,-104.31"/>
</a>
</g>
</g>
<!-- Node14&#45;&gt;Node14 -->
<g id="edge65_Node000014_Node000014" class="edge">
<title>Node14&#45;&gt;Node14</title>
<g id="a_edge65_Node000014_Node000014"><a xlink:title=" ">
<path fill="none" stroke="#63b8ff" d="M822.57,-172.34C812.29,-180.98 820.31,-190 846.62,-190 861.02,-190 869.93,-187.3 873.38,-183.44"/>
<polygon fill="#63b8ff" stroke="#63b8ff" points="876.8,-182.7 871.03,-173.81 870,-184.35 876.8,-182.7"/>
</a>
</g>
</g>
<!-- Node17 -->
<g id="Node000017" class="node">
<title>Node17</title>
<g id="a_Node000017"><a xlink:href="$fadb_8cpp.html#a7ab9819839864ebd26d0e7e68e330418" xlink:title=" ">
<polygon fill="white" stroke="#666666" points="888.75,-134 804.5,-134 804.5,-114 888.75,-114 888.75,-134"/>
<text text-anchor="middle" x="846.62" y="-120.5" font-family="Helvetica,sans-Serif" font-size="10.00">takeScreenshot</text>
</a>
</g>
</g>
<!-- Node16&#45;&gt;Node17 -->
<g id="edge69_Node000016_Node000017" class="edge">
<title>Node16&#45;&gt;Node17</title>
<g id="a_edge69_Node000016_Node000017"><a xlink:title=" ">
<path fill="none" stroke="#63b8ff" d="M725.71,-124C745.09,-124 770.46,-124 792.87,-124"/>
<polygon fill="#63b8ff" stroke="#63b8ff" points="792.76,-127.5 802.76,-124 792.76,-120.5 792.76,-127.5"/>
</a>
</g>
</g>
<!-- Node18 -->
<g id="Node000018" class="node">
<title>Node18</title>
<g id="a_Node000018"><a xlink:href="$fadb_8cpp.html#ac6339b59ba8238f7483dece7f3fdf51b" xlink:title=" ">
<polygon fill="white" stroke="#666666" points="1042.38,-96 953.62,-96 953.62,-76 1042.38,-76 1042.38,-96"/>
<text text-anchor="middle" x="998" y="-82.5" font-family="Helvetica,sans-Serif" font-size="10.00">runAdbLocalhost</text>
</a>
</g>
</g>
<!-- Node17&#45;&gt;Node18 -->
<g id="edge70_Node000017_Node000018" class="edge">
<title>Node17&#45;&gt;Node18</title>
<g id="a_edge70_Node000017_Node000018"><a xlink:title=" ">
<path fill="none" stroke="#63b8ff" d="M888.84,-113.52C906.14,-109.11 926.47,-103.94 944.81,-99.28"/>
<polygon fill="#63b8ff" stroke="#63b8ff" points="945.63,-102.68 954.45,-96.82 943.9,-95.9 945.63,-102.68"/>
</a>
</g>
</g>
<!-- Node19 -->
<g id="Node000019" class="node">
<title>Node19</title>
<g id="a_Node000019"><a xlink:href="$fadb_8cpp.html#a383ae5fedc9f597a03c74c729a2eb740" xlink:title=" ">
<polygon fill="white" stroke="#666666" points="1152.12,-96 1105.38,-96 1105.38,-76 1152.12,-76 1152.12,-96"/>
<text text-anchor="middle" x="1128.75" y="-82.5" font-family="Helvetica,sans-Serif" font-size="10.00">runAdb</text>
</a>
</g>
</g>
<!-- Node18&#45;&gt;Node19 -->
<g id="edge71_Node000018_Node000019" class="edge">
<title>Node18&#45;&gt;Node19</title>
<g id="a_edge71_Node000018_Node000019"><a xlink:title=" ">
<path fill="none" stroke="#63b8ff" d="M1042.59,-86C1059.33,-86 1078.18,-86 1093.87,-86"/>
<polygon fill="#63b8ff" stroke="#63b8ff" points="1093.66,-89.5 1103.66,-86 1093.66,-82.5 1093.66,-89.5"/>
</a>
</g>
</g>
<!-- Node20 -->
<g id="Node000020" class="node">
<title>Node20</title>
<g id="a_Node000020"><a xlink:href="$sys_commands_8cpp.html#a321eb7e335377aa7182bafc8a1605032" xlink:title=" ">
<polygon fill="white" stroke="#666666" points="1268.25,-96 1201.25,-96 1201.25,-76 1268.25,-76 1268.25,-96"/>
<text text-anchor="middle" x="1234.75" y="-82.5" font-family="Helvetica,sans-Serif" font-size="10.00">receivePipe</text>
</a>
</g>
</g>
<!-- Node19&#45;&gt;Node20 -->
<g id="edge72_Node000019_Node000020" class="edge">
<title>Node19&#45;&gt;Node20</title>
<g id="a_edge72_Node000019_Node000020"><a xlink:title=" ">
<path fill="none" stroke="#63b8ff" d="M1152.57,-86C1163.47,-86 1176.89,-86 1189.66,-86"/>
<polygon fill="#63b8ff" stroke="#63b8ff" points="1189.6,-89.5 1199.6,-86 1189.6,-82.5 1189.6,-89.5"/>
</a>
</g>
</g>
<!-- Node21 -->
<g id="Node000021" class="node">
<title>Node21</title>
<g id="a_Node000021"><a xlink:href="$sys_commands_8cpp.html#a4771c79171a937893508dabadadbe099" xlink:title=" ">
<polygon fill="white" stroke="#666666" points="1363,-115 1304.25,-115 1304.25,-95 1363,-95 1363,-115"/>
<text text-anchor="middle" x="1333.62" y="-101.5" font-family="Helvetica,sans-Serif" font-size="10.00">closePipe</text>
</a>
</g>
</g>
<!-- Node20&#45;&gt;Node21 -->
<g id="edge73_Node000020_Node000021" class="edge">
<title>Node20&#45;&gt;Node21</title>
<g id="a_edge73_Node000020_Node000021"><a xlink:title=" ">
<path fill="none" stroke="#63b8ff" d="M1268.55,-92.43C1276.31,-93.95 1284.67,-95.59 1292.71,-97.17"/>
<polygon fill="#63b8ff" stroke="#63b8ff" points="1291.78,-100.56 1302.27,-99.05 1293.13,-93.69 1291.78,-100.56"/>
</a>
</g>
</g>
<!-- Node22 -->
<g id="Node000022" class="node">
<title>Node22</title>
<g id="a_Node000022"><a xlink:href="$sys_commands_8cpp.html#a3499ce0cd7e4ed28b3c5461a4d3aec84" xlink:title=" ">
<polygon fill="white" stroke="#666666" points="1361.88,-77 1305.38,-77 1305.38,-57 1361.88,-57 1361.88,-77"/>
<text text-anchor="middle" x="1333.62" y="-63.5" font-family="Helvetica,sans-Serif" font-size="10.00">openPipe</text>
</a>
</g>
</g>
<!-- Node20&#45;&gt;Node22 -->
<g id="edge74_Node000020_Node000022" class="edge">
<title>Node20&#45;&gt;Node22</title>
<g id="a_edge74_Node000020_Node000022"><a xlink:title=" ">
<path fill="none" stroke="#63b8ff" d="M1268.55,-79.57C1276.7,-77.97 1285.51,-76.24 1293.92,-74.59"/>
<polygon fill="#63b8ff" stroke="#63b8ff" points="1294.4,-78.06 1303.54,-72.7 1293.05,-71.19 1294.4,-78.06"/>
</a>
</g>
</g>
<!-- Node24&#45;&gt;Node14 -->
<g id="edge77_Node000024_Node000014" class="edge">
<title>Node24&#45;&gt;Node14</title>
<g id="a_edge77_Node000024_Node000014"><a xlink:title=" ">
<path fill="none" stroke="#63b8ff" d="M597.71,-162C654.69,-162 735.01,-162 788.62,-162"/>
<polygon fill="#63b8ff" stroke="#63b8ff" points="788.46,-165.5 798.46,-162 788.46,-158.5 788.46,-165.5"/>
</a>
</g>
</g>
<!-- Node24&#45;&gt;Node15 -->
<g id="edge78_Node000024_Node000015" class="edge">
<title>Node24&#45;&gt;Node15</title>
<g id="a_edge78_Node000024_Node000015"><a xlink:title=" ">
<path fill="none" stroke="#63b8ff" d="M543.75,-151.64C563,-138.27 598.85,-115.48 633.25,-105 684.5,-89.38 745.68,-85.35 789.18,-84.8"/>
<polygon fill="#63b8ff" stroke="#63b8ff" points="789.19,-88.3 799.17,-84.73 789.15,-81.3 789.19,-88.3"/>
</a>
</g>
</g>
<!-- Node25&#45;&gt;Node2 -->
<g id="edge80_Node000025_Node000002" class="edge">
<title>Node25&#45;&gt;Node2</title>
<g id="a_edge80_Node000025_Node000002"><a xlink:title=" ">
<path fill="none" stroke="#63b8ff" d="M245.86,-266C265.49,-266 288.83,-266 309.39,-266"/>
<polygon fill="#63b8ff" stroke="#63b8ff" points="309.29,-269.5 319.29,-266 309.29,-262.5 309.29,-269.5"/>
</a>
</g>
</g>
<!-- Node27 -->
<g id="Node000027" class="node">
<title>Node27</title>
<g id="a_Node000027"><a xlink:href="$class_interactions.html#ad24b4992a69c681dc645d213527d2a07" xlink:title=" ">
<polygon fill="white" stroke="#666666" points="423.75,-219 301.25,-219 301.25,-199 423.75,-199 423.75,-219"/>
<text text-anchor="middle" x="362.5" y="-205.5" font-family="Helvetica,sans-Serif" font-size="10.00">Interactions::fCompareA</text>
</a>
</g>
</g>
<!-- Node26&#45;&gt;Node27 -->
<g id="edge82_Node000026_Node000027" class="edge">
<title>Node26&#45;&gt;Node27</title>
<g id="a_edge82_Node000026_Node000027"><a xlink:title=" ">
<path fill="none" stroke="#63b8ff" d="M265.72,-197.56C273.62,-198.51 281.73,-199.48 289.74,-200.43"/>
<polygon fill="#63b8ff" stroke="#63b8ff" points="289.11,-203.88 299.46,-201.59 289.94,-196.93 289.11,-203.88"/>
</a>
</g>
</g>
<!-- Node27&#45;&gt;Node9 -->
<g id="edge93_Node000027_Node000009" class="edge">
<title>Node27&#45;&gt;Node9</title>
<g id="a_edge93_Node000027_Node000009"><a xlink:title=" ">
<path fill="none" stroke="#63b8ff" d="M385.46,-219.41C404.83,-228.45 433.92,-241.67 459.75,-252 468.06,-255.32 477.03,-258.67 485.64,-261.76"/>
<polygon fill="#63b8ff" stroke="#63b8ff" points="484.25,-264.98 494.85,-265.02 486.59,-258.38 484.25,-264.98"/>
</a>
</g>
</g>
<!-- Node27&#45;&gt;Node11 -->
<g id="edge94_Node000027_Node000011" class="edge">
<title>Node27&#45;&gt;Node11</title>
<g id="a_edge94_Node000027_Node000011"><a xlink:title=" ">
<path fill="none" stroke="#63b8ff" d="M424.1,-205.67C434.55,-205.1 445.51,-204.5 456.21,-203.91"/>
<polygon fill="#63b8ff" stroke="#63b8ff" points="456.39,-207.41 466.18,-203.36 456.01,-200.42 456.39,-207.41"/>
</a>
</g>
</g>
<!-- Node27&#45;&gt;Node23 -->
<g id="edge95_Node000027_Node000023" class="edge">
<title>Node27&#45;&gt;Node23</title>
<g id="a_edge95_Node000027_Node000023"><a xlink:title=" ">
<path fill="none" stroke="#63b8ff" d="M384.05,-219.48C396.34,-226.32 411.84,-236.02 423.75,-247 443.35,-265.08 437.75,-279.94 459.75,-295 461.72,-296.35 463.78,-297.6 465.91,-298.77"/>
<polygon fill="#63b8ff" stroke="#63b8ff" points="464.37,-301.91 474.91,-302.96 467.32,-295.56 464.37,-301.91"/>
</a>
</g>
</g>
<!-- Node27&#45;&gt;Node24 -->
<g id="edge96_Node000027_Node000024" class="edge">
<title>Node27&#45;&gt;Node24</title>
<g id="a_edge96_Node000027_Node000024"><a xlink:title=" ">
<path fill="none" stroke="#63b8ff" d="M399.13,-198.55C417.27,-193.25 439.67,-186.74 459.75,-181 466,-179.22 472.57,-177.35 479.07,-175.52"/>
<polygon fill="#63b8ff" stroke="#63b8ff" points="479.72,-178.97 488.4,-172.9 477.82,-172.24 479.72,-178.97"/>
</a>
</g>
</g>
<!-- Node28 -->
<g id="Node000028" class="node">
<title>Node28</title>
<g id="a_Node000028"><a xlink:href="$fopencv_8cpp.html#a248b5cdc64398082a700818b8e29ff59" xlink:title=" ">
<polygon fill="white" stroke="#666666" points="753.5,-286 633.25,-286 633.25,-266 753.5,-266 753.5,-286"/>
<text text-anchor="middle" x="693.38" y="-272.5" font-family="Helvetica,sans-Serif" font-size="10.00">cvmtfCompareTemplate</text>
</a>
</g>
</g>
<!-- Node27&#45;&gt;Node28 -->
<g id="edge83_Node000027_Node000028" class="edge">
<title>Node27&#45;&gt;Node28</title>
<g id="a_edge83_Node000027_Node000028"><a xlink:title=" ">
<path fill="none" stroke="#63b8ff" d="M414.89,-219.47C472.97,-231.3 567.51,-250.56 629.83,-263.26"/>
<polygon fill="#63b8ff" stroke="#63b8ff" points="629.1,-266.68 639.6,-265.25 630.5,-259.82 629.1,-266.68"/>
</a>
</g>
</g>
<!-- Node28&#45;&gt;Node3 -->
<g id="edge90_Node000028_Node000003" class="edge">
<title>Node28&#45;&gt;Node3</title>
<g id="a_edge90_Node000028_Node000003"><a xlink:title=" ">
<path fill="none" stroke="#63b8ff" d="M728.28,-286.44C736.57,-289.12 745.39,-292.07 753.5,-295 772.52,-301.86 793.45,-310.21 810.55,-317.23"/>
<polygon fill="#63b8ff" stroke="#63b8ff" points="809.2,-320.46 819.77,-321.05 811.87,-313.99 809.2,-320.46"/>
</a>
</g>
</g>
<!-- Node28&#45;&gt;Node7 -->
<g id="edge92_Node000028_Node000007" class="edge">
<title>Node28&#45;&gt;Node7</title>
<g id="a_edge92_Node000028_Node000007"><a xlink:title=" ">
<path fill="none" stroke="#63b8ff" d="M738.7,-286.46C743.98,-288.77 749.05,-291.58 753.5,-295 776.96,-313.03 765.66,-333.48 789.5,-351 835.33,-384.68 900.04,-398.46 944.96,-404.1"/>
<polygon fill="#63b8ff" stroke="#63b8ff" points="944.38,-407.55 954.71,-405.22 945.18,-400.6 944.38,-407.55"/>
</a>
</g>
</g>
<!-- Node29 -->
<g id="Node000029" class="node">
<title>Node29</title>
<g id="a_Node000029"><a xlink:href="$fopencv_8cpp.html#a95c56af5716e2b2d1b4df612796cc229" xlink:title=" ">
<polygon fill="white" stroke="#666666" points="903.75,-295 789.5,-295 789.5,-275 903.75,-275 903.75,-295"/>
<text text-anchor="middle" x="846.62" y="-281.5" font-family="Helvetica,sans-Serif" font-size="10.00">cvmtfMultipleTemplate</text>
</a>
</g>
</g>
<!-- Node28&#45;&gt;Node29 -->
<g id="edge84_Node000028_Node000029" class="edge">
<title>Node28&#45;&gt;Node29</title>
<g id="a_edge84_Node000028_Node000029"><a xlink:title=" ">
<path fill="none" stroke="#63b8ff" d="M753.72,-279.53C761.71,-280.01 769.95,-280.5 778.07,-280.98"/>
<polygon fill="#63b8ff" stroke="#63b8ff" points="777.72,-284.47 787.91,-281.57 778.13,-277.48 777.72,-284.47"/>
</a>
</g>
</g>
<!-- Node31 -->
<g id="Node000031" class="node">
<title>Node31</title>
<g id="a_Node000031"><a xlink:href="$fopencv_8cpp.html#a6abdcaeee06b3da6f210daf0162bcd01" xlink:title=" ">
<polygon fill="white" stroke="#666666" points="1158.12,-238 1099.38,-238 1099.38,-218 1158.12,-218 1158.12,-238"/>
<text text-anchor="middle" x="1128.75" y="-224.5" font-family="Helvetica,sans-Serif" font-size="10.00">intersects</text>
</a>
</g>
</g>
<!-- Node28&#45;&gt;Node31 -->
<g id="edge91_Node000028_Node000031" class="edge">
<title>Node28&#45;&gt;Node31</title>
<g id="a_edge91_Node000028_Node000031"><a xlink:title=" ">
<path fill="none" stroke="#63b8ff" d="M749.21,-265.52C798.79,-256.46 873.89,-243.79 939.75,-237 990.71,-231.75 1049.76,-229.55 1087.88,-228.64"/>
<polygon fill="#63b8ff" stroke="#63b8ff" points="1087.58,-232.15 1097.5,-228.43 1087.42,-225.15 1087.58,-232.15"/>
</a>
</g>
</g>
<!-- Node29&#45;&gt;Node4 -->
<g id="edge85_Node000029_Node000004" class="edge">
<title>Node29&#45;&gt;Node4</title>
<g id="a_edge85_Node000029_Node000004"><a xlink:title=" ">
<path fill="none" stroke="#63b8ff" d="M880.78,-295.43C901.98,-302.1 929.72,-310.83 952.79,-318.09"/>
<polygon fill="#63b8ff" stroke="#63b8ff" points="951.65,-321.4 962.24,-321.06 953.75,-314.72 951.65,-321.4"/>
</a>
</g>
</g>
<!-- Node29&#45;&gt;Node5 -->
<g id="edge86_Node000029_Node000005" class="edge">
<title>Node29&#45;&gt;Node5</title>
<g id="a_edge86_Node000029_Node000005"><a xlink:title=" ">
<path fill="none" stroke="#63b8ff" d="M904.1,-288.4C920.03,-289.36 937.14,-290.39 952.28,-291.31"/>
<polygon fill="#63b8ff" stroke="#63b8ff" points="951.72,-294.78 961.91,-291.89 952.14,-287.79 951.72,-294.78"/>
</a>
</g>
</g>
<!-- Node30 -->
<g id="Node000030" class="node">
<title>Node30</title>
<g id="a_Node000030"><a xlink:href="$fopencv_8cpp.html#a7521a083566181475d36ee14aad60f1d" xlink:title=" ">
<polygon fill="white" stroke="#666666" points="1056.25,-266 939.75,-266 939.75,-246 1056.25,-246 1056.25,-266"/>
<text text-anchor="middle" x="998" y="-252.5" font-family="Helvetica,sans-Serif" font-size="10.00">multipleMatchTemplate</text>
</a>
</g>
</g>
<!-- Node29&#45;&gt;Node30 -->
<g id="edge87_Node000029_Node000030" class="edge">
<title>Node29&#45;&gt;Node30</title>
<g id="a_edge87_Node000029_Node000030"><a xlink:title=" ">
<path fill="none" stroke="#63b8ff" d="M901.55,-274.53C911.39,-272.62 921.75,-270.61 931.87,-268.65"/>
<polygon fill="#63b8ff" stroke="#63b8ff" points="932.52,-272.08 941.67,-266.74 931.18,-265.21 932.52,-272.08"/>
</a>
</g>
</g>
<!-- Node30&#45;&gt;Node31 -->
<g id="edge88_Node000030_Node000031" class="edge">
<title>Node30&#45;&gt;Node31</title>
<g id="a_edge88_Node000030_Node000031"><a xlink:title=" ">
<path fill="none" stroke="#63b8ff" d="M1046.94,-245.57C1060.54,-242.62 1075.2,-239.43 1088.24,-236.59"/>
<polygon fill="#63b8ff" stroke="#63b8ff" points="1088.71,-240.07 1097.74,-234.53 1087.23,-233.23 1088.71,-240.07"/>
</a>
</g>
</g>
<!-- Node31&#45;&gt;Node31 -->
<g id="edge89_Node000031_Node000031" class="edge">
<title>Node31&#45;&gt;Node31</title>
<g id="a_edge89_Node000031_Node000031"><a xlink:title=" ">
<path fill="none" stroke="#63b8ff" d="M1111.91,-238.34C1104.71,-246.98 1110.32,-256 1128.75,-256 1138.83,-256 1145.07,-253.3 1147.48,-249.44"/>
<polygon fill="#63b8ff" stroke="#63b8ff" points="1150.98,-249.1 1145.85,-239.83 1144.08,-250.28 1150.98,-249.1"/>
</a>
</g>
</g>
<!-- Node33 -->
<g id="Node000033" class="node">
<title>Node33</title>
<g id="a_Node000033"><a xlink:href="$fadb_8cpp.html#aaaa05d37f22f833c0f941bf81f963504" xlink:title=" ">
<polygon fill="white" stroke="#666666" points="383.25,-20 341.75,-20 341.75,0 383.25,0 383.25,-20"/>
<text text-anchor="middle" x="362.5" y="-6.5" font-family="Helvetica,sans-Serif" font-size="10.00">swipe</text>
</a>
</g>
</g>
<!-- Node32&#45;&gt;Node33 -->
<g id="edge98_Node000032_Node000033" class="edge">
<title>Node32&#45;&gt;Node33</title>
<g id="a_edge98_Node000032_Node000033"><a xlink:title=" ">
<path fill="none" stroke="#63b8ff" d="M254.48,-10C279.45,-10 308.53,-10 330.07,-10"/>
<polygon fill="#63b8ff" stroke="#63b8ff" points="329.97,-13.5 339.97,-10 329.97,-6.5 329.97,-13.5"/>
</a>
</g>
</g>
<!-- Node34 -->
<g id="Node000034" class="node">
<title>Node34</title>
<g id="a_Node000034"><a xlink:href="$fadb_8cpp.html#a735aed1798e65a5276053c44211ce025" xlink:title=" ">
<polygon fill="white" stroke="#666666" points="547,-20 510,-20 510,0 547,0 547,-20"/>
<text text-anchor="middle" x="528.5" y="-6.5" font-family="Helvetica,sans-Serif" font-size="10.00">input</text>
</a>
</g>
</g>
<!-- Node33&#45;&gt;Node34 -->
<g id="edge99_Node000033_Node000034" class="edge">
<title>Node33&#45;&gt;Node34</title>
<g id="a_edge99_Node000033_Node000034"><a xlink:title=" ">
<path fill="none" stroke="#63b8ff" d="M383.61,-10C412.4,-10 465.54,-10 498.56,-10"/>
<polygon fill="#63b8ff" stroke="#63b8ff" points="498.22,-13.5 508.22,-10 498.22,-6.5 498.22,-13.5"/>
</a>
</g>
</g>
<!-- Node35 -->
<g id="Node000035" class="node">
<title>Node35</title>
<g id="a_Node000035"><a xlink:href="$fadb_8cpp.html#a0766d8b572678e0a830d45a4dcfb9d4d" xlink:title=" ">
<polygon fill="white" stroke="#666666" points="901.88,-39 791.38,-39 791.38,-19 901.88,-19 901.88,-39"/>
<text text-anchor="middle" x="846.62" y="-25.5" font-family="Helvetica,sans-Serif" font-size="10.00">runAdbLocalhostShell</text>
</a>
</g>
</g>
<!-- Node34&#45;&gt;Node35 -->
<g id="edge100_Node000034_Node000035" class="edge">
<title>Node34&#45;&gt;Node35</title>
<g id="a_edge100_Node000034_Node000035"><a xlink:title=" ">
<path fill="none" stroke="#63b8ff" d="M547.4,-11.08C591.29,-13.71 706.02,-20.61 779.71,-25.04"/>
<polygon fill="#63b8ff" stroke="#63b8ff" points="779.46,-28.53 789.65,-25.64 779.88,-21.54 779.46,-28.53"/>
</a>
</g>
</g>
<!-- Node35&#45;&gt;Node18 -->
<g id="edge101_Node000035_Node000018" class="edge">
<title>Node35&#45;&gt;Node18</title>
<g id="a_edge101_Node000035_Node000018"><a xlink:title=" ">
<path fill="none" stroke="#63b8ff" d="M875.02,-39.45C898.53,-48.43 932.66,-61.45 958.84,-71.44"/>
<polygon fill="#63b8ff" stroke="#63b8ff" points="957.52,-74.68 968.11,-74.98 960.01,-68.14 957.52,-74.68"/>
</a>
</g>
</g>
</g>
</svg>
