<?xml version="1.0" encoding="UTF-8" standalone="no"?>
<!DOCTYPE svg PUBLIC "-//W3C//DTD SVG 1.1//EN"
 "http://www.w3.org/Graphics/SVG/1.1/DTD/svg11.dtd">
<!-- Generated by graphviz version 12.2.0 (20241103.1931)
 -->
<!-- Title: fsfml::OnSprite Pages: 1 -->
<svg width="953pt" height="104pt"
 viewBox="0.00 0.00 953.25 104.00" xmlns="http://www.w3.org/2000/svg" xmlns:xlink="http://www.w3.org/1999/xlink">
<g id="graph0" class="graph" transform="scale(1 1) rotate(0) translate(4 100)">
<title>fsfml::OnSprite</title>
<!-- Node1 -->
<g id="Node000001" class="node">
<title>Node1</title>
<g id="a_Node000001"><a xlink:title=" ">
<polygon fill="#999999" stroke="#666666" points="945.25,-58 863.25,-58 863.25,-38 945.25,-38 945.25,-58"/>
<text text-anchor="middle" x="904.25" y="-44.5" font-family="Helvetica,sans-Serif" font-size="10.00">fsfml::OnSprite</text>
</a>
</g>
</g>
<!-- Node2 -->
<g id="Node000002" class="node">
<title>Node2</title>
<g id="a_Node000002"><a xlink:href="$classfsfml.html#a200802324bb5f37bfae3d935c0b91db4" xlink:title=" ">
<polygon fill="white" stroke="#666666" points="827.25,-58 734.75,-58 734.75,-38 827.25,-38 827.25,-58"/>
<text text-anchor="middle" x="781" y="-44.5" font-family="Helvetica,sans-Serif" font-size="10.00">fsfml::OnElement</text>
</a>
</g>
</g>
<!-- Node1&#45;&gt;Node2 -->
<g id="edge10_Node000001_Node000002" class="edge">
<title>Node1&#45;&gt;Node2</title>
<g id="a_edge10_Node000001_Node000002"><a xlink:title=" ">
<path fill="none" stroke="#63b8ff" d="M851.48,-48C843.55,-48 835.42,-48 827.64,-48"/>
<polygon fill="#63b8ff" stroke="#63b8ff" points="851.36,-51.5 861.36,-48 851.36,-44.5 851.36,-51.5"/>
</a>
</g>
</g>
<!-- Node3 -->
<g id="Node000003" class="node">
<title>Node3</title>
<g id="a_Node000003"><a xlink:href="$classfsfml.html#abdf8a3b6da3d8041aa23a51a52cf5c1f" xlink:title=" ">
<polygon fill="white" stroke="#666666" points="696.88,-96 586.38,-96 586.38,-76 696.88,-76 696.88,-96"/>
<text text-anchor="middle" x="641.62" y="-82.5" font-family="Helvetica,sans-Serif" font-size="10.00">fsfml::clickedElement</text>
</a>
</g>
</g>
<!-- Node2&#45;&gt;Node3 -->
<g id="edge11_Node000002_Node000003" class="edge">
<title>Node2&#45;&gt;Node3</title>
<g id="a_edge11_Node000002_Node000003"><a xlink:title=" ">
<path fill="none" stroke="#63b8ff" d="M731.39,-61.45C714.65,-66.08 696.15,-71.19 680.4,-75.55"/>
<polygon fill="#63b8ff" stroke="#63b8ff" points="731.93,-64.93 740.64,-58.89 730.07,-58.18 731.93,-64.93"/>
</a>
</g>
</g>
<!-- Node4 -->
<g id="Node000004" class="node">
<title>Node4</title>
<g id="a_Node000004"><a xlink:href="$classfsfml.html#a39cda5bb0baadfad22eb4af01b9b14a9" xlink:title=" ">
<polygon fill="white" stroke="#666666" points="548.5,-58 432,-58 432,-38 548.5,-38 548.5,-58"/>
<text text-anchor="middle" x="490.25" y="-44.5" font-family="Helvetica,sans-Serif" font-size="10.00">fsfml::getElementState</text>
</a>
</g>
</g>
<!-- Node2&#45;&gt;Node4 -->
<g id="edge16_Node000002_Node000004" class="edge">
<title>Node2&#45;&gt;Node4</title>
<g id="a_edge16_Node000002_Node000004"><a xlink:title=" ">
<path fill="none" stroke="#63b8ff" d="M723.22,-48C672.82,-48 599.51,-48 548.86,-48"/>
<polygon fill="#63b8ff" stroke="#63b8ff" points="723.05,-51.5 733.05,-48 723.05,-44.5 723.05,-51.5"/>
</a>
</g>
</g>
<!-- Node8 -->
<g id="Node000008" class="node">
<title>Node8</title>
<g id="a_Node000008"><a xlink:href="$classfsfml.html#a094eb58373ba492a7c19666625acf2eb" xlink:title=" ">
<polygon fill="white" stroke="#666666" points="698.75,-20 584.5,-20 584.5,0 698.75,0 698.75,-20"/>
<text text-anchor="middle" x="641.62" y="-6.5" font-family="Helvetica,sans-Serif" font-size="10.00">fsfml::pressedElement</text>
</a>
</g>
</g>
<!-- Node2&#45;&gt;Node8 -->
<g id="edge17_Node000002_Node000008" class="edge">
<title>Node2&#45;&gt;Node8</title>
<g id="a_edge17_Node000002_Node000008"><a xlink:title=" ">
<path fill="none" stroke="#63b8ff" d="M731.39,-34.55C714.65,-29.92 696.15,-24.81 680.4,-20.45"/>
<polygon fill="#63b8ff" stroke="#63b8ff" points="730.07,-37.82 740.64,-37.11 731.93,-31.07 730.07,-37.82"/>
</a>
</g>
</g>
<!-- Node3&#45;&gt;Node4 -->
<g id="edge12_Node000003_Node000004" class="edge">
<title>Node3&#45;&gt;Node4</title>
<g id="a_edge12_Node000003_Node000004"><a xlink:title=" ">
<path fill="none" stroke="#63b8ff" d="M588.29,-72.69C569.95,-68.02 549.62,-62.85 532.33,-58.45"/>
<polygon fill="#63b8ff" stroke="#63b8ff" points="587.39,-76.07 597.95,-75.14 589.12,-69.29 587.39,-76.07"/>
</a>
</g>
</g>
<!-- Node5 -->
<g id="Node000005" class="node">
<title>Node5</title>
<g id="a_Node000005"><a xlink:href="$classfsfml.html#a7e31fbe38054def5364e705811d867de" xlink:title=" ">
<polygon fill="white" stroke="#666666" points="396,-58 290.75,-58 290.75,-38 396,-38 396,-58"/>
<text text-anchor="middle" x="343.38" y="-44.5" font-family="Helvetica,sans-Serif" font-size="10.00">fsfml::ElementEvent</text>
</a>
</g>
</g>
<!-- Node4&#45;&gt;Node5 -->
<g id="edge13_Node000004_Node000005" class="edge">
<title>Node4&#45;&gt;Node5</title>
<g id="a_edge13_Node000004_Node000005"><a xlink:title=" ">
<path fill="none" stroke="#63b8ff" d="M420.23,-48C412.15,-48 404.01,-48 396.22,-48"/>
<polygon fill="#63b8ff" stroke="#63b8ff" points="420.06,-51.5 430.06,-48 420.06,-44.5 420.06,-51.5"/>
</a>
</g>
</g>
<!-- Node6 -->
<g id="Node000006" class="node">
<title>Node6</title>
<g id="a_Node000006"><a xlink:href="$classfsfml.html#a6b4ab16d375ff176a0533dccdc09fc20" xlink:title=" ">
<polygon fill="white" stroke="#666666" points="254.75,-58 160.75,-58 160.75,-38 254.75,-38 254.75,-58"/>
<text text-anchor="middle" x="207.75" y="-44.5" font-family="Helvetica,sans-Serif" font-size="10.00">fsfml::PanelEvent</text>
</a>
</g>
</g>
<!-- Node5&#45;&gt;Node6 -->
<g id="edge14_Node000005_Node000006" class="edge">
<title>Node5&#45;&gt;Node6</title>
<g id="a_edge14_Node000005_Node000006"><a xlink:title=" ">
<path fill="none" stroke="#63b8ff" d="M279.06,-48C271.02,-48 262.92,-48 255.21,-48"/>
<polygon fill="#63b8ff" stroke="#63b8ff" points="278.82,-51.5 288.82,-48 278.82,-44.5 278.82,-51.5"/>
</a>
</g>
</g>
<!-- Node7 -->
<g id="Node000007" class="node">
<title>Node7</title>
<g id="a_Node000007"><a xlink:href="$classfsfml.html#ad0c2351c234aa59ef60b2c38b5fe5dd9" xlink:title=" ">
<polygon fill="white" stroke="#666666" points="124.75,-58 0,-58 0,-38 124.75,-38 124.75,-58"/>
<text text-anchor="middle" x="62.38" y="-44.5" font-family="Helvetica,sans-Serif" font-size="10.00">fsfml::handleActivePanel</text>
</a>
</g>
</g>
<!-- Node6&#45;&gt;Node7 -->
<g id="edge15_Node000006_Node000007" class="edge">
<title>Node6&#45;&gt;Node7</title>
<g id="a_edge15_Node000006_Node000007"><a xlink:title=" ">
<path fill="none" stroke="#63b8ff" d="M149.21,-48C141.29,-48 133.13,-48 125.13,-48"/>
<polygon fill="#63b8ff" stroke="#63b8ff" points="149.08,-51.5 159.08,-48 149.08,-44.5 149.08,-51.5"/>
</a>
</g>
</g>
<!-- Node8&#45;&gt;Node4 -->
<g id="edge18_Node000008_Node000004" class="edge">
<title>Node8&#45;&gt;Node4</title>
<g id="a_edge18_Node000008_Node000004"><a xlink:title=" ">
<path fill="none" stroke="#63b8ff" d="M588.29,-23.31C569.95,-27.98 549.62,-33.15 532.33,-37.55"/>
<polygon fill="#63b8ff" stroke="#63b8ff" points="589.12,-26.71 597.95,-20.86 587.39,-19.93 589.12,-26.71"/>
</a>
</g>
</g>
</g>
</svg>
