<?xml version="1.0" encoding="UTF-8" standalone="no"?>
<!DOCTYPE svg PUBLIC "-//W3C//DTD SVG 1.1//EN"
 "http://www.w3.org/Graphics/SVG/1.1/DTD/svg11.dtd">
<!-- Generated by graphviz version 12.2.0 (20241103.1931)
 -->
<!-- Title: TemplateToken::addOab Pages: 1 -->
<svg width="448pt" height="28pt"
 viewBox="0.00 0.00 448.25 28.00" xmlns="http://www.w3.org/2000/svg" xmlns:xlink="http://www.w3.org/1999/xlink">
<g id="graph0" class="graph" transform="scale(1 1) rotate(0) translate(4 24)">
<title>TemplateToken::addOab</title>
<!-- Node1 -->
<g id="Node000001" class="node">
<title>Node1</title>
<g id="a_Node000001"><a xlink:title=" ">
<polygon fill="#999999" stroke="#666666" points="440.25,-20 318.5,-20 318.5,0 440.25,0 440.25,-20"/>
<text text-anchor="middle" x="379.38" y="-6.5" font-family="Helvetica,sans-Serif" font-size="10.00">TemplateToken::addOab</text>
</a>
</g>
</g>
<!-- Node2 -->
<g id="Node000002" class="node">
<title>Node2</title>
<g id="a_Node000002"><a xlink:href="$class_template_token.html#a4f803a24960bab2671effe0c746d1b8e" xlink:title=" ">
<polygon fill="white" stroke="#666666" points="282.5,-20 147.25,-20 147.25,0 282.5,0 282.5,-20"/>
<text text-anchor="middle" x="214.88" y="-6.5" font-family="Helvetica,sans-Serif" font-size="10.00">TemplateToken::addTokens</text>
</a>
</g>
</g>
<!-- Node1&#45;&gt;Node2 -->
<g id="edge3_Node000001_Node000002" class="edge">
<title>Node1&#45;&gt;Node2</title>
<g id="a_edge3_Node000001_Node000002"><a xlink:title=" ">
<path fill="none" stroke="#63b8ff" d="M307.05,-10C298.99,-10 290.79,-10 282.79,-10"/>
<polygon fill="#63b8ff" stroke="#63b8ff" points="306.81,-13.5 316.81,-10 306.81,-6.5 306.81,-13.5"/>
</a>
</g>
</g>
<!-- Node3 -->
<g id="Node000003" class="node">
<title>Node3</title>
<g id="a_Node000003"><a xlink:href="$class_list_token.html#a9003dd872c19760212536f6197d70f51" xlink:title=" ">
<polygon fill="white" stroke="#666666" points="111.25,-20 0,-20 0,0 111.25,0 111.25,-20"/>
<text text-anchor="middle" x="55.62" y="-6.5" font-family="Helvetica,sans-Serif" font-size="10.00">ListToken::addTokens</text>
</a>
</g>
</g>
<!-- Node2&#45;&gt;Node3 -->
<g id="edge4_Node000002_Node000003" class="edge">
<title>Node2&#45;&gt;Node3</title>
<g id="a_edge4_Node000002_Node000003"><a xlink:title=" ">
<path fill="none" stroke="#63b8ff" d="M135.69,-10C127.52,-10 119.35,-10 111.53,-10"/>
<polygon fill="#63b8ff" stroke="#63b8ff" points="135.67,-13.5 145.67,-10 135.67,-6.5 135.67,-13.5"/>
</a>
</g>
</g>
</g>
</svg>
