<?xml version="1.0" encoding="UTF-8" standalone="no"?>
<!DOCTYPE svg PUBLIC "-//W3C//DTD SVG 1.1//EN"
 "http://www.w3.org/Graphics/SVG/1.1/DTD/svg11.dtd">
<!-- Generated by graphviz version 12.2.0 (20241103.1931)
 -->
<!-- Title: LDPlayer::initInstances Pages: 1 -->
<svg width="1367pt" height="362pt"
 viewBox="0.00 0.00 1367.00 361.78" xmlns="http://www.w3.org/2000/svg" xmlns:xlink="http://www.w3.org/1999/xlink">
<g id="graph0" class="graph" transform="scale(1 1) rotate(0) translate(4 357.78)">
<title>LDPlayer::initInstances</title>
<!-- Node1 -->
<g id="Node000001" class="node">
<title>Node1</title>
<g id="a_Node000001"><a xlink:title=" ">
<polygon fill="#999999" stroke="#666666" points="118,-162 0,-162 0,-142 118,-142 118,-162"/>
<text text-anchor="middle" x="59" y="-148.5" font-family="Helvetica,sans-Serif" font-size="10.00">LDPlayer::initInstances</text>
</a>
</g>
</g>
<!-- Node2 -->
<g id="Node000002" class="node">
<title>Node2</title>
<g id="a_Node000002"><a xlink:href="$class_l_d_player.html#aaf175fa762019c1c22ef205892d196ea" xlink:title=" ">
<polygon fill="white" stroke="#666666" points="299.75,-206 154,-206 154,-186 299.75,-186 299.75,-206"/>
<text text-anchor="middle" x="226.88" y="-192.5" font-family="Helvetica,sans-Serif" font-size="10.00">LDPlayer::searchAllInstances</text>
</a>
</g>
</g>
<!-- Node1&#45;&gt;Node2 -->
<g id="edge35_Node000001_Node000002" class="edge">
<title>Node1&#45;&gt;Node2</title>
<g id="a_edge35_Node000001_Node000002"><a xlink:title=" ">
<path fill="none" stroke="#63b8ff" d="M99.33,-162.47C116.16,-166.95 136.05,-172.24 154,-177 160.88,-178.82 168.13,-180.74 175.27,-182.63"/>
<polygon fill="#63b8ff" stroke="#63b8ff" points="174.3,-186 184.87,-185.17 176.09,-179.23 174.3,-186"/>
</a>
</g>
</g>
<!-- Node4 -->
<g id="Node000004" class="node">
<title>Node4</title>
<g id="a_Node000004"><a xlink:href="$class_l_d_player.html#a0f72cc2becd0739ee469eca4088c4f2a" xlink:title=" ">
<polygon fill="white" stroke="#666666" points="299.75,-168 154,-168 154,-136 299.75,-136 299.75,-168"/>
<text text-anchor="start" x="162" y="-154.5" font-family="Helvetica,sans-Serif" font-size="10.00">LDPlayer::searchAllInstances</text>
<text text-anchor="middle" x="226.88" y="-142.5" font-family="Helvetica,sans-Serif" font-size="10.00">Config</text>
</a>
</g>
</g>
<!-- Node1&#45;&gt;Node4 -->
<g id="edge37_Node000001_Node000004" class="edge">
<title>Node1&#45;&gt;Node4</title>
<g id="a_edge37_Node000001_Node000004"><a xlink:title=" ">
<path fill="none" stroke="#63b8ff" d="M118.48,-152C126.22,-152 134.26,-152 142.32,-152"/>
<polygon fill="#63b8ff" stroke="#63b8ff" points="142.16,-155.5 152.16,-152 142.16,-148.5 142.16,-155.5"/>
</a>
</g>
</g>
<!-- Node21 -->
<g id="Node000021" class="node">
<title>Node21</title>
<g id="a_Node000021"><a xlink:href="$class_l_d_player.html#a06ec722fa75c1be28d1ebb785050771e" xlink:title=" ">
<polygon fill="white" stroke="#666666" points="291.5,-86 162.25,-86 162.25,-54 291.5,-54 291.5,-86"/>
<text text-anchor="start" x="170.25" y="-72.5" font-family="Helvetica,sans-Serif" font-size="10.00">LDPlayer::setListPlayable</text>
<text text-anchor="middle" x="226.88" y="-60.5" font-family="Helvetica,sans-Serif" font-size="10.00">Instances</text>
</a>
</g>
</g>
<!-- Node1&#45;&gt;Node21 -->
<g id="edge65_Node000001_Node000021" class="edge">
<title>Node1&#45;&gt;Node21</title>
<g id="a_edge65_Node000001_Node000021"><a xlink:title=" ">
<path fill="none" stroke="#63b8ff" d="M81.01,-141.61C106.42,-129.05 149.84,-107.59 182.54,-91.42"/>
<polygon fill="#63b8ff" stroke="#63b8ff" points="183.97,-94.62 191.38,-87.05 180.87,-88.35 183.97,-94.62"/>
</a>
</g>
</g>
<!-- Node3 -->
<g id="Node000003" class="node">
<title>Node3</title>
<g id="a_Node000003"><a xlink:href="$sys_commands_8cpp.html#a662dd4893690567ba825a473508f47e2" xlink:title=" ">
<polygon fill="white" stroke="#666666" points="433.5,-206 371,-206 371,-186 433.5,-186 433.5,-206"/>
<text text-anchor="middle" x="402.25" y="-192.5" font-family="Helvetica,sans-Serif" font-size="10.00">pathExists</text>
</a>
</g>
</g>
<!-- Node2&#45;&gt;Node3 -->
<g id="edge36_Node000002_Node000003" class="edge">
<title>Node2&#45;&gt;Node3</title>
<g id="a_edge36_Node000002_Node000003"><a xlink:title=" ">
<path fill="none" stroke="#63b8ff" d="M300.15,-196C320.32,-196 341.57,-196 359.36,-196"/>
<polygon fill="#63b8ff" stroke="#63b8ff" points="359.26,-199.5 369.26,-196 359.26,-192.5 359.26,-199.5"/>
</a>
</g>
</g>
<!-- Node5 -->
<g id="Node000005" class="node">
<title>Node5</title>
<g id="a_Node000005"><a xlink:href="$class_l_d_player.html#ae531fb07962ccef1e326f231c520ae28" xlink:title=" ">
<polygon fill="white" stroke="#666666" points="466.88,-168 337.62,-168 337.62,-136 466.88,-136 466.88,-168"/>
<text text-anchor="start" x="345.62" y="-154.5" font-family="Helvetica,sans-Serif" font-size="10.00">LDPlayer::searchInstance</text>
<text text-anchor="middle" x="402.25" y="-142.5" font-family="Helvetica,sans-Serif" font-size="10.00">Config</text>
</a>
</g>
</g>
<!-- Node4&#45;&gt;Node5 -->
<g id="edge38_Node000004_Node000005" class="edge">
<title>Node4&#45;&gt;Node5</title>
<g id="a_edge38_Node000004_Node000005"><a xlink:title=" ">
<path fill="none" stroke="#63b8ff" d="M300.15,-152C308.74,-152 317.53,-152 326.16,-152"/>
<polygon fill="#63b8ff" stroke="#63b8ff" points="325.87,-155.5 335.87,-152 325.87,-148.5 325.87,-155.5"/>
</a>
</g>
</g>
<!-- Node6 -->
<g id="Node000006" class="node">
<title>Node6</title>
<g id="a_Node000006"><a xlink:href="$class_emulator.html#a9e0d57ef011e166cb389060f814abfa1" xlink:title=" ">
<polygon fill="white" stroke="#666666" points="636.62,-257 522.38,-257 522.38,-237 636.62,-237 636.62,-257"/>
<text text-anchor="middle" x="579.5" y="-243.5" font-family="Helvetica,sans-Serif" font-size="10.00">Emulator::addInstance</text>
</a>
</g>
</g>
<!-- Node5&#45;&gt;Node6 -->
<g id="edge39_Node000005_Node000006" class="edge">
<title>Node5&#45;&gt;Node6</title>
<g id="a_edge39_Node000005_Node000006"><a xlink:title=" ">
<path fill="none" stroke="#63b8ff" d="M454.74,-168.5C459.68,-171 464.44,-173.82 468.75,-177 489.64,-192.41 483.48,-208.11 504.75,-223 509.85,-226.57 515.52,-229.64 521.38,-232.26"/>
<polygon fill="#63b8ff" stroke="#63b8ff" points="520.06,-235.5 530.65,-235.96 522.66,-229 520.06,-235.5"/>
</a>
</g>
</g>
<!-- Node7 -->
<g id="Node000007" class="node">
<title>Node7</title>
<g id="a_Node000007"><a xlink:href="$_text_manager_8cpp.html#a85a282af68cca7cf7d69487d1bacdc47" xlink:title=" ">
<polygon fill="white" stroke="#666666" points="970.12,-219 885.88,-219 885.88,-199 970.12,-199 970.12,-219"/>
<text text-anchor="middle" x="928" y="-205.5" font-family="Helvetica,sans-Serif" font-size="10.00">extractBetween</text>
</a>
</g>
</g>
<!-- Node5&#45;&gt;Node7 -->
<g id="edge40_Node000005_Node000007" class="edge">
<title>Node5&#45;&gt;Node7</title>
<g id="a_edge40_Node000005_Node000007"><a xlink:title=" ">
<path fill="none" stroke="#63b8ff" d="M446.34,-168.4C472.56,-178.34 501.61,-189.25 504.75,-190 634.65,-221.17 793.33,-217.62 874.17,-212.96"/>
<polygon fill="#63b8ff" stroke="#63b8ff" points="874.24,-216.46 884.01,-212.36 873.81,-209.48 874.24,-216.46"/>
</a>
</g>
</g>
<!-- Node8 -->
<g id="Node000008" class="node">
<title>Node8</title>
<g id="a_Node000008"><a xlink:href="$_text_manager_8cpp.html#a6956d58559ef67f422247fdeb1c22775" xlink:title=" ">
<polygon fill="white" stroke="#666666" points="1104.25,-219 1028.25,-219 1028.25,-199 1104.25,-199 1104.25,-219"/>
<text text-anchor="middle" x="1066.25" y="-205.5" font-family="Helvetica,sans-Serif" font-size="10.00">getStringAfter</text>
</a>
</g>
</g>
<!-- Node5&#45;&gt;Node8 -->
<g id="edge59_Node000005_Node000008" class="edge">
<title>Node5&#45;&gt;Node8</title>
<g id="a_edge59_Node000005_Node000008"><a xlink:title=" ">
<path fill="none" stroke="#63b8ff" d="M458.67,-168.49C462.37,-170.95 465.79,-173.77 468.75,-177 508.36,-220.28 457.95,-268.62 504.75,-304 674.05,-431.98 954.39,-277.94 1039.79,-225.35"/>
<polygon fill="#63b8ff" stroke="#63b8ff" points="1041.52,-228.4 1048.15,-220.13 1037.81,-222.46 1041.52,-228.4"/>
</a>
</g>
</g>
<!-- Node12 -->
<g id="Node000012" class="node">
<title>Node12</title>
<g id="a_Node000012"><a xlink:href="$_text_manager_8cpp.html#aff8311b88dbf5f3091f3ac1262543242" xlink:title=" ">
<polygon fill="white" stroke="#666666" points="1108,-181 1024.5,-181 1024.5,-161 1108,-161 1108,-181"/>
<text text-anchor="middle" x="1066.25" y="-167.5" font-family="Helvetica,sans-Serif" font-size="10.00">getStringBefore</text>
</a>
</g>
</g>
<!-- Node5&#45;&gt;Node12 -->
<g id="edge60_Node000005_Node000012" class="edge">
<title>Node5&#45;&gt;Node12</title>
<g id="a_edge60_Node000005_Node000012"><a xlink:title=" ">
<path fill="none" stroke="#63b8ff" d="M467.21,-146.96C575.15,-139.57 800.15,-129.03 988.5,-152 998.7,-153.24 1009.49,-155.38 1019.66,-157.79"/>
<polygon fill="#63b8ff" stroke="#63b8ff" points="1018.8,-161.18 1029.35,-160.22 1020.5,-154.39 1018.8,-161.18"/>
</a>
</g>
</g>
<!-- Node13 -->
<g id="Node000013" class="node">
<title>Node13</title>
<g id="a_Node000013"><a xlink:href="$_text_manager_8cpp.html#ae390b108793fa81984968410a695c1af" xlink:title=" ">
<polygon fill="white" stroke="#666666" points="628.75,-181 530.25,-181 530.25,-161 628.75,-161 628.75,-181"/>
<text text-anchor="middle" x="579.5" y="-167.5" font-family="Helvetica,sans-Serif" font-size="10.00">extractLineContent</text>
</a>
</g>
</g>
<!-- Node5&#45;&gt;Node13 -->
<g id="edge49_Node000005_Node000013" class="edge">
<title>Node5&#45;&gt;Node13</title>
<g id="a_edge49_Node000005_Node000013"><a xlink:title=" ">
<path fill="none" stroke="#63b8ff" d="M467.02,-158.91C483.87,-160.74 502.01,-162.71 518.65,-164.51"/>
<polygon fill="#63b8ff" stroke="#63b8ff" points="518.07,-167.97 528.39,-165.57 518.83,-161.01 518.07,-167.97"/>
</a>
</g>
</g>
<!-- Node16 -->
<g id="Node000016" class="node">
<title>Node16</title>
<g id="a_Node000016"><a xlink:href="$class_l_d_player.html#a7faa435639a0bc0b6168ec43a451abbd" xlink:title=" ">
<polygon fill="white" stroke="#666666" points="634.75,-67 524.25,-67 524.25,-47 634.75,-47 634.75,-67"/>
<text text-anchor="middle" x="579.5" y="-53.5" font-family="Helvetica,sans-Serif" font-size="10.00">LDPlayer::getAdbKey</text>
</a>
</g>
</g>
<!-- Node5&#45;&gt;Node16 -->
<g id="edge56_Node000005_Node000016" class="edge">
<title>Node5&#45;&gt;Node16</title>
<g id="a_edge56_Node000005_Node000016"><a xlink:title=" ">
<path fill="none" stroke="#63b8ff" d="M438.4,-135.65C448.57,-130.29 459.43,-123.91 468.75,-117 486.93,-103.52 485.46,-92.83 504.75,-81 510.78,-77.31 517.43,-74.12 524.21,-71.38"/>
<polygon fill="#63b8ff" stroke="#63b8ff" points="525.28,-74.72 533.46,-67.97 522.86,-68.15 525.28,-74.72"/>
</a>
</g>
</g>
<!-- Node18 -->
<g id="Node000018" class="node">
<title>Node18</title>
<g id="a_Node000018"><a xlink:href="$_text_manager_8cpp.html#add36cc54cd9616a393a17b8961491477" xlink:title=" ">
<polygon fill="white" stroke="#666666" points="800.75,-96 721,-96 721,-76 800.75,-76 800.75,-96"/>
<text text-anchor="middle" x="760.88" y="-82.5" font-family="Helvetica,sans-Serif" font-size="10.00">getFileContent</text>
</a>
</g>
</g>
<!-- Node5&#45;&gt;Node18 -->
<g id="edge58_Node000005_Node000018" class="edge">
<title>Node5&#45;&gt;Node18</title>
<g id="a_edge58_Node000005_Node000018"><a xlink:title=" ">
<path fill="none" stroke="#63b8ff" d="M447.72,-135.56C465.28,-129.59 485.77,-123.27 504.75,-119 574.83,-103.22 657.55,-94.24 709.37,-89.75"/>
<polygon fill="#63b8ff" stroke="#63b8ff" points="709.4,-93.26 719.07,-88.93 708.81,-86.28 709.4,-93.26"/>
</a>
</g>
</g>
<!-- Node19 -->
<g id="Node000019" class="node">
<title>Node19</title>
<g id="a_Node000019"><a xlink:href="$class_l_d_player.html#afdff9653762ee40295fd344ae3ab637a" xlink:title=" ">
<polygon fill="white" stroke="#666666" points="631.75,-29 527.25,-29 527.25,-9 631.75,-9 631.75,-29"/>
<text text-anchor="middle" x="579.5" y="-15.5" font-family="Helvetica,sans-Serif" font-size="10.00">LDPlayer::hasGame</text>
</a>
</g>
</g>
<!-- Node5&#45;&gt;Node19 -->
<g id="edge61_Node000005_Node000019" class="edge">
<title>Node5&#45;&gt;Node19</title>
<g id="a_edge61_Node000005_Node000019"><a xlink:title=" ">
<path fill="none" stroke="#63b8ff" d="M443.89,-135.59C452.87,-130.6 461.78,-124.43 468.75,-117 495.16,-88.87 475.18,-62.79 504.75,-38 508.24,-35.07 512.13,-32.59 516.24,-30.48"/>
<polygon fill="#63b8ff" stroke="#63b8ff" points="517.6,-33.71 525.44,-26.58 514.87,-27.26 517.6,-33.71"/>
</a>
</g>
</g>
<!-- Node20 -->
<g id="Node000020" class="node">
<title>Node20</title>
<g id="a_Node000020"><a xlink:href="$class_l_d_player_instance.html#aa242849ad43bed3a3075794bee9ea908" xlink:title=" ">
<polygon fill="white" stroke="#666666" points="654.25,-295 504.75,-295 504.75,-275 654.25,-275 654.25,-295"/>
<text text-anchor="middle" x="579.5" y="-281.5" font-family="Helvetica,sans-Serif" font-size="10.00">LDPlayerInstance::setGlobalId</text>
</a>
</g>
</g>
<!-- Node5&#45;&gt;Node20 -->
<g id="edge64_Node000005_Node000020" class="edge">
<title>Node5&#45;&gt;Node20</title>
<g id="a_edge64_Node000005_Node000020"><a xlink:title=" ">
<path fill="none" stroke="#63b8ff" d="M457.66,-168.47C461.68,-170.93 465.45,-173.76 468.75,-177 499.22,-206.87 472.65,-237.89 504.75,-266 505.84,-266.96 506.97,-267.86 508.14,-268.73"/>
<polygon fill="#63b8ff" stroke="#63b8ff" points="506.06,-271.56 516.43,-273.73 509.68,-265.57 506.06,-271.56"/>
</a>
</g>
</g>
<!-- Node7&#45;&gt;Node8 -->
<g id="edge41_Node000007_Node000008" class="edge">
<title>Node7&#45;&gt;Node8</title>
<g id="a_edge41_Node000007_Node000008"><a xlink:title=" ">
<path fill="none" stroke="#63b8ff" d="M970.62,-209C985.21,-209 1001.73,-209 1016.83,-209"/>
<polygon fill="#63b8ff" stroke="#63b8ff" points="1016.53,-212.5 1026.53,-209 1016.53,-205.5 1016.53,-212.5"/>
</a>
</g>
</g>
<!-- Node7&#45;&gt;Node12 -->
<g id="edge47_Node000007_Node000012" class="edge">
<title>Node7&#45;&gt;Node12</title>
<g id="a_edge47_Node000007_Node000012"><a xlink:title=" ">
<path fill="none" stroke="#63b8ff" d="M966.59,-198.52C982.08,-194.2 1000.22,-189.14 1016.7,-184.54"/>
<polygon fill="#63b8ff" stroke="#63b8ff" points="1017.63,-187.91 1026.32,-181.86 1015.75,-181.17 1017.63,-187.91"/>
</a>
</g>
</g>
<!-- Node9 -->
<g id="Node000009" class="node">
<title>Node9</title>
<g id="a_Node000009"><a xlink:href="$_text_manager_8cpp.html#a5b66873abcff2faee361721f86b65dd0" xlink:title=" ">
<polygon fill="white" stroke="#666666" points="1222.25,-275 1154.5,-275 1154.5,-255 1222.25,-255 1222.25,-275"/>
<text text-anchor="middle" x="1188.38" y="-261.5" font-family="Helvetica,sans-Serif" font-size="10.00">getPosAfter</text>
</a>
</g>
</g>
<!-- Node8&#45;&gt;Node9 -->
<g id="edge42_Node000008_Node000009" class="edge">
<title>Node8&#45;&gt;Node9</title>
<g id="a_edge42_Node000008_Node000009"><a xlink:title=" ">
<path fill="none" stroke="#63b8ff" d="M1088.33,-219.42C1103.69,-226.95 1125.05,-237.29 1144,-246 1146.78,-247.28 1149.66,-248.58 1152.56,-249.88"/>
<polygon fill="#63b8ff" stroke="#63b8ff" points="1151.04,-253.04 1161.6,-253.89 1153.88,-246.64 1151.04,-253.04"/>
</a>
</g>
</g>
<!-- Node11 -->
<g id="Node000011" class="node">
<title>Node11</title>
<g id="a_Node000011"><a xlink:href="$_text_manager_8cpp.html#a2946b90fb3df56b0a74d53eb4160f4e2" xlink:title=" ">
<polygon fill="white" stroke="#666666" points="1232.75,-219 1144,-219 1144,-199 1232.75,-199 1232.75,-219"/>
<text text-anchor="middle" x="1188.38" y="-205.5" font-family="Helvetica,sans-Serif" font-size="10.00">getStringStarting</text>
</a>
</g>
</g>
<!-- Node8&#45;&gt;Node11 -->
<g id="edge44_Node000008_Node000011" class="edge">
<title>Node8&#45;&gt;Node11</title>
<g id="a_edge44_Node000008_Node000011"><a xlink:title=" ">
<path fill="none" stroke="#63b8ff" d="M1104.6,-209C1113.41,-209 1122.99,-209 1132.4,-209"/>
<polygon fill="#63b8ff" stroke="#63b8ff" points="1132.22,-212.5 1142.22,-209 1132.22,-205.5 1132.22,-212.5"/>
</a>
</g>
</g>
<!-- Node10 -->
<g id="Node000010" class="node">
<title>Node10</title>
<g id="a_Node000010"><a xlink:href="$_text_manager_8cpp.html#a3f4afb2b62acd297e783a22ffa9a7000" xlink:title=" ">
<polygon fill="white" stroke="#666666" points="1359,-219 1268.75,-219 1268.75,-199 1359,-199 1359,-219"/>
<text text-anchor="middle" x="1313.88" y="-205.5" font-family="Helvetica,sans-Serif" font-size="10.00">getSequencePos</text>
</a>
</g>
</g>
<!-- Node9&#45;&gt;Node10 -->
<g id="edge43_Node000009_Node000010" class="edge">
<title>Node9&#45;&gt;Node10</title>
<g id="a_edge43_Node000009_Node000010"><a xlink:title=" ">
<path fill="none" stroke="#63b8ff" d="M1213.28,-254.63C1219.62,-251.85 1226.45,-248.83 1232.75,-246 1248.49,-238.92 1265.9,-230.9 1280.45,-224.15"/>
<polygon fill="#63b8ff" stroke="#63b8ff" points="1281.52,-227.51 1289.11,-220.12 1278.56,-221.17 1281.52,-227.51"/>
</a>
</g>
</g>
<!-- Node11&#45;&gt;Node10 -->
<g id="edge45_Node000011_Node000010" class="edge">
<title>Node11&#45;&gt;Node10</title>
<g id="a_edge45_Node000011_Node000010"><a xlink:title=" ">
<path fill="none" stroke="#63b8ff" d="M1232.92,-209C1240.75,-209 1249.02,-209 1257.14,-209"/>
<polygon fill="#63b8ff" stroke="#63b8ff" points="1256.96,-212.5 1266.96,-209 1256.96,-205.5 1256.96,-212.5"/>
</a>
</g>
</g>
<!-- Node11&#45;&gt;Node11 -->
<g id="edge46_Node000011_Node000011" class="edge">
<title>Node11&#45;&gt;Node11</title>
<g id="a_edge46_Node000011_Node000011"><a xlink:title=" ">
<path fill="none" stroke="#63b8ff" d="M1168.97,-219.34C1160.68,-227.98 1167.15,-237 1188.38,-237 1199.98,-237 1207.18,-234.3 1209.96,-230.44"/>
<polygon fill="#63b8ff" stroke="#63b8ff" points="1213.43,-229.96 1208.07,-220.82 1206.56,-231.31 1213.43,-229.96"/>
</a>
</g>
</g>
<!-- Node12&#45;&gt;Node10 -->
<g id="edge48_Node000012_Node000010" class="edge">
<title>Node12&#45;&gt;Node10</title>
<g id="a_edge48_Node000012_Node000010"><a xlink:title=" ">
<path fill="none" stroke="#63b8ff" d="M1108.25,-174.34C1141.86,-177.41 1190.59,-182.61 1232.75,-190 1242.26,-191.67 1252.34,-193.78 1262.01,-195.98"/>
<polygon fill="#63b8ff" stroke="#63b8ff" points="1261.12,-199.37 1271.65,-198.25 1262.72,-192.55 1261.12,-199.37"/>
</a>
</g>
</g>
<!-- Node13&#45;&gt;Node7 -->
<g id="edge50_Node000013_Node000007" class="edge">
<title>Node13&#45;&gt;Node7</title>
<g id="a_edge50_Node000013_Node000007"><a xlink:title=" ">
<path fill="none" stroke="#63b8ff" d="M628.98,-180.38C648.02,-183.8 670.11,-187.45 690.25,-190 753.18,-197.95 825.95,-203.21 874.03,-206.14"/>
<polygon fill="#63b8ff" stroke="#63b8ff" points="873.7,-209.62 883.89,-206.72 874.11,-202.64 873.7,-209.62"/>
</a>
</g>
</g>
<!-- Node14 -->
<g id="Node000014" class="node">
<title>Node14</title>
<g id="a_Node000014"><a xlink:href="$_text_manager_8cpp.html#af24bee60aa1d3d5b4ae3bf6ebd267ecd" xlink:title=" ">
<polygon fill="white" stroke="#666666" points="784.62,-181 737.12,-181 737.12,-161 784.62,-161 784.62,-181"/>
<text text-anchor="middle" x="760.88" y="-167.5" font-family="Helvetica,sans-Serif" font-size="10.00">getLine</text>
</a>
</g>
</g>
<!-- Node13&#45;&gt;Node14 -->
<g id="edge51_Node000013_Node000014" class="edge">
<title>Node13&#45;&gt;Node14</title>
<g id="a_edge51_Node000013_Node000014"><a xlink:title=" ">
<path fill="none" stroke="#63b8ff" d="M629.04,-171C659.59,-171 698.27,-171 725.63,-171"/>
<polygon fill="#63b8ff" stroke="#63b8ff" points="725.45,-174.5 735.45,-171 725.45,-167.5 725.45,-174.5"/>
</a>
</g>
</g>
<!-- Node14&#45;&gt;Node7 -->
<g id="edge52_Node000014_Node000007" class="edge">
<title>Node14&#45;&gt;Node7</title>
<g id="a_edge52_Node000014_Node000007"><a xlink:title=" ">
<path fill="none" stroke="#63b8ff" d="M784.83,-176.28C807.86,-181.58 844.12,-189.93 874.26,-196.86"/>
<polygon fill="#63b8ff" stroke="#63b8ff" points="873.47,-200.27 884,-199.1 875.04,-193.45 873.47,-200.27"/>
</a>
</g>
</g>
<!-- Node15 -->
<g id="Node000015" class="node">
<title>Node15</title>
<g id="a_Node000015"><a xlink:href="$_text_manager_8cpp.html#a84a9e24fc5cce3cebf746bb656909bf8" xlink:title=" ">
<polygon fill="white" stroke="#666666" points="988.5,-181 867.5,-181 867.5,-161 988.5,-161 988.5,-181"/>
<text text-anchor="middle" x="928" y="-167.5" font-family="Helvetica,sans-Serif" font-size="10.00">extractBetweenReverse</text>
</a>
</g>
</g>
<!-- Node14&#45;&gt;Node15 -->
<g id="edge53_Node000014_Node000015" class="edge">
<title>Node14&#45;&gt;Node15</title>
<g id="a_edge53_Node000014_Node000015"><a xlink:title=" ">
<path fill="none" stroke="#63b8ff" d="M784.83,-171C803.36,-171 830.46,-171 856.04,-171"/>
<polygon fill="#63b8ff" stroke="#63b8ff" points="855.76,-174.5 865.76,-171 855.76,-167.5 855.76,-174.5"/>
</a>
</g>
</g>
<!-- Node15&#45;&gt;Node8 -->
<g id="edge54_Node000015_Node000008" class="edge">
<title>Node15&#45;&gt;Node8</title>
<g id="a_edge54_Node000015_Node000008"><a xlink:title=" ">
<path fill="none" stroke="#63b8ff" d="M966.59,-181.48C982.08,-185.8 1000.22,-190.86 1016.7,-195.46"/>
<polygon fill="#63b8ff" stroke="#63b8ff" points="1015.75,-198.83 1026.32,-198.14 1017.63,-192.09 1015.75,-198.83"/>
</a>
</g>
</g>
<!-- Node15&#45;&gt;Node12 -->
<g id="edge55_Node000015_Node000012" class="edge">
<title>Node15&#45;&gt;Node12</title>
<g id="a_edge55_Node000015_Node000012"><a xlink:title=" ">
<path fill="none" stroke="#63b8ff" d="M988.76,-171C996.83,-171 1005.06,-171 1012.99,-171"/>
<polygon fill="#63b8ff" stroke="#63b8ff" points="1012.82,-174.5 1022.82,-171 1012.82,-167.5 1012.82,-174.5"/>
</a>
</g>
</g>
<!-- Node17 -->
<g id="Node000017" class="node">
<title>Node17</title>
<g id="a_Node000017"><a xlink:href="$class_l_d_player.html#aa85461ad56f19bcf3620c16d6781f640" xlink:title=" ">
<polygon fill="white" stroke="#666666" points="831.5,-39 690.25,-39 690.25,-19 831.5,-19 831.5,-39"/>
<text text-anchor="middle" x="760.88" y="-25.5" font-family="Helvetica,sans-Serif" font-size="10.00">LDPlayer::transformInstance</text>
</a>
</g>
</g>
<!-- Node16&#45;&gt;Node17 -->
<g id="edge57_Node000016_Node000017" class="edge">
<title>Node16&#45;&gt;Node17</title>
<g id="a_edge57_Node000016_Node000017"><a xlink:title=" ">
<path fill="none" stroke="#63b8ff" d="M634.81,-48.52C649.49,-46.23 665.69,-43.7 681.41,-41.25"/>
<polygon fill="#63b8ff" stroke="#63b8ff" points="681.92,-44.71 691.26,-39.71 680.84,-37.8 681.92,-44.71"/>
</a>
</g>
</g>
<!-- Node19&#45;&gt;Node17 -->
<g id="edge63_Node000019_Node000017" class="edge">
<title>Node19&#45;&gt;Node17</title>
<g id="a_edge63_Node000019_Node000017"><a xlink:title=" ">
<path fill="none" stroke="#63b8ff" d="M631.9,-21.87C646.48,-22.68 662.72,-23.58 678.6,-24.47"/>
<polygon fill="#63b8ff" stroke="#63b8ff" points="678.39,-27.96 688.57,-25.02 678.78,-20.97 678.39,-27.96"/>
</a>
</g>
</g>
<!-- Node19&#45;&gt;Node18 -->
<g id="edge62_Node000019_Node000018" class="edge">
<title>Node19&#45;&gt;Node18</title>
<g id="a_edge62_Node000019_Node000018"><a xlink:title=" ">
<path fill="none" stroke="#63b8ff" d="M626.12,-29.43C635.51,-31.94 645.27,-34.83 654.25,-38 680.29,-47.19 708.73,-60.31 729.54,-70.5"/>
<polygon fill="#63b8ff" stroke="#63b8ff" points="727.8,-73.55 738.31,-74.86 730.91,-67.28 727.8,-73.55"/>
</a>
</g>
</g>
<!-- Node21&#45;&gt;Node19 -->
<g id="edge68_Node000021_Node000019" class="edge">
<title>Node21&#45;&gt;Node19</title>
<g id="a_edge68_Node000021_Node000019"><a xlink:title=" ">
<path fill="none" stroke="#63b8ff" d="M291.78,-60.71C355.5,-51.44 452.77,-37.29 516,-28.09"/>
<polygon fill="#63b8ff" stroke="#63b8ff" points="516.11,-31.61 525.51,-26.71 515.11,-24.68 516.11,-31.61"/>
</a>
</g>
</g>
<!-- Node22 -->
<g id="Node000022" class="node">
<title>Node22</title>
<g id="a_Node000022"><a xlink:href="$class_emulator.html#a619a936779444867c815d5c443d663e6" xlink:title=" ">
<polygon fill="white" stroke="#666666" points="468.75,-20 335.75,-20 335.75,0 468.75,0 468.75,-20"/>
<text text-anchor="middle" x="402.25" y="-6.5" font-family="Helvetica,sans-Serif" font-size="10.00">Emulator::getListInstances</text>
</a>
</g>
</g>
<!-- Node21&#45;&gt;Node22 -->
<g id="edge66_Node000021_Node000022" class="edge">
<title>Node21&#45;&gt;Node22</title>
<g id="a_edge66_Node000021_Node000022"><a xlink:title=" ">
<path fill="none" stroke="#63b8ff" d="M275.25,-53.6C301.89,-44.39 334.81,-32.99 360.32,-24.17"/>
<polygon fill="#63b8ff" stroke="#63b8ff" points="361.38,-27.5 369.68,-20.92 359.09,-20.89 361.38,-27.5"/>
</a>
</g>
</g>
<!-- Node23 -->
<g id="Node000023" class="node">
<title>Node23</title>
<g id="a_Node000023"><a xlink:href="$class_emulator.html#a4c0372049844947502d84334e7c0c7c1" xlink:title=" ">
<polygon fill="white" stroke="#666666" points="466.12,-108 338.38,-108 338.38,-76 466.12,-76 466.12,-108"/>
<text text-anchor="start" x="346.38" y="-94.5" font-family="Helvetica,sans-Serif" font-size="10.00">Emulator::getListPlayable</text>
<text text-anchor="middle" x="402.25" y="-82.5" font-family="Helvetica,sans-Serif" font-size="10.00">Instances</text>
</a>
</g>
</g>
<!-- Node21&#45;&gt;Node23 -->
<g id="edge67_Node000021_Node000023" class="edge">
<title>Node21&#45;&gt;Node23</title>
<g id="a_edge67_Node000021_Node000023"><a xlink:title=" ">
<path fill="none" stroke="#63b8ff" d="M291.94,-78.13C303.23,-79.56 315.06,-81.06 326.61,-82.53"/>
<polygon fill="#63b8ff" stroke="#63b8ff" points="326.16,-86 336.52,-83.79 327.04,-79.06 326.16,-86"/>
</a>
</g>
</g>
</g>
</svg>
