<?xml version="1.0" encoding="UTF-8" standalone="no"?>
<!DOCTYPE svg PUBLIC "-//W3C//DTD SVG 1.1//EN"
 "http://www.w3.org/Graphics/SVG/1.1/DTD/svg11.dtd">
<!-- Generated by graphviz version 12.2.0 (20241103.1931)
 -->
<!-- Title: TagPanel::setPaintEvents Pages: 1 -->
<svg width="492pt" height="104pt"
 viewBox="0.00 0.00 491.75 104.00" xmlns="http://www.w3.org/2000/svg" xmlns:xlink="http://www.w3.org/1999/xlink">
<g id="graph0" class="graph" transform="scale(1 1) rotate(0) translate(4 100)">
<title>TagPanel::setPaintEvents</title>
<!-- Node1 -->
<g id="Node000001" class="node">
<title>Node1</title>
<g id="a_Node000001"><a xlink:title=" ">
<polygon fill="#999999" stroke="#666666" points="129.25,-58 0,-58 0,-38 129.25,-38 129.25,-58"/>
<text text-anchor="middle" x="64.62" y="-44.5" font-family="Helvetica,sans-Serif" font-size="10.00">TagPanel::setPaintEvents</text>
</a>
</g>
</g>
<!-- Node2 -->
<g id="Node000002" class="node">
<title>Node2</title>
<g id="a_Node000002"><a xlink:href="$class_tag_panel.html#a5d57b2c271078562ca65bf9d0f9c656e" xlink:title=" ">
<polygon fill="white" stroke="#666666" points="310.25,-96 165.25,-96 165.25,-76 310.25,-76 310.25,-96"/>
<text text-anchor="middle" x="237.75" y="-82.5" font-family="Helvetica,sans-Serif" font-size="10.00">TagPanel::DrawBordersEvent</text>
</a>
</g>
</g>
<!-- Node1&#45;&gt;Node2 -->
<g id="edge6_Node000001_Node000002" class="edge">
<title>Node1&#45;&gt;Node2</title>
<g id="a_edge6_Node000001_Node000002"><a xlink:title=" ">
<path fill="none" stroke="#63b8ff" d="M112.84,-58.48C133.23,-63.01 157.28,-68.35 178.74,-73.12"/>
<polygon fill="#63b8ff" stroke="#63b8ff" points="177.69,-76.47 188.21,-75.22 179.21,-69.64 177.69,-76.47"/>
</a>
</g>
</g>
<!-- Node3 -->
<g id="Node000003" class="node">
<title>Node3</title>
<g id="a_Node000003"><a xlink:href="$class_tag_panel.html#a72db5ac659ea9dc41b2a236bd5ff0a12" xlink:title=" ">
<polygon fill="white" stroke="#666666" points="299.75,-58 175.75,-58 175.75,-38 299.75,-38 299.75,-58"/>
<text text-anchor="middle" x="237.75" y="-44.5" font-family="Helvetica,sans-Serif" font-size="10.00">TagPanel::OnHoverPaint</text>
</a>
</g>
</g>
<!-- Node1&#45;&gt;Node3 -->
<g id="edge7_Node000001_Node000003" class="edge">
<title>Node1&#45;&gt;Node3</title>
<g id="a_edge7_Node000001_Node000003"><a xlink:title=" ">
<path fill="none" stroke="#63b8ff" d="M129.35,-48C140.68,-48 152.56,-48 164.11,-48"/>
<polygon fill="#63b8ff" stroke="#63b8ff" points="164.02,-51.5 174.02,-48 164.02,-44.5 164.02,-51.5"/>
</a>
</g>
</g>
<!-- Node5 -->
<g id="Node000005" class="node">
<title>Node5</title>
<g id="a_Node000005"><a xlink:href="$class_tag_panel.html#af7c491223a887d2ce97353157adc9110" xlink:title=" ">
<polygon fill="white" stroke="#666666" points="287.75,-20 187.75,-20 187.75,0 287.75,0 287.75,-20"/>
<text text-anchor="middle" x="237.75" y="-6.5" font-family="Helvetica,sans-Serif" font-size="10.00">TagPanel::OnInsert</text>
</a>
</g>
</g>
<!-- Node1&#45;&gt;Node5 -->
<g id="edge9_Node000001_Node000005" class="edge">
<title>Node1&#45;&gt;Node5</title>
<g id="a_edge9_Node000001_Node000005"><a xlink:title=" ">
<path fill="none" stroke="#63b8ff" d="M112.84,-37.52C133.23,-32.99 157.28,-27.65 178.74,-22.88"/>
<polygon fill="#63b8ff" stroke="#63b8ff" points="179.21,-26.36 188.21,-20.78 177.69,-19.53 179.21,-26.36"/>
</a>
</g>
</g>
<!-- Node4 -->
<g id="Node000004" class="node">
<title>Node4</title>
<g id="a_Node000004"><a xlink:href="$class_tag_panel.html#a2968cbcc5c04e34a50085877ddb53f65" xlink:title=" ">
<polygon fill="white" stroke="#666666" points="479.62,-58 350.38,-58 350.38,-38 479.62,-38 479.62,-58"/>
<text text-anchor="middle" x="415" y="-44.5" font-family="Helvetica,sans-Serif" font-size="10.00">TagPanel::getPanelColour</text>
</a>
</g>
</g>
<!-- Node3&#45;&gt;Node4 -->
<g id="edge8_Node000003_Node000004" class="edge">
<title>Node3&#45;&gt;Node4</title>
<g id="a_edge8_Node000003_Node000004"><a xlink:title=" ">
<path fill="none" stroke="#63b8ff" d="M300.04,-48C312.56,-48 325.87,-48 338.82,-48"/>
<polygon fill="#63b8ff" stroke="#63b8ff" points="338.55,-51.5 348.55,-48 338.55,-44.5 338.55,-51.5"/>
</a>
</g>
</g>
<!-- Node6 -->
<g id="Node000006" class="node">
<title>Node6</title>
<g id="a_Node000006"><a xlink:href="$class_tag_panel.html#af925f36858bbc30c39bd4716f64822d3" xlink:title=" ">
<polygon fill="white" stroke="#666666" points="483.75,-20 346.25,-20 346.25,0 483.75,0 483.75,-20"/>
<text text-anchor="middle" x="415" y="-6.5" font-family="Helvetica,sans-Serif" font-size="10.00">TagPanel::updateInsertRect</text>
</a>
</g>
</g>
<!-- Node5&#45;&gt;Node6 -->
<g id="edge10_Node000005_Node000006" class="edge">
<title>Node5&#45;&gt;Node6</title>
<g id="a_edge10_Node000005_Node000006"><a xlink:title=" ">
<path fill="none" stroke="#63b8ff" d="M288.03,-10C302.45,-10 318.6,-10 334.39,-10"/>
<polygon fill="#63b8ff" stroke="#63b8ff" points="334.29,-13.5 344.29,-10 334.29,-6.5 334.29,-13.5"/>
</a>
</g>
</g>
</g>
</svg>
