<?xml version="1.0" encoding="UTF-8" standalone="no"?>
<!DOCTYPE svg PUBLIC "-//W3C//DTD SVG 1.1//EN"
 "http://www.w3.org/Graphics/SVG/1.1/DTD/svg11.dtd">
<!-- Generated by graphviz version 12.2.0 (20241103.1931)
 -->
<!-- Title: goHomeFirstBoot::doActivity Pages: 1 -->
<svg width="1415pt" height="322pt"
 viewBox="0.00 0.00 1414.50 322.00" xmlns="http://www.w3.org/2000/svg" xmlns:xlink="http://www.w3.org/1999/xlink">
<g id="graph0" class="graph" transform="scale(1 1) rotate(0) translate(4 318)">
<title>goHomeFirstBoot::doActivity</title>
<!-- Node1 -->
<g id="Node000001" class="node">
<title>Node1</title>
<g id="a_Node000001"><a xlink:title=" ">
<polygon fill="#999999" stroke="#666666" points="142,-96 0,-96 0,-76 142,-76 142,-96"/>
<text text-anchor="middle" x="71" y="-82.5" font-family="Helvetica,sans-Serif" font-size="10.00">goHomeFirstBoot::doActivity</text>
</a>
</g>
</g>
<!-- Node2 -->
<g id="Node000002" class="node">
<title>Node2</title>
<g id="a_Node000002"><a xlink:href="$class_interactions.html#af01fb8407a9f18982f7e75f0433f7ef2" xlink:title=" ">
<polygon fill="white" stroke="#666666" points="323.75,-77 178,-77 178,-57 323.75,-57 323.75,-77"/>
<text text-anchor="middle" x="250.88" y="-63.5" font-family="Helvetica,sans-Serif" font-size="10.00">Interactions::fcOneTemplateA</text>
</a>
</g>
</g>
<!-- Node1&#45;&gt;Node2 -->
<g id="edge31_Node000001_Node000002" class="edge">
<title>Node1&#45;&gt;Node2</title>
<g id="a_edge31_Node000001_Node000002"><a xlink:title=" ">
<path fill="none" stroke="#63b8ff" d="M142.3,-78.49C150.22,-77.64 158.35,-76.78 166.41,-75.91"/>
<polygon fill="#63b8ff" stroke="#63b8ff" points="166.67,-79.41 176.25,-74.86 165.93,-72.45 166.67,-79.41"/>
</a>
</g>
</g>
<!-- Node3 -->
<g id="Node000003" class="node">
<title>Node3</title>
<g id="a_Node000003"><a xlink:href="$class_interactions.html#ad86db2bcd0900e15cfd36374937d7748" xlink:title=" ">
<polygon fill="white" stroke="#666666" points="500.25,-96 359.75,-96 359.75,-76 500.25,-76 500.25,-96"/>
<text text-anchor="middle" x="430" y="-82.5" font-family="Helvetica,sans-Serif" font-size="10.00">Interactions::fOneTemplateA</text>
</a>
</g>
</g>
<!-- Node1&#45;&gt;Node3 -->
<g id="edge60_Node000001_Node000003" class="edge">
<title>Node1&#45;&gt;Node3</title>
<g id="a_edge60_Node000001_Node000003"><a xlink:title=" ">
<path fill="none" stroke="#63b8ff" d="M142.11,-86C201.27,-86 286.01,-86 348.05,-86"/>
<polygon fill="#63b8ff" stroke="#63b8ff" points="347.85,-89.5 357.85,-86 347.85,-82.5 347.85,-89.5"/>
</a>
</g>
</g>
<!-- Node2&#45;&gt;Node3 -->
<g id="edge32_Node000002_Node000003" class="edge">
<title>Node2&#45;&gt;Node3</title>
<g id="a_edge32_Node000002_Node000003"><a xlink:title=" ">
<path fill="none" stroke="#63b8ff" d="M324.17,-74.76C332.11,-75.61 340.22,-76.48 348.24,-77.34"/>
<polygon fill="#63b8ff" stroke="#63b8ff" points="347.69,-80.8 358,-78.38 348.43,-73.84 347.69,-80.8"/>
</a>
</g>
</g>
<!-- Node4 -->
<g id="Node000004" class="node">
<title>Node4</title>
<g id="a_Node000004"><a xlink:href="$fopencv_8cpp.html#abe41135f4dce8bf30bbdf6fd28d2abbc" xlink:title=" ">
<polygon fill="white" stroke="#666666" points="648.62,-214 550.12,-214 550.12,-194 648.62,-194 648.62,-214"/>
<text text-anchor="middle" x="599.38" y="-200.5" font-family="Helvetica,sans-Serif" font-size="10.00">cvmtfOneTemplate</text>
</a>
</g>
</g>
<!-- Node3&#45;&gt;Node4 -->
<g id="edge33_Node000003_Node000004" class="edge">
<title>Node3&#45;&gt;Node4</title>
<g id="a_edge33_Node000003_Node000004"><a xlink:title=" ">
<path fill="none" stroke="#63b8ff" d="M445.2,-96.47C465.33,-111.25 503.37,-139.02 536.25,-162 548.38,-170.48 561.99,-179.71 573.37,-187.35"/>
<polygon fill="#63b8ff" stroke="#63b8ff" points="571.2,-190.11 581.45,-192.76 575.09,-184.29 571.2,-190.11"/>
</a>
</g>
</g>
<!-- Node11 -->
<g id="Node000011" class="node">
<title>Node11</title>
<g id="a_Node000011"><a xlink:href="$class_interactions.html#a5b5af2b125ff152043789cfcf70ffb2b" xlink:title=" ">
<polygon fill="white" stroke="#666666" points="662.5,-58 536.25,-58 536.25,-38 662.5,-38 662.5,-58"/>
<text text-anchor="middle" x="599.38" y="-44.5" font-family="Helvetica,sans-Serif" font-size="10.00">Interactions::getTemplate</text>
</a>
</g>
</g>
<!-- Node3&#45;&gt;Node11 -->
<g id="edge40_Node000003_Node000011" class="edge">
<title>Node3&#45;&gt;Node11</title>
<g id="a_edge40_Node000003_Node000011"><a xlink:title=" ">
<path fill="none" stroke="#63b8ff" d="M477.18,-75.52C497.03,-71.01 520.43,-65.7 541.34,-60.95"/>
<polygon fill="#63b8ff" stroke="#63b8ff" points="541.89,-64.41 550.87,-58.79 540.34,-57.59 541.89,-64.41"/>
</a>
</g>
</g>
<!-- Node13 -->
<g id="Node000013" class="node">
<title>Node13</title>
<g id="a_Node000013"><a xlink:href="$class_interactions.html#a0a0ffd9ad1990de31fd7b2773db32667" xlink:title=" ">
<polygon fill="white" stroke="#666666" points="659.88,-153 538.88,-153 538.88,-133 659.88,-133 659.88,-153"/>
<text text-anchor="middle" x="599.38" y="-139.5" font-family="Helvetica,sans-Serif" font-size="10.00">Interactions::loopPopUp</text>
</a>
</g>
</g>
<!-- Node3&#45;&gt;Node13 -->
<g id="edge42_Node000003_Node000013" class="edge">
<title>Node3&#45;&gt;Node13</title>
<g id="a_edge42_Node000003_Node000013"><a xlink:title=" ">
<path fill="none" stroke="#63b8ff" d="M461.7,-96.45C488.39,-105.55 527.31,-118.8 556.79,-128.84"/>
<polygon fill="#63b8ff" stroke="#63b8ff" points="555.56,-132.12 566.15,-132.03 557.82,-125.49 555.56,-132.12"/>
</a>
</g>
</g>
<!-- Node25 -->
<g id="Node000025" class="node">
<title>Node25</title>
<g id="a_Node000025"><a xlink:href="$class_interactions.html#ade7f52c59105f434650b9358b22e5488" xlink:title=" ">
<polygon fill="white" stroke="#666666" points="659.88,-20 538.88,-20 538.88,0 659.88,0 659.88,-20"/>
<text text-anchor="middle" x="599.38" y="-6.5" font-family="Helvetica,sans-Serif" font-size="10.00">Interactions::resetCount</text>
</a>
</g>
</g>
<!-- Node3&#45;&gt;Node25 -->
<g id="edge56_Node000003_Node000025" class="edge">
<title>Node3&#45;&gt;Node25</title>
<g id="a_edge56_Node000003_Node000025"><a xlink:title=" ">
<path fill="none" stroke="#63b8ff" d="M447.62,-75.64C467.94,-63.3 503.67,-42.65 536.25,-29 540.35,-27.28 544.65,-25.65 549.01,-24.1"/>
<polygon fill="#63b8ff" stroke="#63b8ff" points="550.03,-27.45 558.4,-20.96 547.81,-20.82 550.03,-27.45"/>
</a>
</g>
</g>
<!-- Node26 -->
<g id="Node000026" class="node">
<title>Node26</title>
<g id="a_Node000026"><a xlink:href="$class_interactions.html#ad7daddd9df3cea80e69872b8afd6c8dc" xlink:title=" ">
<polygon fill="white" stroke="#666666" points="836,-86 698.5,-86 698.5,-66 836,-66 836,-86"/>
<text text-anchor="middle" x="767.25" y="-72.5" font-family="Helvetica,sans-Serif" font-size="10.00">Interactions::templateFound</text>
</a>
</g>
</g>
<!-- Node3&#45;&gt;Node26 -->
<g id="edge57_Node000003_Node000026" class="edge">
<title>Node3&#45;&gt;Node26</title>
<g id="a_edge57_Node000003_Node000026"><a xlink:title=" ">
<path fill="none" stroke="#63b8ff" d="M500.46,-83.93C554.65,-82.31 629.97,-80.07 686.6,-78.38"/>
<polygon fill="#63b8ff" stroke="#63b8ff" points="686.62,-81.88 696.51,-78.08 686.41,-74.88 686.62,-81.88"/>
</a>
</g>
</g>
<!-- Node5 -->
<g id="Node000005" class="node">
<title>Node5</title>
<g id="a_Node000005"><a xlink:href="$fopencv_8cpp.html#a69713584f69a121e4ed91918a64448a0" xlink:title=" ">
<polygon fill="white" stroke="#666666" points="958.88,-238 878.38,-238 878.38,-218 958.88,-218 958.88,-238"/>
<text text-anchor="middle" x="918.62" y="-224.5" font-family="Helvetica,sans-Serif" font-size="10.00">cvmtfTemplate</text>
</a>
</g>
</g>
<!-- Node4&#45;&gt;Node5 -->
<g id="edge34_Node000004_Node000005" class="edge">
<title>Node4&#45;&gt;Node5</title>
<g id="a_edge34_Node000004_Node000005"><a xlink:title=" ">
<path fill="none" stroke="#63b8ff" d="M648.9,-207.67C707.81,-212.13 806.69,-219.61 866.67,-224.15"/>
<polygon fill="#63b8ff" stroke="#63b8ff" points="866.38,-227.63 876.62,-224.9 866.91,-220.65 866.38,-227.63"/>
</a>
</g>
</g>
<!-- Node6 -->
<g id="Node000006" class="node">
<title>Node6</title>
<g id="a_Node000006"><a xlink:href="$fopencv_8cpp.html#af6fc77188d314c0d5a58888452f9b313" xlink:title=" ">
<polygon fill="white" stroke="#666666" points="1084.38,-200 1016.62,-200 1016.62,-180 1084.38,-180 1084.38,-200"/>
<text text-anchor="middle" x="1050.5" y="-186.5" font-family="Helvetica,sans-Serif" font-size="10.00">extractZone</text>
</a>
</g>
</g>
<!-- Node5&#45;&gt;Node6 -->
<g id="edge35_Node000005_Node000006" class="edge">
<title>Node5&#45;&gt;Node6</title>
<g id="a_edge35_Node000005_Node000006"><a xlink:title=" ">
<path fill="none" stroke="#63b8ff" d="M955.46,-217.52C970.95,-212.98 989.24,-207.63 1005.54,-202.86"/>
<polygon fill="#63b8ff" stroke="#63b8ff" points="1006.39,-206.26 1015,-200.09 1004.42,-199.54 1006.39,-206.26"/>
</a>
</g>
</g>
<!-- Node7 -->
<g id="Node000007" class="node">
<title>Node7</title>
<g id="a_Node000007"><a xlink:href="$struct_zone.html#a5301e7fcf185a5a79c1bf7d7930f4b8a" xlink:title=" ">
<polygon fill="white" stroke="#666666" points="1084.75,-314 1016.25,-314 1016.25,-294 1084.75,-294 1084.75,-314"/>
<text text-anchor="middle" x="1050.5" y="-300.5" font-family="Helvetica,sans-Serif" font-size="10.00">Zone::isNull</text>
</a>
</g>
</g>
<!-- Node5&#45;&gt;Node7 -->
<g id="edge36_Node000005_Node000007" class="edge">
<title>Node5&#45;&gt;Node7</title>
<g id="a_edge36_Node000005_Node000007"><a xlink:title=" ">
<path fill="none" stroke="#63b8ff" d="M932.58,-238.49C948.18,-250.77 975.51,-271.19 1001.25,-285 1003.78,-286.36 1006.44,-287.67 1009.14,-288.94"/>
<polygon fill="#63b8ff" stroke="#63b8ff" points="1007.71,-292.13 1018.27,-292.91 1010.5,-285.71 1007.71,-292.13"/>
</a>
</g>
</g>
<!-- Node9 -->
<g id="Node000009" class="node">
<title>Node9</title>
<g id="a_Node000009"><a xlink:href="$fopencv_8cpp.html#a1ed1ff1a9df2ab889e1423cb11a58c06" xlink:title=" ">
<polygon fill="white" stroke="#666666" points="1091.88,-276 1009.12,-276 1009.12,-256 1091.88,-256 1091.88,-276"/>
<text text-anchor="middle" x="1050.5" y="-262.5" font-family="Helvetica,sans-Serif" font-size="10.00">messageFound</text>
</a>
</g>
</g>
<!-- Node5&#45;&gt;Node9 -->
<g id="edge38_Node000005_Node000009" class="edge">
<title>Node5&#45;&gt;Node9</title>
<g id="a_edge38_Node000005_Node000009"><a xlink:title=" ">
<path fill="none" stroke="#63b8ff" d="M955.46,-238.48C970.08,-242.76 987.18,-247.77 1002.76,-252.33"/>
<polygon fill="#63b8ff" stroke="#63b8ff" points="1001.75,-255.68 1012.33,-255.12 1003.72,-248.96 1001.75,-255.68"/>
</a>
</g>
</g>
<!-- Node10 -->
<g id="Node000010" class="node">
<title>Node10</title>
<g id="a_Node000010"><a xlink:href="$fopencv_8cpp.html#ae51fd1f3ed39bd8c9b8da4a313d5aeb3" xlink:title=" ">
<polygon fill="white" stroke="#666666" points="1099.75,-238 1001.25,-238 1001.25,-218 1099.75,-218 1099.75,-238"/>
<text text-anchor="middle" x="1050.5" y="-224.5" font-family="Helvetica,sans-Serif" font-size="10.00">oneMatchTemplate</text>
</a>
</g>
</g>
<!-- Node5&#45;&gt;Node10 -->
<g id="edge39_Node000005_Node000010" class="edge">
<title>Node5&#45;&gt;Node10</title>
<g id="a_edge39_Node000005_Node000010"><a xlink:title=" ">
<path fill="none" stroke="#63b8ff" d="M959.3,-228C968.84,-228 979.24,-228 989.47,-228"/>
<polygon fill="#63b8ff" stroke="#63b8ff" points="989.39,-231.5 999.39,-228 989.39,-224.5 989.39,-231.5"/>
</a>
</g>
</g>
<!-- Node8 -->
<g id="Node000008" class="node">
<title>Node8</title>
<g id="a_Node000008"><a xlink:href="$struct_coord.html#a34c573cd6230e5a532f12ae97e7395e2" xlink:title=" ">
<polygon fill="white" stroke="#666666" points="1208.75,-314 1135.75,-314 1135.75,-294 1208.75,-294 1208.75,-314"/>
<text text-anchor="middle" x="1172.25" y="-300.5" font-family="Helvetica,sans-Serif" font-size="10.00">Coord::isNull</text>
</a>
</g>
</g>
<!-- Node7&#45;&gt;Node8 -->
<g id="edge37_Node000007_Node000008" class="edge">
<title>Node7&#45;&gt;Node8</title>
<g id="a_edge37_Node000007_Node000008"><a xlink:title=" ">
<path fill="none" stroke="#63b8ff" d="M1085.18,-304C1097.27,-304 1111.14,-304 1124.16,-304"/>
<polygon fill="#63b8ff" stroke="#63b8ff" points="1123.8,-307.5 1133.8,-304 1123.8,-300.5 1123.8,-307.5"/>
</a>
</g>
</g>
<!-- Node12 -->
<g id="Node000012" class="node">
<title>Node12</title>
<g id="a_Node000012"><a xlink:href="$struct_template.html#a93d3c6f97592ba09d7819fda3c3296d7" xlink:title=" ">
<polygon fill="white" stroke="#666666" points="815.38,-48 719.12,-48 719.12,-28 815.38,-28 815.38,-48"/>
<text text-anchor="middle" x="767.25" y="-34.5" font-family="Helvetica,sans-Serif" font-size="10.00">Template::setType</text>
</a>
</g>
</g>
<!-- Node11&#45;&gt;Node12 -->
<g id="edge41_Node000011_Node000012" class="edge">
<title>Node11&#45;&gt;Node12</title>
<g id="a_edge41_Node000011_Node000012"><a xlink:title=" ">
<path fill="none" stroke="#63b8ff" d="M662.61,-44.25C677.27,-43.36 692.84,-42.43 707.34,-41.55"/>
<polygon fill="#63b8ff" stroke="#63b8ff" points="707.42,-45.05 717.19,-40.96 707,-38.07 707.42,-45.05"/>
</a>
</g>
</g>
<!-- Node14 -->
<g id="Node000014" class="node">
<title>Node14</title>
<g id="a_Node000014"><a xlink:href="$fopencv_8cpp.html#a5c455ed716b7fa4c675446fc5b8ba4fb" xlink:title=" ">
<polygon fill="white" stroke="#666666" points="798.12,-124 736.38,-124 736.38,-104 798.12,-104 798.12,-124"/>
<text text-anchor="middle" x="767.25" y="-110.5" font-family="Helvetica,sans-Serif" font-size="10.00">CreateMat</text>
</a>
</g>
</g>
<!-- Node13&#45;&gt;Node14 -->
<g id="edge43_Node000013_Node000014" class="edge">
<title>Node13&#45;&gt;Node14</title>
<g id="a_edge43_Node000013_Node000014"><a xlink:title=" ">
<path fill="none" stroke="#63b8ff" d="M660.26,-132.53C681.72,-128.78 705.43,-124.63 724.96,-121.22"/>
<polygon fill="#63b8ff" stroke="#63b8ff" points="725.5,-124.68 734.74,-119.51 724.29,-117.78 725.5,-124.68"/>
</a>
</g>
</g>
<!-- Node15 -->
<g id="Node000015" class="node">
<title>Node15</title>
<g id="a_Node000015"><a xlink:href="$class_interactions.html#aed04f9177d2aba467d71818a5e82c7bc" xlink:title=" ">
<polygon fill="white" stroke="#666666" points="824.38,-162 710.12,-162 710.12,-142 824.38,-142 824.38,-162"/>
<text text-anchor="middle" x="767.25" y="-148.5" font-family="Helvetica,sans-Serif" font-size="10.00">Interactions::fcpopupA</text>
</a>
</g>
</g>
<!-- Node13&#45;&gt;Node15 -->
<g id="edge44_Node000013_Node000015" class="edge">
<title>Node13&#45;&gt;Node15</title>
<g id="a_edge44_Node000013_Node000015"><a xlink:title=" ">
<path fill="none" stroke="#63b8ff" d="M660.26,-146.25C672.62,-146.92 685.73,-147.63 698.35,-148.32"/>
<polygon fill="#63b8ff" stroke="#63b8ff" points="698.09,-151.81 708.26,-148.85 698.47,-144.82 698.09,-151.81"/>
</a>
</g>
</g>
<!-- Node18 -->
<g id="Node000018" class="node">
<title>Node18</title>
<g id="a_Node000018"><a xlink:href="$fadb_8cpp.html#aeec40a5f78ae4713eedd84cb5f75746f" xlink:title=" ">
<polygon fill="white" stroke="#666666" points="799.25,-200 735.25,-200 735.25,-180 799.25,-180 799.25,-200"/>
<text text-anchor="middle" x="767.25" y="-186.5" font-family="Helvetica,sans-Serif" font-size="10.00">screenshot</text>
</a>
</g>
</g>
<!-- Node13&#45;&gt;Node18 -->
<g id="edge49_Node000013_Node000018" class="edge">
<title>Node13&#45;&gt;Node18</title>
<g id="a_edge49_Node000013_Node000018"><a xlink:title=" ">
<path fill="none" stroke="#63b8ff" d="M636.71,-153.41C655.2,-158.7 678.04,-165.21 698.5,-171 706.75,-173.34 715.58,-175.82 724.04,-178.19"/>
<polygon fill="#63b8ff" stroke="#63b8ff" points="722.84,-181.49 733.42,-180.82 724.73,-174.75 722.84,-181.49"/>
</a>
</g>
</g>
<!-- Node15&#45;&gt;Node5 -->
<g id="edge47_Node000015_Node000005" class="edge">
<title>Node15&#45;&gt;Node5</title>
<g id="a_edge47_Node000015_Node000005"><a xlink:title=" ">
<path fill="none" stroke="#63b8ff" d="M817.24,-162.47C823.77,-164.79 830.2,-167.61 836,-171 855.53,-182.43 853.43,-194.07 872,-207 874.68,-208.87 877.56,-210.64 880.51,-212.3"/>
<polygon fill="#63b8ff" stroke="#63b8ff" points="878.86,-215.39 889.35,-216.83 882.05,-209.16 878.86,-215.39"/>
</a>
</g>
</g>
<!-- Node16 -->
<g id="Node000016" class="node">
<title>Node16</title>
<g id="a_Node000016"><a xlink:href="$class_interactions.html#aae6172962092f278714536142e987cde" xlink:title=" ">
<polygon fill="white" stroke="#666666" points="965.25,-91 872,-91 872,-71 965.25,-71 965.25,-91"/>
<text text-anchor="middle" x="918.62" y="-77.5" font-family="Helvetica,sans-Serif" font-size="10.00">Interactions::click</text>
</a>
</g>
</g>
<!-- Node15&#45;&gt;Node16 -->
<g id="edge45_Node000015_Node000016" class="edge">
<title>Node15&#45;&gt;Node16</title>
<g id="a_edge45_Node000015_Node000016"><a xlink:title=" ">
<path fill="none" stroke="#63b8ff" d="M812.65,-141.57C820.57,-139.15 828.64,-136.29 836,-133 857.21,-123.52 879.33,-109.11 895.18,-97.86"/>
<polygon fill="#63b8ff" stroke="#63b8ff" points="896.91,-100.93 902.95,-92.22 892.8,-95.26 896.91,-100.93"/>
</a>
</g>
</g>
<!-- Node17 -->
<g id="Node000017" class="node">
<title>Node17</title>
<g id="a_Node000017"><a xlink:href="$class_interactions.html#abd5b5d8a44970e1333e3611e302f166c" xlink:title=" ">
<polygon fill="white" stroke="#666666" points="964.12,-157 873.12,-157 873.12,-137 964.12,-137 964.12,-157"/>
<text text-anchor="middle" x="918.62" y="-143.5" font-family="Helvetica,sans-Serif" font-size="10.00">Interactions::wait</text>
</a>
</g>
</g>
<!-- Node15&#45;&gt;Node17 -->
<g id="edge48_Node000015_Node000017" class="edge">
<title>Node15&#45;&gt;Node17</title>
<g id="a_edge48_Node000015_Node000017"><a xlink:title=" ">
<path fill="none" stroke="#63b8ff" d="M824.72,-150.11C836.74,-149.71 849.43,-149.28 861.44,-148.88"/>
<polygon fill="#63b8ff" stroke="#63b8ff" points="861.32,-152.39 871.19,-148.55 861.08,-145.39 861.32,-152.39"/>
</a>
</g>
</g>
<!-- Node16&#45;&gt;Node16 -->
<g id="edge46_Node000016_Node000016" class="edge">
<title>Node16&#45;&gt;Node16</title>
<g id="a_edge46_Node000016_Node000016"><a xlink:title=" ">
<path fill="none" stroke="#63b8ff" d="M897.67,-91.34C888.72,-99.98 895.7,-109 918.62,-109 931.16,-109 938.93,-106.3 941.93,-102.44"/>
<polygon fill="#63b8ff" stroke="#63b8ff" points="945.39,-101.88 939.89,-92.82 938.54,-103.33 945.39,-101.88"/>
</a>
</g>
</g>
<!-- Node19 -->
<g id="Node000019" class="node">
<title>Node19</title>
<g id="a_Node000019"><a xlink:href="$fadb_8cpp.html#a7ab9819839864ebd26d0e7e68e330418" xlink:title=" ">
<polygon fill="white" stroke="#666666" points="960.75,-198 876.5,-198 876.5,-178 960.75,-178 960.75,-198"/>
<text text-anchor="middle" x="918.62" y="-184.5" font-family="Helvetica,sans-Serif" font-size="10.00">takeScreenshot</text>
</a>
</g>
</g>
<!-- Node18&#45;&gt;Node19 -->
<g id="edge50_Node000018_Node000019" class="edge">
<title>Node18&#45;&gt;Node19</title>
<g id="a_edge50_Node000018_Node000019"><a xlink:title=" ">
<path fill="none" stroke="#63b8ff" d="M799.56,-189.58C818.42,-189.33 842.92,-189 864.71,-188.71"/>
<polygon fill="#63b8ff" stroke="#63b8ff" points="864.68,-192.21 874.63,-188.58 864.58,-185.21 864.68,-192.21"/>
</a>
</g>
</g>
<!-- Node20 -->
<g id="Node000020" class="node">
<title>Node20</title>
<g id="a_Node000020"><a xlink:href="$fadb_8cpp.html#ac6339b59ba8238f7483dece7f3fdf51b" xlink:title=" ">
<polygon fill="white" stroke="#666666" points="1094.88,-162 1006.12,-162 1006.12,-142 1094.88,-142 1094.88,-162"/>
<text text-anchor="middle" x="1050.5" y="-148.5" font-family="Helvetica,sans-Serif" font-size="10.00">runAdbLocalhost</text>
</a>
</g>
</g>
<!-- Node19&#45;&gt;Node20 -->
<g id="edge51_Node000019_Node000020" class="edge">
<title>Node19&#45;&gt;Node20</title>
<g id="a_edge51_Node000019_Node000020"><a xlink:title=" ">
<path fill="none" stroke="#63b8ff" d="M957.19,-177.59C970.92,-173.78 986.65,-169.42 1001.19,-165.39"/>
<polygon fill="#63b8ff" stroke="#63b8ff" points="1001.86,-168.84 1010.56,-162.79 999.99,-162.09 1001.86,-168.84"/>
</a>
</g>
</g>
<!-- Node21 -->
<g id="Node000021" class="node">
<title>Node21</title>
<g id="a_Node000021"><a xlink:href="$fadb_8cpp.html#a383ae5fedc9f597a03c74c729a2eb740" xlink:title=" ">
<polygon fill="white" stroke="#666666" points="1195.62,-162 1148.88,-162 1148.88,-142 1195.62,-142 1195.62,-162"/>
<text text-anchor="middle" x="1172.25" y="-148.5" font-family="Helvetica,sans-Serif" font-size="10.00">runAdb</text>
</a>
</g>
</g>
<!-- Node20&#45;&gt;Node21 -->
<g id="edge52_Node000020_Node000021" class="edge">
<title>Node20&#45;&gt;Node21</title>
<g id="a_edge52_Node000020_Node000021"><a xlink:title=" ">
<path fill="none" stroke="#63b8ff" d="M1095.07,-152C1108.9,-152 1123.97,-152 1137.04,-152"/>
<polygon fill="#63b8ff" stroke="#63b8ff" points="1136.87,-155.5 1146.87,-152 1136.87,-148.5 1136.87,-155.5"/>
</a>
</g>
</g>
<!-- Node22 -->
<g id="Node000022" class="node">
<title>Node22</title>
<g id="a_Node000022"><a xlink:href="$sys_commands_8cpp.html#a321eb7e335377aa7182bafc8a1605032" xlink:title=" ">
<polygon fill="white" stroke="#666666" points="1311.75,-162 1244.75,-162 1244.75,-142 1311.75,-142 1311.75,-162"/>
<text text-anchor="middle" x="1278.25" y="-148.5" font-family="Helvetica,sans-Serif" font-size="10.00">receivePipe</text>
</a>
</g>
</g>
<!-- Node21&#45;&gt;Node22 -->
<g id="edge53_Node000021_Node000022" class="edge">
<title>Node21&#45;&gt;Node22</title>
<g id="a_edge53_Node000021_Node000022"><a xlink:title=" ">
<path fill="none" stroke="#63b8ff" d="M1196.07,-152C1206.97,-152 1220.39,-152 1233.16,-152"/>
<polygon fill="#63b8ff" stroke="#63b8ff" points="1233.1,-155.5 1243.1,-152 1233.1,-148.5 1233.1,-155.5"/>
</a>
</g>
</g>
<!-- Node23 -->
<g id="Node000023" class="node">
<title>Node23</title>
<g id="a_Node000023"><a xlink:href="$sys_commands_8cpp.html#a4771c79171a937893508dabadadbe099" xlink:title=" ">
<polygon fill="white" stroke="#666666" points="1406.5,-181 1347.75,-181 1347.75,-161 1406.5,-161 1406.5,-181"/>
<text text-anchor="middle" x="1377.12" y="-167.5" font-family="Helvetica,sans-Serif" font-size="10.00">closePipe</text>
</a>
</g>
</g>
<!-- Node22&#45;&gt;Node23 -->
<g id="edge54_Node000022_Node000023" class="edge">
<title>Node22&#45;&gt;Node23</title>
<g id="a_edge54_Node000022_Node000023"><a xlink:title=" ">
<path fill="none" stroke="#63b8ff" d="M1312.05,-158.43C1319.81,-159.95 1328.17,-161.59 1336.21,-163.17"/>
<polygon fill="#63b8ff" stroke="#63b8ff" points="1335.28,-166.56 1345.77,-165.05 1336.63,-159.69 1335.28,-166.56"/>
</a>
</g>
</g>
<!-- Node24 -->
<g id="Node000024" class="node">
<title>Node24</title>
<g id="a_Node000024"><a xlink:href="$sys_commands_8cpp.html#a3499ce0cd7e4ed28b3c5461a4d3aec84" xlink:title=" ">
<polygon fill="white" stroke="#666666" points="1405.38,-143 1348.88,-143 1348.88,-123 1405.38,-123 1405.38,-143"/>
<text text-anchor="middle" x="1377.12" y="-129.5" font-family="Helvetica,sans-Serif" font-size="10.00">openPipe</text>
</a>
</g>
</g>
<!-- Node22&#45;&gt;Node24 -->
<g id="edge55_Node000022_Node000024" class="edge">
<title>Node22&#45;&gt;Node24</title>
<g id="a_edge55_Node000022_Node000024"><a xlink:title=" ">
<path fill="none" stroke="#63b8ff" d="M1312.05,-145.57C1320.2,-143.97 1329.01,-142.24 1337.42,-140.59"/>
<polygon fill="#63b8ff" stroke="#63b8ff" points="1337.9,-144.06 1347.04,-138.7 1336.55,-137.19 1337.9,-144.06"/>
</a>
</g>
</g>
<!-- Node26&#45;&gt;Node16 -->
<g id="edge58_Node000026_Node000016" class="edge">
<title>Node26&#45;&gt;Node16</title>
<g id="a_edge58_Node000026_Node000016"><a xlink:title=" ">
<path fill="none" stroke="#63b8ff" d="M836.38,-78.28C844.45,-78.55 852.61,-78.82 860.5,-79.09"/>
<polygon fill="#63b8ff" stroke="#63b8ff" points="860.2,-82.58 870.31,-79.42 860.43,-75.58 860.2,-82.58"/>
</a>
</g>
</g>
<!-- Node26&#45;&gt;Node17 -->
<g id="edge59_Node000026_Node000017" class="edge">
<title>Node26&#45;&gt;Node17</title>
<g id="a_edge59_Node000026_Node000017"><a xlink:title=" ">
<path fill="none" stroke="#63b8ff" d="M812.65,-86.42C820.57,-88.85 828.64,-91.71 836,-95 853.33,-102.76 855.99,-107.8 872,-118 878.34,-122.04 885.17,-126.39 891.58,-130.46"/>
<polygon fill="#63b8ff" stroke="#63b8ff" points="889.55,-133.32 899.87,-135.73 893.31,-127.41 889.55,-133.32"/>
</a>
</g>
</g>
</g>
</svg>
