<?xml version="1.0" encoding="UTF-8" standalone="no"?>
<!DOCTYPE svg PUBLIC "-//W3C//DTD SVG 1.1//EN"
 "http://www.w3.org/Graphics/SVG/1.1/DTD/svg11.dtd">
<!-- Generated by graphviz version 12.2.0 (20241103.1931)
 -->
<!-- Title: BotConfig::readFavoritePreset Pages: 1 -->
<svg width="712pt" height="104pt"
 viewBox="0.00 0.00 712.00 104.00" xmlns="http://www.w3.org/2000/svg" xmlns:xlink="http://www.w3.org/1999/xlink">
<g id="graph0" class="graph" transform="scale(1 1) rotate(0) translate(4 100)">
<title>BotConfig::readFavoritePreset</title>
<!-- Node1 -->
<g id="Node000001" class="node">
<title>Node1</title>
<g id="a_Node000001"><a xlink:title=" ">
<polygon fill="#999999" stroke="#666666" points="148,-58 0,-58 0,-38 148,-38 148,-58"/>
<text text-anchor="middle" x="74" y="-44.5" font-family="Helvetica,sans-Serif" font-size="10.00">BotConfig::readFavoritePreset</text>
</a>
</g>
</g>
<!-- Node2 -->
<g id="Node000002" class="node">
<title>Node2</title>
<g id="a_Node000002"><a xlink:href="$class_bot_config.html#a6347ad0b79f04a755fe1d7151ed87cd2" xlink:title=" ">
<polygon fill="white" stroke="#666666" points="324.5,-58 184,-58 184,-38 324.5,-38 324.5,-58"/>
<text text-anchor="middle" x="254.25" y="-44.5" font-family="Helvetica,sans-Serif" font-size="10.00">BotConfig::readStringBotFile</text>
</a>
</g>
</g>
<!-- Node1&#45;&gt;Node2 -->
<g id="edge9_Node000001_Node000002" class="edge">
<title>Node1&#45;&gt;Node2</title>
<g id="a_edge9_Node000001_Node000002"><a xlink:title=" ">
<path fill="none" stroke="#63b8ff" d="M148.27,-48C156.24,-48 164.37,-48 172.42,-48"/>
<polygon fill="#63b8ff" stroke="#63b8ff" points="172.19,-51.5 182.19,-48 172.19,-44.5 172.19,-51.5"/>
</a>
</g>
</g>
<!-- Node3 -->
<g id="Node000003" class="node">
<title>Node3</title>
<g id="a_Node000003"><a xlink:href="$class_bot_config.html#a623d05e4d8e0122d35b1a3e391fc2464" xlink:title=" ">
<polygon fill="white" stroke="#666666" points="470.25,-58 360.5,-58 360.5,-38 470.25,-38 470.25,-58"/>
<text text-anchor="middle" x="415.38" y="-44.5" font-family="Helvetica,sans-Serif" font-size="10.00">BotConfig::readString</text>
</a>
</g>
</g>
<!-- Node2&#45;&gt;Node3 -->
<g id="edge10_Node000002_Node000003" class="edge">
<title>Node2&#45;&gt;Node3</title>
<g id="a_edge10_Node000002_Node000003"><a xlink:title=" ">
<path fill="none" stroke="#63b8ff" d="M324.58,-48C332.57,-48 340.7,-48 348.64,-48"/>
<polygon fill="#63b8ff" stroke="#63b8ff" points="348.59,-51.5 358.59,-48 348.59,-44.5 348.59,-51.5"/>
</a>
</g>
</g>
<!-- Node4 -->
<g id="Node000004" class="node">
<title>Node4</title>
<g id="a_Node000004"><a xlink:href="$_text_manager_8cpp.html#aa61ad4367d44c1e14541c7c1c46da795" xlink:title=" ">
<polygon fill="white" stroke="#666666" points="586.75,-96 506.25,-96 506.25,-76 586.75,-76 586.75,-96"/>
<text text-anchor="middle" x="546.5" y="-82.5" font-family="Helvetica,sans-Serif" font-size="10.00">extractContent</text>
</a>
</g>
</g>
<!-- Node3&#45;&gt;Node4 -->
<g id="edge11_Node000003_Node000004" class="edge">
<title>Node3&#45;&gt;Node4</title>
<g id="a_edge11_Node000003_Node000004"><a xlink:title=" ">
<path fill="none" stroke="#63b8ff" d="M452,-58.48C466.54,-62.76 483.54,-67.77 499.03,-72.33"/>
<polygon fill="#63b8ff" stroke="#63b8ff" points="497.96,-75.66 508.54,-75.12 499.93,-68.94 497.96,-75.66"/>
</a>
</g>
</g>
<!-- Node6 -->
<g id="Node000006" class="node">
<title>Node6</title>
<g id="a_Node000006"><a xlink:href="$_text_manager_8cpp.html#add36cc54cd9616a393a17b8961491477" xlink:title=" ">
<polygon fill="white" stroke="#666666" points="586.38,-20 506.62,-20 506.62,0 586.38,0 586.38,-20"/>
<text text-anchor="middle" x="546.5" y="-6.5" font-family="Helvetica,sans-Serif" font-size="10.00">getFileContent</text>
</a>
</g>
</g>
<!-- Node3&#45;&gt;Node6 -->
<g id="edge13_Node000003_Node000006" class="edge">
<title>Node3&#45;&gt;Node6</title>
<g id="a_edge13_Node000003_Node000006"><a xlink:title=" ">
<path fill="none" stroke="#63b8ff" d="M452,-37.52C466.54,-33.24 483.54,-28.23 499.03,-23.67"/>
<polygon fill="#63b8ff" stroke="#63b8ff" points="499.93,-27.06 508.54,-20.88 497.96,-20.34 499.93,-27.06"/>
</a>
</g>
</g>
<!-- Node8 -->
<g id="Node000008" class="node">
<title>Node8</title>
<g id="a_Node000008"><a xlink:href="$_text_manager_8cpp.html#af24bee60aa1d3d5b4ae3bf6ebd267ecd" xlink:title=" ">
<polygon fill="white" stroke="#666666" points="570.25,-58 522.75,-58 522.75,-38 570.25,-38 570.25,-58"/>
<text text-anchor="middle" x="546.5" y="-44.5" font-family="Helvetica,sans-Serif" font-size="10.00">getLine</text>
</a>
</g>
</g>
<!-- Node3&#45;&gt;Node8 -->
<g id="edge15_Node000003_Node000008" class="edge">
<title>Node3&#45;&gt;Node8</title>
<g id="a_edge15_Node000003_Node000008"><a xlink:title=" ">
<path fill="none" stroke="#63b8ff" d="M470.39,-48C484.21,-48 498.7,-48 511.23,-48"/>
<polygon fill="#63b8ff" stroke="#63b8ff" points="511.03,-51.5 521.03,-48 511.03,-44.5 511.03,-51.5"/>
</a>
</g>
</g>
<!-- Node5 -->
<g id="Node000005" class="node">
<title>Node5</title>
<g id="a_Node000005"><a xlink:href="$_text_manager_8cpp.html#afbb8972025ad14e914fdaafa26957439" xlink:title=" ">
<polygon fill="white" stroke="#666666" points="687.88,-77 638.88,-77 638.88,-57 687.88,-57 687.88,-77"/>
<text text-anchor="middle" x="663.38" y="-63.5" font-family="Helvetica,sans-Serif" font-size="10.00">findPos</text>
</a>
</g>
</g>
<!-- Node4&#45;&gt;Node5 -->
<g id="edge12_Node000004_Node000005" class="edge">
<title>Node4&#45;&gt;Node5</title>
<g id="a_edge12_Node000004_Node000005"><a xlink:title=" ">
<path fill="none" stroke="#63b8ff" d="M587.03,-79.46C600.15,-77.29 614.65,-74.89 627.4,-72.78"/>
<polygon fill="#63b8ff" stroke="#63b8ff" points="627.74,-76.28 637.04,-71.19 626.6,-69.37 627.74,-76.28"/>
</a>
</g>
</g>
<!-- Node7 -->
<g id="Node000007" class="node">
<title>Node7</title>
<g id="a_Node000007"><a xlink:href="$_text_manager_8cpp.html#a5e4308ca14d1f4cfc2456fc26b1361a8" xlink:title=" ">
<polygon fill="white" stroke="#666666" points="704,-20 622.75,-20 622.75,0 704,0 704,-20"/>
<text text-anchor="middle" x="663.38" y="-6.5" font-family="Helvetica,sans-Serif" font-size="10.00">getIfstreamFile</text>
</a>
</g>
</g>
<!-- Node6&#45;&gt;Node7 -->
<g id="edge14_Node000006_Node000007" class="edge">
<title>Node6&#45;&gt;Node7</title>
<g id="a_edge14_Node000006_Node000007"><a xlink:title=" ">
<path fill="none" stroke="#63b8ff" d="M586.71,-10C594.58,-10 602.95,-10 611.15,-10"/>
<polygon fill="#63b8ff" stroke="#63b8ff" points="611.05,-13.5 621.05,-10 611.05,-6.5 611.05,-13.5"/>
</a>
</g>
</g>
<!-- Node8&#45;&gt;Node5 -->
<g id="edge16_Node000008_Node000005" class="edge">
<title>Node8&#45;&gt;Node5</title>
<g id="a_edge16_Node000008_Node000005"><a xlink:title=" ">
<path fill="none" stroke="#63b8ff" d="M570.75,-51.84C587.07,-54.54 609.17,-58.2 627.59,-61.25"/>
<polygon fill="#63b8ff" stroke="#63b8ff" points="626.84,-64.67 637.28,-62.85 627.98,-57.76 626.84,-64.67"/>
</a>
</g>
</g>
</g>
</svg>
