<?xml version="1.0" encoding="UTF-8" standalone="no"?>
<!DOCTYPE svg PUBLIC "-//W3C//DTD SVG 1.1//EN"
 "http://www.w3.org/Graphics/SVG/1.1/DTD/svg11.dtd">
<!-- Generated by graphviz version 12.2.0 (20241103.1931)
 -->
<!-- Title: BotConfig::setSearchEmulators Pages: 1 -->
<svg width="1850pt" height="189pt"
 viewBox="0.00 0.00 1850.00 189.00" xmlns="http://www.w3.org/2000/svg" xmlns:xlink="http://www.w3.org/1999/xlink">
<g id="graph0" class="graph" transform="scale(1 1) rotate(0) translate(4 185)">
<title>BotConfig::setSearchEmulators</title>
<!-- Node1 -->
<g id="Node000001" class="node">
<title>Node1</title>
<g id="a_Node000001"><a xlink:title=" ">
<polygon fill="#999999" stroke="#666666" points="154,-108 0,-108 0,-88 154,-88 154,-108"/>
<text text-anchor="middle" x="77" y="-94.5" font-family="Helvetica,sans-Serif" font-size="10.00">BotConfig::setSearchEmulators</text>
</a>
</g>
</g>
<!-- Node2 -->
<g id="Node000002" class="node">
<title>Node2</title>
<g id="a_Node000002"><a xlink:href="$class_bot_config.html#ae75cf338c4da36cf1996494dae4273ca" xlink:title=" ">
<polygon fill="white" stroke="#666666" points="316.25,-146 190,-146 190,-126 316.25,-126 316.25,-146"/>
<text text-anchor="middle" x="253.12" y="-132.5" font-family="Helvetica,sans-Serif" font-size="10.00">BotConfig::readSearchAll</text>
</a>
</g>
</g>
<!-- Node1&#45;&gt;Node2 -->
<g id="edge33_Node000001_Node000002" class="edge">
<title>Node1&#45;&gt;Node2</title>
<g id="a_edge33_Node000001_Node000002"><a xlink:title=" ">
<path fill="none" stroke="#63b8ff" d="M126.04,-108.48C146.79,-113.01 171.26,-118.35 193.09,-123.12"/>
<polygon fill="#63b8ff" stroke="#63b8ff" points="192.25,-126.51 202.76,-125.23 193.74,-119.68 192.25,-126.51"/>
</a>
</g>
</g>
<!-- Node16 -->
<g id="Node000016" class="node">
<title>Node16</title>
<g id="a_Node000016"><a xlink:href="$class_bot_config.html#ab89c77f603cb134bb5a1859dcd1bd850" xlink:title=" ">
<polygon fill="white" stroke="#666666" points="510.75,-108 357.5,-108 357.5,-88 510.75,-88 510.75,-108"/>
<text text-anchor="middle" x="434.12" y="-94.5" font-family="Helvetica,sans-Serif" font-size="10.00">BotConfig::readSearchLdPlayer</text>
</a>
</g>
</g>
<!-- Node1&#45;&gt;Node16 -->
<g id="edge64_Node000001_Node000016" class="edge">
<title>Node1&#45;&gt;Node16</title>
<g id="a_edge64_Node000001_Node000016"><a xlink:title=" ">
<path fill="none" stroke="#63b8ff" d="M154.18,-98C210.36,-98 286.89,-98 345.58,-98"/>
<polygon fill="#63b8ff" stroke="#63b8ff" points="345.55,-101.5 355.55,-98 345.55,-94.5 345.55,-101.5"/>
</a>
</g>
</g>
<!-- Node21 -->
<g id="Node000021" class="node">
<title>Node21</title>
<g id="a_Node000021"><a xlink:href="$class_bot_config.html#abe575477e07b1c120141f019fc7101af" xlink:title=" ">
<polygon fill="white" stroke="#666666" points="516,-70 352.25,-70 352.25,-50 516,-50 516,-70"/>
<text text-anchor="middle" x="434.12" y="-56.5" font-family="Helvetica,sans-Serif" font-size="10.00">BotConfig::readSearchBluestacks</text>
</a>
</g>
</g>
<!-- Node1&#45;&gt;Node21 -->
<g id="edge60_Node000001_Node000021" class="edge">
<title>Node1&#45;&gt;Node21</title>
<g id="a_edge60_Node000001_Node000021"><a xlink:title=" ">
<path fill="none" stroke="#63b8ff" d="M154.18,-89.85C208.73,-84.01 282.48,-76.12 340.44,-69.92"/>
<polygon fill="#63b8ff" stroke="#63b8ff" points="340.74,-73.41 350.31,-68.86 340,-66.45 340.74,-73.41"/>
</a>
</g>
</g>
<!-- Node3 -->
<g id="Node000003" class="node">
<title>Node3</title>
<g id="a_Node000003"><a xlink:href="$class_bot_config.html#a0c63abf2bd51de63c3de85b91fc1e5f1" xlink:title=" ">
<polygon fill="white" stroke="#666666" points="507.38,-146 360.88,-146 360.88,-126 507.38,-126 507.38,-146"/>
<text text-anchor="middle" x="434.12" y="-132.5" font-family="Helvetica,sans-Serif" font-size="10.00">BotConfig::readDataCollected</text>
</a>
</g>
</g>
<!-- Node2&#45;&gt;Node3 -->
<g id="edge34_Node000002_Node000003" class="edge">
<title>Node2&#45;&gt;Node3</title>
<g id="a_edge34_Node000002_Node000003"><a xlink:title=" ">
<path fill="none" stroke="#63b8ff" d="M316.73,-136C327.21,-136 338.22,-136 349.13,-136"/>
<polygon fill="#63b8ff" stroke="#63b8ff" points="348.92,-139.5 358.92,-136 348.92,-132.5 348.92,-139.5"/>
</a>
</g>
</g>
<!-- Node2&#45;&gt;Node16 -->
<g id="edge53_Node000002_Node000016" class="edge">
<title>Node2&#45;&gt;Node16</title>
<g id="a_edge53_Node000002_Node000016"><a xlink:title=" ">
<path fill="none" stroke="#63b8ff" d="M303.51,-125.52C324.93,-120.97 350.22,-115.6 372.75,-110.82"/>
<polygon fill="#63b8ff" stroke="#63b8ff" points="373.36,-114.26 382.42,-108.76 371.91,-107.42 373.36,-114.26"/>
</a>
</g>
</g>
<!-- Node4 -->
<g id="Node000004" class="node">
<title>Node4</title>
<g id="a_Node000004"><a xlink:href="$class_bot_config.html#a5aafe893fa75e1b711e3ef3f4e4db9cc" xlink:title=" ">
<polygon fill="white" stroke="#666666" points="876.5,-107 742,-107 742,-87 876.5,-87 876.5,-107"/>
<text text-anchor="middle" x="809.25" y="-93.5" font-family="Helvetica,sans-Serif" font-size="10.00">BotConfig::readBoolBotFile</text>
</a>
</g>
</g>
<!-- Node3&#45;&gt;Node4 -->
<g id="edge35_Node000003_Node000004" class="edge">
<title>Node3&#45;&gt;Node4</title>
<g id="a_edge35_Node000003_Node000004"><a xlink:title=" ">
<path fill="none" stroke="#63b8ff" d="M507.8,-133.33C562.48,-130.74 639.17,-125.85 706,-117 720.29,-115.11 735.59,-112.46 749.89,-109.7"/>
<polygon fill="#63b8ff" stroke="#63b8ff" points="750.49,-113.15 759.62,-107.77 749.13,-106.28 750.49,-113.15"/>
</a>
</g>
</g>
<!-- Node5 -->
<g id="Node000005" class="node">
<title>Node5</title>
<g id="a_Node000005"><a xlink:href="$class_bot_config.html#a459cd36b6c6f36f9bd73ff207e2fe5ec" xlink:title=" ">
<polygon fill="white" stroke="#666666" points="1034.62,-107 930.88,-107 930.88,-87 1034.62,-87 1034.62,-107"/>
<text text-anchor="middle" x="982.75" y="-93.5" font-family="Helvetica,sans-Serif" font-size="10.00">BotConfig::readBool</text>
</a>
</g>
</g>
<!-- Node4&#45;&gt;Node5 -->
<g id="edge36_Node000004_Node000005" class="edge">
<title>Node4&#45;&gt;Node5</title>
<g id="a_edge36_Node000004_Node000005"><a xlink:title=" ">
<path fill="none" stroke="#63b8ff" d="M876.56,-97C890.55,-97 905.27,-97 919.12,-97"/>
<polygon fill="#63b8ff" stroke="#63b8ff" points="919,-100.5 929,-97 919,-93.5 919,-100.5"/>
</a>
</g>
</g>
<!-- Node6 -->
<g id="Node000006" class="node">
<title>Node6</title>
<g id="a_Node000006"><a xlink:href="$class_bot_config.html#a623d05e4d8e0122d35b1a3e391fc2464" xlink:title=" ">
<polygon fill="white" stroke="#666666" points="1198.75,-87 1089,-87 1089,-67 1198.75,-67 1198.75,-87"/>
<text text-anchor="middle" x="1143.88" y="-73.5" font-family="Helvetica,sans-Serif" font-size="10.00">BotConfig::readString</text>
</a>
</g>
</g>
<!-- Node5&#45;&gt;Node6 -->
<g id="edge37_Node000005_Node000006" class="edge">
<title>Node5&#45;&gt;Node6</title>
<g id="a_edge37_Node000005_Node000006"><a xlink:title=" ">
<path fill="none" stroke="#63b8ff" d="M1034.97,-90.56C1048.52,-88.86 1063.33,-87 1077.52,-85.21"/>
<polygon fill="#63b8ff" stroke="#63b8ff" points="1077.74,-88.71 1087.23,-83.99 1076.87,-81.77 1077.74,-88.71"/>
</a>
</g>
</g>
<!-- Node7 -->
<g id="Node000007" class="node">
<title>Node7</title>
<g id="a_Node000007"><a xlink:href="$_text_manager_8cpp.html#a85a282af68cca7cf7d69487d1bacdc47" xlink:title=" ">
<polygon fill="white" stroke="#666666" points="1453.12,-125 1368.88,-125 1368.88,-105 1453.12,-105 1453.12,-125"/>
<text text-anchor="middle" x="1411" y="-111.5" font-family="Helvetica,sans-Serif" font-size="10.00">extractBetween</text>
</a>
</g>
</g>
<!-- Node6&#45;&gt;Node7 -->
<g id="edge38_Node000006_Node000007" class="edge">
<title>Node6&#45;&gt;Node7</title>
<g id="a_edge38_Node000006_Node000007"><a xlink:title=" ">
<path fill="none" stroke="#63b8ff" d="M1189.97,-87.46C1204.24,-90.52 1220.1,-93.66 1234.75,-96 1275.61,-102.52 1322.2,-107.45 1357.07,-110.66"/>
<polygon fill="#63b8ff" stroke="#63b8ff" points="1356.63,-114.13 1366.91,-111.54 1357.26,-107.16 1356.63,-114.13"/>
</a>
</g>
</g>
<!-- Node13 -->
<g id="Node000013" class="node">
<title>Node13</title>
<g id="a_Node000013"><a xlink:href="$_text_manager_8cpp.html#add36cc54cd9616a393a17b8961491477" xlink:title=" ">
<polygon fill="white" stroke="#666666" points="1314.5,-49 1234.75,-49 1234.75,-29 1314.5,-29 1314.5,-49"/>
<text text-anchor="middle" x="1274.62" y="-35.5" font-family="Helvetica,sans-Serif" font-size="10.00">getFileContent</text>
</a>
</g>
</g>
<!-- Node6&#45;&gt;Node13 -->
<g id="edge47_Node000006_Node000013" class="edge">
<title>Node6&#45;&gt;Node13</title>
<g id="a_edge47_Node000006_Node000013"><a xlink:title=" ">
<path fill="none" stroke="#63b8ff" d="M1180.4,-66.52C1194.89,-62.24 1211.85,-57.23 1227.29,-52.67"/>
<polygon fill="#63b8ff" stroke="#63b8ff" points="1228.17,-56.07 1236.77,-49.88 1226.19,-49.35 1228.17,-56.07"/>
</a>
</g>
</g>
<!-- Node14 -->
<g id="Node000014" class="node">
<title>Node14</title>
<g id="a_Node000014"><a xlink:href="$_text_manager_8cpp.html#af24bee60aa1d3d5b4ae3bf6ebd267ecd" xlink:title=" ">
<polygon fill="white" stroke="#666666" points="1298.38,-87 1250.88,-87 1250.88,-67 1298.38,-67 1298.38,-87"/>
<text text-anchor="middle" x="1274.62" y="-73.5" font-family="Helvetica,sans-Serif" font-size="10.00">getLine</text>
</a>
</g>
</g>
<!-- Node6&#45;&gt;Node14 -->
<g id="edge48_Node000006_Node000014" class="edge">
<title>Node6&#45;&gt;Node14</title>
<g id="a_edge48_Node000006_Node000014"><a xlink:title=" ">
<path fill="none" stroke="#63b8ff" d="M1199.1,-77C1212.75,-77 1227.02,-77 1239.37,-77"/>
<polygon fill="#63b8ff" stroke="#63b8ff" points="1239.04,-80.5 1249.04,-77 1239.04,-73.5 1239.04,-80.5"/>
</a>
</g>
</g>
<!-- Node8 -->
<g id="Node000008" class="node">
<title>Node8</title>
<g id="a_Node000008"><a xlink:href="$_text_manager_8cpp.html#a6956d58559ef67f422247fdeb1c22775" xlink:title=" ">
<polygon fill="white" stroke="#666666" points="1587.25,-125 1511.25,-125 1511.25,-105 1587.25,-105 1587.25,-125"/>
<text text-anchor="middle" x="1549.25" y="-111.5" font-family="Helvetica,sans-Serif" font-size="10.00">getStringAfter</text>
</a>
</g>
</g>
<!-- Node7&#45;&gt;Node8 -->
<g id="edge39_Node000007_Node000008" class="edge">
<title>Node7&#45;&gt;Node8</title>
<g id="a_edge39_Node000007_Node000008"><a xlink:title=" ">
<path fill="none" stroke="#63b8ff" d="M1453.62,-115C1468.21,-115 1484.73,-115 1499.83,-115"/>
<polygon fill="#63b8ff" stroke="#63b8ff" points="1499.53,-118.5 1509.53,-115 1499.53,-111.5 1499.53,-118.5"/>
</a>
</g>
</g>
<!-- Node12 -->
<g id="Node000012" class="node">
<title>Node12</title>
<g id="a_Node000012"><a xlink:href="$_text_manager_8cpp.html#aff8311b88dbf5f3091f3ac1262543242" xlink:title=" ">
<polygon fill="white" stroke="#666666" points="1591,-87 1507.5,-87 1507.5,-67 1591,-67 1591,-87"/>
<text text-anchor="middle" x="1549.25" y="-73.5" font-family="Helvetica,sans-Serif" font-size="10.00">getStringBefore</text>
</a>
</g>
</g>
<!-- Node7&#45;&gt;Node12 -->
<g id="edge45_Node000007_Node000012" class="edge">
<title>Node7&#45;&gt;Node12</title>
<g id="a_edge45_Node000007_Node000012"><a xlink:title=" ">
<path fill="none" stroke="#63b8ff" d="M1449.59,-104.52C1465.08,-100.2 1483.22,-95.14 1499.7,-90.54"/>
<polygon fill="#63b8ff" stroke="#63b8ff" points="1500.63,-93.91 1509.32,-87.86 1498.75,-87.17 1500.63,-93.91"/>
</a>
</g>
</g>
<!-- Node9 -->
<g id="Node000009" class="node">
<title>Node9</title>
<g id="a_Node000009"><a xlink:href="$_text_manager_8cpp.html#a5b66873abcff2faee361721f86b65dd0" xlink:title=" ">
<polygon fill="white" stroke="#666666" points="1705.25,-181 1637.5,-181 1637.5,-161 1705.25,-161 1705.25,-181"/>
<text text-anchor="middle" x="1671.38" y="-167.5" font-family="Helvetica,sans-Serif" font-size="10.00">getPosAfter</text>
</a>
</g>
</g>
<!-- Node8&#45;&gt;Node9 -->
<g id="edge40_Node000008_Node000009" class="edge">
<title>Node8&#45;&gt;Node9</title>
<g id="a_edge40_Node000008_Node000009"><a xlink:title=" ">
<path fill="none" stroke="#63b8ff" d="M1571.33,-125.42C1586.69,-132.95 1608.05,-143.29 1627,-152 1629.78,-153.28 1632.66,-154.58 1635.56,-155.88"/>
<polygon fill="#63b8ff" stroke="#63b8ff" points="1634.04,-159.04 1644.6,-159.89 1636.88,-152.64 1634.04,-159.04"/>
</a>
</g>
</g>
<!-- Node11 -->
<g id="Node000011" class="node">
<title>Node11</title>
<g id="a_Node000011"><a xlink:href="$_text_manager_8cpp.html#a2946b90fb3df56b0a74d53eb4160f4e2" xlink:title=" ">
<polygon fill="white" stroke="#666666" points="1715.75,-125 1627,-125 1627,-105 1715.75,-105 1715.75,-125"/>
<text text-anchor="middle" x="1671.38" y="-111.5" font-family="Helvetica,sans-Serif" font-size="10.00">getStringStarting</text>
</a>
</g>
</g>
<!-- Node8&#45;&gt;Node11 -->
<g id="edge42_Node000008_Node000011" class="edge">
<title>Node8&#45;&gt;Node11</title>
<g id="a_edge42_Node000008_Node000011"><a xlink:title=" ">
<path fill="none" stroke="#63b8ff" d="M1587.6,-115C1596.41,-115 1605.99,-115 1615.4,-115"/>
<polygon fill="#63b8ff" stroke="#63b8ff" points="1615.22,-118.5 1625.22,-115 1615.22,-111.5 1615.22,-118.5"/>
</a>
</g>
</g>
<!-- Node10 -->
<g id="Node000010" class="node">
<title>Node10</title>
<g id="a_Node000010"><a xlink:href="$_text_manager_8cpp.html#a3f4afb2b62acd297e783a22ffa9a7000" xlink:title=" ">
<polygon fill="white" stroke="#666666" points="1842,-125 1751.75,-125 1751.75,-105 1842,-105 1842,-125"/>
<text text-anchor="middle" x="1796.88" y="-111.5" font-family="Helvetica,sans-Serif" font-size="10.00">getSequencePos</text>
</a>
</g>
</g>
<!-- Node9&#45;&gt;Node10 -->
<g id="edge41_Node000009_Node000010" class="edge">
<title>Node9&#45;&gt;Node10</title>
<g id="a_edge41_Node000009_Node000010"><a xlink:title=" ">
<path fill="none" stroke="#63b8ff" d="M1696.28,-160.63C1702.62,-157.85 1709.45,-154.83 1715.75,-152 1731.49,-144.92 1748.9,-136.9 1763.45,-130.15"/>
<polygon fill="#63b8ff" stroke="#63b8ff" points="1764.52,-133.51 1772.11,-126.12 1761.56,-127.17 1764.52,-133.51"/>
</a>
</g>
</g>
<!-- Node11&#45;&gt;Node10 -->
<g id="edge43_Node000011_Node000010" class="edge">
<title>Node11&#45;&gt;Node10</title>
<g id="a_edge43_Node000011_Node000010"><a xlink:title=" ">
<path fill="none" stroke="#63b8ff" d="M1715.92,-115C1723.75,-115 1732.02,-115 1740.14,-115"/>
<polygon fill="#63b8ff" stroke="#63b8ff" points="1739.96,-118.5 1749.96,-115 1739.96,-111.5 1739.96,-118.5"/>
</a>
</g>
</g>
<!-- Node11&#45;&gt;Node11 -->
<g id="edge44_Node000011_Node000011" class="edge">
<title>Node11&#45;&gt;Node11</title>
<g id="a_edge44_Node000011_Node000011"><a xlink:title=" ">
<path fill="none" stroke="#63b8ff" d="M1651.97,-125.34C1643.68,-133.98 1650.15,-143 1671.38,-143 1682.98,-143 1690.18,-140.3 1692.96,-136.44"/>
<polygon fill="#63b8ff" stroke="#63b8ff" points="1696.43,-135.96 1691.07,-126.82 1689.56,-137.31 1696.43,-135.96"/>
</a>
</g>
</g>
<!-- Node12&#45;&gt;Node10 -->
<g id="edge46_Node000012_Node000010" class="edge">
<title>Node12&#45;&gt;Node10</title>
<g id="a_edge46_Node000012_Node000010"><a xlink:title=" ">
<path fill="none" stroke="#63b8ff" d="M1591.25,-80.34C1624.86,-83.41 1673.59,-88.61 1715.75,-96 1725.26,-97.67 1735.34,-99.78 1745.01,-101.98"/>
<polygon fill="#63b8ff" stroke="#63b8ff" points="1744.12,-105.37 1754.65,-104.25 1745.72,-98.55 1744.12,-105.37"/>
</a>
</g>
</g>
<!-- Node14&#45;&gt;Node7 -->
<g id="edge49_Node000014_Node000007" class="edge">
<title>Node14&#45;&gt;Node7</title>
<g id="a_edge49_Node000014_Node000007"><a xlink:title=" ">
<path fill="none" stroke="#63b8ff" d="M1298.72,-83.53C1316.11,-88.45 1340.53,-95.36 1362.08,-101.45"/>
<polygon fill="#63b8ff" stroke="#63b8ff" points="1360.99,-104.78 1371.57,-104.13 1362.9,-98.04 1360.99,-104.78"/>
</a>
</g>
</g>
<!-- Node15 -->
<g id="Node000015" class="node">
<title>Node15</title>
<g id="a_Node000015"><a xlink:href="$_text_manager_8cpp.html#a84a9e24fc5cce3cebf746bb656909bf8" xlink:title=" ">
<polygon fill="white" stroke="#666666" points="1471.5,-87 1350.5,-87 1350.5,-67 1471.5,-67 1471.5,-87"/>
<text text-anchor="middle" x="1411" y="-73.5" font-family="Helvetica,sans-Serif" font-size="10.00">extractBetweenReverse</text>
</a>
</g>
</g>
<!-- Node14&#45;&gt;Node15 -->
<g id="edge50_Node000014_Node000015" class="edge">
<title>Node14&#45;&gt;Node15</title>
<g id="a_edge50_Node000014_Node000015"><a xlink:title=" ">
<path fill="none" stroke="#63b8ff" d="M1298.72,-77C1310.09,-77 1324.46,-77 1339.07,-77"/>
<polygon fill="#63b8ff" stroke="#63b8ff" points="1338.73,-80.5 1348.73,-77 1338.73,-73.5 1338.73,-80.5"/>
</a>
</g>
</g>
<!-- Node15&#45;&gt;Node8 -->
<g id="edge51_Node000015_Node000008" class="edge">
<title>Node15&#45;&gt;Node8</title>
<g id="a_edge51_Node000015_Node000008"><a xlink:title=" ">
<path fill="none" stroke="#63b8ff" d="M1449.59,-87.48C1465.08,-91.8 1483.22,-96.86 1499.7,-101.46"/>
<polygon fill="#63b8ff" stroke="#63b8ff" points="1498.75,-104.83 1509.32,-104.14 1500.63,-98.09 1498.75,-104.83"/>
</a>
</g>
</g>
<!-- Node15&#45;&gt;Node12 -->
<g id="edge52_Node000015_Node000012" class="edge">
<title>Node15&#45;&gt;Node12</title>
<g id="a_edge52_Node000015_Node000012"><a xlink:title=" ">
<path fill="none" stroke="#63b8ff" d="M1471.76,-77C1479.83,-77 1488.06,-77 1495.99,-77"/>
<polygon fill="#63b8ff" stroke="#63b8ff" points="1495.82,-80.5 1505.82,-77 1495.82,-73.5 1495.82,-80.5"/>
</a>
</g>
</g>
<!-- Node17 -->
<g id="Node000017" class="node">
<title>Node17</title>
<g id="a_Node000017"><a xlink:href="$class_bot_config.html#a0c8b3da81dd5f06097ee696f2f466b67" xlink:title=" ">
<polygon fill="white" stroke="#666666" points="701.88,-108 556.12,-108 556.12,-88 701.88,-88 701.88,-108"/>
<text text-anchor="middle" x="629" y="-94.5" font-family="Helvetica,sans-Serif" font-size="10.00">BotConfig::readDataLDPlayer</text>
</a>
</g>
</g>
<!-- Node16&#45;&gt;Node17 -->
<g id="edge54_Node000016_Node000017" class="edge">
<title>Node16&#45;&gt;Node17</title>
<g id="a_edge54_Node000016_Node000017"><a xlink:title=" ">
<path fill="none" stroke="#63b8ff" d="M511.08,-98C522.03,-98 533.35,-98 544.45,-98"/>
<polygon fill="#63b8ff" stroke="#63b8ff" points="544.38,-101.5 554.38,-98 544.38,-94.5 544.38,-101.5"/>
</a>
</g>
</g>
<!-- Node18 -->
<g id="Node000018" class="node">
<title>Node18</title>
<g id="a_Node000018"><a xlink:href="$class_bot_config.html#a1ede9834fcb1b8dcedf47a367241d030" xlink:title=" ">
<polygon fill="white" stroke="#666666" points="693.25,-32 564.75,-32 564.75,0 693.25,0 693.25,-32"/>
<text text-anchor="start" x="572.75" y="-18.5" font-family="Helvetica,sans-Serif" font-size="10.00">BotConfig::verifyEmulator</text>
<text text-anchor="middle" x="629" y="-6.5" font-family="Helvetica,sans-Serif" font-size="10.00">Folder</text>
</a>
</g>
</g>
<!-- Node16&#45;&gt;Node18 -->
<g id="edge56_Node000016_Node000018" class="edge">
<title>Node16&#45;&gt;Node18</title>
<g id="a_edge56_Node000016_Node000018"><a xlink:title=" ">
<path fill="none" stroke="#63b8ff" d="M496.65,-87.58C503.4,-85.27 510,-82.45 516,-79 536.17,-67.41 532.35,-53.46 552,-41 553.97,-39.75 556.01,-38.56 558.1,-37.42"/>
<polygon fill="#63b8ff" stroke="#63b8ff" points="559.39,-40.69 566.83,-33.14 556.31,-34.4 559.39,-40.69"/>
</a>
</g>
</g>
<!-- Node17&#45;&gt;Node4 -->
<g id="edge55_Node000017_Node000004" class="edge">
<title>Node17&#45;&gt;Node4</title>
<g id="a_edge55_Node000017_Node000004"><a xlink:title=" ">
<path fill="none" stroke="#63b8ff" d="M702.24,-97.59C711.51,-97.54 721.02,-97.49 730.37,-97.44"/>
<polygon fill="#63b8ff" stroke="#63b8ff" points="730.16,-100.94 740.14,-97.38 730.12,-93.94 730.16,-100.94"/>
</a>
</g>
</g>
<!-- Node19 -->
<g id="Node000019" class="node">
<title>Node19</title>
<g id="a_Node000019"><a xlink:href="$sys_commands_8cpp.html#a662dd4893690567ba825a473508f47e2" xlink:title=" ">
<polygon fill="white" stroke="#666666" points="840.5,-26 778,-26 778,-6 840.5,-6 840.5,-26"/>
<text text-anchor="middle" x="809.25" y="-12.5" font-family="Helvetica,sans-Serif" font-size="10.00">pathExists</text>
</a>
</g>
</g>
<!-- Node18&#45;&gt;Node19 -->
<g id="edge57_Node000018_Node000019" class="edge">
<title>Node18&#45;&gt;Node19</title>
<g id="a_edge57_Node000018_Node000019"><a xlink:title=" ">
<path fill="none" stroke="#63b8ff" d="M693.6,-16C717.72,-16 744.58,-16 766.23,-16"/>
<polygon fill="#63b8ff" stroke="#63b8ff" points="766.16,-19.5 776.16,-16 766.16,-12.5 766.16,-19.5"/>
</a>
</g>
</g>
<!-- Node20 -->
<g id="Node000020" class="node">
<title>Node20</title>
<g id="a_Node000020"><a xlink:href="$class_bot_config.html#a6347ad0b79f04a755fe1d7151ed87cd2" xlink:title=" ">
<polygon fill="white" stroke="#666666" points="1053,-68 912.5,-68 912.5,-48 1053,-48 1053,-68"/>
<text text-anchor="middle" x="982.75" y="-54.5" font-family="Helvetica,sans-Serif" font-size="10.00">BotConfig::readStringBotFile</text>
</a>
</g>
</g>
<!-- Node18&#45;&gt;Node20 -->
<g id="edge58_Node000018_Node000020" class="edge">
<title>Node18&#45;&gt;Node20</title>
<g id="a_edge58_Node000018_Node000020"><a xlink:title=" ">
<path fill="none" stroke="#63b8ff" d="M693.55,-27.6C709.35,-30.26 726.26,-32.91 742,-35 794.75,-42 854.3,-47.72 900.85,-51.71"/>
<polygon fill="#63b8ff" stroke="#63b8ff" points="900.33,-55.18 910.59,-52.53 900.92,-48.2 900.33,-55.18"/>
</a>
</g>
</g>
<!-- Node20&#45;&gt;Node6 -->
<g id="edge59_Node000020_Node000006" class="edge">
<title>Node20&#45;&gt;Node6</title>
<g id="a_edge59_Node000020_Node000006"><a xlink:title=" ">
<path fill="none" stroke="#63b8ff" d="M1053.08,-66.28C1061.16,-67.24 1069.39,-68.23 1077.42,-69.18"/>
<polygon fill="#63b8ff" stroke="#63b8ff" points="1076.76,-72.63 1087.1,-70.34 1077.59,-65.68 1076.76,-72.63"/>
</a>
</g>
</g>
<!-- Node21&#45;&gt;Node18 -->
<g id="edge63_Node000021_Node000018" class="edge">
<title>Node21&#45;&gt;Node18</title>
<g id="a_edge63_Node000021_Node000018"><a xlink:title=" ">
<path fill="none" stroke="#63b8ff" d="M480.83,-49.57C502.47,-44.64 528.88,-38.61 553.31,-33.04"/>
<polygon fill="#63b8ff" stroke="#63b8ff" points="553.93,-36.49 562.9,-30.85 552.37,-29.66 553.93,-36.49"/>
</a>
</g>
</g>
<!-- Node22 -->
<g id="Node000022" class="node">
<title>Node22</title>
<g id="a_Node000022"><a xlink:href="$class_bot_config.html#ad461209f70e41b763999c7453e4529ee" xlink:title=" ">
<polygon fill="white" stroke="#666666" points="706,-70 552,-70 552,-50 706,-50 706,-70"/>
<text text-anchor="middle" x="629" y="-56.5" font-family="Helvetica,sans-Serif" font-size="10.00">BotConfig::readDataBluestacks</text>
</a>
</g>
</g>
<!-- Node21&#45;&gt;Node22 -->
<g id="edge61_Node000021_Node000022" class="edge">
<title>Node21&#45;&gt;Node22</title>
<g id="a_edge61_Node000021_Node000022"><a xlink:title=" ">
<path fill="none" stroke="#63b8ff" d="M516.36,-60C524.34,-60 532.46,-60 540.5,-60"/>
<polygon fill="#63b8ff" stroke="#63b8ff" points="540.26,-63.5 550.26,-60 540.26,-56.5 540.26,-63.5"/>
</a>
</g>
</g>
<!-- Node22&#45;&gt;Node4 -->
<g id="edge62_Node000022_Node000004" class="edge">
<title>Node22&#45;&gt;Node4</title>
<g id="a_edge62_Node000022_Node000004"><a xlink:title=" ">
<path fill="none" stroke="#63b8ff" d="M680.13,-70.41C700.82,-74.7 725.01,-79.72 746.76,-84.24"/>
<polygon fill="#63b8ff" stroke="#63b8ff" points="745.9,-87.63 756.4,-86.24 747.32,-80.78 745.9,-87.63"/>
</a>
</g>
</g>
</g>
</svg>
