<?xml version="1.0" encoding="UTF-8" standalone="no"?>
<!DOCTYPE svg PUBLIC "-//W3C//DTD SVG 1.1//EN"
 "http://www.w3.org/Graphics/SVG/1.1/DTD/svg11.dtd">
<!-- Generated by graphviz version 12.2.0 (20241103.1931)
 -->
<!-- Title: FlowTagPanel::hideChildren Pages: 1 -->
<svg width="336pt" height="66pt"
 viewBox="0.00 0.00 335.50 66.00" xmlns="http://www.w3.org/2000/svg" xmlns:xlink="http://www.w3.org/1999/xlink">
<g id="graph0" class="graph" transform="scale(1 1) rotate(0) translate(4 62)">
<title>FlowTagPanel::hideChildren</title>
<!-- Node1 -->
<g id="Node000001" class="node">
<title>Node1</title>
<g id="a_Node000001"><a xlink:title=" ">
<polygon fill="#999999" stroke="#666666" points="137.5,-39 0,-39 0,-19 137.5,-19 137.5,-39"/>
<text text-anchor="middle" x="68.75" y="-25.5" font-family="Helvetica,sans-Serif" font-size="10.00">FlowTagPanel::hideChildren</text>
</a>
</g>
</g>
<!-- Node2 -->
<g id="Node000002" class="node">
<title>Node2</title>
<g id="a_Node000002"><a xlink:href="$class_flow_tag_panel.html#a908b8a9b0319c8c60588dff9296e9baf" xlink:title=" ">
<polygon fill="white" stroke="#666666" points="327.5,-58 173.5,-58 173.5,-38 327.5,-38 327.5,-58"/>
<text text-anchor="middle" x="250.5" y="-44.5" font-family="Helvetica,sans-Serif" font-size="10.00">FlowTagPanel::getChildrenTags</text>
</a>
</g>
</g>
<!-- Node1&#45;&gt;Node2 -->
<g id="edge3_Node000001_Node000002" class="edge">
<title>Node1&#45;&gt;Node2</title>
<g id="a_edge3_Node000001_Node000002"><a xlink:title=" ">
<path fill="none" stroke="#63b8ff" d="M137.96,-36.21C145.79,-37.04 153.86,-37.89 161.9,-38.74"/>
<polygon fill="#63b8ff" stroke="#63b8ff" points="161.4,-42.21 171.71,-39.78 162.14,-35.25 161.4,-42.21"/>
</a>
</g>
</g>
<!-- Node3 -->
<g id="Node000003" class="node">
<title>Node3</title>
<g id="a_Node000003"><a xlink:href="$class_tag_panel.html#a975da9b33d0c94992472b291df4aadbe" xlink:title=" ">
<polygon fill="white" stroke="#666666" points="305.75,-20 195.25,-20 195.25,0 305.75,0 305.75,-20"/>
<text text-anchor="middle" x="250.5" y="-6.5" font-family="Helvetica,sans-Serif" font-size="10.00">TagPanel::getIndexOf</text>
</a>
</g>
</g>
<!-- Node1&#45;&gt;Node3 -->
<g id="edge4_Node000001_Node000003" class="edge">
<title>Node1&#45;&gt;Node3</title>
<g id="a_edge4_Node000001_Node000003"><a xlink:title=" ">
<path fill="none" stroke="#63b8ff" d="M137.96,-21.79C153,-20.2 168.9,-18.52 183.83,-16.94"/>
<polygon fill="#63b8ff" stroke="#63b8ff" points="183.95,-20.45 193.53,-15.92 183.21,-13.49 183.95,-20.45"/>
</a>
</g>
</g>
</g>
</svg>
