<?xml version="1.0" encoding="UTF-8" standalone="no"?>
<!DOCTYPE svg PUBLIC "-//W3C//DTD SVG 1.1//EN"
 "http://www.w3.org/Graphics/SVG/1.1/DTD/svg11.dtd">
<!-- Generated by graphviz version 12.2.0 (20241103.1931)
 -->
<!-- Title: Interactions::fOneTemplateMultipleTemplateA Pages: 1 -->
<svg width="466pt" height="163pt"
 viewBox="0.00 0.00 465.50 163.00" xmlns="http://www.w3.org/2000/svg" xmlns:xlink="http://www.w3.org/1999/xlink">
<g id="graph0" class="graph" transform="scale(1 1) rotate(0) translate(4 159)">
<title>Interactions::fOneTemplateMultipleTemplateA</title>
<!-- Node1 -->
<g id="Node000001" class="node">
<title>Node1</title>
<g id="a_Node000001"><a xlink:title=" ">
<polygon fill="#999999" stroke="#666666" points="457.5,-98 323.75,-98 323.75,-66 457.5,-66 457.5,-98"/>
<text text-anchor="start" x="331.75" y="-84.5" font-family="Helvetica,sans-Serif" font-size="10.00">Interactions::fOneTemplate</text>
<text text-anchor="middle" x="390.62" y="-72.5" font-family="Helvetica,sans-Serif" font-size="10.00">MultipleTemplateA</text>
</a>
</g>
</g>
<!-- Node2 -->
<g id="Node000002" class="node">
<title>Node2</title>
<g id="a_Node000002"><a xlink:href="$class_arena.html#a1de3cf9bc5b3afd9ce88edd8ec9a4563" xlink:title=" ">
<polygon fill="white" stroke="#666666" points="101.88,-155 10.88,-155 10.88,-135 101.88,-135 101.88,-155"/>
<text text-anchor="middle" x="56.38" y="-141.5" font-family="Helvetica,sans-Serif" font-size="10.00">Arena::doActivity</text>
</a>
</g>
</g>
<!-- Node1&#45;&gt;Node2 -->
<g id="edge8_Node000001_Node000002" class="edge">
<title>Node1&#45;&gt;Node2</title>
<g id="a_edge8_Node000001_Node000002"><a xlink:title=" ">
<path fill="none" stroke="#63b8ff" d="M351.13,-103.79C332.57,-113.23 309.62,-123.4 287.75,-129 224.83,-145.12 149.29,-147.24 102.3,-146.63"/>
<polygon fill="#63b8ff" stroke="#63b8ff" points="352.66,-106.94 359.9,-99.2 349.42,-100.74 352.66,-106.94"/>
</a>
</g>
</g>
<!-- Node3 -->
<g id="Node000003" class="node">
<title>Node3</title>
<g id="a_Node000003"><a xlink:href="$class_otherworld.html#a98c0d70a80579783f415323ccbb0e0a3" xlink:title=" ">
<polygon fill="white" stroke="#666666" points="112.75,-73 0,-73 0,-53 112.75,-53 112.75,-73"/>
<text text-anchor="middle" x="56.38" y="-59.5" font-family="Helvetica,sans-Serif" font-size="10.00">Otherworld::doActivity</text>
</a>
</g>
</g>
<!-- Node1&#45;&gt;Node3 -->
<g id="edge9_Node000001_Node000003" class="edge">
<title>Node1&#45;&gt;Node3</title>
<g id="a_edge9_Node000001_Node000003"><a xlink:title=" ">
<path fill="none" stroke="#63b8ff" d="M312.47,-77.59C251.45,-74.1 167.72,-69.31 113.09,-66.19"/>
<polygon fill="#63b8ff" stroke="#63b8ff" points="311.89,-81.06 322.07,-78.14 312.29,-74.07 311.89,-81.06"/>
</a>
</g>
</g>
<!-- Node4 -->
<g id="Node000004" class="node">
<title>Node4</title>
<g id="a_Node000004"><a xlink:href="$class_interactions.html#a25b3a4dba323cbb14057035056bf9d56" xlink:title=" ">
<polygon fill="white" stroke="#666666" points="287.75,-120 148.75,-120 148.75,-88 287.75,-88 287.75,-120"/>
<text text-anchor="start" x="156.75" y="-106.5" font-family="Helvetica,sans-Serif" font-size="10.00">Interactions::fcOneTemplate</text>
<text text-anchor="middle" x="218.25" y="-94.5" font-family="Helvetica,sans-Serif" font-size="10.00">MultipleTemplateA</text>
</a>
</g>
</g>
<!-- Node1&#45;&gt;Node4 -->
<g id="edge10_Node000001_Node000004" class="edge">
<title>Node1&#45;&gt;Node4</title>
<g id="a_edge10_Node000001_Node000004"><a xlink:title=" ">
<path fill="none" stroke="#63b8ff" d="M312.1,-92.01C304.15,-93.04 296.1,-94.08 288.24,-95.09"/>
<polygon fill="#63b8ff" stroke="#63b8ff" points="312.3,-95.51 321.76,-90.76 311.4,-88.57 312.3,-95.51"/>
</a>
</g>
</g>
<!-- Node6 -->
<g id="Node000006" class="node">
<title>Node6</title>
<g id="a_Node000006"><a xlink:href="$class_interactions.html#a8de1d76318ef0c22ad891b28008a44a3" xlink:title=" ">
<polygon fill="white" stroke="#666666" points="287.75,-32 148.75,-32 148.75,0 287.75,0 287.75,-32"/>
<text text-anchor="start" x="156.75" y="-18.5" font-family="Helvetica,sans-Serif" font-size="10.00">Interactions::fcOneTemplate</text>
<text text-anchor="middle" x="218.25" y="-6.5" font-family="Helvetica,sans-Serif" font-size="10.00">MultipleTemplateA</text>
</a>
</g>
</g>
<!-- Node1&#45;&gt;Node6 -->
<g id="edge14_Node000001_Node000006" class="edge">
<title>Node1&#45;&gt;Node6</title>
<g id="a_edge14_Node000001_Node000006"><a xlink:title=" ">
<path fill="none" stroke="#63b8ff" d="M336.64,-61.48C312.48,-52.12 284.27,-41.19 261.56,-32.39"/>
<polygon fill="#63b8ff" stroke="#63b8ff" points="335.07,-64.62 345.66,-64.97 337.6,-58.09 335.07,-64.62"/>
</a>
</g>
</g>
<!-- Node4&#45;&gt;Node2 -->
<g id="edge11_Node000004_Node000002" class="edge">
<title>Node4&#45;&gt;Node2</title>
<g id="a_edge11_Node000004_Node000002"><a xlink:title=" ">
<path fill="none" stroke="#63b8ff" d="M142.15,-123.26C126.94,-127.16 111.51,-131.12 98.04,-134.57"/>
<polygon fill="#63b8ff" stroke="#63b8ff" points="142.86,-126.69 151.68,-120.82 141.12,-119.91 142.86,-126.69"/>
</a>
</g>
</g>
<!-- Node4&#45;&gt;Node3 -->
<g id="edge12_Node000004_Node000003" class="edge">
<title>Node4&#45;&gt;Node3</title>
<g id="a_edge12_Node000004_Node000003"><a xlink:title=" ">
<path fill="none" stroke="#63b8ff" d="M142.15,-84.74C126.94,-80.84 111.51,-76.88 98.04,-73.43"/>
<polygon fill="#63b8ff" stroke="#63b8ff" points="141.12,-88.09 151.68,-87.18 142.86,-81.31 141.12,-88.09"/>
</a>
</g>
</g>
<!-- Node5 -->
<g id="Node000005" class="node">
<title>Node5</title>
<g id="a_Node000005"><a xlink:href="$class_pack.html#a0e1c06807939ef6198c19cc39559a081" xlink:title=" ">
<polygon fill="white" stroke="#666666" points="100.38,-114 12.38,-114 12.38,-94 100.38,-94 100.38,-114"/>
<text text-anchor="middle" x="56.38" y="-100.5" font-family="Helvetica,sans-Serif" font-size="10.00">Pack::doActivity</text>
</a>
</g>
</g>
<!-- Node4&#45;&gt;Node5 -->
<g id="edge13_Node000004_Node000005" class="edge">
<title>Node4&#45;&gt;Node5</title>
<g id="a_edge13_Node000004_Node000005"><a xlink:title=" ">
<path fill="none" stroke="#63b8ff" d="M137.03,-104C124.48,-104 111.93,-104 100.64,-104"/>
<polygon fill="#63b8ff" stroke="#63b8ff" points="137.01,-107.5 147.01,-104 137.01,-100.5 137.01,-107.5"/>
</a>
</g>
</g>
</g>
</svg>
