<?xml version="1.0" encoding="UTF-8" standalone="no"?>
<!DOCTYPE svg PUBLIC "-//W3C//DTD SVG 1.1//EN"
 "http://www.w3.org/Graphics/SVG/1.1/DTD/svg11.dtd">
<!-- Generated by graphviz version 12.2.0 (20241103.1931)
 -->
<!-- Title: Emulator::checkDimensions Pages: 1 -->
<svg width="351pt" height="66pt"
 viewBox="0.00 0.00 350.50 66.00" xmlns="http://www.w3.org/2000/svg" xmlns:xlink="http://www.w3.org/1999/xlink">
<g id="graph0" class="graph" transform="scale(1 1) rotate(0) translate(4 62)">
<title>Emulator::checkDimensions</title>
<!-- Node1 -->
<g id="Node000001" class="node">
<title>Node1</title>
<g id="a_Node000001"><a xlink:title=" ">
<polygon fill="#999999" stroke="#666666" points="139,-39 0,-39 0,-19 139,-19 139,-39"/>
<text text-anchor="middle" x="69.5" y="-25.5" font-family="Helvetica,sans-Serif" font-size="10.00">Emulator::checkDimensions</text>
</a>
</g>
</g>
<!-- Node2 -->
<g id="Node000002" class="node">
<title>Node2</title>
<g id="a_Node000002"><a xlink:href="$class_emulator.html#a7875b76738a69f20048883b847fc2802" xlink:title=" ">
<polygon fill="white" stroke="#666666" points="342.5,-58 175,-58 175,-38 342.5,-38 342.5,-58"/>
<text text-anchor="middle" x="258.75" y="-44.5" font-family="Helvetica,sans-Serif" font-size="10.00">Emulator::hasRequiredDimensions</text>
</a>
</g>
</g>
<!-- Node1&#45;&gt;Node2 -->
<g id="edge3_Node000001_Node000002" class="edge">
<title>Node1&#45;&gt;Node2</title>
<g id="a_edge3_Node000001_Node000002"><a xlink:title=" ">
<path fill="none" stroke="#63b8ff" d="M139.43,-35.99C147.22,-36.79 155.27,-37.6 163.32,-38.42"/>
<polygon fill="#63b8ff" stroke="#63b8ff" points="162.87,-41.89 173.17,-39.42 163.58,-34.93 162.87,-41.89"/>
</a>
</g>
</g>
<!-- Node3 -->
<g id="Node000003" class="node">
<title>Node3</title>
<g id="a_Node000003"><a xlink:href="$class_emulator.html#a1441a057869b23871baa8d42c94f2af6" xlink:title=" ">
<polygon fill="white" stroke="#666666" points="341.38,-20 176.12,-20 176.12,0 341.38,0 341.38,-20"/>
<text text-anchor="middle" x="258.75" y="-6.5" font-family="Helvetica,sans-Serif" font-size="10.00">Emulator::setRequiredDimensions</text>
</a>
</g>
</g>
<!-- Node1&#45;&gt;Node3 -->
<g id="edge4_Node000001_Node000003" class="edge">
<title>Node1&#45;&gt;Node3</title>
<g id="a_edge4_Node000001_Node000003"><a xlink:title=" ">
<path fill="none" stroke="#63b8ff" d="M139.43,-22.01C147.53,-21.18 155.9,-20.34 164.26,-19.49"/>
<polygon fill="#63b8ff" stroke="#63b8ff" points="164.54,-22.98 174.14,-18.48 163.83,-16.01 164.54,-22.98"/>
</a>
</g>
</g>
</g>
</svg>
