<?xml version="1.0" encoding="UTF-8" standalone="no"?>
<!DOCTYPE svg PUBLIC "-//W3C//DTD SVG 1.1//EN"
 "http://www.w3.org/Graphics/SVG/1.1/DTD/svg11.dtd">
<!-- Generated by graphviz version 12.2.0 (20241103.1931)
 -->
<!-- Title: FlowTagPanel::addTagAndSize Pages: 1 -->
<svg width="830pt" height="85pt"
 viewBox="0.00 0.00 829.75 85.00" xmlns="http://www.w3.org/2000/svg" xmlns:xlink="http://www.w3.org/1999/xlink">
<g id="graph0" class="graph" transform="scale(1 1) rotate(0) translate(4 81)">
<title>FlowTagPanel::addTagAndSize</title>
<!-- Node1 -->
<g id="Node000001" class="node">
<title>Node1</title>
<g id="a_Node000001"><a xlink:title=" ">
<polygon fill="#999999" stroke="#666666" points="151.75,-39 0,-39 0,-19 151.75,-19 151.75,-39"/>
<text text-anchor="middle" x="75.88" y="-25.5" font-family="Helvetica,sans-Serif" font-size="10.00">FlowTagPanel::addTagAndSize</text>
</a>
</g>
</g>
<!-- Node2 -->
<g id="Node000002" class="node">
<title>Node2</title>
<g id="a_Node000002"><a xlink:href="$class_flow_tag_panel.html#a8c328c48878111ffebcc91b7b37a8b77" xlink:title=" ">
<polygon fill="white" stroke="#666666" points="323,-58 187.75,-58 187.75,-38 323,-38 323,-58"/>
<text text-anchor="middle" x="255.38" y="-44.5" font-family="Helvetica,sans-Serif" font-size="10.00">FlowTagPanel::addChildren</text>
</a>
</g>
</g>
<!-- Node1&#45;&gt;Node2 -->
<g id="edge8_Node000001_Node000002" class="edge">
<title>Node1&#45;&gt;Node2</title>
<g id="a_edge8_Node000001_Node000002"><a xlink:title=" ">
<path fill="none" stroke="#63b8ff" d="M152.15,-37.06C160.11,-37.91 168.23,-38.78 176.22,-39.63"/>
<polygon fill="#63b8ff" stroke="#63b8ff" points="175.6,-43.09 185.92,-40.67 176.34,-36.13 175.6,-43.09"/>
</a>
</g>
</g>
<!-- Node7 -->
<g id="Node000007" class="node">
<title>Node7</title>
<g id="a_Node000007"><a xlink:href="$class_tag_panel.html#a99231e365be781b584996e68197621b9" xlink:title=" ">
<polygon fill="white" stroke="#666666" points="312.5,-20 198.25,-20 198.25,0 312.5,0 312.5,-20"/>
<text text-anchor="middle" x="255.38" y="-6.5" font-family="Helvetica,sans-Serif" font-size="10.00">TagPanel::setTagSizer</text>
</a>
</g>
</g>
<!-- Node1&#45;&gt;Node7 -->
<g id="edge14_Node000001_Node000007" class="edge">
<title>Node1&#45;&gt;Node7</title>
<g id="a_edge14_Node000001_Node000007"><a xlink:title=" ">
<path fill="none" stroke="#63b8ff" d="M152.15,-20.94C163.63,-19.71 175.42,-18.45 186.72,-17.24"/>
<polygon fill="#63b8ff" stroke="#63b8ff" points="186.76,-20.76 196.33,-16.21 186.01,-13.8 186.76,-20.76"/>
</a>
</g>
</g>
<!-- Node3 -->
<g id="Node000003" class="node">
<title>Node3</title>
<g id="a_Node000003"><a xlink:href="$class_flow_tag_panel.html#a24aede4ad59f41a079d4c38e26955d55" xlink:title=" ">
<polygon fill="white" stroke="#666666" points="480.75,-58 359,-58 359,-38 480.75,-38 480.75,-58"/>
<text text-anchor="middle" x="419.88" y="-44.5" font-family="Helvetica,sans-Serif" font-size="10.00">FlowTagPanel::addChild</text>
</a>
</g>
</g>
<!-- Node2&#45;&gt;Node3 -->
<g id="edge9_Node000002_Node000003" class="edge">
<title>Node2&#45;&gt;Node3</title>
<g id="a_edge9_Node000002_Node000003"><a xlink:title=" ">
<path fill="none" stroke="#63b8ff" d="M323.41,-48C331.22,-48 339.21,-48 347.09,-48"/>
<polygon fill="#63b8ff" stroke="#63b8ff" points="346.99,-51.5 356.99,-48 346.99,-44.5 346.99,-51.5"/>
</a>
</g>
</g>
<!-- Node4 -->
<g id="Node000004" class="node">
<title>Node4</title>
<g id="a_Node000004"><a xlink:href="$class_flow_tag_panel.html#af98215cc2497f7ef7d8e4ed00e94ca33" xlink:title=" ">
<polygon fill="white" stroke="#666666" points="646.75,-58 516.75,-58 516.75,-38 646.75,-38 646.75,-58"/>
<text text-anchor="middle" x="581.75" y="-44.5" font-family="Helvetica,sans-Serif" font-size="10.00">FlowTagPanel::insertChild</text>
</a>
</g>
</g>
<!-- Node3&#45;&gt;Node4 -->
<g id="edge10_Node000003_Node000004" class="edge">
<title>Node3&#45;&gt;Node4</title>
<g id="a_edge10_Node000003_Node000004"><a xlink:title=" ">
<path fill="none" stroke="#63b8ff" d="M480.86,-48C488.75,-48 496.92,-48 505.03,-48"/>
<polygon fill="#63b8ff" stroke="#63b8ff" points="504.9,-51.5 514.9,-48 504.9,-44.5 504.9,-51.5"/>
</a>
</g>
</g>
<!-- Node4&#45;&gt;Node4 -->
<g id="edge13_Node000004_Node000004" class="edge">
<title>Node4&#45;&gt;Node4</title>
<g id="a_edge13_Node000004_Node000004"><a xlink:title=" ">
<path fill="none" stroke="#63b8ff" d="M556.03,-58.34C545.04,-66.98 553.61,-76 581.75,-76 597.14,-76 606.68,-73.3 610.36,-69.44"/>
<polygon fill="#63b8ff" stroke="#63b8ff" points="613.76,-68.6 607.85,-59.8 606.98,-70.36 613.76,-68.6"/>
</a>
</g>
</g>
<!-- Node5 -->
<g id="Node000005" class="node">
<title>Node5</title>
<g id="a_Node000005"><a xlink:href="$class_tag_panel.html#a975da9b33d0c94992472b291df4aadbe" xlink:title=" ">
<polygon fill="white" stroke="#666666" points="807.5,-77 697,-77 697,-57 807.5,-57 807.5,-77"/>
<text text-anchor="middle" x="752.25" y="-63.5" font-family="Helvetica,sans-Serif" font-size="10.00">TagPanel::getIndexOf</text>
</a>
</g>
</g>
<!-- Node4&#45;&gt;Node5 -->
<g id="edge11_Node000004_Node000005" class="edge">
<title>Node4&#45;&gt;Node5</title>
<g id="a_edge11_Node000004_Node000005"><a xlink:title=" ">
<path fill="none" stroke="#63b8ff" d="M646.93,-55.24C659.47,-56.65 672.63,-58.13 685.22,-59.55"/>
<polygon fill="#63b8ff" stroke="#63b8ff" points="684.75,-63.02 695.08,-60.67 685.54,-56.07 684.75,-63.02"/>
</a>
</g>
</g>
<!-- Node6 -->
<g id="Node000006" class="node">
<title>Node6</title>
<g id="a_Node000006"><a xlink:href="$class_flow_tag_panel.html#a292d74fbfba61f5c7df90789a9eb31e2" xlink:title=" ">
<polygon fill="white" stroke="#666666" points="821.75,-39 682.75,-39 682.75,-19 821.75,-19 821.75,-39"/>
<text text-anchor="middle" x="752.25" y="-25.5" font-family="Helvetica,sans-Serif" font-size="10.00">FlowTagPanel::getSizerItem</text>
</a>
</g>
</g>
<!-- Node4&#45;&gt;Node6 -->
<g id="edge12_Node000004_Node000006" class="edge">
<title>Node4&#45;&gt;Node6</title>
<g id="a_edge12_Node000004_Node000006"><a xlink:title=" ">
<path fill="none" stroke="#63b8ff" d="M646.93,-40.76C654.84,-39.87 662.99,-38.95 671.09,-38.04"/>
<polygon fill="#63b8ff" stroke="#63b8ff" points="671.43,-41.52 680.97,-36.92 670.64,-34.57 671.43,-41.52"/>
</a>
</g>
</g>
</g>
</svg>
