<?xml version="1.0" encoding="UTF-8" standalone="no"?>
<!DOCTYPE svg PUBLIC "-//W3C//DTD SVG 1.1//EN"
 "http://www.w3.org/Graphics/SVG/1.1/DTD/svg11.dtd">
<!-- Generated by graphviz version 12.2.0 (20241103.1931)
 -->
<!-- Title: FlowKCToken Pages: 1 -->
<svg width="194pt" height="1584pt"
 viewBox="0.00 0.00 194.00 1584.00" xmlns="http://www.w3.org/2000/svg" xmlns:xlink="http://www.w3.org/1999/xlink">
<g id="graph0" class="graph" transform="scale(1 1) rotate(0) translate(4 1580)">
<title>FlowKCToken</title>
<!-- Node1 -->
<g id="Node000001" class="node">
<title>Node1</title>
<g id="a_Node000001"><a xlink:title=" ">
<polygon fill="#999999" stroke="none" points="178.12,-168 7.88,-168 7.88,0 178.12,0 178.12,-168"/>
<text text-anchor="start" x="62.25" y="-154.5" font-family="Helvetica,sans-Serif" font-size="10.00">FlowKCToken</text>
<text text-anchor="start" x="11.88" y="-138.5" font-family="Helvetica,sans-Serif" font-size="10.00">#</text>
<text text-anchor="start" x="21.12" y="-138.5" font-family="Helvetica,sans-Serif" font-size="10.00">std::shared_ptr&lt; Token</text>
<text text-anchor="start" x="21.12" y="-126.5" font-family="Helvetica,sans-Serif" font-size="10.00"> &gt; condition</text>
<text text-anchor="start" x="11.88" y="-110.5" font-family="Helvetica,sans-Serif" font-size="10.00">#</text>
<text text-anchor="start" x="21.12" y="-110.5" font-family="Helvetica,sans-Serif" font-size="10.00">FlowKCToken()</text>
<text text-anchor="start" x="11.88" y="-94.5" font-family="Helvetica,sans-Serif" font-size="10.00">#</text>
<text text-anchor="start" x="21.12" y="-94.5" font-family="Helvetica,sans-Serif" font-size="10.00">std::shared_ptr&lt; Token</text>
<text text-anchor="start" x="21.12" y="-82.5" font-family="Helvetica,sans-Serif" font-size="10.00"> &gt; addCondition(IteratorList</text>
<text text-anchor="start" x="21.12" y="-70.5" font-family="Helvetica,sans-Serif" font-size="10.00">&lt; Token &gt; &amp;tl, std::shared</text>
<text text-anchor="start" x="21.12" y="-58.5" font-family="Helvetica,sans-Serif" font-size="10.00">_ptr&lt; TokenResult &gt; tRes)</text>
<text text-anchor="start" x="11.88" y="-42.5" font-family="Helvetica,sans-Serif" font-size="10.00">#</text>
<text text-anchor="start" x="21.12" y="-42.5" font-family="Helvetica,sans-Serif" font-size="10.00">std::shared_ptr&lt; TokenResult</text>
<text text-anchor="start" x="21.12" y="-30.5" font-family="Helvetica,sans-Serif" font-size="10.00"> &gt; addTokens(IteratorList</text>
<text text-anchor="start" x="21.12" y="-18.5" font-family="Helvetica,sans-Serif" font-size="10.00">&lt; Token &gt; &amp;tl, std::shared</text>
<text text-anchor="start" x="21.12" y="-6.5" font-family="Helvetica,sans-Serif" font-size="10.00">_ptr&lt; TokenResult &gt; tRes) override</text>
<polygon fill="#666666" stroke="#666666" points="7.88,-150 7.88,-150 178.12,-150 178.12,-150 7.88,-150"/>
<polygon fill="#666666" stroke="#666666" points="7.88,-122 7.88,-122 19.12,-122 19.12,-122 7.88,-122"/>
<polygon fill="#666666" stroke="#666666" points="19.12,-122 19.12,-122 178.12,-122 178.12,-122 19.12,-122"/>
<polygon fill="none" stroke="#666666" points="7.88,0 7.88,-168 178.12,-168 178.12,0 7.88,0"/>
</a>
</g>
</g>
<!-- Node2 -->
<g id="Node000002" class="node">
<title>Node2</title>
<g id="a_Node000002"><a xlink:href="$class_flow_k_p_token.html" xlink:title=" ">
<polygon fill="white" stroke="none" points="178.12,-412 7.88,-412 7.88,-204 178.12,-204 178.12,-412"/>
<text text-anchor="start" x="62.62" y="-398.5" font-family="Helvetica,sans-Serif" font-size="10.00">FlowKPToken</text>
<text text-anchor="start" x="11.88" y="-382.5" font-family="Helvetica,sans-Serif" font-size="10.00">#</text>
<text text-anchor="start" x="21.12" y="-382.5" font-family="Helvetica,sans-Serif" font-size="10.00">std::vector&lt; std::shared</text>
<text text-anchor="start" x="21.12" y="-370.5" font-family="Helvetica,sans-Serif" font-size="10.00">_ptr&lt; Token &gt; &gt; nestedTokens</text>
<text text-anchor="start" x="11.88" y="-354.5" font-family="Helvetica,sans-Serif" font-size="10.00">#</text>
<text text-anchor="start" x="21.12" y="-354.5" font-family="Helvetica,sans-Serif" font-size="10.00">FlowKPToken()</text>
<text text-anchor="start" x="11.88" y="-338.5" font-family="Helvetica,sans-Serif" font-size="10.00">#</text>
<text text-anchor="start" x="21.12" y="-338.5" font-family="Helvetica,sans-Serif" font-size="10.00">std::shared_ptr&lt; Token</text>
<text text-anchor="start" x="21.12" y="-326.5" font-family="Helvetica,sans-Serif" font-size="10.00"> &gt; addOb(IteratorList</text>
<text text-anchor="start" x="21.12" y="-314.5" font-family="Helvetica,sans-Serif" font-size="10.00">&lt; Token &gt; &amp;tl)</text>
<text text-anchor="start" x="11.88" y="-298.5" font-family="Helvetica,sans-Serif" font-size="10.00">#</text>
<text text-anchor="start" x="21.12" y="-298.5" font-family="Helvetica,sans-Serif" font-size="10.00">std::shared_ptr&lt; Token</text>
<text text-anchor="start" x="21.12" y="-286.5" font-family="Helvetica,sans-Serif" font-size="10.00"> &gt; addCb(IteratorList</text>
<text text-anchor="start" x="21.12" y="-274.5" font-family="Helvetica,sans-Serif" font-size="10.00">&lt; Token &gt; &amp;tl, std::shared</text>
<text text-anchor="start" x="21.12" y="-262.5" font-family="Helvetica,sans-Serif" font-size="10.00">_ptr&lt; TokenResult &gt; tRes)</text>
<text text-anchor="start" x="11.88" y="-246.5" font-family="Helvetica,sans-Serif" font-size="10.00">#</text>
<text text-anchor="start" x="21.12" y="-246.5" font-family="Helvetica,sans-Serif" font-size="10.00">std::shared_ptr&lt; TokenResult</text>
<text text-anchor="start" x="21.12" y="-234.5" font-family="Helvetica,sans-Serif" font-size="10.00"> &gt; addTokens(IteratorList</text>
<text text-anchor="start" x="21.12" y="-222.5" font-family="Helvetica,sans-Serif" font-size="10.00">&lt; Token &gt; &amp;tl, std::shared</text>
<text text-anchor="start" x="21.12" y="-210.5" font-family="Helvetica,sans-Serif" font-size="10.00">_ptr&lt; TokenResult &gt; tRes) override</text>
<polygon fill="#666666" stroke="#666666" points="7.88,-394 7.88,-394 178.12,-394 178.12,-394 7.88,-394"/>
<polygon fill="#666666" stroke="#666666" points="7.88,-366 7.88,-366 19.12,-366 19.12,-366 7.88,-366"/>
<polygon fill="#666666" stroke="#666666" points="19.12,-366 19.12,-366 178.12,-366 178.12,-366 19.12,-366"/>
<polygon fill="none" stroke="#666666" points="7.88,-204 7.88,-412 178.12,-412 178.12,-204 7.88,-204"/>
</a>
</g>
</g>
<!-- Node2&#45;&gt;Node1 -->
<g id="edge5_Node000001_Node000002" class="edge">
<title>Node2&#45;&gt;Node1</title>
<g id="a_edge5_Node000001_Node000002"><a xlink:title=" ">
<path fill="none" stroke="#63b8ff" d="M93,-192.73C93,-184.37 93,-176.03 93,-167.91"/>
<polygon fill="none" stroke="#63b8ff" points="89.5,-192.61 93,-202.61 96.5,-192.61 89.5,-192.61"/>
</a>
</g>
</g>
<!-- Node3 -->
<g id="Node000003" class="node">
<title>Node3</title>
<g id="a_Node000003"><a xlink:href="$class_k_p_token.html" xlink:title=" ">
<polygon fill="white" stroke="none" points="178.12,-1060 7.88,-1060 7.88,-448 178.12,-448 178.12,-1060"/>
<text text-anchor="start" x="73.12" y="-1046.5" font-family="Helvetica,sans-Serif" font-size="10.00">KPToken</text>
<text text-anchor="start" x="91.5" y="-1030.5" font-family="Helvetica,sans-Serif" font-size="10.00"> </text>
<text text-anchor="start" x="11.88" y="-1014.5" font-family="Helvetica,sans-Serif" font-size="10.00">#</text>
<text text-anchor="start" x="21.12" y="-1014.5" font-family="Helvetica,sans-Serif" font-size="10.00">KPToken()</text>
<text text-anchor="start" x="11.88" y="-998.5" font-family="Helvetica,sans-Serif" font-size="10.00">#</text>
<text text-anchor="start" x="21.12" y="-998.5" font-family="Helvetica,sans-Serif" font-size="10.00">std::shared_ptr&lt; TokenResult</text>
<text text-anchor="start" x="21.12" y="-986.5" font-family="Helvetica,sans-Serif" font-size="10.00"> &gt; addTokens(IteratorList</text>
<text text-anchor="start" x="21.12" y="-974.5" font-family="Helvetica,sans-Serif" font-size="10.00">&lt; Token &gt; &amp;tl, std::shared</text>
<text text-anchor="start" x="21.12" y="-962.5" font-family="Helvetica,sans-Serif" font-size="10.00">_ptr&lt; TokenResult &gt; tRes) override</text>
<text text-anchor="start" x="11.88" y="-946.5" font-family="Helvetica,sans-Serif" font-size="10.00">#</text>
<text text-anchor="start" x="21.12" y="-946.5" font-family="Helvetica,sans-Serif" font-size="10.00">std::shared_ptr&lt; Token</text>
<text text-anchor="start" x="21.12" y="-934.5" font-family="Helvetica,sans-Serif" font-size="10.00"> &gt; addNumber(IteratorList</text>
<text text-anchor="start" x="21.12" y="-922.5" font-family="Helvetica,sans-Serif" font-size="10.00">&lt; Token &gt; &amp;tl, std::shared</text>
<text text-anchor="start" x="21.12" y="-910.5" font-family="Helvetica,sans-Serif" font-size="10.00">_ptr&lt; TokenResult &gt; tRes)</text>
<text text-anchor="start" x="11.88" y="-894.5" font-family="Helvetica,sans-Serif" font-size="10.00">#</text>
<text text-anchor="start" x="21.12" y="-894.5" font-family="Helvetica,sans-Serif" font-size="10.00">std::shared_ptr&lt; Token</text>
<text text-anchor="start" x="21.12" y="-882.5" font-family="Helvetica,sans-Serif" font-size="10.00"> &gt; addInteger(IteratorList</text>
<text text-anchor="start" x="21.12" y="-870.5" font-family="Helvetica,sans-Serif" font-size="10.00">&lt; Token &gt; &amp;tl, std::shared</text>
<text text-anchor="start" x="21.12" y="-858.5" font-family="Helvetica,sans-Serif" font-size="10.00">_ptr&lt; TokenResult &gt; tRes)</text>
<text text-anchor="start" x="11.88" y="-842.5" font-family="Helvetica,sans-Serif" font-size="10.00">#</text>
<text text-anchor="start" x="21.12" y="-842.5" font-family="Helvetica,sans-Serif" font-size="10.00">std::shared_ptr&lt; Token</text>
<text text-anchor="start" x="21.12" y="-830.5" font-family="Helvetica,sans-Serif" font-size="10.00"> &gt; addFloat(IteratorList</text>
<text text-anchor="start" x="21.12" y="-818.5" font-family="Helvetica,sans-Serif" font-size="10.00">&lt; Token &gt; &amp;tl, std::shared</text>
<text text-anchor="start" x="21.12" y="-806.5" font-family="Helvetica,sans-Serif" font-size="10.00">_ptr&lt; TokenResult &gt; tRes)</text>
<text text-anchor="start" x="11.88" y="-790.5" font-family="Helvetica,sans-Serif" font-size="10.00">#</text>
<text text-anchor="start" x="21.12" y="-790.5" font-family="Helvetica,sans-Serif" font-size="10.00">std::shared_ptr&lt; Token</text>
<text text-anchor="start" x="21.12" y="-778.5" font-family="Helvetica,sans-Serif" font-size="10.00"> &gt; addCoord(IteratorList</text>
<text text-anchor="start" x="21.12" y="-766.5" font-family="Helvetica,sans-Serif" font-size="10.00">&lt; Token &gt; &amp;tl, std::shared</text>
<text text-anchor="start" x="21.12" y="-754.5" font-family="Helvetica,sans-Serif" font-size="10.00">_ptr&lt; TokenResult &gt; tRes)</text>
<text text-anchor="start" x="11.88" y="-738.5" font-family="Helvetica,sans-Serif" font-size="10.00">#</text>
<text text-anchor="start" x="21.12" y="-738.5" font-family="Helvetica,sans-Serif" font-size="10.00">std::shared_ptr&lt; Token</text>
<text text-anchor="start" x="21.12" y="-726.5" font-family="Helvetica,sans-Serif" font-size="10.00"> &gt; addString(IteratorList</text>
<text text-anchor="start" x="21.12" y="-714.5" font-family="Helvetica,sans-Serif" font-size="10.00">&lt; Token &gt; &amp;tl, std::shared</text>
<text text-anchor="start" x="21.12" y="-702.5" font-family="Helvetica,sans-Serif" font-size="10.00">_ptr&lt; TokenResult &gt; tRes)</text>
<text text-anchor="start" x="11.88" y="-686.5" font-family="Helvetica,sans-Serif" font-size="10.00">#</text>
<text text-anchor="start" x="21.12" y="-686.5" font-family="Helvetica,sans-Serif" font-size="10.00">std::shared_ptr&lt; Token</text>
<text text-anchor="start" x="21.12" y="-674.5" font-family="Helvetica,sans-Serif" font-size="10.00"> &gt; addComma(IteratorList</text>
<text text-anchor="start" x="21.12" y="-662.5" font-family="Helvetica,sans-Serif" font-size="10.00">&lt; Token &gt; &amp;tl)</text>
<text text-anchor="start" x="11.88" y="-646.5" font-family="Helvetica,sans-Serif" font-size="10.00">#</text>
<text text-anchor="start" x="21.12" y="-646.5" font-family="Helvetica,sans-Serif" font-size="10.00">std::shared_ptr&lt; Token</text>
<text text-anchor="start" x="21.12" y="-634.5" font-family="Helvetica,sans-Serif" font-size="10.00"> &gt; addTimeType(IteratorList</text>
<text text-anchor="start" x="21.12" y="-622.5" font-family="Helvetica,sans-Serif" font-size="10.00">&lt; Token &gt; &amp;tl, std::shared</text>
<text text-anchor="start" x="21.12" y="-610.5" font-family="Helvetica,sans-Serif" font-size="10.00">_ptr&lt; TokenResult &gt; tRes)</text>
<text text-anchor="start" x="11.88" y="-594.5" font-family="Helvetica,sans-Serif" font-size="10.00">#</text>
<text text-anchor="start" x="21.12" y="-594.5" font-family="Helvetica,sans-Serif" font-size="10.00">std::shared_ptr&lt; Token</text>
<text text-anchor="start" x="21.12" y="-582.5" font-family="Helvetica,sans-Serif" font-size="10.00"> &gt; addOp(IteratorList</text>
<text text-anchor="start" x="21.12" y="-570.5" font-family="Helvetica,sans-Serif" font-size="10.00">&lt; Token &gt; &amp;tl)</text>
<text text-anchor="start" x="11.88" y="-554.5" font-family="Helvetica,sans-Serif" font-size="10.00">#</text>
<text text-anchor="start" x="21.12" y="-554.5" font-family="Helvetica,sans-Serif" font-size="10.00">std::shared_ptr&lt; Token</text>
<text text-anchor="start" x="21.12" y="-542.5" font-family="Helvetica,sans-Serif" font-size="10.00"> &gt; addCp(IteratorList</text>
<text text-anchor="start" x="21.12" y="-530.5" font-family="Helvetica,sans-Serif" font-size="10.00">&lt; Token &gt; &amp;tl, std::shared</text>
<text text-anchor="start" x="21.12" y="-518.5" font-family="Helvetica,sans-Serif" font-size="10.00">_ptr&lt; TokenResult &gt; tRes)</text>
<text text-anchor="start" x="11.88" y="-502.5" font-family="Helvetica,sans-Serif" font-size="10.00">#</text>
<text text-anchor="start" x="21.12" y="-502.5" font-family="Helvetica,sans-Serif" font-size="10.00">virtual std::shared</text>
<text text-anchor="start" x="21.12" y="-490.5" font-family="Helvetica,sans-Serif" font-size="10.00">_ptr&lt; Token &gt; handleCp</text>
<text text-anchor="start" x="21.12" y="-478.5" font-family="Helvetica,sans-Serif" font-size="10.00">(IteratorList&lt; Token &gt;</text>
<text text-anchor="start" x="21.12" y="-466.5" font-family="Helvetica,sans-Serif" font-size="10.00"> &amp;tl, std::shared_ptr&lt;</text>
<text text-anchor="start" x="21.12" y="-454.5" font-family="Helvetica,sans-Serif" font-size="10.00"> TokenResult &gt; tRes)</text>
<polygon fill="#666666" stroke="#666666" points="7.88,-1042 7.88,-1042 178.12,-1042 178.12,-1042 7.88,-1042"/>
<polygon fill="#666666" stroke="#666666" points="7.88,-1026 7.88,-1026 178.12,-1026 178.12,-1026 7.88,-1026"/>
<polygon fill="none" stroke="#666666" points="7.88,-448 7.88,-1060 178.12,-1060 178.12,-448 7.88,-448"/>
</a>
</g>
</g>
<!-- Node3&#45;&gt;Node2 -->
<g id="edge6_Node000002_Node000003" class="edge">
<title>Node3&#45;&gt;Node2</title>
<g id="a_edge6_Node000002_Node000003"><a xlink:title=" ">
<path fill="none" stroke="#63b8ff" d="M93,-436.77C93,-428.12 93,-419.71 93,-411.6"/>
<polygon fill="none" stroke="#63b8ff" points="89.5,-436.75 93,-446.75 96.5,-436.75 89.5,-436.75"/>
</a>
</g>
</g>
<!-- Node4 -->
<g id="Node000004" class="node">
<title>Node4</title>
<g id="a_Node000004"><a xlink:href="$class_k_token.html" xlink:title=" ">
<polygon fill="white" stroke="none" points="113.5,-1148 72.5,-1148 72.5,-1096 113.5,-1096 113.5,-1148"/>
<text text-anchor="start" x="76.5" y="-1134.5" font-family="Helvetica,sans-Serif" font-size="10.00">KToken</text>
<text text-anchor="start" x="91.5" y="-1118.5" font-family="Helvetica,sans-Serif" font-size="10.00"> </text>
<text text-anchor="start" x="91.5" y="-1102.5" font-family="Helvetica,sans-Serif" font-size="10.00"> </text>
<polygon fill="#666666" stroke="#666666" points="72.5,-1130 72.5,-1130 113.5,-1130 113.5,-1130 72.5,-1130"/>
<polygon fill="#666666" stroke="#666666" points="72.5,-1114 72.5,-1114 113.5,-1114 113.5,-1114 72.5,-1114"/>
<polygon fill="none" stroke="#666666" points="72.5,-1096 72.5,-1148 113.5,-1148 113.5,-1096 72.5,-1096"/>
</a>
</g>
</g>
<!-- Node4&#45;&gt;Node3 -->
<g id="edge7_Node000003_Node000004" class="edge">
<title>Node4&#45;&gt;Node3</title>
<g id="a_edge7_Node000003_Node000004"><a xlink:title=" ">
<path fill="none" stroke="#63b8ff" d="M93,-1084.88C93,-1077.44 93,-1069.05 93,-1059.91"/>
<polygon fill="none" stroke="#63b8ff" points="89.5,-1084.62 93,-1094.62 96.5,-1084.62 89.5,-1084.62"/>
</a>
</g>
</g>
<!-- Node5 -->
<g id="Node000005" class="node">
<title>Node5</title>
<g id="a_Node000005"><a xlink:href="$class_token.html" xlink:title=" ">
<polygon fill="white" stroke="none" points="186,-1576 0,-1576 0,-1184 186,-1184 186,-1576"/>
<text text-anchor="start" x="79.88" y="-1562.5" font-family="Helvetica,sans-Serif" font-size="10.00">Token</text>
<text text-anchor="start" x="4" y="-1546.5" font-family="Helvetica,sans-Serif" font-size="10.00">+</text>
<text text-anchor="start" x="14" y="-1546.5" font-family="Helvetica,sans-Serif" font-size="10.00">std::string tokenText</text>
<text text-anchor="start" x="4" y="-1530.5" font-family="Helvetica,sans-Serif" font-size="10.00">+</text>
<text text-anchor="start" x="14" y="-1530.5" font-family="Helvetica,sans-Serif" font-size="10.00">TokenVALUE tValue</text>
<text text-anchor="start" x="4" y="-1514.5" font-family="Helvetica,sans-Serif" font-size="10.00">+</text>
<text text-anchor="start" x="14" y="-1514.5" font-family="Helvetica,sans-Serif" font-size="10.00">std::shared_ptr&lt; TokenResult</text>
<text text-anchor="start" x="14" y="-1502.5" font-family="Helvetica,sans-Serif" font-size="10.00"> &gt; tRes</text>
<text text-anchor="start" x="4" y="-1486.5" font-family="Helvetica,sans-Serif" font-size="10.00">+</text>
<text text-anchor="start" x="14" y="-1486.5" font-family="Helvetica,sans-Serif" font-size="10.00">int line</text>
<text text-anchor="start" x="4" y="-1470.5" font-family="Helvetica,sans-Serif" font-size="10.00">+</text>
<text text-anchor="start" x="14" y="-1470.5" font-family="Helvetica,sans-Serif" font-size="10.00">Token()</text>
<text text-anchor="start" x="4" y="-1454.5" font-family="Helvetica,sans-Serif" font-size="10.00">+</text>
<text text-anchor="start" x="14" y="-1454.5" font-family="Helvetica,sans-Serif" font-size="10.00">std::shared_ptr&lt; TokenResult</text>
<text text-anchor="start" x="14" y="-1442.5" font-family="Helvetica,sans-Serif" font-size="10.00"> &gt; updateRes(std::shared</text>
<text text-anchor="start" x="14" y="-1430.5" font-family="Helvetica,sans-Serif" font-size="10.00">_ptr&lt; TokenResult &gt; tRes)</text>
<text text-anchor="start" x="4" y="-1414.5" font-family="Helvetica,sans-Serif" font-size="10.00">+</text>
<text text-anchor="start" x="14" y="-1414.5" font-family="Helvetica,sans-Serif" font-size="10.00">std::shared_ptr&lt; TokenResult</text>
<text text-anchor="start" x="14" y="-1402.5" font-family="Helvetica,sans-Serif" font-size="10.00"> &gt; addError(TokenVALUE value,</text>
<text text-anchor="start" x="14" y="-1390.5" font-family="Helvetica,sans-Serif" font-size="10.00"> ErrorType et=ErrorType::MISSING)</text>
<text text-anchor="start" x="4" y="-1374.5" font-family="Helvetica,sans-Serif" font-size="10.00">+</text>
<text text-anchor="start" x="14" y="-1374.5" font-family="Helvetica,sans-Serif" font-size="10.00">std::shared_ptr&lt; TokenResult</text>
<text text-anchor="start" x="14" y="-1362.5" font-family="Helvetica,sans-Serif" font-size="10.00"> &gt; addError(const std::shared</text>
<text text-anchor="start" x="14" y="-1350.5" font-family="Helvetica,sans-Serif" font-size="10.00">_ptr&lt; TokenResult &gt; &amp;tr)</text>
<text text-anchor="start" x="4" y="-1334.5" font-family="Helvetica,sans-Serif" font-size="10.00">+</text>
<text text-anchor="start" x="14" y="-1334.5" font-family="Helvetica,sans-Serif" font-size="10.00">std::shared_ptr&lt; TokenResult</text>
<text text-anchor="start" x="14" y="-1322.5" font-family="Helvetica,sans-Serif" font-size="10.00"> &gt; addError(DataType type,</text>
<text text-anchor="start" x="14" y="-1310.5" font-family="Helvetica,sans-Serif" font-size="10.00"> ErrorType et=ErrorType::REPLACED)</text>
<text text-anchor="start" x="4" y="-1294.5" font-family="Helvetica,sans-Serif" font-size="10.00">+</text>
<text text-anchor="start" x="14" y="-1294.5" font-family="Helvetica,sans-Serif" font-size="10.00">virtual DataType getData</text>
<text text-anchor="start" x="14" y="-1282.5" font-family="Helvetica,sans-Serif" font-size="10.00">Type()</text>
<text text-anchor="start" x="4" y="-1266.5" font-family="Helvetica,sans-Serif" font-size="10.00">+</text>
<text text-anchor="start" x="14" y="-1266.5" font-family="Helvetica,sans-Serif" font-size="10.00">virtual std::shared</text>
<text text-anchor="start" x="14" y="-1254.5" font-family="Helvetica,sans-Serif" font-size="10.00">_ptr&lt; TokenResult &gt;</text>
<text text-anchor="start" x="14" y="-1242.5" font-family="Helvetica,sans-Serif" font-size="10.00"> addTokens(IteratorList</text>
<text text-anchor="start" x="14" y="-1230.5" font-family="Helvetica,sans-Serif" font-size="10.00">&lt; Token &gt; &amp;tl, std::shared</text>
<text text-anchor="start" x="14" y="-1218.5" font-family="Helvetica,sans-Serif" font-size="10.00">_ptr&lt; TokenResult &gt; tRes)</text>
<text text-anchor="start" x="4" y="-1202.5" font-family="Helvetica,sans-Serif" font-size="10.00">+</text>
<text text-anchor="start" x="14" y="-1202.5" font-family="Helvetica,sans-Serif" font-size="10.00">virtual std::shared</text>
<text text-anchor="start" x="14" y="-1190.5" font-family="Helvetica,sans-Serif" font-size="10.00">_ptr&lt; Tag &gt; execute()</text>
<polygon fill="#666666" stroke="#666666" points="0,-1558 0,-1558 186,-1558 186,-1558 0,-1558"/>
<polygon fill="#666666" stroke="#666666" points="0,-1482 0,-1482 12,-1482 12,-1482 0,-1482"/>
<polygon fill="#666666" stroke="#666666" points="12,-1482 12,-1482 186,-1482 186,-1482 12,-1482"/>
<polygon fill="none" stroke="#666666" points="0,-1184 0,-1576 186,-1576 186,-1184 0,-1184"/>
</a>
</g>
</g>
<!-- Node5&#45;&gt;Node4 -->
<g id="edge8_Node000004_Node000005" class="edge">
<title>Node5&#45;&gt;Node4</title>
<g id="a_edge8_Node000004_Node000005"><a xlink:title=" ">
<path fill="none" stroke="#63b8ff" d="M93,-1172.91C93,-1163.53 93,-1155.06 93,-1147.87"/>
<polygon fill="none" stroke="#63b8ff" points="89.5,-1172.8 93,-1182.8 96.5,-1172.8 89.5,-1172.8"/>
</a>
</g>
</g>
</g>
</svg>
