<?xml version="1.0" encoding="UTF-8" standalone="no"?>
<!DOCTYPE svg PUBLIC "-//W3C//DTD SVG 1.1//EN"
 "http://www.w3.org/Graphics/SVG/1.1/DTD/svg11.dtd">
<!-- Generated by graphviz version 12.2.0 (20241103.1931)
 -->
<!-- Title: MyFrame::BindChoiceButtons Pages: 1 -->
<svg width="608pt" height="28pt"
 viewBox="0.00 0.00 607.50 28.00" xmlns="http://www.w3.org/2000/svg" xmlns:xlink="http://www.w3.org/1999/xlink">
<g id="graph0" class="graph" transform="scale(1 1) rotate(0) translate(4 24)">
<title>MyFrame::BindChoiceButtons</title>
<!-- Node1 -->
<g id="Node000001" class="node">
<title>Node1</title>
<g id="a_Node000001"><a xlink:title=" ">
<polygon fill="#999999" stroke="#666666" points="599.5,-20 452.25,-20 452.25,0 599.5,0 599.5,-20"/>
<text text-anchor="middle" x="525.88" y="-6.5" font-family="Helvetica,sans-Serif" font-size="10.00">MyFrame::BindChoiceButtons</text>
</a>
</g>
</g>
<!-- Node2 -->
<g id="Node000002" class="node">
<title>Node2</title>
<g id="a_Node000002"><a xlink:href="$class_my_frame.html#a9021090d0039a901c587e8054952046a" xlink:title=" ">
<polygon fill="white" stroke="#666666" points="416.25,-20 299,-20 299,0 416.25,0 416.25,-20"/>
<text text-anchor="middle" x="357.62" y="-6.5" font-family="Helvetica,sans-Serif" font-size="10.00">MyFrame::setTopPanel</text>
</a>
</g>
</g>
<!-- Node1&#45;&gt;Node2 -->
<g id="edge4_Node000001_Node000002" class="edge">
<title>Node1&#45;&gt;Node2</title>
<g id="a_edge4_Node000001_Node000002"><a xlink:title=" ">
<path fill="none" stroke="#63b8ff" d="M440.5,-10C432.38,-10 424.28,-10 416.5,-10"/>
<polygon fill="#63b8ff" stroke="#63b8ff" points="440.44,-13.5 450.44,-10 440.44,-6.5 440.44,-13.5"/>
</a>
</g>
</g>
<!-- Node3 -->
<g id="Node000003" class="node">
<title>Node3</title>
<g id="a_Node000003"><a xlink:href="$class_my_frame.html#a774684146b2b14e42891f6d8b8a73912" xlink:title=" ">
<polygon fill="white" stroke="#666666" points="263,-20 140.5,-20 140.5,0 263,0 263,-20"/>
<text text-anchor="middle" x="201.75" y="-6.5" font-family="Helvetica,sans-Serif" font-size="10.00">MyFrame::setMainPanel</text>
</a>
</g>
</g>
<!-- Node2&#45;&gt;Node3 -->
<g id="edge5_Node000002_Node000003" class="edge">
<title>Node2&#45;&gt;Node3</title>
<g id="a_edge5_Node000002_Node000003"><a xlink:title=" ">
<path fill="none" stroke="#63b8ff" d="M287.59,-10C279.52,-10 271.33,-10 263.38,-10"/>
<polygon fill="#63b8ff" stroke="#63b8ff" points="287.38,-13.5 297.38,-10 287.38,-6.5 287.38,-13.5"/>
</a>
</g>
</g>
<!-- Node4 -->
<g id="Node000004" class="node">
<title>Node4</title>
<g id="a_Node000004"><a xlink:href="$class_my_frame.html#af13d7bffe3d6844c2331085f423764a4" xlink:title=" ">
<polygon fill="white" stroke="#666666" points="104.5,-20 0,-20 0,0 104.5,0 104.5,-20"/>
<text text-anchor="middle" x="52.25" y="-6.5" font-family="Helvetica,sans-Serif" font-size="10.00">MyFrame::MyFrame</text>
</a>
</g>
</g>
<!-- Node3&#45;&gt;Node4 -->
<g id="edge6_Node000003_Node000004" class="edge">
<title>Node3&#45;&gt;Node4</title>
<g id="a_edge6_Node000003_Node000004"><a xlink:title=" ">
<path fill="none" stroke="#63b8ff" d="M128.91,-10C120.79,-10 112.64,-10 104.85,-10"/>
<polygon fill="#63b8ff" stroke="#63b8ff" points="128.82,-13.5 138.82,-10 128.82,-6.5 128.82,-13.5"/>
</a>
</g>
</g>
</g>
</svg>
