<?xml version="1.0" encoding="UTF-8" standalone="no"?>
<!DOCTYPE svg PUBLIC "-//W3C//DTD SVG 1.1//EN"
 "http://www.w3.org/Graphics/SVG/1.1/DTD/svg11.dtd">
<!-- Generated by graphviz version 12.2.0 (20241103.1931)
 -->
<!-- Title: BotConfig::readFavoriteInstance Pages: 1 -->
<svg width="721pt" height="104pt"
 viewBox="0.00 0.00 721.00 104.00" xmlns="http://www.w3.org/2000/svg" xmlns:xlink="http://www.w3.org/1999/xlink">
<g id="graph0" class="graph" transform="scale(1 1) rotate(0) translate(4 100)">
<title>BotConfig::readFavoriteInstance</title>
<!-- Node1 -->
<g id="Node000001" class="node">
<title>Node1</title>
<g id="a_Node000001"><a xlink:title=" ">
<polygon fill="#999999" stroke="#666666" points="157,-58 0,-58 0,-38 157,-38 157,-58"/>
<text text-anchor="middle" x="78.5" y="-44.5" font-family="Helvetica,sans-Serif" font-size="10.00">BotConfig::readFavoriteInstance</text>
</a>
</g>
</g>
<!-- Node2 -->
<g id="Node000002" class="node">
<title>Node2</title>
<g id="a_Node000002"><a xlink:href="$class_bot_config.html#a6347ad0b79f04a755fe1d7151ed87cd2" xlink:title=" ">
<polygon fill="white" stroke="#666666" points="333.5,-58 193,-58 193,-38 333.5,-38 333.5,-58"/>
<text text-anchor="middle" x="263.25" y="-44.5" font-family="Helvetica,sans-Serif" font-size="10.00">BotConfig::readStringBotFile</text>
</a>
</g>
</g>
<!-- Node1&#45;&gt;Node2 -->
<g id="edge9_Node000001_Node000002" class="edge">
<title>Node1&#45;&gt;Node2</title>
<g id="a_edge9_Node000001_Node000002"><a xlink:title=" ">
<path fill="none" stroke="#63b8ff" d="M157.27,-48C165.26,-48 173.39,-48 181.41,-48"/>
<polygon fill="#63b8ff" stroke="#63b8ff" points="181.14,-51.5 191.14,-48 181.14,-44.5 181.14,-51.5"/>
</a>
</g>
</g>
<!-- Node3 -->
<g id="Node000003" class="node">
<title>Node3</title>
<g id="a_Node000003"><a xlink:href="$class_bot_config.html#a623d05e4d8e0122d35b1a3e391fc2464" xlink:title=" ">
<polygon fill="white" stroke="#666666" points="479.25,-58 369.5,-58 369.5,-38 479.25,-38 479.25,-58"/>
<text text-anchor="middle" x="424.38" y="-44.5" font-family="Helvetica,sans-Serif" font-size="10.00">BotConfig::readString</text>
</a>
</g>
</g>
<!-- Node2&#45;&gt;Node3 -->
<g id="edge10_Node000002_Node000003" class="edge">
<title>Node2&#45;&gt;Node3</title>
<g id="a_edge10_Node000002_Node000003"><a xlink:title=" ">
<path fill="none" stroke="#63b8ff" d="M333.58,-48C341.57,-48 349.7,-48 357.64,-48"/>
<polygon fill="#63b8ff" stroke="#63b8ff" points="357.59,-51.5 367.59,-48 357.59,-44.5 357.59,-51.5"/>
</a>
</g>
</g>
<!-- Node4 -->
<g id="Node000004" class="node">
<title>Node4</title>
<g id="a_Node000004"><a xlink:href="$_text_manager_8cpp.html#aa61ad4367d44c1e14541c7c1c46da795" xlink:title=" ">
<polygon fill="white" stroke="#666666" points="595.75,-96 515.25,-96 515.25,-76 595.75,-76 595.75,-96"/>
<text text-anchor="middle" x="555.5" y="-82.5" font-family="Helvetica,sans-Serif" font-size="10.00">extractContent</text>
</a>
</g>
</g>
<!-- Node3&#45;&gt;Node4 -->
<g id="edge11_Node000003_Node000004" class="edge">
<title>Node3&#45;&gt;Node4</title>
<g id="a_edge11_Node000003_Node000004"><a xlink:title=" ">
<path fill="none" stroke="#63b8ff" d="M461,-58.48C475.54,-62.76 492.54,-67.77 508.03,-72.33"/>
<polygon fill="#63b8ff" stroke="#63b8ff" points="506.96,-75.66 517.54,-75.12 508.93,-68.94 506.96,-75.66"/>
</a>
</g>
</g>
<!-- Node6 -->
<g id="Node000006" class="node">
<title>Node6</title>
<g id="a_Node000006"><a xlink:href="$_text_manager_8cpp.html#add36cc54cd9616a393a17b8961491477" xlink:title=" ">
<polygon fill="white" stroke="#666666" points="595.38,-20 515.62,-20 515.62,0 595.38,0 595.38,-20"/>
<text text-anchor="middle" x="555.5" y="-6.5" font-family="Helvetica,sans-Serif" font-size="10.00">getFileContent</text>
</a>
</g>
</g>
<!-- Node3&#45;&gt;Node6 -->
<g id="edge13_Node000003_Node000006" class="edge">
<title>Node3&#45;&gt;Node6</title>
<g id="a_edge13_Node000003_Node000006"><a xlink:title=" ">
<path fill="none" stroke="#63b8ff" d="M461,-37.52C475.54,-33.24 492.54,-28.23 508.03,-23.67"/>
<polygon fill="#63b8ff" stroke="#63b8ff" points="508.93,-27.06 517.54,-20.88 506.96,-20.34 508.93,-27.06"/>
</a>
</g>
</g>
<!-- Node8 -->
<g id="Node000008" class="node">
<title>Node8</title>
<g id="a_Node000008"><a xlink:href="$_text_manager_8cpp.html#af24bee60aa1d3d5b4ae3bf6ebd267ecd" xlink:title=" ">
<polygon fill="white" stroke="#666666" points="579.25,-58 531.75,-58 531.75,-38 579.25,-38 579.25,-58"/>
<text text-anchor="middle" x="555.5" y="-44.5" font-family="Helvetica,sans-Serif" font-size="10.00">getLine</text>
</a>
</g>
</g>
<!-- Node3&#45;&gt;Node8 -->
<g id="edge15_Node000003_Node000008" class="edge">
<title>Node3&#45;&gt;Node8</title>
<g id="a_edge15_Node000003_Node000008"><a xlink:title=" ">
<path fill="none" stroke="#63b8ff" d="M479.39,-48C493.21,-48 507.7,-48 520.23,-48"/>
<polygon fill="#63b8ff" stroke="#63b8ff" points="520.03,-51.5 530.03,-48 520.03,-44.5 520.03,-51.5"/>
</a>
</g>
</g>
<!-- Node5 -->
<g id="Node000005" class="node">
<title>Node5</title>
<g id="a_Node000005"><a xlink:href="$_text_manager_8cpp.html#afbb8972025ad14e914fdaafa26957439" xlink:title=" ">
<polygon fill="white" stroke="#666666" points="696.88,-77 647.88,-77 647.88,-57 696.88,-57 696.88,-77"/>
<text text-anchor="middle" x="672.38" y="-63.5" font-family="Helvetica,sans-Serif" font-size="10.00">findPos</text>
</a>
</g>
</g>
<!-- Node4&#45;&gt;Node5 -->
<g id="edge12_Node000004_Node000005" class="edge">
<title>Node4&#45;&gt;Node5</title>
<g id="a_edge12_Node000004_Node000005"><a xlink:title=" ">
<path fill="none" stroke="#63b8ff" d="M596.03,-79.46C609.15,-77.29 623.65,-74.89 636.4,-72.78"/>
<polygon fill="#63b8ff" stroke="#63b8ff" points="636.74,-76.28 646.04,-71.19 635.6,-69.37 636.74,-76.28"/>
</a>
</g>
</g>
<!-- Node7 -->
<g id="Node000007" class="node">
<title>Node7</title>
<g id="a_Node000007"><a xlink:href="$_text_manager_8cpp.html#a5e4308ca14d1f4cfc2456fc26b1361a8" xlink:title=" ">
<polygon fill="white" stroke="#666666" points="713,-20 631.75,-20 631.75,0 713,0 713,-20"/>
<text text-anchor="middle" x="672.38" y="-6.5" font-family="Helvetica,sans-Serif" font-size="10.00">getIfstreamFile</text>
</a>
</g>
</g>
<!-- Node6&#45;&gt;Node7 -->
<g id="edge14_Node000006_Node000007" class="edge">
<title>Node6&#45;&gt;Node7</title>
<g id="a_edge14_Node000006_Node000007"><a xlink:title=" ">
<path fill="none" stroke="#63b8ff" d="M595.71,-10C603.58,-10 611.95,-10 620.15,-10"/>
<polygon fill="#63b8ff" stroke="#63b8ff" points="620.05,-13.5 630.05,-10 620.05,-6.5 620.05,-13.5"/>
</a>
</g>
</g>
<!-- Node8&#45;&gt;Node5 -->
<g id="edge16_Node000008_Node000005" class="edge">
<title>Node8&#45;&gt;Node5</title>
<g id="a_edge16_Node000008_Node000005"><a xlink:title=" ">
<path fill="none" stroke="#63b8ff" d="M579.75,-51.84C596.07,-54.54 618.17,-58.2 636.59,-61.25"/>
<polygon fill="#63b8ff" stroke="#63b8ff" points="635.84,-64.67 646.28,-62.85 636.98,-57.76 635.84,-64.67"/>
</a>
</g>
</g>
</g>
</svg>
