<?xml version="1.0" encoding="UTF-8" standalone="no"?>
<!DOCTYPE svg PUBLIC "-//W3C//DTD SVG 1.1//EN"
 "http://www.w3.org/Graphics/SVG/1.1/DTD/svg11.dtd">
<!-- Generated by graphviz version 12.2.0 (20241103.1931)
 -->
<!-- Title: Worldrift::doActivity Pages: 1 -->
<svg width="1308pt" height="365pt"
 viewBox="0.00 0.00 1308.00 365.00" xmlns="http://www.w3.org/2000/svg" xmlns:xlink="http://www.w3.org/1999/xlink">
<g id="graph0" class="graph" transform="scale(1 1) rotate(0) translate(4 361)">
<title>Worldrift::doActivity</title>
<!-- Node1 -->
<g id="Node000001" class="node">
<title>Node1</title>
<g id="a_Node000001"><a xlink:title=" ">
<polygon fill="#999999" stroke="#666666" points="101.5,-180 0,-180 0,-160 101.5,-160 101.5,-180"/>
<text text-anchor="middle" x="50.75" y="-166.5" font-family="Helvetica,sans-Serif" font-size="10.00">Worldrift::doActivity</text>
</a>
</g>
</g>
<!-- Node2 -->
<g id="Node000002" class="node">
<title>Node2</title>
<g id="a_Node000002"><a xlink:href="$class_interactions.html#a25637266a0bf2b2c77d5c7e276baabd0" xlink:title=" ">
<polygon fill="white" stroke="#666666" points="375,-210 292.25,-210 292.25,-190 375,-190 375,-210"/>
<text text-anchor="middle" x="333.62" y="-196.5" font-family="Helvetica,sans-Serif" font-size="10.00">Interactions::fA</text>
</a>
</g>
</g>
<!-- Node1&#45;&gt;Node2 -->
<g id="edge41_Node000001_Node000002" class="edge">
<title>Node1&#45;&gt;Node2</title>
<g id="a_edge41_Node000001_Node000002"><a xlink:title=" ">
<path fill="none" stroke="#63b8ff" d="M69.4,-180.46C86.24,-189.78 112.65,-202.74 137.5,-208 185.2,-218.1 240.88,-214.32 280.53,-209.08"/>
<polygon fill="#63b8ff" stroke="#63b8ff" points="280.86,-212.57 290.28,-207.71 279.89,-205.64 280.86,-212.57"/>
</a>
</g>
</g>
<!-- Node25 -->
<g id="Node000025" class="node">
<title>Node25</title>
<g id="a_Node000025"><a xlink:href="$class_interactions.html#a85395e185b74c6e25d0f27459b0de33c" xlink:title=" ">
<polygon fill="white" stroke="#666666" points="234.12,-199 146.12,-199 146.12,-179 234.12,-179 234.12,-199"/>
<text text-anchor="middle" x="190.12" y="-185.5" font-family="Helvetica,sans-Serif" font-size="10.00">Interactions::fcA</text>
</a>
</g>
</g>
<!-- Node1&#45;&gt;Node25 -->
<g id="edge68_Node000001_Node000025" class="edge">
<title>Node1&#45;&gt;Node25</title>
<g id="a_edge68_Node000001_Node000025"><a xlink:title=" ">
<path fill="none" stroke="#63b8ff" d="M101.73,-176.91C112.44,-178.39 123.8,-179.96 134.66,-181.47"/>
<polygon fill="#63b8ff" stroke="#63b8ff" points="133.87,-184.89 144.26,-182.79 134.83,-177.96 133.87,-184.89"/>
</a>
</g>
</g>
<!-- Node26 -->
<g id="Node000026" class="node">
<title>Node26</title>
<g id="a_Node000026"><a xlink:href="$class_interactions.html#ae6f71f7be8c80c4954bdd0f594891e66" xlink:title=" ">
<polygon fill="white" stroke="#666666" points="388.5,-168 278.75,-168 278.75,-148 388.5,-148 388.5,-168"/>
<text text-anchor="middle" x="333.62" y="-154.5" font-family="Helvetica,sans-Serif" font-size="10.00">Interactions::fSwipeA</text>
</a>
</g>
</g>
<!-- Node1&#45;&gt;Node26 -->
<g id="edge70_Node000001_Node000026" class="edge">
<title>Node1&#45;&gt;Node26</title>
<g id="a_edge70_Node000001_Node000026"><a xlink:title=" ">
<path fill="none" stroke="#63b8ff" d="M101.96,-167.85C148.08,-165.88 216.7,-162.95 267.11,-160.8"/>
<polygon fill="#63b8ff" stroke="#63b8ff" points="267.18,-164.3 277.02,-160.38 266.88,-157.31 267.18,-164.3"/>
</a>
</g>
</g>
<!-- Node27 -->
<g id="Node000027" class="node">
<title>Node27</title>
<g id="a_Node000027"><a xlink:href="$class_interactions.html#a9044fca002a4287ad1a89ce0422a68e5" xlink:title=" ">
<polygon fill="white" stroke="#666666" points="242.75,-66 137.5,-66 137.5,-46 242.75,-46 242.75,-66"/>
<text text-anchor="middle" x="190.12" y="-52.5" font-family="Helvetica,sans-Serif" font-size="10.00">Interactions::gSwipe</text>
</a>
</g>
</g>
<!-- Node1&#45;&gt;Node27 -->
<g id="edge76_Node000001_Node000027" class="edge">
<title>Node1&#45;&gt;Node27</title>
<g id="a_edge76_Node000001_Node000027"><a xlink:title=" ">
<path fill="none" stroke="#63b8ff" d="M63.94,-159.88C87.41,-140.41 139.09,-97.52 168.18,-73.38"/>
<polygon fill="#63b8ff" stroke="#63b8ff" points="170.14,-76.3 175.6,-67.22 165.67,-70.92 170.14,-76.3"/>
</a>
</g>
</g>
<!-- Node3 -->
<g id="Node000003" class="node">
<title>Node3</title>
<g id="a_Node000003"><a xlink:href="$fopencv_8cpp.html#a69713584f69a121e4ed91918a64448a0" xlink:title=" ">
<polygon fill="white" stroke="#666666" points="843.75,-248 763.25,-248 763.25,-228 843.75,-228 843.75,-248"/>
<text text-anchor="middle" x="803.5" y="-234.5" font-family="Helvetica,sans-Serif" font-size="10.00">cvmtfTemplate</text>
</a>
</g>
</g>
<!-- Node2&#45;&gt;Node3 -->
<g id="edge42_Node000002_Node000003" class="edge">
<title>Node2&#45;&gt;Node3</title>
<g id="a_edge42_Node000002_Node000003"><a xlink:title=" ">
<path fill="none" stroke="#63b8ff" d="M375.1,-209.98C390.48,-213.39 408.21,-216.88 424.5,-219 540.93,-234.14 678.99,-237.4 751.76,-237.99"/>
<polygon fill="#63b8ff" stroke="#63b8ff" points="751.33,-241.49 761.35,-238.05 751.37,-234.49 751.33,-241.49"/>
</a>
</g>
</g>
<!-- Node9 -->
<g id="Node000009" class="node">
<title>Node9</title>
<g id="a_Node000009"><a xlink:href="$class_interactions.html#a5b5af2b125ff152043789cfcf70ffb2b" xlink:title=" ">
<polygon fill="white" stroke="#666666" points="556.38,-210 430.12,-210 430.12,-190 556.38,-190 556.38,-210"/>
<text text-anchor="middle" x="493.25" y="-196.5" font-family="Helvetica,sans-Serif" font-size="10.00">Interactions::getTemplate</text>
</a>
</g>
</g>
<!-- Node2&#45;&gt;Node9 -->
<g id="edge48_Node000002_Node000009" class="edge">
<title>Node2&#45;&gt;Node9</title>
<g id="a_edge48_Node000002_Node000009"><a xlink:title=" ">
<path fill="none" stroke="#63b8ff" d="M375.22,-200C388.45,-200 403.57,-200 418.46,-200"/>
<polygon fill="#63b8ff" stroke="#63b8ff" points="418.24,-203.5 428.24,-200 418.24,-196.5 418.24,-203.5"/>
</a>
</g>
</g>
<!-- Node11 -->
<g id="Node000011" class="node">
<title>Node11</title>
<g id="a_Node000011"><a xlink:href="$class_interactions.html#a0a0ffd9ad1990de31fd7b2773db32667" xlink:title=" ">
<polygon fill="white" stroke="#666666" points="553.75,-172 432.75,-172 432.75,-152 553.75,-152 553.75,-172"/>
<text text-anchor="middle" x="493.25" y="-158.5" font-family="Helvetica,sans-Serif" font-size="10.00">Interactions::loopPopUp</text>
</a>
</g>
</g>
<!-- Node2&#45;&gt;Node11 -->
<g id="edge50_Node000002_Node000011" class="edge">
<title>Node2&#45;&gt;Node11</title>
<g id="a_edge50_Node000002_Node000011"><a xlink:title=" ">
<path fill="none" stroke="#63b8ff" d="M375.22,-190.21C394.23,-185.63 417.15,-180.1 437.66,-175.16"/>
<polygon fill="#63b8ff" stroke="#63b8ff" points="438.38,-178.59 447.28,-172.84 436.74,-171.78 438.38,-178.59"/>
</a>
</g>
</g>
<!-- Node23 -->
<g id="Node000023" class="node">
<title>Node23</title>
<g id="a_Node000023"><a xlink:href="$class_interactions.html#ade7f52c59105f434650b9358b22e5488" xlink:title=" ">
<polygon fill="white" stroke="#666666" points="553.75,-134 432.75,-134 432.75,-114 553.75,-114 553.75,-134"/>
<text text-anchor="middle" x="493.25" y="-120.5" font-family="Helvetica,sans-Serif" font-size="10.00">Interactions::resetCount</text>
</a>
</g>
</g>
<!-- Node2&#45;&gt;Node23 -->
<g id="edge64_Node000002_Node000023" class="edge">
<title>Node2&#45;&gt;Node23</title>
<g id="a_edge64_Node000002_Node000023"><a xlink:title=" ">
<path fill="none" stroke="#63b8ff" d="M364.39,-189.5C372.51,-186.06 381.1,-181.85 388.5,-177 406.91,-164.94 405.35,-153.84 424.5,-143 427.29,-141.42 430.22,-139.96 433.23,-138.62"/>
<polygon fill="#63b8ff" stroke="#63b8ff" points="434.28,-141.97 442.3,-135.05 431.71,-135.46 434.28,-141.97"/>
</a>
</g>
</g>
<!-- Node24 -->
<g id="Node000024" class="node">
<title>Node24</title>
<g id="a_Node000024"><a xlink:href="$class_interactions.html#ad7daddd9df3cea80e69872b8afd6c8dc" xlink:title=" ">
<polygon fill="white" stroke="#666666" points="562,-305 424.5,-305 424.5,-285 562,-285 562,-305"/>
<text text-anchor="middle" x="493.25" y="-291.5" font-family="Helvetica,sans-Serif" font-size="10.00">Interactions::templateFound</text>
</a>
</g>
</g>
<!-- Node2&#45;&gt;Node24 -->
<g id="edge65_Node000002_Node000024" class="edge">
<title>Node2&#45;&gt;Node24</title>
<g id="a_edge65_Node000002_Node000024"><a xlink:title=" ">
<path fill="none" stroke="#63b8ff" d="M351.79,-210.35C379.15,-226.84 432.86,-259.21 465.36,-278.79"/>
<polygon fill="#63b8ff" stroke="#63b8ff" points="463.43,-281.72 473.81,-283.88 467.05,-275.72 463.43,-281.72"/>
</a>
</g>
</g>
<!-- Node4 -->
<g id="Node000004" class="node">
<title>Node4</title>
<g id="a_Node000004"><a xlink:href="$fopencv_8cpp.html#af6fc77188d314c0d5a58888452f9b313" xlink:title=" ">
<polygon fill="white" stroke="#666666" points="977.88,-267 910.12,-267 910.12,-247 977.88,-247 977.88,-267"/>
<text text-anchor="middle" x="944" y="-253.5" font-family="Helvetica,sans-Serif" font-size="10.00">extractZone</text>
</a>
</g>
</g>
<!-- Node3&#45;&gt;Node4 -->
<g id="edge43_Node000003_Node000004" class="edge">
<title>Node3&#45;&gt;Node4</title>
<g id="a_edge43_Node000003_Node000004"><a xlink:title=" ">
<path fill="none" stroke="#63b8ff" d="M844.19,-243.44C861.16,-245.77 881.04,-248.5 898.5,-250.9"/>
<polygon fill="#63b8ff" stroke="#63b8ff" points="897.97,-254.36 908.36,-252.25 898.93,-247.42 897.97,-254.36"/>
</a>
</g>
</g>
<!-- Node5 -->
<g id="Node000005" class="node">
<title>Node5</title>
<g id="a_Node000005"><a xlink:href="$struct_zone.html#a5301e7fcf185a5a79c1bf7d7930f4b8a" xlink:title=" ">
<polygon fill="white" stroke="#666666" points="978.25,-229 909.75,-229 909.75,-209 978.25,-209 978.25,-229"/>
<text text-anchor="middle" x="944" y="-215.5" font-family="Helvetica,sans-Serif" font-size="10.00">Zone::isNull</text>
</a>
</g>
</g>
<!-- Node3&#45;&gt;Node5 -->
<g id="edge44_Node000003_Node000005" class="edge">
<title>Node3&#45;&gt;Node5</title>
<g id="a_edge44_Node000003_Node000005"><a xlink:title=" ">
<path fill="none" stroke="#63b8ff" d="M844.19,-232.56C861.11,-230.23 880.92,-227.52 898.35,-225.13"/>
<polygon fill="#63b8ff" stroke="#63b8ff" points="898.47,-228.64 907.9,-223.82 897.52,-221.71 898.47,-228.64"/>
</a>
</g>
</g>
<!-- Node7 -->
<g id="Node000007" class="node">
<title>Node7</title>
<g id="a_Node000007"><a xlink:href="$fopencv_8cpp.html#a1ed1ff1a9df2ab889e1423cb11a58c06" xlink:title=" ">
<polygon fill="white" stroke="#666666" points="985.38,-191 902.62,-191 902.62,-171 985.38,-171 985.38,-191"/>
<text text-anchor="middle" x="944" y="-177.5" font-family="Helvetica,sans-Serif" font-size="10.00">messageFound</text>
</a>
</g>
</g>
<!-- Node3&#45;&gt;Node7 -->
<g id="edge46_Node000003_Node000007" class="edge">
<title>Node3&#45;&gt;Node7</title>
<g id="a_edge46_Node000003_Node000007"><a xlink:title=" ">
<path fill="none" stroke="#63b8ff" d="M828.95,-227.52C847.07,-219.8 872.39,-209.11 894.75,-200 898.32,-198.55 902.04,-197.05 905.77,-195.56"/>
<polygon fill="#63b8ff" stroke="#63b8ff" points="906.74,-198.94 914.75,-192 904.16,-192.43 906.74,-198.94"/>
</a>
</g>
</g>
<!-- Node8 -->
<g id="Node000008" class="node">
<title>Node8</title>
<g id="a_Node000008"><a xlink:href="$fopencv_8cpp.html#ae51fd1f3ed39bd8c9b8da4a313d5aeb3" xlink:title=" ">
<polygon fill="white" stroke="#666666" points="993.25,-305 894.75,-305 894.75,-285 993.25,-285 993.25,-305"/>
<text text-anchor="middle" x="944" y="-291.5" font-family="Helvetica,sans-Serif" font-size="10.00">oneMatchTemplate</text>
</a>
</g>
</g>
<!-- Node3&#45;&gt;Node8 -->
<g id="edge47_Node000003_Node000008" class="edge">
<title>Node3&#45;&gt;Node8</title>
<g id="a_edge47_Node000003_Node000008"><a xlink:title=" ">
<path fill="none" stroke="#63b8ff" d="M828.95,-248.48C847.07,-256.2 872.39,-266.89 894.75,-276 898.32,-277.45 902.04,-278.95 905.77,-280.44"/>
<polygon fill="#63b8ff" stroke="#63b8ff" points="904.16,-283.57 914.75,-284 906.74,-277.06 904.16,-283.57"/>
</a>
</g>
</g>
<!-- Node6 -->
<g id="Node000006" class="node">
<title>Node6</title>
<g id="a_Node000006"><a xlink:href="$struct_coord.html#a34c573cd6230e5a532f12ae97e7395e2" xlink:title=" ">
<polygon fill="white" stroke="#666666" points="1102.25,-229 1029.25,-229 1029.25,-209 1102.25,-209 1102.25,-229"/>
<text text-anchor="middle" x="1065.75" y="-215.5" font-family="Helvetica,sans-Serif" font-size="10.00">Coord::isNull</text>
</a>
</g>
</g>
<!-- Node5&#45;&gt;Node6 -->
<g id="edge45_Node000005_Node000006" class="edge">
<title>Node5&#45;&gt;Node6</title>
<g id="a_edge45_Node000005_Node000006"><a xlink:title=" ">
<path fill="none" stroke="#63b8ff" d="M978.68,-219C990.77,-219 1004.64,-219 1017.66,-219"/>
<polygon fill="#63b8ff" stroke="#63b8ff" points="1017.3,-222.5 1027.3,-219 1017.3,-215.5 1017.3,-222.5"/>
</a>
</g>
</g>
<!-- Node10 -->
<g id="Node000010" class="node">
<title>Node10</title>
<g id="a_Node000010"><a xlink:href="$struct_template.html#a93d3c6f97592ba09d7819fda3c3296d7" xlink:title=" ">
<polygon fill="white" stroke="#666666" points="703.25,-210 607,-210 607,-190 703.25,-190 703.25,-210"/>
<text text-anchor="middle" x="655.12" y="-196.5" font-family="Helvetica,sans-Serif" font-size="10.00">Template::setType</text>
</a>
</g>
</g>
<!-- Node9&#45;&gt;Node10 -->
<g id="edge49_Node000009_Node000010" class="edge">
<title>Node9&#45;&gt;Node10</title>
<g id="a_edge49_Node000009_Node000010"><a xlink:title=" ">
<path fill="none" stroke="#63b8ff" d="M556.52,-200C569.27,-200 582.66,-200 595.29,-200"/>
<polygon fill="#63b8ff" stroke="#63b8ff" points="595.12,-203.5 605.12,-200 595.12,-196.5 595.12,-203.5"/>
</a>
</g>
</g>
<!-- Node12 -->
<g id="Node000012" class="node">
<title>Node12</title>
<g id="a_Node000012"><a xlink:href="$fopencv_8cpp.html#a5c455ed716b7fa4c675446fc5b8ba4fb" xlink:title=" ">
<polygon fill="white" stroke="#666666" points="686,-172 624.25,-172 624.25,-152 686,-152 686,-172"/>
<text text-anchor="middle" x="655.12" y="-158.5" font-family="Helvetica,sans-Serif" font-size="10.00">CreateMat</text>
</a>
</g>
</g>
<!-- Node11&#45;&gt;Node12 -->
<g id="edge51_Node000011_Node000012" class="edge">
<title>Node11&#45;&gt;Node12</title>
<g id="a_edge51_Node000011_Node000012"><a xlink:title=" ">
<path fill="none" stroke="#63b8ff" d="M554.24,-162C573.62,-162 594.68,-162 612.44,-162"/>
<polygon fill="#63b8ff" stroke="#63b8ff" points="612.36,-165.5 622.36,-162 612.36,-158.5 612.36,-165.5"/>
</a>
</g>
</g>
<!-- Node13 -->
<g id="Node000013" class="node">
<title>Node13</title>
<g id="a_Node000013"><a xlink:href="$class_interactions.html#aed04f9177d2aba467d71818a5e82c7bc" xlink:title=" ">
<polygon fill="white" stroke="#666666" points="712.25,-286 598,-286 598,-266 712.25,-266 712.25,-286"/>
<text text-anchor="middle" x="655.12" y="-272.5" font-family="Helvetica,sans-Serif" font-size="10.00">Interactions::fcpopupA</text>
</a>
</g>
</g>
<!-- Node11&#45;&gt;Node13 -->
<g id="edge52_Node000011_Node000013" class="edge">
<title>Node11&#45;&gt;Node13</title>
<g id="a_edge52_Node000011_Node000013"><a xlink:title=" ">
<path fill="none" stroke="#63b8ff" d="M543.68,-172.45C550.07,-174.78 556.35,-177.59 562,-181 581.92,-193.02 581.84,-202.27 598,-219 610.49,-231.93 624.69,-246.35 635.68,-257.45"/>
<polygon fill="#63b8ff" stroke="#63b8ff" points="633.13,-259.84 642.65,-264.48 638.1,-254.91 633.13,-259.84"/>
</a>
</g>
</g>
<!-- Node16 -->
<g id="Node000016" class="node">
<title>Node16</title>
<g id="a_Node000016"><a xlink:href="$fadb_8cpp.html#aeec40a5f78ae4713eedd84cb5f75746f" xlink:title=" ">
<polygon fill="white" stroke="#666666" points="687.12,-58 623.12,-58 623.12,-38 687.12,-38 687.12,-58"/>
<text text-anchor="middle" x="655.12" y="-44.5" font-family="Helvetica,sans-Serif" font-size="10.00">screenshot</text>
</a>
</g>
</g>
<!-- Node11&#45;&gt;Node16 -->
<g id="edge57_Node000011_Node000016" class="edge">
<title>Node11&#45;&gt;Node16</title>
<g id="a_edge57_Node000011_Node000016"><a xlink:title=" ">
<path fill="none" stroke="#63b8ff" d="M543.29,-151.61C549.81,-149.28 556.23,-146.44 562,-143 594.89,-123.42 623.99,-89.08 640.3,-67.5"/>
<polygon fill="#63b8ff" stroke="#63b8ff" points="643.06,-69.66 646.16,-59.53 637.42,-65.51 643.06,-69.66"/>
</a>
</g>
</g>
<!-- Node13&#45;&gt;Node3 -->
<g id="edge55_Node000013_Node000003" class="edge">
<title>Node13&#45;&gt;Node3</title>
<g id="a_edge55_Node000013_Node000003"><a xlink:title=" ">
<path fill="none" stroke="#63b8ff" d="M696.51,-265.52C713.61,-261.08 733.72,-255.86 751.8,-251.16"/>
<polygon fill="#63b8ff" stroke="#63b8ff" points="752.49,-254.6 761.29,-248.7 750.73,-247.82 752.49,-254.6"/>
</a>
</g>
</g>
<!-- Node14 -->
<g id="Node000014" class="node">
<title>Node14</title>
<g id="a_Node000014"><a xlink:href="$class_interactions.html#aae6172962092f278714536142e987cde" xlink:title=" ">
<polygon fill="white" stroke="#666666" points="850.12,-296 756.88,-296 756.88,-276 850.12,-276 850.12,-296"/>
<text text-anchor="middle" x="803.5" y="-282.5" font-family="Helvetica,sans-Serif" font-size="10.00">Interactions::click</text>
</a>
</g>
</g>
<!-- Node13&#45;&gt;Node14 -->
<g id="edge53_Node000013_Node000014" class="edge">
<title>Node13&#45;&gt;Node14</title>
<g id="a_edge53_Node000013_Node000014"><a xlink:title=" ">
<path fill="none" stroke="#63b8ff" d="M712.72,-279.87C723.35,-280.59 734.48,-281.35 745.14,-282.08"/>
<polygon fill="#63b8ff" stroke="#63b8ff" points="744.75,-285.56 754.96,-282.75 745.22,-278.58 744.75,-285.56"/>
</a>
</g>
</g>
<!-- Node15 -->
<g id="Node000015" class="node">
<title>Node15</title>
<g id="a_Node000015"><a xlink:href="$class_interactions.html#abd5b5d8a44970e1333e3611e302f166c" xlink:title=" ">
<polygon fill="white" stroke="#666666" points="849,-357 758,-357 758,-337 849,-337 849,-357"/>
<text text-anchor="middle" x="803.5" y="-343.5" font-family="Helvetica,sans-Serif" font-size="10.00">Interactions::wait</text>
</a>
</g>
</g>
<!-- Node13&#45;&gt;Node15 -->
<g id="edge56_Node000013_Node000015" class="edge">
<title>Node13&#45;&gt;Node15</title>
<g id="a_edge56_Node000013_Node000015"><a xlink:title=" ">
<path fill="none" stroke="#63b8ff" d="M675.74,-286.4C694.28,-296.14 722.96,-310.96 748.25,-323 754.6,-326.02 761.42,-329.14 768,-332.08"/>
<polygon fill="#63b8ff" stroke="#63b8ff" points="766.12,-335.07 776.68,-335.92 768.95,-328.67 766.12,-335.07"/>
</a>
</g>
</g>
<!-- Node14&#45;&gt;Node14 -->
<g id="edge54_Node000014_Node000014" class="edge">
<title>Node14&#45;&gt;Node14</title>
<g id="a_edge54_Node000014_Node000014"><a xlink:title=" ">
<path fill="none" stroke="#63b8ff" d="M781.18,-296.34C771.64,-304.98 779.08,-314 803.5,-314 816.86,-314 825.13,-311.3 828.33,-307.44"/>
<polygon fill="#63b8ff" stroke="#63b8ff" points="831.78,-306.8 826.16,-297.81 824.95,-308.34 831.78,-306.8"/>
</a>
</g>
</g>
<!-- Node17 -->
<g id="Node000017" class="node">
<title>Node17</title>
<g id="a_Node000017"><a xlink:href="$fadb_8cpp.html#a7ab9819839864ebd26d0e7e68e330418" xlink:title=" ">
<polygon fill="white" stroke="#666666" points="845.62,-58 761.38,-58 761.38,-38 845.62,-38 845.62,-58"/>
<text text-anchor="middle" x="803.5" y="-44.5" font-family="Helvetica,sans-Serif" font-size="10.00">takeScreenshot</text>
</a>
</g>
</g>
<!-- Node16&#45;&gt;Node17 -->
<g id="edge58_Node000016_Node000017" class="edge">
<title>Node16&#45;&gt;Node17</title>
<g id="a_edge58_Node000016_Node000017"><a xlink:title=" ">
<path fill="none" stroke="#63b8ff" d="M687.53,-48C705.67,-48 728.97,-48 749.84,-48"/>
<polygon fill="#63b8ff" stroke="#63b8ff" points="749.63,-51.5 759.63,-48 749.63,-44.5 749.63,-51.5"/>
</a>
</g>
</g>
<!-- Node18 -->
<g id="Node000018" class="node">
<title>Node18</title>
<g id="a_Node000018"><a xlink:href="$fadb_8cpp.html#ac6339b59ba8238f7483dece7f3fdf51b" xlink:title=" ">
<polygon fill="white" stroke="#666666" points="988.38,-39 899.62,-39 899.62,-19 988.38,-19 988.38,-39"/>
<text text-anchor="middle" x="944" y="-25.5" font-family="Helvetica,sans-Serif" font-size="10.00">runAdbLocalhost</text>
</a>
</g>
</g>
<!-- Node17&#45;&gt;Node18 -->
<g id="edge59_Node000017_Node000018" class="edge">
<title>Node17&#45;&gt;Node18</title>
<g id="a_edge59_Node000017_Node000018"><a xlink:title=" ">
<path fill="none" stroke="#63b8ff" d="M846.05,-42.3C859.38,-40.47 874.35,-38.42 888.46,-36.48"/>
<polygon fill="#63b8ff" stroke="#63b8ff" points="888.62,-39.99 898.05,-35.17 887.67,-33.06 888.62,-39.99"/>
</a>
</g>
</g>
<!-- Node19 -->
<g id="Node000019" class="node">
<title>Node19</title>
<g id="a_Node000019"><a xlink:href="$fadb_8cpp.html#a383ae5fedc9f597a03c74c729a2eb740" xlink:title=" ">
<polygon fill="white" stroke="#666666" points="1089.12,-39 1042.38,-39 1042.38,-19 1089.12,-19 1089.12,-39"/>
<text text-anchor="middle" x="1065.75" y="-25.5" font-family="Helvetica,sans-Serif" font-size="10.00">runAdb</text>
</a>
</g>
</g>
<!-- Node18&#45;&gt;Node19 -->
<g id="edge60_Node000018_Node000019" class="edge">
<title>Node18&#45;&gt;Node19</title>
<g id="a_edge60_Node000018_Node000019"><a xlink:title=" ">
<path fill="none" stroke="#63b8ff" d="M988.57,-29C1002.4,-29 1017.47,-29 1030.54,-29"/>
<polygon fill="#63b8ff" stroke="#63b8ff" points="1030.37,-32.5 1040.37,-29 1030.37,-25.5 1030.37,-32.5"/>
</a>
</g>
</g>
<!-- Node20 -->
<g id="Node000020" class="node">
<title>Node20</title>
<g id="a_Node000020"><a xlink:href="$sys_commands_8cpp.html#a321eb7e335377aa7182bafc8a1605032" xlink:title=" ">
<polygon fill="white" stroke="#666666" points="1205.25,-39 1138.25,-39 1138.25,-19 1205.25,-19 1205.25,-39"/>
<text text-anchor="middle" x="1171.75" y="-25.5" font-family="Helvetica,sans-Serif" font-size="10.00">receivePipe</text>
</a>
</g>
</g>
<!-- Node19&#45;&gt;Node20 -->
<g id="edge61_Node000019_Node000020" class="edge">
<title>Node19&#45;&gt;Node20</title>
<g id="a_edge61_Node000019_Node000020"><a xlink:title=" ">
<path fill="none" stroke="#63b8ff" d="M1089.57,-29C1100.47,-29 1113.89,-29 1126.66,-29"/>
<polygon fill="#63b8ff" stroke="#63b8ff" points="1126.6,-32.5 1136.6,-29 1126.6,-25.5 1126.6,-32.5"/>
</a>
</g>
</g>
<!-- Node21 -->
<g id="Node000021" class="node">
<title>Node21</title>
<g id="a_Node000021"><a xlink:href="$sys_commands_8cpp.html#a4771c79171a937893508dabadadbe099" xlink:title=" ">
<polygon fill="white" stroke="#666666" points="1300,-58 1241.25,-58 1241.25,-38 1300,-38 1300,-58"/>
<text text-anchor="middle" x="1270.62" y="-44.5" font-family="Helvetica,sans-Serif" font-size="10.00">closePipe</text>
</a>
</g>
</g>
<!-- Node20&#45;&gt;Node21 -->
<g id="edge62_Node000020_Node000021" class="edge">
<title>Node20&#45;&gt;Node21</title>
<g id="a_edge62_Node000020_Node000021"><a xlink:title=" ">
<path fill="none" stroke="#63b8ff" d="M1205.55,-35.43C1213.31,-36.95 1221.67,-38.59 1229.71,-40.17"/>
<polygon fill="#63b8ff" stroke="#63b8ff" points="1228.78,-43.56 1239.27,-42.05 1230.13,-36.69 1228.78,-43.56"/>
</a>
</g>
</g>
<!-- Node22 -->
<g id="Node000022" class="node">
<title>Node22</title>
<g id="a_Node000022"><a xlink:href="$sys_commands_8cpp.html#a3499ce0cd7e4ed28b3c5461a4d3aec84" xlink:title=" ">
<polygon fill="white" stroke="#666666" points="1298.88,-20 1242.38,-20 1242.38,0 1298.88,0 1298.88,-20"/>
<text text-anchor="middle" x="1270.62" y="-6.5" font-family="Helvetica,sans-Serif" font-size="10.00">openPipe</text>
</a>
</g>
</g>
<!-- Node20&#45;&gt;Node22 -->
<g id="edge63_Node000020_Node000022" class="edge">
<title>Node20&#45;&gt;Node22</title>
<g id="a_edge63_Node000020_Node000022"><a xlink:title=" ">
<path fill="none" stroke="#63b8ff" d="M1205.55,-22.57C1213.7,-20.97 1222.51,-19.24 1230.92,-17.59"/>
<polygon fill="#63b8ff" stroke="#63b8ff" points="1231.4,-21.06 1240.54,-15.7 1230.05,-14.19 1231.4,-21.06"/>
</a>
</g>
</g>
<!-- Node24&#45;&gt;Node14 -->
<g id="edge66_Node000024_Node000014" class="edge">
<title>Node24&#45;&gt;Node14</title>
<g id="a_edge66_Node000024_Node000014"><a xlink:title=" ">
<path fill="none" stroke="#63b8ff" d="M562.05,-296.73C605.1,-297.4 661.98,-297.5 712.25,-295 722.99,-294.47 734.42,-293.58 745.41,-292.56"/>
<polygon fill="#63b8ff" stroke="#63b8ff" points="745.53,-296.06 755.15,-291.61 744.85,-289.1 745.53,-296.06"/>
</a>
</g>
</g>
<!-- Node24&#45;&gt;Node15 -->
<g id="edge67_Node000024_Node000015" class="edge">
<title>Node24&#45;&gt;Node15</title>
<g id="a_edge67_Node000024_Node000015"><a xlink:title=" ">
<path fill="none" stroke="#63b8ff" d="M556.26,-305.46C611.9,-314.85 692.84,-328.5 746.54,-337.56"/>
<polygon fill="#63b8ff" stroke="#63b8ff" points="745.64,-340.96 756.08,-339.17 746.8,-334.05 745.64,-340.96"/>
</a>
</g>
</g>
<!-- Node25&#45;&gt;Node2 -->
<g id="edge69_Node000025_Node000002" class="edge">
<title>Node25&#45;&gt;Node2</title>
<g id="a_edge69_Node000025_Node000002"><a xlink:title=" ">
<path fill="none" stroke="#63b8ff" d="M234.35,-192.36C248.99,-193.5 265.48,-194.78 280.73,-195.97"/>
<polygon fill="#63b8ff" stroke="#63b8ff" points="280.33,-199.45 290.57,-196.73 280.88,-192.47 280.33,-199.45"/>
</a>
</g>
</g>
<!-- Node26&#45;&gt;Node3 -->
<g id="edge71_Node000026_Node000003" class="edge">
<title>Node26&#45;&gt;Node3</title>
<g id="a_edge71_Node000026_Node000003"><a xlink:title=" ">
<path fill="none" stroke="#63b8ff" d="M347.31,-147.5C363.85,-134.55 394.27,-113.25 424.5,-105 483.46,-88.91 501.36,-97.45 562,-105 630.35,-113.51 652.8,-108.22 712.25,-143 744.96,-162.14 773.32,-196.61 789.14,-218.34"/>
<polygon fill="#63b8ff" stroke="#63b8ff" points="786.18,-220.21 794.81,-226.36 791.9,-216.18 786.18,-220.21"/>
</a>
</g>
</g>
<!-- Node26&#45;&gt;Node9 -->
<g id="edge72_Node000026_Node000009" class="edge">
<title>Node26&#45;&gt;Node9</title>
<g id="a_edge72_Node000026_Node000009"><a xlink:title=" ">
<path fill="none" stroke="#63b8ff" d="M373.99,-168.49C394.67,-174 420.22,-180.81 442.27,-186.68"/>
<polygon fill="#63b8ff" stroke="#63b8ff" points="441.08,-189.99 451.65,-189.18 442.89,-183.22 441.08,-189.99"/>
</a>
</g>
</g>
<!-- Node26&#45;&gt;Node11 -->
<g id="edge73_Node000026_Node000011" class="edge">
<title>Node26&#45;&gt;Node11</title>
<g id="a_edge73_Node000026_Node000011"><a xlink:title=" ">
<path fill="none" stroke="#63b8ff" d="M388.87,-159.38C399.31,-159.64 410.4,-159.92 421.28,-160.2"/>
<polygon fill="#63b8ff" stroke="#63b8ff" points="420.91,-163.69 430.99,-160.45 421.09,-156.69 420.91,-163.69"/>
</a>
</g>
</g>
<!-- Node26&#45;&gt;Node23 -->
<g id="edge74_Node000026_Node000023" class="edge">
<title>Node26&#45;&gt;Node23</title>
<g id="a_edge74_Node000026_Node000023"><a xlink:title=" ">
<path fill="none" stroke="#63b8ff" d="M383.2,-147.52C398.86,-144.14 416.39,-140.36 432.74,-136.84"/>
<polygon fill="#63b8ff" stroke="#63b8ff" points="433.31,-140.29 442.35,-134.76 431.84,-133.45 433.31,-140.29"/>
</a>
</g>
</g>
<!-- Node26&#45;&gt;Node24 -->
<g id="edge75_Node000026_Node000024" class="edge">
<title>Node26&#45;&gt;Node24</title>
<g id="a_edge75_Node000026_Node000024"><a xlink:title=" ">
<path fill="none" stroke="#63b8ff" d="M365.48,-168.49C373.34,-171.87 381.54,-176.05 388.5,-181 393.64,-184.65 447.41,-244.67 475.44,-276.12"/>
<polygon fill="#63b8ff" stroke="#63b8ff" points="472.65,-278.24 481.92,-283.38 477.88,-273.59 472.65,-278.24"/>
</a>
</g>
</g>
<!-- Node28 -->
<g id="Node000028" class="node">
<title>Node28</title>
<g id="a_Node000028"><a xlink:href="$fadb_8cpp.html#aaaa05d37f22f833c0f941bf81f963504" xlink:title=" ">
<polygon fill="white" stroke="#666666" points="354.38,-62 312.88,-62 312.88,-42 354.38,-42 354.38,-62"/>
<text text-anchor="middle" x="333.62" y="-48.5" font-family="Helvetica,sans-Serif" font-size="10.00">swipe</text>
</a>
</g>
</g>
<!-- Node27&#45;&gt;Node28 -->
<g id="edge77_Node000027_Node000028" class="edge">
<title>Node27&#45;&gt;Node28</title>
<g id="a_edge77_Node000027_Node000028"><a xlink:title=" ">
<path fill="none" stroke="#63b8ff" d="M243.01,-54.53C262.62,-53.98 284.32,-53.37 301.45,-52.88"/>
<polygon fill="#63b8ff" stroke="#63b8ff" points="301.09,-56.39 310.99,-52.61 300.89,-49.4 301.09,-56.39"/>
</a>
</g>
</g>
<!-- Node29 -->
<g id="Node000029" class="node">
<title>Node29</title>
<g id="a_Node000029"><a xlink:href="$fadb_8cpp.html#a735aed1798e65a5276053c44211ce025" xlink:title=" ">
<polygon fill="white" stroke="#666666" points="511.75,-34 474.75,-34 474.75,-14 511.75,-14 511.75,-34"/>
<text text-anchor="middle" x="493.25" y="-20.5" font-family="Helvetica,sans-Serif" font-size="10.00">input</text>
</a>
</g>
</g>
<!-- Node28&#45;&gt;Node29 -->
<g id="edge78_Node000028_Node000029" class="edge">
<title>Node28&#45;&gt;Node29</title>
<g id="a_edge78_Node000028_Node000029"><a xlink:title=" ">
<path fill="none" stroke="#63b8ff" d="M354.59,-48.45C382.06,-43.57 431.7,-34.76 463.26,-29.15"/>
<polygon fill="#63b8ff" stroke="#63b8ff" points="463.67,-32.63 472.9,-27.44 462.44,-25.74 463.67,-32.63"/>
</a>
</g>
</g>
<!-- Node30 -->
<g id="Node000030" class="node">
<title>Node30</title>
<g id="a_Node000030"><a xlink:href="$fadb_8cpp.html#a0766d8b572678e0a830d45a4dcfb9d4d" xlink:title=" ">
<polygon fill="white" stroke="#666666" points="858.75,-20 748.25,-20 748.25,0 858.75,0 858.75,-20"/>
<text text-anchor="middle" x="803.5" y="-6.5" font-family="Helvetica,sans-Serif" font-size="10.00">runAdbLocalhostShell</text>
</a>
</g>
</g>
<!-- Node29&#45;&gt;Node30 -->
<g id="edge79_Node000029_Node000030" class="edge">
<title>Node29&#45;&gt;Node30</title>
<g id="a_edge79_Node000029_Node000030"><a xlink:title=" ">
<path fill="none" stroke="#63b8ff" d="M512.16,-23.19C554.97,-21.24 665.01,-16.24 736.65,-12.99"/>
<polygon fill="#63b8ff" stroke="#63b8ff" points="736.46,-16.5 746.29,-12.55 736.15,-9.51 736.46,-16.5"/>
</a>
</g>
</g>
<!-- Node30&#45;&gt;Node18 -->
<g id="edge80_Node000030_Node000018" class="edge">
<title>Node30&#45;&gt;Node18</title>
<g id="a_edge80_Node000030_Node000018"><a xlink:title=" ">
<path fill="none" stroke="#63b8ff" d="M859.24,-17.51C868.7,-18.81 878.54,-20.16 888.01,-21.46"/>
<polygon fill="#63b8ff" stroke="#63b8ff" points="887.44,-24.91 897.82,-22.8 888.39,-17.98 887.44,-24.91"/>
</a>
</g>
</g>
</g>
</svg>
