<?xml version="1.0" encoding="UTF-8" standalone="no"?>
<!DOCTYPE svg PUBLIC "-//W3C//DTD SVG 1.1//EN"
 "http://www.w3.org/Graphics/SVG/1.1/DTD/svg11.dtd">
<!-- Generated by graphviz version 12.2.0 (20241103.1931)
 -->
<!-- Title: StringToken Pages: 1 -->
<svg width="303pt" height="1807pt"
 viewBox="0.00 0.00 302.50 1807.00" xmlns="http://www.w3.org/2000/svg" xmlns:xlink="http://www.w3.org/1999/xlink">
<g id="graph0" class="graph" transform="scale(1 1) rotate(0) translate(4 1803)">
<title>StringToken</title>
<!-- Node1 -->
<g id="Node000001" class="node">
<title>Node1</title>
<g id="a_Node000001"><a xlink:title=" ">
<polygon fill="#999999" stroke="none" points="221.38,-136 74.38,-136 74.38,0 221.38,0 221.38,-136"/>
<text text-anchor="start" x="122" y="-122.5" font-family="Helvetica,sans-Serif" font-size="10.00">StringToken</text>
<text text-anchor="start" x="146.38" y="-106.5" font-family="Helvetica,sans-Serif" font-size="10.00"> </text>
<text text-anchor="start" x="78.38" y="-90.5" font-family="Helvetica,sans-Serif" font-size="10.00">+</text>
<text text-anchor="start" x="88.38" y="-90.5" font-family="Helvetica,sans-Serif" font-size="10.00">StringToken()</text>
<text text-anchor="start" x="78.38" y="-74.5" font-family="Helvetica,sans-Serif" font-size="10.00">+</text>
<text text-anchor="start" x="88.38" y="-74.5" font-family="Helvetica,sans-Serif" font-size="10.00">DataType getDataType</text>
<text text-anchor="start" x="88.38" y="-62.5" font-family="Helvetica,sans-Serif" font-size="10.00">(TokenResult &amp;tRes) override</text>
<text text-anchor="start" x="78.38" y="-46.5" font-family="Helvetica,sans-Serif" font-size="10.00">+</text>
<text text-anchor="start" x="88.38" y="-46.5" font-family="Helvetica,sans-Serif" font-size="10.00">void setOverloads()</text>
<text text-anchor="start" x="88.38" y="-34.5" font-family="Helvetica,sans-Serif" font-size="10.00"> final</text>
<text text-anchor="start" x="78.38" y="-18.5" font-family="Helvetica,sans-Serif" font-size="10.00">+</text>
<text text-anchor="start" x="88.38" y="-18.5" font-family="Helvetica,sans-Serif" font-size="10.00">std::shared_ptr&lt; Tag</text>
<text text-anchor="start" x="88.38" y="-6.5" font-family="Helvetica,sans-Serif" font-size="10.00"> &gt; execute() override</text>
<polygon fill="#666666" stroke="#666666" points="74.38,-118 74.38,-118 221.38,-118 221.38,-118 74.38,-118"/>
<polygon fill="#666666" stroke="#666666" points="74.38,-102 74.38,-102 221.38,-102 221.38,-102 74.38,-102"/>
<polygon fill="none" stroke="#666666" points="74.38,0 74.38,-136 221.38,-136 221.38,0 74.38,0"/>
</a>
</g>
</g>
<!-- Node2 -->
<g id="Node000002" class="node">
<title>Node2</title>
<g id="a_Node000002"><a xlink:href="$class_u_p_k_token.html" xlink:title=" ">
<polygon fill="white" stroke="none" points="216.12,-345 79.62,-345 79.62,-173 216.12,-173 216.12,-345"/>
<text text-anchor="start" x="124.25" y="-331.5" font-family="Helvetica,sans-Serif" font-size="10.00">UPKToken</text>
<text text-anchor="start" x="84" y="-315.5" font-family="Helvetica,sans-Serif" font-size="10.00">#</text>
<text text-anchor="start" x="93.62" y="-315.5" font-family="Helvetica,sans-Serif" font-size="10.00">std::shared_ptr&lt; Token</text>
<text text-anchor="start" x="93.62" y="-303.5" font-family="Helvetica,sans-Serif" font-size="10.00"> &gt; uniqueToken</text>
<text text-anchor="start" x="83.62" y="-287.5" font-family="Helvetica,sans-Serif" font-size="10.00">+</text>
<text text-anchor="start" x="93.62" y="-287.5" font-family="Helvetica,sans-Serif" font-size="10.00">UPKToken()</text>
<text text-anchor="start" x="83.62" y="-271.5" font-family="Helvetica,sans-Serif" font-size="10.00">+</text>
<text text-anchor="start" x="93.62" y="-271.5" font-family="Helvetica,sans-Serif" font-size="10.00">void dispatchArguments</text>
<text text-anchor="start" x="93.62" y="-259.5" font-family="Helvetica,sans-Serif" font-size="10.00">() override</text>
<text text-anchor="start" x="83.62" y="-243.5" font-family="Helvetica,sans-Serif" font-size="10.00">+</text>
<text text-anchor="start" x="93.62" y="-243.5" font-family="Helvetica,sans-Serif" font-size="10.00">bool addTokens(IteratorList</text>
<text text-anchor="start" x="93.62" y="-231.5" font-family="Helvetica,sans-Serif" font-size="10.00">&lt; Token &gt; &amp;tl, TokenResult</text>
<text text-anchor="start" x="93.62" y="-219.5" font-family="Helvetica,sans-Serif" font-size="10.00"> &amp;tRes) override</text>
<text text-anchor="start" x="84" y="-203.5" font-family="Helvetica,sans-Serif" font-size="10.00">#</text>
<text text-anchor="start" x="93.62" y="-203.5" font-family="Helvetica,sans-Serif" font-size="10.00">void showArguments</text>
<text text-anchor="start" x="93.62" y="-191.5" font-family="Helvetica,sans-Serif" font-size="10.00">(const int nestedLayer)</text>
<text text-anchor="start" x="93.62" y="-179.5" font-family="Helvetica,sans-Serif" font-size="10.00"> override</text>
<polygon fill="#666666" stroke="#666666" points="79.62,-327 79.62,-327 216.12,-327 216.12,-327 79.62,-327"/>
<polygon fill="#666666" stroke="#666666" points="79.62,-299 79.62,-299 91.62,-299 91.62,-299 79.62,-299"/>
<polygon fill="#666666" stroke="#666666" points="91.62,-299 91.62,-299 216.12,-299 216.12,-299 91.62,-299"/>
<polygon fill="none" stroke="#666666" points="79.62,-173 79.62,-345 216.12,-345 216.12,-173 79.62,-173"/>
</a>
</g>
</g>
<!-- Node2&#45;&gt;Node1 -->
<g id="edge6_Node000001_Node000002" class="edge">
<title>Node2&#45;&gt;Node1</title>
<g id="a_edge6_Node000001_Node000002"><a xlink:title=" ">
<path fill="none" stroke="#63b8ff" d="M147.88,-161.74C147.88,-153.04 147.88,-144.35 147.88,-135.99"/>
<polygon fill="none" stroke="#63b8ff" points="144.38,-161.66 147.88,-171.66 151.38,-161.66 144.38,-161.66"/>
</a>
</g>
</g>
<!-- Node3 -->
<g id="Node000003" class="node">
<title>Node3</title>
<g id="a_Node000003"><a xlink:href="$class_p_k_token.html" xlink:title=" ">
<polygon fill="white" stroke="none" points="240.88,-894 54.88,-894 54.88,-382 240.88,-382 240.88,-894"/>
<text text-anchor="start" x="128" y="-880.5" font-family="Helvetica,sans-Serif" font-size="10.00">PKToken</text>
<text text-anchor="start" x="59.25" y="-864.5" font-family="Helvetica,sans-Serif" font-size="10.00">#</text>
<text text-anchor="start" x="68.88" y="-864.5" font-family="Helvetica,sans-Serif" font-size="10.00">std::vector&lt; std::shared</text>
<text text-anchor="start" x="68.88" y="-852.5" font-family="Helvetica,sans-Serif" font-size="10.00">_ptr&lt; Token &gt; &gt; argTokens</text>
<text text-anchor="start" x="58.88" y="-836.5" font-family="Helvetica,sans-Serif" font-size="10.00">+</text>
<text text-anchor="start" x="68.88" y="-836.5" font-family="Helvetica,sans-Serif" font-size="10.00">PKToken()</text>
<text text-anchor="start" x="58.88" y="-820.5" font-family="Helvetica,sans-Serif" font-size="10.00">+</text>
<text text-anchor="start" x="68.88" y="-820.5" font-family="Helvetica,sans-Serif" font-size="10.00">void showTokenTree</text>
<text text-anchor="start" x="68.88" y="-808.5" font-family="Helvetica,sans-Serif" font-size="10.00">(const int nestedLayer)</text>
<text text-anchor="start" x="68.88" y="-796.5" font-family="Helvetica,sans-Serif" font-size="10.00"> override</text>
<text text-anchor="start" x="58.88" y="-780.5" font-family="Helvetica,sans-Serif" font-size="10.00">+</text>
<text text-anchor="start" x="68.88" y="-780.5" font-family="Helvetica,sans-Serif" font-size="10.00">bool addTokens(IteratorList</text>
<text text-anchor="start" x="68.88" y="-768.5" font-family="Helvetica,sans-Serif" font-size="10.00">&lt; Token &gt; &amp;tl, TokenResult</text>
<text text-anchor="start" x="68.88" y="-756.5" font-family="Helvetica,sans-Serif" font-size="10.00"> &amp;tRes) override</text>
<text text-anchor="start" x="59.25" y="-740.5" font-family="Helvetica,sans-Serif" font-size="10.00">#</text>
<text text-anchor="start" x="68.88" y="-740.5" font-family="Helvetica,sans-Serif" font-size="10.00">bool addToken(TokenVALUE</text>
<text text-anchor="start" x="68.88" y="-728.5" font-family="Helvetica,sans-Serif" font-size="10.00"> tVal, IteratorList&lt; Token</text>
<text text-anchor="start" x="68.88" y="-716.5" font-family="Helvetica,sans-Serif" font-size="10.00"> &gt; &amp;tl, TokenResult &amp;tRes)</text>
<text text-anchor="start" x="59.25" y="-700.5" font-family="Helvetica,sans-Serif" font-size="10.00">#</text>
<text text-anchor="start" x="68.88" y="-700.5" font-family="Helvetica,sans-Serif" font-size="10.00">bool addType(DataType</text>
<text text-anchor="start" x="68.88" y="-688.5" font-family="Helvetica,sans-Serif" font-size="10.00"> tVal, IteratorList&lt;</text>
<text text-anchor="start" x="68.88" y="-676.5" font-family="Helvetica,sans-Serif" font-size="10.00"> Token &gt; &amp;tl, TokenResult</text>
<text text-anchor="start" x="68.88" y="-664.5" font-family="Helvetica,sans-Serif" font-size="10.00"> &amp;tRes)</text>
<text text-anchor="start" x="59.25" y="-648.5" font-family="Helvetica,sans-Serif" font-size="10.00">#</text>
<text text-anchor="start" x="68.88" y="-648.5" font-family="Helvetica,sans-Serif" font-size="10.00">bool addType(std::vector</text>
<text text-anchor="start" x="68.88" y="-636.5" font-family="Helvetica,sans-Serif" font-size="10.00">&lt; DataType &gt; listTypes,</text>
<text text-anchor="start" x="68.88" y="-624.5" font-family="Helvetica,sans-Serif" font-size="10.00"> IteratorList&lt; Token &gt; &amp;tl,</text>
<text text-anchor="start" x="68.88" y="-612.5" font-family="Helvetica,sans-Serif" font-size="10.00"> TokenResult &amp;tRes)</text>
<text text-anchor="start" x="59.25" y="-596.5" font-family="Helvetica,sans-Serif" font-size="10.00">#</text>
<text text-anchor="start" x="68.88" y="-596.5" font-family="Helvetica,sans-Serif" font-size="10.00">bool addNumber(IteratorList</text>
<text text-anchor="start" x="68.88" y="-584.5" font-family="Helvetica,sans-Serif" font-size="10.00">&lt; Token &gt; &amp;tl, TokenResult &amp;tRes)</text>
<text text-anchor="start" x="59.25" y="-568.5" font-family="Helvetica,sans-Serif" font-size="10.00">#</text>
<text text-anchor="start" x="68.88" y="-568.5" font-family="Helvetica,sans-Serif" font-size="10.00">bool addDataType(Iterator</text>
<text text-anchor="start" x="68.88" y="-556.5" font-family="Helvetica,sans-Serif" font-size="10.00">List&lt; Token &gt; &amp;tl, TokenResult &amp;tRes)</text>
<text text-anchor="start" x="59.25" y="-540.5" font-family="Helvetica,sans-Serif" font-size="10.00">#</text>
<text text-anchor="start" x="68.88" y="-540.5" font-family="Helvetica,sans-Serif" font-size="10.00">bool addInteger(Iterator</text>
<text text-anchor="start" x="68.88" y="-528.5" font-family="Helvetica,sans-Serif" font-size="10.00">List&lt; Token &gt; &amp;tl, TokenResult</text>
<text text-anchor="start" x="68.88" y="-516.5" font-family="Helvetica,sans-Serif" font-size="10.00"> &amp;tRes)</text>
<text text-anchor="start" x="59.25" y="-500.5" font-family="Helvetica,sans-Serif" font-size="10.00">#</text>
<text text-anchor="start" x="68.88" y="-500.5" font-family="Helvetica,sans-Serif" font-size="10.00">bool addFloat(IteratorList</text>
<text text-anchor="start" x="68.88" y="-488.5" font-family="Helvetica,sans-Serif" font-size="10.00">&lt; Token &gt; &amp;tl, TokenResult &amp;tRes)</text>
<text text-anchor="start" x="59.25" y="-472.5" font-family="Helvetica,sans-Serif" font-size="10.00">#</text>
<text text-anchor="start" x="68.88" y="-472.5" font-family="Helvetica,sans-Serif" font-size="10.00">bool addCoord(IteratorList</text>
<text text-anchor="start" x="68.88" y="-460.5" font-family="Helvetica,sans-Serif" font-size="10.00">&lt; Token &gt; &amp;tl, TokenResult &amp;tRes)</text>
<text text-anchor="start" x="59.25" y="-444.5" font-family="Helvetica,sans-Serif" font-size="10.00">#</text>
<text text-anchor="start" x="68.88" y="-444.5" font-family="Helvetica,sans-Serif" font-size="10.00">bool addZone(IteratorList</text>
<text text-anchor="start" x="68.88" y="-432.5" font-family="Helvetica,sans-Serif" font-size="10.00">&lt; Token &gt; &amp;tl, TokenResult &amp;tRes)</text>
<text text-anchor="start" x="59.25" y="-416.5" font-family="Helvetica,sans-Serif" font-size="10.00">#</text>
<text text-anchor="start" x="68.88" y="-416.5" font-family="Helvetica,sans-Serif" font-size="10.00">bool addBool(IteratorList</text>
<text text-anchor="start" x="68.88" y="-404.5" font-family="Helvetica,sans-Serif" font-size="10.00">&lt; Token &gt; &amp;tl, TokenResult &amp;tRes)</text>
<text text-anchor="start" x="68.88" y="-388.5" font-family="Helvetica,sans-Serif" font-size="10.00">and 10 more...</text>
<polygon fill="#666666" stroke="#666666" points="54.88,-876 54.88,-876 240.88,-876 240.88,-876 54.88,-876"/>
<polygon fill="#666666" stroke="#666666" points="54.88,-848 54.88,-848 66.88,-848 66.88,-848 54.88,-848"/>
<polygon fill="#666666" stroke="#666666" points="66.88,-848 66.88,-848 240.88,-848 240.88,-848 66.88,-848"/>
<polygon fill="none" stroke="#666666" points="54.88,-382 54.88,-894 240.88,-894 240.88,-382 54.88,-382"/>
</a>
</g>
</g>
<!-- Node3&#45;&gt;Node2 -->
<g id="edge7_Node000002_Node000003" class="edge">
<title>Node3&#45;&gt;Node2</title>
<g id="a_edge7_Node000002_Node000003"><a xlink:title=" ">
<path fill="none" stroke="#63b8ff" d="M147.88,-370.64C147.88,-361.67 147.88,-352.99 147.88,-344.69"/>
<polygon fill="none" stroke="#63b8ff" points="144.38,-370.63 147.88,-380.63 151.38,-370.63 144.38,-370.63"/>
</a>
</g>
</g>
<!-- Node4 -->
<g id="Node000004" class="node">
<title>Node4</title>
<g id="a_Node000004"><a xlink:href="$class_k_token.html" xlink:title=" ">
<polygon fill="white" stroke="none" points="138.75,-1208 3,-1208 3,-1132 138.75,-1132 138.75,-1208"/>
<text text-anchor="start" x="54.38" y="-1194.5" font-family="Helvetica,sans-Serif" font-size="10.00">KToken</text>
<text text-anchor="start" x="69.38" y="-1178.5" font-family="Helvetica,sans-Serif" font-size="10.00"> </text>
<text text-anchor="start" x="7" y="-1162.5" font-family="Helvetica,sans-Serif" font-size="10.00">#</text>
<text text-anchor="start" x="16.25" y="-1162.5" font-family="Helvetica,sans-Serif" font-size="10.00">bool addTokens(IteratorList</text>
<text text-anchor="start" x="16.25" y="-1150.5" font-family="Helvetica,sans-Serif" font-size="10.00">&lt; Token &gt; &amp;tl, TokenResult</text>
<text text-anchor="start" x="16.25" y="-1138.5" font-family="Helvetica,sans-Serif" font-size="10.00"> &amp;tRes) override</text>
<polygon fill="#666666" stroke="#666666" points="3,-1190 3,-1190 138.75,-1190 138.75,-1190 3,-1190"/>
<polygon fill="#666666" stroke="#666666" points="3,-1174 3,-1174 138.75,-1174 138.75,-1174 3,-1174"/>
<polygon fill="none" stroke="#666666" points="3,-1132 3,-1208 138.75,-1208 138.75,-1132 3,-1132"/>
</a>
</g>
</g>
<!-- Node4&#45;&gt;Node3 -->
<g id="edge8_Node000003_Node000004" class="edge">
<title>Node4&#45;&gt;Node3</title>
<g id="a_edge8_Node000003_Node000004"><a xlink:title=" ">
<path fill="none" stroke="#63b8ff" d="M77.87,-1120.87C85.49,-1068.41 98.29,-980.31 110.87,-893.68"/>
<polygon fill="none" stroke="#63b8ff" points="74.42,-1120.26 76.45,-1130.65 81.35,-1121.26 74.42,-1120.26"/>
</a>
</g>
</g>
<!-- Node5 -->
<g id="Node000005" class="node">
<title>Node5</title>
<g id="a_Node000005"><a xlink:href="$class_token.html" xlink:title=" ">
<polygon fill="white" stroke="none" points="141.75,-1799 0,-1799 0,-1435 141.75,-1435 141.75,-1799"/>
<text text-anchor="start" x="57.75" y="-1785.5" font-family="Helvetica,sans-Serif" font-size="10.00">Token</text>
<text text-anchor="start" x="4.38" y="-1769.5" font-family="Helvetica,sans-Serif" font-size="10.00">#</text>
<text text-anchor="start" x="14" y="-1769.5" font-family="Helvetica,sans-Serif" font-size="10.00">std::string tokenText</text>
<text text-anchor="start" x="4.38" y="-1753.5" font-family="Helvetica,sans-Serif" font-size="10.00">#</text>
<text text-anchor="start" x="14" y="-1753.5" font-family="Helvetica,sans-Serif" font-size="10.00">TokenVALUE tValue</text>
<text text-anchor="start" x="4.38" y="-1737.5" font-family="Helvetica,sans-Serif" font-size="10.00">#</text>
<text text-anchor="start" x="14" y="-1737.5" font-family="Helvetica,sans-Serif" font-size="10.00">int line</text>
<text text-anchor="start" x="4" y="-1721.5" font-family="Helvetica,sans-Serif" font-size="10.00">+</text>
<text text-anchor="start" x="14" y="-1721.5" font-family="Helvetica,sans-Serif" font-size="10.00">Token()</text>
<text text-anchor="start" x="4" y="-1705.5" font-family="Helvetica,sans-Serif" font-size="10.00">+</text>
<text text-anchor="start" x="14" y="-1705.5" font-family="Helvetica,sans-Serif" font-size="10.00">virtual DataType getData</text>
<text text-anchor="start" x="14" y="-1693.5" font-family="Helvetica,sans-Serif" font-size="10.00">Type(TokenResult &amp;tRes)</text>
<text text-anchor="start" x="4" y="-1677.5" font-family="Helvetica,sans-Serif" font-size="10.00">+</text>
<text text-anchor="start" x="14" y="-1677.5" font-family="Helvetica,sans-Serif" font-size="10.00">virtual void showTokenTree</text>
<text text-anchor="start" x="14" y="-1665.5" font-family="Helvetica,sans-Serif" font-size="10.00">(const int nestedLayer)</text>
<text text-anchor="start" x="4" y="-1649.5" font-family="Helvetica,sans-Serif" font-size="10.00">+</text>
<text text-anchor="start" x="14" y="-1649.5" font-family="Helvetica,sans-Serif" font-size="10.00">TokenVALUE getValue()</text>
<text text-anchor="start" x="4" y="-1633.5" font-family="Helvetica,sans-Serif" font-size="10.00">+</text>
<text text-anchor="start" x="14" y="-1633.5" font-family="Helvetica,sans-Serif" font-size="10.00">bool addError(TokenResult</text>
<text text-anchor="start" x="14" y="-1621.5" font-family="Helvetica,sans-Serif" font-size="10.00"> &amp;tRes, TokenVALUE value,</text>
<text text-anchor="start" x="14" y="-1609.5" font-family="Helvetica,sans-Serif" font-size="10.00"> ErrorType et=ErrorType::</text>
<text text-anchor="start" x="14" y="-1597.5" font-family="Helvetica,sans-Serif" font-size="10.00">MISSING)</text>
<text text-anchor="start" x="4" y="-1581.5" font-family="Helvetica,sans-Serif" font-size="10.00">+</text>
<text text-anchor="start" x="14" y="-1581.5" font-family="Helvetica,sans-Serif" font-size="10.00">bool addError(TokenResult</text>
<text text-anchor="start" x="14" y="-1569.5" font-family="Helvetica,sans-Serif" font-size="10.00"> &amp;tRes, DataType type)</text>
<text text-anchor="start" x="4" y="-1553.5" font-family="Helvetica,sans-Serif" font-size="10.00">+</text>
<text text-anchor="start" x="14" y="-1553.5" font-family="Helvetica,sans-Serif" font-size="10.00">std::string getTokenText()</text>
<text text-anchor="start" x="4" y="-1537.5" font-family="Helvetica,sans-Serif" font-size="10.00">+</text>
<text text-anchor="start" x="14" y="-1537.5" font-family="Helvetica,sans-Serif" font-size="10.00">int getLine()</text>
<text text-anchor="start" x="4" y="-1521.5" font-family="Helvetica,sans-Serif" font-size="10.00">+</text>
<text text-anchor="start" x="14" y="-1521.5" font-family="Helvetica,sans-Serif" font-size="10.00">bool hasValue(TokenVALUE</text>
<text text-anchor="start" x="14" y="-1509.5" font-family="Helvetica,sans-Serif" font-size="10.00"> value) const</text>
<text text-anchor="start" x="4" y="-1493.5" font-family="Helvetica,sans-Serif" font-size="10.00">+</text>
<text text-anchor="start" x="14" y="-1493.5" font-family="Helvetica,sans-Serif" font-size="10.00">virtual bool addTokens</text>
<text text-anchor="start" x="14" y="-1481.5" font-family="Helvetica,sans-Serif" font-size="10.00">(IteratorList&lt; Token &gt;</text>
<text text-anchor="start" x="14" y="-1469.5" font-family="Helvetica,sans-Serif" font-size="10.00"> &amp;tl, TokenResult &amp;tRes)</text>
<text text-anchor="start" x="4" y="-1453.5" font-family="Helvetica,sans-Serif" font-size="10.00">+</text>
<text text-anchor="start" x="14" y="-1453.5" font-family="Helvetica,sans-Serif" font-size="10.00">virtual std::shared</text>
<text text-anchor="start" x="14" y="-1441.5" font-family="Helvetica,sans-Serif" font-size="10.00">_ptr&lt; Tag &gt; execute()</text>
<polygon fill="#666666" stroke="#666666" points="0,-1781 0,-1781 141.75,-1781 141.75,-1781 0,-1781"/>
<polygon fill="#666666" stroke="#666666" points="0,-1733 0,-1733 12,-1733 12,-1733 0,-1733"/>
<polygon fill="#666666" stroke="#666666" points="12,-1733 12,-1733 141.75,-1733 141.75,-1733 12,-1733"/>
<polygon fill="none" stroke="#666666" points="0,-1435 0,-1799 141.75,-1799 141.75,-1435 0,-1435"/>
</a>
</g>
</g>
<!-- Node5&#45;&gt;Node4 -->
<g id="edge9_Node000004_Node000005" class="edge">
<title>Node5&#45;&gt;Node4</title>
<g id="a_edge9_Node000004_Node000005"><a xlink:title=" ">
<path fill="none" stroke="#63b8ff" d="M70.88,-1423.57C70.88,-1342.3 70.88,-1255.57 70.88,-1207.84"/>
<polygon fill="none" stroke="#63b8ff" points="67.38,-1423.49 70.88,-1433.49 74.38,-1423.49 67.38,-1423.49"/>
</a>
</g>
</g>
<!-- Node6 -->
<g id="Node000006" class="node">
<title>Node6</title>
<g id="a_Node000006"><a xlink:href="$class_arguments_overload.html" xlink:title=" ">
<polygon fill="white" stroke="none" points="294.5,-1398 157.25,-1398 157.25,-942 294.5,-942 294.5,-1398"/>
<text text-anchor="start" x="182.75" y="-1384.5" font-family="Helvetica,sans-Serif" font-size="10.00">ArgumentsOverload</text>
<text text-anchor="start" x="161.62" y="-1368.5" font-family="Helvetica,sans-Serif" font-size="10.00">#</text>
<text text-anchor="start" x="171.25" y="-1368.5" font-family="Helvetica,sans-Serif" font-size="10.00">std::map&lt; int, std</text>
<text text-anchor="start" x="171.25" y="-1356.5" font-family="Helvetica,sans-Serif" font-size="10.00">::shared_ptr&lt; Arguments</text>
<text text-anchor="start" x="171.25" y="-1344.5" font-family="Helvetica,sans-Serif" font-size="10.00"> &gt; &gt; validArguments</text>
<text text-anchor="start" x="161.62" y="-1328.5" font-family="Helvetica,sans-Serif" font-size="10.00">#</text>
<text text-anchor="start" x="171.25" y="-1328.5" font-family="Helvetica,sans-Serif" font-size="10.00">std::map&lt; int, std</text>
<text text-anchor="start" x="171.25" y="-1316.5" font-family="Helvetica,sans-Serif" font-size="10.00">::shared_ptr&lt; Arguments</text>
<text text-anchor="start" x="171.25" y="-1304.5" font-family="Helvetica,sans-Serif" font-size="10.00"> &gt; &gt; completedArguments</text>
<text text-anchor="start" x="161.62" y="-1288.5" font-family="Helvetica,sans-Serif" font-size="10.00">#</text>
<text text-anchor="start" x="171.25" y="-1288.5" font-family="Helvetica,sans-Serif" font-size="10.00">std::vector&lt; DataType</text>
<text text-anchor="start" x="171.25" y="-1276.5" font-family="Helvetica,sans-Serif" font-size="10.00"> &gt; currentDataTypes</text>
<text text-anchor="start" x="161.62" y="-1260.5" font-family="Helvetica,sans-Serif" font-size="10.00">#</text>
<text text-anchor="start" x="171.25" y="-1260.5" font-family="Helvetica,sans-Serif" font-size="10.00">std::map&lt; int, std</text>
<text text-anchor="start" x="171.25" y="-1248.5" font-family="Helvetica,sans-Serif" font-size="10.00">::shared_ptr&lt; Arguments</text>
<text text-anchor="start" x="171.25" y="-1236.5" font-family="Helvetica,sans-Serif" font-size="10.00"> &gt; &gt; mapArguments</text>
<text text-anchor="start" x="161.62" y="-1220.5" font-family="Helvetica,sans-Serif" font-size="10.00">#</text>
<text text-anchor="start" x="171.25" y="-1220.5" font-family="Helvetica,sans-Serif" font-size="10.00">unsigned int completeIndex</text>
<text text-anchor="start" x="161.25" y="-1204.5" font-family="Helvetica,sans-Serif" font-size="10.00">+</text>
<text text-anchor="start" x="171.25" y="-1204.5" font-family="Helvetica,sans-Serif" font-size="10.00">ArgumentsOverload()</text>
<text text-anchor="start" x="161.25" y="-1188.5" font-family="Helvetica,sans-Serif" font-size="10.00">+</text>
<text text-anchor="start" x="171.25" y="-1188.5" font-family="Helvetica,sans-Serif" font-size="10.00">bool isPresent(Arguments</text>
<text text-anchor="start" x="171.25" y="-1176.5" font-family="Helvetica,sans-Serif" font-size="10.00"> args)</text>
<text text-anchor="start" x="161.25" y="-1160.5" font-family="Helvetica,sans-Serif" font-size="10.00">+</text>
<text text-anchor="start" x="171.25" y="-1160.5" font-family="Helvetica,sans-Serif" font-size="10.00">void addArgs(Arguments</text>
<text text-anchor="start" x="171.25" y="-1148.5" font-family="Helvetica,sans-Serif" font-size="10.00"> args, int index)</text>
<text text-anchor="start" x="161.25" y="-1132.5" font-family="Helvetica,sans-Serif" font-size="10.00">+</text>
<text text-anchor="start" x="171.25" y="-1132.5" font-family="Helvetica,sans-Serif" font-size="10.00">void initTabs()</text>
<text text-anchor="start" x="161.25" y="-1116.5" font-family="Helvetica,sans-Serif" font-size="10.00">+</text>
<text text-anchor="start" x="171.25" y="-1116.5" font-family="Helvetica,sans-Serif" font-size="10.00">void next()</text>
<text text-anchor="start" x="161.25" y="-1100.5" font-family="Helvetica,sans-Serif" font-size="10.00">+</text>
<text text-anchor="start" x="171.25" y="-1100.5" font-family="Helvetica,sans-Serif" font-size="10.00">bool approveType(const</text>
<text text-anchor="start" x="171.25" y="-1088.5" font-family="Helvetica,sans-Serif" font-size="10.00"> DataType &amp;type)</text>
<text text-anchor="start" x="161.25" y="-1072.5" font-family="Helvetica,sans-Serif" font-size="10.00">+</text>
<text text-anchor="start" x="171.25" y="-1072.5" font-family="Helvetica,sans-Serif" font-size="10.00">std::vector&lt; DataType</text>
<text text-anchor="start" x="171.25" y="-1060.5" font-family="Helvetica,sans-Serif" font-size="10.00"> &gt; getPossibleDataTypes()</text>
<text text-anchor="start" x="161.25" y="-1044.5" font-family="Helvetica,sans-Serif" font-size="10.00">+</text>
<text text-anchor="start" x="171.25" y="-1044.5" font-family="Helvetica,sans-Serif" font-size="10.00">std::map&lt; int, std</text>
<text text-anchor="start" x="171.25" y="-1032.5" font-family="Helvetica,sans-Serif" font-size="10.00">::shared_ptr&lt; Arguments</text>
<text text-anchor="start" x="171.25" y="-1020.5" font-family="Helvetica,sans-Serif" font-size="10.00"> &gt; &gt; getValidArguments()</text>
<text text-anchor="start" x="161.25" y="-1004.5" font-family="Helvetica,sans-Serif" font-size="10.00">+</text>
<text text-anchor="start" x="171.25" y="-1004.5" font-family="Helvetica,sans-Serif" font-size="10.00">std::map&lt; int, std</text>
<text text-anchor="start" x="171.25" y="-992.5" font-family="Helvetica,sans-Serif" font-size="10.00">::shared_ptr&lt; Arguments</text>
<text text-anchor="start" x="171.25" y="-980.5" font-family="Helvetica,sans-Serif" font-size="10.00"> &gt; &gt; getCompletedArgs()</text>
<text text-anchor="start" x="161.25" y="-964.5" font-family="Helvetica,sans-Serif" font-size="10.00">+</text>
<text text-anchor="start" x="171.25" y="-964.5" font-family="Helvetica,sans-Serif" font-size="10.00">bool ended()</text>
<text text-anchor="start" x="171.25" y="-948.5" font-family="Helvetica,sans-Serif" font-size="10.00">and 9 more...</text>
<polygon fill="#666666" stroke="#666666" points="157.25,-1380 157.25,-1380 294.5,-1380 294.5,-1380 157.25,-1380"/>
<polygon fill="#666666" stroke="#666666" points="157.25,-1216 157.25,-1216 169.25,-1216 169.25,-1216 157.25,-1216"/>
<polygon fill="#666666" stroke="#666666" points="169.25,-1216 169.25,-1216 294.5,-1216 294.5,-1216 169.25,-1216"/>
<polygon fill="none" stroke="#666666" points="157.25,-942 157.25,-1398 294.5,-1398 294.5,-942 157.25,-942"/>
</a>
</g>
</g>
<!-- Node6&#45;&gt;Node3 -->
<g id="edge10_Node000003_Node000006" class="edge">
<title>Node6&#45;&gt;Node3</title>
<g id="a_edge10_Node000003_Node000006"><a xlink:title=" ">
<path fill="none" stroke="#63b8ff" d="M192.51,-942.31C190.78,-930.54 189.03,-918.67 187.29,-906.79"/>
<polygon fill="none" stroke="#63b8ff" points="187.27,-906.66 182.44,-901.31 185.52,-894.79 190.35,-900.15 187.27,-906.66"/>
</a>
</g>
<text text-anchor="middle" x="222.21" y="-914.5" font-family="Helvetica,sans-Serif" font-size="10.00" fill="grey"> #argsOverload</text>
</g>
</g>
</svg>
