<?xml version="1.0" encoding="UTF-8" standalone="no"?>
<!DOCTYPE svg PUBLIC "-//W3C//DTD SVG 1.1//EN"
 "http://www.w3.org/Graphics/SVG/1.1/DTD/svg11.dtd">
<!-- Generated by graphviz version 12.2.0 (20241103.1931)
 -->
<!-- Title: Perks::doActivity Pages: 1 -->
<svg width="1248pt" height="322pt"
 viewBox="0.00 0.00 1248.00 322.00" xmlns="http://www.w3.org/2000/svg" xmlns:xlink="http://www.w3.org/1999/xlink">
<g id="graph0" class="graph" transform="scale(1 1) rotate(0) translate(4 318)">
<title>Perks::doActivity</title>
<!-- Node1 -->
<g id="Node000001" class="node">
<title>Node1</title>
<g id="a_Node000001"><a xlink:title=" ">
<polygon fill="#999999" stroke="#666666" points="91,-96 0,-96 0,-76 91,-76 91,-96"/>
<text text-anchor="middle" x="45.5" y="-82.5" font-family="Helvetica,sans-Serif" font-size="10.00">Perks::doActivity</text>
</a>
</g>
</g>
<!-- Node2 -->
<g id="Node000002" class="node">
<title>Node2</title>
<g id="a_Node000002"><a xlink:href="$class_interactions.html#a25637266a0bf2b2c77d5c7e276baabd0" xlink:title=" ">
<polygon fill="white" stroke="#666666" points="333.75,-96 251,-96 251,-76 333.75,-76 333.75,-96"/>
<text text-anchor="middle" x="292.38" y="-82.5" font-family="Helvetica,sans-Serif" font-size="10.00">Interactions::fA</text>
</a>
</g>
</g>
<!-- Node1&#45;&gt;Node2 -->
<g id="edge30_Node000001_Node000002" class="edge">
<title>Node1&#45;&gt;Node2</title>
<g id="a_edge30_Node000001_Node000002"><a xlink:title=" ">
<path fill="none" stroke="#63b8ff" d="M91.41,-86C133.24,-86 195.57,-86 239.5,-86"/>
<polygon fill="#63b8ff" stroke="#63b8ff" points="239.3,-89.5 249.3,-86 239.3,-82.5 239.3,-89.5"/>
</a>
</g>
</g>
<!-- Node25 -->
<g id="Node000025" class="node">
<title>Node25</title>
<g id="a_Node000025"><a xlink:href="$class_interactions.html#a85395e185b74c6e25d0f27459b0de33c" xlink:title=" ">
<polygon fill="white" stroke="#666666" points="215,-77 127,-77 127,-57 215,-57 215,-77"/>
<text text-anchor="middle" x="171" y="-63.5" font-family="Helvetica,sans-Serif" font-size="10.00">Interactions::fcA</text>
</a>
</g>
</g>
<!-- Node1&#45;&gt;Node25 -->
<g id="edge57_Node000001_Node000025" class="edge">
<title>Node1&#45;&gt;Node25</title>
<g id="a_edge57_Node000001_Node000025"><a xlink:title=" ">
<path fill="none" stroke="#63b8ff" d="M91.44,-79.09C99.22,-77.89 107.38,-76.63 115.39,-75.4"/>
<polygon fill="#63b8ff" stroke="#63b8ff" points="115.69,-78.9 125.05,-73.92 114.63,-71.98 115.69,-78.9"/>
</a>
</g>
</g>
<!-- Node3 -->
<g id="Node000003" class="node">
<title>Node3</title>
<g id="a_Node000003"><a xlink:href="$fopencv_8cpp.html#a69713584f69a121e4ed91918a64448a0" xlink:title=" ">
<polygon fill="white" stroke="#666666" points="792.38,-238 711.88,-238 711.88,-218 792.38,-218 792.38,-238"/>
<text text-anchor="middle" x="752.12" y="-224.5" font-family="Helvetica,sans-Serif" font-size="10.00">cvmtfTemplate</text>
</a>
</g>
</g>
<!-- Node2&#45;&gt;Node3 -->
<g id="edge31_Node000002_Node000003" class="edge">
<title>Node2&#45;&gt;Node3</title>
<g id="a_edge31_Node000002_Node000003"><a xlink:title=" ">
<path fill="none" stroke="#63b8ff" d="M300.86,-96.24C313.33,-112.57 339.93,-144.43 369.75,-162 475.06,-224.05 623.28,-231.24 700.25,-230.21"/>
<polygon fill="#63b8ff" stroke="#63b8ff" points="700.08,-233.71 710.01,-230.02 699.94,-226.71 700.08,-233.71"/>
</a>
</g>
</g>
<!-- Node9 -->
<g id="Node000009" class="node">
<title>Node9</title>
<g id="a_Node000009"><a xlink:href="$class_interactions.html#a5b5af2b125ff152043789cfcf70ffb2b" xlink:title=" ">
<polygon fill="white" stroke="#666666" points="496,-58 369.75,-58 369.75,-38 496,-38 496,-58"/>
<text text-anchor="middle" x="432.88" y="-44.5" font-family="Helvetica,sans-Serif" font-size="10.00">Interactions::getTemplate</text>
</a>
</g>
</g>
<!-- Node2&#45;&gt;Node9 -->
<g id="edge37_Node000002_Node000009" class="edge">
<title>Node2&#45;&gt;Node9</title>
<g id="a_edge37_Node000002_Node000009"><a xlink:title=" ">
<path fill="none" stroke="#63b8ff" d="M331.59,-75.52C347.48,-71.15 366.13,-66.04 383,-61.41"/>
<polygon fill="#63b8ff" stroke="#63b8ff" points="383.61,-64.87 392.33,-58.85 381.76,-58.12 383.61,-64.87"/>
</a>
</g>
</g>
<!-- Node11 -->
<g id="Node000011" class="node">
<title>Node11</title>
<g id="a_Node000011"><a xlink:href="$class_interactions.html#a0a0ffd9ad1990de31fd7b2773db32667" xlink:title=" ">
<polygon fill="white" stroke="#666666" points="493.38,-153 372.38,-153 372.38,-133 493.38,-133 493.38,-153"/>
<text text-anchor="middle" x="432.88" y="-139.5" font-family="Helvetica,sans-Serif" font-size="10.00">Interactions::loopPopUp</text>
</a>
</g>
</g>
<!-- Node2&#45;&gt;Node11 -->
<g id="edge39_Node000002_Node000011" class="edge">
<title>Node2&#45;&gt;Node11</title>
<g id="a_edge39_Node000002_Node000011"><a xlink:title=" ">
<path fill="none" stroke="#63b8ff" d="M318.78,-96.45C340.45,-105.37 371.85,-118.3 396.07,-128.26"/>
<polygon fill="#63b8ff" stroke="#63b8ff" points="394.65,-131.47 405.23,-132.04 397.32,-124.99 394.65,-131.47"/>
</a>
</g>
</g>
<!-- Node23 -->
<g id="Node000023" class="node">
<title>Node23</title>
<g id="a_Node000023"><a xlink:href="$class_interactions.html#ade7f52c59105f434650b9358b22e5488" xlink:title=" ">
<polygon fill="white" stroke="#666666" points="493.38,-20 372.38,-20 372.38,0 493.38,0 493.38,-20"/>
<text text-anchor="middle" x="432.88" y="-6.5" font-family="Helvetica,sans-Serif" font-size="10.00">Interactions::resetCount</text>
</a>
</g>
</g>
<!-- Node2&#45;&gt;Node23 -->
<g id="edge53_Node000002_Node000023" class="edge">
<title>Node2&#45;&gt;Node23</title>
<g id="a_edge53_Node000002_Node000023"><a xlink:title=" ">
<path fill="none" stroke="#63b8ff" d="M304.45,-75.77C318.61,-63.17 344.36,-41.86 369.75,-29 373.02,-27.34 376.46,-25.8 379.98,-24.37"/>
<polygon fill="#63b8ff" stroke="#63b8ff" points="381.07,-27.7 389.23,-20.94 378.64,-21.13 381.07,-27.7"/>
</a>
</g>
</g>
<!-- Node24 -->
<g id="Node000024" class="node">
<title>Node24</title>
<g id="a_Node000024"><a xlink:href="$class_interactions.html#ad7daddd9df3cea80e69872b8afd6c8dc" xlink:title=" ">
<polygon fill="white" stroke="#666666" points="669.5,-86 532,-86 532,-66 669.5,-66 669.5,-86"/>
<text text-anchor="middle" x="600.75" y="-72.5" font-family="Helvetica,sans-Serif" font-size="10.00">Interactions::templateFound</text>
</a>
</g>
</g>
<!-- Node2&#45;&gt;Node24 -->
<g id="edge54_Node000002_Node000024" class="edge">
<title>Node2&#45;&gt;Node24</title>
<g id="a_edge54_Node000002_Node000024"><a xlink:title=" ">
<path fill="none" stroke="#63b8ff" d="M334.06,-84.67C381.39,-83.13 460.65,-80.54 520.31,-78.59"/>
<polygon fill="#63b8ff" stroke="#63b8ff" points="520.19,-82.1 530.07,-78.27 519.96,-75.1 520.19,-82.1"/>
</a>
</g>
</g>
<!-- Node4 -->
<g id="Node000004" class="node">
<title>Node4</title>
<g id="a_Node000004"><a xlink:href="$fopencv_8cpp.html#af6fc77188d314c0d5a58888452f9b313" xlink:title=" ">
<polygon fill="white" stroke="#666666" points="917.88,-200 850.12,-200 850.12,-180 917.88,-180 917.88,-200"/>
<text text-anchor="middle" x="884" y="-186.5" font-family="Helvetica,sans-Serif" font-size="10.00">extractZone</text>
</a>
</g>
</g>
<!-- Node3&#45;&gt;Node4 -->
<g id="edge32_Node000003_Node000004" class="edge">
<title>Node3&#45;&gt;Node4</title>
<g id="a_edge32_Node000003_Node000004"><a xlink:title=" ">
<path fill="none" stroke="#63b8ff" d="M788.96,-217.52C804.45,-212.98 822.74,-207.63 839.04,-202.86"/>
<polygon fill="#63b8ff" stroke="#63b8ff" points="839.89,-206.26 848.5,-200.09 837.92,-199.54 839.89,-206.26"/>
</a>
</g>
</g>
<!-- Node5 -->
<g id="Node000005" class="node">
<title>Node5</title>
<g id="a_Node000005"><a xlink:href="$struct_zone.html#a5301e7fcf185a5a79c1bf7d7930f4b8a" xlink:title=" ">
<polygon fill="white" stroke="#666666" points="918.25,-314 849.75,-314 849.75,-294 918.25,-294 918.25,-314"/>
<text text-anchor="middle" x="884" y="-300.5" font-family="Helvetica,sans-Serif" font-size="10.00">Zone::isNull</text>
</a>
</g>
</g>
<!-- Node3&#45;&gt;Node5 -->
<g id="edge33_Node000003_Node000005" class="edge">
<title>Node3&#45;&gt;Node5</title>
<g id="a_edge33_Node000003_Node000005"><a xlink:title=" ">
<path fill="none" stroke="#63b8ff" d="M766.08,-238.49C781.68,-250.77 809.01,-271.19 834.75,-285 837.28,-286.36 839.94,-287.67 842.64,-288.94"/>
<polygon fill="#63b8ff" stroke="#63b8ff" points="841.21,-292.13 851.77,-292.91 844,-285.71 841.21,-292.13"/>
</a>
</g>
</g>
<!-- Node7 -->
<g id="Node000007" class="node">
<title>Node7</title>
<g id="a_Node000007"><a xlink:href="$fopencv_8cpp.html#a1ed1ff1a9df2ab889e1423cb11a58c06" xlink:title=" ">
<polygon fill="white" stroke="#666666" points="925.38,-276 842.62,-276 842.62,-256 925.38,-256 925.38,-276"/>
<text text-anchor="middle" x="884" y="-262.5" font-family="Helvetica,sans-Serif" font-size="10.00">messageFound</text>
</a>
</g>
</g>
<!-- Node3&#45;&gt;Node7 -->
<g id="edge35_Node000003_Node000007" class="edge">
<title>Node3&#45;&gt;Node7</title>
<g id="a_edge35_Node000003_Node000007"><a xlink:title=" ">
<path fill="none" stroke="#63b8ff" d="M788.96,-238.48C803.58,-242.76 820.68,-247.77 836.26,-252.33"/>
<polygon fill="#63b8ff" stroke="#63b8ff" points="835.25,-255.68 845.83,-255.12 837.22,-248.96 835.25,-255.68"/>
</a>
</g>
</g>
<!-- Node8 -->
<g id="Node000008" class="node">
<title>Node8</title>
<g id="a_Node000008"><a xlink:href="$fopencv_8cpp.html#ae51fd1f3ed39bd8c9b8da4a313d5aeb3" xlink:title=" ">
<polygon fill="white" stroke="#666666" points="933.25,-238 834.75,-238 834.75,-218 933.25,-218 933.25,-238"/>
<text text-anchor="middle" x="884" y="-224.5" font-family="Helvetica,sans-Serif" font-size="10.00">oneMatchTemplate</text>
</a>
</g>
</g>
<!-- Node3&#45;&gt;Node8 -->
<g id="edge36_Node000003_Node000008" class="edge">
<title>Node3&#45;&gt;Node8</title>
<g id="a_edge36_Node000003_Node000008"><a xlink:title=" ">
<path fill="none" stroke="#63b8ff" d="M792.8,-228C802.34,-228 812.74,-228 822.97,-228"/>
<polygon fill="#63b8ff" stroke="#63b8ff" points="822.89,-231.5 832.89,-228 822.89,-224.5 822.89,-231.5"/>
</a>
</g>
</g>
<!-- Node6 -->
<g id="Node000006" class="node">
<title>Node6</title>
<g id="a_Node000006"><a xlink:href="$struct_coord.html#a34c573cd6230e5a532f12ae97e7395e2" xlink:title=" ">
<polygon fill="white" stroke="#666666" points="1042.25,-314 969.25,-314 969.25,-294 1042.25,-294 1042.25,-314"/>
<text text-anchor="middle" x="1005.75" y="-300.5" font-family="Helvetica,sans-Serif" font-size="10.00">Coord::isNull</text>
</a>
</g>
</g>
<!-- Node5&#45;&gt;Node6 -->
<g id="edge34_Node000005_Node000006" class="edge">
<title>Node5&#45;&gt;Node6</title>
<g id="a_edge34_Node000005_Node000006"><a xlink:title=" ">
<path fill="none" stroke="#63b8ff" d="M918.68,-304C930.77,-304 944.64,-304 957.66,-304"/>
<polygon fill="#63b8ff" stroke="#63b8ff" points="957.3,-307.5 967.3,-304 957.3,-300.5 957.3,-307.5"/>
</a>
</g>
</g>
<!-- Node10 -->
<g id="Node000010" class="node">
<title>Node10</title>
<g id="a_Node000010"><a xlink:href="$struct_template.html#a93d3c6f97592ba09d7819fda3c3296d7" xlink:title=" ">
<polygon fill="white" stroke="#666666" points="648.88,-48 552.62,-48 552.62,-28 648.88,-28 648.88,-48"/>
<text text-anchor="middle" x="600.75" y="-34.5" font-family="Helvetica,sans-Serif" font-size="10.00">Template::setType</text>
</a>
</g>
</g>
<!-- Node9&#45;&gt;Node10 -->
<g id="edge38_Node000009_Node000010" class="edge">
<title>Node9&#45;&gt;Node10</title>
<g id="a_edge38_Node000009_Node000010"><a xlink:title=" ">
<path fill="none" stroke="#63b8ff" d="M496.11,-44.25C510.77,-43.36 526.34,-42.43 540.84,-41.55"/>
<polygon fill="#63b8ff" stroke="#63b8ff" points="540.92,-45.05 550.69,-40.96 540.5,-38.07 540.92,-45.05"/>
</a>
</g>
</g>
<!-- Node12 -->
<g id="Node000012" class="node">
<title>Node12</title>
<g id="a_Node000012"><a xlink:href="$fopencv_8cpp.html#a5c455ed716b7fa4c675446fc5b8ba4fb" xlink:title=" ">
<polygon fill="white" stroke="#666666" points="631.62,-124 569.88,-124 569.88,-104 631.62,-104 631.62,-124"/>
<text text-anchor="middle" x="600.75" y="-110.5" font-family="Helvetica,sans-Serif" font-size="10.00">CreateMat</text>
</a>
</g>
</g>
<!-- Node11&#45;&gt;Node12 -->
<g id="edge40_Node000011_Node000012" class="edge">
<title>Node11&#45;&gt;Node12</title>
<g id="a_edge40_Node000011_Node000012"><a xlink:title=" ">
<path fill="none" stroke="#63b8ff" d="M493.76,-132.53C515.22,-128.78 538.93,-124.63 558.46,-121.22"/>
<polygon fill="#63b8ff" stroke="#63b8ff" points="559,-124.68 568.24,-119.51 557.79,-117.78 559,-124.68"/>
</a>
</g>
</g>
<!-- Node13 -->
<g id="Node000013" class="node">
<title>Node13</title>
<g id="a_Node000013"><a xlink:href="$class_interactions.html#aed04f9177d2aba467d71818a5e82c7bc" xlink:title=" ">
<polygon fill="white" stroke="#666666" points="657.88,-162 543.62,-162 543.62,-142 657.88,-142 657.88,-162"/>
<text text-anchor="middle" x="600.75" y="-148.5" font-family="Helvetica,sans-Serif" font-size="10.00">Interactions::fcpopupA</text>
</a>
</g>
</g>
<!-- Node11&#45;&gt;Node13 -->
<g id="edge41_Node000011_Node000013" class="edge">
<title>Node11&#45;&gt;Node13</title>
<g id="a_edge41_Node000011_Node000013"><a xlink:title=" ">
<path fill="none" stroke="#63b8ff" d="M493.76,-146.25C506.12,-146.92 519.23,-147.63 531.85,-148.32"/>
<polygon fill="#63b8ff" stroke="#63b8ff" points="531.59,-151.81 541.76,-148.85 531.97,-144.82 531.59,-151.81"/>
</a>
</g>
</g>
<!-- Node16 -->
<g id="Node000016" class="node">
<title>Node16</title>
<g id="a_Node000016"><a xlink:href="$fadb_8cpp.html#aeec40a5f78ae4713eedd84cb5f75746f" xlink:title=" ">
<polygon fill="white" stroke="#666666" points="632.75,-200 568.75,-200 568.75,-180 632.75,-180 632.75,-200"/>
<text text-anchor="middle" x="600.75" y="-186.5" font-family="Helvetica,sans-Serif" font-size="10.00">screenshot</text>
</a>
</g>
</g>
<!-- Node11&#45;&gt;Node16 -->
<g id="edge46_Node000011_Node000016" class="edge">
<title>Node11&#45;&gt;Node16</title>
<g id="a_edge46_Node000011_Node000016"><a xlink:title=" ">
<path fill="none" stroke="#63b8ff" d="M470.21,-153.41C488.7,-158.7 511.54,-165.21 532,-171 540.25,-173.34 549.08,-175.82 557.54,-178.19"/>
<polygon fill="#63b8ff" stroke="#63b8ff" points="556.34,-181.49 566.92,-180.82 558.23,-174.75 556.34,-181.49"/>
</a>
</g>
</g>
<!-- Node13&#45;&gt;Node3 -->
<g id="edge44_Node000013_Node000003" class="edge">
<title>Node13&#45;&gt;Node3</title>
<g id="a_edge44_Node000013_Node000003"><a xlink:title=" ">
<path fill="none" stroke="#63b8ff" d="M650.74,-162.47C657.27,-164.79 663.7,-167.61 669.5,-171 689.03,-182.43 686.93,-194.07 705.5,-207 708.18,-208.87 711.06,-210.64 714.01,-212.3"/>
<polygon fill="#63b8ff" stroke="#63b8ff" points="712.36,-215.39 722.85,-216.83 715.55,-209.16 712.36,-215.39"/>
</a>
</g>
</g>
<!-- Node14 -->
<g id="Node000014" class="node">
<title>Node14</title>
<g id="a_Node000014"><a xlink:href="$class_interactions.html#aae6172962092f278714536142e987cde" xlink:title=" ">
<polygon fill="white" stroke="#666666" points="798.75,-91 705.5,-91 705.5,-71 798.75,-71 798.75,-91"/>
<text text-anchor="middle" x="752.12" y="-77.5" font-family="Helvetica,sans-Serif" font-size="10.00">Interactions::click</text>
</a>
</g>
</g>
<!-- Node13&#45;&gt;Node14 -->
<g id="edge42_Node000013_Node000014" class="edge">
<title>Node13&#45;&gt;Node14</title>
<g id="a_edge42_Node000013_Node000014"><a xlink:title=" ">
<path fill="none" stroke="#63b8ff" d="M646.15,-141.57C654.07,-139.15 662.14,-136.29 669.5,-133 690.71,-123.52 712.83,-109.11 728.68,-97.86"/>
<polygon fill="#63b8ff" stroke="#63b8ff" points="730.41,-100.93 736.45,-92.22 726.3,-95.26 730.41,-100.93"/>
</a>
</g>
</g>
<!-- Node15 -->
<g id="Node000015" class="node">
<title>Node15</title>
<g id="a_Node000015"><a xlink:href="$class_interactions.html#abd5b5d8a44970e1333e3611e302f166c" xlink:title=" ">
<polygon fill="white" stroke="#666666" points="797.62,-157 706.62,-157 706.62,-137 797.62,-137 797.62,-157"/>
<text text-anchor="middle" x="752.12" y="-143.5" font-family="Helvetica,sans-Serif" font-size="10.00">Interactions::wait</text>
</a>
</g>
</g>
<!-- Node13&#45;&gt;Node15 -->
<g id="edge45_Node000013_Node000015" class="edge">
<title>Node13&#45;&gt;Node15</title>
<g id="a_edge45_Node000013_Node000015"><a xlink:title=" ">
<path fill="none" stroke="#63b8ff" d="M658.22,-150.11C670.24,-149.71 682.93,-149.28 694.94,-148.88"/>
<polygon fill="#63b8ff" stroke="#63b8ff" points="694.82,-152.39 704.69,-148.55 694.58,-145.39 694.82,-152.39"/>
</a>
</g>
</g>
<!-- Node14&#45;&gt;Node14 -->
<g id="edge43_Node000014_Node000014" class="edge">
<title>Node14&#45;&gt;Node14</title>
<g id="a_edge43_Node000014_Node000014"><a xlink:title=" ">
<path fill="none" stroke="#63b8ff" d="M731.17,-91.34C722.22,-99.98 729.2,-109 752.12,-109 764.66,-109 772.43,-106.3 775.43,-102.44"/>
<polygon fill="#63b8ff" stroke="#63b8ff" points="778.89,-101.88 773.39,-92.82 772.04,-103.33 778.89,-101.88"/>
</a>
</g>
</g>
<!-- Node17 -->
<g id="Node000017" class="node">
<title>Node17</title>
<g id="a_Node000017"><a xlink:href="$fadb_8cpp.html#a7ab9819839864ebd26d0e7e68e330418" xlink:title=" ">
<polygon fill="white" stroke="#666666" points="794.25,-198 710,-198 710,-178 794.25,-178 794.25,-198"/>
<text text-anchor="middle" x="752.12" y="-184.5" font-family="Helvetica,sans-Serif" font-size="10.00">takeScreenshot</text>
</a>
</g>
</g>
<!-- Node16&#45;&gt;Node17 -->
<g id="edge47_Node000016_Node000017" class="edge">
<title>Node16&#45;&gt;Node17</title>
<g id="a_edge47_Node000016_Node000017"><a xlink:title=" ">
<path fill="none" stroke="#63b8ff" d="M633.06,-189.58C651.92,-189.33 676.42,-189 698.21,-188.71"/>
<polygon fill="#63b8ff" stroke="#63b8ff" points="698.18,-192.21 708.13,-188.58 698.08,-185.21 698.18,-192.21"/>
</a>
</g>
</g>
<!-- Node18 -->
<g id="Node000018" class="node">
<title>Node18</title>
<g id="a_Node000018"><a xlink:href="$fadb_8cpp.html#ac6339b59ba8238f7483dece7f3fdf51b" xlink:title=" ">
<polygon fill="white" stroke="#666666" points="928.38,-162 839.62,-162 839.62,-142 928.38,-142 928.38,-162"/>
<text text-anchor="middle" x="884" y="-148.5" font-family="Helvetica,sans-Serif" font-size="10.00">runAdbLocalhost</text>
</a>
</g>
</g>
<!-- Node17&#45;&gt;Node18 -->
<g id="edge48_Node000017_Node000018" class="edge">
<title>Node17&#45;&gt;Node18</title>
<g id="a_edge48_Node000017_Node000018"><a xlink:title=" ">
<path fill="none" stroke="#63b8ff" d="M790.69,-177.59C804.42,-173.78 820.15,-169.42 834.69,-165.39"/>
<polygon fill="#63b8ff" stroke="#63b8ff" points="835.36,-168.84 844.06,-162.79 833.49,-162.09 835.36,-168.84"/>
</a>
</g>
</g>
<!-- Node19 -->
<g id="Node000019" class="node">
<title>Node19</title>
<g id="a_Node000019"><a xlink:href="$fadb_8cpp.html#a383ae5fedc9f597a03c74c729a2eb740" xlink:title=" ">
<polygon fill="white" stroke="#666666" points="1029.12,-162 982.38,-162 982.38,-142 1029.12,-142 1029.12,-162"/>
<text text-anchor="middle" x="1005.75" y="-148.5" font-family="Helvetica,sans-Serif" font-size="10.00">runAdb</text>
</a>
</g>
</g>
<!-- Node18&#45;&gt;Node19 -->
<g id="edge49_Node000018_Node000019" class="edge">
<title>Node18&#45;&gt;Node19</title>
<g id="a_edge49_Node000018_Node000019"><a xlink:title=" ">
<path fill="none" stroke="#63b8ff" d="M928.57,-152C942.4,-152 957.47,-152 970.54,-152"/>
<polygon fill="#63b8ff" stroke="#63b8ff" points="970.37,-155.5 980.37,-152 970.37,-148.5 970.37,-155.5"/>
</a>
</g>
</g>
<!-- Node20 -->
<g id="Node000020" class="node">
<title>Node20</title>
<g id="a_Node000020"><a xlink:href="$sys_commands_8cpp.html#a321eb7e335377aa7182bafc8a1605032" xlink:title=" ">
<polygon fill="white" stroke="#666666" points="1145.25,-162 1078.25,-162 1078.25,-142 1145.25,-142 1145.25,-162"/>
<text text-anchor="middle" x="1111.75" y="-148.5" font-family="Helvetica,sans-Serif" font-size="10.00">receivePipe</text>
</a>
</g>
</g>
<!-- Node19&#45;&gt;Node20 -->
<g id="edge50_Node000019_Node000020" class="edge">
<title>Node19&#45;&gt;Node20</title>
<g id="a_edge50_Node000019_Node000020"><a xlink:title=" ">
<path fill="none" stroke="#63b8ff" d="M1029.57,-152C1040.47,-152 1053.89,-152 1066.66,-152"/>
<polygon fill="#63b8ff" stroke="#63b8ff" points="1066.6,-155.5 1076.6,-152 1066.6,-148.5 1066.6,-155.5"/>
</a>
</g>
</g>
<!-- Node21 -->
<g id="Node000021" class="node">
<title>Node21</title>
<g id="a_Node000021"><a xlink:href="$sys_commands_8cpp.html#a4771c79171a937893508dabadadbe099" xlink:title=" ">
<polygon fill="white" stroke="#666666" points="1240,-181 1181.25,-181 1181.25,-161 1240,-161 1240,-181"/>
<text text-anchor="middle" x="1210.62" y="-167.5" font-family="Helvetica,sans-Serif" font-size="10.00">closePipe</text>
</a>
</g>
</g>
<!-- Node20&#45;&gt;Node21 -->
<g id="edge51_Node000020_Node000021" class="edge">
<title>Node20&#45;&gt;Node21</title>
<g id="a_edge51_Node000020_Node000021"><a xlink:title=" ">
<path fill="none" stroke="#63b8ff" d="M1145.55,-158.43C1153.31,-159.95 1161.67,-161.59 1169.71,-163.17"/>
<polygon fill="#63b8ff" stroke="#63b8ff" points="1168.78,-166.56 1179.27,-165.05 1170.13,-159.69 1168.78,-166.56"/>
</a>
</g>
</g>
<!-- Node22 -->
<g id="Node000022" class="node">
<title>Node22</title>
<g id="a_Node000022"><a xlink:href="$sys_commands_8cpp.html#a3499ce0cd7e4ed28b3c5461a4d3aec84" xlink:title=" ">
<polygon fill="white" stroke="#666666" points="1238.88,-143 1182.38,-143 1182.38,-123 1238.88,-123 1238.88,-143"/>
<text text-anchor="middle" x="1210.62" y="-129.5" font-family="Helvetica,sans-Serif" font-size="10.00">openPipe</text>
</a>
</g>
</g>
<!-- Node20&#45;&gt;Node22 -->
<g id="edge52_Node000020_Node000022" class="edge">
<title>Node20&#45;&gt;Node22</title>
<g id="a_edge52_Node000020_Node000022"><a xlink:title=" ">
<path fill="none" stroke="#63b8ff" d="M1145.55,-145.57C1153.7,-143.97 1162.51,-142.24 1170.92,-140.59"/>
<polygon fill="#63b8ff" stroke="#63b8ff" points="1171.4,-144.06 1180.54,-138.7 1170.05,-137.19 1171.4,-144.06"/>
</a>
</g>
</g>
<!-- Node24&#45;&gt;Node14 -->
<g id="edge55_Node000024_Node000014" class="edge">
<title>Node24&#45;&gt;Node14</title>
<g id="a_edge55_Node000024_Node000014"><a xlink:title=" ">
<path fill="none" stroke="#63b8ff" d="M669.88,-78.28C677.95,-78.55 686.11,-78.82 694,-79.09"/>
<polygon fill="#63b8ff" stroke="#63b8ff" points="693.7,-82.58 703.81,-79.42 693.93,-75.58 693.7,-82.58"/>
</a>
</g>
</g>
<!-- Node24&#45;&gt;Node15 -->
<g id="edge56_Node000024_Node000015" class="edge">
<title>Node24&#45;&gt;Node15</title>
<g id="a_edge56_Node000024_Node000015"><a xlink:title=" ">
<path fill="none" stroke="#63b8ff" d="M646.15,-86.42C654.07,-88.85 662.14,-91.71 669.5,-95 686.83,-102.76 689.49,-107.8 705.5,-118 711.84,-122.04 718.67,-126.39 725.08,-130.46"/>
<polygon fill="#63b8ff" stroke="#63b8ff" points="723.05,-133.32 733.37,-135.73 726.81,-127.41 723.05,-133.32"/>
</a>
</g>
</g>
<!-- Node25&#45;&gt;Node2 -->
<g id="edge58_Node000025_Node000002" class="edge">
<title>Node25&#45;&gt;Node2</title>
<g id="a_edge58_Node000025_Node000002"><a xlink:title=" ">
<path fill="none" stroke="#63b8ff" d="M215.43,-73.91C223.23,-75.15 231.42,-76.46 239.43,-77.73"/>
<polygon fill="#63b8ff" stroke="#63b8ff" points="238.64,-81.15 249.06,-79.27 239.74,-74.24 238.64,-81.15"/>
</a>
</g>
</g>
</g>
</svg>
