<?xml version="1.0" encoding="UTF-8" standalone="no"?>
<!DOCTYPE svg PUBLIC "-//W3C//DTD SVG 1.1//EN"
 "http://www.w3.org/Graphics/SVG/1.1/DTD/svg11.dtd">
<!-- Generated by graphviz version 12.2.0 (20241103.1931)
 -->
<!-- Title: Garden::doActivity Pages: 1 -->
<svg width="1447pt" height="464pt"
 viewBox="0.00 0.00 1446.75 464.00" xmlns="http://www.w3.org/2000/svg" xmlns:xlink="http://www.w3.org/1999/xlink">
<g id="graph0" class="graph" transform="scale(1 1) rotate(0) translate(4 460)">
<title>Garden::doActivity</title>
<!-- Node1 -->
<g id="Node000001" class="node">
<title>Node1</title>
<g id="a_Node000001"><a xlink:title=" ">
<polygon fill="#999999" stroke="#666666" points="97,-134 0,-134 0,-114 97,-114 97,-134"/>
<text text-anchor="middle" x="48.5" y="-120.5" font-family="Helvetica,sans-Serif" font-size="10.00">Garden::doActivity</text>
</a>
</g>
</g>
<!-- Node2 -->
<g id="Node000002" class="node">
<title>Node2</title>
<g id="a_Node000002"><a xlink:href="$class_interactions.html#a25637266a0bf2b2c77d5c7e276baabd0" xlink:title=" ">
<polygon fill="white" stroke="#666666" points="432.38,-242 349.62,-242 349.62,-222 432.38,-222 432.38,-242"/>
<text text-anchor="middle" x="391" y="-228.5" font-family="Helvetica,sans-Serif" font-size="10.00">Interactions::fA</text>
</a>
</g>
</g>
<!-- Node1&#45;&gt;Node2 -->
<g id="edge65_Node000001_Node000002" class="edge">
<title>Node1&#45;&gt;Node2</title>
<g id="a_edge65_Node000001_Node000002"><a xlink:title=" ">
<path fill="none" stroke="#63b8ff" d="M59.2,-134.27C73.74,-148.97 102.72,-175.71 133,-189 199.96,-218.39 284.82,-227.81 338.28,-230.76"/>
<polygon fill="#63b8ff" stroke="#63b8ff" points="337.85,-234.24 348.01,-231.24 338.19,-227.25 337.85,-234.24"/>
</a>
</g>
</g>
<!-- Node25 -->
<g id="Node000025" class="node">
<title>Node25</title>
<g id="a_Node000025"><a xlink:href="$class_interactions.html#a85395e185b74c6e25d0f27459b0de33c" xlink:title=" ">
<polygon fill="white" stroke="#666666" points="250.62,-180 162.62,-180 162.62,-160 250.62,-160 250.62,-180"/>
<text text-anchor="middle" x="206.62" y="-166.5" font-family="Helvetica,sans-Serif" font-size="10.00">Interactions::fcA</text>
</a>
</g>
</g>
<!-- Node1&#45;&gt;Node25 -->
<g id="edge92_Node000001_Node000025" class="edge">
<title>Node1&#45;&gt;Node25</title>
<g id="a_edge92_Node000001_Node000025"><a xlink:title=" ">
<path fill="none" stroke="#63b8ff" d="M84.93,-134.44C106.91,-140.91 135.39,-149.31 159.17,-156.31"/>
<polygon fill="#63b8ff" stroke="#63b8ff" points="158.03,-159.63 168.62,-159.1 160.01,-152.91 158.03,-159.63"/>
</a>
</g>
</g>
<!-- Node26 -->
<g id="Node000026" class="node">
<title>Node26</title>
<g id="a_Node000026"><a xlink:href="$class_interactions.html#a7a8357271583869fba1939d42718a569" xlink:title=" ">
<polygon fill="white" stroke="#666666" points="280.25,-280 133,-280 133,-260 280.25,-260 280.25,-280"/>
<text text-anchor="middle" x="206.62" y="-266.5" font-family="Helvetica,sans-Serif" font-size="10.00">Interactions::fNumberIntegerA</text>
</a>
</g>
</g>
<!-- Node1&#45;&gt;Node26 -->
<g id="edge94_Node000001_Node000026" class="edge">
<title>Node1&#45;&gt;Node26</title>
<g id="a_edge94_Node000001_Node000026"><a xlink:title=" ">
<path fill="none" stroke="#63b8ff" d="M54.58,-134.22C65.89,-156.02 95.13,-207.58 133,-238 141.61,-244.92 151.95,-250.64 162.09,-255.24"/>
<polygon fill="#63b8ff" stroke="#63b8ff" points="160.53,-258.38 171.11,-259.04 163.25,-251.93 160.53,-258.38"/>
</a>
</g>
</g>
<!-- Node35 -->
<g id="Node000035" class="node">
<title>Node35</title>
<g id="a_Node000035"><a xlink:href="$class_interactions.html#a4c7bbb037e2814f276bdbb3625d25c17" xlink:title=" ">
<polygon fill="white" stroke="#666666" points="272.38,-96 140.88,-96 140.88,-76 272.38,-76 272.38,-96"/>
<text text-anchor="middle" x="206.62" y="-82.5" font-family="Helvetica,sans-Serif" font-size="10.00">Interactions::getMatHeight</text>
</a>
</g>
</g>
<!-- Node1&#45;&gt;Node35 -->
<g id="edge118_Node000001_Node000035" class="edge">
<title>Node1&#45;&gt;Node35</title>
<g id="a_edge118_Node000001_Node000035"><a xlink:title=" ">
<path fill="none" stroke="#63b8ff" d="M92.58,-113.52C110.83,-109.07 132.31,-103.84 151.62,-99.15"/>
<polygon fill="#63b8ff" stroke="#63b8ff" points="152.33,-102.57 161.22,-96.81 150.68,-95.77 152.33,-102.57"/>
</a>
</g>
</g>
<!-- Node36 -->
<g id="Node000036" class="node">
<title>Node36</title>
<g id="a_Node000036"><a xlink:href="$class_interactions.html#a58d25a692c5ee6773914f3c0c4f2cb6e" xlink:title=" ">
<polygon fill="white" stroke="#666666" points="634.75,-134 506.25,-134 506.25,-114 634.75,-114 634.75,-134"/>
<text text-anchor="middle" x="570.5" y="-120.5" font-family="Helvetica,sans-Serif" font-size="10.00">Interactions::getMatWidth</text>
</a>
</g>
</g>
<!-- Node1&#45;&gt;Node36 -->
<g id="edge120_Node000001_Node000036" class="edge">
<title>Node1&#45;&gt;Node36</title>
<g id="a_edge120_Node000001_Node000036"><a xlink:title=" ">
<path fill="none" stroke="#63b8ff" d="M97.49,-124C188.34,-124 386.04,-124 494.54,-124"/>
<polygon fill="#63b8ff" stroke="#63b8ff" points="494.52,-127.5 504.52,-124 494.52,-120.5 494.52,-127.5"/>
</a>
</g>
</g>
<!-- Node37 -->
<g id="Node000037" class="node">
<title>Node37</title>
<g id="a_Node000037"><a xlink:href="$class_interactions.html#a9044fca002a4287ad1a89ce0422a68e5" xlink:title=" ">
<polygon fill="white" stroke="#666666" points="259.25,-58 154,-58 154,-38 259.25,-38 259.25,-58"/>
<text text-anchor="middle" x="206.62" y="-44.5" font-family="Helvetica,sans-Serif" font-size="10.00">Interactions::gSwipe</text>
</a>
</g>
</g>
<!-- Node1&#45;&gt;Node37 -->
<g id="edge122_Node000001_Node000037" class="edge">
<title>Node1&#45;&gt;Node37</title>
<g id="a_edge122_Node000001_Node000037"><a xlink:title=" ">
<path fill="none" stroke="#63b8ff" d="M61.7,-113.66C77.28,-100.94 105.53,-79.51 133,-67 137.02,-65.17 141.25,-63.49 145.56,-61.95"/>
<polygon fill="#63b8ff" stroke="#63b8ff" points="146.52,-65.32 154.95,-58.89 144.35,-58.67 146.52,-65.32"/>
</a>
</g>
</g>
<!-- Node41 -->
<g id="Node000041" class="node">
<title>Node41</title>
<g id="a_Node000041"><a xlink:href="$struct_zone.html#a10458471a768c077e3377d00660d91ee" xlink:title=" ">
<polygon fill="white" stroke="#666666" points="251,-20 162.25,-20 162.25,0 251,0 251,-20"/>
<text text-anchor="middle" x="206.62" y="-6.5" font-family="Helvetica,sans-Serif" font-size="10.00">Zone::showZone</text>
</a>
</g>
</g>
<!-- Node1&#45;&gt;Node41 -->
<g id="edge127_Node000001_Node000041" class="edge">
<title>Node1&#45;&gt;Node41</title>
<g id="a_edge127_Node000001_Node000041"><a xlink:title=" ">
<path fill="none" stroke="#63b8ff" d="M55.63,-113.61C67.79,-93.95 96.93,-51.25 133,-29 138.61,-25.54 144.85,-22.7 151.23,-20.38"/>
<polygon fill="#63b8ff" stroke="#63b8ff" points="152.14,-23.76 160.6,-17.39 150.01,-17.09 152.14,-23.76"/>
</a>
</g>
</g>
<!-- Node3 -->
<g id="Node000003" class="node">
<title>Node3</title>
<g id="a_Node000003"><a xlink:href="$fopencv_8cpp.html#a69713584f69a121e4ed91918a64448a0" xlink:title=" ">
<polygon fill="white" stroke="#666666" points="962.62,-210 882.12,-210 882.12,-190 962.62,-190 962.62,-210"/>
<text text-anchor="middle" x="922.38" y="-196.5" font-family="Helvetica,sans-Serif" font-size="10.00">cvmtfTemplate</text>
</a>
</g>
</g>
<!-- Node2&#45;&gt;Node3 -->
<g id="edge66_Node000002_Node000003" class="edge">
<title>Node2&#45;&gt;Node3</title>
<g id="a_edge66_Node000002_Node000003"><a xlink:title=" ">
<path fill="none" stroke="#63b8ff" d="M432.84,-226.45C453.47,-223.83 478.9,-220.87 501.75,-219 634.59,-208.14 791.63,-203.1 870.61,-201.11"/>
<polygon fill="#63b8ff" stroke="#63b8ff" points="870.26,-204.62 880.17,-200.87 870.09,-197.62 870.26,-204.62"/>
</a>
</g>
</g>
<!-- Node9 -->
<g id="Node000009" class="node">
<title>Node9</title>
<g id="a_Node000009"><a xlink:href="$class_interactions.html#a5b5af2b125ff152043789cfcf70ffb2b" xlink:title=" ">
<polygon fill="white" stroke="#666666" points="633.62,-400 507.38,-400 507.38,-380 633.62,-380 633.62,-400"/>
<text text-anchor="middle" x="570.5" y="-386.5" font-family="Helvetica,sans-Serif" font-size="10.00">Interactions::getTemplate</text>
</a>
</g>
</g>
<!-- Node2&#45;&gt;Node9 -->
<g id="edge72_Node000002_Node000009" class="edge">
<title>Node2&#45;&gt;Node9</title>
<g id="a_edge72_Node000002_Node000009"><a xlink:title=" ">
<path fill="none" stroke="#63b8ff" d="M432.61,-235.7C444.35,-238.45 456.48,-243.12 465.75,-251 496.07,-276.78 477.9,-301.14 501.75,-333 513.5,-348.7 530.36,-362.9 544.32,-373.21"/>
<polygon fill="#63b8ff" stroke="#63b8ff" points="542.02,-375.86 552.2,-378.81 546.08,-370.16 542.02,-375.86"/>
</a>
</g>
</g>
<!-- Node11 -->
<g id="Node000011" class="node">
<title>Node11</title>
<g id="a_Node000011"><a xlink:href="$class_interactions.html#a0a0ffd9ad1990de31fd7b2773db32667" xlink:title=" ">
<polygon fill="white" stroke="#666666" points="631,-286 510,-286 510,-266 631,-266 631,-286"/>
<text text-anchor="middle" x="570.5" y="-272.5" font-family="Helvetica,sans-Serif" font-size="10.00">Interactions::loopPopUp</text>
</a>
</g>
</g>
<!-- Node2&#45;&gt;Node11 -->
<g id="edge74_Node000002_Node000011" class="edge">
<title>Node2&#45;&gt;Node11</title>
<g id="a_edge74_Node000002_Node000011"><a xlink:title=" ">
<path fill="none" stroke="#63b8ff" d="M432.72,-242.09C457.53,-248.24 489.5,-256.17 516.3,-262.81"/>
<polygon fill="#63b8ff" stroke="#63b8ff" points="515.41,-266.2 525.96,-265.21 517.09,-259.4 515.41,-266.2"/>
</a>
</g>
</g>
<!-- Node23 -->
<g id="Node000023" class="node">
<title>Node23</title>
<g id="a_Node000023"><a xlink:href="$class_interactions.html#ade7f52c59105f434650b9358b22e5488" xlink:title=" ">
<polygon fill="white" stroke="#666666" points="631,-248 510,-248 510,-228 631,-228 631,-248"/>
<text text-anchor="middle" x="570.5" y="-234.5" font-family="Helvetica,sans-Serif" font-size="10.00">Interactions::resetCount</text>
</a>
</g>
</g>
<!-- Node2&#45;&gt;Node23 -->
<g id="edge88_Node000002_Node000023" class="edge">
<title>Node2&#45;&gt;Node23</title>
<g id="a_edge88_Node000002_Node000023"><a xlink:title=" ">
<path fill="none" stroke="#63b8ff" d="M432.72,-233.38C452.16,-234.03 475.99,-234.84 498.29,-235.59"/>
<polygon fill="#63b8ff" stroke="#63b8ff" points="498.15,-239.09 508.26,-235.93 498.39,-232.09 498.15,-239.09"/>
</a>
</g>
</g>
<!-- Node24 -->
<g id="Node000024" class="node">
<title>Node24</title>
<g id="a_Node000024"><a xlink:href="$class_interactions.html#ad7daddd9df3cea80e69872b8afd6c8dc" xlink:title=" ">
<polygon fill="white" stroke="#666666" points="639.25,-324 501.75,-324 501.75,-304 639.25,-304 639.25,-324"/>
<text text-anchor="middle" x="570.5" y="-310.5" font-family="Helvetica,sans-Serif" font-size="10.00">Interactions::templateFound</text>
</a>
</g>
</g>
<!-- Node2&#45;&gt;Node24 -->
<g id="edge89_Node000002_Node000024" class="edge">
<title>Node2&#45;&gt;Node24</title>
<g id="a_edge89_Node000002_Node000024"><a xlink:title=" ">
<path fill="none" stroke="#63b8ff" d="M432.55,-237.62C443.9,-240.44 455.83,-244.66 465.75,-251 487.04,-264.61 480.6,-281.17 501.75,-295 503.87,-296.39 506.09,-297.67 508.38,-298.86"/>
<polygon fill="#63b8ff" stroke="#63b8ff" points="506.84,-302.01 517.39,-302.9 509.7,-295.62 506.84,-302.01"/>
</a>
</g>
</g>
<!-- Node4 -->
<g id="Node000004" class="node">
<title>Node4</title>
<g id="a_Node000004"><a xlink:href="$fopencv_8cpp.html#af6fc77188d314c0d5a58888452f9b313" xlink:title=" ">
<polygon fill="white" stroke="#666666" points="1107.62,-300 1039.88,-300 1039.88,-280 1107.62,-280 1107.62,-300"/>
<text text-anchor="middle" x="1073.75" y="-286.5" font-family="Helvetica,sans-Serif" font-size="10.00">extractZone</text>
</a>
</g>
</g>
<!-- Node3&#45;&gt;Node4 -->
<g id="edge67_Node000003_Node000004" class="edge">
<title>Node3&#45;&gt;Node4</title>
<g id="a_edge67_Node000003_Node000004"><a xlink:title=" ">
<path fill="none" stroke="#63b8ff" d="M963.03,-210.35C968.81,-212.72 974.49,-215.57 979.5,-219 1000.07,-233.08 995.88,-246.63 1015.5,-262 1021.59,-266.77 1028.62,-271.02 1035.62,-274.68"/>
<polygon fill="#63b8ff" stroke="#63b8ff" points="1033.87,-277.72 1044.39,-278.95 1036.93,-271.42 1033.87,-277.72"/>
</a>
</g>
</g>
<!-- Node5 -->
<g id="Node000005" class="node">
<title>Node5</title>
<g id="a_Node000005"><a xlink:href="$struct_zone.html#a5301e7fcf185a5a79c1bf7d7930f4b8a" xlink:title=" ">
<polygon fill="white" stroke="#666666" points="1108,-253 1039.5,-253 1039.5,-233 1108,-233 1108,-253"/>
<text text-anchor="middle" x="1073.75" y="-239.5" font-family="Helvetica,sans-Serif" font-size="10.00">Zone::isNull</text>
</a>
</g>
</g>
<!-- Node3&#45;&gt;Node5 -->
<g id="edge68_Node000003_Node000005" class="edge">
<title>Node3&#45;&gt;Node5</title>
<g id="a_edge68_Node000003_Node000005"><a xlink:title=" ">
<path fill="none" stroke="#63b8ff" d="M959.53,-210.41C980.2,-216.36 1006.27,-223.86 1028.19,-230.17"/>
<polygon fill="#63b8ff" stroke="#63b8ff" points="1027.19,-233.53 1037.77,-232.93 1029.13,-226.8 1027.19,-233.53"/>
</a>
</g>
</g>
<!-- Node7 -->
<g id="Node000007" class="node">
<title>Node7</title>
<g id="a_Node000007"><a xlink:href="$fopencv_8cpp.html#a1ed1ff1a9df2ab889e1423cb11a58c06" xlink:title=" ">
<polygon fill="white" stroke="#666666" points="1115.12,-380 1032.38,-380 1032.38,-360 1115.12,-360 1115.12,-380"/>
<text text-anchor="middle" x="1073.75" y="-366.5" font-family="Helvetica,sans-Serif" font-size="10.00">messageFound</text>
</a>
</g>
</g>
<!-- Node3&#45;&gt;Node7 -->
<g id="edge70_Node000003_Node000007" class="edge">
<title>Node3&#45;&gt;Node7</title>
<g id="a_edge70_Node000003_Node000007"><a xlink:title=" ">
<path fill="none" stroke="#63b8ff" d="M963.11,-207.94C969.22,-210.62 974.99,-214.21 979.5,-219 1021.19,-263.27 973.68,-306.85 1015.5,-351 1017.48,-353.1 1019.71,-354.96 1022.09,-356.62"/>
<polygon fill="#63b8ff" stroke="#63b8ff" points="1020.16,-359.55 1030.61,-361.32 1023.54,-353.42 1020.16,-359.55"/>
</a>
</g>
</g>
<!-- Node8 -->
<g id="Node000008" class="node">
<title>Node8</title>
<g id="a_Node000008"><a xlink:href="$fopencv_8cpp.html#ae51fd1f3ed39bd8c9b8da4a313d5aeb3" xlink:title=" ">
<polygon fill="white" stroke="#666666" points="1123,-210 1024.5,-210 1024.5,-190 1123,-190 1123,-210"/>
<text text-anchor="middle" x="1073.75" y="-196.5" font-family="Helvetica,sans-Serif" font-size="10.00">oneMatchTemplate</text>
</a>
</g>
</g>
<!-- Node3&#45;&gt;Node8 -->
<g id="edge71_Node000003_Node000008" class="edge">
<title>Node3&#45;&gt;Node8</title>
<g id="a_edge71_Node000003_Node000008"><a xlink:title=" ">
<path fill="none" stroke="#63b8ff" d="M963.01,-200C978.25,-200 996.01,-200 1012.74,-200"/>
<polygon fill="#63b8ff" stroke="#63b8ff" points="1012.61,-203.5 1022.61,-200 1012.61,-196.5 1012.61,-203.5"/>
</a>
</g>
</g>
<!-- Node6 -->
<g id="Node000006" class="node">
<title>Node6</title>
<g id="a_Node000006"><a xlink:href="$struct_coord.html#a34c573cd6230e5a532f12ae97e7395e2" xlink:title=" ">
<polygon fill="white" stroke="#666666" points="1241,-253 1168,-253 1168,-233 1241,-233 1241,-253"/>
<text text-anchor="middle" x="1204.5" y="-239.5" font-family="Helvetica,sans-Serif" font-size="10.00">Coord::isNull</text>
</a>
</g>
</g>
<!-- Node5&#45;&gt;Node6 -->
<g id="edge69_Node000005_Node000006" class="edge">
<title>Node5&#45;&gt;Node6</title>
<g id="a_edge69_Node000005_Node000006"><a xlink:title=" ">
<path fill="none" stroke="#63b8ff" d="M1108.24,-243C1122.99,-243 1140.57,-243 1156.6,-243"/>
<polygon fill="#63b8ff" stroke="#63b8ff" points="1156.41,-246.5 1166.41,-243 1156.41,-239.5 1156.41,-246.5"/>
</a>
</g>
</g>
<!-- Node10 -->
<g id="Node000010" class="node">
<title>Node10</title>
<g id="a_Node000010"><a xlink:href="$struct_template.html#a93d3c6f97592ba09d7819fda3c3296d7" xlink:title=" ">
<polygon fill="white" stroke="#666666" points="800.38,-400 704.12,-400 704.12,-380 800.38,-380 800.38,-400"/>
<text text-anchor="middle" x="752.25" y="-386.5" font-family="Helvetica,sans-Serif" font-size="10.00">Template::setType</text>
</a>
</g>
</g>
<!-- Node9&#45;&gt;Node10 -->
<g id="edge73_Node000009_Node000010" class="edge">
<title>Node9&#45;&gt;Node10</title>
<g id="a_edge73_Node000009_Node000010"><a xlink:title=" ">
<path fill="none" stroke="#63b8ff" d="M634.12,-390C653.08,-390 673.83,-390 692.53,-390"/>
<polygon fill="#63b8ff" stroke="#63b8ff" points="692.36,-393.5 702.36,-390 692.36,-386.5 692.36,-393.5"/>
</a>
</g>
</g>
<!-- Node12 -->
<g id="Node000012" class="node">
<title>Node12</title>
<g id="a_Node000012"><a xlink:href="$fopencv_8cpp.html#a5c455ed716b7fa4c675446fc5b8ba4fb" xlink:title=" ">
<polygon fill="white" stroke="#666666" points="783.12,-134 721.38,-134 721.38,-114 783.12,-114 783.12,-134"/>
<text text-anchor="middle" x="752.25" y="-120.5" font-family="Helvetica,sans-Serif" font-size="10.00">CreateMat</text>
</a>
</g>
</g>
<!-- Node11&#45;&gt;Node12 -->
<g id="edge75_Node000011_Node000012" class="edge">
<title>Node11&#45;&gt;Node12</title>
<g id="a_edge75_Node000011_Node000012"><a xlink:title=" ">
<path fill="none" stroke="#63b8ff" d="M627.31,-265.51C631.67,-263.2 635.74,-260.4 639.25,-257 677.43,-220.04 636.55,-179.41 675.25,-143 684.58,-134.22 697.33,-129.33 709.72,-126.66"/>
<polygon fill="#63b8ff" stroke="#63b8ff" points="710.12,-130.14 719.4,-125.03 708.95,-123.24 710.12,-130.14"/>
</a>
</g>
</g>
<!-- Node13 -->
<g id="Node000013" class="node">
<title>Node13</title>
<g id="a_Node000013"><a xlink:href="$class_interactions.html#aed04f9177d2aba467d71818a5e82c7bc" xlink:title=" ">
<polygon fill="white" stroke="#666666" points="809.38,-248 695.12,-248 695.12,-228 809.38,-228 809.38,-248"/>
<text text-anchor="middle" x="752.25" y="-234.5" font-family="Helvetica,sans-Serif" font-size="10.00">Interactions::fcpopupA</text>
</a>
</g>
</g>
<!-- Node11&#45;&gt;Node13 -->
<g id="edge76_Node000011_Node000013" class="edge">
<title>Node11&#45;&gt;Node13</title>
<g id="a_edge76_Node000011_Node000013"><a xlink:title=" ">
<path fill="none" stroke="#63b8ff" d="M621.09,-265.52C642.61,-260.97 668,-255.6 690.62,-250.82"/>
<polygon fill="#63b8ff" stroke="#63b8ff" points="691.28,-254.26 700.34,-248.76 689.83,-247.41 691.28,-254.26"/>
</a>
</g>
</g>
<!-- Node16 -->
<g id="Node000016" class="node">
<title>Node16</title>
<g id="a_Node000016"><a xlink:href="$fadb_8cpp.html#aeec40a5f78ae4713eedd84cb5f75746f" xlink:title=" ">
<polygon fill="white" stroke="#666666" points="784.25,-172 720.25,-172 720.25,-152 784.25,-152 784.25,-172"/>
<text text-anchor="middle" x="752.25" y="-158.5" font-family="Helvetica,sans-Serif" font-size="10.00">screenshot</text>
</a>
</g>
</g>
<!-- Node11&#45;&gt;Node16 -->
<g id="edge81_Node000011_Node000016" class="edge">
<title>Node11&#45;&gt;Node16</title>
<g id="a_edge81_Node000011_Node000016"><a xlink:title=" ">
<path fill="none" stroke="#63b8ff" d="M620.93,-265.55C627.32,-263.22 633.6,-260.41 639.25,-257 659.17,-244.98 657.88,-234.48 675.25,-219 691.51,-204.51 711.22,-189.8 726.49,-178.95"/>
<polygon fill="#63b8ff" stroke="#63b8ff" points="728.39,-181.9 734.57,-173.29 724.37,-176.17 728.39,-181.9"/>
</a>
</g>
</g>
<!-- Node13&#45;&gt;Node3 -->
<g id="edge79_Node000013_Node000003" class="edge">
<title>Node13&#45;&gt;Node3</title>
<g id="a_edge79_Node000013_Node000003"><a xlink:title=" ">
<path fill="none" stroke="#63b8ff" d="M799.64,-227.52C821.67,-222.54 848.06,-216.57 870.63,-211.47"/>
<polygon fill="#63b8ff" stroke="#63b8ff" points="871.24,-214.92 880.22,-209.3 869.7,-208.09 871.24,-214.92"/>
</a>
</g>
</g>
<!-- Node14 -->
<g id="Node000014" class="node">
<title>Node14</title>
<g id="a_Node000014"><a xlink:href="$class_interactions.html#aae6172962092f278714536142e987cde" xlink:title=" ">
<polygon fill="white" stroke="#666666" points="969,-286 875.75,-286 875.75,-266 969,-266 969,-286"/>
<text text-anchor="middle" x="922.38" y="-272.5" font-family="Helvetica,sans-Serif" font-size="10.00">Interactions::click</text>
</a>
</g>
</g>
<!-- Node13&#45;&gt;Node14 -->
<g id="edge77_Node000013_Node000014" class="edge">
<title>Node13&#45;&gt;Node14</title>
<g id="a_edge77_Node000013_Node000014"><a xlink:title=" ">
<path fill="none" stroke="#63b8ff" d="M799.64,-248.48C819.66,-253.01 843.27,-258.35 864.35,-263.11"/>
<polygon fill="#63b8ff" stroke="#63b8ff" points="863.43,-266.49 873.96,-265.28 864.97,-259.66 863.43,-266.49"/>
</a>
</g>
</g>
<!-- Node15 -->
<g id="Node000015" class="node">
<title>Node15</title>
<g id="a_Node000015"><a xlink:href="$class_interactions.html#abd5b5d8a44970e1333e3611e302f166c" xlink:title=" ">
<polygon fill="white" stroke="#666666" points="967.88,-248 876.88,-248 876.88,-228 967.88,-228 967.88,-248"/>
<text text-anchor="middle" x="922.38" y="-234.5" font-family="Helvetica,sans-Serif" font-size="10.00">Interactions::wait</text>
</a>
</g>
</g>
<!-- Node13&#45;&gt;Node15 -->
<g id="edge80_Node000013_Node000015" class="edge">
<title>Node13&#45;&gt;Node15</title>
<g id="a_edge80_Node000013_Node000015"><a xlink:title=" ">
<path fill="none" stroke="#63b8ff" d="M809.7,-238C827.54,-238 847.25,-238 865.08,-238"/>
<polygon fill="#63b8ff" stroke="#63b8ff" points="864.98,-241.5 874.98,-238 864.98,-234.5 864.98,-241.5"/>
</a>
</g>
</g>
<!-- Node14&#45;&gt;Node14 -->
<g id="edge78_Node000014_Node000014" class="edge">
<title>Node14&#45;&gt;Node14</title>
<g id="a_edge78_Node000014_Node000014"><a xlink:title=" ">
<path fill="none" stroke="#63b8ff" d="M898.32,-286.34C888.04,-294.98 896.06,-304 922.38,-304 936.77,-304 945.68,-301.3 949.13,-297.44"/>
<polygon fill="#63b8ff" stroke="#63b8ff" points="952.55,-296.7 946.78,-287.81 945.75,-298.35 952.55,-296.7"/>
</a>
</g>
</g>
<!-- Node17 -->
<g id="Node000017" class="node">
<title>Node17</title>
<g id="a_Node000017"><a xlink:href="$fadb_8cpp.html#a7ab9819839864ebd26d0e7e68e330418" xlink:title=" ">
<polygon fill="white" stroke="#666666" points="964.5,-153 880.25,-153 880.25,-133 964.5,-133 964.5,-153"/>
<text text-anchor="middle" x="922.38" y="-139.5" font-family="Helvetica,sans-Serif" font-size="10.00">takeScreenshot</text>
</a>
</g>
</g>
<!-- Node16&#45;&gt;Node17 -->
<g id="edge82_Node000016_Node000017" class="edge">
<title>Node16&#45;&gt;Node17</title>
<g id="a_edge82_Node000016_Node000017"><a xlink:title=" ">
<path fill="none" stroke="#63b8ff" d="M784.48,-158.47C808.1,-155.8 841.08,-152.07 868.75,-148.95"/>
<polygon fill="#63b8ff" stroke="#63b8ff" points="868.8,-152.46 878.34,-147.86 868.01,-145.51 868.8,-152.46"/>
</a>
</g>
</g>
<!-- Node18 -->
<g id="Node000018" class="node">
<title>Node18</title>
<g id="a_Node000018"><a xlink:href="$fadb_8cpp.html#ac6339b59ba8238f7483dece7f3fdf51b" xlink:title=" ">
<polygon fill="white" stroke="#666666" points="1118.12,-134 1029.38,-134 1029.38,-114 1118.12,-114 1118.12,-134"/>
<text text-anchor="middle" x="1073.75" y="-120.5" font-family="Helvetica,sans-Serif" font-size="10.00">runAdbLocalhost</text>
</a>
</g>
</g>
<!-- Node17&#45;&gt;Node18 -->
<g id="edge83_Node000017_Node000018" class="edge">
<title>Node17&#45;&gt;Node18</title>
<g id="a_edge83_Node000017_Node000018"><a xlink:title=" ">
<path fill="none" stroke="#63b8ff" d="M964.98,-137.71C981.34,-135.63 1000.35,-133.21 1017.81,-130.99"/>
<polygon fill="#63b8ff" stroke="#63b8ff" points="1018.04,-134.49 1027.52,-129.75 1017.16,-127.54 1018.04,-134.49"/>
</a>
</g>
</g>
<!-- Node19 -->
<g id="Node000019" class="node">
<title>Node19</title>
<g id="a_Node000019"><a xlink:href="$fadb_8cpp.html#a383ae5fedc9f597a03c74c729a2eb740" xlink:title=" ">
<polygon fill="white" stroke="#666666" points="1227.88,-134 1181.12,-134 1181.12,-114 1227.88,-114 1227.88,-134"/>
<text text-anchor="middle" x="1204.5" y="-120.5" font-family="Helvetica,sans-Serif" font-size="10.00">runAdb</text>
</a>
</g>
</g>
<!-- Node18&#45;&gt;Node19 -->
<g id="edge84_Node000018_Node000019" class="edge">
<title>Node18&#45;&gt;Node19</title>
<g id="a_edge84_Node000018_Node000019"><a xlink:title=" ">
<path fill="none" stroke="#63b8ff" d="M1118.34,-124C1135.08,-124 1153.93,-124 1169.62,-124"/>
<polygon fill="#63b8ff" stroke="#63b8ff" points="1169.41,-127.5 1179.41,-124 1169.41,-120.5 1169.41,-127.5"/>
</a>
</g>
</g>
<!-- Node20 -->
<g id="Node000020" class="node">
<title>Node20</title>
<g id="a_Node000020"><a xlink:href="$sys_commands_8cpp.html#a321eb7e335377aa7182bafc8a1605032" xlink:title=" ">
<polygon fill="white" stroke="#666666" points="1344,-134 1277,-134 1277,-114 1344,-114 1344,-134"/>
<text text-anchor="middle" x="1310.5" y="-120.5" font-family="Helvetica,sans-Serif" font-size="10.00">receivePipe</text>
</a>
</g>
</g>
<!-- Node19&#45;&gt;Node20 -->
<g id="edge85_Node000019_Node000020" class="edge">
<title>Node19&#45;&gt;Node20</title>
<g id="a_edge85_Node000019_Node000020"><a xlink:title=" ">
<path fill="none" stroke="#63b8ff" d="M1228.32,-124C1239.22,-124 1252.64,-124 1265.41,-124"/>
<polygon fill="#63b8ff" stroke="#63b8ff" points="1265.35,-127.5 1275.35,-124 1265.35,-120.5 1265.35,-127.5"/>
</a>
</g>
</g>
<!-- Node21 -->
<g id="Node000021" class="node">
<title>Node21</title>
<g id="a_Node000021"><a xlink:href="$sys_commands_8cpp.html#a4771c79171a937893508dabadadbe099" xlink:title=" ">
<polygon fill="white" stroke="#666666" points="1438.75,-153 1380,-153 1380,-133 1438.75,-133 1438.75,-153"/>
<text text-anchor="middle" x="1409.38" y="-139.5" font-family="Helvetica,sans-Serif" font-size="10.00">closePipe</text>
</a>
</g>
</g>
<!-- Node20&#45;&gt;Node21 -->
<g id="edge86_Node000020_Node000021" class="edge">
<title>Node20&#45;&gt;Node21</title>
<g id="a_edge86_Node000020_Node000021"><a xlink:title=" ">
<path fill="none" stroke="#63b8ff" d="M1344.3,-130.43C1352.06,-131.95 1360.42,-133.59 1368.46,-135.17"/>
<polygon fill="#63b8ff" stroke="#63b8ff" points="1367.53,-138.56 1378.02,-137.05 1368.88,-131.69 1367.53,-138.56"/>
</a>
</g>
</g>
<!-- Node22 -->
<g id="Node000022" class="node">
<title>Node22</title>
<g id="a_Node000022"><a xlink:href="$sys_commands_8cpp.html#a3499ce0cd7e4ed28b3c5461a4d3aec84" xlink:title=" ">
<polygon fill="white" stroke="#666666" points="1437.62,-115 1381.12,-115 1381.12,-95 1437.62,-95 1437.62,-115"/>
<text text-anchor="middle" x="1409.38" y="-101.5" font-family="Helvetica,sans-Serif" font-size="10.00">openPipe</text>
</a>
</g>
</g>
<!-- Node20&#45;&gt;Node22 -->
<g id="edge87_Node000020_Node000022" class="edge">
<title>Node20&#45;&gt;Node22</title>
<g id="a_edge87_Node000020_Node000022"><a xlink:title=" ">
<path fill="none" stroke="#63b8ff" d="M1344.3,-117.57C1352.45,-115.97 1361.26,-114.24 1369.67,-112.59"/>
<polygon fill="#63b8ff" stroke="#63b8ff" points="1370.15,-116.06 1379.29,-110.7 1368.8,-109.19 1370.15,-116.06"/>
</a>
</g>
</g>
<!-- Node24&#45;&gt;Node14 -->
<g id="edge90_Node000024_Node000014" class="edge">
<title>Node24&#45;&gt;Node14</title>
<g id="a_edge90_Node000024_Node000014"><a xlink:title=" ">
<path fill="none" stroke="#63b8ff" d="M639.72,-308.73C691.74,-304.45 765.12,-297.85 829.25,-290 840.57,-288.61 852.64,-286.93 864.19,-285.22"/>
<polygon fill="#63b8ff" stroke="#63b8ff" points="864.66,-288.69 874.03,-283.73 863.62,-281.76 864.66,-288.69"/>
</a>
</g>
</g>
<!-- Node24&#45;&gt;Node15 -->
<g id="edge91_Node000024_Node000015" class="edge">
<title>Node24&#45;&gt;Node15</title>
<g id="a_edge91_Node000024_Node000015"><a xlink:title=" ">
<path fill="none" stroke="#63b8ff" d="M615.89,-303.54C634.24,-299.26 655.75,-294.31 675.25,-290 740.33,-275.6 815.28,-259.89 865.21,-249.55"/>
<polygon fill="#63b8ff" stroke="#63b8ff" points="865.84,-252.99 874.93,-247.54 864.42,-246.14 865.84,-252.99"/>
</a>
</g>
</g>
<!-- Node25&#45;&gt;Node2 -->
<g id="edge93_Node000025_Node000002" class="edge">
<title>Node25&#45;&gt;Node2</title>
<g id="a_edge93_Node000025_Node000002"><a xlink:title=" ">
<path fill="none" stroke="#63b8ff" d="M238.15,-180.38C268.4,-190.66 314.94,-206.48 348.52,-217.9"/>
<polygon fill="#63b8ff" stroke="#63b8ff" points="347.35,-221.2 357.94,-221.1 349.6,-214.57 347.35,-221.2"/>
</a>
</g>
</g>
<!-- Node26&#45;&gt;Node16 -->
<g id="edge117_Node000026_Node000016" class="edge">
<title>Node26&#45;&gt;Node16</title>
<g id="a_edge117_Node000026_Node000016"><a xlink:title=" ">
<path fill="none" stroke="#63b8ff" d="M223.02,-259.57C243.39,-246.35 280.85,-223.95 316.25,-213 455.13,-170.04 629.19,-162.8 708.43,-161.89"/>
<polygon fill="#63b8ff" stroke="#63b8ff" points="708.38,-165.39 718.35,-161.81 708.32,-158.39 708.38,-165.39"/>
</a>
</g>
</g>
<!-- Node27 -->
<g id="Node000027" class="node">
<title>Node27</title>
<g id="a_Node000027"><a xlink:href="$class_interactions.html#a1e4898ef6baa65c69e8f4a94e34f91f9" xlink:title=" ">
<polygon fill="white" stroke="#666666" points="465.75,-330 316.25,-330 316.25,-298 465.75,-298 465.75,-330"/>
<text text-anchor="start" x="324.25" y="-316.5" font-family="Helvetica,sans-Serif" font-size="10.00">Interactions::fCompareMultiple</text>
<text text-anchor="middle" x="391" y="-304.5" font-family="Helvetica,sans-Serif" font-size="10.00">TemplateA</text>
</a>
</g>
</g>
<!-- Node26&#45;&gt;Node27 -->
<g id="edge95_Node000026_Node000027" class="edge">
<title>Node26&#45;&gt;Node27</title>
<g id="a_edge95_Node000026_Node000027"><a xlink:title=" ">
<path fill="none" stroke="#63b8ff" d="M250.85,-280.43C268.79,-284.76 290.2,-289.92 310.79,-294.89"/>
<polygon fill="#63b8ff" stroke="#63b8ff" points="309.77,-298.24 320.31,-297.19 311.41,-291.44 309.77,-298.24"/>
</a>
</g>
</g>
<!-- Node32 -->
<g id="Node000032" class="node">
<title>Node32</title>
<g id="a_Node000032"><a xlink:href="$class_interactions.html#a8dd8d6d917a4a95c2e2ef2d389380751" xlink:title=" ">
<polygon fill="white" stroke="#666666" points="462,-400 320,-400 320,-380 462,-380 462,-400"/>
<text text-anchor="middle" x="391" y="-386.5" font-family="Helvetica,sans-Serif" font-size="10.00">Interactions::fMultipleDigitsA</text>
</a>
</g>
</g>
<!-- Node26&#45;&gt;Node32 -->
<g id="edge110_Node000026_Node000032" class="edge">
<title>Node26&#45;&gt;Node32</title>
<g id="a_edge110_Node000026_Node000032"><a xlink:title=" ">
<path fill="none" stroke="#63b8ff" d="M223.49,-280.44C255.23,-301.32 326.77,-348.4 364.92,-373.5"/>
<polygon fill="#63b8ff" stroke="#63b8ff" points="362.76,-376.27 373.04,-378.84 366.61,-370.42 362.76,-376.27"/>
</a>
</g>
</g>
<!-- Node34 -->
<g id="Node000034" class="node">
<title>Node34</title>
<g id="a_Node000034"><a xlink:href="$class_interactions.html#af3c13c1ae7d10eb3f41f626549982d41" xlink:title=" ">
<polygon fill="white" stroke="#666666" points="451.12,-280 330.88,-280 330.88,-260 451.12,-260 451.12,-280"/>
<text text-anchor="middle" x="391" y="-266.5" font-family="Helvetica,sans-Serif" font-size="10.00">Interactions::orderDigits</text>
</a>
</g>
</g>
<!-- Node26&#45;&gt;Node34 -->
<g id="edge116_Node000026_Node000034" class="edge">
<title>Node26&#45;&gt;Node34</title>
<g id="a_edge116_Node000026_Node000034"><a xlink:title=" ">
<path fill="none" stroke="#63b8ff" d="M280.49,-270C293.18,-270 306.36,-270 318.99,-270"/>
<polygon fill="#63b8ff" stroke="#63b8ff" points="318.9,-273.5 328.9,-270 318.9,-266.5 318.9,-273.5"/>
</a>
</g>
</g>
<!-- Node27&#45;&gt;Node9 -->
<g id="edge106_Node000027_Node000009" class="edge">
<title>Node27&#45;&gt;Node9</title>
<g id="a_edge106_Node000027_Node000009"><a xlink:title=" ">
<path fill="none" stroke="#63b8ff" d="M424.27,-330.35C445.93,-341.07 475.24,-355.06 501.75,-366 509.85,-369.34 518.6,-372.66 527.04,-375.71"/>
<polygon fill="#63b8ff" stroke="#63b8ff" points="525.86,-379 536.45,-379.04 528.19,-372.4 525.86,-379"/>
</a>
</g>
</g>
<!-- Node27&#45;&gt;Node11 -->
<g id="edge107_Node000027_Node000011" class="edge">
<title>Node27&#45;&gt;Node11</title>
<g id="a_edge107_Node000027_Node000011"><a xlink:title=" ">
<path fill="none" stroke="#63b8ff" d="M466.25,-298.1C480.71,-295.01 495.71,-291.8 509.64,-288.81"/>
<polygon fill="#63b8ff" stroke="#63b8ff" points="510.03,-292.31 519.07,-286.8 508.56,-285.47 510.03,-292.31"/>
</a>
</g>
</g>
<!-- Node27&#45;&gt;Node23 -->
<g id="edge108_Node000027_Node000023" class="edge">
<title>Node27&#45;&gt;Node23</title>
<g id="a_edge108_Node000027_Node000023"><a xlink:title=" ">
<path fill="none" stroke="#63b8ff" d="M448.22,-297.61C454.3,-295.06 460.26,-292.19 465.75,-289 484.26,-278.24 482.96,-267.26 501.75,-257 504.76,-255.35 507.93,-253.84 511.18,-252.45"/>
<polygon fill="#63b8ff" stroke="#63b8ff" points="512.25,-255.79 520.35,-248.96 509.76,-249.25 512.25,-255.79"/>
</a>
</g>
</g>
<!-- Node27&#45;&gt;Node24 -->
<g id="edge109_Node000027_Node000024" class="edge">
<title>Node27&#45;&gt;Node24</title>
<g id="a_edge109_Node000027_Node000024"><a xlink:title=" ">
<path fill="none" stroke="#63b8ff" d="M466.25,-314C474.1,-314 482.1,-314 490.01,-314"/>
<polygon fill="#63b8ff" stroke="#63b8ff" points="489.98,-317.5 499.98,-314 489.98,-310.5 489.98,-317.5"/>
</a>
</g>
</g>
<!-- Node28 -->
<g id="Node000028" class="node">
<title>Node28</title>
<g id="a_Node000028"><a xlink:href="$fopencv_8cpp.html#ade157d547c93a4a6c0c6395cbcd15e10" xlink:title=" ">
<polygon fill="white" stroke="#666666" points="829.25,-362 675.25,-362 675.25,-342 829.25,-342 829.25,-362"/>
<text text-anchor="middle" x="752.25" y="-348.5" font-family="Helvetica,sans-Serif" font-size="10.00">cvmtfCompareMultipleTemplate</text>
</a>
</g>
</g>
<!-- Node27&#45;&gt;Node28 -->
<g id="edge96_Node000027_Node000028" class="edge">
<title>Node27&#45;&gt;Node28</title>
<g id="a_edge96_Node000027_Node000028"><a xlink:title=" ">
<path fill="none" stroke="#63b8ff" d="M466.24,-327.84C478.09,-329.76 490.24,-331.57 501.75,-333 555.33,-339.66 615.69,-344.33 663.62,-347.38"/>
<polygon fill="#63b8ff" stroke="#63b8ff" points="663.19,-350.86 673.39,-347.98 663.63,-343.87 663.19,-350.86"/>
</a>
</g>
</g>
<!-- Node28&#45;&gt;Node3 -->
<g id="edge103_Node000028_Node000003" class="edge">
<title>Node28&#45;&gt;Node3</title>
<g id="a_edge103_Node000028_Node000003"><a xlink:title=" ">
<path fill="none" stroke="#63b8ff" d="M761.53,-341.53C785.18,-311.71 852.16,-227.93 865.25,-219 867.21,-217.66 869.27,-216.41 871.4,-215.25"/>
<polygon fill="#63b8ff" stroke="#63b8ff" points="872.82,-218.45 880.36,-211.01 869.82,-212.12 872.82,-218.45"/>
</a>
</g>
</g>
<!-- Node28&#45;&gt;Node7 -->
<g id="edge105_Node000028_Node000007" class="edge">
<title>Node28&#45;&gt;Node7</title>
<g id="a_edge105_Node000028_Node000007"><a xlink:title=" ">
<path fill="none" stroke="#63b8ff" d="M829.37,-356.29C888.57,-359.62 969.11,-364.16 1021.02,-367.09"/>
<polygon fill="#63b8ff" stroke="#63b8ff" points="1020.59,-370.57 1030.78,-367.64 1020.99,-363.58 1020.59,-370.57"/>
</a>
</g>
</g>
<!-- Node29 -->
<g id="Node000029" class="node">
<title>Node29</title>
<g id="a_Node000029"><a xlink:href="$fopencv_8cpp.html#a95c56af5716e2b2d1b4df612796cc229" xlink:title=" ">
<polygon fill="white" stroke="#666666" points="979.5,-342 865.25,-342 865.25,-322 979.5,-322 979.5,-342"/>
<text text-anchor="middle" x="922.38" y="-328.5" font-family="Helvetica,sans-Serif" font-size="10.00">cvmtfMultipleTemplate</text>
</a>
</g>
</g>
<!-- Node28&#45;&gt;Node29 -->
<g id="edge97_Node000028_Node000029" class="edge">
<title>Node28&#45;&gt;Node29</title>
<g id="a_edge97_Node000028_Node000029"><a xlink:title=" ">
<path fill="none" stroke="#63b8ff" d="M829.44,-342.94C837.59,-341.97 845.84,-340.99 853.88,-340.03"/>
<polygon fill="#63b8ff" stroke="#63b8ff" points="854.05,-343.53 863.57,-338.88 853.22,-336.58 854.05,-343.53"/>
</a>
</g>
</g>
<!-- Node31 -->
<g id="Node000031" class="node">
<title>Node31</title>
<g id="a_Node000031"><a xlink:href="$fopencv_8cpp.html#a6abdcaeee06b3da6f210daf0162bcd01" xlink:title=" ">
<polygon fill="white" stroke="#666666" points="1233.88,-418 1175.12,-418 1175.12,-398 1233.88,-398 1233.88,-418"/>
<text text-anchor="middle" x="1204.5" y="-404.5" font-family="Helvetica,sans-Serif" font-size="10.00">intersects</text>
</a>
</g>
</g>
<!-- Node28&#45;&gt;Node31 -->
<g id="edge104_Node000028_Node000031" class="edge">
<title>Node28&#45;&gt;Node31</title>
<g id="a_edge104_Node000028_Node000031"><a xlink:title=" ">
<path fill="none" stroke="#63b8ff" d="M796.38,-362.47C817.1,-367.19 842.35,-372.48 865.25,-376 972.33,-392.48 1099.86,-401.78 1163.39,-405.73"/>
<polygon fill="#63b8ff" stroke="#63b8ff" points="1163.15,-409.22 1173.34,-406.33 1163.57,-402.23 1163.15,-409.22"/>
</a>
</g>
</g>
<!-- Node29&#45;&gt;Node4 -->
<g id="edge98_Node000029_Node000004" class="edge">
<title>Node29&#45;&gt;Node4</title>
<g id="a_edge98_Node000029_Node000004"><a xlink:title=" ">
<path fill="none" stroke="#63b8ff" d="M960.68,-321.51C981.29,-315.72 1007.01,-308.49 1028.61,-302.41"/>
<polygon fill="#63b8ff" stroke="#63b8ff" points="1029.34,-305.84 1038.02,-299.77 1027.45,-299.1 1029.34,-305.84"/>
</a>
</g>
</g>
<!-- Node29&#45;&gt;Node5 -->
<g id="edge99_Node000029_Node000005" class="edge">
<title>Node29&#45;&gt;Node5</title>
<g id="a_edge99_Node000029_Node000005"><a xlink:title=" ">
<path fill="none" stroke="#63b8ff" d="M963,-321.6C968.78,-319.24 974.47,-316.4 979.5,-313 999.87,-299.23 996.06,-286.05 1015.5,-271 1021.61,-266.27 1028.66,-262.03 1035.66,-258.38"/>
<polygon fill="#63b8ff" stroke="#63b8ff" points="1036.98,-261.63 1044.43,-254.11 1033.91,-255.34 1036.98,-261.63"/>
</a>
</g>
</g>
<!-- Node30 -->
<g id="Node000030" class="node">
<title>Node30</title>
<g id="a_Node000030"><a xlink:href="$fopencv_8cpp.html#a7521a083566181475d36ee14aad60f1d" xlink:title=" ">
<polygon fill="white" stroke="#666666" points="1132,-342 1015.5,-342 1015.5,-322 1132,-322 1132,-342"/>
<text text-anchor="middle" x="1073.75" y="-328.5" font-family="Helvetica,sans-Serif" font-size="10.00">multipleMatchTemplate</text>
</a>
</g>
</g>
<!-- Node29&#45;&gt;Node30 -->
<g id="edge100_Node000029_Node000030" class="edge">
<title>Node29&#45;&gt;Node30</title>
<g id="a_edge100_Node000029_Node000030"><a xlink:title=" ">
<path fill="none" stroke="#63b8ff" d="M979.85,-332C987.71,-332 995.86,-332 1003.91,-332"/>
<polygon fill="#63b8ff" stroke="#63b8ff" points="1003.69,-335.5 1013.69,-332 1003.69,-328.5 1003.69,-335.5"/>
</a>
</g>
</g>
<!-- Node30&#45;&gt;Node31 -->
<g id="edge101_Node000030_Node000031" class="edge">
<title>Node30&#45;&gt;Node31</title>
<g id="a_edge101_Node000030_Node000031"><a xlink:title=" ">
<path fill="none" stroke="#63b8ff" d="M1112.5,-342.42C1119.18,-344.85 1125.92,-347.71 1132,-351 1151.69,-361.67 1171.4,-377.9 1185.12,-390.31"/>
<polygon fill="#63b8ff" stroke="#63b8ff" points="1182.39,-392.55 1192.1,-396.79 1187.15,-387.42 1182.39,-392.55"/>
</a>
</g>
</g>
<!-- Node31&#45;&gt;Node31 -->
<g id="edge102_Node000031_Node000031" class="edge">
<title>Node31&#45;&gt;Node31</title>
<g id="a_edge102_Node000031_Node000031"><a xlink:title=" ">
<path fill="none" stroke="#63b8ff" d="M1187.66,-418.34C1180.46,-426.98 1186.07,-436 1204.5,-436 1214.58,-436 1220.82,-433.3 1223.23,-429.44"/>
<polygon fill="#63b8ff" stroke="#63b8ff" points="1226.73,-429.1 1221.6,-419.83 1219.83,-430.28 1226.73,-429.1"/>
</a>
</g>
</g>
<!-- Node32&#45;&gt;Node9 -->
<g id="edge115_Node000032_Node000009" class="edge">
<title>Node32&#45;&gt;Node9</title>
<g id="a_edge115_Node000032_Node000009"><a xlink:title=" ">
<path fill="none" stroke="#63b8ff" d="M462.41,-390C473.33,-390 484.63,-390 495.63,-390"/>
<polygon fill="#63b8ff" stroke="#63b8ff" points="495.43,-393.5 505.43,-390 495.43,-386.5 495.43,-393.5"/>
</a>
</g>
</g>
<!-- Node33 -->
<g id="Node000033" class="node">
<title>Node33</title>
<g id="a_Node000033"><a xlink:href="$fopencv_8cpp.html#a154cb9c9b19db5ba6c4df73e72c98256" xlink:title=" ">
<polygon fill="white" stroke="#666666" points="829.25,-456 675.25,-456 675.25,-424 829.25,-424 829.25,-456"/>
<text text-anchor="start" x="683.25" y="-442.5" font-family="Helvetica,sans-Serif" font-size="10.00">cvmtfMultipleTemplateCompare</text>
<text text-anchor="middle" x="752.25" y="-430.5" font-family="Helvetica,sans-Serif" font-size="10.00">MultipleTemplate</text>
</a>
</g>
</g>
<!-- Node32&#45;&gt;Node33 -->
<g id="edge111_Node000032_Node000033" class="edge">
<title>Node32&#45;&gt;Node33</title>
<g id="a_edge111_Node000032_Node000033"><a xlink:title=" ">
<path fill="none" stroke="#63b8ff" d="M449.45,-400.48C466.28,-403.4 484.73,-406.47 501.75,-409 555.41,-416.97 615.78,-424.51 663.69,-430.16"/>
<polygon fill="#63b8ff" stroke="#63b8ff" points="663.12,-433.62 673.46,-431.3 663.93,-426.66 663.12,-433.62"/>
</a>
</g>
</g>
<!-- Node33&#45;&gt;Node7 -->
<g id="edge114_Node000033_Node000007" class="edge">
<title>Node33&#45;&gt;Node7</title>
<g id="a_edge114_Node000033_Node000007"><a xlink:title=" ">
<path fill="none" stroke="#63b8ff" d="M828.16,-423.59C887.44,-410.6 968.68,-392.8 1020.95,-381.35"/>
<polygon fill="#63b8ff" stroke="#63b8ff" points="1021.47,-384.82 1030.49,-379.26 1019.97,-377.98 1021.47,-384.82"/>
</a>
</g>
</g>
<!-- Node33&#45;&gt;Node29 -->
<g id="edge112_Node000033_Node000029" class="edge">
<title>Node33&#45;&gt;Node29</title>
<g id="a_edge112_Node000033_Node000029"><a xlink:title=" ">
<path fill="none" stroke="#63b8ff" d="M800.17,-423.52C810.05,-419.32 820.22,-414.44 829.25,-409 857.34,-392.1 885.68,-366.9 903.37,-349.98"/>
<polygon fill="#63b8ff" stroke="#63b8ff" points="905.34,-352.95 910.06,-343.47 900.45,-347.94 905.34,-352.95"/>
</a>
</g>
</g>
<!-- Node33&#45;&gt;Node31 -->
<g id="edge113_Node000033_Node000031" class="edge">
<title>Node33&#45;&gt;Node31</title>
<g id="a_edge113_Node000033_Node000031"><a xlink:title=" ">
<path fill="none" stroke="#63b8ff" d="M829.7,-439.63C906.39,-438.5 1027.76,-434.61 1132,-422 1142.31,-420.75 1153.36,-418.87 1163.62,-416.88"/>
<polygon fill="#63b8ff" stroke="#63b8ff" points="1164.19,-420.33 1173.29,-414.92 1162.8,-413.47 1164.19,-420.33"/>
</a>
</g>
</g>
<!-- Node35&#45;&gt;Node12 -->
<g id="edge119_Node000035_Node000012" class="edge">
<title>Node35&#45;&gt;Node12</title>
<g id="a_edge119_Node000035_Node000012"><a xlink:title=" ">
<path fill="none" stroke="#63b8ff" d="M272.53,-86.35C357.15,-87.39 509.66,-91.21 639.25,-105 662.75,-107.5 688.78,-111.82 709.83,-115.71"/>
<polygon fill="#63b8ff" stroke="#63b8ff" points="709.01,-119.12 719.48,-117.53 710.3,-112.24 709.01,-119.12"/>
</a>
</g>
</g>
<!-- Node36&#45;&gt;Node12 -->
<g id="edge121_Node000036_Node000012" class="edge">
<title>Node36&#45;&gt;Node12</title>
<g id="a_edge121_Node000036_Node000012"><a xlink:title=" ">
<path fill="none" stroke="#63b8ff" d="M635.13,-124C659.95,-124 687.71,-124 709.86,-124"/>
<polygon fill="#63b8ff" stroke="#63b8ff" points="709.69,-127.5 719.69,-124 709.69,-120.5 709.69,-127.5"/>
</a>
</g>
</g>
<!-- Node38 -->
<g id="Node000038" class="node">
<title>Node38</title>
<g id="a_Node000038"><a xlink:href="$fadb_8cpp.html#aaaa05d37f22f833c0f941bf81f963504" xlink:title=" ">
<polygon fill="white" stroke="#666666" points="411.75,-58 370.25,-58 370.25,-38 411.75,-38 411.75,-58"/>
<text text-anchor="middle" x="391" y="-44.5" font-family="Helvetica,sans-Serif" font-size="10.00">swipe</text>
</a>
</g>
</g>
<!-- Node37&#45;&gt;Node38 -->
<g id="edge123_Node000037_Node000038" class="edge">
<title>Node37&#45;&gt;Node38</title>
<g id="a_edge123_Node000037_Node000038"><a xlink:title=" ">
<path fill="none" stroke="#63b8ff" d="M259.4,-48C291.51,-48 331.68,-48 358.94,-48"/>
<polygon fill="#63b8ff" stroke="#63b8ff" points="358.61,-51.5 368.61,-48 358.61,-44.5 358.61,-51.5"/>
</a>
</g>
</g>
<!-- Node39 -->
<g id="Node000039" class="node">
<title>Node39</title>
<g id="a_Node000039"><a xlink:href="$fadb_8cpp.html#a735aed1798e65a5276053c44211ce025" xlink:title=" ">
<polygon fill="white" stroke="#666666" points="589,-58 552,-58 552,-38 589,-38 589,-58"/>
<text text-anchor="middle" x="570.5" y="-44.5" font-family="Helvetica,sans-Serif" font-size="10.00">input</text>
</a>
</g>
</g>
<!-- Node38&#45;&gt;Node39 -->
<g id="edge124_Node000038_Node000039" class="edge">
<title>Node38&#45;&gt;Node39</title>
<g id="a_edge124_Node000038_Node000039"><a xlink:title=" ">
<path fill="none" stroke="#63b8ff" d="M412.02,-48C443.38,-48 504.24,-48 540.43,-48"/>
<polygon fill="#63b8ff" stroke="#63b8ff" points="540.17,-51.5 550.17,-48 540.17,-44.5 540.17,-51.5"/>
</a>
</g>
</g>
<!-- Node40 -->
<g id="Node000040" class="node">
<title>Node40</title>
<g id="a_Node000040"><a xlink:href="$fadb_8cpp.html#a0766d8b572678e0a830d45a4dcfb9d4d" xlink:title=" ">
<polygon fill="white" stroke="#666666" points="977.62,-96 867.12,-96 867.12,-76 977.62,-76 977.62,-96"/>
<text text-anchor="middle" x="922.38" y="-82.5" font-family="Helvetica,sans-Serif" font-size="10.00">runAdbLocalhostShell</text>
</a>
</g>
</g>
<!-- Node39&#45;&gt;Node40 -->
<g id="edge125_Node000039_Node000040" class="edge">
<title>Node39&#45;&gt;Node40</title>
<g id="a_edge125_Node000039_Node000040"><a xlink:title=" ">
<path fill="none" stroke="#63b8ff" d="M589.33,-49.94C637.74,-55.19 773.5,-69.94 855.66,-78.86"/>
<polygon fill="#63b8ff" stroke="#63b8ff" points="855.06,-82.32 865.38,-79.92 855.82,-75.36 855.06,-82.32"/>
</a>
</g>
</g>
<!-- Node40&#45;&gt;Node18 -->
<g id="edge126_Node000040_Node000018" class="edge">
<title>Node40&#45;&gt;Node18</title>
<g id="a_edge126_Node000040_Node000018"><a xlink:title=" ">
<path fill="none" stroke="#63b8ff" d="M964.59,-96.48C981.89,-100.89 1002.22,-106.06 1020.56,-110.72"/>
<polygon fill="#63b8ff" stroke="#63b8ff" points="1019.65,-114.1 1030.2,-113.18 1021.38,-107.32 1019.65,-114.1"/>
</a>
</g>
</g>
<!-- Node42 -->
<g id="Node000042" class="node">
<title>Node42</title>
<g id="a_Node000042"><a xlink:href="$struct_coord.html#af039d91918215598e38227e2041dc81e" xlink:title=" ">
<polygon fill="white" stroke="#666666" points="442.5,-20 339.5,-20 339.5,0 442.5,0 442.5,-20"/>
<text text-anchor="middle" x="391" y="-6.5" font-family="Helvetica,sans-Serif" font-size="10.00">Coord::showCoords</text>
</a>
</g>
</g>
<!-- Node41&#45;&gt;Node42 -->
<g id="edge128_Node000041_Node000042" class="edge">
<title>Node41&#45;&gt;Node42</title>
<g id="a_edge128_Node000041_Node000042"><a xlink:title=" ">
<path fill="none" stroke="#63b8ff" d="M251.31,-10C274.25,-10 302.75,-10 327.93,-10"/>
<polygon fill="#63b8ff" stroke="#63b8ff" points="327.73,-13.5 337.73,-10 327.73,-6.5 327.73,-13.5"/>
</a>
</g>
</g>
</g>
</svg>
