<?xml version="1.0" encoding="UTF-8" standalone="no"?>
<!DOCTYPE svg PUBLIC "-//W3C//DTD SVG 1.1//EN"
 "http://www.w3.org/Graphics/SVG/1.1/DTD/svg11.dtd">
<!-- Generated by graphviz version 12.2.0 (20241103.1931)
 -->
<!-- Title: KToken::addTokens Pages: 1 -->
<svg width="596pt" height="180pt"
 viewBox="0.00 0.00 595.50 180.00" xmlns="http://www.w3.org/2000/svg" xmlns:xlink="http://www.w3.org/1999/xlink">
<g id="graph0" class="graph" transform="scale(1 1) rotate(0) translate(4 176)">
<title>KToken::addTokens</title>
<!-- Node1 -->
<g id="Node000001" class="node">
<title>Node1</title>
<g id="a_Node000001"><a xlink:title=" ">
<polygon fill="#999999" stroke="#666666" points="587.5,-115 485.25,-115 485.25,-95 587.5,-95 587.5,-115"/>
<text text-anchor="middle" x="536.38" y="-101.5" font-family="Helvetica,sans-Serif" font-size="10.00">KToken::addTokens</text>
</a>
</g>
</g>
<!-- Node2 -->
<g id="Node000002" class="node">
<title>Node2</title>
<g id="a_Node000002"><a xlink:href="$class_flow_k_token.html#a61c9d0279bdf37b161af7c4153e92e98" xlink:title=" ">
<polygon fill="white" stroke="#666666" points="449.25,-134 326,-134 326,-114 449.25,-114 449.25,-134"/>
<text text-anchor="middle" x="387.62" y="-120.5" font-family="Helvetica,sans-Serif" font-size="10.00">FlowKToken::addTokens</text>
</a>
</g>
</g>
<!-- Node1&#45;&gt;Node2 -->
<g id="edge11_Node000001_Node000002" class="edge">
<title>Node1&#45;&gt;Node2</title>
<g id="a_edge11_Node000001_Node000002"><a xlink:title=" ">
<path fill="none" stroke="#63b8ff" d="M473.47,-113.01C465.57,-114.04 457.49,-115.08 449.61,-116.1"/>
<polygon fill="#63b8ff" stroke="#63b8ff" points="473.9,-116.49 483.37,-111.73 473,-109.55 473.9,-116.49"/>
</a>
</g>
</g>
<!-- Node3 -->
<g id="Node000003" class="node">
<title>Node3</title>
<g id="a_Node000003"><a xlink:href="$class_p_k_token.html#a533aa21d507b12c9682e3babc83c4396" xlink:title=" ">
<polygon fill="white" stroke="#666666" points="442.12,-96 333.12,-96 333.12,-76 442.12,-76 442.12,-96"/>
<text text-anchor="middle" x="387.62" y="-82.5" font-family="Helvetica,sans-Serif" font-size="10.00">PKToken::addTokens</text>
</a>
</g>
</g>
<!-- Node1&#45;&gt;Node3 -->
<g id="edge12_Node000001_Node000003" class="edge">
<title>Node1&#45;&gt;Node3</title>
<g id="a_edge12_Node000001_Node000003"><a xlink:title=" ">
<path fill="none" stroke="#63b8ff" d="M473.76,-97.02C463.37,-95.68 452.65,-94.29 442.48,-92.97"/>
<polygon fill="#63b8ff" stroke="#63b8ff" points="473,-100.45 483.37,-98.27 473.9,-93.51 473,-100.45"/>
</a>
</g>
</g>
<!-- Node4 -->
<g id="Node000004" class="node">
<title>Node4</title>
<g id="a_Node000004"><a xlink:href="$class_flow_p_k_token.html#a03998327bfce2d536cf666aaa29950da" xlink:title=" ">
<polygon fill="white" stroke="#666666" points="290,-153 160,-153 160,-133 290,-133 290,-153"/>
<text text-anchor="middle" x="225" y="-139.5" font-family="Helvetica,sans-Serif" font-size="10.00">FlowPKToken::addTokens</text>
</a>
</g>
</g>
<!-- Node3&#45;&gt;Node4 -->
<g id="edge13_Node000003_Node000004" class="edge">
<title>Node3&#45;&gt;Node4</title>
<g id="a_edge13_Node000003_Node000004"><a xlink:title=" ">
<path fill="none" stroke="#63b8ff" d="M340.93,-100C335.88,-101.64 330.82,-103.33 326,-105 300.73,-113.75 272.25,-124.68 252.16,-132.57"/>
<polygon fill="#63b8ff" stroke="#63b8ff" points="341.98,-103.34 350.44,-96.96 339.85,-96.67 341.98,-103.34"/>
</a>
</g>
</g>
<!-- Node6 -->
<g id="Node000006" class="node">
<title>Node6</title>
<g id="a_Node000006"><a xlink:href="$class_m_p_k_token.html#a9a5cbbc3269d1601a414e3dd25bfeb63" xlink:title=" ">
<polygon fill="white" stroke="#666666" points="283.62,-96 166.38,-96 166.38,-76 283.62,-76 283.62,-96"/>
<text text-anchor="middle" x="225" y="-82.5" font-family="Helvetica,sans-Serif" font-size="10.00">MPKToken::addTokens</text>
</a>
</g>
</g>
<!-- Node3&#45;&gt;Node6 -->
<g id="edge15_Node000003_Node000006" class="edge">
<title>Node3&#45;&gt;Node6</title>
<g id="a_edge15_Node000003_Node000006"><a xlink:title=" ">
<path fill="none" stroke="#63b8ff" d="M321.46,-86C309.03,-86 296.1,-86 283.92,-86"/>
<polygon fill="#63b8ff" stroke="#63b8ff" points="321.18,-89.5 331.18,-86 321.18,-82.5 321.18,-89.5"/>
</a>
</g>
</g>
<!-- Node11 -->
<g id="Node000011" class="node">
<title>Node11</title>
<g id="a_Node000011"><a xlink:href="$class_u_p_k_token.html#a17fe15dac3bae5361799314d76a63800" xlink:title=" ">
<polygon fill="white" stroke="#666666" points="283.25,-58 166.75,-58 166.75,-38 283.25,-38 283.25,-58"/>
<text text-anchor="middle" x="225" y="-44.5" font-family="Helvetica,sans-Serif" font-size="10.00">UPKToken::addTokens</text>
</a>
</g>
</g>
<!-- Node3&#45;&gt;Node11 -->
<g id="edge20_Node000003_Node000011" class="edge">
<title>Node3&#45;&gt;Node11</title>
<g id="a_edge20_Node000003_Node000011"><a xlink:title=" ">
<path fill="none" stroke="#63b8ff" d="M331.19,-72.88C311.24,-68.17 289.03,-62.91 270.17,-58.45"/>
<polygon fill="#63b8ff" stroke="#63b8ff" points="330.3,-76.27 340.84,-75.17 331.91,-69.46 330.3,-76.27"/>
</a>
</g>
</g>
<!-- Node5 -->
<g id="Node000005" class="node">
<title>Node5</title>
<g id="a_Node000005"><a xlink:href="$class_main_token.html#a4d466f7e8e8a0e9c7fa3eba722f51bcd" xlink:title=" ">
<polygon fill="white" stroke="#666666" points="120.25,-172 3.75,-172 3.75,-152 120.25,-152 120.25,-172"/>
<text text-anchor="middle" x="62" y="-158.5" font-family="Helvetica,sans-Serif" font-size="10.00">MainToken::addTokens</text>
</a>
</g>
</g>
<!-- Node4&#45;&gt;Node5 -->
<g id="edge14_Node000004_Node000005" class="edge">
<title>Node4&#45;&gt;Node5</title>
<g id="a_edge14_Node000004_Node000005"><a xlink:title=" ">
<path fill="none" stroke="#63b8ff" d="M148.54,-151.91C139.15,-153.01 129.67,-154.13 120.62,-155.2"/>
<polygon fill="#63b8ff" stroke="#63b8ff" points="148.88,-155.39 158.4,-150.74 148.06,-148.44 148.88,-155.39"/>
</a>
</g>
</g>
<!-- Node7 -->
<g id="Node000007" class="node">
<title>Node7</title>
<g id="a_Node000007"><a xlink:href="$class_b_m_p_k_token.html#aace2b852d50d884dd6da841c3fab113c" xlink:title=" ">
<polygon fill="white" stroke="#666666" points="124,-134 0,-134 0,-114 124,-114 124,-134"/>
<text text-anchor="middle" x="62" y="-120.5" font-family="Helvetica,sans-Serif" font-size="10.00">BMPKToken::addTokens</text>
</a>
</g>
</g>
<!-- Node6&#45;&gt;Node7 -->
<g id="edge16_Node000006_Node000007" class="edge">
<title>Node6&#45;&gt;Node7</title>
<g id="a_edge16_Node000006_Node000007"><a xlink:title=" ">
<path fill="none" stroke="#63b8ff" d="M168.43,-99.12C148.44,-103.83 126.18,-109.09 107.28,-113.55"/>
<polygon fill="#63b8ff" stroke="#63b8ff" points="169.18,-102.54 178.11,-96.83 167.57,-95.72 169.18,-102.54"/>
</a>
</g>
</g>
<!-- Node8 -->
<g id="Node000008" class="node">
<title>Node8</title>
<g id="a_Node000008"><a xlink:href="$class_list_token.html#a9003dd872c19760212536f6197d70f51" xlink:title=" ">
<polygon fill="white" stroke="#666666" points="117.62,-96 6.38,-96 6.38,-76 117.62,-76 117.62,-96"/>
<text text-anchor="middle" x="62" y="-82.5" font-family="Helvetica,sans-Serif" font-size="10.00">ListToken::addTokens</text>
</a>
</g>
</g>
<!-- Node6&#45;&gt;Node8 -->
<g id="edge17_Node000006_Node000008" class="edge">
<title>Node6&#45;&gt;Node8</title>
<g id="a_edge17_Node000006_Node000008"><a xlink:title=" ">
<path fill="none" stroke="#63b8ff" d="M154.38,-86C142.24,-86 129.76,-86 118.08,-86"/>
<polygon fill="#63b8ff" stroke="#63b8ff" points="154.36,-89.5 164.36,-86 154.36,-82.5 154.36,-89.5"/>
</a>
</g>
</g>
<!-- Node9 -->
<g id="Node000009" class="node">
<title>Node9</title>
<g id="a_Node000009"><a xlink:href="$class_store_token.html#a42ebff8fa5aa531bfa439cf4b9fd7613" xlink:title=" ">
<polygon fill="white" stroke="#666666" points="121.38,-58 2.62,-58 2.62,-38 121.38,-38 121.38,-58"/>
<text text-anchor="middle" x="62" y="-44.5" font-family="Helvetica,sans-Serif" font-size="10.00">StoreToken::addTokens</text>
</a>
</g>
</g>
<!-- Node6&#45;&gt;Node9 -->
<g id="edge18_Node000006_Node000009" class="edge">
<title>Node6&#45;&gt;Node9</title>
<g id="a_edge18_Node000006_Node000009"><a xlink:title=" ">
<path fill="none" stroke="#63b8ff" d="M168.43,-72.88C148.44,-68.17 126.18,-62.91 107.28,-58.45"/>
<polygon fill="#63b8ff" stroke="#63b8ff" points="167.57,-76.28 178.11,-75.17 169.18,-69.46 167.57,-76.28"/>
</a>
</g>
</g>
<!-- Node10 -->
<g id="Node000010" class="node">
<title>Node10</title>
<g id="a_Node000010"><a xlink:href="$class_wait_token.html#a0c7c5e917c640de13ee85f0361f73fb1" xlink:title=" ">
<polygon fill="white" stroke="#666666" points="119.5,-20 4.5,-20 4.5,0 119.5,0 119.5,-20"/>
<text text-anchor="middle" x="62" y="-6.5" font-family="Helvetica,sans-Serif" font-size="10.00">WaitToken::addTokens</text>
</a>
</g>
</g>
<!-- Node6&#45;&gt;Node10 -->
<g id="edge19_Node000006_Node000010" class="edge">
<title>Node6&#45;&gt;Node10</title>
<g id="a_edge19_Node000006_Node000010"><a xlink:title=" ">
<path fill="none" stroke="#63b8ff" d="M167.58,-71.13C164.96,-69.86 162.42,-68.49 160,-67 140.17,-54.83 143.75,-41.3 124,-29 118.54,-25.6 112.42,-22.76 106.23,-20.41"/>
<polygon fill="#63b8ff" stroke="#63b8ff" points="166.01,-74.27 176.58,-74.96 168.75,-67.82 166.01,-74.27"/>
</a>
</g>
</g>
</g>
</svg>
