<?xml version="1.0" encoding="UTF-8" standalone="no"?>
<!DOCTYPE svg PUBLIC "-//W3C//DTD SVG 1.1//EN"
 "http://www.w3.org/Graphics/SVG/1.1/DTD/svg11.dtd">
<!-- Generated by graphviz version 12.2.0 (20241103.1931)
 -->
<!-- Title: DirectionToken Pages: 1 -->
<svg width="194pt" height="1428pt"
 viewBox="0.00 0.00 194.00 1428.00" xmlns="http://www.w3.org/2000/svg" xmlns:xlink="http://www.w3.org/1999/xlink">
<g id="graph0" class="graph" transform="scale(1 1) rotate(0) translate(4 1424)">
<title>DirectionToken</title>
<!-- Node1 -->
<g id="Node000001" class="node">
<title>Node1</title>
<g id="a_Node000001"><a xlink:title=" ">
<polygon fill="#999999" stroke="none" points="166.5,-136 19.5,-136 19.5,0 166.5,0 166.5,-136"/>
<text text-anchor="start" x="60.38" y="-122.5" font-family="Helvetica,sans-Serif" font-size="10.00">DirectionToken</text>
<text text-anchor="start" x="91.5" y="-106.5" font-family="Helvetica,sans-Serif" font-size="10.00"> </text>
<text text-anchor="start" x="23.5" y="-90.5" font-family="Helvetica,sans-Serif" font-size="10.00">+</text>
<text text-anchor="start" x="33.5" y="-90.5" font-family="Helvetica,sans-Serif" font-size="10.00">DirectionToken()</text>
<text text-anchor="start" x="23.5" y="-74.5" font-family="Helvetica,sans-Serif" font-size="10.00">+</text>
<text text-anchor="start" x="33.5" y="-74.5" font-family="Helvetica,sans-Serif" font-size="10.00">void setOverloads()</text>
<text text-anchor="start" x="33.5" y="-62.5" font-family="Helvetica,sans-Serif" font-size="10.00"> final</text>
<text text-anchor="start" x="23.5" y="-46.5" font-family="Helvetica,sans-Serif" font-size="10.00">+</text>
<text text-anchor="start" x="33.5" y="-46.5" font-family="Helvetica,sans-Serif" font-size="10.00">DataType getDataType</text>
<text text-anchor="start" x="33.5" y="-34.5" font-family="Helvetica,sans-Serif" font-size="10.00">(TokenResult &amp;tRes) override</text>
<text text-anchor="start" x="23.88" y="-18.5" font-family="Helvetica,sans-Serif" font-size="10.00">#</text>
<text text-anchor="start" x="33.5" y="-18.5" font-family="Helvetica,sans-Serif" font-size="10.00">std::shared_ptr&lt; Tag</text>
<text text-anchor="start" x="33.5" y="-6.5" font-family="Helvetica,sans-Serif" font-size="10.00"> &gt; execute() override</text>
<polygon fill="#666666" stroke="#666666" points="19.5,-118 19.5,-118 166.5,-118 166.5,-118 19.5,-118"/>
<polygon fill="#666666" stroke="#666666" points="19.5,-102 19.5,-102 166.5,-102 166.5,-102 19.5,-102"/>
<polygon fill="none" stroke="#666666" points="19.5,0 19.5,-136 166.5,-136 166.5,0 19.5,0"/>
</a>
</g>
</g>
<!-- Node2 -->
<g id="Node000002" class="node">
<title>Node2</title>
<g id="a_Node000002"><a xlink:href="$class_u_p_k_token.html" xlink:title=" ">
<polygon fill="white" stroke="none" points="161.25,-344 24.75,-344 24.75,-172 161.25,-172 161.25,-344"/>
<text text-anchor="start" x="69.38" y="-330.5" font-family="Helvetica,sans-Serif" font-size="10.00">UPKToken</text>
<text text-anchor="start" x="29.12" y="-314.5" font-family="Helvetica,sans-Serif" font-size="10.00">#</text>
<text text-anchor="start" x="38.75" y="-314.5" font-family="Helvetica,sans-Serif" font-size="10.00">std::shared_ptr&lt; Token</text>
<text text-anchor="start" x="38.75" y="-302.5" font-family="Helvetica,sans-Serif" font-size="10.00"> &gt; uniqueToken</text>
<text text-anchor="start" x="28.75" y="-286.5" font-family="Helvetica,sans-Serif" font-size="10.00">+</text>
<text text-anchor="start" x="38.75" y="-286.5" font-family="Helvetica,sans-Serif" font-size="10.00">UPKToken()</text>
<text text-anchor="start" x="28.75" y="-270.5" font-family="Helvetica,sans-Serif" font-size="10.00">+</text>
<text text-anchor="start" x="38.75" y="-270.5" font-family="Helvetica,sans-Serif" font-size="10.00">void dispatchArguments</text>
<text text-anchor="start" x="38.75" y="-258.5" font-family="Helvetica,sans-Serif" font-size="10.00">() override</text>
<text text-anchor="start" x="28.75" y="-242.5" font-family="Helvetica,sans-Serif" font-size="10.00">+</text>
<text text-anchor="start" x="38.75" y="-242.5" font-family="Helvetica,sans-Serif" font-size="10.00">bool addTokens(IteratorList</text>
<text text-anchor="start" x="38.75" y="-230.5" font-family="Helvetica,sans-Serif" font-size="10.00">&lt; Token &gt; &amp;tl, TokenResult</text>
<text text-anchor="start" x="38.75" y="-218.5" font-family="Helvetica,sans-Serif" font-size="10.00"> &amp;tRes) override</text>
<text text-anchor="start" x="29.12" y="-202.5" font-family="Helvetica,sans-Serif" font-size="10.00">#</text>
<text text-anchor="start" x="38.75" y="-202.5" font-family="Helvetica,sans-Serif" font-size="10.00">void showArguments</text>
<text text-anchor="start" x="38.75" y="-190.5" font-family="Helvetica,sans-Serif" font-size="10.00">(const int nestedLayer)</text>
<text text-anchor="start" x="38.75" y="-178.5" font-family="Helvetica,sans-Serif" font-size="10.00"> override</text>
<polygon fill="#666666" stroke="#666666" points="24.75,-326 24.75,-326 161.25,-326 161.25,-326 24.75,-326"/>
<polygon fill="#666666" stroke="#666666" points="24.75,-298 24.75,-298 36.75,-298 36.75,-298 24.75,-298"/>
<polygon fill="#666666" stroke="#666666" points="36.75,-298 36.75,-298 161.25,-298 161.25,-298 36.75,-298"/>
<polygon fill="none" stroke="#666666" points="24.75,-172 24.75,-344 161.25,-344 161.25,-172 24.75,-172"/>
</a>
</g>
</g>
<!-- Node2&#45;&gt;Node1 -->
<g id="edge5_Node000001_Node000002" class="edge">
<title>Node2&#45;&gt;Node1</title>
<g id="a_edge5_Node000001_Node000002"><a xlink:title=" ">
<path fill="none" stroke="#63b8ff" d="M93,-160.64C93,-152.24 93,-143.87 93,-135.8"/>
<polygon fill="none" stroke="#63b8ff" points="89.5,-160.56 93,-170.56 96.5,-160.56 89.5,-160.56"/>
</a>
</g>
</g>
<!-- Node3 -->
<g id="Node000003" class="node">
<title>Node3</title>
<g id="a_Node000003"><a xlink:href="$class_p_k_token.html" xlink:title=" ">
<polygon fill="white" stroke="none" points="186,-908 0,-908 0,-380 186,-380 186,-908"/>
<text text-anchor="start" x="73.12" y="-894.5" font-family="Helvetica,sans-Serif" font-size="10.00">PKToken</text>
<text text-anchor="start" x="4.38" y="-878.5" font-family="Helvetica,sans-Serif" font-size="10.00">#</text>
<text text-anchor="start" x="14" y="-878.5" font-family="Helvetica,sans-Serif" font-size="10.00">ArgumentsOverload argsOverload</text>
<text text-anchor="start" x="4.38" y="-862.5" font-family="Helvetica,sans-Serif" font-size="10.00">#</text>
<text text-anchor="start" x="14" y="-862.5" font-family="Helvetica,sans-Serif" font-size="10.00">std::vector&lt; std::shared</text>
<text text-anchor="start" x="14" y="-850.5" font-family="Helvetica,sans-Serif" font-size="10.00">_ptr&lt; Token &gt; &gt; argTokens</text>
<text text-anchor="start" x="4" y="-834.5" font-family="Helvetica,sans-Serif" font-size="10.00">+</text>
<text text-anchor="start" x="14" y="-834.5" font-family="Helvetica,sans-Serif" font-size="10.00">PKToken()</text>
<text text-anchor="start" x="4" y="-818.5" font-family="Helvetica,sans-Serif" font-size="10.00">+</text>
<text text-anchor="start" x="14" y="-818.5" font-family="Helvetica,sans-Serif" font-size="10.00">void showTokenTree</text>
<text text-anchor="start" x="14" y="-806.5" font-family="Helvetica,sans-Serif" font-size="10.00">(const int nestedLayer)</text>
<text text-anchor="start" x="14" y="-794.5" font-family="Helvetica,sans-Serif" font-size="10.00"> override</text>
<text text-anchor="start" x="4" y="-778.5" font-family="Helvetica,sans-Serif" font-size="10.00">+</text>
<text text-anchor="start" x="14" y="-778.5" font-family="Helvetica,sans-Serif" font-size="10.00">bool addTokens(IteratorList</text>
<text text-anchor="start" x="14" y="-766.5" font-family="Helvetica,sans-Serif" font-size="10.00">&lt; Token &gt; &amp;tl, TokenResult</text>
<text text-anchor="start" x="14" y="-754.5" font-family="Helvetica,sans-Serif" font-size="10.00"> &amp;tRes) override</text>
<text text-anchor="start" x="4.38" y="-738.5" font-family="Helvetica,sans-Serif" font-size="10.00">#</text>
<text text-anchor="start" x="14" y="-738.5" font-family="Helvetica,sans-Serif" font-size="10.00">bool addToken(TokenVALUE</text>
<text text-anchor="start" x="14" y="-726.5" font-family="Helvetica,sans-Serif" font-size="10.00"> tVal, IteratorList&lt; Token</text>
<text text-anchor="start" x="14" y="-714.5" font-family="Helvetica,sans-Serif" font-size="10.00"> &gt; &amp;tl, TokenResult &amp;tRes)</text>
<text text-anchor="start" x="4.38" y="-698.5" font-family="Helvetica,sans-Serif" font-size="10.00">#</text>
<text text-anchor="start" x="14" y="-698.5" font-family="Helvetica,sans-Serif" font-size="10.00">bool addType(DataType</text>
<text text-anchor="start" x="14" y="-686.5" font-family="Helvetica,sans-Serif" font-size="10.00"> tVal, IteratorList&lt;</text>
<text text-anchor="start" x="14" y="-674.5" font-family="Helvetica,sans-Serif" font-size="10.00"> Token &gt; &amp;tl, TokenResult</text>
<text text-anchor="start" x="14" y="-662.5" font-family="Helvetica,sans-Serif" font-size="10.00"> &amp;tRes)</text>
<text text-anchor="start" x="4.38" y="-646.5" font-family="Helvetica,sans-Serif" font-size="10.00">#</text>
<text text-anchor="start" x="14" y="-646.5" font-family="Helvetica,sans-Serif" font-size="10.00">bool addType(std::vector</text>
<text text-anchor="start" x="14" y="-634.5" font-family="Helvetica,sans-Serif" font-size="10.00">&lt; DataType &gt; listTypes,</text>
<text text-anchor="start" x="14" y="-622.5" font-family="Helvetica,sans-Serif" font-size="10.00"> IteratorList&lt; Token &gt; &amp;tl,</text>
<text text-anchor="start" x="14" y="-610.5" font-family="Helvetica,sans-Serif" font-size="10.00"> TokenResult &amp;tRes)</text>
<text text-anchor="start" x="4.38" y="-594.5" font-family="Helvetica,sans-Serif" font-size="10.00">#</text>
<text text-anchor="start" x="14" y="-594.5" font-family="Helvetica,sans-Serif" font-size="10.00">bool addNumber(IteratorList</text>
<text text-anchor="start" x="14" y="-582.5" font-family="Helvetica,sans-Serif" font-size="10.00">&lt; Token &gt; &amp;tl, TokenResult &amp;tRes)</text>
<text text-anchor="start" x="4.38" y="-566.5" font-family="Helvetica,sans-Serif" font-size="10.00">#</text>
<text text-anchor="start" x="14" y="-566.5" font-family="Helvetica,sans-Serif" font-size="10.00">bool addDataType(Iterator</text>
<text text-anchor="start" x="14" y="-554.5" font-family="Helvetica,sans-Serif" font-size="10.00">List&lt; Token &gt; &amp;tl, TokenResult &amp;tRes)</text>
<text text-anchor="start" x="4.38" y="-538.5" font-family="Helvetica,sans-Serif" font-size="10.00">#</text>
<text text-anchor="start" x="14" y="-538.5" font-family="Helvetica,sans-Serif" font-size="10.00">bool addInteger(Iterator</text>
<text text-anchor="start" x="14" y="-526.5" font-family="Helvetica,sans-Serif" font-size="10.00">List&lt; Token &gt; &amp;tl, TokenResult</text>
<text text-anchor="start" x="14" y="-514.5" font-family="Helvetica,sans-Serif" font-size="10.00"> &amp;tRes)</text>
<text text-anchor="start" x="4.38" y="-498.5" font-family="Helvetica,sans-Serif" font-size="10.00">#</text>
<text text-anchor="start" x="14" y="-498.5" font-family="Helvetica,sans-Serif" font-size="10.00">bool addFloat(IteratorList</text>
<text text-anchor="start" x="14" y="-486.5" font-family="Helvetica,sans-Serif" font-size="10.00">&lt; Token &gt; &amp;tl, TokenResult &amp;tRes)</text>
<text text-anchor="start" x="4.38" y="-470.5" font-family="Helvetica,sans-Serif" font-size="10.00">#</text>
<text text-anchor="start" x="14" y="-470.5" font-family="Helvetica,sans-Serif" font-size="10.00">bool addCoord(IteratorList</text>
<text text-anchor="start" x="14" y="-458.5" font-family="Helvetica,sans-Serif" font-size="10.00">&lt; Token &gt; &amp;tl, TokenResult &amp;tRes)</text>
<text text-anchor="start" x="4.38" y="-442.5" font-family="Helvetica,sans-Serif" font-size="10.00">#</text>
<text text-anchor="start" x="14" y="-442.5" font-family="Helvetica,sans-Serif" font-size="10.00">bool addZone(IteratorList</text>
<text text-anchor="start" x="14" y="-430.5" font-family="Helvetica,sans-Serif" font-size="10.00">&lt; Token &gt; &amp;tl, TokenResult &amp;tRes)</text>
<text text-anchor="start" x="4.38" y="-414.5" font-family="Helvetica,sans-Serif" font-size="10.00">#</text>
<text text-anchor="start" x="14" y="-414.5" font-family="Helvetica,sans-Serif" font-size="10.00">bool addBool(IteratorList</text>
<text text-anchor="start" x="14" y="-402.5" font-family="Helvetica,sans-Serif" font-size="10.00">&lt; Token &gt; &amp;tl, TokenResult &amp;tRes)</text>
<text text-anchor="start" x="14" y="-386.5" font-family="Helvetica,sans-Serif" font-size="10.00">and 10 more...</text>
<polygon fill="#666666" stroke="#666666" points="0,-890 0,-890 186,-890 186,-890 0,-890"/>
<polygon fill="#666666" stroke="#666666" points="0,-846 0,-846 12,-846 12,-846 0,-846"/>
<polygon fill="#666666" stroke="#666666" points="12,-846 12,-846 186,-846 186,-846 12,-846"/>
<polygon fill="none" stroke="#666666" points="0,-380 0,-908 186,-908 186,-380 0,-380"/>
</a>
</g>
</g>
<!-- Node3&#45;&gt;Node2 -->
<g id="edge6_Node000002_Node000003" class="edge">
<title>Node3&#45;&gt;Node2</title>
<g id="a_edge6_Node000002_Node000003"><a xlink:title=" ">
<path fill="none" stroke="#63b8ff" d="M93,-369C93,-360.25 93,-351.77 93,-343.67"/>
<polygon fill="none" stroke="#63b8ff" points="89.5,-368.72 93,-378.72 96.5,-368.72 89.5,-368.72"/>
</a>
</g>
</g>
<!-- Node4 -->
<g id="Node000004" class="node">
<title>Node4</title>
<g id="a_Node000004"><a xlink:href="$class_k_token.html" xlink:title=" ">
<polygon fill="white" stroke="none" points="160.88,-1020 25.12,-1020 25.12,-944 160.88,-944 160.88,-1020"/>
<text text-anchor="start" x="76.5" y="-1006.5" font-family="Helvetica,sans-Serif" font-size="10.00">KToken</text>
<text text-anchor="start" x="91.5" y="-990.5" font-family="Helvetica,sans-Serif" font-size="10.00"> </text>
<text text-anchor="start" x="29.12" y="-974.5" font-family="Helvetica,sans-Serif" font-size="10.00">#</text>
<text text-anchor="start" x="38.38" y="-974.5" font-family="Helvetica,sans-Serif" font-size="10.00">bool addTokens(IteratorList</text>
<text text-anchor="start" x="38.38" y="-962.5" font-family="Helvetica,sans-Serif" font-size="10.00">&lt; Token &gt; &amp;tl, TokenResult</text>
<text text-anchor="start" x="38.38" y="-950.5" font-family="Helvetica,sans-Serif" font-size="10.00"> &amp;tRes) override</text>
<polygon fill="#666666" stroke="#666666" points="25.12,-1002 25.12,-1002 160.88,-1002 160.88,-1002 25.12,-1002"/>
<polygon fill="#666666" stroke="#666666" points="25.12,-986 25.12,-986 160.88,-986 160.88,-986 25.12,-986"/>
<polygon fill="none" stroke="#666666" points="25.12,-944 25.12,-1020 160.88,-1020 160.88,-944 25.12,-944"/>
</a>
</g>
</g>
<!-- Node4&#45;&gt;Node3 -->
<g id="edge7_Node000003_Node000004" class="edge">
<title>Node4&#45;&gt;Node3</title>
<g id="a_edge7_Node000003_Node000004"><a xlink:title=" ">
<path fill="none" stroke="#63b8ff" d="M93,-932.66C93,-925.01 93,-916.68 93,-907.82"/>
<polygon fill="none" stroke="#63b8ff" points="89.5,-932.57 93,-942.57 96.5,-932.57 89.5,-932.57"/>
</a>
</g>
</g>
<!-- Node5 -->
<g id="Node000005" class="node">
<title>Node5</title>
<g id="a_Node000005"><a xlink:href="$class_token.html" xlink:title=" ">
<polygon fill="white" stroke="none" points="163.88,-1420 22.12,-1420 22.12,-1056 163.88,-1056 163.88,-1420"/>
<text text-anchor="start" x="79.88" y="-1406.5" font-family="Helvetica,sans-Serif" font-size="10.00">Token</text>
<text text-anchor="start" x="26.5" y="-1390.5" font-family="Helvetica,sans-Serif" font-size="10.00">#</text>
<text text-anchor="start" x="36.12" y="-1390.5" font-family="Helvetica,sans-Serif" font-size="10.00">std::string tokenText</text>
<text text-anchor="start" x="26.5" y="-1374.5" font-family="Helvetica,sans-Serif" font-size="10.00">#</text>
<text text-anchor="start" x="36.12" y="-1374.5" font-family="Helvetica,sans-Serif" font-size="10.00">TokenVALUE tValue</text>
<text text-anchor="start" x="26.5" y="-1358.5" font-family="Helvetica,sans-Serif" font-size="10.00">#</text>
<text text-anchor="start" x="36.12" y="-1358.5" font-family="Helvetica,sans-Serif" font-size="10.00">int line</text>
<text text-anchor="start" x="26.12" y="-1342.5" font-family="Helvetica,sans-Serif" font-size="10.00">+</text>
<text text-anchor="start" x="36.12" y="-1342.5" font-family="Helvetica,sans-Serif" font-size="10.00">Token()</text>
<text text-anchor="start" x="26.12" y="-1326.5" font-family="Helvetica,sans-Serif" font-size="10.00">+</text>
<text text-anchor="start" x="36.12" y="-1326.5" font-family="Helvetica,sans-Serif" font-size="10.00">virtual DataType getData</text>
<text text-anchor="start" x="36.12" y="-1314.5" font-family="Helvetica,sans-Serif" font-size="10.00">Type(TokenResult &amp;tRes)</text>
<text text-anchor="start" x="26.12" y="-1298.5" font-family="Helvetica,sans-Serif" font-size="10.00">+</text>
<text text-anchor="start" x="36.12" y="-1298.5" font-family="Helvetica,sans-Serif" font-size="10.00">virtual void showTokenTree</text>
<text text-anchor="start" x="36.12" y="-1286.5" font-family="Helvetica,sans-Serif" font-size="10.00">(const int nestedLayer)</text>
<text text-anchor="start" x="26.12" y="-1270.5" font-family="Helvetica,sans-Serif" font-size="10.00">+</text>
<text text-anchor="start" x="36.12" y="-1270.5" font-family="Helvetica,sans-Serif" font-size="10.00">TokenVALUE getValue()</text>
<text text-anchor="start" x="26.12" y="-1254.5" font-family="Helvetica,sans-Serif" font-size="10.00">+</text>
<text text-anchor="start" x="36.12" y="-1254.5" font-family="Helvetica,sans-Serif" font-size="10.00">bool addError(TokenResult</text>
<text text-anchor="start" x="36.12" y="-1242.5" font-family="Helvetica,sans-Serif" font-size="10.00"> &amp;tRes, TokenVALUE value,</text>
<text text-anchor="start" x="36.12" y="-1230.5" font-family="Helvetica,sans-Serif" font-size="10.00"> ErrorType et=ErrorType::</text>
<text text-anchor="start" x="36.12" y="-1218.5" font-family="Helvetica,sans-Serif" font-size="10.00">MISSING)</text>
<text text-anchor="start" x="26.12" y="-1202.5" font-family="Helvetica,sans-Serif" font-size="10.00">+</text>
<text text-anchor="start" x="36.12" y="-1202.5" font-family="Helvetica,sans-Serif" font-size="10.00">bool addError(TokenResult</text>
<text text-anchor="start" x="36.12" y="-1190.5" font-family="Helvetica,sans-Serif" font-size="10.00"> &amp;tRes, DataType type)</text>
<text text-anchor="start" x="26.12" y="-1174.5" font-family="Helvetica,sans-Serif" font-size="10.00">+</text>
<text text-anchor="start" x="36.12" y="-1174.5" font-family="Helvetica,sans-Serif" font-size="10.00">std::string getTokenText()</text>
<text text-anchor="start" x="26.12" y="-1158.5" font-family="Helvetica,sans-Serif" font-size="10.00">+</text>
<text text-anchor="start" x="36.12" y="-1158.5" font-family="Helvetica,sans-Serif" font-size="10.00">int getLine()</text>
<text text-anchor="start" x="26.12" y="-1142.5" font-family="Helvetica,sans-Serif" font-size="10.00">+</text>
<text text-anchor="start" x="36.12" y="-1142.5" font-family="Helvetica,sans-Serif" font-size="10.00">bool hasValue(TokenVALUE</text>
<text text-anchor="start" x="36.12" y="-1130.5" font-family="Helvetica,sans-Serif" font-size="10.00"> value) const</text>
<text text-anchor="start" x="26.12" y="-1114.5" font-family="Helvetica,sans-Serif" font-size="10.00">+</text>
<text text-anchor="start" x="36.12" y="-1114.5" font-family="Helvetica,sans-Serif" font-size="10.00">virtual bool addTokens</text>
<text text-anchor="start" x="36.12" y="-1102.5" font-family="Helvetica,sans-Serif" font-size="10.00">(IteratorList&lt; Token &gt;</text>
<text text-anchor="start" x="36.12" y="-1090.5" font-family="Helvetica,sans-Serif" font-size="10.00"> &amp;tl, TokenResult &amp;tRes)</text>
<text text-anchor="start" x="26.12" y="-1074.5" font-family="Helvetica,sans-Serif" font-size="10.00">+</text>
<text text-anchor="start" x="36.12" y="-1074.5" font-family="Helvetica,sans-Serif" font-size="10.00">virtual std::shared</text>
<text text-anchor="start" x="36.12" y="-1062.5" font-family="Helvetica,sans-Serif" font-size="10.00">_ptr&lt; Tag &gt; execute()</text>
<polygon fill="#666666" stroke="#666666" points="22.12,-1402 22.12,-1402 163.88,-1402 163.88,-1402 22.12,-1402"/>
<polygon fill="#666666" stroke="#666666" points="22.12,-1354 22.12,-1354 34.12,-1354 34.12,-1354 22.12,-1354"/>
<polygon fill="#666666" stroke="#666666" points="34.12,-1354 34.12,-1354 163.88,-1354 163.88,-1354 34.12,-1354"/>
<polygon fill="none" stroke="#666666" points="22.12,-1056 22.12,-1420 163.88,-1420 163.88,-1056 22.12,-1056"/>
</a>
</g>
</g>
<!-- Node5&#45;&gt;Node4 -->
<g id="edge8_Node000004_Node000005" class="edge">
<title>Node5&#45;&gt;Node4</title>
<g id="a_edge8_Node000004_Node000005"><a xlink:title=" ">
<path fill="none" stroke="#63b8ff" d="M93,-1044.8C93,-1035.75 93,-1027.31 93,-1019.75"/>
<polygon fill="none" stroke="#63b8ff" points="89.5,-1044.61 93,-1054.61 96.5,-1044.61 89.5,-1044.61"/>
</a>
</g>
</g>
</g>
</svg>
