<?xml version="1.0" encoding="UTF-8" standalone="no"?>
<!DOCTYPE svg PUBLIC "-//W3C//DTD SVG 1.1//EN"
 "http://www.w3.org/Graphics/SVG/1.1/DTD/svg11.dtd">
<!-- Generated by graphviz version 12.2.0 (20241103.1931)
 -->
<!-- Title: Arguments::approveType Pages: 1 -->
<svg width="449pt" height="66pt"
 viewBox="0.00 0.00 449.00 66.00" xmlns="http://www.w3.org/2000/svg" xmlns:xlink="http://www.w3.org/1999/xlink">
<g id="graph0" class="graph" transform="scale(1 1) rotate(0) translate(4 62)">
<title>Arguments::approveType</title>
<!-- Node1 -->
<g id="Node000001" class="node">
<title>Node1</title>
<g id="a_Node000001"><a xlink:title=" ">
<polygon fill="#999999" stroke="#666666" points="124.75,-39 0,-39 0,-19 124.75,-19 124.75,-39"/>
<text text-anchor="middle" x="62.38" y="-25.5" font-family="Helvetica,sans-Serif" font-size="10.00">Arguments::approveType</text>
</a>
</g>
</g>
<!-- Node2 -->
<g id="Node000002" class="node">
<title>Node2</title>
<g id="a_Node000002"><a xlink:href="$class_arguments.html#a19ddf4e45cbd1f97228ba672be9d373e" xlink:title=" ">
<polygon fill="white" stroke="#666666" points="287,-58 191.5,-58 191.5,-38 287,-38 287,-58"/>
<text text-anchor="middle" x="239.25" y="-44.5" font-family="Helvetica,sans-Serif" font-size="10.00">Arguments::ended</text>
</a>
</g>
</g>
<!-- Node1&#45;&gt;Node2 -->
<g id="edge4_Node000001_Node000002" class="edge">
<title>Node1&#45;&gt;Node2</title>
<g id="a_edge4_Node000001_Node000002"><a xlink:title=" ">
<path fill="none" stroke="#63b8ff" d="M125.03,-35.7C142.86,-37.64 162.25,-39.74 179.87,-41.66"/>
<polygon fill="#63b8ff" stroke="#63b8ff" points="179.34,-45.12 189.66,-42.72 180.09,-38.16 179.34,-45.12"/>
</a>
</g>
</g>
<!-- Node4 -->
<g id="Node000004" class="node">
<title>Node4</title>
<g id="a_Node000004"><a xlink:href="$class_arguments.html#a6e1034236428ba4e248db47e93183e06" xlink:title=" ">
<polygon fill="white" stroke="#666666" points="317.75,-20 160.75,-20 160.75,0 317.75,0 317.75,-20"/>
<text text-anchor="middle" x="239.25" y="-6.5" font-family="Helvetica,sans-Serif" font-size="10.00">Arguments::getCurrentDataType</text>
</a>
</g>
</g>
<!-- Node1&#45;&gt;Node4 -->
<g id="edge6_Node000001_Node000004" class="edge">
<title>Node1&#45;&gt;Node4</title>
<g id="a_edge6_Node000001_Node000004"><a xlink:title=" ">
<path fill="none" stroke="#63b8ff" d="M125.03,-22.3C132.78,-21.46 140.83,-20.58 148.9,-19.71"/>
<polygon fill="#63b8ff" stroke="#63b8ff" points="149.23,-23.19 158.8,-18.63 148.48,-16.23 149.23,-23.19"/>
</a>
</g>
</g>
<!-- Node3 -->
<g id="Node000003" class="node">
<title>Node3</title>
<g id="a_Node000003"><a xlink:href="$class_arguments.html#a518743549f5e7b43a05b7f34e004e217" xlink:title=" ">
<polygon fill="white" stroke="#666666" points="441,-58 353.75,-58 353.75,-38 441,-38 441,-58"/>
<text text-anchor="middle" x="397.38" y="-44.5" font-family="Helvetica,sans-Serif" font-size="10.00">Arguments::size</text>
</a>
</g>
</g>
<!-- Node2&#45;&gt;Node3 -->
<g id="edge5_Node000002_Node000003" class="edge">
<title>Node2&#45;&gt;Node3</title>
<g id="a_edge5_Node000002_Node000003"><a xlink:title=" ">
<path fill="none" stroke="#63b8ff" d="M287.09,-48C304.33,-48 324.01,-48 341.87,-48"/>
<polygon fill="#63b8ff" stroke="#63b8ff" points="341.78,-51.5 351.78,-48 341.78,-44.5 341.78,-51.5"/>
</a>
</g>
</g>
</g>
</svg>
