<?xml version="1.0" encoding="UTF-8" standalone="no"?>
<!DOCTYPE svg PUBLIC "-//W3C//DTD SVG 1.1//EN"
 "http://www.w3.org/Graphics/SVG/1.1/DTD/svg11.dtd">
<!-- Generated by graphviz version 12.2.0 (20241103.1931)
 -->
<!-- Title: FlowTag::checkCondition Pages: 1 -->
<svg width="361pt" height="218pt"
 viewBox="0.00 0.00 361.25 218.00" xmlns="http://www.w3.org/2000/svg" xmlns:xlink="http://www.w3.org/1999/xlink">
<g id="graph0" class="graph" transform="scale(1 1) rotate(0) translate(4 214)">
<title>FlowTag::checkCondition</title>
<!-- Node1 -->
<g id="Node000001" class="node">
<title>Node1</title>
<g id="a_Node000001"><a xlink:title=" ">
<polygon fill="#999999" stroke="#666666" points="126.25,-115 0,-115 0,-95 126.25,-95 126.25,-115"/>
<text text-anchor="middle" x="63.12" y="-101.5" font-family="Helvetica,sans-Serif" font-size="10.00">FlowTag::checkCondition</text>
</a>
</g>
</g>
<!-- Node2 -->
<g id="Node000002" class="node">
<title>Node2</title>
<g id="a_Node000002"><a xlink:href="$_tags_8cpp.html#a760d219c228224543b5e154be938a6c2" xlink:title=" ">
<polygon fill="white" stroke="#666666" points="232.25,-115 162.25,-115 162.25,-95 232.25,-95 232.25,-115"/>
<text text-anchor="middle" x="197.25" y="-101.5" font-family="Helvetica,sans-Serif" font-size="10.00">executeBool</text>
</a>
</g>
</g>
<!-- Node1&#45;&gt;Node2 -->
<g id="edge8_Node000001_Node000002" class="edge">
<title>Node1&#45;&gt;Node2</title>
<g id="a_edge8_Node000001_Node000002"><a xlink:title=" ">
<path fill="none" stroke="#63b8ff" d="M126.71,-105C134.77,-105 142.9,-105 150.62,-105"/>
<polygon fill="#63b8ff" stroke="#63b8ff" points="150.44,-108.5 160.44,-105 150.44,-101.5 150.44,-108.5"/>
</a>
</g>
</g>
<!-- Node3 -->
<g id="Node000003" class="node">
<title>Node3</title>
<g id="a_Node000003"><a xlink:href="$_tags_8cpp.html#af91452b821388e3a5bd807713149302e" xlink:title=" ">
<polygon fill="white" stroke="#666666" points="342,-210 279.5,-210 279.5,-190 342,-190 342,-210"/>
<text text-anchor="middle" x="310.75" y="-196.5" font-family="Helvetica,sans-Serif" font-size="10.00">getAndTag</text>
</a>
</g>
</g>
<!-- Node2&#45;&gt;Node3 -->
<g id="edge9_Node000002_Node000003" class="edge">
<title>Node2&#45;&gt;Node3</title>
<g id="a_edge9_Node000002_Node000003"><a xlink:title=" ">
<path fill="none" stroke="#63b8ff" d="M205.6,-115.31C217.33,-131.17 241.68,-161.72 268.25,-181 269.79,-182.12 271.41,-183.2 273.08,-184.23"/>
<polygon fill="#63b8ff" stroke="#63b8ff" points="271.19,-187.19 281.64,-188.92 274.55,-181.05 271.19,-187.19"/>
</a>
</g>
</g>
<!-- Node4 -->
<g id="Node000004" class="node">
<title>Node4</title>
<g id="a_Node000004"><a xlink:href="$_tags_8cpp.html#ada36a59d6eb45b5f395f63dcebd48b61" xlink:title=" ">
<polygon fill="white" stroke="#666666" points="343.12,-172 278.38,-172 278.38,-152 343.12,-152 343.12,-172"/>
<text text-anchor="middle" x="310.75" y="-158.5" font-family="Helvetica,sans-Serif" font-size="10.00">getBoolTag</text>
</a>
</g>
</g>
<!-- Node2&#45;&gt;Node4 -->
<g id="edge10_Node000002_Node000004" class="edge">
<title>Node2&#45;&gt;Node4</title>
<g id="a_edge10_Node000002_Node000004"><a xlink:title=" ">
<path fill="none" stroke="#63b8ff" d="M216.49,-115.35C230.52,-123.19 250.44,-134.1 268.25,-143 270.79,-144.27 273.44,-145.56 276.11,-146.83"/>
<polygon fill="#63b8ff" stroke="#63b8ff" points="274.44,-149.92 284.98,-150.98 277.41,-143.58 274.44,-149.92"/>
</a>
</g>
</g>
<!-- Node5 -->
<g id="Node000005" class="node">
<title>Node5</title>
<g id="a_Node000005"><a xlink:href="$_tags_8cpp.html#a084ac86e8860745ecc3d46c0a0ec9043" xlink:title=" ">
<polygon fill="white" stroke="#666666" points="353.25,-134 268.25,-134 268.25,-114 353.25,-114 353.25,-134"/>
<text text-anchor="middle" x="310.75" y="-120.5" font-family="Helvetica,sans-Serif" font-size="10.00">getCompareTag</text>
</a>
</g>
</g>
<!-- Node2&#45;&gt;Node5 -->
<g id="edge11_Node000002_Node000005" class="edge">
<title>Node2&#45;&gt;Node5</title>
<g id="a_edge11_Node000002_Node000005"><a xlink:title=" ">
<path fill="none" stroke="#63b8ff" d="M232.61,-110.86C240.27,-112.16 248.56,-113.57 256.76,-114.97"/>
<polygon fill="#63b8ff" stroke="#63b8ff" points="255.9,-118.37 266.35,-116.6 257.08,-111.47 255.9,-118.37"/>
</a>
</g>
</g>
<!-- Node6 -->
<g id="Node000006" class="node">
<title>Node6</title>
<g id="a_Node000006"><a xlink:href="$_tags_8cpp.html#aad17b0d48f011d5869f82adb31915669" xlink:title=" ">
<polygon fill="white" stroke="#666666" points="343.88,-96 277.62,-96 277.62,-76 343.88,-76 343.88,-96"/>
<text text-anchor="middle" x="310.75" y="-82.5" font-family="Helvetica,sans-Serif" font-size="10.00">getLoadTag</text>
</a>
</g>
</g>
<!-- Node2&#45;&gt;Node6 -->
<g id="edge12_Node000002_Node000006" class="edge">
<title>Node2&#45;&gt;Node6</title>
<g id="a_edge12_Node000002_Node000006"><a xlink:title=" ">
<path fill="none" stroke="#63b8ff" d="M232.61,-99.14C243.16,-97.35 254.9,-95.35 265.98,-93.46"/>
<polygon fill="#63b8ff" stroke="#63b8ff" points="266.45,-96.93 275.72,-91.8 265.28,-90.03 266.45,-96.93"/>
</a>
</g>
</g>
<!-- Node7 -->
<g id="Node000007" class="node">
<title>Node7</title>
<g id="a_Node000007"><a xlink:href="$_tags_8cpp.html#a805b34d208faf3a3fac1a282754b792b" xlink:title=" ">
<polygon fill="white" stroke="#666666" points="341.25,-58 280.25,-58 280.25,-38 341.25,-38 341.25,-58"/>
<text text-anchor="middle" x="310.75" y="-44.5" font-family="Helvetica,sans-Serif" font-size="10.00">getNotTag</text>
</a>
</g>
</g>
<!-- Node2&#45;&gt;Node7 -->
<g id="edge13_Node000002_Node000007" class="edge">
<title>Node2&#45;&gt;Node7</title>
<g id="a_edge13_Node000002_Node000007"><a xlink:title=" ">
<path fill="none" stroke="#63b8ff" d="M216.49,-94.65C230.52,-86.81 250.44,-75.9 268.25,-67 270.79,-65.73 273.44,-64.44 276.11,-63.17"/>
<polygon fill="#63b8ff" stroke="#63b8ff" points="277.41,-66.42 284.98,-59.02 274.44,-60.08 277.41,-66.42"/>
</a>
</g>
</g>
<!-- Node8 -->
<g id="Node000008" class="node">
<title>Node8</title>
<g id="a_Node000008"><a xlink:href="$_tags_8cpp.html#ad21823e37708103e71e5792016193442" xlink:title=" ">
<polygon fill="white" stroke="#666666" points="338.62,-20 282.88,-20 282.88,0 338.62,0 338.62,-20"/>
<text text-anchor="middle" x="310.75" y="-6.5" font-family="Helvetica,sans-Serif" font-size="10.00">getOrTag</text>
</a>
</g>
</g>
<!-- Node2&#45;&gt;Node8 -->
<g id="edge14_Node000002_Node000008" class="edge">
<title>Node2&#45;&gt;Node8</title>
<g id="a_edge14_Node000002_Node000008"><a xlink:title=" ">
<path fill="none" stroke="#63b8ff" d="M205.6,-94.69C217.33,-78.83 241.68,-48.28 268.25,-29 269.79,-27.88 271.41,-26.8 273.08,-25.77"/>
<polygon fill="#63b8ff" stroke="#63b8ff" points="274.55,-28.95 281.64,-21.08 271.19,-22.81 274.55,-28.95"/>
</a>
</g>
</g>
</g>
</svg>
