<?xml version="1.0" encoding="UTF-8" standalone="no"?>
<!DOCTYPE svg PUBLIC "-//W3C//DTD SVG 1.1//EN"
 "http://www.w3.org/Graphics/SVG/1.1/DTD/svg11.dtd">
<!-- Generated by graphviz version 12.2.0 (20241103.1931)
 -->
<!-- Title: fsfml::initMenu Pages: 1 -->
<svg width="482pt" height="28pt"
 viewBox="0.00 0.00 481.50 28.00" xmlns="http://www.w3.org/2000/svg" xmlns:xlink="http://www.w3.org/1999/xlink">
<g id="graph0" class="graph" transform="scale(1 1) rotate(0) translate(4 24)">
<title>fsfml::initMenu</title>
<!-- Node1 -->
<g id="Node000001" class="node">
<title>Node1</title>
<g id="a_Node000001"><a xlink:title=" ">
<polygon fill="#999999" stroke="#666666" points="473.5,-20 393,-20 393,0 473.5,0 473.5,-20"/>
<text text-anchor="middle" x="433.25" y="-6.5" font-family="Helvetica,sans-Serif" font-size="10.00">fsfml::initMenu</text>
</a>
</g>
</g>
<!-- Node2 -->
<g id="Node000002" class="node">
<title>Node2</title>
<g id="a_Node000002"><a xlink:href="$classfsfml.html#ad18f9a13c0057b7a42ec1bab4cf15376" xlink:title=" ">
<polygon fill="white" stroke="#666666" points="357,-20 259.25,-20 259.25,0 357,0 357,-20"/>
<text text-anchor="middle" x="308.12" y="-6.5" font-family="Helvetica,sans-Serif" font-size="10.00">fsfml::initAllPanels</text>
</a>
</g>
</g>
<!-- Node1&#45;&gt;Node2 -->
<g id="edge4_Node000001_Node000002" class="edge">
<title>Node1&#45;&gt;Node2</title>
<g id="a_edge4_Node000001_Node000002"><a xlink:title=" ">
<path fill="none" stroke="#63b8ff" d="M381.24,-10C373.32,-10 365.16,-10 357.3,-10"/>
<polygon fill="#63b8ff" stroke="#63b8ff" points="381.1,-13.5 391.1,-10 381.1,-6.5 381.1,-13.5"/>
</a>
</g>
</g>
<!-- Node3 -->
<g id="Node000003" class="node">
<title>Node3</title>
<g id="a_Node000003"><a xlink:href="$classfsfml.html#a4bf50b65a4a6b5ed3e57b7b26638534a" xlink:title=" ">
<polygon fill="white" stroke="#666666" points="223.25,-20 125.5,-20 125.5,0 223.25,0 223.25,-20"/>
<text text-anchor="middle" x="174.38" y="-6.5" font-family="Helvetica,sans-Serif" font-size="10.00">fsfml::windowLoop</text>
</a>
</g>
</g>
<!-- Node2&#45;&gt;Node3 -->
<g id="edge5_Node000002_Node000003" class="edge">
<title>Node2&#45;&gt;Node3</title>
<g id="a_edge5_Node000002_Node000003"><a xlink:title=" ">
<path fill="none" stroke="#63b8ff" d="M247.34,-10C239.42,-10 231.38,-10 223.68,-10"/>
<polygon fill="#63b8ff" stroke="#63b8ff" points="247.3,-13.5 257.3,-10 247.3,-6.5 247.3,-13.5"/>
</a>
</g>
</g>
<!-- Node4 -->
<g id="Node000004" class="node">
<title>Node4</title>
<g id="a_Node000004"><a xlink:href="$classfsfml.html#a37a061f1ee4ccd45b5ae0a900021ecf4" xlink:title=" ">
<polygon fill="white" stroke="#666666" points="89.5,-20 0,-20 0,0 89.5,0 89.5,-20"/>
<text text-anchor="middle" x="44.75" y="-6.5" font-family="Helvetica,sans-Serif" font-size="10.00">fsfml::startSFML</text>
</a>
</g>
</g>
<!-- Node3&#45;&gt;Node4 -->
<g id="edge6_Node000003_Node000004" class="edge">
<title>Node3&#45;&gt;Node4</title>
<g id="a_edge6_Node000003_Node000004"><a xlink:title=" ">
<path fill="none" stroke="#63b8ff" d="M113.83,-10C105.76,-10 97.6,-10 89.87,-10"/>
<polygon fill="#63b8ff" stroke="#63b8ff" points="113.61,-13.5 123.61,-10 113.61,-6.5 113.61,-13.5"/>
</a>
</g>
</g>
</g>
</svg>
