<?xml version="1.0" encoding="UTF-8" standalone="no"?>
<!DOCTYPE svg PUBLIC "-//W3C//DTD SVG 1.1//EN"
 "http://www.w3.org/Graphics/SVG/1.1/DTD/svg11.dtd">
<!-- Generated by graphviz version 12.2.0 (20241103.1931)
 -->
<!-- Title: BotConfig::updateFavoritePreset Pages: 1 -->
<svg width="938pt" height="256pt"
 viewBox="0.00 0.00 937.50 256.00" xmlns="http://www.w3.org/2000/svg" xmlns:xlink="http://www.w3.org/1999/xlink">
<g id="graph0" class="graph" transform="scale(1 1) rotate(0) translate(4 252)">
<title>BotConfig::updateFavoritePreset</title>
<!-- Node1 -->
<g id="Node000001" class="node">
<title>Node1</title>
<g id="a_Node000001"><a xlink:title=" ">
<polygon fill="#999999" stroke="#666666" points="130,-121 0,-121 0,-89 130,-89 130,-121"/>
<text text-anchor="start" x="8" y="-107.5" font-family="Helvetica,sans-Serif" font-size="10.00">BotConfig::updateFavorite</text>
<text text-anchor="middle" x="65" y="-95.5" font-family="Helvetica,sans-Serif" font-size="10.00">Preset</text>
</a>
</g>
</g>
<!-- Node2 -->
<g id="Node000002" class="node">
<title>Node2</title>
<g id="a_Node000002"><a xlink:href="$class_bot_config.html#ab92a15dd3027a7f42b452cdf5eaf9529" xlink:title=" ">
<polygon fill="white" stroke="#666666" points="286.25,-115 166,-115 166,-95 286.25,-95 286.25,-115"/>
<text text-anchor="middle" x="226.12" y="-101.5" font-family="Helvetica,sans-Serif" font-size="10.00">BotConfig::updateString</text>
</a>
</g>
</g>
<!-- Node1&#45;&gt;Node2 -->
<g id="edge23_Node000001_Node000002" class="edge">
<title>Node1&#45;&gt;Node2</title>
<g id="a_edge23_Node000001_Node000002"><a xlink:title=" ">
<path fill="none" stroke="#63b8ff" d="M130.26,-105C138.09,-105 146.12,-105 154.03,-105"/>
<polygon fill="#63b8ff" stroke="#63b8ff" points="154,-108.5 164,-105 154,-101.5 154,-108.5"/>
</a>
</g>
</g>
<!-- Node3 -->
<g id="Node000003" class="node">
<title>Node3</title>
<g id="a_Node000003"><a xlink:href="$_text_manager_8cpp.html#add36cc54cd9616a393a17b8961491477" xlink:title=" ">
<polygon fill="white" stroke="#666666" points="402,-248 322.25,-248 322.25,-228 402,-228 402,-248"/>
<text text-anchor="middle" x="362.12" y="-234.5" font-family="Helvetica,sans-Serif" font-size="10.00">getFileContent</text>
</a>
</g>
</g>
<!-- Node2&#45;&gt;Node3 -->
<g id="edge24_Node000002_Node000003" class="edge">
<title>Node2&#45;&gt;Node3</title>
<g id="a_edge24_Node000002_Node000003"><a xlink:title=" ">
<path fill="none" stroke="#63b8ff" d="M234.39,-115.22C249.25,-135.66 284.89,-182.33 322.25,-214 325.31,-216.59 328.67,-219.1 332.1,-221.44"/>
<polygon fill="#63b8ff" stroke="#63b8ff" points="330.17,-224.36 340.48,-226.79 333.93,-218.46 330.17,-224.36"/>
</a>
</g>
</g>
<!-- Node4 -->
<g id="Node000004" class="node">
<title>Node4</title>
<g id="a_Node000004"><a xlink:href="$_text_manager_8cpp.html#af24bee60aa1d3d5b4ae3bf6ebd267ecd" xlink:title=" ">
<polygon fill="white" stroke="#666666" points="385.88,-134 338.38,-134 338.38,-114 385.88,-114 385.88,-134"/>
<text text-anchor="middle" x="362.12" y="-120.5" font-family="Helvetica,sans-Serif" font-size="10.00">getLine</text>
</a>
</g>
</g>
<!-- Node2&#45;&gt;Node4 -->
<g id="edge25_Node000002_Node000004" class="edge">
<title>Node2&#45;&gt;Node4</title>
<g id="a_edge25_Node000002_Node000004"><a xlink:title=" ">
<path fill="none" stroke="#63b8ff" d="M286.68,-113.44C300.45,-115.4 314.65,-117.41 326.9,-119.15"/>
<polygon fill="#63b8ff" stroke="#63b8ff" points="326.09,-122.57 336.48,-120.51 327.07,-115.64 326.09,-122.57"/>
</a>
</g>
</g>
<!-- Node6 -->
<g id="Node000006" class="node">
<title>Node6</title>
<g id="a_Node000006"><a xlink:href="$_text_manager_8cpp.html#a6956d58559ef67f422247fdeb1c22775" xlink:title=" ">
<polygon fill="white" stroke="#666666" points="674.75,-153 598.75,-153 598.75,-133 674.75,-133 674.75,-153"/>
<text text-anchor="middle" x="636.75" y="-139.5" font-family="Helvetica,sans-Serif" font-size="10.00">getStringAfter</text>
</a>
</g>
</g>
<!-- Node2&#45;&gt;Node6 -->
<g id="edge38_Node000002_Node000006" class="edge">
<title>Node2&#45;&gt;Node6</title>
<g id="a_edge38_Node000002_Node000006"><a xlink:title=" ">
<path fill="none" stroke="#63b8ff" d="M247.68,-115.36C284.62,-133.3 365.18,-169.35 438,-181 491.1,-189.49 506.64,-193.25 559,-181 577.17,-176.75 595.98,-167.53 610.43,-159.24"/>
<polygon fill="#63b8ff" stroke="#63b8ff" points="612.02,-162.36 618.81,-154.22 608.43,-156.35 612.02,-162.36"/>
</a>
</g>
</g>
<!-- Node10 -->
<g id="Node000010" class="node">
<title>Node10</title>
<g id="a_Node000010"><a xlink:href="$_text_manager_8cpp.html#aff8311b88dbf5f3091f3ac1262543242" xlink:title=" ">
<polygon fill="white" stroke="#666666" points="678.5,-96 595,-96 595,-76 678.5,-76 678.5,-96"/>
<text text-anchor="middle" x="636.75" y="-82.5" font-family="Helvetica,sans-Serif" font-size="10.00">getStringBefore</text>
</a>
</g>
</g>
<!-- Node2&#45;&gt;Node10 -->
<g id="edge39_Node000002_Node000010" class="edge">
<title>Node2&#45;&gt;Node10</title>
<g id="a_edge39_Node000002_Node000010"><a xlink:title=" ">
<path fill="none" stroke="#63b8ff" d="M266.23,-94.55C328.31,-79.3 453.22,-54.1 559,-67 569.2,-68.24 579.99,-70.38 590.16,-72.79"/>
<polygon fill="#63b8ff" stroke="#63b8ff" points="589.3,-76.18 599.85,-75.22 591,-69.39 589.3,-76.18"/>
</a>
</g>
</g>
<!-- Node12 -->
<g id="Node000012" class="node">
<title>Node12</title>
<g id="a_Node000012"><a xlink:href="$_text_manager_8cpp.html#ac695ebe5513185f42689b419f58d8a83" xlink:title=" ">
<polygon fill="white" stroke="#666666" points="538.38,-96 458.62,-96 458.62,-76 538.38,-76 538.38,-96"/>
<text text-anchor="middle" x="498.5" y="-82.5" font-family="Helvetica,sans-Serif" font-size="10.00">updateContent</text>
</a>
</g>
</g>
<!-- Node2&#45;&gt;Node12 -->
<g id="edge40_Node000002_Node000012" class="edge">
<title>Node2&#45;&gt;Node12</title>
<g id="a_edge40_Node000002_Node000012"><a xlink:title=" ">
<path fill="none" stroke="#63b8ff" d="M286.46,-100.83C334.51,-97.45 401.46,-92.75 446.97,-89.55"/>
<polygon fill="#63b8ff" stroke="#63b8ff" points="447.11,-93.05 456.84,-88.86 446.62,-86.07 447.11,-93.05"/>
</a>
</g>
</g>
<!-- Node13 -->
<g id="Node000013" class="node">
<title>Node13</title>
<g id="a_Node000013"><a xlink:href="$_text_manager_8cpp.html#ab55140c566370b105b9bf81756293fa5" xlink:title=" ">
<polygon fill="white" stroke="#666666" points="393.75,-20 330.5,-20 330.5,0 393.75,0 393.75,-20"/>
<text text-anchor="middle" x="362.12" y="-6.5" font-family="Helvetica,sans-Serif" font-size="10.00">writeToFile</text>
</a>
</g>
</g>
<!-- Node2&#45;&gt;Node13 -->
<g id="edge43_Node000002_Node000013" class="edge">
<title>Node2&#45;&gt;Node13</title>
<g id="a_edge43_Node000002_Node000013"><a xlink:title=" ">
<path fill="none" stroke="#63b8ff" d="M240.4,-94.51C258.54,-80.3 292.26,-54.39 322.25,-34 325.98,-31.46 329.97,-28.87 333.92,-26.37"/>
<polygon fill="#63b8ff" stroke="#63b8ff" points="335.56,-29.47 342.21,-21.23 331.87,-23.52 335.56,-29.47"/>
</a>
</g>
</g>
<!-- Node5 -->
<g id="Node000005" class="node">
<title>Node5</title>
<g id="a_Node000005"><a xlink:href="$_text_manager_8cpp.html#a85a282af68cca7cf7d69487d1bacdc47" xlink:title=" ">
<polygon fill="white" stroke="#666666" points="540.62,-172 456.38,-172 456.38,-152 540.62,-152 540.62,-172"/>
<text text-anchor="middle" x="498.5" y="-158.5" font-family="Helvetica,sans-Serif" font-size="10.00">extractBetween</text>
</a>
</g>
</g>
<!-- Node4&#45;&gt;Node5 -->
<g id="edge26_Node000004_Node000005" class="edge">
<title>Node4&#45;&gt;Node5</title>
<g id="a_edge26_Node000004_Node000005"><a xlink:title=" ">
<path fill="none" stroke="#63b8ff" d="M386.22,-130.53C403.61,-135.45 428.03,-142.36 449.58,-148.45"/>
<polygon fill="#63b8ff" stroke="#63b8ff" points="448.49,-151.78 459.07,-151.13 450.4,-145.04 448.49,-151.78"/>
</a>
</g>
</g>
<!-- Node11 -->
<g id="Node000011" class="node">
<title>Node11</title>
<g id="a_Node000011"><a xlink:href="$_text_manager_8cpp.html#a84a9e24fc5cce3cebf746bb656909bf8" xlink:title=" ">
<polygon fill="white" stroke="#666666" points="559,-134 438,-134 438,-114 559,-114 559,-134"/>
<text text-anchor="middle" x="498.5" y="-120.5" font-family="Helvetica,sans-Serif" font-size="10.00">extractBetweenReverse</text>
</a>
</g>
</g>
<!-- Node4&#45;&gt;Node11 -->
<g id="edge35_Node000004_Node000011" class="edge">
<title>Node4&#45;&gt;Node11</title>
<g id="a_edge35_Node000004_Node000011"><a xlink:title=" ">
<path fill="none" stroke="#63b8ff" d="M386.22,-124C397.59,-124 411.96,-124 426.57,-124"/>
<polygon fill="#63b8ff" stroke="#63b8ff" points="426.23,-127.5 436.23,-124 426.23,-120.5 426.23,-127.5"/>
</a>
</g>
</g>
<!-- Node5&#45;&gt;Node6 -->
<g id="edge27_Node000005_Node000006" class="edge">
<title>Node5&#45;&gt;Node6</title>
<g id="a_edge27_Node000005_Node000006"><a xlink:title=" ">
<path fill="none" stroke="#63b8ff" d="M541.12,-156.2C555.71,-154.16 572.23,-151.86 587.33,-149.75"/>
<polygon fill="#63b8ff" stroke="#63b8ff" points="587.63,-153.24 597.05,-148.4 586.66,-146.31 587.63,-153.24"/>
</a>
</g>
</g>
<!-- Node5&#45;&gt;Node10 -->
<g id="edge33_Node000005_Node000010" class="edge">
<title>Node5&#45;&gt;Node10</title>
<g id="a_edge33_Node000005_Node000010"><a xlink:title=" ">
<path fill="none" stroke="#63b8ff" d="M538.65,-151.54C545.59,-149.11 552.63,-146.27 559,-143 579.91,-132.27 601.17,-115.97 616,-103.55"/>
<polygon fill="#63b8ff" stroke="#63b8ff" points="617.88,-106.55 623.19,-97.38 613.32,-101.23 617.88,-106.55"/>
</a>
</g>
</g>
<!-- Node7 -->
<g id="Node000007" class="node">
<title>Node7</title>
<g id="a_Node000007"><a xlink:href="$_text_manager_8cpp.html#a5b66873abcff2faee361721f86b65dd0" xlink:title=" ">
<polygon fill="white" stroke="#666666" points="792.75,-134 725,-134 725,-114 792.75,-114 792.75,-134"/>
<text text-anchor="middle" x="758.88" y="-120.5" font-family="Helvetica,sans-Serif" font-size="10.00">getPosAfter</text>
</a>
</g>
</g>
<!-- Node6&#45;&gt;Node7 -->
<g id="edge28_Node000006_Node000007" class="edge">
<title>Node6&#45;&gt;Node7</title>
<g id="a_edge28_Node000006_Node000007"><a xlink:title=" ">
<path fill="none" stroke="#63b8ff" d="M675.1,-137.09C687.23,-135.17 700.8,-133.03 713.4,-131.03"/>
<polygon fill="#63b8ff" stroke="#63b8ff" points="713.79,-134.52 723.13,-129.5 712.7,-127.6 713.79,-134.52"/>
</a>
</g>
</g>
<!-- Node9 -->
<g id="Node000009" class="node">
<title>Node9</title>
<g id="a_Node000009"><a xlink:href="$_text_manager_8cpp.html#a2946b90fb3df56b0a74d53eb4160f4e2" xlink:title=" ">
<polygon fill="white" stroke="#666666" points="803.25,-172 714.5,-172 714.5,-152 803.25,-152 803.25,-172"/>
<text text-anchor="middle" x="758.88" y="-158.5" font-family="Helvetica,sans-Serif" font-size="10.00">getStringStarting</text>
</a>
</g>
</g>
<!-- Node6&#45;&gt;Node9 -->
<g id="edge30_Node000006_Node000009" class="edge">
<title>Node6&#45;&gt;Node9</title>
<g id="a_edge30_Node000006_Node000009"><a xlink:title=" ">
<path fill="none" stroke="#63b8ff" d="M675.1,-148.91C683.91,-150.3 693.49,-151.82 702.9,-153.31"/>
<polygon fill="#63b8ff" stroke="#63b8ff" points="702.32,-156.76 712.74,-154.86 703.41,-149.84 702.32,-156.76"/>
</a>
</g>
</g>
<!-- Node8 -->
<g id="Node000008" class="node">
<title>Node8</title>
<g id="a_Node000008"><a xlink:href="$_text_manager_8cpp.html#a3f4afb2b62acd297e783a22ffa9a7000" xlink:title=" ">
<polygon fill="white" stroke="#666666" points="929.5,-134 839.25,-134 839.25,-114 929.5,-114 929.5,-134"/>
<text text-anchor="middle" x="884.38" y="-120.5" font-family="Helvetica,sans-Serif" font-size="10.00">getSequencePos</text>
</a>
</g>
</g>
<!-- Node7&#45;&gt;Node8 -->
<g id="edge29_Node000007_Node000008" class="edge">
<title>Node7&#45;&gt;Node8</title>
<g id="a_edge29_Node000007_Node000008"><a xlink:title=" ">
<path fill="none" stroke="#63b8ff" d="M792.97,-124C803.69,-124 815.89,-124 827.79,-124"/>
<polygon fill="#63b8ff" stroke="#63b8ff" points="827.52,-127.5 837.52,-124 827.52,-120.5 827.52,-127.5"/>
</a>
</g>
</g>
<!-- Node9&#45;&gt;Node8 -->
<g id="edge31_Node000009_Node000008" class="edge">
<title>Node9&#45;&gt;Node8</title>
<g id="a_edge31_Node000009_Node000008"><a xlink:title=" ">
<path fill="none" stroke="#63b8ff" d="M793.95,-151.52C807.72,-147.28 823.8,-142.33 838.5,-137.81"/>
<polygon fill="#63b8ff" stroke="#63b8ff" points="839.44,-141.18 847.97,-134.9 837.38,-134.49 839.44,-141.18"/>
</a>
</g>
</g>
<!-- Node9&#45;&gt;Node9 -->
<g id="edge32_Node000009_Node000009" class="edge">
<title>Node9&#45;&gt;Node9</title>
<g id="a_edge32_Node000009_Node000009"><a xlink:title=" ">
<path fill="none" stroke="#63b8ff" d="M739.47,-172.34C731.18,-180.98 737.65,-190 758.88,-190 770.48,-190 777.68,-187.3 780.46,-183.44"/>
<polygon fill="#63b8ff" stroke="#63b8ff" points="783.93,-182.96 778.57,-173.82 777.06,-184.31 783.93,-182.96"/>
</a>
</g>
</g>
<!-- Node10&#45;&gt;Node8 -->
<g id="edge34_Node000010_Node000008" class="edge">
<title>Node10&#45;&gt;Node8</title>
<g id="a_edge34_Node000010_Node000008"><a xlink:title=" ">
<path fill="none" stroke="#63b8ff" d="M678.75,-89.34C712.36,-92.41 761.09,-97.61 803.25,-105 812.76,-106.67 822.84,-108.78 832.51,-110.98"/>
<polygon fill="#63b8ff" stroke="#63b8ff" points="831.62,-114.37 842.15,-113.25 833.22,-107.55 831.62,-114.37"/>
</a>
</g>
</g>
<!-- Node11&#45;&gt;Node6 -->
<g id="edge36_Node000011_Node000006" class="edge">
<title>Node11&#45;&gt;Node6</title>
<g id="a_edge36_Node000011_Node000006"><a xlink:title=" ">
<path fill="none" stroke="#63b8ff" d="M559.26,-132.33C568.61,-133.64 578.18,-134.97 587.24,-136.23"/>
<polygon fill="#63b8ff" stroke="#63b8ff" points="586.5,-139.67 596.89,-137.58 587.47,-132.73 586.5,-139.67"/>
</a>
</g>
</g>
<!-- Node11&#45;&gt;Node10 -->
<g id="edge37_Node000011_Node000010" class="edge">
<title>Node11&#45;&gt;Node10</title>
<g id="a_edge37_Node000011_Node000010"><a xlink:title=" ">
<path fill="none" stroke="#63b8ff" d="M537.09,-113.52C552.58,-109.2 570.72,-104.14 587.2,-99.54"/>
<polygon fill="#63b8ff" stroke="#63b8ff" points="588.13,-102.91 596.82,-96.86 586.25,-96.17 588.13,-102.91"/>
</a>
</g>
</g>
<!-- Node12&#45;&gt;Node6 -->
<g id="edge41_Node000012_Node000006" class="edge">
<title>Node12&#45;&gt;Node6</title>
<g id="a_edge41_Node000012_Node000006"><a xlink:title=" ">
<path fill="none" stroke="#63b8ff" d="M535.37,-96.49C543.23,-99.06 551.46,-101.95 559,-105 575.15,-111.53 592.59,-120.04 606.75,-127.35"/>
<polygon fill="#63b8ff" stroke="#63b8ff" points="605.05,-130.41 615.54,-131.95 608.3,-124.21 605.05,-130.41"/>
</a>
</g>
</g>
<!-- Node12&#45;&gt;Node10 -->
<g id="edge42_Node000012_Node000010" class="edge">
<title>Node12&#45;&gt;Node10</title>
<g id="a_edge42_Node000012_Node000010"><a xlink:title=" ">
<path fill="none" stroke="#63b8ff" d="M538.54,-86C552.58,-86 568.64,-86 583.62,-86"/>
<polygon fill="#63b8ff" stroke="#63b8ff" points="583.29,-89.5 593.29,-86 583.29,-82.5 583.29,-89.5"/>
</a>
</g>
</g>
<!-- Node14 -->
<g id="Node000014" class="node">
<title>Node14</title>
<g id="a_Node000014"><a xlink:href="$_text_manager_8cpp.html#a4a86df56d2737552b2fd63bfa85c5800" xlink:title=" ">
<polygon fill="white" stroke="#666666" points="541.38,-20 455.62,-20 455.62,0 541.38,0 541.38,-20"/>
<text text-anchor="middle" x="498.5" y="-6.5" font-family="Helvetica,sans-Serif" font-size="10.00">getOfstreamFile</text>
</a>
</g>
</g>
<!-- Node13&#45;&gt;Node14 -->
<g id="edge44_Node000013_Node000014" class="edge">
<title>Node13&#45;&gt;Node14</title>
<g id="a_edge44_Node000013_Node000014"><a xlink:title=" ">
<path fill="none" stroke="#63b8ff" d="M393.95,-10C408.75,-10 426.91,-10 443.87,-10"/>
<polygon fill="#63b8ff" stroke="#63b8ff" points="443.85,-13.5 453.85,-10 443.85,-6.5 443.85,-13.5"/>
</a>
</g>
</g>
</g>
</svg>
