<?xml version="1.0" encoding="UTF-8" standalone="no"?>
<!DOCTYPE svg PUBLIC "-//W3C//DTD SVG 1.1//EN"
 "http://www.w3.org/Graphics/SVG/1.1/DTD/svg11.dtd">
<!-- Generated by graphviz version 12.2.0 (20241103.1931)
 -->
<!-- Title: FlowTagPanel::cloneChildren Pages: 1 -->
<svg width="682pt" height="123pt"
 viewBox="0.00 0.00 681.75 123.00" xmlns="http://www.w3.org/2000/svg" xmlns:xlink="http://www.w3.org/1999/xlink">
<g id="graph0" class="graph" transform="scale(1 1) rotate(0) translate(4 119)">
<title>FlowTagPanel::cloneChildren</title>
<!-- Node1 -->
<g id="Node000001" class="node">
<title>Node1</title>
<g id="a_Node000001"><a xlink:title=" ">
<polygon fill="#999999" stroke="#666666" points="142.75,-58 0,-58 0,-38 142.75,-38 142.75,-58"/>
<text text-anchor="middle" x="71.38" y="-44.5" font-family="Helvetica,sans-Serif" font-size="10.00">FlowTagPanel::cloneChildren</text>
</a>
</g>
</g>
<!-- Node2 -->
<g id="Node000002" class="node">
<title>Node2</title>
<g id="a_Node000002"><a xlink:href="$class_flow_tag_panel.html#a24aede4ad59f41a079d4c38e26955d55" xlink:title=" ">
<polygon fill="white" stroke="#666666" points="316.62,-96 194.88,-96 194.88,-76 316.62,-76 316.62,-96"/>
<text text-anchor="middle" x="255.75" y="-82.5" font-family="Helvetica,sans-Serif" font-size="10.00">FlowTagPanel::addChild</text>
</a>
</g>
</g>
<!-- Node1&#45;&gt;Node2 -->
<g id="edge9_Node000001_Node000002" class="edge">
<title>Node1&#45;&gt;Node2</title>
<g id="a_edge9_Node000001_Node000002"><a xlink:title=" ">
<path fill="none" stroke="#63b8ff" d="M122.69,-58.48C144.62,-63.05 170.52,-68.45 193.55,-73.25"/>
<polygon fill="#63b8ff" stroke="#63b8ff" points="192.61,-76.63 203.11,-75.24 194.04,-69.77 192.61,-76.63"/>
</a>
</g>
</g>
<!-- Node6 -->
<g id="Node000006" class="node">
<title>Node6</title>
<g id="a_Node000006"><a xlink:href="$class_tag_panel.html#a22c1748896f9b2a20dfb610b76216029" xlink:title=" ">
<polygon fill="white" stroke="#666666" points="298.62,-58 212.88,-58 212.88,-38 298.62,-38 298.62,-58"/>
<text text-anchor="middle" x="255.75" y="-44.5" font-family="Helvetica,sans-Serif" font-size="10.00">TagPanel::clone</text>
</a>
</g>
</g>
<!-- Node1&#45;&gt;Node6 -->
<g id="edge14_Node000001_Node000006" class="edge">
<title>Node1&#45;&gt;Node6</title>
<g id="a_edge14_Node000001_Node000006"><a xlink:title=" ">
<path fill="none" stroke="#63b8ff" d="M143.15,-48C162.46,-48 183.06,-48 201.23,-48"/>
<polygon fill="#63b8ff" stroke="#63b8ff" points="200.98,-51.5 210.98,-48 200.98,-44.5 200.98,-51.5"/>
</a>
</g>
</g>
<!-- Node8 -->
<g id="Node000008" class="node">
<title>Node8</title>
<g id="a_Node000008"><a xlink:href="$class_flow_tag_panel.html#a908b8a9b0319c8c60588dff9296e9baf" xlink:title=" ">
<polygon fill="white" stroke="#666666" points="332.75,-20 178.75,-20 178.75,0 332.75,0 332.75,-20"/>
<text text-anchor="middle" x="255.75" y="-6.5" font-family="Helvetica,sans-Serif" font-size="10.00">FlowTagPanel::getChildrenTags</text>
</a>
</g>
</g>
<!-- Node1&#45;&gt;Node8 -->
<g id="edge16_Node000001_Node000008" class="edge">
<title>Node1&#45;&gt;Node8</title>
<g id="a_edge16_Node000001_Node000008"><a xlink:title=" ">
<path fill="none" stroke="#63b8ff" d="M122.69,-37.52C144.62,-32.95 170.52,-27.55 193.55,-22.75"/>
<polygon fill="#63b8ff" stroke="#63b8ff" points="194.04,-26.23 203.11,-20.76 192.61,-19.37 194.04,-26.23"/>
</a>
</g>
</g>
<!-- Node3 -->
<g id="Node000003" class="node">
<title>Node3</title>
<g id="a_Node000003"><a xlink:href="$class_flow_tag_panel.html#af98215cc2497f7ef7d8e4ed00e94ca33" xlink:title=" ">
<polygon fill="white" stroke="#666666" points="498.75,-96 368.75,-96 368.75,-76 498.75,-76 498.75,-96"/>
<text text-anchor="middle" x="433.75" y="-82.5" font-family="Helvetica,sans-Serif" font-size="10.00">FlowTagPanel::insertChild</text>
</a>
</g>
</g>
<!-- Node2&#45;&gt;Node3 -->
<g id="edge10_Node000002_Node000003" class="edge">
<title>Node2&#45;&gt;Node3</title>
<g id="a_edge10_Node000002_Node000003"><a xlink:title=" ">
<path fill="none" stroke="#63b8ff" d="M316.83,-86C329.82,-86 343.72,-86 357.22,-86"/>
<polygon fill="#63b8ff" stroke="#63b8ff" points="356.92,-89.5 366.92,-86 356.92,-82.5 356.92,-89.5"/>
</a>
</g>
</g>
<!-- Node3&#45;&gt;Node3 -->
<g id="edge13_Node000003_Node000003" class="edge">
<title>Node3&#45;&gt;Node3</title>
<g id="a_edge13_Node000003_Node000003"><a xlink:title=" ">
<path fill="none" stroke="#63b8ff" d="M406.66,-96.34C395.08,-104.98 404.11,-114 433.75,-114 450.42,-114 460.57,-111.14 464.2,-107.11"/>
<polygon fill="#63b8ff" stroke="#63b8ff" points="467.61,-106.29 461.29,-97.78 460.93,-108.37 467.61,-106.29"/>
</a>
</g>
</g>
<!-- Node4 -->
<g id="Node000004" class="node">
<title>Node4</title>
<g id="a_Node000004"><a xlink:href="$class_tag_panel.html#a975da9b33d0c94992472b291df4aadbe" xlink:title=" ">
<polygon fill="white" stroke="#666666" points="659.5,-115 549,-115 549,-95 659.5,-95 659.5,-115"/>
<text text-anchor="middle" x="604.25" y="-101.5" font-family="Helvetica,sans-Serif" font-size="10.00">TagPanel::getIndexOf</text>
</a>
</g>
</g>
<!-- Node3&#45;&gt;Node4 -->
<g id="edge11_Node000003_Node000004" class="edge">
<title>Node3&#45;&gt;Node4</title>
<g id="a_edge11_Node000003_Node000004"><a xlink:title=" ">
<path fill="none" stroke="#63b8ff" d="M498.93,-93.24C511.47,-94.65 524.63,-96.13 537.22,-97.55"/>
<polygon fill="#63b8ff" stroke="#63b8ff" points="536.75,-101.02 547.08,-98.67 537.54,-94.07 536.75,-101.02"/>
</a>
</g>
</g>
<!-- Node5 -->
<g id="Node000005" class="node">
<title>Node5</title>
<g id="a_Node000005"><a xlink:href="$class_flow_tag_panel.html#a292d74fbfba61f5c7df90789a9eb31e2" xlink:title=" ">
<polygon fill="white" stroke="#666666" points="673.75,-77 534.75,-77 534.75,-57 673.75,-57 673.75,-77"/>
<text text-anchor="middle" x="604.25" y="-63.5" font-family="Helvetica,sans-Serif" font-size="10.00">FlowTagPanel::getSizerItem</text>
</a>
</g>
</g>
<!-- Node3&#45;&gt;Node5 -->
<g id="edge12_Node000003_Node000005" class="edge">
<title>Node3&#45;&gt;Node5</title>
<g id="a_edge12_Node000003_Node000005"><a xlink:title=" ">
<path fill="none" stroke="#63b8ff" d="M498.93,-78.76C506.84,-77.87 514.99,-76.95 523.09,-76.04"/>
<polygon fill="#63b8ff" stroke="#63b8ff" points="523.43,-79.52 532.97,-74.92 522.64,-72.57 523.43,-79.52"/>
</a>
</g>
</g>
<!-- Node7 -->
<g id="Node000007" class="node">
<title>Node7</title>
<g id="a_Node000007"><a xlink:href="$class_tag_panel.html#a20eb7700df1a0fc1a51352b36a6e5a22" xlink:title=" ">
<polygon fill="white" stroke="#666666" points="485.25,-58 382.25,-58 382.25,-38 485.25,-38 485.25,-58"/>
<text text-anchor="middle" x="433.75" y="-44.5" font-family="Helvetica,sans-Serif" font-size="10.00">TagPanel::TagPanel</text>
</a>
</g>
</g>
<!-- Node6&#45;&gt;Node7 -->
<g id="edge15_Node000006_Node000007" class="edge">
<title>Node6&#45;&gt;Node7</title>
<g id="a_edge15_Node000006_Node000007"><a xlink:title=" ">
<path fill="none" stroke="#63b8ff" d="M298.91,-48C320.32,-48 346.75,-48 370.46,-48"/>
<polygon fill="#63b8ff" stroke="#63b8ff" points="370.33,-51.5 380.33,-48 370.33,-44.5 370.33,-51.5"/>
</a>
</g>
</g>
</g>
</svg>
