<?xml version="1.0" encoding="UTF-8" standalone="no"?>
<!DOCTYPE svg PUBLIC "-//W3C//DTD SVG 1.1//EN"
 "http://www.w3.org/Graphics/SVG/1.1/DTD/svg11.dtd">
<!-- Generated by graphviz version 12.2.0 (20241103.1931)
 -->
<!-- Title: CompareToken Pages: 1 -->
<svg width="398pt" height="1264pt"
 viewBox="0.00 0.00 398.00 1264.00" xmlns="http://www.w3.org/2000/svg" xmlns:xlink="http://www.w3.org/1999/xlink">
<g id="graph0" class="graph" transform="scale(1 1) rotate(0) translate(4 1260)">
<title>CompareToken</title>
<!-- Node1 -->
<g id="Node000001" class="node">
<title>Node1</title>
<g id="a_Node000001"><a xlink:title=" ">
<polygon fill="#999999" stroke="none" points="268.5,-180 121.5,-180 121.5,0 268.5,0 268.5,-180"/>
<text text-anchor="start" x="162" y="-166.5" font-family="Helvetica,sans-Serif" font-size="10.00">CompareToken</text>
<text text-anchor="start" x="125.88" y="-150.5" font-family="Helvetica,sans-Serif" font-size="10.00">#</text>
<text text-anchor="start" x="135.5" y="-150.5" font-family="Helvetica,sans-Serif" font-size="10.00">std::vector&lt; std::shared</text>
<text text-anchor="start" x="135.5" y="-138.5" font-family="Helvetica,sans-Serif" font-size="10.00">_ptr&lt; Token &gt; &gt; listTokens</text>
<text text-anchor="start" x="125.88" y="-122.5" font-family="Helvetica,sans-Serif" font-size="10.00">#</text>
<text text-anchor="start" x="135.5" y="-122.5" font-family="Helvetica,sans-Serif" font-size="10.00">CompareType cmpType</text>
<text text-anchor="start" x="125.88" y="-106.5" font-family="Helvetica,sans-Serif" font-size="10.00">#</text>
<text text-anchor="start" x="135.5" y="-106.5" font-family="Helvetica,sans-Serif" font-size="10.00">DataType valuesType</text>
<text text-anchor="start" x="125.5" y="-90.5" font-family="Helvetica,sans-Serif" font-size="10.00">+</text>
<text text-anchor="start" x="135.5" y="-90.5" font-family="Helvetica,sans-Serif" font-size="10.00">CompareToken()</text>
<text text-anchor="start" x="125.5" y="-74.5" font-family="Helvetica,sans-Serif" font-size="10.00">+</text>
<text text-anchor="start" x="135.5" y="-74.5" font-family="Helvetica,sans-Serif" font-size="10.00">void setOverloads()</text>
<text text-anchor="start" x="135.5" y="-62.5" font-family="Helvetica,sans-Serif" font-size="10.00"> final</text>
<text text-anchor="start" x="125.5" y="-46.5" font-family="Helvetica,sans-Serif" font-size="10.00">+</text>
<text text-anchor="start" x="135.5" y="-46.5" font-family="Helvetica,sans-Serif" font-size="10.00">DataType getDataType</text>
<text text-anchor="start" x="135.5" y="-34.5" font-family="Helvetica,sans-Serif" font-size="10.00">(TokenResult &amp;tRes) override</text>
<text text-anchor="start" x="125.88" y="-18.5" font-family="Helvetica,sans-Serif" font-size="10.00">#</text>
<text text-anchor="start" x="135.5" y="-18.5" font-family="Helvetica,sans-Serif" font-size="10.00">std::shared_ptr&lt; Tag</text>
<text text-anchor="start" x="135.5" y="-6.5" font-family="Helvetica,sans-Serif" font-size="10.00"> &gt; execute() override</text>
<polygon fill="#666666" stroke="#666666" points="121.5,-162 121.5,-162 268.5,-162 268.5,-162 121.5,-162"/>
<polygon fill="#666666" stroke="#666666" points="121.5,-102 121.5,-102 133.5,-102 133.5,-102 121.5,-102"/>
<polygon fill="#666666" stroke="#666666" points="133.5,-102 133.5,-102 268.5,-102 268.5,-102 133.5,-102"/>
<polygon fill="none" stroke="#666666" points="121.5,0 121.5,-180 268.5,-180 268.5,0 121.5,0"/>
</a>
</g>
</g>
<!-- Node2 -->
<g id="Node000002" class="node">
<title>Node2</title>
<g id="a_Node000002"><a xlink:href="$class_p_k_token.html" xlink:title=" ">
<polygon fill="white" stroke="none" points="186,-744 0,-744 0,-216 186,-216 186,-744"/>
<text text-anchor="start" x="73.12" y="-730.5" font-family="Helvetica,sans-Serif" font-size="10.00">PKToken</text>
<text text-anchor="start" x="4.38" y="-714.5" font-family="Helvetica,sans-Serif" font-size="10.00">#</text>
<text text-anchor="start" x="14" y="-714.5" font-family="Helvetica,sans-Serif" font-size="10.00">ArgumentsOverload argsOverload</text>
<text text-anchor="start" x="4.38" y="-698.5" font-family="Helvetica,sans-Serif" font-size="10.00">#</text>
<text text-anchor="start" x="14" y="-698.5" font-family="Helvetica,sans-Serif" font-size="10.00">std::vector&lt; std::shared</text>
<text text-anchor="start" x="14" y="-686.5" font-family="Helvetica,sans-Serif" font-size="10.00">_ptr&lt; Token &gt; &gt; argTokens</text>
<text text-anchor="start" x="4" y="-670.5" font-family="Helvetica,sans-Serif" font-size="10.00">+</text>
<text text-anchor="start" x="14" y="-670.5" font-family="Helvetica,sans-Serif" font-size="10.00">PKToken()</text>
<text text-anchor="start" x="4" y="-654.5" font-family="Helvetica,sans-Serif" font-size="10.00">+</text>
<text text-anchor="start" x="14" y="-654.5" font-family="Helvetica,sans-Serif" font-size="10.00">void showTokenTree</text>
<text text-anchor="start" x="14" y="-642.5" font-family="Helvetica,sans-Serif" font-size="10.00">(const int nestedLayer)</text>
<text text-anchor="start" x="14" y="-630.5" font-family="Helvetica,sans-Serif" font-size="10.00"> override</text>
<text text-anchor="start" x="4" y="-614.5" font-family="Helvetica,sans-Serif" font-size="10.00">+</text>
<text text-anchor="start" x="14" y="-614.5" font-family="Helvetica,sans-Serif" font-size="10.00">bool addTokens(IteratorList</text>
<text text-anchor="start" x="14" y="-602.5" font-family="Helvetica,sans-Serif" font-size="10.00">&lt; Token &gt; &amp;tl, TokenResult</text>
<text text-anchor="start" x="14" y="-590.5" font-family="Helvetica,sans-Serif" font-size="10.00"> &amp;tRes) override</text>
<text text-anchor="start" x="4.38" y="-574.5" font-family="Helvetica,sans-Serif" font-size="10.00">#</text>
<text text-anchor="start" x="14" y="-574.5" font-family="Helvetica,sans-Serif" font-size="10.00">bool addToken(TokenVALUE</text>
<text text-anchor="start" x="14" y="-562.5" font-family="Helvetica,sans-Serif" font-size="10.00"> tVal, IteratorList&lt; Token</text>
<text text-anchor="start" x="14" y="-550.5" font-family="Helvetica,sans-Serif" font-size="10.00"> &gt; &amp;tl, TokenResult &amp;tRes)</text>
<text text-anchor="start" x="4.38" y="-534.5" font-family="Helvetica,sans-Serif" font-size="10.00">#</text>
<text text-anchor="start" x="14" y="-534.5" font-family="Helvetica,sans-Serif" font-size="10.00">bool addType(DataType</text>
<text text-anchor="start" x="14" y="-522.5" font-family="Helvetica,sans-Serif" font-size="10.00"> tVal, IteratorList&lt;</text>
<text text-anchor="start" x="14" y="-510.5" font-family="Helvetica,sans-Serif" font-size="10.00"> Token &gt; &amp;tl, TokenResult</text>
<text text-anchor="start" x="14" y="-498.5" font-family="Helvetica,sans-Serif" font-size="10.00"> &amp;tRes)</text>
<text text-anchor="start" x="4.38" y="-482.5" font-family="Helvetica,sans-Serif" font-size="10.00">#</text>
<text text-anchor="start" x="14" y="-482.5" font-family="Helvetica,sans-Serif" font-size="10.00">bool addType(std::vector</text>
<text text-anchor="start" x="14" y="-470.5" font-family="Helvetica,sans-Serif" font-size="10.00">&lt; DataType &gt; listTypes,</text>
<text text-anchor="start" x="14" y="-458.5" font-family="Helvetica,sans-Serif" font-size="10.00"> IteratorList&lt; Token &gt; &amp;tl,</text>
<text text-anchor="start" x="14" y="-446.5" font-family="Helvetica,sans-Serif" font-size="10.00"> TokenResult &amp;tRes)</text>
<text text-anchor="start" x="4.38" y="-430.5" font-family="Helvetica,sans-Serif" font-size="10.00">#</text>
<text text-anchor="start" x="14" y="-430.5" font-family="Helvetica,sans-Serif" font-size="10.00">bool addNumber(IteratorList</text>
<text text-anchor="start" x="14" y="-418.5" font-family="Helvetica,sans-Serif" font-size="10.00">&lt; Token &gt; &amp;tl, TokenResult &amp;tRes)</text>
<text text-anchor="start" x="4.38" y="-402.5" font-family="Helvetica,sans-Serif" font-size="10.00">#</text>
<text text-anchor="start" x="14" y="-402.5" font-family="Helvetica,sans-Serif" font-size="10.00">bool addDataType(Iterator</text>
<text text-anchor="start" x="14" y="-390.5" font-family="Helvetica,sans-Serif" font-size="10.00">List&lt; Token &gt; &amp;tl, TokenResult &amp;tRes)</text>
<text text-anchor="start" x="4.38" y="-374.5" font-family="Helvetica,sans-Serif" font-size="10.00">#</text>
<text text-anchor="start" x="14" y="-374.5" font-family="Helvetica,sans-Serif" font-size="10.00">bool addInteger(Iterator</text>
<text text-anchor="start" x="14" y="-362.5" font-family="Helvetica,sans-Serif" font-size="10.00">List&lt; Token &gt; &amp;tl, TokenResult</text>
<text text-anchor="start" x="14" y="-350.5" font-family="Helvetica,sans-Serif" font-size="10.00"> &amp;tRes)</text>
<text text-anchor="start" x="4.38" y="-334.5" font-family="Helvetica,sans-Serif" font-size="10.00">#</text>
<text text-anchor="start" x="14" y="-334.5" font-family="Helvetica,sans-Serif" font-size="10.00">bool addFloat(IteratorList</text>
<text text-anchor="start" x="14" y="-322.5" font-family="Helvetica,sans-Serif" font-size="10.00">&lt; Token &gt; &amp;tl, TokenResult &amp;tRes)</text>
<text text-anchor="start" x="4.38" y="-306.5" font-family="Helvetica,sans-Serif" font-size="10.00">#</text>
<text text-anchor="start" x="14" y="-306.5" font-family="Helvetica,sans-Serif" font-size="10.00">bool addCoord(IteratorList</text>
<text text-anchor="start" x="14" y="-294.5" font-family="Helvetica,sans-Serif" font-size="10.00">&lt; Token &gt; &amp;tl, TokenResult &amp;tRes)</text>
<text text-anchor="start" x="4.38" y="-278.5" font-family="Helvetica,sans-Serif" font-size="10.00">#</text>
<text text-anchor="start" x="14" y="-278.5" font-family="Helvetica,sans-Serif" font-size="10.00">bool addZone(IteratorList</text>
<text text-anchor="start" x="14" y="-266.5" font-family="Helvetica,sans-Serif" font-size="10.00">&lt; Token &gt; &amp;tl, TokenResult &amp;tRes)</text>
<text text-anchor="start" x="4.38" y="-250.5" font-family="Helvetica,sans-Serif" font-size="10.00">#</text>
<text text-anchor="start" x="14" y="-250.5" font-family="Helvetica,sans-Serif" font-size="10.00">bool addBool(IteratorList</text>
<text text-anchor="start" x="14" y="-238.5" font-family="Helvetica,sans-Serif" font-size="10.00">&lt; Token &gt; &amp;tl, TokenResult &amp;tRes)</text>
<text text-anchor="start" x="14" y="-222.5" font-family="Helvetica,sans-Serif" font-size="10.00">and 10 more...</text>
<polygon fill="#666666" stroke="#666666" points="0,-726 0,-726 186,-726 186,-726 0,-726"/>
<polygon fill="#666666" stroke="#666666" points="0,-682 0,-682 12,-682 12,-682 0,-682"/>
<polygon fill="#666666" stroke="#666666" points="12,-682 12,-682 186,-682 186,-682 12,-682"/>
<polygon fill="none" stroke="#666666" points="0,-216 0,-744 186,-744 186,-216 0,-216"/>
</a>
</g>
</g>
<!-- Node2&#45;&gt;Node1 -->
<g id="edge5_Node000001_Node000002" class="edge">
<title>Node2&#45;&gt;Node1</title>
<g id="a_edge5_Node000001_Node000002"><a xlink:title=" ">
<path fill="none" stroke="#63b8ff" d="M165.01,-205.08C167.28,-196.43 169.49,-188.03 171.61,-179.98"/>
<polygon fill="none" stroke="#63b8ff" points="161.64,-204.14 162.48,-214.71 168.41,-205.92 161.64,-204.14"/>
</a>
</g>
</g>
<!-- Node3 -->
<g id="Node000003" class="node">
<title>Node3</title>
<g id="a_Node000003"><a xlink:href="$class_k_token.html" xlink:title=" ">
<polygon fill="white" stroke="none" points="160.88,-856 25.12,-856 25.12,-780 160.88,-780 160.88,-856"/>
<text text-anchor="start" x="76.5" y="-842.5" font-family="Helvetica,sans-Serif" font-size="10.00">KToken</text>
<text text-anchor="start" x="91.5" y="-826.5" font-family="Helvetica,sans-Serif" font-size="10.00"> </text>
<text text-anchor="start" x="29.12" y="-810.5" font-family="Helvetica,sans-Serif" font-size="10.00">#</text>
<text text-anchor="start" x="38.38" y="-810.5" font-family="Helvetica,sans-Serif" font-size="10.00">bool addTokens(IteratorList</text>
<text text-anchor="start" x="38.38" y="-798.5" font-family="Helvetica,sans-Serif" font-size="10.00">&lt; Token &gt; &amp;tl, TokenResult</text>
<text text-anchor="start" x="38.38" y="-786.5" font-family="Helvetica,sans-Serif" font-size="10.00"> &amp;tRes) override</text>
<polygon fill="#666666" stroke="#666666" points="25.12,-838 25.12,-838 160.88,-838 160.88,-838 25.12,-838"/>
<polygon fill="#666666" stroke="#666666" points="25.12,-822 25.12,-822 160.88,-822 160.88,-822 25.12,-822"/>
<polygon fill="none" stroke="#666666" points="25.12,-780 25.12,-856 160.88,-856 160.88,-780 25.12,-780"/>
</a>
</g>
</g>
<!-- Node3&#45;&gt;Node2 -->
<g id="edge6_Node000002_Node000003" class="edge">
<title>Node3&#45;&gt;Node2</title>
<g id="a_edge6_Node000002_Node000003"><a xlink:title=" ">
<path fill="none" stroke="#63b8ff" d="M93,-768.66C93,-761.01 93,-752.68 93,-743.82"/>
<polygon fill="none" stroke="#63b8ff" points="89.5,-768.57 93,-778.57 96.5,-768.57 89.5,-768.57"/>
</a>
</g>
</g>
<!-- Node4 -->
<g id="Node000004" class="node">
<title>Node4</title>
<g id="a_Node000004"><a xlink:href="$class_token.html" xlink:title=" ">
<polygon fill="white" stroke="none" points="163.88,-1256 22.12,-1256 22.12,-892 163.88,-892 163.88,-1256"/>
<text text-anchor="start" x="79.88" y="-1242.5" font-family="Helvetica,sans-Serif" font-size="10.00">Token</text>
<text text-anchor="start" x="26.5" y="-1226.5" font-family="Helvetica,sans-Serif" font-size="10.00">#</text>
<text text-anchor="start" x="36.12" y="-1226.5" font-family="Helvetica,sans-Serif" font-size="10.00">std::string tokenText</text>
<text text-anchor="start" x="26.5" y="-1210.5" font-family="Helvetica,sans-Serif" font-size="10.00">#</text>
<text text-anchor="start" x="36.12" y="-1210.5" font-family="Helvetica,sans-Serif" font-size="10.00">TokenVALUE tValue</text>
<text text-anchor="start" x="26.5" y="-1194.5" font-family="Helvetica,sans-Serif" font-size="10.00">#</text>
<text text-anchor="start" x="36.12" y="-1194.5" font-family="Helvetica,sans-Serif" font-size="10.00">int line</text>
<text text-anchor="start" x="26.12" y="-1178.5" font-family="Helvetica,sans-Serif" font-size="10.00">+</text>
<text text-anchor="start" x="36.12" y="-1178.5" font-family="Helvetica,sans-Serif" font-size="10.00">Token()</text>
<text text-anchor="start" x="26.12" y="-1162.5" font-family="Helvetica,sans-Serif" font-size="10.00">+</text>
<text text-anchor="start" x="36.12" y="-1162.5" font-family="Helvetica,sans-Serif" font-size="10.00">virtual DataType getData</text>
<text text-anchor="start" x="36.12" y="-1150.5" font-family="Helvetica,sans-Serif" font-size="10.00">Type(TokenResult &amp;tRes)</text>
<text text-anchor="start" x="26.12" y="-1134.5" font-family="Helvetica,sans-Serif" font-size="10.00">+</text>
<text text-anchor="start" x="36.12" y="-1134.5" font-family="Helvetica,sans-Serif" font-size="10.00">virtual void showTokenTree</text>
<text text-anchor="start" x="36.12" y="-1122.5" font-family="Helvetica,sans-Serif" font-size="10.00">(const int nestedLayer)</text>
<text text-anchor="start" x="26.12" y="-1106.5" font-family="Helvetica,sans-Serif" font-size="10.00">+</text>
<text text-anchor="start" x="36.12" y="-1106.5" font-family="Helvetica,sans-Serif" font-size="10.00">TokenVALUE getValue()</text>
<text text-anchor="start" x="26.12" y="-1090.5" font-family="Helvetica,sans-Serif" font-size="10.00">+</text>
<text text-anchor="start" x="36.12" y="-1090.5" font-family="Helvetica,sans-Serif" font-size="10.00">bool addError(TokenResult</text>
<text text-anchor="start" x="36.12" y="-1078.5" font-family="Helvetica,sans-Serif" font-size="10.00"> &amp;tRes, TokenVALUE value,</text>
<text text-anchor="start" x="36.12" y="-1066.5" font-family="Helvetica,sans-Serif" font-size="10.00"> ErrorType et=ErrorType::</text>
<text text-anchor="start" x="36.12" y="-1054.5" font-family="Helvetica,sans-Serif" font-size="10.00">MISSING)</text>
<text text-anchor="start" x="26.12" y="-1038.5" font-family="Helvetica,sans-Serif" font-size="10.00">+</text>
<text text-anchor="start" x="36.12" y="-1038.5" font-family="Helvetica,sans-Serif" font-size="10.00">bool addError(TokenResult</text>
<text text-anchor="start" x="36.12" y="-1026.5" font-family="Helvetica,sans-Serif" font-size="10.00"> &amp;tRes, DataType type)</text>
<text text-anchor="start" x="26.12" y="-1010.5" font-family="Helvetica,sans-Serif" font-size="10.00">+</text>
<text text-anchor="start" x="36.12" y="-1010.5" font-family="Helvetica,sans-Serif" font-size="10.00">std::string getTokenText()</text>
<text text-anchor="start" x="26.12" y="-994.5" font-family="Helvetica,sans-Serif" font-size="10.00">+</text>
<text text-anchor="start" x="36.12" y="-994.5" font-family="Helvetica,sans-Serif" font-size="10.00">int getLine()</text>
<text text-anchor="start" x="26.12" y="-978.5" font-family="Helvetica,sans-Serif" font-size="10.00">+</text>
<text text-anchor="start" x="36.12" y="-978.5" font-family="Helvetica,sans-Serif" font-size="10.00">bool hasValue(TokenVALUE</text>
<text text-anchor="start" x="36.12" y="-966.5" font-family="Helvetica,sans-Serif" font-size="10.00"> value) const</text>
<text text-anchor="start" x="26.12" y="-950.5" font-family="Helvetica,sans-Serif" font-size="10.00">+</text>
<text text-anchor="start" x="36.12" y="-950.5" font-family="Helvetica,sans-Serif" font-size="10.00">virtual bool addTokens</text>
<text text-anchor="start" x="36.12" y="-938.5" font-family="Helvetica,sans-Serif" font-size="10.00">(IteratorList&lt; Token &gt;</text>
<text text-anchor="start" x="36.12" y="-926.5" font-family="Helvetica,sans-Serif" font-size="10.00"> &amp;tl, TokenResult &amp;tRes)</text>
<text text-anchor="start" x="26.12" y="-910.5" font-family="Helvetica,sans-Serif" font-size="10.00">+</text>
<text text-anchor="start" x="36.12" y="-910.5" font-family="Helvetica,sans-Serif" font-size="10.00">virtual std::shared</text>
<text text-anchor="start" x="36.12" y="-898.5" font-family="Helvetica,sans-Serif" font-size="10.00">_ptr&lt; Tag &gt; execute()</text>
<polygon fill="#666666" stroke="#666666" points="22.12,-1238 22.12,-1238 163.88,-1238 163.88,-1238 22.12,-1238"/>
<polygon fill="#666666" stroke="#666666" points="22.12,-1190 22.12,-1190 34.12,-1190 34.12,-1190 22.12,-1190"/>
<polygon fill="#666666" stroke="#666666" points="34.12,-1190 34.12,-1190 163.88,-1190 163.88,-1190 34.12,-1190"/>
<polygon fill="none" stroke="#666666" points="22.12,-892 22.12,-1256 163.88,-1256 163.88,-892 22.12,-892"/>
</a>
</g>
</g>
<!-- Node4&#45;&gt;Node3 -->
<g id="edge7_Node000003_Node000004" class="edge">
<title>Node4&#45;&gt;Node3</title>
<g id="a_edge7_Node000003_Node000004"><a xlink:title=" ">
<path fill="none" stroke="#63b8ff" d="M93,-880.8C93,-871.75 93,-863.31 93,-855.75"/>
<polygon fill="none" stroke="#63b8ff" points="89.5,-880.61 93,-890.61 96.5,-880.61 89.5,-880.61"/>
</a>
</g>
</g>
<!-- Node5 -->
<g id="Node000005" class="node">
<title>Node5</title>
<g id="a_Node000005"><a xlink:href="$class_template_token.html" xlink:title=" ">
<polygon fill="white" stroke="none" points="390,-698 204,-698 204,-262 390,-262 390,-698"/>
<text text-anchor="start" x="264" y="-684.5" font-family="Helvetica,sans-Serif" font-size="10.00">TemplateToken</text>
<text text-anchor="start" x="208.38" y="-668.5" font-family="Helvetica,sans-Serif" font-size="10.00">#</text>
<text text-anchor="start" x="218" y="-668.5" font-family="Helvetica,sans-Serif" font-size="10.00">ArgumentsOverload template</text>
<text text-anchor="start" x="218" y="-656.5" font-family="Helvetica,sans-Serif" font-size="10.00">Arguments</text>
<text text-anchor="start" x="208.38" y="-640.5" font-family="Helvetica,sans-Serif" font-size="10.00">#</text>
<text text-anchor="start" x="218" y="-640.5" font-family="Helvetica,sans-Serif" font-size="10.00">TokenResult tRes</text>
<text text-anchor="start" x="208.38" y="-624.5" font-family="Helvetica,sans-Serif" font-size="10.00">#</text>
<text text-anchor="start" x="218" y="-624.5" font-family="Helvetica,sans-Serif" font-size="10.00">int line</text>
<text text-anchor="start" x="208" y="-608.5" font-family="Helvetica,sans-Serif" font-size="10.00">+</text>
<text text-anchor="start" x="218" y="-608.5" font-family="Helvetica,sans-Serif" font-size="10.00">TemplateToken()</text>
<text text-anchor="start" x="208" y="-592.5" font-family="Helvetica,sans-Serif" font-size="10.00">+</text>
<text text-anchor="start" x="218" y="-592.5" font-family="Helvetica,sans-Serif" font-size="10.00">TemplateToken(int</text>
<text text-anchor="start" x="218" y="-580.5" font-family="Helvetica,sans-Serif" font-size="10.00"> line)</text>
<text text-anchor="start" x="208" y="-564.5" font-family="Helvetica,sans-Serif" font-size="10.00">+</text>
<text text-anchor="start" x="218" y="-564.5" font-family="Helvetica,sans-Serif" font-size="10.00">bool addToken(TokenVALUE</text>
<text text-anchor="start" x="218" y="-552.5" font-family="Helvetica,sans-Serif" font-size="10.00"> tVal, IteratorList&lt; Token</text>
<text text-anchor="start" x="218" y="-540.5" font-family="Helvetica,sans-Serif" font-size="10.00"> &gt; &amp;tl, TokenResult &amp;tRes)</text>
<text text-anchor="start" x="208" y="-524.5" font-family="Helvetica,sans-Serif" font-size="10.00">+</text>
<text text-anchor="start" x="218" y="-524.5" font-family="Helvetica,sans-Serif" font-size="10.00">bool addType(DataType</text>
<text text-anchor="start" x="218" y="-512.5" font-family="Helvetica,sans-Serif" font-size="10.00"> tVal, IteratorList&lt;</text>
<text text-anchor="start" x="218" y="-500.5" font-family="Helvetica,sans-Serif" font-size="10.00"> Token &gt; &amp;tl, TokenResult</text>
<text text-anchor="start" x="218" y="-488.5" font-family="Helvetica,sans-Serif" font-size="10.00"> &amp;tRes)</text>
<text text-anchor="start" x="208" y="-472.5" font-family="Helvetica,sans-Serif" font-size="10.00">+</text>
<text text-anchor="start" x="218" y="-472.5" font-family="Helvetica,sans-Serif" font-size="10.00">bool addType(std::vector</text>
<text text-anchor="start" x="218" y="-460.5" font-family="Helvetica,sans-Serif" font-size="10.00">&lt; DataType &gt; listTypes,</text>
<text text-anchor="start" x="218" y="-448.5" font-family="Helvetica,sans-Serif" font-size="10.00"> IteratorList&lt; Token &gt; &amp;tl,</text>
<text text-anchor="start" x="218" y="-436.5" font-family="Helvetica,sans-Serif" font-size="10.00"> TokenResult &amp;tRes)</text>
<text text-anchor="start" x="208" y="-420.5" font-family="Helvetica,sans-Serif" font-size="10.00">+</text>
<text text-anchor="start" x="218" y="-420.5" font-family="Helvetica,sans-Serif" font-size="10.00">bool addOab(IteratorList</text>
<text text-anchor="start" x="218" y="-408.5" font-family="Helvetica,sans-Serif" font-size="10.00">&lt; Token &gt; &amp;tl, TokenResult &amp;tRes)</text>
<text text-anchor="start" x="208" y="-392.5" font-family="Helvetica,sans-Serif" font-size="10.00">+</text>
<text text-anchor="start" x="218" y="-392.5" font-family="Helvetica,sans-Serif" font-size="10.00">bool addCab(IteratorList</text>
<text text-anchor="start" x="218" y="-380.5" font-family="Helvetica,sans-Serif" font-size="10.00">&lt; Token &gt; &amp;tl, TokenResult &amp;tRes)</text>
<text text-anchor="start" x="208" y="-364.5" font-family="Helvetica,sans-Serif" font-size="10.00">+</text>
<text text-anchor="start" x="218" y="-364.5" font-family="Helvetica,sans-Serif" font-size="10.00">bool addNumber(IteratorList</text>
<text text-anchor="start" x="218" y="-352.5" font-family="Helvetica,sans-Serif" font-size="10.00">&lt; Token &gt; &amp;tl, TokenResult &amp;tRes)</text>
<text text-anchor="start" x="208" y="-336.5" font-family="Helvetica,sans-Serif" font-size="10.00">+</text>
<text text-anchor="start" x="218" y="-336.5" font-family="Helvetica,sans-Serif" font-size="10.00">bool addDataType(Iterator</text>
<text text-anchor="start" x="218" y="-324.5" font-family="Helvetica,sans-Serif" font-size="10.00">List&lt; Token &gt; &amp;tl, TokenResult &amp;tRes)</text>
<text text-anchor="start" x="208" y="-308.5" font-family="Helvetica,sans-Serif" font-size="10.00">+</text>
<text text-anchor="start" x="218" y="-308.5" font-family="Helvetica,sans-Serif" font-size="10.00">bool addInteger(Iterator</text>
<text text-anchor="start" x="218" y="-296.5" font-family="Helvetica,sans-Serif" font-size="10.00">List&lt; Token &gt; &amp;tl, TokenResult</text>
<text text-anchor="start" x="218" y="-284.5" font-family="Helvetica,sans-Serif" font-size="10.00"> &amp;tRes)</text>
<text text-anchor="start" x="218" y="-268.5" font-family="Helvetica,sans-Serif" font-size="10.00">and 12 more...</text>
<polygon fill="#666666" stroke="#666666" points="204,-680 204,-680 390,-680 390,-680 204,-680"/>
<polygon fill="#666666" stroke="#666666" points="204,-620 204,-620 216,-620 216,-620 204,-620"/>
<polygon fill="#666666" stroke="#666666" points="216,-620 216,-620 390,-620 390,-620 216,-620"/>
<polygon fill="none" stroke="#666666" points="204,-262 204,-698 390,-698 390,-262 204,-262"/>
</a>
</g>
</g>
<!-- Node5&#45;&gt;Node1 -->
<g id="edge8_Node000001_Node000005" class="edge">
<title>Node5&#45;&gt;Node1</title>
<g id="a_edge8_Node000001_Node000005"><a xlink:title=" ">
<path fill="none" stroke="#63b8ff" d="M237.12,-251.21C230.51,-226.06 224.1,-201.7 218.36,-179.87"/>
<polygon fill="none" stroke="#63b8ff" points="233.65,-251.78 239.58,-260.57 240.42,-250 233.65,-251.78"/>
</a>
</g>
</g>
</g>
</svg>
