<?xml version="1.0" encoding="UTF-8" standalone="no"?>
<!DOCTYPE svg PUBLIC "-//W3C//DTD SVG 1.1//EN"
 "http://www.w3.org/Graphics/SVG/1.1/DTD/svg11.dtd">
<!-- Generated by graphviz version 12.2.0 (20241103.1931)
 -->
<!-- Title: ArgumentsOverload::approveType Pages: 1 -->
<svg width="436pt" height="90pt"
 viewBox="0.00 0.00 436.25 90.00" xmlns="http://www.w3.org/2000/svg" xmlns:xlink="http://www.w3.org/1999/xlink">
<g id="graph0" class="graph" transform="scale(1 1) rotate(0) translate(4 86)">
<title>ArgumentsOverload::approveType</title>
<!-- Node1 -->
<g id="Node000001" class="node">
<title>Node1</title>
<g id="a_Node000001"><a xlink:title=" ">
<polygon fill="#999999" stroke="#666666" points="108.25,-57 0,-57 0,-25 108.25,-25 108.25,-57"/>
<text text-anchor="start" x="8" y="-43.5" font-family="Helvetica,sans-Serif" font-size="10.00">ArgumentsOverload::</text>
<text text-anchor="middle" x="54.12" y="-31.5" font-family="Helvetica,sans-Serif" font-size="10.00">approveType</text>
</a>
</g>
</g>
<!-- Node2 -->
<g id="Node000002" class="node">
<title>Node2</title>
<g id="a_Node000002"><a xlink:href="$class_arguments_overload.html#a0316dfe033593e31fe4f754e9fc2ea3a" xlink:title=" ">
<polygon fill="white" stroke="#666666" points="252.5,-57 144.25,-57 144.25,-25 252.5,-25 252.5,-57"/>
<text text-anchor="start" x="152.25" y="-43.5" font-family="Helvetica,sans-Serif" font-size="10.00">ArgumentsOverload::</text>
<text text-anchor="middle" x="198.38" y="-31.5" font-family="Helvetica,sans-Serif" font-size="10.00">updateTabs</text>
</a>
</g>
</g>
<!-- Node1&#45;&gt;Node2 -->
<g id="edge4_Node000001_Node000002" class="edge">
<title>Node1&#45;&gt;Node2</title>
<g id="a_edge4_Node000001_Node000002"><a xlink:title=" ">
<path fill="none" stroke="#63b8ff" d="M108.5,-41C116.43,-41 124.67,-41 132.8,-41"/>
<polygon fill="#63b8ff" stroke="#63b8ff" points="132.66,-44.5 142.66,-41 132.66,-37.5 132.66,-44.5"/>
</a>
</g>
</g>
<!-- Node3 -->
<g id="Node000003" class="node">
<title>Node3</title>
<g id="a_Node000003"><a xlink:href="$class_arguments_overload.html#a6b65e84a1deed85e8403721df4358b9e" xlink:title=" ">
<polygon fill="white" stroke="#666666" points="428.25,-82 288.5,-82 288.5,-50 428.25,-50 428.25,-82"/>
<text text-anchor="start" x="296.5" y="-68.5" font-family="Helvetica,sans-Serif" font-size="10.00">ArgumentsOverload::</text>
<text text-anchor="middle" x="358.38" y="-56.5" font-family="Helvetica,sans-Serif" font-size="10.00">updateCompletedArguments</text>
</a>
</g>
</g>
<!-- Node2&#45;&gt;Node3 -->
<g id="edge5_Node000002_Node000003" class="edge">
<title>Node2&#45;&gt;Node3</title>
<g id="a_edge5_Node000002_Node000003"><a xlink:title=" ">
<path fill="none" stroke="#63b8ff" d="M252.87,-49.46C260.68,-50.7 268.87,-52 277.08,-53.3"/>
<polygon fill="#63b8ff" stroke="#63b8ff" points="276.33,-56.72 286.76,-54.83 277.43,-49.81 276.33,-56.72"/>
</a>
</g>
</g>
<!-- Node4 -->
<g id="Node000004" class="node">
<title>Node4</title>
<g id="a_Node000004"><a xlink:href="$class_arguments_overload.html#adf2f990572f8ba98d4f45fec3181bca1" xlink:title=" ">
<polygon fill="white" stroke="#666666" points="415.12,-32 301.62,-32 301.62,0 415.12,0 415.12,-32"/>
<text text-anchor="start" x="309.62" y="-18.5" font-family="Helvetica,sans-Serif" font-size="10.00">ArgumentsOverload::</text>
<text text-anchor="middle" x="358.38" y="-6.5" font-family="Helvetica,sans-Serif" font-size="10.00">updateValidArguments</text>
</a>
</g>
</g>
<!-- Node2&#45;&gt;Node4 -->
<g id="edge6_Node000002_Node000004" class="edge">
<title>Node2&#45;&gt;Node4</title>
<g id="a_edge6_Node000002_Node000004"><a xlink:title=" ">
<path fill="none" stroke="#63b8ff" d="M252.87,-32.54C264.79,-30.65 277.59,-28.62 289.99,-26.66"/>
<polygon fill="#63b8ff" stroke="#63b8ff" points="290.41,-30.14 299.74,-25.12 289.32,-23.22 290.41,-30.14"/>
</a>
</g>
</g>
</g>
</svg>
