<?xml version="1.0" encoding="UTF-8" standalone="no"?>
<!DOCTYPE svg PUBLIC "-//W3C//DTD SVG 1.1//EN"
 "http://www.w3.org/Graphics/SVG/1.1/DTD/svg11.dtd">
<!-- Generated by graphviz version 12.2.0 (20241103.1931)
 -->
<!-- Title: Lexer::getNextTokenString Pages: 1 -->
<svg width="1940pt" height="85pt"
 viewBox="0.00 0.00 1940.00 85.00" xmlns="http://www.w3.org/2000/svg" xmlns:xlink="http://www.w3.org/1999/xlink">
<g id="graph0" class="graph" transform="scale(1 1) rotate(0) translate(4 81)">
<title>Lexer::getNextTokenString</title>
<!-- Node1 -->
<g id="Node000001" class="node">
<title>Node1</title>
<g id="a_Node000001"><a xlink:title=" ">
<polygon fill="#999999" stroke="#666666" points="1932,-39 1799.75,-39 1799.75,-19 1932,-19 1932,-39"/>
<text text-anchor="middle" x="1865.88" y="-25.5" font-family="Helvetica,sans-Serif" font-size="10.00">Lexer::getNextTokenString</text>
</a>
</g>
</g>
<!-- Node2 -->
<g id="Node000002" class="node">
<title>Node2</title>
<g id="a_Node000002"><a xlink:href="$class_lexer.html#acf897fb607a542d5c7c8cd4b0dcb1d18" xlink:title=" ">
<polygon fill="white" stroke="#666666" points="1752.12,-58 1644.62,-58 1644.62,-38 1752.12,-38 1752.12,-58"/>
<text text-anchor="middle" x="1698.38" y="-44.5" font-family="Helvetica,sans-Serif" font-size="10.00">Lexer::extractTokens</text>
</a>
</g>
</g>
<!-- Node1&#45;&gt;Node2 -->
<g id="edge16_Node000001_Node000002" class="edge">
<title>Node1&#45;&gt;Node2</title>
<g id="a_edge16_Node000001_Node000002"><a xlink:title=" ">
<path fill="none" stroke="#63b8ff" d="M1788.06,-37.82C1776.07,-39.2 1763.92,-40.59 1752.61,-41.89"/>
<polygon fill="#63b8ff" stroke="#63b8ff" points="1788.43,-41.3 1797.96,-36.68 1787.63,-34.35 1788.43,-41.3"/>
</a>
</g>
</g>
<!-- Node15 -->
<g id="Node000015" class="node">
<title>Node15</title>
<g id="a_Node000015"><a xlink:href="$class_lexer.html#a67add67d465e634d6820b6dcc711708a" xlink:title=" ">
<polygon fill="white" stroke="#666666" points="1763.75,-20 1633,-20 1633,0 1763.75,0 1763.75,-20"/>
<text text-anchor="middle" x="1698.38" y="-6.5" font-family="Helvetica,sans-Serif" font-size="10.00">Lexer::getNextTokenValue</text>
</a>
</g>
</g>
<!-- Node1&#45;&gt;Node15 -->
<g id="edge30_Node000001_Node000015" class="edge">
<title>Node1&#45;&gt;Node15</title>
<g id="a_edge30_Node000001_Node000015"><a xlink:title=" ">
<path fill="none" stroke="#63b8ff" d="M1788.15,-20.19C1780.09,-19.27 1771.95,-18.33 1764.04,-17.42"/>
<polygon fill="#63b8ff" stroke="#63b8ff" points="1787.63,-23.65 1797.96,-21.32 1788.43,-16.7 1787.63,-23.65"/>
</a>
</g>
</g>
<!-- Node3 -->
<g id="Node000003" class="node">
<title>Node3</title>
<g id="a_Node000003"><a xlink:href="$class_interpretor.html#a213dd04d8ca9dbb188f29e2284fcbc5a" xlink:title=" ">
<polygon fill="white" stroke="#666666" points="1597,-58 1485.75,-58 1485.75,-38 1597,-38 1597,-58"/>
<text text-anchor="middle" x="1541.38" y="-44.5" font-family="Helvetica,sans-Serif" font-size="10.00">Interpretor::getTokens</text>
</a>
</g>
</g>
<!-- Node2&#45;&gt;Node3 -->
<g id="edge17_Node000002_Node000003" class="edge">
<title>Node2&#45;&gt;Node3</title>
<g id="a_edge17_Node000002_Node000003"><a xlink:title=" ">
<path fill="none" stroke="#63b8ff" d="M1633.23,-48C1621.34,-48 1609.01,-48 1597.42,-48"/>
<polygon fill="#63b8ff" stroke="#63b8ff" points="1632.95,-51.5 1642.95,-48 1632.95,-44.5 1632.95,-51.5"/>
</a>
</g>
</g>
<!-- Node4 -->
<g id="Node000004" class="node">
<title>Node4</title>
<g id="a_Node000004"><a xlink:href="$class_interpretor.html#ad464f7beab8778df1253377d8084325c" xlink:title=" ">
<polygon fill="white" stroke="#666666" points="1444.5,-77 1323.5,-77 1323.5,-57 1444.5,-57 1444.5,-77"/>
<text text-anchor="middle" x="1384" y="-63.5" font-family="Helvetica,sans-Serif" font-size="10.00">Interpretor::compileTags</text>
</a>
</g>
</g>
<!-- Node3&#45;&gt;Node4 -->
<g id="edge18_Node000003_Node000004" class="edge">
<title>Node3&#45;&gt;Node4</title>
<g id="a_edge18_Node000003_Node000004"><a xlink:title=" ">
<path fill="none" stroke="#63b8ff" d="M1474.27,-56.08C1464.5,-57.28 1454.47,-58.5 1444.83,-59.68"/>
<polygon fill="#63b8ff" stroke="#63b8ff" points="1474.59,-59.57 1484.09,-54.88 1473.74,-52.62 1474.59,-59.57"/>
</a>
</g>
</g>
<!-- Node13 -->
<g id="Node000013" class="node">
<title>Node13</title>
<g id="a_Node000013"><a xlink:href="$class_interpretor.html#a73bdd0d1c2896aa2039bdccde17c0fa1" xlink:title=" ">
<polygon fill="white" stroke="#666666" points="1449.75,-39 1318.25,-39 1318.25,-19 1449.75,-19 1449.75,-39"/>
<text text-anchor="middle" x="1384" y="-25.5" font-family="Helvetica,sans-Serif" font-size="10.00">Interpretor::compileTokens</text>
</a>
</g>
</g>
<!-- Node3&#45;&gt;Node13 -->
<g id="edge27_Node000003_Node000013" class="edge">
<title>Node3&#45;&gt;Node13</title>
<g id="a_edge27_Node000003_Node000013"><a xlink:title=" ">
<path fill="none" stroke="#63b8ff" d="M1474.41,-39.93C1466.39,-38.95 1458.2,-37.95 1450.2,-36.97"/>
<polygon fill="#63b8ff" stroke="#63b8ff" points="1473.74,-43.38 1484.09,-41.12 1474.59,-36.43 1473.74,-43.38"/>
</a>
</g>
</g>
<!-- Node5 -->
<g id="Node000005" class="node">
<title>Node5</title>
<g id="a_Node000005"><a xlink:href="$class_interpretor.html#a6e04dd33cb518270ae83197706689a2e" xlink:title=" ">
<polygon fill="white" stroke="#666666" points="1282.25,-77 1148.5,-77 1148.5,-57 1282.25,-57 1282.25,-77"/>
<text text-anchor="middle" x="1215.38" y="-63.5" font-family="Helvetica,sans-Serif" font-size="10.00">Interpretor::readActivityFile</text>
</a>
</g>
</g>
<!-- Node4&#45;&gt;Node5 -->
<g id="edge19_Node000004_Node000005" class="edge">
<title>Node4&#45;&gt;Node5</title>
<g id="a_edge19_Node000004_Node000005"><a xlink:title=" ">
<path fill="none" stroke="#63b8ff" d="M1312.03,-67C1302.31,-67 1292.35,-67 1282.71,-67"/>
<polygon fill="#63b8ff" stroke="#63b8ff" points="1311.8,-70.5 1321.8,-67 1311.8,-63.5 1311.8,-70.5"/>
</a>
</g>
</g>
<!-- Node6 -->
<g id="Node000006" class="node">
<title>Node6</title>
<g id="a_Node000006"><a xlink:href="$class_my_frame.html#a6e0ebad55b1d785b586997826c512f7d" xlink:title=" ">
<polygon fill="white" stroke="#666666" points="1112.5,-58 999,-58 999,-38 1112.5,-38 1112.5,-58"/>
<text text-anchor="middle" x="1055.75" y="-44.5" font-family="Helvetica,sans-Serif" font-size="10.00">MyFrame::getMainTag</text>
</a>
</g>
</g>
<!-- Node5&#45;&gt;Node6 -->
<g id="edge20_Node000005_Node000006" class="edge">
<title>Node5&#45;&gt;Node6</title>
<g id="a_edge20_Node000005_Node000006"><a xlink:title=" ">
<path fill="none" stroke="#63b8ff" d="M1137.29,-57.71C1129.07,-56.72 1120.83,-55.72 1112.92,-54.77"/>
<polygon fill="#63b8ff" stroke="#63b8ff" points="1136.59,-61.15 1146.94,-58.87 1137.43,-54.2 1136.59,-61.15"/>
</a>
</g>
</g>
<!-- Node7 -->
<g id="Node000007" class="node">
<title>Node7</title>
<g id="a_Node000007"><a xlink:href="$class_my_frame.html#abb986879321b4dceaffb43eae82e37f1" xlink:title=" ">
<polygon fill="white" stroke="#666666" points="963,-58 827,-58 827,-38 963,-38 963,-58"/>
<text text-anchor="middle" x="895" y="-44.5" font-family="Helvetica,sans-Serif" font-size="10.00">MyFrame::createPanelTags</text>
</a>
</g>
</g>
<!-- Node6&#45;&gt;Node7 -->
<g id="edge21_Node000006_Node000007" class="edge">
<title>Node6&#45;&gt;Node7</title>
<g id="a_edge21_Node000006_Node000007"><a xlink:title=" ">
<path fill="none" stroke="#63b8ff" d="M987.34,-48C979.43,-48 971.35,-48 963.44,-48"/>
<polygon fill="#63b8ff" stroke="#63b8ff" points="987.27,-51.5 997.27,-48 987.27,-44.5 987.27,-51.5"/>
</a>
</g>
</g>
<!-- Node8 -->
<g id="Node000008" class="node">
<title>Node8</title>
<g id="a_Node000008"><a xlink:href="$class_my_frame.html#a7795237fe8d78e10023b2e078f9728e3" xlink:title=" ">
<polygon fill="white" stroke="#666666" points="791,-58 642.25,-58 642.25,-38 791,-38 791,-58"/>
<text text-anchor="middle" x="716.62" y="-44.5" font-family="Helvetica,sans-Serif" font-size="10.00">MyFrame::setProgramWindow</text>
</a>
</g>
</g>
<!-- Node7&#45;&gt;Node8 -->
<g id="edge22_Node000007_Node000008" class="edge">
<title>Node7&#45;&gt;Node8</title>
<g id="a_edge22_Node000007_Node000008"><a xlink:title=" ">
<path fill="none" stroke="#63b8ff" d="M815.14,-48C807.27,-48 799.3,-48 791.49,-48"/>
<polygon fill="#63b8ff" stroke="#63b8ff" points="815.05,-51.5 825.05,-48 815.05,-44.5 815.05,-51.5"/>
</a>
</g>
</g>
<!-- Node9 -->
<g id="Node000009" class="node">
<title>Node9</title>
<g id="a_Node000009"><a xlink:href="$class_my_frame.html#a72b4f4c02d1a12561c4cc1f5f7685db8" xlink:title=" ">
<polygon fill="white" stroke="#666666" points="606.25,-58 468,-58 468,-38 606.25,-38 606.25,-58"/>
<text text-anchor="middle" x="537.12" y="-44.5" font-family="Helvetica,sans-Serif" font-size="10.00">MyFrame::setProgramPanel</text>
</a>
</g>
</g>
<!-- Node8&#45;&gt;Node9 -->
<g id="edge23_Node000008_Node000009" class="edge">
<title>Node8&#45;&gt;Node9</title>
<g id="a_edge23_Node000008_Node000009"><a xlink:title=" ">
<path fill="none" stroke="#63b8ff" d="M630.55,-48C622.49,-48 614.39,-48 606.51,-48"/>
<polygon fill="#63b8ff" stroke="#63b8ff" points="630.38,-51.5 640.38,-48 630.38,-44.5 630.38,-51.5"/>
</a>
</g>
</g>
<!-- Node10 -->
<g id="Node000010" class="node">
<title>Node10</title>
<g id="a_Node000010"><a xlink:href="$class_my_frame.html#a0281cb45b6735fcbd2c885d98c874d18" xlink:title=" ">
<polygon fill="white" stroke="#666666" points="432,-58 299,-58 299,-38 432,-38 432,-58"/>
<text text-anchor="middle" x="365.5" y="-44.5" font-family="Helvetica,sans-Serif" font-size="10.00">MyFrame::setBottomPanel</text>
</a>
</g>
</g>
<!-- Node9&#45;&gt;Node10 -->
<g id="edge24_Node000009_Node000010" class="edge">
<title>Node9&#45;&gt;Node10</title>
<g id="a_edge24_Node000009_Node000010"><a xlink:title=" ">
<path fill="none" stroke="#63b8ff" d="M456.3,-48C448.24,-48 440.12,-48 432.23,-48"/>
<polygon fill="#63b8ff" stroke="#63b8ff" points="456.11,-51.5 466.11,-48 456.11,-44.5 456.11,-51.5"/>
</a>
</g>
</g>
<!-- Node11 -->
<g id="Node000011" class="node">
<title>Node11</title>
<g id="a_Node000011"><a xlink:href="$class_my_frame.html#a774684146b2b14e42891f6d8b8a73912" xlink:title=" ">
<polygon fill="white" stroke="#666666" points="263,-58 140.5,-58 140.5,-38 263,-38 263,-58"/>
<text text-anchor="middle" x="201.75" y="-44.5" font-family="Helvetica,sans-Serif" font-size="10.00">MyFrame::setMainPanel</text>
</a>
</g>
</g>
<!-- Node10&#45;&gt;Node11 -->
<g id="edge25_Node000010_Node000011" class="edge">
<title>Node10&#45;&gt;Node11</title>
<g id="a_edge25_Node000010_Node000011"><a xlink:title=" ">
<path fill="none" stroke="#63b8ff" d="M287.35,-48C279.26,-48 271.13,-48 263.27,-48"/>
<polygon fill="#63b8ff" stroke="#63b8ff" points="287.2,-51.5 297.2,-48 287.2,-44.5 287.2,-51.5"/>
</a>
</g>
</g>
<!-- Node12 -->
<g id="Node000012" class="node">
<title>Node12</title>
<g id="a_Node000012"><a xlink:href="$class_my_frame.html#af13d7bffe3d6844c2331085f423764a4" xlink:title=" ">
<polygon fill="white" stroke="#666666" points="104.5,-58 0,-58 0,-38 104.5,-38 104.5,-58"/>
<text text-anchor="middle" x="52.25" y="-44.5" font-family="Helvetica,sans-Serif" font-size="10.00">MyFrame::MyFrame</text>
</a>
</g>
</g>
<!-- Node11&#45;&gt;Node12 -->
<g id="edge26_Node000011_Node000012" class="edge">
<title>Node11&#45;&gt;Node12</title>
<g id="a_edge26_Node000011_Node000012"><a xlink:title=" ">
<path fill="none" stroke="#63b8ff" d="M128.91,-48C120.79,-48 112.64,-48 104.85,-48"/>
<polygon fill="#63b8ff" stroke="#63b8ff" points="128.82,-51.5 138.82,-48 128.82,-44.5 128.82,-51.5"/>
</a>
</g>
</g>
<!-- Node14 -->
<g id="Node000014" class="node">
<title>Node14</title>
<g id="a_Node000014"><a xlink:href="$class_interpretor.html#a885b425a60dd2467089fc680f4528f03" xlink:title=" ">
<polygon fill="white" stroke="#666666" points="1274.75,-39 1156,-39 1156,-19 1274.75,-19 1274.75,-39"/>
<text text-anchor="middle" x="1215.38" y="-25.5" font-family="Helvetica,sans-Serif" font-size="10.00">Interpretor::doUnitTests</text>
</a>
</g>
</g>
<!-- Node13&#45;&gt;Node14 -->
<g id="edge28_Node000013_Node000014" class="edge">
<title>Node13&#45;&gt;Node14</title>
<g id="a_edge28_Node000013_Node000014"><a xlink:title=" ">
<path fill="none" stroke="#63b8ff" d="M1306.69,-29C1296.09,-29 1285.33,-29 1275.12,-29"/>
<polygon fill="#63b8ff" stroke="#63b8ff" points="1306.59,-32.5 1316.59,-29 1306.59,-25.5 1306.59,-32.5"/>
</a>
</g>
</g>
<!-- Node14&#45;&gt;Node6 -->
<g id="edge29_Node000014_Node000006" class="edge">
<title>Node14&#45;&gt;Node6</title>
<g id="a_edge29_Node000014_Node000006"><a xlink:title=" ">
<path fill="none" stroke="#63b8ff" d="M1144.37,-37.44C1133.83,-38.71 1123.08,-40.01 1112.88,-41.23"/>
<polygon fill="#63b8ff" stroke="#63b8ff" points="1144.67,-40.93 1154.18,-36.26 1143.83,-33.98 1144.67,-40.93"/>
</a>
</g>
</g>
</g>
</svg>
