<?xml version="1.0" encoding="UTF-8" standalone="no"?>
<!DOCTYPE svg PUBLIC "-//W3C//DTD SVG 1.1//EN"
 "http://www.w3.org/Graphics/SVG/1.1/DTD/svg11.dtd">
<!-- Generated by graphviz version 12.2.0 (20241103.1931)
 -->
<!-- Title: IfTagPanel::clone Pages: 1 -->
<svg width="1520pt" height="574pt"
 viewBox="0.00 0.00 1519.50 574.00" xmlns="http://www.w3.org/2000/svg" xmlns:xlink="http://www.w3.org/1999/xlink">
<g id="graph0" class="graph" transform="scale(1 1) rotate(0) translate(4 570)">
<title>IfTagPanel::clone</title>
<!-- Node1 -->
<g id="Node000001" class="node">
<title>Node1</title>
<g id="a_Node000001"><a xlink:title=" ">
<polygon fill="#999999" stroke="#666666" points="91.75,-182 0,-182 0,-162 91.75,-162 91.75,-182"/>
<text text-anchor="middle" x="45.88" y="-168.5" font-family="Helvetica,sans-Serif" font-size="10.00">IfTagPanel::clone</text>
</a>
</g>
</g>
<!-- Node2 -->
<g id="Node000002" class="node">
<title>Node2</title>
<g id="a_Node000002"><a xlink:href="$class_if_tag_panel.html#a622e1c9b8393a4c17deaf299a082747d" xlink:title=" ">
<polygon fill="white" stroke="#666666" points="242.75,-182 127.75,-182 127.75,-162 242.75,-162 242.75,-182"/>
<text text-anchor="middle" x="185.25" y="-168.5" font-family="Helvetica,sans-Serif" font-size="10.00">IfTagPanel::IfTagPanel</text>
</a>
</g>
</g>
<!-- Node1&#45;&gt;Node2 -->
<g id="edge41_Node000001_Node000002" class="edge">
<title>Node1&#45;&gt;Node2</title>
<g id="a_edge41_Node000001_Node000002"><a xlink:title=" ">
<path fill="none" stroke="#63b8ff" d="M92.24,-172C99.89,-172 107.97,-172 116.05,-172"/>
<polygon fill="#63b8ff" stroke="#63b8ff" points="115.91,-175.5 125.91,-172 115.91,-168.5 115.91,-175.5"/>
</a>
</g>
</g>
<!-- Node3 -->
<g id="Node000003" class="node">
<title>Node3</title>
<g id="a_Node000003"><a xlink:href="$class_tag_panel.html#a4fcedad553eb65983ba7a8da2d5895f3" xlink:title=" ">
<polygon fill="white" stroke="#666666" points="354,-182 278.75,-182 278.75,-162 354,-162 354,-182"/>
<text text-anchor="middle" x="316.38" y="-168.5" font-family="Helvetica,sans-Serif" font-size="10.00">TagPanel::init</text>
</a>
</g>
</g>
<!-- Node2&#45;&gt;Node3 -->
<g id="edge42_Node000002_Node000003" class="edge">
<title>Node2&#45;&gt;Node3</title>
<g id="a_edge42_Node000002_Node000003"><a xlink:title=" ">
<path fill="none" stroke="#63b8ff" d="M242.89,-172C250.99,-172 259.26,-172 267.18,-172"/>
<polygon fill="#63b8ff" stroke="#63b8ff" points="266.96,-175.5 276.96,-172 266.96,-168.5 266.96,-175.5"/>
</a>
</g>
</g>
<!-- Node4 -->
<g id="Node000004" class="node">
<title>Node4</title>
<g id="a_Node000004"><a xlink:href="$class_tag_panel.html#a75a1eb94084fc21b1e50322a1c385733" xlink:title=" ">
<polygon fill="white" stroke="#666666" points="523.75,-333 390,-333 390,-313 523.75,-313 523.75,-333"/>
<text text-anchor="middle" x="456.88" y="-319.5" font-family="Helvetica,sans-Serif" font-size="10.00">TagPanel::addComponents</text>
</a>
</g>
</g>
<!-- Node3&#45;&gt;Node4 -->
<g id="edge43_Node000003_Node000004" class="edge">
<title>Node3&#45;&gt;Node4</title>
<g id="a_edge43_Node000003_Node000004"><a xlink:title=" ">
<path fill="none" stroke="#63b8ff" d="M322.97,-182.31C334,-202.02 360.1,-245.79 390,-276 401.46,-287.58 416.06,-298.32 428.6,-306.59"/>
<polygon fill="#63b8ff" stroke="#63b8ff" points="426.53,-309.43 436.84,-311.86 430.3,-303.53 426.53,-309.43"/>
</a>
</g>
</g>
<!-- Node20 -->
<g id="Node000020" class="node">
<title>Node20</title>
<g id="a_Node000020"><a xlink:href="$class_tag_panel.html#a2974706b1d2a79806571fbebd1f7d56b" xlink:title=" ">
<polygon fill="white" stroke="#666666" points="508.38,-267 405.38,-267 405.38,-247 508.38,-247 508.38,-267"/>
<text text-anchor="middle" x="456.88" y="-253.5" font-family="Helvetica,sans-Serif" font-size="10.00">TagPanel::initSizers</text>
</a>
</g>
</g>
<!-- Node3&#45;&gt;Node20 -->
<g id="edge66_Node000003_Node000020" class="edge">
<title>Node3&#45;&gt;Node20</title>
<g id="a_edge66_Node000003_Node000020"><a xlink:title=" ">
<path fill="none" stroke="#63b8ff" d="M334.36,-182.42C358.16,-197.03 401.66,-223.73 429.64,-240.9"/>
<polygon fill="#63b8ff" stroke="#63b8ff" points="427.54,-243.72 437.9,-245.97 431.2,-237.75 427.54,-243.72"/>
</a>
</g>
</g>
<!-- Node24 -->
<g id="Node000024" class="node">
<title>Node24</title>
<g id="a_Node000024"><a xlink:href="$class_tag_panel.html#a746b3898803ea72e2a7500d7ed73d9ce" xlink:title=" ">
<polygon fill="white" stroke="#666666" points="509.12,-182 404.62,-182 404.62,-162 509.12,-162 509.12,-182"/>
<text text-anchor="middle" x="456.88" y="-168.5" font-family="Helvetica,sans-Serif" font-size="10.00">TagPanel::setColors</text>
</a>
</g>
</g>
<!-- Node3&#45;&gt;Node24 -->
<g id="edge70_Node000003_Node000024" class="edge">
<title>Node3&#45;&gt;Node24</title>
<g id="a_edge70_Node000003_Node000024"><a xlink:title=" ">
<path fill="none" stroke="#63b8ff" d="M354.49,-172C366.33,-172 379.77,-172 392.92,-172"/>
<polygon fill="#63b8ff" stroke="#63b8ff" points="392.82,-175.5 402.82,-172 392.82,-168.5 392.82,-175.5"/>
</a>
</g>
</g>
<!-- Node27 -->
<g id="Node000027" class="node">
<title>Node27</title>
<g id="a_Node000027"><a xlink:href="$class_tag_panel.html#a370e5a7a79772ae4775f24de35506582" xlink:title=" ">
<polygon fill="white" stroke="#666666" points="521.5,-125 392.25,-125 392.25,-105 521.5,-105 521.5,-125"/>
<text text-anchor="middle" x="456.88" y="-111.5" font-family="Helvetica,sans-Serif" font-size="10.00">TagPanel::setPaintEvents</text>
</a>
</g>
</g>
<!-- Node3&#45;&gt;Node27 -->
<g id="edge73_Node000003_Node000027" class="edge">
<title>Node3&#45;&gt;Node27</title>
<g id="a_edge73_Node000003_Node000027"><a xlink:title=" ">
<path fill="none" stroke="#63b8ff" d="M342.78,-161.55C364.45,-152.63 395.85,-139.7 420.07,-129.74"/>
<polygon fill="#63b8ff" stroke="#63b8ff" points="421.32,-133.01 429.23,-125.96 418.65,-126.53 421.32,-133.01"/>
</a>
</g>
</g>
<!-- Node33 -->
<g id="Node000033" class="node">
<title>Node33</title>
<g id="a_Node000033"><a xlink:href="$class_tag_panel.html#aa65c4779bd09af4389b2ca49e6ea4136" xlink:title=" ">
<polygon fill="white" stroke="#666666" points="515.88,-49 397.88,-49 397.88,-29 515.88,-29 515.88,-49"/>
<text text-anchor="middle" x="456.88" y="-35.5" font-family="Helvetica,sans-Serif" font-size="10.00">TagPanel::setTagName</text>
</a>
</g>
</g>
<!-- Node3&#45;&gt;Node33 -->
<g id="edge79_Node000003_Node000033" class="edge">
<title>Node3&#45;&gt;Node33</title>
<g id="a_edge79_Node000003_Node000033"><a xlink:title=" ">
<path fill="none" stroke="#63b8ff" d="M326.49,-161.87C339.97,-147.02 366.2,-118.65 390,-96 404.46,-82.24 421.51,-67.52 434.65,-56.49"/>
<polygon fill="#63b8ff" stroke="#63b8ff" points="436.82,-59.23 442.26,-50.14 432.34,-53.85 436.82,-59.23"/>
</a>
</g>
</g>
<!-- Node5 -->
<g id="Node000005" class="node">
<title>Node5</title>
<g id="a_Node000005"><a xlink:href="$class_tag_panel.html#a6e53bfa1e9893d31775867a4f0c7c749" xlink:title=" ">
<polygon fill="white" stroke="#666666" points="690.88,-362 581.12,-362 581.12,-342 690.88,-342 690.88,-362"/>
<text text-anchor="middle" x="636" y="-348.5" font-family="Helvetica,sans-Serif" font-size="10.00">TagPanel::setTagLine</text>
</a>
</g>
</g>
<!-- Node4&#45;&gt;Node5 -->
<g id="edge44_Node000004_Node000005" class="edge">
<title>Node4&#45;&gt;Node5</title>
<g id="a_edge44_Node000004_Node000005"><a xlink:title=" ">
<path fill="none" stroke="#63b8ff" d="M521.82,-333.47C537.37,-336.02 554.02,-338.74 569.63,-341.3"/>
<polygon fill="#63b8ff" stroke="#63b8ff" points="568.86,-344.72 579.3,-342.88 569.99,-337.81 568.86,-344.72"/>
</a>
</g>
</g>
<!-- Node6 -->
<g id="Node000006" class="node">
<title>Node6</title>
<g id="a_Node000006"><a xlink:href="$class_tag_panel.html#aaa6f2d383b2380c7c103b5019bd05782" xlink:title=" ">
<polygon fill="white" stroke="#666666" points="872.62,-409 767.38,-409 767.38,-389 872.62,-389 872.62,-409"/>
<text text-anchor="middle" x="820" y="-395.5" font-family="Helvetica,sans-Serif" font-size="10.00">TagPanel::addMover</text>
</a>
</g>
</g>
<!-- Node5&#45;&gt;Node6 -->
<g id="edge45_Node000005_Node000006" class="edge">
<title>Node5&#45;&gt;Node6</title>
<g id="a_edge45_Node000005_Node000006"><a xlink:title=" ">
<path fill="none" stroke="#63b8ff" d="M677.39,-362.43C703.93,-369.28 738.88,-378.31 767.42,-385.68"/>
<polygon fill="#63b8ff" stroke="#63b8ff" points="766.38,-389.03 776.94,-388.14 768.13,-382.25 766.38,-389.03"/>
</a>
</g>
</g>
<!-- Node16 -->
<g id="Node000016" class="node">
<title>Node16</title>
<g id="a_Node000016"><a xlink:href="$class_tag_panel.html#ab2f6c36e777443dcffd1cff986027790" xlink:title=" ">
<polygon fill="white" stroke="#666666" points="884.25,-362 755.75,-362 755.75,-342 884.25,-342 884.25,-362"/>
<text text-anchor="middle" x="820" y="-348.5" font-family="Helvetica,sans-Serif" font-size="10.00">TagPanel::initDeletePanel</text>
</a>
</g>
</g>
<!-- Node5&#45;&gt;Node16 -->
<g id="edge60_Node000005_Node000016" class="edge">
<title>Node5&#45;&gt;Node16</title>
<g id="a_edge60_Node000005_Node000016"><a xlink:title=" ">
<path fill="none" stroke="#63b8ff" d="M691.11,-352C707.7,-352 726.26,-352 743.98,-352"/>
<polygon fill="#63b8ff" stroke="#63b8ff" points="743.97,-355.5 753.97,-352 743.97,-348.5 743.97,-355.5"/>
</a>
</g>
</g>
<!-- Node18 -->
<g id="Node000018" class="node">
<title>Node18</title>
<g id="a_Node000018"><a xlink:href="$class_tag_panel.html#a01e839de7aa3bedbe9a7bc1f152a02f8" xlink:title=" ">
<polygon fill="white" stroke="#666666" points="891.75,-305 748.25,-305 748.25,-285 891.75,-285 891.75,-305"/>
<text text-anchor="middle" x="820" y="-291.5" font-family="Helvetica,sans-Serif" font-size="10.00">TagPanel::setStaticTagName</text>
</a>
</g>
</g>
<!-- Node5&#45;&gt;Node18 -->
<g id="edge64_Node000005_Node000018" class="edge">
<title>Node5&#45;&gt;Node18</title>
<g id="a_edge64_Node000005_Node000018"><a xlink:title=" ">
<path fill="none" stroke="#63b8ff" d="M681.36,-341.54C691.56,-338.93 702.32,-336.01 712.25,-333 735.44,-325.96 761.03,-316.9 781.34,-309.39"/>
<polygon fill="#63b8ff" stroke="#63b8ff" points="782.47,-312.7 790.61,-305.93 780.02,-306.14 782.47,-312.7"/>
</a>
</g>
</g>
<!-- Node7 -->
<g id="Node000007" class="node">
<title>Node7</title>
<g id="a_Node000007"><a xlink:href="$class_tag_panel.html#a33ffecd8625bc7e0783d208d8d18daf7" xlink:title=" ">
<polygon fill="white" stroke="#666666" points="1075,-509 927.75,-509 927.75,-489 1075,-489 1075,-509"/>
<text text-anchor="middle" x="1001.38" y="-495.5" font-family="Helvetica,sans-Serif" font-size="10.00">TagPanel::OnMoveDownClick</text>
</a>
</g>
</g>
<!-- Node6&#45;&gt;Node7 -->
<g id="edge46_Node000006_Node000007" class="edge">
<title>Node6&#45;&gt;Node7</title>
<g id="a_edge46_Node000006_Node000007"><a xlink:title=" ">
<path fill="none" stroke="#63b8ff" d="M839.52,-409.33C870.94,-426.84 934.88,-462.49 971.98,-483.17"/>
<polygon fill="#63b8ff" stroke="#63b8ff" points="969.93,-486.03 980.36,-487.84 973.33,-479.92 969.93,-486.03"/>
</a>
</g>
</g>
<!-- Node12 -->
<g id="Node000012" class="node">
<title>Node12</title>
<g id="a_Node000012"><a xlink:href="$class_tag_panel.html#a4ddfadd1d39efac7f0123146fc9f8233" xlink:title=" ">
<polygon fill="white" stroke="#666666" points="1068.62,-414 934.12,-414 934.12,-394 1068.62,-394 1068.62,-414"/>
<text text-anchor="middle" x="1001.38" y="-400.5" font-family="Helvetica,sans-Serif" font-size="10.00">TagPanel::OnMoveUpClick</text>
</a>
</g>
</g>
<!-- Node6&#45;&gt;Node12 -->
<g id="edge53_Node000006_Node000012" class="edge">
<title>Node6&#45;&gt;Node12</title>
<g id="a_edge53_Node000006_Node000012"><a xlink:title=" ">
<path fill="none" stroke="#63b8ff" d="M872.88,-400.45C888.35,-400.88 905.66,-401.36 922.41,-401.83"/>
<polygon fill="#63b8ff" stroke="#63b8ff" points="922.28,-405.32 932.37,-402.1 922.47,-398.33 922.28,-405.32"/>
</a>
</g>
</g>
<!-- Node15 -->
<g id="Node000015" class="node">
<title>Node15</title>
<g id="a_Node000015"><a xlink:href="$class_tag_panel.html#a43c96ffa9523c002fb96126500209ce8" xlink:title=" ">
<polygon fill="white" stroke="#666666" points="1058.88,-376 943.88,-376 943.88,-356 1058.88,-356 1058.88,-376"/>
<text text-anchor="middle" x="1001.38" y="-362.5" font-family="Helvetica,sans-Serif" font-size="10.00">TagPanel::SetLineFont</text>
</a>
</g>
</g>
<!-- Node6&#45;&gt;Node15 -->
<g id="edge59_Node000006_Node000015" class="edge">
<title>Node6&#45;&gt;Node15</title>
<g id="a_edge59_Node000006_Node000015"><a xlink:title=" ">
<path fill="none" stroke="#63b8ff" d="M872.88,-389.46C891.48,-386.03 912.73,-382.12 932.48,-378.49"/>
<polygon fill="#63b8ff" stroke="#63b8ff" points="932.89,-381.97 942.1,-376.72 931.63,-375.09 932.89,-381.97"/>
</a>
</g>
</g>
<!-- Node8 -->
<g id="Node000008" class="node">
<title>Node8</title>
<g id="a_Node000008"><a xlink:href="$class_tag_panel.html#aefc411bf7be4bd7fd05b3e8a48a6671f" xlink:title=" ">
<polygon fill="white" stroke="#666666" points="1233.5,-566 1120.75,-566 1120.75,-546 1233.5,-546 1233.5,-566"/>
<text text-anchor="middle" x="1177.12" y="-552.5" font-family="Helvetica,sans-Serif" font-size="10.00">TagPanel::getNextTag</text>
</a>
</g>
</g>
<!-- Node7&#45;&gt;Node8 -->
<g id="edge47_Node000007_Node000008" class="edge">
<title>Node7&#45;&gt;Node8</title>
<g id="a_edge47_Node000007_Node000008"><a xlink:title=" ">
<path fill="none" stroke="#63b8ff" d="M1034.24,-509.45C1062.08,-518.59 1102.71,-531.92 1133.36,-541.97"/>
<polygon fill="#63b8ff" stroke="#63b8ff" points="1132.13,-545.25 1142.73,-545.04 1134.32,-538.6 1132.13,-545.25"/>
</a>
</g>
</g>
<!-- Node9 -->
<g id="Node000009" class="node">
<title>Node9</title>
<g id="a_Node000009"><a xlink:href="$_tag_panel_8cpp.html#a2f4c4fdbb29d8e8fadcbbd9673b3c370" xlink:title=" ">
<polygon fill="white" stroke="#666666" points="1355.25,-452 1279.25,-452 1279.25,-432 1355.25,-432 1355.25,-452"/>
<text text-anchor="middle" x="1317.25" y="-438.5" font-family="Helvetica,sans-Serif" font-size="10.00">GetParentTag</text>
</a>
</g>
</g>
<!-- Node7&#45;&gt;Node9 -->
<g id="edge50_Node000007_Node000009" class="edge">
<title>Node7&#45;&gt;Node9</title>
<g id="a_edge50_Node000007_Node000009"><a xlink:title=" ">
<path fill="none" stroke="#63b8ff" d="M1061.56,-509.5C1111.43,-515.91 1183.94,-519.41 1243.25,-499 1265.45,-491.36 1286.07,-473.89 1299.7,-460.29"/>
<polygon fill="#63b8ff" stroke="#63b8ff" points="1302.15,-462.79 1306.54,-453.15 1297.09,-457.95 1302.15,-462.79"/>
</a>
</g>
</g>
<!-- Node11 -->
<g id="Node000011" class="node">
<title>Node11</title>
<g id="a_Node000011"><a xlink:href="$class_tag_panel.html#a9a11954167303954710c12832b39fbf4" xlink:title=" ">
<polygon fill="white" stroke="#666666" points="1229.38,-490 1124.88,-490 1124.88,-470 1229.38,-470 1229.38,-490"/>
<text text-anchor="middle" x="1177.12" y="-476.5" font-family="Helvetica,sans-Serif" font-size="10.00">TagPanel::isLastTag</text>
</a>
</g>
</g>
<!-- Node7&#45;&gt;Node11 -->
<g id="edge51_Node000007_Node000011" class="edge">
<title>Node7&#45;&gt;Node11</title>
<g id="a_edge51_Node000007_Node000011"><a xlink:title=" ">
<path fill="none" stroke="#63b8ff" d="M1075.31,-491.02C1087.96,-489.64 1101.02,-488.21 1113.38,-486.86"/>
<polygon fill="#63b8ff" stroke="#63b8ff" points="1113.43,-490.38 1122.99,-485.81 1112.67,-483.42 1113.43,-490.38"/>
</a>
</g>
</g>
<!-- Node8&#45;&gt;Node9 -->
<g id="edge48_Node000008_Node000009" class="edge">
<title>Node8&#45;&gt;Node9</title>
<g id="a_edge48_Node000008_Node000009"><a xlink:title=" ">
<path fill="none" stroke="#63b8ff" d="M1217.03,-545.52C1226.11,-542.06 1235.41,-537.61 1243.25,-532 1269.6,-513.14 1291.69,-482.39 1304.45,-462.17"/>
<polygon fill="#63b8ff" stroke="#63b8ff" points="1307.39,-464.08 1309.61,-453.72 1301.41,-460.43 1307.39,-464.08"/>
</a>
</g>
</g>
<!-- Node10 -->
<g id="Node000010" class="node">
<title>Node10</title>
<g id="a_Node000010"><a xlink:href="$class_tag_panel.html#af3b5b6fc2b16171af7cab7b0d79d9ed7" xlink:title=" ">
<polygon fill="white" stroke="#666666" points="1511.5,-452 1391.25,-452 1391.25,-432 1511.5,-432 1511.5,-452"/>
<text text-anchor="middle" x="1451.38" y="-438.5" font-family="Helvetica,sans-Serif" font-size="10.00">TagPanel::getParentTag</text>
</a>
</g>
</g>
<!-- Node9&#45;&gt;Node10 -->
<g id="edge49_Node000009_Node000010" class="edge">
<title>Node9&#45;&gt;Node10</title>
<g id="a_edge49_Node000009_Node000010"><a xlink:title=" ">
<path fill="none" stroke="#63b8ff" d="M1355.41,-442C1362.96,-442 1371.15,-442 1379.43,-442"/>
<polygon fill="#63b8ff" stroke="#63b8ff" points="1379.24,-445.5 1389.24,-442 1379.24,-438.5 1379.24,-445.5"/>
</a>
</g>
</g>
<!-- Node11&#45;&gt;Node9 -->
<g id="edge52_Node000011_Node000009" class="edge">
<title>Node11&#45;&gt;Node9</title>
<g id="a_edge52_Node000011_Node000009"><a xlink:title=" ">
<path fill="none" stroke="#63b8ff" d="M1216.23,-469.52C1232.35,-465.08 1251.3,-459.87 1268.34,-455.18"/>
<polygon fill="#63b8ff" stroke="#63b8ff" points="1269.05,-458.62 1277.76,-452.59 1267.19,-451.87 1269.05,-458.62"/>
</a>
</g>
</g>
<!-- Node12&#45;&gt;Node9 -->
<g id="edge54_Node000012_Node000009" class="edge">
<title>Node12&#45;&gt;Node9</title>
<g id="a_edge54_Node000012_Node000009"><a xlink:title=" ">
<path fill="none" stroke="#63b8ff" d="M1057.22,-414.48C1074.4,-417.53 1093.45,-420.66 1111,-423 1164.38,-430.13 1225.94,-435.44 1267.6,-438.61"/>
<polygon fill="#63b8ff" stroke="#63b8ff" points="1267.33,-442.1 1277.56,-439.35 1267.85,-435.12 1267.33,-442.1"/>
</a>
</g>
</g>
<!-- Node13 -->
<g id="Node000013" class="node">
<title>Node13</title>
<g id="a_Node000013"><a xlink:href="$class_tag_panel.html#a20a4cc67dc3ecd4538cb8af3c9668421" xlink:title=" ">
<polygon fill="white" stroke="#666666" points="1242.12,-414 1112.12,-414 1112.12,-394 1242.12,-394 1242.12,-414"/>
<text text-anchor="middle" x="1177.12" y="-400.5" font-family="Helvetica,sans-Serif" font-size="10.00">TagPanel::getPreviousTag</text>
</a>
</g>
</g>
<!-- Node12&#45;&gt;Node13 -->
<g id="edge55_Node000012_Node000013" class="edge">
<title>Node12&#45;&gt;Node13</title>
<g id="a_edge55_Node000012_Node000013"><a xlink:title=" ">
<path fill="none" stroke="#63b8ff" d="M1069.05,-404C1079.32,-404 1089.97,-404 1100.41,-404"/>
<polygon fill="#63b8ff" stroke="#63b8ff" points="1100.11,-407.5 1110.11,-404 1100.11,-400.5 1100.11,-407.5"/>
</a>
</g>
</g>
<!-- Node14 -->
<g id="Node000014" class="node">
<title>Node14</title>
<g id="a_Node000014"><a xlink:href="$class_tag_panel.html#aa16fddf213851034cb33b775ea653efc" xlink:title=" ">
<polygon fill="white" stroke="#666666" points="1229.75,-376 1124.5,-376 1124.5,-356 1229.75,-356 1229.75,-376"/>
<text text-anchor="middle" x="1177.12" y="-362.5" font-family="Helvetica,sans-Serif" font-size="10.00">TagPanel::isFirstTag</text>
</a>
</g>
</g>
<!-- Node12&#45;&gt;Node14 -->
<g id="edge57_Node000012_Node000014" class="edge">
<title>Node12&#45;&gt;Node14</title>
<g id="a_edge57_Node000012_Node000014"><a xlink:title=" ">
<path fill="none" stroke="#63b8ff" d="M1050.31,-393.52C1071.01,-388.99 1095.43,-383.65 1117.22,-378.88"/>
<polygon fill="#63b8ff" stroke="#63b8ff" points="1117.84,-382.33 1126.86,-376.77 1116.35,-375.49 1117.84,-382.33"/>
</a>
</g>
</g>
<!-- Node13&#45;&gt;Node9 -->
<g id="edge56_Node000013_Node000009" class="edge">
<title>Node13&#45;&gt;Node9</title>
<g id="a_edge56_Node000013_Node000009"><a xlink:title=" ">
<path fill="none" stroke="#63b8ff" d="M1216.23,-414.48C1232.35,-418.92 1251.3,-424.13 1268.34,-428.82"/>
<polygon fill="#63b8ff" stroke="#63b8ff" points="1267.19,-432.13 1277.76,-431.41 1269.05,-425.38 1267.19,-432.13"/>
</a>
</g>
</g>
<!-- Node14&#45;&gt;Node9 -->
<g id="edge58_Node000014_Node000009" class="edge">
<title>Node14&#45;&gt;Node9</title>
<g id="a_edge58_Node000014_Node000009"><a xlink:title=" ">
<path fill="none" stroke="#63b8ff" d="M1222.44,-376.46C1229.58,-378.84 1236.75,-381.67 1243.25,-385 1263.44,-395.34 1283.55,-411.6 1297.54,-424.11"/>
<polygon fill="#63b8ff" stroke="#63b8ff" points="1294.93,-426.47 1304.67,-430.66 1299.67,-421.32 1294.93,-426.47"/>
</a>
</g>
</g>
<!-- Node16&#45;&gt;Node15 -->
<g id="edge63_Node000016_Node000015" class="edge">
<title>Node16&#45;&gt;Node15</title>
<g id="a_edge63_Node000016_Node000015"><a xlink:title=" ">
<path fill="none" stroke="#63b8ff" d="M884.75,-356.98C900.14,-358.18 916.65,-359.47 932.24,-360.68"/>
<polygon fill="#63b8ff" stroke="#63b8ff" points="931.65,-364.15 941.89,-361.44 932.19,-357.17 931.65,-364.15"/>
</a>
</g>
</g>
<!-- Node17 -->
<g id="Node000017" class="node">
<title>Node17</title>
<g id="a_Node000017"><a xlink:href="$class_tag_panel.html#a92b74a6332f46423e1509044989a4a0a" xlink:title=" ">
<polygon fill="white" stroke="#666666" points="1243.25,-338 1111,-338 1111,-306 1243.25,-306 1243.25,-338"/>
<text text-anchor="start" x="1119" y="-324.5" font-family="Helvetica,sans-Serif" font-size="10.00">TagPanel::OnDeleteButton</text>
<text text-anchor="middle" x="1177.12" y="-312.5" font-family="Helvetica,sans-Serif" font-size="10.00">Click</text>
</a>
</g>
</g>
<!-- Node16&#45;&gt;Node17 -->
<g id="edge61_Node000016_Node000017" class="edge">
<title>Node16&#45;&gt;Node17</title>
<g id="a_edge61_Node000016_Node000017"><a xlink:title=" ">
<path fill="none" stroke="#63b8ff" d="M884.49,-346.64C944.71,-341.55 1035.3,-333.9 1099.51,-328.47"/>
<polygon fill="#63b8ff" stroke="#63b8ff" points="1099.6,-331.98 1109.27,-327.65 1099.02,-325 1099.6,-331.98"/>
</a>
</g>
</g>
<!-- Node17&#45;&gt;Node9 -->
<g id="edge62_Node000017_Node000009" class="edge">
<title>Node17&#45;&gt;Node9</title>
<g id="a_edge62_Node000017_Node000009"><a xlink:title=" ">
<path fill="none" stroke="#63b8ff" d="M1229.35,-338.48C1234.25,-340.98 1238.98,-343.81 1243.25,-347 1270.51,-367.34 1292.72,-400.45 1305.22,-421.72"/>
<polygon fill="#63b8ff" stroke="#63b8ff" points="1302.12,-423.35 1310.1,-430.32 1308.21,-419.89 1302.12,-423.35"/>
</a>
</g>
</g>
<!-- Node19 -->
<g id="Node000019" class="node">
<title>Node19</title>
<g id="a_Node000019"><a xlink:href="$class_tag_panel.html#af2926b62ee8940d7aa87591255623814" xlink:title=" ">
<polygon fill="white" stroke="#666666" points="1061.5,-300 941.25,-300 941.25,-280 1061.5,-280 1061.5,-300"/>
<text text-anchor="middle" x="1001.38" y="-286.5" font-family="Helvetica,sans-Serif" font-size="10.00">TagPanel::addTagName</text>
</a>
</g>
</g>
<!-- Node18&#45;&gt;Node19 -->
<g id="edge65_Node000018_Node000019" class="edge">
<title>Node18&#45;&gt;Node19</title>
<g id="a_edge65_Node000018_Node000019"><a xlink:title=" ">
<path fill="none" stroke="#63b8ff" d="M892.15,-293.02C904.51,-292.67 917.36,-292.31 929.7,-291.97"/>
<polygon fill="#63b8ff" stroke="#63b8ff" points="929.45,-295.48 939.35,-291.7 929.26,-288.48 929.45,-295.48"/>
</a>
</g>
</g>
<!-- Node21 -->
<g id="Node000021" class="node">
<title>Node21</title>
<g id="a_Node000021"><a xlink:href="$class_tag_panel.html#af74a61159813873c529dbcb17a371a05" xlink:title=" ">
<polygon fill="white" stroke="#666666" points="693.88,-324 578.12,-324 578.12,-304 693.88,-304 693.88,-324"/>
<text text-anchor="middle" x="636" y="-310.5" font-family="Helvetica,sans-Serif" font-size="10.00">TagPanel::initLineSizer</text>
</a>
</g>
</g>
<!-- Node20&#45;&gt;Node21 -->
<g id="edge67_Node000020_Node000021" class="edge">
<title>Node20&#45;&gt;Node21</title>
<g id="a_edge67_Node000020_Node000021"><a xlink:title=" ">
<path fill="none" stroke="#63b8ff" d="M483.56,-267.48C504,-275.59 533.44,-286.8 559.75,-295 566.01,-296.95 572.62,-298.85 579.2,-300.64"/>
<polygon fill="#63b8ff" stroke="#63b8ff" points="578.18,-303.99 588.75,-303.16 579.97,-297.22 578.18,-303.99"/>
</a>
</g>
</g>
<!-- Node22 -->
<g id="Node000022" class="node">
<title>Node22</title>
<g id="a_Node000022"><a xlink:href="$class_tag_panel.html#ae24d607788ed14f2fc8b6a88ff9b7602" xlink:title=" ">
<polygon fill="white" stroke="#666666" points="692.75,-286 579.25,-286 579.25,-266 692.75,-266 692.75,-286"/>
<text text-anchor="middle" x="636" y="-272.5" font-family="Helvetica,sans-Serif" font-size="10.00">TagPanel::initTagSizer</text>
</a>
</g>
</g>
<!-- Node20&#45;&gt;Node22 -->
<g id="edge68_Node000020_Node000022" class="edge">
<title>Node20&#45;&gt;Node22</title>
<g id="a_edge68_Node000020_Node000022"><a xlink:title=" ">
<path fill="none" stroke="#63b8ff" d="M508.63,-262.44C527,-264.42 548.05,-266.67 567.63,-268.77"/>
<polygon fill="#63b8ff" stroke="#63b8ff" points="567.13,-272.24 577.45,-269.83 567.88,-265.28 567.13,-272.24"/>
</a>
</g>
</g>
<!-- Node23 -->
<g id="Node000023" class="node">
<title>Node23</title>
<g id="a_Node000023"><a xlink:href="$class_tag_panel.html#a99231e365be781b584996e68197621b9" xlink:title=" ">
<polygon fill="white" stroke="#666666" points="693.12,-248 578.88,-248 578.88,-228 693.12,-228 693.12,-248"/>
<text text-anchor="middle" x="636" y="-234.5" font-family="Helvetica,sans-Serif" font-size="10.00">TagPanel::setTagSizer</text>
</a>
</g>
</g>
<!-- Node20&#45;&gt;Node23 -->
<g id="edge69_Node000020_Node000023" class="edge">
<title>Node20&#45;&gt;Node23</title>
<g id="a_edge69_Node000020_Node000023"><a xlink:title=" ">
<path fill="none" stroke="#63b8ff" d="M508.63,-251.56C526.92,-249.59 547.85,-247.35 567.35,-245.26"/>
<polygon fill="#63b8ff" stroke="#63b8ff" points="567.56,-248.75 577.13,-244.21 566.82,-241.79 567.56,-248.75"/>
</a>
</g>
</g>
<!-- Node25 -->
<g id="Node000025" class="node">
<title>Node25</title>
<g id="a_Node000025"><a xlink:href="$class_tag_panel.html#a5edee5cee34656fe89fec14f26af0f80" xlink:title=" ">
<polygon fill="white" stroke="#666666" points="698,-210 574,-210 574,-190 698,-190 698,-210"/>
<text text-anchor="middle" x="636" y="-196.5" font-family="Helvetica,sans-Serif" font-size="10.00">TagPanel::setPanelColor</text>
</a>
</g>
</g>
<!-- Node24&#45;&gt;Node25 -->
<g id="edge71_Node000024_Node000025" class="edge">
<title>Node24&#45;&gt;Node25</title>
<g id="a_edge71_Node000024_Node000025"><a xlink:title=" ">
<path fill="none" stroke="#63b8ff" d="M509.58,-180.17C526.08,-182.78 544.65,-185.72 562.35,-188.51"/>
<polygon fill="#63b8ff" stroke="#63b8ff" points="561.6,-191.94 572.03,-190.04 562.69,-185.03 561.6,-191.94"/>
</a>
</g>
</g>
<!-- Node26 -->
<g id="Node000026" class="node">
<title>Node26</title>
<g id="a_Node000026"><a xlink:href="$class_tag_panel.html#a752cdf34c8cc8cc25ecc944683dff46b" xlink:title=" ">
<polygon fill="white" stroke="#666666" points="706.62,-172 565.38,-172 565.38,-152 706.62,-152 706.62,-172"/>
<text text-anchor="middle" x="636" y="-158.5" font-family="Helvetica,sans-Serif" font-size="10.00">TagPanel::setTagNameColor</text>
</a>
</g>
</g>
<!-- Node24&#45;&gt;Node26 -->
<g id="edge72_Node000024_Node000026" class="edge">
<title>Node24&#45;&gt;Node26</title>
<g id="a_edge72_Node000024_Node000026"><a xlink:title=" ">
<path fill="none" stroke="#63b8ff" d="M509.58,-169.08C523.42,-168.3 538.71,-167.44 553.72,-166.59"/>
<polygon fill="#63b8ff" stroke="#63b8ff" points="553.82,-170.09 563.61,-166.03 553.42,-163.1 553.82,-170.09"/>
</a>
</g>
</g>
<!-- Node28 -->
<g id="Node000028" class="node">
<title>Node28</title>
<g id="a_Node000028"><a xlink:href="$class_tag_panel.html#a5d57b2c271078562ca65bf9d0f9c656e" xlink:title=" ">
<polygon fill="white" stroke="#666666" points="708.5,-134 563.5,-134 563.5,-114 708.5,-114 708.5,-134"/>
<text text-anchor="middle" x="636" y="-120.5" font-family="Helvetica,sans-Serif" font-size="10.00">TagPanel::DrawBordersEvent</text>
</a>
</g>
</g>
<!-- Node27&#45;&gt;Node28 -->
<g id="edge74_Node000027_Node000028" class="edge">
<title>Node27&#45;&gt;Node28</title>
<g id="a_edge74_Node000027_Node000028"><a xlink:title=" ">
<path fill="none" stroke="#63b8ff" d="M521.82,-118.25C531.54,-118.74 541.69,-119.26 551.75,-119.77"/>
<polygon fill="#63b8ff" stroke="#63b8ff" points="551.36,-123.25 561.52,-120.27 551.72,-116.26 551.36,-123.25"/>
</a>
</g>
</g>
<!-- Node29 -->
<g id="Node000029" class="node">
<title>Node29</title>
<g id="a_Node000029"><a xlink:href="$class_tag_panel.html#a72db5ac659ea9dc41b2a236bd5ff0a12" xlink:title=" ">
<polygon fill="white" stroke="#666666" points="698,-96 574,-96 574,-76 698,-76 698,-96"/>
<text text-anchor="middle" x="636" y="-82.5" font-family="Helvetica,sans-Serif" font-size="10.00">TagPanel::OnHoverPaint</text>
</a>
</g>
</g>
<!-- Node27&#45;&gt;Node29 -->
<g id="edge75_Node000027_Node000029" class="edge">
<title>Node27&#45;&gt;Node29</title>
<g id="a_edge75_Node000027_Node000029"><a xlink:title=" ">
<path fill="none" stroke="#63b8ff" d="M521.82,-104.53C534.98,-102.38 548.93,-100.09 562.37,-97.89"/>
<polygon fill="#63b8ff" stroke="#63b8ff" points="562.72,-101.38 572.02,-96.31 561.59,-94.47 562.72,-101.38"/>
</a>
</g>
</g>
<!-- Node31 -->
<g id="Node000031" class="node">
<title>Node31</title>
<g id="a_Node000031"><a xlink:href="$class_tag_panel.html#af7c491223a887d2ce97353157adc9110" xlink:title=" ">
<polygon fill="white" stroke="#666666" points="686,-58 586,-58 586,-38 686,-38 686,-58"/>
<text text-anchor="middle" x="636" y="-44.5" font-family="Helvetica,sans-Serif" font-size="10.00">TagPanel::OnInsert</text>
</a>
</g>
</g>
<!-- Node27&#45;&gt;Node31 -->
<g id="edge77_Node000027_Node000031" class="edge">
<title>Node27&#45;&gt;Node31</title>
<g id="a_edge77_Node000027_Node000031"><a xlink:title=" ">
<path fill="none" stroke="#63b8ff" d="M476.93,-104.66C497.06,-94.06 529.93,-77.68 559.75,-67 565.16,-65.06 570.86,-63.24 576.6,-61.56"/>
<polygon fill="#63b8ff" stroke="#63b8ff" points="577.47,-64.95 586.16,-58.89 575.58,-58.21 577.47,-64.95"/>
</a>
</g>
</g>
<!-- Node30 -->
<g id="Node000030" class="node">
<title>Node30</title>
<g id="a_Node000030"><a xlink:href="$class_tag_panel.html#a2968cbcc5c04e34a50085877ddb53f65" xlink:title=" ">
<polygon fill="white" stroke="#666666" points="884.62,-96 755.38,-96 755.38,-76 884.62,-76 884.62,-96"/>
<text text-anchor="middle" x="820" y="-82.5" font-family="Helvetica,sans-Serif" font-size="10.00">TagPanel::getPanelColour</text>
</a>
</g>
</g>
<!-- Node29&#45;&gt;Node30 -->
<g id="edge76_Node000029_Node000030" class="edge">
<title>Node29&#45;&gt;Node30</title>
<g id="a_edge76_Node000029_Node000030"><a xlink:title=" ">
<path fill="none" stroke="#63b8ff" d="M698.36,-86C712.92,-86 728.61,-86 743.71,-86"/>
<polygon fill="#63b8ff" stroke="#63b8ff" points="743.59,-89.5 753.59,-86 743.59,-82.5 743.59,-89.5"/>
</a>
</g>
</g>
<!-- Node32 -->
<g id="Node000032" class="node">
<title>Node32</title>
<g id="a_Node000032"><a xlink:href="$class_tag_panel.html#af925f36858bbc30c39bd4716f64822d3" xlink:title=" ">
<polygon fill="white" stroke="#666666" points="888.75,-58 751.25,-58 751.25,-38 888.75,-38 888.75,-58"/>
<text text-anchor="middle" x="820" y="-44.5" font-family="Helvetica,sans-Serif" font-size="10.00">TagPanel::updateInsertRect</text>
</a>
</g>
</g>
<!-- Node31&#45;&gt;Node32 -->
<g id="edge78_Node000031_Node000032" class="edge">
<title>Node31&#45;&gt;Node32</title>
<g id="a_edge78_Node000031_Node000032"><a xlink:title=" ">
<path fill="none" stroke="#63b8ff" d="M686.25,-48C702.65,-48 721.36,-48 739.45,-48"/>
<polygon fill="#63b8ff" stroke="#63b8ff" points="739.41,-51.5 749.41,-48 739.41,-44.5 739.41,-51.5"/>
</a>
</g>
</g>
<!-- Node34 -->
<g id="Node000034" class="node">
<title>Node34</title>
<g id="a_Node000034"><a xlink:href="$class_tag_panel.html#adea8840b3b43bfee7f8e090a71dd708c" xlink:title=" ">
<polygon fill="white" stroke="#666666" points="712.25,-20 559.75,-20 559.75,0 712.25,0 712.25,-20"/>
<text text-anchor="middle" x="636" y="-6.5" font-family="Helvetica,sans-Serif" font-size="10.00">TagPanel::setTagNameCustom</text>
</a>
</g>
</g>
<!-- Node33&#45;&gt;Node34 -->
<g id="edge80_Node000033_Node000034" class="edge">
<title>Node33&#45;&gt;Node34</title>
<g id="a_edge80_Node000033_Node000034"><a xlink:title=" ">
<path fill="none" stroke="#63b8ff" d="M516.36,-29.42C530.34,-27.14 545.44,-24.66 560.04,-22.27"/>
<polygon fill="#63b8ff" stroke="#63b8ff" points="560.28,-25.78 569.59,-20.71 559.15,-18.87 560.28,-25.78"/>
</a>
</g>
</g>
</g>
</svg>
