<?xml version="1.0" encoding="UTF-8" standalone="no"?>
<!DOCTYPE svg PUBLIC "-//W3C//DTD SVG 1.1//EN"
 "http://www.w3.org/Graphics/SVG/1.1/DTD/svg11.dtd">
<!-- Generated by graphviz version 12.2.0 (20241103.1931)
 -->
<!-- Title: Interpretor::createMainTag Pages: 1 -->
<svg width="934pt" height="198pt"
 viewBox="0.00 0.00 933.75 198.00" xmlns="http://www.w3.org/2000/svg" xmlns:xlink="http://www.w3.org/1999/xlink">
<g id="graph0" class="graph" transform="scale(1 1) rotate(0) translate(4 194)">
<title>Interpretor::createMainTag</title>
<!-- Node1 -->
<g id="Node000001" class="node">
<title>Node1</title>
<g id="a_Node000001"><a xlink:title=" ">
<polygon fill="#999999" stroke="#666666" points="130,-95 0,-95 0,-75 130,-75 130,-95"/>
<text text-anchor="middle" x="65" y="-81.5" font-family="Helvetica,sans-Serif" font-size="10.00">Interpretor::createMainTag</text>
</a>
</g>
</g>
<!-- Node2 -->
<g id="Node000002" class="node">
<title>Node2</title>
<g id="a_Node000002"><a xlink:href="$class_lexer.html#ab0ca8b5adc1af3cdec4855fba11491c1" xlink:title=" ">
<polygon fill="white" stroke="#666666" points="275.75,-114 168.25,-114 168.25,-94 275.75,-94 275.75,-114"/>
<text text-anchor="middle" x="222" y="-100.5" font-family="Helvetica,sans-Serif" font-size="10.00">Lexer::extractTokens</text>
</a>
</g>
</g>
<!-- Node1&#45;&gt;Node2 -->
<g id="edge25_Node000001_Node000002" class="edge">
<title>Node1&#45;&gt;Node2</title>
<g id="a_edge25_Node000001_Node000002"><a xlink:title=" ">
<path fill="none" stroke="#63b8ff" d="M130.39,-92.89C139.06,-93.96 147.96,-95.05 156.64,-96.11"/>
<polygon fill="#63b8ff" stroke="#63b8ff" points="156.02,-99.56 166.37,-97.3 156.87,-92.61 156.02,-99.56"/>
</a>
</g>
</g>
<!-- Node20 -->
<g id="Node000020" class="node">
<title>Node20</title>
<g id="a_Node000020"><a xlink:href="$class_lexer.html#a5a008a99eb5bc34590b62a99ea9065c3" xlink:title=" ">
<polygon fill="white" stroke="#666666" points="278,-76 166,-76 166,-56 278,-56 278,-76"/>
<text text-anchor="middle" x="222" y="-62.5" font-family="Helvetica,sans-Serif" font-size="10.00">Lexer::showAllTokens</text>
</a>
</g>
</g>
<!-- Node1&#45;&gt;Node20 -->
<g id="edge48_Node000001_Node000020" class="edge">
<title>Node1&#45;&gt;Node20</title>
<g id="a_edge48_Node000001_Node000020"><a xlink:title=" ">
<path fill="none" stroke="#63b8ff" d="M130.39,-77.11C138.42,-76.12 146.64,-75.12 154.69,-74.13"/>
<polygon fill="#63b8ff" stroke="#63b8ff" points="154.93,-77.62 164.43,-72.93 154.08,-70.68 154.93,-77.62"/>
</a>
</g>
</g>
<!-- Node2&#45;&gt;Node2 -->
<g id="edge26_Node000002_Node000002" class="edge">
<title>Node2&#45;&gt;Node2</title>
<g id="a_edge26_Node000002_Node000002"><a xlink:title=" ">
<path fill="none" stroke="#63b8ff" d="M199.26,-114.34C189.54,-122.98 197.12,-132 222,-132 235.61,-132 244.04,-129.3 247.3,-125.44"/>
<polygon fill="#63b8ff" stroke="#63b8ff" points="250.73,-124.77 245.08,-115.81 243.91,-126.34 250.73,-124.77"/>
</a>
</g>
</g>
<!-- Node3 -->
<g id="Node000003" class="node">
<title>Node3</title>
<g id="a_Node000003"><a xlink:href="$_interpretor_8cpp.html#aeadcc798628a739f30945ade9bf7c9a1" xlink:title=" ">
<polygon fill="white" stroke="#666666" points="416.25,-152 314,-152 314,-132 416.25,-132 416.25,-152"/>
<text text-anchor="middle" x="365.12" y="-138.5" font-family="Helvetica,sans-Serif" font-size="10.00">getNextTokenString</text>
</a>
</g>
</g>
<!-- Node2&#45;&gt;Node3 -->
<g id="edge27_Node000002_Node000003" class="edge">
<title>Node2&#45;&gt;Node3</title>
<g id="a_edge27_Node000002_Node000003"><a xlink:title=" ">
<path fill="none" stroke="#63b8ff" d="M261.94,-114.48C278.13,-118.85 297.13,-123.96 314.33,-128.59"/>
<polygon fill="#63b8ff" stroke="#63b8ff" points="313.29,-131.94 323.85,-131.16 315.11,-125.18 313.29,-131.94"/>
</a>
</g>
</g>
<!-- Node7 -->
<g id="Node000007" class="node">
<title>Node7</title>
<g id="a_Node000007"><a xlink:href="$_interpretor_8cpp.html#ac4b7c24de418895778c317466f485ce5" xlink:title=" ">
<polygon fill="white" stroke="#666666" points="415.88,-114 314.38,-114 314.38,-94 415.88,-94 415.88,-114"/>
<text text-anchor="middle" x="365.12" y="-100.5" font-family="Helvetica,sans-Serif" font-size="10.00">getPastTokenString</text>
</a>
</g>
</g>
<!-- Node2&#45;&gt;Node7 -->
<g id="edge31_Node000002_Node000007" class="edge">
<title>Node2&#45;&gt;Node7</title>
<g id="a_edge31_Node000002_Node000007"><a xlink:title=" ">
<path fill="none" stroke="#63b8ff" d="M275.95,-104C284.75,-104 293.94,-104 302.92,-104"/>
<polygon fill="#63b8ff" stroke="#63b8ff" points="302.63,-107.5 312.63,-104 302.63,-100.5 302.63,-107.5"/>
</a>
</g>
</g>
<!-- Node9 -->
<g id="Node000009" class="node">
<title>Node9</title>
<g id="a_Node000009"><a xlink:href="$_interpretor_8cpp.html#a426cbd25cc7742ac6cface09364031ba" xlink:title=" ">
<polygon fill="white" stroke="#666666" points="405.75,-190 324.5,-190 324.5,-170 405.75,-170 405.75,-190"/>
<text text-anchor="middle" x="365.12" y="-176.5" font-family="Helvetica,sans-Serif" font-size="10.00">getStringLiteral</text>
</a>
</g>
</g>
<!-- Node2&#45;&gt;Node9 -->
<g id="edge35_Node000002_Node000009" class="edge">
<title>Node2&#45;&gt;Node9</title>
<g id="a_edge35_Node000002_Node000009"><a xlink:title=" ">
<path fill="none" stroke="#63b8ff" d="M237.61,-114.42C255.16,-126.63 285.78,-146.99 314,-161 316.93,-162.46 320,-163.87 323.12,-165.23"/>
<polygon fill="#63b8ff" stroke="#63b8ff" points="321.78,-168.46 332.36,-169.02 324.44,-161.98 321.78,-168.46"/>
</a>
</g>
</g>
<!-- Node10 -->
<g id="Node000010" class="node">
<title>Node10</title>
<g id="a_Node000010"><a xlink:href="$_interpretor_8cpp.html#a7e41e92472c2a2c1aafa174217d4734f" xlink:title=" ">
<polygon fill="white" stroke="#666666" points="393,-58 337.25,-58 337.25,-38 393,-38 393,-58"/>
<text text-anchor="middle" x="365.12" y="-44.5" font-family="Helvetica,sans-Serif" font-size="10.00">getToken</text>
</a>
</g>
</g>
<!-- Node2&#45;&gt;Node10 -->
<g id="edge37_Node000002_Node000010" class="edge">
<title>Node2&#45;&gt;Node10</title>
<g id="a_edge37_Node000002_Node000010"><a xlink:title=" ">
<path fill="none" stroke="#63b8ff" d="M254.56,-93.54C262.27,-90.87 270.46,-87.92 278,-85 295.63,-78.18 315,-69.93 330.9,-62.95"/>
<polygon fill="#63b8ff" stroke="#63b8ff" points="332.17,-66.21 339.9,-58.97 329.34,-59.81 332.17,-66.21"/>
</a>
</g>
</g>
<!-- Node19 -->
<g id="Node000019" class="node">
<title>Node19</title>
<g id="a_Node000019"><a xlink:href="$_interpretor_8cpp.html#aa6913b7fe272fe20684f1c5c701d54d7" xlink:title=" ">
<polygon fill="white" stroke="#666666" points="396,-20 334.25,-20 334.25,0 396,0 396,-20"/>
<text text-anchor="middle" x="365.12" y="-6.5" font-family="Helvetica,sans-Serif" font-size="10.00">skipSpace</text>
</a>
</g>
</g>
<!-- Node2&#45;&gt;Node19 -->
<g id="edge47_Node000002_Node000019" class="edge">
<title>Node2&#45;&gt;Node19</title>
<g id="a_edge47_Node000002_Node000019"><a xlink:title=" ">
<path fill="none" stroke="#63b8ff" d="M263.4,-93.6C268.6,-91.27 273.63,-88.43 278,-85 301.26,-66.72 291.01,-47.63 314,-29 316.89,-26.66 320.1,-24.58 323.47,-22.75"/>
<polygon fill="#63b8ff" stroke="#63b8ff" points="324.85,-25.96 332.46,-18.58 321.91,-19.61 324.85,-25.96"/>
</a>
</g>
</g>
<!-- Node4 -->
<g id="Node000004" class="node">
<title>Node4</title>
<g id="a_Node000004"><a xlink:href="$_text_manager_8cpp.html#a377407ab4c28873a8e1956ea343f9cc2" xlink:title=" ">
<polygon fill="white" stroke="#666666" points="562.75,-190 470.25,-190 470.25,-170 562.75,-170 562.75,-190"/>
<text text-anchor="middle" x="516.5" y="-176.5" font-family="Helvetica,sans-Serif" font-size="10.00">getContentBefore</text>
</a>
</g>
</g>
<!-- Node3&#45;&gt;Node4 -->
<g id="edge28_Node000003_Node000004" class="edge">
<title>Node3&#45;&gt;Node4</title>
<g id="a_edge28_Node000003_Node000004"><a xlink:title=" ">
<path fill="none" stroke="#63b8ff" d="M407.34,-152.48C424.64,-156.89 444.97,-162.06 463.31,-166.72"/>
<polygon fill="#63b8ff" stroke="#63b8ff" points="462.4,-170.1 472.95,-169.18 464.13,-163.32 462.4,-170.1"/>
</a>
</g>
</g>
<!-- Node6 -->
<g id="Node000006" class="node">
<title>Node6</title>
<g id="a_Node000006"><a xlink:href="$_interpretor_8cpp.html#a44cd9137229f6cc0f965ce359f482379" xlink:title=" ">
<polygon fill="white" stroke="#666666" points="580.75,-152 452.25,-152 452.25,-132 580.75,-132 580.75,-152"/>
<text text-anchor="middle" x="516.5" y="-138.5" font-family="Helvetica,sans-Serif" font-size="10.00">getNextPunctuationToken</text>
</a>
</g>
</g>
<!-- Node3&#45;&gt;Node6 -->
<g id="edge30_Node000003_Node000006" class="edge">
<title>Node3&#45;&gt;Node6</title>
<g id="a_edge30_Node000003_Node000006"><a xlink:title=" ">
<path fill="none" stroke="#63b8ff" d="M416.7,-142C424.41,-142 432.5,-142 440.59,-142"/>
<polygon fill="#63b8ff" stroke="#63b8ff" points="440.49,-145.5 450.49,-142 440.49,-138.5 440.49,-145.5"/>
</a>
</g>
</g>
<!-- Node5 -->
<g id="Node000005" class="node">
<title>Node5</title>
<g id="a_Node000005"><a xlink:href="$_text_manager_8cpp.html#afbb8972025ad14e914fdaafa26957439" xlink:title=" ">
<polygon fill="white" stroke="#666666" points="671.75,-152 622.75,-152 622.75,-132 671.75,-132 671.75,-152"/>
<text text-anchor="middle" x="647.25" y="-138.5" font-family="Helvetica,sans-Serif" font-size="10.00">findPos</text>
</a>
</g>
</g>
<!-- Node4&#45;&gt;Node5 -->
<g id="edge29_Node000004_Node000005" class="edge">
<title>Node4&#45;&gt;Node5</title>
<g id="a_edge29_Node000004_Node000005"><a xlink:title=" ">
<path fill="none" stroke="#63b8ff" d="M553.02,-169.52C571.3,-164.12 593.5,-157.57 611.65,-152.21"/>
<polygon fill="#63b8ff" stroke="#63b8ff" points="612.58,-155.59 621.18,-149.4 610.6,-148.87 612.58,-155.59"/>
</a>
</g>
</g>
<!-- Node8 -->
<g id="Node000008" class="node">
<title>Node8</title>
<g id="a_Node000008"><a xlink:href="$_text_manager_8cpp.html#a6a1f72a80ddaec746c95996b16e3a1dc" xlink:title=" ">
<polygon fill="white" stroke="#666666" points="559,-96 474,-96 474,-76 559,-76 559,-96"/>
<text text-anchor="middle" x="516.5" y="-82.5" font-family="Helvetica,sans-Serif" font-size="10.00">getContentAfter</text>
</a>
</g>
</g>
<!-- Node7&#45;&gt;Node8 -->
<g id="edge32_Node000007_Node000008" class="edge">
<title>Node7&#45;&gt;Node8</title>
<g id="a_edge32_Node000007_Node000008"><a xlink:title=" ">
<path fill="none" stroke="#63b8ff" d="M416.28,-97.96C431.14,-96.17 447.46,-94.2 462.49,-92.39"/>
<polygon fill="#63b8ff" stroke="#63b8ff" points="462.68,-95.89 472.19,-91.22 461.84,-88.94 462.68,-95.89"/>
</a>
</g>
</g>
<!-- Node8&#45;&gt;Node5 -->
<g id="edge33_Node000008_Node000005" class="edge">
<title>Node8&#45;&gt;Node5</title>
<g id="a_edge33_Node000008_Node000005"><a xlink:title=" ">
<path fill="none" stroke="#63b8ff" d="M541.42,-96.4C561.29,-105.05 589.81,-117.45 612.09,-127.14"/>
<polygon fill="#63b8ff" stroke="#63b8ff" points="610.51,-130.27 621.07,-131.05 613.3,-123.85 610.51,-130.27"/>
</a>
</g>
</g>
<!-- Node8&#45;&gt;Node8 -->
<g id="edge34_Node000008_Node000008" class="edge">
<title>Node8&#45;&gt;Node8</title>
<g id="a_edge34_Node000008_Node000008"><a xlink:title=" ">
<path fill="none" stroke="#63b8ff" d="M495.73,-96.34C486.85,-104.98 493.77,-114 516.5,-114 528.93,-114 536.63,-111.3 539.61,-107.44"/>
<polygon fill="#63b8ff" stroke="#63b8ff" points="543.07,-106.89 537.59,-97.82 536.22,-108.33 543.07,-106.89"/>
</a>
</g>
</g>
<!-- Node9&#45;&gt;Node4 -->
<g id="edge36_Node000009_Node000004" class="edge">
<title>Node9&#45;&gt;Node4</title>
<g id="a_edge36_Node000009_Node000004"><a xlink:title=" ">
<path fill="none" stroke="#63b8ff" d="M406.15,-180C422.25,-180 441.1,-180 458.57,-180"/>
<polygon fill="#63b8ff" stroke="#63b8ff" points="458.3,-183.5 468.3,-180 458.3,-176.5 458.3,-183.5"/>
</a>
</g>
</g>
<!-- Node10&#45;&gt;Node10 -->
<g id="edge38_Node000010_Node000010" class="edge">
<title>Node10&#45;&gt;Node10</title>
<g id="a_edge38_Node000010_Node000010"><a xlink:title=" ">
<path fill="none" stroke="#63b8ff" d="M342.38,-58.34C332.67,-66.98 340.25,-76 365.12,-76 378.73,-76 387.16,-73.3 390.42,-69.44"/>
<polygon fill="#63b8ff" stroke="#63b8ff" points="393.86,-68.77 388.21,-59.81 387.04,-70.34 393.86,-68.77"/>
</a>
</g>
</g>
<!-- Node11 -->
<g id="Node000011" class="node">
<title>Node11</title>
<g id="a_Node000011"><a xlink:href="$_interpretor_8cpp.html#a0060c66efc18253619637b287095821c" xlink:title=" ">
<polygon fill="white" stroke="#666666" points="556.38,-58 476.62,-58 476.62,-38 556.38,-38 556.38,-58"/>
<text text-anchor="middle" x="516.5" y="-44.5" font-family="Helvetica,sans-Serif" font-size="10.00">getTokenValue</text>
</a>
</g>
</g>
<!-- Node10&#45;&gt;Node11 -->
<g id="edge39_Node000010_Node000011" class="edge">
<title>Node10&#45;&gt;Node11</title>
<g id="a_edge39_Node000010_Node000011"><a xlink:title=" ">
<path fill="none" stroke="#63b8ff" d="M393.18,-48C413.12,-48 440.83,-48 464.84,-48"/>
<polygon fill="#63b8ff" stroke="#63b8ff" points="464.77,-51.5 474.77,-48 464.77,-44.5 464.77,-51.5"/>
</a>
</g>
</g>
<!-- Node12 -->
<g id="Node000012" class="node">
<title>Node12</title>
<g id="a_Node000012"><a xlink:href="$_interpretor_8cpp.html#a32fa5cbc79c968c5b53e8303ad77091d" xlink:title=" ">
<polygon fill="white" stroke="#666666" points="677.75,-77 616.75,-77 616.75,-57 677.75,-57 677.75,-77"/>
<text text-anchor="middle" x="647.25" y="-63.5" font-family="Helvetica,sans-Serif" font-size="10.00">isIdentifier</text>
</a>
</g>
</g>
<!-- Node11&#45;&gt;Node12 -->
<g id="edge40_Node000011_Node000012" class="edge">
<title>Node11&#45;&gt;Node12</title>
<g id="a_edge40_Node000011_Node000012"><a xlink:title=" ">
<path fill="none" stroke="#63b8ff" d="M556.83,-53.8C572.15,-56.06 589.71,-58.66 605.2,-60.94"/>
<polygon fill="#63b8ff" stroke="#63b8ff" points="604.66,-64.4 615.06,-62.4 605.68,-57.48 604.66,-64.4"/>
</a>
</g>
</g>
<!-- Node18 -->
<g id="Node000018" class="node">
<title>Node18</title>
<g id="a_Node000018"><a xlink:href="$_interpretor_8cpp.html#aaa3b01d6b7b6b5bf4b868b37fcf3ac6f" xlink:title=" ">
<polygon fill="white" stroke="#666666" points="676.25,-39 618.25,-39 618.25,-19 676.25,-19 676.25,-39"/>
<text text-anchor="middle" x="647.25" y="-25.5" font-family="Helvetica,sans-Serif" font-size="10.00">isNumber</text>
</a>
</g>
</g>
<!-- Node11&#45;&gt;Node18 -->
<g id="edge46_Node000011_Node000018" class="edge">
<title>Node11&#45;&gt;Node18</title>
<g id="a_edge46_Node000011_Node000018"><a xlink:title=" ">
<path fill="none" stroke="#63b8ff" d="M556.83,-42.2C572.66,-39.86 590.88,-37.17 606.73,-34.83"/>
<polygon fill="#63b8ff" stroke="#63b8ff" points="606.9,-38.34 616.28,-33.42 605.88,-31.42 606.9,-38.34"/>
</a>
</g>
</g>
<!-- Node13 -->
<g id="Node000013" class="node">
<title>Node13</title>
<g id="a_Node000013"><a xlink:href="$_interpretor_8cpp.html#ad42767aaf8252eb57581d009530bd527" xlink:title=" ">
<polygon fill="white" stroke="#666666" points="789,-77 713.75,-77 713.75,-57 789,-57 789,-77"/>
<text text-anchor="middle" x="751.38" y="-63.5" font-family="Helvetica,sans-Serif" font-size="10.00">isTokenString</text>
</a>
</g>
</g>
<!-- Node12&#45;&gt;Node13 -->
<g id="edge41_Node000012_Node000013" class="edge">
<title>Node12&#45;&gt;Node13</title>
<g id="a_edge41_Node000012_Node000013"><a xlink:title=" ">
<path fill="none" stroke="#63b8ff" d="M678.06,-67C685.59,-67 693.86,-67 702.04,-67"/>
<polygon fill="#63b8ff" stroke="#63b8ff" points="701.94,-70.5 711.94,-67 701.94,-63.5 701.94,-70.5"/>
</a>
</g>
</g>
<!-- Node14 -->
<g id="Node000014" class="node">
<title>Node14</title>
<g id="a_Node000014"><a xlink:href="$_interpretor_8cpp.html#a3276e6efe4a3f409262ffe0b345e9636" xlink:title=" ">
<polygon fill="white" stroke="#666666" points="919,-134 831.75,-134 831.75,-114 919,-114 919,-134"/>
<text text-anchor="middle" x="875.38" y="-120.5" font-family="Helvetica,sans-Serif" font-size="10.00">isKeywordString</text>
</a>
</g>
</g>
<!-- Node13&#45;&gt;Node14 -->
<g id="edge42_Node000013_Node000014" class="edge">
<title>Node13&#45;&gt;Node14</title>
<g id="a_edge42_Node000013_Node000014"><a xlink:title=" ">
<path fill="none" stroke="#63b8ff" d="M770.89,-77.44C785.4,-85.44 806.2,-96.5 825,-105 828.31,-106.49 831.77,-107.98 835.26,-109.43"/>
<polygon fill="#63b8ff" stroke="#63b8ff" points="833.7,-112.57 844.28,-113.04 836.3,-106.07 833.7,-112.57"/>
</a>
</g>
</g>
<!-- Node15 -->
<g id="Node000015" class="node">
<title>Node15</title>
<g id="a_Node000015"><a xlink:href="$_interpretor_8cpp.html#ae8bab56314c8b787497a84c189b9114d" xlink:title=" ">
<polygon fill="white" stroke="#666666" points="913,-96 837.75,-96 837.75,-76 913,-76 913,-96"/>
<text text-anchor="middle" x="875.38" y="-82.5" font-family="Helvetica,sans-Serif" font-size="10.00">isLiteralString</text>
</a>
</g>
</g>
<!-- Node13&#45;&gt;Node15 -->
<g id="edge43_Node000013_Node000015" class="edge">
<title>Node13&#45;&gt;Node15</title>
<g id="a_edge43_Node000013_Node000015"><a xlink:title=" ">
<path fill="none" stroke="#63b8ff" d="M789.31,-72.75C801.02,-74.58 814.13,-76.62 826.49,-78.54"/>
<polygon fill="#63b8ff" stroke="#63b8ff" points="825.65,-81.95 836.07,-80.03 826.73,-75.04 825.65,-81.95"/>
</a>
</g>
</g>
<!-- Node16 -->
<g id="Node000016" class="node">
<title>Node16</title>
<g id="a_Node000016"><a xlink:href="$_interpretor_8cpp.html#ae80d3823673e42ed3ce7e84597bbd552" xlink:title=" ">
<polygon fill="white" stroke="#666666" points="918.62,-58 832.12,-58 832.12,-38 918.62,-38 918.62,-58"/>
<text text-anchor="middle" x="875.38" y="-44.5" font-family="Helvetica,sans-Serif" font-size="10.00">isOperatorString</text>
</a>
</g>
</g>
<!-- Node13&#45;&gt;Node16 -->
<g id="edge44_Node000013_Node000016" class="edge">
<title>Node13&#45;&gt;Node16</title>
<g id="a_edge44_Node000013_Node000016"><a xlink:title=" ">
<path fill="none" stroke="#63b8ff" d="M789.31,-61.25C799.2,-59.71 810.09,-58.01 820.69,-56.36"/>
<polygon fill="#63b8ff" stroke="#63b8ff" points="821.17,-59.83 830.51,-54.83 820.09,-52.91 821.17,-59.83"/>
</a>
</g>
</g>
<!-- Node17 -->
<g id="Node000017" class="node">
<title>Node17</title>
<g id="a_Node000017"><a xlink:href="$_interpretor_8cpp.html#ad93eecc58b3fdba57ba605dcb296f03e" xlink:title=" ">
<polygon fill="white" stroke="#666666" points="925.75,-20 825,-20 825,0 925.75,0 925.75,-20"/>
<text text-anchor="middle" x="875.38" y="-6.5" font-family="Helvetica,sans-Serif" font-size="10.00">isPunctuationString</text>
</a>
</g>
</g>
<!-- Node13&#45;&gt;Node17 -->
<g id="edge45_Node000013_Node000017" class="edge">
<title>Node13&#45;&gt;Node17</title>
<g id="a_edge45_Node000013_Node000017"><a xlink:title=" ">
<path fill="none" stroke="#63b8ff" d="M770.89,-56.56C785.4,-48.56 806.2,-37.5 825,-29 828.31,-27.51 831.77,-26.02 835.26,-24.57"/>
<polygon fill="#63b8ff" stroke="#63b8ff" points="836.3,-27.93 844.28,-20.96 833.7,-21.43 836.3,-27.93"/>
</a>
</g>
</g>
</g>
</svg>
