<?xml version="1.0" encoding="UTF-8" standalone="no"?>
<!DOCTYPE svg PUBLIC "-//W3C//DTD SVG 1.1//EN"
 "http://www.w3.org/Graphics/SVG/1.1/DTD/svg11.dtd">
<!-- Generated by graphviz version 12.2.0 (20241103.1931)
 -->
<!-- Title: CompareToken Pages: 1 -->
<svg width="473pt" height="1642pt"
 viewBox="0.00 0.00 473.38 1642.00" xmlns="http://www.w3.org/2000/svg" xmlns:xlink="http://www.w3.org/1999/xlink">
<g id="graph0" class="graph" transform="scale(1 1) rotate(0) translate(4 1638)">
<title>CompareToken</title>
<!-- Node1 -->
<g id="Node000001" class="node">
<title>Node1</title>
<g id="a_Node000001"><a xlink:title=" ">
<polygon fill="#999999" stroke="none" points="293.38,-180 146.38,-180 146.38,0 293.38,0 293.38,-180"/>
<text text-anchor="start" x="186.88" y="-166.5" font-family="Helvetica,sans-Serif" font-size="10.00">CompareToken</text>
<text text-anchor="start" x="150.75" y="-150.5" font-family="Helvetica,sans-Serif" font-size="10.00">#</text>
<text text-anchor="start" x="160.38" y="-150.5" font-family="Helvetica,sans-Serif" font-size="10.00">std::vector&lt; std::shared</text>
<text text-anchor="start" x="160.38" y="-138.5" font-family="Helvetica,sans-Serif" font-size="10.00">_ptr&lt; Token &gt; &gt; listTokens</text>
<text text-anchor="start" x="150.75" y="-122.5" font-family="Helvetica,sans-Serif" font-size="10.00">#</text>
<text text-anchor="start" x="160.38" y="-122.5" font-family="Helvetica,sans-Serif" font-size="10.00">CompareType cmpType</text>
<text text-anchor="start" x="150.75" y="-106.5" font-family="Helvetica,sans-Serif" font-size="10.00">#</text>
<text text-anchor="start" x="160.38" y="-106.5" font-family="Helvetica,sans-Serif" font-size="10.00">DataType valuesType</text>
<text text-anchor="start" x="150.38" y="-90.5" font-family="Helvetica,sans-Serif" font-size="10.00">+</text>
<text text-anchor="start" x="160.38" y="-90.5" font-family="Helvetica,sans-Serif" font-size="10.00">CompareToken()</text>
<text text-anchor="start" x="150.38" y="-74.5" font-family="Helvetica,sans-Serif" font-size="10.00">+</text>
<text text-anchor="start" x="160.38" y="-74.5" font-family="Helvetica,sans-Serif" font-size="10.00">void setOverloads()</text>
<text text-anchor="start" x="160.38" y="-62.5" font-family="Helvetica,sans-Serif" font-size="10.00"> final</text>
<text text-anchor="start" x="150.38" y="-46.5" font-family="Helvetica,sans-Serif" font-size="10.00">+</text>
<text text-anchor="start" x="160.38" y="-46.5" font-family="Helvetica,sans-Serif" font-size="10.00">DataType getDataType</text>
<text text-anchor="start" x="160.38" y="-34.5" font-family="Helvetica,sans-Serif" font-size="10.00">(TokenResult &amp;tRes) override</text>
<text text-anchor="start" x="150.75" y="-18.5" font-family="Helvetica,sans-Serif" font-size="10.00">#</text>
<text text-anchor="start" x="160.38" y="-18.5" font-family="Helvetica,sans-Serif" font-size="10.00">std::shared_ptr&lt; Tag</text>
<text text-anchor="start" x="160.38" y="-6.5" font-family="Helvetica,sans-Serif" font-size="10.00"> &gt; execute() override</text>
<polygon fill="#666666" stroke="#666666" points="146.38,-162 146.38,-162 293.38,-162 293.38,-162 146.38,-162"/>
<polygon fill="#666666" stroke="#666666" points="146.38,-102 146.38,-102 158.38,-102 158.38,-102 146.38,-102"/>
<polygon fill="#666666" stroke="#666666" points="158.38,-102 158.38,-102 293.38,-102 293.38,-102 158.38,-102"/>
<polygon fill="none" stroke="#666666" points="146.38,0 146.38,-180 293.38,-180 293.38,0 146.38,0"/>
</a>
</g>
</g>
<!-- Node2 -->
<g id="Node000002" class="node">
<title>Node2</title>
<g id="a_Node000002"><a xlink:href="$class_p_k_token.html" xlink:title=" ">
<polygon fill="white" stroke="none" points="211.88,-729 25.88,-729 25.88,-217 211.88,-217 211.88,-729"/>
<text text-anchor="start" x="99" y="-715.5" font-family="Helvetica,sans-Serif" font-size="10.00">PKToken</text>
<text text-anchor="start" x="30.25" y="-699.5" font-family="Helvetica,sans-Serif" font-size="10.00">#</text>
<text text-anchor="start" x="39.88" y="-699.5" font-family="Helvetica,sans-Serif" font-size="10.00">std::vector&lt; std::shared</text>
<text text-anchor="start" x="39.88" y="-687.5" font-family="Helvetica,sans-Serif" font-size="10.00">_ptr&lt; Token &gt; &gt; argTokens</text>
<text text-anchor="start" x="29.88" y="-671.5" font-family="Helvetica,sans-Serif" font-size="10.00">+</text>
<text text-anchor="start" x="39.88" y="-671.5" font-family="Helvetica,sans-Serif" font-size="10.00">PKToken()</text>
<text text-anchor="start" x="29.88" y="-655.5" font-family="Helvetica,sans-Serif" font-size="10.00">+</text>
<text text-anchor="start" x="39.88" y="-655.5" font-family="Helvetica,sans-Serif" font-size="10.00">void showTokenTree</text>
<text text-anchor="start" x="39.88" y="-643.5" font-family="Helvetica,sans-Serif" font-size="10.00">(const int nestedLayer)</text>
<text text-anchor="start" x="39.88" y="-631.5" font-family="Helvetica,sans-Serif" font-size="10.00"> override</text>
<text text-anchor="start" x="29.88" y="-615.5" font-family="Helvetica,sans-Serif" font-size="10.00">+</text>
<text text-anchor="start" x="39.88" y="-615.5" font-family="Helvetica,sans-Serif" font-size="10.00">bool addTokens(IteratorList</text>
<text text-anchor="start" x="39.88" y="-603.5" font-family="Helvetica,sans-Serif" font-size="10.00">&lt; Token &gt; &amp;tl, TokenResult</text>
<text text-anchor="start" x="39.88" y="-591.5" font-family="Helvetica,sans-Serif" font-size="10.00"> &amp;tRes) override</text>
<text text-anchor="start" x="30.25" y="-575.5" font-family="Helvetica,sans-Serif" font-size="10.00">#</text>
<text text-anchor="start" x="39.88" y="-575.5" font-family="Helvetica,sans-Serif" font-size="10.00">bool addToken(TokenVALUE</text>
<text text-anchor="start" x="39.88" y="-563.5" font-family="Helvetica,sans-Serif" font-size="10.00"> tVal, IteratorList&lt; Token</text>
<text text-anchor="start" x="39.88" y="-551.5" font-family="Helvetica,sans-Serif" font-size="10.00"> &gt; &amp;tl, TokenResult &amp;tRes)</text>
<text text-anchor="start" x="30.25" y="-535.5" font-family="Helvetica,sans-Serif" font-size="10.00">#</text>
<text text-anchor="start" x="39.88" y="-535.5" font-family="Helvetica,sans-Serif" font-size="10.00">bool addType(DataType</text>
<text text-anchor="start" x="39.88" y="-523.5" font-family="Helvetica,sans-Serif" font-size="10.00"> tVal, IteratorList&lt;</text>
<text text-anchor="start" x="39.88" y="-511.5" font-family="Helvetica,sans-Serif" font-size="10.00"> Token &gt; &amp;tl, TokenResult</text>
<text text-anchor="start" x="39.88" y="-499.5" font-family="Helvetica,sans-Serif" font-size="10.00"> &amp;tRes)</text>
<text text-anchor="start" x="30.25" y="-483.5" font-family="Helvetica,sans-Serif" font-size="10.00">#</text>
<text text-anchor="start" x="39.88" y="-483.5" font-family="Helvetica,sans-Serif" font-size="10.00">bool addType(std::vector</text>
<text text-anchor="start" x="39.88" y="-471.5" font-family="Helvetica,sans-Serif" font-size="10.00">&lt; DataType &gt; listTypes,</text>
<text text-anchor="start" x="39.88" y="-459.5" font-family="Helvetica,sans-Serif" font-size="10.00"> IteratorList&lt; Token &gt; &amp;tl,</text>
<text text-anchor="start" x="39.88" y="-447.5" font-family="Helvetica,sans-Serif" font-size="10.00"> TokenResult &amp;tRes)</text>
<text text-anchor="start" x="30.25" y="-431.5" font-family="Helvetica,sans-Serif" font-size="10.00">#</text>
<text text-anchor="start" x="39.88" y="-431.5" font-family="Helvetica,sans-Serif" font-size="10.00">bool addNumber(IteratorList</text>
<text text-anchor="start" x="39.88" y="-419.5" font-family="Helvetica,sans-Serif" font-size="10.00">&lt; Token &gt; &amp;tl, TokenResult &amp;tRes)</text>
<text text-anchor="start" x="30.25" y="-403.5" font-family="Helvetica,sans-Serif" font-size="10.00">#</text>
<text text-anchor="start" x="39.88" y="-403.5" font-family="Helvetica,sans-Serif" font-size="10.00">bool addDataType(Iterator</text>
<text text-anchor="start" x="39.88" y="-391.5" font-family="Helvetica,sans-Serif" font-size="10.00">List&lt; Token &gt; &amp;tl, TokenResult &amp;tRes)</text>
<text text-anchor="start" x="30.25" y="-375.5" font-family="Helvetica,sans-Serif" font-size="10.00">#</text>
<text text-anchor="start" x="39.88" y="-375.5" font-family="Helvetica,sans-Serif" font-size="10.00">bool addInteger(Iterator</text>
<text text-anchor="start" x="39.88" y="-363.5" font-family="Helvetica,sans-Serif" font-size="10.00">List&lt; Token &gt; &amp;tl, TokenResult</text>
<text text-anchor="start" x="39.88" y="-351.5" font-family="Helvetica,sans-Serif" font-size="10.00"> &amp;tRes)</text>
<text text-anchor="start" x="30.25" y="-335.5" font-family="Helvetica,sans-Serif" font-size="10.00">#</text>
<text text-anchor="start" x="39.88" y="-335.5" font-family="Helvetica,sans-Serif" font-size="10.00">bool addFloat(IteratorList</text>
<text text-anchor="start" x="39.88" y="-323.5" font-family="Helvetica,sans-Serif" font-size="10.00">&lt; Token &gt; &amp;tl, TokenResult &amp;tRes)</text>
<text text-anchor="start" x="30.25" y="-307.5" font-family="Helvetica,sans-Serif" font-size="10.00">#</text>
<text text-anchor="start" x="39.88" y="-307.5" font-family="Helvetica,sans-Serif" font-size="10.00">bool addCoord(IteratorList</text>
<text text-anchor="start" x="39.88" y="-295.5" font-family="Helvetica,sans-Serif" font-size="10.00">&lt; Token &gt; &amp;tl, TokenResult &amp;tRes)</text>
<text text-anchor="start" x="30.25" y="-279.5" font-family="Helvetica,sans-Serif" font-size="10.00">#</text>
<text text-anchor="start" x="39.88" y="-279.5" font-family="Helvetica,sans-Serif" font-size="10.00">bool addZone(IteratorList</text>
<text text-anchor="start" x="39.88" y="-267.5" font-family="Helvetica,sans-Serif" font-size="10.00">&lt; Token &gt; &amp;tl, TokenResult &amp;tRes)</text>
<text text-anchor="start" x="30.25" y="-251.5" font-family="Helvetica,sans-Serif" font-size="10.00">#</text>
<text text-anchor="start" x="39.88" y="-251.5" font-family="Helvetica,sans-Serif" font-size="10.00">bool addBool(IteratorList</text>
<text text-anchor="start" x="39.88" y="-239.5" font-family="Helvetica,sans-Serif" font-size="10.00">&lt; Token &gt; &amp;tl, TokenResult &amp;tRes)</text>
<text text-anchor="start" x="39.88" y="-223.5" font-family="Helvetica,sans-Serif" font-size="10.00">and 10 more...</text>
<polygon fill="#666666" stroke="#666666" points="25.88,-711 25.88,-711 211.88,-711 211.88,-711 25.88,-711"/>
<polygon fill="#666666" stroke="#666666" points="25.88,-683 25.88,-683 37.88,-683 37.88,-683 25.88,-683"/>
<polygon fill="#666666" stroke="#666666" points="37.88,-683 37.88,-683 211.88,-683 211.88,-683 37.88,-683"/>
<polygon fill="none" stroke="#666666" points="25.88,-217 25.88,-729 211.88,-729 211.88,-217 25.88,-217"/>
</a>
</g>
</g>
<!-- Node2&#45;&gt;Node1 -->
<g id="edge8_Node000001_Node000002" class="edge">
<title>Node2&#45;&gt;Node1</title>
<g id="a_edge8_Node000001_Node000002"><a xlink:title=" ">
<path fill="none" stroke="#63b8ff" d="M189.39,-206.01C191.77,-197.03 194.07,-188.33 196.28,-179.99"/>
<polygon fill="none" stroke="#63b8ff" points="186.02,-205.05 186.84,-215.61 192.79,-206.84 186.02,-205.05"/>
</a>
</g>
</g>
<!-- Node3 -->
<g id="Node000003" class="node">
<title>Node3</title>
<g id="a_Node000003"><a xlink:href="$class_k_token.html" xlink:title=" ">
<polygon fill="white" stroke="none" points="138.75,-1043 3,-1043 3,-967 138.75,-967 138.75,-1043"/>
<text text-anchor="start" x="54.38" y="-1029.5" font-family="Helvetica,sans-Serif" font-size="10.00">KToken</text>
<text text-anchor="start" x="69.38" y="-1013.5" font-family="Helvetica,sans-Serif" font-size="10.00"> </text>
<text text-anchor="start" x="7" y="-997.5" font-family="Helvetica,sans-Serif" font-size="10.00">#</text>
<text text-anchor="start" x="16.25" y="-997.5" font-family="Helvetica,sans-Serif" font-size="10.00">bool addTokens(IteratorList</text>
<text text-anchor="start" x="16.25" y="-985.5" font-family="Helvetica,sans-Serif" font-size="10.00">&lt; Token &gt; &amp;tl, TokenResult</text>
<text text-anchor="start" x="16.25" y="-973.5" font-family="Helvetica,sans-Serif" font-size="10.00"> &amp;tRes) override</text>
<polygon fill="#666666" stroke="#666666" points="3,-1025 3,-1025 138.75,-1025 138.75,-1025 3,-1025"/>
<polygon fill="#666666" stroke="#666666" points="3,-1009 3,-1009 138.75,-1009 138.75,-1009 3,-1009"/>
<polygon fill="none" stroke="#666666" points="3,-967 3,-1043 138.75,-1043 138.75,-967 3,-967"/>
</a>
</g>
</g>
<!-- Node3&#45;&gt;Node2 -->
<g id="edge9_Node000002_Node000003" class="edge">
<title>Node3&#45;&gt;Node2</title>
<g id="a_edge9_Node000002_Node000003"><a xlink:title=" ">
<path fill="none" stroke="#63b8ff" d="M75.23,-955.87C79.99,-903.41 87.96,-815.31 95.81,-728.68"/>
<polygon fill="none" stroke="#63b8ff" points="71.77,-955.37 74.35,-965.64 78.74,-956 71.77,-955.37"/>
</a>
</g>
</g>
<!-- Node4 -->
<g id="Node000004" class="node">
<title>Node4</title>
<g id="a_Node000004"><a xlink:href="$class_token.html" xlink:title=" ">
<polygon fill="white" stroke="none" points="141.75,-1634 0,-1634 0,-1270 141.75,-1270 141.75,-1634"/>
<text text-anchor="start" x="57.75" y="-1620.5" font-family="Helvetica,sans-Serif" font-size="10.00">Token</text>
<text text-anchor="start" x="4.38" y="-1604.5" font-family="Helvetica,sans-Serif" font-size="10.00">#</text>
<text text-anchor="start" x="14" y="-1604.5" font-family="Helvetica,sans-Serif" font-size="10.00">std::string tokenText</text>
<text text-anchor="start" x="4.38" y="-1588.5" font-family="Helvetica,sans-Serif" font-size="10.00">#</text>
<text text-anchor="start" x="14" y="-1588.5" font-family="Helvetica,sans-Serif" font-size="10.00">TokenVALUE tValue</text>
<text text-anchor="start" x="4.38" y="-1572.5" font-family="Helvetica,sans-Serif" font-size="10.00">#</text>
<text text-anchor="start" x="14" y="-1572.5" font-family="Helvetica,sans-Serif" font-size="10.00">int line</text>
<text text-anchor="start" x="4" y="-1556.5" font-family="Helvetica,sans-Serif" font-size="10.00">+</text>
<text text-anchor="start" x="14" y="-1556.5" font-family="Helvetica,sans-Serif" font-size="10.00">Token()</text>
<text text-anchor="start" x="4" y="-1540.5" font-family="Helvetica,sans-Serif" font-size="10.00">+</text>
<text text-anchor="start" x="14" y="-1540.5" font-family="Helvetica,sans-Serif" font-size="10.00">virtual DataType getData</text>
<text text-anchor="start" x="14" y="-1528.5" font-family="Helvetica,sans-Serif" font-size="10.00">Type(TokenResult &amp;tRes)</text>
<text text-anchor="start" x="4" y="-1512.5" font-family="Helvetica,sans-Serif" font-size="10.00">+</text>
<text text-anchor="start" x="14" y="-1512.5" font-family="Helvetica,sans-Serif" font-size="10.00">virtual void showTokenTree</text>
<text text-anchor="start" x="14" y="-1500.5" font-family="Helvetica,sans-Serif" font-size="10.00">(const int nestedLayer)</text>
<text text-anchor="start" x="4" y="-1484.5" font-family="Helvetica,sans-Serif" font-size="10.00">+</text>
<text text-anchor="start" x="14" y="-1484.5" font-family="Helvetica,sans-Serif" font-size="10.00">TokenVALUE getValue()</text>
<text text-anchor="start" x="4" y="-1468.5" font-family="Helvetica,sans-Serif" font-size="10.00">+</text>
<text text-anchor="start" x="14" y="-1468.5" font-family="Helvetica,sans-Serif" font-size="10.00">bool addError(TokenResult</text>
<text text-anchor="start" x="14" y="-1456.5" font-family="Helvetica,sans-Serif" font-size="10.00"> &amp;tRes, TokenVALUE value,</text>
<text text-anchor="start" x="14" y="-1444.5" font-family="Helvetica,sans-Serif" font-size="10.00"> ErrorType et=ErrorType::</text>
<text text-anchor="start" x="14" y="-1432.5" font-family="Helvetica,sans-Serif" font-size="10.00">MISSING)</text>
<text text-anchor="start" x="4" y="-1416.5" font-family="Helvetica,sans-Serif" font-size="10.00">+</text>
<text text-anchor="start" x="14" y="-1416.5" font-family="Helvetica,sans-Serif" font-size="10.00">bool addError(TokenResult</text>
<text text-anchor="start" x="14" y="-1404.5" font-family="Helvetica,sans-Serif" font-size="10.00"> &amp;tRes, DataType type)</text>
<text text-anchor="start" x="4" y="-1388.5" font-family="Helvetica,sans-Serif" font-size="10.00">+</text>
<text text-anchor="start" x="14" y="-1388.5" font-family="Helvetica,sans-Serif" font-size="10.00">std::string getTokenText()</text>
<text text-anchor="start" x="4" y="-1372.5" font-family="Helvetica,sans-Serif" font-size="10.00">+</text>
<text text-anchor="start" x="14" y="-1372.5" font-family="Helvetica,sans-Serif" font-size="10.00">int getLine()</text>
<text text-anchor="start" x="4" y="-1356.5" font-family="Helvetica,sans-Serif" font-size="10.00">+</text>
<text text-anchor="start" x="14" y="-1356.5" font-family="Helvetica,sans-Serif" font-size="10.00">bool hasValue(TokenVALUE</text>
<text text-anchor="start" x="14" y="-1344.5" font-family="Helvetica,sans-Serif" font-size="10.00"> value) const</text>
<text text-anchor="start" x="4" y="-1328.5" font-family="Helvetica,sans-Serif" font-size="10.00">+</text>
<text text-anchor="start" x="14" y="-1328.5" font-family="Helvetica,sans-Serif" font-size="10.00">virtual bool addTokens</text>
<text text-anchor="start" x="14" y="-1316.5" font-family="Helvetica,sans-Serif" font-size="10.00">(IteratorList&lt; Token &gt;</text>
<text text-anchor="start" x="14" y="-1304.5" font-family="Helvetica,sans-Serif" font-size="10.00"> &amp;tl, TokenResult &amp;tRes)</text>
<text text-anchor="start" x="4" y="-1288.5" font-family="Helvetica,sans-Serif" font-size="10.00">+</text>
<text text-anchor="start" x="14" y="-1288.5" font-family="Helvetica,sans-Serif" font-size="10.00">virtual std::shared</text>
<text text-anchor="start" x="14" y="-1276.5" font-family="Helvetica,sans-Serif" font-size="10.00">_ptr&lt; Tag &gt; execute()</text>
<polygon fill="#666666" stroke="#666666" points="0,-1616 0,-1616 141.75,-1616 141.75,-1616 0,-1616"/>
<polygon fill="#666666" stroke="#666666" points="0,-1568 0,-1568 12,-1568 12,-1568 0,-1568"/>
<polygon fill="#666666" stroke="#666666" points="12,-1568 12,-1568 141.75,-1568 141.75,-1568 12,-1568"/>
<polygon fill="none" stroke="#666666" points="0,-1270 0,-1634 141.75,-1634 141.75,-1270 0,-1270"/>
</a>
</g>
</g>
<!-- Node4&#45;&gt;Node3 -->
<g id="edge10_Node000003_Node000004" class="edge">
<title>Node4&#45;&gt;Node3</title>
<g id="a_edge10_Node000003_Node000004"><a xlink:title=" ">
<path fill="none" stroke="#63b8ff" d="M70.88,-1258.57C70.88,-1177.3 70.88,-1090.57 70.88,-1042.84"/>
<polygon fill="none" stroke="#63b8ff" points="67.38,-1258.49 70.88,-1268.49 74.38,-1258.49 67.38,-1258.49"/>
</a>
</g>
</g>
<!-- Node5 -->
<g id="Node000005" class="node">
<title>Node5</title>
<g id="a_Node000005"><a xlink:href="$class_arguments_overload.html" xlink:title=" ">
<polygon fill="white" stroke="none" points="294.5,-1233 157.25,-1233 157.25,-777 294.5,-777 294.5,-1233"/>
<text text-anchor="start" x="182.75" y="-1219.5" font-family="Helvetica,sans-Serif" font-size="10.00">ArgumentsOverload</text>
<text text-anchor="start" x="161.62" y="-1203.5" font-family="Helvetica,sans-Serif" font-size="10.00">#</text>
<text text-anchor="start" x="171.25" y="-1203.5" font-family="Helvetica,sans-Serif" font-size="10.00">std::map&lt; int, std</text>
<text text-anchor="start" x="171.25" y="-1191.5" font-family="Helvetica,sans-Serif" font-size="10.00">::shared_ptr&lt; Arguments</text>
<text text-anchor="start" x="171.25" y="-1179.5" font-family="Helvetica,sans-Serif" font-size="10.00"> &gt; &gt; validArguments</text>
<text text-anchor="start" x="161.62" y="-1163.5" font-family="Helvetica,sans-Serif" font-size="10.00">#</text>
<text text-anchor="start" x="171.25" y="-1163.5" font-family="Helvetica,sans-Serif" font-size="10.00">std::map&lt; int, std</text>
<text text-anchor="start" x="171.25" y="-1151.5" font-family="Helvetica,sans-Serif" font-size="10.00">::shared_ptr&lt; Arguments</text>
<text text-anchor="start" x="171.25" y="-1139.5" font-family="Helvetica,sans-Serif" font-size="10.00"> &gt; &gt; completedArguments</text>
<text text-anchor="start" x="161.62" y="-1123.5" font-family="Helvetica,sans-Serif" font-size="10.00">#</text>
<text text-anchor="start" x="171.25" y="-1123.5" font-family="Helvetica,sans-Serif" font-size="10.00">std::vector&lt; DataType</text>
<text text-anchor="start" x="171.25" y="-1111.5" font-family="Helvetica,sans-Serif" font-size="10.00"> &gt; currentDataTypes</text>
<text text-anchor="start" x="161.62" y="-1095.5" font-family="Helvetica,sans-Serif" font-size="10.00">#</text>
<text text-anchor="start" x="171.25" y="-1095.5" font-family="Helvetica,sans-Serif" font-size="10.00">std::map&lt; int, std</text>
<text text-anchor="start" x="171.25" y="-1083.5" font-family="Helvetica,sans-Serif" font-size="10.00">::shared_ptr&lt; Arguments</text>
<text text-anchor="start" x="171.25" y="-1071.5" font-family="Helvetica,sans-Serif" font-size="10.00"> &gt; &gt; mapArguments</text>
<text text-anchor="start" x="161.62" y="-1055.5" font-family="Helvetica,sans-Serif" font-size="10.00">#</text>
<text text-anchor="start" x="171.25" y="-1055.5" font-family="Helvetica,sans-Serif" font-size="10.00">unsigned int completeIndex</text>
<text text-anchor="start" x="161.25" y="-1039.5" font-family="Helvetica,sans-Serif" font-size="10.00">+</text>
<text text-anchor="start" x="171.25" y="-1039.5" font-family="Helvetica,sans-Serif" font-size="10.00">ArgumentsOverload()</text>
<text text-anchor="start" x="161.25" y="-1023.5" font-family="Helvetica,sans-Serif" font-size="10.00">+</text>
<text text-anchor="start" x="171.25" y="-1023.5" font-family="Helvetica,sans-Serif" font-size="10.00">bool isPresent(Arguments</text>
<text text-anchor="start" x="171.25" y="-1011.5" font-family="Helvetica,sans-Serif" font-size="10.00"> args)</text>
<text text-anchor="start" x="161.25" y="-995.5" font-family="Helvetica,sans-Serif" font-size="10.00">+</text>
<text text-anchor="start" x="171.25" y="-995.5" font-family="Helvetica,sans-Serif" font-size="10.00">void addArgs(Arguments</text>
<text text-anchor="start" x="171.25" y="-983.5" font-family="Helvetica,sans-Serif" font-size="10.00"> args, int index)</text>
<text text-anchor="start" x="161.25" y="-967.5" font-family="Helvetica,sans-Serif" font-size="10.00">+</text>
<text text-anchor="start" x="171.25" y="-967.5" font-family="Helvetica,sans-Serif" font-size="10.00">void initTabs()</text>
<text text-anchor="start" x="161.25" y="-951.5" font-family="Helvetica,sans-Serif" font-size="10.00">+</text>
<text text-anchor="start" x="171.25" y="-951.5" font-family="Helvetica,sans-Serif" font-size="10.00">void next()</text>
<text text-anchor="start" x="161.25" y="-935.5" font-family="Helvetica,sans-Serif" font-size="10.00">+</text>
<text text-anchor="start" x="171.25" y="-935.5" font-family="Helvetica,sans-Serif" font-size="10.00">bool approveType(const</text>
<text text-anchor="start" x="171.25" y="-923.5" font-family="Helvetica,sans-Serif" font-size="10.00"> DataType &amp;type)</text>
<text text-anchor="start" x="161.25" y="-907.5" font-family="Helvetica,sans-Serif" font-size="10.00">+</text>
<text text-anchor="start" x="171.25" y="-907.5" font-family="Helvetica,sans-Serif" font-size="10.00">std::vector&lt; DataType</text>
<text text-anchor="start" x="171.25" y="-895.5" font-family="Helvetica,sans-Serif" font-size="10.00"> &gt; getPossibleDataTypes()</text>
<text text-anchor="start" x="161.25" y="-879.5" font-family="Helvetica,sans-Serif" font-size="10.00">+</text>
<text text-anchor="start" x="171.25" y="-879.5" font-family="Helvetica,sans-Serif" font-size="10.00">std::map&lt; int, std</text>
<text text-anchor="start" x="171.25" y="-867.5" font-family="Helvetica,sans-Serif" font-size="10.00">::shared_ptr&lt; Arguments</text>
<text text-anchor="start" x="171.25" y="-855.5" font-family="Helvetica,sans-Serif" font-size="10.00"> &gt; &gt; getValidArguments()</text>
<text text-anchor="start" x="161.25" y="-839.5" font-family="Helvetica,sans-Serif" font-size="10.00">+</text>
<text text-anchor="start" x="171.25" y="-839.5" font-family="Helvetica,sans-Serif" font-size="10.00">std::map&lt; int, std</text>
<text text-anchor="start" x="171.25" y="-827.5" font-family="Helvetica,sans-Serif" font-size="10.00">::shared_ptr&lt; Arguments</text>
<text text-anchor="start" x="171.25" y="-815.5" font-family="Helvetica,sans-Serif" font-size="10.00"> &gt; &gt; getCompletedArgs()</text>
<text text-anchor="start" x="161.25" y="-799.5" font-family="Helvetica,sans-Serif" font-size="10.00">+</text>
<text text-anchor="start" x="171.25" y="-799.5" font-family="Helvetica,sans-Serif" font-size="10.00">bool ended()</text>
<text text-anchor="start" x="171.25" y="-783.5" font-family="Helvetica,sans-Serif" font-size="10.00">and 9 more...</text>
<polygon fill="#666666" stroke="#666666" points="157.25,-1215 157.25,-1215 294.5,-1215 294.5,-1215 157.25,-1215"/>
<polygon fill="#666666" stroke="#666666" points="157.25,-1051 157.25,-1051 169.25,-1051 169.25,-1051 157.25,-1051"/>
<polygon fill="#666666" stroke="#666666" points="169.25,-1051 169.25,-1051 294.5,-1051 294.5,-1051 169.25,-1051"/>
<polygon fill="none" stroke="#666666" points="157.25,-777 157.25,-1233 294.5,-1233 294.5,-777 157.25,-777"/>
</a>
</g>
</g>
<!-- Node5&#45;&gt;Node2 -->
<g id="edge11_Node000002_Node000005" class="edge">
<title>Node5&#45;&gt;Node2</title>
<g id="a_edge11_Node000002_Node000005"><a xlink:title=" ">
<path fill="none" stroke="#63b8ff" d="M180.11,-777.31C177.71,-765.42 175.29,-753.42 172.86,-741.41"/>
<polygon fill="none" stroke="#63b8ff" points="172.89,-741.55 167.78,-736.46 170.51,-729.78 175.62,-734.87 172.89,-741.55"/>
</a>
</g>
<text text-anchor="middle" x="208.58" y="-749.5" font-family="Helvetica,sans-Serif" font-size="10.00" fill="grey"> #argsOverload</text>
</g>
<!-- Node6 -->
<g id="Node000006" class="node">
<title>Node6</title>
<g id="a_Node000006"><a xlink:href="$class_template_token.html" xlink:title=" ">
<polygon fill="white" stroke="none" points="415.88,-669 229.88,-669 229.88,-277 415.88,-277 415.88,-669"/>
<text text-anchor="start" x="289.88" y="-655.5" font-family="Helvetica,sans-Serif" font-size="10.00">TemplateToken</text>
<text text-anchor="start" x="234.25" y="-639.5" font-family="Helvetica,sans-Serif" font-size="10.00">#</text>
<text text-anchor="start" x="243.88" y="-639.5" font-family="Helvetica,sans-Serif" font-size="10.00">int line</text>
<text text-anchor="start" x="233.88" y="-623.5" font-family="Helvetica,sans-Serif" font-size="10.00">+</text>
<text text-anchor="start" x="243.88" y="-623.5" font-family="Helvetica,sans-Serif" font-size="10.00">TemplateToken()</text>
<text text-anchor="start" x="233.88" y="-607.5" font-family="Helvetica,sans-Serif" font-size="10.00">+</text>
<text text-anchor="start" x="243.88" y="-607.5" font-family="Helvetica,sans-Serif" font-size="10.00">TemplateToken(int</text>
<text text-anchor="start" x="243.88" y="-595.5" font-family="Helvetica,sans-Serif" font-size="10.00"> line)</text>
<text text-anchor="start" x="233.88" y="-579.5" font-family="Helvetica,sans-Serif" font-size="10.00">+</text>
<text text-anchor="start" x="243.88" y="-579.5" font-family="Helvetica,sans-Serif" font-size="10.00">bool addToken(TokenVALUE</text>
<text text-anchor="start" x="243.88" y="-567.5" font-family="Helvetica,sans-Serif" font-size="10.00"> tVal, IteratorList&lt; Token</text>
<text text-anchor="start" x="243.88" y="-555.5" font-family="Helvetica,sans-Serif" font-size="10.00"> &gt; &amp;tl, TokenResult &amp;tRes)</text>
<text text-anchor="start" x="233.88" y="-539.5" font-family="Helvetica,sans-Serif" font-size="10.00">+</text>
<text text-anchor="start" x="243.88" y="-539.5" font-family="Helvetica,sans-Serif" font-size="10.00">bool addType(DataType</text>
<text text-anchor="start" x="243.88" y="-527.5" font-family="Helvetica,sans-Serif" font-size="10.00"> tVal, IteratorList&lt;</text>
<text text-anchor="start" x="243.88" y="-515.5" font-family="Helvetica,sans-Serif" font-size="10.00"> Token &gt; &amp;tl, TokenResult</text>
<text text-anchor="start" x="243.88" y="-503.5" font-family="Helvetica,sans-Serif" font-size="10.00"> &amp;tRes)</text>
<text text-anchor="start" x="233.88" y="-487.5" font-family="Helvetica,sans-Serif" font-size="10.00">+</text>
<text text-anchor="start" x="243.88" y="-487.5" font-family="Helvetica,sans-Serif" font-size="10.00">bool addType(std::vector</text>
<text text-anchor="start" x="243.88" y="-475.5" font-family="Helvetica,sans-Serif" font-size="10.00">&lt; DataType &gt; listTypes,</text>
<text text-anchor="start" x="243.88" y="-463.5" font-family="Helvetica,sans-Serif" font-size="10.00"> IteratorList&lt; Token &gt; &amp;tl,</text>
<text text-anchor="start" x="243.88" y="-451.5" font-family="Helvetica,sans-Serif" font-size="10.00"> TokenResult &amp;tRes)</text>
<text text-anchor="start" x="233.88" y="-435.5" font-family="Helvetica,sans-Serif" font-size="10.00">+</text>
<text text-anchor="start" x="243.88" y="-435.5" font-family="Helvetica,sans-Serif" font-size="10.00">bool addOab(IteratorList</text>
<text text-anchor="start" x="243.88" y="-423.5" font-family="Helvetica,sans-Serif" font-size="10.00">&lt; Token &gt; &amp;tl, TokenResult &amp;tRes)</text>
<text text-anchor="start" x="233.88" y="-407.5" font-family="Helvetica,sans-Serif" font-size="10.00">+</text>
<text text-anchor="start" x="243.88" y="-407.5" font-family="Helvetica,sans-Serif" font-size="10.00">bool addCab(IteratorList</text>
<text text-anchor="start" x="243.88" y="-395.5" font-family="Helvetica,sans-Serif" font-size="10.00">&lt; Token &gt; &amp;tl, TokenResult &amp;tRes)</text>
<text text-anchor="start" x="233.88" y="-379.5" font-family="Helvetica,sans-Serif" font-size="10.00">+</text>
<text text-anchor="start" x="243.88" y="-379.5" font-family="Helvetica,sans-Serif" font-size="10.00">bool addNumber(IteratorList</text>
<text text-anchor="start" x="243.88" y="-367.5" font-family="Helvetica,sans-Serif" font-size="10.00">&lt; Token &gt; &amp;tl, TokenResult &amp;tRes)</text>
<text text-anchor="start" x="233.88" y="-351.5" font-family="Helvetica,sans-Serif" font-size="10.00">+</text>
<text text-anchor="start" x="243.88" y="-351.5" font-family="Helvetica,sans-Serif" font-size="10.00">bool addDataType(Iterator</text>
<text text-anchor="start" x="243.88" y="-339.5" font-family="Helvetica,sans-Serif" font-size="10.00">List&lt; Token &gt; &amp;tl, TokenResult &amp;tRes)</text>
<text text-anchor="start" x="233.88" y="-323.5" font-family="Helvetica,sans-Serif" font-size="10.00">+</text>
<text text-anchor="start" x="243.88" y="-323.5" font-family="Helvetica,sans-Serif" font-size="10.00">bool addInteger(Iterator</text>
<text text-anchor="start" x="243.88" y="-311.5" font-family="Helvetica,sans-Serif" font-size="10.00">List&lt; Token &gt; &amp;tl, TokenResult</text>
<text text-anchor="start" x="243.88" y="-299.5" font-family="Helvetica,sans-Serif" font-size="10.00"> &amp;tRes)</text>
<text text-anchor="start" x="243.88" y="-283.5" font-family="Helvetica,sans-Serif" font-size="10.00">and 12 more...</text>
<polygon fill="#666666" stroke="#666666" points="229.88,-651 229.88,-651 415.88,-651 415.88,-651 229.88,-651"/>
<polygon fill="#666666" stroke="#666666" points="229.88,-635 229.88,-635 241.88,-635 241.88,-635 229.88,-635"/>
<polygon fill="#666666" stroke="#666666" points="241.88,-635 241.88,-635 415.88,-635 415.88,-635 241.88,-635"/>
<polygon fill="none" stroke="#666666" points="229.88,-277 229.88,-669 415.88,-669 415.88,-277 229.88,-277"/>
</a>
</g>
</g>
<!-- Node5&#45;&gt;Node6 -->
<g id="edge13_Node000006_Node000005" class="edge">
<title>Node5&#45;&gt;Node6</title>
<g id="a_edge13_Node000006_Node000005"><a xlink:title=" ">
<path fill="none" stroke="#63b8ff" d="M255.66,-777.14C257.35,-766.94 259.09,-756.86 260.88,-747 264.73,-725.71 269.13,-703.58 273.75,-681.53"/>
<polygon fill="none" stroke="#63b8ff" points="273.74,-681.55 271.07,-674.85 276.23,-669.81 278.9,-676.51 273.74,-681.55"/>
</a>
</g>
<text text-anchor="middle" x="307.38" y="-749.5" font-family="Helvetica,sans-Serif" font-size="10.00" fill="grey"> #templateArguments</text>
</g>
<!-- Node6&#45;&gt;Node1 -->
<g id="edge12_Node000001_Node000006" class="edge">
<title>Node6&#45;&gt;Node1</title>
<g id="a_edge12_Node000001_Node000006"><a xlink:title=" ">
<path fill="none" stroke="#63b8ff" d="M267.26,-266.27C259.04,-235.89 250.97,-206.03 243.88,-179.8"/>
<polygon fill="none" stroke="#63b8ff" points="263.78,-266.83 269.77,-275.57 270.54,-265.01 263.78,-266.83"/>
</a>
</g>
</g>
<!-- Node7 -->
<g id="Node000007" class="node">
<title>Node7</title>
<g id="a_Node000007"><a xlink:href="$class_token_result.html" xlink:title=" ">
<polygon fill="white" stroke="none" points="465.38,-1163 312.38,-1163 312.38,-847 465.38,-847 465.38,-1163"/>
<text text-anchor="start" x="361.5" y="-1149.5" font-family="Helvetica,sans-Serif" font-size="10.00">TokenResult</text>
<text text-anchor="start" x="316.75" y="-1133.5" font-family="Helvetica,sans-Serif" font-size="10.00">#</text>
<text text-anchor="start" x="326.38" y="-1133.5" font-family="Helvetica,sans-Serif" font-size="10.00">std::map&lt; std::string,</text>
<text text-anchor="start" x="326.38" y="-1121.5" font-family="Helvetica,sans-Serif" font-size="10.00"> DataType &gt; varTable</text>
<text text-anchor="start" x="316.75" y="-1105.5" font-family="Helvetica,sans-Serif" font-size="10.00">#</text>
<text text-anchor="start" x="326.38" y="-1105.5" font-family="Helvetica,sans-Serif" font-size="10.00">std::vector&lt; Error</text>
<text text-anchor="start" x="326.38" y="-1093.5" font-family="Helvetica,sans-Serif" font-size="10.00"> &gt; listErrors</text>
<text text-anchor="start" x="316.38" y="-1077.5" font-family="Helvetica,sans-Serif" font-size="10.00">+</text>
<text text-anchor="start" x="326.38" y="-1077.5" font-family="Helvetica,sans-Serif" font-size="10.00">TokenResult()</text>
<text text-anchor="start" x="316.38" y="-1061.5" font-family="Helvetica,sans-Serif" font-size="10.00">+</text>
<text text-anchor="start" x="326.38" y="-1061.5" font-family="Helvetica,sans-Serif" font-size="10.00">TokenResult(TokenVALUE</text>
<text text-anchor="start" x="326.38" y="-1049.5" font-family="Helvetica,sans-Serif" font-size="10.00"> value, int l)</text>
<text text-anchor="start" x="316.38" y="-1033.5" font-family="Helvetica,sans-Serif" font-size="10.00">+</text>
<text text-anchor="start" x="326.38" y="-1033.5" font-family="Helvetica,sans-Serif" font-size="10.00">void showErrors()</text>
<text text-anchor="start" x="316.38" y="-1017.5" font-family="Helvetica,sans-Serif" font-size="10.00">+</text>
<text text-anchor="start" x="326.38" y="-1017.5" font-family="Helvetica,sans-Serif" font-size="10.00">void addError(int l,</text>
<text text-anchor="start" x="326.38" y="-1005.5" font-family="Helvetica,sans-Serif" font-size="10.00"> TokenVALUE value, ErrorType</text>
<text text-anchor="start" x="326.38" y="-993.5" font-family="Helvetica,sans-Serif" font-size="10.00"> et=ErrorType::MISSING)</text>
<text text-anchor="start" x="316.38" y="-977.5" font-family="Helvetica,sans-Serif" font-size="10.00">+</text>
<text text-anchor="start" x="326.38" y="-977.5" font-family="Helvetica,sans-Serif" font-size="10.00">void addError(int l,</text>
<text text-anchor="start" x="326.38" y="-965.5" font-family="Helvetica,sans-Serif" font-size="10.00"> DataType type)</text>
<text text-anchor="start" x="316.38" y="-949.5" font-family="Helvetica,sans-Serif" font-size="10.00">+</text>
<text text-anchor="start" x="326.38" y="-949.5" font-family="Helvetica,sans-Serif" font-size="10.00">void addError(const</text>
<text text-anchor="start" x="326.38" y="-937.5" font-family="Helvetica,sans-Serif" font-size="10.00"> TokenResult &amp;tokRes)</text>
<text text-anchor="start" x="316.38" y="-921.5" font-family="Helvetica,sans-Serif" font-size="10.00">+</text>
<text text-anchor="start" x="326.38" y="-921.5" font-family="Helvetica,sans-Serif" font-size="10.00">void addVar(const std</text>
<text text-anchor="start" x="326.38" y="-909.5" font-family="Helvetica,sans-Serif" font-size="10.00">::string &amp;name, const</text>
<text text-anchor="start" x="326.38" y="-897.5" font-family="Helvetica,sans-Serif" font-size="10.00"> DataType &amp;type)</text>
<text text-anchor="start" x="316.38" y="-881.5" font-family="Helvetica,sans-Serif" font-size="10.00">+</text>
<text text-anchor="start" x="326.38" y="-881.5" font-family="Helvetica,sans-Serif" font-size="10.00">bool success()</text>
<text text-anchor="start" x="316.38" y="-865.5" font-family="Helvetica,sans-Serif" font-size="10.00">+</text>
<text text-anchor="start" x="326.38" y="-865.5" font-family="Helvetica,sans-Serif" font-size="10.00">std::map&lt; std::string,</text>
<text text-anchor="start" x="326.38" y="-853.5" font-family="Helvetica,sans-Serif" font-size="10.00"> DataType &gt; getVarTable()</text>
<polygon fill="#666666" stroke="#666666" points="312.38,-1145 312.38,-1145 465.38,-1145 465.38,-1145 312.38,-1145"/>
<polygon fill="#666666" stroke="#666666" points="312.38,-1089 312.38,-1089 324.38,-1089 324.38,-1089 312.38,-1089"/>
<polygon fill="#666666" stroke="#666666" points="324.38,-1089 324.38,-1089 465.38,-1089 465.38,-1089 324.38,-1089"/>
<polygon fill="none" stroke="#666666" points="312.38,-847 312.38,-1163 465.38,-1163 465.38,-847 312.38,-847"/>
</a>
</g>
</g>
<!-- Node7&#45;&gt;Node6 -->
<g id="edge14_Node000006_Node000007" class="edge">
<title>Node7&#45;&gt;Node6</title>
<g id="a_edge14_Node000006_Node000007"><a xlink:title=" ">
<path fill="none" stroke="#63b8ff" d="M369.34,-847.13C362.87,-795.17 355.56,-736.51 348.7,-681.35"/>
<polygon fill="none" stroke="#63b8ff" points="348.69,-681.33 343.98,-675.87 347.21,-669.42 351.92,-674.88 348.69,-681.33"/>
</a>
</g>
<text text-anchor="middle" x="372.48" y="-749.5" font-family="Helvetica,sans-Serif" font-size="10.00" fill="grey"> #tRes</text>
</g>
</g>
</svg>
