<?xml version="1.0" encoding="UTF-8" standalone="no"?>
<!DOCTYPE svg PUBLIC "-//W3C//DTD SVG 1.1//EN"
 "http://www.w3.org/Graphics/SVG/1.1/DTD/svg11.dtd">
<!-- Generated by graphviz version 12.2.0 (20241103.1931)
 -->
<!-- Title: MyFrame::getMainTag Pages: 1 -->
<svg width="1253pt" height="236pt"
 viewBox="0.00 0.00 1253.00 236.00" xmlns="http://www.w3.org/2000/svg" xmlns:xlink="http://www.w3.org/1999/xlink">
<g id="graph0" class="graph" transform="scale(1 1) rotate(0) translate(4 232)">
<title>MyFrame::getMainTag</title>
<!-- Node1 -->
<g id="Node000001" class="node">
<title>Node1</title>
<g id="a_Node000001"><a xlink:title=" ">
<polygon fill="#999999" stroke="#666666" points="113.5,-171 0,-171 0,-151 113.5,-151 113.5,-171"/>
<text text-anchor="middle" x="56.75" y="-157.5" font-family="Helvetica,sans-Serif" font-size="10.00">MyFrame::getMainTag</text>
</a>
</g>
</g>
<!-- Node2 -->
<g id="Node000002" class="node">
<title>Node2</title>
<g id="a_Node000002"><a xlink:href="$class_interpretor.html#a51befa58f2bca099b38ee074be359f3d" xlink:title=" ">
<polygon fill="white" stroke="#666666" points="280.62,-190 152.12,-190 152.12,-170 280.62,-170 280.62,-190"/>
<text text-anchor="middle" x="216.38" y="-176.5" font-family="Helvetica,sans-Serif" font-size="10.00">Interpretor::getActivityTag</text>
</a>
</g>
</g>
<!-- Node1&#45;&gt;Node2 -->
<g id="edge31_Node000001_Node000002" class="edge">
<title>Node1&#45;&gt;Node2</title>
<g id="a_edge31_Node000001_Node000002"><a xlink:title=" ">
<path fill="none" stroke="#63b8ff" d="M113.77,-167.75C122.41,-168.79 131.46,-169.89 140.45,-170.97"/>
<polygon fill="#63b8ff" stroke="#63b8ff" points="139.9,-174.43 150.25,-172.15 140.74,-167.48 139.9,-174.43"/>
</a>
</g>
</g>
<!-- Node3 -->
<g id="Node000003" class="node">
<title>Node3</title>
<g id="a_Node000003"><a xlink:href="$class_interpretor.html#a860d7cc665a3202f6f462dc1293fe5e6" xlink:title=" ">
<polygon fill="white" stroke="#666666" points="283.25,-152 149.5,-152 149.5,-132 283.25,-132 283.25,-152"/>
<text text-anchor="middle" x="216.38" y="-138.5" font-family="Helvetica,sans-Serif" font-size="10.00">Interpretor::readActivityFile</text>
</a>
</g>
</g>
<!-- Node1&#45;&gt;Node3 -->
<g id="edge32_Node000001_Node000003" class="edge">
<title>Node1&#45;&gt;Node3</title>
<g id="a_edge32_Node000001_Node000003"><a xlink:title=" ">
<path fill="none" stroke="#63b8ff" d="M113.77,-154.25C121.53,-153.31 129.61,-152.34 137.67,-151.37"/>
<polygon fill="#63b8ff" stroke="#63b8ff" points="138.02,-154.85 147.53,-150.18 137.18,-147.9 138.02,-154.85"/>
</a>
</g>
</g>
<!-- Node4 -->
<g id="Node000004" class="node">
<title>Node4</title>
<g id="a_Node000004"><a xlink:href="$class_interpretor.html#a61ecb8df4ca776f58573955153f1b842" xlink:title=" ">
<polygon fill="white" stroke="#666666" points="444.38,-180 324.12,-180 324.12,-160 444.38,-160 444.38,-180"/>
<text text-anchor="middle" x="384.25" y="-166.5" font-family="Helvetica,sans-Serif" font-size="10.00">Interpretor::copyActivity</text>
</a>
</g>
</g>
<!-- Node3&#45;&gt;Node4 -->
<g id="edge33_Node000003_Node000004" class="edge">
<title>Node3&#45;&gt;Node4</title>
<g id="a_edge33_Node000003_Node000004"><a xlink:title=" ">
<path fill="none" stroke="#63b8ff" d="M279.14,-152.43C289.94,-154.25 301.26,-156.16 312.28,-158.02"/>
<polygon fill="#63b8ff" stroke="#63b8ff" points="311.7,-161.47 322.14,-159.69 312.87,-154.57 311.7,-161.47"/>
</a>
</g>
</g>
<!-- Node7 -->
<g id="Node000007" class="node">
<title>Node7</title>
<g id="a_Node000007"><a xlink:href="$class_interpretor.html#aa49f073000719629567f5563fc487836" xlink:title=" ">
<polygon fill="white" stroke="#666666" points="449.25,-133 319.25,-133 319.25,-113 449.25,-113 449.25,-133"/>
<text text-anchor="middle" x="384.25" y="-119.5" font-family="Helvetica,sans-Serif" font-size="10.00">Interpretor::createMainTag</text>
</a>
</g>
</g>
<!-- Node3&#45;&gt;Node7 -->
<g id="edge36_Node000003_Node000007" class="edge">
<title>Node3&#45;&gt;Node7</title>
<g id="a_edge36_Node000003_Node000007"><a xlink:title=" ">
<path fill="none" stroke="#63b8ff" d="M283.41,-134.44C291.33,-133.53 299.47,-132.6 307.51,-131.68"/>
<polygon fill="#63b8ff" stroke="#63b8ff" points="307.75,-135.17 317.29,-130.56 306.96,-128.22 307.75,-135.17"/>
</a>
</g>
</g>
<!-- Node5 -->
<g id="Node000005" class="node">
<title>Node5</title>
<g id="a_Node000005"><a xlink:href="$_text_manager_8cpp.html#add36cc54cd9616a393a17b8961491477" xlink:title=" ">
<polygon fill="white" stroke="#666666" points="581.12,-208 501.38,-208 501.38,-188 581.12,-188 581.12,-208"/>
<text text-anchor="middle" x="541.25" y="-194.5" font-family="Helvetica,sans-Serif" font-size="10.00">getFileContent</text>
</a>
</g>
</g>
<!-- Node4&#45;&gt;Node5 -->
<g id="edge34_Node000004_Node000005" class="edge">
<title>Node4&#45;&gt;Node5</title>
<g id="a_edge34_Node000004_Node000005"><a xlink:title=" ">
<path fill="none" stroke="#63b8ff" d="M442.97,-180.43C458.47,-183.23 475.1,-186.23 490.15,-188.95"/>
<polygon fill="#63b8ff" stroke="#63b8ff" points="489.35,-192.36 499.82,-190.7 490.6,-185.47 489.35,-192.36"/>
</a>
</g>
</g>
<!-- Node6 -->
<g id="Node000006" class="node">
<title>Node6</title>
<g id="a_Node000006"><a xlink:href="$_text_manager_8cpp.html#a5e4308ca14d1f4cfc2456fc26b1361a8" xlink:title=" ">
<polygon fill="white" stroke="#666666" points="725,-228 643.75,-228 643.75,-208 725,-208 725,-228"/>
<text text-anchor="middle" x="684.38" y="-214.5" font-family="Helvetica,sans-Serif" font-size="10.00">getIfstreamFile</text>
</a>
</g>
</g>
<!-- Node5&#45;&gt;Node6 -->
<g id="edge35_Node000005_Node000006" class="edge">
<title>Node5&#45;&gt;Node6</title>
<g id="a_edge35_Node000005_Node000006"><a xlink:title=" ">
<path fill="none" stroke="#63b8ff" d="M581.56,-203.57C597.2,-205.79 615.41,-208.37 632.06,-210.73"/>
<polygon fill="#63b8ff" stroke="#63b8ff" points="631.4,-214.17 641.8,-212.11 632.39,-207.24 631.4,-214.17"/>
</a>
</g>
</g>
<!-- Node8 -->
<g id="Node000008" class="node">
<title>Node8</title>
<g id="a_Node000008"><a xlink:href="$class_lexer.html#ab0ca8b5adc1af3cdec4855fba11491c1" xlink:title=" ">
<polygon fill="white" stroke="#666666" points="595,-133 487.5,-133 487.5,-113 595,-113 595,-133"/>
<text text-anchor="middle" x="541.25" y="-119.5" font-family="Helvetica,sans-Serif" font-size="10.00">Lexer::extractTokens</text>
</a>
</g>
</g>
<!-- Node7&#45;&gt;Node8 -->
<g id="edge37_Node000007_Node000008" class="edge">
<title>Node7&#45;&gt;Node8</title>
<g id="a_edge37_Node000007_Node000008"><a xlink:title=" ">
<path fill="none" stroke="#63b8ff" d="M449.64,-123C458.31,-123 467.21,-123 475.89,-123"/>
<polygon fill="#63b8ff" stroke="#63b8ff" points="475.61,-126.5 485.61,-123 475.61,-119.5 475.61,-126.5"/>
</a>
</g>
</g>
<!-- Node26 -->
<g id="Node000026" class="node">
<title>Node26</title>
<g id="a_Node000026"><a xlink:href="$class_lexer.html#a5a008a99eb5bc34590b62a99ea9065c3" xlink:title=" ">
<polygon fill="white" stroke="#666666" points="597.25,-95 485.25,-95 485.25,-75 597.25,-75 597.25,-95"/>
<text text-anchor="middle" x="541.25" y="-81.5" font-family="Helvetica,sans-Serif" font-size="10.00">Lexer::showAllTokens</text>
</a>
</g>
</g>
<!-- Node7&#45;&gt;Node26 -->
<g id="edge60_Node000007_Node000026" class="edge">
<title>Node7&#45;&gt;Node26</title>
<g id="a_edge60_Node000007_Node000026"><a xlink:title=" ">
<path fill="none" stroke="#63b8ff" d="M428.01,-112.52C446.14,-108.07 467.47,-102.84 486.63,-98.15"/>
<polygon fill="#63b8ff" stroke="#63b8ff" points="487.28,-101.59 496.15,-95.81 485.61,-94.79 487.28,-101.59"/>
</a>
</g>
</g>
<!-- Node8&#45;&gt;Node8 -->
<g id="edge38_Node000008_Node000008" class="edge">
<title>Node8&#45;&gt;Node8</title>
<g id="a_edge38_Node000008_Node000008"><a xlink:title=" ">
<path fill="none" stroke="#63b8ff" d="M518.51,-133.34C508.79,-141.98 516.37,-151 541.25,-151 554.86,-151 563.29,-148.3 566.55,-144.44"/>
<polygon fill="#63b8ff" stroke="#63b8ff" points="569.98,-143.77 564.33,-134.81 563.16,-145.34 569.98,-143.77"/>
</a>
</g>
</g>
<!-- Node9 -->
<g id="Node000009" class="node">
<title>Node9</title>
<g id="a_Node000009"><a xlink:href="$_interpretor_8cpp.html#aeadcc798628a739f30945ade9bf7c9a1" xlink:title=" ">
<polygon fill="white" stroke="#666666" points="735.5,-152 633.25,-152 633.25,-132 735.5,-132 735.5,-152"/>
<text text-anchor="middle" x="684.38" y="-138.5" font-family="Helvetica,sans-Serif" font-size="10.00">getNextTokenString</text>
</a>
</g>
</g>
<!-- Node8&#45;&gt;Node9 -->
<g id="edge39_Node000008_Node000009" class="edge">
<title>Node8&#45;&gt;Node9</title>
<g id="a_edge39_Node000008_Node000009"><a xlink:title=" ">
<path fill="none" stroke="#63b8ff" d="M595.2,-130.13C603.79,-131.29 612.76,-132.49 621.54,-133.67"/>
<polygon fill="#63b8ff" stroke="#63b8ff" points="621.05,-137.14 631.43,-135.01 621.99,-130.2 621.05,-137.14"/>
</a>
</g>
</g>
<!-- Node13 -->
<g id="Node000013" class="node">
<title>Node13</title>
<g id="a_Node000013"><a xlink:href="$_interpretor_8cpp.html#ac4b7c24de418895778c317466f485ce5" xlink:title=" ">
<polygon fill="white" stroke="#666666" points="735.12,-114 633.62,-114 633.62,-94 735.12,-94 735.12,-114"/>
<text text-anchor="middle" x="684.38" y="-100.5" font-family="Helvetica,sans-Serif" font-size="10.00">getPastTokenString</text>
</a>
</g>
</g>
<!-- Node8&#45;&gt;Node13 -->
<g id="edge43_Node000008_Node000013" class="edge">
<title>Node8&#45;&gt;Node13</title>
<g id="a_edge43_Node000008_Node000013"><a xlink:title=" ">
<path fill="none" stroke="#63b8ff" d="M595.2,-115.87C604,-114.69 613.19,-113.45 622.17,-112.24"/>
<polygon fill="#63b8ff" stroke="#63b8ff" points="622.45,-115.73 631.9,-110.93 621.52,-108.8 622.45,-115.73"/>
</a>
</g>
</g>
<!-- Node15 -->
<g id="Node000015" class="node">
<title>Node15</title>
<g id="a_Node000015"><a xlink:href="$_interpretor_8cpp.html#a426cbd25cc7742ac6cface09364031ba" xlink:title=" ">
<polygon fill="white" stroke="#666666" points="725,-190 643.75,-190 643.75,-170 725,-170 725,-190"/>
<text text-anchor="middle" x="684.38" y="-176.5" font-family="Helvetica,sans-Serif" font-size="10.00">getStringLiteral</text>
</a>
</g>
</g>
<!-- Node8&#45;&gt;Node15 -->
<g id="edge47_Node000008_Node000015" class="edge">
<title>Node8&#45;&gt;Node15</title>
<g id="a_edge47_Node000008_Node000015"><a xlink:title=" ">
<path fill="none" stroke="#63b8ff" d="M566.49,-133.38C584.78,-141.15 610.5,-151.94 633.25,-161 636.91,-162.46 640.72,-163.95 644.54,-165.43"/>
<polygon fill="#63b8ff" stroke="#63b8ff" points="643.21,-168.66 653.8,-168.97 645.71,-162.13 643.21,-168.66"/>
</a>
</g>
</g>
<!-- Node16 -->
<g id="Node000016" class="node">
<title>Node16</title>
<g id="a_Node000016"><a xlink:href="$_interpretor_8cpp.html#a7e41e92472c2a2c1aafa174217d4734f" xlink:title=" ">
<polygon fill="white" stroke="#666666" points="712.25,-58 656.5,-58 656.5,-38 712.25,-38 712.25,-58"/>
<text text-anchor="middle" x="684.38" y="-44.5" font-family="Helvetica,sans-Serif" font-size="10.00">getToken</text>
</a>
</g>
</g>
<!-- Node8&#45;&gt;Node16 -->
<g id="edge49_Node000008_Node000016" class="edge">
<title>Node8&#45;&gt;Node16</title>
<g id="a_edge49_Node000008_Node000016"><a xlink:title=" ">
<path fill="none" stroke="#63b8ff" d="M576.81,-112.51C583.71,-110.01 590.81,-107.15 597.25,-104 619.89,-92.94 643.77,-77.03 660.63,-64.99"/>
<polygon fill="#63b8ff" stroke="#63b8ff" points="662.42,-68.02 668.45,-59.31 658.31,-62.35 662.42,-68.02"/>
</a>
</g>
</g>
<!-- Node25 -->
<g id="Node000025" class="node">
<title>Node25</title>
<g id="a_Node000025"><a xlink:href="$_interpretor_8cpp.html#aa6913b7fe272fe20684f1c5c701d54d7" xlink:title=" ">
<polygon fill="white" stroke="#666666" points="715.25,-20 653.5,-20 653.5,0 715.25,0 715.25,-20"/>
<text text-anchor="middle" x="684.38" y="-6.5" font-family="Helvetica,sans-Serif" font-size="10.00">skipSpace</text>
</a>
</g>
</g>
<!-- Node8&#45;&gt;Node25 -->
<g id="edge59_Node000008_Node000025" class="edge">
<title>Node8&#45;&gt;Node25</title>
<g id="a_edge59_Node000008_Node000025"><a xlink:title=" ">
<path fill="none" stroke="#63b8ff" d="M584.17,-112.56C588.91,-110.24 593.4,-107.43 597.25,-104 624.85,-79.4 606.02,-54.01 633.25,-29 636.15,-26.34 639.46,-24.04 642.96,-22.05"/>
<polygon fill="#63b8ff" stroke="#63b8ff" points="644.25,-25.32 651.8,-17.89 641.27,-18.98 644.25,-25.32"/>
</a>
</g>
</g>
<!-- Node10 -->
<g id="Node000010" class="node">
<title>Node10</title>
<g id="a_Node000010"><a xlink:href="$_text_manager_8cpp.html#a377407ab4c28873a8e1956ea343f9cc2" xlink:title=" ">
<polygon fill="white" stroke="#666666" points="882,-190 789.5,-190 789.5,-170 882,-170 882,-190"/>
<text text-anchor="middle" x="835.75" y="-176.5" font-family="Helvetica,sans-Serif" font-size="10.00">getContentBefore</text>
</a>
</g>
</g>
<!-- Node9&#45;&gt;Node10 -->
<g id="edge40_Node000009_Node000010" class="edge">
<title>Node9&#45;&gt;Node10</title>
<g id="a_edge40_Node000009_Node000010"><a xlink:title=" ">
<path fill="none" stroke="#63b8ff" d="M726.59,-152.48C743.89,-156.89 764.22,-162.06 782.56,-166.72"/>
<polygon fill="#63b8ff" stroke="#63b8ff" points="781.65,-170.1 792.2,-169.18 783.38,-163.32 781.65,-170.1"/>
</a>
</g>
</g>
<!-- Node12 -->
<g id="Node000012" class="node">
<title>Node12</title>
<g id="a_Node000012"><a xlink:href="$_interpretor_8cpp.html#a44cd9137229f6cc0f965ce359f482379" xlink:title=" ">
<polygon fill="white" stroke="#666666" points="900,-152 771.5,-152 771.5,-132 900,-132 900,-152"/>
<text text-anchor="middle" x="835.75" y="-138.5" font-family="Helvetica,sans-Serif" font-size="10.00">getNextPunctuationToken</text>
</a>
</g>
</g>
<!-- Node9&#45;&gt;Node12 -->
<g id="edge42_Node000009_Node000012" class="edge">
<title>Node9&#45;&gt;Node12</title>
<g id="a_edge42_Node000009_Node000012"><a xlink:title=" ">
<path fill="none" stroke="#63b8ff" d="M735.95,-142C743.66,-142 751.75,-142 759.84,-142"/>
<polygon fill="#63b8ff" stroke="#63b8ff" points="759.74,-145.5 769.74,-142 759.74,-138.5 759.74,-145.5"/>
</a>
</g>
</g>
<!-- Node11 -->
<g id="Node000011" class="node">
<title>Node11</title>
<g id="a_Node000011"><a xlink:href="$_text_manager_8cpp.html#afbb8972025ad14e914fdaafa26957439" xlink:title=" ">
<polygon fill="white" stroke="#666666" points="991,-152 942,-152 942,-132 991,-132 991,-152"/>
<text text-anchor="middle" x="966.5" y="-138.5" font-family="Helvetica,sans-Serif" font-size="10.00">findPos</text>
</a>
</g>
</g>
<!-- Node10&#45;&gt;Node11 -->
<g id="edge41_Node000010_Node000011" class="edge">
<title>Node10&#45;&gt;Node11</title>
<g id="a_edge41_Node000010_Node000011"><a xlink:title=" ">
<path fill="none" stroke="#63b8ff" d="M872.27,-169.52C890.55,-164.12 912.75,-157.57 930.9,-152.21"/>
<polygon fill="#63b8ff" stroke="#63b8ff" points="931.83,-155.59 940.43,-149.4 929.85,-148.87 931.83,-155.59"/>
</a>
</g>
</g>
<!-- Node14 -->
<g id="Node000014" class="node">
<title>Node14</title>
<g id="a_Node000014"><a xlink:href="$_text_manager_8cpp.html#a6a1f72a80ddaec746c95996b16e3a1dc" xlink:title=" ">
<polygon fill="white" stroke="#666666" points="878.25,-96 793.25,-96 793.25,-76 878.25,-76 878.25,-96"/>
<text text-anchor="middle" x="835.75" y="-82.5" font-family="Helvetica,sans-Serif" font-size="10.00">getContentAfter</text>
</a>
</g>
</g>
<!-- Node13&#45;&gt;Node14 -->
<g id="edge44_Node000013_Node000014" class="edge">
<title>Node13&#45;&gt;Node14</title>
<g id="a_edge44_Node000013_Node000014"><a xlink:title=" ">
<path fill="none" stroke="#63b8ff" d="M735.53,-97.96C750.39,-96.17 766.71,-94.2 781.74,-92.39"/>
<polygon fill="#63b8ff" stroke="#63b8ff" points="781.93,-95.89 791.44,-91.22 781.09,-88.94 781.93,-95.89"/>
</a>
</g>
</g>
<!-- Node14&#45;&gt;Node11 -->
<g id="edge45_Node000014_Node000011" class="edge">
<title>Node14&#45;&gt;Node11</title>
<g id="a_edge45_Node000014_Node000011"><a xlink:title=" ">
<path fill="none" stroke="#63b8ff" d="M860.67,-96.4C880.54,-105.05 909.06,-117.45 931.34,-127.14"/>
<polygon fill="#63b8ff" stroke="#63b8ff" points="929.76,-130.27 940.32,-131.05 932.55,-123.85 929.76,-130.27"/>
</a>
</g>
</g>
<!-- Node14&#45;&gt;Node14 -->
<g id="edge46_Node000014_Node000014" class="edge">
<title>Node14&#45;&gt;Node14</title>
<g id="a_edge46_Node000014_Node000014"><a xlink:title=" ">
<path fill="none" stroke="#63b8ff" d="M814.98,-96.34C806.1,-104.98 813.02,-114 835.75,-114 848.18,-114 855.88,-111.3 858.86,-107.44"/>
<polygon fill="#63b8ff" stroke="#63b8ff" points="862.32,-106.89 856.84,-97.82 855.47,-108.33 862.32,-106.89"/>
</a>
</g>
</g>
<!-- Node15&#45;&gt;Node10 -->
<g id="edge48_Node000015_Node000010" class="edge">
<title>Node15&#45;&gt;Node10</title>
<g id="a_edge48_Node000015_Node000010"><a xlink:title=" ">
<path fill="none" stroke="#63b8ff" d="M725.4,-180C741.5,-180 760.35,-180 777.82,-180"/>
<polygon fill="#63b8ff" stroke="#63b8ff" points="777.55,-183.5 787.55,-180 777.55,-176.5 777.55,-183.5"/>
</a>
</g>
</g>
<!-- Node16&#45;&gt;Node16 -->
<g id="edge50_Node000016_Node000016" class="edge">
<title>Node16&#45;&gt;Node16</title>
<g id="a_edge50_Node000016_Node000016"><a xlink:title=" ">
<path fill="none" stroke="#63b8ff" d="M661.63,-58.34C651.92,-66.98 659.5,-76 684.38,-76 697.98,-76 706.41,-73.3 709.67,-69.44"/>
<polygon fill="#63b8ff" stroke="#63b8ff" points="713.11,-68.77 707.46,-59.81 706.29,-70.34 713.11,-68.77"/>
</a>
</g>
</g>
<!-- Node17 -->
<g id="Node000017" class="node">
<title>Node17</title>
<g id="a_Node000017"><a xlink:href="$_interpretor_8cpp.html#a0060c66efc18253619637b287095821c" xlink:title=" ">
<polygon fill="white" stroke="#666666" points="875.62,-58 795.88,-58 795.88,-38 875.62,-38 875.62,-58"/>
<text text-anchor="middle" x="835.75" y="-44.5" font-family="Helvetica,sans-Serif" font-size="10.00">getTokenValue</text>
</a>
</g>
</g>
<!-- Node16&#45;&gt;Node17 -->
<g id="edge51_Node000016_Node000017" class="edge">
<title>Node16&#45;&gt;Node17</title>
<g id="a_edge51_Node000016_Node000017"><a xlink:title=" ">
<path fill="none" stroke="#63b8ff" d="M712.43,-48C732.37,-48 760.08,-48 784.09,-48"/>
<polygon fill="#63b8ff" stroke="#63b8ff" points="784.02,-51.5 794.02,-48 784.02,-44.5 784.02,-51.5"/>
</a>
</g>
</g>
<!-- Node18 -->
<g id="Node000018" class="node">
<title>Node18</title>
<g id="a_Node000018"><a xlink:href="$_interpretor_8cpp.html#a32fa5cbc79c968c5b53e8303ad77091d" xlink:title=" ">
<polygon fill="white" stroke="#666666" points="997,-77 936,-77 936,-57 997,-57 997,-77"/>
<text text-anchor="middle" x="966.5" y="-63.5" font-family="Helvetica,sans-Serif" font-size="10.00">isIdentifier</text>
</a>
</g>
</g>
<!-- Node17&#45;&gt;Node18 -->
<g id="edge52_Node000017_Node000018" class="edge">
<title>Node17&#45;&gt;Node18</title>
<g id="a_edge52_Node000017_Node000018"><a xlink:title=" ">
<path fill="none" stroke="#63b8ff" d="M876.08,-53.8C891.4,-56.06 908.96,-58.66 924.45,-60.94"/>
<polygon fill="#63b8ff" stroke="#63b8ff" points="923.91,-64.4 934.31,-62.4 924.93,-57.48 923.91,-64.4"/>
</a>
</g>
</g>
<!-- Node24 -->
<g id="Node000024" class="node">
<title>Node24</title>
<g id="a_Node000024"><a xlink:href="$_interpretor_8cpp.html#aaa3b01d6b7b6b5bf4b868b37fcf3ac6f" xlink:title=" ">
<polygon fill="white" stroke="#666666" points="995.5,-39 937.5,-39 937.5,-19 995.5,-19 995.5,-39"/>
<text text-anchor="middle" x="966.5" y="-25.5" font-family="Helvetica,sans-Serif" font-size="10.00">isNumber</text>
</a>
</g>
</g>
<!-- Node17&#45;&gt;Node24 -->
<g id="edge58_Node000017_Node000024" class="edge">
<title>Node17&#45;&gt;Node24</title>
<g id="a_edge58_Node000017_Node000024"><a xlink:title=" ">
<path fill="none" stroke="#63b8ff" d="M876.08,-42.2C891.91,-39.86 910.13,-37.17 925.98,-34.83"/>
<polygon fill="#63b8ff" stroke="#63b8ff" points="926.15,-38.34 935.53,-33.42 925.13,-31.42 926.15,-38.34"/>
</a>
</g>
</g>
<!-- Node19 -->
<g id="Node000019" class="node">
<title>Node19</title>
<g id="a_Node000019"><a xlink:href="$_interpretor_8cpp.html#ad42767aaf8252eb57581d009530bd527" xlink:title=" ">
<polygon fill="white" stroke="#666666" points="1108.25,-77 1033,-77 1033,-57 1108.25,-57 1108.25,-77"/>
<text text-anchor="middle" x="1070.62" y="-63.5" font-family="Helvetica,sans-Serif" font-size="10.00">isTokenString</text>
</a>
</g>
</g>
<!-- Node18&#45;&gt;Node19 -->
<g id="edge53_Node000018_Node000019" class="edge">
<title>Node18&#45;&gt;Node19</title>
<g id="a_edge53_Node000018_Node000019"><a xlink:title=" ">
<path fill="none" stroke="#63b8ff" d="M997.31,-67C1004.84,-67 1013.11,-67 1021.29,-67"/>
<polygon fill="#63b8ff" stroke="#63b8ff" points="1021.19,-70.5 1031.19,-67 1021.19,-63.5 1021.19,-70.5"/>
</a>
</g>
</g>
<!-- Node20 -->
<g id="Node000020" class="node">
<title>Node20</title>
<g id="a_Node000020"><a xlink:href="$_interpretor_8cpp.html#a3276e6efe4a3f409262ffe0b345e9636" xlink:title=" ">
<polygon fill="white" stroke="#666666" points="1238.25,-134 1151,-134 1151,-114 1238.25,-114 1238.25,-134"/>
<text text-anchor="middle" x="1194.62" y="-120.5" font-family="Helvetica,sans-Serif" font-size="10.00">isKeywordString</text>
</a>
</g>
</g>
<!-- Node19&#45;&gt;Node20 -->
<g id="edge54_Node000019_Node000020" class="edge">
<title>Node19&#45;&gt;Node20</title>
<g id="a_edge54_Node000019_Node000020"><a xlink:title=" ">
<path fill="none" stroke="#63b8ff" d="M1090.14,-77.44C1104.65,-85.44 1125.45,-96.5 1144.25,-105 1147.56,-106.49 1151.02,-107.98 1154.51,-109.43"/>
<polygon fill="#63b8ff" stroke="#63b8ff" points="1152.95,-112.57 1163.53,-113.04 1155.55,-106.07 1152.95,-112.57"/>
</a>
</g>
</g>
<!-- Node21 -->
<g id="Node000021" class="node">
<title>Node21</title>
<g id="a_Node000021"><a xlink:href="$_interpretor_8cpp.html#ae8bab56314c8b787497a84c189b9114d" xlink:title=" ">
<polygon fill="white" stroke="#666666" points="1232.25,-96 1157,-96 1157,-76 1232.25,-76 1232.25,-96"/>
<text text-anchor="middle" x="1194.62" y="-82.5" font-family="Helvetica,sans-Serif" font-size="10.00">isLiteralString</text>
</a>
</g>
</g>
<!-- Node19&#45;&gt;Node21 -->
<g id="edge55_Node000019_Node000021" class="edge">
<title>Node19&#45;&gt;Node21</title>
<g id="a_edge55_Node000019_Node000021"><a xlink:title=" ">
<path fill="none" stroke="#63b8ff" d="M1108.56,-72.75C1120.27,-74.58 1133.38,-76.62 1145.74,-78.54"/>
<polygon fill="#63b8ff" stroke="#63b8ff" points="1144.9,-81.95 1155.32,-80.03 1145.98,-75.04 1144.9,-81.95"/>
</a>
</g>
</g>
<!-- Node22 -->
<g id="Node000022" class="node">
<title>Node22</title>
<g id="a_Node000022"><a xlink:href="$_interpretor_8cpp.html#ae80d3823673e42ed3ce7e84597bbd552" xlink:title=" ">
<polygon fill="white" stroke="#666666" points="1237.88,-58 1151.38,-58 1151.38,-38 1237.88,-38 1237.88,-58"/>
<text text-anchor="middle" x="1194.62" y="-44.5" font-family="Helvetica,sans-Serif" font-size="10.00">isOperatorString</text>
</a>
</g>
</g>
<!-- Node19&#45;&gt;Node22 -->
<g id="edge56_Node000019_Node000022" class="edge">
<title>Node19&#45;&gt;Node22</title>
<g id="a_edge56_Node000019_Node000022"><a xlink:title=" ">
<path fill="none" stroke="#63b8ff" d="M1108.56,-61.25C1118.45,-59.71 1129.34,-58.01 1139.94,-56.36"/>
<polygon fill="#63b8ff" stroke="#63b8ff" points="1140.42,-59.83 1149.76,-54.83 1139.34,-52.91 1140.42,-59.83"/>
</a>
</g>
</g>
<!-- Node23 -->
<g id="Node000023" class="node">
<title>Node23</title>
<g id="a_Node000023"><a xlink:href="$_interpretor_8cpp.html#ad93eecc58b3fdba57ba605dcb296f03e" xlink:title=" ">
<polygon fill="white" stroke="#666666" points="1245,-20 1144.25,-20 1144.25,0 1245,0 1245,-20"/>
<text text-anchor="middle" x="1194.62" y="-6.5" font-family="Helvetica,sans-Serif" font-size="10.00">isPunctuationString</text>
</a>
</g>
</g>
<!-- Node19&#45;&gt;Node23 -->
<g id="edge57_Node000019_Node000023" class="edge">
<title>Node19&#45;&gt;Node23</title>
<g id="a_edge57_Node000019_Node000023"><a xlink:title=" ">
<path fill="none" stroke="#63b8ff" d="M1090.14,-56.56C1104.65,-48.56 1125.45,-37.5 1144.25,-29 1147.56,-27.51 1151.02,-26.02 1154.51,-24.57"/>
<polygon fill="#63b8ff" stroke="#63b8ff" points="1155.55,-27.93 1163.53,-20.96 1152.95,-21.43 1155.55,-27.93"/>
</a>
</g>
</g>
</g>
</svg>
