<?xml version="1.0" encoding="UTF-8" standalone="no"?>
<!DOCTYPE svg PUBLIC "-//W3C//DTD SVG 1.1//EN"
 "http://www.w3.org/Graphics/SVG/1.1/DTD/svg11.dtd">
<!-- Generated by graphviz version 12.2.0 (20241103.1931)
 -->
<!-- Title: IteratorList::next Pages: 1 -->
<svg width="439pt" height="1092pt"
 viewBox="0.00 0.00 438.50 1092.00" xmlns="http://www.w3.org/2000/svg" xmlns:xlink="http://www.w3.org/1999/xlink">
<g id="graph0" class="graph" transform="scale(1 1) rotate(0) translate(4 1088)">
<title>IteratorList::next</title>
<!-- Node1 -->
<g id="Node000001" class="node">
<title>Node1</title>
<g id="a_Node000001"><a xlink:title=" ">
<polygon fill="#999999" stroke="#666666" points="430.5,-552 343.25,-552 343.25,-532 430.5,-532 430.5,-552"/>
<text text-anchor="middle" x="386.88" y="-538.5" font-family="Helvetica,sans-Serif" font-size="10.00">IteratorList::next</text>
</a>
</g>
</g>
<!-- Node2 -->
<g id="Node000002" class="node">
<title>Node2</title>
<g id="a_Node000002"><a xlink:href="$class_list_token.html#a31080aaed35fe7176403a5e84d295fbe" xlink:title=" ">
<polygon fill="white" stroke="#666666" points="285.88,-970 188.12,-970 188.12,-950 285.88,-950 285.88,-970"/>
<text text-anchor="middle" x="237" y="-956.5" font-family="Helvetica,sans-Serif" font-size="10.00">ListToken::addCab</text>
</a>
</g>
</g>
<!-- Node1&#45;&gt;Node2 -->
<g id="edge70_Node000001_Node000002" class="edge">
<title>Node1&#45;&gt;Node2</title>
<g id="a_edge70_Node000001_Node000002"><a xlink:title=" ">
<path fill="none" stroke="#63b8ff" d="M384.55,-563.59C379.53,-638.41 359.27,-885.02 307.25,-941 301.56,-947.12 294.11,-951.34 286.2,-954.23"/>
<polygon fill="#63b8ff" stroke="#63b8ff" points="388.02,-564.12 385.17,-553.91 381.04,-563.67 388.02,-564.12"/>
</a>
</g>
</g>
<!-- Node3 -->
<g id="Node000003" class="node">
<title>Node3</title>
<g id="a_Node000003"><a xlink:href="$class_list_token.html#ad933b167a7d348852edf2700a8c2985b" xlink:title=" ">
<polygon fill="white" stroke="#666666" points="121,-1008 9.75,-1008 9.75,-988 121,-988 121,-1008"/>
<text text-anchor="middle" x="65.38" y="-994.5" font-family="Helvetica,sans-Serif" font-size="10.00">ListToken::addTokens</text>
</a>
</g>
</g>
<!-- Node1&#45;&gt;Node3 -->
<g id="edge129_Node000001_Node000003" class="edge">
<title>Node1&#45;&gt;Node3</title>
<g id="a_edge129_Node000001_Node000003"><a xlink:title=" ">
<path fill="none" stroke="#63b8ff" d="M385.34,-563.42C382.85,-643.34 369.77,-922.4 307.25,-979 253.14,-1027.99 161.31,-1019.16 108.03,-1008.48"/>
<polygon fill="#63b8ff" stroke="#63b8ff" points="388.82,-563.98 385.61,-553.88 381.83,-563.78 388.82,-563.98"/>
</a>
</g>
</g>
<!-- Node4 -->
<g id="Node000004" class="node">
<title>Node4</title>
<g id="a_Node000004"><a xlink:href="$class_k_p_token.html#a53794cd4c78b5873550ca3f5a457f346" xlink:title=" ">
<polygon fill="white" stroke="#666666" points="293,-742 181,-742 181,-722 293,-722 293,-742"/>
<text text-anchor="middle" x="237" y="-728.5" font-family="Helvetica,sans-Serif" font-size="10.00">KPToken::addComma</text>
</a>
</g>
</g>
<!-- Node1&#45;&gt;Node4 -->
<g id="edge72_Node000001_Node000004" class="edge">
<title>Node1&#45;&gt;Node4</title>
<g id="a_edge72_Node000001_Node000004"><a xlink:title=" ">
<path fill="none" stroke="#63b8ff" d="M382.07,-563.46C374.5,-599.78 354.05,-673.28 307.25,-713 303.07,-716.55 298.28,-719.44 293.21,-721.79"/>
<polygon fill="#63b8ff" stroke="#63b8ff" points="385.49,-564.25 383.95,-553.76 378.61,-562.92 385.49,-564.25"/>
</a>
</g>
</g>
<!-- Node5 -->
<g id="Node000005" class="node">
<title>Node5</title>
<g id="a_Node000005"><a xlink:href="$class_store_token.html#ada7a74bb6d2f11f78f026be0554183e9" xlink:title=" ">
<polygon fill="white" stroke="#666666" points="124.75,-932 6,-932 6,-912 124.75,-912 124.75,-932"/>
<text text-anchor="middle" x="65.38" y="-918.5" font-family="Helvetica,sans-Serif" font-size="10.00">StoreToken::addTokens</text>
</a>
</g>
</g>
<!-- Node1&#45;&gt;Node5 -->
<g id="edge132_Node000001_Node000005" class="edge">
<title>Node1&#45;&gt;Node5</title>
<g id="a_edge132_Node000001_Node000005"><a xlink:title=" ">
<path fill="none" stroke="#63b8ff" d="M384.13,-563.39C379.51,-605.66 363.15,-700.2 307.25,-751 259.37,-794.5 213.44,-744.22 166.75,-789 128.4,-825.78 168.67,-865.79 130.75,-903 127.26,-906.43 123.18,-909.24 118.8,-911.55"/>
<polygon fill="#63b8ff" stroke="#63b8ff" points="387.6,-563.85 385.07,-553.56 380.63,-563.18 387.6,-563.85"/>
</a>
</g>
</g>
<!-- Node6 -->
<g id="Node000006" class="node">
<title>Node6</title>
<g id="a_Node000006"><a xlink:href="$class_wait_token.html#a025496a739c85ce044f303b38fee7608" xlink:title=" ">
<polygon fill="white" stroke="#666666" points="122.88,-970 7.88,-970 7.88,-950 122.88,-950 122.88,-970"/>
<text text-anchor="middle" x="65.38" y="-956.5" font-family="Helvetica,sans-Serif" font-size="10.00">WaitToken::addTokens</text>
</a>
</g>
</g>
<!-- Node1&#45;&gt;Node6 -->
<g id="edge134_Node000001_Node000006" class="edge">
<title>Node1&#45;&gt;Node6</title>
<g id="a_edge134_Node000001_Node000006"><a xlink:title=" ">
<path fill="none" stroke="#63b8ff" d="M386.65,-563.59C387.31,-616.42 381.37,-753.25 307.25,-827 261.39,-872.63 216.38,-823.51 166.75,-865 138.07,-888.97 159.15,-916.7 130.75,-941 126.77,-944.41 122.19,-947.21 117.36,-949.5"/>
<polygon fill="#63b8ff" stroke="#63b8ff" points="390.16,-563.74 386.42,-553.83 383.16,-563.91 390.16,-563.74"/>
</a>
</g>
</g>
<!-- Node11 -->
<g id="Node000011" class="node">
<title>Node11</title>
<g id="a_Node000011"><a xlink:href="$class_flow_k_c_token.html#aa8e871c7b557b02746ffad16e531a567" xlink:title=" ">
<polygon fill="white" stroke="#666666" points="307.25,-666 166.75,-666 166.75,-646 307.25,-646 307.25,-666"/>
<text text-anchor="middle" x="237" y="-652.5" font-family="Helvetica,sans-Serif" font-size="10.00">FlowKCToken::addCondition</text>
</a>
</g>
</g>
<!-- Node1&#45;&gt;Node11 -->
<g id="edge79_Node000001_Node000011" class="edge">
<title>Node1&#45;&gt;Node11</title>
<g id="a_edge79_Node000001_Node000011"><a xlink:title=" ">
<path fill="none" stroke="#63b8ff" d="M373.08,-561.97C359.14,-582.24 335.08,-613.23 307.25,-632 298.92,-637.62 289.13,-642.06 279.58,-645.5"/>
<polygon fill="#63b8ff" stroke="#63b8ff" points="375.94,-563.99 378.57,-553.73 370.11,-560.11 375.94,-563.99"/>
</a>
</g>
</g>
<!-- Node12 -->
<g id="Node000012" class="node">
<title>Node12</title>
<g id="a_Node000012"><a xlink:href="$class_flow_k_c_token.html#aabbf4019cb69b07eb25b11bd070824fc" xlink:title=" ">
<polygon fill="white" stroke="#666666" points="130.75,-514 0,-514 0,-494 130.75,-494 130.75,-514"/>
<text text-anchor="middle" x="65.38" y="-500.5" font-family="Helvetica,sans-Serif" font-size="10.00">FlowKCToken::addTokens</text>
</a>
</g>
</g>
<!-- Node1&#45;&gt;Node12 -->
<g id="edge123_Node000001_Node000012" class="edge">
<title>Node1&#45;&gt;Node12</title>
<g id="a_edge123_Node000001_Node000012"><a xlink:title=" ">
<path fill="none" stroke="#63b8ff" d="M368.2,-559.93C353.37,-573.6 330.89,-591.33 307.25,-599 247.85,-618.27 219.52,-632.39 166.75,-599 135.17,-579.01 159.15,-547.3 130.75,-523 126.77,-519.59 122.19,-516.79 117.36,-514.5"/>
<polygon fill="#63b8ff" stroke="#63b8ff" points="370.5,-562.57 375.28,-553.12 365.65,-557.52 370.5,-562.57"/>
</a>
</g>
</g>
<!-- Node13 -->
<g id="Node000013" class="node">
<title>Node13</title>
<g id="a_Node000013"><a xlink:href="$class_k_p_token.html#a0a95e55ef2440fbaa21cd74442eb3c65" xlink:title=" ">
<polygon fill="white" stroke="#666666" points="282.12,-704 191.88,-704 191.88,-684 282.12,-684 282.12,-704"/>
<text text-anchor="middle" x="237" y="-690.5" font-family="Helvetica,sans-Serif" font-size="10.00">KPToken::addCp</text>
</a>
</g>
</g>
<!-- Node1&#45;&gt;Node13 -->
<g id="edge81_Node000001_Node000013" class="edge">
<title>Node1&#45;&gt;Node13</title>
<g id="a_edge81_Node000001_Node000013"><a xlink:title=" ">
<path fill="none" stroke="#63b8ff" d="M379.07,-563.24C368.49,-592.79 345.28,-645.95 307.25,-675 300.02,-680.52 291.28,-684.44 282.48,-687.22"/>
<polygon fill="#63b8ff" stroke="#63b8ff" points="382.33,-564.52 382.24,-553.92 375.7,-562.26 382.33,-564.52"/>
</a>
</g>
</g>
<!-- Node14 -->
<g id="Node000014" class="node">
<title>Node14</title>
<g id="a_Node000014"><a xlink:href="$class_flow_k_p_token.html#afb97e689d4a475e1c20b5ae2a6732c62" xlink:title=" ">
<polygon fill="white" stroke="#666666" points="130.38,-438 0.38,-438 0.38,-418 130.38,-418 130.38,-438"/>
<text text-anchor="middle" x="65.38" y="-424.5" font-family="Helvetica,sans-Serif" font-size="10.00">FlowKPToken::addTokens</text>
</a>
</g>
</g>
<!-- Node1&#45;&gt;Node14 -->
<g id="edge124_Node000001_Node000014" class="edge">
<title>Node1&#45;&gt;Node14</title>
<g id="a_edge124_Node000001_Node000014"><a xlink:title=" ">
<path fill="none" stroke="#63b8ff" d="M366.07,-524.21C350.96,-511.52 329.08,-495.01 307.25,-485 250.51,-458.99 180.61,-444.15 130.75,-436.17"/>
<polygon fill="#63b8ff" stroke="#63b8ff" points="363.54,-526.65 373.4,-530.53 368.12,-521.35 363.54,-526.65"/>
</a>
</g>
</g>
<!-- Node15 -->
<g id="Node000015" class="node">
<title>Node15</title>
<g id="a_Node000015"><a xlink:href="$class_main_token.html#afe612ccf1e5346401b2fff76d029bbbe" xlink:title=" ">
<polygon fill="white" stroke="#666666" points="123.62,-476 7.12,-476 7.12,-456 123.62,-456 123.62,-476"/>
<text text-anchor="middle" x="65.38" y="-462.5" font-family="Helvetica,sans-Serif" font-size="10.00">MainToken::addTokens</text>
</a>
</g>
</g>
<!-- Node1&#45;&gt;Node15 -->
<g id="edge130_Node000001_Node000015" class="edge">
<title>Node1&#45;&gt;Node15</title>
<g id="a_edge130_Node000001_Node000015"><a xlink:title=" ">
<path fill="none" stroke="#63b8ff" d="M331.91,-547.67C285.75,-550.17 218.75,-548.08 166.75,-523 145.8,-512.89 150.59,-497.15 130.75,-485 125.19,-481.59 118.98,-478.76 112.67,-476.43"/>
<polygon fill="#63b8ff" stroke="#63b8ff" points="331.9,-551.17 341.66,-547.04 331.46,-544.19 331.9,-551.17"/>
</a>
</g>
</g>
<!-- Node22 -->
<g id="Node000022" class="node">
<title>Node22</title>
<g id="a_Node000022"><a xlink:href="$class_store_token.html#abbb9193503dd3dc6f03f96be9f71b45a" xlink:title=" ">
<polygon fill="white" stroke="#666666" points="299.38,-818 174.62,-818 174.62,-798 299.38,-798 299.38,-818"/>
<text text-anchor="middle" x="237" y="-804.5" font-family="Helvetica,sans-Serif" font-size="10.00">StoreToken::addIdentifier</text>
</a>
</g>
</g>
<!-- Node1&#45;&gt;Node22 -->
<g id="edge97_Node000001_Node000022" class="edge">
<title>Node1&#45;&gt;Node22</title>
<g id="a_edge97_Node000001_Node000022"><a xlink:title=" ">
<path fill="none" stroke="#63b8ff" d="M385.04,-563.77C382.08,-610.54 368.6,-721.44 307.25,-784 301.55,-789.81 294.37,-794.22 286.81,-797.56"/>
<polygon fill="#63b8ff" stroke="#63b8ff" points="388.53,-564.05 385.55,-553.88 381.54,-563.69 388.53,-564.05"/>
</a>
</g>
</g>
<!-- Node23 -->
<g id="Node000023" class="node">
<title>Node23</title>
<g id="a_Node000023"><a xlink:href="$class_list_token.html#ae736d7d0f7a3cd54847651f1d2cf9ffb" xlink:title=" ">
<polygon fill="white" stroke="#666666" points="285.88,-932 188.12,-932 188.12,-912 285.88,-912 285.88,-932"/>
<text text-anchor="middle" x="237" y="-918.5" font-family="Helvetica,sans-Serif" font-size="10.00">ListToken::addOab</text>
</a>
</g>
</g>
<!-- Node1&#45;&gt;Node23 -->
<g id="edge99_Node000001_Node000023" class="edge">
<title>Node1&#45;&gt;Node23</title>
<g id="a_edge99_Node000001_Node000023"><a xlink:title=" ">
<path fill="none" stroke="#63b8ff" d="M384.05,-563.77C377.72,-634.05 354.51,-853.15 307.25,-903 301.5,-909.06 294.02,-913.25 286.11,-916.14"/>
<polygon fill="#63b8ff" stroke="#63b8ff" points="387.52,-564.23 384.9,-553.97 380.55,-563.62 387.52,-564.23"/>
</a>
</g>
</g>
<!-- Node24 -->
<g id="Node000024" class="node">
<title>Node24</title>
<g id="a_Node000024"><a xlink:href="$class_flow_k_p_token.html#a2a3c69d4e82ac4a76c1f39ea505a64e7" xlink:title=" ">
<polygon fill="white" stroke="#666666" points="292.62,-514 181.38,-514 181.38,-494 292.62,-494 292.62,-514"/>
<text text-anchor="middle" x="237" y="-500.5" font-family="Helvetica,sans-Serif" font-size="10.00">FlowKPToken::addOb</text>
</a>
</g>
</g>
<!-- Node1&#45;&gt;Node24 -->
<g id="edge101_Node000001_Node000024" class="edge">
<title>Node1&#45;&gt;Node24</title>
<g id="a_edge101_Node000001_Node000024"><a xlink:title=" ">
<path fill="none" stroke="#63b8ff" d="M334.07,-528.69C315.91,-524.02 295.78,-518.85 278.67,-514.45"/>
<polygon fill="#63b8ff" stroke="#63b8ff" points="333.05,-532.04 343.61,-531.14 334.8,-525.26 333.05,-532.04"/>
</a>
</g>
</g>
<!-- Node25 -->
<g id="Node000025" class="node">
<title>Node25</title>
<g id="a_Node000025"><a xlink:href="$class_flow_k_token.html#aa97c47a59e43f8984764231f9101bddb" xlink:title=" ">
<polygon fill="white" stroke="#666666" points="289.25,-362 184.75,-362 184.75,-342 289.25,-342 289.25,-362"/>
<text text-anchor="middle" x="237" y="-348.5" font-family="Helvetica,sans-Serif" font-size="10.00">FlowKToken::addOb</text>
</a>
</g>
</g>
<!-- Node1&#45;&gt;Node25 -->
<g id="edge105_Node000001_Node000025" class="edge">
<title>Node1&#45;&gt;Node25</title>
<g id="a_edge105_Node000001_Node000025"><a xlink:title=" ">
<path fill="none" stroke="#63b8ff" d="M381.49,-520.98C373.12,-486 351.63,-415.8 307.25,-376 300.81,-370.22 292.9,-365.82 284.77,-362.47"/>
<polygon fill="#63b8ff" stroke="#63b8ff" points="377.97,-521.3 383.58,-530.29 384.8,-519.77 377.97,-521.3"/>
</a>
</g>
</g>
<!-- Node26 -->
<g id="Node000026" class="node">
<title>Node26</title>
<g id="a_Node000026"><a xlink:href="$class_flow_k_token.html#a23ed367b143107ff3085178a6c30dbd4" xlink:title=" ">
<polygon fill="white" stroke="#666666" points="127,-324 3.75,-324 3.75,-304 127,-304 127,-324"/>
<text text-anchor="middle" x="65.38" y="-310.5" font-family="Helvetica,sans-Serif" font-size="10.00">FlowKToken::addTokens</text>
</a>
</g>
</g>
<!-- Node1&#45;&gt;Node26 -->
<g id="edge125_Node000001_Node000026" class="edge">
<title>Node1&#45;&gt;Node26</title>
<g id="a_edge125_Node000001_Node000026"><a xlink:title=" ">
<path fill="none" stroke="#63b8ff" d="M384.96,-520.58C381.83,-477.09 368.03,-378.71 307.25,-333 252.44,-291.77 169.39,-295.46 116.52,-303.5"/>
<polygon fill="#63b8ff" stroke="#63b8ff" points="381.46,-520.68 385.53,-530.46 388.45,-520.28 381.46,-520.68"/>
</a>
</g>
</g>
<!-- Node27 -->
<g id="Node000027" class="node">
<title>Node27</title>
<g id="a_Node000027"><a xlink:href="$class_k_p_token.html#a0d6ee24aa23095edb2b1c9ba4baedc03" xlink:title=" ">
<polygon fill="white" stroke="#666666" points="282.12,-590 191.88,-590 191.88,-570 282.12,-570 282.12,-590"/>
<text text-anchor="middle" x="237" y="-576.5" font-family="Helvetica,sans-Serif" font-size="10.00">KPToken::addOp</text>
</a>
</g>
</g>
<!-- Node1&#45;&gt;Node27 -->
<g id="edge107_Node000001_Node000027" class="edge">
<title>Node1&#45;&gt;Node27</title>
<g id="a_edge107_Node000001_Node000027"><a xlink:title=" ">
<path fill="none" stroke="#63b8ff" d="M334.07,-555.31C315.91,-559.98 295.78,-565.15 278.67,-569.55"/>
<polygon fill="#63b8ff" stroke="#63b8ff" points="334.8,-558.74 343.61,-552.86 333.05,-551.96 334.8,-558.74"/>
</a>
</g>
</g>
<!-- Node28 -->
<g id="Node000028" class="node">
<title>Node28</title>
<g id="a_Node000028"><a xlink:href="$class_e_k_p_token.html#a710d49b38ba2eff3d0f4221e30d687b2" xlink:title=" ">
<polygon fill="white" stroke="#666666" points="123.25,-400 7.5,-400 7.5,-380 123.25,-380 123.25,-400"/>
<text text-anchor="middle" x="65.38" y="-386.5" font-family="Helvetica,sans-Serif" font-size="10.00">EKPToken::addTokens</text>
</a>
</g>
</g>
<!-- Node1&#45;&gt;Node28 -->
<g id="edge121_Node000001_Node000028" class="edge">
<title>Node1&#45;&gt;Node28</title>
<g id="a_edge121_Node000001_Node000028"><a xlink:title=" ">
<path fill="none" stroke="#63b8ff" d="M375.45,-521.47C362.62,-498.4 338.63,-461.61 307.25,-442 277.14,-423.18 184.8,-406.9 123.59,-397.78"/>
<polygon fill="#63b8ff" stroke="#63b8ff" points="372.32,-523.05 380.12,-530.22 378.5,-519.75 372.32,-523.05"/>
</a>
</g>
</g>
<!-- Node29 -->
<g id="Node000029" class="node">
<title>Node29</title>
<g id="a_Node000029"><a xlink:href="$class_k_p_token.html#a7d6892f81389e89ec9f255ab1032758d" xlink:title=" ">
<polygon fill="white" stroke="#666666" points="119.88,-362 10.88,-362 10.88,-342 119.88,-342 119.88,-362"/>
<text text-anchor="middle" x="65.38" y="-348.5" font-family="Helvetica,sans-Serif" font-size="10.00">KPToken::addTokens</text>
</a>
</g>
</g>
<!-- Node1&#45;&gt;Node29 -->
<g id="edge128_Node000001_Node000029" class="edge">
<title>Node1&#45;&gt;Node29</title>
<g id="a_edge128_Node000001_Node000029"><a xlink:title=" ">
<path fill="none" stroke="#63b8ff" d="M379.94,-520.99C370.13,-490.26 347.49,-433.51 307.25,-404 299.67,-398.44 188.97,-376.01 120.31,-362.49"/>
<polygon fill="#63b8ff" stroke="#63b8ff" points="376.51,-521.72 382.75,-530.28 383.21,-519.7 376.51,-521.72"/>
</a>
</g>
</g>
<!-- Node30 -->
<g id="Node000030" class="node">
<title>Node30</title>
<g id="a_Node000030"><a xlink:href="$class_k_p_token.html#acbaa6483144d6800ad8ffa2df21392d2" xlink:title=" ">
<polygon fill="white" stroke="#666666" points="297.12,-894 176.88,-894 176.88,-874 297.12,-874 297.12,-894"/>
<text text-anchor="middle" x="237" y="-880.5" font-family="Helvetica,sans-Serif" font-size="10.00">KPToken::addTimeType</text>
</a>
</g>
</g>
<!-- Node1&#45;&gt;Node30 -->
<g id="edge116_Node000001_Node000030" class="edge">
<title>Node1&#45;&gt;Node30</title>
<g id="a_edge116_Node000001_Node000030"><a xlink:title=" ">
<path fill="none" stroke="#63b8ff" d="M383.24,-563.54C374.99,-627.67 347.77,-815.6 307.25,-860 301.93,-865.83 295.13,-870.24 287.87,-873.58"/>
<polygon fill="#63b8ff" stroke="#63b8ff" points="386.67,-564.31 384.44,-553.95 379.72,-563.44 386.67,-564.31"/>
</a>
</g>
</g>
<!-- Node31 -->
<g id="Node000031" class="node">
<title>Node31</title>
<g id="a_Node000031"><a xlink:href="$class_break_token.html#af33466835286c8736861de37184073e9" xlink:title=" ">
<polygon fill="white" stroke="#666666" points="297.5,-286 176.5,-286 176.5,-266 297.5,-266 297.5,-286"/>
<text text-anchor="middle" x="237" y="-272.5" font-family="Helvetica,sans-Serif" font-size="10.00">BreakToken::addTokens</text>
</a>
</g>
</g>
<!-- Node1&#45;&gt;Node31 -->
<g id="edge118_Node000001_Node000031" class="edge">
<title>Node1&#45;&gt;Node31</title>
<g id="a_edge118_Node000001_Node000031"><a xlink:title=" ">
<path fill="none" stroke="#63b8ff" d="M385.04,-520.23C382.08,-473.46 368.6,-362.56 307.25,-300 301.55,-294.19 294.37,-289.78 286.81,-286.44"/>
<polygon fill="#63b8ff" stroke="#63b8ff" points="381.54,-520.31 385.55,-530.12 388.53,-519.95 381.54,-520.31"/>
</a>
</g>
</g>
<!-- Node32 -->
<g id="Node000032" class="node">
<title>Node32</title>
<g id="a_Node000032"><a xlink:href="$class_continue_token.html#a139b728b49c813acb14f990a31054f5e" xlink:title=" ">
<polygon fill="white" stroke="#666666" points="304.25,-248 169.75,-248 169.75,-228 304.25,-228 304.25,-248"/>
<text text-anchor="middle" x="237" y="-234.5" font-family="Helvetica,sans-Serif" font-size="10.00">ContinueToken::addTokens</text>
</a>
</g>
</g>
<!-- Node1&#45;&gt;Node32 -->
<g id="edge119_Node000001_Node000032" class="edge">
<title>Node1&#45;&gt;Node32</title>
<g id="a_edge119_Node000001_Node000032"><a xlink:title=" ">
<path fill="none" stroke="#63b8ff" d="M386.63,-520.43C387.26,-467.64 381.23,-330.88 307.25,-257 303.81,-253.56 299.81,-250.73 295.5,-248.41"/>
<polygon fill="#63b8ff" stroke="#63b8ff" points="383.14,-520.1 386.41,-530.18 390.14,-520.26 383.14,-520.1"/>
</a>
</g>
</g>
<!-- Node33 -->
<g id="Node000033" class="node">
<title>Node33</title>
<g id="a_Node000033"><a xlink:href="$class_do_loop_token.html#a7990e235e81ba0ffe31c5fa9af52ac92" xlink:title=" ">
<polygon fill="white" stroke="#666666" points="301.62,-210 172.38,-210 172.38,-190 301.62,-190 301.62,-210"/>
<text text-anchor="middle" x="237" y="-196.5" font-family="Helvetica,sans-Serif" font-size="10.00">DoLoopToken::addTokens</text>
</a>
</g>
</g>
<!-- Node1&#45;&gt;Node33 -->
<g id="edge120_Node000001_Node000033" class="edge">
<title>Node1&#45;&gt;Node33</title>
<g id="a_edge120_Node000001_Node000033"><a xlink:title=" ">
<path fill="none" stroke="#63b8ff" d="M383.47,-520.43C375.79,-455.37 349.85,-262.86 307.25,-219 303.95,-215.6 300.1,-212.79 295.94,-210.48"/>
<polygon fill="#63b8ff" stroke="#63b8ff" points="379.97,-520.62 384.59,-530.16 386.92,-519.82 379.97,-520.62"/>
</a>
</g>
</g>
<!-- Node34 -->
<g id="Node000034" class="node">
<title>Node34</title>
<g id="a_Node000034"><a xlink:href="$class_elif_token.html#a9b61f58f6728377b662938a34c9edcf9" xlink:title=" ">
<polygon fill="white" stroke="#666666" points="291.88,-172 182.12,-172 182.12,-152 291.88,-152 291.88,-172"/>
<text text-anchor="middle" x="237" y="-158.5" font-family="Helvetica,sans-Serif" font-size="10.00">ElifToken::addTokens</text>
</a>
</g>
</g>
<!-- Node1&#45;&gt;Node34 -->
<g id="edge122_Node000001_Node000034" class="edge">
<title>Node1&#45;&gt;Node34</title>
<g id="a_edge122_Node000001_Node000034"><a xlink:title=" ">
<path fill="none" stroke="#63b8ff" d="M384.05,-520.23C377.72,-449.95 354.51,-230.85 307.25,-181 303.05,-176.57 297.92,-173.13 292.37,-170.48"/>
<polygon fill="#63b8ff" stroke="#63b8ff" points="380.55,-520.38 384.9,-530.03 387.52,-519.77 380.55,-520.38"/>
</a>
</g>
</g>
<!-- Node35 -->
<g id="Node000035" class="node">
<title>Node35</title>
<g id="a_Node000035"><a xlink:href="$class_identifier_token.html#aedcfa4072f22665a7e9fc872ef9dbcbb" xlink:title=" ">
<polygon fill="white" stroke="#666666" points="303.5,-134 170.5,-134 170.5,-114 303.5,-114 303.5,-134"/>
<text text-anchor="middle" x="237" y="-120.5" font-family="Helvetica,sans-Serif" font-size="10.00">IdentifierToken::addTokens</text>
</a>
</g>
</g>
<!-- Node1&#45;&gt;Node35 -->
<g id="edge126_Node000001_Node000035" class="edge">
<title>Node1&#45;&gt;Node35</title>
<g id="a_edge126_Node000001_Node000035"><a xlink:title=" ">
<path fill="none" stroke="#63b8ff" d="M384.55,-520.41C379.53,-445.59 359.27,-198.98 307.25,-143 304.02,-139.53 300.23,-136.67 296.11,-134.32"/>
<polygon fill="#63b8ff" stroke="#63b8ff" points="381.04,-520.33 385.17,-530.09 388.02,-519.88 381.04,-520.33"/>
</a>
</g>
</g>
<!-- Node36 -->
<g id="Node000036" class="node">
<title>Node36</title>
<g id="a_Node000036"><a xlink:href="$class_if_token.html#a01465e20c31d5d3bdbc0248209f4c3f4" xlink:title=" ">
<polygon fill="white" stroke="#666666" points="287.75,-96 186.25,-96 186.25,-76 287.75,-76 287.75,-96"/>
<text text-anchor="middle" x="237" y="-82.5" font-family="Helvetica,sans-Serif" font-size="10.00">IfToken::addTokens</text>
</a>
</g>
</g>
<!-- Node1&#45;&gt;Node36 -->
<g id="edge127_Node000001_Node000036" class="edge">
<title>Node1&#45;&gt;Node36</title>
<g id="a_edge127_Node000001_Node000036"><a xlink:title=" ">
<path fill="none" stroke="#63b8ff" d="M384.96,-520.45C381.15,-441.17 364.03,-167.12 307.25,-105 302.04,-99.29 295.28,-95.24 288.05,-92.37"/>
<polygon fill="#63b8ff" stroke="#63b8ff" points="381.45,-520.47 385.41,-530.3 388.45,-520.15 381.45,-520.47"/>
</a>
</g>
</g>
<!-- Node37 -->
<g id="Node000037" class="node">
<title>Node37</title>
<g id="a_Node000037"><a xlink:href="$class_not_token.html#acdcf74ae5a8e5aa08e5226b7943cc192" xlink:title=" ">
<polygon fill="white" stroke="#666666" points="292.62,-58 181.38,-58 181.38,-38 292.62,-38 292.62,-58"/>
<text text-anchor="middle" x="237" y="-44.5" font-family="Helvetica,sans-Serif" font-size="10.00">NotToken::addTokens</text>
</a>
</g>
</g>
<!-- Node1&#45;&gt;Node37 -->
<g id="edge131_Node000001_Node000037" class="edge">
<title>Node1&#45;&gt;Node37</title>
<g id="a_edge131_Node000001_Node000037"><a xlink:title=" ">
<path fill="none" stroke="#63b8ff" d="M385.3,-520.48C382.63,-436.93 368.8,-135.29 307.25,-67 303.24,-62.55 298.31,-59.11 292.92,-56.44"/>
<polygon fill="#63b8ff" stroke="#63b8ff" points="381.79,-520.35 385.59,-530.24 388.79,-520.14 381.79,-520.35"/>
</a>
</g>
</g>
<!-- Node38 -->
<g id="Node000038" class="node">
<title>Node38</title>
<g id="a_Node000038"><a xlink:href="$class_token.html#ad692018745d72ed2bc87f1f6a8dbf156" xlink:title=" ">
<polygon fill="white" stroke="#666666" points="284.75,-20 189.25,-20 189.25,0 284.75,0 284.75,-20"/>
<text text-anchor="middle" x="237" y="-6.5" font-family="Helvetica,sans-Serif" font-size="10.00">Token::addTokens</text>
</a>
</g>
</g>
<!-- Node1&#45;&gt;Node38 -->
<g id="edge133_Node000001_Node000038" class="edge">
<title>Node1&#45;&gt;Node38</title>
<g id="a_edge133_Node000001_Node000038"><a xlink:title=" ">
<path fill="none" stroke="#63b8ff" d="M385.59,-520.47C383.99,-432.76 373.58,-103.48 307.25,-29 301.36,-22.39 293.42,-17.98 285,-15.07"/>
<polygon fill="#63b8ff" stroke="#63b8ff" points="382.09,-520.35 385.75,-530.29 389.09,-520.23 382.09,-520.35"/>
</a>
</g>
</g>
<!-- Node39 -->
<g id="Node000039" class="node">
<title>Node39</title>
<g id="a_Node000039"><a xlink:href="$class_list_token.html#aea0a223d95a5cef71aa01f13bae99b9f" xlink:title=" ">
<polygon fill="white" stroke="#666666" points="287.38,-1084 186.62,-1084 186.62,-1064 287.38,-1064 287.38,-1084"/>
<text text-anchor="middle" x="237" y="-1070.5" font-family="Helvetica,sans-Serif" font-size="10.00">ListToken::addType</text>
</a>
</g>
</g>
<!-- Node1&#45;&gt;Node39 -->
<g id="edge135_Node000001_Node000039" class="edge">
<title>Node1&#45;&gt;Node39</title>
<g id="a_edge135_Node000001_Node000039"><a xlink:title=" ">
<path fill="none" stroke="#63b8ff" d="M385.59,-563.53C383.99,-651.24 373.58,-980.52 307.25,-1055 302.03,-1060.87 295.18,-1064.99 287.83,-1067.89"/>
<polygon fill="#63b8ff" stroke="#63b8ff" points="389.09,-563.77 385.75,-553.71 382.09,-563.65 389.09,-563.77"/>
</a>
</g>
</g>
<!-- Node40 -->
<g id="Node000040" class="node">
<title>Node40</title>
<g id="a_Node000040"><a xlink:href="$class_list_token.html#a906d4ed5d5198e7238a04207579c5718" xlink:title=" ">
<polygon fill="white" stroke="#666666" points="289.62,-1046 184.38,-1046 184.38,-1026 289.62,-1026 289.62,-1046"/>
<text text-anchor="middle" x="237" y="-1032.5" font-family="Helvetica,sans-Serif" font-size="10.00">ListToken::handleCp</text>
</a>
</g>
</g>
<!-- Node1&#45;&gt;Node40 -->
<g id="edge137_Node000001_Node000040" class="edge">
<title>Node1&#45;&gt;Node40</title>
<g id="a_edge137_Node000001_Node000040"><a xlink:title=" ">
<path fill="none" stroke="#63b8ff" d="M385.1,-563.97C381.73,-647.31 365.78,-942.71 307.25,-1012 302.32,-1017.83 295.9,-1022.25 288.96,-1025.59"/>
<polygon fill="#63b8ff" stroke="#63b8ff" points="388.6,-564.12 385.48,-554 381.6,-563.85 388.6,-564.12"/>
</a>
</g>
</g>
<!-- Node2&#45;&gt;Node3 -->
<g id="edge71_Node000002_Node000003" class="edge">
<title>Node2&#45;&gt;Node3</title>
<g id="a_edge71_Node000002_Node000003"><a xlink:title=" ">
<path fill="none" stroke="#63b8ff" d="M178.04,-972.98C156.83,-977.74 133.12,-983.05 113.02,-987.55"/>
<polygon fill="#63b8ff" stroke="#63b8ff" points="178.73,-976.42 187.72,-970.82 177.2,-969.59 178.73,-976.42"/>
</a>
</g>
</g>
<!-- Node4&#45;&gt;Node5 -->
<g id="edge73_Node000004_Node000005" class="edge">
<title>Node4&#45;&gt;Node5</title>
<g id="a_edge73_Node000004_Node000005"><a xlink:title=" ">
<path fill="none" stroke="#63b8ff" d="M176.32,-747.85C172.81,-750.2 169.57,-752.9 166.75,-756 121.46,-805.73 177.19,-854.34 130.75,-903 127.45,-906.46 123.56,-909.29 119.35,-911.62"/>
<polygon fill="#63b8ff" stroke="#63b8ff" points="177.75,-751.06 184.8,-743.14 174.35,-744.94 177.75,-751.06"/>
</a>
</g>
</g>
<!-- Node4&#45;&gt;Node6 -->
<g id="edge74_Node000004_Node000006" class="edge">
<title>Node4&#45;&gt;Node6</title>
<g id="a_edge74_Node000004_Node000006"><a xlink:title=" ">
<path fill="none" stroke="#63b8ff" d="M208.01,-748.69C193.61,-758.66 176.99,-772.57 166.75,-789 130.03,-847.92 178.49,-890.59 130.75,-941 127.46,-944.47 123.58,-947.31 119.37,-949.65"/>
<polygon fill="#63b8ff" stroke="#63b8ff" points="209.82,-751.69 216.25,-743.27 205.97,-745.84 209.82,-751.69"/>
</a>
</g>
</g>
<!-- Node7 -->
<g id="Node000007" class="node">
<title>Node7</title>
<g id="a_Node000007"><a xlink:href="$class_and_token.html#a70df2a2057b7d0c554fe086df11467cc" xlink:title=" ">
<polygon fill="white" stroke="#666666" points="118.75,-856 12,-856 12,-836 118.75,-836 118.75,-856"/>
<text text-anchor="middle" x="65.38" y="-842.5" font-family="Helvetica,sans-Serif" font-size="10.00">AndToken::handleCp</text>
</a>
</g>
</g>
<!-- Node4&#45;&gt;Node7 -->
<g id="edge75_Node000004_Node000007" class="edge">
<title>Node4&#45;&gt;Node7</title>
<g id="a_edge75_Node000004_Node000007"><a xlink:title=" ">
<path fill="none" stroke="#63b8ff" d="M179.45,-747.3C174.89,-749.78 170.57,-752.66 166.75,-756 140.09,-779.26 157.94,-804.36 130.75,-827 126.63,-830.43 121.91,-833.24 116.95,-835.54"/>
<polygon fill="#63b8ff" stroke="#63b8ff" points="180.79,-750.53 188.35,-743.11 177.81,-744.2 180.79,-750.53"/>
</a>
</g>
</g>
<!-- Node8 -->
<g id="Node000008" class="node">
<title>Node8</title>
<g id="a_Node000008"><a xlink:href="$class_coord_token.html#a73b59fd963fc06d9691307e4f8db3a70" xlink:title=" ">
<polygon fill="white" stroke="#666666" points="123.25,-818 7.5,-818 7.5,-798 123.25,-798 123.25,-818"/>
<text text-anchor="middle" x="65.38" y="-804.5" font-family="Helvetica,sans-Serif" font-size="10.00">CoordToken::handleCp</text>
</a>
</g>
</g>
<!-- Node4&#45;&gt;Node8 -->
<g id="edge76_Node000004_Node000008" class="edge">
<title>Node4&#45;&gt;Node8</title>
<g id="a_edge76_Node000004_Node000008"><a xlink:title=" ">
<path fill="none" stroke="#63b8ff" d="M186.37,-746.41C179.57,-749.17 172.85,-752.36 166.75,-756 148.11,-767.12 149.65,-778.32 130.75,-789 124.76,-792.38 118.12,-795.22 111.44,-797.57"/>
<polygon fill="#63b8ff" stroke="#63b8ff" points="187.47,-749.73 195.6,-742.94 185.01,-743.18 187.47,-749.73"/>
</a>
</g>
</g>
<!-- Node9 -->
<g id="Node000009" class="node">
<title>Node9</title>
<g id="a_Node000009"><a xlink:href="$class_or_token.html#a9be27028cfb5166cbd2f2fabea9b9800" xlink:title=" ">
<polygon fill="white" stroke="#666666" points="115.38,-780 15.38,-780 15.38,-760 115.38,-760 115.38,-780"/>
<text text-anchor="middle" x="65.38" y="-766.5" font-family="Helvetica,sans-Serif" font-size="10.00">OrToken::handleCp</text>
</a>
</g>
</g>
<!-- Node4&#45;&gt;Node9 -->
<g id="edge77_Node000004_Node000009" class="edge">
<title>Node4&#45;&gt;Node9</title>
<g id="a_edge77_Node000004_Node000009"><a xlink:title=" ">
<path fill="none" stroke="#63b8ff" d="M178.04,-744.98C156.83,-749.74 133.12,-755.05 113.02,-759.55"/>
<polygon fill="#63b8ff" stroke="#63b8ff" points="178.73,-748.42 187.72,-742.82 177.2,-741.59 178.73,-748.42"/>
</a>
</g>
</g>
<!-- Node10 -->
<g id="Node000010" class="node">
<title>Node10</title>
<g id="a_Node000010"><a xlink:href="$class_zone_token.html#a896e13f73755782e2ac32543beadc429" xlink:title=" ">
<polygon fill="white" stroke="#666666" points="121,-894 9.75,-894 9.75,-874 121,-874 121,-894"/>
<text text-anchor="middle" x="65.38" y="-880.5" font-family="Helvetica,sans-Serif" font-size="10.00">ZoneToken::handleCp</text>
</a>
</g>
</g>
<!-- Node4&#45;&gt;Node10 -->
<g id="edge78_Node000004_Node000010" class="edge">
<title>Node4&#45;&gt;Node10</title>
<g id="a_edge78_Node000004_Node000010"><a xlink:title=" ">
<path fill="none" stroke="#63b8ff" d="M177.27,-747.69C173.44,-750.07 169.88,-752.83 166.75,-756 130.94,-792.34 167.4,-829.51 130.75,-865 127.23,-868.4 123.14,-871.2 118.75,-873.5"/>
<polygon fill="#63b8ff" stroke="#63b8ff" points="178.65,-750.91 185.88,-743.17 175.4,-744.72 178.65,-750.91"/>
</a>
</g>
</g>
<!-- Node11&#45;&gt;Node12 -->
<g id="edge80_Node000011_Node000012" class="edge">
<title>Node11&#45;&gt;Node12</title>
<g id="a_edge80_Node000011_Node000012"><a xlink:title=" ">
<path fill="none" stroke="#63b8ff" d="M177.27,-640.31C173.44,-637.93 169.88,-635.17 166.75,-632 130.94,-595.66 167.4,-558.49 130.75,-523 127.23,-519.6 123.14,-516.8 118.75,-514.5"/>
<polygon fill="#63b8ff" stroke="#63b8ff" points="175.4,-643.28 185.88,-644.83 178.65,-637.09 175.4,-643.28"/>
</a>
</g>
</g>
<!-- Node13&#45;&gt;Node5 -->
<g id="edge85_Node000013_Node000005" class="edge">
<title>Node13&#45;&gt;Node5</title>
<g id="a_edge85_Node000013_Node000005"><a xlink:title=" ">
<path fill="none" stroke="#63b8ff" d="M181.02,-702.61C175.68,-705.25 170.77,-708.64 166.75,-713 108.47,-776.17 188.42,-839.27 130.75,-903 127.62,-906.46 123.9,-909.3 119.85,-911.63"/>
<polygon fill="#63b8ff" stroke="#63b8ff" points="182.25,-705.89 190.27,-698.97 179.69,-699.38 182.25,-705.89"/>
</a>
</g>
</g>
<!-- Node13&#45;&gt;Node6 -->
<g id="edge86_Node000013_Node000006" class="edge">
<title>Node13&#45;&gt;Node6</title>
<g id="a_edge86_Node000013_Node000006"><a xlink:title=" ">
<path fill="none" stroke="#63b8ff" d="M180.89,-702.49C175.57,-705.15 170.7,-708.58 166.75,-713 98.35,-789.46 198.41,-863.89 130.75,-941 127.75,-944.42 124.17,-947.23 120.26,-949.55"/>
<polygon fill="#63b8ff" stroke="#63b8ff" points="182.11,-705.77 190.12,-698.83 179.53,-699.26 182.11,-705.77"/>
</a>
</g>
</g>
<!-- Node13&#45;&gt;Node7 -->
<g id="edge87_Node000013_Node000007" class="edge">
<title>Node13&#45;&gt;Node7</title>
<g id="a_edge87_Node000013_Node000007"><a xlink:title=" ">
<path fill="none" stroke="#63b8ff" d="M181.1,-703.3C175.83,-705.82 170.91,-709 166.75,-713 128.47,-749.85 168.67,-789.79 130.75,-827 127.26,-830.43 123.18,-833.24 118.8,-835.55"/>
<polygon fill="#63b8ff" stroke="#63b8ff" points="182.1,-706.67 190.15,-699.77 179.56,-700.14 182.1,-706.67"/>
</a>
</g>
</g>
<!-- Node13&#45;&gt;Node8 -->
<g id="edge89_Node000013_Node000008" class="edge">
<title>Node13&#45;&gt;Node8</title>
<g id="a_edge89_Node000013_Node000008"><a xlink:title=" ">
<path fill="none" stroke="#63b8ff" d="M180.81,-704.27C175.74,-706.61 170.95,-709.48 166.75,-713 138.12,-737.02 159.15,-764.7 130.75,-789 126.77,-792.41 122.19,-795.21 117.36,-797.5"/>
<polygon fill="#63b8ff" stroke="#63b8ff" points="181.99,-707.56 190.07,-700.71 179.48,-701.03 181.99,-707.56"/>
</a>
</g>
</g>
<!-- Node13&#45;&gt;Node9 -->
<g id="edge94_Node000013_Node000009" class="edge">
<title>Node13&#45;&gt;Node9</title>
<g id="a_edge94_Node000013_Node000009"><a xlink:title=" ">
<path fill="none" stroke="#63b8ff" d="M181.2,-705.97C176.16,-707.97 171.26,-710.3 166.75,-713 146.8,-724.96 150.59,-738.85 130.75,-751 125.19,-754.41 118.98,-757.24 112.67,-759.57"/>
<polygon fill="#63b8ff" stroke="#63b8ff" points="181.96,-709.41 190.24,-702.8 179.65,-702.8 181.96,-709.41"/>
</a>
</g>
</g>
<!-- Node13&#45;&gt;Node10 -->
<g id="edge96_Node000013_Node000010" class="edge">
<title>Node13&#45;&gt;Node10</title>
<g id="a_edge96_Node000013_Node000010"><a xlink:title=" ">
<path fill="none" stroke="#63b8ff" d="M181.01,-702.9C175.71,-705.49 170.81,-708.79 166.75,-713 118.53,-762.95 178.49,-814.59 130.75,-865 127.46,-868.47 123.58,-871.31 119.37,-873.65"/>
<polygon fill="#63b8ff" stroke="#63b8ff" points="182.12,-706.22 190.15,-699.3 179.56,-699.71 182.12,-706.22"/>
</a>
</g>
</g>
<!-- Node13&#45;&gt;Node12 -->
<g id="edge82_Node000013_Node000012" class="edge">
<title>Node13&#45;&gt;Node12</title>
<g id="a_edge82_Node000013_Node000012"><a xlink:title=" ">
<path fill="none" stroke="#63b8ff" d="M181.01,-685.1C175.71,-682.51 170.81,-679.21 166.75,-675 118.53,-625.05 178.49,-573.41 130.75,-523 127.46,-519.53 123.58,-516.69 119.37,-514.35"/>
<polygon fill="#63b8ff" stroke="#63b8ff" points="179.56,-688.29 190.15,-688.7 182.12,-681.78 179.56,-688.29"/>
</a>
</g>
</g>
<!-- Node13&#45;&gt;Node14 -->
<g id="edge83_Node000013_Node000014" class="edge">
<title>Node13&#45;&gt;Node14</title>
<g id="a_edge83_Node000013_Node000014"><a xlink:title=" ">
<path fill="none" stroke="#63b8ff" d="M180.89,-685.51C175.57,-682.85 170.7,-679.42 166.75,-675 98.35,-598.54 198.41,-524.11 130.75,-447 127.75,-443.58 124.17,-440.77 120.26,-438.45"/>
<polygon fill="#63b8ff" stroke="#63b8ff" points="179.53,-688.74 190.12,-689.17 182.11,-682.23 179.53,-688.74"/>
</a>
</g>
</g>
<!-- Node13&#45;&gt;Node15 -->
<g id="edge84_Node000013_Node000015" class="edge">
<title>Node13&#45;&gt;Node15</title>
<g id="a_edge84_Node000013_Node000015"><a xlink:title=" ">
<path fill="none" stroke="#63b8ff" d="M181.02,-685.39C175.68,-682.75 170.77,-679.36 166.75,-675 108.47,-611.83 188.42,-548.73 130.75,-485 127.62,-481.54 123.9,-478.7 119.85,-476.37"/>
<polygon fill="#63b8ff" stroke="#63b8ff" points="179.69,-688.62 190.27,-689.03 182.25,-682.11 179.69,-688.62"/>
</a>
</g>
</g>
<!-- Node16 -->
<g id="Node000016" class="node">
<title>Node16</title>
<g id="a_Node000016"><a xlink:href="$class_bool_token.html#a63b853332ad1212e93334291e995d2ca" xlink:title=" ">
<polygon fill="white" stroke="#666666" points="119.88,-628 10.88,-628 10.88,-608 119.88,-608 119.88,-628"/>
<text text-anchor="middle" x="65.38" y="-614.5" font-family="Helvetica,sans-Serif" font-size="10.00">BoolToken::handleCp</text>
</a>
</g>
</g>
<!-- Node13&#45;&gt;Node16 -->
<g id="edge88_Node000013_Node000016" class="edge">
<title>Node13&#45;&gt;Node16</title>
<g id="a_edge88_Node000013_Node000016"><a xlink:title=" ">
<path fill="none" stroke="#63b8ff" d="M181.2,-682.03C176.16,-680.03 171.26,-677.7 166.75,-675 146.8,-663.04 150.59,-649.15 130.75,-637 125.19,-633.59 118.98,-630.76 112.67,-628.43"/>
<polygon fill="#63b8ff" stroke="#63b8ff" points="179.65,-685.2 190.24,-685.2 181.96,-678.59 179.65,-685.2"/>
</a>
</g>
</g>
<!-- Node17 -->
<g id="Node000017" class="node">
<title>Node17</title>
<g id="a_Node000017"><a xlink:href="$class_direction_token.html#a7871329df529c15890f973f5cb37cc41" xlink:title=" ">
<polygon fill="white" stroke="#666666" points="129.62,-590 1.12,-590 1.12,-570 129.62,-570 129.62,-590"/>
<text text-anchor="middle" x="65.38" y="-576.5" font-family="Helvetica,sans-Serif" font-size="10.00">DirectionToken::handleCp</text>
</a>
</g>
</g>
<!-- Node13&#45;&gt;Node17 -->
<g id="edge90_Node000013_Node000017" class="edge">
<title>Node13&#45;&gt;Node17</title>
<g id="a_edge90_Node000013_Node000017"><a xlink:title=" ">
<path fill="none" stroke="#63b8ff" d="M180.81,-683.73C175.74,-681.39 170.95,-678.52 166.75,-675 138.12,-650.98 159.15,-623.3 130.75,-599 126.77,-595.59 122.19,-592.79 117.36,-590.5"/>
<polygon fill="#63b8ff" stroke="#63b8ff" points="179.48,-686.97 190.07,-687.29 181.99,-680.44 179.48,-686.97"/>
</a>
</g>
</g>
<!-- Node18 -->
<g id="Node000018" class="node">
<title>Node18</title>
<g id="a_Node000018"><a xlink:href="$class_float_token.html#acd02252e5f8e5d0eba5f3d23f647d2c2" xlink:title=" ">
<polygon fill="white" stroke="#666666" points="121,-552 9.75,-552 9.75,-532 121,-532 121,-552"/>
<text text-anchor="middle" x="65.38" y="-538.5" font-family="Helvetica,sans-Serif" font-size="10.00">FloatToken::handleCp</text>
</a>
</g>
</g>
<!-- Node13&#45;&gt;Node18 -->
<g id="edge91_Node000013_Node000018" class="edge">
<title>Node13&#45;&gt;Node18</title>
<g id="a_edge91_Node000013_Node000018"><a xlink:title=" ">
<path fill="none" stroke="#63b8ff" d="M181.1,-684.7C175.83,-682.18 170.91,-679 166.75,-675 128.47,-638.15 168.67,-598.21 130.75,-561 127.26,-557.57 123.18,-554.76 118.8,-552.45"/>
<polygon fill="#63b8ff" stroke="#63b8ff" points="179.56,-687.86 190.15,-688.23 182.1,-681.33 179.56,-687.86"/>
</a>
</g>
</g>
<!-- Node19 -->
<g id="Node000019" class="node">
<title>Node19</title>
<g id="a_Node000019"><a xlink:href="$class_integer_token.html#ac31b66dbfeaf1298537cbe6c21df1b4f" xlink:title=" ">
<polygon fill="white" stroke="#666666" points="125.12,-742 5.63,-742 5.63,-722 125.12,-722 125.12,-742"/>
<text text-anchor="middle" x="65.38" y="-728.5" font-family="Helvetica,sans-Serif" font-size="10.00">IntegerToken::handleCp</text>
</a>
</g>
</g>
<!-- Node13&#45;&gt;Node19 -->
<g id="edge92_Node000013_Node000019" class="edge">
<title>Node13&#45;&gt;Node19</title>
<g id="a_edge92_Node000013_Node000019"><a xlink:title=" ">
<path fill="none" stroke="#63b8ff" d="M180.34,-706.47C158.55,-711.35 133.84,-716.89 113.01,-721.55"/>
<polygon fill="#63b8ff" stroke="#63b8ff" points="180.96,-709.92 189.96,-704.31 179.43,-703.09 180.96,-709.92"/>
</a>
</g>
</g>
<!-- Node20 -->
<g id="Node000020" class="node">
<title>Node20</title>
<g id="a_Node000020"><a xlink:href="$class_not_token.html#a339f5cf0de259706aa841d25abe8ac9e" xlink:title=" ">
<polygon fill="white" stroke="#666666" points="118,-704 12.75,-704 12.75,-684 118,-684 118,-704"/>
<text text-anchor="middle" x="65.38" y="-690.5" font-family="Helvetica,sans-Serif" font-size="10.00">NotToken::handleCp</text>
</a>
</g>
</g>
<!-- Node13&#45;&gt;Node20 -->
<g id="edge93_Node000013_Node000020" class="edge">
<title>Node13&#45;&gt;Node20</title>
<g id="a_edge93_Node000013_Node000020"><a xlink:title=" ">
<path fill="none" stroke="#63b8ff" d="M180.06,-694C160.22,-694 137.98,-694 118.46,-694"/>
<polygon fill="#63b8ff" stroke="#63b8ff" points="179.92,-697.5 189.92,-694 179.92,-690.5 179.92,-697.5"/>
</a>
</g>
</g>
<!-- Node21 -->
<g id="Node000021" class="node">
<title>Node21</title>
<g id="a_Node000021"><a xlink:href="$class_string_token.html#a75a4182fa9fd3c6e287fd8dddc366762" xlink:title=" ">
<polygon fill="white" stroke="#666666" points="122.88,-666 7.88,-666 7.88,-646 122.88,-646 122.88,-666"/>
<text text-anchor="middle" x="65.38" y="-652.5" font-family="Helvetica,sans-Serif" font-size="10.00">StringToken::handleCp</text>
</a>
</g>
</g>
<!-- Node13&#45;&gt;Node21 -->
<g id="edge95_Node000013_Node000021" class="edge">
<title>Node13&#45;&gt;Node21</title>
<g id="a_edge95_Node000013_Node000021"><a xlink:title=" ">
<path fill="none" stroke="#63b8ff" d="M180.34,-681.53C158.55,-676.65 133.84,-671.11 113.01,-666.45"/>
<polygon fill="#63b8ff" stroke="#63b8ff" points="179.43,-684.91 189.96,-683.69 180.96,-678.08 179.43,-684.91"/>
</a>
</g>
</g>
<!-- Node22&#45;&gt;Node5 -->
<g id="edge98_Node000022_Node000005" class="edge">
<title>Node22&#45;&gt;Node5</title>
<g id="a_edge98_Node000022_Node000005"><a xlink:title=" ">
<path fill="none" stroke="#63b8ff" d="M179.45,-823.3C174.89,-825.78 170.57,-828.66 166.75,-832 140.09,-855.26 157.94,-880.36 130.75,-903 126.63,-906.43 121.91,-909.24 116.95,-911.54"/>
<polygon fill="#63b8ff" stroke="#63b8ff" points="180.79,-826.53 188.35,-819.11 177.81,-820.2 180.79,-826.53"/>
</a>
</g>
</g>
<!-- Node23&#45;&gt;Node3 -->
<g id="edge100_Node000023_Node000003" class="edge">
<title>Node23&#45;&gt;Node3</title>
<g id="a_edge100_Node000023_Node000003"><a xlink:title=" ">
<path fill="none" stroke="#63b8ff" d="M177.21,-935.64C173.58,-937.24 170.06,-939.02 166.75,-941 146.8,-952.96 150.59,-966.85 130.75,-979 125.19,-982.41 118.98,-985.24 112.67,-987.57"/>
<polygon fill="#63b8ff" stroke="#63b8ff" points="178.18,-939.01 186.25,-932.14 175.66,-932.48 178.18,-939.01"/>
</a>
</g>
</g>
<!-- Node24&#45;&gt;Node12 -->
<g id="edge102_Node000024_Node000012" class="edge">
<title>Node24&#45;&gt;Node12</title>
<g id="a_edge102_Node000024_Node000012"><a xlink:title=" ">
<path fill="none" stroke="#63b8ff" d="M169.54,-504C156.94,-504 143.76,-504 131.21,-504"/>
<polygon fill="#63b8ff" stroke="#63b8ff" points="169.41,-507.5 179.41,-504 169.41,-500.5 169.41,-507.5"/>
</a>
</g>
</g>
<!-- Node24&#45;&gt;Node14 -->
<g id="edge103_Node000024_Node000014" class="edge">
<title>Node24&#45;&gt;Node14</title>
<g id="a_edge103_Node000024_Node000014"><a xlink:title=" ">
<path fill="none" stroke="#63b8ff" d="M186.37,-489.59C179.57,-486.83 172.85,-483.64 166.75,-480 148.11,-468.88 149.65,-457.68 130.75,-447 124.76,-443.62 118.12,-440.78 111.44,-438.43"/>
<polygon fill="#63b8ff" stroke="#63b8ff" points="185.01,-492.82 195.6,-493.06 187.47,-486.27 185.01,-492.82"/>
</a>
</g>
</g>
<!-- Node24&#45;&gt;Node15 -->
<g id="edge104_Node000024_Node000015" class="edge">
<title>Node24&#45;&gt;Node15</title>
<g id="a_edge104_Node000024_Node000015"><a xlink:title=" ">
<path fill="none" stroke="#63b8ff" d="M178.04,-491.02C156.83,-486.26 133.12,-480.95 113.02,-476.45"/>
<polygon fill="#63b8ff" stroke="#63b8ff" points="177.2,-494.41 187.72,-493.18 178.73,-487.58 177.2,-494.41"/>
</a>
</g>
</g>
<!-- Node25&#45;&gt;Node26 -->
<g id="edge106_Node000025_Node000026" class="edge">
<title>Node25&#45;&gt;Node26</title>
<g id="a_edge106_Node000025_Node000026"><a xlink:title=" ">
<path fill="none" stroke="#63b8ff" d="M178.04,-339.02C156.83,-334.26 133.12,-328.95 113.02,-324.45"/>
<polygon fill="#63b8ff" stroke="#63b8ff" points="177.2,-342.41 187.72,-341.18 178.73,-335.58 177.2,-342.41"/>
</a>
</g>
</g>
<!-- Node27&#45;&gt;Node3 -->
<g id="edge112_Node000027_Node000003" class="edge">
<title>Node27&#45;&gt;Node3</title>
<g id="a_edge112_Node000027_Node000003"><a xlink:title=" ">
<path fill="none" stroke="#63b8ff" d="M206.58,-596.59C192.08,-606.39 175.8,-620.18 166.75,-637 130.55,-704.3 179.65,-920.27 130.75,-979 127.92,-982.4 124.51,-985.21 120.75,-987.53"/>
<polygon fill="#63b8ff" stroke="#63b8ff" points="208.39,-599.58 214.95,-591.26 204.64,-593.68 208.39,-599.58"/>
</a>
</g>
</g>
<!-- Node27&#45;&gt;Node5 -->
<g id="edge114_Node000027_Node000005" class="edge">
<title>Node27&#45;&gt;Node5</title>
<g id="a_edge114_Node000027_Node000005"><a xlink:title=" ">
<path fill="none" stroke="#63b8ff" d="M207.07,-596.5C192.56,-606.34 176.11,-620.2 166.75,-637 108.69,-741.22 208.44,-812.46 130.75,-903 127.79,-906.45 124.24,-909.29 120.34,-911.62"/>
<polygon fill="#63b8ff" stroke="#63b8ff" points="208.89,-599.49 215.43,-591.16 205.12,-593.6 208.89,-599.49"/>
</a>
</g>
</g>
<!-- Node27&#45;&gt;Node6 -->
<g id="edge115_Node000027_Node000006" class="edge">
<title>Node27&#45;&gt;Node6</title>
<g id="a_edge115_Node000027_Node000006"><a xlink:title=" ">
<path fill="none" stroke="#63b8ff" d="M206.67,-596.63C192.19,-606.45 175.91,-620.23 166.75,-637 101.52,-756.4 218.49,-837.01 130.75,-941 127.82,-944.47 124.29,-947.33 120.41,-949.68"/>
<polygon fill="#63b8ff" stroke="#63b8ff" points="208.48,-599.63 215.02,-591.3 204.71,-593.73 208.48,-599.63"/>
</a>
</g>
</g>
<!-- Node27&#45;&gt;Node12 -->
<g id="edge109_Node000027_Node000012" class="edge">
<title>Node27&#45;&gt;Node12</title>
<g id="a_edge109_Node000027_Node000012"><a xlink:title=" ">
<path fill="none" stroke="#63b8ff" d="M186.37,-565.59C179.57,-562.83 172.85,-559.64 166.75,-556 148.11,-544.88 149.65,-533.68 130.75,-523 124.76,-519.62 118.12,-516.78 111.44,-514.43"/>
<polygon fill="#63b8ff" stroke="#63b8ff" points="185.01,-568.82 195.6,-569.06 187.47,-562.27 185.01,-568.82"/>
</a>
</g>
</g>
<!-- Node27&#45;&gt;Node14 -->
<g id="edge110_Node000027_Node000014" class="edge">
<title>Node27&#45;&gt;Node14</title>
<g id="a_edge110_Node000027_Node000014"><a xlink:title=" ">
<path fill="none" stroke="#63b8ff" d="M210.42,-563.18C196.2,-552.87 178.96,-538.66 166.75,-523 143.77,-493.53 159.15,-471.3 130.75,-447 126.77,-443.59 122.19,-440.79 117.36,-438.5"/>
<polygon fill="#63b8ff" stroke="#63b8ff" points="208.25,-565.93 218.45,-568.8 212.26,-560.2 208.25,-565.93"/>
</a>
</g>
</g>
<!-- Node27&#45;&gt;Node15 -->
<g id="edge113_Node000027_Node000015" class="edge">
<title>Node27&#45;&gt;Node15</title>
<g id="a_edge113_Node000027_Node000015"><a xlink:title=" ">
<path fill="none" stroke="#63b8ff" d="M181.24,-565.65C176.02,-562.96 171.07,-559.77 166.75,-556 140.09,-532.74 157.94,-507.64 130.75,-485 126.63,-481.57 121.91,-478.76 116.95,-476.46"/>
<polygon fill="#63b8ff" stroke="#63b8ff" points="179.58,-568.75 190.14,-569.63 182.43,-562.35 179.58,-568.75"/>
</a>
</g>
</g>
<!-- Node27&#45;&gt;Node28 -->
<g id="edge108_Node000027_Node000028" class="edge">
<title>Node27&#45;&gt;Node28</title>
<g id="a_edge108_Node000027_Node000028"><a xlink:title=" ">
<path fill="none" stroke="#63b8ff" d="M208.76,-563.2C194.44,-553.13 177.65,-539.15 166.75,-523 137.01,-478.97 168.67,-446.21 130.75,-409 127.26,-405.57 123.18,-402.76 118.8,-400.45"/>
<polygon fill="#63b8ff" stroke="#63b8ff" points="206.66,-566.01 216.92,-568.68 210.57,-560.2 206.66,-566.01"/>
</a>
</g>
</g>
<!-- Node27&#45;&gt;Node29 -->
<g id="edge111_Node000027_Node000029" class="edge">
<title>Node27&#45;&gt;Node29</title>
<g id="a_edge111_Node000027_Node000029"><a xlink:title=" ">
<path fill="none" stroke="#63b8ff" d="M208.01,-563.31C193.61,-553.34 176.99,-539.43 166.75,-523 130.03,-464.08 178.49,-421.41 130.75,-371 127.46,-367.53 123.58,-364.69 119.37,-362.35"/>
<polygon fill="#63b8ff" stroke="#63b8ff" points="205.97,-566.16 216.25,-568.73 209.82,-560.31 205.97,-566.16"/>
</a>
</g>
</g>
<!-- Node30&#45;&gt;Node6 -->
<g id="edge117_Node000030_Node000006" class="edge">
<title>Node30&#45;&gt;Node6</title>
<g id="a_edge117_Node000030_Node000006"><a xlink:title=" ">
<path fill="none" stroke="#63b8ff" d="M174.5,-898.87C171.83,-900.14 169.23,-901.51 166.75,-903 146.8,-914.96 150.59,-928.85 130.75,-941 125.19,-944.41 118.98,-947.24 112.67,-949.57"/>
<polygon fill="#63b8ff" stroke="#63b8ff" points="175.81,-902.12 183.72,-895.06 173.14,-895.65 175.81,-902.12"/>
</a>
</g>
</g>
<!-- Node39&#45;&gt;Node3 -->
<g id="edge136_Node000039_Node000003" class="edge">
<title>Node39&#45;&gt;Node3</title>
<g id="a_edge136_Node000039_Node000003"><a xlink:title=" ">
<path fill="none" stroke="#63b8ff" d="M180.88,-1060.23C176.05,-1058.62 171.28,-1056.87 166.75,-1055 135.08,-1041.9 100.94,-1020.87 81.75,-1008.35"/>
<polygon fill="#63b8ff" stroke="#63b8ff" points="179.45,-1063.45 190.04,-1063.1 181.54,-1056.77 179.45,-1063.45"/>
</a>
</g>
</g>
<!-- Node40&#45;&gt;Node3 -->
<g id="edge138_Node000040_Node000003" class="edge">
<title>Node40&#45;&gt;Node3</title>
<g id="a_edge138_Node000040_Node000003"><a xlink:title=" ">
<path fill="none" stroke="#63b8ff" d="M178.04,-1023.02C156.83,-1018.26 133.12,-1012.95 113.02,-1008.45"/>
<polygon fill="#63b8ff" stroke="#63b8ff" points="177.2,-1026.41 187.72,-1025.18 178.73,-1019.58 177.2,-1026.41"/>
</a>
</g>
</g>
</g>
</svg>
