<?xml version="1.0" encoding="UTF-8" standalone="no"?>
<!DOCTYPE svg PUBLIC "-//W3C//DTD SVG 1.1//EN"
 "http://www.w3.org/Graphics/SVG/1.1/DTD/svg11.dtd">
<!-- Generated by graphviz version 12.2.0 (20241103.1931)
 -->
<!-- Title: TagPanel::setStaticTagName Pages: 1 -->
<svg width="944pt" height="484pt"
 viewBox="0.00 0.00 944.00 484.00" xmlns="http://www.w3.org/2000/svg" xmlns:xlink="http://www.w3.org/1999/xlink">
<g id="graph0" class="graph" transform="scale(1 1) rotate(0) translate(4 480)">
<title>TagPanel::setStaticTagName</title>
<!-- Node1 -->
<g id="Node000001" class="node">
<title>Node1</title>
<g id="a_Node000001"><a xlink:title=" ">
<polygon fill="#999999" stroke="#666666" points="936,-362 792.5,-362 792.5,-342 936,-342 936,-362"/>
<text text-anchor="middle" x="864.25" y="-348.5" font-family="Helvetica,sans-Serif" font-size="10.00">TagPanel::setStaticTagName</text>
</a>
</g>
</g>
<!-- Node2 -->
<g id="Node000002" class="node">
<title>Node2</title>
<g id="a_Node000002"><a xlink:href="$class_bool_tag_panel.html#a978fadc45204eff86c5053fda3bde0b7" xlink:title=" ">
<polygon fill="white" stroke="#666666" points="755.75,-476 626.5,-476 626.5,-456 755.75,-456 755.75,-476"/>
<text text-anchor="middle" x="691.12" y="-462.5" font-family="Helvetica,sans-Serif" font-size="10.00">BoolTagPanel::setTagLine</text>
</a>
</g>
</g>
<!-- Node1&#45;&gt;Node2 -->
<g id="edge27_Node000001_Node000002" class="edge">
<title>Node1&#45;&gt;Node2</title>
<g id="a_edge27_Node000001_Node000002"><a xlink:title=" ">
<path fill="none" stroke="#63b8ff" d="M847.04,-370.74C827.57,-392.12 792.96,-426.74 756.5,-447 750.39,-450.4 743.61,-453.24 736.8,-455.61"/>
<polygon fill="#63b8ff" stroke="#63b8ff" points="849.6,-373.13 853.63,-363.33 844.37,-368.47 849.6,-373.13"/>
</a>
</g>
</g>
<!-- Node3 -->
<g id="Node000003" class="node">
<title>Node3</title>
<g id="a_Node000003"><a xlink:href="$class_empty_panel.html#add5bcab802489294327b7043cd6b7aee" xlink:title=" ">
<polygon fill="white" stroke="#666666" points="752.38,-438 629.88,-438 629.88,-418 752.38,-418 752.38,-438"/>
<text text-anchor="middle" x="691.12" y="-424.5" font-family="Helvetica,sans-Serif" font-size="10.00">EmptyPanel::setTagLine</text>
</a>
</g>
</g>
<!-- Node1&#45;&gt;Node3 -->
<g id="edge28_Node000001_Node000003" class="edge">
<title>Node1&#45;&gt;Node3</title>
<g id="a_edge28_Node000001_Node000003"><a xlink:title=" ">
<path fill="none" stroke="#63b8ff" d="M836.53,-368.23C815.37,-380.6 784.77,-397.42 756.5,-409 748.74,-412.18 740.25,-415.07 732.06,-417.59"/>
<polygon fill="#63b8ff" stroke="#63b8ff" points="838.27,-371.27 845.09,-363.16 834.7,-365.25 838.27,-371.27"/>
</a>
</g>
</g>
<!-- Node4 -->
<g id="Node000004" class="node">
<title>Node4</title>
<g id="a_Node000004"><a xlink:href="$class_flow_tag_panel.html#a6a2ba7ef0cfdae4b333371b8704a0612" xlink:title=" ">
<polygon fill="white" stroke="#666666" points="756.5,-400 625.75,-400 625.75,-380 756.5,-380 756.5,-400"/>
<text text-anchor="middle" x="691.12" y="-386.5" font-family="Helvetica,sans-Serif" font-size="10.00">FlowTagPanel::setTagLine</text>
</a>
</g>
</g>
<!-- Node1&#45;&gt;Node4 -->
<g id="edge29_Node000001_Node000004" class="edge">
<title>Node1&#45;&gt;Node4</title>
<g id="a_edge29_Node000001_Node000004"><a xlink:title=" ">
<path fill="none" stroke="#63b8ff" d="M805.07,-364.92C783.6,-369.69 759.55,-375.03 739.18,-379.55"/>
<polygon fill="#63b8ff" stroke="#63b8ff" points="805.56,-368.4 814.56,-362.81 804.04,-361.56 805.56,-368.4"/>
</a>
</g>
</g>
<!-- Node5 -->
<g id="Node000005" class="node">
<title>Node5</title>
<g id="a_Node000005"><a xlink:href="$class_if_tag_panel.html#a0eecad5e847dada1e8dfbceb5e1e6121" xlink:title=" ">
<polygon fill="white" stroke="#666666" points="749,-362 633.25,-362 633.25,-342 749,-342 749,-362"/>
<text text-anchor="middle" x="691.12" y="-348.5" font-family="Helvetica,sans-Serif" font-size="10.00">IfTagPanel::setTagLine</text>
</a>
</g>
</g>
<!-- Node1&#45;&gt;Node5 -->
<g id="edge30_Node000001_Node000005" class="edge">
<title>Node1&#45;&gt;Node5</title>
<g id="a_edge30_Node000001_Node000005"><a xlink:title=" ">
<path fill="none" stroke="#63b8ff" d="M780.74,-352C770.15,-352 759.51,-352 749.45,-352"/>
<polygon fill="#63b8ff" stroke="#63b8ff" points="780.65,-355.5 790.65,-352 780.65,-348.5 780.65,-355.5"/>
</a>
</g>
</g>
<!-- Node6 -->
<g id="Node000006" class="node">
<title>Node6</title>
<g id="a_Node000006"><a xlink:href="$class_loop_tag_panel.html#a199ec8f84860272037a7d2a25051a0a3" xlink:title=" ">
<polygon fill="white" stroke="#666666" points="756.5,-324 625.75,-324 625.75,-304 756.5,-304 756.5,-324"/>
<text text-anchor="middle" x="691.12" y="-310.5" font-family="Helvetica,sans-Serif" font-size="10.00">LoopTagPanel::setTagLine</text>
</a>
</g>
</g>
<!-- Node1&#45;&gt;Node6 -->
<g id="edge31_Node000001_Node000006" class="edge">
<title>Node1&#45;&gt;Node6</title>
<g id="a_edge31_Node000001_Node000006"><a xlink:title=" ">
<path fill="none" stroke="#63b8ff" d="M805.07,-339.08C783.6,-334.31 759.55,-328.97 739.18,-324.45"/>
<polygon fill="#63b8ff" stroke="#63b8ff" points="804.04,-342.44 814.56,-341.19 805.56,-335.6 804.04,-342.44"/>
</a>
</g>
</g>
<!-- Node7 -->
<g id="Node000007" class="node">
<title>Node7</title>
<g id="a_Node000007"><a xlink:href="$class_main_tag_panel.html#ae0748c8b3939b1533b7ae12a9316ca78" xlink:title=" ">
<polygon fill="white" stroke="#666666" points="756.5,-286 625.75,-286 625.75,-266 756.5,-266 756.5,-286"/>
<text text-anchor="middle" x="691.12" y="-272.5" font-family="Helvetica,sans-Serif" font-size="10.00">MainTagPanel::setTagLine</text>
</a>
</g>
</g>
<!-- Node1&#45;&gt;Node7 -->
<g id="edge32_Node000001_Node000007" class="edge">
<title>Node1&#45;&gt;Node7</title>
<g id="a_edge32_Node000001_Node000007"><a xlink:title=" ">
<path fill="none" stroke="#63b8ff" d="M836.53,-335.77C815.37,-323.4 784.77,-306.58 756.5,-295 748.74,-291.82 740.25,-288.93 732.06,-286.41"/>
<polygon fill="#63b8ff" stroke="#63b8ff" points="834.7,-338.75 845.09,-340.84 838.27,-332.73 834.7,-338.75"/>
</a>
</g>
</g>
<!-- Node8 -->
<g id="Node000008" class="node">
<title>Node8</title>
<g id="a_Node000008"><a xlink:href="$class_tag_panel.html#a6e53bfa1e9893d31775867a4f0c7c749" xlink:title=" ">
<polygon fill="white" stroke="#666666" points="746,-248 636.25,-248 636.25,-228 746,-228 746,-248"/>
<text text-anchor="middle" x="691.12" y="-234.5" font-family="Helvetica,sans-Serif" font-size="10.00">TagPanel::setTagLine</text>
</a>
</g>
</g>
<!-- Node1&#45;&gt;Node8 -->
<g id="edge33_Node000001_Node000008" class="edge">
<title>Node1&#45;&gt;Node8</title>
<g id="a_edge33_Node000001_Node000008"><a xlink:title=" ">
<path fill="none" stroke="#63b8ff" d="M847.04,-333.26C827.57,-311.88 792.96,-277.26 756.5,-257 750.39,-253.6 743.61,-250.76 736.8,-248.39"/>
<polygon fill="#63b8ff" stroke="#63b8ff" points="844.37,-335.53 853.63,-340.67 849.6,-330.87 844.37,-335.53"/>
</a>
</g>
</g>
<!-- Node9 -->
<g id="Node000009" class="node">
<title>Node9</title>
<g id="a_Node000009"><a xlink:href="$class_flow_tag_panel.html#a92c626fbe9ab70ee75813edec7e323ba" xlink:title=" ">
<polygon fill="white" stroke="#666666" points="589.75,-267 435,-267 435,-247 589.75,-247 589.75,-267"/>
<text text-anchor="middle" x="512.38" y="-253.5" font-family="Helvetica,sans-Serif" font-size="10.00">FlowTagPanel::addComponents</text>
</a>
</g>
</g>
<!-- Node8&#45;&gt;Node9 -->
<g id="edge34_Node000008_Node000009" class="edge">
<title>Node8&#45;&gt;Node9</title>
<g id="a_edge34_Node000008_Node000009"><a xlink:title=" ">
<path fill="none" stroke="#63b8ff" d="M625,-245C613.65,-246.22 601.76,-247.5 590.13,-248.75"/>
<polygon fill="#63b8ff" stroke="#63b8ff" points="625.06,-248.51 634.63,-243.97 624.31,-241.55 625.06,-248.51"/>
</a>
</g>
</g>
<!-- Node10 -->
<g id="Node000010" class="node">
<title>Node10</title>
<g id="a_Node000010"><a xlink:href="$class_tag_panel.html#a75a1eb94084fc21b1e50322a1c385733" xlink:title=" ">
<polygon fill="white" stroke="#666666" points="579.25,-229 445.5,-229 445.5,-209 579.25,-209 579.25,-229"/>
<text text-anchor="middle" x="512.38" y="-215.5" font-family="Helvetica,sans-Serif" font-size="10.00">TagPanel::addComponents</text>
</a>
</g>
</g>
<!-- Node8&#45;&gt;Node10 -->
<g id="edge35_Node000008_Node000010" class="edge">
<title>Node8&#45;&gt;Node10</title>
<g id="a_edge35_Node000008_Node000010"><a xlink:title=" ">
<path fill="none" stroke="#63b8ff" d="M625,-231C610.16,-229.4 594.38,-227.71 579.5,-226.11"/>
<polygon fill="#63b8ff" stroke="#63b8ff" points="624.31,-234.45 634.63,-232.03 625.06,-227.49 624.31,-234.45"/>
</a>
</g>
</g>
<!-- Node11 -->
<g id="Node000011" class="node">
<title>Node11</title>
<g id="a_Node000011"><a xlink:href="$class_tag_panel.html#a4fcedad553eb65983ba7a8da2d5895f3" xlink:title=" ">
<polygon fill="white" stroke="#666666" points="399,-229 323.75,-229 323.75,-209 399,-209 399,-229"/>
<text text-anchor="middle" x="361.38" y="-215.5" font-family="Helvetica,sans-Serif" font-size="10.00">TagPanel::init</text>
</a>
</g>
</g>
<!-- Node10&#45;&gt;Node11 -->
<g id="edge36_Node000010_Node000011" class="edge">
<title>Node10&#45;&gt;Node11</title>
<g id="a_edge36_Node000010_Node000011"><a xlink:title=" ">
<path fill="none" stroke="#63b8ff" d="M433.7,-219C421.75,-219 409.9,-219 399.4,-219"/>
<polygon fill="#63b8ff" stroke="#63b8ff" points="433.64,-222.5 443.64,-219 433.64,-215.5 433.64,-222.5"/>
</a>
</g>
</g>
<!-- Node12 -->
<g id="Node000012" class="node">
<title>Node12</title>
<g id="a_Node000012"><a xlink:href="$class_bool_tag_panel.html#aa99e3e9917820818ad864ac21b7bde53" xlink:title=" ">
<polygon fill="white" stroke="#666666" points="286.25,-438 144.25,-438 144.25,-418 286.25,-418 286.25,-438"/>
<text text-anchor="middle" x="215.25" y="-424.5" font-family="Helvetica,sans-Serif" font-size="10.00">BoolTagPanel::BoolTagPanel</text>
</a>
</g>
</g>
<!-- Node11&#45;&gt;Node12 -->
<g id="edge37_Node000011_Node000012" class="edge">
<title>Node11&#45;&gt;Node12</title>
<g id="a_edge37_Node000011_Node000012"><a xlink:title=" ">
<path fill="none" stroke="#63b8ff" d="M358.39,-240.87C353.62,-280.43 337.86,-363.91 287.75,-409 283.93,-412.44 279.56,-415.26 274.9,-417.59"/>
<polygon fill="#63b8ff" stroke="#63b8ff" points="361.87,-241.29 359.45,-230.98 354.91,-240.55 361.87,-241.29"/>
</a>
</g>
</g>
<!-- Node13 -->
<g id="Node000013" class="node">
<title>Node13</title>
<g id="a_Node000013"><a xlink:href="$class_bool_tag_panel.html#a12a134be4ff2d9444aaf1cd3b61eb08c" xlink:title=" ">
<polygon fill="white" stroke="#666666" points="286.25,-400 144.25,-400 144.25,-380 286.25,-380 286.25,-400"/>
<text text-anchor="middle" x="215.25" y="-386.5" font-family="Helvetica,sans-Serif" font-size="10.00">BoolTagPanel::BoolTagPanel</text>
</a>
</g>
</g>
<!-- Node11&#45;&gt;Node13 -->
<g id="edge38_Node000011_Node000013" class="edge">
<title>Node11&#45;&gt;Node13</title>
<g id="a_edge38_Node000011_Node000013"><a xlink:title=" ">
<path fill="none" stroke="#63b8ff" d="M356.15,-240.4C348.47,-273.46 329.07,-336.73 287.75,-371 283.6,-374.44 278.88,-377.27 273.9,-379.59"/>
<polygon fill="#63b8ff" stroke="#63b8ff" points="359.53,-241.32 358.21,-230.81 352.68,-239.84 359.53,-241.32"/>
</a>
</g>
</g>
<!-- Node15 -->
<g id="Node000015" class="node">
<title>Node15</title>
<g id="a_Node000015"><a xlink:href="$class_empty_panel.html#afd82e6977b149132c2d01b79bab9a668" xlink:title=" ">
<polygon fill="white" stroke="#666666" points="279.5,-362 151,-362 151,-342 279.5,-342 279.5,-362"/>
<text text-anchor="middle" x="215.25" y="-348.5" font-family="Helvetica,sans-Serif" font-size="10.00">EmptyPanel::EmptyPanel</text>
</a>
</g>
</g>
<!-- Node11&#45;&gt;Node15 -->
<g id="edge40_Node000011_Node000015" class="edge">
<title>Node11&#45;&gt;Node15</title>
<g id="a_edge40_Node000011_Node000015"><a xlink:title=" ">
<path fill="none" stroke="#63b8ff" d="M352.68,-239.81C342.05,-265.61 320.43,-309.09 287.75,-333 283.09,-336.41 277.85,-339.21 272.39,-341.51"/>
<polygon fill="#63b8ff" stroke="#63b8ff" points="355.84,-241.33 356.23,-230.75 349.32,-238.78 355.84,-241.33"/>
</a>
</g>
</g>
<!-- Node16 -->
<g id="Node000016" class="node">
<title>Node16</title>
<g id="a_Node000016"><a xlink:href="$class_empty_panel.html#a0baae08fda35c8d8565e7fe6dc8846ca" xlink:title=" ">
<polygon fill="white" stroke="#666666" points="279.5,-324 151,-324 151,-304 279.5,-304 279.5,-324"/>
<text text-anchor="middle" x="215.25" y="-310.5" font-family="Helvetica,sans-Serif" font-size="10.00">EmptyPanel::EmptyPanel</text>
</a>
</g>
</g>
<!-- Node11&#45;&gt;Node16 -->
<g id="edge41_Node000011_Node000016" class="edge">
<title>Node11&#45;&gt;Node16</title>
<g id="a_edge41_Node000011_Node000016"><a xlink:title=" ">
<path fill="none" stroke="#63b8ff" d="M346.66,-238.55C333.49,-255.89 312.05,-280.64 287.75,-295 282,-298.4 275.64,-301.2 269.15,-303.51"/>
<polygon fill="#63b8ff" stroke="#63b8ff" points="349.44,-240.69 352.53,-230.55 343.79,-236.55 349.44,-240.69"/>
</a>
</g>
</g>
<!-- Node18 -->
<g id="Node000018" class="node">
<title>Node18</title>
<g id="a_Node000018"><a xlink:href="$class_flow_tag_panel.html#ad022a384de848b36e615014a9f727755" xlink:title=" ">
<polygon fill="white" stroke="#666666" points="287.75,-286 142.75,-286 142.75,-266 287.75,-266 287.75,-286"/>
<text text-anchor="middle" x="215.25" y="-272.5" font-family="Helvetica,sans-Serif" font-size="10.00">FlowTagPanel::FlowTagPanel</text>
</a>
</g>
</g>
<!-- Node11&#45;&gt;Node18 -->
<g id="edge43_Node000011_Node000018" class="edge">
<title>Node11&#45;&gt;Node18</title>
<g id="a_edge43_Node000011_Node000018"><a xlink:title=" ">
<path fill="none" stroke="#63b8ff" d="M333.31,-235C319.93,-242.43 303.34,-250.94 287.75,-257 279.49,-260.21 270.49,-263.07 261.75,-265.54"/>
<polygon fill="#63b8ff" stroke="#63b8ff" points="334.99,-238.07 341.96,-230.09 331.54,-231.98 334.99,-238.07"/>
</a>
</g>
</g>
<!-- Node19 -->
<g id="Node000019" class="node">
<title>Node19</title>
<g id="a_Node000019"><a xlink:href="$class_flow_tag_panel.html#a370665455a3991702bf8f6c5d9c95272" xlink:title=" ">
<polygon fill="white" stroke="#666666" points="287.75,-248 142.75,-248 142.75,-228 287.75,-228 287.75,-248"/>
<text text-anchor="middle" x="215.25" y="-234.5" font-family="Helvetica,sans-Serif" font-size="10.00">FlowTagPanel::FlowTagPanel</text>
</a>
</g>
</g>
<!-- Node11&#45;&gt;Node19 -->
<g id="edge44_Node000011_Node000019" class="edge">
<title>Node11&#45;&gt;Node19</title>
<g id="a_edge44_Node000011_Node000019"><a xlink:title=" ">
<path fill="none" stroke="#63b8ff" d="M312,-225.38C304.35,-226.39 296.3,-227.45 288.24,-228.51"/>
<polygon fill="#63b8ff" stroke="#63b8ff" points="312.3,-228.87 321.76,-224.09 311.39,-221.93 312.3,-228.87"/>
</a>
</g>
</g>
<!-- Node20 -->
<g id="Node000020" class="node">
<title>Node20</title>
<g id="a_Node000020"><a xlink:href="$class_if_tag_panel.html#ae771ebf0ecffe9a2bf16f02999ef469e" xlink:title=" ">
<polygon fill="white" stroke="#666666" points="272.75,-210 157.75,-210 157.75,-190 272.75,-190 272.75,-210"/>
<text text-anchor="middle" x="215.25" y="-196.5" font-family="Helvetica,sans-Serif" font-size="10.00">IfTagPanel::IfTagPanel</text>
</a>
</g>
</g>
<!-- Node11&#45;&gt;Node20 -->
<g id="edge45_Node000011_Node000020" class="edge">
<title>Node11&#45;&gt;Node20</title>
<g id="a_edge45_Node000011_Node000020"><a xlink:title=" ">
<path fill="none" stroke="#63b8ff" d="M312.12,-212.64C299.61,-210.99 286.02,-209.2 273.11,-207.5"/>
<polygon fill="#63b8ff" stroke="#63b8ff" points="311.39,-216.07 321.76,-213.91 312.3,-209.13 311.39,-216.07"/>
</a>
</g>
</g>
<!-- Node21 -->
<g id="Node000021" class="node">
<title>Node21</title>
<g id="a_Node000021"><a xlink:href="$class_if_tag_panel.html#a622e1c9b8393a4c17deaf299a082747d" xlink:title=" ">
<polygon fill="white" stroke="#666666" points="272.75,-172 157.75,-172 157.75,-152 272.75,-152 272.75,-172"/>
<text text-anchor="middle" x="215.25" y="-158.5" font-family="Helvetica,sans-Serif" font-size="10.00">IfTagPanel::IfTagPanel</text>
</a>
</g>
</g>
<!-- Node11&#45;&gt;Node21 -->
<g id="edge46_Node000011_Node000021" class="edge">
<title>Node11&#45;&gt;Node21</title>
<g id="a_edge46_Node000011_Node000021"><a xlink:title=" ">
<path fill="none" stroke="#63b8ff" d="M333.31,-203C319.93,-195.57 303.34,-187.06 287.75,-181 279.49,-177.79 270.49,-174.93 261.75,-172.46"/>
<polygon fill="#63b8ff" stroke="#63b8ff" points="331.54,-206.02 341.96,-207.91 334.99,-199.93 331.54,-206.02"/>
</a>
</g>
</g>
<!-- Node23 -->
<g id="Node000023" class="node">
<title>Node23</title>
<g id="a_Node000023"><a xlink:href="$class_loop_tag_panel.html#a16b4c63d3e9be7b20a4ef02091f0a993" xlink:title=" ">
<polygon fill="white" stroke="#666666" points="287.75,-134 142.75,-134 142.75,-114 287.75,-114 287.75,-134"/>
<text text-anchor="middle" x="215.25" y="-120.5" font-family="Helvetica,sans-Serif" font-size="10.00">LoopTagPanel::LoopTagPanel</text>
</a>
</g>
</g>
<!-- Node11&#45;&gt;Node23 -->
<g id="edge48_Node000011_Node000023" class="edge">
<title>Node11&#45;&gt;Node23</title>
<g id="a_edge48_Node000011_Node000023"><a xlink:title=" ">
<path fill="none" stroke="#63b8ff" d="M346.66,-199.45C333.49,-182.11 312.05,-157.36 287.75,-143 282,-139.6 275.64,-136.8 269.15,-134.49"/>
<polygon fill="#63b8ff" stroke="#63b8ff" points="343.79,-201.45 352.53,-207.45 349.44,-197.31 343.79,-201.45"/>
</a>
</g>
</g>
<!-- Node24 -->
<g id="Node000024" class="node">
<title>Node24</title>
<g id="a_Node000024"><a xlink:href="$class_loop_tag_panel.html#a422521db77f7c14d17aed86df163d1dc" xlink:title=" ">
<polygon fill="white" stroke="#666666" points="287.75,-96 142.75,-96 142.75,-76 287.75,-76 287.75,-96"/>
<text text-anchor="middle" x="215.25" y="-82.5" font-family="Helvetica,sans-Serif" font-size="10.00">LoopTagPanel::LoopTagPanel</text>
</a>
</g>
</g>
<!-- Node11&#45;&gt;Node24 -->
<g id="edge49_Node000011_Node000024" class="edge">
<title>Node11&#45;&gt;Node24</title>
<g id="a_edge49_Node000011_Node000024"><a xlink:title=" ">
<path fill="none" stroke="#63b8ff" d="M352.68,-198.19C342.05,-172.39 320.43,-128.91 287.75,-105 283.09,-101.59 277.85,-98.79 272.39,-96.49"/>
<polygon fill="#63b8ff" stroke="#63b8ff" points="349.32,-199.22 356.23,-207.25 355.84,-196.67 349.32,-199.22"/>
</a>
</g>
</g>
<!-- Node25 -->
<g id="Node000025" class="node">
<title>Node25</title>
<g id="a_Node000025"><a xlink:href="$class_main_tag_panel.html#a4f3a46dfa9341454e960a68e1cbb9202" xlink:title=" ">
<polygon fill="white" stroke="#666666" points="287.75,-58 142.75,-58 142.75,-38 287.75,-38 287.75,-58"/>
<text text-anchor="middle" x="215.25" y="-44.5" font-family="Helvetica,sans-Serif" font-size="10.00">MainTagPanel::MainTagPanel</text>
</a>
</g>
</g>
<!-- Node11&#45;&gt;Node25 -->
<g id="edge50_Node000011_Node000025" class="edge">
<title>Node11&#45;&gt;Node25</title>
<g id="a_edge50_Node000011_Node000025"><a xlink:title=" ">
<path fill="none" stroke="#63b8ff" d="M356.15,-197.6C348.47,-164.54 329.07,-101.27 287.75,-67 283.6,-63.56 278.88,-60.73 273.9,-58.41"/>
<polygon fill="#63b8ff" stroke="#63b8ff" points="352.68,-198.16 358.21,-207.19 359.53,-196.68 352.68,-198.16"/>
</a>
</g>
</g>
<!-- Node27 -->
<g id="Node000027" class="node">
<title>Node27</title>
<g id="a_Node000027"><a xlink:href="$class_tag_panel.html#a947de417b587805f538e91916ca1cc5d" xlink:title=" ">
<polygon fill="white" stroke="#666666" points="266.75,-20 163.75,-20 163.75,0 266.75,0 266.75,-20"/>
<text text-anchor="middle" x="215.25" y="-6.5" font-family="Helvetica,sans-Serif" font-size="10.00">TagPanel::TagPanel</text>
</a>
</g>
</g>
<!-- Node11&#45;&gt;Node27 -->
<g id="edge52_Node000011_Node000027" class="edge">
<title>Node11&#45;&gt;Node27</title>
<g id="a_edge52_Node000011_Node000027"><a xlink:title=" ">
<path fill="none" stroke="#63b8ff" d="M358.39,-197.13C353.62,-157.57 337.86,-74.09 287.75,-29 281.83,-23.67 274.58,-19.81 267,-17.02"/>
<polygon fill="#63b8ff" stroke="#63b8ff" points="354.91,-197.45 359.45,-207.02 361.87,-196.71 354.91,-197.45"/>
</a>
</g>
</g>
<!-- Node14 -->
<g id="Node000014" class="node">
<title>Node14</title>
<g id="a_Node000014"><a xlink:href="$class_bool_tag_panel.html#ae57699d163de0572b9f78f7661a0baff" xlink:title=" ">
<polygon fill="white" stroke="#666666" points="106,-400 0.75,-400 0.75,-380 106,-380 106,-400"/>
<text text-anchor="middle" x="53.38" y="-386.5" font-family="Helvetica,sans-Serif" font-size="10.00">BoolTagPanel::clone</text>
</a>
</g>
</g>
<!-- Node13&#45;&gt;Node14 -->
<g id="edge39_Node000013_Node000014" class="edge">
<title>Node13&#45;&gt;Node14</title>
<g id="a_edge39_Node000013_Node000014"><a xlink:title=" ">
<path fill="none" stroke="#63b8ff" d="M132.71,-390C123.69,-390 114.69,-390 106.18,-390"/>
<polygon fill="#63b8ff" stroke="#63b8ff" points="132.61,-393.5 142.61,-390 132.61,-386.5 132.61,-393.5"/>
</a>
</g>
</g>
<!-- Node17 -->
<g id="Node000017" class="node">
<title>Node17</title>
<g id="a_Node000017"><a xlink:href="$class_empty_panel.html#a4c29bf1566d56b29a69a7e9ea1fe70d9" xlink:title=" ">
<polygon fill="white" stroke="#666666" points="102.62,-324 4.12,-324 4.12,-304 102.62,-304 102.62,-324"/>
<text text-anchor="middle" x="53.38" y="-310.5" font-family="Helvetica,sans-Serif" font-size="10.00">EmptyPanel::clone</text>
</a>
</g>
</g>
<!-- Node16&#45;&gt;Node17 -->
<g id="edge42_Node000016_Node000017" class="edge">
<title>Node16&#45;&gt;Node17</title>
<g id="a_edge42_Node000016_Node000017"><a xlink:title=" ">
<path fill="none" stroke="#63b8ff" d="M139.35,-314C127,-314 114.5,-314 103.02,-314"/>
<polygon fill="#63b8ff" stroke="#63b8ff" points="139.09,-317.5 149.09,-314 139.09,-310.5 139.09,-317.5"/>
</a>
</g>
</g>
<!-- Node22 -->
<g id="Node000022" class="node">
<title>Node22</title>
<g id="a_Node000022"><a xlink:href="$class_if_tag_panel.html#a275fc196fc3c8d12e847331234e4eb6a" xlink:title=" ">
<polygon fill="white" stroke="#666666" points="99.25,-172 7.5,-172 7.5,-152 99.25,-152 99.25,-172"/>
<text text-anchor="middle" x="53.38" y="-158.5" font-family="Helvetica,sans-Serif" font-size="10.00">IfTagPanel::clone</text>
</a>
</g>
</g>
<!-- Node21&#45;&gt;Node22 -->
<g id="edge47_Node000021_Node000022" class="edge">
<title>Node21&#45;&gt;Node22</title>
<g id="a_edge47_Node000021_Node000022"><a xlink:title=" ">
<path fill="none" stroke="#63b8ff" d="M146.16,-162C130.47,-162 114.16,-162 99.72,-162"/>
<polygon fill="#63b8ff" stroke="#63b8ff" points="145.92,-165.5 155.92,-162 145.92,-158.5 145.92,-165.5"/>
</a>
</g>
</g>
<!-- Node26 -->
<g id="Node000026" class="node">
<title>Node26</title>
<g id="a_Node000026"><a xlink:href="$class_main_tag_panel.html#a149128cca7c6b0acbb6c2ccba5c280b7" xlink:title=" ">
<polygon fill="white" stroke="#666666" points="106.75,-58 0,-58 0,-38 106.75,-38 106.75,-58"/>
<text text-anchor="middle" x="53.38" y="-44.5" font-family="Helvetica,sans-Serif" font-size="10.00">MainTagPanel::clone</text>
</a>
</g>
</g>
<!-- Node25&#45;&gt;Node26 -->
<g id="edge51_Node000025_Node000026" class="edge">
<title>Node25&#45;&gt;Node26</title>
<g id="a_edge51_Node000025_Node000026"><a xlink:title=" ">
<path fill="none" stroke="#63b8ff" d="M130.76,-48C122.62,-48 114.52,-48 106.82,-48"/>
<polygon fill="#63b8ff" stroke="#63b8ff" points="130.75,-51.5 140.75,-48 130.75,-44.5 130.75,-51.5"/>
</a>
</g>
</g>
</g>
</svg>
