<?xml version="1.0" encoding="UTF-8" standalone="no"?>
<!DOCTYPE svg PUBLIC "-//W3C//DTD SVG 1.1//EN"
 "http://www.w3.org/Graphics/SVG/1.1/DTD/svg11.dtd">
<!-- Generated by graphviz version 12.2.0 (20241103.1931)
 -->
<!-- Title: PKToken::addCoord Pages: 1 -->
<svg width="557pt" height="104pt"
 viewBox="0.00 0.00 556.50 104.00" xmlns="http://www.w3.org/2000/svg" xmlns:xlink="http://www.w3.org/1999/xlink">
<g id="graph0" class="graph" transform="scale(1 1) rotate(0) translate(4 100)">
<title>PKToken::addCoord</title>
<!-- Node1 -->
<g id="Node000001" class="node">
<title>Node1</title>
<g id="a_Node000001"><a xlink:title=" ">
<polygon fill="#999999" stroke="#666666" points="103.75,-58 0,-58 0,-38 103.75,-38 103.75,-58"/>
<text text-anchor="middle" x="51.88" y="-44.5" font-family="Helvetica,sans-Serif" font-size="10.00">PKToken::addCoord</text>
</a>
</g>
</g>
<!-- Node2 -->
<g id="Node000002" class="node">
<title>Node2</title>
<g id="a_Node000002"><a xlink:href="$class_p_k_token.html#ae8d5672d16cc994d3d0d3f73e240cec4" xlink:title=" ">
<polygon fill="white" stroke="#666666" points="238.25,-58 139.75,-58 139.75,-38 238.25,-38 238.25,-58"/>
<text text-anchor="middle" x="189" y="-44.5" font-family="Helvetica,sans-Serif" font-size="10.00">PKToken::addType</text>
</a>
</g>
</g>
<!-- Node1&#45;&gt;Node2 -->
<g id="edge6_Node000001_Node000002" class="edge">
<title>Node1&#45;&gt;Node2</title>
<g id="a_edge6_Node000001_Node000002"><a xlink:title=" ">
<path fill="none" stroke="#63b8ff" d="M103.96,-48C111.88,-48 120.13,-48 128.23,-48"/>
<polygon fill="#63b8ff" stroke="#63b8ff" points="128.01,-51.5 138.01,-48 128.01,-44.5 128.01,-51.5"/>
</a>
</g>
</g>
<!-- Node3 -->
<g id="Node000003" class="node">
<title>Node3</title>
<g id="a_Node000003"><a xlink:href="$class_token.html#ade47ed51e2f495f6d847c1bff9fe8db6" xlink:title=" ">
<polygon fill="white" stroke="#666666" points="379.12,-96 294.12,-96 294.12,-76 379.12,-76 379.12,-96"/>
<text text-anchor="middle" x="336.62" y="-82.5" font-family="Helvetica,sans-Serif" font-size="10.00">Token::addError</text>
</a>
</g>
</g>
<!-- Node2&#45;&gt;Node3 -->
<g id="edge7_Node000002_Node000003" class="edge">
<title>Node2&#45;&gt;Node3</title>
<g id="a_edge7_Node000002_Node000003"><a xlink:title=" ">
<path fill="none" stroke="#63b8ff" d="M230.18,-58.48C246.97,-62.87 266.68,-68.01 284.49,-72.66"/>
<polygon fill="#63b8ff" stroke="#63b8ff" points="283.55,-76.03 294.11,-75.17 285.32,-69.26 283.55,-76.03"/>
</a>
</g>
</g>
<!-- Node5 -->
<g id="Node000005" class="node">
<title>Node5</title>
<g id="a_Node000005"><a xlink:href="$class_iterator_list.html#a4acf162e4a194bddd3c2fe26b073f45a" xlink:title=" ">
<polygon fill="white" stroke="#666666" points="399,-58 274.25,-58 274.25,-38 399,-38 399,-58"/>
<text text-anchor="middle" x="336.62" y="-44.5" font-family="Helvetica,sans-Serif" font-size="10.00">IteratorList::currentToken</text>
</a>
</g>
</g>
<!-- Node2&#45;&gt;Node5 -->
<g id="edge9_Node000002_Node000005" class="edge">
<title>Node2&#45;&gt;Node5</title>
<g id="a_edge9_Node000002_Node000005"><a xlink:title=" ">
<path fill="none" stroke="#63b8ff" d="M238.49,-48C246.2,-48 254.31,-48 262.43,-48"/>
<polygon fill="#63b8ff" stroke="#63b8ff" points="262.36,-51.5 272.36,-48 262.36,-44.5 262.36,-51.5"/>
</a>
</g>
</g>
<!-- Node6 -->
<g id="Node000006" class="node">
<title>Node6</title>
<g id="a_Node000006"><a xlink:href="$class_iterator_list.html#a2ebc1118094754b7d333b0a9d257d12b" xlink:title=" ">
<polygon fill="white" stroke="#666666" points="384,-20 289.25,-20 289.25,0 384,0 384,-20"/>
<text text-anchor="middle" x="336.62" y="-6.5" font-family="Helvetica,sans-Serif" font-size="10.00">IteratorList::ended</text>
</a>
</g>
</g>
<!-- Node2&#45;&gt;Node6 -->
<g id="edge10_Node000002_Node000006" class="edge">
<title>Node2&#45;&gt;Node6</title>
<g id="a_edge10_Node000002_Node000006"><a xlink:title=" ">
<path fill="none" stroke="#63b8ff" d="M230.18,-37.52C246.97,-33.13 266.68,-27.99 284.49,-23.34"/>
<polygon fill="#63b8ff" stroke="#63b8ff" points="285.32,-26.74 294.11,-20.83 283.55,-19.97 285.32,-26.74"/>
</a>
</g>
</g>
<!-- Node4 -->
<g id="Node000004" class="node">
<title>Node4</title>
<g id="a_Node000004"><a xlink:href="$class_token_result.html#af997915a62dcb5643b9d61b78a22c9f4" xlink:title=" ">
<polygon fill="white" stroke="#666666" points="548.5,-96 435,-96 435,-76 548.5,-76 548.5,-96"/>
<text text-anchor="middle" x="491.75" y="-82.5" font-family="Helvetica,sans-Serif" font-size="10.00">TokenResult::addError</text>
</a>
</g>
</g>
<!-- Node3&#45;&gt;Node4 -->
<g id="edge8_Node000003_Node000004" class="edge">
<title>Node3&#45;&gt;Node4</title>
<g id="a_edge8_Node000003_Node000004"><a xlink:title=" ">
<path fill="none" stroke="#63b8ff" d="M379.47,-86C393.02,-86 408.4,-86 423.32,-86"/>
<polygon fill="#63b8ff" stroke="#63b8ff" points="423.09,-89.5 433.09,-86 423.09,-82.5 423.09,-89.5"/>
</a>
</g>
</g>
</g>
</svg>
