<?xml version="1.0" encoding="UTF-8" standalone="no"?>
<!DOCTYPE svg PUBLIC "-//W3C//DTD SVG 1.1//EN"
 "http://www.w3.org/Graphics/SVG/1.1/DTD/svg11.dtd">
<!-- Generated by graphviz version 12.2.0 (20241103.1931)
 -->
<!-- Title: FlowTagPanel::setChildrenVisibility Pages: 1 -->
<svg width="510pt" height="66pt"
 viewBox="0.00 0.00 509.75 66.00" xmlns="http://www.w3.org/2000/svg" xmlns:xlink="http://www.w3.org/1999/xlink">
<g id="graph0" class="graph" transform="scale(1 1) rotate(0) translate(4 62)">
<title>FlowTagPanel::setChildrenVisibility</title>
<!-- Node1 -->
<g id="Node000001" class="node">
<title>Node1</title>
<g id="a_Node000001"><a xlink:title=" ">
<polygon fill="#999999" stroke="#666666" points="133,-45 0,-45 0,-13 133,-13 133,-45"/>
<text text-anchor="start" x="8" y="-31.5" font-family="Helvetica,sans-Serif" font-size="10.00">FlowTagPanel::setChildren</text>
<text text-anchor="middle" x="66.5" y="-19.5" font-family="Helvetica,sans-Serif" font-size="10.00">Visibility</text>
</a>
</g>
</g>
<!-- Node2 -->
<g id="Node000002" class="node">
<title>Node2</title>
<g id="a_Node000002"><a xlink:href="$class_flow_tag_panel.html#a1822bbc91daca9379e090f363e870d40" xlink:title=" ">
<polygon fill="white" stroke="#666666" points="309.12,-20 171.62,-20 171.62,0 309.12,0 309.12,-20"/>
<text text-anchor="middle" x="240.38" y="-6.5" font-family="Helvetica,sans-Serif" font-size="10.00">FlowTagPanel::hideChildren</text>
</a>
</g>
</g>
<!-- Node1&#45;&gt;Node2 -->
<g id="edge6_Node000001_Node000002" class="edge">
<title>Node1&#45;&gt;Node2</title>
<g id="a_edge6_Node000001_Node000002"><a xlink:title=" ">
<path fill="none" stroke="#63b8ff" d="M133.46,-21.71C142.18,-20.74 151.19,-19.75 160.1,-18.76"/>
<polygon fill="#63b8ff" stroke="#63b8ff" points="160.26,-22.27 169.81,-17.69 159.49,-15.31 160.26,-22.27"/>
</a>
</g>
</g>
<!-- Node5 -->
<g id="Node000005" class="node">
<title>Node5</title>
<g id="a_Node000005"><a xlink:href="$class_flow_tag_panel.html#a4c02b86a1776b70cdd14afd50de4736b" xlink:title=" ">
<polygon fill="white" stroke="#666666" points="311.75,-58 169,-58 169,-38 311.75,-38 311.75,-58"/>
<text text-anchor="middle" x="240.38" y="-44.5" font-family="Helvetica,sans-Serif" font-size="10.00">FlowTagPanel::showChildren</text>
</a>
</g>
</g>
<!-- Node1&#45;&gt;Node5 -->
<g id="edge9_Node000001_Node000005" class="edge">
<title>Node1&#45;&gt;Node5</title>
<g id="a_edge9_Node000001_Node000005"><a xlink:title=" ">
<path fill="none" stroke="#63b8ff" d="M133.46,-36.29C141.31,-37.16 149.4,-38.05 157.43,-38.94"/>
<polygon fill="#63b8ff" stroke="#63b8ff" points="156.91,-42.41 167.23,-40.03 157.68,-35.45 156.91,-42.41"/>
</a>
</g>
</g>
<!-- Node3 -->
<g id="Node000003" class="node">
<title>Node3</title>
<g id="a_Node000003"><a xlink:href="$class_flow_tag_panel.html#a908b8a9b0319c8c60588dff9296e9baf" xlink:title=" ">
<polygon fill="white" stroke="#666666" points="501.75,-58 347.75,-58 347.75,-38 501.75,-38 501.75,-58"/>
<text text-anchor="middle" x="424.75" y="-44.5" font-family="Helvetica,sans-Serif" font-size="10.00">FlowTagPanel::getChildrenTags</text>
</a>
</g>
</g>
<!-- Node2&#45;&gt;Node3 -->
<g id="edge7_Node000002_Node000003" class="edge">
<title>Node2&#45;&gt;Node3</title>
<g id="a_edge7_Node000002_Node000003"><a xlink:title=" ">
<path fill="none" stroke="#63b8ff" d="M291.69,-20.48C313.62,-25.05 339.52,-30.45 362.55,-35.25"/>
<polygon fill="#63b8ff" stroke="#63b8ff" points="361.61,-38.63 372.11,-37.24 363.04,-31.77 361.61,-38.63"/>
</a>
</g>
</g>
<!-- Node4 -->
<g id="Node000004" class="node">
<title>Node4</title>
<g id="a_Node000004"><a xlink:href="$class_tag_panel.html#a975da9b33d0c94992472b291df4aadbe" xlink:title=" ">
<polygon fill="white" stroke="#666666" points="480,-20 369.5,-20 369.5,0 480,0 480,-20"/>
<text text-anchor="middle" x="424.75" y="-6.5" font-family="Helvetica,sans-Serif" font-size="10.00">TagPanel::getIndexOf</text>
</a>
</g>
</g>
<!-- Node2&#45;&gt;Node4 -->
<g id="edge8_Node000002_Node000004" class="edge">
<title>Node2&#45;&gt;Node4</title>
<g id="a_edge8_Node000002_Node000004"><a xlink:title=" ">
<path fill="none" stroke="#63b8ff" d="M309.54,-10C325.34,-10 342.12,-10 357.81,-10"/>
<polygon fill="#63b8ff" stroke="#63b8ff" points="357.51,-13.5 367.51,-10 357.51,-6.5 357.51,-13.5"/>
</a>
</g>
</g>
<!-- Node5&#45;&gt;Node3 -->
<g id="edge10_Node000005_Node000003" class="edge">
<title>Node5&#45;&gt;Node3</title>
<g id="a_edge10_Node000005_Node000003"><a xlink:title=" ">
<path fill="none" stroke="#63b8ff" d="M312.15,-48C319.97,-48 328.01,-48 336.01,-48"/>
<polygon fill="#63b8ff" stroke="#63b8ff" points="335.76,-51.5 345.76,-48 335.76,-44.5 335.76,-51.5"/>
</a>
</g>
</g>
</g>
</svg>
