<?xml version="1.0" encoding="UTF-8" standalone="no"?>
<!DOCTYPE svg PUBLIC "-//W3C//DTD SVG 1.1//EN"
 "http://www.w3.org/Graphics/SVG/1.1/DTD/svg11.dtd">
<!-- Generated by graphviz version 12.2.0 (20241103.1931)
 -->
<!-- Title: Interpretor::compileTokens Pages: 1 -->
<svg width="1321pt" height="381pt"
 viewBox="0.00 0.00 1321.25 381.00" xmlns="http://www.w3.org/2000/svg" xmlns:xlink="http://www.w3.org/1999/xlink">
<g id="graph0" class="graph" transform="scale(1 1) rotate(0) translate(4 377)">
<title>Interpretor::compileTokens</title>
<!-- Node1 -->
<g id="Node000001" class="node">
<title>Node1</title>
<g id="a_Node000001"><a xlink:title=" ">
<polygon fill="#999999" stroke="#666666" points="131.5,-228 0,-228 0,-208 131.5,-208 131.5,-228"/>
<text text-anchor="middle" x="65.75" y="-214.5" font-family="Helvetica,sans-Serif" font-size="10.00">Interpretor::compileTokens</text>
</a>
</g>
</g>
<!-- Node2 -->
<g id="Node000002" class="node">
<title>Node2</title>
<g id="a_Node000002"><a xlink:href="$class_interpretor.html#a832cf788bcaca68a99ca43db0bd448d7" xlink:title=" ">
<polygon fill="white" stroke="#666666" points="299.75,-256 167.5,-256 167.5,-236 299.75,-236 299.75,-256"/>
<text text-anchor="middle" x="233.62" y="-242.5" font-family="Helvetica,sans-Serif" font-size="10.00">Interpretor::executeTokens</text>
</a>
</g>
</g>
<!-- Node1&#45;&gt;Node2 -->
<g id="edge39_Node000001_Node000002" class="edge">
<title>Node1&#45;&gt;Node2</title>
<g id="a_edge39_Node000001_Node000002"><a xlink:title=" ">
<path fill="none" stroke="#63b8ff" d="M128.52,-228.43C138.59,-230.13 149.12,-231.9 159.44,-233.65"/>
<polygon fill="#63b8ff" stroke="#63b8ff" points="158.6,-237.05 169.04,-235.27 159.76,-230.15 158.6,-237.05"/>
</a>
</g>
</g>
<!-- Node6 -->
<g id="Node000006" class="node">
<title>Node6</title>
<g id="a_Node000006"><a xlink:href="$class_interpretor.html#a213dd04d8ca9dbb188f29e2284fcbc5a" xlink:title=" ">
<polygon fill="white" stroke="#666666" points="289.25,-209 178,-209 178,-189 289.25,-189 289.25,-209"/>
<text text-anchor="middle" x="233.62" y="-195.5" font-family="Helvetica,sans-Serif" font-size="10.00">Interpretor::getTokens</text>
</a>
</g>
</g>
<!-- Node1&#45;&gt;Node6 -->
<g id="edge43_Node000001_Node000006" class="edge">
<title>Node1&#45;&gt;Node6</title>
<g id="a_edge43_Node000001_Node000006"><a xlink:title=" ">
<path fill="none" stroke="#63b8ff" d="M131.83,-210.55C143.2,-209.24 155.04,-207.89 166.44,-206.58"/>
<polygon fill="#63b8ff" stroke="#63b8ff" points="166.61,-210.08 176.15,-205.47 165.82,-203.13 166.61,-210.08"/>
</a>
</g>
</g>
<!-- Node3 -->
<g id="Node000003" class="node">
<title>Node3</title>
<g id="a_Node000003"><a xlink:href="$class_iterator_list.html#ad207131e5d995b00c00118fa4ac6a21d" xlink:title=" ">
<polygon fill="white" stroke="#666666" points="437.25,-304 341.75,-304 341.75,-284 437.25,-284 437.25,-304"/>
<text text-anchor="middle" x="389.5" y="-290.5" font-family="Helvetica,sans-Serif" font-size="10.00">IteratorList::empty</text>
</a>
</g>
</g>
<!-- Node2&#45;&gt;Node3 -->
<g id="edge40_Node000002_Node000003" class="edge">
<title>Node2&#45;&gt;Node3</title>
<g id="a_edge40_Node000002_Node000003"><a xlink:title=" ">
<path fill="none" stroke="#63b8ff" d="M268.01,-256.42C290.32,-263.37 319.91,-272.6 344.18,-280.17"/>
<polygon fill="#63b8ff" stroke="#63b8ff" points="342.88,-283.43 353.47,-283.07 344.96,-276.75 342.88,-283.43"/>
</a>
</g>
</g>
<!-- Node4 -->
<g id="Node000004" class="node">
<title>Node4</title>
<g id="a_Node000004"><a xlink:href="$class_iterator_list.html#abf379455656b776b4e100dba9d4d7ccc" xlink:title=" ">
<polygon fill="white" stroke="#666666" points="440.25,-266 338.75,-266 338.75,-246 440.25,-246 440.25,-266"/>
<text text-anchor="middle" x="389.5" y="-252.5" font-family="Helvetica,sans-Serif" font-size="10.00">IteratorList::getFirst</text>
</a>
</g>
</g>
<!-- Node2&#45;&gt;Node4 -->
<g id="edge41_Node000002_Node000004" class="edge">
<title>Node2&#45;&gt;Node4</title>
<g id="a_edge41_Node000002_Node000004"><a xlink:title=" ">
<path fill="none" stroke="#63b8ff" d="M299.88,-250.24C308.98,-250.83 318.3,-251.44 327.33,-252.02"/>
<polygon fill="#63b8ff" stroke="#63b8ff" points="326.83,-255.5 337.04,-252.66 327.29,-248.51 326.83,-255.5"/>
</a>
</g>
</g>
<!-- Node5 -->
<g id="Node000005" class="node">
<title>Node5</title>
<g id="a_Node000005"><a xlink:href="$class_iterator_list.html#a47139a087ca9af560c2001e08c4d3f83" xlink:title=" ">
<polygon fill="white" stroke="#666666" points="432.75,-228 346.25,-228 346.25,-208 432.75,-208 432.75,-228"/>
<text text-anchor="middle" x="389.5" y="-214.5" font-family="Helvetica,sans-Serif" font-size="10.00">IteratorList::size</text>
</a>
</g>
</g>
<!-- Node2&#45;&gt;Node5 -->
<g id="edge42_Node000002_Node000005" class="edge">
<title>Node2&#45;&gt;Node5</title>
<g id="a_edge42_Node000002_Node000005"><a xlink:title=" ">
<path fill="none" stroke="#63b8ff" d="M291.92,-235.57C305.94,-233.02 320.89,-230.3 334.74,-227.78"/>
<polygon fill="#63b8ff" stroke="#63b8ff" points="335.36,-231.23 344.58,-225.99 334.11,-224.34 335.36,-231.23"/>
</a>
</g>
</g>
<!-- Node7 -->
<g id="Node000007" class="node">
<title>Node7</title>
<g id="a_Node000007"><a xlink:href="$class_lexer.html#acf897fb607a542d5c7c8cd4b0dcb1d18" xlink:title=" ">
<polygon fill="white" stroke="#666666" points="443.25,-190 335.75,-190 335.75,-170 443.25,-170 443.25,-190"/>
<text text-anchor="middle" x="389.5" y="-176.5" font-family="Helvetica,sans-Serif" font-size="10.00">Lexer::extractTokens</text>
</a>
</g>
</g>
<!-- Node6&#45;&gt;Node7 -->
<g id="edge44_Node000006_Node000007" class="edge">
<title>Node6&#45;&gt;Node7</title>
<g id="a_edge44_Node000006_Node000007"><a xlink:title=" ">
<path fill="none" stroke="#63b8ff" d="M289.74,-192.19C300.87,-190.82 312.66,-189.37 324.07,-187.96"/>
<polygon fill="#63b8ff" stroke="#63b8ff" points="324.31,-191.45 333.81,-186.75 323.46,-184.5 324.31,-191.45"/>
</a>
</g>
</g>
<!-- Node8 -->
<g id="Node000008" class="node">
<title>Node8</title>
<g id="a_Node000008"><a xlink:href="$_text_manager_8cpp.html#a46d952a72f09b33c8620f9978b962cee" xlink:title=" ">
<polygon fill="white" stroke="#666666" points="587.5,-348 503.25,-348 503.25,-328 587.5,-328 587.5,-348"/>
<text text-anchor="middle" x="545.38" y="-334.5" font-family="Helvetica,sans-Serif" font-size="10.00">beginsBySpace</text>
</a>
</g>
</g>
<!-- Node7&#45;&gt;Node8 -->
<g id="edge45_Node000007_Node000008" class="edge">
<title>Node7&#45;&gt;Node8</title>
<g id="a_edge45_Node000007_Node000008"><a xlink:title=" ">
<path fill="none" stroke="#63b8ff" d="M431.26,-190.48C435.65,-192.78 439.78,-195.59 443.25,-199 475.44,-230.66 451.23,-258.59 479.25,-294 488.25,-305.37 500.99,-314.88 512.83,-322.12"/>
<polygon fill="#63b8ff" stroke="#63b8ff" points="510.73,-324.95 521.14,-326.9 514.22,-318.88 510.73,-324.95"/>
</a>
</g>
</g>
<!-- Node10 -->
<g id="Node000010" class="node">
<title>Node10</title>
<g id="a_Node000010"><a xlink:href="$class_lexer.html#a38487c80f0fe8c7f35a2a495015945be" xlink:title=" ">
<polygon fill="white" stroke="#666666" points="609.25,-209 481.5,-209 481.5,-189 609.25,-189 609.25,-209"/>
<text text-anchor="middle" x="545.38" y="-195.5" font-family="Helvetica,sans-Serif" font-size="10.00">Lexer::extractStringLiteral</text>
</a>
</g>
</g>
<!-- Node7&#45;&gt;Node10 -->
<g id="edge47_Node000007_Node000010" class="edge">
<title>Node7&#45;&gt;Node10</title>
<g id="a_edge47_Node000007_Node000010"><a xlink:title=" ">
<path fill="none" stroke="#63b8ff" d="M443.46,-186.54C452.01,-187.6 461.01,-188.71 469.96,-189.81"/>
<polygon fill="#63b8ff" stroke="#63b8ff" points="469.38,-193.27 479.74,-191.02 470.24,-186.32 469.38,-193.27"/>
</a>
</g>
</g>
<!-- Node14 -->
<g id="Node000014" class="node">
<title>Node14</title>
<g id="a_Node000014"><a xlink:href="$class_lexer.html#a6d58c8a031d7f7dd28c3501984b4eab6" xlink:title=" ">
<polygon fill="white" stroke="#666666" points="756.5,-115 670.75,-115 670.75,-95 756.5,-95 756.5,-115"/>
<text text-anchor="middle" x="713.62" y="-101.5" font-family="Helvetica,sans-Serif" font-size="10.00">Lexer::getToken</text>
</a>
</g>
</g>
<!-- Node7&#45;&gt;Node14 -->
<g id="edge73_Node000007_Node000014" class="edge">
<title>Node7&#45;&gt;Node14</title>
<g id="a_edge73_Node000007_Node000014"><a xlink:title=" ">
<path fill="none" stroke="#63b8ff" d="M435.29,-169.57C493.88,-155.93 596.42,-132.06 659.05,-117.47"/>
<polygon fill="#63b8ff" stroke="#63b8ff" points="659.84,-120.88 668.79,-115.21 658.26,-114.06 659.84,-120.88"/>
</a>
</g>
</g>
<!-- Node25 -->
<g id="Node000025" class="node">
<title>Node25</title>
<g id="a_Node000025"><a xlink:href="$class_lexer.html#a6d27c5679af8fff9df7b0885ecceb9ac" xlink:title=" ">
<polygon fill="white" stroke="#666666" points="771.5,-171 655.75,-171 655.75,-151 771.5,-151 771.5,-171"/>
<text text-anchor="middle" x="713.62" y="-157.5" font-family="Helvetica,sans-Serif" font-size="10.00">Lexer::skipTokenString</text>
</a>
</g>
</g>
<!-- Node7&#45;&gt;Node25 -->
<g id="edge76_Node000007_Node000025" class="edge">
<title>Node7&#45;&gt;Node25</title>
<g id="a_edge76_Node000007_Node000025"><a xlink:title=" ">
<path fill="none" stroke="#63b8ff" d="M443.69,-176.86C498.5,-173.63 584.16,-168.58 644.04,-165.05"/>
<polygon fill="#63b8ff" stroke="#63b8ff" points="643.99,-168.55 653.77,-164.47 643.58,-161.57 643.99,-168.55"/>
</a>
</g>
</g>
<!-- Node28 -->
<g id="Node000028" class="node">
<title>Node28</title>
<g id="a_Node000028"><a xlink:href="$class_lexer.html#a243227232c190f441498270efa40ccb8" xlink:title=" ">
<polygon fill="white" stroke="#666666" points="611.5,-285 479.25,-285 479.25,-265 611.5,-265 611.5,-285"/>
<text text-anchor="middle" x="545.38" y="-271.5" font-family="Helvetica,sans-Serif" font-size="10.00">Lexer::getNextTokenString</text>
</a>
</g>
</g>
<!-- Node7&#45;&gt;Node28 -->
<g id="edge70_Node000007_Node000028" class="edge">
<title>Node7&#45;&gt;Node28</title>
<g id="a_edge70_Node000007_Node000028"><a xlink:title=" ">
<path fill="none" stroke="#63b8ff" d="M424.36,-190.49C430.78,-192.96 437.34,-195.81 443.25,-199 473.64,-215.41 504.86,-240.34 524.41,-257.13"/>
<polygon fill="#63b8ff" stroke="#63b8ff" points="522.05,-259.71 531.88,-263.65 526.65,-254.44 522.05,-259.71"/>
</a>
</g>
</g>
<!-- Node30 -->
<g id="Node000030" class="node">
<title>Node30</title>
<g id="a_Node000030"><a xlink:href="$_text_manager_8cpp.html#aa6913b7fe272fe20684f1c5c701d54d7" xlink:title=" ">
<polygon fill="white" stroke="#666666" points="576.25,-82 514.5,-82 514.5,-62 576.25,-62 576.25,-82"/>
<text text-anchor="middle" x="545.38" y="-68.5" font-family="Helvetica,sans-Serif" font-size="10.00">skipSpace</text>
</a>
</g>
</g>
<!-- Node7&#45;&gt;Node30 -->
<g id="edge74_Node000007_Node000030" class="edge">
<title>Node7&#45;&gt;Node30</title>
<g id="a_edge74_Node000007_Node000030"><a xlink:title=" ">
<path fill="none" stroke="#63b8ff" d="M401.05,-169.65C417.05,-154.31 448.82,-125.17 479.25,-105 488.89,-98.61 499.94,-92.58 510.17,-87.46"/>
<polygon fill="#63b8ff" stroke="#63b8ff" points="511.59,-90.66 519.07,-83.15 508.54,-84.36 511.59,-90.66"/>
</a>
</g>
</g>
<!-- Node9 -->
<g id="Node000009" class="node">
<title>Node9</title>
<g id="a_Node000009"><a xlink:href="$_text_manager_8cpp.html#aa18ab3a474aba30784c5521be8a7da65" xlink:title=" ">
<polygon fill="white" stroke="#666666" points="763.62,-373 663.62,-373 663.62,-353 763.62,-353 763.62,-373"/>
<text text-anchor="middle" x="713.62" y="-359.5" font-family="Helvetica,sans-Serif" font-size="10.00">beginsBySequence</text>
</a>
</g>
</g>
<!-- Node8&#45;&gt;Node9 -->
<g id="edge46_Node000008_Node000009" class="edge">
<title>Node8&#45;&gt;Node9</title>
<g id="a_edge46_Node000008_Node000009"><a xlink:title=" ">
<path fill="none" stroke="#63b8ff" d="M587.9,-344.24C607.3,-347.16 630.78,-350.69 652.11,-353.9"/>
<polygon fill="#63b8ff" stroke="#63b8ff" points="651.46,-357.34 661.86,-355.37 652.5,-350.42 651.46,-357.34"/>
</a>
</g>
</g>
<!-- Node11 -->
<g id="Node000011" class="node">
<title>Node11</title>
<g id="a_Node000011"><a xlink:href="$_token_8cpp.html#a426cbd25cc7742ac6cface09364031ba" xlink:title=" ">
<polygon fill="white" stroke="#666666" points="754.25,-247 673,-247 673,-227 754.25,-227 754.25,-247"/>
<text text-anchor="middle" x="713.62" y="-233.5" font-family="Helvetica,sans-Serif" font-size="10.00">getStringLiteral</text>
</a>
</g>
</g>
<!-- Node10&#45;&gt;Node11 -->
<g id="edge48_Node000010_Node000011" class="edge">
<title>Node10&#45;&gt;Node11</title>
<g id="a_edge48_Node000010_Node000011"><a xlink:title=" ">
<path fill="none" stroke="#63b8ff" d="M592.24,-209.48C613.69,-214.39 639.3,-220.24 661.38,-225.29"/>
<polygon fill="#63b8ff" stroke="#63b8ff" points="660.56,-228.69 671.09,-227.51 662.12,-221.86 660.56,-228.69"/>
</a>
</g>
</g>
<!-- Node10&#45;&gt;Node14 -->
<g id="edge51_Node000010_Node000014" class="edge">
<title>Node10&#45;&gt;Node14</title>
<g id="a_edge51_Node000010_Node000014"><a xlink:title=" ">
<path fill="none" stroke="#63b8ff" d="M564.8,-188.58C593.76,-172.21 650.14,-140.33 684.29,-121.02"/>
<polygon fill="#63b8ff" stroke="#63b8ff" points="685.82,-124.18 692.8,-116.21 682.37,-118.09 685.82,-124.18"/>
</a>
</g>
</g>
<!-- Node23 -->
<g id="Node000023" class="node">
<title>Node23</title>
<g id="a_Node000023"><a xlink:href="$_text_manager_8cpp.html#a053e0b36b2796cc4d128150353f13449" xlink:title=" ">
<polygon fill="white" stroke="#666666" points="909.38,-209 831.88,-209 831.88,-189 909.38,-189 909.38,-209"/>
<text text-anchor="middle" x="870.62" y="-195.5" font-family="Helvetica,sans-Serif" font-size="10.00">skipSequence</text>
</a>
</g>
</g>
<!-- Node10&#45;&gt;Node23 -->
<g id="edge61_Node000010_Node000023" class="edge">
<title>Node10&#45;&gt;Node23</title>
<g id="a_edge61_Node000010_Node000023"><a xlink:title=" ">
<path fill="none" stroke="#63b8ff" d="M609.47,-199C671.05,-199 763.49,-199 820,-199"/>
<polygon fill="#63b8ff" stroke="#63b8ff" points="819.97,-202.5 829.97,-199 819.97,-195.5 819.97,-202.5"/>
</a>
</g>
</g>
<!-- Node10&#45;&gt;Node25 -->
<g id="edge64_Node000010_Node000025" class="edge">
<title>Node10&#45;&gt;Node25</title>
<g id="a_edge64_Node000010_Node000025"><a xlink:title=" ">
<path fill="none" stroke="#63b8ff" d="M592.24,-188.52C611.87,-184.03 634.99,-178.75 655.69,-174.01"/>
<polygon fill="#63b8ff" stroke="#63b8ff" points="656.46,-177.43 665.43,-171.79 654.9,-170.6 656.46,-177.43"/>
</a>
</g>
</g>
<!-- Node12 -->
<g id="Node000012" class="node">
<title>Node12</title>
<g id="a_Node000012"><a xlink:href="$_text_manager_8cpp.html#aff8311b88dbf5f3091f3ac1262543242" xlink:title=" ">
<polygon fill="white" stroke="#666666" points="912.38,-247 828.88,-247 828.88,-227 912.38,-227 912.38,-247"/>
<text text-anchor="middle" x="870.62" y="-233.5" font-family="Helvetica,sans-Serif" font-size="10.00">getStringBefore</text>
</a>
</g>
</g>
<!-- Node11&#45;&gt;Node12 -->
<g id="edge49_Node000011_Node000012" class="edge">
<title>Node11&#45;&gt;Node12</title>
<g id="a_edge49_Node000011_Node000012"><a xlink:title=" ">
<path fill="none" stroke="#63b8ff" d="M754.54,-237C773.6,-237 796.66,-237 817.12,-237"/>
<polygon fill="#63b8ff" stroke="#63b8ff" points="816.98,-240.5 826.98,-237 816.98,-233.5 816.98,-240.5"/>
</a>
</g>
</g>
<!-- Node13 -->
<g id="Node000013" class="node">
<title>Node13</title>
<g id="a_Node000013"><a xlink:href="$_text_manager_8cpp.html#a3f4afb2b62acd297e783a22ffa9a7000" xlink:title=" ">
<polygon fill="white" stroke="#666666" points="1176.5,-209 1086.25,-209 1086.25,-189 1176.5,-189 1176.5,-209"/>
<text text-anchor="middle" x="1131.38" y="-195.5" font-family="Helvetica,sans-Serif" font-size="10.00">getSequencePos</text>
</a>
</g>
</g>
<!-- Node12&#45;&gt;Node13 -->
<g id="edge50_Node000012_Node000013" class="edge">
<title>Node12&#45;&gt;Node13</title>
<g id="a_edge50_Node000012_Node000013"><a xlink:title=" ">
<path fill="none" stroke="#63b8ff" d="M912.62,-234.13C948.96,-231.23 1003.37,-226.02 1050.25,-218 1059.77,-216.37 1069.85,-214.28 1079.52,-212.08"/>
<polygon fill="#63b8ff" stroke="#63b8ff" points="1080.23,-215.51 1089.17,-209.82 1078.63,-208.7 1080.23,-215.51"/>
</a>
</g>
</g>
<!-- Node14&#45;&gt;Node14 -->
<g id="edge52_Node000014_Node000014" class="edge">
<title>Node14&#45;&gt;Node14</title>
<g id="a_edge52_Node000014_Node000014"><a xlink:title=" ">
<path fill="none" stroke="#63b8ff" d="M688.68,-115.34C678.02,-123.98 686.33,-133 713.62,-133 728.55,-133 737.8,-130.3 741.37,-126.44"/>
<polygon fill="#63b8ff" stroke="#63b8ff" points="744.78,-125.65 738.94,-116.81 738,-127.36 744.78,-125.65"/>
</a>
</g>
</g>
<!-- Node15 -->
<g id="Node000015" class="node">
<title>Node15</title>
<g id="a_Node000015"><a xlink:href="$class_lexer.html#a142bd017adf2e3df1522e0cce7a3fb0c" xlink:title=" ">
<polygon fill="white" stroke="#666666" points="925.5,-115 815.75,-115 815.75,-95 925.5,-95 925.5,-115"/>
<text text-anchor="middle" x="870.62" y="-101.5" font-family="Helvetica,sans-Serif" font-size="10.00">Lexer::getTokenValue</text>
</a>
</g>
</g>
<!-- Node14&#45;&gt;Node15 -->
<g id="edge53_Node000014_Node000015" class="edge">
<title>Node14&#45;&gt;Node15</title>
<g id="a_edge53_Node000014_Node000015"><a xlink:title=" ">
<path fill="none" stroke="#63b8ff" d="M756.98,-105C771.48,-105 788.06,-105 803.96,-105"/>
<polygon fill="#63b8ff" stroke="#63b8ff" points="803.86,-108.5 813.86,-105 803.86,-101.5 803.86,-108.5"/>
</a>
</g>
</g>
<!-- Node16 -->
<g id="Node000016" class="node">
<title>Node16</title>
<g id="a_Node000016"><a xlink:href="$_lexer_8cpp.html#a32fa5cbc79c968c5b53e8303ad77091d" xlink:title=" ">
<polygon fill="white" stroke="#666666" points="1036.38,-77 975.38,-77 975.38,-57 1036.38,-57 1036.38,-77"/>
<text text-anchor="middle" x="1005.88" y="-63.5" font-family="Helvetica,sans-Serif" font-size="10.00">isIdentifier</text>
</a>
</g>
</g>
<!-- Node15&#45;&gt;Node16 -->
<g id="edge54_Node000015_Node000016" class="edge">
<title>Node15&#45;&gt;Node16</title>
<g id="a_edge54_Node000015_Node000016"><a xlink:title=" ">
<path fill="none" stroke="#63b8ff" d="M908.39,-94.52C925.66,-89.59 946.3,-83.7 964.06,-78.64"/>
<polygon fill="#63b8ff" stroke="#63b8ff" points="964.85,-82.05 973.51,-75.95 962.93,-75.32 964.85,-82.05"/>
</a>
</g>
</g>
<!-- Node22 -->
<g id="Node000022" class="node">
<title>Node22</title>
<g id="a_Node000022"><a xlink:href="$_lexer_8cpp.html#aaa3b01d6b7b6b5bf4b868b37fcf3ac6f" xlink:title=" ">
<polygon fill="white" stroke="#666666" points="1034.88,-115 976.88,-115 976.88,-95 1034.88,-95 1034.88,-115"/>
<text text-anchor="middle" x="1005.88" y="-101.5" font-family="Helvetica,sans-Serif" font-size="10.00">isNumber</text>
</a>
</g>
</g>
<!-- Node15&#45;&gt;Node22 -->
<g id="edge60_Node000015_Node000022" class="edge">
<title>Node15&#45;&gt;Node22</title>
<g id="a_edge60_Node000015_Node000022"><a xlink:title=" ">
<path fill="none" stroke="#63b8ff" d="M925.82,-105C939.04,-105 952.93,-105 965.31,-105"/>
<polygon fill="#63b8ff" stroke="#63b8ff" points="965.14,-108.5 975.14,-105 965.14,-101.5 965.14,-108.5"/>
</a>
</g>
</g>
<!-- Node17 -->
<g id="Node000017" class="node">
<title>Node17</title>
<g id="a_Node000017"><a xlink:href="$_token_8cpp.html#ad42767aaf8252eb57581d009530bd527" xlink:title=" ">
<polygon fill="white" stroke="#666666" points="1169,-77 1093.75,-77 1093.75,-57 1169,-57 1169,-77"/>
<text text-anchor="middle" x="1131.38" y="-63.5" font-family="Helvetica,sans-Serif" font-size="10.00">isTokenString</text>
</a>
</g>
</g>
<!-- Node16&#45;&gt;Node17 -->
<g id="edge55_Node000016_Node000017" class="edge">
<title>Node16&#45;&gt;Node17</title>
<g id="a_edge55_Node000016_Node000017"><a xlink:title=" ">
<path fill="none" stroke="#63b8ff" d="M1036.77,-67C1050.42,-67 1066.94,-67 1082.27,-67"/>
<polygon fill="#63b8ff" stroke="#63b8ff" points="1082.18,-70.5 1092.18,-67 1082.18,-63.5 1082.18,-70.5"/>
</a>
</g>
</g>
<!-- Node18 -->
<g id="Node000018" class="node">
<title>Node18</title>
<g id="a_Node000018"><a xlink:href="$_token_8cpp.html#a3276e6efe4a3f409262ffe0b345e9636" xlink:title=" ">
<polygon fill="white" stroke="#666666" points="1306.5,-134 1219.25,-134 1219.25,-114 1306.5,-114 1306.5,-134"/>
<text text-anchor="middle" x="1262.88" y="-120.5" font-family="Helvetica,sans-Serif" font-size="10.00">isKeywordString</text>
</a>
</g>
</g>
<!-- Node17&#45;&gt;Node18 -->
<g id="edge56_Node000017_Node000018" class="edge">
<title>Node17&#45;&gt;Node18</title>
<g id="a_edge56_Node000017_Node000018"><a xlink:title=" ">
<path fill="none" stroke="#63b8ff" d="M1153.26,-77.44C1169.32,-85.33 1192.12,-96.26 1212.5,-105 1215.88,-106.45 1219.4,-107.91 1222.95,-109.34"/>
<polygon fill="#63b8ff" stroke="#63b8ff" points="1221.53,-112.54 1232.12,-112.96 1224.1,-106.03 1221.53,-112.54"/>
</a>
</g>
</g>
<!-- Node19 -->
<g id="Node000019" class="node">
<title>Node19</title>
<g id="a_Node000019"><a xlink:href="$_token_8cpp.html#ae8bab56314c8b787497a84c189b9114d" xlink:title=" ">
<polygon fill="white" stroke="#666666" points="1300.5,-96 1225.25,-96 1225.25,-76 1300.5,-76 1300.5,-96"/>
<text text-anchor="middle" x="1262.88" y="-82.5" font-family="Helvetica,sans-Serif" font-size="10.00">isLiteralString</text>
</a>
</g>
</g>
<!-- Node17&#45;&gt;Node19 -->
<g id="edge57_Node000017_Node000019" class="edge">
<title>Node17&#45;&gt;Node19</title>
<g id="a_edge57_Node000017_Node000019"><a xlink:title=" ">
<path fill="none" stroke="#63b8ff" d="M1169.48,-72.44C1183.17,-74.45 1198.88,-76.76 1213.41,-78.89"/>
<polygon fill="#63b8ff" stroke="#63b8ff" points="1212.86,-82.35 1223.26,-80.33 1213.88,-75.42 1212.86,-82.35"/>
</a>
</g>
</g>
<!-- Node20 -->
<g id="Node000020" class="node">
<title>Node20</title>
<g id="a_Node000020"><a xlink:href="$_token_8cpp.html#ae80d3823673e42ed3ce7e84597bbd552" xlink:title=" ">
<polygon fill="white" stroke="#666666" points="1306.12,-58 1219.62,-58 1219.62,-38 1306.12,-38 1306.12,-58"/>
<text text-anchor="middle" x="1262.88" y="-44.5" font-family="Helvetica,sans-Serif" font-size="10.00">isOperatorString</text>
</a>
</g>
</g>
<!-- Node17&#45;&gt;Node20 -->
<g id="edge58_Node000017_Node000020" class="edge">
<title>Node17&#45;&gt;Node20</title>
<g id="a_edge58_Node000017_Node000020"><a xlink:title=" ">
<path fill="none" stroke="#63b8ff" d="M1169.48,-61.56C1181.51,-59.79 1195.1,-57.8 1208.08,-55.89"/>
<polygon fill="#63b8ff" stroke="#63b8ff" points="1208.4,-59.38 1217.78,-54.47 1207.38,-52.46 1208.4,-59.38"/>
</a>
</g>
</g>
<!-- Node21 -->
<g id="Node000021" class="node">
<title>Node21</title>
<g id="a_Node000021"><a xlink:href="$_token_8cpp.html#ad93eecc58b3fdba57ba605dcb296f03e" xlink:title=" ">
<polygon fill="white" stroke="#666666" points="1313.25,-20 1212.5,-20 1212.5,0 1313.25,0 1313.25,-20"/>
<text text-anchor="middle" x="1262.88" y="-6.5" font-family="Helvetica,sans-Serif" font-size="10.00">isPunctuationString</text>
</a>
</g>
</g>
<!-- Node17&#45;&gt;Node21 -->
<g id="edge59_Node000017_Node000021" class="edge">
<title>Node17&#45;&gt;Node21</title>
<g id="a_edge59_Node000017_Node000021"><a xlink:title=" ">
<path fill="none" stroke="#63b8ff" d="M1153.26,-56.56C1169.32,-48.67 1192.12,-37.74 1212.5,-29 1215.88,-27.55 1219.4,-26.09 1222.95,-24.66"/>
<polygon fill="#63b8ff" stroke="#63b8ff" points="1224.1,-27.97 1232.12,-21.04 1221.53,-21.46 1224.1,-27.97"/>
</a>
</g>
</g>
<!-- Node24 -->
<g id="Node000024" class="node">
<title>Node24</title>
<g id="a_Node000024"><a xlink:href="$_text_manager_8cpp.html#a5b66873abcff2faee361721f86b65dd0" xlink:title=" ">
<polygon fill="white" stroke="#666666" points="1039.75,-209 972,-209 972,-189 1039.75,-189 1039.75,-209"/>
<text text-anchor="middle" x="1005.88" y="-195.5" font-family="Helvetica,sans-Serif" font-size="10.00">getPosAfter</text>
</a>
</g>
</g>
<!-- Node23&#45;&gt;Node24 -->
<g id="edge62_Node000023_Node000024" class="edge">
<title>Node23&#45;&gt;Node24</title>
<g id="a_edge62_Node000023_Node000024"><a xlink:title=" ">
<path fill="none" stroke="#63b8ff" d="M909.81,-199C925.53,-199 943.85,-199 960.18,-199"/>
<polygon fill="#63b8ff" stroke="#63b8ff" points="960.15,-202.5 970.15,-199 960.15,-195.5 960.15,-202.5"/>
</a>
</g>
</g>
<!-- Node24&#45;&gt;Node13 -->
<g id="edge63_Node000024_Node000013" class="edge">
<title>Node24&#45;&gt;Node13</title>
<g id="a_edge63_Node000024_Node000013"><a xlink:title=" ">
<path fill="none" stroke="#63b8ff" d="M1039.97,-199C1050.69,-199 1062.89,-199 1074.79,-199"/>
<polygon fill="#63b8ff" stroke="#63b8ff" points="1074.52,-202.5 1084.52,-199 1074.52,-195.5 1074.52,-202.5"/>
</a>
</g>
</g>
<!-- Node26 -->
<g id="Node000026" class="node">
<title>Node26</title>
<g id="a_Node000026"><a xlink:href="$_text_manager_8cpp.html#a6956d58559ef67f422247fdeb1c22775" xlink:title=" ">
<polygon fill="white" stroke="#666666" points="908.62,-171 832.62,-171 832.62,-151 908.62,-151 908.62,-171"/>
<text text-anchor="middle" x="870.62" y="-157.5" font-family="Helvetica,sans-Serif" font-size="10.00">getStringAfter</text>
</a>
</g>
</g>
<!-- Node25&#45;&gt;Node26 -->
<g id="edge65_Node000025_Node000026" class="edge">
<title>Node25&#45;&gt;Node26</title>
<g id="a_edge65_Node000025_Node000026"><a xlink:title=" ">
<path fill="none" stroke="#63b8ff" d="M771.9,-161C787.98,-161 805.31,-161 820.85,-161"/>
<polygon fill="#63b8ff" stroke="#63b8ff" points="820.81,-164.5 830.81,-161 820.81,-157.5 820.81,-164.5"/>
</a>
</g>
</g>
<!-- Node26&#45;&gt;Node24 -->
<g id="edge66_Node000026_Node000024" class="edge">
<title>Node26&#45;&gt;Node24</title>
<g id="a_edge66_Node000026_Node000024"><a xlink:title=" ">
<path fill="none" stroke="#63b8ff" d="M908.39,-171.48C924.69,-176.13 944,-181.64 961.05,-186.5"/>
<polygon fill="#63b8ff" stroke="#63b8ff" points="959.84,-189.8 970.42,-189.17 961.76,-183.06 959.84,-189.8"/>
</a>
</g>
</g>
<!-- Node27 -->
<g id="Node000027" class="node">
<title>Node27</title>
<g id="a_Node000027"><a xlink:href="$_text_manager_8cpp.html#a2946b90fb3df56b0a74d53eb4160f4e2" xlink:title=" ">
<polygon fill="white" stroke="#666666" points="1050.25,-153 961.5,-153 961.5,-133 1050.25,-133 1050.25,-153"/>
<text text-anchor="middle" x="1005.88" y="-139.5" font-family="Helvetica,sans-Serif" font-size="10.00">getStringStarting</text>
</a>
</g>
</g>
<!-- Node26&#45;&gt;Node27 -->
<g id="edge67_Node000026_Node000027" class="edge">
<title>Node26&#45;&gt;Node27</title>
<g id="a_edge67_Node000026_Node000027"><a xlink:title=" ">
<path fill="none" stroke="#63b8ff" d="M909.1,-155.94C921.73,-154.23 936.1,-152.29 949.79,-150.44"/>
<polygon fill="#63b8ff" stroke="#63b8ff" points="950.15,-153.92 959.59,-149.12 949.21,-146.99 950.15,-153.92"/>
</a>
</g>
</g>
<!-- Node27&#45;&gt;Node13 -->
<g id="edge68_Node000027_Node000013" class="edge">
<title>Node27&#45;&gt;Node13</title>
<g id="a_edge68_Node000027_Node000013"><a xlink:title=" ">
<path fill="none" stroke="#63b8ff" d="M1029.81,-153.4C1048.79,-162.01 1075.99,-174.34 1097.32,-184.01"/>
<polygon fill="#63b8ff" stroke="#63b8ff" points="1095.63,-187.09 1106.18,-188.03 1098.52,-180.71 1095.63,-187.09"/>
</a>
</g>
</g>
<!-- Node27&#45;&gt;Node27 -->
<g id="edge69_Node000027_Node000027" class="edge">
<title>Node27&#45;&gt;Node27</title>
<g id="a_edge69_Node000027_Node000027"><a xlink:title=" ">
<path fill="none" stroke="#63b8ff" d="M985.93,-153.34C977.41,-161.98 984.06,-171 1005.88,-171 1017.81,-171 1025.2,-168.3 1028.06,-164.44"/>
<polygon fill="#63b8ff" stroke="#63b8ff" points="1031.52,-163.93 1026.12,-154.82 1024.66,-165.32 1031.52,-163.93"/>
</a>
</g>
</g>
<!-- Node28&#45;&gt;Node12 -->
<g id="edge72_Node000028_Node000012" class="edge">
<title>Node28&#45;&gt;Node12</title>
<g id="a_edge72_Node000028_Node000012"><a xlink:title=" ">
<path fill="none" stroke="#63b8ff" d="M611.76,-271.9C658.69,-269.14 723.33,-264.23 779.75,-256 792.07,-254.2 805.24,-251.73 817.59,-249.17"/>
<polygon fill="#63b8ff" stroke="#63b8ff" points="818.13,-252.64 827.18,-247.12 816.67,-245.79 818.13,-252.64"/>
</a>
</g>
</g>
<!-- Node29 -->
<g id="Node000029" class="node">
<title>Node29</title>
<g id="a_Node000029"><a xlink:href="$class_lexer.html#aeea59528280fc24aaf8a24d0182df826" xlink:title=" ">
<polygon fill="white" stroke="#666666" points="779.75,-335 647.5,-335 647.5,-303 779.75,-303 779.75,-335"/>
<text text-anchor="start" x="655.5" y="-321.5" font-family="Helvetica,sans-Serif" font-size="10.00">Lexer::getNextPunctuation</text>
<text text-anchor="middle" x="713.62" y="-309.5" font-family="Helvetica,sans-Serif" font-size="10.00">Token</text>
</a>
</g>
</g>
<!-- Node28&#45;&gt;Node29 -->
<g id="edge71_Node000028_Node000029" class="edge">
<title>Node28&#45;&gt;Node29</title>
<g id="a_edge71_Node000028_Node000029"><a xlink:title=" ">
<path fill="none" stroke="#63b8ff" d="M585.77,-285.43C601.83,-289.68 620.93,-294.73 639.38,-299.61"/>
<polygon fill="#63b8ff" stroke="#63b8ff" points="638.41,-302.98 648.97,-302.15 640.2,-296.21 638.41,-302.98"/>
</a>
</g>
</g>
<!-- Node31 -->
<g id="Node000031" class="node">
<title>Node31</title>
<g id="a_Node000031"><a xlink:href="$_text_manager_8cpp.html#ae58f22c7238c63a9ffd8ac0f9fb36216" xlink:title=" ">
<polygon fill="white" stroke="#666666" points="761,-77 666.25,-77 666.25,-57 761,-57 761,-77"/>
<text text-anchor="middle" x="713.62" y="-63.5" font-family="Helvetica,sans-Serif" font-size="10.00">skipAnySequence</text>
</a>
</g>
</g>
<!-- Node30&#45;&gt;Node31 -->
<g id="edge75_Node000030_Node000031" class="edge">
<title>Node30&#45;&gt;Node31</title>
<g id="a_edge75_Node000030_Node000031"><a xlink:title=" ">
<path fill="none" stroke="#63b8ff" d="M576.48,-71.09C598.16,-70.44 628.1,-69.54 654.39,-68.75"/>
<polygon fill="#63b8ff" stroke="#63b8ff" points="654.37,-72.25 664.26,-68.45 654.16,-65.26 654.37,-72.25"/>
</a>
</g>
</g>
</g>
</svg>
