<?xml version="1.0" encoding="UTF-8" standalone="no"?>
<!DOCTYPE svg PUBLIC "-//W3C//DTD SVG 1.1//EN"
 "http://www.w3.org/Graphics/SVG/1.1/DTD/svg11.dtd">
<!-- Generated by graphviz version 12.2.0 (20241103.1931)
 -->
<!-- Title: MainToken::addTokens Pages: 1 -->
<svg width="1300pt" height="595pt"
 viewBox="0.00 0.00 1300.00 595.00" xmlns="http://www.w3.org/2000/svg" xmlns:xlink="http://www.w3.org/1999/xlink">
<g id="graph0" class="graph" transform="scale(1 1) rotate(0) translate(4 591)">
<title>MainToken::addTokens</title>
<!-- Node1 -->
<g id="Node000001" class="node">
<title>Node1</title>
<g id="a_Node000001"><a xlink:title=" ">
<polygon fill="#999999" stroke="#666666" points="116.5,-439 0,-439 0,-419 116.5,-419 116.5,-439"/>
<text text-anchor="middle" x="58.25" y="-425.5" font-family="Helvetica,sans-Serif" font-size="10.00">MainToken::addTokens</text>
</a>
</g>
</g>
<!-- Node2 -->
<g id="Node000002" class="node">
<title>Node2</title>
<g id="a_Node000002"><a xlink:href="$class_flow_p_k_token.html#a03998327bfce2d536cf666aaa29950da" xlink:title=" ">
<polygon fill="white" stroke="#666666" points="282.5,-439 152.5,-439 152.5,-419 282.5,-419 282.5,-439"/>
<text text-anchor="middle" x="217.5" y="-425.5" font-family="Helvetica,sans-Serif" font-size="10.00">FlowPKToken::addTokens</text>
</a>
</g>
</g>
<!-- Node1&#45;&gt;Node2 -->
<g id="edge42_Node000001_Node000002" class="edge">
<title>Node1&#45;&gt;Node2</title>
<g id="a_edge42_Node000001_Node000002"><a xlink:title=" ">
<path fill="none" stroke="#63b8ff" d="M116.91,-429C124.72,-429 132.82,-429 140.88,-429"/>
<polygon fill="#63b8ff" stroke="#63b8ff" points="140.7,-432.5 150.7,-429 140.7,-425.5 140.7,-432.5"/>
</a>
</g>
</g>
<!-- Node3 -->
<g id="Node000003" class="node">
<title>Node3</title>
<g id="a_Node000003"><a xlink:href="$class_flow_token.html#abb30bac4dada1a3372776680719d517c" xlink:title=" ">
<polygon fill="white" stroke="#666666" points="763.62,-587 656.12,-587 656.12,-567 763.62,-567 763.62,-587"/>
<text text-anchor="middle" x="709.88" y="-573.5" font-family="Helvetica,sans-Serif" font-size="10.00">FlowToken::addBody</text>
</a>
</g>
</g>
<!-- Node2&#45;&gt;Node3 -->
<g id="edge43_Node000002_Node000003" class="edge">
<title>Node2&#45;&gt;Node3</title>
<g id="a_edge43_Node000002_Node000003"><a xlink:title=" ">
<path fill="none" stroke="#63b8ff" d="M252.98,-439.41C339.49,-465.51 565.72,-533.79 663.15,-563.2"/>
<polygon fill="#63b8ff" stroke="#63b8ff" points="662.07,-566.53 672.65,-566.07 664.09,-559.83 662.07,-566.53"/>
</a>
</g>
</g>
<!-- Node13 -->
<g id="Node000013" class="node">
<title>Node13</title>
<g id="a_Node000013"><a xlink:href="$class_p_k_token.html#a533aa21d507b12c9682e3babc83c4396" xlink:title=" ">
<polygon fill="white" stroke="#666666" points="427.5,-420 318.5,-420 318.5,-400 427.5,-400 427.5,-420"/>
<text text-anchor="middle" x="373" y="-406.5" font-family="Helvetica,sans-Serif" font-size="10.00">PKToken::addTokens</text>
</a>
</g>
</g>
<!-- Node2&#45;&gt;Node13 -->
<g id="edge56_Node000002_Node000013" class="edge">
<title>Node2&#45;&gt;Node13</title>
<g id="a_edge56_Node000002_Node000013"><a xlink:title=" ">
<path fill="none" stroke="#63b8ff" d="M282.71,-421.05C290.75,-420.06 298.98,-419.04 307.03,-418.04"/>
<polygon fill="#63b8ff" stroke="#63b8ff" points="307.26,-421.54 316.76,-416.84 306.4,-414.59 307.26,-421.54"/>
</a>
</g>
</g>
<!-- Node4 -->
<g id="Node000004" class="node">
<title>Node4</title>
<g id="a_Node000004"><a xlink:href="$class_flow_token.html#adf13c232a8b5279ae0027df6859fdd12" xlink:title=" ">
<polygon fill="white" stroke="#666666" points="966.75,-587 818.75,-587 818.75,-567 966.75,-567 966.75,-587"/>
<text text-anchor="middle" x="892.75" y="-573.5" font-family="Helvetica,sans-Serif" font-size="10.00">FlowToken::addNestedTokens</text>
</a>
</g>
</g>
<!-- Node3&#45;&gt;Node4 -->
<g id="edge44_Node000003_Node000004" class="edge">
<title>Node3&#45;&gt;Node4</title>
<g id="a_edge44_Node000003_Node000004"><a xlink:title=" ">
<path fill="none" stroke="#63b8ff" d="M763.68,-577C777.3,-577 792.32,-577 807.13,-577"/>
<polygon fill="#63b8ff" stroke="#63b8ff" points="806.87,-580.5 816.87,-577 806.87,-573.5 806.87,-580.5"/>
</a>
</g>
</g>
<!-- Node11 -->
<g id="Node000011" class="node">
<title>Node11</title>
<g id="a_Node000011"><a xlink:href="$class_flow_token.html#a7403770ae8bbe3efb6ec95608a5318be" xlink:title=" ">
<polygon fill="white" stroke="#666666" points="941.62,-511 843.88,-511 843.88,-491 941.62,-491 941.62,-511"/>
<text text-anchor="middle" x="892.75" y="-497.5" font-family="Helvetica,sans-Serif" font-size="10.00">FlowToken::addOb</text>
</a>
</g>
</g>
<!-- Node3&#45;&gt;Node11 -->
<g id="edge51_Node000003_Node000011" class="edge">
<title>Node3&#45;&gt;Node11</title>
<g id="a_edge51_Node000003_Node000011"><a xlink:title=" ">
<path fill="none" stroke="#63b8ff" d="M735.65,-566.59C766.95,-553.44 821.02,-530.72 856.59,-515.77"/>
<polygon fill="#63b8ff" stroke="#63b8ff" points="857.73,-519.09 865.59,-511.99 855.02,-512.64 857.73,-519.09"/>
</a>
</g>
</g>
<!-- Node5 -->
<g id="Node000005" class="node">
<title>Node5</title>
<g id="a_Node000005"><a xlink:href="$class_flow_token.html#a1bbf1118c555638aca5acb0e758f8c87" xlink:title=" ">
<polygon fill="white" stroke="#666666" points="1121.5,-587 1023.75,-587 1023.75,-567 1121.5,-567 1121.5,-587"/>
<text text-anchor="middle" x="1072.62" y="-573.5" font-family="Helvetica,sans-Serif" font-size="10.00">FlowToken::addCb</text>
</a>
</g>
</g>
<!-- Node4&#45;&gt;Node5 -->
<g id="edge45_Node000004_Node000005" class="edge">
<title>Node4&#45;&gt;Node5</title>
<g id="a_edge45_Node000004_Node000005"><a xlink:title=" ">
<path fill="none" stroke="#63b8ff" d="M967.13,-577C982.08,-577 997.63,-577 1012.03,-577"/>
<polygon fill="#63b8ff" stroke="#63b8ff" points="1011.79,-580.5 1021.79,-577 1011.79,-573.5 1011.79,-580.5"/>
</a>
</g>
</g>
<!-- Node7 -->
<g id="Node000007" class="node">
<title>Node7</title>
<g id="a_Node000007"><a xlink:href="$class_flow_token.html#a3a3cb964ee95cd5e565a009e4d6aabca" xlink:title=" ">
<polygon fill="white" stroke="#666666" points="1125.62,-549 1019.62,-549 1019.62,-529 1125.62,-529 1125.62,-549"/>
<text text-anchor="middle" x="1072.62" y="-535.5" font-family="Helvetica,sans-Serif" font-size="10.00">FlowToken::addError</text>
</a>
</g>
</g>
<!-- Node4&#45;&gt;Node7 -->
<g id="edge47_Node000004_Node000007" class="edge">
<title>Node4&#45;&gt;Node7</title>
<g id="a_edge47_Node000004_Node000007"><a xlink:title=" ">
<path fill="none" stroke="#63b8ff" d="M942.83,-566.52C964.11,-561.97 989.25,-556.6 1011.63,-551.82"/>
<polygon fill="#63b8ff" stroke="#63b8ff" points="1012.18,-555.28 1021.23,-549.77 1010.72,-548.43 1012.18,-555.28"/>
</a>
</g>
</g>
<!-- Node9 -->
<g id="Node000009" class="node">
<title>Node9</title>
<g id="a_Node000009"><a xlink:href="$class_iterator_list.html#a4acf162e4a194bddd3c2fe26b073f45a" xlink:title=" ">
<polygon fill="white" stroke="#666666" points="1135,-511 1010.25,-511 1010.25,-491 1135,-491 1135,-511"/>
<text text-anchor="middle" x="1072.62" y="-497.5" font-family="Helvetica,sans-Serif" font-size="10.00">IteratorList::currentToken</text>
</a>
</g>
</g>
<!-- Node4&#45;&gt;Node9 -->
<g id="edge49_Node000004_Node000009" class="edge">
<title>Node4&#45;&gt;Node9</title>
<g id="a_edge49_Node000004_Node000009"><a xlink:title=" ">
<path fill="none" stroke="#63b8ff" d="M935.61,-566.6C946.16,-563.09 957.19,-558.6 966.75,-553 985.48,-542.03 983.76,-530.51 1002.75,-520 1005.75,-518.34 1008.9,-516.82 1012.14,-515.42"/>
<polygon fill="#63b8ff" stroke="#63b8ff" points="1013.18,-518.77 1021.27,-511.93 1010.68,-512.23 1013.18,-518.77"/>
</a>
</g>
</g>
<!-- Node10 -->
<g id="Node000010" class="node">
<title>Node10</title>
<g id="a_Node000010"><a xlink:href="$class_iterator_list.html#a2ebc1118094754b7d333b0a9d257d12b" xlink:title=" ">
<polygon fill="white" stroke="#666666" points="1120,-473 1025.25,-473 1025.25,-453 1120,-453 1120,-473"/>
<text text-anchor="middle" x="1072.62" y="-459.5" font-family="Helvetica,sans-Serif" font-size="10.00">IteratorList::ended</text>
</a>
</g>
</g>
<!-- Node4&#45;&gt;Node10 -->
<g id="edge50_Node000004_Node000010" class="edge">
<title>Node4&#45;&gt;Node10</title>
<g id="a_edge50_Node000004_Node000010"><a xlink:title=" ">
<path fill="none" stroke="#63b8ff" d="M908.25,-566.67C923.36,-555.69 947.47,-537.52 966.75,-520 983.97,-504.35 982.81,-493.98 1002.75,-482 1006.37,-479.83 1010.24,-477.9 1014.23,-476.19"/>
<polygon fill="#63b8ff" stroke="#63b8ff" points="1015.45,-479.46 1023.58,-472.67 1012.99,-472.91 1015.45,-479.46"/>
</a>
</g>
</g>
<!-- Node6 -->
<g id="Node000006" class="node">
<title>Node6</title>
<g id="a_Node000006"><a xlink:href="$class_flow_token.html#adca9213b63d564c72ec40a97f0af8210" xlink:title=" ">
<polygon fill="white" stroke="#666666" points="1290.88,-587 1179.62,-587 1179.62,-567 1290.88,-567 1290.88,-587"/>
<text text-anchor="middle" x="1235.25" y="-573.5" font-family="Helvetica,sans-Serif" font-size="10.00">FlowToken::addToken</text>
</a>
</g>
</g>
<!-- Node5&#45;&gt;Node6 -->
<g id="edge46_Node000005_Node000006" class="edge">
<title>Node5&#45;&gt;Node6</title>
<g id="a_edge46_Node000005_Node000006"><a xlink:title=" ">
<path fill="none" stroke="#63b8ff" d="M1121.82,-577C1136.39,-577 1152.66,-577 1168.19,-577"/>
<polygon fill="#63b8ff" stroke="#63b8ff" points="1167.82,-580.5 1177.82,-577 1167.82,-573.5 1167.82,-580.5"/>
</a>
</g>
</g>
<!-- Node8 -->
<g id="Node000008" class="node">
<title>Node8</title>
<g id="a_Node000008"><a xlink:href="$class_token_result.html#af997915a62dcb5643b9d61b78a22c9f4" xlink:title=" ">
<polygon fill="white" stroke="#666666" points="1292,-473 1178.5,-473 1178.5,-453 1292,-453 1292,-473"/>
<text text-anchor="middle" x="1235.25" y="-459.5" font-family="Helvetica,sans-Serif" font-size="10.00">TokenResult::addError</text>
</a>
</g>
</g>
<!-- Node7&#45;&gt;Node8 -->
<g id="edge48_Node000007_Node000008" class="edge">
<title>Node7&#45;&gt;Node8</title>
<g id="a_edge48_Node000007_Node000008"><a xlink:title=" ">
<path fill="none" stroke="#63b8ff" d="M1118.73,-528.56C1126.79,-526.14 1135,-523.28 1142.5,-520 1167.17,-509.2 1193.04,-492.58 1210.99,-480.07"/>
<polygon fill="#63b8ff" stroke="#63b8ff" points="1212.98,-482.95 1219.1,-474.3 1208.93,-477.24 1212.98,-482.95"/>
</a>
</g>
</g>
<!-- Node11&#45;&gt;Node7 -->
<g id="edge52_Node000011_Node000007" class="edge">
<title>Node11&#45;&gt;Node7</title>
<g id="a_edge52_Node000011_Node000007"><a xlink:title=" ">
<path fill="none" stroke="#63b8ff" d="M941.89,-511.28C963.27,-515.85 988.68,-521.28 1011.32,-526.12"/>
<polygon fill="#63b8ff" stroke="#63b8ff" points="1010.53,-529.53 1021.04,-528.19 1011.99,-522.68 1010.53,-529.53"/>
</a>
</g>
</g>
<!-- Node11&#45;&gt;Node9 -->
<g id="edge53_Node000011_Node000009" class="edge">
<title>Node11&#45;&gt;Node9</title>
<g id="a_edge53_Node000011_Node000009"><a xlink:title=" ">
<path fill="none" stroke="#63b8ff" d="M941.89,-501C959.35,-501 979.49,-501 998.62,-501"/>
<polygon fill="#63b8ff" stroke="#63b8ff" points="998.53,-504.5 1008.53,-501 998.53,-497.5 998.53,-504.5"/>
</a>
</g>
</g>
<!-- Node11&#45;&gt;Node10 -->
<g id="edge54_Node000011_Node000010" class="edge">
<title>Node11&#45;&gt;Node10</title>
<g id="a_edge54_Node000011_Node000010"><a xlink:title=" ">
<path fill="none" stroke="#63b8ff" d="M941.89,-490.72C964.08,-485.98 990.6,-480.31 1013.86,-475.34"/>
<polygon fill="#63b8ff" stroke="#63b8ff" points="1014.46,-478.79 1023.51,-473.28 1013,-471.95 1014.46,-478.79"/>
</a>
</g>
</g>
<!-- Node12 -->
<g id="Node000012" class="node">
<title>Node12</title>
<g id="a_Node000012"><a xlink:href="$class_iterator_list.html#af5c370ccb8698e2a9fb0714782d57203" xlink:title=" ">
<polygon fill="white" stroke="#666666" points="1116.25,-435 1029,-435 1029,-415 1116.25,-415 1116.25,-435"/>
<text text-anchor="middle" x="1072.62" y="-421.5" font-family="Helvetica,sans-Serif" font-size="10.00">IteratorList::next</text>
</a>
</g>
</g>
<!-- Node11&#45;&gt;Node12 -->
<g id="edge55_Node000011_Node000012" class="edge">
<title>Node11&#45;&gt;Node12</title>
<g id="a_edge55_Node000011_Node000012"><a xlink:title=" ">
<path fill="none" stroke="#63b8ff" d="M910.95,-490.53C931.99,-478.08 968.98,-457.31 1002.75,-444 1007.61,-442.08 1012.75,-440.28 1017.92,-438.61"/>
<polygon fill="#63b8ff" stroke="#63b8ff" points="1018.55,-442.08 1027.09,-435.81 1016.51,-435.38 1018.55,-442.08"/>
</a>
</g>
</g>
<!-- Node14 -->
<g id="Node000014" class="node">
<title>Node14</title>
<g id="a_Node000014"><a xlink:href="$class_p_k_token.html#aa0d39255200f157dcead5e02815c0345" xlink:title=" ">
<polygon fill="white" stroke="#666666" points="577.38,-451 487.12,-451 487.12,-431 577.38,-431 577.38,-451"/>
<text text-anchor="middle" x="532.25" y="-437.5" font-family="Helvetica,sans-Serif" font-size="10.00">PKToken::addOp</text>
</a>
</g>
</g>
<!-- Node13&#45;&gt;Node14 -->
<g id="edge57_Node000013_Node000014" class="edge">
<title>Node13&#45;&gt;Node14</title>
<g id="a_edge57_Node000013_Node000014"><a xlink:title=" ">
<path fill="none" stroke="#63b8ff" d="M427.24,-420.5C442.8,-423.56 459.84,-426.92 475.55,-430.02"/>
<polygon fill="#63b8ff" stroke="#63b8ff" points="474.73,-433.43 485.22,-431.93 476.09,-426.56 474.73,-433.43"/>
</a>
</g>
</g>
<!-- Node17 -->
<g id="Node000017" class="node">
<title>Node17</title>
<g id="a_Node000017"><a xlink:href="$class_k_token.html#aa70f9690ec470ceece17f9641bc9fb96" xlink:title=" ">
<polygon fill="white" stroke="#666666" points="583.38,-205 481.12,-205 481.12,-185 583.38,-185 583.38,-205"/>
<text text-anchor="middle" x="532.25" y="-191.5" font-family="Helvetica,sans-Serif" font-size="10.00">KToken::addTokens</text>
</a>
</g>
</g>
<!-- Node13&#45;&gt;Node17 -->
<g id="edge64_Node000013_Node000017" class="edge">
<title>Node13&#45;&gt;Node17</title>
<g id="a_edge64_Node000013_Node000017"><a xlink:title=" ">
<path fill="none" stroke="#63b8ff" d="M381.58,-399.63C406.29,-365.86 484.69,-258.65 517.06,-214.4"/>
<polygon fill="#63b8ff" stroke="#63b8ff" points="519.77,-216.63 522.85,-206.49 514.12,-212.49 519.77,-216.63"/>
</a>
</g>
</g>
<!-- Node18 -->
<g id="Node000018" class="node">
<title>Node18</title>
<g id="a_Node000018"><a xlink:href="$class_p_k_token.html#ab964c1ed5353551fafcab7d9f0053a86" xlink:title=" ">
<polygon fill="white" stroke="#666666" points="601,-328 463.5,-328 463.5,-308 601,-308 601,-328"/>
<text text-anchor="middle" x="532.25" y="-314.5" font-family="Helvetica,sans-Serif" font-size="10.00">PKToken::handleArguments</text>
</a>
</g>
</g>
<!-- Node13&#45;&gt;Node18 -->
<g id="edge66_Node000013_Node000018" class="edge">
<title>Node13&#45;&gt;Node18</title>
<g id="a_edge66_Node000013_Node000018"><a xlink:title=" ">
<path fill="none" stroke="#63b8ff" d="M391.73,-399.63C418.98,-383.68 471.38,-353.03 503.63,-334.16"/>
<polygon fill="#63b8ff" stroke="#63b8ff" points="505.17,-337.31 512.03,-329.24 501.64,-331.27 505.17,-337.31"/>
</a>
</g>
</g>
<!-- Node15 -->
<g id="Node000015" class="node">
<title>Node15</title>
<g id="a_Node000015"><a xlink:href="$class_p_k_token.html#a6161b28490f22a80ba2898bcc3fab9d8" xlink:title=" ">
<polygon fill="white" stroke="#666666" points="944.62,-435 840.88,-435 840.88,-415 944.62,-415 944.62,-435"/>
<text text-anchor="middle" x="892.75" y="-421.5" font-family="Helvetica,sans-Serif" font-size="10.00">PKToken::addToken</text>
</a>
</g>
</g>
<!-- Node14&#45;&gt;Node15 -->
<g id="edge58_Node000014_Node000015" class="edge">
<title>Node14&#45;&gt;Node15</title>
<g id="a_edge58_Node000014_Node000015"><a xlink:title=" ">
<path fill="none" stroke="#63b8ff" d="M577.52,-444.15C627.47,-447.1 711.11,-450.2 782.75,-444 798.53,-442.63 815.46,-440.18 831.16,-437.47"/>
<polygon fill="#63b8ff" stroke="#63b8ff" points="831.62,-440.95 840.85,-435.74 830.39,-434.05 831.62,-440.95"/>
</a>
</g>
</g>
<!-- Node15&#45;&gt;Node9 -->
<g id="edge61_Node000015_Node000009" class="edge">
<title>Node15&#45;&gt;Node9</title>
<g id="a_edge61_Node000015_Node000009"><a xlink:title=" ">
<path fill="none" stroke="#63b8ff" d="M910.95,-435.47C931.99,-447.92 968.98,-468.69 1002.75,-482 1007.42,-483.84 1012.33,-485.57 1017.3,-487.19"/>
<polygon fill="#63b8ff" stroke="#63b8ff" points="1016.14,-490.49 1026.73,-490.08 1018.2,-483.8 1016.14,-490.49"/>
</a>
</g>
</g>
<!-- Node15&#45;&gt;Node10 -->
<g id="edge62_Node000015_Node000010" class="edge">
<title>Node15&#45;&gt;Node10</title>
<g id="a_edge62_Node000015_Node000010"><a xlink:title=" ">
<path fill="none" stroke="#63b8ff" d="M942.83,-435.48C964.83,-440.19 990.94,-445.76 1013.88,-450.66"/>
<polygon fill="#63b8ff" stroke="#63b8ff" points="1012.86,-454.03 1023.37,-452.69 1014.32,-447.18 1012.86,-454.03"/>
</a>
</g>
</g>
<!-- Node15&#45;&gt;Node12 -->
<g id="edge63_Node000015_Node000012" class="edge">
<title>Node15&#45;&gt;Node12</title>
<g id="a_edge63_Node000015_Node000012"><a xlink:title=" ">
<path fill="none" stroke="#63b8ff" d="M944.72,-425C967.47,-425 994.29,-425 1017.41,-425"/>
<polygon fill="#63b8ff" stroke="#63b8ff" points="1017.25,-428.5 1027.25,-425 1017.25,-421.5 1017.25,-428.5"/>
</a>
</g>
</g>
<!-- Node16 -->
<g id="Node000016" class="node">
<title>Node16</title>
<g id="a_Node000016"><a xlink:href="$class_token.html#ade47ed51e2f495f6d847c1bff9fe8db6" xlink:title=" ">
<polygon fill="white" stroke="#666666" points="1115.12,-397 1030.12,-397 1030.12,-377 1115.12,-377 1115.12,-397"/>
<text text-anchor="middle" x="1072.62" y="-383.5" font-family="Helvetica,sans-Serif" font-size="10.00">Token::addError</text>
</a>
</g>
</g>
<!-- Node15&#45;&gt;Node16 -->
<g id="edge59_Node000015_Node000016" class="edge">
<title>Node15&#45;&gt;Node16</title>
<g id="a_edge59_Node000015_Node000016"><a xlink:title=" ">
<path fill="none" stroke="#63b8ff" d="M942.83,-414.52C966.35,-409.49 994.57,-403.46 1018.59,-398.33"/>
<polygon fill="#63b8ff" stroke="#63b8ff" points="1019.12,-401.8 1028.17,-396.28 1017.66,-394.95 1019.12,-401.8"/>
</a>
</g>
</g>
<!-- Node16&#45;&gt;Node8 -->
<g id="edge60_Node000016_Node000008" class="edge">
<title>Node16&#45;&gt;Node8</title>
<g id="a_edge60_Node000016_Node000008"><a xlink:title=" ">
<path fill="none" stroke="#63b8ff" d="M1115.45,-396.47C1124.54,-399.09 1133.98,-402.27 1142.5,-406 1167.17,-416.8 1193.04,-433.42 1210.99,-445.93"/>
<polygon fill="#63b8ff" stroke="#63b8ff" points="1208.93,-448.76 1219.1,-451.7 1212.98,-443.05 1208.93,-448.76"/>
</a>
</g>
</g>
<!-- Node17&#45;&gt;Node12 -->
<g id="edge65_Node000017_Node000012" class="edge">
<title>Node17&#45;&gt;Node12</title>
<g id="a_edge65_Node000017_Node000012"><a xlink:title=" ">
<path fill="none" stroke="#63b8ff" d="M547.83,-184.7C567.15,-171.76 602.78,-150.23 637,-142 699.98,-126.84 722.63,-117.88 782.75,-142 887.78,-184.14 903.04,-224.47 966.75,-318 990.54,-352.92 971.14,-377.95 1002.75,-406 1007.16,-409.91 1012.31,-413.03 1017.76,-415.51"/>
<polygon fill="#63b8ff" stroke="#63b8ff" points="1016.52,-418.78 1027.11,-419 1018.97,-412.22 1016.52,-418.78"/>
</a>
</g>
</g>
<!-- Node18&#45;&gt;Node9 -->
<g id="edge74_Node000018_Node000009" class="edge">
<title>Node18&#45;&gt;Node9</title>
<g id="a_edge74_Node000018_Node000009"><a xlink:title=" ">
<path fill="none" stroke="#63b8ff" d="M539.84,-328.06C561.58,-361.19 630.01,-465.01 637,-470 751.41,-551.71 928.77,-531.12 1017.38,-513.7"/>
<polygon fill="#63b8ff" stroke="#63b8ff" points="1017.92,-517.16 1027.03,-511.74 1016.53,-510.3 1017.92,-517.16"/>
</a>
</g>
</g>
<!-- Node18&#45;&gt;Node10 -->
<g id="edge76_Node000018_Node000010" class="edge">
<title>Node18&#45;&gt;Node10</title>
<g id="a_edge76_Node000018_Node000010"><a xlink:title=" ">
<path fill="none" stroke="#63b8ff" d="M537.95,-328.29C550.1,-353.5 585.27,-418.19 637,-444 701.42,-476.14 910.95,-470.95 1013.72,-466.2"/>
<polygon fill="#63b8ff" stroke="#63b8ff" points="1013.78,-469.7 1023.6,-465.73 1013.44,-462.71 1013.78,-469.7"/>
</a>
</g>
</g>
<!-- Node18&#45;&gt;Node12 -->
<g id="edge81_Node000018_Node000012" class="edge">
<title>Node18&#45;&gt;Node12</title>
<g id="a_edge81_Node000018_Node000012"><a xlink:title=" ">
<path fill="none" stroke="#63b8ff" d="M550.16,-328.35C570.14,-340.04 604.73,-358.66 637,-368 778.7,-409.04 820.82,-384.39 966.75,-406 983.33,-408.45 1001.31,-411.55 1017.62,-414.53"/>
<polygon fill="#63b8ff" stroke="#63b8ff" points="1016.65,-417.91 1027.12,-416.29 1017.93,-411.03 1016.65,-417.91"/>
</a>
</g>
</g>
<!-- Node18&#45;&gt;Node16 -->
<g id="edge69_Node000018_Node000016" class="edge">
<title>Node18&#45;&gt;Node16</title>
<g id="a_edge69_Node000018_Node000016"><a xlink:title=" ">
<path fill="none" stroke="#63b8ff" d="M540.58,-307.62C553.47,-289.18 580.75,-249.33 601,-214 618.79,-182.96 606.57,-160.81 637,-142 692.1,-107.94 721.94,-119.68 782.75,-142 909.52,-188.52 1018.79,-318.05 1057.06,-367.49"/>
<polygon fill="#63b8ff" stroke="#63b8ff" points="1054.18,-369.48 1063.03,-375.31 1059.75,-365.23 1054.18,-369.48"/>
</a>
</g>
</g>
<!-- Node19 -->
<g id="Node000019" class="node">
<title>Node19</title>
<g id="a_Node000019"><a xlink:href="$class_p_k_token.html#a9bd07a9eaf2728560d1aa29bcc13bba9" xlink:title=" ">
<polygon fill="white" stroke="#666666" points="765.88,-435 653.88,-435 653.88,-415 765.88,-415 765.88,-435"/>
<text text-anchor="middle" x="709.88" y="-421.5" font-family="Helvetica,sans-Serif" font-size="10.00">PKToken::addComma</text>
</a>
</g>
</g>
<!-- Node18&#45;&gt;Node19 -->
<g id="edge67_Node000018_Node000019" class="edge">
<title>Node18&#45;&gt;Node19</title>
<g id="a_edge67_Node000018_Node000019"><a xlink:title=" ">
<path fill="none" stroke="#63b8ff" d="M543.54,-328.34C561.22,-345.6 599.11,-380.38 637,-401 643.75,-404.68 651.17,-407.93 658.6,-410.75"/>
<polygon fill="#63b8ff" stroke="#63b8ff" points="657.38,-414.03 667.98,-414.08 659.72,-407.44 657.38,-414.03"/>
</a>
</g>
</g>
<!-- Node20 -->
<g id="Node000020" class="node">
<title>Node20</title>
<g id="a_Node000020"><a xlink:href="$class_arguments_overload.html#aaed90f32011643050b1440daed30c168" xlink:title=" ">
<polygon fill="white" stroke="#666666" points="764,-57 655.75,-57 655.75,-25 764,-25 764,-57"/>
<text text-anchor="start" x="663.75" y="-43.5" font-family="Helvetica,sans-Serif" font-size="10.00">ArgumentsOverload::</text>
<text text-anchor="middle" x="709.88" y="-31.5" font-family="Helvetica,sans-Serif" font-size="10.00">approveType</text>
</a>
</g>
</g>
<!-- Node18&#45;&gt;Node20 -->
<g id="edge70_Node000018_Node000020" class="edge">
<title>Node18&#45;&gt;Node20</title>
<g id="a_edge70_Node000018_Node000020"><a xlink:title=" ">
<path fill="none" stroke="#63b8ff" d="M541.29,-307.59C555.03,-289.43 583.24,-250.41 601,-214 622.63,-169.66 610.31,-150.49 637,-109 647.93,-92.01 663.98,-76.28 678.15,-64.24"/>
<polygon fill="#63b8ff" stroke="#63b8ff" points="679.99,-67.26 685.49,-58.2 675.55,-61.85 679.99,-67.26"/>
</a>
</g>
</g>
<!-- Node24 -->
<g id="Node000024" class="node">
<title>Node24</title>
<g id="a_Node000024"><a xlink:href="$class_p_k_token.html#a64d744e4cf4b113bc458eb03f15ba69d" xlink:title=" ">
<polygon fill="white" stroke="#666666" points="782.75,-171 637,-171 637,-151 782.75,-151 782.75,-171"/>
<text text-anchor="middle" x="709.88" y="-157.5" font-family="Helvetica,sans-Serif" font-size="10.00">PKToken::dispatchArguments</text>
</a>
</g>
</g>
<!-- Node18&#45;&gt;Node24 -->
<g id="edge75_Node000018_Node000024" class="edge">
<title>Node18&#45;&gt;Node24</title>
<g id="a_edge75_Node000018_Node000024"><a xlink:title=" ">
<path fill="none" stroke="#63b8ff" d="M539.83,-307.52C558.31,-278.4 611.01,-197.49 637,-180 639.09,-178.59 641.28,-177.29 643.53,-176.09"/>
<polygon fill="#63b8ff" stroke="#63b8ff" points="644.79,-179.36 652.44,-172.03 641.89,-172.99 644.79,-179.36"/>
</a>
</g>
</g>
<!-- Node25 -->
<g id="Node000025" class="node">
<title>Node25</title>
<g id="a_Node000025"><a xlink:href="$class_arguments_overload.html#a65ea1970c75fddd5990ac66a1475a63f" xlink:title=" ">
<polygon fill="white" stroke="#666666" points="773,-359 646.75,-359 646.75,-327 773,-327 773,-359"/>
<text text-anchor="start" x="654.75" y="-345.5" font-family="Helvetica,sans-Serif" font-size="10.00">ArgumentsOverload::</text>
<text text-anchor="middle" x="709.88" y="-333.5" font-family="Helvetica,sans-Serif" font-size="10.00">hasCompletedArguments</text>
</a>
</g>
</g>
<!-- Node18&#45;&gt;Node25 -->
<g id="edge77_Node000018_Node000025" class="edge">
<title>Node18&#45;&gt;Node25</title>
<g id="a_edge77_Node000018_Node000025"><a xlink:title=" ">
<path fill="none" stroke="#63b8ff" d="M601.4,-327.7C612.54,-329.29 624.12,-330.94 635.38,-332.54"/>
<polygon fill="#63b8ff" stroke="#63b8ff" points="634.61,-335.96 645,-333.91 635.6,-329.03 634.61,-335.96"/>
</a>
</g>
</g>
<!-- Node27 -->
<g id="Node000027" class="node">
<title>Node27</title>
<g id="a_Node000027"><a xlink:href="$class_arguments_overload.html#a4fc9b2ef6a2ec9c3f963ddcb44621794" xlink:title=" ">
<polygon fill="white" stroke="#666666" points="764,-309 655.75,-309 655.75,-277 764,-277 764,-309"/>
<text text-anchor="start" x="663.75" y="-295.5" font-family="Helvetica,sans-Serif" font-size="10.00">ArgumentsOverload::</text>
<text text-anchor="middle" x="709.88" y="-283.5" font-family="Helvetica,sans-Serif" font-size="10.00">initTabs</text>
</a>
</g>
</g>
<!-- Node18&#45;&gt;Node27 -->
<g id="edge79_Node000018_Node000027" class="edge">
<title>Node18&#45;&gt;Node27</title>
<g id="a_edge79_Node000018_Node000027"><a xlink:title=" ">
<path fill="none" stroke="#63b8ff" d="M601.4,-308.3C615.55,-306.28 630.42,-304.17 644.44,-302.17"/>
<polygon fill="#63b8ff" stroke="#63b8ff" points="644.55,-305.69 653.96,-300.82 643.57,-298.76 644.55,-305.69"/>
</a>
</g>
</g>
<!-- Node28 -->
<g id="Node000028" class="node">
<title>Node28</title>
<g id="a_Node000028"><a xlink:href="$class_arguments_overload.html#a44c9abfe32ebc098862157d7ddf22b19" xlink:title=" ">
<polygon fill="white" stroke="#666666" points="773.38,-259 646.38,-259 646.38,-239 773.38,-239 773.38,-259"/>
<text text-anchor="middle" x="709.88" y="-245.5" font-family="Helvetica,sans-Serif" font-size="10.00">ArgumentsOverload::next</text>
</a>
</g>
</g>
<!-- Node18&#45;&gt;Node28 -->
<g id="edge80_Node000018_Node000028" class="edge">
<title>Node18&#45;&gt;Node28</title>
<g id="a_edge80_Node000018_Node000028"><a xlink:title=" ">
<path fill="none" stroke="#63b8ff" d="M551.9,-307.67C572.31,-296.68 606.24,-279.36 637,-268 642.24,-266.07 647.76,-264.24 653.32,-262.55"/>
<polygon fill="#63b8ff" stroke="#63b8ff" points="653.9,-266.02 662.53,-259.87 651.95,-259.3 653.9,-266.02"/>
</a>
</g>
</g>
<!-- Node29 -->
<g id="Node000029" class="node">
<title>Node29</title>
<g id="a_Node000029"><a xlink:href="$class_arguments_overload.html#ab26f7552e32582556f6c7c6132e355cf" xlink:title=" ">
<polygon fill="white" stroke="#666666" points="764,-221 655.75,-221 655.75,-189 764,-189 764,-221"/>
<text text-anchor="start" x="663.75" y="-207.5" font-family="Helvetica,sans-Serif" font-size="10.00">ArgumentsOverload::</text>
<text text-anchor="middle" x="709.88" y="-195.5" font-family="Helvetica,sans-Serif" font-size="10.00">setCompleteIndex</text>
</a>
</g>
</g>
<!-- Node18&#45;&gt;Node29 -->
<g id="edge82_Node000018_Node000029" class="edge">
<title>Node18&#45;&gt;Node29</title>
<g id="a_edge82_Node000018_Node000029"><a xlink:title=" ">
<path fill="none" stroke="#63b8ff" d="M542.89,-307.62C560.16,-289.56 598.24,-252.15 637,-230 639.6,-228.52 642.3,-227.1 645.07,-225.75"/>
<polygon fill="#63b8ff" stroke="#63b8ff" points="646.23,-229.06 653.92,-221.77 643.36,-222.68 646.23,-229.06"/>
</a>
</g>
</g>
<!-- Node19&#45;&gt;Node15 -->
<g id="edge68_Node000019_Node000015" class="edge">
<title>Node19&#45;&gt;Node15</title>
<g id="a_edge68_Node000019_Node000015"><a xlink:title=" ">
<path fill="none" stroke="#63b8ff" d="M766.13,-425C786.02,-425 808.6,-425 829.08,-425"/>
<polygon fill="#63b8ff" stroke="#63b8ff" points="829.02,-428.5 839.02,-425 829.02,-421.5 829.02,-428.5"/>
</a>
</g>
</g>
<!-- Node21 -->
<g id="Node000021" class="node">
<title>Node21</title>
<g id="a_Node000021"><a xlink:href="$class_arguments_overload.html#a0316dfe033593e31fe4f754e9fc2ea3a" xlink:title=" ">
<polygon fill="white" stroke="#666666" points="946.88,-57 838.62,-57 838.62,-25 946.88,-25 946.88,-57"/>
<text text-anchor="start" x="846.62" y="-43.5" font-family="Helvetica,sans-Serif" font-size="10.00">ArgumentsOverload::</text>
<text text-anchor="middle" x="892.75" y="-31.5" font-family="Helvetica,sans-Serif" font-size="10.00">updateTabs</text>
</a>
</g>
</g>
<!-- Node20&#45;&gt;Node21 -->
<g id="edge71_Node000020_Node000021" class="edge">
<title>Node20&#45;&gt;Node21</title>
<g id="a_edge71_Node000020_Node000021"><a xlink:title=" ">
<path fill="none" stroke="#63b8ff" d="M764.17,-41C783.77,-41 806.19,-41 826.71,-41"/>
<polygon fill="#63b8ff" stroke="#63b8ff" points="826.7,-44.5 836.7,-41 826.7,-37.5 826.7,-44.5"/>
</a>
</g>
</g>
<!-- Node22 -->
<g id="Node000022" class="node">
<title>Node22</title>
<g id="a_Node000022"><a xlink:href="$class_arguments_overload.html#a6b65e84a1deed85e8403721df4358b9e" xlink:title=" ">
<polygon fill="white" stroke="#666666" points="1142.5,-82 1002.75,-82 1002.75,-50 1142.5,-50 1142.5,-82"/>
<text text-anchor="start" x="1010.75" y="-68.5" font-family="Helvetica,sans-Serif" font-size="10.00">ArgumentsOverload::</text>
<text text-anchor="middle" x="1072.62" y="-56.5" font-family="Helvetica,sans-Serif" font-size="10.00">updateCompletedArguments</text>
</a>
</g>
</g>
<!-- Node21&#45;&gt;Node22 -->
<g id="edge72_Node000021_Node000022" class="edge">
<title>Node21&#45;&gt;Node22</title>
<g id="a_edge72_Node000021_Node000022"><a xlink:title=" ">
<path fill="none" stroke="#63b8ff" d="M947.12,-48.5C960.98,-50.45 976.22,-52.59 991.15,-54.69"/>
<polygon fill="#63b8ff" stroke="#63b8ff" points="990.58,-58.14 1000.97,-56.07 991.55,-51.21 990.58,-58.14"/>
</a>
</g>
</g>
<!-- Node23 -->
<g id="Node000023" class="node">
<title>Node23</title>
<g id="a_Node000023"><a xlink:href="$class_arguments_overload.html#adf2f990572f8ba98d4f45fec3181bca1" xlink:title=" ">
<polygon fill="white" stroke="#666666" points="1129.38,-32 1015.88,-32 1015.88,0 1129.38,0 1129.38,-32"/>
<text text-anchor="start" x="1023.88" y="-18.5" font-family="Helvetica,sans-Serif" font-size="10.00">ArgumentsOverload::</text>
<text text-anchor="middle" x="1072.62" y="-6.5" font-family="Helvetica,sans-Serif" font-size="10.00">updateValidArguments</text>
</a>
</g>
</g>
<!-- Node21&#45;&gt;Node23 -->
<g id="edge73_Node000021_Node000023" class="edge">
<title>Node21&#45;&gt;Node23</title>
<g id="a_edge73_Node000021_Node000023"><a xlink:title=" ">
<path fill="none" stroke="#63b8ff" d="M947.12,-33.5C965.08,-30.97 985.37,-28.12 1004.27,-25.47"/>
<polygon fill="#63b8ff" stroke="#63b8ff" points="1004.6,-28.95 1014.02,-24.1 1003.63,-22.02 1004.6,-28.95"/>
</a>
</g>
</g>
<!-- Node26 -->
<g id="Node000026" class="node">
<title>Node26</title>
<g id="a_Node000026"><a xlink:href="$class_arguments_overload.html#ab7709e65ce6926230400a3ed8b9483ac" xlink:title=" ">
<polygon fill="white" stroke="#666666" points="946.88,-359 838.62,-359 838.62,-327 946.88,-327 946.88,-359"/>
<text text-anchor="start" x="846.62" y="-345.5" font-family="Helvetica,sans-Serif" font-size="10.00">ArgumentsOverload::</text>
<text text-anchor="middle" x="892.75" y="-333.5" font-family="Helvetica,sans-Serif" font-size="10.00">getCompletedArgs</text>
</a>
</g>
</g>
<!-- Node25&#45;&gt;Node26 -->
<g id="edge78_Node000025_Node000026" class="edge">
<title>Node25&#45;&gt;Node26</title>
<g id="a_edge78_Node000025_Node000026"><a xlink:title=" ">
<path fill="none" stroke="#63b8ff" d="M773.38,-343C790.71,-343 809.57,-343 827.04,-343"/>
<polygon fill="#63b8ff" stroke="#63b8ff" points="826.77,-346.5 836.77,-343 826.77,-339.5 826.77,-346.5"/>
</a>
</g>
</g>
</g>
</svg>
