<?xml version="1.0" encoding="UTF-8" standalone="no"?>
<!DOCTYPE svg PUBLIC "-//W3C//DTD SVG 1.1//EN"
 "http://www.w3.org/Graphics/SVG/1.1/DTD/svg11.dtd">
<!-- Generated by graphviz version 12.2.0 (20241103.1931)
 -->
<!-- Title: BotConfig::updateBluestacksConfig Pages: 1 -->
<svg width="1138pt" height="256pt"
 viewBox="0.00 0.00 1138.00 256.00" xmlns="http://www.w3.org/2000/svg" xmlns:xlink="http://www.w3.org/1999/xlink">
<g id="graph0" class="graph" transform="scale(1 1) rotate(0) translate(4 252)">
<title>BotConfig::updateBluestacksConfig</title>
<!-- Node1 -->
<g id="Node000001" class="node">
<title>Node1</title>
<g id="a_Node000001"><a xlink:title=" ">
<polygon fill="#999999" stroke="#666666" points="143.5,-121 0,-121 0,-89 143.5,-89 143.5,-121"/>
<text text-anchor="start" x="8" y="-107.5" font-family="Helvetica,sans-Serif" font-size="10.00">BotConfig::updateBluestacks</text>
<text text-anchor="middle" x="71.75" y="-95.5" font-family="Helvetica,sans-Serif" font-size="10.00">Config</text>
</a>
</g>
</g>
<!-- Node2 -->
<g id="Node000002" class="node">
<title>Node2</title>
<g id="a_Node000002"><a xlink:href="$class_bot_config.html#a7fe6cbda7ec98c3070e6f9437f6eeb84" xlink:title=" ">
<polygon fill="white" stroke="#666666" points="330.5,-115 179.5,-115 179.5,-95 330.5,-95 330.5,-115"/>
<text text-anchor="middle" x="255" y="-101.5" font-family="Helvetica,sans-Serif" font-size="10.00">BotConfig::updateStringBotFile</text>
</a>
</g>
</g>
<!-- Node1&#45;&gt;Node2 -->
<g id="edge24_Node000001_Node000002" class="edge">
<title>Node1&#45;&gt;Node2</title>
<g id="a_edge24_Node000001_Node000002"><a xlink:title=" ">
<path fill="none" stroke="#63b8ff" d="M143.86,-105C151.75,-105 159.85,-105 167.89,-105"/>
<polygon fill="#63b8ff" stroke="#63b8ff" points="167.7,-108.5 177.7,-105 167.7,-101.5 167.7,-108.5"/>
</a>
</g>
</g>
<!-- Node3 -->
<g id="Node000003" class="node">
<title>Node3</title>
<g id="a_Node000003"><a xlink:href="$class_bot_config.html#ab92a15dd3027a7f42b452cdf5eaf9529" xlink:title=" ">
<polygon fill="white" stroke="#666666" points="486.75,-115 366.5,-115 366.5,-95 486.75,-95 486.75,-115"/>
<text text-anchor="middle" x="426.62" y="-101.5" font-family="Helvetica,sans-Serif" font-size="10.00">BotConfig::updateString</text>
</a>
</g>
</g>
<!-- Node2&#45;&gt;Node3 -->
<g id="edge25_Node000002_Node000003" class="edge">
<title>Node2&#45;&gt;Node3</title>
<g id="a_edge25_Node000002_Node000003"><a xlink:title=" ">
<path fill="none" stroke="#63b8ff" d="M330.89,-105C338.82,-105 346.87,-105 354.76,-105"/>
<polygon fill="#63b8ff" stroke="#63b8ff" points="354.64,-108.5 364.64,-105 354.64,-101.5 354.64,-108.5"/>
</a>
</g>
</g>
<!-- Node4 -->
<g id="Node000004" class="node">
<title>Node4</title>
<g id="a_Node000004"><a xlink:href="$_text_manager_8cpp.html#add36cc54cd9616a393a17b8961491477" xlink:title=" ">
<polygon fill="white" stroke="#666666" points="602.5,-248 522.75,-248 522.75,-228 602.5,-228 602.5,-248"/>
<text text-anchor="middle" x="562.62" y="-234.5" font-family="Helvetica,sans-Serif" font-size="10.00">getFileContent</text>
</a>
</g>
</g>
<!-- Node3&#45;&gt;Node4 -->
<g id="edge26_Node000003_Node000004" class="edge">
<title>Node3&#45;&gt;Node4</title>
<g id="a_edge26_Node000003_Node000004"><a xlink:title=" ">
<path fill="none" stroke="#63b8ff" d="M434.89,-115.22C449.75,-135.66 485.39,-182.33 522.75,-214 525.81,-216.59 529.17,-219.1 532.6,-221.44"/>
<polygon fill="#63b8ff" stroke="#63b8ff" points="530.67,-224.36 540.98,-226.79 534.43,-218.46 530.67,-224.36"/>
</a>
</g>
</g>
<!-- Node5 -->
<g id="Node000005" class="node">
<title>Node5</title>
<g id="a_Node000005"><a xlink:href="$_text_manager_8cpp.html#af24bee60aa1d3d5b4ae3bf6ebd267ecd" xlink:title=" ">
<polygon fill="white" stroke="#666666" points="586.38,-134 538.88,-134 538.88,-114 586.38,-114 586.38,-134"/>
<text text-anchor="middle" x="562.62" y="-120.5" font-family="Helvetica,sans-Serif" font-size="10.00">getLine</text>
</a>
</g>
</g>
<!-- Node3&#45;&gt;Node5 -->
<g id="edge27_Node000003_Node000005" class="edge">
<title>Node3&#45;&gt;Node5</title>
<g id="a_edge27_Node000003_Node000005"><a xlink:title=" ">
<path fill="none" stroke="#63b8ff" d="M487.18,-113.44C500.95,-115.4 515.15,-117.41 527.4,-119.15"/>
<polygon fill="#63b8ff" stroke="#63b8ff" points="526.59,-122.57 536.98,-120.51 527.57,-115.64 526.59,-122.57"/>
</a>
</g>
</g>
<!-- Node7 -->
<g id="Node000007" class="node">
<title>Node7</title>
<g id="a_Node000007"><a xlink:href="$_text_manager_8cpp.html#a6956d58559ef67f422247fdeb1c22775" xlink:title=" ">
<polygon fill="white" stroke="#666666" points="875.25,-153 799.25,-153 799.25,-133 875.25,-133 875.25,-153"/>
<text text-anchor="middle" x="837.25" y="-139.5" font-family="Helvetica,sans-Serif" font-size="10.00">getStringAfter</text>
</a>
</g>
</g>
<!-- Node3&#45;&gt;Node7 -->
<g id="edge40_Node000003_Node000007" class="edge">
<title>Node3&#45;&gt;Node7</title>
<g id="a_edge40_Node000003_Node000007"><a xlink:title=" ">
<path fill="none" stroke="#63b8ff" d="M448.18,-115.36C485.12,-133.3 565.68,-169.35 638.5,-181 691.6,-189.49 707.14,-193.25 759.5,-181 777.67,-176.75 796.48,-167.53 810.93,-159.24"/>
<polygon fill="#63b8ff" stroke="#63b8ff" points="812.52,-162.36 819.31,-154.22 808.93,-156.35 812.52,-162.36"/>
</a>
</g>
</g>
<!-- Node11 -->
<g id="Node000011" class="node">
<title>Node11</title>
<g id="a_Node000011"><a xlink:href="$_text_manager_8cpp.html#aff8311b88dbf5f3091f3ac1262543242" xlink:title=" ">
<polygon fill="white" stroke="#666666" points="879,-96 795.5,-96 795.5,-76 879,-76 879,-96"/>
<text text-anchor="middle" x="837.25" y="-82.5" font-family="Helvetica,sans-Serif" font-size="10.00">getStringBefore</text>
</a>
</g>
</g>
<!-- Node3&#45;&gt;Node11 -->
<g id="edge41_Node000003_Node000011" class="edge">
<title>Node3&#45;&gt;Node11</title>
<g id="a_edge41_Node000003_Node000011"><a xlink:title=" ">
<path fill="none" stroke="#63b8ff" d="M466.73,-94.55C528.81,-79.3 653.72,-54.1 759.5,-67 769.7,-68.24 780.49,-70.38 790.66,-72.79"/>
<polygon fill="#63b8ff" stroke="#63b8ff" points="789.8,-76.18 800.35,-75.22 791.5,-69.39 789.8,-76.18"/>
</a>
</g>
</g>
<!-- Node13 -->
<g id="Node000013" class="node">
<title>Node13</title>
<g id="a_Node000013"><a xlink:href="$_text_manager_8cpp.html#ac695ebe5513185f42689b419f58d8a83" xlink:title=" ">
<polygon fill="white" stroke="#666666" points="738.88,-96 659.12,-96 659.12,-76 738.88,-76 738.88,-96"/>
<text text-anchor="middle" x="699" y="-82.5" font-family="Helvetica,sans-Serif" font-size="10.00">updateContent</text>
</a>
</g>
</g>
<!-- Node3&#45;&gt;Node13 -->
<g id="edge42_Node000003_Node000013" class="edge">
<title>Node3&#45;&gt;Node13</title>
<g id="a_edge42_Node000003_Node000013"><a xlink:title=" ">
<path fill="none" stroke="#63b8ff" d="M486.96,-100.83C535.01,-97.45 601.96,-92.75 647.47,-89.55"/>
<polygon fill="#63b8ff" stroke="#63b8ff" points="647.61,-93.05 657.34,-88.86 647.12,-86.07 647.61,-93.05"/>
</a>
</g>
</g>
<!-- Node14 -->
<g id="Node000014" class="node">
<title>Node14</title>
<g id="a_Node000014"><a xlink:href="$_text_manager_8cpp.html#ab55140c566370b105b9bf81756293fa5" xlink:title=" ">
<polygon fill="white" stroke="#666666" points="594.25,-20 531,-20 531,0 594.25,0 594.25,-20"/>
<text text-anchor="middle" x="562.62" y="-6.5" font-family="Helvetica,sans-Serif" font-size="10.00">writeToFile</text>
</a>
</g>
</g>
<!-- Node3&#45;&gt;Node14 -->
<g id="edge45_Node000003_Node000014" class="edge">
<title>Node3&#45;&gt;Node14</title>
<g id="a_edge45_Node000003_Node000014"><a xlink:title=" ">
<path fill="none" stroke="#63b8ff" d="M440.9,-94.51C459.04,-80.3 492.76,-54.39 522.75,-34 526.48,-31.46 530.47,-28.87 534.42,-26.37"/>
<polygon fill="#63b8ff" stroke="#63b8ff" points="536.06,-29.47 542.71,-21.23 532.37,-23.52 536.06,-29.47"/>
</a>
</g>
</g>
<!-- Node6 -->
<g id="Node000006" class="node">
<title>Node6</title>
<g id="a_Node000006"><a xlink:href="$_text_manager_8cpp.html#a85a282af68cca7cf7d69487d1bacdc47" xlink:title=" ">
<polygon fill="white" stroke="#666666" points="741.12,-172 656.88,-172 656.88,-152 741.12,-152 741.12,-172"/>
<text text-anchor="middle" x="699" y="-158.5" font-family="Helvetica,sans-Serif" font-size="10.00">extractBetween</text>
</a>
</g>
</g>
<!-- Node5&#45;&gt;Node6 -->
<g id="edge28_Node000005_Node000006" class="edge">
<title>Node5&#45;&gt;Node6</title>
<g id="a_edge28_Node000005_Node000006"><a xlink:title=" ">
<path fill="none" stroke="#63b8ff" d="M586.72,-130.53C604.11,-135.45 628.53,-142.36 650.08,-148.45"/>
<polygon fill="#63b8ff" stroke="#63b8ff" points="648.99,-151.78 659.57,-151.13 650.9,-145.04 648.99,-151.78"/>
</a>
</g>
</g>
<!-- Node12 -->
<g id="Node000012" class="node">
<title>Node12</title>
<g id="a_Node000012"><a xlink:href="$_text_manager_8cpp.html#a84a9e24fc5cce3cebf746bb656909bf8" xlink:title=" ">
<polygon fill="white" stroke="#666666" points="759.5,-134 638.5,-134 638.5,-114 759.5,-114 759.5,-134"/>
<text text-anchor="middle" x="699" y="-120.5" font-family="Helvetica,sans-Serif" font-size="10.00">extractBetweenReverse</text>
</a>
</g>
</g>
<!-- Node5&#45;&gt;Node12 -->
<g id="edge37_Node000005_Node000012" class="edge">
<title>Node5&#45;&gt;Node12</title>
<g id="a_edge37_Node000005_Node000012"><a xlink:title=" ">
<path fill="none" stroke="#63b8ff" d="M586.72,-124C598.09,-124 612.46,-124 627.07,-124"/>
<polygon fill="#63b8ff" stroke="#63b8ff" points="626.73,-127.5 636.73,-124 626.73,-120.5 626.73,-127.5"/>
</a>
</g>
</g>
<!-- Node6&#45;&gt;Node7 -->
<g id="edge29_Node000006_Node000007" class="edge">
<title>Node6&#45;&gt;Node7</title>
<g id="a_edge29_Node000006_Node000007"><a xlink:title=" ">
<path fill="none" stroke="#63b8ff" d="M741.62,-156.2C756.21,-154.16 772.73,-151.86 787.83,-149.75"/>
<polygon fill="#63b8ff" stroke="#63b8ff" points="788.13,-153.24 797.55,-148.4 787.16,-146.31 788.13,-153.24"/>
</a>
</g>
</g>
<!-- Node6&#45;&gt;Node11 -->
<g id="edge35_Node000006_Node000011" class="edge">
<title>Node6&#45;&gt;Node11</title>
<g id="a_edge35_Node000006_Node000011"><a xlink:title=" ">
<path fill="none" stroke="#63b8ff" d="M739.15,-151.54C746.09,-149.11 753.13,-146.27 759.5,-143 780.41,-132.27 801.67,-115.97 816.5,-103.55"/>
<polygon fill="#63b8ff" stroke="#63b8ff" points="818.38,-106.55 823.69,-97.38 813.82,-101.23 818.38,-106.55"/>
</a>
</g>
</g>
<!-- Node8 -->
<g id="Node000008" class="node">
<title>Node8</title>
<g id="a_Node000008"><a xlink:href="$_text_manager_8cpp.html#a5b66873abcff2faee361721f86b65dd0" xlink:title=" ">
<polygon fill="white" stroke="#666666" points="993.25,-134 925.5,-134 925.5,-114 993.25,-114 993.25,-134"/>
<text text-anchor="middle" x="959.38" y="-120.5" font-family="Helvetica,sans-Serif" font-size="10.00">getPosAfter</text>
</a>
</g>
</g>
<!-- Node7&#45;&gt;Node8 -->
<g id="edge30_Node000007_Node000008" class="edge">
<title>Node7&#45;&gt;Node8</title>
<g id="a_edge30_Node000007_Node000008"><a xlink:title=" ">
<path fill="none" stroke="#63b8ff" d="M875.6,-137.09C887.73,-135.17 901.3,-133.03 913.9,-131.03"/>
<polygon fill="#63b8ff" stroke="#63b8ff" points="914.29,-134.52 923.63,-129.5 913.2,-127.6 914.29,-134.52"/>
</a>
</g>
</g>
<!-- Node10 -->
<g id="Node000010" class="node">
<title>Node10</title>
<g id="a_Node000010"><a xlink:href="$_text_manager_8cpp.html#a2946b90fb3df56b0a74d53eb4160f4e2" xlink:title=" ">
<polygon fill="white" stroke="#666666" points="1003.75,-172 915,-172 915,-152 1003.75,-152 1003.75,-172"/>
<text text-anchor="middle" x="959.38" y="-158.5" font-family="Helvetica,sans-Serif" font-size="10.00">getStringStarting</text>
</a>
</g>
</g>
<!-- Node7&#45;&gt;Node10 -->
<g id="edge32_Node000007_Node000010" class="edge">
<title>Node7&#45;&gt;Node10</title>
<g id="a_edge32_Node000007_Node000010"><a xlink:title=" ">
<path fill="none" stroke="#63b8ff" d="M875.6,-148.91C884.41,-150.3 893.99,-151.82 903.4,-153.31"/>
<polygon fill="#63b8ff" stroke="#63b8ff" points="902.82,-156.76 913.24,-154.86 903.91,-149.84 902.82,-156.76"/>
</a>
</g>
</g>
<!-- Node9 -->
<g id="Node000009" class="node">
<title>Node9</title>
<g id="a_Node000009"><a xlink:href="$_text_manager_8cpp.html#a3f4afb2b62acd297e783a22ffa9a7000" xlink:title=" ">
<polygon fill="white" stroke="#666666" points="1130,-134 1039.75,-134 1039.75,-114 1130,-114 1130,-134"/>
<text text-anchor="middle" x="1084.88" y="-120.5" font-family="Helvetica,sans-Serif" font-size="10.00">getSequencePos</text>
</a>
</g>
</g>
<!-- Node8&#45;&gt;Node9 -->
<g id="edge31_Node000008_Node000009" class="edge">
<title>Node8&#45;&gt;Node9</title>
<g id="a_edge31_Node000008_Node000009"><a xlink:title=" ">
<path fill="none" stroke="#63b8ff" d="M993.47,-124C1004.19,-124 1016.39,-124 1028.29,-124"/>
<polygon fill="#63b8ff" stroke="#63b8ff" points="1028.02,-127.5 1038.02,-124 1028.02,-120.5 1028.02,-127.5"/>
</a>
</g>
</g>
<!-- Node10&#45;&gt;Node9 -->
<g id="edge33_Node000010_Node000009" class="edge">
<title>Node10&#45;&gt;Node9</title>
<g id="a_edge33_Node000010_Node000009"><a xlink:title=" ">
<path fill="none" stroke="#63b8ff" d="M994.45,-151.52C1008.22,-147.28 1024.3,-142.33 1039,-137.81"/>
<polygon fill="#63b8ff" stroke="#63b8ff" points="1039.94,-141.18 1048.47,-134.9 1037.88,-134.49 1039.94,-141.18"/>
</a>
</g>
</g>
<!-- Node10&#45;&gt;Node10 -->
<g id="edge34_Node000010_Node000010" class="edge">
<title>Node10&#45;&gt;Node10</title>
<g id="a_edge34_Node000010_Node000010"><a xlink:title=" ">
<path fill="none" stroke="#63b8ff" d="M939.97,-172.34C931.68,-180.98 938.15,-190 959.38,-190 970.98,-190 978.18,-187.3 980.96,-183.44"/>
<polygon fill="#63b8ff" stroke="#63b8ff" points="984.43,-182.96 979.07,-173.82 977.56,-184.31 984.43,-182.96"/>
</a>
</g>
</g>
<!-- Node11&#45;&gt;Node9 -->
<g id="edge36_Node000011_Node000009" class="edge">
<title>Node11&#45;&gt;Node9</title>
<g id="a_edge36_Node000011_Node000009"><a xlink:title=" ">
<path fill="none" stroke="#63b8ff" d="M879.25,-89.34C912.86,-92.41 961.59,-97.61 1003.75,-105 1013.26,-106.67 1023.34,-108.78 1033.01,-110.98"/>
<polygon fill="#63b8ff" stroke="#63b8ff" points="1032.12,-114.37 1042.65,-113.25 1033.72,-107.55 1032.12,-114.37"/>
</a>
</g>
</g>
<!-- Node12&#45;&gt;Node7 -->
<g id="edge38_Node000012_Node000007" class="edge">
<title>Node12&#45;&gt;Node7</title>
<g id="a_edge38_Node000012_Node000007"><a xlink:title=" ">
<path fill="none" stroke="#63b8ff" d="M759.76,-132.33C769.11,-133.64 778.68,-134.97 787.74,-136.23"/>
<polygon fill="#63b8ff" stroke="#63b8ff" points="787,-139.67 797.39,-137.58 787.97,-132.73 787,-139.67"/>
</a>
</g>
</g>
<!-- Node12&#45;&gt;Node11 -->
<g id="edge39_Node000012_Node000011" class="edge">
<title>Node12&#45;&gt;Node11</title>
<g id="a_edge39_Node000012_Node000011"><a xlink:title=" ">
<path fill="none" stroke="#63b8ff" d="M737.59,-113.52C753.08,-109.2 771.22,-104.14 787.7,-99.54"/>
<polygon fill="#63b8ff" stroke="#63b8ff" points="788.63,-102.91 797.32,-96.86 786.75,-96.17 788.63,-102.91"/>
</a>
</g>
</g>
<!-- Node13&#45;&gt;Node7 -->
<g id="edge43_Node000013_Node000007" class="edge">
<title>Node13&#45;&gt;Node7</title>
<g id="a_edge43_Node000013_Node000007"><a xlink:title=" ">
<path fill="none" stroke="#63b8ff" d="M735.87,-96.49C743.73,-99.06 751.96,-101.95 759.5,-105 775.65,-111.53 793.09,-120.04 807.25,-127.35"/>
<polygon fill="#63b8ff" stroke="#63b8ff" points="805.55,-130.41 816.04,-131.95 808.8,-124.21 805.55,-130.41"/>
</a>
</g>
</g>
<!-- Node13&#45;&gt;Node11 -->
<g id="edge44_Node000013_Node000011" class="edge">
<title>Node13&#45;&gt;Node11</title>
<g id="a_edge44_Node000013_Node000011"><a xlink:title=" ">
<path fill="none" stroke="#63b8ff" d="M739.04,-86C753.08,-86 769.14,-86 784.12,-86"/>
<polygon fill="#63b8ff" stroke="#63b8ff" points="783.79,-89.5 793.79,-86 783.79,-82.5 783.79,-89.5"/>
</a>
</g>
</g>
<!-- Node15 -->
<g id="Node000015" class="node">
<title>Node15</title>
<g id="a_Node000015"><a xlink:href="$_text_manager_8cpp.html#a4a86df56d2737552b2fd63bfa85c5800" xlink:title=" ">
<polygon fill="white" stroke="#666666" points="741.88,-20 656.12,-20 656.12,0 741.88,0 741.88,-20"/>
<text text-anchor="middle" x="699" y="-6.5" font-family="Helvetica,sans-Serif" font-size="10.00">getOfstreamFile</text>
</a>
</g>
</g>
<!-- Node14&#45;&gt;Node15 -->
<g id="edge46_Node000014_Node000015" class="edge">
<title>Node14&#45;&gt;Node15</title>
<g id="a_edge46_Node000014_Node000015"><a xlink:title=" ">
<path fill="none" stroke="#63b8ff" d="M594.45,-10C609.25,-10 627.41,-10 644.37,-10"/>
<polygon fill="#63b8ff" stroke="#63b8ff" points="644.35,-13.5 654.35,-10 644.35,-6.5 644.35,-13.5"/>
</a>
</g>
</g>
</g>
</svg>
