<?xml version="1.0" encoding="UTF-8" standalone="no"?>
<!DOCTYPE svg PUBLIC "-//W3C//DTD SVG 1.1//EN"
 "http://www.w3.org/Graphics/SVG/1.1/DTD/svg11.dtd">
<!-- Generated by graphviz version 12.2.0 (20241103.1931)
 -->
<!-- Title: MyFrame::createPanelTags Pages: 1 -->
<svg width="971pt" height="28pt"
 viewBox="0.00 0.00 971.00 28.00" xmlns="http://www.w3.org/2000/svg" xmlns:xlink="http://www.w3.org/1999/xlink">
<g id="graph0" class="graph" transform="scale(1 1) rotate(0) translate(4 24)">
<title>MyFrame::createPanelTags</title>
<!-- Node1 -->
<g id="Node000001" class="node">
<title>Node1</title>
<g id="a_Node000001"><a xlink:title=" ">
<polygon fill="#999999" stroke="#666666" points="963,-20 827,-20 827,0 963,0 963,-20"/>
<text text-anchor="middle" x="895" y="-6.5" font-family="Helvetica,sans-Serif" font-size="10.00">MyFrame::createPanelTags</text>
</a>
</g>
</g>
<!-- Node2 -->
<g id="Node000002" class="node">
<title>Node2</title>
<g id="a_Node000002"><a xlink:href="$class_my_frame.html#a7795237fe8d78e10023b2e078f9728e3" xlink:title=" ">
<polygon fill="white" stroke="#666666" points="791,-20 642.25,-20 642.25,0 791,0 791,-20"/>
<text text-anchor="middle" x="716.62" y="-6.5" font-family="Helvetica,sans-Serif" font-size="10.00">MyFrame::setProgramWindow</text>
</a>
</g>
</g>
<!-- Node1&#45;&gt;Node2 -->
<g id="edge6_Node000001_Node000002" class="edge">
<title>Node1&#45;&gt;Node2</title>
<g id="a_edge6_Node000001_Node000002"><a xlink:title=" ">
<path fill="none" stroke="#63b8ff" d="M815.14,-10C807.27,-10 799.3,-10 791.49,-10"/>
<polygon fill="#63b8ff" stroke="#63b8ff" points="815.05,-13.5 825.05,-10 815.05,-6.5 815.05,-13.5"/>
</a>
</g>
</g>
<!-- Node3 -->
<g id="Node000003" class="node">
<title>Node3</title>
<g id="a_Node000003"><a xlink:href="$class_my_frame.html#a72b4f4c02d1a12561c4cc1f5f7685db8" xlink:title=" ">
<polygon fill="white" stroke="#666666" points="606.25,-20 468,-20 468,0 606.25,0 606.25,-20"/>
<text text-anchor="middle" x="537.12" y="-6.5" font-family="Helvetica,sans-Serif" font-size="10.00">MyFrame::setProgramPanel</text>
</a>
</g>
</g>
<!-- Node2&#45;&gt;Node3 -->
<g id="edge7_Node000002_Node000003" class="edge">
<title>Node2&#45;&gt;Node3</title>
<g id="a_edge7_Node000002_Node000003"><a xlink:title=" ">
<path fill="none" stroke="#63b8ff" d="M630.55,-10C622.49,-10 614.39,-10 606.51,-10"/>
<polygon fill="#63b8ff" stroke="#63b8ff" points="630.38,-13.5 640.38,-10 630.38,-6.5 630.38,-13.5"/>
</a>
</g>
</g>
<!-- Node4 -->
<g id="Node000004" class="node">
<title>Node4</title>
<g id="a_Node000004"><a xlink:href="$class_my_frame.html#a0281cb45b6735fcbd2c885d98c874d18" xlink:title=" ">
<polygon fill="white" stroke="#666666" points="432,-20 299,-20 299,0 432,0 432,-20"/>
<text text-anchor="middle" x="365.5" y="-6.5" font-family="Helvetica,sans-Serif" font-size="10.00">MyFrame::setBottomPanel</text>
</a>
</g>
</g>
<!-- Node3&#45;&gt;Node4 -->
<g id="edge8_Node000003_Node000004" class="edge">
<title>Node3&#45;&gt;Node4</title>
<g id="a_edge8_Node000003_Node000004"><a xlink:title=" ">
<path fill="none" stroke="#63b8ff" d="M456.3,-10C448.24,-10 440.12,-10 432.23,-10"/>
<polygon fill="#63b8ff" stroke="#63b8ff" points="456.11,-13.5 466.11,-10 456.11,-6.5 456.11,-13.5"/>
</a>
</g>
</g>
<!-- Node5 -->
<g id="Node000005" class="node">
<title>Node5</title>
<g id="a_Node000005"><a xlink:href="$class_my_frame.html#a774684146b2b14e42891f6d8b8a73912" xlink:title=" ">
<polygon fill="white" stroke="#666666" points="263,-20 140.5,-20 140.5,0 263,0 263,-20"/>
<text text-anchor="middle" x="201.75" y="-6.5" font-family="Helvetica,sans-Serif" font-size="10.00">MyFrame::setMainPanel</text>
</a>
</g>
</g>
<!-- Node4&#45;&gt;Node5 -->
<g id="edge9_Node000004_Node000005" class="edge">
<title>Node4&#45;&gt;Node5</title>
<g id="a_edge9_Node000004_Node000005"><a xlink:title=" ">
<path fill="none" stroke="#63b8ff" d="M287.35,-10C279.26,-10 271.13,-10 263.27,-10"/>
<polygon fill="#63b8ff" stroke="#63b8ff" points="287.2,-13.5 297.2,-10 287.2,-6.5 287.2,-13.5"/>
</a>
</g>
</g>
<!-- Node6 -->
<g id="Node000006" class="node">
<title>Node6</title>
<g id="a_Node000006"><a xlink:href="$class_my_frame.html#af13d7bffe3d6844c2331085f423764a4" xlink:title=" ">
<polygon fill="white" stroke="#666666" points="104.5,-20 0,-20 0,0 104.5,0 104.5,-20"/>
<text text-anchor="middle" x="52.25" y="-6.5" font-family="Helvetica,sans-Serif" font-size="10.00">MyFrame::MyFrame</text>
</a>
</g>
</g>
<!-- Node5&#45;&gt;Node6 -->
<g id="edge10_Node000005_Node000006" class="edge">
<title>Node5&#45;&gt;Node6</title>
<g id="a_edge10_Node000005_Node000006"><a xlink:title=" ">
<path fill="none" stroke="#63b8ff" d="M128.91,-10C120.79,-10 112.64,-10 104.85,-10"/>
<polygon fill="#63b8ff" stroke="#63b8ff" points="128.82,-13.5 138.82,-10 128.82,-6.5 128.82,-13.5"/>
</a>
</g>
</g>
</g>
</svg>
