<?xml version="1.0" encoding="UTF-8" standalone="no"?>
<!DOCTYPE svg PUBLIC "-//W3C//DTD SVG 1.1//EN"
 "http://www.w3.org/Graphics/SVG/1.1/DTD/svg11.dtd">
<!-- Generated by graphviz version 12.2.0 (20241103.1931)
 -->
<!-- Title: fsfml::changeColorElement Pages: 1 -->
<svg width="626pt" height="90pt"
 viewBox="0.00 0.00 625.50 90.00" xmlns="http://www.w3.org/2000/svg" xmlns:xlink="http://www.w3.org/1999/xlink">
<g id="graph0" class="graph" transform="scale(1 1) rotate(0) translate(4 86)">
<title>fsfml::changeColorElement</title>
<!-- Node1 -->
<g id="Node000001" class="node">
<title>Node1</title>
<g id="a_Node000001"><a xlink:title=" ">
<polygon fill="#999999" stroke="#666666" points="134.5,-51 0,-51 0,-31 134.5,-31 134.5,-51"/>
<text text-anchor="middle" x="67.25" y="-37.5" font-family="Helvetica,sans-Serif" font-size="10.00">fsfml::changeColorElement</text>
</a>
</g>
</g>
<!-- Node2 -->
<g id="Node000002" class="node">
<title>Node2</title>
<g id="a_Node000002"><a xlink:href="$classfsfml.html#a25eeb8db0d0be9115d85caf1400c018f" xlink:title=" ">
<polygon fill="white" stroke="#666666" points="305,-57 170.5,-57 170.5,-25 305,-25 305,-57"/>
<text text-anchor="start" x="178.5" y="-43.5" font-family="Helvetica,sans-Serif" font-size="10.00">fsfml::changeColorElement</text>
<text text-anchor="middle" x="237.75" y="-31.5" font-family="Helvetica,sans-Serif" font-size="10.00">Mouse</text>
</a>
</g>
</g>
<!-- Node1&#45;&gt;Node2 -->
<g id="edge6_Node000001_Node000002" class="edge">
<title>Node1&#45;&gt;Node2</title>
<g id="a_edge6_Node000001_Node000002"><a xlink:title=" ">
<path fill="none" stroke="#63b8ff" d="M134.85,-41C142.72,-41 150.82,-41 158.83,-41"/>
<polygon fill="#63b8ff" stroke="#63b8ff" points="158.57,-44.5 168.57,-41 158.57,-37.5 158.57,-44.5"/>
</a>
</g>
</g>
<!-- Node3 -->
<g id="Node000003" class="node">
<title>Node3</title>
<g id="a_Node000003"><a xlink:href="$classfsfml.html#a086f93c342c36c44f23fd318faab987b" xlink:title=" ">
<polygon fill="white" stroke="#666666" points="475.5,-82 341,-82 341,-50 475.5,-50 475.5,-82"/>
<text text-anchor="start" x="349" y="-68.5" font-family="Helvetica,sans-Serif" font-size="10.00">fsfml::changeColorElement</text>
<text text-anchor="middle" x="408.25" y="-56.5" font-family="Helvetica,sans-Serif" font-size="10.00">Hover</text>
</a>
</g>
</g>
<!-- Node2&#45;&gt;Node3 -->
<g id="edge7_Node000002_Node000003" class="edge">
<title>Node2&#45;&gt;Node3</title>
<g id="a_edge7_Node000002_Node000003"><a xlink:title=" ">
<path fill="none" stroke="#63b8ff" d="M305.35,-50.88C313.22,-52.05 321.32,-53.25 329.33,-54.44"/>
<polygon fill="#63b8ff" stroke="#63b8ff" points="328.68,-57.88 339.09,-55.89 329.71,-50.96 328.68,-57.88"/>
</a>
</g>
</g>
<!-- Node5 -->
<g id="Node000005" class="node">
<title>Node5</title>
<g id="a_Node000005"><a xlink:href="$classfsfml.html#a6206758c01c270444e8c704535a2acb7" xlink:title=" ">
<polygon fill="white" stroke="#666666" points="475.5,-32 341,-32 341,0 475.5,0 475.5,-32"/>
<text text-anchor="start" x="349" y="-18.5" font-family="Helvetica,sans-Serif" font-size="10.00">fsfml::changeColorElement</text>
<text text-anchor="middle" x="408.25" y="-6.5" font-family="Helvetica,sans-Serif" font-size="10.00">Pressed</text>
</a>
</g>
</g>
<!-- Node2&#45;&gt;Node5 -->
<g id="edge9_Node000002_Node000005" class="edge">
<title>Node2&#45;&gt;Node5</title>
<g id="a_edge9_Node000002_Node000005"><a xlink:title=" ">
<path fill="none" stroke="#63b8ff" d="M305.35,-31.12C313.22,-29.95 321.32,-28.75 329.33,-27.56"/>
<polygon fill="#63b8ff" stroke="#63b8ff" points="329.71,-31.04 339.09,-26.11 328.68,-24.12 329.71,-31.04"/>
</a>
</g>
</g>
<!-- Node4 -->
<g id="Node000004" class="node">
<title>Node4</title>
<g id="a_Node000004"><a xlink:href="$classfsfml.html#a5eb57f7a09768d185d53cf87fb8544ee" xlink:title=" ">
<polygon fill="white" stroke="#666666" points="617.5,-51 511.5,-51 511.5,-31 617.5,-31 617.5,-51"/>
<text text-anchor="middle" x="564.5" y="-37.5" font-family="Helvetica,sans-Serif" font-size="10.00">fsfml::setSpriteColor</text>
</a>
</g>
</g>
<!-- Node3&#45;&gt;Node4 -->
<g id="edge8_Node000003_Node000004" class="edge">
<title>Node3&#45;&gt;Node4</title>
<g id="a_edge8_Node000003_Node000004"><a xlink:title=" ">
<path fill="none" stroke="#63b8ff" d="M475.56,-55.25C483.66,-53.94 491.93,-52.6 499.99,-51.29"/>
<polygon fill="#63b8ff" stroke="#63b8ff" points="500.41,-54.77 509.72,-49.72 499.29,-47.86 500.41,-54.77"/>
</a>
</g>
</g>
<!-- Node5&#45;&gt;Node4 -->
<g id="edge10_Node000005_Node000004" class="edge">
<title>Node5&#45;&gt;Node4</title>
<g id="a_edge10_Node000005_Node000004"><a xlink:title=" ">
<path fill="none" stroke="#63b8ff" d="M475.56,-26.75C483.66,-28.06 491.93,-29.4 499.99,-30.71"/>
<polygon fill="#63b8ff" stroke="#63b8ff" points="499.29,-34.14 509.72,-32.28 500.41,-27.23 499.29,-34.14"/>
</a>
</g>
</g>
</g>
</svg>
