<?xml version="1.0" encoding="UTF-8" standalone="no"?>
<!DOCTYPE svg PUBLIC "-//W3C//DTD SVG 1.1//EN"
 "http://www.w3.org/Graphics/SVG/1.1/DTD/svg11.dtd">
<!-- Generated by graphviz version 12.2.0 (20241103.1931)
 -->
<!-- Title: fsfml::startSFML Pages: 1 -->
<svg width="1114pt" height="332pt"
 viewBox="0.00 0.00 1114.00 332.00" xmlns="http://www.w3.org/2000/svg" xmlns:xlink="http://www.w3.org/1999/xlink">
<g id="graph0" class="graph" transform="scale(1 1) rotate(0) translate(4 328)">
<title>fsfml::startSFML</title>
<!-- Node1 -->
<g id="Node000001" class="node">
<title>Node1</title>
<g id="a_Node000001"><a xlink:title=" ">
<polygon fill="#999999" stroke="#666666" points="89.5,-229 0,-229 0,-209 89.5,-209 89.5,-229"/>
<text text-anchor="middle" x="44.75" y="-215.5" font-family="Helvetica,sans-Serif" font-size="10.00">fsfml::startSFML</text>
</a>
</g>
</g>
<!-- Node2 -->
<g id="Node000002" class="node">
<title>Node2</title>
<g id="a_Node000002"><a xlink:href="$sys_commands_8cpp.html#a61d85a8cc16ea3d6e2e86d14beb29804" xlink:title=" ">
<polygon fill="white" stroke="#666666" points="239.75,-286 125.5,-286 125.5,-266 239.75,-266 239.75,-286"/>
<text text-anchor="middle" x="182.62" y="-272.5" font-family="Helvetica,sans-Serif" font-size="10.00">GetRelativeResolution</text>
</a>
</g>
</g>
<!-- Node1&#45;&gt;Node2 -->
<g id="edge28_Node000001_Node000002" class="edge">
<title>Node1&#45;&gt;Node2</title>
<g id="a_edge28_Node000001_Node000002"><a xlink:title=" ">
<path fill="none" stroke="#63b8ff" d="M65.78,-229.35C81.73,-237.4 104.75,-248.58 125.5,-257 129.57,-258.65 133.84,-260.28 138.13,-261.85"/>
<polygon fill="#63b8ff" stroke="#63b8ff" points="136.72,-265.06 147.31,-265.09 139.05,-258.46 136.72,-265.06"/>
</a>
</g>
</g>
<!-- Node3 -->
<g id="Node000003" class="node">
<title>Node3</title>
<g id="a_Node000003"><a xlink:href="$classfsfml.html#ab642e067930233a3a95068fb80c7c410" xlink:title=" ">
<polygon fill="white" stroke="#666666" points="230.38,-248 134.88,-248 134.88,-228 230.38,-228 230.38,-248"/>
<text text-anchor="middle" x="182.62" y="-234.5" font-family="Helvetica,sans-Serif" font-size="10.00">fsfml::initGraphics</text>
</a>
</g>
</g>
<!-- Node1&#45;&gt;Node3 -->
<g id="edge29_Node000001_Node000003" class="edge">
<title>Node1&#45;&gt;Node3</title>
<g id="a_edge29_Node000001_Node000003"><a xlink:title=" ">
<path fill="none" stroke="#63b8ff" d="M89.86,-225.17C100.56,-226.66 112.15,-228.29 123.39,-229.86"/>
<polygon fill="#63b8ff" stroke="#63b8ff" points="122.57,-233.28 132.96,-231.19 123.54,-226.34 122.57,-233.28"/>
</a>
</g>
</g>
<!-- Node11 -->
<g id="Node000011" class="node">
<title>Node11</title>
<g id="a_Node000011"><a xlink:href="$classfsfml.html#a33b00964a94d045d04ddabc99353df0f" xlink:title=" ">
<polygon fill="white" stroke="#666666" points="228.5,-210 136.75,-210 136.75,-190 228.5,-190 228.5,-210"/>
<text text-anchor="middle" x="182.62" y="-196.5" font-family="Helvetica,sans-Serif" font-size="10.00">fsfml::initWindow</text>
</a>
</g>
</g>
<!-- Node1&#45;&gt;Node11 -->
<g id="edge37_Node000001_Node000011" class="edge">
<title>Node1&#45;&gt;Node11</title>
<g id="a_edge37_Node000001_Node000011"><a xlink:title=" ">
<path fill="none" stroke="#63b8ff" d="M89.86,-212.83C101.14,-211.25 113.42,-209.54 125.22,-207.89"/>
<polygon fill="#63b8ff" stroke="#63b8ff" points="125.42,-211.39 134.83,-206.54 124.45,-204.46 125.42,-211.39"/>
</a>
</g>
</g>
<!-- Node12 -->
<g id="Node000012" class="node">
<title>Node12</title>
<g id="a_Node000012"><a xlink:href="$classfsfml.html#a4bf50b65a4a6b5ed3e57b7b26638534a" xlink:title=" ">
<polygon fill="white" stroke="#666666" points="231.5,-115 133.75,-115 133.75,-95 231.5,-95 231.5,-115"/>
<text text-anchor="middle" x="182.62" y="-101.5" font-family="Helvetica,sans-Serif" font-size="10.00">fsfml::windowLoop</text>
</a>
</g>
</g>
<!-- Node1&#45;&gt;Node12 -->
<g id="edge38_Node000001_Node000012" class="edge">
<title>Node1&#45;&gt;Node12</title>
<g id="a_edge38_Node000001_Node000012"><a xlink:title=" ">
<path fill="none" stroke="#63b8ff" d="M57.81,-208.88C81.02,-189.41 132.14,-146.52 160.91,-122.38"/>
<polygon fill="#63b8ff" stroke="#63b8ff" points="162.83,-125.34 168.24,-116.23 158.33,-119.98 162.83,-125.34"/>
</a>
</g>
</g>
<!-- Node4 -->
<g id="Node000004" class="node">
<title>Node4</title>
<g id="a_Node000004"><a xlink:href="$classfsfml.html#a5528a53174db6d10551021c4371ead80" xlink:title=" ">
<polygon fill="white" stroke="#666666" points="393,-286 289.25,-286 289.25,-266 393,-266 393,-286"/>
<text text-anchor="middle" x="341.12" y="-272.5" font-family="Helvetica,sans-Serif" font-size="10.00">fsfml::loadAllSprites</text>
</a>
</g>
</g>
<!-- Node3&#45;&gt;Node4 -->
<g id="edge30_Node000003_Node000004" class="edge">
<title>Node3&#45;&gt;Node4</title>
<g id="a_edge30_Node000003_Node000004"><a xlink:title=" ">
<path fill="none" stroke="#63b8ff" d="M226.8,-248.48C245.11,-252.93 266.64,-258.16 285.99,-262.85"/>
<polygon fill="#63b8ff" stroke="#63b8ff" points="285.07,-266.23 295.62,-265.19 286.72,-259.43 285.07,-266.23"/>
</a>
</g>
</g>
<!-- Node8 -->
<g id="Node000008" class="node">
<title>Node8</title>
<g id="a_Node000008"><a xlink:href="$classfsfml.html#a3fc8c544051e5c26bc9376fc255b87a4" xlink:title=" ">
<polygon fill="white" stroke="#666666" points="396.38,-248 285.88,-248 285.88,-228 396.38,-228 396.38,-248"/>
<text text-anchor="middle" x="341.12" y="-234.5" font-family="Helvetica,sans-Serif" font-size="10.00">fsfml::loadAllTextures</text>
</a>
</g>
</g>
<!-- Node3&#45;&gt;Node8 -->
<g id="edge34_Node000003_Node000008" class="edge">
<title>Node3&#45;&gt;Node8</title>
<g id="a_edge34_Node000003_Node000008"><a xlink:title=" ">
<path fill="none" stroke="#63b8ff" d="M230.58,-238C244.36,-238 259.68,-238 274.4,-238"/>
<polygon fill="#63b8ff" stroke="#63b8ff" points="273.99,-241.5 283.99,-238 273.99,-234.5 273.99,-241.5"/>
</a>
</g>
</g>
<!-- Node5 -->
<g id="Node000005" class="node">
<title>Node5</title>
<g id="a_Node000005"><a xlink:href="$classfsfml.html#a5baebfef9137bd5f516eea18e45bebe7" xlink:title=" ">
<polygon fill="white" stroke="#666666" points="533.5,-286 446.25,-286 446.25,-266 533.5,-266 533.5,-286"/>
<text text-anchor="middle" x="489.88" y="-272.5" font-family="Helvetica,sans-Serif" font-size="10.00">fsfml::loadSprite</text>
</a>
</g>
</g>
<!-- Node4&#45;&gt;Node5 -->
<g id="edge31_Node000004_Node000005" class="edge">
<title>Node4&#45;&gt;Node5</title>
<g id="a_edge31_Node000004_Node000005"><a xlink:title=" ">
<path fill="none" stroke="#63b8ff" d="M393.45,-276C406.88,-276 421.4,-276 434.96,-276"/>
<polygon fill="#63b8ff" stroke="#63b8ff" points="434.57,-279.5 444.57,-276 434.57,-272.5 434.57,-279.5"/>
</a>
</g>
</g>
<!-- Node6 -->
<g id="Node000006" class="node">
<title>Node6</title>
<g id="a_Node000006"><a xlink:href="$classfsfml.html#a1855395d90d78b9160203b6b051f46d3" xlink:title=" ">
<polygon fill="white" stroke="#666666" points="661.62,-324 576.62,-324 576.62,-304 661.62,-304 661.62,-324"/>
<text text-anchor="middle" x="619.12" y="-310.5" font-family="Helvetica,sans-Serif" font-size="10.00">fsfml::addSprite</text>
</a>
</g>
</g>
<!-- Node5&#45;&gt;Node6 -->
<g id="edge32_Node000005_Node000006" class="edge">
<title>Node5&#45;&gt;Node6</title>
<g id="a_edge32_Node000005_Node000006"><a xlink:title=" ">
<path fill="none" stroke="#63b8ff" d="M525.98,-286.48C540.31,-290.76 557.07,-295.77 572.33,-300.33"/>
<polygon fill="#63b8ff" stroke="#63b8ff" points="571.1,-303.61 581.68,-303.12 573.1,-296.9 571.1,-303.61"/>
</a>
</g>
</g>
<!-- Node7 -->
<g id="Node000007" class="node">
<title>Node7</title>
<g id="a_Node000007"><a xlink:href="$classfsfml.html#aaad6a42f269f248954ad4d2e253a65db" xlink:title=" ">
<polygon fill="white" stroke="#666666" points="663.88,-286 574.38,-286 574.38,-266 663.88,-266 663.88,-286"/>
<text text-anchor="middle" x="619.12" y="-272.5" font-family="Helvetica,sans-Serif" font-size="10.00">fsfml::getTexture</text>
</a>
</g>
</g>
<!-- Node5&#45;&gt;Node7 -->
<g id="edge33_Node000005_Node000007" class="edge">
<title>Node5&#45;&gt;Node7</title>
<g id="a_edge33_Node000005_Node000007"><a xlink:title=" ">
<path fill="none" stroke="#63b8ff" d="M533.96,-276C543.28,-276 553.27,-276 562.99,-276"/>
<polygon fill="#63b8ff" stroke="#63b8ff" points="562.71,-279.5 572.71,-276 562.71,-272.5 562.71,-279.5"/>
</a>
</g>
</g>
<!-- Node9 -->
<g id="Node000009" class="node">
<title>Node9</title>
<g id="a_Node000009"><a xlink:href="$classfsfml.html#a85e3525bac516648d01f23a1764087c4" xlink:title=" ">
<polygon fill="white" stroke="#666666" points="536.88,-248 442.88,-248 442.88,-228 536.88,-228 536.88,-248"/>
<text text-anchor="middle" x="489.88" y="-234.5" font-family="Helvetica,sans-Serif" font-size="10.00">fsfml::loadTexture</text>
</a>
</g>
</g>
<!-- Node8&#45;&gt;Node9 -->
<g id="edge35_Node000008_Node000009" class="edge">
<title>Node8&#45;&gt;Node9</title>
<g id="a_edge35_Node000008_Node000009"><a xlink:title=" ">
<path fill="none" stroke="#63b8ff" d="M396.77,-238C408.14,-238 420.15,-238 431.61,-238"/>
<polygon fill="#63b8ff" stroke="#63b8ff" points="431.33,-241.5 441.33,-238 431.33,-234.5 431.33,-241.5"/>
</a>
</g>
</g>
<!-- Node10 -->
<g id="Node000010" class="node">
<title>Node10</title>
<g id="a_Node000010"><a xlink:href="$classfsfml.html#a1be6e8780abb71f21c69ce8bc3da6bee" xlink:title=" ">
<polygon fill="white" stroke="#666666" points="665,-248 573.25,-248 573.25,-228 665,-228 665,-248"/>
<text text-anchor="middle" x="619.12" y="-234.5" font-family="Helvetica,sans-Serif" font-size="10.00">fsfml::addTexture</text>
</a>
</g>
</g>
<!-- Node9&#45;&gt;Node10 -->
<g id="edge36_Node000009_Node000010" class="edge">
<title>Node9&#45;&gt;Node10</title>
<g id="a_edge36_Node000009_Node000010"><a xlink:title=" ">
<path fill="none" stroke="#63b8ff" d="M537.18,-238C545.1,-238 553.41,-238 561.56,-238"/>
<polygon fill="#63b8ff" stroke="#63b8ff" points="561.41,-241.5 571.41,-238 561.41,-234.5 561.41,-241.5"/>
</a>
</g>
</g>
<!-- Node13 -->
<g id="Node000013" class="node">
<title>Node13</title>
<g id="a_Node000013"><a xlink:href="$classfsfml.html#a9570e72eefe15664a6859f36c610fafc" xlink:title=" ">
<polygon fill="white" stroke="#666666" points="385.5,-172 296.75,-172 296.75,-152 385.5,-152 385.5,-172"/>
<text text-anchor="middle" x="341.12" y="-158.5" font-family="Helvetica,sans-Serif" font-size="10.00">fsfml::eventLoop</text>
</a>
</g>
</g>
<!-- Node12&#45;&gt;Node13 -->
<g id="edge39_Node000012_Node000013" class="edge">
<title>Node12&#45;&gt;Node13</title>
<g id="a_edge39_Node000012_Node000013"><a xlink:title=" ">
<path fill="none" stroke="#63b8ff" d="M206.84,-115.36C225.31,-123.42 251.93,-134.6 275.75,-143 280.77,-144.77 286.06,-146.52 291.35,-148.19"/>
<polygon fill="#63b8ff" stroke="#63b8ff" points="290.1,-151.47 300.68,-151.06 292.15,-144.77 290.1,-151.47"/>
</a>
</g>
</g>
<!-- Node17 -->
<g id="Node000017" class="node">
<title>Node17</title>
<g id="a_Node000017"><a xlink:href="$classfsfml.html#a8d4788570e3b2744353ac098112bd6a4" xlink:title=" ">
<polygon fill="white" stroke="#666666" points="390.38,-134 291.88,-134 291.88,-114 390.38,-114 390.38,-134"/>
<text text-anchor="middle" x="341.12" y="-120.5" font-family="Helvetica,sans-Serif" font-size="10.00">fsfml::fillTextTyped</text>
</a>
</g>
</g>
<!-- Node12&#45;&gt;Node17 -->
<g id="edge43_Node000012_Node000017" class="edge">
<title>Node12&#45;&gt;Node17</title>
<g id="a_edge43_Node000012_Node000017"><a xlink:title=" ">
<path fill="none" stroke="#63b8ff" d="M231.86,-110.86C247.11,-112.71 264.15,-114.78 280.12,-116.71"/>
<polygon fill="#63b8ff" stroke="#63b8ff" points="279.66,-120.18 290.01,-117.92 280.51,-113.24 279.66,-120.18"/>
</a>
</g>
</g>
<!-- Node18 -->
<g id="Node000018" class="node">
<title>Node18</title>
<g id="a_Node000018"><a xlink:href="$classfsfml.html#ad18f9a13c0057b7a42ec1bab4cf15376" xlink:title=" ">
<polygon fill="white" stroke="#666666" points="390,-96 292.25,-96 292.25,-76 390,-76 390,-96"/>
<text text-anchor="middle" x="341.12" y="-82.5" font-family="Helvetica,sans-Serif" font-size="10.00">fsfml::initAllPanels</text>
</a>
</g>
</g>
<!-- Node12&#45;&gt;Node18 -->
<g id="edge44_Node000012_Node000018" class="edge">
<title>Node12&#45;&gt;Node18</title>
<g id="a_edge44_Node000012_Node000018"><a xlink:title=" ">
<path fill="none" stroke="#63b8ff" d="M231.86,-99.14C247.33,-97.27 264.64,-95.16 280.81,-93.2"/>
<polygon fill="#63b8ff" stroke="#63b8ff" points="280.77,-96.73 290.28,-92.05 279.93,-89.78 280.77,-96.73"/>
</a>
</g>
</g>
<!-- Node23 -->
<g id="Node000023" class="node">
<title>Node23</title>
<g id="a_Node000023"><a xlink:href="$classfsfml.html#a95f6eb53223fafa2f2b06548f4d1b323" xlink:title=" ">
<polygon fill="white" stroke="#666666" points="804.38,-58 720.12,-58 720.12,-38 804.38,-38 804.38,-58"/>
<text text-anchor="middle" x="762.25" y="-44.5" font-family="Helvetica,sans-Serif" font-size="10.00">fsfml::seePanel</text>
</a>
</g>
</g>
<!-- Node12&#45;&gt;Node23 -->
<g id="edge54_Node000012_Node000023" class="edge">
<title>Node12&#45;&gt;Node23</title>
<g id="a_edge54_Node000012_Node000023"><a xlink:title=" ">
<path fill="none" stroke="#63b8ff" d="M203.1,-94.6C221.31,-85.45 249.55,-72.73 275.75,-67 430.09,-33.27 618.46,-38.72 708.46,-44.08"/>
<polygon fill="#63b8ff" stroke="#63b8ff" points="708,-47.56 718.2,-44.69 708.44,-40.57 708,-47.56"/>
</a>
</g>
</g>
<!-- Node27 -->
<g id="Node000027" class="node">
<title>Node27</title>
<g id="a_Node000027"><a xlink:href="$classfsfml.html#ac7247f5821521ffff228e570f0b74b42" xlink:title=" ">
<polygon fill="white" stroke="#666666" points="406.5,-20 275.75,-20 275.75,0 406.5,0 406.5,-20"/>
<text text-anchor="middle" x="341.12" y="-6.5" font-family="Helvetica,sans-Serif" font-size="10.00">fsfml::resetEventVariables</text>
</a>
</g>
</g>
<!-- Node12&#45;&gt;Node27 -->
<g id="edge53_Node000012_Node000027" class="edge">
<title>Node12&#45;&gt;Node27</title>
<g id="a_edge53_Node000012_Node000027"><a xlink:title=" ">
<path fill="none" stroke="#63b8ff" d="M194.76,-94.61C211.34,-79.58 243.97,-51.64 275.75,-34 281.98,-30.54 288.8,-27.39 295.61,-24.59"/>
<polygon fill="#63b8ff" stroke="#63b8ff" points="296.73,-27.92 304.79,-21.04 294.2,-21.39 296.73,-27.92"/>
</a>
</g>
</g>
<!-- Node14 -->
<g id="Node000014" class="node">
<title>Node14</title>
<g id="a_Node000014"><a xlink:href="$classfsfml.html#a6c776fc7941d47fb2f10d9a2579d2a2e" xlink:title=" ">
<polygon fill="white" stroke="#666666" points="529.38,-210 450.38,-210 450.38,-190 529.38,-190 529.38,-210"/>
<text text-anchor="middle" x="489.88" y="-196.5" font-family="Helvetica,sans-Serif" font-size="10.00">fsfml::convertf</text>
</a>
</g>
</g>
<!-- Node13&#45;&gt;Node14 -->
<g id="edge40_Node000013_Node000014" class="edge">
<title>Node13&#45;&gt;Node14</title>
<g id="a_edge40_Node000013_Node000014"><a xlink:title=" ">
<path fill="none" stroke="#63b8ff" d="M382.61,-172.48C400.04,-177 420.58,-182.32 438.94,-187.07"/>
<polygon fill="#63b8ff" stroke="#63b8ff" points="438.01,-190.44 448.57,-189.56 439.77,-183.67 438.01,-190.44"/>
</a>
</g>
</g>
<!-- Node15 -->
<g id="Node000015" class="node">
<title>Node15</title>
<g id="a_Node000015"><a xlink:href="$classfsfml.html#ae77bbd16922c35eb009c7806cde4b50b" xlink:title=" ">
<polygon fill="white" stroke="#666666" points="530.5,-172 449.25,-172 449.25,-152 530.5,-152 530.5,-172"/>
<text text-anchor="middle" x="489.88" y="-158.5" font-family="Helvetica,sans-Serif" font-size="10.00">fsfml::convertu</text>
</a>
</g>
</g>
<!-- Node13&#45;&gt;Node15 -->
<g id="edge41_Node000013_Node000015" class="edge">
<title>Node13&#45;&gt;Node15</title>
<g id="a_edge41_Node000013_Node000015"><a xlink:title=" ">
<path fill="none" stroke="#63b8ff" d="M385.76,-162C402.1,-162 420.8,-162 437.76,-162"/>
<polygon fill="#63b8ff" stroke="#63b8ff" points="437.65,-165.5 447.65,-162 437.65,-158.5 437.65,-165.5"/>
</a>
</g>
</g>
<!-- Node16 -->
<g id="Node000016" class="node">
<title>Node16</title>
<g id="a_Node000016"><a xlink:href="$classfsfml.html#a78e66a4344c9ba11b477ffc9f33b9a0d" xlink:title=" ">
<polygon fill="white" stroke="#666666" points="537.25,-134 442.5,-134 442.5,-114 537.25,-114 537.25,-134"/>
<text text-anchor="middle" x="489.88" y="-120.5" font-family="Helvetica,sans-Serif" font-size="10.00">fsfml::showVector</text>
</a>
</g>
</g>
<!-- Node13&#45;&gt;Node16 -->
<g id="edge42_Node000013_Node000016" class="edge">
<title>Node13&#45;&gt;Node16</title>
<g id="a_edge42_Node000013_Node000016"><a xlink:title=" ">
<path fill="none" stroke="#63b8ff" d="M382.61,-151.52C399.62,-147.11 419.59,-141.94 437.6,-137.28"/>
<polygon fill="#63b8ff" stroke="#63b8ff" points="438.25,-140.72 447.05,-134.83 436.5,-133.95 438.25,-140.72"/>
</a>
</g>
</g>
<!-- Node19 -->
<g id="Node000019" class="node">
<title>Node19</title>
<g id="a_Node000019"><a xlink:href="$classfsfml.html#a405db5ed694c7e2664a82f690eeb87d2" xlink:title=" ">
<polygon fill="white" stroke="#666666" points="530.12,-96 449.62,-96 449.62,-76 530.12,-76 530.12,-96"/>
<text text-anchor="middle" x="489.88" y="-82.5" font-family="Helvetica,sans-Serif" font-size="10.00">fsfml::initMenu</text>
</a>
</g>
</g>
<!-- Node18&#45;&gt;Node19 -->
<g id="edge45_Node000018_Node000019" class="edge">
<title>Node18&#45;&gt;Node19</title>
<g id="a_edge45_Node000018_Node000019"><a xlink:title=" ">
<path fill="none" stroke="#63b8ff" d="M390.18,-86C405.65,-86 422.83,-86 438.47,-86"/>
<polygon fill="#63b8ff" stroke="#63b8ff" points="438.02,-89.5 448.02,-86 438.02,-82.5 438.02,-89.5"/>
</a>
</g>
</g>
<!-- Node20 -->
<g id="Node000020" class="node">
<title>Node20</title>
<g id="a_Node000020"><a xlink:href="$classfsfml.html#ab45b3aa9320cf22836dc133f40186955" xlink:title=" ">
<polygon fill="white" stroke="#666666" points="659.75,-96 578.5,-96 578.5,-76 659.75,-76 659.75,-96"/>
<text text-anchor="middle" x="619.12" y="-82.5" font-family="Helvetica,sans-Serif" font-size="10.00">fsfml::initPanel</text>
</a>
</g>
</g>
<!-- Node19&#45;&gt;Node20 -->
<g id="edge46_Node000019_Node000020" class="edge">
<title>Node19&#45;&gt;Node20</title>
<g id="a_edge46_Node000019_Node000020"><a xlink:title=" ">
<path fill="none" stroke="#63b8ff" d="M530.44,-86C541.94,-86 554.67,-86 566.78,-86"/>
<polygon fill="#63b8ff" stroke="#63b8ff" points="566.63,-89.5 576.63,-86 566.63,-82.5 566.63,-89.5"/>
</a>
</g>
</g>
<!-- Node21 -->
<g id="Node000021" class="node">
<title>Node21</title>
<g id="a_Node000021"><a xlink:href="$classfsfml.html#a1e465443ae65cef7eff4c7eb68096edf" xlink:title=" ">
<polygon fill="white" stroke="#666666" points="823.5,-96 701,-96 701,-76 823.5,-76 823.5,-96"/>
<text text-anchor="middle" x="762.25" y="-82.5" font-family="Helvetica,sans-Serif" font-size="10.00">fsfml::initElementsPanel</text>
</a>
</g>
</g>
<!-- Node20&#45;&gt;Node21 -->
<g id="edge47_Node000020_Node000021" class="edge">
<title>Node20&#45;&gt;Node21</title>
<g id="a_edge47_Node000020_Node000021"><a xlink:title=" ">
<path fill="none" stroke="#63b8ff" d="M660.19,-86C669.31,-86 679.27,-86 689.26,-86"/>
<polygon fill="#63b8ff" stroke="#63b8ff" points="689.01,-89.5 699.01,-86 689.01,-82.5 689.01,-89.5"/>
</a>
</g>
</g>
<!-- Node20&#45;&gt;Node23 -->
<g id="edge49_Node000020_Node000023" class="edge">
<title>Node20&#45;&gt;Node23</title>
<g id="a_edge49_Node000020_Node000023"><a xlink:title=" ">
<path fill="none" stroke="#63b8ff" d="M659.06,-75.52C675.26,-71.15 694.26,-66.04 711.45,-61.41"/>
<polygon fill="#63b8ff" stroke="#63b8ff" points="712.23,-64.82 720.98,-58.84 710.41,-58.06 712.23,-64.82"/>
</a>
</g>
</g>
<!-- Node22 -->
<g id="Node000022" class="node">
<title>Node22</title>
<g id="a_Node000022"><a xlink:href="$classfsfml.html#a8172dd2d6f556c7829e9adc766ef2565" xlink:title=" ">
<polygon fill="white" stroke="#666666" points="962.12,-96 866.62,-96 866.62,-76 962.12,-76 962.12,-96"/>
<text text-anchor="middle" x="914.38" y="-82.5" font-family="Helvetica,sans-Serif" font-size="10.00">fsfml::addElement</text>
</a>
</g>
</g>
<!-- Node21&#45;&gt;Node22 -->
<g id="edge48_Node000021_Node000022" class="edge">
<title>Node21&#45;&gt;Node22</title>
<g id="a_edge48_Node000021_Node000022"><a xlink:title=" ">
<path fill="none" stroke="#63b8ff" d="M823.88,-86C834.17,-86 844.83,-86 855.06,-86"/>
<polygon fill="#63b8ff" stroke="#63b8ff" points="854.86,-89.5 864.86,-86 854.86,-82.5 854.86,-89.5"/>
</a>
</g>
</g>
<!-- Node24 -->
<g id="Node000024" class="node">
<title>Node24</title>
<g id="a_Node000024"><a xlink:href="$classfsfml.html#af5ec5a73c3deb2ebea2b7ab05e550975" xlink:title=" ">
<polygon fill="white" stroke="#666666" points="962.12,-58 866.62,-58 866.62,-38 962.12,-38 962.12,-58"/>
<text text-anchor="middle" x="914.38" y="-44.5" font-family="Helvetica,sans-Serif" font-size="10.00">fsfml::seeElement</text>
</a>
</g>
</g>
<!-- Node23&#45;&gt;Node24 -->
<g id="edge50_Node000023_Node000024" class="edge">
<title>Node23&#45;&gt;Node24</title>
<g id="a_edge50_Node000023_Node000024"><a xlink:title=" ">
<path fill="none" stroke="#63b8ff" d="M804.67,-48C820.18,-48 838.11,-48 854.88,-48"/>
<polygon fill="#63b8ff" stroke="#63b8ff" points="854.75,-51.5 864.75,-48 854.75,-44.5 854.75,-51.5"/>
</a>
</g>
</g>
<!-- Node26 -->
<g id="Node000026" class="node">
<title>Node26</title>
<g id="a_Node000026"><a xlink:href="$classfsfml.html#a527d1f9dc8024dab8b6c0af4dc8c6a60" xlink:title=" ">
<polygon fill="white" stroke="#666666" points="969.25,-20 859.5,-20 859.5,0 969.25,0 969.25,-20"/>
<text text-anchor="middle" x="914.38" y="-6.5" font-family="Helvetica,sans-Serif" font-size="10.00">fsfml::setActivePanel</text>
</a>
</g>
</g>
<!-- Node23&#45;&gt;Node26 -->
<g id="edge52_Node000023_Node000026" class="edge">
<title>Node23&#45;&gt;Node26</title>
<g id="a_edge52_Node000023_Node000026"><a xlink:title=" ">
<path fill="none" stroke="#63b8ff" d="M804.67,-37.52C822.14,-33.09 842.69,-27.89 861.18,-23.21"/>
<polygon fill="#63b8ff" stroke="#63b8ff" points="861.79,-26.67 870.62,-20.82 860.07,-19.88 861.79,-26.67"/>
</a>
</g>
</g>
<!-- Node25 -->
<g id="Node000025" class="node">
<title>Node25</title>
<g id="a_Node000025"><a xlink:href="$struct_element.html#a5df40a1ac2e9e8f5aa782f1dd40830d4" xlink:title=" ">
<polygon fill="white" stroke="#666666" points="1106,-58 1005.25,-58 1005.25,-38 1106,-38 1106,-58"/>
<text text-anchor="middle" x="1055.62" y="-44.5" font-family="Helvetica,sans-Serif" font-size="10.00">Element::setVisible</text>
</a>
</g>
</g>
<!-- Node24&#45;&gt;Node25 -->
<g id="edge51_Node000024_Node000025" class="edge">
<title>Node24&#45;&gt;Node25</title>
<g id="a_edge51_Node000024_Node000025"><a xlink:title=" ">
<path fill="none" stroke="#63b8ff" d="M962.52,-48C972.6,-48 983.39,-48 993.9,-48"/>
<polygon fill="#63b8ff" stroke="#63b8ff" points="993.64,-51.5 1003.64,-48 993.64,-44.5 993.64,-51.5"/>
</a>
</g>
</g>
</g>
</svg>
