<?xml version="1.0" encoding="UTF-8" standalone="no"?>
<!DOCTYPE svg PUBLIC "-//W3C//DTD SVG 1.1//EN"
 "http://www.w3.org/Graphics/SVG/1.1/DTD/svg11.dtd">
<!-- Generated by graphviz version 12.2.0 (20241103.1931)
 -->
<!-- Title: Assistant::doActivity Pages: 1 -->
<svg width="1464pt" height="445pt"
 viewBox="0.00 0.00 1464.00 445.00" xmlns="http://www.w3.org/2000/svg" xmlns:xlink="http://www.w3.org/1999/xlink">
<g id="graph0" class="graph" transform="scale(1 1) rotate(0) translate(4 441)">
<title>Assistant::doActivity</title>
<!-- Node1 -->
<g id="Node000001" class="node">
<title>Node1</title>
<g id="a_Node000001"><a xlink:title=" ">
<polygon fill="#999999" stroke="#666666" points="106.75,-279 0,-279 0,-259 106.75,-259 106.75,-279"/>
<text text-anchor="middle" x="53.38" y="-265.5" font-family="Helvetica,sans-Serif" font-size="10.00">Assistant::doActivity</text>
</a>
</g>
</g>
<!-- Node2 -->
<g id="Node000002" class="node">
<title>Node2</title>
<g id="a_Node000002"><a xlink:href="$class_interactions.html#aae6172962092f278714536142e987cde" xlink:title=" ">
<polygon fill="white" stroke="#666666" points="986.25,-409 893,-409 893,-389 986.25,-389 986.25,-409"/>
<text text-anchor="middle" x="939.62" y="-395.5" font-family="Helvetica,sans-Serif" font-size="10.00">Interactions::click</text>
</a>
</g>
</g>
<!-- Node1&#45;&gt;Node2 -->
<g id="edge53_Node000001_Node000002" class="edge">
<title>Node1&#45;&gt;Node2</title>
<g id="a_edge53_Node000001_Node000002"><a xlink:title=" ">
<path fill="none" stroke="#63b8ff" d="M65.9,-279.26C108.14,-315.73 259.67,-437 407.25,-437 407.25,-437 407.25,-437 588.75,-437 692.5,-437 812.54,-420.28 881.62,-409.02"/>
<polygon fill="#63b8ff" stroke="#63b8ff" points="881.88,-412.53 891.18,-407.45 880.74,-405.62 881.88,-412.53"/>
</a>
</g>
</g>
<!-- Node3 -->
<g id="Node000003" class="node">
<title>Node3</title>
<g id="a_Node000003"><a xlink:href="$class_interactions.html#a25637266a0bf2b2c77d5c7e276baabd0" xlink:title=" ">
<polygon fill="white" stroke="#666666" points="449.62,-279 366.88,-279 366.88,-259 449.62,-259 449.62,-279"/>
<text text-anchor="middle" x="408.25" y="-265.5" font-family="Helvetica,sans-Serif" font-size="10.00">Interactions::fA</text>
</a>
</g>
</g>
<!-- Node1&#45;&gt;Node3 -->
<g id="edge55_Node000001_Node000003" class="edge">
<title>Node1&#45;&gt;Node3</title>
<g id="a_edge55_Node000001_Node000003"><a xlink:title=" ">
<path fill="none" stroke="#63b8ff" d="M94.12,-279.42C109.23,-282.88 126.68,-286.29 142.75,-288 211.14,-295.27 228.97,-293.89 297.5,-288 316.48,-286.37 337.1,-283.18 355.29,-279.88"/>
<polygon fill="#63b8ff" stroke="#63b8ff" points="355.88,-283.32 365.07,-278.04 354.59,-276.44 355.88,-283.32"/>
</a>
</g>
</g>
<!-- Node25 -->
<g id="Node000025" class="node">
<title>Node25</title>
<g id="a_Node000025"><a xlink:href="$class_interactions.html#a85395e185b74c6e25d0f27459b0de33c" xlink:title=" ">
<polygon fill="white" stroke="#666666" points="264.12,-279 176.12,-279 176.12,-259 264.12,-259 264.12,-279"/>
<text text-anchor="middle" x="220.12" y="-265.5" font-family="Helvetica,sans-Serif" font-size="10.00">Interactions::fcA</text>
</a>
</g>
</g>
<!-- Node1&#45;&gt;Node25 -->
<g id="edge81_Node000001_Node000025" class="edge">
<title>Node1&#45;&gt;Node25</title>
<g id="a_edge81_Node000001_Node000025"><a xlink:title=" ">
<path fill="none" stroke="#63b8ff" d="M106.96,-269C125.27,-269 145.86,-269 164.35,-269"/>
<polygon fill="#63b8ff" stroke="#63b8ff" points="164.34,-272.5 174.34,-269 164.34,-265.5 164.34,-272.5"/>
</a>
</g>
</g>
<!-- Node26 -->
<g id="Node000026" class="node">
<title>Node26</title>
<g id="a_Node000026"><a xlink:href="$class_interactions.html#aaba8562157b738fac74c4ab64ba6a9f8" xlink:title=" ">
<polygon fill="white" stroke="#666666" points="297.5,-203 142.75,-203 142.75,-171 297.5,-171 297.5,-203"/>
<text text-anchor="start" x="150.75" y="-189.5" font-family="Helvetica,sans-Serif" font-size="10.00">Interactions::fcCompareMultiple</text>
<text text-anchor="middle" x="220.12" y="-177.5" font-family="Helvetica,sans-Serif" font-size="10.00">TemplateA</text>
</a>
</g>
</g>
<!-- Node1&#45;&gt;Node26 -->
<g id="edge83_Node000001_Node000026" class="edge">
<title>Node1&#45;&gt;Node26</title>
<g id="a_edge83_Node000001_Node000026"><a xlink:title=" ">
<path fill="none" stroke="#63b8ff" d="M70.24,-258.63C87.61,-247.53 116.5,-229.78 142.75,-217 149.38,-213.77 156.44,-210.63 163.5,-207.66"/>
<polygon fill="#63b8ff" stroke="#63b8ff" points="164.46,-211.05 172.39,-204.02 161.81,-204.57 164.46,-211.05"/>
</a>
</g>
</g>
<!-- Node32 -->
<g id="Node000032" class="node">
<title>Node32</title>
<g id="a_Node000032"><a xlink:href="$class_interactions.html#ae6f71f7be8c80c4954bdd0f594891e66" xlink:title=" ">
<polygon fill="white" stroke="#666666" points="463.12,-241 353.38,-241 353.38,-221 463.12,-221 463.12,-241"/>
<text text-anchor="middle" x="408.25" y="-227.5" font-family="Helvetica,sans-Serif" font-size="10.00">Interactions::fSwipeA</text>
</a>
</g>
</g>
<!-- Node1&#45;&gt;Node32 -->
<g id="edge99_Node000001_Node000032" class="edge">
<title>Node1&#45;&gt;Node32</title>
<g id="a_edge99_Node000001_Node000032"><a xlink:title=" ">
<path fill="none" stroke="#63b8ff" d="M97.31,-258.51C111.68,-255.33 127.84,-252.13 142.75,-250 210.16,-240.38 287.96,-235.53 341.65,-233.16"/>
<polygon fill="#63b8ff" stroke="#63b8ff" points="341.71,-236.66 351.55,-232.74 341.41,-229.66 341.71,-236.66"/>
</a>
</g>
</g>
<!-- Node2&#45;&gt;Node2 -->
<g id="edge54_Node000002_Node000002" class="edge">
<title>Node2&#45;&gt;Node2</title>
<g id="a_edge54_Node000002_Node000002"><a xlink:title=" ">
<path fill="none" stroke="#63b8ff" d="M915.57,-409.34C905.29,-417.98 913.31,-427 939.62,-427 954.02,-427 962.93,-424.3 966.38,-420.44"/>
<polygon fill="#63b8ff" stroke="#63b8ff" points="969.8,-419.7 964.03,-410.81 963,-421.35 969.8,-419.7"/>
</a>
</g>
</g>
<!-- Node4 -->
<g id="Node000004" class="node">
<title>Node4</title>
<g id="a_Node000004"><a xlink:href="$fopencv_8cpp.html#a69713584f69a121e4ed91918a64448a0" xlink:title=" ">
<polygon fill="white" stroke="#666666" points="979.88,-162 899.38,-162 899.38,-142 979.88,-142 979.88,-162"/>
<text text-anchor="middle" x="939.62" y="-148.5" font-family="Helvetica,sans-Serif" font-size="10.00">cvmtfTemplate</text>
</a>
</g>
</g>
<!-- Node3&#45;&gt;Node4 -->
<g id="edge56_Node000003_Node000004" class="edge">
<title>Node3&#45;&gt;Node4</title>
<g id="a_edge56_Node000003_Node000004"><a xlink:title=" ">
<path fill="none" stroke="#63b8ff" d="M430.08,-279.3C497.82,-311.15 715.05,-400.34 846.5,-304 889.36,-272.59 850.74,-232.59 882.5,-190 888.89,-181.43 897.81,-174.16 906.66,-168.35"/>
<polygon fill="#63b8ff" stroke="#63b8ff" points="908.44,-171.36 915.19,-163.19 904.82,-165.37 908.44,-171.36"/>
</a>
</g>
</g>
<!-- Node10 -->
<g id="Node000010" class="node">
<title>Node10</title>
<g id="a_Node000010"><a xlink:href="$class_interactions.html#a5b5af2b125ff152043789cfcf70ffb2b" xlink:title=" ">
<polygon fill="white" stroke="#666666" points="650.88,-257 524.62,-257 524.62,-237 650.88,-237 650.88,-257"/>
<text text-anchor="middle" x="587.75" y="-243.5" font-family="Helvetica,sans-Serif" font-size="10.00">Interactions::getTemplate</text>
</a>
</g>
</g>
<!-- Node3&#45;&gt;Node10 -->
<g id="edge62_Node000003_Node000010" class="edge">
<title>Node3&#45;&gt;Node10</title>
<g id="a_edge62_Node000003_Node000010"><a xlink:title=" ">
<path fill="none" stroke="#63b8ff" d="M449.97,-263.95C468.71,-261.63 491.54,-258.8 513.13,-256.12"/>
<polygon fill="#63b8ff" stroke="#63b8ff" points="513.29,-259.63 522.78,-254.93 512.43,-252.68 513.29,-259.63"/>
</a>
</g>
</g>
<!-- Node12 -->
<g id="Node000012" class="node">
<title>Node12</title>
<g id="a_Node000012"><a xlink:href="$class_interactions.html#a0a0ffd9ad1990de31fd7b2773db32667" xlink:title=" ">
<polygon fill="white" stroke="#666666" points="648.25,-181 527.25,-181 527.25,-161 648.25,-161 648.25,-181"/>
<text text-anchor="middle" x="587.75" y="-167.5" font-family="Helvetica,sans-Serif" font-size="10.00">Interactions::loopPopUp</text>
</a>
</g>
</g>
<!-- Node3&#45;&gt;Node12 -->
<g id="edge64_Node000003_Node000012" class="edge">
<title>Node3&#45;&gt;Node12</title>
<g id="a_edge64_Node000003_Node000012"><a xlink:title=" ">
<path fill="none" stroke="#63b8ff" d="M450.03,-264.37C461.52,-261.58 473.46,-257.12 483,-250 507.92,-231.4 494.28,-208.87 519,-190 520.54,-188.83 522.14,-187.73 523.8,-186.7"/>
<polygon fill="#63b8ff" stroke="#63b8ff" points="525.19,-189.92 532.45,-182.2 521.96,-183.71 525.19,-189.92"/>
</a>
</g>
</g>
<!-- Node23 -->
<g id="Node000023" class="node">
<title>Node23</title>
<g id="a_Node000023"><a xlink:href="$class_interactions.html#ade7f52c59105f434650b9358b22e5488" xlink:title=" ">
<polygon fill="white" stroke="#666666" points="648.25,-219 527.25,-219 527.25,-199 648.25,-199 648.25,-219"/>
<text text-anchor="middle" x="587.75" y="-205.5" font-family="Helvetica,sans-Serif" font-size="10.00">Interactions::resetCount</text>
</a>
</g>
</g>
<!-- Node3&#45;&gt;Node23 -->
<g id="edge77_Node000003_Node000023" class="edge">
<title>Node3&#45;&gt;Node23</title>
<g id="a_edge77_Node000003_Node000023"><a xlink:title=" ">
<path fill="none" stroke="#63b8ff" d="M449.77,-260.85C460.77,-258.03 472.53,-254.43 483,-250 500.27,-242.69 501.81,-235.49 519,-228 523.22,-226.16 527.67,-224.45 532.18,-222.87"/>
<polygon fill="#63b8ff" stroke="#63b8ff" points="532.9,-226.32 541.32,-219.9 530.73,-219.66 532.9,-226.32"/>
</a>
</g>
</g>
<!-- Node24 -->
<g id="Node000024" class="node">
<title>Node24</title>
<g id="a_Node000024"><a xlink:href="$class_interactions.html#ad7daddd9df3cea80e69872b8afd6c8dc" xlink:title=" ">
<polygon fill="white" stroke="#666666" points="656.5,-295 519,-295 519,-275 656.5,-275 656.5,-295"/>
<text text-anchor="middle" x="587.75" y="-281.5" font-family="Helvetica,sans-Serif" font-size="10.00">Interactions::templateFound</text>
</a>
</g>
</g>
<!-- Node3&#45;&gt;Node24 -->
<g id="edge78_Node000003_Node000024" class="edge">
<title>Node3&#45;&gt;Node24</title>
<g id="a_edge78_Node000003_Node000024"><a xlink:title=" ">
<path fill="none" stroke="#63b8ff" d="M449.97,-272.67C467.08,-274.21 487.59,-276.06 507.46,-277.85"/>
<polygon fill="#63b8ff" stroke="#63b8ff" points="506.95,-281.32 517.23,-278.73 507.58,-274.35 506.95,-281.32"/>
</a>
</g>
</g>
<!-- Node5 -->
<g id="Node000005" class="node">
<title>Node5</title>
<g id="a_Node000005"><a xlink:href="$fopencv_8cpp.html#af6fc77188d314c0d5a58888452f9b313" xlink:title=" ">
<polygon fill="white" stroke="#666666" points="1124.88,-124 1057.12,-124 1057.12,-104 1124.88,-104 1124.88,-124"/>
<text text-anchor="middle" x="1091" y="-110.5" font-family="Helvetica,sans-Serif" font-size="10.00">extractZone</text>
</a>
</g>
</g>
<!-- Node4&#45;&gt;Node5 -->
<g id="edge57_Node000004_Node000005" class="edge">
<title>Node4&#45;&gt;Node5</title>
<g id="a_edge57_Node000004_Node000005"><a xlink:title=" ">
<path fill="none" stroke="#63b8ff" d="M980.26,-141.92C1000.39,-136.8 1024.91,-130.56 1045.66,-125.28"/>
<polygon fill="#63b8ff" stroke="#63b8ff" points="1046.46,-128.69 1055.29,-122.83 1044.73,-121.9 1046.46,-128.69"/>
</a>
</g>
</g>
<!-- Node6 -->
<g id="Node000006" class="node">
<title>Node6</title>
<g id="a_Node000006"><a xlink:href="$struct_zone.html#a5301e7fcf185a5a79c1bf7d7930f4b8a" xlink:title=" ">
<polygon fill="white" stroke="#666666" points="1125.25,-86 1056.75,-86 1056.75,-66 1125.25,-66 1125.25,-86"/>
<text text-anchor="middle" x="1091" y="-72.5" font-family="Helvetica,sans-Serif" font-size="10.00">Zone::isNull</text>
</a>
</g>
</g>
<!-- Node4&#45;&gt;Node6 -->
<g id="edge58_Node000004_Node000006" class="edge">
<title>Node4&#45;&gt;Node6</title>
<g id="a_edge58_Node000004_Node000006"><a xlink:title=" ">
<path fill="none" stroke="#63b8ff" d="M955.02,-141.61C972.66,-129.23 1003.78,-108.54 1032.75,-95 1036.97,-93.03 1041.44,-91.17 1045.96,-89.44"/>
<polygon fill="#63b8ff" stroke="#63b8ff" points="1046.84,-92.85 1055.06,-86.18 1044.47,-86.26 1046.84,-92.85"/>
</a>
</g>
</g>
<!-- Node8 -->
<g id="Node000008" class="node">
<title>Node8</title>
<g id="a_Node000008"><a xlink:href="$fopencv_8cpp.html#a1ed1ff1a9df2ab889e1423cb11a58c06" xlink:title=" ">
<polygon fill="white" stroke="#666666" points="1132.38,-162 1049.62,-162 1049.62,-142 1132.38,-142 1132.38,-162"/>
<text text-anchor="middle" x="1091" y="-148.5" font-family="Helvetica,sans-Serif" font-size="10.00">messageFound</text>
</a>
</g>
</g>
<!-- Node4&#45;&gt;Node8 -->
<g id="edge60_Node000004_Node000008" class="edge">
<title>Node4&#45;&gt;Node8</title>
<g id="a_edge60_Node000004_Node000008"><a xlink:title=" ">
<path fill="none" stroke="#63b8ff" d="M980.26,-152C997.87,-152 1018.84,-152 1037.71,-152"/>
<polygon fill="#63b8ff" stroke="#63b8ff" points="1037.62,-155.5 1047.62,-152 1037.62,-148.5 1037.62,-155.5"/>
</a>
</g>
</g>
<!-- Node9 -->
<g id="Node000009" class="node">
<title>Node9</title>
<g id="a_Node000009"><a xlink:href="$fopencv_8cpp.html#ae51fd1f3ed39bd8c9b8da4a313d5aeb3" xlink:title=" ">
<polygon fill="white" stroke="#666666" points="1140.25,-200 1041.75,-200 1041.75,-180 1140.25,-180 1140.25,-200"/>
<text text-anchor="middle" x="1091" y="-186.5" font-family="Helvetica,sans-Serif" font-size="10.00">oneMatchTemplate</text>
</a>
</g>
</g>
<!-- Node4&#45;&gt;Node9 -->
<g id="edge61_Node000004_Node000009" class="edge">
<title>Node4&#45;&gt;Node9</title>
<g id="a_edge61_Node000004_Node000009"><a xlink:title=" ">
<path fill="none" stroke="#63b8ff" d="M980.26,-162.08C997.88,-166.57 1018.87,-171.9 1037.74,-176.71"/>
<polygon fill="#63b8ff" stroke="#63b8ff" points="1036.85,-180.09 1047.41,-179.16 1038.58,-173.31 1036.85,-180.09"/>
</a>
</g>
</g>
<!-- Node7 -->
<g id="Node000007" class="node">
<title>Node7</title>
<g id="a_Node000007"><a xlink:href="$struct_coord.html#a34c573cd6230e5a532f12ae97e7395e2" xlink:title=" ">
<polygon fill="white" stroke="#666666" points="1258.25,-86 1185.25,-86 1185.25,-66 1258.25,-66 1258.25,-86"/>
<text text-anchor="middle" x="1221.75" y="-72.5" font-family="Helvetica,sans-Serif" font-size="10.00">Coord::isNull</text>
</a>
</g>
</g>
<!-- Node6&#45;&gt;Node7 -->
<g id="edge59_Node000006_Node000007" class="edge">
<title>Node6&#45;&gt;Node7</title>
<g id="a_edge59_Node000006_Node000007"><a xlink:title=" ">
<path fill="none" stroke="#63b8ff" d="M1125.49,-76C1140.24,-76 1157.82,-76 1173.85,-76"/>
<polygon fill="#63b8ff" stroke="#63b8ff" points="1173.66,-79.5 1183.66,-76 1173.66,-72.5 1173.66,-79.5"/>
</a>
</g>
</g>
<!-- Node11 -->
<g id="Node000011" class="node">
<title>Node11</title>
<g id="a_Node000011"><a xlink:href="$struct_template.html#a93d3c6f97592ba09d7819fda3c3296d7" xlink:title=" ">
<polygon fill="white" stroke="#666666" points="817.62,-295 721.38,-295 721.38,-275 817.62,-275 817.62,-295"/>
<text text-anchor="middle" x="769.5" y="-281.5" font-family="Helvetica,sans-Serif" font-size="10.00">Template::setType</text>
</a>
</g>
</g>
<!-- Node10&#45;&gt;Node11 -->
<g id="edge63_Node000010_Node000011" class="edge">
<title>Node10&#45;&gt;Node11</title>
<g id="a_edge63_Node000010_Node000011"><a xlink:title=" ">
<path fill="none" stroke="#63b8ff" d="M638.34,-257.48C660.49,-262.17 686.75,-267.72 709.87,-272.6"/>
<polygon fill="#63b8ff" stroke="#63b8ff" points="708.94,-275.99 719.45,-274.63 710.39,-269.14 708.94,-275.99"/>
</a>
</g>
</g>
<!-- Node13 -->
<g id="Node000013" class="node">
<title>Node13</title>
<g id="a_Node000013"><a xlink:href="$fopencv_8cpp.html#a5c455ed716b7fa4c675446fc5b8ba4fb" xlink:title=" ">
<polygon fill="white" stroke="#666666" points="800.38,-219 738.62,-219 738.62,-199 800.38,-199 800.38,-219"/>
<text text-anchor="middle" x="769.5" y="-205.5" font-family="Helvetica,sans-Serif" font-size="10.00">CreateMat</text>
</a>
</g>
</g>
<!-- Node12&#45;&gt;Node13 -->
<g id="edge65_Node000012_Node000013" class="edge">
<title>Node12&#45;&gt;Node13</title>
<g id="a_edge65_Node000012_Node000013"><a xlink:title=" ">
<path fill="none" stroke="#63b8ff" d="M638.34,-181.48C666.22,-187.38 700.62,-194.65 727.06,-200.24"/>
<polygon fill="#63b8ff" stroke="#63b8ff" points="726.23,-203.64 736.74,-202.29 727.68,-196.79 726.23,-203.64"/>
</a>
</g>
</g>
<!-- Node14 -->
<g id="Node000014" class="node">
<title>Node14</title>
<g id="a_Node000014"><a xlink:href="$class_interactions.html#aed04f9177d2aba467d71818a5e82c7bc" xlink:title=" ">
<polygon fill="white" stroke="#666666" points="826.62,-257 712.38,-257 712.38,-237 826.62,-237 826.62,-257"/>
<text text-anchor="middle" x="769.5" y="-243.5" font-family="Helvetica,sans-Serif" font-size="10.00">Interactions::fcpopupA</text>
</a>
</g>
</g>
<!-- Node12&#45;&gt;Node14 -->
<g id="edge66_Node000012_Node000014" class="edge">
<title>Node12&#45;&gt;Node14</title>
<g id="a_edge66_Node000012_Node000014"><a xlink:title=" ">
<path fill="none" stroke="#63b8ff" d="M638.18,-181.45C644.57,-183.78 650.85,-186.59 656.5,-190 676.42,-202.02 672.41,-216.27 692.5,-228 695.46,-229.73 698.57,-231.3 701.78,-232.73"/>
<polygon fill="#63b8ff" stroke="#63b8ff" points="700.27,-235.9 710.86,-236.28 702.82,-229.38 700.27,-235.9"/>
</a>
</g>
</g>
<!-- Node16 -->
<g id="Node000016" class="node">
<title>Node16</title>
<g id="a_Node000016"><a xlink:href="$fadb_8cpp.html#aeec40a5f78ae4713eedd84cb5f75746f" xlink:title=" ">
<polygon fill="white" stroke="#666666" points="801.5,-181 737.5,-181 737.5,-161 801.5,-161 801.5,-181"/>
<text text-anchor="middle" x="769.5" y="-167.5" font-family="Helvetica,sans-Serif" font-size="10.00">screenshot</text>
</a>
</g>
</g>
<!-- Node12&#45;&gt;Node16 -->
<g id="edge70_Node000012_Node000016" class="edge">
<title>Node12&#45;&gt;Node16</title>
<g id="a_edge70_Node000012_Node000016"><a xlink:title=" ">
<path fill="none" stroke="#63b8ff" d="M648.6,-171C673.82,-171 702.61,-171 725.65,-171"/>
<polygon fill="#63b8ff" stroke="#63b8ff" points="725.62,-174.5 735.62,-171 725.62,-167.5 725.62,-174.5"/>
</a>
</g>
</g>
<!-- Node14&#45;&gt;Node2 -->
<g id="edge67_Node000014_Node000002" class="edge">
<title>Node14&#45;&gt;Node2</title>
<g id="a_edge67_Node000014_Node000002"><a xlink:title=" ">
<path fill="none" stroke="#63b8ff" d="M827.06,-255.92C833.98,-258.49 840.66,-261.78 846.5,-266 870.78,-283.56 865.59,-298.27 882.5,-323 896.02,-342.77 912.37,-364.71 923.93,-379.92"/>
<polygon fill="#63b8ff" stroke="#63b8ff" points="920.99,-381.82 929.84,-387.64 926.55,-377.57 920.99,-381.82"/>
</a>
</g>
</g>
<!-- Node14&#45;&gt;Node4 -->
<g id="edge68_Node000014_Node000004" class="edge">
<title>Node14&#45;&gt;Node4</title>
<g id="a_edge68_Node000014_Node000004"><a xlink:title=" ">
<path fill="none" stroke="#63b8ff" d="M826.73,-236.83C833.63,-234.47 840.39,-231.57 846.5,-228 866.59,-216.27 864.76,-205.05 882.5,-190 891.56,-182.31 902.2,-174.78 911.76,-168.48"/>
<polygon fill="#63b8ff" stroke="#63b8ff" points="913.44,-171.56 919.96,-163.21 909.65,-165.67 913.44,-171.56"/>
</a>
</g>
</g>
<!-- Node15 -->
<g id="Node000015" class="node">
<title>Node15</title>
<g id="a_Node000015"><a xlink:href="$class_interactions.html#abd5b5d8a44970e1333e3611e302f166c" xlink:title=" ">
<polygon fill="white" stroke="#666666" points="985.12,-314 894.12,-314 894.12,-294 985.12,-294 985.12,-314"/>
<text text-anchor="middle" x="939.62" y="-300.5" font-family="Helvetica,sans-Serif" font-size="10.00">Interactions::wait</text>
</a>
</g>
</g>
<!-- Node14&#45;&gt;Node15 -->
<g id="edge69_Node000014_Node000015" class="edge">
<title>Node14&#45;&gt;Node15</title>
<g id="a_edge69_Node000014_Node000015"><a xlink:title=" ">
<path fill="none" stroke="#63b8ff" d="M817.03,-257.49C826.84,-260.02 837.07,-262.89 846.5,-266 866.5,-272.59 888.32,-281.5 905.69,-289.04"/>
<polygon fill="#63b8ff" stroke="#63b8ff" points="903.93,-292.09 914.5,-292.92 906.75,-285.68 903.93,-292.09"/>
</a>
</g>
</g>
<!-- Node17 -->
<g id="Node000017" class="node">
<title>Node17</title>
<g id="a_Node000017"><a xlink:href="$fadb_8cpp.html#a7ab9819839864ebd26d0e7e68e330418" xlink:title=" ">
<polygon fill="white" stroke="#666666" points="981.75,-219 897.5,-219 897.5,-199 981.75,-199 981.75,-219"/>
<text text-anchor="middle" x="939.62" y="-205.5" font-family="Helvetica,sans-Serif" font-size="10.00">takeScreenshot</text>
</a>
</g>
</g>
<!-- Node16&#45;&gt;Node17 -->
<g id="edge71_Node000016_Node000017" class="edge">
<title>Node16&#45;&gt;Node17</title>
<g id="a_edge71_Node000016_Node000017"><a xlink:title=" ">
<path fill="none" stroke="#63b8ff" d="M801.73,-178.06C825.35,-183.4 858.33,-190.85 886,-197.11"/>
<polygon fill="#63b8ff" stroke="#63b8ff" points="885.09,-200.49 895.62,-199.28 886.64,-193.66 885.09,-200.49"/>
</a>
</g>
</g>
<!-- Node18 -->
<g id="Node000018" class="node">
<title>Node18</title>
<g id="a_Node000018"><a xlink:href="$fadb_8cpp.html#ac6339b59ba8238f7483dece7f3fdf51b" xlink:title=" ">
<polygon fill="white" stroke="#666666" points="1135.38,-238 1046.62,-238 1046.62,-218 1135.38,-218 1135.38,-238"/>
<text text-anchor="middle" x="1091" y="-224.5" font-family="Helvetica,sans-Serif" font-size="10.00">runAdbLocalhost</text>
</a>
</g>
</g>
<!-- Node17&#45;&gt;Node18 -->
<g id="edge72_Node000017_Node000018" class="edge">
<title>Node17&#45;&gt;Node18</title>
<g id="a_edge72_Node000017_Node000018"><a xlink:title=" ">
<path fill="none" stroke="#63b8ff" d="M982.23,-214.29C998.59,-216.37 1017.6,-218.79 1035.06,-221.01"/>
<polygon fill="#63b8ff" stroke="#63b8ff" points="1034.41,-224.46 1044.77,-222.25 1035.29,-217.51 1034.41,-224.46"/>
</a>
</g>
</g>
<!-- Node19 -->
<g id="Node000019" class="node">
<title>Node19</title>
<g id="a_Node000019"><a xlink:href="$fadb_8cpp.html#a383ae5fedc9f597a03c74c729a2eb740" xlink:title=" ">
<polygon fill="white" stroke="#666666" points="1245.12,-238 1198.38,-238 1198.38,-218 1245.12,-218 1245.12,-238"/>
<text text-anchor="middle" x="1221.75" y="-224.5" font-family="Helvetica,sans-Serif" font-size="10.00">runAdb</text>
</a>
</g>
</g>
<!-- Node18&#45;&gt;Node19 -->
<g id="edge73_Node000018_Node000019" class="edge">
<title>Node18&#45;&gt;Node19</title>
<g id="a_edge73_Node000018_Node000019"><a xlink:title=" ">
<path fill="none" stroke="#63b8ff" d="M1135.59,-228C1152.33,-228 1171.18,-228 1186.87,-228"/>
<polygon fill="#63b8ff" stroke="#63b8ff" points="1186.66,-231.5 1196.66,-228 1186.66,-224.5 1186.66,-231.5"/>
</a>
</g>
</g>
<!-- Node20 -->
<g id="Node000020" class="node">
<title>Node20</title>
<g id="a_Node000020"><a xlink:href="$sys_commands_8cpp.html#a321eb7e335377aa7182bafc8a1605032" xlink:title=" ">
<polygon fill="white" stroke="#666666" points="1361.25,-238 1294.25,-238 1294.25,-218 1361.25,-218 1361.25,-238"/>
<text text-anchor="middle" x="1327.75" y="-224.5" font-family="Helvetica,sans-Serif" font-size="10.00">receivePipe</text>
</a>
</g>
</g>
<!-- Node19&#45;&gt;Node20 -->
<g id="edge74_Node000019_Node000020" class="edge">
<title>Node19&#45;&gt;Node20</title>
<g id="a_edge74_Node000019_Node000020"><a xlink:title=" ">
<path fill="none" stroke="#63b8ff" d="M1245.57,-228C1256.47,-228 1269.89,-228 1282.66,-228"/>
<polygon fill="#63b8ff" stroke="#63b8ff" points="1282.6,-231.5 1292.6,-228 1282.6,-224.5 1282.6,-231.5"/>
</a>
</g>
</g>
<!-- Node21 -->
<g id="Node000021" class="node">
<title>Node21</title>
<g id="a_Node000021"><a xlink:href="$sys_commands_8cpp.html#a4771c79171a937893508dabadadbe099" xlink:title=" ">
<polygon fill="white" stroke="#666666" points="1456,-257 1397.25,-257 1397.25,-237 1456,-237 1456,-257"/>
<text text-anchor="middle" x="1426.62" y="-243.5" font-family="Helvetica,sans-Serif" font-size="10.00">closePipe</text>
</a>
</g>
</g>
<!-- Node20&#45;&gt;Node21 -->
<g id="edge75_Node000020_Node000021" class="edge">
<title>Node20&#45;&gt;Node21</title>
<g id="a_edge75_Node000020_Node000021"><a xlink:title=" ">
<path fill="none" stroke="#63b8ff" d="M1361.55,-234.43C1369.31,-235.95 1377.67,-237.59 1385.71,-239.17"/>
<polygon fill="#63b8ff" stroke="#63b8ff" points="1384.78,-242.56 1395.27,-241.05 1386.13,-235.69 1384.78,-242.56"/>
</a>
</g>
</g>
<!-- Node22 -->
<g id="Node000022" class="node">
<title>Node22</title>
<g id="a_Node000022"><a xlink:href="$sys_commands_8cpp.html#a3499ce0cd7e4ed28b3c5461a4d3aec84" xlink:title=" ">
<polygon fill="white" stroke="#666666" points="1454.88,-219 1398.38,-219 1398.38,-199 1454.88,-199 1454.88,-219"/>
<text text-anchor="middle" x="1426.62" y="-205.5" font-family="Helvetica,sans-Serif" font-size="10.00">openPipe</text>
</a>
</g>
</g>
<!-- Node20&#45;&gt;Node22 -->
<g id="edge76_Node000020_Node000022" class="edge">
<title>Node20&#45;&gt;Node22</title>
<g id="a_edge76_Node000020_Node000022"><a xlink:title=" ">
<path fill="none" stroke="#63b8ff" d="M1361.55,-221.57C1369.7,-219.97 1378.51,-218.24 1386.92,-216.59"/>
<polygon fill="#63b8ff" stroke="#63b8ff" points="1387.4,-220.06 1396.54,-214.7 1386.05,-213.19 1387.4,-220.06"/>
</a>
</g>
</g>
<!-- Node24&#45;&gt;Node2 -->
<g id="edge79_Node000024_Node000002" class="edge">
<title>Node24&#45;&gt;Node2</title>
<g id="a_edge79_Node000024_Node000002"><a xlink:title=" ">
<path fill="none" stroke="#63b8ff" d="M619.13,-295.38C639.79,-302.41 667.76,-311.86 692.5,-320 763.09,-343.23 845.35,-369.47 894.64,-385.1"/>
<polygon fill="#63b8ff" stroke="#63b8ff" points="893.5,-388.41 904.09,-388.09 895.61,-381.73 893.5,-388.41"/>
</a>
</g>
</g>
<!-- Node24&#45;&gt;Node15 -->
<g id="edge80_Node000024_Node000015" class="edge">
<title>Node24&#45;&gt;Node15</title>
<g id="a_edge80_Node000024_Node000015"><a xlink:title=" ">
<path fill="none" stroke="#63b8ff" d="M635.76,-295.47C653.45,-298.92 673.81,-302.3 692.5,-304 757.64,-309.92 832.88,-308.76 882.85,-306.87"/>
<polygon fill="#63b8ff" stroke="#63b8ff" points="882.69,-310.38 892.54,-306.48 882.41,-303.38 882.69,-310.38"/>
</a>
</g>
</g>
<!-- Node25&#45;&gt;Node3 -->
<g id="edge82_Node000025_Node000003" class="edge">
<title>Node25&#45;&gt;Node3</title>
<g id="a_edge82_Node000025_Node000003"><a xlink:title=" ">
<path fill="none" stroke="#63b8ff" d="M264.29,-269C291.38,-269 326.48,-269 355.12,-269"/>
<polygon fill="#63b8ff" stroke="#63b8ff" points="355.03,-272.5 365.03,-269 355.03,-265.5 355.03,-272.5"/>
</a>
</g>
</g>
<!-- Node27 -->
<g id="Node000027" class="node">
<title>Node27</title>
<g id="a_Node000027"><a xlink:href="$class_interactions.html#a1e4898ef6baa65c69e8f4a94e34f91f9" xlink:title=" ">
<polygon fill="white" stroke="#666666" points="483,-203 333.5,-203 333.5,-171 483,-171 483,-203"/>
<text text-anchor="start" x="341.5" y="-189.5" font-family="Helvetica,sans-Serif" font-size="10.00">Interactions::fCompareMultiple</text>
<text text-anchor="middle" x="408.25" y="-177.5" font-family="Helvetica,sans-Serif" font-size="10.00">TemplateA</text>
</a>
</g>
</g>
<!-- Node26&#45;&gt;Node27 -->
<g id="edge84_Node000026_Node000027" class="edge">
<title>Node26&#45;&gt;Node27</title>
<g id="a_edge84_Node000026_Node000027"><a xlink:title=" ">
<path fill="none" stroke="#63b8ff" d="M297.9,-187C305.71,-187 313.67,-187 321.56,-187"/>
<polygon fill="#63b8ff" stroke="#63b8ff" points="321.53,-190.5 331.53,-187 321.53,-183.5 321.53,-190.5"/>
</a>
</g>
</g>
<!-- Node27&#45;&gt;Node10 -->
<g id="edge95_Node000027_Node000010" class="edge">
<title>Node27&#45;&gt;Node10</title>
<g id="a_edge95_Node000027_Node000010"><a xlink:title=" ">
<path fill="none" stroke="#63b8ff" d="M459.86,-203.47C467.65,-206.2 475.57,-209.1 483,-212 499.31,-218.37 502.53,-222.06 519,-228 524.25,-229.89 529.79,-231.71 535.34,-233.43"/>
<polygon fill="#63b8ff" stroke="#63b8ff" points="533.93,-236.66 544.51,-236.16 535.93,-229.95 533.93,-236.66"/>
</a>
</g>
</g>
<!-- Node27&#45;&gt;Node12 -->
<g id="edge96_Node000027_Node000012" class="edge">
<title>Node27&#45;&gt;Node12</title>
<g id="a_edge96_Node000027_Node000012"><a xlink:title=" ">
<path fill="none" stroke="#63b8ff" d="M483.5,-180.31C494.1,-179.35 504.99,-178.37 515.53,-177.42"/>
<polygon fill="#63b8ff" stroke="#63b8ff" points="515.66,-180.92 525.3,-176.54 515.03,-173.95 515.66,-180.92"/>
</a>
</g>
</g>
<!-- Node27&#45;&gt;Node23 -->
<g id="edge97_Node000027_Node000023" class="edge">
<title>Node27&#45;&gt;Node23</title>
<g id="a_edge97_Node000027_Node000023"><a xlink:title=" ">
<path fill="none" stroke="#63b8ff" d="M483.5,-196.2C494.1,-197.52 504.99,-198.87 515.53,-200.17"/>
<polygon fill="#63b8ff" stroke="#63b8ff" points="514.95,-203.63 525.31,-201.38 515.82,-196.68 514.95,-203.63"/>
</a>
</g>
</g>
<!-- Node27&#45;&gt;Node24 -->
<g id="edge98_Node000027_Node000024" class="edge">
<title>Node27&#45;&gt;Node24</title>
<g id="a_edge98_Node000027_Node000024"><a xlink:title=" ">
<path fill="none" stroke="#63b8ff" d="M469,-203.33C473.96,-205.83 478.71,-208.71 483,-212 505.88,-229.57 495.66,-249.05 519,-266 520.78,-267.29 522.64,-268.5 524.57,-269.62"/>
<polygon fill="#63b8ff" stroke="#63b8ff" points="522.77,-272.63 533.29,-273.91 525.86,-266.35 522.77,-272.63"/>
</a>
</g>
</g>
<!-- Node28 -->
<g id="Node000028" class="node">
<title>Node28</title>
<g id="a_Node000028"><a xlink:href="$fopencv_8cpp.html#ade157d547c93a4a6c0c6395cbcd15e10" xlink:title=" ">
<polygon fill="white" stroke="#666666" points="846.5,-105 692.5,-105 692.5,-85 846.5,-85 846.5,-105"/>
<text text-anchor="middle" x="769.5" y="-91.5" font-family="Helvetica,sans-Serif" font-size="10.00">cvmtfCompareMultipleTemplate</text>
</a>
</g>
</g>
<!-- Node27&#45;&gt;Node28 -->
<g id="edge85_Node000027_Node000028" class="edge">
<title>Node27&#45;&gt;Node28</title>
<g id="a_edge85_Node000027_Node000028"><a xlink:title=" ">
<path fill="none" stroke="#63b8ff" d="M429.25,-170.62C450.21,-154.46 484.8,-130.53 519,-119 570.82,-101.52 631.89,-95.42 680.64,-93.74"/>
<polygon fill="#63b8ff" stroke="#63b8ff" points="680.71,-97.24 690.6,-93.46 680.51,-90.24 680.71,-97.24"/>
</a>
</g>
</g>
<!-- Node28&#45;&gt;Node4 -->
<g id="edge92_Node000028_Node000004" class="edge">
<title>Node28&#45;&gt;Node4</title>
<g id="a_edge92_Node000028_Node000004"><a xlink:title=" ">
<path fill="none" stroke="#63b8ff" d="M804.64,-105.48C817.76,-109.58 832.86,-114.41 846.5,-119 864.03,-124.9 883.31,-131.76 899.68,-137.68"/>
<polygon fill="#63b8ff" stroke="#63b8ff" points="898.48,-140.97 909.08,-141.09 900.87,-134.39 898.48,-140.97"/>
</a>
</g>
</g>
<!-- Node28&#45;&gt;Node8 -->
<g id="edge94_Node000028_Node000008" class="edge">
<title>Node28&#45;&gt;Node8</title>
<g id="a_edge94_Node000028_Node000008"><a xlink:title=" ">
<path fill="none" stroke="#63b8ff" d="M836.44,-105.46C881.63,-112.78 942.91,-123 996.75,-133 1010.2,-135.5 1024.71,-138.37 1038.18,-141.11"/>
<polygon fill="#63b8ff" stroke="#63b8ff" points="1037.23,-144.49 1047.72,-143.07 1038.63,-137.63 1037.23,-144.49"/>
</a>
</g>
</g>
<!-- Node29 -->
<g id="Node000029" class="node">
<title>Node29</title>
<g id="a_Node000029"><a xlink:href="$fopencv_8cpp.html#a95c56af5716e2b2d1b4df612796cc229" xlink:title=" ">
<polygon fill="white" stroke="#666666" points="996.75,-86 882.5,-86 882.5,-66 996.75,-66 996.75,-86"/>
<text text-anchor="middle" x="939.62" y="-72.5" font-family="Helvetica,sans-Serif" font-size="10.00">cvmtfMultipleTemplate</text>
</a>
</g>
</g>
<!-- Node28&#45;&gt;Node29 -->
<g id="edge86_Node000028_Node000029" class="edge">
<title>Node28&#45;&gt;Node29</title>
<g id="a_edge86_Node000028_Node000029"><a xlink:title=" ">
<path fill="none" stroke="#63b8ff" d="M846.69,-86.39C854.84,-85.47 863.09,-84.54 871.13,-83.63"/>
<polygon fill="#63b8ff" stroke="#63b8ff" points="871.27,-87.13 880.82,-82.53 870.49,-80.18 871.27,-87.13"/>
</a>
</g>
</g>
<!-- Node31 -->
<g id="Node000031" class="node">
<title>Node31</title>
<g id="a_Node000031"><a xlink:href="$fopencv_8cpp.html#a6abdcaeee06b3da6f210daf0162bcd01" xlink:title=" ">
<polygon fill="white" stroke="#666666" points="1251.12,-20 1192.38,-20 1192.38,0 1251.12,0 1251.12,-20"/>
<text text-anchor="middle" x="1221.75" y="-6.5" font-family="Helvetica,sans-Serif" font-size="10.00">intersects</text>
</a>
</g>
</g>
<!-- Node28&#45;&gt;Node31 -->
<g id="edge93_Node000028_Node000031" class="edge">
<title>Node28&#45;&gt;Node31</title>
<g id="a_edge93_Node000028_Node000031"><a xlink:title=" ">
<path fill="none" stroke="#63b8ff" d="M799.31,-84.52C821.81,-76.51 853.95,-65.44 882.5,-57 948.56,-37.47 964.62,-29.14 1032.75,-19 1083.42,-11.46 1142.54,-9.78 1180.75,-9.61"/>
<polygon fill="#63b8ff" stroke="#63b8ff" points="1180.4,-13.11 1190.4,-9.6 1180.39,-6.11 1180.4,-13.11"/>
</a>
</g>
</g>
<!-- Node29&#45;&gt;Node5 -->
<g id="edge87_Node000029_Node000005" class="edge">
<title>Node29&#45;&gt;Node5</title>
<g id="a_edge87_Node000029_Node000005"><a xlink:title=" ">
<path fill="none" stroke="#63b8ff" d="M981.84,-86.48C1001.71,-91.54 1025.57,-97.61 1045.82,-102.76"/>
<polygon fill="#63b8ff" stroke="#63b8ff" points="1044.93,-106.15 1055.48,-105.22 1046.66,-99.36 1044.93,-106.15"/>
</a>
</g>
</g>
<!-- Node29&#45;&gt;Node6 -->
<g id="edge88_Node000029_Node000006" class="edge">
<title>Node29&#45;&gt;Node6</title>
<g id="a_edge88_Node000029_Node000006"><a xlink:title=" ">
<path fill="none" stroke="#63b8ff" d="M997.1,-76C1013.03,-76 1030.14,-76 1045.28,-76"/>
<polygon fill="#63b8ff" stroke="#63b8ff" points="1044.91,-79.5 1054.91,-76 1044.91,-72.5 1044.91,-79.5"/>
</a>
</g>
</g>
<!-- Node30 -->
<g id="Node000030" class="node">
<title>Node30</title>
<g id="a_Node000030"><a xlink:href="$fopencv_8cpp.html#a7521a083566181475d36ee14aad60f1d" xlink:title=" ">
<polygon fill="white" stroke="#666666" points="1149.25,-48 1032.75,-48 1032.75,-28 1149.25,-28 1149.25,-48"/>
<text text-anchor="middle" x="1091" y="-34.5" font-family="Helvetica,sans-Serif" font-size="10.00">multipleMatchTemplate</text>
</a>
</g>
</g>
<!-- Node29&#45;&gt;Node30 -->
<g id="edge89_Node000029_Node000030" class="edge">
<title>Node29&#45;&gt;Node30</title>
<g id="a_edge89_Node000029_Node000030"><a xlink:title=" ">
<path fill="none" stroke="#63b8ff" d="M981.84,-65.52C999.14,-61.11 1019.47,-55.94 1037.81,-51.28"/>
<polygon fill="#63b8ff" stroke="#63b8ff" points="1038.63,-54.68 1047.45,-48.82 1036.9,-47.9 1038.63,-54.68"/>
</a>
</g>
</g>
<!-- Node30&#45;&gt;Node31 -->
<g id="edge90_Node000030_Node000031" class="edge">
<title>Node30&#45;&gt;Node31</title>
<g id="a_edge90_Node000030_Node000031"><a xlink:title=" ">
<path fill="none" stroke="#63b8ff" d="M1139.94,-27.57C1153.54,-24.62 1168.2,-21.43 1181.24,-18.59"/>
<polygon fill="#63b8ff" stroke="#63b8ff" points="1181.71,-22.07 1190.74,-16.53 1180.23,-15.23 1181.71,-22.07"/>
</a>
</g>
</g>
<!-- Node31&#45;&gt;Node31 -->
<g id="edge91_Node000031_Node000031" class="edge">
<title>Node31&#45;&gt;Node31</title>
<g id="a_edge91_Node000031_Node000031"><a xlink:title=" ">
<path fill="none" stroke="#63b8ff" d="M1204.91,-20.34C1197.71,-28.98 1203.32,-38 1221.75,-38 1231.83,-38 1238.07,-35.3 1240.48,-31.44"/>
<polygon fill="#63b8ff" stroke="#63b8ff" points="1243.98,-31.1 1238.85,-21.83 1237.08,-32.28 1243.98,-31.1"/>
</a>
</g>
</g>
<!-- Node32&#45;&gt;Node4 -->
<g id="edge100_Node000032_Node000004" class="edge">
<title>Node32&#45;&gt;Node4</title>
<g id="a_edge100_Node000032_Node000004"><a xlink:title=" ">
<path fill="none" stroke="#63b8ff" d="M463.47,-222.3C470.45,-219.71 477.17,-216.35 483,-212 507.92,-193.4 491.94,-167.32 519,-152 580.53,-117.16 790,-135.16 887.69,-145.89"/>
<polygon fill="#63b8ff" stroke="#63b8ff" points="887.2,-149.36 897.53,-146.99 887.98,-142.4 887.2,-149.36"/>
</a>
</g>
</g>
<!-- Node32&#45;&gt;Node10 -->
<g id="edge101_Node000032_Node000010" class="edge">
<title>Node32&#45;&gt;Node10</title>
<g id="a_edge101_Node000032_Node000010"><a xlink:title=" ">
<path fill="none" stroke="#63b8ff" d="M463.47,-235.89C479.04,-237.29 496.3,-238.85 512.84,-240.34"/>
<polygon fill="#63b8ff" stroke="#63b8ff" points="512.37,-243.81 522.65,-241.22 513,-236.84 512.37,-243.81"/>
</a>
</g>
</g>
<!-- Node32&#45;&gt;Node12 -->
<g id="edge102_Node000032_Node000012" class="edge">
<title>Node32&#45;&gt;Node12</title>
<g id="a_edge102_Node000032_Node000012"><a xlink:title=" ">
<path fill="none" stroke="#63b8ff" d="M458.33,-220.53C466.7,-218.13 475.21,-215.3 483,-212 500.27,-204.69 501.81,-197.49 519,-190 523.22,-188.16 527.67,-186.45 532.18,-184.87"/>
<polygon fill="#63b8ff" stroke="#63b8ff" points="532.9,-188.32 541.32,-181.9 530.73,-181.66 532.9,-188.32"/>
</a>
</g>
</g>
<!-- Node32&#45;&gt;Node23 -->
<g id="edge103_Node000032_Node000023" class="edge">
<title>Node32&#45;&gt;Node23</title>
<g id="a_edge103_Node000032_Node000023"><a xlink:title=" ">
<path fill="none" stroke="#63b8ff" d="M463.47,-224.28C479.95,-222.24 498.3,-219.96 515.71,-217.8"/>
<polygon fill="#63b8ff" stroke="#63b8ff" points="515.99,-221.3 525.48,-216.59 515.13,-214.35 515.99,-221.3"/>
</a>
</g>
</g>
<!-- Node32&#45;&gt;Node24 -->
<g id="edge104_Node000032_Node000024" class="edge">
<title>Node32&#45;&gt;Node24</title>
<g id="a_edge104_Node000032_Node000024"><a xlink:title=" ">
<path fill="none" stroke="#63b8ff" d="M454.85,-241.48C464.24,-244 474.01,-246.87 483,-250 499.53,-255.76 502.53,-260.06 519,-266 524.25,-267.89 529.79,-269.71 535.34,-271.43"/>
<polygon fill="#63b8ff" stroke="#63b8ff" points="533.93,-274.66 544.51,-274.16 535.93,-267.95 533.93,-274.66"/>
</a>
</g>
</g>
</g>
</svg>
