<?xml version="1.0" encoding="UTF-8" standalone="no"?>
<!DOCTYPE svg PUBLIC "-//W3C//DTD SVG 1.1//EN"
 "http://www.w3.org/Graphics/SVG/1.1/DTD/svg11.dtd">
<!-- Generated by graphviz version 12.2.0 (20241103.1931)
 -->
<!-- Title: fsfml::unseePanel Pages: 1 -->
<svg width="382pt" height="28pt"
 viewBox="0.00 0.00 381.50 28.00" xmlns="http://www.w3.org/2000/svg" xmlns:xlink="http://www.w3.org/1999/xlink">
<g id="graph0" class="graph" transform="scale(1 1) rotate(0) translate(4 24)">
<title>fsfml::unseePanel</title>
<!-- Node1 -->
<g id="Node000001" class="node">
<title>Node1</title>
<g id="a_Node000001"><a xlink:title=" ">
<polygon fill="#999999" stroke="#666666" points="94.75,-20 0,-20 0,0 94.75,0 94.75,-20"/>
<text text-anchor="middle" x="47.38" y="-6.5" font-family="Helvetica,sans-Serif" font-size="10.00">fsfml::unseePanel</text>
</a>
</g>
</g>
<!-- Node2 -->
<g id="Node000002" class="node">
<title>Node2</title>
<g id="a_Node000002"><a xlink:href="$classfsfml.html#a40595c6220364843e5f2e51779882e9c" xlink:title=" ">
<polygon fill="white" stroke="#666666" points="236.75,-20 130.75,-20 130.75,0 236.75,0 236.75,-20"/>
<text text-anchor="middle" x="183.75" y="-6.5" font-family="Helvetica,sans-Serif" font-size="10.00">fsfml::unseeElement</text>
</a>
</g>
</g>
<!-- Node1&#45;&gt;Node2 -->
<g id="edge3_Node000001_Node000002" class="edge">
<title>Node1&#45;&gt;Node2</title>
<g id="a_edge3_Node000001_Node000002"><a xlink:title=" ">
<path fill="none" stroke="#63b8ff" d="M95,-10C102.83,-10 111.07,-10 119.24,-10"/>
<polygon fill="#63b8ff" stroke="#63b8ff" points="119.18,-13.5 129.18,-10 119.18,-6.5 119.18,-13.5"/>
</a>
</g>
</g>
<!-- Node3 -->
<g id="Node000003" class="node">
<title>Node3</title>
<g id="a_Node000003"><a xlink:href="$struct_element.html#a5df40a1ac2e9e8f5aa782f1dd40830d4" xlink:title=" ">
<polygon fill="white" stroke="#666666" points="373.5,-20 272.75,-20 272.75,0 373.5,0 373.5,-20"/>
<text text-anchor="middle" x="323.12" y="-6.5" font-family="Helvetica,sans-Serif" font-size="10.00">Element::setVisible</text>
</a>
</g>
</g>
<!-- Node2&#45;&gt;Node3 -->
<g id="edge4_Node000002_Node000003" class="edge">
<title>Node2&#45;&gt;Node3</title>
<g id="a_edge4_Node000002_Node000003"><a xlink:title=" ">
<path fill="none" stroke="#63b8ff" d="M237.08,-10C245.01,-10 253.26,-10 261.36,-10"/>
<polygon fill="#63b8ff" stroke="#63b8ff" points="261.14,-13.5 271.14,-10 261.14,-6.5 261.14,-13.5"/>
</a>
</g>
</g>
</g>
</svg>
