<?xml version="1.0" encoding="UTF-8" standalone="no"?>
<!DOCTYPE svg PUBLIC "-//W3C//DTD SVG 1.1//EN"
 "http://www.w3.org/Graphics/SVG/1.1/DTD/svg11.dtd">
<!-- Generated by graphviz version 12.2.0 (20241103.1931)
 -->
<!-- Title: Emulator::getListInstances Pages: 1 -->
<svg width="1167pt" height="128pt"
 viewBox="0.00 0.00 1167.25 128.00" xmlns="http://www.w3.org/2000/svg" xmlns:xlink="http://www.w3.org/1999/xlink">
<g id="graph0" class="graph" transform="scale(1 1) rotate(0) translate(4 124)">
<title>Emulator::getListInstances</title>
<!-- Node1 -->
<g id="Node000001" class="node">
<title>Node1</title>
<g id="a_Node000001"><a xlink:title=" ">
<polygon fill="#999999" stroke="#666666" points="1159.25,-64 1026.25,-64 1026.25,-44 1159.25,-44 1159.25,-64"/>
<text text-anchor="middle" x="1092.75" y="-50.5" font-family="Helvetica,sans-Serif" font-size="10.00">Emulator::getListInstances</text>
</a>
</g>
</g>
<!-- Node2 -->
<g id="Node000002" class="node">
<title>Node2</title>
<g id="a_Node000002"><a xlink:href="$class_bluestacks.html#ab4e16cfb437f85bdcbf1bc51e57bbf60" xlink:title=" ">
<polygon fill="white" stroke="#666666" points="989.12,-120 851.62,-120 851.62,-88 989.12,-88 989.12,-120"/>
<text text-anchor="start" x="859.62" y="-106.5" font-family="Helvetica,sans-Serif" font-size="10.00">Bluestacks::setListPlayable</text>
<text text-anchor="middle" x="920.38" y="-94.5" font-family="Helvetica,sans-Serif" font-size="10.00">Instances</text>
</a>
</g>
</g>
<!-- Node1&#45;&gt;Node2 -->
<g id="edge10_Node000001_Node000002" class="edge">
<title>Node1&#45;&gt;Node2</title>
<g id="a_edge10_Node000001_Node000002"><a xlink:title=" ">
<path fill="none" stroke="#63b8ff" d="M1045.18,-67.67C1024.27,-73.8 999.43,-81.09 977.5,-87.53"/>
<polygon fill="#63b8ff" stroke="#63b8ff" points="1045.97,-71.08 1054.58,-64.91 1044,-64.37 1045.97,-71.08"/>
</a>
</g>
</g>
<!-- Node3 -->
<g id="Node000003" class="node">
<title>Node3</title>
<g id="a_Node000003"><a xlink:href="$class_l_d_player.html#a06ec722fa75c1be28d1ebb785050771e" xlink:title=" ">
<polygon fill="white" stroke="#666666" points="985,-70 855.75,-70 855.75,-38 985,-38 985,-70"/>
<text text-anchor="start" x="863.75" y="-56.5" font-family="Helvetica,sans-Serif" font-size="10.00">LDPlayer::setListPlayable</text>
<text text-anchor="middle" x="920.38" y="-44.5" font-family="Helvetica,sans-Serif" font-size="10.00">Instances</text>
</a>
</g>
</g>
<!-- Node1&#45;&gt;Node3 -->
<g id="edge11_Node000001_Node000003" class="edge">
<title>Node1&#45;&gt;Node3</title>
<g id="a_edge11_Node000001_Node000003"><a xlink:title=" ">
<path fill="none" stroke="#63b8ff" d="M1014.53,-54C1004.79,-54 994.9,-54 985.39,-54"/>
<polygon fill="#63b8ff" stroke="#63b8ff" points="1014.37,-57.5 1024.37,-54 1014.37,-50.5 1014.37,-57.5"/>
</a>
</g>
</g>
<!-- Node10 -->
<g id="Node000010" class="node">
<title>Node10</title>
<g id="a_Node000010"><a xlink:href="$class_l_d_player.html#a9c76cbcf2494aac40b078978d1163a3e" xlink:title=" ">
<polygon fill="white" stroke="#666666" points="990.25,-20 850.5,-20 850.5,0 990.25,0 990.25,-20"/>
<text text-anchor="middle" x="920.38" y="-6.5" font-family="Helvetica,sans-Serif" font-size="10.00">LDPlayer::showAllInstances</text>
</a>
</g>
</g>
<!-- Node1&#45;&gt;Node10 -->
<g id="edge18_Node000001_Node000010" class="edge">
<title>Node1&#45;&gt;Node10</title>
<g id="a_edge18_Node000001_Node000010"><a xlink:title=" ">
<path fill="none" stroke="#63b8ff" d="M1040.52,-40.77C1015.3,-34.26 985.33,-26.52 961.76,-20.43"/>
<polygon fill="#63b8ff" stroke="#63b8ff" points="1039.35,-44.08 1049.91,-43.19 1041.1,-37.3 1039.35,-44.08"/>
</a>
</g>
</g>
<!-- Node4 -->
<g id="Node000004" class="node">
<title>Node4</title>
<g id="a_Node000004"><a xlink:href="$class_l_d_player.html#a5a7ed2dad62f72bc13993da3d50f385e" xlink:title=" ">
<polygon fill="white" stroke="#666666" points="814.5,-64 696.5,-64 696.5,-44 814.5,-44 814.5,-64"/>
<text text-anchor="middle" x="755.5" y="-50.5" font-family="Helvetica,sans-Serif" font-size="10.00">LDPlayer::initInstances</text>
</a>
</g>
</g>
<!-- Node3&#45;&gt;Node4 -->
<g id="edge12_Node000003_Node000004" class="edge">
<title>Node3&#45;&gt;Node4</title>
<g id="a_edge12_Node000003_Node000004"><a xlink:title=" ">
<path fill="none" stroke="#63b8ff" d="M844.07,-54C834.28,-54 824.37,-54 814.92,-54"/>
<polygon fill="#63b8ff" stroke="#63b8ff" points="843.96,-57.5 853.96,-54 843.96,-50.5 843.96,-57.5"/>
</a>
</g>
</g>
<!-- Node5 -->
<g id="Node000005" class="node">
<title>Node5</title>
<g id="a_Node000005"><a xlink:href="$class_l_d_player.html#aa4d08272c0957b3f9ccd69bee91d39ac" xlink:title=" ">
<polygon fill="white" stroke="#666666" points="660.5,-64 585.25,-64 585.25,-44 660.5,-44 660.5,-64"/>
<text text-anchor="middle" x="622.88" y="-50.5" font-family="Helvetica,sans-Serif" font-size="10.00">LDPlayer::init</text>
</a>
</g>
</g>
<!-- Node4&#45;&gt;Node5 -->
<g id="edge13_Node000004_Node000005" class="edge">
<title>Node4&#45;&gt;Node5</title>
<g id="a_edge13_Node000004_Node000005"><a xlink:title=" ">
<path fill="none" stroke="#63b8ff" d="M684.81,-54C676.57,-54 668.42,-54 660.89,-54"/>
<polygon fill="#63b8ff" stroke="#63b8ff" points="684.55,-57.5 694.55,-54 684.55,-50.5 684.55,-57.5"/>
</a>
</g>
</g>
<!-- Node6 -->
<g id="Node000006" class="node">
<title>Node6</title>
<g id="a_Node000006"><a xlink:href="$class_bot_config.html#ac91f46c5dca7953454d5a2340dfd7f5c" xlink:title=" ">
<polygon fill="white" stroke="#666666" points="549.25,-64 432.75,-64 432.75,-44 549.25,-44 549.25,-64"/>
<text text-anchor="middle" x="491" y="-50.5" font-family="Helvetica,sans-Serif" font-size="10.00">BotConfig::initLdPlayer</text>
</a>
</g>
</g>
<!-- Node5&#45;&gt;Node6 -->
<g id="edge14_Node000005_Node000006" class="edge">
<title>Node5&#45;&gt;Node6</title>
<g id="a_edge14_Node000005_Node000006"><a xlink:title=" ">
<path fill="none" stroke="#63b8ff" d="M573.7,-54C565.77,-54 557.48,-54 549.35,-54"/>
<polygon fill="#63b8ff" stroke="#63b8ff" points="573.49,-57.5 583.49,-54 573.49,-50.5 573.49,-57.5"/>
</a>
</g>
</g>
<!-- Node7 -->
<g id="Node000007" class="node">
<title>Node7</title>
<g id="a_Node000007"><a xlink:href="$class_bot_config.html#af8c906f3cd22726a96e758886c756068" xlink:title=" ">
<polygon fill="white" stroke="#666666" points="396.75,-64 274.25,-64 274.25,-44 396.75,-44 396.75,-64"/>
<text text-anchor="middle" x="335.5" y="-50.5" font-family="Helvetica,sans-Serif" font-size="10.00">BotConfig::initEmulators</text>
</a>
</g>
</g>
<!-- Node6&#45;&gt;Node7 -->
<g id="edge15_Node000006_Node000007" class="edge">
<title>Node6&#45;&gt;Node7</title>
<g id="a_edge15_Node000006_Node000007"><a xlink:title=" ">
<path fill="none" stroke="#63b8ff" d="M420.94,-54C413.04,-54 405.02,-54 397.24,-54"/>
<polygon fill="#63b8ff" stroke="#63b8ff" points="420.89,-57.5 430.89,-54 420.89,-50.5 420.89,-57.5"/>
</a>
</g>
</g>
<!-- Node8 -->
<g id="Node000008" class="node">
<title>Node8</title>
<g id="a_Node000008"><a xlink:href="$class_bot_config.html#a8925ef3403b945f27b9ee2719ef257b9" xlink:title=" ">
<polygon fill="white" stroke="#666666" points="238.25,-64 116.5,-64 116.5,-44 238.25,-44 238.25,-64"/>
<text text-anchor="middle" x="177.38" y="-50.5" font-family="Helvetica,sans-Serif" font-size="10.00">BotConfig::initBotConfig</text>
</a>
</g>
</g>
<!-- Node7&#45;&gt;Node8 -->
<g id="edge16_Node000007_Node000008" class="edge">
<title>Node7&#45;&gt;Node8</title>
<g id="a_edge16_Node000007_Node000008"><a xlink:title=" ">
<path fill="none" stroke="#63b8ff" d="M262.79,-54C254.69,-54 246.5,-54 238.58,-54"/>
<polygon fill="#63b8ff" stroke="#63b8ff" points="262.62,-57.5 272.62,-54 262.62,-50.5 262.62,-57.5"/>
</a>
</g>
</g>
<!-- Node9 -->
<g id="Node000009" class="node">
<title>Node9</title>
<g id="a_Node000009"><a xlink:href="$classgame.html#aea6b13468585f1be55d1736100158706" xlink:title=" ">
<polygon fill="white" stroke="#666666" points="80.5,-64 0,-64 0,-44 80.5,-44 80.5,-64"/>
<text text-anchor="middle" x="40.25" y="-50.5" font-family="Helvetica,sans-Serif" font-size="10.00">game::startBot</text>
</a>
</g>
</g>
<!-- Node8&#45;&gt;Node9 -->
<g id="edge17_Node000008_Node000009" class="edge">
<title>Node8&#45;&gt;Node9</title>
<g id="a_edge17_Node000008_Node000009"><a xlink:title=" ">
<path fill="none" stroke="#63b8ff" d="M105.04,-54C96.77,-54 88.57,-54 80.95,-54"/>
<polygon fill="#63b8ff" stroke="#63b8ff" points="104.81,-57.5 114.81,-54 104.81,-50.5 104.81,-57.5"/>
</a>
</g>
</g>
</g>
</svg>
