<?xml version="1.0" encoding="UTF-8" standalone="no"?>
<!DOCTYPE svg PUBLIC "-//W3C//DTD SVG 1.1//EN"
 "http://www.w3.org/Graphics/SVG/1.1/DTD/svg11.dtd">
<!-- Generated by graphviz version 12.2.0 (20241103.1931)
 -->
<!-- Title: Interactions::orderTemplates Pages: 1 -->
<svg width="644pt" height="213pt"
 viewBox="0.00 0.00 643.50 213.22" xmlns="http://www.w3.org/2000/svg" xmlns:xlink="http://www.w3.org/1999/xlink">
<g id="graph0" class="graph" transform="scale(1 1) rotate(0) translate(4 209.22)">
<title>Interactions::orderTemplates</title>
<!-- Node1 -->
<g id="Node000001" class="node">
<title>Node1</title>
<g id="a_Node000001"><a xlink:title=" ">
<polygon fill="#999999" stroke="#666666" points="635.5,-105.22 495.75,-105.22 495.75,-85.22 635.5,-85.22 635.5,-105.22"/>
<text text-anchor="middle" x="565.62" y="-91.72" font-family="Helvetica,sans-Serif" font-size="10.00">Interactions::orderTemplates</text>
</a>
</g>
</g>
<!-- Node2 -->
<g id="Node000002" class="node">
<title>Node2</title>
<g id="a_Node000002"><a xlink:href="$class_interactions.html#ac561e137b5d8550a5e58d7017aae8cbf" xlink:title=" ">
<polygon fill="white" stroke="#666666" points="459.75,-183.22 323.75,-183.22 323.75,-151.22 459.75,-151.22 459.75,-183.22"/>
<text text-anchor="start" x="331.75" y="-169.72" font-family="Helvetica,sans-Serif" font-size="10.00">Interactions::fCompareOne</text>
<text text-anchor="middle" x="391.75" y="-157.72" font-family="Helvetica,sans-Serif" font-size="10.00">TemplateMultipleTemplateA</text>
</a>
</g>
</g>
<!-- Node1&#45;&gt;Node2 -->
<g id="edge12_Node000001_Node000002" class="edge">
<title>Node1&#45;&gt;Node2</title>
<g id="a_edge12_Node000001_Node000002"><a xlink:title=" ">
<path fill="none" stroke="#63b8ff" d="M529.02,-110.13C500.76,-121.97 461.28,-138.51 432.09,-150.74"/>
<polygon fill="#63b8ff" stroke="#63b8ff" points="530.37,-113.36 538.24,-106.27 527.66,-106.91 530.37,-113.36"/>
</a>
</g>
</g>
<!-- Node4 -->
<g id="Node000004" class="node">
<title>Node4</title>
<g id="a_Node000004"><a xlink:href="$class_interactions.html#a2b8392d9a1a414b61dca6d6320fd2f79" xlink:title=" ">
<polygon fill="white" stroke="#666666" points="458.62,-111.22 324.88,-111.22 324.88,-79.22 458.62,-79.22 458.62,-111.22"/>
<text text-anchor="start" x="332.88" y="-97.72" font-family="Helvetica,sans-Serif" font-size="10.00">Interactions::fOneTemplate</text>
<text text-anchor="middle" x="391.75" y="-85.72" font-family="Helvetica,sans-Serif" font-size="10.00">MultipleTemplateA</text>
</a>
</g>
</g>
<!-- Node1&#45;&gt;Node4 -->
<g id="edge14_Node000001_Node000004" class="edge">
<title>Node1&#45;&gt;Node4</title>
<g id="a_edge14_Node000001_Node000004"><a xlink:title=" ">
<path fill="none" stroke="#63b8ff" d="M484.22,-95.22C475.74,-95.22 467.18,-95.22 458.89,-95.22"/>
<polygon fill="#63b8ff" stroke="#63b8ff" points="484.19,-98.72 494.19,-95.22 484.19,-91.72 484.19,-98.72"/>
</a>
</g>
</g>
<!-- Node10 -->
<g id="Node000010" class="node">
<title>Node10</title>
<g id="a_Node000010"><a xlink:href="$class_interactions.html#a523842705412e68f6461679f201caf07" xlink:title=" ">
<polygon fill="white" stroke="#666666" points="458.62,-61.22 324.88,-61.22 324.88,-29.22 458.62,-29.22 458.62,-61.22"/>
<text text-anchor="start" x="332.88" y="-47.72" font-family="Helvetica,sans-Serif" font-size="10.00">Interactions::fOneTemplate</text>
<text text-anchor="middle" x="391.75" y="-35.72" font-family="Helvetica,sans-Serif" font-size="10.00">MultipleTemplateA</text>
</a>
</g>
</g>
<!-- Node1&#45;&gt;Node10 -->
<g id="edge22_Node000001_Node000010" class="edge">
<title>Node1&#45;&gt;Node10</title>
<g id="a_edge22_Node000001_Node000010"><a xlink:title=" ">
<path fill="none" stroke="#63b8ff" d="M517.65,-81.55C496.55,-75.42 471.49,-68.12 449.37,-61.69"/>
<polygon fill="#63b8ff" stroke="#63b8ff" points="516.56,-84.88 527.14,-84.31 518.52,-78.16 516.56,-84.88"/>
</a>
</g>
</g>
<!-- Node3 -->
<g id="Node000003" class="node">
<title>Node3</title>
<g id="a_Node000003"><a xlink:href="$class_interactions.html#a79cb358170ab8b3f87a252d12cac8528" xlink:title=" ">
<polygon fill="white" stroke="#666666" points="287.75,-205.22 148.75,-205.22 148.75,-173.22 287.75,-173.22 287.75,-205.22"/>
<text text-anchor="start" x="156.75" y="-191.72" font-family="Helvetica,sans-Serif" font-size="10.00">Interactions::fcCompareOne</text>
<text text-anchor="middle" x="218.25" y="-179.72" font-family="Helvetica,sans-Serif" font-size="10.00">TemplateMultipleTemplateA</text>
</a>
</g>
</g>
<!-- Node2&#45;&gt;Node3 -->
<g id="edge13_Node000002_Node000003" class="edge">
<title>Node2&#45;&gt;Node3</title>
<g id="a_edge13_Node000002_Node000003"><a xlink:title=" ">
<path fill="none" stroke="#63b8ff" d="M312.16,-177.3C304.11,-178.33 295.97,-179.38 288.04,-180.39"/>
<polygon fill="#63b8ff" stroke="#63b8ff" points="312.49,-180.79 321.96,-176.04 311.6,-173.84 312.49,-180.79"/>
</a>
</g>
</g>
<!-- Node5 -->
<g id="Node000005" class="node">
<title>Node5</title>
<g id="a_Node000005"><a xlink:href="$class_arena.html#a1de3cf9bc5b3afd9ce88edd8ec9a4563" xlink:title=" ">
<polygon fill="white" stroke="#666666" points="101.88,-102.22 10.88,-102.22 10.88,-82.22 101.88,-82.22 101.88,-102.22"/>
<text text-anchor="middle" x="56.38" y="-88.72" font-family="Helvetica,sans-Serif" font-size="10.00">Arena::doActivity</text>
</a>
</g>
</g>
<!-- Node4&#45;&gt;Node5 -->
<g id="edge15_Node000004_Node000005" class="edge">
<title>Node4&#45;&gt;Node5</title>
<g id="a_edge15_Node000004_Node000005"><a xlink:title=" ">
<path fill="none" stroke="#63b8ff" d="M312.98,-94.52C247.49,-93.93 156.09,-93.11 102.19,-92.62"/>
<polygon fill="#63b8ff" stroke="#63b8ff" points="312.94,-98.02 322.97,-94.61 313.01,-91.02 312.94,-98.02"/>
</a>
</g>
</g>
<!-- Node6 -->
<g id="Node000006" class="node">
<title>Node6</title>
<g id="a_Node000006"><a xlink:href="$class_otherworld.html#a98c0d70a80579783f415323ccbb0e0a3" xlink:title=" ">
<polygon fill="white" stroke="#666666" points="112.75,-20.22 0,-20.22 0,-0.22 112.75,-0.22 112.75,-20.22"/>
<text text-anchor="middle" x="56.38" y="-6.72" font-family="Helvetica,sans-Serif" font-size="10.00">Otherworld::doActivity</text>
</a>
</g>
</g>
<!-- Node4&#45;&gt;Node6 -->
<g id="edge16_Node000004_Node000006" class="edge">
<title>Node4&#45;&gt;Node6</title>
<g id="a_edge16_Node000004_Node000006"><a xlink:title=" ">
<path fill="none" stroke="#63b8ff" d="M328.48,-73.37C326.86,-72.36 325.28,-71.31 323.75,-70.22 303.2,-55.51 310.19,-37.82 287.75,-26.22 233.26,1.96 161.62,2.17 112.78,-2.22"/>
<polygon fill="#63b8ff" stroke="#63b8ff" points="326.38,-76.21 336.82,-77.99 329.77,-70.08 326.38,-76.21"/>
</a>
</g>
</g>
<!-- Node7 -->
<g id="Node000007" class="node">
<title>Node7</title>
<g id="a_Node000007"><a xlink:href="$class_interactions.html#a25b3a4dba323cbb14057035056bf9d56" xlink:title=" ">
<polygon fill="white" stroke="#666666" points="287.75,-67.22 148.75,-67.22 148.75,-35.22 287.75,-35.22 287.75,-67.22"/>
<text text-anchor="start" x="156.75" y="-53.72" font-family="Helvetica,sans-Serif" font-size="10.00">Interactions::fcOneTemplate</text>
<text text-anchor="middle" x="218.25" y="-41.72" font-family="Helvetica,sans-Serif" font-size="10.00">MultipleTemplateA</text>
</a>
</g>
</g>
<!-- Node4&#45;&gt;Node7 -->
<g id="edge17_Node000004_Node000007" class="edge">
<title>Node4&#45;&gt;Node7</title>
<g id="a_edge17_Node000004_Node000007"><a xlink:title=" ">
<path fill="none" stroke="#63b8ff" d="M315.77,-75.98C305,-73.22 293.99,-70.39 283.45,-67.69"/>
<polygon fill="#63b8ff" stroke="#63b8ff" points="314.87,-79.36 325.42,-78.46 316.61,-72.58 314.87,-79.36"/>
</a>
</g>
</g>
<!-- Node9 -->
<g id="Node000009" class="node">
<title>Node9</title>
<g id="a_Node000009"><a xlink:href="$class_interactions.html#a8de1d76318ef0c22ad891b28008a44a3" xlink:title=" ">
<polygon fill="white" stroke="#666666" points="287.75,-155.22 148.75,-155.22 148.75,-123.22 287.75,-123.22 287.75,-155.22"/>
<text text-anchor="start" x="156.75" y="-141.72" font-family="Helvetica,sans-Serif" font-size="10.00">Interactions::fcOneTemplate</text>
<text text-anchor="middle" x="218.25" y="-129.72" font-family="Helvetica,sans-Serif" font-size="10.00">MultipleTemplateA</text>
</a>
</g>
</g>
<!-- Node4&#45;&gt;Node9 -->
<g id="edge21_Node000004_Node000009" class="edge">
<title>Node4&#45;&gt;Node9</title>
<g id="a_edge21_Node000004_Node000009"><a xlink:title=" ">
<path fill="none" stroke="#63b8ff" d="M315.77,-114.45C305,-117.22 293.99,-120.04 283.45,-122.75"/>
<polygon fill="#63b8ff" stroke="#63b8ff" points="316.61,-117.85 325.42,-111.98 314.87,-111.07 316.61,-117.85"/>
</a>
</g>
</g>
<!-- Node7&#45;&gt;Node5 -->
<g id="edge18_Node000007_Node000005" class="edge">
<title>Node7&#45;&gt;Node5</title>
<g id="a_edge18_Node000007_Node000005"><a xlink:title=" ">
<path fill="none" stroke="#63b8ff" d="M142.15,-70.48C126.94,-74.38 111.51,-78.34 98.04,-81.79"/>
<polygon fill="#63b8ff" stroke="#63b8ff" points="142.86,-73.91 151.68,-68.03 141.12,-67.13 142.86,-73.91"/>
</a>
</g>
</g>
<!-- Node7&#45;&gt;Node6 -->
<g id="edge19_Node000007_Node000006" class="edge">
<title>Node7&#45;&gt;Node6</title>
<g id="a_edge19_Node000007_Node000006"><a xlink:title=" ">
<path fill="none" stroke="#63b8ff" d="M142.15,-31.96C126.94,-28.06 111.51,-24.1 98.04,-20.65"/>
<polygon fill="#63b8ff" stroke="#63b8ff" points="141.12,-35.31 151.68,-34.4 142.86,-28.53 141.12,-35.31"/>
</a>
</g>
</g>
<!-- Node8 -->
<g id="Node000008" class="node">
<title>Node8</title>
<g id="a_Node000008"><a xlink:href="$class_pack.html#a0e1c06807939ef6198c19cc39559a081" xlink:title=" ">
<polygon fill="white" stroke="#666666" points="100.38,-61.22 12.38,-61.22 12.38,-41.22 100.38,-41.22 100.38,-61.22"/>
<text text-anchor="middle" x="56.38" y="-47.72" font-family="Helvetica,sans-Serif" font-size="10.00">Pack::doActivity</text>
</a>
</g>
</g>
<!-- Node7&#45;&gt;Node8 -->
<g id="edge20_Node000007_Node000008" class="edge">
<title>Node7&#45;&gt;Node8</title>
<g id="a_edge20_Node000007_Node000008"><a xlink:title=" ">
<path fill="none" stroke="#63b8ff" d="M137.03,-51.22C124.48,-51.22 111.93,-51.22 100.64,-51.22"/>
<polygon fill="#63b8ff" stroke="#63b8ff" points="137.01,-54.72 147.01,-51.22 137.01,-47.72 137.01,-54.72"/>
</a>
</g>
</g>
</g>
</svg>
