<?xml version="1.0" encoding="UTF-8" standalone="no"?>
<!DOCTYPE svg PUBLIC "-//W3C//DTD SVG 1.1//EN"
 "http://www.w3.org/Graphics/SVG/1.1/DTD/svg11.dtd">
<!-- Generated by graphviz version 12.2.0 (20241103.1931)
 -->
<!-- Title: KPToken::handleCp Pages: 1 -->
<svg width="263pt" height="66pt"
 viewBox="0.00 0.00 262.75 66.00" xmlns="http://www.w3.org/2000/svg" xmlns:xlink="http://www.w3.org/1999/xlink">
<g id="graph0" class="graph" transform="scale(1 1) rotate(0) translate(4 62)">
<title>KPToken::handleCp</title>
<!-- Node1 -->
<g id="Node000001" class="node">
<title>Node1</title>
<g id="a_Node000001"><a xlink:title=" ">
<polygon fill="#999999" stroke="#666666" points="254.75,-39 151.75,-39 151.75,-19 254.75,-19 254.75,-39"/>
<text text-anchor="middle" x="203.25" y="-25.5" font-family="Helvetica,sans-Serif" font-size="10.00">KPToken::handleCp</text>
</a>
</g>
</g>
<!-- Node2 -->
<g id="Node000002" class="node">
<title>Node2</title>
<g id="a_Node000002"><a xlink:href="$class_e_k_p_token.html#a710d49b38ba2eff3d0f4221e30d687b2" xlink:title=" ">
<polygon fill="white" stroke="#666666" points="115.75,-58 0,-58 0,-38 115.75,-38 115.75,-58"/>
<text text-anchor="middle" x="57.88" y="-44.5" font-family="Helvetica,sans-Serif" font-size="10.00">EKPToken::addTokens</text>
</a>
</g>
</g>
<!-- Node1&#45;&gt;Node2 -->
<g id="edge3_Node000001_Node000002" class="edge">
<title>Node1&#45;&gt;Node2</title>
<g id="a_edge3_Node000001_Node000002"><a xlink:title=" ">
<path fill="none" stroke="#63b8ff" d="M140.12,-37.23C132.11,-38.3 123.93,-39.38 116.01,-40.43"/>
<polygon fill="#63b8ff" stroke="#63b8ff" points="140.34,-40.73 149.8,-35.95 139.42,-33.8 140.34,-40.73"/>
</a>
</g>
</g>
<!-- Node3 -->
<g id="Node000003" class="node">
<title>Node3</title>
<g id="a_Node000003"><a xlink:href="$class_k_p_token.html#a7d6892f81389e89ec9f255ab1032758d" xlink:title=" ">
<polygon fill="white" stroke="#666666" points="112.38,-20 3.38,-20 3.38,0 112.38,0 112.38,-20"/>
<text text-anchor="middle" x="57.88" y="-6.5" font-family="Helvetica,sans-Serif" font-size="10.00">KPToken::addTokens</text>
</a>
</g>
</g>
<!-- Node1&#45;&gt;Node3 -->
<g id="edge4_Node000001_Node000003" class="edge">
<title>Node1&#45;&gt;Node3</title>
<g id="a_edge4_Node000001_Node000003"><a xlink:title=" ">
<path fill="none" stroke="#63b8ff" d="M139.91,-20.74C130.81,-19.53 121.49,-18.3 112.57,-17.12"/>
<polygon fill="#63b8ff" stroke="#63b8ff" points="139.42,-24.2 149.8,-22.05 140.34,-17.27 139.42,-24.2"/>
</a>
</g>
</g>
</g>
</svg>
