<?xml version="1.0" encoding="UTF-8" standalone="no"?>
<!DOCTYPE svg PUBLIC "-//W3C//DTD SVG 1.1//EN"
 "http://www.w3.org/Graphics/SVG/1.1/DTD/svg11.dtd">
<!-- Generated by graphviz version 12.2.0 (20241103.1931)
 -->
<!-- Title: BotConfig::updateDataLdPlayer Pages: 1 -->
<svg width="1293pt" height="256pt"
 viewBox="0.00 0.00 1292.75 256.00" xmlns="http://www.w3.org/2000/svg" xmlns:xlink="http://www.w3.org/1999/xlink">
<g id="graph0" class="graph" transform="scale(1 1) rotate(0) translate(4 252)">
<title>BotConfig::updateDataLdPlayer</title>
<!-- Node1 -->
<g id="Node000001" class="node">
<title>Node1</title>
<g id="a_Node000001"><a xlink:title=" ">
<polygon fill="#999999" stroke="#666666" points="154,-115 0,-115 0,-95 154,-95 154,-115"/>
<text text-anchor="middle" x="77" y="-101.5" font-family="Helvetica,sans-Serif" font-size="10.00">BotConfig::updateDataLdPlayer</text>
</a>
</g>
</g>
<!-- Node2 -->
<g id="Node000002" class="node">
<title>Node2</title>
<g id="a_Node000002"><a xlink:href="$class_bot_config.html#a70992bec079cbf9412e69b0f0e712ca2" xlink:title=" ">
<polygon fill="white" stroke="#666666" points="335,-115 190,-115 190,-95 335,-95 335,-115"/>
<text text-anchor="middle" x="262.5" y="-101.5" font-family="Helvetica,sans-Serif" font-size="10.00">BotConfig::updateBoolBotFile</text>
</a>
</g>
</g>
<!-- Node1&#45;&gt;Node2 -->
<g id="edge25_Node000001_Node000002" class="edge">
<title>Node1&#45;&gt;Node2</title>
<g id="a_edge25_Node000001_Node000002"><a xlink:title=" ">
<path fill="none" stroke="#63b8ff" d="M154.49,-105C162.29,-105 170.24,-105 178.1,-105"/>
<polygon fill="#63b8ff" stroke="#63b8ff" points="178.03,-108.5 188.03,-105 178.03,-101.5 178.03,-108.5"/>
</a>
</g>
</g>
<!-- Node3 -->
<g id="Node000003" class="node">
<title>Node3</title>
<g id="a_Node000003"><a xlink:href="$class_bot_config.html#a7b0b572a14dd5f0630b335041f83049a" xlink:title=" ">
<polygon fill="white" stroke="#666666" points="485.25,-115 371,-115 371,-95 485.25,-95 485.25,-115"/>
<text text-anchor="middle" x="428.12" y="-101.5" font-family="Helvetica,sans-Serif" font-size="10.00">BotConfig::updateBool</text>
</a>
</g>
</g>
<!-- Node2&#45;&gt;Node3 -->
<g id="edge26_Node000002_Node000003" class="edge">
<title>Node2&#45;&gt;Node3</title>
<g id="a_edge26_Node000002_Node000003"><a xlink:title=" ">
<path fill="none" stroke="#63b8ff" d="M335.27,-105C343.23,-105 351.32,-105 359.23,-105"/>
<polygon fill="#63b8ff" stroke="#63b8ff" points="359.15,-108.5 369.15,-105 359.15,-101.5 359.15,-108.5"/>
</a>
</g>
</g>
<!-- Node4 -->
<g id="Node000004" class="node">
<title>Node4</title>
<g id="a_Node000004"><a xlink:href="$class_bot_config.html#ab92a15dd3027a7f42b452cdf5eaf9529" xlink:title=" ">
<polygon fill="white" stroke="#666666" points="641.5,-115 521.25,-115 521.25,-95 641.5,-95 641.5,-115"/>
<text text-anchor="middle" x="581.38" y="-101.5" font-family="Helvetica,sans-Serif" font-size="10.00">BotConfig::updateString</text>
</a>
</g>
</g>
<!-- Node3&#45;&gt;Node4 -->
<g id="edge27_Node000003_Node000004" class="edge">
<title>Node3&#45;&gt;Node4</title>
<g id="a_edge27_Node000003_Node000004"><a xlink:title=" ">
<path fill="none" stroke="#63b8ff" d="M485.44,-105C493.32,-105 501.5,-105 509.6,-105"/>
<polygon fill="#63b8ff" stroke="#63b8ff" points="509.46,-108.5 519.46,-105 509.46,-101.5 509.46,-108.5"/>
</a>
</g>
</g>
<!-- Node5 -->
<g id="Node000005" class="node">
<title>Node5</title>
<g id="a_Node000005"><a xlink:href="$_text_manager_8cpp.html#add36cc54cd9616a393a17b8961491477" xlink:title=" ">
<polygon fill="white" stroke="#666666" points="757.25,-248 677.5,-248 677.5,-228 757.25,-228 757.25,-248"/>
<text text-anchor="middle" x="717.38" y="-234.5" font-family="Helvetica,sans-Serif" font-size="10.00">getFileContent</text>
</a>
</g>
</g>
<!-- Node4&#45;&gt;Node5 -->
<g id="edge28_Node000004_Node000005" class="edge">
<title>Node4&#45;&gt;Node5</title>
<g id="a_edge28_Node000004_Node000005"><a xlink:title=" ">
<path fill="none" stroke="#63b8ff" d="M589.64,-115.22C604.5,-135.66 640.14,-182.33 677.5,-214 680.56,-216.59 683.92,-219.1 687.35,-221.44"/>
<polygon fill="#63b8ff" stroke="#63b8ff" points="685.42,-224.36 695.73,-226.79 689.18,-218.46 685.42,-224.36"/>
</a>
</g>
</g>
<!-- Node6 -->
<g id="Node000006" class="node">
<title>Node6</title>
<g id="a_Node000006"><a xlink:href="$_text_manager_8cpp.html#af24bee60aa1d3d5b4ae3bf6ebd267ecd" xlink:title=" ">
<polygon fill="white" stroke="#666666" points="741.12,-134 693.62,-134 693.62,-114 741.12,-114 741.12,-134"/>
<text text-anchor="middle" x="717.38" y="-120.5" font-family="Helvetica,sans-Serif" font-size="10.00">getLine</text>
</a>
</g>
</g>
<!-- Node4&#45;&gt;Node6 -->
<g id="edge29_Node000004_Node000006" class="edge">
<title>Node4&#45;&gt;Node6</title>
<g id="a_edge29_Node000004_Node000006"><a xlink:title=" ">
<path fill="none" stroke="#63b8ff" d="M641.93,-113.44C655.7,-115.4 669.9,-117.41 682.15,-119.15"/>
<polygon fill="#63b8ff" stroke="#63b8ff" points="681.34,-122.57 691.73,-120.51 682.32,-115.64 681.34,-122.57"/>
</a>
</g>
</g>
<!-- Node8 -->
<g id="Node000008" class="node">
<title>Node8</title>
<g id="a_Node000008"><a xlink:href="$_text_manager_8cpp.html#a6956d58559ef67f422247fdeb1c22775" xlink:title=" ">
<polygon fill="white" stroke="#666666" points="1030,-153 954,-153 954,-133 1030,-133 1030,-153"/>
<text text-anchor="middle" x="992" y="-139.5" font-family="Helvetica,sans-Serif" font-size="10.00">getStringAfter</text>
</a>
</g>
</g>
<!-- Node4&#45;&gt;Node8 -->
<g id="edge42_Node000004_Node000008" class="edge">
<title>Node4&#45;&gt;Node8</title>
<g id="a_edge42_Node000004_Node000008"><a xlink:title=" ">
<path fill="none" stroke="#63b8ff" d="M602.93,-115.36C639.87,-133.3 720.43,-169.35 793.25,-181 846.35,-189.49 861.89,-193.25 914.25,-181 932.42,-176.75 951.23,-167.53 965.68,-159.24"/>
<polygon fill="#63b8ff" stroke="#63b8ff" points="967.27,-162.36 974.06,-154.22 963.68,-156.35 967.27,-162.36"/>
</a>
</g>
</g>
<!-- Node12 -->
<g id="Node000012" class="node">
<title>Node12</title>
<g id="a_Node000012"><a xlink:href="$_text_manager_8cpp.html#aff8311b88dbf5f3091f3ac1262543242" xlink:title=" ">
<polygon fill="white" stroke="#666666" points="1033.75,-96 950.25,-96 950.25,-76 1033.75,-76 1033.75,-96"/>
<text text-anchor="middle" x="992" y="-82.5" font-family="Helvetica,sans-Serif" font-size="10.00">getStringBefore</text>
</a>
</g>
</g>
<!-- Node4&#45;&gt;Node12 -->
<g id="edge43_Node000004_Node000012" class="edge">
<title>Node4&#45;&gt;Node12</title>
<g id="a_edge43_Node000004_Node000012"><a xlink:title=" ">
<path fill="none" stroke="#63b8ff" d="M621.48,-94.55C683.56,-79.3 808.47,-54.1 914.25,-67 924.45,-68.24 935.24,-70.38 945.41,-72.79"/>
<polygon fill="#63b8ff" stroke="#63b8ff" points="944.55,-76.18 955.1,-75.22 946.25,-69.39 944.55,-76.18"/>
</a>
</g>
</g>
<!-- Node14 -->
<g id="Node000014" class="node">
<title>Node14</title>
<g id="a_Node000014"><a xlink:href="$_text_manager_8cpp.html#ac695ebe5513185f42689b419f58d8a83" xlink:title=" ">
<polygon fill="white" stroke="#666666" points="893.62,-96 813.88,-96 813.88,-76 893.62,-76 893.62,-96"/>
<text text-anchor="middle" x="853.75" y="-82.5" font-family="Helvetica,sans-Serif" font-size="10.00">updateContent</text>
</a>
</g>
</g>
<!-- Node4&#45;&gt;Node14 -->
<g id="edge44_Node000004_Node000014" class="edge">
<title>Node4&#45;&gt;Node14</title>
<g id="a_edge44_Node000004_Node000014"><a xlink:title=" ">
<path fill="none" stroke="#63b8ff" d="M641.71,-100.83C689.76,-97.45 756.71,-92.75 802.22,-89.55"/>
<polygon fill="#63b8ff" stroke="#63b8ff" points="802.36,-93.05 812.09,-88.86 801.87,-86.07 802.36,-93.05"/>
</a>
</g>
</g>
<!-- Node15 -->
<g id="Node000015" class="node">
<title>Node15</title>
<g id="a_Node000015"><a xlink:href="$_text_manager_8cpp.html#ab55140c566370b105b9bf81756293fa5" xlink:title=" ">
<polygon fill="white" stroke="#666666" points="749,-20 685.75,-20 685.75,0 749,0 749,-20"/>
<text text-anchor="middle" x="717.38" y="-6.5" font-family="Helvetica,sans-Serif" font-size="10.00">writeToFile</text>
</a>
</g>
</g>
<!-- Node4&#45;&gt;Node15 -->
<g id="edge47_Node000004_Node000015" class="edge">
<title>Node4&#45;&gt;Node15</title>
<g id="a_edge47_Node000004_Node000015"><a xlink:title=" ">
<path fill="none" stroke="#63b8ff" d="M595.65,-94.51C613.79,-80.3 647.51,-54.39 677.5,-34 681.23,-31.46 685.22,-28.87 689.17,-26.37"/>
<polygon fill="#63b8ff" stroke="#63b8ff" points="690.81,-29.47 697.46,-21.23 687.12,-23.52 690.81,-29.47"/>
</a>
</g>
</g>
<!-- Node7 -->
<g id="Node000007" class="node">
<title>Node7</title>
<g id="a_Node000007"><a xlink:href="$_text_manager_8cpp.html#a85a282af68cca7cf7d69487d1bacdc47" xlink:title=" ">
<polygon fill="white" stroke="#666666" points="895.88,-172 811.62,-172 811.62,-152 895.88,-152 895.88,-172"/>
<text text-anchor="middle" x="853.75" y="-158.5" font-family="Helvetica,sans-Serif" font-size="10.00">extractBetween</text>
</a>
</g>
</g>
<!-- Node6&#45;&gt;Node7 -->
<g id="edge30_Node000006_Node000007" class="edge">
<title>Node6&#45;&gt;Node7</title>
<g id="a_edge30_Node000006_Node000007"><a xlink:title=" ">
<path fill="none" stroke="#63b8ff" d="M741.47,-130.53C758.86,-135.45 783.28,-142.36 804.83,-148.45"/>
<polygon fill="#63b8ff" stroke="#63b8ff" points="803.74,-151.78 814.32,-151.13 805.65,-145.04 803.74,-151.78"/>
</a>
</g>
</g>
<!-- Node13 -->
<g id="Node000013" class="node">
<title>Node13</title>
<g id="a_Node000013"><a xlink:href="$_text_manager_8cpp.html#a84a9e24fc5cce3cebf746bb656909bf8" xlink:title=" ">
<polygon fill="white" stroke="#666666" points="914.25,-134 793.25,-134 793.25,-114 914.25,-114 914.25,-134"/>
<text text-anchor="middle" x="853.75" y="-120.5" font-family="Helvetica,sans-Serif" font-size="10.00">extractBetweenReverse</text>
</a>
</g>
</g>
<!-- Node6&#45;&gt;Node13 -->
<g id="edge39_Node000006_Node000013" class="edge">
<title>Node6&#45;&gt;Node13</title>
<g id="a_edge39_Node000006_Node000013"><a xlink:title=" ">
<path fill="none" stroke="#63b8ff" d="M741.47,-124C752.84,-124 767.21,-124 781.82,-124"/>
<polygon fill="#63b8ff" stroke="#63b8ff" points="781.48,-127.5 791.48,-124 781.48,-120.5 781.48,-127.5"/>
</a>
</g>
</g>
<!-- Node7&#45;&gt;Node8 -->
<g id="edge31_Node000007_Node000008" class="edge">
<title>Node7&#45;&gt;Node8</title>
<g id="a_edge31_Node000007_Node000008"><a xlink:title=" ">
<path fill="none" stroke="#63b8ff" d="M896.37,-156.2C910.96,-154.16 927.48,-151.86 942.58,-149.75"/>
<polygon fill="#63b8ff" stroke="#63b8ff" points="942.88,-153.24 952.3,-148.4 941.91,-146.31 942.88,-153.24"/>
</a>
</g>
</g>
<!-- Node7&#45;&gt;Node12 -->
<g id="edge37_Node000007_Node000012" class="edge">
<title>Node7&#45;&gt;Node12</title>
<g id="a_edge37_Node000007_Node000012"><a xlink:title=" ">
<path fill="none" stroke="#63b8ff" d="M893.9,-151.54C900.84,-149.11 907.88,-146.27 914.25,-143 935.16,-132.27 956.42,-115.97 971.25,-103.55"/>
<polygon fill="#63b8ff" stroke="#63b8ff" points="973.13,-106.55 978.44,-97.38 968.57,-101.23 973.13,-106.55"/>
</a>
</g>
</g>
<!-- Node9 -->
<g id="Node000009" class="node">
<title>Node9</title>
<g id="a_Node000009"><a xlink:href="$_text_manager_8cpp.html#a5b66873abcff2faee361721f86b65dd0" xlink:title=" ">
<polygon fill="white" stroke="#666666" points="1148,-134 1080.25,-134 1080.25,-114 1148,-114 1148,-134"/>
<text text-anchor="middle" x="1114.12" y="-120.5" font-family="Helvetica,sans-Serif" font-size="10.00">getPosAfter</text>
</a>
</g>
</g>
<!-- Node8&#45;&gt;Node9 -->
<g id="edge32_Node000008_Node000009" class="edge">
<title>Node8&#45;&gt;Node9</title>
<g id="a_edge32_Node000008_Node000009"><a xlink:title=" ">
<path fill="none" stroke="#63b8ff" d="M1030.35,-137.09C1042.48,-135.17 1056.05,-133.03 1068.65,-131.03"/>
<polygon fill="#63b8ff" stroke="#63b8ff" points="1069.04,-134.52 1078.38,-129.5 1067.95,-127.6 1069.04,-134.52"/>
</a>
</g>
</g>
<!-- Node11 -->
<g id="Node000011" class="node">
<title>Node11</title>
<g id="a_Node000011"><a xlink:href="$_text_manager_8cpp.html#a2946b90fb3df56b0a74d53eb4160f4e2" xlink:title=" ">
<polygon fill="white" stroke="#666666" points="1158.5,-172 1069.75,-172 1069.75,-152 1158.5,-152 1158.5,-172"/>
<text text-anchor="middle" x="1114.12" y="-158.5" font-family="Helvetica,sans-Serif" font-size="10.00">getStringStarting</text>
</a>
</g>
</g>
<!-- Node8&#45;&gt;Node11 -->
<g id="edge34_Node000008_Node000011" class="edge">
<title>Node8&#45;&gt;Node11</title>
<g id="a_edge34_Node000008_Node000011"><a xlink:title=" ">
<path fill="none" stroke="#63b8ff" d="M1030.35,-148.91C1039.16,-150.3 1048.74,-151.82 1058.15,-153.31"/>
<polygon fill="#63b8ff" stroke="#63b8ff" points="1057.57,-156.76 1067.99,-154.86 1058.66,-149.84 1057.57,-156.76"/>
</a>
</g>
</g>
<!-- Node10 -->
<g id="Node000010" class="node">
<title>Node10</title>
<g id="a_Node000010"><a xlink:href="$_text_manager_8cpp.html#a3f4afb2b62acd297e783a22ffa9a7000" xlink:title=" ">
<polygon fill="white" stroke="#666666" points="1284.75,-134 1194.5,-134 1194.5,-114 1284.75,-114 1284.75,-134"/>
<text text-anchor="middle" x="1239.62" y="-120.5" font-family="Helvetica,sans-Serif" font-size="10.00">getSequencePos</text>
</a>
</g>
</g>
<!-- Node9&#45;&gt;Node10 -->
<g id="edge33_Node000009_Node000010" class="edge">
<title>Node9&#45;&gt;Node10</title>
<g id="a_edge33_Node000009_Node000010"><a xlink:title=" ">
<path fill="none" stroke="#63b8ff" d="M1148.22,-124C1158.94,-124 1171.14,-124 1183.04,-124"/>
<polygon fill="#63b8ff" stroke="#63b8ff" points="1182.77,-127.5 1192.77,-124 1182.77,-120.5 1182.77,-127.5"/>
</a>
</g>
</g>
<!-- Node11&#45;&gt;Node10 -->
<g id="edge35_Node000011_Node000010" class="edge">
<title>Node11&#45;&gt;Node10</title>
<g id="a_edge35_Node000011_Node000010"><a xlink:title=" ">
<path fill="none" stroke="#63b8ff" d="M1149.2,-151.52C1162.97,-147.28 1179.05,-142.33 1193.75,-137.81"/>
<polygon fill="#63b8ff" stroke="#63b8ff" points="1194.69,-141.18 1203.22,-134.9 1192.63,-134.49 1194.69,-141.18"/>
</a>
</g>
</g>
<!-- Node11&#45;&gt;Node11 -->
<g id="edge36_Node000011_Node000011" class="edge">
<title>Node11&#45;&gt;Node11</title>
<g id="a_edge36_Node000011_Node000011"><a xlink:title=" ">
<path fill="none" stroke="#63b8ff" d="M1094.72,-172.34C1086.43,-180.98 1092.9,-190 1114.12,-190 1125.73,-190 1132.93,-187.3 1135.71,-183.44"/>
<polygon fill="#63b8ff" stroke="#63b8ff" points="1139.18,-182.96 1133.82,-173.82 1132.31,-184.31 1139.18,-182.96"/>
</a>
</g>
</g>
<!-- Node12&#45;&gt;Node10 -->
<g id="edge38_Node000012_Node000010" class="edge">
<title>Node12&#45;&gt;Node10</title>
<g id="a_edge38_Node000012_Node000010"><a xlink:title=" ">
<path fill="none" stroke="#63b8ff" d="M1034,-89.34C1067.61,-92.41 1116.34,-97.61 1158.5,-105 1168.01,-106.67 1178.09,-108.78 1187.76,-110.98"/>
<polygon fill="#63b8ff" stroke="#63b8ff" points="1186.87,-114.37 1197.4,-113.25 1188.47,-107.55 1186.87,-114.37"/>
</a>
</g>
</g>
<!-- Node13&#45;&gt;Node8 -->
<g id="edge40_Node000013_Node000008" class="edge">
<title>Node13&#45;&gt;Node8</title>
<g id="a_edge40_Node000013_Node000008"><a xlink:title=" ">
<path fill="none" stroke="#63b8ff" d="M914.51,-132.33C923.86,-133.64 933.43,-134.97 942.49,-136.23"/>
<polygon fill="#63b8ff" stroke="#63b8ff" points="941.75,-139.67 952.14,-137.58 942.72,-132.73 941.75,-139.67"/>
</a>
</g>
</g>
<!-- Node13&#45;&gt;Node12 -->
<g id="edge41_Node000013_Node000012" class="edge">
<title>Node13&#45;&gt;Node12</title>
<g id="a_edge41_Node000013_Node000012"><a xlink:title=" ">
<path fill="none" stroke="#63b8ff" d="M892.34,-113.52C907.83,-109.2 925.97,-104.14 942.45,-99.54"/>
<polygon fill="#63b8ff" stroke="#63b8ff" points="943.38,-102.91 952.07,-96.86 941.5,-96.17 943.38,-102.91"/>
</a>
</g>
</g>
<!-- Node14&#45;&gt;Node8 -->
<g id="edge45_Node000014_Node000008" class="edge">
<title>Node14&#45;&gt;Node8</title>
<g id="a_edge45_Node000014_Node000008"><a xlink:title=" ">
<path fill="none" stroke="#63b8ff" d="M890.62,-96.49C898.48,-99.06 906.71,-101.95 914.25,-105 930.4,-111.53 947.84,-120.04 962,-127.35"/>
<polygon fill="#63b8ff" stroke="#63b8ff" points="960.3,-130.41 970.79,-131.95 963.55,-124.21 960.3,-130.41"/>
</a>
</g>
</g>
<!-- Node14&#45;&gt;Node12 -->
<g id="edge46_Node000014_Node000012" class="edge">
<title>Node14&#45;&gt;Node12</title>
<g id="a_edge46_Node000014_Node000012"><a xlink:title=" ">
<path fill="none" stroke="#63b8ff" d="M893.79,-86C907.83,-86 923.89,-86 938.87,-86"/>
<polygon fill="#63b8ff" stroke="#63b8ff" points="938.54,-89.5 948.54,-86 938.54,-82.5 938.54,-89.5"/>
</a>
</g>
</g>
<!-- Node16 -->
<g id="Node000016" class="node">
<title>Node16</title>
<g id="a_Node000016"><a xlink:href="$_text_manager_8cpp.html#a4a86df56d2737552b2fd63bfa85c5800" xlink:title=" ">
<polygon fill="white" stroke="#666666" points="896.62,-20 810.88,-20 810.88,0 896.62,0 896.62,-20"/>
<text text-anchor="middle" x="853.75" y="-6.5" font-family="Helvetica,sans-Serif" font-size="10.00">getOfstreamFile</text>
</a>
</g>
</g>
<!-- Node15&#45;&gt;Node16 -->
<g id="edge48_Node000015_Node000016" class="edge">
<title>Node15&#45;&gt;Node16</title>
<g id="a_edge48_Node000015_Node000016"><a xlink:title=" ">
<path fill="none" stroke="#63b8ff" d="M749.2,-10C764,-10 782.16,-10 799.12,-10"/>
<polygon fill="#63b8ff" stroke="#63b8ff" points="799.1,-13.5 809.1,-10 799.1,-6.5 799.1,-13.5"/>
</a>
</g>
</g>
</g>
</svg>
