<?xml version="1.0" encoding="UTF-8" standalone="no"?>
<!DOCTYPE svg PUBLIC "-//W3C//DTD SVG 1.1//EN"
 "http://www.w3.org/Graphics/SVG/1.1/DTD/svg11.dtd">
<!-- Generated by graphviz version 12.2.0 (20241103.1931)
 -->
<!-- Title: MyFrame::setMainPanel Pages: 1 -->
<svg width="1776pt" height="236pt"
 viewBox="0.00 0.00 1776.25 236.00" xmlns="http://www.w3.org/2000/svg" xmlns:xlink="http://www.w3.org/1999/xlink">
<g id="graph0" class="graph" transform="scale(1 1) rotate(0) translate(4 232)">
<title>MyFrame::setMainPanel</title>
<!-- Node1 -->
<g id="Node000001" class="node">
<title>Node1</title>
<g id="a_Node000001"><a xlink:title=" ">
<polygon fill="#999999" stroke="#666666" points="122.5,-76 0,-76 0,-56 122.5,-56 122.5,-76"/>
<text text-anchor="middle" x="61.25" y="-62.5" font-family="Helvetica,sans-Serif" font-size="10.00">MyFrame::setMainPanel</text>
</a>
</g>
</g>
<!-- Node2 -->
<g id="Node000002" class="node">
<title>Node2</title>
<g id="a_Node000002"><a xlink:href="$class_my_frame.html#a0281cb45b6735fcbd2c885d98c874d18" xlink:title=" ">
<polygon fill="white" stroke="#666666" points="291.5,-114 158.5,-114 158.5,-94 291.5,-94 291.5,-114"/>
<text text-anchor="middle" x="225" y="-100.5" font-family="Helvetica,sans-Serif" font-size="10.00">MyFrame::setBottomPanel</text>
</a>
</g>
</g>
<!-- Node1&#45;&gt;Node2 -->
<g id="edge33_Node000001_Node000002" class="edge">
<title>Node1&#45;&gt;Node2</title>
<g id="a_edge33_Node000001_Node000002"><a xlink:title=" ">
<path fill="none" stroke="#63b8ff" d="M106.88,-76.48C125.88,-80.95 148.25,-86.21 168.33,-90.92"/>
<polygon fill="#63b8ff" stroke="#63b8ff" points="167.51,-94.32 178.05,-93.2 169.11,-87.51 167.51,-94.32"/>
</a>
</g>
</g>
<!-- Node35 -->
<g id="Node000035" class="node">
<title>Node35</title>
<g id="a_Node000035"><a xlink:href="$class_my_frame.html#ae268aae5c15908fe722358a19acdfd23" xlink:title=" ">
<polygon fill="white" stroke="#666666" points="275.38,-76 174.62,-76 174.62,-56 275.38,-56 275.38,-76"/>
<text text-anchor="middle" x="225" y="-62.5" font-family="Helvetica,sans-Serif" font-size="10.00">MyFrame::setMenu</text>
</a>
</g>
</g>
<!-- Node1&#45;&gt;Node35 -->
<g id="edge62_Node000001_Node000035" class="edge">
<title>Node1&#45;&gt;Node35</title>
<g id="a_edge62_Node000001_Node000035"><a xlink:title=" ">
<path fill="none" stroke="#63b8ff" d="M122.94,-66C136.04,-66 149.9,-66 163.02,-66"/>
<polygon fill="#63b8ff" stroke="#63b8ff" points="162.8,-69.5 172.8,-66 162.8,-62.5 162.8,-69.5"/>
</a>
</g>
</g>
<!-- Node36 -->
<g id="Node000036" class="node">
<title>Node36</title>
<g id="a_Node000036"><a xlink:href="$class_my_frame.html#a9021090d0039a901c587e8054952046a" xlink:title=" ">
<polygon fill="white" stroke="#666666" points="283.62,-38 166.38,-38 166.38,-18 283.62,-18 283.62,-38"/>
<text text-anchor="middle" x="225" y="-24.5" font-family="Helvetica,sans-Serif" font-size="10.00">MyFrame::setTopPanel</text>
</a>
</g>
</g>
<!-- Node1&#45;&gt;Node36 -->
<g id="edge63_Node000001_Node000036" class="edge">
<title>Node1&#45;&gt;Node36</title>
<g id="a_edge63_Node000001_Node000036"><a xlink:title=" ">
<path fill="none" stroke="#63b8ff" d="M106.88,-55.52C125.88,-51.05 148.25,-45.79 168.33,-41.08"/>
<polygon fill="#63b8ff" stroke="#63b8ff" points="169.11,-44.49 178.05,-38.8 167.51,-37.68 169.11,-44.49"/>
</a>
</g>
</g>
<!-- Node3 -->
<g id="Node000003" class="node">
<title>Node3</title>
<g id="a_Node000003"><a xlink:href="$class_my_frame.html#a72b4f4c02d1a12561c4cc1f5f7685db8" xlink:title=" ">
<polygon fill="white" stroke="#666666" points="470.62,-133 332.38,-133 332.38,-113 470.62,-113 470.62,-133"/>
<text text-anchor="middle" x="401.5" y="-119.5" font-family="Helvetica,sans-Serif" font-size="10.00">MyFrame::setProgramPanel</text>
</a>
</g>
</g>
<!-- Node2&#45;&gt;Node3 -->
<g id="edge34_Node000002_Node000003" class="edge">
<title>Node2&#45;&gt;Node3</title>
<g id="a_edge34_Node000002_Node000003"><a xlink:title=" ">
<path fill="none" stroke="#63b8ff" d="M291.97,-111.18C301.41,-112.21 311.19,-113.28 320.86,-114.33"/>
<polygon fill="#63b8ff" stroke="#63b8ff" points="320.29,-117.79 330.61,-115.39 321.05,-110.83 320.29,-117.79"/>
</a>
</g>
</g>
<!-- Node33 -->
<g id="Node000033" class="node">
<title>Node33</title>
<g id="a_Node000033"><a xlink:href="$class_my_frame.html#ab7c6287940dde30412ad83ee933bc351" xlink:title=" ">
<polygon fill="white" stroke="#666666" points="475.5,-95 327.5,-95 327.5,-75 475.5,-75 475.5,-95"/>
<text text-anchor="middle" x="401.5" y="-81.5" font-family="Helvetica,sans-Serif" font-size="10.00">MyFrame::setTagDetailsPanel</text>
</a>
</g>
</g>
<!-- Node2&#45;&gt;Node33 -->
<g id="edge60_Node000002_Node000033" class="edge">
<title>Node2&#45;&gt;Node33</title>
<g id="a_edge60_Node000002_Node000033"><a xlink:title=" ">
<path fill="none" stroke="#63b8ff" d="M291.97,-96.82C299.78,-95.97 307.83,-95.09 315.84,-94.22"/>
<polygon fill="#63b8ff" stroke="#63b8ff" points="316.07,-97.71 325.63,-93.15 315.31,-90.76 316.07,-97.71"/>
</a>
</g>
</g>
<!-- Node4 -->
<g id="Node000004" class="node">
<title>Node4</title>
<g id="a_Node000004"><a xlink:href="$class_my_frame.html#a7795237fe8d78e10023b2e078f9728e3" xlink:title=" ">
<polygon fill="white" stroke="#666666" points="660.25,-171 511.5,-171 511.5,-151 660.25,-151 660.25,-171"/>
<text text-anchor="middle" x="585.88" y="-157.5" font-family="Helvetica,sans-Serif" font-size="10.00">MyFrame::setProgramWindow</text>
</a>
</g>
</g>
<!-- Node3&#45;&gt;Node4 -->
<g id="edge35_Node000003_Node000004" class="edge">
<title>Node3&#45;&gt;Node4</title>
<g id="a_edge35_Node000003_Node000004"><a xlink:title=" ">
<path fill="none" stroke="#63b8ff" d="M452.82,-133.48C474.74,-138.05 500.65,-143.45 523.68,-148.25"/>
<polygon fill="#63b8ff" stroke="#63b8ff" points="522.74,-151.63 533.24,-150.24 524.16,-144.77 522.74,-151.63"/>
</a>
</g>
</g>
<!-- Node32 -->
<g id="Node000032" class="node">
<title>Node32</title>
<g id="a_Node000032"><a xlink:href="$class_my_frame.html#a0dbb5d4453fefd4e027e2a7cb9a02706" xlink:title=" ">
<polygon fill="white" stroke="#666666" points="659.88,-133 511.88,-133 511.88,-113 659.88,-113 659.88,-133"/>
<text text-anchor="middle" x="585.88" y="-119.5" font-family="Helvetica,sans-Serif" font-size="10.00">MyFrame::setTagChoicePanel</text>
</a>
</g>
</g>
<!-- Node3&#45;&gt;Node32 -->
<g id="edge59_Node000003_Node000032" class="edge">
<title>Node3&#45;&gt;Node32</title>
<g id="a_edge59_Node000003_Node000032"><a xlink:title=" ">
<path fill="none" stroke="#63b8ff" d="M470.93,-123C480.45,-123 490.32,-123 500.09,-123"/>
<polygon fill="#63b8ff" stroke="#63b8ff" points="499.97,-126.5 509.97,-123 499.97,-119.5 499.97,-126.5"/>
</a>
</g>
</g>
<!-- Node5 -->
<g id="Node000005" class="node">
<title>Node5</title>
<g id="a_Node000005"><a xlink:href="$class_my_frame.html#abb986879321b4dceaffb43eae82e37f1" xlink:title=" ">
<polygon fill="white" stroke="#666666" points="832.25,-171 696.25,-171 696.25,-151 832.25,-151 832.25,-171"/>
<text text-anchor="middle" x="764.25" y="-157.5" font-family="Helvetica,sans-Serif" font-size="10.00">MyFrame::createPanelTags</text>
</a>
</g>
</g>
<!-- Node4&#45;&gt;Node5 -->
<g id="edge36_Node000004_Node000005" class="edge">
<title>Node4&#45;&gt;Node5</title>
<g id="a_edge36_Node000004_Node000005"><a xlink:title=" ">
<path fill="none" stroke="#63b8ff" d="M660.65,-161C668.52,-161 676.54,-161 684.46,-161"/>
<polygon fill="#63b8ff" stroke="#63b8ff" points="684.44,-164.5 694.44,-161 684.44,-157.5 684.44,-164.5"/>
</a>
</g>
</g>
<!-- Node6 -->
<g id="Node000006" class="node">
<title>Node6</title>
<g id="a_Node000006"><a xlink:href="$class_my_frame.html#a6e0ebad55b1d785b586997826c512f7d" xlink:title=" ">
<polygon fill="white" stroke="#666666" points="981.75,-171 868.25,-171 868.25,-151 981.75,-151 981.75,-171"/>
<text text-anchor="middle" x="925" y="-157.5" font-family="Helvetica,sans-Serif" font-size="10.00">MyFrame::getMainTag</text>
</a>
</g>
</g>
<!-- Node5&#45;&gt;Node6 -->
<g id="edge37_Node000005_Node000006" class="edge">
<title>Node5&#45;&gt;Node6</title>
<g id="a_edge37_Node000005_Node000006"><a xlink:title=" ">
<path fill="none" stroke="#63b8ff" d="M832.57,-161C840.52,-161 848.64,-161 856.59,-161"/>
<polygon fill="#63b8ff" stroke="#63b8ff" points="856.57,-164.5 866.57,-161 856.57,-157.5 856.57,-164.5"/>
</a>
</g>
</g>
<!-- Node7 -->
<g id="Node000007" class="node">
<title>Node7</title>
<g id="a_Node000007"><a xlink:href="$class_interpretor.html#a51befa58f2bca099b38ee074be359f3d" xlink:title=" ">
<polygon fill="white" stroke="#666666" points="1148.88,-190 1020.38,-190 1020.38,-170 1148.88,-170 1148.88,-190"/>
<text text-anchor="middle" x="1084.62" y="-176.5" font-family="Helvetica,sans-Serif" font-size="10.00">Interpretor::getActivityTag</text>
</a>
</g>
</g>
<!-- Node6&#45;&gt;Node7 -->
<g id="edge38_Node000006_Node000007" class="edge">
<title>Node6&#45;&gt;Node7</title>
<g id="a_edge38_Node000006_Node000007"><a xlink:title=" ">
<path fill="none" stroke="#63b8ff" d="M982.02,-167.75C990.66,-168.79 999.71,-169.89 1008.7,-170.97"/>
<polygon fill="#63b8ff" stroke="#63b8ff" points="1008.15,-174.43 1018.5,-172.15 1008.99,-167.48 1008.15,-174.43"/>
</a>
</g>
</g>
<!-- Node8 -->
<g id="Node000008" class="node">
<title>Node8</title>
<g id="a_Node000008"><a xlink:href="$class_interpretor.html#a860d7cc665a3202f6f462dc1293fe5e6" xlink:title=" ">
<polygon fill="white" stroke="#666666" points="1151.5,-152 1017.75,-152 1017.75,-132 1151.5,-132 1151.5,-152"/>
<text text-anchor="middle" x="1084.62" y="-138.5" font-family="Helvetica,sans-Serif" font-size="10.00">Interpretor::readActivityFile</text>
</a>
</g>
</g>
<!-- Node6&#45;&gt;Node8 -->
<g id="edge39_Node000006_Node000008" class="edge">
<title>Node6&#45;&gt;Node8</title>
<g id="a_edge39_Node000006_Node000008"><a xlink:title=" ">
<path fill="none" stroke="#63b8ff" d="M982.02,-154.25C989.78,-153.31 997.86,-152.34 1005.92,-151.37"/>
<polygon fill="#63b8ff" stroke="#63b8ff" points="1006.27,-154.85 1015.78,-150.18 1005.43,-147.9 1006.27,-154.85"/>
</a>
</g>
</g>
<!-- Node9 -->
<g id="Node000009" class="node">
<title>Node9</title>
<g id="a_Node000009"><a xlink:href="$class_interpretor.html#a61ecb8df4ca776f58573955153f1b842" xlink:title=" ">
<polygon fill="white" stroke="#666666" points="1312.62,-180 1192.38,-180 1192.38,-160 1312.62,-160 1312.62,-180"/>
<text text-anchor="middle" x="1252.5" y="-166.5" font-family="Helvetica,sans-Serif" font-size="10.00">Interpretor::copyActivity</text>
</a>
</g>
</g>
<!-- Node8&#45;&gt;Node9 -->
<g id="edge40_Node000008_Node000009" class="edge">
<title>Node8&#45;&gt;Node9</title>
<g id="a_edge40_Node000008_Node000009"><a xlink:title=" ">
<path fill="none" stroke="#63b8ff" d="M1147.39,-152.43C1158.19,-154.25 1169.51,-156.16 1180.53,-158.02"/>
<polygon fill="#63b8ff" stroke="#63b8ff" points="1179.95,-161.47 1190.39,-159.69 1181.12,-154.57 1179.95,-161.47"/>
</a>
</g>
</g>
<!-- Node12 -->
<g id="Node000012" class="node">
<title>Node12</title>
<g id="a_Node000012"><a xlink:href="$class_interpretor.html#aa49f073000719629567f5563fc487836" xlink:title=" ">
<polygon fill="white" stroke="#666666" points="1317.5,-133 1187.5,-133 1187.5,-113 1317.5,-113 1317.5,-133"/>
<text text-anchor="middle" x="1252.5" y="-119.5" font-family="Helvetica,sans-Serif" font-size="10.00">Interpretor::createMainTag</text>
</a>
</g>
</g>
<!-- Node8&#45;&gt;Node12 -->
<g id="edge43_Node000008_Node000012" class="edge">
<title>Node8&#45;&gt;Node12</title>
<g id="a_edge43_Node000008_Node000012"><a xlink:title=" ">
<path fill="none" stroke="#63b8ff" d="M1151.66,-134.44C1159.58,-133.53 1167.72,-132.6 1175.76,-131.68"/>
<polygon fill="#63b8ff" stroke="#63b8ff" points="1176,-135.17 1185.54,-130.56 1175.21,-128.22 1176,-135.17"/>
</a>
</g>
</g>
<!-- Node10 -->
<g id="Node000010" class="node">
<title>Node10</title>
<g id="a_Node000010"><a xlink:href="$_text_manager_8cpp.html#add36cc54cd9616a393a17b8961491477" xlink:title=" ">
<polygon fill="white" stroke="#666666" points="1449.38,-208 1369.62,-208 1369.62,-188 1449.38,-188 1449.38,-208"/>
<text text-anchor="middle" x="1409.5" y="-194.5" font-family="Helvetica,sans-Serif" font-size="10.00">getFileContent</text>
</a>
</g>
</g>
<!-- Node9&#45;&gt;Node10 -->
<g id="edge41_Node000009_Node000010" class="edge">
<title>Node9&#45;&gt;Node10</title>
<g id="a_edge41_Node000009_Node000010"><a xlink:title=" ">
<path fill="none" stroke="#63b8ff" d="M1311.22,-180.43C1326.72,-183.23 1343.35,-186.23 1358.4,-188.95"/>
<polygon fill="#63b8ff" stroke="#63b8ff" points="1357.6,-192.36 1368.07,-190.7 1358.85,-185.47 1357.6,-192.36"/>
</a>
</g>
</g>
<!-- Node11 -->
<g id="Node000011" class="node">
<title>Node11</title>
<g id="a_Node000011"><a xlink:href="$_text_manager_8cpp.html#a5e4308ca14d1f4cfc2456fc26b1361a8" xlink:title=" ">
<polygon fill="white" stroke="#666666" points="1593.25,-228 1512,-228 1512,-208 1593.25,-208 1593.25,-228"/>
<text text-anchor="middle" x="1552.62" y="-214.5" font-family="Helvetica,sans-Serif" font-size="10.00">getIfstreamFile</text>
</a>
</g>
</g>
<!-- Node10&#45;&gt;Node11 -->
<g id="edge42_Node000010_Node000011" class="edge">
<title>Node10&#45;&gt;Node11</title>
<g id="a_edge42_Node000010_Node000011"><a xlink:title=" ">
<path fill="none" stroke="#63b8ff" d="M1449.81,-203.57C1465.45,-205.79 1483.66,-208.37 1500.31,-210.73"/>
<polygon fill="#63b8ff" stroke="#63b8ff" points="1499.65,-214.17 1510.05,-212.11 1500.64,-207.24 1499.65,-214.17"/>
</a>
</g>
</g>
<!-- Node13 -->
<g id="Node000013" class="node">
<title>Node13</title>
<g id="a_Node000013"><a xlink:href="$class_lexer.html#ab0ca8b5adc1af3cdec4855fba11491c1" xlink:title=" ">
<polygon fill="white" stroke="#666666" points="1463.25,-133 1355.75,-133 1355.75,-113 1463.25,-113 1463.25,-133"/>
<text text-anchor="middle" x="1409.5" y="-119.5" font-family="Helvetica,sans-Serif" font-size="10.00">Lexer::extractTokens</text>
</a>
</g>
</g>
<!-- Node12&#45;&gt;Node13 -->
<g id="edge44_Node000012_Node000013" class="edge">
<title>Node12&#45;&gt;Node13</title>
<g id="a_edge44_Node000012_Node000013"><a xlink:title=" ">
<path fill="none" stroke="#63b8ff" d="M1317.89,-123C1326.56,-123 1335.46,-123 1344.14,-123"/>
<polygon fill="#63b8ff" stroke="#63b8ff" points="1343.86,-126.5 1353.86,-123 1343.86,-119.5 1343.86,-126.5"/>
</a>
</g>
</g>
<!-- Node31 -->
<g id="Node000031" class="node">
<title>Node31</title>
<g id="a_Node000031"><a xlink:href="$class_lexer.html#a5a008a99eb5bc34590b62a99ea9065c3" xlink:title=" ">
<polygon fill="white" stroke="#666666" points="1465.5,-95 1353.5,-95 1353.5,-75 1465.5,-75 1465.5,-95"/>
<text text-anchor="middle" x="1409.5" y="-81.5" font-family="Helvetica,sans-Serif" font-size="10.00">Lexer::showAllTokens</text>
</a>
</g>
</g>
<!-- Node12&#45;&gt;Node31 -->
<g id="edge58_Node000012_Node000031" class="edge">
<title>Node12&#45;&gt;Node31</title>
<g id="a_edge58_Node000012_Node000031"><a xlink:title=" ">
<path fill="none" stroke="#63b8ff" d="M1296.26,-112.52C1314.39,-108.07 1335.72,-102.84 1354.88,-98.15"/>
<polygon fill="#63b8ff" stroke="#63b8ff" points="1355.53,-101.59 1364.4,-95.81 1353.86,-94.79 1355.53,-101.59"/>
</a>
</g>
</g>
<!-- Node13&#45;&gt;Node13 -->
<g id="edge45_Node000013_Node000013" class="edge">
<title>Node13&#45;&gt;Node13</title>
<g id="a_edge45_Node000013_Node000013"><a xlink:title=" ">
<path fill="none" stroke="#63b8ff" d="M1386.76,-133.34C1377.04,-141.98 1384.62,-151 1409.5,-151 1423.11,-151 1431.54,-148.3 1434.8,-144.44"/>
<polygon fill="#63b8ff" stroke="#63b8ff" points="1438.23,-143.77 1432.58,-134.81 1431.41,-145.34 1438.23,-143.77"/>
</a>
</g>
</g>
<!-- Node14 -->
<g id="Node000014" class="node">
<title>Node14</title>
<g id="a_Node000014"><a xlink:href="$_interpretor_8cpp.html#aeadcc798628a739f30945ade9bf7c9a1" xlink:title=" ">
<polygon fill="white" stroke="#666666" points="1603.75,-152 1501.5,-152 1501.5,-132 1603.75,-132 1603.75,-152"/>
<text text-anchor="middle" x="1552.62" y="-138.5" font-family="Helvetica,sans-Serif" font-size="10.00">getNextTokenString</text>
</a>
</g>
</g>
<!-- Node13&#45;&gt;Node14 -->
<g id="edge46_Node000013_Node000014" class="edge">
<title>Node13&#45;&gt;Node14</title>
<g id="a_edge46_Node000013_Node000014"><a xlink:title=" ">
<path fill="none" stroke="#63b8ff" d="M1463.45,-130.13C1472.04,-131.29 1481.01,-132.49 1489.79,-133.67"/>
<polygon fill="#63b8ff" stroke="#63b8ff" points="1489.3,-137.14 1499.68,-135.01 1490.24,-130.2 1489.3,-137.14"/>
</a>
</g>
</g>
<!-- Node18 -->
<g id="Node000018" class="node">
<title>Node18</title>
<g id="a_Node000018"><a xlink:href="$_interpretor_8cpp.html#ac4b7c24de418895778c317466f485ce5" xlink:title=" ">
<polygon fill="white" stroke="#666666" points="1603.38,-114 1501.88,-114 1501.88,-94 1603.38,-94 1603.38,-114"/>
<text text-anchor="middle" x="1552.62" y="-100.5" font-family="Helvetica,sans-Serif" font-size="10.00">getPastTokenString</text>
</a>
</g>
</g>
<!-- Node13&#45;&gt;Node18 -->
<g id="edge49_Node000013_Node000018" class="edge">
<title>Node13&#45;&gt;Node18</title>
<g id="a_edge49_Node000013_Node000018"><a xlink:title=" ">
<path fill="none" stroke="#63b8ff" d="M1463.45,-115.87C1472.25,-114.69 1481.44,-113.45 1490.42,-112.24"/>
<polygon fill="#63b8ff" stroke="#63b8ff" points="1490.7,-115.73 1500.15,-110.93 1489.77,-108.8 1490.7,-115.73"/>
</a>
</g>
</g>
<!-- Node20 -->
<g id="Node000020" class="node">
<title>Node20</title>
<g id="a_Node000020"><a xlink:href="$_interpretor_8cpp.html#a426cbd25cc7742ac6cface09364031ba" xlink:title=" ">
<polygon fill="white" stroke="#666666" points="1593.25,-190 1512,-190 1512,-170 1593.25,-170 1593.25,-190"/>
<text text-anchor="middle" x="1552.62" y="-176.5" font-family="Helvetica,sans-Serif" font-size="10.00">getStringLiteral</text>
</a>
</g>
</g>
<!-- Node13&#45;&gt;Node20 -->
<g id="edge52_Node000013_Node000020" class="edge">
<title>Node13&#45;&gt;Node20</title>
<g id="a_edge52_Node000013_Node000020"><a xlink:title=" ">
<path fill="none" stroke="#63b8ff" d="M1434.74,-133.38C1453.03,-141.15 1478.75,-151.94 1501.5,-161 1505.16,-162.46 1508.97,-163.95 1512.79,-165.43"/>
<polygon fill="#63b8ff" stroke="#63b8ff" points="1511.46,-168.66 1522.05,-168.97 1513.96,-162.13 1511.46,-168.66"/>
</a>
</g>
</g>
<!-- Node21 -->
<g id="Node000021" class="node">
<title>Node21</title>
<g id="a_Node000021"><a xlink:href="$_interpretor_8cpp.html#a7e41e92472c2a2c1aafa174217d4734f" xlink:title=" ">
<polygon fill="white" stroke="#666666" points="1580.5,-58 1524.75,-58 1524.75,-38 1580.5,-38 1580.5,-58"/>
<text text-anchor="middle" x="1552.62" y="-44.5" font-family="Helvetica,sans-Serif" font-size="10.00">getToken</text>
</a>
</g>
</g>
<!-- Node13&#45;&gt;Node21 -->
<g id="edge54_Node000013_Node000021" class="edge">
<title>Node13&#45;&gt;Node21</title>
<g id="a_edge54_Node000013_Node000021"><a xlink:title=" ">
<path fill="none" stroke="#63b8ff" d="M1445.06,-112.51C1451.96,-110.01 1459.06,-107.15 1465.5,-104 1488.14,-92.94 1512.02,-77.03 1528.88,-64.99"/>
<polygon fill="#63b8ff" stroke="#63b8ff" points="1530.67,-68.02 1536.7,-59.31 1526.56,-62.35 1530.67,-68.02"/>
</a>
</g>
</g>
<!-- Node30 -->
<g id="Node000030" class="node">
<title>Node30</title>
<g id="a_Node000030"><a xlink:href="$_interpretor_8cpp.html#aa6913b7fe272fe20684f1c5c701d54d7" xlink:title=" ">
<polygon fill="white" stroke="#666666" points="1583.5,-20 1521.75,-20 1521.75,0 1583.5,0 1583.5,-20"/>
<text text-anchor="middle" x="1552.62" y="-6.5" font-family="Helvetica,sans-Serif" font-size="10.00">skipSpace</text>
</a>
</g>
</g>
<!-- Node13&#45;&gt;Node30 -->
<g id="edge57_Node000013_Node000030" class="edge">
<title>Node13&#45;&gt;Node30</title>
<g id="a_edge57_Node000013_Node000030"><a xlink:title=" ">
<path fill="none" stroke="#63b8ff" d="M1452.42,-112.56C1457.16,-110.24 1461.65,-107.43 1465.5,-104 1493.1,-79.4 1474.27,-54.01 1501.5,-29 1504.4,-26.34 1507.71,-24.04 1511.21,-22.05"/>
<polygon fill="#63b8ff" stroke="#63b8ff" points="1512.5,-25.32 1520.05,-17.89 1509.52,-18.98 1512.5,-25.32"/>
</a>
</g>
</g>
<!-- Node15 -->
<g id="Node000015" class="node">
<title>Node15</title>
<g id="a_Node000015"><a xlink:href="$_text_manager_8cpp.html#a377407ab4c28873a8e1956ea343f9cc2" xlink:title=" ">
<polygon fill="#fff0f0" stroke="red" points="1750.25,-190 1657.75,-190 1657.75,-170 1750.25,-170 1750.25,-190"/>
<text text-anchor="middle" x="1704" y="-176.5" font-family="Helvetica,sans-Serif" font-size="10.00">getContentBefore</text>
</a>
</g>
</g>
<!-- Node14&#45;&gt;Node15 -->
<g id="edge47_Node000014_Node000015" class="edge">
<title>Node14&#45;&gt;Node15</title>
<g id="a_edge47_Node000014_Node000015"><a xlink:title=" ">
<path fill="none" stroke="#63b8ff" d="M1594.84,-152.48C1612.14,-156.89 1632.47,-162.06 1650.81,-166.72"/>
<polygon fill="#63b8ff" stroke="#63b8ff" points="1649.9,-170.1 1660.45,-169.18 1651.63,-163.32 1649.9,-170.1"/>
</a>
</g>
</g>
<!-- Node17 -->
<g id="Node000017" class="node">
<title>Node17</title>
<g id="a_Node000017"><a xlink:href="$_interpretor_8cpp.html#a44cd9137229f6cc0f965ce359f482379" xlink:title=" ">
<polygon fill="white" stroke="#666666" points="1768.25,-152 1639.75,-152 1639.75,-132 1768.25,-132 1768.25,-152"/>
<text text-anchor="middle" x="1704" y="-138.5" font-family="Helvetica,sans-Serif" font-size="10.00">getNextPunctuationToken</text>
</a>
</g>
</g>
<!-- Node14&#45;&gt;Node17 -->
<g id="edge48_Node000014_Node000017" class="edge">
<title>Node14&#45;&gt;Node17</title>
<g id="a_edge48_Node000014_Node000017"><a xlink:title=" ">
<path fill="none" stroke="#63b8ff" d="M1604.2,-142C1611.91,-142 1620,-142 1628.09,-142"/>
<polygon fill="#63b8ff" stroke="#63b8ff" points="1627.99,-145.5 1637.99,-142 1627.99,-138.5 1627.99,-145.5"/>
</a>
</g>
</g>
<!-- Node19 -->
<g id="Node000019" class="node">
<title>Node19</title>
<g id="a_Node000019"><a xlink:href="$_text_manager_8cpp.html#a6a1f72a80ddaec746c95996b16e3a1dc" xlink:title=" ">
<polygon fill="#fff0f0" stroke="red" points="1746.5,-96 1661.5,-96 1661.5,-76 1746.5,-76 1746.5,-96"/>
<text text-anchor="middle" x="1704" y="-82.5" font-family="Helvetica,sans-Serif" font-size="10.00">getContentAfter</text>
</a>
</g>
</g>
<!-- Node18&#45;&gt;Node19 -->
<g id="edge50_Node000018_Node000019" class="edge">
<title>Node18&#45;&gt;Node19</title>
<g id="a_edge50_Node000018_Node000019"><a xlink:title=" ">
<path fill="none" stroke="#63b8ff" d="M1603.78,-97.96C1618.64,-96.17 1634.96,-94.2 1649.99,-92.39"/>
<polygon fill="#63b8ff" stroke="#63b8ff" points="1650.18,-95.89 1659.69,-91.22 1649.34,-88.94 1650.18,-95.89"/>
</a>
</g>
</g>
<!-- Node19&#45;&gt;Node19 -->
<g id="edge51_Node000019_Node000019" class="edge">
<title>Node19&#45;&gt;Node19</title>
<g id="a_edge51_Node000019_Node000019"><a xlink:title=" ">
<path fill="none" stroke="#63b8ff" d="M1679.95,-96.34C1669.67,-104.98 1677.69,-114 1704,-114 1718.39,-114 1727.31,-111.3 1730.75,-107.44"/>
<polygon fill="#63b8ff" stroke="#63b8ff" points="1734.18,-106.7 1728.41,-97.81 1727.37,-108.35 1734.18,-106.7"/>
</a>
</g>
</g>
<!-- Node20&#45;&gt;Node15 -->
<g id="edge53_Node000020_Node000015" class="edge">
<title>Node20&#45;&gt;Node15</title>
<g id="a_edge53_Node000020_Node000015"><a xlink:title=" ">
<path fill="none" stroke="#63b8ff" d="M1593.65,-180C1609.75,-180 1628.6,-180 1646.07,-180"/>
<polygon fill="#63b8ff" stroke="#63b8ff" points="1645.8,-183.5 1655.8,-180 1645.8,-176.5 1645.8,-183.5"/>
</a>
</g>
</g>
<!-- Node21&#45;&gt;Node21 -->
<g id="edge55_Node000021_Node000021" class="edge">
<title>Node21&#45;&gt;Node21</title>
<g id="a_edge55_Node000021_Node000021"><a xlink:title=" ">
<path fill="none" stroke="#63b8ff" d="M1529.88,-58.34C1520.17,-66.98 1527.75,-76 1552.62,-76 1566.23,-76 1574.66,-73.3 1577.92,-69.44"/>
<polygon fill="#63b8ff" stroke="#63b8ff" points="1581.36,-68.77 1575.71,-59.81 1574.54,-70.34 1581.36,-68.77"/>
</a>
</g>
</g>
<!-- Node22 -->
<g id="Node000022" class="node">
<title>Node22</title>
<g id="a_Node000022"><a xlink:href="$_interpretor_8cpp.html#a0060c66efc18253619637b287095821c" xlink:title=" ">
<polygon fill="#fff0f0" stroke="red" points="1743.88,-58 1664.12,-58 1664.12,-38 1743.88,-38 1743.88,-58"/>
<text text-anchor="middle" x="1704" y="-44.5" font-family="Helvetica,sans-Serif" font-size="10.00">getTokenValue</text>
</a>
</g>
</g>
<!-- Node21&#45;&gt;Node22 -->
<g id="edge56_Node000021_Node000022" class="edge">
<title>Node21&#45;&gt;Node22</title>
<g id="a_edge56_Node000021_Node000022"><a xlink:title=" ">
<path fill="none" stroke="#63b8ff" d="M1580.68,-48C1600.62,-48 1628.33,-48 1652.34,-48"/>
<polygon fill="#63b8ff" stroke="#63b8ff" points="1652.27,-51.5 1662.27,-48 1652.27,-44.5 1652.27,-51.5"/>
</a>
</g>
</g>
<!-- Node34 -->
<g id="Node000034" class="node">
<title>Node34</title>
<g id="a_Node000034"><a xlink:href="$class_my_frame.html#a925c0f3521d20358ed4838fc95f8826f" xlink:title=" ">
<polygon fill="white" stroke="#666666" points="656.88,-95 514.88,-95 514.88,-75 656.88,-75 656.88,-95"/>
<text text-anchor="middle" x="585.88" y="-81.5" font-family="Helvetica,sans-Serif" font-size="10.00">MyFrame::closeDetailsPanel</text>
</a>
</g>
</g>
<!-- Node33&#45;&gt;Node34 -->
<g id="edge61_Node000033_Node000034" class="edge">
<title>Node33&#45;&gt;Node34</title>
<g id="a_edge61_Node000033_Node000034"><a xlink:title=" ">
<path fill="none" stroke="#63b8ff" d="M475.89,-85C484.87,-85 494.09,-85 503.18,-85"/>
<polygon fill="#63b8ff" stroke="#63b8ff" points="503.08,-88.5 513.08,-85 503.08,-81.5 503.08,-88.5"/>
</a>
</g>
</g>
<!-- Node37 -->
<g id="Node000037" class="node">
<title>Node37</title>
<g id="a_Node000037"><a xlink:href="$class_my_frame.html#aa9b1a6e75f7ee9f3c6afd860f370a495" xlink:title=" ">
<polygon fill="white" stroke="#666666" points="475.12,-38 327.88,-38 327.88,-18 475.12,-18 475.12,-38"/>
<text text-anchor="middle" x="401.5" y="-24.5" font-family="Helvetica,sans-Serif" font-size="10.00">MyFrame::BindChoiceButtons</text>
</a>
</g>
</g>
<!-- Node36&#45;&gt;Node37 -->
<g id="edge64_Node000036_Node000037" class="edge">
<title>Node36&#45;&gt;Node37</title>
<g id="a_edge64_Node000036_Node000037"><a xlink:title=" ">
<path fill="none" stroke="#63b8ff" d="M284.11,-28C294.41,-28 305.32,-28 316.18,-28"/>
<polygon fill="#63b8ff" stroke="#63b8ff" points="315.92,-31.5 325.92,-28 315.92,-24.5 315.92,-31.5"/>
</a>
</g>
</g>
</g>
</svg>
