<?xml version="1.0" encoding="UTF-8" standalone="no"?>
<!DOCTYPE svg PUBLIC "-//W3C//DTD SVG 1.1//EN"
 "http://www.w3.org/Graphics/SVG/1.1/DTD/svg11.dtd">
<!-- Generated by graphviz version 12.2.0 (20241103.1931)
 -->
<!-- Title: ElifTag::ElifTag Pages: 1 -->
<svg width="221pt" height="66pt"
 viewBox="0.00 0.00 220.75 66.00" xmlns="http://www.w3.org/2000/svg" xmlns:xlink="http://www.w3.org/1999/xlink">
<g id="graph0" class="graph" transform="scale(1 1) rotate(0) translate(4 62)">
<title>ElifTag::ElifTag</title>
<!-- Node1 -->
<g id="Node000001" class="node">
<title>Node1</title>
<g id="a_Node000001"><a xlink:title=" ">
<polygon fill="#999999" stroke="#666666" points="82,-39 0,-39 0,-19 82,-19 82,-39"/>
<text text-anchor="middle" x="41" y="-25.5" font-family="Helvetica,sans-Serif" font-size="10.00">ElifTag::ElifTag</text>
</a>
</g>
</g>
<!-- Node2 -->
<g id="Node000002" class="node">
<title>Node2</title>
<g id="a_Node000002"><a xlink:href="$class_elif_tag.html#a544c055c7b30fe1849b24230e41ff320" xlink:title=" ">
<polygon fill="white" stroke="#666666" points="203,-58 127.75,-58 127.75,-38 203,-38 203,-58"/>
<text text-anchor="middle" x="165.38" y="-44.5" font-family="Helvetica,sans-Serif" font-size="10.00">ElifTag::clone</text>
</a>
</g>
</g>
<!-- Node1&#45;&gt;Node2 -->
<g id="edge3_Node000001_Node000002" class="edge">
<title>Node1&#45;&gt;Node2</title>
<g id="a_edge3_Node000001_Node000002"><a xlink:title=" ">
<path fill="none" stroke="#63b8ff" d="M82.41,-35.27C93.16,-36.94 104.87,-38.76 116,-40.49"/>
<polygon fill="#63b8ff" stroke="#63b8ff" points="115.4,-43.94 125.82,-42.01 116.48,-37.02 115.4,-43.94"/>
</a>
</g>
</g>
<!-- Node3 -->
<g id="Node000003" class="node">
<title>Node3</title>
<g id="a_Node000003"><a xlink:href="$class_flow_tag.html#a18d358b77d9233f31db5344531180e18" xlink:title=" ">
<polygon fill="white" stroke="#666666" points="212.75,-20 118,-20 118,0 212.75,0 212.75,-20"/>
<text text-anchor="middle" x="165.38" y="-6.5" font-family="Helvetica,sans-Serif" font-size="10.00">FlowTag::linkTags</text>
</a>
</g>
</g>
<!-- Node1&#45;&gt;Node3 -->
<g id="edge4_Node000001_Node000003" class="edge">
<title>Node1&#45;&gt;Node3</title>
<g id="a_edge4_Node000001_Node000003"><a xlink:title=" ">
<path fill="none" stroke="#63b8ff" d="M82.41,-22.73C90.08,-21.54 98.23,-20.27 106.32,-19.01"/>
<polygon fill="#63b8ff" stroke="#63b8ff" points="106.8,-22.48 116.15,-17.49 105.73,-15.56 106.8,-22.48"/>
</a>
</g>
</g>
</g>
</svg>
