<?xml version="1.0" encoding="UTF-8" standalone="no"?>
<!DOCTYPE svg PUBLIC "-//W3C//DTD SVG 1.1//EN"
 "http://www.w3.org/Graphics/SVG/1.1/DTD/svg11.dtd">
<!-- Generated by graphviz version 12.2.0 (20241103.1931)
 -->
<!-- Title: PKToken::addInteger Pages: 1 -->
<svg width="560pt" height="104pt"
 viewBox="0.00 0.00 560.25 104.00" xmlns="http://www.w3.org/2000/svg" xmlns:xlink="http://www.w3.org/1999/xlink">
<g id="graph0" class="graph" transform="scale(1 1) rotate(0) translate(4 100)">
<title>PKToken::addInteger</title>
<!-- Node1 -->
<g id="Node000001" class="node">
<title>Node1</title>
<g id="a_Node000001"><a xlink:title=" ">
<polygon fill="#999999" stroke="#666666" points="107.5,-58 0,-58 0,-38 107.5,-38 107.5,-58"/>
<text text-anchor="middle" x="53.75" y="-44.5" font-family="Helvetica,sans-Serif" font-size="10.00">PKToken::addInteger</text>
</a>
</g>
</g>
<!-- Node2 -->
<g id="Node000002" class="node">
<title>Node2</title>
<g id="a_Node000002"><a xlink:href="$class_p_k_token.html#ae8d5672d16cc994d3d0d3f73e240cec4" xlink:title=" ">
<polygon fill="white" stroke="#666666" points="242,-58 143.5,-58 143.5,-38 242,-38 242,-58"/>
<text text-anchor="middle" x="192.75" y="-44.5" font-family="Helvetica,sans-Serif" font-size="10.00">PKToken::addType</text>
</a>
</g>
</g>
<!-- Node1&#45;&gt;Node2 -->
<g id="edge6_Node000001_Node000002" class="edge">
<title>Node1&#45;&gt;Node2</title>
<g id="a_edge6_Node000001_Node000002"><a xlink:title=" ">
<path fill="none" stroke="#63b8ff" d="M107.72,-48C115.7,-48 123.98,-48 132.1,-48"/>
<polygon fill="#63b8ff" stroke="#63b8ff" points="131.89,-51.5 141.89,-48 131.89,-44.5 131.89,-51.5"/>
</a>
</g>
</g>
<!-- Node3 -->
<g id="Node000003" class="node">
<title>Node3</title>
<g id="a_Node000003"><a xlink:href="$class_token.html#ade47ed51e2f495f6d847c1bff9fe8db6" xlink:title=" ">
<polygon fill="white" stroke="#666666" points="382.88,-96 297.88,-96 297.88,-76 382.88,-76 382.88,-96"/>
<text text-anchor="middle" x="340.38" y="-82.5" font-family="Helvetica,sans-Serif" font-size="10.00">Token::addError</text>
</a>
</g>
</g>
<!-- Node2&#45;&gt;Node3 -->
<g id="edge7_Node000002_Node000003" class="edge">
<title>Node2&#45;&gt;Node3</title>
<g id="a_edge7_Node000002_Node000003"><a xlink:title=" ">
<path fill="none" stroke="#63b8ff" d="M233.93,-58.48C250.72,-62.87 270.43,-68.01 288.24,-72.66"/>
<polygon fill="#63b8ff" stroke="#63b8ff" points="287.3,-76.03 297.86,-75.17 289.07,-69.26 287.3,-76.03"/>
</a>
</g>
</g>
<!-- Node5 -->
<g id="Node000005" class="node">
<title>Node5</title>
<g id="a_Node000005"><a xlink:href="$class_iterator_list.html#a4acf162e4a194bddd3c2fe26b073f45a" xlink:title=" ">
<polygon fill="white" stroke="#666666" points="402.75,-58 278,-58 278,-38 402.75,-38 402.75,-58"/>
<text text-anchor="middle" x="340.38" y="-44.5" font-family="Helvetica,sans-Serif" font-size="10.00">IteratorList::currentToken</text>
</a>
</g>
</g>
<!-- Node2&#45;&gt;Node5 -->
<g id="edge9_Node000002_Node000005" class="edge">
<title>Node2&#45;&gt;Node5</title>
<g id="a_edge9_Node000002_Node000005"><a xlink:title=" ">
<path fill="none" stroke="#63b8ff" d="M242.24,-48C249.95,-48 258.06,-48 266.18,-48"/>
<polygon fill="#63b8ff" stroke="#63b8ff" points="266.11,-51.5 276.11,-48 266.11,-44.5 266.11,-51.5"/>
</a>
</g>
</g>
<!-- Node6 -->
<g id="Node000006" class="node">
<title>Node6</title>
<g id="a_Node000006"><a xlink:href="$class_iterator_list.html#a2ebc1118094754b7d333b0a9d257d12b" xlink:title=" ">
<polygon fill="white" stroke="#666666" points="387.75,-20 293,-20 293,0 387.75,0 387.75,-20"/>
<text text-anchor="middle" x="340.38" y="-6.5" font-family="Helvetica,sans-Serif" font-size="10.00">IteratorList::ended</text>
</a>
</g>
</g>
<!-- Node2&#45;&gt;Node6 -->
<g id="edge10_Node000002_Node000006" class="edge">
<title>Node2&#45;&gt;Node6</title>
<g id="a_edge10_Node000002_Node000006"><a xlink:title=" ">
<path fill="none" stroke="#63b8ff" d="M233.93,-37.52C250.72,-33.13 270.43,-27.99 288.24,-23.34"/>
<polygon fill="#63b8ff" stroke="#63b8ff" points="289.07,-26.74 297.86,-20.83 287.3,-19.97 289.07,-26.74"/>
</a>
</g>
</g>
<!-- Node4 -->
<g id="Node000004" class="node">
<title>Node4</title>
<g id="a_Node000004"><a xlink:href="$class_token_result.html#af997915a62dcb5643b9d61b78a22c9f4" xlink:title=" ">
<polygon fill="white" stroke="#666666" points="552.25,-96 438.75,-96 438.75,-76 552.25,-76 552.25,-96"/>
<text text-anchor="middle" x="495.5" y="-82.5" font-family="Helvetica,sans-Serif" font-size="10.00">TokenResult::addError</text>
</a>
</g>
</g>
<!-- Node3&#45;&gt;Node4 -->
<g id="edge8_Node000003_Node000004" class="edge">
<title>Node3&#45;&gt;Node4</title>
<g id="a_edge8_Node000003_Node000004"><a xlink:title=" ">
<path fill="none" stroke="#63b8ff" d="M383.22,-86C396.77,-86 412.15,-86 427.07,-86"/>
<polygon fill="#63b8ff" stroke="#63b8ff" points="426.84,-89.5 436.84,-86 426.84,-82.5 426.84,-89.5"/>
</a>
</g>
</g>
</g>
</svg>
