<?xml version="1.0" encoding="UTF-8" standalone="no"?>
<!DOCTYPE svg PUBLIC "-//W3C//DTD SVG 1.1//EN"
 "http://www.w3.org/Graphics/SVG/1.1/DTD/svg11.dtd">
<!-- Generated by graphviz version 12.2.0 (20241103.1931)
 -->
<!-- Title: Interactions::fcpopupA Pages: 1 -->
<svg width="495pt" height="142pt"
 viewBox="0.00 0.00 495.00 142.00" xmlns="http://www.w3.org/2000/svg" xmlns:xlink="http://www.w3.org/1999/xlink">
<g id="graph0" class="graph" transform="scale(1 1) rotate(0) translate(4 138)">
<title>Interactions::fcpopupA</title>
<!-- Node1 -->
<g id="Node000001" class="node">
<title>Node1</title>
<g id="a_Node000001"><a xlink:title=" ">
<polygon fill="#999999" stroke="#666666" points="114.25,-77 0,-77 0,-57 114.25,-57 114.25,-77"/>
<text text-anchor="middle" x="57.12" y="-63.5" font-family="Helvetica,sans-Serif" font-size="10.00">Interactions::fcpopupA</text>
</a>
</g>
</g>
<!-- Node2 -->
<g id="Node000002" class="node">
<title>Node2</title>
<g id="a_Node000002"><a xlink:href="$class_interactions.html#aae6172962092f278714536142e987cde" xlink:title=" ">
<polygon fill="white" stroke="#666666" points="243.5,-115 150.25,-115 150.25,-95 243.5,-95 243.5,-115"/>
<text text-anchor="middle" x="196.88" y="-101.5" font-family="Helvetica,sans-Serif" font-size="10.00">Interactions::click</text>
</a>
</g>
</g>
<!-- Node1&#45;&gt;Node2 -->
<g id="edge10_Node000001_Node000002" class="edge">
<title>Node1&#45;&gt;Node2</title>
<g id="a_edge10_Node000001_Node000002"><a xlink:title=" ">
<path fill="none" stroke="#63b8ff" d="M96.13,-77.48C111.94,-81.85 130.48,-86.96 147.27,-91.59"/>
<polygon fill="#63b8ff" stroke="#63b8ff" points="145.96,-94.86 156.53,-94.15 147.83,-88.11 145.96,-94.86"/>
</a>
</g>
</g>
<!-- Node3 -->
<g id="Node000003" class="node">
<title>Node3</title>
<g id="a_Node000003"><a xlink:href="$fopencv_8cpp.html#a69713584f69a121e4ed91918a64448a0" xlink:title=" ">
<polygon fill="white" stroke="#666666" points="237.12,-77 156.62,-77 156.62,-57 237.12,-57 237.12,-77"/>
<text text-anchor="middle" x="196.88" y="-63.5" font-family="Helvetica,sans-Serif" font-size="10.00">cvmtfTemplate</text>
</a>
</g>
</g>
<!-- Node1&#45;&gt;Node3 -->
<g id="edge12_Node000001_Node000003" class="edge">
<title>Node1&#45;&gt;Node3</title>
<g id="a_edge12_Node000001_Node000003"><a xlink:title=" ">
<path fill="none" stroke="#63b8ff" d="M114.55,-67C124.59,-67 135,-67 144.87,-67"/>
<polygon fill="#63b8ff" stroke="#63b8ff" points="144.66,-70.5 154.66,-67 144.66,-63.5 144.66,-70.5"/>
</a>
</g>
</g>
<!-- Node9 -->
<g id="Node000009" class="node">
<title>Node9</title>
<g id="a_Node000009"><a xlink:href="$class_interactions.html#abd5b5d8a44970e1333e3611e302f166c" xlink:title=" ">
<polygon fill="white" stroke="#666666" points="242.38,-39 151.38,-39 151.38,-19 242.38,-19 242.38,-39"/>
<text text-anchor="middle" x="196.88" y="-25.5" font-family="Helvetica,sans-Serif" font-size="10.00">Interactions::wait</text>
</a>
</g>
</g>
<!-- Node1&#45;&gt;Node9 -->
<g id="edge18_Node000001_Node000009" class="edge">
<title>Node1&#45;&gt;Node9</title>
<g id="a_edge18_Node000001_Node000009"><a xlink:title=" ">
<path fill="none" stroke="#63b8ff" d="M96.13,-56.52C111.94,-52.15 130.48,-47.04 147.27,-42.41"/>
<polygon fill="#63b8ff" stroke="#63b8ff" points="147.83,-45.89 156.53,-39.85 145.96,-39.14 147.83,-45.89"/>
</a>
</g>
</g>
<!-- Node2&#45;&gt;Node2 -->
<g id="edge11_Node000002_Node000002" class="edge">
<title>Node2&#45;&gt;Node2</title>
<g id="a_edge11_Node000002_Node000002"><a xlink:title=" ">
<path fill="none" stroke="#63b8ff" d="M175.92,-115.34C166.97,-123.98 173.95,-133 196.88,-133 209.41,-133 217.18,-130.3 220.18,-126.44"/>
<polygon fill="#63b8ff" stroke="#63b8ff" points="223.64,-125.88 218.14,-116.82 216.79,-127.33 223.64,-125.88"/>
</a>
</g>
</g>
<!-- Node4 -->
<g id="Node000004" class="node">
<title>Node4</title>
<g id="a_Node000004"><a xlink:href="$fopencv_8cpp.html#af6fc77188d314c0d5a58888452f9b313" xlink:title=" ">
<polygon fill="white" stroke="#666666" points="362.62,-134 294.88,-134 294.88,-114 362.62,-114 362.62,-134"/>
<text text-anchor="middle" x="328.75" y="-120.5" font-family="Helvetica,sans-Serif" font-size="10.00">extractZone</text>
</a>
</g>
</g>
<!-- Node3&#45;&gt;Node4 -->
<g id="edge13_Node000003_Node000004" class="edge">
<title>Node3&#45;&gt;Node4</title>
<g id="a_edge13_Node000003_Node000004"><a xlink:title=" ">
<path fill="none" stroke="#63b8ff" d="M224.11,-77.45C230.51,-80.12 237.29,-83.08 243.5,-86 259.87,-93.71 263.06,-97.45 279.5,-105 282.63,-106.44 285.9,-107.87 289.21,-109.27"/>
<polygon fill="#63b8ff" stroke="#63b8ff" points="287.74,-112.45 298.32,-112.99 290.39,-105.97 287.74,-112.45"/>
</a>
</g>
</g>
<!-- Node5 -->
<g id="Node000005" class="node">
<title>Node5</title>
<g id="a_Node000005"><a xlink:href="$struct_zone.html#a5301e7fcf185a5a79c1bf7d7930f4b8a" xlink:title=" ">
<polygon fill="white" stroke="#666666" points="363,-96 294.5,-96 294.5,-76 363,-76 363,-96"/>
<text text-anchor="middle" x="328.75" y="-82.5" font-family="Helvetica,sans-Serif" font-size="10.00">Zone::isNull</text>
</a>
</g>
</g>
<!-- Node3&#45;&gt;Node5 -->
<g id="edge14_Node000003_Node000005" class="edge">
<title>Node3&#45;&gt;Node5</title>
<g id="a_edge14_Node000003_Node000005"><a xlink:title=" ">
<path fill="none" stroke="#63b8ff" d="M237.55,-72.8C251.79,-74.89 267.96,-77.25 282.63,-79.4"/>
<polygon fill="#63b8ff" stroke="#63b8ff" points="282.11,-82.86 292.52,-80.85 283.13,-75.93 282.11,-82.86"/>
</a>
</g>
</g>
<!-- Node7 -->
<g id="Node000007" class="node">
<title>Node7</title>
<g id="a_Node000007"><a xlink:href="$fopencv_8cpp.html#a1ed1ff1a9df2ab889e1423cb11a58c06" xlink:title=" ">
<polygon fill="white" stroke="#666666" points="370.12,-58 287.38,-58 287.38,-38 370.12,-38 370.12,-58"/>
<text text-anchor="middle" x="328.75" y="-44.5" font-family="Helvetica,sans-Serif" font-size="10.00">messageFound</text>
</a>
</g>
</g>
<!-- Node3&#45;&gt;Node7 -->
<g id="edge16_Node000003_Node000007" class="edge">
<title>Node3&#45;&gt;Node7</title>
<g id="a_edge16_Node000003_Node000007"><a xlink:title=" ">
<path fill="none" stroke="#63b8ff" d="M237.55,-61.2C249.66,-59.42 263.17,-57.45 275.97,-55.58"/>
<polygon fill="#63b8ff" stroke="#63b8ff" points="276.09,-59.1 285.48,-54.18 275.08,-52.17 276.09,-59.1"/>
</a>
</g>
</g>
<!-- Node8 -->
<g id="Node000008" class="node">
<title>Node8</title>
<g id="a_Node000008"><a xlink:href="$fopencv_8cpp.html#ae51fd1f3ed39bd8c9b8da4a313d5aeb3" xlink:title=" ">
<polygon fill="white" stroke="#666666" points="378,-20 279.5,-20 279.5,0 378,0 378,-20"/>
<text text-anchor="middle" x="328.75" y="-6.5" font-family="Helvetica,sans-Serif" font-size="10.00">oneMatchTemplate</text>
</a>
</g>
</g>
<!-- Node3&#45;&gt;Node8 -->
<g id="edge17_Node000003_Node000008" class="edge">
<title>Node3&#45;&gt;Node8</title>
<g id="a_edge17_Node000003_Node000008"><a xlink:title=" ">
<path fill="none" stroke="#63b8ff" d="M224.11,-56.55C230.51,-53.88 237.29,-50.92 243.5,-48 259.87,-40.29 263.06,-36.55 279.5,-29 282.63,-27.56 285.9,-26.13 289.21,-24.73"/>
<polygon fill="#63b8ff" stroke="#63b8ff" points="290.39,-28.03 298.32,-21.01 287.74,-21.55 290.39,-28.03"/>
</a>
</g>
</g>
<!-- Node6 -->
<g id="Node000006" class="node">
<title>Node6</title>
<g id="a_Node000006"><a xlink:href="$struct_coord.html#a34c573cd6230e5a532f12ae97e7395e2" xlink:title=" ">
<polygon fill="white" stroke="#666666" points="487,-96 414,-96 414,-76 487,-76 487,-96"/>
<text text-anchor="middle" x="450.5" y="-82.5" font-family="Helvetica,sans-Serif" font-size="10.00">Coord::isNull</text>
</a>
</g>
</g>
<!-- Node5&#45;&gt;Node6 -->
<g id="edge15_Node000005_Node000006" class="edge">
<title>Node5&#45;&gt;Node6</title>
<g id="a_edge15_Node000005_Node000006"><a xlink:title=" ">
<path fill="none" stroke="#63b8ff" d="M363.43,-86C375.52,-86 389.39,-86 402.41,-86"/>
<polygon fill="#63b8ff" stroke="#63b8ff" points="402.05,-89.5 412.05,-86 402.05,-82.5 402.05,-89.5"/>
</a>
</g>
</g>
</g>
</svg>
