<?xml version="1.0" encoding="UTF-8" standalone="no"?>
<!DOCTYPE svg PUBLIC "-//W3C//DTD SVG 1.1//EN"
 "http://www.w3.org/Graphics/SVG/1.1/DTD/svg11.dtd">
<!-- Generated by graphviz version 12.2.0 (20241103.1931)
 -->
<!-- Title: BotConfig::readSearchLdPlayer Pages: 1 -->
<svg width="1479pt" height="160pt"
 viewBox="0.00 0.00 1479.00 160.00" xmlns="http://www.w3.org/2000/svg" xmlns:xlink="http://www.w3.org/1999/xlink">
<g id="graph0" class="graph" transform="scale(1 1) rotate(0) translate(4 156)">
<title>BotConfig::readSearchLdPlayer</title>
<!-- Node1 -->
<g id="Node000001" class="node">
<title>Node1</title>
<g id="a_Node000001"><a xlink:title=" ">
<polygon fill="#999999" stroke="#666666" points="153.25,-74 0,-74 0,-54 153.25,-54 153.25,-74"/>
<text text-anchor="middle" x="76.62" y="-60.5" font-family="Helvetica,sans-Serif" font-size="10.00">BotConfig::readSearchLdPlayer</text>
</a>
</g>
</g>
<!-- Node2 -->
<g id="Node000002" class="node">
<title>Node2</title>
<g id="a_Node000002"><a xlink:href="$class_bot_config.html#a0c8b3da81dd5f06097ee696f2f466b67" xlink:title=" ">
<polygon fill="white" stroke="#666666" points="335,-96 189.25,-96 189.25,-76 335,-76 335,-96"/>
<text text-anchor="middle" x="262.12" y="-82.5" font-family="Helvetica,sans-Serif" font-size="10.00">BotConfig::readDataLDPlayer</text>
</a>
</g>
</g>
<!-- Node1&#45;&gt;Node2 -->
<g id="edge24_Node000001_Node000002" class="edge">
<title>Node1&#45;&gt;Node2</title>
<g id="a_edge24_Node000001_Node000002"><a xlink:title=" ">
<path fill="none" stroke="#63b8ff" d="M153.59,-73.11C161.49,-74.06 169.56,-75.02 177.55,-75.98"/>
<polygon fill="#63b8ff" stroke="#63b8ff" points="176.91,-79.43 187.26,-77.14 177.74,-72.48 176.91,-79.43"/>
</a>
</g>
</g>
<!-- Node15 -->
<g id="Node000015" class="node">
<title>Node15</title>
<g id="a_Node000015"><a xlink:href="$class_bot_config.html#a1ede9834fcb1b8dcedf47a367241d030" xlink:title=" ">
<polygon fill="white" stroke="#666666" points="326.38,-58 197.88,-58 197.88,-26 326.38,-26 326.38,-58"/>
<text text-anchor="start" x="205.88" y="-44.5" font-family="Helvetica,sans-Serif" font-size="10.00">BotConfig::verifyEmulator</text>
<text text-anchor="middle" x="262.12" y="-32.5" font-family="Helvetica,sans-Serif" font-size="10.00">Folder</text>
</a>
</g>
</g>
<!-- Node1&#45;&gt;Node15 -->
<g id="edge43_Node000001_Node000015" class="edge">
<title>Node1&#45;&gt;Node15</title>
<g id="a_edge43_Node000001_Node000015"><a xlink:title=" ">
<path fill="none" stroke="#63b8ff" d="M153.59,-54.89C164.42,-53.59 175.55,-52.26 186.36,-50.96"/>
<polygon fill="#63b8ff" stroke="#63b8ff" points="186.46,-54.48 195.97,-49.81 185.63,-47.53 186.46,-54.48"/>
</a>
</g>
</g>
<!-- Node3 -->
<g id="Node000003" class="node">
<title>Node3</title>
<g id="a_Node000003"><a xlink:href="$class_bot_config.html#a5aafe893fa75e1b711e3ef3f4e4db9cc" xlink:title=" ">
<polygon fill="white" stroke="#666666" points="505.5,-96 371,-96 371,-76 505.5,-76 505.5,-96"/>
<text text-anchor="middle" x="438.25" y="-82.5" font-family="Helvetica,sans-Serif" font-size="10.00">BotConfig::readBoolBotFile</text>
</a>
</g>
</g>
<!-- Node2&#45;&gt;Node3 -->
<g id="edge25_Node000002_Node000003" class="edge">
<title>Node2&#45;&gt;Node3</title>
<g id="a_edge25_Node000002_Node000003"><a xlink:title=" ">
<path fill="none" stroke="#63b8ff" d="M335.46,-86C343.3,-86 351.32,-86 359.23,-86"/>
<polygon fill="#63b8ff" stroke="#63b8ff" points="359.2,-89.5 369.2,-86 359.2,-82.5 359.2,-89.5"/>
</a>
</g>
</g>
<!-- Node4 -->
<g id="Node000004" class="node">
<title>Node4</title>
<g id="a_Node000004"><a xlink:href="$class_bot_config.html#a459cd36b6c6f36f9bd73ff207e2fe5ec" xlink:title=" ">
<polygon fill="white" stroke="#666666" points="663.62,-86 559.88,-86 559.88,-66 663.62,-66 663.62,-86"/>
<text text-anchor="middle" x="611.75" y="-72.5" font-family="Helvetica,sans-Serif" font-size="10.00">BotConfig::readBool</text>
</a>
</g>
</g>
<!-- Node3&#45;&gt;Node4 -->
<g id="edge26_Node000003_Node000004" class="edge">
<title>Node3&#45;&gt;Node4</title>
<g id="a_edge26_Node000003_Node000004"><a xlink:title=" ">
<path fill="none" stroke="#63b8ff" d="M505.56,-82.13C519.55,-81.32 534.27,-80.46 548.12,-79.65"/>
<polygon fill="#63b8ff" stroke="#63b8ff" points="548.22,-83.15 558,-79.08 547.82,-76.16 548.22,-83.15"/>
</a>
</g>
</g>
<!-- Node5 -->
<g id="Node000005" class="node">
<title>Node5</title>
<g id="a_Node000005"><a xlink:href="$class_bot_config.html#a623d05e4d8e0122d35b1a3e391fc2464" xlink:title=" ">
<polygon fill="white" stroke="#666666" points="827.75,-58 718,-58 718,-38 827.75,-38 827.75,-58"/>
<text text-anchor="middle" x="772.88" y="-44.5" font-family="Helvetica,sans-Serif" font-size="10.00">BotConfig::readString</text>
</a>
</g>
</g>
<!-- Node4&#45;&gt;Node5 -->
<g id="edge27_Node000004_Node000005" class="edge">
<title>Node4&#45;&gt;Node5</title>
<g id="a_edge27_Node000004_Node000005"><a xlink:title=" ">
<path fill="none" stroke="#63b8ff" d="M663.97,-66.99C677.52,-64.6 692.33,-62 706.52,-59.5"/>
<polygon fill="#63b8ff" stroke="#63b8ff" points="707,-62.97 716.24,-57.79 705.78,-56.08 707,-62.97"/>
</a>
</g>
</g>
<!-- Node6 -->
<g id="Node000006" class="node">
<title>Node6</title>
<g id="a_Node000006"><a xlink:href="$_text_manager_8cpp.html#a85a282af68cca7cf7d69487d1bacdc47" xlink:title=" ">
<polygon fill="white" stroke="#666666" points="1082.12,-96 997.88,-96 997.88,-76 1082.12,-76 1082.12,-96"/>
<text text-anchor="middle" x="1040" y="-82.5" font-family="Helvetica,sans-Serif" font-size="10.00">extractBetween</text>
</a>
</g>
</g>
<!-- Node5&#45;&gt;Node6 -->
<g id="edge28_Node000005_Node000006" class="edge">
<title>Node5&#45;&gt;Node6</title>
<g id="a_edge28_Node000005_Node000006"><a xlink:title=" ">
<path fill="none" stroke="#63b8ff" d="M818.97,-58.46C833.24,-61.52 849.1,-64.66 863.75,-67 904.61,-73.52 951.2,-78.45 986.07,-81.66"/>
<polygon fill="#63b8ff" stroke="#63b8ff" points="985.63,-85.13 995.91,-82.54 986.26,-78.16 985.63,-85.13"/>
</a>
</g>
</g>
<!-- Node12 -->
<g id="Node000012" class="node">
<title>Node12</title>
<g id="a_Node000012"><a xlink:href="$_text_manager_8cpp.html#add36cc54cd9616a393a17b8961491477" xlink:title=" ">
<polygon fill="white" stroke="#666666" points="943.5,-20 863.75,-20 863.75,0 943.5,0 943.5,-20"/>
<text text-anchor="middle" x="903.62" y="-6.5" font-family="Helvetica,sans-Serif" font-size="10.00">getFileContent</text>
</a>
</g>
</g>
<!-- Node5&#45;&gt;Node12 -->
<g id="edge37_Node000005_Node000012" class="edge">
<title>Node5&#45;&gt;Node12</title>
<g id="a_edge37_Node000005_Node000012"><a xlink:title=" ">
<path fill="none" stroke="#63b8ff" d="M809.4,-37.52C823.89,-33.24 840.85,-28.23 856.29,-23.67"/>
<polygon fill="#63b8ff" stroke="#63b8ff" points="857.17,-27.07 865.77,-20.88 855.19,-20.35 857.17,-27.07"/>
</a>
</g>
</g>
<!-- Node13 -->
<g id="Node000013" class="node">
<title>Node13</title>
<g id="a_Node000013"><a xlink:href="$_text_manager_8cpp.html#af24bee60aa1d3d5b4ae3bf6ebd267ecd" xlink:title=" ">
<polygon fill="white" stroke="#666666" points="927.38,-58 879.88,-58 879.88,-38 927.38,-38 927.38,-58"/>
<text text-anchor="middle" x="903.62" y="-44.5" font-family="Helvetica,sans-Serif" font-size="10.00">getLine</text>
</a>
</g>
</g>
<!-- Node5&#45;&gt;Node13 -->
<g id="edge38_Node000005_Node000013" class="edge">
<title>Node5&#45;&gt;Node13</title>
<g id="a_edge38_Node000005_Node000013"><a xlink:title=" ">
<path fill="none" stroke="#63b8ff" d="M828.1,-48C841.75,-48 856.02,-48 868.37,-48"/>
<polygon fill="#63b8ff" stroke="#63b8ff" points="868.04,-51.5 878.04,-48 868.04,-44.5 868.04,-51.5"/>
</a>
</g>
</g>
<!-- Node7 -->
<g id="Node000007" class="node">
<title>Node7</title>
<g id="a_Node000007"><a xlink:href="$_text_manager_8cpp.html#a6956d58559ef67f422247fdeb1c22775" xlink:title=" ">
<polygon fill="white" stroke="#666666" points="1216.25,-96 1140.25,-96 1140.25,-76 1216.25,-76 1216.25,-96"/>
<text text-anchor="middle" x="1178.25" y="-82.5" font-family="Helvetica,sans-Serif" font-size="10.00">getStringAfter</text>
</a>
</g>
</g>
<!-- Node6&#45;&gt;Node7 -->
<g id="edge29_Node000006_Node000007" class="edge">
<title>Node6&#45;&gt;Node7</title>
<g id="a_edge29_Node000006_Node000007"><a xlink:title=" ">
<path fill="none" stroke="#63b8ff" d="M1082.62,-86C1097.21,-86 1113.73,-86 1128.83,-86"/>
<polygon fill="#63b8ff" stroke="#63b8ff" points="1128.53,-89.5 1138.53,-86 1128.53,-82.5 1128.53,-89.5"/>
</a>
</g>
</g>
<!-- Node11 -->
<g id="Node000011" class="node">
<title>Node11</title>
<g id="a_Node000011"><a xlink:href="$_text_manager_8cpp.html#aff8311b88dbf5f3091f3ac1262543242" xlink:title=" ">
<polygon fill="white" stroke="#666666" points="1220,-58 1136.5,-58 1136.5,-38 1220,-38 1220,-58"/>
<text text-anchor="middle" x="1178.25" y="-44.5" font-family="Helvetica,sans-Serif" font-size="10.00">getStringBefore</text>
</a>
</g>
</g>
<!-- Node6&#45;&gt;Node11 -->
<g id="edge35_Node000006_Node000011" class="edge">
<title>Node6&#45;&gt;Node11</title>
<g id="a_edge35_Node000006_Node000011"><a xlink:title=" ">
<path fill="none" stroke="#63b8ff" d="M1078.59,-75.52C1094.08,-71.2 1112.22,-66.14 1128.7,-61.54"/>
<polygon fill="#63b8ff" stroke="#63b8ff" points="1129.63,-64.91 1138.32,-58.86 1127.75,-58.17 1129.63,-64.91"/>
</a>
</g>
</g>
<!-- Node8 -->
<g id="Node000008" class="node">
<title>Node8</title>
<g id="a_Node000008"><a xlink:href="$_text_manager_8cpp.html#a5b66873abcff2faee361721f86b65dd0" xlink:title=" ">
<polygon fill="white" stroke="#666666" points="1334.25,-96 1266.5,-96 1266.5,-76 1334.25,-76 1334.25,-96"/>
<text text-anchor="middle" x="1300.38" y="-82.5" font-family="Helvetica,sans-Serif" font-size="10.00">getPosAfter</text>
</a>
</g>
</g>
<!-- Node7&#45;&gt;Node8 -->
<g id="edge30_Node000007_Node000008" class="edge">
<title>Node7&#45;&gt;Node8</title>
<g id="a_edge30_Node000007_Node000008"><a xlink:title=" ">
<path fill="none" stroke="#63b8ff" d="M1216.6,-86C1228.73,-86 1242.3,-86 1254.9,-86"/>
<polygon fill="#63b8ff" stroke="#63b8ff" points="1254.61,-89.5 1264.61,-86 1254.61,-82.5 1254.61,-89.5"/>
</a>
</g>
</g>
<!-- Node10 -->
<g id="Node000010" class="node">
<title>Node10</title>
<g id="a_Node000010"><a xlink:href="$_text_manager_8cpp.html#a2946b90fb3df56b0a74d53eb4160f4e2" xlink:title=" ">
<polygon fill="white" stroke="#666666" points="1344.75,-134 1256,-134 1256,-114 1344.75,-114 1344.75,-134"/>
<text text-anchor="middle" x="1300.38" y="-120.5" font-family="Helvetica,sans-Serif" font-size="10.00">getStringStarting</text>
</a>
</g>
</g>
<!-- Node7&#45;&gt;Node10 -->
<g id="edge32_Node000007_Node000010" class="edge">
<title>Node7&#45;&gt;Node10</title>
<g id="a_edge32_Node000007_Node000010"><a xlink:title=" ">
<path fill="none" stroke="#63b8ff" d="M1212.39,-96.48C1225.78,-100.72 1241.43,-105.67 1255.73,-110.19"/>
<polygon fill="#63b8ff" stroke="#63b8ff" points="1254.31,-113.41 1264.9,-113.09 1256.42,-106.74 1254.31,-113.41"/>
</a>
</g>
</g>
<!-- Node9 -->
<g id="Node000009" class="node">
<title>Node9</title>
<g id="a_Node000009"><a xlink:href="$_text_manager_8cpp.html#a3f4afb2b62acd297e783a22ffa9a7000" xlink:title=" ">
<polygon fill="white" stroke="#666666" points="1471,-96 1380.75,-96 1380.75,-76 1471,-76 1471,-96"/>
<text text-anchor="middle" x="1425.88" y="-82.5" font-family="Helvetica,sans-Serif" font-size="10.00">getSequencePos</text>
</a>
</g>
</g>
<!-- Node8&#45;&gt;Node9 -->
<g id="edge31_Node000008_Node000009" class="edge">
<title>Node8&#45;&gt;Node9</title>
<g id="a_edge31_Node000008_Node000009"><a xlink:title=" ">
<path fill="none" stroke="#63b8ff" d="M1334.47,-86C1345.19,-86 1357.39,-86 1369.29,-86"/>
<polygon fill="#63b8ff" stroke="#63b8ff" points="1369.02,-89.5 1379.02,-86 1369.02,-82.5 1369.02,-89.5"/>
</a>
</g>
</g>
<!-- Node10&#45;&gt;Node9 -->
<g id="edge33_Node000010_Node000009" class="edge">
<title>Node10&#45;&gt;Node9</title>
<g id="a_edge33_Node000010_Node000009"><a xlink:title=" ">
<path fill="none" stroke="#63b8ff" d="M1335.45,-113.52C1349.22,-109.28 1365.3,-104.33 1380,-99.81"/>
<polygon fill="#63b8ff" stroke="#63b8ff" points="1380.94,-103.18 1389.47,-96.9 1378.88,-96.49 1380.94,-103.18"/>
</a>
</g>
</g>
<!-- Node10&#45;&gt;Node10 -->
<g id="edge34_Node000010_Node000010" class="edge">
<title>Node10&#45;&gt;Node10</title>
<g id="a_edge34_Node000010_Node000010"><a xlink:title=" ">
<path fill="none" stroke="#63b8ff" d="M1280.97,-134.34C1272.68,-142.98 1279.15,-152 1300.38,-152 1311.98,-152 1319.18,-149.3 1321.96,-145.44"/>
<polygon fill="#63b8ff" stroke="#63b8ff" points="1325.43,-144.96 1320.07,-135.82 1318.56,-146.31 1325.43,-144.96"/>
</a>
</g>
</g>
<!-- Node11&#45;&gt;Node9 -->
<g id="edge36_Node000011_Node000009" class="edge">
<title>Node11&#45;&gt;Node9</title>
<g id="a_edge36_Node000011_Node000009"><a xlink:title=" ">
<path fill="none" stroke="#63b8ff" d="M1220.25,-51.34C1253.86,-54.41 1302.59,-59.61 1344.75,-67 1354.26,-68.67 1364.34,-70.78 1374.01,-72.98"/>
<polygon fill="#63b8ff" stroke="#63b8ff" points="1373.12,-76.37 1383.65,-75.25 1374.72,-69.55 1373.12,-76.37"/>
</a>
</g>
</g>
<!-- Node13&#45;&gt;Node6 -->
<g id="edge39_Node000013_Node000006" class="edge">
<title>Node13&#45;&gt;Node6</title>
<g id="a_edge39_Node000013_Node000006"><a xlink:title=" ">
<path fill="none" stroke="#63b8ff" d="M927.72,-54.53C945.11,-59.45 969.53,-66.36 991.08,-72.45"/>
<polygon fill="#63b8ff" stroke="#63b8ff" points="989.99,-75.78 1000.57,-75.13 991.9,-69.04 989.99,-75.78"/>
</a>
</g>
</g>
<!-- Node14 -->
<g id="Node000014" class="node">
<title>Node14</title>
<g id="a_Node000014"><a xlink:href="$_text_manager_8cpp.html#a84a9e24fc5cce3cebf746bb656909bf8" xlink:title=" ">
<polygon fill="white" stroke="#666666" points="1100.5,-58 979.5,-58 979.5,-38 1100.5,-38 1100.5,-58"/>
<text text-anchor="middle" x="1040" y="-44.5" font-family="Helvetica,sans-Serif" font-size="10.00">extractBetweenReverse</text>
</a>
</g>
</g>
<!-- Node13&#45;&gt;Node14 -->
<g id="edge40_Node000013_Node000014" class="edge">
<title>Node13&#45;&gt;Node14</title>
<g id="a_edge40_Node000013_Node000014"><a xlink:title=" ">
<path fill="none" stroke="#63b8ff" d="M927.72,-48C939.09,-48 953.46,-48 968.07,-48"/>
<polygon fill="#63b8ff" stroke="#63b8ff" points="967.73,-51.5 977.73,-48 967.73,-44.5 967.73,-51.5"/>
</a>
</g>
</g>
<!-- Node14&#45;&gt;Node7 -->
<g id="edge41_Node000014_Node000007" class="edge">
<title>Node14&#45;&gt;Node7</title>
<g id="a_edge41_Node000014_Node000007"><a xlink:title=" ">
<path fill="none" stroke="#63b8ff" d="M1078.59,-58.48C1094.08,-62.8 1112.22,-67.86 1128.7,-72.46"/>
<polygon fill="#63b8ff" stroke="#63b8ff" points="1127.75,-75.83 1138.32,-75.14 1129.63,-69.09 1127.75,-75.83"/>
</a>
</g>
</g>
<!-- Node14&#45;&gt;Node11 -->
<g id="edge42_Node000014_Node000011" class="edge">
<title>Node14&#45;&gt;Node11</title>
<g id="a_edge42_Node000014_Node000011"><a xlink:title=" ">
<path fill="none" stroke="#63b8ff" d="M1100.76,-48C1108.83,-48 1117.06,-48 1124.99,-48"/>
<polygon fill="#63b8ff" stroke="#63b8ff" points="1124.82,-51.5 1134.82,-48 1124.82,-44.5 1124.82,-51.5"/>
</a>
</g>
</g>
<!-- Node16 -->
<g id="Node000016" class="node">
<title>Node16</title>
<g id="a_Node000016"><a xlink:href="$sys_commands_8cpp.html#a662dd4893690567ba825a473508f47e2" xlink:title=" ">
<polygon fill="white" stroke="#666666" points="469.5,-58 407,-58 407,-38 469.5,-38 469.5,-58"/>
<text text-anchor="middle" x="438.25" y="-44.5" font-family="Helvetica,sans-Serif" font-size="10.00">pathExists</text>
</a>
</g>
</g>
<!-- Node15&#45;&gt;Node16 -->
<g id="edge44_Node000015_Node000016" class="edge">
<title>Node15&#45;&gt;Node16</title>
<g id="a_edge44_Node000015_Node000016"><a xlink:title=" ">
<path fill="none" stroke="#63b8ff" d="M326.48,-44.18C349.51,-44.98 374.94,-45.85 395.61,-46.57"/>
<polygon fill="#63b8ff" stroke="#63b8ff" points="395.25,-50.05 405.36,-46.9 395.49,-43.06 395.25,-50.05"/>
</a>
</g>
</g>
<!-- Node17 -->
<g id="Node000017" class="node">
<title>Node17</title>
<g id="a_Node000017"><a xlink:href="$class_bot_config.html#a6347ad0b79f04a755fe1d7151ed87cd2" xlink:title=" ">
<polygon fill="white" stroke="#666666" points="682,-39 541.5,-39 541.5,-19 682,-19 682,-39"/>
<text text-anchor="middle" x="611.75" y="-25.5" font-family="Helvetica,sans-Serif" font-size="10.00">BotConfig::readStringBotFile</text>
</a>
</g>
</g>
<!-- Node15&#45;&gt;Node17 -->
<g id="edge45_Node000015_Node000017" class="edge">
<title>Node15&#45;&gt;Node17</title>
<g id="a_edge45_Node000015_Node000017"><a xlink:title=" ">
<path fill="none" stroke="#63b8ff" d="M326.61,-33.06C341.17,-31.37 356.6,-29.86 371,-29 423.87,-25.83 483.42,-25.81 529.95,-26.59"/>
<polygon fill="#63b8ff" stroke="#63b8ff" points="529.6,-30.09 539.67,-26.77 529.73,-23.09 529.6,-30.09"/>
</a>
</g>
</g>
<!-- Node17&#45;&gt;Node5 -->
<g id="edge46_Node000017_Node000005" class="edge">
<title>Node17&#45;&gt;Node5</title>
<g id="a_edge46_Node000017_Node000005"><a xlink:title=" ">
<path fill="none" stroke="#63b8ff" d="M682.08,-37.28C690.16,-38.24 698.39,-39.23 706.42,-40.18"/>
<polygon fill="#63b8ff" stroke="#63b8ff" points="705.76,-43.63 716.1,-41.34 706.59,-36.68 705.76,-43.63"/>
</a>
</g>
</g>
</g>
</svg>
