<?xml version="1.0" encoding="UTF-8" standalone="no"?>
<!DOCTYPE svg PUBLIC "-//W3C//DTD SVG 1.1//EN"
 "http://www.w3.org/Graphics/SVG/1.1/DTD/svg11.dtd">
<!-- Generated by graphviz version 12.2.0 (20241103.1931)
 -->
<!-- Title: BotConfig::updateLdPlayerFolder Pages: 1 -->
<svg width="726pt" height="40pt"
 viewBox="0.00 0.00 726.25 40.00" xmlns="http://www.w3.org/2000/svg" xmlns:xlink="http://www.w3.org/1999/xlink">
<g id="graph0" class="graph" transform="scale(1 1) rotate(0) translate(4 36)">
<title>BotConfig::updateLdPlayerFolder</title>
<!-- Node1 -->
<g id="Node000001" class="node">
<title>Node1</title>
<g id="a_Node000001"><a xlink:title=" ">
<polygon fill="#999999" stroke="#666666" points="718.25,-32 585.25,-32 585.25,0 718.25,0 718.25,-32"/>
<text text-anchor="start" x="593.25" y="-18.5" font-family="Helvetica,sans-Serif" font-size="10.00">BotConfig::updateLdPlayer</text>
<text text-anchor="middle" x="651.75" y="-6.5" font-family="Helvetica,sans-Serif" font-size="10.00">Folder</text>
</a>
</g>
</g>
<!-- Node2 -->
<g id="Node000002" class="node">
<title>Node2</title>
<g id="a_Node000002"><a xlink:href="$class_bot_config.html#ac91f46c5dca7953454d5a2340dfd7f5c" xlink:title=" ">
<polygon fill="white" stroke="#666666" points="549.25,-26 432.75,-26 432.75,-6 549.25,-6 549.25,-26"/>
<text text-anchor="middle" x="491" y="-12.5" font-family="Helvetica,sans-Serif" font-size="10.00">BotConfig::initLdPlayer</text>
</a>
</g>
</g>
<!-- Node1&#45;&gt;Node2 -->
<g id="edge5_Node000001_Node000002" class="edge">
<title>Node1&#45;&gt;Node2</title>
<g id="a_edge5_Node000001_Node000002"><a xlink:title=" ">
<path fill="none" stroke="#63b8ff" d="M573.42,-16C565.33,-16 557.21,-16 549.39,-16"/>
<polygon fill="#63b8ff" stroke="#63b8ff" points="573.29,-19.5 583.29,-16 573.29,-12.5 573.29,-19.5"/>
</a>
</g>
</g>
<!-- Node3 -->
<g id="Node000003" class="node">
<title>Node3</title>
<g id="a_Node000003"><a xlink:href="$class_bot_config.html#af8c906f3cd22726a96e758886c756068" xlink:title=" ">
<polygon fill="white" stroke="#666666" points="396.75,-26 274.25,-26 274.25,-6 396.75,-6 396.75,-26"/>
<text text-anchor="middle" x="335.5" y="-12.5" font-family="Helvetica,sans-Serif" font-size="10.00">BotConfig::initEmulators</text>
</a>
</g>
</g>
<!-- Node2&#45;&gt;Node3 -->
<g id="edge6_Node000002_Node000003" class="edge">
<title>Node2&#45;&gt;Node3</title>
<g id="a_edge6_Node000002_Node000003"><a xlink:title=" ">
<path fill="none" stroke="#63b8ff" d="M420.94,-16C413.04,-16 405.02,-16 397.24,-16"/>
<polygon fill="#63b8ff" stroke="#63b8ff" points="420.89,-19.5 430.89,-16 420.89,-12.5 420.89,-19.5"/>
</a>
</g>
</g>
<!-- Node4 -->
<g id="Node000004" class="node">
<title>Node4</title>
<g id="a_Node000004"><a xlink:href="$class_bot_config.html#a8925ef3403b945f27b9ee2719ef257b9" xlink:title=" ">
<polygon fill="white" stroke="#666666" points="238.25,-26 116.5,-26 116.5,-6 238.25,-6 238.25,-26"/>
<text text-anchor="middle" x="177.38" y="-12.5" font-family="Helvetica,sans-Serif" font-size="10.00">BotConfig::initBotConfig</text>
</a>
</g>
</g>
<!-- Node3&#45;&gt;Node4 -->
<g id="edge7_Node000003_Node000004" class="edge">
<title>Node3&#45;&gt;Node4</title>
<g id="a_edge7_Node000003_Node000004"><a xlink:title=" ">
<path fill="none" stroke="#63b8ff" d="M262.79,-16C254.69,-16 246.5,-16 238.58,-16"/>
<polygon fill="#63b8ff" stroke="#63b8ff" points="262.62,-19.5 272.62,-16 262.62,-12.5 262.62,-19.5"/>
</a>
</g>
</g>
<!-- Node5 -->
<g id="Node000005" class="node">
<title>Node5</title>
<g id="a_Node000005"><a xlink:href="$classgame.html#aea6b13468585f1be55d1736100158706" xlink:title=" ">
<polygon fill="white" stroke="#666666" points="80.5,-26 0,-26 0,-6 80.5,-6 80.5,-26"/>
<text text-anchor="middle" x="40.25" y="-12.5" font-family="Helvetica,sans-Serif" font-size="10.00">game::startBot</text>
</a>
</g>
</g>
<!-- Node4&#45;&gt;Node5 -->
<g id="edge8_Node000004_Node000005" class="edge">
<title>Node4&#45;&gt;Node5</title>
<g id="a_edge8_Node000004_Node000005"><a xlink:title=" ">
<path fill="none" stroke="#63b8ff" d="M105.04,-16C96.77,-16 88.57,-16 80.95,-16"/>
<polygon fill="#63b8ff" stroke="#63b8ff" points="104.81,-19.5 114.81,-16 104.81,-12.5 104.81,-19.5"/>
</a>
</g>
</g>
</g>
</svg>
