<?xml version="1.0" encoding="UTF-8" standalone="no"?>
<!DOCTYPE svg PUBLIC "-//W3C//DTD SVG 1.1//EN"
 "http://www.w3.org/Graphics/SVG/1.1/DTD/svg11.dtd">
<!-- Generated by graphviz version 12.2.0 (20241103.1931)
 -->
<!-- Title: CompareTag::execute Pages: 1 -->
<svg width="371pt" height="275pt"
 viewBox="0.00 0.00 371.00 275.00" xmlns="http://www.w3.org/2000/svg" xmlns:xlink="http://www.w3.org/1999/xlink">
<g id="graph0" class="graph" transform="scale(1 1) rotate(0) translate(4 271)">
<title>CompareTag::execute</title>
<!-- Node1 -->
<g id="Node000001" class="node">
<title>Node1</title>
<g id="a_Node000001"><a xlink:title=" ">
<polygon fill="#999999" stroke="#666666" points="112,-153 0,-153 0,-133 112,-133 112,-153"/>
<text text-anchor="middle" x="56" y="-139.5" font-family="Helvetica,sans-Serif" font-size="10.00">CompareTag::execute</text>
</a>
</g>
</g>
<!-- Node2 -->
<g id="Node000002" class="node">
<title>Node2</title>
<g id="a_Node000002"><a xlink:href="$_tags_8cpp.html#a1a411d1722b51c457e83ada36c19db4c" xlink:title=" ">
<polygon fill="white" stroke="#666666" points="244.62,-267 164.12,-267 164.12,-247 244.62,-247 244.62,-267"/>
<text text-anchor="middle" x="204.38" y="-253.5" font-family="Helvetica,sans-Serif" font-size="10.00">CompareEqual</text>
</a>
</g>
</g>
<!-- Node1&#45;&gt;Node2 -->
<g id="edge10_Node000001_Node000002" class="edge">
<title>Node1&#45;&gt;Node2</title>
<g id="a_edge10_Node000001_Node000002"><a xlink:title=" ">
<path fill="none" stroke="#63b8ff" d="M64.29,-153.42C78.34,-172.75 111.05,-214.38 148,-238 150.12,-239.36 152.35,-240.63 154.65,-241.82"/>
<polygon fill="#63b8ff" stroke="#63b8ff" points="153.1,-244.96 163.65,-245.91 155.99,-238.58 153.1,-244.96"/>
</a>
</g>
</g>
<!-- Node3 -->
<g id="Node000003" class="node">
<title>Node3</title>
<g id="a_Node000003"><a xlink:href="$_tags_8cpp.html#a792e47ada60bb52ce250927b0efb74c4" xlink:title=" ">
<polygon fill="white" stroke="#666666" points="248.38,-229 160.38,-229 160.38,-209 248.38,-209 248.38,-229"/>
<text text-anchor="middle" x="204.38" y="-215.5" font-family="Helvetica,sans-Serif" font-size="10.00">CompareGreater</text>
</a>
</g>
</g>
<!-- Node1&#45;&gt;Node3 -->
<g id="edge11_Node000001_Node000003" class="edge">
<title>Node1&#45;&gt;Node3</title>
<g id="a_edge11_Node000001_Node000003"><a xlink:title=" ">
<path fill="none" stroke="#63b8ff" d="M71.22,-153.36C88.65,-165.7 119.4,-186.36 148,-200 151.3,-201.58 154.77,-203.08 158.29,-204.51"/>
<polygon fill="#63b8ff" stroke="#63b8ff" points="156.91,-207.73 167.5,-208.01 159.39,-201.19 156.91,-207.73"/>
</a>
</g>
</g>
<!-- Node4 -->
<g id="Node000004" class="node">
<title>Node4</title>
<g id="a_Node000004"><a xlink:href="$_tags_8cpp.html#a5fc4414245c3881d1ecb4b99a4fd5372" xlink:title=" ">
<polygon fill="white" stroke="#666666" points="260.75,-191 148,-191 148,-171 260.75,-171 260.75,-191"/>
<text text-anchor="middle" x="204.38" y="-177.5" font-family="Helvetica,sans-Serif" font-size="10.00">CompareGreaterEqual</text>
</a>
</g>
</g>
<!-- Node1&#45;&gt;Node4 -->
<g id="edge12_Node000001_Node000004" class="edge">
<title>Node1&#45;&gt;Node4</title>
<g id="a_edge12_Node000001_Node000004"><a xlink:title=" ">
<path fill="none" stroke="#63b8ff" d="M97.39,-153.48C114.34,-157.89 134.27,-163.06 152.23,-167.72"/>
<polygon fill="#63b8ff" stroke="#63b8ff" points="151.1,-171.04 161.66,-170.17 152.86,-164.27 151.1,-171.04"/>
</a>
</g>
</g>
<!-- Node5 -->
<g id="Node000005" class="node">
<title>Node5</title>
<g id="a_Node000005"><a xlink:href="$_tags_8cpp.html#a49a0e8b3086ffc59f2451f94c03829d1" xlink:title=" ">
<polygon fill="white" stroke="#666666" points="246.88,-153 161.88,-153 161.88,-133 246.88,-133 246.88,-153"/>
<text text-anchor="middle" x="204.38" y="-139.5" font-family="Helvetica,sans-Serif" font-size="10.00">CompareLesser</text>
</a>
</g>
</g>
<!-- Node1&#45;&gt;Node5 -->
<g id="edge13_Node000001_Node000005" class="edge">
<title>Node1&#45;&gt;Node5</title>
<g id="a_edge13_Node000001_Node000005"><a xlink:title=" ">
<path fill="none" stroke="#63b8ff" d="M112.34,-143C124.73,-143 137.85,-143 150.16,-143"/>
<polygon fill="#63b8ff" stroke="#63b8ff" points="150.14,-146.5 160.14,-143 150.14,-139.5 150.14,-146.5"/>
</a>
</g>
</g>
<!-- Node6 -->
<g id="Node000006" class="node">
<title>Node6</title>
<g id="a_Node000006"><a xlink:href="$_tags_8cpp.html#a9237a95f66c330e02ca6c88a5feaf1a5" xlink:title=" ">
<polygon fill="white" stroke="#666666" points="259.25,-115 149.5,-115 149.5,-95 259.25,-95 259.25,-115"/>
<text text-anchor="middle" x="204.38" y="-101.5" font-family="Helvetica,sans-Serif" font-size="10.00">CompareLesserEqual</text>
</a>
</g>
</g>
<!-- Node1&#45;&gt;Node6 -->
<g id="edge14_Node000001_Node000006" class="edge">
<title>Node1&#45;&gt;Node6</title>
<g id="a_edge14_Node000001_Node000006"><a xlink:title=" ">
<path fill="none" stroke="#63b8ff" d="M97.39,-132.52C114.34,-128.11 134.27,-122.94 152.23,-118.28"/>
<polygon fill="#63b8ff" stroke="#63b8ff" points="152.86,-121.73 161.66,-115.83 151.1,-114.96 152.86,-121.73"/>
</a>
</g>
</g>
<!-- Node7 -->
<g id="Node000007" class="node">
<title>Node7</title>
<g id="a_Node000007"><a xlink:href="$_tags_8cpp.html#a6746bcba912a8cf5e050126c1c63d4a8" xlink:title=" ">
<polygon fill="white" stroke="#666666" points="252.5,-77 156.25,-77 156.25,-57 252.5,-57 252.5,-77"/>
<text text-anchor="middle" x="204.38" y="-63.5" font-family="Helvetica,sans-Serif" font-size="10.00">CompareNotEqual</text>
</a>
</g>
</g>
<!-- Node1&#45;&gt;Node7 -->
<g id="edge15_Node000001_Node000007" class="edge">
<title>Node1&#45;&gt;Node7</title>
<g id="a_edge15_Node000001_Node000007"><a xlink:title=" ">
<path fill="none" stroke="#63b8ff" d="M71.22,-132.64C88.65,-120.3 119.4,-99.64 148,-86 151.3,-84.42 154.77,-82.92 158.29,-81.49"/>
<polygon fill="#63b8ff" stroke="#63b8ff" points="159.39,-84.81 167.5,-77.99 156.91,-78.27 159.39,-84.81"/>
</a>
</g>
</g>
<!-- Node8 -->
<g id="Node000008" class="node">
<title>Node8</title>
<g id="a_Node000008"><a xlink:href="$class_list_tag.html#a1aed24f27987c6c8e8d32aeb3cb4e116" xlink:title=" ">
<polygon fill="white" stroke="#666666" points="248.38,-39 160.38,-39 160.38,-19 248.38,-19 248.38,-39"/>
<text text-anchor="middle" x="204.38" y="-25.5" font-family="Helvetica,sans-Serif" font-size="10.00">ListTag::execute</text>
</a>
</g>
</g>
<!-- Node1&#45;&gt;Node8 -->
<g id="edge16_Node000001_Node000008" class="edge">
<title>Node1&#45;&gt;Node8</title>
<g id="a_edge16_Node000001_Node000008"><a xlink:title=" ">
<path fill="none" stroke="#63b8ff" d="M64.29,-132.58C78.34,-113.25 111.05,-71.62 148,-48 150.12,-46.64 152.35,-45.37 154.65,-44.18"/>
<polygon fill="#63b8ff" stroke="#63b8ff" points="155.99,-47.42 163.65,-40.09 153.1,-41.04 155.99,-47.42"/>
</a>
</g>
</g>
<!-- Node9 -->
<g id="Node000009" class="node">
<title>Node9</title>
<g id="a_Node000009"><a xlink:href="$_tags_8cpp.html#ab30d3866e4109a758188a1aeb012ea01" xlink:title=" ">
<polygon fill="white" stroke="#666666" points="360.38,-58 299.38,-58 299.38,-38 360.38,-38 360.38,-58"/>
<text text-anchor="middle" x="329.88" y="-44.5" font-family="Helvetica,sans-Serif" font-size="10.00">getListTag</text>
</a>
</g>
</g>
<!-- Node8&#45;&gt;Node9 -->
<g id="edge17_Node000008_Node000009" class="edge">
<title>Node8&#45;&gt;Node9</title>
<g id="a_edge17_Node000008_Node000009"><a xlink:title=" ">
<path fill="none" stroke="#63b8ff" d="M248.57,-35.65C261.35,-37.61 275.3,-39.76 287.94,-41.7"/>
<polygon fill="#63b8ff" stroke="#63b8ff" points="287.19,-45.13 297.6,-43.19 288.25,-38.21 287.19,-45.13"/>
</a>
</g>
</g>
<!-- Node10 -->
<g id="Node000010" class="node">
<title>Node10</title>
<g id="a_Node000010"><a xlink:href="$_tags_8cpp.html#aad17b0d48f011d5869f82adb31915669" xlink:title=" ">
<polygon fill="white" stroke="#666666" points="363,-20 296.75,-20 296.75,0 363,0 363,-20"/>
<text text-anchor="middle" x="329.88" y="-6.5" font-family="Helvetica,sans-Serif" font-size="10.00">getLoadTag</text>
</a>
</g>
</g>
<!-- Node8&#45;&gt;Node10 -->
<g id="edge18_Node000008_Node000010" class="edge">
<title>Node8&#45;&gt;Node10</title>
<g id="a_edge18_Node000008_Node000010"><a xlink:title=" ">
<path fill="none" stroke="#63b8ff" d="M248.57,-22.35C260.48,-20.52 273.41,-18.53 285.34,-16.7"/>
<polygon fill="#63b8ff" stroke="#63b8ff" points="285.56,-20.2 294.92,-15.22 284.5,-13.29 285.56,-20.2"/>
</a>
</g>
</g>
</g>
</svg>
