<?xml version="1.0" encoding="UTF-8" standalone="no"?>
<!DOCTYPE svg PUBLIC "-//W3C//DTD SVG 1.1//EN"
 "http://www.w3.org/Graphics/SVG/1.1/DTD/svg11.dtd">
<!-- Generated by graphviz version 12.2.0 (20241103.1931)
 -->
<!-- Title: LDPlayer::showAllPlayableInstances Pages: 1 -->
<svg width="484pt" height="78pt"
 viewBox="0.00 0.00 483.50 78.00" xmlns="http://www.w3.org/2000/svg" xmlns:xlink="http://www.w3.org/1999/xlink">
<g id="graph0" class="graph" transform="scale(1 1) rotate(0) translate(4 74)">
<title>LDPlayer::showAllPlayableInstances</title>
<!-- Node1 -->
<g id="Node000001" class="node">
<title>Node1</title>
<g id="a_Node000001"><a xlink:title=" ">
<polygon fill="#999999" stroke="#666666" points="134.5,-48 0,-48 0,-16 134.5,-16 134.5,-48"/>
<text text-anchor="start" x="8" y="-34.5" font-family="Helvetica,sans-Serif" font-size="10.00">LDPlayer::showAllPlayable</text>
<text text-anchor="middle" x="67.25" y="-22.5" font-family="Helvetica,sans-Serif" font-size="10.00">Instances</text>
</a>
</g>
</g>
<!-- Node2 -->
<g id="Node000002" class="node">
<title>Node2</title>
<g id="a_Node000002"><a xlink:href="$class_emulator.html#a4c0372049844947502d84334e7c0c7c1" xlink:title=" ">
<polygon fill="white" stroke="#666666" points="298.25,-70 170.5,-70 170.5,-38 298.25,-38 298.25,-70"/>
<text text-anchor="start" x="178.5" y="-56.5" font-family="Helvetica,sans-Serif" font-size="10.00">Emulator::getListPlayable</text>
<text text-anchor="middle" x="234.38" y="-44.5" font-family="Helvetica,sans-Serif" font-size="10.00">Instances</text>
</a>
</g>
</g>
<!-- Node1&#45;&gt;Node2 -->
<g id="edge4_Node000001_Node000002" class="edge">
<title>Node1&#45;&gt;Node2</title>
<g id="a_edge4_Node000001_Node000002"><a xlink:title=" ">
<path fill="none" stroke="#63b8ff" d="M134.94,-40.88C142.85,-41.94 150.96,-43.02 158.96,-44.09"/>
<polygon fill="#63b8ff" stroke="#63b8ff" points="158.31,-47.53 168.68,-45.38 159.23,-40.59 158.31,-47.53"/>
</a>
</g>
</g>
<!-- Node3 -->
<g id="Node000003" class="node">
<title>Node3</title>
<g id="a_Node000003"><a xlink:href="$class_l_d_player.html#a89852c8289be577bffcedfa52270dd50" xlink:title=" ">
<polygon fill="white" stroke="#666666" points="296,-20 172.75,-20 172.75,0 296,0 296,-20"/>
<text text-anchor="middle" x="234.38" y="-6.5" font-family="Helvetica,sans-Serif" font-size="10.00">LDPlayer::showInstance</text>
</a>
</g>
</g>
<!-- Node1&#45;&gt;Node3 -->
<g id="edge5_Node000001_Node000003" class="edge">
<title>Node1&#45;&gt;Node3</title>
<g id="a_edge5_Node000001_Node000003"><a xlink:title=" ">
<path fill="none" stroke="#63b8ff" d="M134.94,-23.12C143.53,-21.97 152.35,-20.79 161.03,-19.64"/>
<polygon fill="#63b8ff" stroke="#63b8ff" points="161.36,-23.13 170.81,-18.34 160.43,-16.19 161.36,-23.13"/>
</a>
</g>
</g>
<!-- Node4 -->
<g id="Node000004" class="node">
<title>Node4</title>
<g id="a_Node000004"><a xlink:href="$class_l_d_player.html#aa85461ad56f19bcf3620c16d6781f640" xlink:title=" ">
<polygon fill="white" stroke="#666666" points="475.5,-20 334.25,-20 334.25,0 475.5,0 475.5,-20"/>
<text text-anchor="middle" x="404.88" y="-6.5" font-family="Helvetica,sans-Serif" font-size="10.00">LDPlayer::transformInstance</text>
</a>
</g>
</g>
<!-- Node3&#45;&gt;Node4 -->
<g id="edge6_Node000003_Node000004" class="edge">
<title>Node3&#45;&gt;Node4</title>
<g id="a_edge6_Node000003_Node000004"><a xlink:title=" ">
<path fill="none" stroke="#63b8ff" d="M296.21,-10C304.82,-10 313.8,-10 322.72,-10"/>
<polygon fill="#63b8ff" stroke="#63b8ff" points="322.46,-13.5 332.46,-10 322.46,-6.5 322.46,-13.5"/>
</a>
</g>
</g>
</g>
</svg>
