<?xml version="1.0" encoding="UTF-8" standalone="no"?>
<!DOCTYPE svg PUBLIC "-//W3C//DTD SVG 1.1//EN"
 "http://www.w3.org/Graphics/SVG/1.1/DTD/svg11.dtd">
<!-- Generated by graphviz version 12.2.0 (20241103.1931)
 -->
<!-- Title: BotConfig::readFavoritePreset Pages: 1 -->
<svg width="586pt" height="47pt"
 viewBox="0.00 0.00 585.75 47.00" xmlns="http://www.w3.org/2000/svg" xmlns:xlink="http://www.w3.org/1999/xlink">
<g id="graph0" class="graph" transform="scale(1 1) rotate(0) translate(4 43)">
<title>BotConfig::readFavoritePreset</title>
<!-- Node1 -->
<g id="Node000001" class="node">
<title>Node1</title>
<g id="a_Node000001"><a xlink:title=" ">
<polygon fill="#999999" stroke="#666666" points="577.75,-20 429.75,-20 429.75,0 577.75,0 577.75,-20"/>
<text text-anchor="middle" x="503.75" y="-6.5" font-family="Helvetica,sans-Serif" font-size="10.00">BotConfig::readFavoritePreset</text>
</a>
</g>
</g>
<!-- Node2 -->
<g id="Node000002" class="node">
<title>Node2</title>
<g id="a_Node000002"><a xlink:href="$classgame.html#ad156d149bb90f491291189604771673e" xlink:title=" ">
<polygon fill="white" stroke="#666666" points="393.75,-39 257.75,-39 257.75,-19 393.75,-19 393.75,-39"/>
<text text-anchor="middle" x="325.75" y="-25.5" font-family="Helvetica,sans-Serif" font-size="10.00">game::explainPresetChoice</text>
</a>
</g>
</g>
<!-- Node1&#45;&gt;Node2 -->
<g id="edge5_Node000001_Node000002" class="edge">
<title>Node1&#45;&gt;Node2</title>
<g id="a_edge5_Node000001_Node000002"><a xlink:title=" ">
<path fill="none" stroke="#63b8ff" d="M418.06,-19.14C410.02,-20.01 401.94,-20.88 394.09,-21.73"/>
<polygon fill="#63b8ff" stroke="#63b8ff" points="418.31,-22.64 427.88,-18.08 417.56,-15.68 418.31,-22.64"/>
</a>
</g>
</g>
<!-- Node3 -->
<g id="Node000003" class="node">
<title>Node3</title>
<g id="a_Node000003"><a xlink:href="$classgame.html#a8e1e939e9ccca1570f7be33d1026e7a8" xlink:title=" ">
<polygon fill="white" stroke="#666666" points="221.75,-20 116.5,-20 116.5,0 221.75,0 221.75,-20"/>
<text text-anchor="middle" x="169.12" y="-6.5" font-family="Helvetica,sans-Serif" font-size="10.00">game::selectActivity</text>
</a>
</g>
</g>
<!-- Node1&#45;&gt;Node3 -->
<g id="edge8_Node000001_Node000003" class="edge">
<title>Node1&#45;&gt;Node3</title>
<g id="a_edge8_Node000001_Node000003"><a xlink:title=" ">
<path fill="none" stroke="#63b8ff" d="M418.06,-10C356.31,-10 274.59,-10 222.18,-10"/>
<polygon fill="#63b8ff" stroke="#63b8ff" points="417.83,-13.5 427.83,-10 417.83,-6.5 417.83,-13.5"/>
</a>
</g>
</g>
<!-- Node2&#45;&gt;Node3 -->
<g id="edge6_Node000002_Node000003" class="edge">
<title>Node2&#45;&gt;Node3</title>
<g id="a_edge6_Node000002_Node000003"><a xlink:title=" ">
<path fill="none" stroke="#63b8ff" d="M246.18,-19.35C237.95,-18.33 229.74,-17.33 221.93,-16.37"/>
<polygon fill="#63b8ff" stroke="#63b8ff" points="245.52,-22.79 255.88,-20.54 246.38,-15.84 245.52,-22.79"/>
</a>
</g>
</g>
<!-- Node4 -->
<g id="Node000004" class="node">
<title>Node4</title>
<g id="a_Node000004"><a xlink:href="$classgame.html#aea6b13468585f1be55d1736100158706" xlink:title=" ">
<polygon fill="white" stroke="#666666" points="80.5,-20 0,-20 0,0 80.5,0 80.5,-20"/>
<text text-anchor="middle" x="40.25" y="-6.5" font-family="Helvetica,sans-Serif" font-size="10.00">game::startBot</text>
</a>
</g>
</g>
<!-- Node3&#45;&gt;Node4 -->
<g id="edge7_Node000003_Node000004" class="edge">
<title>Node3&#45;&gt;Node4</title>
<g id="a_edge7_Node000003_Node000004"><a xlink:title=" ">
<path fill="none" stroke="#63b8ff" d="M104.73,-10C96.61,-10 88.49,-10 80.9,-10"/>
<polygon fill="#63b8ff" stroke="#63b8ff" points="104.64,-13.5 114.64,-10 104.64,-6.5 104.64,-13.5"/>
</a>
</g>
</g>
</g>
</svg>
