<?xml version="1.0" encoding="UTF-8" standalone="no"?>
<!DOCTYPE svg PUBLIC "-//W3C//DTD SVG 1.1//EN"
 "http://www.w3.org/Graphics/SVG/1.1/DTD/svg11.dtd">
<!-- Generated by graphviz version 12.2.0 (20241103.1931)
 -->
<!-- Title: BotConfig::verifyParameters Pages: 1 -->
<svg width="715pt" height="28pt"
 viewBox="0.00 0.00 715.00 28.00" xmlns="http://www.w3.org/2000/svg" xmlns:xlink="http://www.w3.org/1999/xlink">
<g id="graph0" class="graph" transform="scale(1 1) rotate(0) translate(4 24)">
<title>BotConfig::verifyParameters</title>
<!-- Node1 -->
<g id="Node000001" class="node">
<title>Node1</title>
<g id="a_Node000001"><a xlink:title=" ">
<polygon fill="#999999" stroke="#666666" points="707,-20 567.25,-20 567.25,0 707,0 707,-20"/>
<text text-anchor="middle" x="637.12" y="-6.5" font-family="Helvetica,sans-Serif" font-size="10.00">BotConfig::verifyParameters</text>
</a>
</g>
</g>
<!-- Node2 -->
<g id="Node000002" class="node">
<title>Node2</title>
<g id="a_Node000002"><a xlink:href="$class_bot_config.html#aaa9ade6d9deb18e7457ab5d1d925e9e6" xlink:title=" ">
<polygon fill="white" stroke="#666666" points="531.25,-20 419.25,-20 419.25,0 531.25,0 531.25,-20"/>
<text text-anchor="middle" x="475.25" y="-6.5" font-family="Helvetica,sans-Serif" font-size="10.00">BotConfig::doWriteInit</text>
</a>
</g>
</g>
<!-- Node1&#45;&gt;Node2 -->
<g id="edge5_Node000001_Node000002" class="edge">
<title>Node1&#45;&gt;Node2</title>
<g id="a_edge5_Node000001_Node000002"><a xlink:title=" ">
<path fill="none" stroke="#63b8ff" d="M555.51,-10C547.42,-10 539.33,-10 531.59,-10"/>
<polygon fill="#63b8ff" stroke="#63b8ff" points="555.42,-13.5 565.42,-10 555.42,-6.5 555.42,-13.5"/>
</a>
</g>
</g>
<!-- Node3 -->
<g id="Node000003" class="node">
<title>Node3</title>
<g id="a_Node000003"><a xlink:href="$class_bot_config.html#a939c57f64624e4160f921b093ca827d0" xlink:title=" ">
<polygon fill="white" stroke="#666666" points="383.25,-20 274.25,-20 274.25,0 383.25,0 383.25,-20"/>
<text text-anchor="middle" x="328.75" y="-6.5" font-family="Helvetica,sans-Serif" font-size="10.00">BotConfig::initBotFile</text>
</a>
</g>
</g>
<!-- Node2&#45;&gt;Node3 -->
<g id="edge6_Node000002_Node000003" class="edge">
<title>Node2&#45;&gt;Node3</title>
<g id="a_edge6_Node000002_Node000003"><a xlink:title=" ">
<path fill="none" stroke="#63b8ff" d="M407.48,-10C399.41,-10 391.24,-10 383.39,-10"/>
<polygon fill="#63b8ff" stroke="#63b8ff" points="407.28,-13.5 417.28,-10 407.28,-6.5 407.28,-13.5"/>
</a>
</g>
</g>
<!-- Node4 -->
<g id="Node000004" class="node">
<title>Node4</title>
<g id="a_Node000004"><a xlink:href="$class_bot_config.html#a8925ef3403b945f27b9ee2719ef257b9" xlink:title=" ">
<polygon fill="white" stroke="#666666" points="238.25,-20 116.5,-20 116.5,0 238.25,0 238.25,-20"/>
<text text-anchor="middle" x="177.38" y="-6.5" font-family="Helvetica,sans-Serif" font-size="10.00">BotConfig::initBotConfig</text>
</a>
</g>
</g>
<!-- Node3&#45;&gt;Node4 -->
<g id="edge7_Node000003_Node000004" class="edge">
<title>Node3&#45;&gt;Node4</title>
<g id="a_edge7_Node000003_Node000004"><a xlink:title=" ">
<path fill="none" stroke="#63b8ff" d="M262.37,-10C254.45,-10 246.39,-10 238.55,-10"/>
<polygon fill="#63b8ff" stroke="#63b8ff" points="262.31,-13.5 272.31,-10 262.31,-6.5 262.31,-13.5"/>
</a>
</g>
</g>
<!-- Node5 -->
<g id="Node000005" class="node">
<title>Node5</title>
<g id="a_Node000005"><a xlink:href="$classgame.html#aea6b13468585f1be55d1736100158706" xlink:title=" ">
<polygon fill="white" stroke="#666666" points="80.5,-20 0,-20 0,0 80.5,0 80.5,-20"/>
<text text-anchor="middle" x="40.25" y="-6.5" font-family="Helvetica,sans-Serif" font-size="10.00">game::startBot</text>
</a>
</g>
</g>
<!-- Node4&#45;&gt;Node5 -->
<g id="edge8_Node000004_Node000005" class="edge">
<title>Node4&#45;&gt;Node5</title>
<g id="a_edge8_Node000004_Node000005"><a xlink:title=" ">
<path fill="none" stroke="#63b8ff" d="M105.04,-10C96.77,-10 88.57,-10 80.95,-10"/>
<polygon fill="#63b8ff" stroke="#63b8ff" points="104.81,-13.5 114.81,-10 104.81,-6.5 104.81,-13.5"/>
</a>
</g>
</g>
</g>
</svg>
