<?xml version="1.0" encoding="UTF-8" standalone="no"?>
<!DOCTYPE svg PUBLIC "-//W3C//DTD SVG 1.1//EN"
 "http://www.w3.org/Graphics/SVG/1.1/DTD/svg11.dtd">
<!-- Generated by graphviz version 12.2.0 (20241103.1931)
 -->
<!-- Title: fsfml::separateElementX Pages: 1 -->
<svg width="560pt" height="66pt"
 viewBox="0.00 0.00 560.25 66.00" xmlns="http://www.w3.org/2000/svg" xmlns:xlink="http://www.w3.org/1999/xlink">
<g id="graph0" class="graph" transform="scale(1 1) rotate(0) translate(4 62)">
<title>fsfml::separateElementX</title>
<!-- Node1 -->
<g id="Node000001" class="node">
<title>Node1</title>
<g id="a_Node000001"><a xlink:title=" ">
<polygon fill="#999999" stroke="#666666" points="552.25,-39 428.25,-39 428.25,-19 552.25,-19 552.25,-39"/>
<text text-anchor="middle" x="490.25" y="-25.5" font-family="Helvetica,sans-Serif" font-size="10.00">fsfml::separateElementX</text>
</a>
</g>
</g>
<!-- Node2 -->
<g id="Node000002" class="node">
<title>Node2</title>
<g id="a_Node000002"><a xlink:href="$classfsfml.html#aaedb2c3e71e110318848a8ccc956a2e2" xlink:title=" ">
<polygon fill="white" stroke="#666666" points="392.25,-58 290.75,-58 290.75,-38 392.25,-38 392.25,-58"/>
<text text-anchor="middle" x="341.5" y="-44.5" font-family="Helvetica,sans-Serif" font-size="10.00">fsfml::autoSeparate</text>
</a>
</g>
</g>
<!-- Node1&#45;&gt;Node2 -->
<g id="edge5_Node000001_Node000002" class="edge">
<title>Node1&#45;&gt;Node2</title>
<g id="a_edge5_Node000001_Node000002"><a xlink:title=" ">
<path fill="none" stroke="#63b8ff" d="M416.45,-38.42C408.35,-39.47 400.24,-40.52 392.51,-41.53"/>
<polygon fill="#63b8ff" stroke="#63b8ff" points="416.9,-41.9 426.36,-37.14 416,-34.96 416.9,-41.9"/>
</a>
</g>
</g>
<!-- Node5 -->
<g id="Node000005" class="node">
<title>Node5</title>
<g id="a_Node000005"><a xlink:href="$classfsfml.html#ad8cb433f89e4fe31c8fc87e912853963" xlink:title=" ">
<polygon fill="white" stroke="#666666" points="379.12,-20 303.88,-20 303.88,0 379.12,0 379.12,-20"/>
<text text-anchor="middle" x="341.5" y="-6.5" font-family="Helvetica,sans-Serif" font-size="10.00">fsfml::setLine</text>
</a>
</g>
</g>
<!-- Node1&#45;&gt;Node5 -->
<g id="edge8_Node000001_Node000005" class="edge">
<title>Node1&#45;&gt;Node5</title>
<g id="a_edge8_Node000001_Node000005"><a xlink:title=" ">
<path fill="none" stroke="#63b8ff" d="M416.57,-19.59C403.66,-17.92 390.72,-16.24 379.35,-14.77"/>
<polygon fill="#63b8ff" stroke="#63b8ff" points="416,-23.04 426.36,-20.86 416.9,-16.1 416,-23.04"/>
</a>
</g>
</g>
<!-- Node3 -->
<g id="Node000003" class="node">
<title>Node3</title>
<g id="a_Node000003"><a xlink:href="$classfsfml.html#a6b4ab16d375ff176a0533dccdc09fc20" xlink:title=" ">
<polygon fill="white" stroke="#666666" points="254.75,-58 160.75,-58 160.75,-38 254.75,-38 254.75,-58"/>
<text text-anchor="middle" x="207.75" y="-44.5" font-family="Helvetica,sans-Serif" font-size="10.00">fsfml::PanelEvent</text>
</a>
</g>
</g>
<!-- Node2&#45;&gt;Node3 -->
<g id="edge6_Node000002_Node000003" class="edge">
<title>Node2&#45;&gt;Node3</title>
<g id="a_edge6_Node000002_Node000003"><a xlink:title=" ">
<path fill="none" stroke="#63b8ff" d="M278.97,-48C270.87,-48 262.68,-48 254.9,-48"/>
<polygon fill="#63b8ff" stroke="#63b8ff" points="278.8,-51.5 288.8,-48 278.8,-44.5 278.8,-51.5"/>
</a>
</g>
</g>
<!-- Node4 -->
<g id="Node000004" class="node">
<title>Node4</title>
<g id="a_Node000004"><a xlink:href="$classfsfml.html#ad0c2351c234aa59ef60b2c38b5fe5dd9" xlink:title=" ">
<polygon fill="white" stroke="#666666" points="124.75,-58 0,-58 0,-38 124.75,-38 124.75,-58"/>
<text text-anchor="middle" x="62.38" y="-44.5" font-family="Helvetica,sans-Serif" font-size="10.00">fsfml::handleActivePanel</text>
</a>
</g>
</g>
<!-- Node3&#45;&gt;Node4 -->
<g id="edge7_Node000003_Node000004" class="edge">
<title>Node3&#45;&gt;Node4</title>
<g id="a_edge7_Node000003_Node000004"><a xlink:title=" ">
<path fill="none" stroke="#63b8ff" d="M149.21,-48C141.29,-48 133.13,-48 125.13,-48"/>
<polygon fill="#63b8ff" stroke="#63b8ff" points="149.08,-51.5 159.08,-48 149.08,-44.5 149.08,-51.5"/>
</a>
</g>
</g>
</g>
</svg>
