<?xml version="1.0" encoding="UTF-8" standalone="no"?>
<!DOCTYPE svg PUBLIC "-//W3C//DTD SVG 1.1//EN"
 "http://www.w3.org/Graphics/SVG/1.1/DTD/svg11.dtd">
<!-- Generated by graphviz version 12.2.0 (20241103.1931)
 -->
<!-- Title: CompareToken::CompareToken Pages: 1 -->
<svg width="632pt" height="40pt"
 viewBox="0.00 0.00 632.25 40.00" xmlns="http://www.w3.org/2000/svg" xmlns:xlink="http://www.w3.org/1999/xlink">
<g id="graph0" class="graph" transform="scale(1 1) rotate(0) translate(4 36)">
<title>CompareToken::CompareToken</title>
<!-- Node1 -->
<g id="Node000001" class="node">
<title>Node1</title>
<g id="a_Node000001"><a xlink:title=" ">
<polygon fill="#999999" stroke="#666666" points="154,-26 0,-26 0,-6 154,-6 154,-26"/>
<text text-anchor="middle" x="77" y="-12.5" font-family="Helvetica,sans-Serif" font-size="10.00">CompareToken::CompareToken</text>
</a>
</g>
</g>
<!-- Node2 -->
<g id="Node000002" class="node">
<title>Node2</title>
<g id="a_Node000002"><a xlink:href="$class_compare_token.html#a518feb2d1f82dab200d49538bd303ad7" xlink:title=" ">
<polygon fill="white" stroke="#666666" points="335.75,-26 190,-26 190,-6 335.75,-6 335.75,-26"/>
<text text-anchor="middle" x="262.88" y="-12.5" font-family="Helvetica,sans-Serif" font-size="10.00">CompareToken::setOverloads</text>
</a>
</g>
</g>
<!-- Node1&#45;&gt;Node2 -->
<g id="edge4_Node000001_Node000002" class="edge">
<title>Node1&#45;&gt;Node2</title>
<g id="a_edge4_Node000001_Node000002"><a xlink:title=" ">
<path fill="none" stroke="#63b8ff" d="M154.38,-16C162.2,-16 170.18,-16 178.08,-16"/>
<polygon fill="#63b8ff" stroke="#63b8ff" points="178.05,-19.5 188.05,-16 178.05,-12.5 178.05,-19.5"/>
</a>
</g>
</g>
<!-- Node3 -->
<g id="Node000003" class="node">
<title>Node3</title>
<g id="a_Node000003"><a xlink:href="$class_arguments_overload.html#a17fba6858e03080178ab2cf098861e5f" xlink:title=" ">
<polygon fill="white" stroke="#666666" points="480,-32 371.75,-32 371.75,0 480,0 480,-32"/>
<text text-anchor="start" x="379.75" y="-18.5" font-family="Helvetica,sans-Serif" font-size="10.00">ArgumentsOverload::</text>
<text text-anchor="middle" x="425.88" y="-6.5" font-family="Helvetica,sans-Serif" font-size="10.00">addArgs</text>
</a>
</g>
</g>
<!-- Node2&#45;&gt;Node3 -->
<g id="edge5_Node000002_Node000003" class="edge">
<title>Node2&#45;&gt;Node3</title>
<g id="a_edge5_Node000002_Node000003"><a xlink:title=" ">
<path fill="none" stroke="#63b8ff" d="M335.9,-16C343.89,-16 351.99,-16 359.88,-16"/>
<polygon fill="#63b8ff" stroke="#63b8ff" points="359.75,-19.5 369.75,-16 359.75,-12.5 359.75,-19.5"/>
</a>
</g>
</g>
<!-- Node4 -->
<g id="Node000004" class="node">
<title>Node4</title>
<g id="a_Node000004"><a xlink:href="$class_arguments_overload.html#a1dfc9815d235cec325412121bea6b559" xlink:title=" ">
<polygon fill="white" stroke="#666666" points="624.25,-32 516,-32 516,0 624.25,0 624.25,-32"/>
<text text-anchor="start" x="524" y="-18.5" font-family="Helvetica,sans-Serif" font-size="10.00">ArgumentsOverload::</text>
<text text-anchor="middle" x="570.12" y="-6.5" font-family="Helvetica,sans-Serif" font-size="10.00">isPresent</text>
</a>
</g>
</g>
<!-- Node3&#45;&gt;Node4 -->
<g id="edge6_Node000003_Node000004" class="edge">
<title>Node3&#45;&gt;Node4</title>
<g id="a_edge6_Node000003_Node000004"><a xlink:title=" ">
<path fill="none" stroke="#63b8ff" d="M480.25,-16C488.18,-16 496.42,-16 504.55,-16"/>
<polygon fill="#63b8ff" stroke="#63b8ff" points="504.41,-19.5 514.41,-16 504.41,-12.5 504.41,-19.5"/>
</a>
</g>
</g>
</g>
</svg>
