<?xml version="1.0" encoding="UTF-8" standalone="no"?>
<!DOCTYPE svg PUBLIC "-//W3C//DTD SVG 1.1//EN"
 "http://www.w3.org/Graphics/SVG/1.1/DTD/svg11.dtd">
<!-- Generated by graphviz version 12.2.0 (20241103.1931)
 -->
<!-- Title: BMPKToken::setOverloads Pages: 1 -->
<svg width="431pt" height="40pt"
 viewBox="0.00 0.00 431.00 40.00" xmlns="http://www.w3.org/2000/svg" xmlns:xlink="http://www.w3.org/1999/xlink">
<g id="graph0" class="graph" transform="scale(1 1) rotate(0) translate(4 36)">
<title>BMPKToken::setOverloads</title>
<!-- Node1 -->
<g id="Node000001" class="node">
<title>Node1</title>
<g id="a_Node000001"><a xlink:title=" ">
<polygon fill="#999999" stroke="#666666" points="134.5,-26 0,-26 0,-6 134.5,-6 134.5,-26"/>
<text text-anchor="middle" x="67.25" y="-12.5" font-family="Helvetica,sans-Serif" font-size="10.00">BMPKToken::setOverloads</text>
</a>
</g>
</g>
<!-- Node2 -->
<g id="Node000002" class="node">
<title>Node2</title>
<g id="a_Node000002"><a xlink:href="$class_arguments_overload.html#a17fba6858e03080178ab2cf098861e5f" xlink:title=" ">
<polygon fill="white" stroke="#666666" points="278.75,-32 170.5,-32 170.5,0 278.75,0 278.75,-32"/>
<text text-anchor="start" x="178.5" y="-18.5" font-family="Helvetica,sans-Serif" font-size="10.00">ArgumentsOverload::</text>
<text text-anchor="middle" x="224.62" y="-6.5" font-family="Helvetica,sans-Serif" font-size="10.00">addArgs</text>
</a>
</g>
</g>
<!-- Node1&#45;&gt;Node2 -->
<g id="edge3_Node000001_Node000002" class="edge">
<title>Node1&#45;&gt;Node2</title>
<g id="a_edge3_Node000001_Node000002"><a xlink:title=" ">
<path fill="none" stroke="#63b8ff" d="M134.59,-16C142.57,-16 150.72,-16 158.68,-16"/>
<polygon fill="#63b8ff" stroke="#63b8ff" points="158.65,-19.5 168.65,-16 158.65,-12.5 158.65,-19.5"/>
</a>
</g>
</g>
<!-- Node3 -->
<g id="Node000003" class="node">
<title>Node3</title>
<g id="a_Node000003"><a xlink:href="$class_arguments_overload.html#a1dfc9815d235cec325412121bea6b559" xlink:title=" ">
<polygon fill="white" stroke="#666666" points="423,-32 314.75,-32 314.75,0 423,0 423,-32"/>
<text text-anchor="start" x="322.75" y="-18.5" font-family="Helvetica,sans-Serif" font-size="10.00">ArgumentsOverload::</text>
<text text-anchor="middle" x="368.88" y="-6.5" font-family="Helvetica,sans-Serif" font-size="10.00">isPresent</text>
</a>
</g>
</g>
<!-- Node2&#45;&gt;Node3 -->
<g id="edge4_Node000002_Node000003" class="edge">
<title>Node2&#45;&gt;Node3</title>
<g id="a_edge4_Node000002_Node000003"><a xlink:title=" ">
<path fill="none" stroke="#63b8ff" d="M279,-16C286.93,-16 295.17,-16 303.3,-16"/>
<polygon fill="#63b8ff" stroke="#63b8ff" points="303.16,-19.5 313.16,-16 303.16,-12.5 303.16,-19.5"/>
</a>
</g>
</g>
</g>
</svg>
