<?xml version="1.0" encoding="UTF-8" standalone="no"?>
<!DOCTYPE svg PUBLIC "-//W3C//DTD SVG 1.1//EN"
 "http://www.w3.org/Graphics/SVG/1.1/DTD/svg11.dtd">
<!-- Generated by graphviz version 12.2.0 (20241103.1931)
 -->
<!-- Title: EmptyPanel::clone Pages: 1 -->
<svg width="1540pt" height="574pt"
 viewBox="0.00 0.00 1539.75 574.00" xmlns="http://www.w3.org/2000/svg" xmlns:xlink="http://www.w3.org/1999/xlink">
<g id="graph0" class="graph" transform="scale(1 1) rotate(0) translate(4 570)">
<title>EmptyPanel::clone</title>
<!-- Node1 -->
<g id="Node000001" class="node">
<title>Node1</title>
<g id="a_Node000001"><a xlink:title=" ">
<polygon fill="#999999" stroke="#666666" points="98.5,-182 0,-182 0,-162 98.5,-162 98.5,-182"/>
<text text-anchor="middle" x="49.25" y="-168.5" font-family="Helvetica,sans-Serif" font-size="10.00">EmptyPanel::clone</text>
</a>
</g>
</g>
<!-- Node2 -->
<g id="Node000002" class="node">
<title>Node2</title>
<g id="a_Node000002"><a xlink:href="$class_empty_panel.html#a0baae08fda35c8d8565e7fe6dc8846ca" xlink:title=" ">
<polygon fill="white" stroke="#666666" points="263,-182 134.5,-182 134.5,-162 263,-162 263,-182"/>
<text text-anchor="middle" x="198.75" y="-168.5" font-family="Helvetica,sans-Serif" font-size="10.00">EmptyPanel::EmptyPanel</text>
</a>
</g>
</g>
<!-- Node1&#45;&gt;Node2 -->
<g id="edge41_Node000001_Node000002" class="edge">
<title>Node1&#45;&gt;Node2</title>
<g id="a_edge41_Node000001_Node000002"><a xlink:title=" ">
<path fill="none" stroke="#63b8ff" d="M98.96,-172C106.6,-172 114.65,-172 122.72,-172"/>
<polygon fill="#63b8ff" stroke="#63b8ff" points="122.59,-175.5 132.59,-172 122.59,-168.5 122.59,-175.5"/>
</a>
</g>
</g>
<!-- Node3 -->
<g id="Node000003" class="node">
<title>Node3</title>
<g id="a_Node000003"><a xlink:href="$class_tag_panel.html#a4fcedad553eb65983ba7a8da2d5895f3" xlink:title=" ">
<polygon fill="white" stroke="#666666" points="374.25,-182 299,-182 299,-162 374.25,-162 374.25,-182"/>
<text text-anchor="middle" x="336.62" y="-168.5" font-family="Helvetica,sans-Serif" font-size="10.00">TagPanel::init</text>
</a>
</g>
</g>
<!-- Node2&#45;&gt;Node3 -->
<g id="edge42_Node000002_Node000003" class="edge">
<title>Node2&#45;&gt;Node3</title>
<g id="a_edge42_Node000002_Node000003"><a xlink:title=" ">
<path fill="none" stroke="#63b8ff" d="M263.31,-172C271.38,-172 279.54,-172 287.32,-172"/>
<polygon fill="#63b8ff" stroke="#63b8ff" points="287.26,-175.5 297.26,-172 287.26,-168.5 287.26,-175.5"/>
</a>
</g>
</g>
<!-- Node4 -->
<g id="Node000004" class="node">
<title>Node4</title>
<g id="a_Node000004"><a xlink:href="$class_tag_panel.html#a75a1eb94084fc21b1e50322a1c385733" xlink:title=" ">
<polygon fill="white" stroke="#666666" points="544,-333 410.25,-333 410.25,-313 544,-313 544,-333"/>
<text text-anchor="middle" x="477.12" y="-319.5" font-family="Helvetica,sans-Serif" font-size="10.00">TagPanel::addComponents</text>
</a>
</g>
</g>
<!-- Node3&#45;&gt;Node4 -->
<g id="edge43_Node000003_Node000004" class="edge">
<title>Node3&#45;&gt;Node4</title>
<g id="a_edge43_Node000003_Node000004"><a xlink:title=" ">
<path fill="none" stroke="#63b8ff" d="M343.22,-182.31C354.25,-202.02 380.35,-245.79 410.25,-276 421.71,-287.58 436.31,-298.32 448.85,-306.59"/>
<polygon fill="#63b8ff" stroke="#63b8ff" points="446.78,-309.43 457.09,-311.86 450.55,-303.53 446.78,-309.43"/>
</a>
</g>
</g>
<!-- Node20 -->
<g id="Node000020" class="node">
<title>Node20</title>
<g id="a_Node000020"><a xlink:href="$class_tag_panel.html#a2974706b1d2a79806571fbebd1f7d56b" xlink:title=" ">
<polygon fill="white" stroke="#666666" points="528.62,-267 425.62,-267 425.62,-247 528.62,-247 528.62,-267"/>
<text text-anchor="middle" x="477.12" y="-253.5" font-family="Helvetica,sans-Serif" font-size="10.00">TagPanel::initSizers</text>
</a>
</g>
</g>
<!-- Node3&#45;&gt;Node20 -->
<g id="edge66_Node000003_Node000020" class="edge">
<title>Node3&#45;&gt;Node20</title>
<g id="a_edge66_Node000003_Node000020"><a xlink:title=" ">
<path fill="none" stroke="#63b8ff" d="M354.61,-182.42C378.41,-197.03 421.91,-223.73 449.89,-240.9"/>
<polygon fill="#63b8ff" stroke="#63b8ff" points="447.79,-243.72 458.15,-245.97 451.45,-237.75 447.79,-243.72"/>
</a>
</g>
</g>
<!-- Node24 -->
<g id="Node000024" class="node">
<title>Node24</title>
<g id="a_Node000024"><a xlink:href="$class_tag_panel.html#a746b3898803ea72e2a7500d7ed73d9ce" xlink:title=" ">
<polygon fill="white" stroke="#666666" points="529.38,-182 424.88,-182 424.88,-162 529.38,-162 529.38,-182"/>
<text text-anchor="middle" x="477.12" y="-168.5" font-family="Helvetica,sans-Serif" font-size="10.00">TagPanel::setColors</text>
</a>
</g>
</g>
<!-- Node3&#45;&gt;Node24 -->
<g id="edge70_Node000003_Node000024" class="edge">
<title>Node3&#45;&gt;Node24</title>
<g id="a_edge70_Node000003_Node000024"><a xlink:title=" ">
<path fill="none" stroke="#63b8ff" d="M374.74,-172C386.58,-172 400.02,-172 413.17,-172"/>
<polygon fill="#63b8ff" stroke="#63b8ff" points="413.07,-175.5 423.07,-172 413.07,-168.5 413.07,-175.5"/>
</a>
</g>
</g>
<!-- Node27 -->
<g id="Node000027" class="node">
<title>Node27</title>
<g id="a_Node000027"><a xlink:href="$class_tag_panel.html#a370e5a7a79772ae4775f24de35506582" xlink:title=" ">
<polygon fill="white" stroke="#666666" points="541.75,-125 412.5,-125 412.5,-105 541.75,-105 541.75,-125"/>
<text text-anchor="middle" x="477.12" y="-111.5" font-family="Helvetica,sans-Serif" font-size="10.00">TagPanel::setPaintEvents</text>
</a>
</g>
</g>
<!-- Node3&#45;&gt;Node27 -->
<g id="edge73_Node000003_Node000027" class="edge">
<title>Node3&#45;&gt;Node27</title>
<g id="a_edge73_Node000003_Node000027"><a xlink:title=" ">
<path fill="none" stroke="#63b8ff" d="M363.03,-161.55C384.7,-152.63 416.1,-139.7 440.32,-129.74"/>
<polygon fill="#63b8ff" stroke="#63b8ff" points="441.57,-133.01 449.48,-125.96 438.9,-126.53 441.57,-133.01"/>
</a>
</g>
</g>
<!-- Node33 -->
<g id="Node000033" class="node">
<title>Node33</title>
<g id="a_Node000033"><a xlink:href="$class_tag_panel.html#aa65c4779bd09af4389b2ca49e6ea4136" xlink:title=" ">
<polygon fill="white" stroke="#666666" points="536.12,-49 418.12,-49 418.12,-29 536.12,-29 536.12,-49"/>
<text text-anchor="middle" x="477.12" y="-35.5" font-family="Helvetica,sans-Serif" font-size="10.00">TagPanel::setTagName</text>
</a>
</g>
</g>
<!-- Node3&#45;&gt;Node33 -->
<g id="edge79_Node000003_Node000033" class="edge">
<title>Node3&#45;&gt;Node33</title>
<g id="a_edge79_Node000003_Node000033"><a xlink:title=" ">
<path fill="none" stroke="#63b8ff" d="M346.74,-161.87C360.22,-147.02 386.45,-118.65 410.25,-96 424.71,-82.24 441.76,-67.52 454.9,-56.49"/>
<polygon fill="#63b8ff" stroke="#63b8ff" points="457.07,-59.23 462.51,-50.14 452.59,-53.85 457.07,-59.23"/>
</a>
</g>
</g>
<!-- Node5 -->
<g id="Node000005" class="node">
<title>Node5</title>
<g id="a_Node000005"><a xlink:href="$class_tag_panel.html#a6e53bfa1e9893d31775867a4f0c7c749" xlink:title=" ">
<polygon fill="white" stroke="#666666" points="711.12,-362 601.38,-362 601.38,-342 711.12,-342 711.12,-362"/>
<text text-anchor="middle" x="656.25" y="-348.5" font-family="Helvetica,sans-Serif" font-size="10.00">TagPanel::setTagLine</text>
</a>
</g>
</g>
<!-- Node4&#45;&gt;Node5 -->
<g id="edge44_Node000004_Node000005" class="edge">
<title>Node4&#45;&gt;Node5</title>
<g id="a_edge44_Node000004_Node000005"><a xlink:title=" ">
<path fill="none" stroke="#63b8ff" d="M542.07,-333.47C557.62,-336.02 574.27,-338.74 589.88,-341.3"/>
<polygon fill="#63b8ff" stroke="#63b8ff" points="589.11,-344.72 599.55,-342.88 590.24,-337.81 589.11,-344.72"/>
</a>
</g>
</g>
<!-- Node6 -->
<g id="Node000006" class="node">
<title>Node6</title>
<g id="a_Node000006"><a xlink:href="$class_tag_panel.html#aaa6f2d383b2380c7c103b5019bd05782" xlink:title=" ">
<polygon fill="white" stroke="#666666" points="892.88,-409 787.62,-409 787.62,-389 892.88,-389 892.88,-409"/>
<text text-anchor="middle" x="840.25" y="-395.5" font-family="Helvetica,sans-Serif" font-size="10.00">TagPanel::addMover</text>
</a>
</g>
</g>
<!-- Node5&#45;&gt;Node6 -->
<g id="edge45_Node000005_Node000006" class="edge">
<title>Node5&#45;&gt;Node6</title>
<g id="a_edge45_Node000005_Node000006"><a xlink:title=" ">
<path fill="none" stroke="#63b8ff" d="M697.64,-362.43C724.18,-369.28 759.13,-378.31 787.67,-385.68"/>
<polygon fill="#63b8ff" stroke="#63b8ff" points="786.63,-389.03 797.19,-388.14 788.38,-382.25 786.63,-389.03"/>
</a>
</g>
</g>
<!-- Node16 -->
<g id="Node000016" class="node">
<title>Node16</title>
<g id="a_Node000016"><a xlink:href="$class_tag_panel.html#ab2f6c36e777443dcffd1cff986027790" xlink:title=" ">
<polygon fill="white" stroke="#666666" points="904.5,-362 776,-362 776,-342 904.5,-342 904.5,-362"/>
<text text-anchor="middle" x="840.25" y="-348.5" font-family="Helvetica,sans-Serif" font-size="10.00">TagPanel::initDeletePanel</text>
</a>
</g>
</g>
<!-- Node5&#45;&gt;Node16 -->
<g id="edge60_Node000005_Node000016" class="edge">
<title>Node5&#45;&gt;Node16</title>
<g id="a_edge60_Node000005_Node000016"><a xlink:title=" ">
<path fill="none" stroke="#63b8ff" d="M711.36,-352C727.95,-352 746.51,-352 764.23,-352"/>
<polygon fill="#63b8ff" stroke="#63b8ff" points="764.22,-355.5 774.22,-352 764.22,-348.5 764.22,-355.5"/>
</a>
</g>
</g>
<!-- Node18 -->
<g id="Node000018" class="node">
<title>Node18</title>
<g id="a_Node000018"><a xlink:href="$class_tag_panel.html#a01e839de7aa3bedbe9a7bc1f152a02f8" xlink:title=" ">
<polygon fill="white" stroke="#666666" points="912,-305 768.5,-305 768.5,-285 912,-285 912,-305"/>
<text text-anchor="middle" x="840.25" y="-291.5" font-family="Helvetica,sans-Serif" font-size="10.00">TagPanel::setStaticTagName</text>
</a>
</g>
</g>
<!-- Node5&#45;&gt;Node18 -->
<g id="edge64_Node000005_Node000018" class="edge">
<title>Node5&#45;&gt;Node18</title>
<g id="a_edge64_Node000005_Node000018"><a xlink:title=" ">
<path fill="none" stroke="#63b8ff" d="M701.61,-341.54C711.81,-338.93 722.57,-336.01 732.5,-333 755.69,-325.96 781.28,-316.9 801.59,-309.39"/>
<polygon fill="#63b8ff" stroke="#63b8ff" points="802.72,-312.7 810.86,-305.93 800.27,-306.14 802.72,-312.7"/>
</a>
</g>
</g>
<!-- Node7 -->
<g id="Node000007" class="node">
<title>Node7</title>
<g id="a_Node000007"><a xlink:href="$class_tag_panel.html#a33ffecd8625bc7e0783d208d8d18daf7" xlink:title=" ">
<polygon fill="white" stroke="#666666" points="1095.25,-509 948,-509 948,-489 1095.25,-489 1095.25,-509"/>
<text text-anchor="middle" x="1021.62" y="-495.5" font-family="Helvetica,sans-Serif" font-size="10.00">TagPanel::OnMoveDownClick</text>
</a>
</g>
</g>
<!-- Node6&#45;&gt;Node7 -->
<g id="edge46_Node000006_Node000007" class="edge">
<title>Node6&#45;&gt;Node7</title>
<g id="a_edge46_Node000006_Node000007"><a xlink:title=" ">
<path fill="none" stroke="#63b8ff" d="M859.77,-409.33C891.19,-426.84 955.13,-462.49 992.23,-483.17"/>
<polygon fill="#63b8ff" stroke="#63b8ff" points="990.18,-486.03 1000.61,-487.84 993.58,-479.92 990.18,-486.03"/>
</a>
</g>
</g>
<!-- Node12 -->
<g id="Node000012" class="node">
<title>Node12</title>
<g id="a_Node000012"><a xlink:href="$class_tag_panel.html#a4ddfadd1d39efac7f0123146fc9f8233" xlink:title=" ">
<polygon fill="white" stroke="#666666" points="1088.88,-414 954.38,-414 954.38,-394 1088.88,-394 1088.88,-414"/>
<text text-anchor="middle" x="1021.62" y="-400.5" font-family="Helvetica,sans-Serif" font-size="10.00">TagPanel::OnMoveUpClick</text>
</a>
</g>
</g>
<!-- Node6&#45;&gt;Node12 -->
<g id="edge53_Node000006_Node000012" class="edge">
<title>Node6&#45;&gt;Node12</title>
<g id="a_edge53_Node000006_Node000012"><a xlink:title=" ">
<path fill="none" stroke="#63b8ff" d="M893.13,-400.45C908.6,-400.88 925.91,-401.36 942.66,-401.83"/>
<polygon fill="#63b8ff" stroke="#63b8ff" points="942.53,-405.32 952.62,-402.1 942.72,-398.33 942.53,-405.32"/>
</a>
</g>
</g>
<!-- Node15 -->
<g id="Node000015" class="node">
<title>Node15</title>
<g id="a_Node000015"><a xlink:href="$class_tag_panel.html#a43c96ffa9523c002fb96126500209ce8" xlink:title=" ">
<polygon fill="white" stroke="#666666" points="1079.12,-376 964.12,-376 964.12,-356 1079.12,-356 1079.12,-376"/>
<text text-anchor="middle" x="1021.62" y="-362.5" font-family="Helvetica,sans-Serif" font-size="10.00">TagPanel::SetLineFont</text>
</a>
</g>
</g>
<!-- Node6&#45;&gt;Node15 -->
<g id="edge59_Node000006_Node000015" class="edge">
<title>Node6&#45;&gt;Node15</title>
<g id="a_edge59_Node000006_Node000015"><a xlink:title=" ">
<path fill="none" stroke="#63b8ff" d="M893.13,-389.46C911.73,-386.03 932.98,-382.12 952.73,-378.49"/>
<polygon fill="#63b8ff" stroke="#63b8ff" points="953.14,-381.97 962.35,-376.72 951.88,-375.09 953.14,-381.97"/>
</a>
</g>
</g>
<!-- Node8 -->
<g id="Node000008" class="node">
<title>Node8</title>
<g id="a_Node000008"><a xlink:href="$class_tag_panel.html#aefc411bf7be4bd7fd05b3e8a48a6671f" xlink:title=" ">
<polygon fill="white" stroke="#666666" points="1253.75,-566 1141,-566 1141,-546 1253.75,-546 1253.75,-566"/>
<text text-anchor="middle" x="1197.38" y="-552.5" font-family="Helvetica,sans-Serif" font-size="10.00">TagPanel::getNextTag</text>
</a>
</g>
</g>
<!-- Node7&#45;&gt;Node8 -->
<g id="edge47_Node000007_Node000008" class="edge">
<title>Node7&#45;&gt;Node8</title>
<g id="a_edge47_Node000007_Node000008"><a xlink:title=" ">
<path fill="none" stroke="#63b8ff" d="M1054.49,-509.45C1082.33,-518.59 1122.96,-531.92 1153.61,-541.97"/>
<polygon fill="#63b8ff" stroke="#63b8ff" points="1152.38,-545.25 1162.98,-545.04 1154.57,-538.6 1152.38,-545.25"/>
</a>
</g>
</g>
<!-- Node9 -->
<g id="Node000009" class="node">
<title>Node9</title>
<g id="a_Node000009"><a xlink:href="$_tag_panel_8cpp.html#a2f4c4fdbb29d8e8fadcbbd9673b3c370" xlink:title=" ">
<polygon fill="white" stroke="#666666" points="1375.5,-452 1299.5,-452 1299.5,-432 1375.5,-432 1375.5,-452"/>
<text text-anchor="middle" x="1337.5" y="-438.5" font-family="Helvetica,sans-Serif" font-size="10.00">GetParentTag</text>
</a>
</g>
</g>
<!-- Node7&#45;&gt;Node9 -->
<g id="edge50_Node000007_Node000009" class="edge">
<title>Node7&#45;&gt;Node9</title>
<g id="a_edge50_Node000007_Node000009"><a xlink:title=" ">
<path fill="none" stroke="#63b8ff" d="M1081.81,-509.5C1131.68,-515.91 1204.19,-519.41 1263.5,-499 1285.7,-491.36 1306.32,-473.89 1319.95,-460.29"/>
<polygon fill="#63b8ff" stroke="#63b8ff" points="1322.4,-462.79 1326.79,-453.15 1317.34,-457.95 1322.4,-462.79"/>
</a>
</g>
</g>
<!-- Node11 -->
<g id="Node000011" class="node">
<title>Node11</title>
<g id="a_Node000011"><a xlink:href="$class_tag_panel.html#a9a11954167303954710c12832b39fbf4" xlink:title=" ">
<polygon fill="white" stroke="#666666" points="1249.62,-490 1145.12,-490 1145.12,-470 1249.62,-470 1249.62,-490"/>
<text text-anchor="middle" x="1197.38" y="-476.5" font-family="Helvetica,sans-Serif" font-size="10.00">TagPanel::isLastTag</text>
</a>
</g>
</g>
<!-- Node7&#45;&gt;Node11 -->
<g id="edge51_Node000007_Node000011" class="edge">
<title>Node7&#45;&gt;Node11</title>
<g id="a_edge51_Node000007_Node000011"><a xlink:title=" ">
<path fill="none" stroke="#63b8ff" d="M1095.56,-491.02C1108.21,-489.64 1121.27,-488.21 1133.63,-486.86"/>
<polygon fill="#63b8ff" stroke="#63b8ff" points="1133.68,-490.38 1143.24,-485.81 1132.92,-483.42 1133.68,-490.38"/>
</a>
</g>
</g>
<!-- Node8&#45;&gt;Node9 -->
<g id="edge48_Node000008_Node000009" class="edge">
<title>Node8&#45;&gt;Node9</title>
<g id="a_edge48_Node000008_Node000009"><a xlink:title=" ">
<path fill="none" stroke="#63b8ff" d="M1237.28,-545.52C1246.36,-542.06 1255.66,-537.61 1263.5,-532 1289.85,-513.14 1311.94,-482.39 1324.7,-462.17"/>
<polygon fill="#63b8ff" stroke="#63b8ff" points="1327.64,-464.08 1329.86,-453.72 1321.66,-460.43 1327.64,-464.08"/>
</a>
</g>
</g>
<!-- Node10 -->
<g id="Node000010" class="node">
<title>Node10</title>
<g id="a_Node000010"><a xlink:href="$class_tag_panel.html#af3b5b6fc2b16171af7cab7b0d79d9ed7" xlink:title=" ">
<polygon fill="white" stroke="#666666" points="1531.75,-452 1411.5,-452 1411.5,-432 1531.75,-432 1531.75,-452"/>
<text text-anchor="middle" x="1471.62" y="-438.5" font-family="Helvetica,sans-Serif" font-size="10.00">TagPanel::getParentTag</text>
</a>
</g>
</g>
<!-- Node9&#45;&gt;Node10 -->
<g id="edge49_Node000009_Node000010" class="edge">
<title>Node9&#45;&gt;Node10</title>
<g id="a_edge49_Node000009_Node000010"><a xlink:title=" ">
<path fill="none" stroke="#63b8ff" d="M1375.66,-442C1383.21,-442 1391.4,-442 1399.68,-442"/>
<polygon fill="#63b8ff" stroke="#63b8ff" points="1399.49,-445.5 1409.49,-442 1399.49,-438.5 1399.49,-445.5"/>
</a>
</g>
</g>
<!-- Node11&#45;&gt;Node9 -->
<g id="edge52_Node000011_Node000009" class="edge">
<title>Node11&#45;&gt;Node9</title>
<g id="a_edge52_Node000011_Node000009"><a xlink:title=" ">
<path fill="none" stroke="#63b8ff" d="M1236.48,-469.52C1252.6,-465.08 1271.55,-459.87 1288.59,-455.18"/>
<polygon fill="#63b8ff" stroke="#63b8ff" points="1289.3,-458.62 1298.01,-452.59 1287.44,-451.87 1289.3,-458.62"/>
</a>
</g>
</g>
<!-- Node12&#45;&gt;Node9 -->
<g id="edge54_Node000012_Node000009" class="edge">
<title>Node12&#45;&gt;Node9</title>
<g id="a_edge54_Node000012_Node000009"><a xlink:title=" ">
<path fill="none" stroke="#63b8ff" d="M1077.47,-414.48C1094.65,-417.53 1113.7,-420.66 1131.25,-423 1184.63,-430.13 1246.19,-435.44 1287.85,-438.61"/>
<polygon fill="#63b8ff" stroke="#63b8ff" points="1287.58,-442.1 1297.81,-439.35 1288.1,-435.12 1287.58,-442.1"/>
</a>
</g>
</g>
<!-- Node13 -->
<g id="Node000013" class="node">
<title>Node13</title>
<g id="a_Node000013"><a xlink:href="$class_tag_panel.html#a20a4cc67dc3ecd4538cb8af3c9668421" xlink:title=" ">
<polygon fill="white" stroke="#666666" points="1262.38,-414 1132.38,-414 1132.38,-394 1262.38,-394 1262.38,-414"/>
<text text-anchor="middle" x="1197.38" y="-400.5" font-family="Helvetica,sans-Serif" font-size="10.00">TagPanel::getPreviousTag</text>
</a>
</g>
</g>
<!-- Node12&#45;&gt;Node13 -->
<g id="edge55_Node000012_Node000013" class="edge">
<title>Node12&#45;&gt;Node13</title>
<g id="a_edge55_Node000012_Node000013"><a xlink:title=" ">
<path fill="none" stroke="#63b8ff" d="M1089.3,-404C1099.57,-404 1110.22,-404 1120.66,-404"/>
<polygon fill="#63b8ff" stroke="#63b8ff" points="1120.36,-407.5 1130.36,-404 1120.36,-400.5 1120.36,-407.5"/>
</a>
</g>
</g>
<!-- Node14 -->
<g id="Node000014" class="node">
<title>Node14</title>
<g id="a_Node000014"><a xlink:href="$class_tag_panel.html#aa16fddf213851034cb33b775ea653efc" xlink:title=" ">
<polygon fill="white" stroke="#666666" points="1250,-376 1144.75,-376 1144.75,-356 1250,-356 1250,-376"/>
<text text-anchor="middle" x="1197.38" y="-362.5" font-family="Helvetica,sans-Serif" font-size="10.00">TagPanel::isFirstTag</text>
</a>
</g>
</g>
<!-- Node12&#45;&gt;Node14 -->
<g id="edge57_Node000012_Node000014" class="edge">
<title>Node12&#45;&gt;Node14</title>
<g id="a_edge57_Node000012_Node000014"><a xlink:title=" ">
<path fill="none" stroke="#63b8ff" d="M1070.56,-393.52C1091.26,-388.99 1115.68,-383.65 1137.47,-378.88"/>
<polygon fill="#63b8ff" stroke="#63b8ff" points="1138.09,-382.33 1147.11,-376.77 1136.6,-375.49 1138.09,-382.33"/>
</a>
</g>
</g>
<!-- Node13&#45;&gt;Node9 -->
<g id="edge56_Node000013_Node000009" class="edge">
<title>Node13&#45;&gt;Node9</title>
<g id="a_edge56_Node000013_Node000009"><a xlink:title=" ">
<path fill="none" stroke="#63b8ff" d="M1236.48,-414.48C1252.6,-418.92 1271.55,-424.13 1288.59,-428.82"/>
<polygon fill="#63b8ff" stroke="#63b8ff" points="1287.44,-432.13 1298.01,-431.41 1289.3,-425.38 1287.44,-432.13"/>
</a>
</g>
</g>
<!-- Node14&#45;&gt;Node9 -->
<g id="edge58_Node000014_Node000009" class="edge">
<title>Node14&#45;&gt;Node9</title>
<g id="a_edge58_Node000014_Node000009"><a xlink:title=" ">
<path fill="none" stroke="#63b8ff" d="M1242.69,-376.46C1249.83,-378.84 1257,-381.67 1263.5,-385 1283.69,-395.34 1303.8,-411.6 1317.79,-424.11"/>
<polygon fill="#63b8ff" stroke="#63b8ff" points="1315.18,-426.47 1324.92,-430.66 1319.92,-421.32 1315.18,-426.47"/>
</a>
</g>
</g>
<!-- Node16&#45;&gt;Node15 -->
<g id="edge63_Node000016_Node000015" class="edge">
<title>Node16&#45;&gt;Node15</title>
<g id="a_edge63_Node000016_Node000015"><a xlink:title=" ">
<path fill="none" stroke="#63b8ff" d="M905,-356.98C920.39,-358.18 936.9,-359.47 952.49,-360.68"/>
<polygon fill="#63b8ff" stroke="#63b8ff" points="951.9,-364.15 962.14,-361.44 952.44,-357.17 951.9,-364.15"/>
</a>
</g>
</g>
<!-- Node17 -->
<g id="Node000017" class="node">
<title>Node17</title>
<g id="a_Node000017"><a xlink:href="$class_tag_panel.html#a92b74a6332f46423e1509044989a4a0a" xlink:title=" ">
<polygon fill="white" stroke="#666666" points="1263.5,-338 1131.25,-338 1131.25,-306 1263.5,-306 1263.5,-338"/>
<text text-anchor="start" x="1139.25" y="-324.5" font-family="Helvetica,sans-Serif" font-size="10.00">TagPanel::OnDeleteButton</text>
<text text-anchor="middle" x="1197.38" y="-312.5" font-family="Helvetica,sans-Serif" font-size="10.00">Click</text>
</a>
</g>
</g>
<!-- Node16&#45;&gt;Node17 -->
<g id="edge61_Node000016_Node000017" class="edge">
<title>Node16&#45;&gt;Node17</title>
<g id="a_edge61_Node000016_Node000017"><a xlink:title=" ">
<path fill="none" stroke="#63b8ff" d="M904.74,-346.64C964.96,-341.55 1055.55,-333.9 1119.76,-328.47"/>
<polygon fill="#63b8ff" stroke="#63b8ff" points="1119.85,-331.98 1129.52,-327.65 1119.27,-325 1119.85,-331.98"/>
</a>
</g>
</g>
<!-- Node17&#45;&gt;Node9 -->
<g id="edge62_Node000017_Node000009" class="edge">
<title>Node17&#45;&gt;Node9</title>
<g id="a_edge62_Node000017_Node000009"><a xlink:title=" ">
<path fill="none" stroke="#63b8ff" d="M1249.6,-338.48C1254.5,-340.98 1259.23,-343.81 1263.5,-347 1290.76,-367.34 1312.97,-400.45 1325.47,-421.72"/>
<polygon fill="#63b8ff" stroke="#63b8ff" points="1322.37,-423.35 1330.35,-430.32 1328.46,-419.89 1322.37,-423.35"/>
</a>
</g>
</g>
<!-- Node19 -->
<g id="Node000019" class="node">
<title>Node19</title>
<g id="a_Node000019"><a xlink:href="$class_tag_panel.html#af2926b62ee8940d7aa87591255623814" xlink:title=" ">
<polygon fill="white" stroke="#666666" points="1081.75,-300 961.5,-300 961.5,-280 1081.75,-280 1081.75,-300"/>
<text text-anchor="middle" x="1021.62" y="-286.5" font-family="Helvetica,sans-Serif" font-size="10.00">TagPanel::addTagName</text>
</a>
</g>
</g>
<!-- Node18&#45;&gt;Node19 -->
<g id="edge65_Node000018_Node000019" class="edge">
<title>Node18&#45;&gt;Node19</title>
<g id="a_edge65_Node000018_Node000019"><a xlink:title=" ">
<path fill="none" stroke="#63b8ff" d="M912.4,-293.02C924.76,-292.67 937.61,-292.31 949.95,-291.97"/>
<polygon fill="#63b8ff" stroke="#63b8ff" points="949.7,-295.48 959.6,-291.7 949.51,-288.48 949.7,-295.48"/>
</a>
</g>
</g>
<!-- Node21 -->
<g id="Node000021" class="node">
<title>Node21</title>
<g id="a_Node000021"><a xlink:href="$class_tag_panel.html#af74a61159813873c529dbcb17a371a05" xlink:title=" ">
<polygon fill="white" stroke="#666666" points="714.12,-324 598.38,-324 598.38,-304 714.12,-304 714.12,-324"/>
<text text-anchor="middle" x="656.25" y="-310.5" font-family="Helvetica,sans-Serif" font-size="10.00">TagPanel::initLineSizer</text>
</a>
</g>
</g>
<!-- Node20&#45;&gt;Node21 -->
<g id="edge67_Node000020_Node000021" class="edge">
<title>Node20&#45;&gt;Node21</title>
<g id="a_edge67_Node000020_Node000021"><a xlink:title=" ">
<path fill="none" stroke="#63b8ff" d="M503.81,-267.48C524.25,-275.59 553.69,-286.8 580,-295 586.26,-296.95 592.87,-298.85 599.45,-300.64"/>
<polygon fill="#63b8ff" stroke="#63b8ff" points="598.43,-303.99 609,-303.16 600.22,-297.22 598.43,-303.99"/>
</a>
</g>
</g>
<!-- Node22 -->
<g id="Node000022" class="node">
<title>Node22</title>
<g id="a_Node000022"><a xlink:href="$class_tag_panel.html#ae24d607788ed14f2fc8b6a88ff9b7602" xlink:title=" ">
<polygon fill="white" stroke="#666666" points="713,-286 599.5,-286 599.5,-266 713,-266 713,-286"/>
<text text-anchor="middle" x="656.25" y="-272.5" font-family="Helvetica,sans-Serif" font-size="10.00">TagPanel::initTagSizer</text>
</a>
</g>
</g>
<!-- Node20&#45;&gt;Node22 -->
<g id="edge68_Node000020_Node000022" class="edge">
<title>Node20&#45;&gt;Node22</title>
<g id="a_edge68_Node000020_Node000022"><a xlink:title=" ">
<path fill="none" stroke="#63b8ff" d="M528.88,-262.44C547.25,-264.42 568.3,-266.67 587.88,-268.77"/>
<polygon fill="#63b8ff" stroke="#63b8ff" points="587.38,-272.24 597.7,-269.83 588.13,-265.28 587.38,-272.24"/>
</a>
</g>
</g>
<!-- Node23 -->
<g id="Node000023" class="node">
<title>Node23</title>
<g id="a_Node000023"><a xlink:href="$class_tag_panel.html#a99231e365be781b584996e68197621b9" xlink:title=" ">
<polygon fill="white" stroke="#666666" points="713.38,-248 599.12,-248 599.12,-228 713.38,-228 713.38,-248"/>
<text text-anchor="middle" x="656.25" y="-234.5" font-family="Helvetica,sans-Serif" font-size="10.00">TagPanel::setTagSizer</text>
</a>
</g>
</g>
<!-- Node20&#45;&gt;Node23 -->
<g id="edge69_Node000020_Node000023" class="edge">
<title>Node20&#45;&gt;Node23</title>
<g id="a_edge69_Node000020_Node000023"><a xlink:title=" ">
<path fill="none" stroke="#63b8ff" d="M528.88,-251.56C547.17,-249.59 568.1,-247.35 587.6,-245.26"/>
<polygon fill="#63b8ff" stroke="#63b8ff" points="587.81,-248.75 597.38,-244.21 587.07,-241.79 587.81,-248.75"/>
</a>
</g>
</g>
<!-- Node25 -->
<g id="Node000025" class="node">
<title>Node25</title>
<g id="a_Node000025"><a xlink:href="$class_tag_panel.html#a5edee5cee34656fe89fec14f26af0f80" xlink:title=" ">
<polygon fill="white" stroke="#666666" points="718.25,-210 594.25,-210 594.25,-190 718.25,-190 718.25,-210"/>
<text text-anchor="middle" x="656.25" y="-196.5" font-family="Helvetica,sans-Serif" font-size="10.00">TagPanel::setPanelColor</text>
</a>
</g>
</g>
<!-- Node24&#45;&gt;Node25 -->
<g id="edge71_Node000024_Node000025" class="edge">
<title>Node24&#45;&gt;Node25</title>
<g id="a_edge71_Node000024_Node000025"><a xlink:title=" ">
<path fill="none" stroke="#63b8ff" d="M529.83,-180.17C546.33,-182.78 564.9,-185.72 582.6,-188.51"/>
<polygon fill="#63b8ff" stroke="#63b8ff" points="581.85,-191.94 592.28,-190.04 582.94,-185.03 581.85,-191.94"/>
</a>
</g>
</g>
<!-- Node26 -->
<g id="Node000026" class="node">
<title>Node26</title>
<g id="a_Node000026"><a xlink:href="$class_tag_panel.html#a752cdf34c8cc8cc25ecc944683dff46b" xlink:title=" ">
<polygon fill="white" stroke="#666666" points="726.88,-172 585.62,-172 585.62,-152 726.88,-152 726.88,-172"/>
<text text-anchor="middle" x="656.25" y="-158.5" font-family="Helvetica,sans-Serif" font-size="10.00">TagPanel::setTagNameColor</text>
</a>
</g>
</g>
<!-- Node24&#45;&gt;Node26 -->
<g id="edge72_Node000024_Node000026" class="edge">
<title>Node24&#45;&gt;Node26</title>
<g id="a_edge72_Node000024_Node000026"><a xlink:title=" ">
<path fill="none" stroke="#63b8ff" d="M529.83,-169.08C543.67,-168.3 558.96,-167.44 573.97,-166.59"/>
<polygon fill="#63b8ff" stroke="#63b8ff" points="574.07,-170.09 583.86,-166.03 573.67,-163.1 574.07,-170.09"/>
</a>
</g>
</g>
<!-- Node28 -->
<g id="Node000028" class="node">
<title>Node28</title>
<g id="a_Node000028"><a xlink:href="$class_tag_panel.html#a5d57b2c271078562ca65bf9d0f9c656e" xlink:title=" ">
<polygon fill="white" stroke="#666666" points="728.75,-134 583.75,-134 583.75,-114 728.75,-114 728.75,-134"/>
<text text-anchor="middle" x="656.25" y="-120.5" font-family="Helvetica,sans-Serif" font-size="10.00">TagPanel::DrawBordersEvent</text>
</a>
</g>
</g>
<!-- Node27&#45;&gt;Node28 -->
<g id="edge74_Node000027_Node000028" class="edge">
<title>Node27&#45;&gt;Node28</title>
<g id="a_edge74_Node000027_Node000028"><a xlink:title=" ">
<path fill="none" stroke="#63b8ff" d="M542.07,-118.25C551.79,-118.74 561.94,-119.26 572,-119.77"/>
<polygon fill="#63b8ff" stroke="#63b8ff" points="571.61,-123.25 581.77,-120.27 571.97,-116.26 571.61,-123.25"/>
</a>
</g>
</g>
<!-- Node29 -->
<g id="Node000029" class="node">
<title>Node29</title>
<g id="a_Node000029"><a xlink:href="$class_tag_panel.html#a72db5ac659ea9dc41b2a236bd5ff0a12" xlink:title=" ">
<polygon fill="white" stroke="#666666" points="718.25,-96 594.25,-96 594.25,-76 718.25,-76 718.25,-96"/>
<text text-anchor="middle" x="656.25" y="-82.5" font-family="Helvetica,sans-Serif" font-size="10.00">TagPanel::OnHoverPaint</text>
</a>
</g>
</g>
<!-- Node27&#45;&gt;Node29 -->
<g id="edge75_Node000027_Node000029" class="edge">
<title>Node27&#45;&gt;Node29</title>
<g id="a_edge75_Node000027_Node000029"><a xlink:title=" ">
<path fill="none" stroke="#63b8ff" d="M542.07,-104.53C555.23,-102.38 569.18,-100.09 582.62,-97.89"/>
<polygon fill="#63b8ff" stroke="#63b8ff" points="582.97,-101.38 592.27,-96.31 581.84,-94.47 582.97,-101.38"/>
</a>
</g>
</g>
<!-- Node31 -->
<g id="Node000031" class="node">
<title>Node31</title>
<g id="a_Node000031"><a xlink:href="$class_tag_panel.html#af7c491223a887d2ce97353157adc9110" xlink:title=" ">
<polygon fill="white" stroke="#666666" points="706.25,-58 606.25,-58 606.25,-38 706.25,-38 706.25,-58"/>
<text text-anchor="middle" x="656.25" y="-44.5" font-family="Helvetica,sans-Serif" font-size="10.00">TagPanel::OnInsert</text>
</a>
</g>
</g>
<!-- Node27&#45;&gt;Node31 -->
<g id="edge77_Node000027_Node000031" class="edge">
<title>Node27&#45;&gt;Node31</title>
<g id="a_edge77_Node000027_Node000031"><a xlink:title=" ">
<path fill="none" stroke="#63b8ff" d="M497.18,-104.66C517.31,-94.06 550.18,-77.68 580,-67 585.41,-65.06 591.11,-63.24 596.85,-61.56"/>
<polygon fill="#63b8ff" stroke="#63b8ff" points="597.72,-64.95 606.41,-58.89 595.83,-58.21 597.72,-64.95"/>
</a>
</g>
</g>
<!-- Node30 -->
<g id="Node000030" class="node">
<title>Node30</title>
<g id="a_Node000030"><a xlink:href="$class_tag_panel.html#a2968cbcc5c04e34a50085877ddb53f65" xlink:title=" ">
<polygon fill="white" stroke="#666666" points="904.88,-96 775.62,-96 775.62,-76 904.88,-76 904.88,-96"/>
<text text-anchor="middle" x="840.25" y="-82.5" font-family="Helvetica,sans-Serif" font-size="10.00">TagPanel::getPanelColour</text>
</a>
</g>
</g>
<!-- Node29&#45;&gt;Node30 -->
<g id="edge76_Node000029_Node000030" class="edge">
<title>Node29&#45;&gt;Node30</title>
<g id="a_edge76_Node000029_Node000030"><a xlink:title=" ">
<path fill="none" stroke="#63b8ff" d="M718.61,-86C733.17,-86 748.86,-86 763.96,-86"/>
<polygon fill="#63b8ff" stroke="#63b8ff" points="763.84,-89.5 773.84,-86 763.84,-82.5 763.84,-89.5"/>
</a>
</g>
</g>
<!-- Node32 -->
<g id="Node000032" class="node">
<title>Node32</title>
<g id="a_Node000032"><a xlink:href="$class_tag_panel.html#af925f36858bbc30c39bd4716f64822d3" xlink:title=" ">
<polygon fill="white" stroke="#666666" points="909,-58 771.5,-58 771.5,-38 909,-38 909,-58"/>
<text text-anchor="middle" x="840.25" y="-44.5" font-family="Helvetica,sans-Serif" font-size="10.00">TagPanel::updateInsertRect</text>
</a>
</g>
</g>
<!-- Node31&#45;&gt;Node32 -->
<g id="edge78_Node000031_Node000032" class="edge">
<title>Node31&#45;&gt;Node32</title>
<g id="a_edge78_Node000031_Node000032"><a xlink:title=" ">
<path fill="none" stroke="#63b8ff" d="M706.5,-48C722.9,-48 741.61,-48 759.7,-48"/>
<polygon fill="#63b8ff" stroke="#63b8ff" points="759.66,-51.5 769.66,-48 759.66,-44.5 759.66,-51.5"/>
</a>
</g>
</g>
<!-- Node34 -->
<g id="Node000034" class="node">
<title>Node34</title>
<g id="a_Node000034"><a xlink:href="$class_tag_panel.html#adea8840b3b43bfee7f8e090a71dd708c" xlink:title=" ">
<polygon fill="white" stroke="#666666" points="732.5,-20 580,-20 580,0 732.5,0 732.5,-20"/>
<text text-anchor="middle" x="656.25" y="-6.5" font-family="Helvetica,sans-Serif" font-size="10.00">TagPanel::setTagNameCustom</text>
</a>
</g>
</g>
<!-- Node33&#45;&gt;Node34 -->
<g id="edge80_Node000033_Node000034" class="edge">
<title>Node33&#45;&gt;Node34</title>
<g id="a_edge80_Node000033_Node000034"><a xlink:title=" ">
<path fill="none" stroke="#63b8ff" d="M536.61,-29.42C550.59,-27.14 565.69,-24.66 580.29,-22.27"/>
<polygon fill="#63b8ff" stroke="#63b8ff" points="580.53,-25.78 589.84,-20.71 579.4,-18.87 580.53,-25.78"/>
</a>
</g>
</g>
</g>
</svg>
