<?xml version="1.0" encoding="UTF-8" standalone="no"?>
<!DOCTYPE svg PUBLIC "-//W3C//DTD SVG 1.1//EN"
 "http://www.w3.org/Graphics/SVG/1.1/DTD/svg11.dtd">
<!-- Generated by graphviz version 12.2.0 (20241103.1931)
 -->
<!-- Title: FlowTagPanel::cloneChildren Pages: 1 -->
<svg width="332pt" height="104pt"
 viewBox="0.00 0.00 331.75 104.00" xmlns="http://www.w3.org/2000/svg" xmlns:xlink="http://www.w3.org/1999/xlink">
<g id="graph0" class="graph" transform="scale(1 1) rotate(0) translate(4 100)">
<title>FlowTagPanel::cloneChildren</title>
<!-- Node1 -->
<g id="Node000001" class="node">
<title>Node1</title>
<g id="a_Node000001"><a xlink:title=" ">
<polygon fill="#999999" stroke="#666666" points="323.75,-58 181,-58 181,-38 323.75,-38 323.75,-58"/>
<text text-anchor="middle" x="252.38" y="-44.5" font-family="Helvetica,sans-Serif" font-size="10.00">FlowTagPanel::cloneChildren</text>
</a>
</g>
</g>
<!-- Node2 -->
<g id="Node000002" class="node">
<title>Node2</title>
<g id="a_Node000002"><a xlink:href="$class_flow_tag_panel.html#ad022a384de848b36e615014a9f727755" xlink:title=" ">
<polygon fill="white" stroke="#666666" points="145,-96 0,-96 0,-76 145,-76 145,-96"/>
<text text-anchor="middle" x="72.5" y="-82.5" font-family="Helvetica,sans-Serif" font-size="10.00">FlowTagPanel::FlowTagPanel</text>
</a>
</g>
</g>
<!-- Node1&#45;&gt;Node2 -->
<g id="edge4_Node000001_Node000002" class="edge">
<title>Node1&#45;&gt;Node2</title>
<g id="a_edge4_Node000001_Node000002"><a xlink:title=" ">
<path fill="none" stroke="#63b8ff" d="M191.21,-60.85C168.81,-65.64 143.69,-71.01 122.42,-75.55"/>
<polygon fill="#63b8ff" stroke="#63b8ff" points="191.77,-64.31 200.82,-58.8 190.31,-57.47 191.77,-64.31"/>
</a>
</g>
</g>
<!-- Node3 -->
<g id="Node000003" class="node">
<title>Node3</title>
<g id="a_Node000003"><a xlink:href="$class_if_tag_panel.html#ae771ebf0ecffe9a2bf16f02999ef469e" xlink:title=" ">
<polygon fill="white" stroke="#666666" points="130,-58 15,-58 15,-38 130,-38 130,-58"/>
<text text-anchor="middle" x="72.5" y="-44.5" font-family="Helvetica,sans-Serif" font-size="10.00">IfTagPanel::IfTagPanel</text>
</a>
</g>
</g>
<!-- Node1&#45;&gt;Node3 -->
<g id="edge5_Node000001_Node000003" class="edge">
<title>Node1&#45;&gt;Node3</title>
<g id="a_edge5_Node000001_Node000003"><a xlink:title=" ">
<path fill="none" stroke="#63b8ff" d="M169.13,-48C156.03,-48 142.73,-48 130.39,-48"/>
<polygon fill="#63b8ff" stroke="#63b8ff" points="169.05,-51.5 179.05,-48 169.05,-44.5 169.05,-51.5"/>
</a>
</g>
</g>
<!-- Node4 -->
<g id="Node000004" class="node">
<title>Node4</title>
<g id="a_Node000004"><a xlink:href="$class_loop_tag_panel.html#a16b4c63d3e9be7b20a4ef02091f0a993" xlink:title=" ">
<polygon fill="white" stroke="#666666" points="145,-20 0,-20 0,0 145,0 145,-20"/>
<text text-anchor="middle" x="72.5" y="-6.5" font-family="Helvetica,sans-Serif" font-size="10.00">LoopTagPanel::LoopTagPanel</text>
</a>
</g>
</g>
<!-- Node1&#45;&gt;Node4 -->
<g id="edge6_Node000001_Node000004" class="edge">
<title>Node1&#45;&gt;Node4</title>
<g id="a_edge6_Node000001_Node000004"><a xlink:title=" ">
<path fill="none" stroke="#63b8ff" d="M191.21,-35.15C168.81,-30.36 143.69,-24.99 122.42,-20.45"/>
<polygon fill="#63b8ff" stroke="#63b8ff" points="190.31,-38.53 200.82,-37.2 191.77,-31.69 190.31,-38.53"/>
</a>
</g>
</g>
</g>
</svg>
