<?xml version="1.0" encoding="UTF-8" standalone="no"?>
<!DOCTYPE svg PUBLIC "-//W3C//DTD SVG 1.1//EN"
 "http://www.w3.org/Graphics/SVG/1.1/DTD/svg11.dtd">
<!-- Generated by graphviz version 12.2.0 (20241103.1931)
 -->
<!-- Title: fsfml::initGraphics Pages: 1 -->
<svg width="508pt" height="104pt"
 viewBox="0.00 0.00 507.75 104.00" xmlns="http://www.w3.org/2000/svg" xmlns:xlink="http://www.w3.org/1999/xlink">
<g id="graph0" class="graph" transform="scale(1 1) rotate(0) translate(4 100)">
<title>fsfml::initGraphics</title>
<!-- Node1 -->
<g id="Node000001" class="node">
<title>Node1</title>
<g id="a_Node000001"><a xlink:title=" ">
<polygon fill="#999999" stroke="#666666" points="95.5,-39 0,-39 0,-19 95.5,-19 95.5,-39"/>
<text text-anchor="middle" x="47.75" y="-25.5" font-family="Helvetica,sans-Serif" font-size="10.00">fsfml::initGraphics</text>
</a>
</g>
</g>
<!-- Node2 -->
<g id="Node000002" class="node">
<title>Node2</title>
<g id="a_Node000002"><a xlink:href="$classfsfml.html#a5528a53174db6d10551021c4371ead80" xlink:title=" ">
<polygon fill="white" stroke="#666666" points="238.62,-58 134.88,-58 134.88,-38 238.62,-38 238.62,-58"/>
<text text-anchor="middle" x="186.75" y="-44.5" font-family="Helvetica,sans-Serif" font-size="10.00">fsfml::loadAllSprites</text>
</a>
</g>
</g>
<!-- Node1&#45;&gt;Node2 -->
<g id="edge8_Node000001_Node000002" class="edge">
<title>Node1&#45;&gt;Node2</title>
<g id="a_edge8_Node000001_Node000002"><a xlink:title=" ">
<path fill="none" stroke="#63b8ff" d="M95.9,-35.54C104.81,-36.78 114.26,-38.09 123.56,-39.37"/>
<polygon fill="#63b8ff" stroke="#63b8ff" points="122.88,-42.81 133.27,-40.72 123.85,-35.88 122.88,-42.81"/>
</a>
</g>
</g>
<!-- Node6 -->
<g id="Node000006" class="node">
<title>Node6</title>
<g id="a_Node000006"><a xlink:href="$classfsfml.html#a3fc8c544051e5c26bc9376fc255b87a4" xlink:title=" ">
<polygon fill="white" stroke="#666666" points="242,-20 131.5,-20 131.5,0 242,0 242,-20"/>
<text text-anchor="middle" x="186.75" y="-6.5" font-family="Helvetica,sans-Serif" font-size="10.00">fsfml::loadAllTextures</text>
</a>
</g>
</g>
<!-- Node1&#45;&gt;Node6 -->
<g id="edge12_Node000001_Node000006" class="edge">
<title>Node1&#45;&gt;Node6</title>
<g id="a_edge12_Node000001_Node000006"><a xlink:title=" ">
<path fill="none" stroke="#63b8ff" d="M95.9,-22.46C103.77,-21.37 112.07,-20.22 120.3,-19.08"/>
<polygon fill="#63b8ff" stroke="#63b8ff" points="120.53,-22.58 129.95,-17.74 119.57,-15.65 120.53,-22.58"/>
</a>
</g>
</g>
<!-- Node3 -->
<g id="Node000003" class="node">
<title>Node3</title>
<g id="a_Node000003"><a xlink:href="$classfsfml.html#a5baebfef9137bd5f516eea18e45bebe7" xlink:title=" ">
<polygon fill="white" stroke="#666666" points="368.62,-58 281.38,-58 281.38,-38 368.62,-38 368.62,-58"/>
<text text-anchor="middle" x="325" y="-44.5" font-family="Helvetica,sans-Serif" font-size="10.00">fsfml::loadSprite</text>
</a>
</g>
</g>
<!-- Node2&#45;&gt;Node3 -->
<g id="edge9_Node000002_Node000003" class="edge">
<title>Node2&#45;&gt;Node3</title>
<g id="a_edge9_Node000002_Node000003"><a xlink:title=" ">
<path fill="none" stroke="#63b8ff" d="M238.87,-48C248.97,-48 259.59,-48 269.79,-48"/>
<polygon fill="#63b8ff" stroke="#63b8ff" points="269.55,-51.5 279.55,-48 269.55,-44.5 269.55,-51.5"/>
</a>
</g>
</g>
<!-- Node4 -->
<g id="Node000004" class="node">
<title>Node4</title>
<g id="a_Node000004"><a xlink:href="$classfsfml.html#a1855395d90d78b9160203b6b051f46d3" xlink:title=" ">
<polygon fill="white" stroke="#666666" points="496.38,-96 411.38,-96 411.38,-76 496.38,-76 496.38,-96"/>
<text text-anchor="middle" x="453.88" y="-82.5" font-family="Helvetica,sans-Serif" font-size="10.00">fsfml::addSprite</text>
</a>
</g>
</g>
<!-- Node3&#45;&gt;Node4 -->
<g id="edge10_Node000003_Node000004" class="edge">
<title>Node3&#45;&gt;Node4</title>
<g id="a_edge10_Node000003_Node000004"><a xlink:title=" ">
<path fill="none" stroke="#63b8ff" d="M361.01,-58.48C375.29,-62.76 392,-67.77 407.22,-72.33"/>
<polygon fill="#63b8ff" stroke="#63b8ff" points="405.95,-75.6 416.53,-75.12 407.96,-68.89 405.95,-75.6"/>
</a>
</g>
</g>
<!-- Node5 -->
<g id="Node000005" class="node">
<title>Node5</title>
<g id="a_Node000005"><a xlink:href="$classfsfml.html#aaad6a42f269f248954ad4d2e253a65db" xlink:title=" ">
<polygon fill="white" stroke="#666666" points="498.62,-58 409.12,-58 409.12,-38 498.62,-38 498.62,-58"/>
<text text-anchor="middle" x="453.88" y="-44.5" font-family="Helvetica,sans-Serif" font-size="10.00">fsfml::getTexture</text>
</a>
</g>
</g>
<!-- Node3&#45;&gt;Node5 -->
<g id="edge11_Node000003_Node000005" class="edge">
<title>Node3&#45;&gt;Node5</title>
<g id="a_edge11_Node000003_Node000005"><a xlink:title=" ">
<path fill="none" stroke="#63b8ff" d="M368.95,-48C378.05,-48 387.78,-48 397.27,-48"/>
<polygon fill="#63b8ff" stroke="#63b8ff" points="397.15,-51.5 407.15,-48 397.15,-44.5 397.15,-51.5"/>
</a>
</g>
</g>
<!-- Node7 -->
<g id="Node000007" class="node">
<title>Node7</title>
<g id="a_Node000007"><a xlink:href="$classfsfml.html#a85e3525bac516648d01f23a1764087c4" xlink:title=" ">
<polygon fill="white" stroke="#666666" points="372,-20 278,-20 278,0 372,0 372,-20"/>
<text text-anchor="middle" x="325" y="-6.5" font-family="Helvetica,sans-Serif" font-size="10.00">fsfml::loadTexture</text>
</a>
</g>
</g>
<!-- Node6&#45;&gt;Node7 -->
<g id="edge13_Node000006_Node000007" class="edge">
<title>Node6&#45;&gt;Node7</title>
<g id="a_edge13_Node000006_Node000007"><a xlink:title=" ">
<path fill="none" stroke="#63b8ff" d="M242.38,-10C250.24,-10 258.35,-10 266.27,-10"/>
<polygon fill="#63b8ff" stroke="#63b8ff" points="266.17,-13.5 276.17,-10 266.17,-6.5 266.17,-13.5"/>
</a>
</g>
</g>
<!-- Node8 -->
<g id="Node000008" class="node">
<title>Node8</title>
<g id="a_Node000008"><a xlink:href="$classfsfml.html#a1be6e8780abb71f21c69ce8bc3da6bee" xlink:title=" ">
<polygon fill="white" stroke="#666666" points="499.75,-20 408,-20 408,0 499.75,0 499.75,-20"/>
<text text-anchor="middle" x="453.88" y="-6.5" font-family="Helvetica,sans-Serif" font-size="10.00">fsfml::addTexture</text>
</a>
</g>
</g>
<!-- Node7&#45;&gt;Node8 -->
<g id="edge14_Node000007_Node000008" class="edge">
<title>Node7&#45;&gt;Node8</title>
<g id="a_edge14_Node000007_Node000008"><a xlink:title=" ">
<path fill="none" stroke="#63b8ff" d="M372.16,-10C380.06,-10 388.35,-10 396.47,-10"/>
<polygon fill="#63b8ff" stroke="#63b8ff" points="396.29,-13.5 406.29,-10 396.29,-6.5 396.29,-13.5"/>
</a>
</g>
</g>
</g>
</svg>
