<?xml version="1.0" encoding="UTF-8" standalone="no"?>
<!DOCTYPE svg PUBLIC "-//W3C//DTD SVG 1.1//EN"
 "http://www.w3.org/Graphics/SVG/1.1/DTD/svg11.dtd">
<!-- Generated by graphviz version 12.2.0 (20241103.1931)
 -->
<!-- Title: fsfml::addTexture Pages: 1 -->
<svg width="642pt" height="66pt"
 viewBox="0.00 0.00 642.25 66.00" xmlns="http://www.w3.org/2000/svg" xmlns:xlink="http://www.w3.org/1999/xlink">
<g id="graph0" class="graph" transform="scale(1 1) rotate(0) translate(4 62)">
<title>fsfml::addTexture</title>
<!-- Node1 -->
<g id="Node000001" class="node">
<title>Node1</title>
<g id="a_Node000001"><a xlink:title=" ">
<polygon fill="#999999" stroke="#666666" points="634.25,-39 542.5,-39 542.5,-19 634.25,-19 634.25,-39"/>
<text text-anchor="middle" x="588.38" y="-25.5" font-family="Helvetica,sans-Serif" font-size="10.00">fsfml::addTexture</text>
</a>
</g>
</g>
<!-- Node2 -->
<g id="Node000002" class="node">
<title>Node2</title>
<g id="a_Node000002"><a xlink:href="$classfsfml.html#a7473fd3f3ce08ac3e25dc26fad599728" xlink:title=" ">
<polygon fill="white" stroke="#666666" points="506.5,-58 403.5,-58 403.5,-38 506.5,-38 506.5,-58"/>
<text text-anchor="middle" x="455" y="-44.5" font-family="Helvetica,sans-Serif" font-size="10.00">fsfml::createTexture</text>
</a>
</g>
</g>
<!-- Node1&#45;&gt;Node2 -->
<g id="edge6_Node000001_Node000002" class="edge">
<title>Node1&#45;&gt;Node2</title>
<g id="a_edge6_Node000001_Node000002"><a xlink:title=" ">
<path fill="none" stroke="#63b8ff" d="M530.95,-37.16C522.89,-38.33 514.64,-39.52 506.7,-40.67"/>
<polygon fill="#63b8ff" stroke="#63b8ff" points="531.27,-40.65 540.67,-35.76 530.27,-33.72 531.27,-40.65"/>
</a>
</g>
</g>
<!-- Node3 -->
<g id="Node000003" class="node">
<title>Node3</title>
<g id="a_Node000003"><a xlink:href="$classfsfml.html#a85e3525bac516648d01f23a1764087c4" xlink:title=" ">
<polygon fill="white" stroke="#666666" points="502,-20 408,-20 408,0 502,0 502,-20"/>
<text text-anchor="middle" x="455" y="-6.5" font-family="Helvetica,sans-Serif" font-size="10.00">fsfml::loadTexture</text>
</a>
</g>
</g>
<!-- Node1&#45;&gt;Node3 -->
<g id="edge7_Node000001_Node000003" class="edge">
<title>Node1&#45;&gt;Node3</title>
<g id="a_edge7_Node000001_Node000003"><a xlink:title=" ">
<path fill="none" stroke="#63b8ff" d="M531.04,-20.85C521.41,-19.46 511.51,-18.03 502.19,-16.68"/>
<polygon fill="#63b8ff" stroke="#63b8ff" points="530.27,-24.28 540.67,-22.24 531.27,-17.35 530.27,-24.28"/>
</a>
</g>
</g>
<!-- Node4 -->
<g id="Node000004" class="node">
<title>Node4</title>
<g id="a_Node000004"><a xlink:href="$classfsfml.html#a3fc8c544051e5c26bc9376fc255b87a4" xlink:title=" ">
<polygon fill="white" stroke="#666666" points="367.5,-20 257,-20 257,0 367.5,0 367.5,-20"/>
<text text-anchor="middle" x="312.25" y="-6.5" font-family="Helvetica,sans-Serif" font-size="10.00">fsfml::loadAllTextures</text>
</a>
</g>
</g>
<!-- Node3&#45;&gt;Node4 -->
<g id="edge8_Node000003_Node000004" class="edge">
<title>Node3&#45;&gt;Node4</title>
<g id="a_edge8_Node000003_Node000004"><a xlink:title=" ">
<path fill="none" stroke="#63b8ff" d="M396.31,-10C386.94,-10 377.27,-10 367.99,-10"/>
<polygon fill="#63b8ff" stroke="#63b8ff" points="396.01,-13.5 406.01,-10 396.01,-6.5 396.01,-13.5"/>
</a>
</g>
</g>
<!-- Node5 -->
<g id="Node000005" class="node">
<title>Node5</title>
<g id="a_Node000005"><a xlink:href="$classfsfml.html#ab642e067930233a3a95068fb80c7c410" xlink:title=" ">
<polygon fill="white" stroke="#666666" points="221,-20 125.5,-20 125.5,0 221,0 221,-20"/>
<text text-anchor="middle" x="173.25" y="-6.5" font-family="Helvetica,sans-Serif" font-size="10.00">fsfml::initGraphics</text>
</a>
</g>
</g>
<!-- Node4&#45;&gt;Node5 -->
<g id="edge9_Node000004_Node000005" class="edge">
<title>Node4&#45;&gt;Node5</title>
<g id="a_edge9_Node000004_Node000005"><a xlink:title=" ">
<path fill="none" stroke="#63b8ff" d="M245.25,-10C237.09,-10 228.88,-10 221.09,-10"/>
<polygon fill="#63b8ff" stroke="#63b8ff" points="245.2,-13.5 255.2,-10 245.2,-6.5 245.2,-13.5"/>
</a>
</g>
</g>
<!-- Node6 -->
<g id="Node000006" class="node">
<title>Node6</title>
<g id="a_Node000006"><a xlink:href="$classfsfml.html#a37a061f1ee4ccd45b5ae0a900021ecf4" xlink:title=" ">
<polygon fill="white" stroke="#666666" points="89.5,-20 0,-20 0,0 89.5,0 89.5,-20"/>
<text text-anchor="middle" x="44.75" y="-6.5" font-family="Helvetica,sans-Serif" font-size="10.00">fsfml::startSFML</text>
</a>
</g>
</g>
<!-- Node5&#45;&gt;Node6 -->
<g id="edge10_Node000005_Node000006" class="edge">
<title>Node5&#45;&gt;Node6</title>
<g id="a_edge10_Node000005_Node000006"><a xlink:title=" ">
<path fill="none" stroke="#63b8ff" d="M113.9,-10C105.85,-10 97.69,-10 89.96,-10"/>
<polygon fill="#63b8ff" stroke="#63b8ff" points="113.63,-13.5 123.63,-10 113.63,-6.5 113.63,-13.5"/>
</a>
</g>
</g>
</g>
</svg>
