<?xml version="1.0" encoding="UTF-8" standalone="no"?>
<!DOCTYPE svg PUBLIC "-//W3C//DTD SVG 1.1//EN"
 "http://www.w3.org/Graphics/SVG/1.1/DTD/svg11.dtd">
<!-- Generated by graphviz version 12.2.0 (20241103.1931)
 -->
<!-- Title: BotConfig::updateDataLdPlayer Pages: 1 -->
<svg width="900pt" height="236pt"
 viewBox="0.00 0.00 899.75 236.00" xmlns="http://www.w3.org/2000/svg" xmlns:xlink="http://www.w3.org/1999/xlink">
<g id="graph0" class="graph" transform="scale(1 1) rotate(0) translate(4 232)">
<title>BotConfig::updateDataLdPlayer</title>
<!-- Node1 -->
<g id="Node000001" class="node">
<title>Node1</title>
<g id="a_Node000001"><a xlink:title=" ">
<polygon fill="#999999" stroke="#666666" points="154,-115 0,-115 0,-95 154,-95 154,-115"/>
<text text-anchor="middle" x="77" y="-101.5" font-family="Helvetica,sans-Serif" font-size="10.00">BotConfig::updateDataLdPlayer</text>
</a>
</g>
</g>
<!-- Node2 -->
<g id="Node000002" class="node">
<title>Node2</title>
<g id="a_Node000002"><a xlink:href="$class_bot_config.html#a70992bec079cbf9412e69b0f0e712ca2" xlink:title=" ">
<polygon fill="white" stroke="#666666" points="335,-115 190,-115 190,-95 335,-95 335,-115"/>
<text text-anchor="middle" x="262.5" y="-101.5" font-family="Helvetica,sans-Serif" font-size="10.00">BotConfig::updateBoolBotFile</text>
</a>
</g>
</g>
<!-- Node1&#45;&gt;Node2 -->
<g id="edge17_Node000001_Node000002" class="edge">
<title>Node1&#45;&gt;Node2</title>
<g id="a_edge17_Node000001_Node000002"><a xlink:title=" ">
<path fill="none" stroke="#63b8ff" d="M154.49,-105C162.29,-105 170.24,-105 178.1,-105"/>
<polygon fill="#63b8ff" stroke="#63b8ff" points="178.03,-108.5 188.03,-105 178.03,-101.5 178.03,-108.5"/>
</a>
</g>
</g>
<!-- Node3 -->
<g id="Node000003" class="node">
<title>Node3</title>
<g id="a_Node000003"><a xlink:href="$class_bot_config.html#a7b0b572a14dd5f0630b335041f83049a" xlink:title=" ">
<polygon fill="white" stroke="#666666" points="485.25,-115 371,-115 371,-95 485.25,-95 485.25,-115"/>
<text text-anchor="middle" x="428.12" y="-101.5" font-family="Helvetica,sans-Serif" font-size="10.00">BotConfig::updateBool</text>
</a>
</g>
</g>
<!-- Node2&#45;&gt;Node3 -->
<g id="edge18_Node000002_Node000003" class="edge">
<title>Node2&#45;&gt;Node3</title>
<g id="a_edge18_Node000002_Node000003"><a xlink:title=" ">
<path fill="none" stroke="#63b8ff" d="M335.27,-105C343.23,-105 351.32,-105 359.23,-105"/>
<polygon fill="#63b8ff" stroke="#63b8ff" points="359.15,-108.5 369.15,-105 359.15,-101.5 359.15,-108.5"/>
</a>
</g>
</g>
<!-- Node4 -->
<g id="Node000004" class="node">
<title>Node4</title>
<g id="a_Node000004"><a xlink:href="$class_bot_config.html#ab92a15dd3027a7f42b452cdf5eaf9529" xlink:title=" ">
<polygon fill="white" stroke="#666666" points="641.5,-115 521.25,-115 521.25,-95 641.5,-95 641.5,-115"/>
<text text-anchor="middle" x="581.38" y="-101.5" font-family="Helvetica,sans-Serif" font-size="10.00">BotConfig::updateString</text>
</a>
</g>
</g>
<!-- Node3&#45;&gt;Node4 -->
<g id="edge19_Node000003_Node000004" class="edge">
<title>Node3&#45;&gt;Node4</title>
<g id="a_edge19_Node000003_Node000004"><a xlink:title=" ">
<path fill="none" stroke="#63b8ff" d="M485.44,-105C493.32,-105 501.5,-105 509.6,-105"/>
<polygon fill="#63b8ff" stroke="#63b8ff" points="509.46,-108.5 519.46,-105 509.46,-101.5 509.46,-108.5"/>
</a>
</g>
</g>
<!-- Node5 -->
<g id="Node000005" class="node">
<title>Node5</title>
<g id="a_Node000005"><a xlink:href="$_text_manager_8cpp.html#a6a1f72a80ddaec746c95996b16e3a1dc" xlink:title=" ">
<polygon fill="white" stroke="#666666" points="766.25,-210 681.25,-210 681.25,-190 766.25,-190 766.25,-210"/>
<text text-anchor="middle" x="723.75" y="-196.5" font-family="Helvetica,sans-Serif" font-size="10.00">getContentAfter</text>
</a>
</g>
</g>
<!-- Node4&#45;&gt;Node5 -->
<g id="edge20_Node000004_Node000005" class="edge">
<title>Node4&#45;&gt;Node5</title>
<g id="a_edge20_Node000004_Node000005"><a xlink:title=" ">
<path fill="none" stroke="#63b8ff" d="M593.33,-115.46C610.3,-131.23 644.42,-161.36 677.5,-181 679.64,-182.27 681.89,-183.5 684.18,-184.68"/>
<polygon fill="#63b8ff" stroke="#63b8ff" points="682.5,-187.76 693.03,-188.87 685.49,-181.43 682.5,-187.76"/>
</a>
</g>
</g>
<!-- Node7 -->
<g id="Node000007" class="node">
<title>Node7</title>
<g id="a_Node000007"><a xlink:href="$_text_manager_8cpp.html#a377407ab4c28873a8e1956ea343f9cc2" xlink:title=" ">
<polygon fill="white" stroke="#666666" points="770,-172 677.5,-172 677.5,-152 770,-152 770,-172"/>
<text text-anchor="middle" x="723.75" y="-158.5" font-family="Helvetica,sans-Serif" font-size="10.00">getContentBefore</text>
</a>
</g>
</g>
<!-- Node4&#45;&gt;Node7 -->
<g id="edge23_Node000004_Node000007" class="edge">
<title>Node4&#45;&gt;Node7</title>
<g id="a_edge23_Node000004_Node000007"><a xlink:title=" ">
<path fill="none" stroke="#63b8ff" d="M608.12,-115.45C630.19,-124.41 662.2,-137.41 686.79,-147.4"/>
<polygon fill="#63b8ff" stroke="#63b8ff" points="685.18,-150.52 695.76,-151.04 687.82,-144.04 685.18,-150.52"/>
</a>
</g>
</g>
<!-- Node8 -->
<g id="Node000008" class="node">
<title>Node8</title>
<g id="a_Node000008"><a xlink:href="$_text_manager_8cpp.html#add36cc54cd9616a393a17b8961491477" xlink:title=" ">
<polygon fill="white" stroke="#666666" points="763.62,-58 683.88,-58 683.88,-38 763.62,-38 763.62,-58"/>
<text text-anchor="middle" x="723.75" y="-44.5" font-family="Helvetica,sans-Serif" font-size="10.00">getFileContent</text>
</a>
</g>
</g>
<!-- Node4&#45;&gt;Node8 -->
<g id="edge25_Node000004_Node000008" class="edge">
<title>Node4&#45;&gt;Node8</title>
<g id="a_edge25_Node000004_Node000008"><a xlink:title=" ">
<path fill="none" stroke="#63b8ff" d="M608.12,-94.55C630.19,-85.59 662.2,-72.59 686.79,-62.6"/>
<polygon fill="#63b8ff" stroke="#63b8ff" points="687.82,-65.96 695.76,-58.96 685.18,-59.48 687.82,-65.96"/>
</a>
</g>
</g>
<!-- Node10 -->
<g id="Node000010" class="node">
<title>Node10</title>
<g id="a_Node000010"><a xlink:href="$_text_manager_8cpp.html#af24bee60aa1d3d5b4ae3bf6ebd267ecd" xlink:title=" ">
<polygon fill="white" stroke="#666666" points="747.5,-134 700,-134 700,-114 747.5,-114 747.5,-134"/>
<text text-anchor="middle" x="723.75" y="-120.5" font-family="Helvetica,sans-Serif" font-size="10.00">getLine</text>
</a>
</g>
</g>
<!-- Node4&#45;&gt;Node10 -->
<g id="edge27_Node000004_Node000010" class="edge">
<title>Node4&#45;&gt;Node10</title>
<g id="a_edge27_Node000004_Node000010"><a xlink:title=" ">
<path fill="none" stroke="#63b8ff" d="M641.91,-113.06C657.79,-115.21 674.41,-117.46 688.43,-119.35"/>
<polygon fill="#63b8ff" stroke="#63b8ff" points="687.63,-122.78 698.01,-120.65 688.57,-115.84 687.63,-122.78"/>
</a>
</g>
</g>
<!-- Node11 -->
<g id="Node000011" class="node">
<title>Node11</title>
<g id="a_Node000011"><a xlink:href="$_text_manager_8cpp.html#a98e5aae2b6659418890caba4fad17d5e" xlink:title=" ">
<polygon fill="white" stroke="#666666" points="763.62,-96 683.88,-96 683.88,-76 763.62,-76 763.62,-96"/>
<text text-anchor="middle" x="723.75" y="-82.5" font-family="Helvetica,sans-Serif" font-size="10.00">updateContent</text>
</a>
</g>
</g>
<!-- Node4&#45;&gt;Node11 -->
<g id="edge29_Node000004_Node000011" class="edge">
<title>Node4&#45;&gt;Node11</title>
<g id="a_edge29_Node000004_Node000011"><a xlink:title=" ">
<path fill="none" stroke="#63b8ff" d="M641.91,-96.94C652,-95.58 662.4,-94.17 672.24,-92.84"/>
<polygon fill="#63b8ff" stroke="#63b8ff" points="672.54,-96.33 681.98,-91.52 671.6,-89.39 672.54,-96.33"/>
</a>
</g>
</g>
<!-- Node12 -->
<g id="Node000012" class="node">
<title>Node12</title>
<g id="a_Node000012"><a xlink:href="$_text_manager_8cpp.html#ab55140c566370b105b9bf81756293fa5" xlink:title=" ">
<polygon fill="white" stroke="#666666" points="755.38,-20 692.12,-20 692.12,0 755.38,0 755.38,-20"/>
<text text-anchor="middle" x="723.75" y="-6.5" font-family="Helvetica,sans-Serif" font-size="10.00">writeToFile</text>
</a>
</g>
</g>
<!-- Node4&#45;&gt;Node12 -->
<g id="edge31_Node000004_Node000012" class="edge">
<title>Node4&#45;&gt;Node12</title>
<g id="a_edge31_Node000004_Node000012"><a xlink:title=" ">
<path fill="none" stroke="#63b8ff" d="M593.33,-94.54C610.3,-78.77 644.42,-48.64 677.5,-29 679.64,-27.73 681.89,-26.5 684.18,-25.32"/>
<polygon fill="#63b8ff" stroke="#63b8ff" points="685.49,-28.57 693.03,-21.13 682.5,-22.24 685.49,-28.57"/>
</a>
</g>
</g>
<!-- Node5&#45;&gt;Node5 -->
<g id="edge22_Node000005_Node000005" class="edge">
<title>Node5&#45;&gt;Node5</title>
<g id="a_edge22_Node000005_Node000005"><a xlink:title=" ">
<path fill="none" stroke="#63b8ff" d="M703.87,-210.34C695.37,-218.98 702,-228 723.75,-228 735.64,-228 743.02,-225.3 745.87,-221.44"/>
<polygon fill="#63b8ff" stroke="#63b8ff" points="749.33,-220.94 743.93,-211.82 742.47,-222.32 749.33,-220.94"/>
</a>
</g>
</g>
<!-- Node6 -->
<g id="Node000006" class="node">
<title>Node6</title>
<g id="a_Node000006"><a xlink:href="$_text_manager_8cpp.html#afbb8972025ad14e914fdaafa26957439" xlink:title=" ">
<polygon fill="white" stroke="#666666" points="873.38,-153 824.38,-153 824.38,-133 873.38,-133 873.38,-153"/>
<text text-anchor="middle" x="848.88" y="-139.5" font-family="Helvetica,sans-Serif" font-size="10.00">findPos</text>
</a>
</g>
</g>
<!-- Node5&#45;&gt;Node6 -->
<g id="edge21_Node000005_Node000006" class="edge">
<title>Node5&#45;&gt;Node6</title>
<g id="a_edge21_Node000005_Node000006"><a xlink:title=" ">
<path fill="none" stroke="#63b8ff" d="M750.23,-189.6C756.71,-186.87 763.64,-183.89 770,-181 785.61,-173.92 802.76,-165.61 816.97,-158.58"/>
<polygon fill="#63b8ff" stroke="#63b8ff" points="818.46,-161.75 825.85,-154.16 815.34,-155.48 818.46,-161.75"/>
</a>
</g>
</g>
<!-- Node7&#45;&gt;Node6 -->
<g id="edge24_Node000007_Node000006" class="edge">
<title>Node7&#45;&gt;Node6</title>
<g id="a_edge24_Node000007_Node000006"><a xlink:title=" ">
<path fill="none" stroke="#63b8ff" d="M770.25,-154.98C784.34,-152.8 799.64,-150.44 812.9,-148.4"/>
<polygon fill="#63b8ff" stroke="#63b8ff" points="813.11,-151.91 822.46,-146.92 812.04,-144.99 813.11,-151.91"/>
</a>
</g>
</g>
<!-- Node9 -->
<g id="Node000009" class="node">
<title>Node9</title>
<g id="a_Node000009"><a xlink:href="$_text_manager_8cpp.html#a5e4308ca14d1f4cfc2456fc26b1361a8" xlink:title=" ">
<polygon fill="white" stroke="#666666" points="889.5,-58 808.25,-58 808.25,-38 889.5,-38 889.5,-58"/>
<text text-anchor="middle" x="848.88" y="-44.5" font-family="Helvetica,sans-Serif" font-size="10.00">getIfstreamFile</text>
</a>
</g>
</g>
<!-- Node8&#45;&gt;Node9 -->
<g id="edge26_Node000008_Node000009" class="edge">
<title>Node8&#45;&gt;Node9</title>
<g id="a_edge26_Node000008_Node000009"><a xlink:title=" ">
<path fill="none" stroke="#63b8ff" d="M764.05,-48C774.49,-48 785.93,-48 796.9,-48"/>
<polygon fill="#63b8ff" stroke="#63b8ff" points="796.59,-51.5 806.59,-48 796.59,-44.5 796.59,-51.5"/>
</a>
</g>
</g>
<!-- Node10&#45;&gt;Node6 -->
<g id="edge28_Node000010_Node000006" class="edge">
<title>Node10&#45;&gt;Node6</title>
<g id="a_edge28_Node000010_Node000006"><a xlink:title=" ">
<path fill="none" stroke="#63b8ff" d="M747.91,-127.57C766.16,-130.39 791.92,-134.36 812.71,-137.57"/>
<polygon fill="#63b8ff" stroke="#63b8ff" points="812.07,-141.02 822.48,-139.08 813.14,-134.1 812.07,-141.02"/>
</a>
</g>
</g>
<!-- Node11&#45;&gt;Node6 -->
<g id="edge30_Node000011_Node000006" class="edge">
<title>Node11&#45;&gt;Node6</title>
<g id="a_edge30_Node000011_Node000006"><a xlink:title=" ">
<path fill="none" stroke="#63b8ff" d="M750.23,-96.4C756.71,-99.13 763.64,-102.11 770,-105 785.61,-112.08 802.76,-120.39 816.97,-127.42"/>
<polygon fill="#63b8ff" stroke="#63b8ff" points="815.34,-130.52 825.85,-131.84 818.46,-124.25 815.34,-130.52"/>
</a>
</g>
</g>
<!-- Node13 -->
<g id="Node000013" class="node">
<title>Node13</title>
<g id="a_Node000013"><a xlink:href="$_text_manager_8cpp.html#a4a86df56d2737552b2fd63bfa85c5800" xlink:title=" ">
<polygon fill="white" stroke="#666666" points="891.75,-20 806,-20 806,0 891.75,0 891.75,-20"/>
<text text-anchor="middle" x="848.88" y="-6.5" font-family="Helvetica,sans-Serif" font-size="10.00">getOfstreamFile</text>
</a>
</g>
</g>
<!-- Node12&#45;&gt;Node13 -->
<g id="edge32_Node000012_Node000013" class="edge">
<title>Node12&#45;&gt;Node13</title>
<g id="a_edge32_Node000012_Node000013"><a xlink:title=" ">
<path fill="none" stroke="#63b8ff" d="M755.82,-10C767.5,-10 781.14,-10 794.29,-10"/>
<polygon fill="#63b8ff" stroke="#63b8ff" points="794.14,-13.5 804.14,-10 794.14,-6.5 794.14,-13.5"/>
</a>
</g>
</g>
</g>
</svg>
