<?xml version="1.0" encoding="UTF-8" standalone="no"?>
<!DOCTYPE svg PUBLIC "-//W3C//DTD SVG 1.1//EN"
 "http://www.w3.org/Graphics/SVG/1.1/DTD/svg11.dtd">
<!-- Generated by graphviz version 12.2.0 (20241103.1931)
 -->
<!-- Title: DoLoopTag Pages: 1 -->
<svg width="163pt" height="736pt"
 viewBox="0.00 0.00 162.50 736.00" xmlns="http://www.w3.org/2000/svg" xmlns:xlink="http://www.w3.org/1999/xlink">
<g id="graph0" class="graph" transform="scale(1 1) rotate(0) translate(4 732)">
<title>DoLoopTag</title>
<!-- Node1 -->
<g id="Node000001" class="node">
<title>Node1</title>
<g id="a_Node000001"><a xlink:title=" ">
<polygon fill="#999999" stroke="none" points="154.5,-176 0,-176 0,0 154.5,0 154.5,-176"/>
<text text-anchor="start" x="52.5" y="-162.5" font-family="Helvetica,sans-Serif" font-size="10.00">DoLoopTag</text>
<text text-anchor="start" x="75.75" y="-146.5" font-family="Helvetica,sans-Serif" font-size="10.00"> </text>
<text text-anchor="start" x="4" y="-130.5" font-family="Helvetica,sans-Serif" font-size="10.00">+</text>
<text text-anchor="start" x="14" y="-130.5" font-family="Helvetica,sans-Serif" font-size="10.00">DoLoopTag()</text>
<text text-anchor="start" x="4" y="-114.5" font-family="Helvetica,sans-Serif" font-size="10.00">+</text>
<text text-anchor="start" x="14" y="-114.5" font-family="Helvetica,sans-Serif" font-size="10.00">DoLoopTag(const DoLoopTag</text>
<text text-anchor="start" x="14" y="-102.5" font-family="Helvetica,sans-Serif" font-size="10.00"> &amp;toCopy)</text>
<text text-anchor="start" x="4" y="-86.5" font-family="Helvetica,sans-Serif" font-size="10.00">+</text>
<text text-anchor="start" x="14" y="-86.5" font-family="Helvetica,sans-Serif" font-size="10.00">DoLoopTag(const std</text>
<text text-anchor="start" x="14" y="-74.5" font-family="Helvetica,sans-Serif" font-size="10.00">::shared_ptr&lt; Tag &gt; &amp;condition,</text>
<text text-anchor="start" x="14" y="-62.5" font-family="Helvetica,sans-Serif" font-size="10.00"> const std::vector&lt; std::shared</text>
<text text-anchor="start" x="14" y="-50.5" font-family="Helvetica,sans-Serif" font-size="10.00">_ptr&lt; Tag &gt; &gt; &amp;nestedTags)</text>
<text text-anchor="start" x="4" y="-34.5" font-family="Helvetica,sans-Serif" font-size="10.00">+</text>
<text text-anchor="start" x="14" y="-34.5" font-family="Helvetica,sans-Serif" font-size="10.00">std::shared_ptr&lt; DoLoopTag</text>
<text text-anchor="start" x="14" y="-22.5" font-family="Helvetica,sans-Serif" font-size="10.00"> &gt; clone()</text>
<text text-anchor="start" x="4" y="-6.5" font-family="Helvetica,sans-Serif" font-size="10.00">+</text>
<text text-anchor="start" x="14" y="-6.5" font-family="Helvetica,sans-Serif" font-size="10.00">void execute() override</text>
<polygon fill="#666666" stroke="#666666" points="0,-158 0,-158 154.5,-158 154.5,-158 0,-158"/>
<polygon fill="#666666" stroke="#666666" points="0,-142 0,-142 154.5,-142 154.5,-142 0,-142"/>
<polygon fill="none" stroke="#666666" points="0,0 0,-176 154.5,-176 154.5,0 0,0"/>
</a>
</g>
</g>
<!-- Node2 -->
<g id="Node000002" class="node">
<title>Node2</title>
<g id="a_Node000002"><a xlink:href="$class_flow_tag.html" xlink:title=" ">
<polygon fill="white" stroke="none" points="142.12,-532 12.38,-532 12.38,-212 142.12,-212 142.12,-532"/>
<text text-anchor="start" x="58.88" y="-518.5" font-family="Helvetica,sans-Serif" font-size="10.00">FlowTag</text>
<text text-anchor="start" x="16.38" y="-502.5" font-family="Helvetica,sans-Serif" font-size="10.00">+</text>
<text text-anchor="start" x="26.38" y="-502.5" font-family="Helvetica,sans-Serif" font-size="10.00">bool canReboot</text>
<text text-anchor="start" x="16.38" y="-486.5" font-family="Helvetica,sans-Serif" font-size="10.00">+</text>
<text text-anchor="start" x="26.38" y="-486.5" font-family="Helvetica,sans-Serif" font-size="10.00">bool executed</text>
<text text-anchor="start" x="16.38" y="-470.5" font-family="Helvetica,sans-Serif" font-size="10.00">+</text>
<text text-anchor="start" x="26.38" y="-470.5" font-family="Helvetica,sans-Serif" font-size="10.00">bool forcedExit</text>
<text text-anchor="start" x="16.38" y="-454.5" font-family="Helvetica,sans-Serif" font-size="10.00">+</text>
<text text-anchor="start" x="26.38" y="-454.5" font-family="Helvetica,sans-Serif" font-size="10.00">bool rebootLoop</text>
<text text-anchor="start" x="16.38" y="-438.5" font-family="Helvetica,sans-Serif" font-size="10.00">+</text>
<text text-anchor="start" x="26.38" y="-438.5" font-family="Helvetica,sans-Serif" font-size="10.00">std::shared_ptr&lt; Tag</text>
<text text-anchor="start" x="26.38" y="-426.5" font-family="Helvetica,sans-Serif" font-size="10.00"> &gt; condition</text>
<text text-anchor="start" x="16.38" y="-410.5" font-family="Helvetica,sans-Serif" font-size="10.00">+</text>
<text text-anchor="start" x="26.38" y="-410.5" font-family="Helvetica,sans-Serif" font-size="10.00">FlowTag * previousTag</text>
<text text-anchor="start" x="16.38" y="-394.5" font-family="Helvetica,sans-Serif" font-size="10.00">+</text>
<text text-anchor="start" x="26.38" y="-394.5" font-family="Helvetica,sans-Serif" font-size="10.00">FlowTag * parentFlowTag</text>
<text text-anchor="start" x="16.38" y="-378.5" font-family="Helvetica,sans-Serif" font-size="10.00">+</text>
<text text-anchor="start" x="26.38" y="-378.5" font-family="Helvetica,sans-Serif" font-size="10.00">std::vector&lt; std::shared</text>
<text text-anchor="start" x="26.38" y="-366.5" font-family="Helvetica,sans-Serif" font-size="10.00">_ptr&lt; Tag &gt; &gt; nestedTags</text>
<text text-anchor="start" x="16.38" y="-350.5" font-family="Helvetica,sans-Serif" font-size="10.00">+</text>
<text text-anchor="start" x="26.38" y="-350.5" font-family="Helvetica,sans-Serif" font-size="10.00">std::vector&lt; FlowTag</text>
<text text-anchor="start" x="26.38" y="-338.5" font-family="Helvetica,sans-Serif" font-size="10.00"> * &gt; listPreviousFlowTags</text>
<text text-anchor="start" x="16.38" y="-322.5" font-family="Helvetica,sans-Serif" font-size="10.00">+</text>
<text text-anchor="start" x="26.38" y="-322.5" font-family="Helvetica,sans-Serif" font-size="10.00">FlowTag()</text>
<text text-anchor="start" x="16.38" y="-306.5" font-family="Helvetica,sans-Serif" font-size="10.00">+</text>
<text text-anchor="start" x="26.38" y="-306.5" font-family="Helvetica,sans-Serif" font-size="10.00">FlowTag(const FlowTag</text>
<text text-anchor="start" x="26.38" y="-294.5" font-family="Helvetica,sans-Serif" font-size="10.00"> &amp;toCopy)</text>
<text text-anchor="start" x="16.38" y="-278.5" font-family="Helvetica,sans-Serif" font-size="10.00">+</text>
<text text-anchor="start" x="26.38" y="-278.5" font-family="Helvetica,sans-Serif" font-size="10.00">std::shared_ptr&lt; FlowTag</text>
<text text-anchor="start" x="26.38" y="-266.5" font-family="Helvetica,sans-Serif" font-size="10.00"> &gt; clone()</text>
<text text-anchor="start" x="16.38" y="-250.5" font-family="Helvetica,sans-Serif" font-size="10.00">+</text>
<text text-anchor="start" x="26.38" y="-250.5" font-family="Helvetica,sans-Serif" font-size="10.00">void showTag()</text>
<text text-anchor="start" x="16.38" y="-234.5" font-family="Helvetica,sans-Serif" font-size="10.00">+</text>
<text text-anchor="start" x="26.38" y="-234.5" font-family="Helvetica,sans-Serif" font-size="10.00">bool checkCondition()</text>
<text text-anchor="start" x="16.38" y="-218.5" font-family="Helvetica,sans-Serif" font-size="10.00">+</text>
<text text-anchor="start" x="26.38" y="-218.5" font-family="Helvetica,sans-Serif" font-size="10.00">void linkTags()</text>
<polygon fill="#666666" stroke="#666666" points="12.38,-514 12.38,-514 142.12,-514 142.12,-514 12.38,-514"/>
<polygon fill="#666666" stroke="#666666" points="12.38,-334 12.38,-334 24.38,-334 24.38,-334 12.38,-334"/>
<polygon fill="#666666" stroke="#666666" points="24.38,-334 24.38,-334 142.12,-334 142.12,-334 24.38,-334"/>
<polygon fill="none" stroke="#666666" points="12.38,-212 12.38,-532 142.12,-532 142.12,-212 12.38,-212"/>
</a>
</g>
</g>
<!-- Node2&#45;&gt;Node1 -->
<g id="edge3_Node000001_Node000002" class="edge">
<title>Node2&#45;&gt;Node1</title>
<g id="a_edge3_Node000001_Node000002"><a xlink:title=" ">
<path fill="none" stroke="#63b8ff" d="M77.25,-200.9C77.25,-192.29 77.25,-183.84 77.25,-175.68"/>
<polygon fill="none" stroke="#63b8ff" points="73.75,-200.77 77.25,-210.77 80.75,-200.77 73.75,-200.77"/>
</a>
</g>
</g>
<!-- Node3 -->
<g id="Node000003" class="node">
<title>Node3</title>
<g id="a_Node000003"><a xlink:href="$class_tag.html" xlink:title=" ">
<polygon fill="white" stroke="none" points="138.75,-728 15.75,-728 15.75,-568 138.75,-568 138.75,-728"/>
<text text-anchor="start" x="69.38" y="-714.5" font-family="Helvetica,sans-Serif" font-size="10.00">Tag</text>
<text text-anchor="start" x="19.75" y="-698.5" font-family="Helvetica,sans-Serif" font-size="10.00">+</text>
<text text-anchor="start" x="29.75" y="-698.5" font-family="Helvetica,sans-Serif" font-size="10.00">std::string tagText</text>
<text text-anchor="start" x="19.75" y="-682.5" font-family="Helvetica,sans-Serif" font-size="10.00">+</text>
<text text-anchor="start" x="29.75" y="-682.5" font-family="Helvetica,sans-Serif" font-size="10.00">int nbParents</text>
<text text-anchor="start" x="19.75" y="-666.5" font-family="Helvetica,sans-Serif" font-size="10.00">+</text>
<text text-anchor="start" x="29.75" y="-666.5" font-family="Helvetica,sans-Serif" font-size="10.00">bool doExecute</text>
<text text-anchor="start" x="19.75" y="-650.5" font-family="Helvetica,sans-Serif" font-size="10.00">+</text>
<text text-anchor="start" x="29.75" y="-650.5" font-family="Helvetica,sans-Serif" font-size="10.00">TagType myType</text>
<text text-anchor="start" x="19.75" y="-634.5" font-family="Helvetica,sans-Serif" font-size="10.00">+</text>
<text text-anchor="start" x="29.75" y="-634.5" font-family="Helvetica,sans-Serif" font-size="10.00">Tag()</text>
<text text-anchor="start" x="19.75" y="-618.5" font-family="Helvetica,sans-Serif" font-size="10.00">+</text>
<text text-anchor="start" x="29.75" y="-618.5" font-family="Helvetica,sans-Serif" font-size="10.00">Tag(const Tag &amp;toCopy)</text>
<text text-anchor="start" x="19.75" y="-602.5" font-family="Helvetica,sans-Serif" font-size="10.00">+</text>
<text text-anchor="start" x="29.75" y="-602.5" font-family="Helvetica,sans-Serif" font-size="10.00">std::shared_ptr&lt; Tag</text>
<text text-anchor="start" x="29.75" y="-590.5" font-family="Helvetica,sans-Serif" font-size="10.00"> &gt; clone()</text>
<text text-anchor="start" x="19.75" y="-574.5" font-family="Helvetica,sans-Serif" font-size="10.00">+</text>
<text text-anchor="start" x="29.75" y="-574.5" font-family="Helvetica,sans-Serif" font-size="10.00">virtual void execute()</text>
<polygon fill="#666666" stroke="#666666" points="15.75,-710 15.75,-710 138.75,-710 138.75,-710 15.75,-710"/>
<polygon fill="#666666" stroke="#666666" points="15.75,-646 15.75,-646 27.75,-646 27.75,-646 15.75,-646"/>
<polygon fill="#666666" stroke="#666666" points="27.75,-646 27.75,-646 138.75,-646 138.75,-646 27.75,-646"/>
<polygon fill="none" stroke="#666666" points="15.75,-568 15.75,-728 138.75,-728 138.75,-568 15.75,-568"/>
</a>
</g>
</g>
<!-- Node3&#45;&gt;Node2 -->
<g id="edge4_Node000002_Node000003" class="edge">
<title>Node3&#45;&gt;Node2</title>
<g id="a_edge4_Node000002_Node000003"><a xlink:title=" ">
<path fill="none" stroke="#63b8ff" d="M77.25,-556.83C77.25,-548.72 77.25,-540.37 77.25,-531.89"/>
<polygon fill="none" stroke="#63b8ff" points="73.75,-556.6 77.25,-566.6 80.75,-556.6 73.75,-556.6"/>
</a>
</g>
</g>
</g>
</svg>
