<?xml version="1.0" encoding="UTF-8" standalone="no"?>
<!DOCTYPE svg PUBLIC "-//W3C//DTD SVG 1.1//EN"
 "http://www.w3.org/Graphics/SVG/1.1/DTD/svg11.dtd">
<!-- Generated by graphviz version 12.2.0 (20241103.1931)
 -->
<!-- Title: DoLoopToken::addTokens Pages: 1 -->
<svg width="269pt" height="66pt"
 viewBox="0.00 0.00 268.75 66.00" xmlns="http://www.w3.org/2000/svg" xmlns:xlink="http://www.w3.org/1999/xlink">
<g id="graph0" class="graph" transform="scale(1 1) rotate(0) translate(4 62)">
<title>DoLoopToken::addTokens</title>
<!-- Node1 -->
<g id="Node000001" class="node">
<title>Node1</title>
<g id="a_Node000001"><a xlink:title=" ">
<polygon fill="#999999" stroke="#666666" points="129.25,-39 0,-39 0,-19 129.25,-19 129.25,-39"/>
<text text-anchor="middle" x="64.62" y="-25.5" font-family="Helvetica,sans-Serif" font-size="10.00">DoLoopToken::addTokens</text>
</a>
</g>
</g>
<!-- Node2 -->
<g id="Node000002" class="node">
<title>Node2</title>
<g id="a_Node000002"><a xlink:href="$class_iterator_list.html#af5c370ccb8698e2a9fb0714782d57203" xlink:title=" ">
<polygon fill="white" stroke="#666666" points="256.62,-58 169.38,-58 169.38,-38 256.62,-38 256.62,-58"/>
<text text-anchor="middle" x="213" y="-44.5" font-family="Helvetica,sans-Serif" font-size="10.00">IteratorList::next</text>
</a>
</g>
</g>
<!-- Node1&#45;&gt;Node2 -->
<g id="edge3_Node000001_Node000002" class="edge">
<title>Node1&#45;&gt;Node2</title>
<g id="a_edge3_Node000001_Node000002"><a xlink:title=" ">
<path fill="none" stroke="#63b8ff" d="M129.4,-37.28C138.83,-38.5 148.46,-39.75 157.67,-40.95"/>
<polygon fill="#63b8ff" stroke="#63b8ff" points="157.19,-44.42 167.56,-42.23 158.1,-37.47 157.19,-44.42"/>
</a>
</g>
</g>
<!-- Node3 -->
<g id="Node000003" class="node">
<title>Node3</title>
<g id="a_Node000003"><a xlink:href="$class_token.html#af13c7d494e5fe273558cb37286fa7185" xlink:title=" ">
<polygon fill="white" stroke="#666666" points="260.75,-20 165.25,-20 165.25,0 260.75,0 260.75,-20"/>
<text text-anchor="middle" x="213" y="-6.5" font-family="Helvetica,sans-Serif" font-size="10.00">Token::updateRes</text>
</a>
</g>
</g>
<!-- Node1&#45;&gt;Node3 -->
<g id="edge4_Node000001_Node000003" class="edge">
<title>Node1&#45;&gt;Node3</title>
<g id="a_edge4_Node000001_Node000003"><a xlink:title=" ">
<path fill="none" stroke="#63b8ff" d="M129.4,-20.72C137.57,-19.66 145.9,-18.58 153.97,-17.53"/>
<polygon fill="#63b8ff" stroke="#63b8ff" points="154.2,-21.03 163.66,-16.27 153.3,-14.09 154.2,-21.03"/>
</a>
</g>
</g>
</g>
</svg>
