<?xml version="1.0" encoding="UTF-8" standalone="no"?>
<!DOCTYPE svg PUBLIC "-//W3C//DTD SVG 1.1//EN"
 "http://www.w3.org/Graphics/SVG/1.1/DTD/svg11.dtd">
<!-- Generated by graphviz version 12.2.0 (20241103.1931)
 -->
<!-- Title: fsfml::loadSprite Pages: 1 -->
<svg width="492pt" height="28pt"
 viewBox="0.00 0.00 492.00 28.00" xmlns="http://www.w3.org/2000/svg" xmlns:xlink="http://www.w3.org/1999/xlink">
<g id="graph0" class="graph" transform="scale(1 1) rotate(0) translate(4 24)">
<title>fsfml::loadSprite</title>
<!-- Node1 -->
<g id="Node000001" class="node">
<title>Node1</title>
<g id="a_Node000001"><a xlink:title=" ">
<polygon fill="#999999" stroke="#666666" points="484,-20 396.75,-20 396.75,0 484,0 484,-20"/>
<text text-anchor="middle" x="440.38" y="-6.5" font-family="Helvetica,sans-Serif" font-size="10.00">fsfml::loadSprite</text>
</a>
</g>
</g>
<!-- Node2 -->
<g id="Node000002" class="node">
<title>Node2</title>
<g id="a_Node000002"><a xlink:href="$classfsfml.html#a5528a53174db6d10551021c4371ead80" xlink:title=" ">
<polygon fill="white" stroke="#666666" points="360.75,-20 257,-20 257,0 360.75,0 360.75,-20"/>
<text text-anchor="middle" x="308.88" y="-6.5" font-family="Helvetica,sans-Serif" font-size="10.00">fsfml::loadAllSprites</text>
</a>
</g>
</g>
<!-- Node1&#45;&gt;Node2 -->
<g id="edge4_Node000001_Node000002" class="edge">
<title>Node1&#45;&gt;Node2</title>
<g id="a_edge4_Node000001_Node000002"><a xlink:title=" ">
<path fill="none" stroke="#63b8ff" d="M384.83,-10C376.9,-10 368.75,-10 360.89,-10"/>
<polygon fill="#63b8ff" stroke="#63b8ff" points="384.74,-13.5 394.74,-10 384.74,-6.5 384.74,-13.5"/>
</a>
</g>
</g>
<!-- Node3 -->
<g id="Node000003" class="node">
<title>Node3</title>
<g id="a_Node000003"><a xlink:href="$classfsfml.html#ab642e067930233a3a95068fb80c7c410" xlink:title=" ">
<polygon fill="white" stroke="#666666" points="221,-20 125.5,-20 125.5,0 221,0 221,-20"/>
<text text-anchor="middle" x="173.25" y="-6.5" font-family="Helvetica,sans-Serif" font-size="10.00">fsfml::initGraphics</text>
</a>
</g>
</g>
<!-- Node2&#45;&gt;Node3 -->
<g id="edge5_Node000002_Node000003" class="edge">
<title>Node2&#45;&gt;Node3</title>
<g id="a_edge5_Node000002_Node000003"><a xlink:title=" ">
<path fill="none" stroke="#63b8ff" d="M245.27,-10C237.18,-10 229.01,-10 221.23,-10"/>
<polygon fill="#63b8ff" stroke="#63b8ff" points="245.08,-13.5 255.08,-10 245.08,-6.5 245.08,-13.5"/>
</a>
</g>
</g>
<!-- Node4 -->
<g id="Node000004" class="node">
<title>Node4</title>
<g id="a_Node000004"><a xlink:href="$classfsfml.html#a37a061f1ee4ccd45b5ae0a900021ecf4" xlink:title=" ">
<polygon fill="white" stroke="#666666" points="89.5,-20 0,-20 0,0 89.5,0 89.5,-20"/>
<text text-anchor="middle" x="44.75" y="-6.5" font-family="Helvetica,sans-Serif" font-size="10.00">fsfml::startSFML</text>
</a>
</g>
</g>
<!-- Node3&#45;&gt;Node4 -->
<g id="edge6_Node000003_Node000004" class="edge">
<title>Node3&#45;&gt;Node4</title>
<g id="a_edge6_Node000003_Node000004"><a xlink:title=" ">
<path fill="none" stroke="#63b8ff" d="M113.9,-10C105.85,-10 97.69,-10 89.96,-10"/>
<polygon fill="#63b8ff" stroke="#63b8ff" points="113.63,-13.5 123.63,-10 113.63,-6.5 113.63,-13.5"/>
</a>
</g>
</g>
</g>
</svg>
