<?xml version="1.0" encoding="UTF-8" standalone="no"?>
<!DOCTYPE svg PUBLIC "-//W3C//DTD SVG 1.1//EN"
 "http://www.w3.org/Graphics/SVG/1.1/DTD/svg11.dtd">
<!-- Generated by graphviz version 12.2.0 (20241103.1931)
 -->
<!-- Title: BotConfig::readBoolBotFile Pages: 1 -->
<svg width="662pt" height="104pt"
 viewBox="0.00 0.00 661.75 104.00" xmlns="http://www.w3.org/2000/svg" xmlns:xlink="http://www.w3.org/1999/xlink">
<g id="graph0" class="graph" transform="scale(1 1) rotate(0) translate(4 100)">
<title>BotConfig::readBoolBotFile</title>
<!-- Node1 -->
<g id="Node000001" class="node">
<title>Node1</title>
<g id="a_Node000001"><a xlink:title=" ">
<polygon fill="#999999" stroke="#666666" points="134.5,-58 0,-58 0,-38 134.5,-38 134.5,-58"/>
<text text-anchor="middle" x="67.25" y="-44.5" font-family="Helvetica,sans-Serif" font-size="10.00">BotConfig::readBoolBotFile</text>
</a>
</g>
</g>
<!-- Node2 -->
<g id="Node000002" class="node">
<title>Node2</title>
<g id="a_Node000002"><a xlink:href="$class_bot_config.html#a459cd36b6c6f36f9bd73ff207e2fe5ec" xlink:title=" ">
<polygon fill="white" stroke="#666666" points="274.25,-58 170.5,-58 170.5,-38 274.25,-38 274.25,-58"/>
<text text-anchor="middle" x="222.38" y="-44.5" font-family="Helvetica,sans-Serif" font-size="10.00">BotConfig::readBool</text>
</a>
</g>
</g>
<!-- Node1&#45;&gt;Node2 -->
<g id="edge9_Node000001_Node000002" class="edge">
<title>Node1&#45;&gt;Node2</title>
<g id="a_edge9_Node000001_Node000002"><a xlink:title=" ">
<path fill="none" stroke="#63b8ff" d="M134.97,-48C142.87,-48 150.92,-48 158.77,-48"/>
<polygon fill="#63b8ff" stroke="#63b8ff" points="158.56,-51.5 168.56,-48 158.56,-44.5 158.56,-51.5"/>
</a>
</g>
</g>
<!-- Node3 -->
<g id="Node000003" class="node">
<title>Node3</title>
<g id="a_Node000003"><a xlink:href="$class_bot_config.html#a623d05e4d8e0122d35b1a3e391fc2464" xlink:title=" ">
<polygon fill="white" stroke="#666666" points="420,-58 310.25,-58 310.25,-38 420,-38 420,-58"/>
<text text-anchor="middle" x="365.12" y="-44.5" font-family="Helvetica,sans-Serif" font-size="10.00">BotConfig::readString</text>
</a>
</g>
</g>
<!-- Node2&#45;&gt;Node3 -->
<g id="edge10_Node000002_Node000003" class="edge">
<title>Node2&#45;&gt;Node3</title>
<g id="a_edge10_Node000002_Node000003"><a xlink:title=" ">
<path fill="none" stroke="#63b8ff" d="M274.59,-48C282.39,-48 290.53,-48 298.58,-48"/>
<polygon fill="#63b8ff" stroke="#63b8ff" points="298.36,-51.5 308.36,-48 298.36,-44.5 298.36,-51.5"/>
</a>
</g>
</g>
<!-- Node4 -->
<g id="Node000004" class="node">
<title>Node4</title>
<g id="a_Node000004"><a xlink:href="$_text_manager_8cpp.html#aa61ad4367d44c1e14541c7c1c46da795" xlink:title=" ">
<polygon fill="white" stroke="#666666" points="536.5,-96 456,-96 456,-76 536.5,-76 536.5,-96"/>
<text text-anchor="middle" x="496.25" y="-82.5" font-family="Helvetica,sans-Serif" font-size="10.00">extractContent</text>
</a>
</g>
</g>
<!-- Node3&#45;&gt;Node4 -->
<g id="edge11_Node000003_Node000004" class="edge">
<title>Node3&#45;&gt;Node4</title>
<g id="a_edge11_Node000003_Node000004"><a xlink:title=" ">
<path fill="none" stroke="#63b8ff" d="M401.75,-58.48C416.29,-62.76 433.29,-67.77 448.78,-72.33"/>
<polygon fill="#63b8ff" stroke="#63b8ff" points="447.71,-75.66 458.29,-75.12 449.68,-68.94 447.71,-75.66"/>
</a>
</g>
</g>
<!-- Node6 -->
<g id="Node000006" class="node">
<title>Node6</title>
<g id="a_Node000006"><a xlink:href="$_text_manager_8cpp.html#add36cc54cd9616a393a17b8961491477" xlink:title=" ">
<polygon fill="white" stroke="#666666" points="536.12,-20 456.38,-20 456.38,0 536.12,0 536.12,-20"/>
<text text-anchor="middle" x="496.25" y="-6.5" font-family="Helvetica,sans-Serif" font-size="10.00">getFileContent</text>
</a>
</g>
</g>
<!-- Node3&#45;&gt;Node6 -->
<g id="edge13_Node000003_Node000006" class="edge">
<title>Node3&#45;&gt;Node6</title>
<g id="a_edge13_Node000003_Node000006"><a xlink:title=" ">
<path fill="none" stroke="#63b8ff" d="M401.75,-37.52C416.29,-33.24 433.29,-28.23 448.78,-23.67"/>
<polygon fill="#63b8ff" stroke="#63b8ff" points="449.68,-27.06 458.29,-20.88 447.71,-20.34 449.68,-27.06"/>
</a>
</g>
</g>
<!-- Node8 -->
<g id="Node000008" class="node">
<title>Node8</title>
<g id="a_Node000008"><a xlink:href="$_text_manager_8cpp.html#af24bee60aa1d3d5b4ae3bf6ebd267ecd" xlink:title=" ">
<polygon fill="white" stroke="#666666" points="520,-58 472.5,-58 472.5,-38 520,-38 520,-58"/>
<text text-anchor="middle" x="496.25" y="-44.5" font-family="Helvetica,sans-Serif" font-size="10.00">getLine</text>
</a>
</g>
</g>
<!-- Node3&#45;&gt;Node8 -->
<g id="edge15_Node000003_Node000008" class="edge">
<title>Node3&#45;&gt;Node8</title>
<g id="a_edge15_Node000003_Node000008"><a xlink:title=" ">
<path fill="none" stroke="#63b8ff" d="M420.14,-48C433.96,-48 448.45,-48 460.98,-48"/>
<polygon fill="#63b8ff" stroke="#63b8ff" points="460.78,-51.5 470.78,-48 460.78,-44.5 460.78,-51.5"/>
</a>
</g>
</g>
<!-- Node5 -->
<g id="Node000005" class="node">
<title>Node5</title>
<g id="a_Node000005"><a xlink:href="$_text_manager_8cpp.html#afbb8972025ad14e914fdaafa26957439" xlink:title=" ">
<polygon fill="white" stroke="#666666" points="637.62,-77 588.62,-77 588.62,-57 637.62,-57 637.62,-77"/>
<text text-anchor="middle" x="613.12" y="-63.5" font-family="Helvetica,sans-Serif" font-size="10.00">findPos</text>
</a>
</g>
</g>
<!-- Node4&#45;&gt;Node5 -->
<g id="edge12_Node000004_Node000005" class="edge">
<title>Node4&#45;&gt;Node5</title>
<g id="a_edge12_Node000004_Node000005"><a xlink:title=" ">
<path fill="none" stroke="#63b8ff" d="M536.78,-79.46C549.9,-77.29 564.4,-74.89 577.15,-72.78"/>
<polygon fill="#63b8ff" stroke="#63b8ff" points="577.49,-76.28 586.79,-71.19 576.35,-69.37 577.49,-76.28"/>
</a>
</g>
</g>
<!-- Node7 -->
<g id="Node000007" class="node">
<title>Node7</title>
<g id="a_Node000007"><a xlink:href="$_text_manager_8cpp.html#a5e4308ca14d1f4cfc2456fc26b1361a8" xlink:title=" ">
<polygon fill="white" stroke="#666666" points="653.75,-20 572.5,-20 572.5,0 653.75,0 653.75,-20"/>
<text text-anchor="middle" x="613.12" y="-6.5" font-family="Helvetica,sans-Serif" font-size="10.00">getIfstreamFile</text>
</a>
</g>
</g>
<!-- Node6&#45;&gt;Node7 -->
<g id="edge14_Node000006_Node000007" class="edge">
<title>Node6&#45;&gt;Node7</title>
<g id="a_edge14_Node000006_Node000007"><a xlink:title=" ">
<path fill="none" stroke="#63b8ff" d="M536.46,-10C544.33,-10 552.7,-10 560.9,-10"/>
<polygon fill="#63b8ff" stroke="#63b8ff" points="560.8,-13.5 570.8,-10 560.8,-6.5 560.8,-13.5"/>
</a>
</g>
</g>
<!-- Node8&#45;&gt;Node5 -->
<g id="edge16_Node000008_Node000005" class="edge">
<title>Node8&#45;&gt;Node5</title>
<g id="a_edge16_Node000008_Node000005"><a xlink:title=" ">
<path fill="none" stroke="#63b8ff" d="M520.5,-51.84C536.82,-54.54 558.92,-58.2 577.34,-61.25"/>
<polygon fill="#63b8ff" stroke="#63b8ff" points="576.59,-64.67 587.03,-62.85 577.73,-57.76 576.59,-64.67"/>
</a>
</g>
</g>
</g>
</svg>
