<?xml version="1.0" encoding="UTF-8" standalone="no"?>
<!DOCTYPE svg PUBLIC "-//W3C//DTD SVG 1.1//EN"
 "http://www.w3.org/Graphics/SVG/1.1/DTD/svg11.dtd">
<!-- Generated by graphviz version 12.2.0 (20241103.1931)
 -->
<!-- Title: fsfml::setSpriteColor Pages: 1 -->
<svg width="1058pt" height="90pt"
 viewBox="0.00 0.00 1057.50 90.00" xmlns="http://www.w3.org/2000/svg" xmlns:xlink="http://www.w3.org/1999/xlink">
<g id="graph0" class="graph" transform="scale(1 1) rotate(0) translate(4 86)">
<title>fsfml::setSpriteColor</title>
<!-- Node1 -->
<g id="Node000001" class="node">
<title>Node1</title>
<g id="a_Node000001"><a xlink:title=" ">
<polygon fill="#999999" stroke="#666666" points="1049.5,-51 943.5,-51 943.5,-31 1049.5,-31 1049.5,-51"/>
<text text-anchor="middle" x="996.5" y="-37.5" font-family="Helvetica,sans-Serif" font-size="10.00">fsfml::setSpriteColor</text>
</a>
</g>
</g>
<!-- Node2 -->
<g id="Node000002" class="node">
<title>Node2</title>
<g id="a_Node000002"><a xlink:href="$classfsfml.html#a086f93c342c36c44f23fd318faab987b" xlink:title=" ">
<polygon fill="white" stroke="#666666" points="907.5,-82 773,-82 773,-50 907.5,-50 907.5,-82"/>
<text text-anchor="start" x="781" y="-68.5" font-family="Helvetica,sans-Serif" font-size="10.00">fsfml::changeColorElement</text>
<text text-anchor="middle" x="840.25" y="-56.5" font-family="Helvetica,sans-Serif" font-size="10.00">Hover</text>
</a>
</g>
</g>
<!-- Node1&#45;&gt;Node2 -->
<g id="edge9_Node000001_Node000002" class="edge">
<title>Node1&#45;&gt;Node2</title>
<g id="a_edge9_Node000001_Node000002"><a xlink:title=" ">
<path fill="none" stroke="#63b8ff" d="M932.15,-51.27C924.15,-52.56 915.96,-53.89 907.91,-55.2"/>
<polygon fill="#63b8ff" stroke="#63b8ff" points="932.47,-54.76 941.78,-49.71 931.35,-47.85 932.47,-54.76"/>
</a>
</g>
</g>
<!-- Node8 -->
<g id="Node000008" class="node">
<title>Node8</title>
<g id="a_Node000008"><a xlink:href="$classfsfml.html#a6206758c01c270444e8c704535a2acb7" xlink:title=" ">
<polygon fill="white" stroke="#666666" points="907.5,-32 773,-32 773,0 907.5,0 907.5,-32"/>
<text text-anchor="start" x="781" y="-18.5" font-family="Helvetica,sans-Serif" font-size="10.00">fsfml::changeColorElement</text>
<text text-anchor="middle" x="840.25" y="-6.5" font-family="Helvetica,sans-Serif" font-size="10.00">Pressed</text>
</a>
</g>
</g>
<!-- Node1&#45;&gt;Node8 -->
<g id="edge15_Node000001_Node000008" class="edge">
<title>Node1&#45;&gt;Node8</title>
<g id="a_edge15_Node000001_Node000008"><a xlink:title=" ">
<path fill="none" stroke="#63b8ff" d="M932.15,-30.73C924.15,-29.44 915.96,-28.11 907.91,-26.8"/>
<polygon fill="#63b8ff" stroke="#63b8ff" points="931.35,-34.15 941.78,-32.29 932.47,-27.24 931.35,-34.15"/>
</a>
</g>
</g>
<!-- Node3 -->
<g id="Node000003" class="node">
<title>Node3</title>
<g id="a_Node000003"><a xlink:href="$classfsfml.html#a25eeb8db0d0be9115d85caf1400c018f" xlink:title=" ">
<polygon fill="white" stroke="#666666" points="737,-57 602.5,-57 602.5,-25 737,-25 737,-57"/>
<text text-anchor="start" x="610.5" y="-43.5" font-family="Helvetica,sans-Serif" font-size="10.00">fsfml::changeColorElement</text>
<text text-anchor="middle" x="669.75" y="-31.5" font-family="Helvetica,sans-Serif" font-size="10.00">Mouse</text>
</a>
</g>
</g>
<!-- Node2&#45;&gt;Node3 -->
<g id="edge10_Node000002_Node000003" class="edge">
<title>Node2&#45;&gt;Node3</title>
<g id="a_edge10_Node000002_Node000003"><a xlink:title=" ">
<path fill="none" stroke="#63b8ff" d="M761.4,-54.45C753.39,-53.26 745.29,-52.06 737.41,-50.89"/>
<polygon fill="#63b8ff" stroke="#63b8ff" points="760.75,-57.89 771.16,-55.9 761.78,-50.97 760.75,-57.89"/>
</a>
</g>
</g>
<!-- Node4 -->
<g id="Node000004" class="node">
<title>Node4</title>
<g id="a_Node000004"><a xlink:href="$classfsfml.html#ac93c3196218e12fa0e03b10252f9a895" xlink:title=" ">
<polygon fill="white" stroke="#666666" points="566.5,-51 432,-51 432,-31 566.5,-31 566.5,-51"/>
<text text-anchor="middle" x="499.25" y="-37.5" font-family="Helvetica,sans-Serif" font-size="10.00">fsfml::changeColorElement</text>
</a>
</g>
</g>
<!-- Node3&#45;&gt;Node4 -->
<g id="edge11_Node000003_Node000004" class="edge">
<title>Node3&#45;&gt;Node4</title>
<g id="a_edge11_Node000003_Node000004"><a xlink:title=" ">
<path fill="none" stroke="#63b8ff" d="M590.9,-41C582.89,-41 574.79,-41 566.91,-41"/>
<polygon fill="#63b8ff" stroke="#63b8ff" points="590.64,-44.5 600.64,-41 590.64,-37.5 590.64,-44.5"/>
</a>
</g>
</g>
<!-- Node5 -->
<g id="Node000005" class="node">
<title>Node5</title>
<g id="a_Node000005"><a xlink:href="$classfsfml.html#a7e31fbe38054def5364e705811d867de" xlink:title=" ">
<polygon fill="white" stroke="#666666" points="396,-51 290.75,-51 290.75,-31 396,-31 396,-51"/>
<text text-anchor="middle" x="343.38" y="-37.5" font-family="Helvetica,sans-Serif" font-size="10.00">fsfml::ElementEvent</text>
</a>
</g>
</g>
<!-- Node4&#45;&gt;Node5 -->
<g id="edge12_Node000004_Node000005" class="edge">
<title>Node4&#45;&gt;Node5</title>
<g id="a_edge12_Node000004_Node000005"><a xlink:title=" ">
<path fill="none" stroke="#63b8ff" d="M420.19,-41C412.07,-41 403.96,-41 396.23,-41"/>
<polygon fill="#63b8ff" stroke="#63b8ff" points="420.14,-44.5 430.14,-41 420.14,-37.5 420.14,-44.5"/>
</a>
</g>
</g>
<!-- Node6 -->
<g id="Node000006" class="node">
<title>Node6</title>
<g id="a_Node000006"><a xlink:href="$classfsfml.html#a6b4ab16d375ff176a0533dccdc09fc20" xlink:title=" ">
<polygon fill="white" stroke="#666666" points="254.75,-51 160.75,-51 160.75,-31 254.75,-31 254.75,-51"/>
<text text-anchor="middle" x="207.75" y="-37.5" font-family="Helvetica,sans-Serif" font-size="10.00">fsfml::PanelEvent</text>
</a>
</g>
</g>
<!-- Node5&#45;&gt;Node6 -->
<g id="edge13_Node000005_Node000006" class="edge">
<title>Node5&#45;&gt;Node6</title>
<g id="a_edge13_Node000005_Node000006"><a xlink:title=" ">
<path fill="none" stroke="#63b8ff" d="M279.06,-41C271.02,-41 262.92,-41 255.21,-41"/>
<polygon fill="#63b8ff" stroke="#63b8ff" points="278.82,-44.5 288.82,-41 278.82,-37.5 278.82,-44.5"/>
</a>
</g>
</g>
<!-- Node7 -->
<g id="Node000007" class="node">
<title>Node7</title>
<g id="a_Node000007"><a xlink:href="$classfsfml.html#ad0c2351c234aa59ef60b2c38b5fe5dd9" xlink:title=" ">
<polygon fill="white" stroke="#666666" points="124.75,-51 0,-51 0,-31 124.75,-31 124.75,-51"/>
<text text-anchor="middle" x="62.38" y="-37.5" font-family="Helvetica,sans-Serif" font-size="10.00">fsfml::handleActivePanel</text>
</a>
</g>
</g>
<!-- Node6&#45;&gt;Node7 -->
<g id="edge14_Node000006_Node000007" class="edge">
<title>Node6&#45;&gt;Node7</title>
<g id="a_edge14_Node000006_Node000007"><a xlink:title=" ">
<path fill="none" stroke="#63b8ff" d="M149.21,-41C141.29,-41 133.13,-41 125.13,-41"/>
<polygon fill="#63b8ff" stroke="#63b8ff" points="149.08,-44.5 159.08,-41 149.08,-37.5 149.08,-44.5"/>
</a>
</g>
</g>
<!-- Node8&#45;&gt;Node3 -->
<g id="edge16_Node000008_Node000003" class="edge">
<title>Node8&#45;&gt;Node3</title>
<g id="a_edge16_Node000008_Node000003"><a xlink:title=" ">
<path fill="none" stroke="#63b8ff" d="M761.4,-27.55C753.39,-28.74 745.29,-29.94 737.41,-31.11"/>
<polygon fill="#63b8ff" stroke="#63b8ff" points="761.78,-31.03 771.16,-26.1 760.75,-24.11 761.78,-31.03"/>
</a>
</g>
</g>
</g>
</svg>
