<?xml version="1.0" encoding="UTF-8" standalone="no"?>
<!DOCTYPE svg PUBLIC "-//W3C//DTD SVG 1.1//EN"
 "http://www.w3.org/Graphics/SVG/1.1/DTD/svg11.dtd">
<!-- Generated by graphviz version 12.2.0 (20241103.1931)
 -->
<!-- Title: MyFrame::setProgramPanel Pages: 1 -->
<svg width="2172pt" height="326pt"
 viewBox="0.00 0.00 2171.50 326.00" xmlns="http://www.w3.org/2000/svg" xmlns:xlink="http://www.w3.org/1999/xlink">
<g id="graph0" class="graph" transform="scale(1 1) rotate(0) translate(4 322)">
<title>MyFrame::setProgramPanel</title>
<!-- Node1 -->
<g id="Node000001" class="node">
<title>Node1</title>
<g id="a_Node000001"><a xlink:title=" ">
<polygon fill="#999999" stroke="#666666" points="138.25,-97 0,-97 0,-77 138.25,-77 138.25,-97"/>
<text text-anchor="middle" x="69.12" y="-83.5" font-family="Helvetica,sans-Serif" font-size="10.00">MyFrame::setProgramPanel</text>
</a>
</g>
</g>
<!-- Node2 -->
<g id="Node000002" class="node">
<title>Node2</title>
<g id="a_Node000002"><a xlink:href="$class_my_frame.html#a7795237fe8d78e10023b2e078f9728e3" xlink:title=" ">
<polygon fill="white" stroke="#666666" points="323,-116 174.25,-116 174.25,-96 323,-96 323,-116"/>
<text text-anchor="middle" x="248.62" y="-102.5" font-family="Helvetica,sans-Serif" font-size="10.00">MyFrame::setProgramWindow</text>
</a>
</g>
</g>
<!-- Node1&#45;&gt;Node2 -->
<g id="edge53_Node000001_Node000002" class="edge">
<title>Node1&#45;&gt;Node2</title>
<g id="a_edge53_Node000001_Node000002"><a xlink:title=" ">
<path fill="none" stroke="#63b8ff" d="M138.5,-94.32C146.4,-95.16 154.52,-96.03 162.61,-96.9"/>
<polygon fill="#63b8ff" stroke="#63b8ff" points="162.16,-100.37 172.48,-97.96 162.91,-93.41 162.16,-100.37"/>
</a>
</g>
</g>
<!-- Node43 -->
<g id="Node000043" class="node">
<title>Node43</title>
<g id="a_Node000043"><a xlink:href="$class_my_frame.html#a0dbb5d4453fefd4e027e2a7cb9a02706" xlink:title=" ">
<polygon fill="white" stroke="#666666" points="322.62,-78 174.62,-78 174.62,-58 322.62,-58 322.62,-78"/>
<text text-anchor="middle" x="248.62" y="-64.5" font-family="Helvetica,sans-Serif" font-size="10.00">MyFrame::setTagChoicePanel</text>
</a>
</g>
</g>
<!-- Node1&#45;&gt;Node43 -->
<g id="edge104_Node000001_Node000043" class="edge">
<title>Node1&#45;&gt;Node43</title>
<g id="a_edge104_Node000001_Node000043"><a xlink:title=" ">
<path fill="none" stroke="#63b8ff" d="M138.5,-79.68C146.55,-78.82 154.85,-77.93 163.09,-77.05"/>
<polygon fill="#63b8ff" stroke="#63b8ff" points="163.2,-80.56 172.77,-76.01 162.46,-73.6 163.2,-80.56"/>
</a>
</g>
</g>
<!-- Node3 -->
<g id="Node000003" class="node">
<title>Node3</title>
<g id="a_Node000003"><a xlink:href="$class_my_frame.html#abb986879321b4dceaffb43eae82e37f1" xlink:title=" ">
<polygon fill="white" stroke="#666666" points="495,-116 359,-116 359,-96 495,-96 495,-116"/>
<text text-anchor="middle" x="427" y="-102.5" font-family="Helvetica,sans-Serif" font-size="10.00">MyFrame::createPanelTags</text>
</a>
</g>
</g>
<!-- Node2&#45;&gt;Node3 -->
<g id="edge54_Node000002_Node000003" class="edge">
<title>Node2&#45;&gt;Node3</title>
<g id="a_edge54_Node000002_Node000003"><a xlink:title=" ">
<path fill="none" stroke="#63b8ff" d="M323.4,-106C331.27,-106 339.29,-106 347.21,-106"/>
<polygon fill="#63b8ff" stroke="#63b8ff" points="347.19,-109.5 357.19,-106 347.19,-102.5 347.19,-109.5"/>
</a>
</g>
</g>
<!-- Node4 -->
<g id="Node000004" class="node">
<title>Node4</title>
<g id="a_Node000004"><a xlink:href="$class_my_frame.html#a6e0ebad55b1d785b586997826c512f7d" xlink:title=" ">
<polygon fill="white" stroke="#666666" points="644.5,-116 531,-116 531,-96 644.5,-96 644.5,-116"/>
<text text-anchor="middle" x="587.75" y="-102.5" font-family="Helvetica,sans-Serif" font-size="10.00">MyFrame::getMainTag</text>
</a>
</g>
</g>
<!-- Node3&#45;&gt;Node4 -->
<g id="edge55_Node000003_Node000004" class="edge">
<title>Node3&#45;&gt;Node4</title>
<g id="a_edge55_Node000003_Node000004"><a xlink:title=" ">
<path fill="none" stroke="#63b8ff" d="M495.32,-106C503.27,-106 511.39,-106 519.34,-106"/>
<polygon fill="#63b8ff" stroke="#63b8ff" points="519.32,-109.5 529.32,-106 519.32,-102.5 519.32,-109.5"/>
</a>
</g>
</g>
<!-- Node5 -->
<g id="Node000005" class="node">
<title>Node5</title>
<g id="a_Node000005"><a xlink:href="$class_interpretor.html#a885b425a60dd2467089fc680f4528f03" xlink:title=" ">
<polygon fill="white" stroke="#666666" points="806.75,-144 688,-144 688,-124 806.75,-124 806.75,-144"/>
<text text-anchor="middle" x="747.38" y="-130.5" font-family="Helvetica,sans-Serif" font-size="10.00">Interpretor::doUnitTests</text>
</a>
</g>
</g>
<!-- Node4&#45;&gt;Node5 -->
<g id="edge56_Node000004_Node000005" class="edge">
<title>Node4&#45;&gt;Node5</title>
<g id="a_edge56_Node000004_Node000005"><a xlink:title=" ">
<path fill="none" stroke="#63b8ff" d="M644.77,-115.95C654.97,-117.76 665.73,-119.67 676.28,-121.55"/>
<polygon fill="#63b8ff" stroke="#63b8ff" points="675.66,-124.99 686.12,-123.3 676.88,-118.1 675.66,-124.99"/>
</a>
</g>
</g>
<!-- Node37 -->
<g id="Node000037" class="node">
<title>Node37</title>
<g id="a_Node000037"><a xlink:href="$class_interpretor.html#a6e04dd33cb518270ae83197706689a2e" xlink:title=" ">
<polygon fill="white" stroke="#666666" points="814.25,-97 680.5,-97 680.5,-77 814.25,-77 814.25,-97"/>
<text text-anchor="middle" x="747.38" y="-83.5" font-family="Helvetica,sans-Serif" font-size="10.00">Interpretor::readActivityFile</text>
</a>
</g>
</g>
<!-- Node4&#45;&gt;Node37 -->
<g id="edge96_Node000004_Node000037" class="edge">
<title>Node4&#45;&gt;Node37</title>
<g id="a_edge96_Node000004_Node000037"><a xlink:title=" ">
<path fill="none" stroke="#63b8ff" d="M644.77,-99.25C652.53,-98.31 660.61,-97.34 668.67,-96.37"/>
<polygon fill="#63b8ff" stroke="#63b8ff" points="669.02,-99.85 678.53,-95.18 668.18,-92.9 669.02,-99.85"/>
</a>
</g>
</g>
<!-- Node6 -->
<g id="Node000006" class="node">
<title>Node6</title>
<g id="a_Node000006"><a xlink:href="$class_interpretor.html#a73bdd0d1c2896aa2039bdccde17c0fa1" xlink:title=" ">
<polygon fill="white" stroke="#666666" points="981.75,-154 850.25,-154 850.25,-134 981.75,-134 981.75,-154"/>
<text text-anchor="middle" x="916" y="-140.5" font-family="Helvetica,sans-Serif" font-size="10.00">Interpretor::compileTokens</text>
</a>
</g>
</g>
<!-- Node5&#45;&gt;Node6 -->
<g id="edge57_Node000005_Node000006" class="edge">
<title>Node5&#45;&gt;Node6</title>
<g id="a_edge57_Node000005_Node000006"><a xlink:title=" ">
<path fill="none" stroke="#63b8ff" d="M807.12,-137.53C817.3,-138.14 828.03,-138.78 838.6,-139.41"/>
<polygon fill="#63b8ff" stroke="#63b8ff" points="838.28,-142.9 848.47,-140.01 838.7,-135.91 838.28,-142.9"/>
</a>
</g>
</g>
<!-- Node7 -->
<g id="Node000007" class="node">
<title>Node7</title>
<g id="a_Node000007"><a xlink:href="$class_interpretor.html#a832cf788bcaca68a99ca43db0bd448d7" xlink:title=" ">
<polygon fill="white" stroke="#666666" points="1150,-116 1017.75,-116 1017.75,-96 1150,-96 1150,-116"/>
<text text-anchor="middle" x="1083.88" y="-102.5" font-family="Helvetica,sans-Serif" font-size="10.00">Interpretor::executeTokens</text>
</a>
</g>
</g>
<!-- Node6&#45;&gt;Node7 -->
<g id="edge58_Node000006_Node000007" class="edge">
<title>Node6&#45;&gt;Node7</title>
<g id="a_edge58_Node000006_Node000007"><a xlink:title=" ">
<path fill="none" stroke="#63b8ff" d="M962.77,-133.52C982.35,-129.03 1005.41,-123.75 1026.07,-119.01"/>
<polygon fill="#63b8ff" stroke="#63b8ff" points="1026.82,-122.43 1035.78,-116.79 1025.25,-115.61 1026.82,-122.43"/>
</a>
</g>
</g>
<!-- Node11 -->
<g id="Node000011" class="node">
<title>Node11</title>
<g id="a_Node000011"><a xlink:href="$class_interpretor.html#a213dd04d8ca9dbb188f29e2284fcbc5a" xlink:title=" ">
<polygon fill="white" stroke="#666666" points="1139.5,-154 1028.25,-154 1028.25,-134 1139.5,-134 1139.5,-154"/>
<text text-anchor="middle" x="1083.88" y="-140.5" font-family="Helvetica,sans-Serif" font-size="10.00">Interpretor::getTokens</text>
</a>
</g>
</g>
<!-- Node6&#45;&gt;Node11 -->
<g id="edge62_Node000006_Node000011" class="edge">
<title>Node6&#45;&gt;Node11</title>
<g id="a_edge62_Node000006_Node000011"><a xlink:title=" ">
<path fill="none" stroke="#63b8ff" d="M982.08,-144C993.45,-144 1005.29,-144 1016.69,-144"/>
<polygon fill="#63b8ff" stroke="#63b8ff" points="1016.39,-147.5 1026.39,-144 1016.39,-140.5 1016.39,-147.5"/>
</a>
</g>
</g>
<!-- Node8 -->
<g id="Node000008" class="node">
<title>Node8</title>
<g id="a_Node000008"><a xlink:href="$class_iterator_list.html#ad207131e5d995b00c00118fa4ac6a21d" xlink:title=" ">
<polygon fill="white" stroke="#666666" points="1287.5,-135 1192,-135 1192,-115 1287.5,-115 1287.5,-135"/>
<text text-anchor="middle" x="1239.75" y="-121.5" font-family="Helvetica,sans-Serif" font-size="10.00">IteratorList::empty</text>
</a>
</g>
</g>
<!-- Node7&#45;&gt;Node8 -->
<g id="edge59_Node000007_Node000008" class="edge">
<title>Node7&#45;&gt;Node8</title>
<g id="a_edge59_Node000007_Node000008"><a xlink:title=" ">
<path fill="none" stroke="#63b8ff" d="M1150.13,-114.06C1160.14,-115.29 1170.42,-116.56 1180.27,-117.78"/>
<polygon fill="#63b8ff" stroke="#63b8ff" points="1179.74,-121.24 1190.09,-118.99 1180.59,-114.29 1179.74,-121.24"/>
</a>
</g>
</g>
<!-- Node9 -->
<g id="Node000009" class="node">
<title>Node9</title>
<g id="a_Node000009"><a xlink:href="$class_iterator_list.html#abf379455656b776b4e100dba9d4d7ccc" xlink:title=" ">
<polygon fill="white" stroke="#666666" points="1290.5,-97 1189,-97 1189,-77 1290.5,-77 1290.5,-97"/>
<text text-anchor="middle" x="1239.75" y="-83.5" font-family="Helvetica,sans-Serif" font-size="10.00">IteratorList::getFirst</text>
</a>
</g>
</g>
<!-- Node7&#45;&gt;Node9 -->
<g id="edge60_Node000007_Node000009" class="edge">
<title>Node7&#45;&gt;Node9</title>
<g id="a_edge60_Node000007_Node000009"><a xlink:title=" ">
<path fill="none" stroke="#63b8ff" d="M1150.13,-97.94C1159.23,-96.82 1168.55,-95.67 1177.58,-94.55"/>
<polygon fill="#63b8ff" stroke="#63b8ff" points="1177.8,-98.05 1187.3,-93.35 1176.95,-91.1 1177.8,-98.05"/>
</a>
</g>
</g>
<!-- Node10 -->
<g id="Node000010" class="node">
<title>Node10</title>
<g id="a_Node000010"><a xlink:href="$class_iterator_list.html#a47139a087ca9af560c2001e08c4d3f83" xlink:title=" ">
<polygon fill="white" stroke="#666666" points="1283,-59 1196.5,-59 1196.5,-39 1283,-39 1283,-59"/>
<text text-anchor="middle" x="1239.75" y="-45.5" font-family="Helvetica,sans-Serif" font-size="10.00">IteratorList::size</text>
</a>
</g>
</g>
<!-- Node7&#45;&gt;Node10 -->
<g id="edge61_Node000007_Node000010" class="edge">
<title>Node7&#45;&gt;Node10</title>
<g id="a_edge61_Node000007_Node000010"><a xlink:title=" ">
<path fill="none" stroke="#63b8ff" d="M1125.26,-95.6C1133.55,-93.08 1142.14,-90.18 1150,-87 1166.77,-80.21 1169.45,-75.31 1186,-68 1189.54,-66.44 1193.24,-64.91 1196.98,-63.43"/>
<polygon fill="#63b8ff" stroke="#63b8ff" points="1197.98,-66.79 1206.09,-59.98 1195.5,-60.25 1197.98,-66.79"/>
</a>
</g>
</g>
<!-- Node12 -->
<g id="Node000012" class="node">
<title>Node12</title>
<g id="a_Node000012"><a xlink:href="$class_lexer.html#acf897fb607a542d5c7c8cd4b0dcb1d18" xlink:title=" ">
<polygon fill="white" stroke="#666666" points="1293.5,-173 1186,-173 1186,-153 1293.5,-153 1293.5,-173"/>
<text text-anchor="middle" x="1239.75" y="-159.5" font-family="Helvetica,sans-Serif" font-size="10.00">Lexer::extractTokens</text>
</a>
</g>
</g>
<!-- Node11&#45;&gt;Node12 -->
<g id="edge63_Node000011_Node000012" class="edge">
<title>Node11&#45;&gt;Node12</title>
<g id="a_edge63_Node000011_Node000012"><a xlink:title=" ">
<path fill="none" stroke="#63b8ff" d="M1139.99,-150.81C1151.12,-152.18 1162.91,-153.63 1174.32,-155.04"/>
<polygon fill="#63b8ff" stroke="#63b8ff" points="1173.71,-158.5 1184.06,-156.25 1174.56,-151.55 1173.71,-158.5"/>
</a>
</g>
</g>
<!-- Node13 -->
<g id="Node000013" class="node">
<title>Node13</title>
<g id="a_Node000013"><a xlink:href="$_text_manager_8cpp.html#a46d952a72f09b33c8620f9978b962cee" xlink:title=" ">
<polygon fill="white" stroke="#666666" points="1437.75,-293 1353.5,-293 1353.5,-273 1437.75,-273 1437.75,-293"/>
<text text-anchor="middle" x="1395.62" y="-279.5" font-family="Helvetica,sans-Serif" font-size="10.00">beginsBySpace</text>
</a>
</g>
</g>
<!-- Node12&#45;&gt;Node13 -->
<g id="edge64_Node000012_Node000013" class="edge">
<title>Node12&#45;&gt;Node13</title>
<g id="a_edge64_Node000012_Node000013"><a xlink:title=" ">
<path fill="none" stroke="#63b8ff" d="M1251.89,-173.27C1268.38,-188.29 1300.46,-216.87 1329.5,-239 1342.05,-248.56 1356.55,-258.46 1368.67,-266.45"/>
<polygon fill="#63b8ff" stroke="#63b8ff" points="1366.65,-269.3 1376.94,-271.82 1370.47,-263.44 1366.65,-269.3"/>
</a>
</g>
</g>
<!-- Node15 -->
<g id="Node000015" class="node">
<title>Node15</title>
<g id="a_Node000015"><a xlink:href="$class_lexer.html#a38487c80f0fe8c7f35a2a495015945be" xlink:title=" ">
<polygon fill="white" stroke="#666666" points="1459.5,-154 1331.75,-154 1331.75,-134 1459.5,-134 1459.5,-154"/>
<text text-anchor="middle" x="1395.62" y="-140.5" font-family="Helvetica,sans-Serif" font-size="10.00">Lexer::extractStringLiteral</text>
</a>
</g>
</g>
<!-- Node12&#45;&gt;Node15 -->
<g id="edge66_Node000012_Node000015" class="edge">
<title>Node12&#45;&gt;Node15</title>
<g id="a_edge66_Node000012_Node000015"><a xlink:title=" ">
<path fill="none" stroke="#63b8ff" d="M1293.71,-156.46C1302.26,-155.4 1311.26,-154.29 1320.21,-153.19"/>
<polygon fill="#63b8ff" stroke="#63b8ff" points="1320.49,-156.68 1329.99,-151.98 1319.63,-149.73 1320.49,-156.68"/>
</a>
</g>
</g>
<!-- Node19 -->
<g id="Node000019" class="node">
<title>Node19</title>
<g id="a_Node000019"><a xlink:href="$class_lexer.html#a6d58c8a031d7f7dd28c3501984b4eab6" xlink:title=" ">
<polygon fill="white" stroke="#666666" points="1606.75,-60 1521,-60 1521,-40 1606.75,-40 1606.75,-60"/>
<text text-anchor="middle" x="1563.88" y="-46.5" font-family="Helvetica,sans-Serif" font-size="10.00">Lexer::getToken</text>
</a>
</g>
</g>
<!-- Node12&#45;&gt;Node19 -->
<g id="edge92_Node000012_Node000019" class="edge">
<title>Node12&#45;&gt;Node19</title>
<g id="a_edge92_Node000012_Node000019"><a xlink:title=" ">
<path fill="none" stroke="#63b8ff" d="M1272,-152.56C1279.14,-149.95 1286.64,-147.03 1293.5,-144 1310.05,-136.69 1312.82,-132.02 1329.5,-125 1390.87,-99.18 1464.4,-76.9 1512.3,-63.49"/>
<polygon fill="#63b8ff" stroke="#63b8ff" points="1513.14,-66.88 1521.85,-60.84 1511.27,-60.14 1513.14,-66.88"/>
</a>
</g>
</g>
<!-- Node30 -->
<g id="Node000030" class="node">
<title>Node30</title>
<g id="a_Node000030"><a xlink:href="$class_lexer.html#a6d27c5679af8fff9df7b0885ecceb9ac" xlink:title=" ">
<polygon fill="white" stroke="#666666" points="1621.75,-192 1506,-192 1506,-172 1621.75,-172 1621.75,-192"/>
<text text-anchor="middle" x="1563.88" y="-178.5" font-family="Helvetica,sans-Serif" font-size="10.00">Lexer::skipTokenString</text>
</a>
</g>
</g>
<!-- Node12&#45;&gt;Node30 -->
<g id="edge95_Node000012_Node000030" class="edge">
<title>Node12&#45;&gt;Node30</title>
<g id="a_edge95_Node000012_Node000030"><a xlink:title=" ">
<path fill="none" stroke="#63b8ff" d="M1293.94,-166.14C1348.75,-169.37 1434.41,-174.42 1494.29,-177.95"/>
<polygon fill="#63b8ff" stroke="#63b8ff" points="1493.83,-181.43 1504.02,-178.53 1494.24,-174.45 1493.83,-181.43"/>
</a>
</g>
</g>
<!-- Node33 -->
<g id="Node000033" class="node">
<title>Node33</title>
<g id="a_Node000033"><a xlink:href="$class_lexer.html#a243227232c190f441498270efa40ccb8" xlink:title=" ">
<polygon fill="white" stroke="#666666" points="1461.75,-230 1329.5,-230 1329.5,-210 1461.75,-210 1461.75,-230"/>
<text text-anchor="middle" x="1395.62" y="-216.5" font-family="Helvetica,sans-Serif" font-size="10.00">Lexer::getNextTokenString</text>
</a>
</g>
</g>
<!-- Node12&#45;&gt;Node33 -->
<g id="edge89_Node000012_Node000033" class="edge">
<title>Node12&#45;&gt;Node33</title>
<g id="a_edge89_Node000012_Node000033"><a xlink:title=" ">
<path fill="none" stroke="#63b8ff" d="M1268.72,-173.42C1286.19,-179.93 1309.15,-188.47 1329.5,-196 1337.92,-199.12 1346.96,-202.45 1355.54,-205.62"/>
<polygon fill="#63b8ff" stroke="#63b8ff" points="1354.07,-208.81 1364.67,-208.98 1356.49,-202.24 1354.07,-208.81"/>
</a>
</g>
</g>
<!-- Node35 -->
<g id="Node000035" class="node">
<title>Node35</title>
<g id="a_Node000035"><a xlink:href="$_text_manager_8cpp.html#aa6913b7fe272fe20684f1c5c701d54d7" xlink:title=" ">
<polygon fill="white" stroke="#666666" points="1426.5,-36 1364.75,-36 1364.75,-16 1426.5,-16 1426.5,-36"/>
<text text-anchor="middle" x="1395.62" y="-22.5" font-family="Helvetica,sans-Serif" font-size="10.00">skipSpace</text>
</a>
</g>
</g>
<!-- Node12&#45;&gt;Node35 -->
<g id="edge93_Node000012_Node000035" class="edge">
<title>Node12&#45;&gt;Node35</title>
<g id="a_edge93_Node000012_Node000035"><a xlink:title=" ">
<path fill="none" stroke="#63b8ff" d="M1279.99,-152.57C1284.85,-150.24 1289.51,-147.42 1293.5,-144 1318.87,-122.26 1308.02,-103.6 1329.5,-78 1340.77,-64.58 1355.95,-52.21 1368.82,-42.91"/>
<polygon fill="#63b8ff" stroke="#63b8ff" points="1370.67,-45.89 1376.87,-37.3 1366.67,-40.15 1370.67,-45.89"/>
</a>
</g>
</g>
<!-- Node14 -->
<g id="Node000014" class="node">
<title>Node14</title>
<g id="a_Node000014"><a xlink:href="$_text_manager_8cpp.html#aa18ab3a474aba30784c5521be8a7da65" xlink:title=" ">
<polygon fill="white" stroke="#666666" points="1613.88,-318 1513.88,-318 1513.88,-298 1613.88,-298 1613.88,-318"/>
<text text-anchor="middle" x="1563.88" y="-304.5" font-family="Helvetica,sans-Serif" font-size="10.00">beginsBySequence</text>
</a>
</g>
</g>
<!-- Node13&#45;&gt;Node14 -->
<g id="edge65_Node000013_Node000014" class="edge">
<title>Node13&#45;&gt;Node14</title>
<g id="a_edge65_Node000013_Node000014"><a xlink:title=" ">
<path fill="none" stroke="#63b8ff" d="M1438.15,-289.24C1457.55,-292.16 1481.03,-295.69 1502.36,-298.9"/>
<polygon fill="#63b8ff" stroke="#63b8ff" points="1501.71,-302.34 1512.11,-300.37 1502.75,-295.42 1501.71,-302.34"/>
</a>
</g>
</g>
<!-- Node16 -->
<g id="Node000016" class="node">
<title>Node16</title>
<g id="a_Node000016"><a xlink:href="$_token_8cpp.html#a426cbd25cc7742ac6cface09364031ba" xlink:title=" ">
<polygon fill="white" stroke="#666666" points="1604.5,-154 1523.25,-154 1523.25,-134 1604.5,-134 1604.5,-154"/>
<text text-anchor="middle" x="1563.88" y="-140.5" font-family="Helvetica,sans-Serif" font-size="10.00">getStringLiteral</text>
</a>
</g>
</g>
<!-- Node15&#45;&gt;Node16 -->
<g id="edge67_Node000015_Node000016" class="edge">
<title>Node15&#45;&gt;Node16</title>
<g id="a_edge67_Node000015_Node000016"><a xlink:title=" ">
<path fill="none" stroke="#63b8ff" d="M1459.95,-144C1476.93,-144 1495.09,-144 1511.35,-144"/>
<polygon fill="#63b8ff" stroke="#63b8ff" points="1511.29,-147.5 1521.29,-144 1511.29,-140.5 1511.29,-147.5"/>
</a>
</g>
</g>
<!-- Node15&#45;&gt;Node19 -->
<g id="edge70_Node000015_Node000019" class="edge">
<title>Node15&#45;&gt;Node19</title>
<g id="a_edge70_Node000015_Node000019"><a xlink:title=" ">
<path fill="none" stroke="#63b8ff" d="M1415.05,-133.58C1444.01,-117.21 1500.39,-85.33 1534.54,-66.02"/>
<polygon fill="#63b8ff" stroke="#63b8ff" points="1536.07,-69.18 1543.05,-61.21 1532.62,-63.09 1536.07,-69.18"/>
</a>
</g>
</g>
<!-- Node28 -->
<g id="Node000028" class="node">
<title>Node28</title>
<g id="a_Node000028"><a xlink:href="$_text_manager_8cpp.html#a053e0b36b2796cc4d128150353f13449" xlink:title=" ">
<polygon fill="white" stroke="#666666" points="1759.62,-121 1682.12,-121 1682.12,-101 1759.62,-101 1759.62,-121"/>
<text text-anchor="middle" x="1720.88" y="-107.5" font-family="Helvetica,sans-Serif" font-size="10.00">skipSequence</text>
</a>
</g>
</g>
<!-- Node15&#45;&gt;Node28 -->
<g id="edge80_Node000015_Node000028" class="edge">
<title>Node15&#45;&gt;Node28</title>
<g id="a_edge80_Node000015_Node000028"><a xlink:title=" ">
<path fill="none" stroke="#63b8ff" d="M1445.81,-133.5C1462.26,-130.33 1480.73,-127.13 1497.75,-125 1557.01,-117.59 1625.67,-114.03 1670.79,-112.36"/>
<polygon fill="#63b8ff" stroke="#63b8ff" points="1670.63,-115.87 1680.5,-112.02 1670.38,-108.88 1670.63,-115.87"/>
</a>
</g>
</g>
<!-- Node15&#45;&gt;Node30 -->
<g id="edge83_Node000015_Node000030" class="edge">
<title>Node15&#45;&gt;Node30</title>
<g id="a_edge83_Node000015_Node000030"><a xlink:title=" ">
<path fill="none" stroke="#63b8ff" d="M1442.49,-154.48C1462.12,-158.97 1485.24,-164.25 1505.94,-168.99"/>
<polygon fill="#63b8ff" stroke="#63b8ff" points="1505.15,-172.4 1515.68,-171.21 1506.71,-165.57 1505.15,-172.4"/>
</a>
</g>
</g>
<!-- Node17 -->
<g id="Node000017" class="node">
<title>Node17</title>
<g id="a_Node000017"><a xlink:href="$_text_manager_8cpp.html#aff8311b88dbf5f3091f3ac1262543242" xlink:title=" ">
<polygon fill="white" stroke="#666666" points="1762.62,-225 1679.12,-225 1679.12,-205 1762.62,-205 1762.62,-225"/>
<text text-anchor="middle" x="1720.88" y="-211.5" font-family="Helvetica,sans-Serif" font-size="10.00">getStringBefore</text>
</a>
</g>
</g>
<!-- Node16&#45;&gt;Node17 -->
<g id="edge68_Node000016_Node000017" class="edge">
<title>Node16&#45;&gt;Node17</title>
<g id="a_edge68_Node000016_Node000017"><a xlink:title=" ">
<path fill="none" stroke="#63b8ff" d="M1604.67,-153.96C1613.16,-156.54 1621.99,-159.57 1630,-163 1653,-172.84 1677.47,-187.29 1695.06,-198.46"/>
<polygon fill="#63b8ff" stroke="#63b8ff" points="1692.99,-201.29 1703.29,-203.78 1696.79,-195.41 1692.99,-201.29"/>
</a>
</g>
</g>
<!-- Node18 -->
<g id="Node000018" class="node">
<title>Node18</title>
<g id="a_Node000018"><a xlink:href="$_text_manager_8cpp.html#a3f4afb2b62acd297e783a22ffa9a7000" xlink:title=" ">
<polygon fill="white" stroke="#666666" points="2026.75,-169 1936.5,-169 1936.5,-149 2026.75,-149 2026.75,-169"/>
<text text-anchor="middle" x="1981.62" y="-155.5" font-family="Helvetica,sans-Serif" font-size="10.00">getSequencePos</text>
</a>
</g>
</g>
<!-- Node17&#45;&gt;Node18 -->
<g id="edge69_Node000017_Node000018" class="edge">
<title>Node17&#45;&gt;Node18</title>
<g id="a_edge69_Node000017_Node000018"><a xlink:title=" ">
<path fill="none" stroke="#63b8ff" d="M1763.02,-214.41C1799.68,-213 1854.5,-208.69 1900.5,-196 1918.45,-191.05 1937.41,-182.46 1952.38,-174.81"/>
<polygon fill="#63b8ff" stroke="#63b8ff" points="1953.95,-177.93 1961.16,-170.17 1950.68,-171.74 1953.95,-177.93"/>
</a>
</g>
</g>
<!-- Node19&#45;&gt;Node19 -->
<g id="edge71_Node000019_Node000019" class="edge">
<title>Node19&#45;&gt;Node19</title>
<g id="a_edge71_Node000019_Node000019"><a xlink:title=" ">
<path fill="none" stroke="#63b8ff" d="M1538.93,-60.34C1528.27,-68.98 1536.58,-78 1563.88,-78 1578.8,-78 1588.05,-75.3 1591.62,-71.44"/>
<polygon fill="#63b8ff" stroke="#63b8ff" points="1595.03,-70.65 1589.19,-61.81 1588.25,-72.36 1595.03,-70.65"/>
</a>
</g>
</g>
<!-- Node20 -->
<g id="Node000020" class="node">
<title>Node20</title>
<g id="a_Node000020"><a xlink:href="$class_lexer.html#a142bd017adf2e3df1522e0cce7a3fb0c" xlink:title=" ">
<polygon fill="white" stroke="#666666" points="1775.75,-60 1666,-60 1666,-40 1775.75,-40 1775.75,-60"/>
<text text-anchor="middle" x="1720.88" y="-46.5" font-family="Helvetica,sans-Serif" font-size="10.00">Lexer::getTokenValue</text>
</a>
</g>
</g>
<!-- Node19&#45;&gt;Node20 -->
<g id="edge72_Node000019_Node000020" class="edge">
<title>Node19&#45;&gt;Node20</title>
<g id="a_edge72_Node000019_Node000020"><a xlink:title=" ">
<path fill="none" stroke="#63b8ff" d="M1607.23,-50C1621.73,-50 1638.31,-50 1654.21,-50"/>
<polygon fill="#63b8ff" stroke="#63b8ff" points="1654.11,-53.5 1664.11,-50 1654.11,-46.5 1654.11,-53.5"/>
</a>
</g>
</g>
<!-- Node21 -->
<g id="Node000021" class="node">
<title>Node21</title>
<g id="a_Node000021"><a xlink:href="$_lexer_8cpp.html#a32fa5cbc79c968c5b53e8303ad77091d" xlink:title=" ">
<polygon fill="white" stroke="#666666" points="1886.62,-77 1825.62,-77 1825.62,-57 1886.62,-57 1886.62,-77"/>
<text text-anchor="middle" x="1856.12" y="-63.5" font-family="Helvetica,sans-Serif" font-size="10.00">isIdentifier</text>
</a>
</g>
</g>
<!-- Node20&#45;&gt;Node21 -->
<g id="edge73_Node000020_Node000021" class="edge">
<title>Node20&#45;&gt;Node21</title>
<g id="a_edge73_Node000020_Node000021"><a xlink:title=" ">
<path fill="none" stroke="#63b8ff" d="M1776.07,-56.91C1788.85,-58.54 1802.26,-60.26 1814.33,-61.8"/>
<polygon fill="#63b8ff" stroke="#63b8ff" points="1813.56,-65.23 1823.93,-63.02 1814.45,-58.28 1813.56,-65.23"/>
</a>
</g>
</g>
<!-- Node27 -->
<g id="Node000027" class="node">
<title>Node27</title>
<g id="a_Node000027"><a xlink:href="$_lexer_8cpp.html#aaa3b01d6b7b6b5bf4b868b37fcf3ac6f" xlink:title=" ">
<polygon fill="white" stroke="#666666" points="1885.12,-39 1827.12,-39 1827.12,-19 1885.12,-19 1885.12,-39"/>
<text text-anchor="middle" x="1856.12" y="-25.5" font-family="Helvetica,sans-Serif" font-size="10.00">isNumber</text>
</a>
</g>
</g>
<!-- Node20&#45;&gt;Node27 -->
<g id="edge79_Node000020_Node000027" class="edge">
<title>Node20&#45;&gt;Node27</title>
<g id="a_edge79_Node000020_Node000027"><a xlink:title=" ">
<path fill="none" stroke="#63b8ff" d="M1776.07,-41.46C1789.29,-39.38 1803.18,-37.19 1815.56,-35.23"/>
<polygon fill="#63b8ff" stroke="#63b8ff" points="1816.08,-38.7 1825.41,-33.68 1814.99,-31.78 1816.08,-38.7"/>
</a>
</g>
</g>
<!-- Node22 -->
<g id="Node000022" class="node">
<title>Node22</title>
<g id="a_Node000022"><a xlink:href="$_token_8cpp.html#ad42767aaf8252eb57581d009530bd527" xlink:title=" ">
<polygon fill="white" stroke="#666666" points="2019.25,-77 1944,-77 1944,-57 2019.25,-57 2019.25,-77"/>
<text text-anchor="middle" x="1981.62" y="-63.5" font-family="Helvetica,sans-Serif" font-size="10.00">isTokenString</text>
</a>
</g>
</g>
<!-- Node21&#45;&gt;Node22 -->
<g id="edge74_Node000021_Node000022" class="edge">
<title>Node21&#45;&gt;Node22</title>
<g id="a_edge74_Node000021_Node000022"><a xlink:title=" ">
<path fill="none" stroke="#63b8ff" d="M1887.02,-67C1900.67,-67 1917.19,-67 1932.52,-67"/>
<polygon fill="#63b8ff" stroke="#63b8ff" points="1932.43,-70.5 1942.43,-67 1932.43,-63.5 1932.43,-70.5"/>
</a>
</g>
</g>
<!-- Node23 -->
<g id="Node000023" class="node">
<title>Node23</title>
<g id="a_Node000023"><a xlink:href="$_token_8cpp.html#a3276e6efe4a3f409262ffe0b345e9636" xlink:title=" ">
<polygon fill="white" stroke="#666666" points="2156.75,-134 2069.5,-134 2069.5,-114 2156.75,-114 2156.75,-134"/>
<text text-anchor="middle" x="2113.12" y="-120.5" font-family="Helvetica,sans-Serif" font-size="10.00">isKeywordString</text>
</a>
</g>
</g>
<!-- Node22&#45;&gt;Node23 -->
<g id="edge75_Node000022_Node000023" class="edge">
<title>Node22&#45;&gt;Node23</title>
<g id="a_edge75_Node000022_Node000023"><a xlink:title=" ">
<path fill="none" stroke="#63b8ff" d="M2003.51,-77.44C2019.57,-85.33 2042.37,-96.26 2062.75,-105 2066.13,-106.45 2069.65,-107.91 2073.2,-109.34"/>
<polygon fill="#63b8ff" stroke="#63b8ff" points="2071.78,-112.54 2082.37,-112.96 2074.35,-106.03 2071.78,-112.54"/>
</a>
</g>
</g>
<!-- Node24 -->
<g id="Node000024" class="node">
<title>Node24</title>
<g id="a_Node000024"><a xlink:href="$_token_8cpp.html#ae8bab56314c8b787497a84c189b9114d" xlink:title=" ">
<polygon fill="white" stroke="#666666" points="2150.75,-96 2075.5,-96 2075.5,-76 2150.75,-76 2150.75,-96"/>
<text text-anchor="middle" x="2113.12" y="-82.5" font-family="Helvetica,sans-Serif" font-size="10.00">isLiteralString</text>
</a>
</g>
</g>
<!-- Node22&#45;&gt;Node24 -->
<g id="edge76_Node000022_Node000024" class="edge">
<title>Node22&#45;&gt;Node24</title>
<g id="a_edge76_Node000022_Node000024"><a xlink:title=" ">
<path fill="none" stroke="#63b8ff" d="M2019.73,-72.44C2033.42,-74.45 2049.13,-76.76 2063.66,-78.89"/>
<polygon fill="#63b8ff" stroke="#63b8ff" points="2063.11,-82.35 2073.51,-80.33 2064.13,-75.42 2063.11,-82.35"/>
</a>
</g>
</g>
<!-- Node25 -->
<g id="Node000025" class="node">
<title>Node25</title>
<g id="a_Node000025"><a xlink:href="$_token_8cpp.html#ae80d3823673e42ed3ce7e84597bbd552" xlink:title=" ">
<polygon fill="white" stroke="#666666" points="2156.38,-58 2069.88,-58 2069.88,-38 2156.38,-38 2156.38,-58"/>
<text text-anchor="middle" x="2113.12" y="-44.5" font-family="Helvetica,sans-Serif" font-size="10.00">isOperatorString</text>
</a>
</g>
</g>
<!-- Node22&#45;&gt;Node25 -->
<g id="edge77_Node000022_Node000025" class="edge">
<title>Node22&#45;&gt;Node25</title>
<g id="a_edge77_Node000022_Node000025"><a xlink:title=" ">
<path fill="none" stroke="#63b8ff" d="M2019.73,-61.56C2031.76,-59.79 2045.35,-57.8 2058.33,-55.89"/>
<polygon fill="#63b8ff" stroke="#63b8ff" points="2058.65,-59.38 2068.03,-54.47 2057.63,-52.46 2058.65,-59.38"/>
</a>
</g>
</g>
<!-- Node26 -->
<g id="Node000026" class="node">
<title>Node26</title>
<g id="a_Node000026"><a xlink:href="$_token_8cpp.html#ad93eecc58b3fdba57ba605dcb296f03e" xlink:title=" ">
<polygon fill="white" stroke="#666666" points="2163.5,-20 2062.75,-20 2062.75,0 2163.5,0 2163.5,-20"/>
<text text-anchor="middle" x="2113.12" y="-6.5" font-family="Helvetica,sans-Serif" font-size="10.00">isPunctuationString</text>
</a>
</g>
</g>
<!-- Node22&#45;&gt;Node26 -->
<g id="edge78_Node000022_Node000026" class="edge">
<title>Node22&#45;&gt;Node26</title>
<g id="a_edge78_Node000022_Node000026"><a xlink:title=" ">
<path fill="none" stroke="#63b8ff" d="M2003.51,-56.56C2019.57,-48.67 2042.37,-37.74 2062.75,-29 2066.13,-27.55 2069.65,-26.09 2073.2,-24.66"/>
<polygon fill="#63b8ff" stroke="#63b8ff" points="2074.35,-27.97 2082.37,-21.04 2071.78,-21.46 2074.35,-27.97"/>
</a>
</g>
</g>
<!-- Node29 -->
<g id="Node000029" class="node">
<title>Node29</title>
<g id="a_Node000029"><a xlink:href="$_text_manager_8cpp.html#a5b66873abcff2faee361721f86b65dd0" xlink:title=" ">
<polygon fill="white" stroke="#666666" points="1890,-131 1822.25,-131 1822.25,-111 1890,-111 1890,-131"/>
<text text-anchor="middle" x="1856.12" y="-117.5" font-family="Helvetica,sans-Serif" font-size="10.00">getPosAfter</text>
</a>
</g>
</g>
<!-- Node28&#45;&gt;Node29 -->
<g id="edge81_Node000028_Node000029" class="edge">
<title>Node28&#45;&gt;Node29</title>
<g id="a_edge81_Node000028_Node000029"><a xlink:title=" ">
<path fill="none" stroke="#63b8ff" d="M1760.06,-113.87C1775.78,-115.05 1794.1,-116.42 1810.43,-117.65"/>
<polygon fill="#63b8ff" stroke="#63b8ff" points="1810.17,-121.14 1820.41,-118.39 1810.7,-114.16 1810.17,-121.14"/>
</a>
</g>
</g>
<!-- Node29&#45;&gt;Node18 -->
<g id="edge82_Node000029_Node000018" class="edge">
<title>Node29&#45;&gt;Node18</title>
<g id="a_edge82_Node000029_Node000018"><a xlink:title=" ">
<path fill="none" stroke="#63b8ff" d="M1890.22,-131.18C1904.25,-135.5 1920.81,-140.6 1935.91,-145.24"/>
<polygon fill="#63b8ff" stroke="#63b8ff" points="1934.54,-148.48 1945.13,-148.08 1936.6,-141.79 1934.54,-148.48"/>
</a>
</g>
</g>
<!-- Node31 -->
<g id="Node000031" class="node">
<title>Node31</title>
<g id="a_Node000031"><a xlink:href="$_text_manager_8cpp.html#a6956d58559ef67f422247fdeb1c22775" xlink:title=" ">
<polygon fill="white" stroke="#666666" points="1758.88,-169 1682.88,-169 1682.88,-149 1758.88,-149 1758.88,-169"/>
<text text-anchor="middle" x="1720.88" y="-155.5" font-family="Helvetica,sans-Serif" font-size="10.00">getStringAfter</text>
</a>
</g>
</g>
<!-- Node30&#45;&gt;Node31 -->
<g id="edge84_Node000030_Node000031" class="edge">
<title>Node30&#45;&gt;Node31</title>
<g id="a_edge84_Node000030_Node000031"><a xlink:title=" ">
<path fill="none" stroke="#63b8ff" d="M1622.15,-173.5C1638.39,-171.09 1655.9,-168.49 1671.55,-166.17"/>
<polygon fill="#63b8ff" stroke="#63b8ff" points="1671.7,-169.69 1681.08,-164.76 1670.68,-162.76 1671.7,-169.69"/>
</a>
</g>
</g>
<!-- Node31&#45;&gt;Node29 -->
<g id="edge85_Node000031_Node000029" class="edge">
<title>Node31&#45;&gt;Node29</title>
<g id="a_edge85_Node000031_Node000029"><a xlink:title=" ">
<path fill="none" stroke="#63b8ff" d="M1758.64,-148.52C1774.94,-143.87 1794.25,-138.36 1811.3,-133.5"/>
<polygon fill="#63b8ff" stroke="#63b8ff" points="1812.01,-136.94 1820.67,-130.83 1810.09,-130.2 1812.01,-136.94"/>
</a>
</g>
</g>
<!-- Node32 -->
<g id="Node000032" class="node">
<title>Node32</title>
<g id="a_Node000032"><a xlink:href="$_text_manager_8cpp.html#a2946b90fb3df56b0a74d53eb4160f4e2" xlink:title=" ">
<polygon fill="white" stroke="#666666" points="1900.5,-169 1811.75,-169 1811.75,-149 1900.5,-149 1900.5,-169"/>
<text text-anchor="middle" x="1856.12" y="-155.5" font-family="Helvetica,sans-Serif" font-size="10.00">getStringStarting</text>
</a>
</g>
</g>
<!-- Node31&#45;&gt;Node32 -->
<g id="edge86_Node000031_Node000032" class="edge">
<title>Node31&#45;&gt;Node32</title>
<g id="a_edge86_Node000031_Node000032"><a xlink:title=" ">
<path fill="none" stroke="#63b8ff" d="M1759.35,-159C1771.98,-159 1786.35,-159 1800.04,-159"/>
<polygon fill="#63b8ff" stroke="#63b8ff" points="1799.83,-162.5 1809.83,-159 1799.83,-155.5 1799.83,-162.5"/>
</a>
</g>
</g>
<!-- Node32&#45;&gt;Node18 -->
<g id="edge87_Node000032_Node000018" class="edge">
<title>Node32&#45;&gt;Node18</title>
<g id="a_edge87_Node000032_Node000018"><a xlink:title=" ">
<path fill="none" stroke="#63b8ff" d="M1900.67,-159C1908.5,-159 1916.77,-159 1924.89,-159"/>
<polygon fill="#63b8ff" stroke="#63b8ff" points="1924.71,-162.5 1934.71,-159 1924.71,-155.5 1924.71,-162.5"/>
</a>
</g>
</g>
<!-- Node32&#45;&gt;Node32 -->
<g id="edge88_Node000032_Node000032" class="edge">
<title>Node32&#45;&gt;Node32</title>
<g id="a_edge88_Node000032_Node000032"><a xlink:title=" ">
<path fill="none" stroke="#63b8ff" d="M1836.18,-169.34C1827.66,-177.98 1834.31,-187 1856.12,-187 1868.06,-187 1875.45,-184.3 1878.31,-180.44"/>
<polygon fill="#63b8ff" stroke="#63b8ff" points="1881.77,-179.93 1876.37,-170.82 1874.91,-181.32 1881.77,-179.93"/>
</a>
</g>
</g>
<!-- Node33&#45;&gt;Node17 -->
<g id="edge91_Node000033_Node000017" class="edge">
<title>Node33&#45;&gt;Node17</title>
<g id="a_edge91_Node000033_Node000017"><a xlink:title=" ">
<path fill="none" stroke="#63b8ff" d="M1462.04,-218.99C1522.49,-218.05 1611.18,-216.68 1667.2,-215.81"/>
<polygon fill="#63b8ff" stroke="#63b8ff" points="1667.17,-219.32 1677.12,-215.66 1667.07,-212.32 1667.17,-219.32"/>
</a>
</g>
</g>
<!-- Node34 -->
<g id="Node000034" class="node">
<title>Node34</title>
<g id="a_Node000034"><a xlink:href="$class_lexer.html#aeea59528280fc24aaf8a24d0182df826" xlink:title=" ">
<polygon fill="white" stroke="#666666" points="1630,-280 1497.75,-280 1497.75,-248 1630,-248 1630,-280"/>
<text text-anchor="start" x="1505.75" y="-266.5" font-family="Helvetica,sans-Serif" font-size="10.00">Lexer::getNextPunctuation</text>
<text text-anchor="middle" x="1563.88" y="-254.5" font-family="Helvetica,sans-Serif" font-size="10.00">Token</text>
</a>
</g>
</g>
<!-- Node33&#45;&gt;Node34 -->
<g id="edge90_Node000033_Node000034" class="edge">
<title>Node33&#45;&gt;Node34</title>
<g id="a_edge90_Node000033_Node000034"><a xlink:title=" ">
<path fill="none" stroke="#63b8ff" d="M1436.02,-230.43C1452.08,-234.68 1471.18,-239.73 1489.63,-244.61"/>
<polygon fill="#63b8ff" stroke="#63b8ff" points="1488.66,-247.98 1499.22,-247.15 1490.45,-241.21 1488.66,-247.98"/>
</a>
</g>
</g>
<!-- Node36 -->
<g id="Node000036" class="node">
<title>Node36</title>
<g id="a_Node000036"><a xlink:href="$_text_manager_8cpp.html#ae58f22c7238c63a9ffd8ac0f9fb36216" xlink:title=" ">
<polygon fill="white" stroke="#666666" points="1611.25,-22 1516.5,-22 1516.5,-2 1611.25,-2 1611.25,-22"/>
<text text-anchor="middle" x="1563.88" y="-8.5" font-family="Helvetica,sans-Serif" font-size="10.00">skipAnySequence</text>
</a>
</g>
</g>
<!-- Node35&#45;&gt;Node36 -->
<g id="edge94_Node000035_Node000036" class="edge">
<title>Node35&#45;&gt;Node36</title>
<g id="a_edge94_Node000035_Node000036"><a xlink:title=" ">
<path fill="none" stroke="#63b8ff" d="M1426.73,-23.46C1448.41,-21.64 1478.35,-19.12 1504.64,-16.9"/>
<polygon fill="#63b8ff" stroke="#63b8ff" points="1504.85,-20.4 1514.52,-16.07 1504.26,-13.42 1504.85,-20.4"/>
</a>
</g>
</g>
<!-- Node38 -->
<g id="Node000038" class="node">
<title>Node38</title>
<g id="a_Node000038"><a xlink:href="$_text_manager_8cpp.html#a34a7fbcd3165980b6f6a9e00f79af34c" xlink:title=" ">
<polygon fill="white" stroke="#666666" points="958.5,-116 873.5,-116 873.5,-96 958.5,-96 958.5,-116"/>
<text text-anchor="middle" x="916" y="-102.5" font-family="Helvetica,sans-Serif" font-size="10.00">appendToFolder</text>
</a>
</g>
</g>
<!-- Node37&#45;&gt;Node38 -->
<g id="edge97_Node000037_Node000038" class="edge">
<title>Node37&#45;&gt;Node38</title>
<g id="a_edge97_Node000037_Node000038"><a xlink:title=" ">
<path fill="none" stroke="#63b8ff" d="M814.71,-94.56C830.47,-96.36 847.09,-98.26 862.16,-99.97"/>
<polygon fill="#63b8ff" stroke="#63b8ff" points="861.51,-103.42 871.84,-101.08 862.3,-96.47 861.51,-103.42"/>
</a>
</g>
</g>
<!-- Node39 -->
<g id="Node000039" class="node">
<title>Node39</title>
<g id="a_Node000039"><a xlink:href="$class_interpretor.html#ad464f7beab8778df1253377d8084325c" xlink:title=" ">
<polygon fill="white" stroke="#666666" points="976.5,-78 855.5,-78 855.5,-58 976.5,-58 976.5,-78"/>
<text text-anchor="middle" x="916" y="-64.5" font-family="Helvetica,sans-Serif" font-size="10.00">Interpretor::compileTags</text>
</a>
</g>
</g>
<!-- Node37&#45;&gt;Node39 -->
<g id="edge98_Node000037_Node000039" class="edge">
<title>Node37&#45;&gt;Node39</title>
<g id="a_edge98_Node000037_Node000039"><a xlink:title=" ">
<path fill="none" stroke="#63b8ff" d="M814.71,-79.44C824.3,-78.34 834.2,-77.21 843.88,-76.11"/>
<polygon fill="#63b8ff" stroke="#63b8ff" points="844.06,-79.61 853.6,-75 843.27,-72.66 844.06,-79.61"/>
</a>
</g>
</g>
<!-- Node41 -->
<g id="Node000041" class="node">
<title>Node41</title>
<g id="a_Node000041"><a xlink:href="$class_interpretor.html#a9dc6ba1dacc8671e9b9fdf0f30911c6e" xlink:title=" ">
<polygon fill="white" stroke="#666666" points="976.12,-40 855.88,-40 855.88,-20 976.12,-20 976.12,-40"/>
<text text-anchor="middle" x="916" y="-26.5" font-family="Helvetica,sans-Serif" font-size="10.00">Interpretor::copyActivity</text>
</a>
</g>
</g>
<!-- Node37&#45;&gt;Node41 -->
<g id="edge102_Node000037_Node000041" class="edge">
<title>Node37&#45;&gt;Node41</title>
<g id="a_edge102_Node000037_Node000041"><a xlink:title=" ">
<path fill="none" stroke="#63b8ff" d="M774.58,-76.64C795.04,-68.69 824.28,-57.64 850.25,-49 855.6,-47.22 861.23,-45.44 866.84,-43.72"/>
<polygon fill="#63b8ff" stroke="#63b8ff" points="867.52,-47.17 876.09,-40.93 865.5,-40.46 867.52,-47.17"/>
</a>
</g>
</g>
<!-- Node39&#45;&gt;Node7 -->
<g id="edge100_Node000039_Node000007" class="edge">
<title>Node39&#45;&gt;Node7</title>
<g id="a_edge100_Node000039_Node000007"><a xlink:title=" ">
<path fill="none" stroke="#63b8ff" d="M962.77,-78.48C982.35,-82.97 1005.41,-88.25 1026.07,-92.99"/>
<polygon fill="#63b8ff" stroke="#63b8ff" points="1025.25,-96.39 1035.78,-95.21 1026.82,-89.57 1025.25,-96.39"/>
</a>
</g>
</g>
<!-- Node39&#45;&gt;Node11 -->
<g id="edge101_Node000039_Node000011" class="edge">
<title>Node39&#45;&gt;Node11</title>
<g id="a_edge101_Node000039_Node000011"><a xlink:title=" ">
<path fill="none" stroke="#63b8ff" d="M963.56,-78.4C969.91,-80.74 976.15,-83.58 981.75,-87 1001.6,-99.14 997.89,-112.88 1017.75,-125 1020.21,-126.5 1022.8,-127.89 1025.47,-129.18"/>
<polygon fill="#63b8ff" stroke="#63b8ff" points="1024.07,-132.39 1034.65,-133.04 1026.79,-125.94 1024.07,-132.39"/>
</a>
</g>
</g>
<!-- Node40 -->
<g id="Node000040" class="node">
<title>Node40</title>
<g id="a_Node000040"><a xlink:href="$class_interpretor.html#ace593d79758b37f81ca8cf9d0d8ed386" xlink:title=" ">
<polygon fill="white" stroke="#666666" points="1144.75,-78 1023,-78 1023,-58 1144.75,-58 1144.75,-78"/>
<text text-anchor="middle" x="1083.88" y="-64.5" font-family="Helvetica,sans-Serif" font-size="10.00">Interpretor::executeTags</text>
</a>
</g>
</g>
<!-- Node39&#45;&gt;Node40 -->
<g id="edge99_Node000039_Node000040" class="edge">
<title>Node39&#45;&gt;Node40</title>
<g id="a_edge99_Node000039_Node000040"><a xlink:title=" ">
<path fill="none" stroke="#63b8ff" d="M976.88,-68C988.02,-68 999.76,-68 1011.21,-68"/>
<polygon fill="#63b8ff" stroke="#63b8ff" points="1011.01,-71.5 1021.01,-68 1011.01,-64.5 1011.01,-71.5"/>
</a>
</g>
</g>
<!-- Node42 -->
<g id="Node000042" class="node">
<title>Node42</title>
<g id="a_Node000042"><a xlink:href="$_text_manager_8cpp.html#add36cc54cd9616a393a17b8961491477" xlink:title=" ">
<polygon fill="white" stroke="#666666" points="1123.75,-40 1044,-40 1044,-20 1123.75,-20 1123.75,-40"/>
<text text-anchor="middle" x="1083.88" y="-26.5" font-family="Helvetica,sans-Serif" font-size="10.00">getFileContent</text>
</a>
</g>
</g>
<!-- Node41&#45;&gt;Node42 -->
<g id="edge103_Node000041_Node000042" class="edge">
<title>Node41&#45;&gt;Node42</title>
<g id="a_edge103_Node000041_Node000042"><a xlink:title=" ">
<path fill="none" stroke="#63b8ff" d="M976.42,-30C994.63,-30 1014.5,-30 1032.08,-30"/>
<polygon fill="#63b8ff" stroke="#63b8ff" points="1032.04,-33.5 1042.04,-30 1032.04,-26.5 1032.04,-33.5"/>
</a>
</g>
</g>
</g>
</svg>
