<?xml version="1.0" encoding="UTF-8" standalone="no"?>
<!DOCTYPE svg PUBLIC "-//W3C//DTD SVG 1.1//EN"
 "http://www.w3.org/Graphics/SVG/1.1/DTD/svg11.dtd">
<!-- Generated by graphviz version 12.2.0 (20241103.1931)
 -->
<!-- Title: OrTag Pages: 1 -->
<svg width="136pt" height="624pt"
 viewBox="0.00 0.00 135.50 624.00" xmlns="http://www.w3.org/2000/svg" xmlns:xlink="http://www.w3.org/1999/xlink">
<g id="graph0" class="graph" transform="scale(1 1) rotate(0) translate(4 620)">
<title>OrTag</title>
<!-- Node1 -->
<g id="Node000001" class="node">
<title>Node1</title>
<g id="a_Node000001"><a xlink:title=" ">
<polygon fill="#999999" stroke="none" points="124.88,-176 2.63,-176 2.63,0 124.88,0 124.88,-176"/>
<text text-anchor="start" x="50.62" y="-162.5" font-family="Helvetica,sans-Serif" font-size="10.00">OrTag</text>
<text text-anchor="start" x="6.62" y="-146.5" font-family="Helvetica,sans-Serif" font-size="10.00">+</text>
<text text-anchor="start" x="16.62" y="-146.5" font-family="Helvetica,sans-Serif" font-size="10.00">std::vector&lt; std::shared</text>
<text text-anchor="start" x="16.62" y="-134.5" font-family="Helvetica,sans-Serif" font-size="10.00">_ptr&lt; Tag &gt; &gt; listTags</text>
<text text-anchor="start" x="6.62" y="-118.5" font-family="Helvetica,sans-Serif" font-size="10.00">+</text>
<text text-anchor="start" x="16.62" y="-118.5" font-family="Helvetica,sans-Serif" font-size="10.00">OrTag()</text>
<text text-anchor="start" x="6.62" y="-102.5" font-family="Helvetica,sans-Serif" font-size="10.00">+</text>
<text text-anchor="start" x="16.62" y="-102.5" font-family="Helvetica,sans-Serif" font-size="10.00">OrTag(const OrTag</text>
<text text-anchor="start" x="16.62" y="-90.5" font-family="Helvetica,sans-Serif" font-size="10.00"> &amp;toCopy)</text>
<text text-anchor="start" x="6.62" y="-74.5" font-family="Helvetica,sans-Serif" font-size="10.00">+</text>
<text text-anchor="start" x="16.62" y="-74.5" font-family="Helvetica,sans-Serif" font-size="10.00">OrTag(const std::vector</text>
<text text-anchor="start" x="16.62" y="-62.5" font-family="Helvetica,sans-Serif" font-size="10.00">&lt; std::shared_ptr&lt; Tag</text>
<text text-anchor="start" x="16.62" y="-50.5" font-family="Helvetica,sans-Serif" font-size="10.00"> &gt; &gt; &amp;parameters)</text>
<text text-anchor="start" x="6.62" y="-34.5" font-family="Helvetica,sans-Serif" font-size="10.00">+</text>
<text text-anchor="start" x="16.62" y="-34.5" font-family="Helvetica,sans-Serif" font-size="10.00">std::shared_ptr&lt; OrTag</text>
<text text-anchor="start" x="16.62" y="-22.5" font-family="Helvetica,sans-Serif" font-size="10.00"> &gt; clone()</text>
<text text-anchor="start" x="6.62" y="-6.5" font-family="Helvetica,sans-Serif" font-size="10.00">+</text>
<text text-anchor="start" x="16.62" y="-6.5" font-family="Helvetica,sans-Serif" font-size="10.00">void execute() override</text>
<polygon fill="#666666" stroke="#666666" points="2.62,-158 2.62,-158 124.88,-158 124.88,-158 2.62,-158"/>
<polygon fill="#666666" stroke="#666666" points="2.62,-130 2.62,-130 14.62,-130 14.62,-130 2.62,-130"/>
<polygon fill="#666666" stroke="#666666" points="14.62,-130 14.62,-130 124.88,-130 124.88,-130 14.62,-130"/>
<polygon fill="none" stroke="#666666" points="2.62,0 2.62,-176 124.88,-176 124.88,0 2.62,0"/>
</a>
</g>
</g>
<!-- Node2 -->
<g id="Node000002" class="node">
<title>Node2</title>
<g id="a_Node000002"><a xlink:href="$class_bool_tag.html" xlink:title=" ">
<polygon fill="white" stroke="none" points="127.5,-420 0,-420 0,-212 127.5,-212 127.5,-420"/>
<text text-anchor="start" x="46.12" y="-406.5" font-family="Helvetica,sans-Serif" font-size="10.00">BoolTag</text>
<text text-anchor="start" x="4" y="-390.5" font-family="Helvetica,sans-Serif" font-size="10.00">+</text>
<text text-anchor="start" x="14" y="-390.5" font-family="Helvetica,sans-Serif" font-size="10.00">std::shared_ptr&lt; Tag</text>
<text text-anchor="start" x="14" y="-378.5" font-family="Helvetica,sans-Serif" font-size="10.00"> &gt; boolTag</text>
<text text-anchor="start" x="4" y="-362.5" font-family="Helvetica,sans-Serif" font-size="10.00">+</text>
<text text-anchor="start" x="14" y="-362.5" font-family="Helvetica,sans-Serif" font-size="10.00">bool myBool</text>
<text text-anchor="start" x="4" y="-346.5" font-family="Helvetica,sans-Serif" font-size="10.00">+</text>
<text text-anchor="start" x="14" y="-346.5" font-family="Helvetica,sans-Serif" font-size="10.00">BoolTag()</text>
<text text-anchor="start" x="4" y="-330.5" font-family="Helvetica,sans-Serif" font-size="10.00">+</text>
<text text-anchor="start" x="14" y="-330.5" font-family="Helvetica,sans-Serif" font-size="10.00">BoolTag(const BoolTag</text>
<text text-anchor="start" x="14" y="-318.5" font-family="Helvetica,sans-Serif" font-size="10.00"> &amp;toCopy)</text>
<text text-anchor="start" x="4" y="-302.5" font-family="Helvetica,sans-Serif" font-size="10.00">+</text>
<text text-anchor="start" x="14" y="-302.5" font-family="Helvetica,sans-Serif" font-size="10.00">BoolTag(const std</text>
<text text-anchor="start" x="14" y="-290.5" font-family="Helvetica,sans-Serif" font-size="10.00">::shared_ptr&lt; Tag &gt;</text>
<text text-anchor="start" x="14" y="-278.5" font-family="Helvetica,sans-Serif" font-size="10.00"> &amp;parameter)</text>
<text text-anchor="start" x="4" y="-262.5" font-family="Helvetica,sans-Serif" font-size="10.00">+</text>
<text text-anchor="start" x="14" y="-262.5" font-family="Helvetica,sans-Serif" font-size="10.00">BoolTag(bool v)</text>
<text text-anchor="start" x="4" y="-246.5" font-family="Helvetica,sans-Serif" font-size="10.00">+</text>
<text text-anchor="start" x="14" y="-246.5" font-family="Helvetica,sans-Serif" font-size="10.00">std::shared_ptr&lt; BoolTag</text>
<text text-anchor="start" x="14" y="-234.5" font-family="Helvetica,sans-Serif" font-size="10.00"> &gt; clone()</text>
<text text-anchor="start" x="4" y="-218.5" font-family="Helvetica,sans-Serif" font-size="10.00">+</text>
<text text-anchor="start" x="14" y="-218.5" font-family="Helvetica,sans-Serif" font-size="10.00">void execute() override</text>
<polygon fill="#666666" stroke="#666666" points="0,-402 0,-402 127.5,-402 127.5,-402 0,-402"/>
<polygon fill="#666666" stroke="#666666" points="0,-358 0,-358 12,-358 12,-358 0,-358"/>
<polygon fill="#666666" stroke="#666666" points="12,-358 12,-358 127.5,-358 127.5,-358 12,-358"/>
<polygon fill="none" stroke="#666666" points="0,-212 0,-420 127.5,-420 127.5,-212 0,-212"/>
</a>
</g>
</g>
<!-- Node2&#45;&gt;Node1 -->
<g id="edge3_Node000001_Node000002" class="edge">
<title>Node2&#45;&gt;Node1</title>
<g id="a_edge3_Node000001_Node000002"><a xlink:title=" ">
<path fill="none" stroke="#63b8ff" d="M63.75,-200.85C63.75,-192.48 63.75,-184.13 63.75,-175.96"/>
<polygon fill="none" stroke="#63b8ff" points="60.25,-200.74 63.75,-210.74 67.25,-200.74 60.25,-200.74"/>
</a>
</g>
</g>
<!-- Node3 -->
<g id="Node000003" class="node">
<title>Node3</title>
<g id="a_Node000003"><a xlink:href="$class_tag.html" xlink:title=" ">
<polygon fill="white" stroke="none" points="125.25,-616 2.25,-616 2.25,-456 125.25,-456 125.25,-616"/>
<text text-anchor="start" x="55.88" y="-602.5" font-family="Helvetica,sans-Serif" font-size="10.00">Tag</text>
<text text-anchor="start" x="6.25" y="-586.5" font-family="Helvetica,sans-Serif" font-size="10.00">+</text>
<text text-anchor="start" x="16.25" y="-586.5" font-family="Helvetica,sans-Serif" font-size="10.00">std::string tagText</text>
<text text-anchor="start" x="6.25" y="-570.5" font-family="Helvetica,sans-Serif" font-size="10.00">+</text>
<text text-anchor="start" x="16.25" y="-570.5" font-family="Helvetica,sans-Serif" font-size="10.00">int nbParents</text>
<text text-anchor="start" x="6.25" y="-554.5" font-family="Helvetica,sans-Serif" font-size="10.00">+</text>
<text text-anchor="start" x="16.25" y="-554.5" font-family="Helvetica,sans-Serif" font-size="10.00">bool doExecute</text>
<text text-anchor="start" x="6.25" y="-538.5" font-family="Helvetica,sans-Serif" font-size="10.00">+</text>
<text text-anchor="start" x="16.25" y="-538.5" font-family="Helvetica,sans-Serif" font-size="10.00">TagType myType</text>
<text text-anchor="start" x="6.25" y="-522.5" font-family="Helvetica,sans-Serif" font-size="10.00">+</text>
<text text-anchor="start" x="16.25" y="-522.5" font-family="Helvetica,sans-Serif" font-size="10.00">Tag()</text>
<text text-anchor="start" x="6.25" y="-506.5" font-family="Helvetica,sans-Serif" font-size="10.00">+</text>
<text text-anchor="start" x="16.25" y="-506.5" font-family="Helvetica,sans-Serif" font-size="10.00">Tag(const Tag &amp;toCopy)</text>
<text text-anchor="start" x="6.25" y="-490.5" font-family="Helvetica,sans-Serif" font-size="10.00">+</text>
<text text-anchor="start" x="16.25" y="-490.5" font-family="Helvetica,sans-Serif" font-size="10.00">std::shared_ptr&lt; Tag</text>
<text text-anchor="start" x="16.25" y="-478.5" font-family="Helvetica,sans-Serif" font-size="10.00"> &gt; clone()</text>
<text text-anchor="start" x="6.25" y="-462.5" font-family="Helvetica,sans-Serif" font-size="10.00">+</text>
<text text-anchor="start" x="16.25" y="-462.5" font-family="Helvetica,sans-Serif" font-size="10.00">virtual void execute()</text>
<polygon fill="#666666" stroke="#666666" points="2.25,-598 2.25,-598 125.25,-598 125.25,-598 2.25,-598"/>
<polygon fill="#666666" stroke="#666666" points="2.25,-534 2.25,-534 14.25,-534 14.25,-534 2.25,-534"/>
<polygon fill="#666666" stroke="#666666" points="14.25,-534 14.25,-534 125.25,-534 125.25,-534 14.25,-534"/>
<polygon fill="none" stroke="#666666" points="2.25,-456 2.25,-616 125.25,-616 125.25,-456 2.25,-456"/>
</a>
</g>
</g>
<!-- Node3&#45;&gt;Node2 -->
<g id="edge4_Node000002_Node000003" class="edge">
<title>Node3&#45;&gt;Node2</title>
<g id="a_edge4_Node000002_Node000003"><a xlink:title=" ">
<path fill="none" stroke="#63b8ff" d="M63.75,-444.79C63.75,-436.57 63.75,-428.2 63.75,-419.88"/>
<polygon fill="none" stroke="#63b8ff" points="60.25,-444.78 63.75,-454.78 67.25,-444.78 60.25,-444.78"/>
</a>
</g>
</g>
</g>
</svg>
