<?xml version="1.0" encoding="UTF-8" standalone="no"?>
<!DOCTYPE svg PUBLIC "-//W3C//DTD SVG 1.1//EN"
 "http://www.w3.org/Graphics/SVG/1.1/DTD/svg11.dtd">
<!-- Generated by graphviz version 12.2.0 (20241103.1931)
 -->
<!-- Title: PrintTag::execute Pages: 1 -->
<svg width="364pt" height="104pt"
 viewBox="0.00 0.00 364.25 104.00" xmlns="http://www.w3.org/2000/svg" xmlns:xlink="http://www.w3.org/1999/xlink">
<g id="graph0" class="graph" transform="scale(1 1) rotate(0) translate(4 100)">
<title>PrintTag::execute</title>
<!-- Node1 -->
<g id="Node000001" class="node">
<title>Node1</title>
<g id="a_Node000001"><a xlink:title=" ">
<polygon fill="#999999" stroke="#666666" points="92.5,-39 0,-39 0,-19 92.5,-19 92.5,-39"/>
<text text-anchor="middle" x="46.25" y="-25.5" font-family="Helvetica,sans-Serif" font-size="10.00">PrintTag::execute</text>
</a>
</g>
</g>
<!-- Node2 -->
<g id="Node000002" class="node">
<title>Node2</title>
<g id="a_Node000002"><a xlink:href="$_tags_8cpp.html#af880453da2451d42d582407678414cca" xlink:title=" ">
<polygon fill="white" stroke="#666666" points="209,-58 136.75,-58 136.75,-38 209,-38 209,-58"/>
<text text-anchor="middle" x="172.88" y="-44.5" font-family="Helvetica,sans-Serif" font-size="10.00">executeZone</text>
</a>
</g>
</g>
<!-- Node1&#45;&gt;Node2 -->
<g id="edge7_Node000001_Node000002" class="edge">
<title>Node1&#45;&gt;Node2</title>
<g id="a_edge7_Node000001_Node000002"><a xlink:title=" ">
<path fill="none" stroke="#63b8ff" d="M92.95,-35.97C103.46,-37.57 114.65,-39.28 125.2,-40.88"/>
<polygon fill="#63b8ff" stroke="#63b8ff" points="124.42,-44.31 134.84,-42.35 125.48,-37.39 124.42,-44.31"/>
</a>
</g>
</g>
<!-- Node5 -->
<g id="Node000005" class="node">
<title>Node5</title>
<g id="a_Node000005"><a xlink:href="$struct_zone.html#a10458471a768c077e3377d00660d91ee" xlink:title=" ">
<polygon fill="white" stroke="#666666" points="217.25,-20 128.5,-20 128.5,0 217.25,0 217.25,-20"/>
<text text-anchor="middle" x="172.88" y="-6.5" font-family="Helvetica,sans-Serif" font-size="10.00">Zone::showZone</text>
</a>
</g>
</g>
<!-- Node1&#45;&gt;Node5 -->
<g id="edge11_Node000001_Node000005" class="edge">
<title>Node1&#45;&gt;Node5</title>
<g id="a_edge11_Node000001_Node000005"><a xlink:title=" ">
<path fill="none" stroke="#63b8ff" d="M92.95,-22.03C100.79,-20.84 109,-19.59 117.05,-18.36"/>
<polygon fill="#63b8ff" stroke="#63b8ff" points="117.4,-21.85 126.76,-16.88 116.35,-14.93 117.4,-21.85"/>
</a>
</g>
</g>
<!-- Node2&#45;&gt;Node2 -->
<g id="edge8_Node000002_Node000002" class="edge">
<title>Node2&#45;&gt;Node2</title>
<g id="a_edge8_Node000002_Node000002"><a xlink:title=" ">
<path fill="none" stroke="#63b8ff" d="M152.76,-58.34C144.16,-66.98 150.86,-76 172.88,-76 184.91,-76 192.37,-73.3 195.26,-69.44"/>
<polygon fill="#63b8ff" stroke="#63b8ff" points="198.72,-68.92 193.3,-59.82 191.86,-70.32 198.72,-68.92"/>
</a>
</g>
</g>
<!-- Node3 -->
<g id="Node000003" class="node">
<title>Node3</title>
<g id="a_Node000003"><a xlink:href="$_tags_8cpp.html#aad17b0d48f011d5869f82adb31915669" xlink:title=" ">
<polygon fill="white" stroke="#666666" points="337.88,-96 271.62,-96 271.62,-76 337.88,-76 337.88,-96"/>
<text text-anchor="middle" x="304.75" y="-82.5" font-family="Helvetica,sans-Serif" font-size="10.00">getLoadTag</text>
</a>
</g>
</g>
<!-- Node2&#45;&gt;Node3 -->
<g id="edge9_Node000002_Node000003" class="edge">
<title>Node2&#45;&gt;Node3</title>
<g id="a_edge9_Node000002_Node000003"><a xlink:title=" ">
<path fill="none" stroke="#63b8ff" d="M209.36,-58.38C225.26,-63.03 244.14,-68.56 260.82,-73.44"/>
<polygon fill="#63b8ff" stroke="#63b8ff" points="259.38,-76.67 269.96,-76.11 261.35,-69.95 259.38,-76.67"/>
</a>
</g>
</g>
<!-- Node4 -->
<g id="Node000004" class="node">
<title>Node4</title>
<g id="a_Node000004"><a xlink:href="$_tags_8cpp.html#a87514b166197bc785f979c9b79214abb" xlink:title=" ">
<polygon fill="white" stroke="#666666" points="338.25,-58 271.25,-58 271.25,-38 338.25,-38 338.25,-58"/>
<text text-anchor="middle" x="304.75" y="-44.5" font-family="Helvetica,sans-Serif" font-size="10.00">getZoneTag</text>
</a>
</g>
</g>
<!-- Node2&#45;&gt;Node4 -->
<g id="edge10_Node000002_Node000004" class="edge">
<title>Node2&#45;&gt;Node4</title>
<g id="a_edge10_Node000002_Node000004"><a xlink:title=" ">
<path fill="none" stroke="#63b8ff" d="M209.36,-48C224.84,-48 243.14,-48 259.49,-48"/>
<polygon fill="#63b8ff" stroke="#63b8ff" points="259.46,-51.5 269.46,-48 259.46,-44.5 259.46,-51.5"/>
</a>
</g>
</g>
<!-- Node6 -->
<g id="Node000006" class="node">
<title>Node6</title>
<g id="a_Node000006"><a xlink:href="$struct_coord.html#af039d91918215598e38227e2041dc81e" xlink:title=" ">
<polygon fill="white" stroke="#666666" points="356.25,-20 253.25,-20 253.25,0 356.25,0 356.25,-20"/>
<text text-anchor="middle" x="304.75" y="-6.5" font-family="Helvetica,sans-Serif" font-size="10.00">Coord::showCoords</text>
</a>
</g>
</g>
<!-- Node5&#45;&gt;Node6 -->
<g id="edge12_Node000005_Node000006" class="edge">
<title>Node5&#45;&gt;Node6</title>
<g id="a_edge12_Node000005_Node000006"><a xlink:title=" ">
<path fill="none" stroke="#63b8ff" d="M217.48,-10C225.2,-10 233.36,-10 241.47,-10"/>
<polygon fill="#63b8ff" stroke="#63b8ff" points="241.33,-13.5 251.33,-10 241.33,-6.5 241.33,-13.5"/>
</a>
</g>
</g>
</g>
</svg>
