<?xml version="1.0" encoding="UTF-8" standalone="no"?>
<!DOCTYPE svg PUBLIC "-//W3C//DTD SVG 1.1//EN"
 "http://www.w3.org/Graphics/SVG/1.1/DTD/svg11.dtd">
<!-- Generated by graphviz version 12.2.0 (20241103.1931)
 -->
<!-- Title: Heirloom::doActivity Pages: 1 -->
<svg width="1374pt" height="386pt"
 viewBox="0.00 0.00 1374.00 386.00" xmlns="http://www.w3.org/2000/svg" xmlns:xlink="http://www.w3.org/1999/xlink">
<g id="graph0" class="graph" transform="scale(1 1) rotate(0) translate(4 382)">
<title>Heirloom::doActivity</title>
<!-- Node1 -->
<g id="Node000001" class="node">
<title>Node1</title>
<g id="a_Node000001"><a xlink:title=" ">
<polygon fill="#999999" stroke="#666666" points="104.5,-210 0,-210 0,-190 104.5,-190 104.5,-210"/>
<text text-anchor="middle" x="52.25" y="-196.5" font-family="Helvetica,sans-Serif" font-size="10.00">Heirloom::doActivity</text>
</a>
</g>
</g>
<!-- Node2 -->
<g id="Node000002" class="node">
<title>Node2</title>
<g id="a_Node000002"><a xlink:href="$class_interactions.html#a25637266a0bf2b2c77d5c7e276baabd0" xlink:title=" ">
<polygon fill="white" stroke="#666666" points="406.88,-191 324.12,-191 324.12,-171 406.88,-171 406.88,-191"/>
<text text-anchor="middle" x="365.5" y="-177.5" font-family="Helvetica,sans-Serif" font-size="10.00">Interactions::fA</text>
</a>
</g>
</g>
<!-- Node1&#45;&gt;Node2 -->
<g id="edge51_Node000001_Node000002" class="edge">
<title>Node1&#45;&gt;Node2</title>
<g id="a_edge51_Node000001_Node000002"><a xlink:title=" ">
<path fill="none" stroke="#63b8ff" d="M105,-196.84C162.57,-193.33 255.05,-187.68 312.66,-184.16"/>
<polygon fill="#63b8ff" stroke="#63b8ff" points="312.77,-187.66 322.54,-183.56 312.34,-180.68 312.77,-187.66"/>
</a>
</g>
</g>
<!-- Node25 -->
<g id="Node000025" class="node">
<title>Node25</title>
<g id="a_Node000025"><a xlink:href="$class_interactions.html#a85395e185b74c6e25d0f27459b0de33c" xlink:title=" ">
<polygon fill="white" stroke="#666666" points="248.38,-229 160.38,-229 160.38,-209 248.38,-209 248.38,-229"/>
<text text-anchor="middle" x="204.38" y="-215.5" font-family="Helvetica,sans-Serif" font-size="10.00">Interactions::fcA</text>
</a>
</g>
</g>
<!-- Node1&#45;&gt;Node25 -->
<g id="edge78_Node000001_Node000025" class="edge">
<title>Node1&#45;&gt;Node25</title>
<g id="a_edge78_Node000001_Node000025"><a xlink:title=" ">
<path fill="none" stroke="#63b8ff" d="M104.91,-206.54C119.1,-208.33 134.53,-210.29 148.87,-212.1"/>
<polygon fill="#63b8ff" stroke="#63b8ff" points="148.24,-215.55 158.6,-213.33 149.11,-208.6 148.24,-215.55"/>
</a>
</g>
</g>
<!-- Node26 -->
<g id="Node000026" class="node">
<title>Node26</title>
<g id="a_Node000026"><a xlink:href="$class_interactions.html#afd8c8bc50bb964d44f8880afefe7a6f9" xlink:title=" ">
<polygon fill="white" stroke="#666666" points="268.25,-153 140.5,-153 140.5,-133 268.25,-133 268.25,-153"/>
<text text-anchor="middle" x="204.38" y="-139.5" font-family="Helvetica,sans-Serif" font-size="10.00">Interactions::fcCompareA</text>
</a>
</g>
</g>
<!-- Node1&#45;&gt;Node26 -->
<g id="edge80_Node000001_Node000026" class="edge">
<title>Node1&#45;&gt;Node26</title>
<g id="a_edge80_Node000001_Node000026"><a xlink:title=" ">
<path fill="none" stroke="#63b8ff" d="M80.79,-189.55C104.41,-180.57 138.71,-167.55 165.03,-157.56"/>
<polygon fill="#63b8ff" stroke="#63b8ff" points="166.24,-160.84 174.35,-154.02 163.75,-154.3 166.24,-160.84"/>
</a>
</g>
</g>
<!-- Node32 -->
<g id="Node000032" class="node">
<title>Node32</title>
<g id="a_Node000032"><a xlink:href="$class_interactions.html#a9044fca002a4287ad1a89ce0422a68e5" xlink:title=" ">
<polygon fill="white" stroke="#666666" points="257,-309 151.75,-309 151.75,-289 257,-289 257,-309"/>
<text text-anchor="middle" x="204.38" y="-295.5" font-family="Helvetica,sans-Serif" font-size="10.00">Interactions::gSwipe</text>
</a>
</g>
</g>
<!-- Node1&#45;&gt;Node32 -->
<g id="edge96_Node000001_Node000032" class="edge">
<title>Node1&#45;&gt;Node32</title>
<g id="a_edge96_Node000001_Node000032"><a xlink:title=" ">
<path fill="none" stroke="#63b8ff" d="M69.03,-210.41C95.12,-227.61 147.42,-262.1 178.52,-282.61"/>
<polygon fill="#63b8ff" stroke="#63b8ff" points="176.27,-285.32 186.54,-287.9 180.12,-279.47 176.27,-285.32"/>
</a>
</g>
</g>
<!-- Node3 -->
<g id="Node000003" class="node">
<title>Node3</title>
<g id="a_Node000003"><a xlink:href="$fopencv_8cpp.html#a69713584f69a121e4ed91918a64448a0" xlink:title=" ">
<polygon fill="white" stroke="#666666" points="889.88,-153 809.38,-153 809.38,-133 889.88,-133 889.88,-153"/>
<text text-anchor="middle" x="849.62" y="-139.5" font-family="Helvetica,sans-Serif" font-size="10.00">cvmtfTemplate</text>
</a>
</g>
</g>
<!-- Node2&#45;&gt;Node3 -->
<g id="edge52_Node000002_Node000003" class="edge">
<title>Node2&#45;&gt;Node3</title>
<g id="a_edge52_Node000002_Node000003"><a xlink:title=" ">
<path fill="none" stroke="#63b8ff" d="M407.19,-177.79C494.8,-170.89 701.12,-154.63 797.43,-147.04"/>
<polygon fill="#63b8ff" stroke="#63b8ff" points="797.69,-150.53 807.38,-146.25 797.14,-143.55 797.69,-150.53"/>
</a>
</g>
</g>
<!-- Node9 -->
<g id="Node000009" class="node">
<title>Node9</title>
<g id="a_Node000009"><a xlink:href="$class_interactions.html#a5b5af2b125ff152043789cfcf70ffb2b" xlink:title=" ">
<polygon fill="white" stroke="#666666" points="594.62,-115 468.38,-115 468.38,-95 594.62,-95 594.62,-115"/>
<text text-anchor="middle" x="531.5" y="-101.5" font-family="Helvetica,sans-Serif" font-size="10.00">Interactions::getTemplate</text>
</a>
</g>
</g>
<!-- Node2&#45;&gt;Node9 -->
<g id="edge58_Node000002_Node000009" class="edge">
<title>Node2&#45;&gt;Node9</title>
<g id="a_edge58_Node000002_Node000009"><a xlink:title=" ">
<path fill="none" stroke="#63b8ff" d="M407.29,-171.25C414.06,-168.77 420.8,-165.72 426.75,-162 446.47,-149.66 442.83,-136.02 462.75,-124 465.22,-122.51 467.81,-121.13 470.48,-119.86"/>
<polygon fill="#63b8ff" stroke="#63b8ff" points="471.78,-123.11 479.67,-116.04 469.1,-116.64 471.78,-123.11"/>
</a>
</g>
</g>
<!-- Node11 -->
<g id="Node000011" class="node">
<title>Node11</title>
<g id="a_Node000011"><a xlink:href="$class_interactions.html#a0a0ffd9ad1990de31fd7b2773db32667" xlink:title=" ">
<polygon fill="white" stroke="#666666" points="592,-229 471,-229 471,-209 592,-209 592,-229"/>
<text text-anchor="middle" x="531.5" y="-215.5" font-family="Helvetica,sans-Serif" font-size="10.00">Interactions::loopPopUp</text>
</a>
</g>
</g>
<!-- Node2&#45;&gt;Node11 -->
<g id="edge60_Node000002_Node000011" class="edge">
<title>Node2&#45;&gt;Node11</title>
<g id="a_edge60_Node000002_Node000011"><a xlink:title=" ">
<path fill="none" stroke="#63b8ff" d="M407.04,-190.39C427.33,-195.09 452.21,-200.86 474.3,-205.98"/>
<polygon fill="#63b8ff" stroke="#63b8ff" points="473.22,-209.32 483.75,-208.17 474.8,-202.5 473.22,-209.32"/>
</a>
</g>
</g>
<!-- Node23 -->
<g id="Node000023" class="node">
<title>Node23</title>
<g id="a_Node000023"><a xlink:href="$class_interactions.html#ade7f52c59105f434650b9358b22e5488" xlink:title=" ">
<polygon fill="white" stroke="#666666" points="592,-153 471,-153 471,-133 592,-133 592,-153"/>
<text text-anchor="middle" x="531.5" y="-139.5" font-family="Helvetica,sans-Serif" font-size="10.00">Interactions::resetCount</text>
</a>
</g>
</g>
<!-- Node2&#45;&gt;Node23 -->
<g id="edge74_Node000002_Node000023" class="edge">
<title>Node2&#45;&gt;Node23</title>
<g id="a_edge74_Node000002_Node000023"><a xlink:title=" ">
<path fill="none" stroke="#63b8ff" d="M407.04,-171.61C427.33,-166.91 452.21,-161.14 474.3,-156.02"/>
<polygon fill="#63b8ff" stroke="#63b8ff" points="474.8,-159.5 483.75,-153.83 473.22,-152.68 474.8,-159.5"/>
</a>
</g>
</g>
<!-- Node24 -->
<g id="Node000024" class="node">
<title>Node24</title>
<g id="a_Node000024"><a xlink:href="$class_interactions.html#ad7daddd9df3cea80e69872b8afd6c8dc" xlink:title=" ">
<polygon fill="white" stroke="#666666" points="600.25,-286 462.75,-286 462.75,-266 600.25,-266 600.25,-286"/>
<text text-anchor="middle" x="531.5" y="-272.5" font-family="Helvetica,sans-Serif" font-size="10.00">Interactions::templateFound</text>
</a>
</g>
</g>
<!-- Node2&#45;&gt;Node24 -->
<g id="edge75_Node000002_Node000024" class="edge">
<title>Node2&#45;&gt;Node24</title>
<g id="a_edge75_Node000002_Node000024"><a xlink:title=" ">
<path fill="none" stroke="#63b8ff" d="M383.82,-191.42C403.03,-202.94 434.99,-222 462.75,-238 475.49,-245.34 489.67,-253.33 501.75,-260.07"/>
<polygon fill="#63b8ff" stroke="#63b8ff" points="499.98,-263.09 510.42,-264.9 503.38,-256.97 499.98,-263.09"/>
</a>
</g>
</g>
<!-- Node4 -->
<g id="Node000004" class="node">
<title>Node4</title>
<g id="a_Node000004"><a xlink:href="$fopencv_8cpp.html#af6fc77188d314c0d5a58888452f9b313" xlink:title=" ">
<polygon fill="white" stroke="#666666" points="1034.88,-77 967.12,-77 967.12,-57 1034.88,-57 1034.88,-77"/>
<text text-anchor="middle" x="1001" y="-63.5" font-family="Helvetica,sans-Serif" font-size="10.00">extractZone</text>
</a>
</g>
</g>
<!-- Node3&#45;&gt;Node4 -->
<g id="edge53_Node000003_Node000004" class="edge">
<title>Node3&#45;&gt;Node4</title>
<g id="a_edge53_Node000003_Node000004"><a xlink:title=" ">
<path fill="none" stroke="#63b8ff" d="M865.02,-132.61C882.66,-120.23 913.78,-99.54 942.75,-86 947.02,-84 951.56,-82.12 956.14,-80.38"/>
<polygon fill="#63b8ff" stroke="#63b8ff" points="957.13,-83.74 965.37,-77.07 954.77,-77.15 957.13,-83.74"/>
</a>
</g>
</g>
<!-- Node5 -->
<g id="Node000005" class="node">
<title>Node5</title>
<g id="a_Node000005"><a xlink:href="$struct_zone.html#a5301e7fcf185a5a79c1bf7d7930f4b8a" xlink:title=" ">
<polygon fill="white" stroke="#666666" points="1035.25,-115 966.75,-115 966.75,-95 1035.25,-95 1035.25,-115"/>
<text text-anchor="middle" x="1001" y="-101.5" font-family="Helvetica,sans-Serif" font-size="10.00">Zone::isNull</text>
</a>
</g>
</g>
<!-- Node3&#45;&gt;Node5 -->
<g id="edge54_Node000003_Node000005" class="edge">
<title>Node3&#45;&gt;Node5</title>
<g id="a_edge54_Node000003_Node000005"><a xlink:title=" ">
<path fill="none" stroke="#63b8ff" d="M890.26,-132.92C910.24,-127.83 934.56,-121.65 955.21,-116.39"/>
<polygon fill="#63b8ff" stroke="#63b8ff" points="955.97,-119.81 964.79,-113.96 954.24,-113.03 955.97,-119.81"/>
</a>
</g>
</g>
<!-- Node7 -->
<g id="Node000007" class="node">
<title>Node7</title>
<g id="a_Node000007"><a xlink:href="$fopencv_8cpp.html#a1ed1ff1a9df2ab889e1423cb11a58c06" xlink:title=" ">
<polygon fill="white" stroke="#666666" points="1042.38,-153 959.62,-153 959.62,-133 1042.38,-133 1042.38,-153"/>
<text text-anchor="middle" x="1001" y="-139.5" font-family="Helvetica,sans-Serif" font-size="10.00">messageFound</text>
</a>
</g>
</g>
<!-- Node3&#45;&gt;Node7 -->
<g id="edge56_Node000003_Node000007" class="edge">
<title>Node3&#45;&gt;Node7</title>
<g id="a_edge56_Node000003_Node000007"><a xlink:title=" ">
<path fill="none" stroke="#63b8ff" d="M890.26,-143C907.87,-143 928.84,-143 947.71,-143"/>
<polygon fill="#63b8ff" stroke="#63b8ff" points="947.62,-146.5 957.62,-143 947.62,-139.5 947.62,-146.5"/>
</a>
</g>
</g>
<!-- Node8 -->
<g id="Node000008" class="node">
<title>Node8</title>
<g id="a_Node000008"><a xlink:href="$fopencv_8cpp.html#ae51fd1f3ed39bd8c9b8da4a313d5aeb3" xlink:title=" ">
<polygon fill="white" stroke="#666666" points="1050.25,-191 951.75,-191 951.75,-171 1050.25,-171 1050.25,-191"/>
<text text-anchor="middle" x="1001" y="-177.5" font-family="Helvetica,sans-Serif" font-size="10.00">oneMatchTemplate</text>
</a>
</g>
</g>
<!-- Node3&#45;&gt;Node8 -->
<g id="edge57_Node000003_Node000008" class="edge">
<title>Node3&#45;&gt;Node8</title>
<g id="a_edge57_Node000003_Node000008"><a xlink:title=" ">
<path fill="none" stroke="#63b8ff" d="M890.26,-153.08C907.88,-157.57 928.87,-162.9 947.74,-167.71"/>
<polygon fill="#63b8ff" stroke="#63b8ff" points="946.85,-171.09 957.41,-170.16 948.58,-164.31 946.85,-171.09"/>
</a>
</g>
</g>
<!-- Node6 -->
<g id="Node000006" class="node">
<title>Node6</title>
<g id="a_Node000006"><a xlink:href="$struct_coord.html#a34c573cd6230e5a532f12ae97e7395e2" xlink:title=" ">
<polygon fill="white" stroke="#666666" points="1168.25,-115 1095.25,-115 1095.25,-95 1168.25,-95 1168.25,-115"/>
<text text-anchor="middle" x="1131.75" y="-101.5" font-family="Helvetica,sans-Serif" font-size="10.00">Coord::isNull</text>
</a>
</g>
</g>
<!-- Node5&#45;&gt;Node6 -->
<g id="edge55_Node000005_Node000006" class="edge">
<title>Node5&#45;&gt;Node6</title>
<g id="a_edge55_Node000005_Node000006"><a xlink:title=" ">
<path fill="none" stroke="#63b8ff" d="M1035.49,-105C1050.24,-105 1067.82,-105 1083.85,-105"/>
<polygon fill="#63b8ff" stroke="#63b8ff" points="1083.66,-108.5 1093.66,-105 1083.66,-101.5 1083.66,-108.5"/>
</a>
</g>
</g>
<!-- Node10 -->
<g id="Node000010" class="node">
<title>Node10</title>
<g id="a_Node000010"><a xlink:href="$struct_template.html#a93d3c6f97592ba09d7819fda3c3296d7" xlink:title=" ">
<polygon fill="white" stroke="#666666" points="744.5,-115 648.25,-115 648.25,-95 744.5,-95 744.5,-115"/>
<text text-anchor="middle" x="696.38" y="-101.5" font-family="Helvetica,sans-Serif" font-size="10.00">Template::setType</text>
</a>
</g>
</g>
<!-- Node9&#45;&gt;Node10 -->
<g id="edge59_Node000009_Node000010" class="edge">
<title>Node9&#45;&gt;Node10</title>
<g id="a_edge59_Node000009_Node000010"><a xlink:title=" ">
<path fill="none" stroke="#63b8ff" d="M595.01,-105C608.74,-105 623.24,-105 636.82,-105"/>
<polygon fill="#63b8ff" stroke="#63b8ff" points="636.45,-108.5 646.45,-105 636.45,-101.5 636.45,-108.5"/>
</a>
</g>
</g>
<!-- Node12 -->
<g id="Node000012" class="node">
<title>Node12</title>
<g id="a_Node000012"><a xlink:href="$fopencv_8cpp.html#a5c455ed716b7fa4c675446fc5b8ba4fb" xlink:title=" ">
<polygon fill="white" stroke="#666666" points="727.25,-229 665.5,-229 665.5,-209 727.25,-209 727.25,-229"/>
<text text-anchor="middle" x="696.38" y="-215.5" font-family="Helvetica,sans-Serif" font-size="10.00">CreateMat</text>
</a>
</g>
</g>
<!-- Node11&#45;&gt;Node12 -->
<g id="edge61_Node000011_Node000012" class="edge">
<title>Node11&#45;&gt;Node12</title>
<g id="a_edge61_Node000011_Node000012"><a xlink:title=" ">
<path fill="none" stroke="#63b8ff" d="M592.22,-219C612.73,-219 635.21,-219 653.94,-219"/>
<polygon fill="#63b8ff" stroke="#63b8ff" points="653.84,-222.5 663.84,-219 653.84,-215.5 653.84,-222.5"/>
</a>
</g>
</g>
<!-- Node13 -->
<g id="Node000013" class="node">
<title>Node13</title>
<g id="a_Node000013"><a xlink:href="$class_interactions.html#aed04f9177d2aba467d71818a5e82c7bc" xlink:title=" ">
<polygon fill="white" stroke="#666666" points="753.5,-267 639.25,-267 639.25,-247 753.5,-247 753.5,-267"/>
<text text-anchor="middle" x="696.38" y="-253.5" font-family="Helvetica,sans-Serif" font-size="10.00">Interactions::fcpopupA</text>
</a>
</g>
</g>
<!-- Node11&#45;&gt;Node13 -->
<g id="edge62_Node000011_Node000013" class="edge">
<title>Node11&#45;&gt;Node13</title>
<g id="a_edge62_Node000011_Node000013"><a xlink:title=" ">
<path fill="none" stroke="#63b8ff" d="M577.44,-229.48C596.66,-233.97 619.31,-239.25 639.6,-243.99"/>
<polygon fill="#63b8ff" stroke="#63b8ff" points="638.58,-247.34 649.11,-246.21 640.17,-240.53 638.58,-247.34"/>
</a>
</g>
</g>
<!-- Node16 -->
<g id="Node000016" class="node">
<title>Node16</title>
<g id="a_Node000016"><a xlink:href="$fadb_8cpp.html#aeec40a5f78ae4713eedd84cb5f75746f" xlink:title=" ">
<polygon fill="white" stroke="#666666" points="728.38,-191 664.38,-191 664.38,-171 728.38,-171 728.38,-191"/>
<text text-anchor="middle" x="696.38" y="-177.5" font-family="Helvetica,sans-Serif" font-size="10.00">screenshot</text>
</a>
</g>
</g>
<!-- Node11&#45;&gt;Node16 -->
<g id="edge67_Node000011_Node000016" class="edge">
<title>Node11&#45;&gt;Node16</title>
<g id="a_edge67_Node000011_Node000016"><a xlink:title=" ">
<path fill="none" stroke="#63b8ff" d="M577.44,-208.52C601.07,-203 629.86,-196.28 653.09,-190.87"/>
<polygon fill="#63b8ff" stroke="#63b8ff" points="653.57,-194.35 662.52,-188.67 651.98,-187.53 653.57,-194.35"/>
</a>
</g>
</g>
<!-- Node13&#45;&gt;Node3 -->
<g id="edge65_Node000013_Node000003" class="edge">
<title>Node13&#45;&gt;Node3</title>
<g id="a_edge65_Node000013_Node000003"><a xlink:title=" ">
<path fill="none" stroke="#63b8ff" d="M740.52,-246.57C746.16,-244.24 751.65,-241.42 756.5,-238 778.01,-222.84 774.4,-210.1 792.5,-191 802.87,-180.06 815.55,-169.04 826.23,-160.33"/>
<polygon fill="#63b8ff" stroke="#63b8ff" points="828.19,-163.25 833.82,-154.27 823.82,-157.78 828.19,-163.25"/>
</a>
</g>
</g>
<!-- Node14 -->
<g id="Node000014" class="node">
<title>Node14</title>
<g id="a_Node000014"><a xlink:href="$class_interactions.html#aae6172962092f278714536142e987cde" xlink:title=" ">
<polygon fill="white" stroke="#666666" points="896.25,-320 803,-320 803,-300 896.25,-300 896.25,-320"/>
<text text-anchor="middle" x="849.62" y="-306.5" font-family="Helvetica,sans-Serif" font-size="10.00">Interactions::click</text>
</a>
</g>
</g>
<!-- Node13&#45;&gt;Node14 -->
<g id="edge63_Node000013_Node000014" class="edge">
<title>Node13&#45;&gt;Node14</title>
<g id="a_edge63_Node000013_Node000014"><a xlink:title=" ">
<path fill="none" stroke="#63b8ff" d="M727.26,-267.47C750.36,-275.56 782.57,-286.85 808.01,-295.77"/>
<polygon fill="#63b8ff" stroke="#63b8ff" points="806.78,-299.05 817.38,-299.05 809.1,-292.44 806.78,-299.05"/>
</a>
</g>
</g>
<!-- Node15 -->
<g id="Node000015" class="node">
<title>Node15</title>
<g id="a_Node000015"><a xlink:href="$class_interactions.html#abd5b5d8a44970e1333e3611e302f166c" xlink:title=" ">
<polygon fill="white" stroke="#666666" points="895.12,-277 804.12,-277 804.12,-257 895.12,-257 895.12,-277"/>
<text text-anchor="middle" x="849.62" y="-263.5" font-family="Helvetica,sans-Serif" font-size="10.00">Interactions::wait</text>
</a>
</g>
</g>
<!-- Node13&#45;&gt;Node15 -->
<g id="edge66_Node000013_Node000015" class="edge">
<title>Node13&#45;&gt;Node15</title>
<g id="a_edge66_Node000013_Node000015"><a xlink:title=" ">
<path fill="none" stroke="#63b8ff" d="M753.69,-260.72C766.43,-261.57 779.94,-262.46 792.66,-263.3"/>
<polygon fill="#63b8ff" stroke="#63b8ff" points="792.35,-266.79 802.56,-263.95 792.81,-259.8 792.35,-266.79"/>
</a>
</g>
</g>
<!-- Node14&#45;&gt;Node14 -->
<g id="edge64_Node000014_Node000014" class="edge">
<title>Node14&#45;&gt;Node14</title>
<g id="a_edge64_Node000014_Node000014"><a xlink:title=" ">
<path fill="none" stroke="#63b8ff" d="M825.57,-320.34C815.29,-328.98 823.31,-338 849.62,-338 864.02,-338 872.93,-335.3 876.38,-331.44"/>
<polygon fill="#63b8ff" stroke="#63b8ff" points="879.8,-330.7 874.03,-321.81 873,-332.35 879.8,-330.7"/>
</a>
</g>
</g>
<!-- Node17 -->
<g id="Node000017" class="node">
<title>Node17</title>
<g id="a_Node000017"><a xlink:href="$fadb_8cpp.html#a7ab9819839864ebd26d0e7e68e330418" xlink:title=" ">
<polygon fill="white" stroke="#666666" points="891.75,-220 807.5,-220 807.5,-200 891.75,-200 891.75,-220"/>
<text text-anchor="middle" x="849.62" y="-206.5" font-family="Helvetica,sans-Serif" font-size="10.00">takeScreenshot</text>
</a>
</g>
</g>
<!-- Node16&#45;&gt;Node17 -->
<g id="edge68_Node000016_Node000017" class="edge">
<title>Node16&#45;&gt;Node17</title>
<g id="a_edge68_Node000016_Node000017"><a xlink:title=" ">
<path fill="none" stroke="#63b8ff" d="M728.71,-187.01C748.18,-190.74 773.69,-195.63 796.18,-199.94"/>
<polygon fill="#63b8ff" stroke="#63b8ff" points="795.31,-203.34 805.79,-201.79 796.63,-196.47 795.31,-203.34"/>
</a>
</g>
</g>
<!-- Node18 -->
<g id="Node000018" class="node">
<title>Node18</title>
<g id="a_Node000018"><a xlink:href="$fadb_8cpp.html#ac6339b59ba8238f7483dece7f3fdf51b" xlink:title=" ">
<polygon fill="white" stroke="#666666" points="1045.38,-295 956.62,-295 956.62,-275 1045.38,-275 1045.38,-295"/>
<text text-anchor="middle" x="1001" y="-281.5" font-family="Helvetica,sans-Serif" font-size="10.00">runAdbLocalhost</text>
</a>
</g>
</g>
<!-- Node17&#45;&gt;Node18 -->
<g id="edge69_Node000017_Node000018" class="edge">
<title>Node17&#45;&gt;Node18</title>
<g id="a_edge69_Node000017_Node000018"><a xlink:title=" ">
<path fill="none" stroke="#63b8ff" d="M871.39,-220.43C896.81,-233.19 940.07,-254.91 969.32,-269.6"/>
<polygon fill="#63b8ff" stroke="#63b8ff" points="967.55,-272.62 978.05,-273.98 970.69,-266.37 967.55,-272.62"/>
</a>
</g>
</g>
<!-- Node19 -->
<g id="Node000019" class="node">
<title>Node19</title>
<g id="a_Node000019"><a xlink:href="$fadb_8cpp.html#a383ae5fedc9f597a03c74c729a2eb740" xlink:title=" ">
<polygon fill="white" stroke="#666666" points="1155.12,-295 1108.38,-295 1108.38,-275 1155.12,-275 1155.12,-295"/>
<text text-anchor="middle" x="1131.75" y="-281.5" font-family="Helvetica,sans-Serif" font-size="10.00">runAdb</text>
</a>
</g>
</g>
<!-- Node18&#45;&gt;Node19 -->
<g id="edge70_Node000018_Node000019" class="edge">
<title>Node18&#45;&gt;Node19</title>
<g id="a_edge70_Node000018_Node000019"><a xlink:title=" ">
<path fill="none" stroke="#63b8ff" d="M1045.59,-285C1062.33,-285 1081.18,-285 1096.87,-285"/>
<polygon fill="#63b8ff" stroke="#63b8ff" points="1096.66,-288.5 1106.66,-285 1096.66,-281.5 1096.66,-288.5"/>
</a>
</g>
</g>
<!-- Node20 -->
<g id="Node000020" class="node">
<title>Node20</title>
<g id="a_Node000020"><a xlink:href="$sys_commands_8cpp.html#a321eb7e335377aa7182bafc8a1605032" xlink:title=" ">
<polygon fill="white" stroke="#666666" points="1271.25,-295 1204.25,-295 1204.25,-275 1271.25,-275 1271.25,-295"/>
<text text-anchor="middle" x="1237.75" y="-281.5" font-family="Helvetica,sans-Serif" font-size="10.00">receivePipe</text>
</a>
</g>
</g>
<!-- Node19&#45;&gt;Node20 -->
<g id="edge71_Node000019_Node000020" class="edge">
<title>Node19&#45;&gt;Node20</title>
<g id="a_edge71_Node000019_Node000020"><a xlink:title=" ">
<path fill="none" stroke="#63b8ff" d="M1155.57,-285C1166.47,-285 1179.89,-285 1192.66,-285"/>
<polygon fill="#63b8ff" stroke="#63b8ff" points="1192.6,-288.5 1202.6,-285 1192.6,-281.5 1192.6,-288.5"/>
</a>
</g>
</g>
<!-- Node21 -->
<g id="Node000021" class="node">
<title>Node21</title>
<g id="a_Node000021"><a xlink:href="$sys_commands_8cpp.html#a4771c79171a937893508dabadadbe099" xlink:title=" ">
<polygon fill="white" stroke="#666666" points="1366,-314 1307.25,-314 1307.25,-294 1366,-294 1366,-314"/>
<text text-anchor="middle" x="1336.62" y="-300.5" font-family="Helvetica,sans-Serif" font-size="10.00">closePipe</text>
</a>
</g>
</g>
<!-- Node20&#45;&gt;Node21 -->
<g id="edge72_Node000020_Node000021" class="edge">
<title>Node20&#45;&gt;Node21</title>
<g id="a_edge72_Node000020_Node000021"><a xlink:title=" ">
<path fill="none" stroke="#63b8ff" d="M1271.55,-291.43C1279.31,-292.95 1287.67,-294.59 1295.71,-296.17"/>
<polygon fill="#63b8ff" stroke="#63b8ff" points="1294.78,-299.56 1305.27,-298.05 1296.13,-292.69 1294.78,-299.56"/>
</a>
</g>
</g>
<!-- Node22 -->
<g id="Node000022" class="node">
<title>Node22</title>
<g id="a_Node000022"><a xlink:href="$sys_commands_8cpp.html#a3499ce0cd7e4ed28b3c5461a4d3aec84" xlink:title=" ">
<polygon fill="white" stroke="#666666" points="1364.88,-276 1308.38,-276 1308.38,-256 1364.88,-256 1364.88,-276"/>
<text text-anchor="middle" x="1336.62" y="-262.5" font-family="Helvetica,sans-Serif" font-size="10.00">openPipe</text>
</a>
</g>
</g>
<!-- Node20&#45;&gt;Node22 -->
<g id="edge73_Node000020_Node000022" class="edge">
<title>Node20&#45;&gt;Node22</title>
<g id="a_edge73_Node000020_Node000022"><a xlink:title=" ">
<path fill="none" stroke="#63b8ff" d="M1271.55,-278.57C1279.7,-276.97 1288.51,-275.24 1296.92,-273.59"/>
<polygon fill="#63b8ff" stroke="#63b8ff" points="1297.4,-277.06 1306.54,-271.7 1296.05,-270.19 1297.4,-277.06"/>
</a>
</g>
</g>
<!-- Node24&#45;&gt;Node14 -->
<g id="edge76_Node000024_Node000014" class="edge">
<title>Node24&#45;&gt;Node14</title>
<g id="a_edge76_Node000024_Node000014"><a xlink:title=" ">
<path fill="none" stroke="#63b8ff" d="M600.52,-286.37C612.41,-288.03 624.68,-289.65 636.25,-291 688.62,-297.12 748.46,-302.32 791.25,-305.72"/>
<polygon fill="#63b8ff" stroke="#63b8ff" points="790.81,-309.19 801.06,-306.49 791.36,-302.21 790.81,-309.19"/>
</a>
</g>
</g>
<!-- Node24&#45;&gt;Node15 -->
<g id="edge77_Node000024_Node000015" class="edge">
<title>Node24&#45;&gt;Node15</title>
<g id="a_edge77_Node000024_Node000015"><a xlink:title=" ">
<path fill="none" stroke="#63b8ff" d="M600.67,-277.72C645.08,-278.42 704.26,-278.55 756.5,-276 768.18,-275.43 780.66,-274.46 792.54,-273.36"/>
<polygon fill="#63b8ff" stroke="#63b8ff" points="792.59,-276.87 802.2,-272.42 791.91,-269.9 792.59,-276.87"/>
</a>
</g>
</g>
<!-- Node25&#45;&gt;Node2 -->
<g id="edge79_Node000025_Node000002" class="edge">
<title>Node25&#45;&gt;Node2</title>
<g id="a_edge79_Node000025_Node000002"><a xlink:title=" ">
<path fill="none" stroke="#63b8ff" d="M248.86,-208.62C268.58,-203.91 292.05,-198.3 312.68,-193.38"/>
<polygon fill="#63b8ff" stroke="#63b8ff" points="313.42,-196.8 322.33,-191.07 311.79,-189.99 313.42,-196.8"/>
</a>
</g>
</g>
<!-- Node27 -->
<g id="Node000027" class="node">
<title>Node27</title>
<g id="a_Node000027"><a xlink:href="$class_interactions.html#ad24b4992a69c681dc645d213527d2a07" xlink:title=" ">
<polygon fill="white" stroke="#666666" points="426.75,-153 304.25,-153 304.25,-133 426.75,-133 426.75,-153"/>
<text text-anchor="middle" x="365.5" y="-139.5" font-family="Helvetica,sans-Serif" font-size="10.00">Interactions::fCompareA</text>
</a>
</g>
</g>
<!-- Node26&#45;&gt;Node27 -->
<g id="edge81_Node000026_Node000027" class="edge">
<title>Node26&#45;&gt;Node27</title>
<g id="a_edge81_Node000026_Node000027"><a xlink:title=" ">
<path fill="none" stroke="#63b8ff" d="M268.72,-143C276.53,-143 284.55,-143 292.47,-143"/>
<polygon fill="#63b8ff" stroke="#63b8ff" points="292.45,-146.5 302.45,-143 292.45,-139.5 292.45,-146.5"/>
</a>
</g>
</g>
<!-- Node27&#45;&gt;Node9 -->
<g id="edge92_Node000027_Node000009" class="edge">
<title>Node27&#45;&gt;Node9</title>
<g id="a_edge92_Node000027_Node000009"><a xlink:title=" ">
<path fill="none" stroke="#63b8ff" d="M411.75,-132.52C431.11,-128.03 453.91,-122.75 474.34,-118.01"/>
<polygon fill="#63b8ff" stroke="#63b8ff" points="474.97,-121.46 483.93,-115.79 473.39,-114.64 474.97,-121.46"/>
</a>
</g>
</g>
<!-- Node27&#45;&gt;Node11 -->
<g id="edge93_Node000027_Node000011" class="edge">
<title>Node27&#45;&gt;Node11</title>
<g id="a_edge93_Node000027_Node000011"><a xlink:title=" ">
<path fill="none" stroke="#63b8ff" d="M403.56,-153.42C411.33,-155.96 419.39,-158.85 426.75,-162 454.23,-173.75 483.97,-190.54 504.54,-202.86"/>
<polygon fill="#63b8ff" stroke="#63b8ff" points="502.46,-205.69 512.82,-207.89 506.09,-199.71 502.46,-205.69"/>
</a>
</g>
</g>
<!-- Node27&#45;&gt;Node23 -->
<g id="edge94_Node000027_Node000023" class="edge">
<title>Node27&#45;&gt;Node23</title>
<g id="a_edge94_Node000027_Node000023"><a xlink:title=" ">
<path fill="none" stroke="#63b8ff" d="M427.1,-143C437.55,-143 448.51,-143 459.21,-143"/>
<polygon fill="#63b8ff" stroke="#63b8ff" points="459.18,-146.5 469.18,-143 459.18,-139.5 459.18,-146.5"/>
</a>
</g>
</g>
<!-- Node27&#45;&gt;Node24 -->
<g id="edge95_Node000027_Node000024" class="edge">
<title>Node27&#45;&gt;Node24</title>
<g id="a_edge95_Node000027_Node000024"><a xlink:title=" ">
<path fill="none" stroke="#63b8ff" d="M413.33,-153.4C418.18,-155.71 422.78,-158.54 426.75,-162 454.92,-186.56 437.25,-210.68 462.75,-238 471.26,-247.11 482.46,-254.6 493.29,-260.45"/>
<polygon fill="#63b8ff" stroke="#63b8ff" points="491.61,-263.52 502.12,-264.87 494.75,-257.26 491.61,-263.52"/>
</a>
</g>
</g>
<!-- Node28 -->
<g id="Node000028" class="node">
<title>Node28</title>
<g id="a_Node000028"><a xlink:href="$fopencv_8cpp.html#a248b5cdc64398082a700818b8e29ff59" xlink:title=" ">
<polygon fill="white" stroke="#666666" points="756.5,-77 636.25,-77 636.25,-57 756.5,-57 756.5,-77"/>
<text text-anchor="middle" x="696.38" y="-63.5" font-family="Helvetica,sans-Serif" font-size="10.00">cvmtfCompareTemplate</text>
</a>
</g>
</g>
<!-- Node27&#45;&gt;Node28 -->
<g id="edge82_Node000027_Node000028" class="edge">
<title>Node27&#45;&gt;Node28</title>
<g id="a_edge82_Node000027_Node000028"><a xlink:title=" ">
<path fill="none" stroke="#63b8ff" d="M379.58,-132.59C397.28,-119.16 430.36,-96.31 462.75,-86 515.37,-69.26 577.88,-64.95 624.84,-64.59"/>
<polygon fill="#63b8ff" stroke="#63b8ff" points="624.62,-68.09 634.61,-64.58 624.61,-61.09 624.62,-68.09"/>
</a>
</g>
</g>
<!-- Node28&#45;&gt;Node3 -->
<g id="edge89_Node000028_Node000003" class="edge">
<title>Node28&#45;&gt;Node3</title>
<g id="a_edge89_Node000028_Node000003"><a xlink:title=" ">
<path fill="none" stroke="#63b8ff" d="M737.82,-77.41C744.27,-79.79 750.72,-82.64 756.5,-86 775.27,-96.91 774.26,-107.23 792.5,-119 797.62,-122.3 803.27,-125.33 808.96,-128.05"/>
<polygon fill="#63b8ff" stroke="#63b8ff" points="807.18,-131.09 817.74,-131.96 810.03,-124.69 807.18,-131.09"/>
</a>
</g>
</g>
<!-- Node28&#45;&gt;Node7 -->
<g id="edge91_Node000028_Node000007" class="edge">
<title>Node28&#45;&gt;Node7</title>
<g id="a_edge91_Node000028_Node000007"><a xlink:title=" ">
<path fill="none" stroke="#63b8ff" d="M739.14,-77.49C793.67,-91.18 889.12,-115.15 948.2,-129.99"/>
<polygon fill="#63b8ff" stroke="#63b8ff" points="947.13,-133.33 957.68,-132.37 948.84,-126.54 947.13,-133.33"/>
</a>
</g>
</g>
<!-- Node29 -->
<g id="Node000029" class="node">
<title>Node29</title>
<g id="a_Node000029"><a xlink:href="$fopencv_8cpp.html#a95c56af5716e2b2d1b4df612796cc229" xlink:title=" ">
<polygon fill="white" stroke="#666666" points="906.75,-77 792.5,-77 792.5,-57 906.75,-57 906.75,-77"/>
<text text-anchor="middle" x="849.62" y="-63.5" font-family="Helvetica,sans-Serif" font-size="10.00">cvmtfMultipleTemplate</text>
</a>
</g>
</g>
<!-- Node28&#45;&gt;Node29 -->
<g id="edge83_Node000028_Node000029" class="edge">
<title>Node28&#45;&gt;Node29</title>
<g id="a_edge83_Node000028_Node000029"><a xlink:title=" ">
<path fill="none" stroke="#63b8ff" d="M756.72,-67C764.71,-67 772.95,-67 781.07,-67"/>
<polygon fill="#63b8ff" stroke="#63b8ff" points="780.9,-70.5 790.9,-67 780.9,-63.5 780.9,-70.5"/>
</a>
</g>
</g>
<!-- Node31 -->
<g id="Node000031" class="node">
<title>Node31</title>
<g id="a_Node000031"><a xlink:href="$fopencv_8cpp.html#a6abdcaeee06b3da6f210daf0162bcd01" xlink:title=" ">
<polygon fill="white" stroke="#666666" points="1161.12,-20 1102.38,-20 1102.38,0 1161.12,0 1161.12,-20"/>
<text text-anchor="middle" x="1131.75" y="-6.5" font-family="Helvetica,sans-Serif" font-size="10.00">intersects</text>
</a>
</g>
</g>
<!-- Node28&#45;&gt;Node31 -->
<g id="edge90_Node000028_Node000031" class="edge">
<title>Node28&#45;&gt;Node31</title>
<g id="a_edge90_Node000028_Node000031"><a xlink:title=" ">
<path fill="none" stroke="#63b8ff" d="M731.08,-56.58C777.98,-42.69 865.84,-18.82 942.75,-10 993.59,-4.17 1052.67,-5.48 1090.83,-7.37"/>
<polygon fill="#63b8ff" stroke="#63b8ff" points="1090.28,-10.85 1100.46,-7.89 1090.66,-3.86 1090.28,-10.85"/>
</a>
</g>
</g>
<!-- Node29&#45;&gt;Node4 -->
<g id="edge84_Node000029_Node000004" class="edge">
<title>Node29&#45;&gt;Node4</title>
<g id="a_edge84_Node000029_Node000004"><a xlink:title=" ">
<path fill="none" stroke="#63b8ff" d="M907.1,-67C923.16,-67 940.42,-67 955.66,-67"/>
<polygon fill="#63b8ff" stroke="#63b8ff" points="955.34,-70.5 965.34,-67 955.34,-63.5 955.34,-70.5"/>
</a>
</g>
</g>
<!-- Node29&#45;&gt;Node5 -->
<g id="edge85_Node000029_Node000005" class="edge">
<title>Node29&#45;&gt;Node5</title>
<g id="a_edge85_Node000029_Node000005"><a xlink:title=" ">
<path fill="none" stroke="#63b8ff" d="M891.84,-77.48C911.56,-82.5 935.22,-88.52 955.37,-93.65"/>
<polygon fill="#63b8ff" stroke="#63b8ff" points="954.44,-97.02 965,-96.1 956.17,-90.24 954.44,-97.02"/>
</a>
</g>
</g>
<!-- Node30 -->
<g id="Node000030" class="node">
<title>Node30</title>
<g id="a_Node000030"><a xlink:href="$fopencv_8cpp.html#a7521a083566181475d36ee14aad60f1d" xlink:title=" ">
<polygon fill="white" stroke="#666666" points="1059.25,-39 942.75,-39 942.75,-19 1059.25,-19 1059.25,-39"/>
<text text-anchor="middle" x="1001" y="-25.5" font-family="Helvetica,sans-Serif" font-size="10.00">multipleMatchTemplate</text>
</a>
</g>
</g>
<!-- Node29&#45;&gt;Node30 -->
<g id="edge86_Node000029_Node000030" class="edge">
<title>Node29&#45;&gt;Node30</title>
<g id="a_edge86_Node000029_Node000030"><a xlink:title=" ">
<path fill="none" stroke="#63b8ff" d="M891.84,-56.52C909.14,-52.11 929.47,-46.94 947.81,-42.28"/>
<polygon fill="#63b8ff" stroke="#63b8ff" points="948.63,-45.68 957.45,-39.82 946.9,-38.9 948.63,-45.68"/>
</a>
</g>
</g>
<!-- Node30&#45;&gt;Node31 -->
<g id="edge87_Node000030_Node000031" class="edge">
<title>Node30&#45;&gt;Node31</title>
<g id="a_edge87_Node000030_Node000031"><a xlink:title=" ">
<path fill="none" stroke="#63b8ff" d="M1059.6,-20.5C1070.18,-18.94 1081.02,-17.34 1090.94,-15.88"/>
<polygon fill="#63b8ff" stroke="#63b8ff" points="1091.21,-19.37 1100.59,-14.45 1090.19,-12.45 1091.21,-19.37"/>
</a>
</g>
</g>
<!-- Node31&#45;&gt;Node31 -->
<g id="edge88_Node000031_Node000031" class="edge">
<title>Node31&#45;&gt;Node31</title>
<g id="a_edge88_Node000031_Node000031"><a xlink:title=" ">
<path fill="none" stroke="#63b8ff" d="M1114.91,-20.34C1107.71,-28.98 1113.32,-38 1131.75,-38 1141.83,-38 1148.07,-35.3 1150.48,-31.44"/>
<polygon fill="#63b8ff" stroke="#63b8ff" points="1153.98,-31.1 1148.85,-21.83 1147.08,-32.28 1153.98,-31.1"/>
</a>
</g>
</g>
<!-- Node33 -->
<g id="Node000033" class="node">
<title>Node33</title>
<g id="a_Node000033"><a xlink:href="$fadb_8cpp.html#aaaa05d37f22f833c0f941bf81f963504" xlink:title=" ">
<polygon fill="white" stroke="#666666" points="386.25,-330 344.75,-330 344.75,-310 386.25,-310 386.25,-330"/>
<text text-anchor="middle" x="365.5" y="-316.5" font-family="Helvetica,sans-Serif" font-size="10.00">swipe</text>
</a>
</g>
</g>
<!-- Node32&#45;&gt;Node33 -->
<g id="edge97_Node000032_Node000033" class="edge">
<title>Node32&#45;&gt;Node33</title>
<g id="a_edge97_Node000032_Node000033"><a xlink:title=" ">
<path fill="none" stroke="#63b8ff" d="M257.48,-305.88C282.56,-309.19 311.8,-313.04 333.37,-315.89"/>
<polygon fill="#63b8ff" stroke="#63b8ff" points="332.62,-319.32 342.99,-317.16 333.53,-312.38 332.62,-319.32"/>
</a>
</g>
</g>
<!-- Node34 -->
<g id="Node000034" class="node">
<title>Node34</title>
<g id="a_Node000034"><a xlink:href="$fadb_8cpp.html#a735aed1798e65a5276053c44211ce025" xlink:title=" ">
<polygon fill="white" stroke="#666666" points="550,-352 513,-352 513,-332 550,-332 550,-352"/>
<text text-anchor="middle" x="531.5" y="-338.5" font-family="Helvetica,sans-Serif" font-size="10.00">input</text>
</a>
</g>
</g>
<!-- Node33&#45;&gt;Node34 -->
<g id="edge98_Node000033_Node000034" class="edge">
<title>Node33&#45;&gt;Node34</title>
<g id="a_edge98_Node000033_Node000034"><a xlink:title=" ">
<path fill="none" stroke="#63b8ff" d="M386.61,-322.7C415.4,-326.56 468.54,-333.69 501.56,-338.12"/>
<polygon fill="#63b8ff" stroke="#63b8ff" points="500.86,-341.55 511.23,-339.42 501.79,-334.62 500.86,-341.55"/>
</a>
</g>
</g>
<!-- Node35 -->
<g id="Node000035" class="node">
<title>Node35</title>
<g id="a_Node000035"><a xlink:href="$fadb_8cpp.html#a0766d8b572678e0a830d45a4dcfb9d4d" xlink:title=" ">
<polygon fill="white" stroke="#666666" points="904.88,-378 794.38,-378 794.38,-358 904.88,-358 904.88,-378"/>
<text text-anchor="middle" x="849.62" y="-364.5" font-family="Helvetica,sans-Serif" font-size="10.00">runAdbLocalhostShell</text>
</a>
</g>
</g>
<!-- Node34&#45;&gt;Node35 -->
<g id="edge99_Node000034_Node000035" class="edge">
<title>Node34&#45;&gt;Node35</title>
<g id="a_edge99_Node000034_Node000035"><a xlink:title=" ">
<path fill="none" stroke="#63b8ff" d="M550.4,-343.47C594.29,-347.08 709.02,-356.52 782.71,-362.58"/>
<polygon fill="#63b8ff" stroke="#63b8ff" points="782.4,-366.07 792.65,-363.4 782.98,-359.09 782.4,-366.07"/>
</a>
</g>
</g>
<!-- Node35&#45;&gt;Node18 -->
<g id="edge100_Node000035_Node000018" class="edge">
<title>Node35&#45;&gt;Node18</title>
<g id="a_edge100_Node000035_Node000018"><a xlink:title=" ">
<path fill="none" stroke="#63b8ff" d="M882.34,-357.57C890.46,-354.52 899.06,-350.93 906.75,-347 932.14,-334.03 959.04,-315.57 977.39,-302.17"/>
<polygon fill="#63b8ff" stroke="#63b8ff" points="979.23,-305.17 985.18,-296.4 975.06,-299.54 979.23,-305.17"/>
</a>
</g>
</g>
</g>
</svg>
