<?xml version="1.0" encoding="UTF-8" standalone="no"?>
<!DOCTYPE svg PUBLIC "-//W3C//DTD SVG 1.1//EN"
 "http://www.w3.org/Graphics/SVG/1.1/DTD/svg11.dtd">
<!-- Generated by graphviz version 12.2.0 (20241103.1931)
 -->
<!-- Title: BotConfig::updateFavoriteInstance Pages: 1 -->
<svg width="545pt" height="236pt"
 viewBox="0.00 0.00 544.50 236.00" xmlns="http://www.w3.org/2000/svg" xmlns:xlink="http://www.w3.org/1999/xlink">
<g id="graph0" class="graph" transform="scale(1 1) rotate(0) translate(4 232)">
<title>BotConfig::updateFavoriteInstance</title>
<!-- Node1 -->
<g id="Node000001" class="node">
<title>Node1</title>
<g id="a_Node000001"><a xlink:title=" ">
<polygon fill="#999999" stroke="#666666" points="130,-140 0,-140 0,-108 130,-108 130,-140"/>
<text text-anchor="start" x="8" y="-126.5" font-family="Helvetica,sans-Serif" font-size="10.00">BotConfig::updateFavorite</text>
<text text-anchor="middle" x="65" y="-114.5" font-family="Helvetica,sans-Serif" font-size="10.00">Instance</text>
</a>
</g>
</g>
<!-- Node2 -->
<g id="Node000002" class="node">
<title>Node2</title>
<g id="a_Node000002"><a xlink:href="$class_instance.html#a951c978f2d8b94264ada22b2f881469b" xlink:title=" ">
<polygon fill="white" stroke="#666666" points="280.62,-153 171.62,-153 171.62,-133 280.62,-133 280.62,-153"/>
<text text-anchor="middle" x="226.12" y="-139.5" font-family="Helvetica,sans-Serif" font-size="10.00">Instance::getGlobalId</text>
</a>
</g>
</g>
<!-- Node1&#45;&gt;Node2 -->
<g id="edge16_Node000001_Node000002" class="edge">
<title>Node1&#45;&gt;Node2</title>
<g id="a_edge16_Node000001_Node000002"><a xlink:title=" ">
<path fill="none" stroke="#63b8ff" d="M130.26,-131.67C140.06,-132.84 150.18,-134.05 159.99,-135.22"/>
<polygon fill="#63b8ff" stroke="#63b8ff" points="159.49,-138.69 169.83,-136.4 160.32,-131.74 159.49,-138.69"/>
</a>
</g>
</g>
<!-- Node3 -->
<g id="Node000003" class="node">
<title>Node3</title>
<g id="a_Node000003"><a xlink:href="$class_bot_config.html#ab92a15dd3027a7f42b452cdf5eaf9529" xlink:title=" ">
<polygon fill="white" stroke="#666666" points="286.25,-115 166,-115 166,-95 286.25,-95 286.25,-115"/>
<text text-anchor="middle" x="226.12" y="-101.5" font-family="Helvetica,sans-Serif" font-size="10.00">BotConfig::updateString</text>
</a>
</g>
</g>
<!-- Node1&#45;&gt;Node3 -->
<g id="edge17_Node000001_Node000003" class="edge">
<title>Node1&#45;&gt;Node3</title>
<g id="a_edge17_Node000001_Node000003"><a xlink:title=" ">
<path fill="none" stroke="#63b8ff" d="M130.26,-116.33C138.18,-115.38 146.3,-114.41 154.31,-113.46"/>
<polygon fill="#63b8ff" stroke="#63b8ff" points="154.49,-116.96 164.01,-112.3 153.66,-110.01 154.49,-116.96"/>
</a>
</g>
</g>
<!-- Node4 -->
<g id="Node000004" class="node">
<title>Node4</title>
<g id="a_Node000004"><a xlink:href="$_text_manager_8cpp.html#a6a1f72a80ddaec746c95996b16e3a1dc" xlink:title=" ">
<polygon fill="white" stroke="#666666" points="411,-210 326,-210 326,-190 411,-190 411,-210"/>
<text text-anchor="middle" x="368.5" y="-196.5" font-family="Helvetica,sans-Serif" font-size="10.00">getContentAfter</text>
</a>
</g>
</g>
<!-- Node3&#45;&gt;Node4 -->
<g id="edge18_Node000003_Node000004" class="edge">
<title>Node3&#45;&gt;Node4</title>
<g id="a_edge18_Node000003_Node000004"><a xlink:title=" ">
<path fill="none" stroke="#63b8ff" d="M271.48,-115.42C276.75,-117.74 281.82,-120.57 286.25,-124 309.94,-142.35 299.38,-161.64 322.25,-181 323.51,-182.07 324.84,-183.08 326.22,-184.04"/>
<polygon fill="#63b8ff" stroke="#63b8ff" points="324.17,-186.9 334.57,-188.92 327.7,-180.85 324.17,-186.9"/>
</a>
</g>
</g>
<!-- Node6 -->
<g id="Node000006" class="node">
<title>Node6</title>
<g id="a_Node000006"><a xlink:href="$_text_manager_8cpp.html#a377407ab4c28873a8e1956ea343f9cc2" xlink:title=" ">
<polygon fill="white" stroke="#666666" points="414.75,-172 322.25,-172 322.25,-152 414.75,-152 414.75,-172"/>
<text text-anchor="middle" x="368.5" y="-158.5" font-family="Helvetica,sans-Serif" font-size="10.00">getContentBefore</text>
</a>
</g>
</g>
<!-- Node3&#45;&gt;Node6 -->
<g id="edge21_Node000003_Node000006" class="edge">
<title>Node3&#45;&gt;Node6</title>
<g id="a_edge21_Node000003_Node000006"><a xlink:title=" ">
<path fill="none" stroke="#63b8ff" d="M263.13,-115.46C270.85,-118.01 278.9,-120.91 286.25,-124 302.93,-131.02 305.89,-135.27 322.25,-143 325.14,-144.37 328.15,-145.74 331.19,-147.09"/>
<polygon fill="#63b8ff" stroke="#63b8ff" points="329.53,-150.18 340.09,-150.94 332.3,-143.76 329.53,-150.18"/>
</a>
</g>
</g>
<!-- Node7 -->
<g id="Node000007" class="node">
<title>Node7</title>
<g id="a_Node000007"><a xlink:href="$_text_manager_8cpp.html#add36cc54cd9616a393a17b8961491477" xlink:title=" ">
<polygon fill="white" stroke="#666666" points="408.38,-58 328.62,-58 328.62,-38 408.38,-38 408.38,-58"/>
<text text-anchor="middle" x="368.5" y="-44.5" font-family="Helvetica,sans-Serif" font-size="10.00">getFileContent</text>
</a>
</g>
</g>
<!-- Node3&#45;&gt;Node7 -->
<g id="edge23_Node000003_Node000007" class="edge">
<title>Node3&#45;&gt;Node7</title>
<g id="a_edge23_Node000003_Node000007"><a xlink:title=" ">
<path fill="none" stroke="#63b8ff" d="M252.87,-94.55C274.94,-85.59 306.95,-72.59 331.54,-62.6"/>
<polygon fill="#63b8ff" stroke="#63b8ff" points="332.57,-65.96 340.51,-58.96 329.93,-59.48 332.57,-65.96"/>
</a>
</g>
</g>
<!-- Node9 -->
<g id="Node000009" class="node">
<title>Node9</title>
<g id="a_Node000009"><a xlink:href="$_text_manager_8cpp.html#af24bee60aa1d3d5b4ae3bf6ebd267ecd" xlink:title=" ">
<polygon fill="white" stroke="#666666" points="392.25,-134 344.75,-134 344.75,-114 392.25,-114 392.25,-134"/>
<text text-anchor="middle" x="368.5" y="-120.5" font-family="Helvetica,sans-Serif" font-size="10.00">getLine</text>
</a>
</g>
</g>
<!-- Node3&#45;&gt;Node9 -->
<g id="edge25_Node000003_Node000009" class="edge">
<title>Node3&#45;&gt;Node9</title>
<g id="a_edge25_Node000003_Node000009"><a xlink:title=" ">
<path fill="none" stroke="#63b8ff" d="M286.66,-113.06C302.54,-115.21 319.16,-117.46 333.18,-119.35"/>
<polygon fill="#63b8ff" stroke="#63b8ff" points="332.38,-122.78 342.76,-120.65 333.32,-115.84 332.38,-122.78"/>
</a>
</g>
</g>
<!-- Node10 -->
<g id="Node000010" class="node">
<title>Node10</title>
<g id="a_Node000010"><a xlink:href="$_text_manager_8cpp.html#a98e5aae2b6659418890caba4fad17d5e" xlink:title=" ">
<polygon fill="white" stroke="#666666" points="408.38,-96 328.62,-96 328.62,-76 408.38,-76 408.38,-96"/>
<text text-anchor="middle" x="368.5" y="-82.5" font-family="Helvetica,sans-Serif" font-size="10.00">updateContent</text>
</a>
</g>
</g>
<!-- Node3&#45;&gt;Node10 -->
<g id="edge27_Node000003_Node000010" class="edge">
<title>Node3&#45;&gt;Node10</title>
<g id="a_edge27_Node000003_Node000010"><a xlink:title=" ">
<path fill="none" stroke="#63b8ff" d="M286.66,-96.94C296.75,-95.58 307.15,-94.17 316.99,-92.84"/>
<polygon fill="#63b8ff" stroke="#63b8ff" points="317.29,-96.33 326.73,-91.52 316.35,-89.39 317.29,-96.33"/>
</a>
</g>
</g>
<!-- Node11 -->
<g id="Node000011" class="node">
<title>Node11</title>
<g id="a_Node000011"><a xlink:href="$_text_manager_8cpp.html#ab55140c566370b105b9bf81756293fa5" xlink:title=" ">
<polygon fill="white" stroke="#666666" points="400.12,-20 336.88,-20 336.88,0 400.12,0 400.12,-20"/>
<text text-anchor="middle" x="368.5" y="-6.5" font-family="Helvetica,sans-Serif" font-size="10.00">writeToFile</text>
</a>
</g>
</g>
<!-- Node3&#45;&gt;Node11 -->
<g id="edge29_Node000003_Node000011" class="edge">
<title>Node3&#45;&gt;Node11</title>
<g id="a_edge29_Node000003_Node000011"><a xlink:title=" ">
<path fill="none" stroke="#63b8ff" d="M238.08,-94.54C255.05,-78.77 289.17,-48.64 322.25,-29 324.39,-27.73 326.64,-26.5 328.93,-25.32"/>
<polygon fill="#63b8ff" stroke="#63b8ff" points="330.24,-28.57 337.78,-21.13 327.25,-22.24 330.24,-28.57"/>
</a>
</g>
</g>
<!-- Node4&#45;&gt;Node4 -->
<g id="edge20_Node000004_Node000004" class="edge">
<title>Node4&#45;&gt;Node4</title>
<g id="a_edge20_Node000004_Node000004"><a xlink:title=" ">
<path fill="none" stroke="#63b8ff" d="M348.62,-210.34C340.12,-218.98 346.75,-228 368.5,-228 380.39,-228 387.77,-225.3 390.62,-221.44"/>
<polygon fill="#63b8ff" stroke="#63b8ff" points="394.08,-220.94 388.68,-211.82 387.22,-222.32 394.08,-220.94"/>
</a>
</g>
</g>
<!-- Node5 -->
<g id="Node000005" class="node">
<title>Node5</title>
<g id="a_Node000005"><a xlink:href="$_text_manager_8cpp.html#afbb8972025ad14e914fdaafa26957439" xlink:title=" ">
<polygon fill="white" stroke="#666666" points="518.12,-153 469.12,-153 469.12,-133 518.12,-133 518.12,-153"/>
<text text-anchor="middle" x="493.62" y="-139.5" font-family="Helvetica,sans-Serif" font-size="10.00">findPos</text>
</a>
</g>
</g>
<!-- Node4&#45;&gt;Node5 -->
<g id="edge19_Node000004_Node000005" class="edge">
<title>Node4&#45;&gt;Node5</title>
<g id="a_edge19_Node000004_Node000005"><a xlink:title=" ">
<path fill="none" stroke="#63b8ff" d="M394.98,-189.6C401.46,-186.87 408.39,-183.89 414.75,-181 430.36,-173.92 447.51,-165.61 461.72,-158.58"/>
<polygon fill="#63b8ff" stroke="#63b8ff" points="463.21,-161.75 470.6,-154.16 460.09,-155.48 463.21,-161.75"/>
</a>
</g>
</g>
<!-- Node6&#45;&gt;Node5 -->
<g id="edge22_Node000006_Node000005" class="edge">
<title>Node6&#45;&gt;Node5</title>
<g id="a_edge22_Node000006_Node000005"><a xlink:title=" ">
<path fill="none" stroke="#63b8ff" d="M415,-154.98C429.09,-152.8 444.39,-150.44 457.65,-148.4"/>
<polygon fill="#63b8ff" stroke="#63b8ff" points="457.86,-151.91 467.21,-146.92 456.79,-144.99 457.86,-151.91"/>
</a>
</g>
</g>
<!-- Node8 -->
<g id="Node000008" class="node">
<title>Node8</title>
<g id="a_Node000008"><a xlink:href="$_text_manager_8cpp.html#a5e4308ca14d1f4cfc2456fc26b1361a8" xlink:title=" ">
<polygon fill="white" stroke="#666666" points="534.25,-58 453,-58 453,-38 534.25,-38 534.25,-58"/>
<text text-anchor="middle" x="493.62" y="-44.5" font-family="Helvetica,sans-Serif" font-size="10.00">getIfstreamFile</text>
</a>
</g>
</g>
<!-- Node7&#45;&gt;Node8 -->
<g id="edge24_Node000007_Node000008" class="edge">
<title>Node7&#45;&gt;Node8</title>
<g id="a_edge24_Node000007_Node000008"><a xlink:title=" ">
<path fill="none" stroke="#63b8ff" d="M408.8,-48C419.24,-48 430.68,-48 441.65,-48"/>
<polygon fill="#63b8ff" stroke="#63b8ff" points="441.34,-51.5 451.34,-48 441.34,-44.5 441.34,-51.5"/>
</a>
</g>
</g>
<!-- Node9&#45;&gt;Node5 -->
<g id="edge26_Node000009_Node000005" class="edge">
<title>Node9&#45;&gt;Node5</title>
<g id="a_edge26_Node000009_Node000005"><a xlink:title=" ">
<path fill="none" stroke="#63b8ff" d="M392.66,-127.57C410.91,-130.39 436.67,-134.36 457.46,-137.57"/>
<polygon fill="#63b8ff" stroke="#63b8ff" points="456.82,-141.02 467.23,-139.08 457.89,-134.1 456.82,-141.02"/>
</a>
</g>
</g>
<!-- Node10&#45;&gt;Node5 -->
<g id="edge28_Node000010_Node000005" class="edge">
<title>Node10&#45;&gt;Node5</title>
<g id="a_edge28_Node000010_Node000005"><a xlink:title=" ">
<path fill="none" stroke="#63b8ff" d="M394.98,-96.4C401.46,-99.13 408.39,-102.11 414.75,-105 430.36,-112.08 447.51,-120.39 461.72,-127.42"/>
<polygon fill="#63b8ff" stroke="#63b8ff" points="460.09,-130.52 470.6,-131.84 463.21,-124.25 460.09,-130.52"/>
</a>
</g>
</g>
<!-- Node12 -->
<g id="Node000012" class="node">
<title>Node12</title>
<g id="a_Node000012"><a xlink:href="$_text_manager_8cpp.html#a4a86df56d2737552b2fd63bfa85c5800" xlink:title=" ">
<polygon fill="white" stroke="#666666" points="536.5,-20 450.75,-20 450.75,0 536.5,0 536.5,-20"/>
<text text-anchor="middle" x="493.62" y="-6.5" font-family="Helvetica,sans-Serif" font-size="10.00">getOfstreamFile</text>
</a>
</g>
</g>
<!-- Node11&#45;&gt;Node12 -->
<g id="edge30_Node000011_Node000012" class="edge">
<title>Node11&#45;&gt;Node12</title>
<g id="a_edge30_Node000011_Node000012"><a xlink:title=" ">
<path fill="none" stroke="#63b8ff" d="M400.57,-10C412.25,-10 425.89,-10 439.04,-10"/>
<polygon fill="#63b8ff" stroke="#63b8ff" points="438.89,-13.5 448.89,-10 438.89,-6.5 438.89,-13.5"/>
</a>
</g>
</g>
</g>
</svg>
