<?xml version="1.0" encoding="UTF-8" standalone="no"?>
<!DOCTYPE svg PUBLIC "-//W3C//DTD SVG 1.1//EN"
 "http://www.w3.org/Graphics/SVG/1.1/DTD/svg11.dtd">
<!-- Generated by graphviz version 12.2.0 (20241103.1931)
 -->
<!-- Title: Emulator::adbActivated Pages: 1 -->
<svg width="738pt" height="40pt"
 viewBox="0.00 0.00 738.25 40.00" xmlns="http://www.w3.org/2000/svg" xmlns:xlink="http://www.w3.org/1999/xlink">
<g id="graph0" class="graph" transform="scale(1 1) rotate(0) translate(4 36)">
<title>Emulator::adbActivated</title>
<!-- Node1 -->
<g id="Node000001" class="node">
<title>Node1</title>
<g id="a_Node000001"><a xlink:title=" ">
<polygon fill="#999999" stroke="#666666" points="730.25,-26 612.25,-26 612.25,-6 730.25,-6 730.25,-26"/>
<text text-anchor="middle" x="671.25" y="-12.5" font-family="Helvetica,sans-Serif" font-size="10.00">Emulator::adbActivated</text>
</a>
</g>
</g>
<!-- Node2 -->
<g id="Node000002" class="node">
<title>Node2</title>
<g id="a_Node000002"><a xlink:href="$class_emulator.html#ae6872001b82eb1c25e119eb3b17f1547" xlink:title=" ">
<polygon fill="white" stroke="#666666" points="576.25,-26 471.75,-26 471.75,-6 576.25,-6 576.25,-26"/>
<text text-anchor="middle" x="524" y="-12.5" font-family="Helvetica,sans-Serif" font-size="10.00">Emulator::checkAdb</text>
</a>
</g>
</g>
<!-- Node1&#45;&gt;Node2 -->
<g id="edge5_Node000001_Node000002" class="edge">
<title>Node1&#45;&gt;Node2</title>
<g id="a_edge5_Node000001_Node000002"><a xlink:title=" ">
<path fill="none" stroke="#63b8ff" d="M600.67,-16C592.59,-16 584.46,-16 576.69,-16"/>
<polygon fill="#63b8ff" stroke="#63b8ff" points="600.49,-19.5 610.49,-16 600.49,-12.5 600.49,-19.5"/>
</a>
</g>
</g>
<!-- Node3 -->
<g id="Node000003" class="node">
<title>Node3</title>
<g id="a_Node000003"><a xlink:href="$class_bot_config.html#ad8b1cd4e0943a64f9e3a91d9a09fe21e" xlink:title=" ">
<polygon fill="white" stroke="#666666" points="435.75,-32 274.25,-32 274.25,0 435.75,0 435.75,-32"/>
<text text-anchor="start" x="282.25" y="-18.5" font-family="Helvetica,sans-Serif" font-size="10.00">BotConfig::checkPlayingInstance</text>
<text text-anchor="middle" x="355" y="-6.5" font-family="Helvetica,sans-Serif" font-size="10.00">Parameters</text>
</a>
</g>
</g>
<!-- Node2&#45;&gt;Node3 -->
<g id="edge6_Node000002_Node000003" class="edge">
<title>Node2&#45;&gt;Node3</title>
<g id="a_edge6_Node000002_Node000003"><a xlink:title=" ">
<path fill="none" stroke="#63b8ff" d="M460.24,-16C452.37,-16 444.25,-16 436.17,-16"/>
<polygon fill="#63b8ff" stroke="#63b8ff" points="460.02,-19.5 470.02,-16 460.02,-12.5 460.02,-19.5"/>
</a>
</g>
</g>
<!-- Node4 -->
<g id="Node000004" class="node">
<title>Node4</title>
<g id="a_Node000004"><a xlink:href="$class_bot_config.html#a8925ef3403b945f27b9ee2719ef257b9" xlink:title=" ">
<polygon fill="white" stroke="#666666" points="238.25,-26 116.5,-26 116.5,-6 238.25,-6 238.25,-26"/>
<text text-anchor="middle" x="177.38" y="-12.5" font-family="Helvetica,sans-Serif" font-size="10.00">BotConfig::initBotConfig</text>
</a>
</g>
</g>
<!-- Node3&#45;&gt;Node4 -->
<g id="edge7_Node000003_Node000004" class="edge">
<title>Node3&#45;&gt;Node4</title>
<g id="a_edge7_Node000003_Node000004"><a xlink:title=" ">
<path fill="none" stroke="#63b8ff" d="M262.48,-16C254.4,-16 246.37,-16 238.65,-16"/>
<polygon fill="#63b8ff" stroke="#63b8ff" points="262.38,-19.5 272.38,-16 262.38,-12.5 262.38,-19.5"/>
</a>
</g>
</g>
<!-- Node5 -->
<g id="Node000005" class="node">
<title>Node5</title>
<g id="a_Node000005"><a xlink:href="$classgame.html#aea6b13468585f1be55d1736100158706" xlink:title=" ">
<polygon fill="white" stroke="#666666" points="80.5,-26 0,-26 0,-6 80.5,-6 80.5,-26"/>
<text text-anchor="middle" x="40.25" y="-12.5" font-family="Helvetica,sans-Serif" font-size="10.00">game::startBot</text>
</a>
</g>
</g>
<!-- Node4&#45;&gt;Node5 -->
<g id="edge8_Node000004_Node000005" class="edge">
<title>Node4&#45;&gt;Node5</title>
<g id="a_edge8_Node000004_Node000005"><a xlink:title=" ">
<path fill="none" stroke="#63b8ff" d="M105.04,-16C96.77,-16 88.57,-16 80.95,-16"/>
<polygon fill="#63b8ff" stroke="#63b8ff" points="104.81,-19.5 114.81,-16 104.81,-12.5 104.81,-19.5"/>
</a>
</g>
</g>
</g>
</svg>
