<?xml version="1.0" encoding="UTF-8" standalone="no"?>
<!DOCTYPE svg PUBLIC "-//W3C//DTD SVG 1.1//EN"
 "http://www.w3.org/Graphics/SVG/1.1/DTD/svg11.dtd">
<!-- Generated by graphviz version 12.2.0 (20241103.1931)
 -->
<!-- Title: FlowKCToken::addCondition Pages: 1 -->
<svg width="309pt" height="180pt"
 viewBox="0.00 0.00 309.25 180.00" xmlns="http://www.w3.org/2000/svg" xmlns:xlink="http://www.w3.org/1999/xlink">
<g id="graph0" class="graph" transform="scale(1 1) rotate(0) translate(4 176)">
<title>FlowKCToken::addCondition</title>
<!-- Node1 -->
<g id="Node000001" class="node">
<title>Node1</title>
<g id="a_Node000001"><a xlink:title=" ">
<polygon fill="#999999" stroke="#666666" points="140.5,-96 0,-96 0,-76 140.5,-76 140.5,-96"/>
<text text-anchor="middle" x="70.25" y="-82.5" font-family="Helvetica,sans-Serif" font-size="10.00">FlowKCToken::addCondition</text>
</a>
</g>
</g>
<!-- Node2 -->
<g id="Node000002" class="node">
<title>Node2</title>
<g id="a_Node000002"><a xlink:href="$class_token.html#a4c0f84a84656f0b5e28c4193c3c13ea3" xlink:title=" ">
<polygon fill="white" stroke="#666666" points="281.38,-172 196.38,-172 196.38,-152 281.38,-152 281.38,-172"/>
<text text-anchor="middle" x="238.88" y="-158.5" font-family="Helvetica,sans-Serif" font-size="10.00">Token::addError</text>
</a>
</g>
</g>
<!-- Node1&#45;&gt;Node2 -->
<g id="edge6_Node000001_Node000002" class="edge">
<title>Node1&#45;&gt;Node2</title>
<g id="a_edge6_Node000001_Node000002"><a xlink:title=" ">
<path fill="none" stroke="#63b8ff" d="M87.88,-96.34C108.21,-108.66 143.94,-129.3 176.5,-143 180.6,-144.73 184.92,-146.38 189.28,-147.93"/>
<polygon fill="#63b8ff" stroke="#63b8ff" points="188.1,-151.23 198.7,-151.11 190.34,-144.6 188.1,-151.23"/>
</a>
</g>
</g>
<!-- Node3 -->
<g id="Node000003" class="node">
<title>Node3</title>
<g id="a_Node000003"><a xlink:href="$class_iterator_list.html#a4acf162e4a194bddd3c2fe26b073f45a" xlink:title=" ">
<polygon fill="white" stroke="#666666" points="301.25,-134 176.5,-134 176.5,-114 301.25,-114 301.25,-134"/>
<text text-anchor="middle" x="238.88" y="-120.5" font-family="Helvetica,sans-Serif" font-size="10.00">IteratorList::currentToken</text>
</a>
</g>
</g>
<!-- Node1&#45;&gt;Node3 -->
<g id="edge7_Node000001_Node000003" class="edge">
<title>Node1&#45;&gt;Node3</title>
<g id="a_edge7_Node000001_Node000003"><a xlink:title=" ">
<path fill="none" stroke="#63b8ff" d="M117.22,-96.48C136.98,-100.99 160.28,-106.3 181.1,-111.05"/>
<polygon fill="#63b8ff" stroke="#63b8ff" points="180.05,-114.4 190.58,-113.21 181.61,-107.58 180.05,-114.4"/>
</a>
</g>
</g>
<!-- Node4 -->
<g id="Node000004" class="node">
<title>Node4</title>
<g id="a_Node000004"><a xlink:href="$class_iterator_list.html#a2ebc1118094754b7d333b0a9d257d12b" xlink:title=" ">
<polygon fill="white" stroke="#666666" points="286.25,-96 191.5,-96 191.5,-76 286.25,-76 286.25,-96"/>
<text text-anchor="middle" x="238.88" y="-82.5" font-family="Helvetica,sans-Serif" font-size="10.00">IteratorList::ended</text>
</a>
</g>
</g>
<!-- Node1&#45;&gt;Node4 -->
<g id="edge8_Node000001_Node000004" class="edge">
<title>Node1&#45;&gt;Node4</title>
<g id="a_edge8_Node000001_Node000004"><a xlink:title=" ">
<path fill="none" stroke="#63b8ff" d="M140.95,-86C153.92,-86 167.35,-86 179.92,-86"/>
<polygon fill="#63b8ff" stroke="#63b8ff" points="179.68,-89.5 189.68,-86 179.68,-82.5 179.68,-89.5"/>
</a>
</g>
</g>
<!-- Node5 -->
<g id="Node000005" class="node">
<title>Node5</title>
<g id="a_Node000005"><a xlink:href="$_interpretor_8cpp.html#add26727275e38a1c0054c4baa0c2662a" xlink:title=" ">
<polygon fill="white" stroke="#666666" points="281.38,-58 196.38,-58 196.38,-38 281.38,-38 281.38,-58"/>
<text text-anchor="middle" x="238.88" y="-44.5" font-family="Helvetica,sans-Serif" font-size="10.00">isBooleanToken</text>
</a>
</g>
</g>
<!-- Node1&#45;&gt;Node5 -->
<g id="edge9_Node000001_Node000005" class="edge">
<title>Node1&#45;&gt;Node5</title>
<g id="a_edge9_Node000001_Node000005"><a xlink:title=" ">
<path fill="none" stroke="#63b8ff" d="M117.22,-75.52C138.22,-70.73 163.21,-65.03 184.99,-60.06"/>
<polygon fill="#63b8ff" stroke="#63b8ff" points="185.6,-63.51 194.57,-57.88 184.04,-56.69 185.6,-63.51"/>
</a>
</g>
</g>
<!-- Node6 -->
<g id="Node000006" class="node">
<title>Node6</title>
<g id="a_Node000006"><a xlink:href="$class_iterator_list.html#af5c370ccb8698e2a9fb0714782d57203" xlink:title=" ">
<polygon fill="white" stroke="#666666" points="282.5,-20 195.25,-20 195.25,0 282.5,0 282.5,-20"/>
<text text-anchor="middle" x="238.88" y="-6.5" font-family="Helvetica,sans-Serif" font-size="10.00">IteratorList::next</text>
</a>
</g>
</g>
<!-- Node1&#45;&gt;Node6 -->
<g id="edge10_Node000001_Node000006" class="edge">
<title>Node1&#45;&gt;Node6</title>
<g id="a_edge10_Node000001_Node000006"><a xlink:title=" ">
<path fill="none" stroke="#63b8ff" d="M87.88,-75.66C108.21,-63.34 143.94,-42.7 176.5,-29 180.6,-27.27 184.92,-25.62 189.28,-24.07"/>
<polygon fill="#63b8ff" stroke="#63b8ff" points="190.34,-27.4 198.7,-20.89 188.1,-20.77 190.34,-27.4"/>
</a>
</g>
</g>
</g>
</svg>
