<?xml version="1.0" encoding="UTF-8" standalone="no"?>
<!DOCTYPE svg PUBLIC "-//W3C//DTD SVG 1.1//EN"
 "http://www.w3.org/Graphics/SVG/1.1/DTD/svg11.dtd">
<!-- Generated by graphviz version 12.2.0 (20241103.1931)
 -->
<!-- Title: fsfml::setElementPos Pages: 1 -->
<svg width="391pt" height="85pt"
 viewBox="0.00 0.00 391.25 85.00" xmlns="http://www.w3.org/2000/svg" xmlns:xlink="http://www.w3.org/1999/xlink">
<g id="graph0" class="graph" transform="scale(1 1) rotate(0) translate(4 81)">
<title>fsfml::setElementPos</title>
<!-- Node1 -->
<g id="Node000001" class="node">
<title>Node1</title>
<g id="a_Node000001"><a xlink:title=" ">
<polygon fill="#999999" stroke="#666666" points="110.5,-58 0,-58 0,-38 110.5,-38 110.5,-58"/>
<text text-anchor="middle" x="55.25" y="-44.5" font-family="Helvetica,sans-Serif" font-size="10.00">fsfml::setElementPos</text>
</a>
</g>
</g>
<!-- Node2 -->
<g id="Node000002" class="node">
<title>Node2</title>
<g id="a_Node000002"><a xlink:href="$classfsfml.html#ac883cf5d542110aa347e2e4d2991c5f7" xlink:title=" ">
<polygon fill="white" stroke="#666666" points="251,-77 151,-77 151,-57 251,-57 251,-77"/>
<text text-anchor="middle" x="201" y="-63.5" font-family="Helvetica,sans-Serif" font-size="10.00">fsfml::setSpritePos</text>
</a>
</g>
</g>
<!-- Node1&#45;&gt;Node2 -->
<g id="edge5_Node000001_Node000002" class="edge">
<title>Node1&#45;&gt;Node2</title>
<g id="a_edge5_Node000001_Node000002"><a xlink:title=" ">
<path fill="none" stroke="#63b8ff" d="M110.6,-55.18C120.08,-56.44 130,-57.75 139.64,-59.02"/>
<polygon fill="#63b8ff" stroke="#63b8ff" points="138.9,-62.46 149.28,-60.3 139.82,-55.52 138.9,-62.46"/>
</a>
</g>
</g>
<!-- Node3 -->
<g id="Node000003" class="node">
<title>Node3</title>
<g id="a_Node000003"><a xlink:href="$classfsfml.html#aa9726b537036754c5927b584939e0e75" xlink:title=" ">
<polygon fill="white" stroke="#666666" points="255.5,-39 146.5,-39 146.5,-19 255.5,-19 255.5,-39"/>
<text text-anchor="middle" x="201" y="-25.5" font-family="Helvetica,sans-Serif" font-size="10.00">fsfml::updateElement</text>
</a>
</g>
</g>
<!-- Node1&#45;&gt;Node3 -->
<g id="edge6_Node000001_Node000003" class="edge">
<title>Node1&#45;&gt;Node3</title>
<g id="a_edge6_Node000001_Node000003"><a xlink:title=" ">
<path fill="none" stroke="#63b8ff" d="M110.6,-40.82C118.49,-39.77 126.68,-38.69 134.75,-37.62"/>
<polygon fill="#63b8ff" stroke="#63b8ff" points="135.1,-41.11 144.55,-36.33 134.18,-34.17 135.1,-41.11"/>
</a>
</g>
</g>
<!-- Node4 -->
<g id="Node000004" class="node">
<title>Node4</title>
<g id="a_Node000004"><a xlink:href="$struct_element.html#afb65b315f0c1ce49bcaa10aec825fc45" xlink:title=" ">
<polygon fill="white" stroke="#666666" points="383.25,-58 291.5,-58 291.5,-38 383.25,-38 383.25,-58"/>
<text text-anchor="middle" x="337.38" y="-44.5" font-family="Helvetica,sans-Serif" font-size="10.00">Element::setArea</text>
</a>
</g>
</g>
<!-- Node3&#45;&gt;Node4 -->
<g id="edge7_Node000003_Node000004" class="edge">
<title>Node3&#45;&gt;Node4</title>
<g id="a_edge7_Node000003_Node000004"><a xlink:title=" ">
<path fill="none" stroke="#63b8ff" d="M255.88,-36.62C263.73,-37.73 271.83,-38.87 279.73,-39.99"/>
<polygon fill="#63b8ff" stroke="#63b8ff" points="279.23,-43.45 289.62,-41.39 280.21,-36.52 279.23,-43.45"/>
</a>
</g>
</g>
<!-- Node5 -->
<g id="Node000005" class="node">
<title>Node5</title>
<g id="a_Node000005"><a xlink:href="$struct_element.html#a40f17d5f017c9c43f204fc5d92010485" xlink:title=" ">
<polygon fill="white" stroke="#666666" points="382.88,-20 291.88,-20 291.88,0 382.88,0 382.88,-20"/>
<text text-anchor="middle" x="337.38" y="-6.5" font-family="Helvetica,sans-Serif" font-size="10.00">Element::setSize</text>
</a>
</g>
</g>
<!-- Node3&#45;&gt;Node5 -->
<g id="edge8_Node000003_Node000005" class="edge">
<title>Node3&#45;&gt;Node5</title>
<g id="a_edge8_Node000003_Node000005"><a xlink:title=" ">
<path fill="none" stroke="#63b8ff" d="M255.88,-21.38C263.92,-20.24 272.23,-19.07 280.31,-17.93"/>
<polygon fill="#63b8ff" stroke="#63b8ff" points="280.63,-21.42 290.04,-16.55 279.65,-14.49 280.63,-21.42"/>
</a>
</g>
</g>
</g>
</svg>
