<?xml version="1.0" encoding="UTF-8" standalone="no"?>
<!DOCTYPE svg PUBLIC "-//W3C//DTD SVG 1.1//EN"
 "http://www.w3.org/Graphics/SVG/1.1/DTD/svg11.dtd">
<!-- Generated by graphviz version 12.2.0 (20241103.1931)
 -->
<!-- Title: FlowTag::linkTags Pages: 1 -->
<svg width="260pt" height="218pt"
 viewBox="0.00 0.00 259.75 218.00" xmlns="http://www.w3.org/2000/svg" xmlns:xlink="http://www.w3.org/1999/xlink">
<g id="graph0" class="graph" transform="scale(1 1) rotate(0) translate(4 214)">
<title>FlowTag::linkTags</title>
<!-- Node1 -->
<g id="Node000001" class="node">
<title>Node1</title>
<g id="a_Node000001"><a xlink:title=" ">
<polygon fill="#999999" stroke="#666666" points="251.75,-115 157,-115 157,-95 251.75,-95 251.75,-115"/>
<text text-anchor="middle" x="204.38" y="-101.5" font-family="Helvetica,sans-Serif" font-size="10.00">FlowTag::linkTags</text>
</a>
</g>
</g>
<!-- Node2 -->
<g id="Node000002" class="node">
<title>Node2</title>
<g id="a_Node000002"><a xlink:href="$class_do_loop_tag.html#a6a087dbd8aa276bddfde49026a50cb92" xlink:title=" ">
<polygon fill="white" stroke="#666666" points="121,-210 0,-210 0,-190 121,-190 121,-210"/>
<text text-anchor="middle" x="60.5" y="-196.5" font-family="Helvetica,sans-Serif" font-size="10.00">DoLoopTag::DoLoopTag</text>
</a>
</g>
</g>
<!-- Node1&#45;&gt;Node2 -->
<g id="edge7_Node000001_Node000002" class="edge">
<title>Node1&#45;&gt;Node2</title>
<g id="a_edge7_Node000001_Node000002"><a xlink:title=" ">
<path fill="none" stroke="#63b8ff" d="M187.27,-123.99C171.85,-141.09 147.11,-165.8 121,-181 115.28,-184.33 108.91,-187.15 102.52,-189.51"/>
<polygon fill="#63b8ff" stroke="#63b8ff" points="189.87,-126.34 193.84,-116.52 184.61,-121.72 189.87,-126.34"/>
</a>
</g>
</g>
<!-- Node3 -->
<g id="Node000003" class="node">
<title>Node3</title>
<g id="a_Node000003"><a xlink:href="$class_elif_tag.html#a309fa3d04fc29fa6930ad6c0b070f0b3" xlink:title=" ">
<polygon fill="white" stroke="#666666" points="101.5,-172 19.5,-172 19.5,-152 101.5,-152 101.5,-172"/>
<text text-anchor="middle" x="60.5" y="-158.5" font-family="Helvetica,sans-Serif" font-size="10.00">ElifTag::ElifTag</text>
</a>
</g>
</g>
<!-- Node1&#45;&gt;Node3 -->
<g id="edge8_Node000001_Node000003" class="edge">
<title>Node1&#45;&gt;Node3</title>
<g id="a_edge8_Node000001_Node000003"><a xlink:title=" ">
<path fill="none" stroke="#63b8ff" d="M172.71,-120.24C157.38,-127.58 138.41,-136.23 121,-143 113.22,-146.02 104.73,-148.95 96.67,-151.56"/>
<polygon fill="#63b8ff" stroke="#63b8ff" points="173.85,-123.57 181.33,-116.07 170.8,-117.27 173.85,-123.57"/>
</a>
</g>
</g>
<!-- Node4 -->
<g id="Node000004" class="node">
<title>Node4</title>
<g id="a_Node000004"><a xlink:href="$class_else_tag.html#af917a4eb4ed59693b5103dabb307a004" xlink:title=" ">
<polygon fill="white" stroke="#666666" points="106.75,-134 14.25,-134 14.25,-114 106.75,-114 106.75,-134"/>
<text text-anchor="middle" x="60.5" y="-120.5" font-family="Helvetica,sans-Serif" font-size="10.00">ElseTag::ElseTag</text>
</a>
</g>
</g>
<!-- Node1&#45;&gt;Node4 -->
<g id="edge9_Node000001_Node000004" class="edge">
<title>Node1&#45;&gt;Node4</title>
<g id="a_edge9_Node000001_Node000004"><a xlink:title=" ">
<path fill="none" stroke="#63b8ff" d="M145.42,-112.76C132.57,-114.48 119.12,-116.28 106.85,-117.93"/>
<polygon fill="#63b8ff" stroke="#63b8ff" points="145.58,-116.27 155.03,-111.47 144.65,-109.33 145.58,-116.27"/>
</a>
</g>
</g>
<!-- Node5 -->
<g id="Node000005" class="node">
<title>Node5</title>
<g id="a_Node000005"><a xlink:href="$class_if_tag.html#a485bb6060294db75d5a14d5e984918a8" xlink:title=" ">
<polygon fill="white" stroke="#666666" points="93.25,-96 27.75,-96 27.75,-76 93.25,-76 93.25,-96"/>
<text text-anchor="middle" x="60.5" y="-82.5" font-family="Helvetica,sans-Serif" font-size="10.00">IfTag::IfTag</text>
</a>
</g>
</g>
<!-- Node1&#45;&gt;Node5 -->
<g id="edge10_Node000001_Node000005" class="edge">
<title>Node1&#45;&gt;Node5</title>
<g id="a_edge10_Node000001_Node000005"><a xlink:title=" ">
<path fill="none" stroke="#63b8ff" d="M145.14,-97.2C127.49,-94.84 108.77,-92.33 93.52,-90.29"/>
<polygon fill="#63b8ff" stroke="#63b8ff" points="144.65,-100.67 155.03,-98.53 145.58,-93.73 144.65,-100.67"/>
</a>
</g>
</g>
<!-- Node6 -->
<g id="Node000006" class="node">
<title>Node6</title>
<g id="a_Node000006"><a xlink:href="$class_loop_tag.html#a878ccac1a66b1765229fc3537c73ab7d" xlink:title=" ">
<polygon fill="white" stroke="#666666" points="108.25,-58 12.75,-58 12.75,-38 108.25,-38 108.25,-58"/>
<text text-anchor="middle" x="60.5" y="-44.5" font-family="Helvetica,sans-Serif" font-size="10.00">LoopTag::LoopTag</text>
</a>
</g>
</g>
<!-- Node1&#45;&gt;Node6 -->
<g id="edge11_Node000001_Node000006" class="edge">
<title>Node1&#45;&gt;Node6</title>
<g id="a_edge11_Node000001_Node000006"><a xlink:title=" ">
<path fill="none" stroke="#63b8ff" d="M172.71,-89.76C157.38,-82.42 138.41,-73.77 121,-67 113.22,-63.98 104.73,-61.05 96.67,-58.44"/>
<polygon fill="#63b8ff" stroke="#63b8ff" points="170.8,-92.73 181.33,-93.93 173.85,-86.43 170.8,-92.73"/>
</a>
</g>
</g>
<!-- Node7 -->
<g id="Node000007" class="node">
<title>Node7</title>
<g id="a_Node000007"><a xlink:href="$class_main_tag.html#aca93f098bb94af3ab20b7ab1f67ef527" xlink:title=" ">
<polygon fill="white" stroke="#666666" points="108.25,-20 12.75,-20 12.75,0 108.25,0 108.25,-20"/>
<text text-anchor="middle" x="60.5" y="-6.5" font-family="Helvetica,sans-Serif" font-size="10.00">MainTag::MainTag</text>
</a>
</g>
</g>
<!-- Node1&#45;&gt;Node7 -->
<g id="edge12_Node000001_Node000007" class="edge">
<title>Node1&#45;&gt;Node7</title>
<g id="a_edge12_Node000001_Node000007"><a xlink:title=" ">
<path fill="none" stroke="#63b8ff" d="M187.27,-86.01C171.85,-68.91 147.11,-44.2 121,-29 115.28,-25.67 108.91,-22.85 102.52,-20.49"/>
<polygon fill="#63b8ff" stroke="#63b8ff" points="184.61,-88.28 193.84,-93.48 189.87,-83.66 184.61,-88.28"/>
</a>
</g>
</g>
</g>
</svg>
