<?xml version="1.0" encoding="UTF-8" standalone="no"?>
<!DOCTYPE svg PUBLIC "-//W3C//DTD SVG 1.1//EN"
 "http://www.w3.org/Graphics/SVG/1.1/DTD/svg11.dtd">
<!-- Generated by graphviz version 12.2.0 (20241103.1931)
 -->
<!-- Title: onPackage Pages: 1 -->
<svg width="734pt" height="66pt"
 viewBox="0.00 0.00 733.50 66.00" xmlns="http://www.w3.org/2000/svg" xmlns:xlink="http://www.w3.org/1999/xlink">
<g id="graph0" class="graph" transform="scale(1 1) rotate(0) translate(4 62)">
<title>onPackage</title>
<!-- Node1 -->
<g id="Node000001" class="node">
<title>Node1</title>
<g id="a_Node000001"><a xlink:title=" ">
<polygon fill="#999999" stroke="#666666" points="64.75,-39 0,-39 0,-19 64.75,-19 64.75,-39"/>
<text text-anchor="middle" x="32.38" y="-25.5" font-family="Helvetica,sans-Serif" font-size="10.00">onPackage</text>
</a>
</g>
</g>
<!-- Node2 -->
<g id="Node000002" class="node">
<title>Node2</title>
<g id="a_Node000002"><a xlink:href="$fadb_8cpp.html#a96a4fa7238d6acae66790dd58b1724c0" xlink:title=" ">
<polygon fill="white" stroke="#666666" points="173.75,-39 100.75,-39 100.75,-19 173.75,-19 173.75,-39"/>
<text text-anchor="middle" x="137.25" y="-25.5" font-family="Helvetica,sans-Serif" font-size="10.00">currentFocus</text>
</a>
</g>
</g>
<!-- Node1&#45;&gt;Node2 -->
<g id="edge8_Node000001_Node000002" class="edge">
<title>Node1&#45;&gt;Node2</title>
<g id="a_edge8_Node000001_Node000002"><a xlink:title=" ">
<path fill="none" stroke="#63b8ff" d="M65.08,-29C72.7,-29 81.01,-29 89.17,-29"/>
<polygon fill="#63b8ff" stroke="#63b8ff" points="89.01,-32.5 99.01,-29 89.01,-25.5 89.01,-32.5"/>
</a>
</g>
</g>
<!-- Node3 -->
<g id="Node000003" class="node">
<title>Node3</title>
<g id="a_Node000003"><a xlink:href="$fadb_8cpp.html#a0766d8b572678e0a830d45a4dcfb9d4d" xlink:title=" ">
<polygon fill="white" stroke="#666666" points="320.25,-39 209.75,-39 209.75,-19 320.25,-19 320.25,-39"/>
<text text-anchor="middle" x="265" y="-25.5" font-family="Helvetica,sans-Serif" font-size="10.00">runAdbLocalhostShell</text>
</a>
</g>
</g>
<!-- Node2&#45;&gt;Node3 -->
<g id="edge9_Node000002_Node000003" class="edge">
<title>Node2&#45;&gt;Node3</title>
<g id="a_edge9_Node000002_Node000003"><a xlink:title=" ">
<path fill="none" stroke="#63b8ff" d="M173.95,-29C181.54,-29 189.78,-29 198.09,-29"/>
<polygon fill="#63b8ff" stroke="#63b8ff" points="197.9,-32.5 207.9,-29 197.9,-25.5 197.9,-32.5"/>
</a>
</g>
</g>
<!-- Node4 -->
<g id="Node000004" class="node">
<title>Node4</title>
<g id="a_Node000004"><a xlink:href="$fadb_8cpp.html#ac6339b59ba8238f7483dece7f3fdf51b" xlink:title=" ">
<polygon fill="white" stroke="#666666" points="445,-39 356.25,-39 356.25,-19 445,-19 445,-39"/>
<text text-anchor="middle" x="400.62" y="-25.5" font-family="Helvetica,sans-Serif" font-size="10.00">runAdbLocalhost</text>
</a>
</g>
</g>
<!-- Node3&#45;&gt;Node4 -->
<g id="edge10_Node000003_Node000004" class="edge">
<title>Node3&#45;&gt;Node4</title>
<g id="a_edge10_Node000003_Node000004"><a xlink:title=" ">
<path fill="none" stroke="#63b8ff" d="M320.74,-29C328.58,-29 336.66,-29 344.51,-29"/>
<polygon fill="#63b8ff" stroke="#63b8ff" points="344.29,-32.5 354.29,-29 344.29,-25.5 344.29,-32.5"/>
</a>
</g>
</g>
<!-- Node5 -->
<g id="Node000005" class="node">
<title>Node5</title>
<g id="a_Node000005"><a xlink:href="$fadb_8cpp.html#a383ae5fedc9f597a03c74c729a2eb740" xlink:title=" ">
<polygon fill="white" stroke="#666666" points="527.75,-39 481,-39 481,-19 527.75,-19 527.75,-39"/>
<text text-anchor="middle" x="504.38" y="-25.5" font-family="Helvetica,sans-Serif" font-size="10.00">runAdb</text>
</a>
</g>
</g>
<!-- Node4&#45;&gt;Node5 -->
<g id="edge11_Node000004_Node000005" class="edge">
<title>Node4&#45;&gt;Node5</title>
<g id="a_edge11_Node000004_Node000005"><a xlink:title=" ">
<path fill="none" stroke="#63b8ff" d="M445.37,-29C453.36,-29 461.58,-29 469.24,-29"/>
<polygon fill="#63b8ff" stroke="#63b8ff" points="469.18,-32.5 479.18,-29 469.18,-25.5 469.18,-32.5"/>
</a>
</g>
</g>
<!-- Node6 -->
<g id="Node000006" class="node">
<title>Node6</title>
<g id="a_Node000006"><a xlink:href="$sys_commands_8cpp.html#a321eb7e335377aa7182bafc8a1605032" xlink:title=" ">
<polygon fill="white" stroke="#666666" points="630.75,-39 563.75,-39 563.75,-19 630.75,-19 630.75,-39"/>
<text text-anchor="middle" x="597.25" y="-25.5" font-family="Helvetica,sans-Serif" font-size="10.00">receivePipe</text>
</a>
</g>
</g>
<!-- Node5&#45;&gt;Node6 -->
<g id="edge12_Node000005_Node000006" class="edge">
<title>Node5&#45;&gt;Node6</title>
<g id="a_edge12_Node000005_Node000006"><a xlink:title=" ">
<path fill="none" stroke="#63b8ff" d="M527.84,-29C535.21,-29 543.68,-29 552.08,-29"/>
<polygon fill="#63b8ff" stroke="#63b8ff" points="551.89,-32.5 561.89,-29 551.89,-25.5 551.89,-32.5"/>
</a>
</g>
</g>
<!-- Node7 -->
<g id="Node000007" class="node">
<title>Node7</title>
<g id="a_Node000007"><a xlink:href="$sys_commands_8cpp.html#a4771c79171a937893508dabadadbe099" xlink:title=" ">
<polygon fill="white" stroke="#666666" points="725.5,-58 666.75,-58 666.75,-38 725.5,-38 725.5,-58"/>
<text text-anchor="middle" x="696.12" y="-44.5" font-family="Helvetica,sans-Serif" font-size="10.00">closePipe</text>
</a>
</g>
</g>
<!-- Node6&#45;&gt;Node7 -->
<g id="edge13_Node000006_Node000007" class="edge">
<title>Node6&#45;&gt;Node7</title>
<g id="a_edge13_Node000006_Node000007"><a xlink:title=" ">
<path fill="none" stroke="#63b8ff" d="M631.05,-35.43C638.81,-36.95 647.17,-38.59 655.21,-40.17"/>
<polygon fill="#63b8ff" stroke="#63b8ff" points="654.28,-43.56 664.77,-42.05 655.63,-36.69 654.28,-43.56"/>
</a>
</g>
</g>
<!-- Node8 -->
<g id="Node000008" class="node">
<title>Node8</title>
<g id="a_Node000008"><a xlink:href="$sys_commands_8cpp.html#a3499ce0cd7e4ed28b3c5461a4d3aec84" xlink:title=" ">
<polygon fill="white" stroke="#666666" points="724.38,-20 667.88,-20 667.88,0 724.38,0 724.38,-20"/>
<text text-anchor="middle" x="696.12" y="-6.5" font-family="Helvetica,sans-Serif" font-size="10.00">openPipe</text>
</a>
</g>
</g>
<!-- Node6&#45;&gt;Node8 -->
<g id="edge14_Node000006_Node000008" class="edge">
<title>Node6&#45;&gt;Node8</title>
<g id="a_edge14_Node000006_Node000008"><a xlink:title=" ">
<path fill="none" stroke="#63b8ff" d="M631.05,-22.57C639.2,-20.97 648.01,-19.24 656.42,-17.59"/>
<polygon fill="#63b8ff" stroke="#63b8ff" points="656.9,-21.06 666.04,-15.7 655.55,-14.19 656.9,-21.06"/>
</a>
</g>
</g>
</g>
</svg>
