<?xml version="1.0" encoding="UTF-8" standalone="no"?>
<!DOCTYPE svg PUBLIC "-//W3C//DTD SVG 1.1//EN"
 "http://www.w3.org/Graphics/SVG/1.1/DTD/svg11.dtd">
<!-- Generated by graphviz version 12.2.0 (20241103.1931)
 -->
<!-- Title: getPid Pages: 1 -->
<svg width="177pt" height="66pt"
 viewBox="0.00 0.00 176.50 66.00" xmlns="http://www.w3.org/2000/svg" xmlns:xlink="http://www.w3.org/1999/xlink">
<g id="graph0" class="graph" transform="scale(1 1) rotate(0) translate(4 62)">
<title>getPid</title>
<!-- Node1 -->
<g id="Node000001" class="node">
<title>Node1</title>
<g id="a_Node000001"><a xlink:title=" ">
<polygon fill="#999999" stroke="#666666" points="168.5,-39 124.75,-39 124.75,-19 168.5,-19 168.5,-39"/>
<text text-anchor="middle" x="146.62" y="-25.5" font-family="Helvetica,sans-Serif" font-size="10.00">getPid</text>
</a>
</g>
</g>
<!-- Node2 -->
<g id="Node000002" class="node">
<title>Node2</title>
<g id="a_Node000002"><a xlink:href="$fadb_8cpp.html#a98a0b7315db6a8a309c0260370f681d9" xlink:title=" ">
<polygon fill="white" stroke="#666666" points="80.88,-58 7.88,-58 7.88,-38 80.88,-38 80.88,-58"/>
<text text-anchor="middle" x="44.38" y="-44.5" font-family="Helvetica,sans-Serif" font-size="10.00">getPidLogcat</text>
</a>
</g>
</g>
<!-- Node1&#45;&gt;Node2 -->
<g id="edge3_Node000001_Node000002" class="edge">
<title>Node1&#45;&gt;Node2</title>
<g id="a_edge3_Node000001_Node000002"><a xlink:title=" ">
<path fill="none" stroke="#63b8ff" d="M113.38,-35.11C103.12,-37.06 91.7,-39.22 81.2,-41.21"/>
<polygon fill="#63b8ff" stroke="#63b8ff" points="113.7,-38.61 122.88,-33.31 112.4,-31.73 113.7,-38.61"/>
</a>
</g>
</g>
<!-- Node3 -->
<g id="Node000003" class="node">
<title>Node3</title>
<g id="a_Node000003"><a xlink:href="$fadb_8cpp.html#a5b99e0ed81e1b5c5fa316b057cfeb04d" xlink:title=" ">
<polygon fill="white" stroke="#666666" points="88.75,-20 0,-20 0,0 88.75,0 88.75,-20"/>
<text text-anchor="middle" x="44.38" y="-6.5" font-family="Helvetica,sans-Serif" font-size="10.00">packageRunning</text>
</a>
</g>
</g>
<!-- Node1&#45;&gt;Node3 -->
<g id="edge4_Node000001_Node000003" class="edge">
<title>Node1&#45;&gt;Node3</title>
<g id="a_edge4_Node000001_Node000003"><a xlink:title=" ">
<path fill="none" stroke="#63b8ff" d="M113.21,-22.86C105.46,-21.39 97.05,-19.79 88.89,-18.25"/>
<polygon fill="#63b8ff" stroke="#63b8ff" points="112.4,-26.27 122.88,-24.69 113.7,-19.39 112.4,-26.27"/>
</a>
</g>
</g>
</g>
</svg>
