<?xml version="1.0" encoding="UTF-8" standalone="no"?>
<!DOCTYPE svg PUBLIC "-//W3C//DTD SVG 1.1//EN"
 "http://www.w3.org/Graphics/SVG/1.1/DTD/svg11.dtd">
<!-- Generated by graphviz version 12.2.0 (20241103.1931)
 -->
<!-- Title: cvmtfCompareMultipleTemplate Pages: 1 -->
<svg width="574pt" height="217pt"
 viewBox="0.00 0.00 573.75 217.00" xmlns="http://www.w3.org/2000/svg" xmlns:xlink="http://www.w3.org/1999/xlink">
<g id="graph0" class="graph" transform="scale(1 1) rotate(0) translate(4 213)">
<title>cvmtfCompareMultipleTemplate</title>
<!-- Node1 -->
<g id="Node000001" class="node">
<title>Node1</title>
<g id="a_Node000001"><a xlink:title=" ">
<polygon fill="#999999" stroke="#666666" points="154,-115 0,-115 0,-95 154,-95 154,-115"/>
<text text-anchor="middle" x="77" y="-101.5" font-family="Helvetica,sans-Serif" font-size="10.00">cvmtfCompareMultipleTemplate</text>
</a>
</g>
</g>
<!-- Node2 -->
<g id="Node000002" class="node">
<title>Node2</title>
<g id="a_Node000002"><a xlink:href="$fopencv_8cpp.html#a95c56af5716e2b2d1b4df612796cc229" xlink:title=" ">
<polygon fill="white" stroke="#666666" points="304.25,-134 190,-134 190,-114 304.25,-114 304.25,-134"/>
<text text-anchor="middle" x="247.12" y="-120.5" font-family="Helvetica,sans-Serif" font-size="10.00">cvmtfMultipleTemplate</text>
</a>
</g>
</g>
<!-- Node1&#45;&gt;Node2 -->
<g id="edge15_Node000001_Node000002" class="edge">
<title>Node1&#45;&gt;Node2</title>
<g id="a_edge15_Node000001_Node000002"><a xlink:title=" ">
<path fill="none" stroke="#63b8ff" d="M154.19,-113.61C162.34,-114.53 170.59,-115.46 178.63,-116.37"/>
<polygon fill="#63b8ff" stroke="#63b8ff" points="177.99,-119.82 188.32,-117.47 178.77,-112.87 177.99,-119.82"/>
</a>
</g>
</g>
<!-- Node7 -->
<g id="Node000007" class="node">
<title>Node7</title>
<g id="a_Node000007"><a xlink:href="$fopencv_8cpp.html#a6abdcaeee06b3da6f210daf0162bcd01" xlink:title=" ">
<polygon fill="white" stroke="#666666" points="558.62,-191 499.88,-191 499.88,-171 558.62,-171 558.62,-191"/>
<text text-anchor="middle" x="529.25" y="-177.5" font-family="Helvetica,sans-Serif" font-size="10.00">intersects</text>
</a>
</g>
</g>
<!-- Node1&#45;&gt;Node7 -->
<g id="edge27_Node000001_Node000007" class="edge">
<title>Node1&#45;&gt;Node7</title>
<g id="a_edge27_Node000001_Node000007"><a xlink:title=" ">
<path fill="none" stroke="#63b8ff" d="M106.81,-115.48C129.31,-123.49 161.45,-134.56 190,-143 256.06,-162.53 271.9,-172.49 340.25,-181 391.03,-187.32 450.12,-185.9 488.3,-183.85"/>
<polygon fill="#63b8ff" stroke="#63b8ff" points="488.16,-187.36 497.94,-183.29 487.75,-180.38 488.16,-187.36"/>
</a>
</g>
</g>
<!-- Node8 -->
<g id="Node000008" class="node">
<title>Node8</title>
<g id="a_Node000008"><a xlink:href="$fopencv_8cpp.html#a69713584f69a121e4ed91918a64448a0" xlink:title=" ">
<polygon fill="white" stroke="#666666" points="287.38,-96 206.88,-96 206.88,-76 287.38,-76 287.38,-96"/>
<text text-anchor="middle" x="247.12" y="-82.5" font-family="Helvetica,sans-Serif" font-size="10.00">cvmtfTemplate</text>
</a>
</g>
</g>
<!-- Node1&#45;&gt;Node8 -->
<g id="edge22_Node000001_Node000008" class="edge">
<title>Node1&#45;&gt;Node8</title>
<g id="a_edge22_Node000001_Node000008"><a xlink:title=" ">
<path fill="none" stroke="#63b8ff" d="M154.19,-96.39C168.17,-94.81 182.44,-93.2 195.44,-91.73"/>
<polygon fill="#63b8ff" stroke="#63b8ff" points="195.45,-95.25 204.99,-90.65 194.66,-88.29 195.45,-95.25"/>
</a>
</g>
</g>
<!-- Node9 -->
<g id="Node000009" class="node">
<title>Node9</title>
<g id="a_Node000009"><a xlink:href="$fopencv_8cpp.html#a1ed1ff1a9df2ab889e1423cb11a58c06" xlink:title=" ">
<polygon fill="white" stroke="#666666" points="439.88,-20 357.12,-20 357.12,0 439.88,0 439.88,-20"/>
<text text-anchor="middle" x="398.5" y="-6.5" font-family="Helvetica,sans-Serif" font-size="10.00">messageFound</text>
</a>
</g>
</g>
<!-- Node1&#45;&gt;Node9 -->
<g id="edge28_Node000001_Node000009" class="edge">
<title>Node1&#45;&gt;Node9</title>
<g id="a_edge28_Node000001_Node000009"><a xlink:title=" ">
<path fill="none" stroke="#63b8ff" d="M107.32,-94.52C129.83,-86.61 161.73,-75.67 190,-67 242.67,-50.84 303.52,-34.39 345.65,-23.34"/>
<polygon fill="#63b8ff" stroke="#63b8ff" points="346.49,-26.73 355.28,-20.82 344.72,-19.96 346.49,-26.73"/>
</a>
</g>
</g>
<!-- Node3 -->
<g id="Node000003" class="node">
<title>Node3</title>
<g id="a_Node000003"><a xlink:href="$fopencv_8cpp.html#af6fc77188d314c0d5a58888452f9b313" xlink:title=" ">
<polygon fill="white" stroke="#666666" points="432.38,-96 364.62,-96 364.62,-76 432.38,-76 432.38,-96"/>
<text text-anchor="middle" x="398.5" y="-82.5" font-family="Helvetica,sans-Serif" font-size="10.00">extractZone</text>
</a>
</g>
</g>
<!-- Node2&#45;&gt;Node3 -->
<g id="edge16_Node000002_Node000003" class="edge">
<title>Node2&#45;&gt;Node3</title>
<g id="a_edge16_Node000002_Node000003"><a xlink:title=" ">
<path fill="none" stroke="#63b8ff" d="M289.34,-113.52C309.21,-108.46 333.07,-102.39 353.32,-97.24"/>
<polygon fill="#63b8ff" stroke="#63b8ff" points="354.16,-100.64 362.98,-94.78 352.43,-93.85 354.16,-100.64"/>
</a>
</g>
</g>
<!-- Node4 -->
<g id="Node000004" class="node">
<title>Node4</title>
<g id="a_Node000004"><a xlink:href="$struct_zone.html#a5301e7fcf185a5a79c1bf7d7930f4b8a" xlink:title=" ">
<polygon fill="white" stroke="#666666" points="432.75,-134 364.25,-134 364.25,-114 432.75,-114 432.75,-134"/>
<text text-anchor="middle" x="398.5" y="-120.5" font-family="Helvetica,sans-Serif" font-size="10.00">Zone::isNull</text>
</a>
</g>
</g>
<!-- Node2&#45;&gt;Node4 -->
<g id="edge17_Node000002_Node000004" class="edge">
<title>Node2&#45;&gt;Node4</title>
<g id="a_edge17_Node000002_Node000004"><a xlink:title=" ">
<path fill="none" stroke="#63b8ff" d="M304.6,-124C320.53,-124 337.64,-124 352.78,-124"/>
<polygon fill="#63b8ff" stroke="#63b8ff" points="352.41,-127.5 362.41,-124 352.41,-120.5 352.41,-127.5"/>
</a>
</g>
</g>
<!-- Node6 -->
<g id="Node000006" class="node">
<title>Node6</title>
<g id="a_Node000006"><a xlink:href="$fopencv_8cpp.html#a7521a083566181475d36ee14aad60f1d" xlink:title=" ">
<polygon fill="white" stroke="#666666" points="456.75,-172 340.25,-172 340.25,-152 456.75,-152 456.75,-172"/>
<text text-anchor="middle" x="398.5" y="-158.5" font-family="Helvetica,sans-Serif" font-size="10.00">multipleMatchTemplate</text>
</a>
</g>
</g>
<!-- Node2&#45;&gt;Node6 -->
<g id="edge19_Node000002_Node000006" class="edge">
<title>Node2&#45;&gt;Node6</title>
<g id="a_edge19_Node000002_Node000006"><a xlink:title=" ">
<path fill="none" stroke="#63b8ff" d="M289.34,-134.48C306.64,-138.89 326.97,-144.06 345.31,-148.72"/>
<polygon fill="#63b8ff" stroke="#63b8ff" points="344.4,-152.1 354.95,-151.18 346.13,-145.32 344.4,-152.1"/>
</a>
</g>
</g>
<!-- Node5 -->
<g id="Node000005" class="node">
<title>Node5</title>
<g id="a_Node000005"><a xlink:href="$struct_coord.html#a34c573cd6230e5a532f12ae97e7395e2" xlink:title=" ">
<polygon fill="white" stroke="#666666" points="565.75,-134 492.75,-134 492.75,-114 565.75,-114 565.75,-134"/>
<text text-anchor="middle" x="529.25" y="-120.5" font-family="Helvetica,sans-Serif" font-size="10.00">Coord::isNull</text>
</a>
</g>
</g>
<!-- Node4&#45;&gt;Node5 -->
<g id="edge18_Node000004_Node000005" class="edge">
<title>Node4&#45;&gt;Node5</title>
<g id="a_edge18_Node000004_Node000005"><a xlink:title=" ">
<path fill="none" stroke="#63b8ff" d="M432.99,-124C447.74,-124 465.32,-124 481.35,-124"/>
<polygon fill="#63b8ff" stroke="#63b8ff" points="481.16,-127.5 491.16,-124 481.16,-120.5 481.16,-127.5"/>
</a>
</g>
</g>
<!-- Node6&#45;&gt;Node7 -->
<g id="edge20_Node000006_Node000007" class="edge">
<title>Node6&#45;&gt;Node7</title>
<g id="a_edge20_Node000006_Node000007"><a xlink:title=" ">
<path fill="none" stroke="#63b8ff" d="M457.1,-170.5C467.68,-172.06 478.52,-173.66 488.44,-175.12"/>
<polygon fill="#63b8ff" stroke="#63b8ff" points="487.69,-178.55 498.09,-176.55 488.71,-171.63 487.69,-178.55"/>
</a>
</g>
</g>
<!-- Node7&#45;&gt;Node7 -->
<g id="edge21_Node000007_Node000007" class="edge">
<title>Node7&#45;&gt;Node7</title>
<g id="a_edge21_Node000007_Node000007"><a xlink:title=" ">
<path fill="none" stroke="#63b8ff" d="M508.48,-191.34C499.6,-199.98 506.52,-209 529.25,-209 541.68,-209 549.38,-206.3 552.36,-202.44"/>
<polygon fill="#63b8ff" stroke="#63b8ff" points="555.82,-201.89 550.34,-192.82 548.97,-203.33 555.82,-201.89"/>
</a>
</g>
</g>
<!-- Node8&#45;&gt;Node3 -->
<g id="edge23_Node000008_Node000003" class="edge">
<title>Node8&#45;&gt;Node3</title>
<g id="a_edge23_Node000008_Node000003"><a xlink:title=" ">
<path fill="none" stroke="#63b8ff" d="M287.76,-86C307.8,-86 332.18,-86 352.87,-86"/>
<polygon fill="#63b8ff" stroke="#63b8ff" points="352.74,-89.5 362.74,-86 352.74,-82.5 352.74,-89.5"/>
</a>
</g>
</g>
<!-- Node8&#45;&gt;Node4 -->
<g id="edge24_Node000008_Node000004" class="edge">
<title>Node8&#45;&gt;Node4</title>
<g id="a_edge24_Node000008_Node000004"><a xlink:title=" ">
<path fill="none" stroke="#63b8ff" d="M287.76,-96.08C307.74,-101.17 332.06,-107.35 352.71,-112.61"/>
<polygon fill="#63b8ff" stroke="#63b8ff" points="351.74,-115.97 362.29,-115.04 353.47,-109.19 351.74,-115.97"/>
</a>
</g>
</g>
<!-- Node8&#45;&gt;Node9 -->
<g id="edge25_Node000008_Node000009" class="edge">
<title>Node8&#45;&gt;Node9</title>
<g id="a_edge25_Node000008_Node000009"><a xlink:title=" ">
<path fill="none" stroke="#63b8ff" d="M262.52,-75.61C280.16,-63.23 311.28,-42.54 340.25,-29 343.72,-27.38 347.37,-25.83 351.08,-24.37"/>
<polygon fill="#63b8ff" stroke="#63b8ff" points="351.98,-27.77 360.15,-21.02 349.56,-21.2 351.98,-27.77"/>
</a>
</g>
</g>
<!-- Node10 -->
<g id="Node000010" class="node">
<title>Node10</title>
<g id="a_Node000010"><a xlink:href="$fopencv_8cpp.html#ae51fd1f3ed39bd8c9b8da4a313d5aeb3" xlink:title=" ">
<polygon fill="white" stroke="#666666" points="447.75,-58 349.25,-58 349.25,-38 447.75,-38 447.75,-58"/>
<text text-anchor="middle" x="398.5" y="-44.5" font-family="Helvetica,sans-Serif" font-size="10.00">oneMatchTemplate</text>
</a>
</g>
</g>
<!-- Node8&#45;&gt;Node10 -->
<g id="edge26_Node000008_Node000010" class="edge">
<title>Node8&#45;&gt;Node10</title>
<g id="a_edge26_Node000008_Node000010"><a xlink:title=" ">
<path fill="none" stroke="#63b8ff" d="M287.76,-75.92C305.38,-71.43 326.37,-66.1 345.24,-61.29"/>
<polygon fill="#63b8ff" stroke="#63b8ff" points="346.08,-64.69 354.91,-58.84 344.35,-57.91 346.08,-64.69"/>
</a>
</g>
</g>
</g>
</svg>
