<?xml version="1.0" encoding="UTF-8" standalone="no"?>
<!DOCTYPE svg PUBLIC "-//W3C//DTD SVG 1.1//EN"
 "http://www.w3.org/Graphics/SVG/1.1/DTD/svg11.dtd">
<!-- Generated by graphviz version 12.2.0 (20241103.1931)
 -->
<!-- Title: src/game.h Pages: 1 -->
<svg width="201pt" height="140pt"
 viewBox="0.00 0.00 201.25 140.00" xmlns="http://www.w3.org/2000/svg" xmlns:xlink="http://www.w3.org/1999/xlink">
<g id="graph0" class="graph" transform="scale(1 1) rotate(0) translate(4 136)">
<title>src/game.h</title>
<!-- Node1 -->
<g id="Node000001" class="node">
<title>Node1</title>
<g id="a_Node000001"><a xlink:title=" ">
<polygon fill="#999999" stroke="#666666" points="136,-132 71.25,-132 71.25,-112 136,-112 136,-132"/>
<text text-anchor="middle" x="103.62" y="-118.5" font-family="Helvetica,sans-Serif" font-size="10.00">src/game.h</text>
</a>
</g>
</g>
<!-- Node2 -->
<g id="Node000002" class="node">
<title>Node2</title>
<g id="a_Node000002"><a xlink:href="$_w_x_manager_8h.html" xlink:title=" ">
<polygon fill="white" stroke="#666666" points="100,-76 5.25,-76 5.25,-56 100,-56 100,-76"/>
<text text-anchor="middle" x="52.62" y="-62.5" font-family="Helvetica,sans-Serif" font-size="10.00">src/WXManager.h</text>
</a>
</g>
</g>
<!-- Node1&#45;&gt;Node2 -->
<g id="edge4_Node000001_Node000002" class="edge">
<title>Node1&#45;&gt;Node2</title>
<g id="a_edge4_Node000001_Node000002"><a xlink:title=" ">
<path fill="none" stroke="#63b8ff" d="M86.89,-103.29C78.39,-94.28 68.4,-83.7 61.41,-76.3"/>
<polygon fill="#63b8ff" stroke="#63b8ff" points="84.29,-105.63 93.7,-110.49 89.38,-100.82 84.29,-105.63"/>
</a>
</g>
</g>
<!-- Node4 -->
<g id="Node000004" class="node">
<title>Node4</title>
<g id="a_Node000004"><a xlink:href="$game_8cpp.html" xlink:title=" ">
<polygon fill="white" stroke="#666666" points="193.25,-76 118,-76 118,-56 193.25,-56 193.25,-76"/>
<text text-anchor="middle" x="155.62" y="-62.5" font-family="Helvetica,sans-Serif" font-size="10.00">src/game.cpp</text>
</a>
</g>
</g>
<!-- Node1&#45;&gt;Node4 -->
<g id="edge6_Node000001_Node000004" class="edge">
<title>Node1&#45;&gt;Node4</title>
<g id="a_edge6_Node000001_Node000004"><a xlink:title=" ">
<path fill="none" stroke="#63b8ff" d="M120.41,-103.57C129.14,-94.5 139.47,-83.78 146.67,-76.3"/>
<polygon fill="#63b8ff" stroke="#63b8ff" points="118.15,-100.87 113.73,-110.5 123.19,-105.73 118.15,-100.87"/>
</a>
</g>
</g>
<!-- Node3 -->
<g id="Node000003" class="node">
<title>Node3</title>
<g id="a_Node000003"><a xlink:href="$_w_x_manager_8cpp.html" xlink:title=" ">
<polygon fill="white" stroke="#666666" points="105.25,-20 0,-20 0,0 105.25,0 105.25,-20"/>
<text text-anchor="middle" x="52.62" y="-6.5" font-family="Helvetica,sans-Serif" font-size="10.00">src/WXManager.cpp</text>
</a>
</g>
</g>
<!-- Node2&#45;&gt;Node3 -->
<g id="edge5_Node000002_Node000003" class="edge">
<title>Node2&#45;&gt;Node3</title>
<g id="a_edge5_Node000002_Node000003"><a xlink:title=" ">
<path fill="none" stroke="#63b8ff" d="M52.62,-44.13C52.62,-35.9 52.62,-26.85 52.62,-20.3"/>
<polygon fill="#63b8ff" stroke="#63b8ff" points="49.13,-44.08 52.63,-54.08 56.13,-44.08 49.13,-44.08"/>
</a>
</g>
</g>
</g>
</svg>
