<?xml version="1.0" encoding="UTF-8" standalone="no"?>
<!DOCTYPE svg PUBLIC "-//W3C//DTD SVG 1.1//EN"
 "http://www.w3.org/Graphics/SVG/1.1/DTD/svg11.dtd">
<!-- Generated by graphviz version 12.2.0 (20241103.1931)
 -->
<!-- Title: AllEmulators Pages: 1 -->
<svg width="574pt" height="1700pt"
 viewBox="0.00 0.00 574.38 1700.00" xmlns="http://www.w3.org/2000/svg" xmlns:xlink="http://www.w3.org/1999/xlink">
<g id="graph0" class="graph" transform="scale(1 1) rotate(0) translate(4 1696)">
<title>AllEmulators</title>
<!-- Node1 -->
<g id="Node000001" class="node">
<title>Node1</title>
<g id="a_Node000001"><a xlink:title=" ">
<polygon fill="#999999" stroke="none" points="273.62,-352 127.38,-352 127.38,0 273.62,0 273.62,-352"/>
<text text-anchor="start" x="172.75" y="-338.5" font-family="Helvetica,sans-Serif" font-size="10.00">AllEmulators</text>
<text text-anchor="start" x="131.38" y="-322.5" font-family="Helvetica,sans-Serif" font-size="10.00">+</text>
<text text-anchor="start" x="141.38" y="-322.5" font-family="Helvetica,sans-Serif" font-size="10.00">std::vector&lt; Instance</text>
<text text-anchor="start" x="141.38" y="-310.5" font-family="Helvetica,sans-Serif" font-size="10.00"> * &gt; LdPlayerInstances</text>
<text text-anchor="start" x="131.38" y="-294.5" font-family="Helvetica,sans-Serif" font-size="10.00">+</text>
<text text-anchor="start" x="141.38" y="-294.5" font-family="Helvetica,sans-Serif" font-size="10.00">std::vector&lt; Instance</text>
<text text-anchor="start" x="141.38" y="-282.5" font-family="Helvetica,sans-Serif" font-size="10.00"> * &gt; BluestackInstances</text>
<text text-anchor="start" x="131.38" y="-266.5" font-family="Helvetica,sans-Serif" font-size="10.00">+</text>
<text text-anchor="start" x="141.38" y="-266.5" font-family="Helvetica,sans-Serif" font-size="10.00">std::vector&lt; std::pair</text>
<text text-anchor="start" x="141.38" y="-254.5" font-family="Helvetica,sans-Serif" font-size="10.00">&lt; int, Instance * &gt; &gt;</text>
<text text-anchor="start" x="141.38" y="-242.5" font-family="Helvetica,sans-Serif" font-size="10.00"> allInstances</text>
<text text-anchor="start" x="131.38" y="-226.5" font-family="Helvetica,sans-Serif" font-size="10.00">+</text>
<text text-anchor="start" x="141.38" y="-226.5" font-family="Helvetica,sans-Serif" font-size="10.00">AllEmulators()</text>
<text text-anchor="start" x="131.38" y="-210.5" font-family="Helvetica,sans-Serif" font-size="10.00">+</text>
<text text-anchor="start" x="141.38" y="-210.5" font-family="Helvetica,sans-Serif" font-size="10.00">AllEmulators(const</text>
<text text-anchor="start" x="141.38" y="-198.5" font-family="Helvetica,sans-Serif" font-size="10.00"> std::string gamePackage,</text>
<text text-anchor="start" x="141.38" y="-186.5" font-family="Helvetica,sans-Serif" font-size="10.00"> int dimX, int dimY, int dpi)</text>
<text text-anchor="start" x="131.38" y="-170.5" font-family="Helvetica,sans-Serif" font-size="10.00">+</text>
<text text-anchor="start" x="141.38" y="-170.5" font-family="Helvetica,sans-Serif" font-size="10.00">void setAllInstances()</text>
<text text-anchor="start" x="131.38" y="-154.5" font-family="Helvetica,sans-Serif" font-size="10.00">+</text>
<text text-anchor="start" x="141.38" y="-154.5" font-family="Helvetica,sans-Serif" font-size="10.00">void fillBluestacksInstances()</text>
<text text-anchor="start" x="131.38" y="-138.5" font-family="Helvetica,sans-Serif" font-size="10.00">+</text>
<text text-anchor="start" x="141.38" y="-138.5" font-family="Helvetica,sans-Serif" font-size="10.00">void fillLdPlayerInstances()</text>
<text text-anchor="start" x="131.38" y="-122.5" font-family="Helvetica,sans-Serif" font-size="10.00">+</text>
<text text-anchor="start" x="141.38" y="-122.5" font-family="Helvetica,sans-Serif" font-size="10.00">void fillAllInstances()</text>
<text text-anchor="start" x="131.38" y="-106.5" font-family="Helvetica,sans-Serif" font-size="10.00">+</text>
<text text-anchor="start" x="141.38" y="-106.5" font-family="Helvetica,sans-Serif" font-size="10.00">void showAllInstances()</text>
<text text-anchor="start" x="131.38" y="-90.5" font-family="Helvetica,sans-Serif" font-size="10.00">+</text>
<text text-anchor="start" x="141.38" y="-90.5" font-family="Helvetica,sans-Serif" font-size="10.00">void showInstance(int</text>
<text text-anchor="start" x="141.38" y="-78.5" font-family="Helvetica,sans-Serif" font-size="10.00"> index)</text>
<text text-anchor="start" x="131.38" y="-62.5" font-family="Helvetica,sans-Serif" font-size="10.00">+</text>
<text text-anchor="start" x="141.38" y="-62.5" font-family="Helvetica,sans-Serif" font-size="10.00">void showInstance(Instance</text>
<text text-anchor="start" x="141.38" y="-50.5" font-family="Helvetica,sans-Serif" font-size="10.00"> *inst)</text>
<text text-anchor="start" x="131.38" y="-34.5" font-family="Helvetica,sans-Serif" font-size="10.00">+</text>
<text text-anchor="start" x="141.38" y="-34.5" font-family="Helvetica,sans-Serif" font-size="10.00">Instance * getInstance</text>
<text text-anchor="start" x="141.38" y="-22.5" font-family="Helvetica,sans-Serif" font-size="10.00">(int index)</text>
<text text-anchor="start" x="141.38" y="-6.5" font-family="Helvetica,sans-Serif" font-size="10.00">and 16 more...</text>
<polygon fill="#666666" stroke="#666666" points="127.38,-334 127.38,-334 273.62,-334 273.62,-334 127.38,-334"/>
<polygon fill="#666666" stroke="#666666" points="127.38,-238 127.38,-238 139.38,-238 139.38,-238 127.38,-238"/>
<polygon fill="#666666" stroke="#666666" points="139.38,-238 139.38,-238 273.62,-238 273.62,-238 139.38,-238"/>
<polygon fill="none" stroke="#666666" points="127.38,0 127.38,-352 273.62,-352 273.62,0 127.38,0"/>
</a>
</g>
</g>
<!-- Node2 -->
<g id="Node000002" class="node">
<title>Node2</title>
<g id="a_Node000002"><a xlink:href="$class_instance.html" xlink:title=" ">
<polygon fill="white" stroke="none" points="147,-1692 0,-1692 0,-1336 147,-1336 147,-1692"/>
<text text-anchor="start" x="54.75" y="-1678.5" font-family="Helvetica,sans-Serif" font-size="10.00">Instance</text>
<text text-anchor="start" x="4" y="-1662.5" font-family="Helvetica,sans-Serif" font-size="10.00">+</text>
<text text-anchor="start" x="14" y="-1662.5" font-family="Helvetica,sans-Serif" font-size="10.00">std::string instanceName</text>
<text text-anchor="start" x="4" y="-1646.5" font-family="Helvetica,sans-Serif" font-size="10.00">+</text>
<text text-anchor="start" x="14" y="-1646.5" font-family="Helvetica,sans-Serif" font-size="10.00">std::string instanceFolder</text>
<text text-anchor="start" x="4" y="-1630.5" font-family="Helvetica,sans-Serif" font-size="10.00">+</text>
<text text-anchor="start" x="14" y="-1630.5" font-family="Helvetica,sans-Serif" font-size="10.00">std::string adbKey</text>
<text text-anchor="start" x="4" y="-1614.5" font-family="Helvetica,sans-Serif" font-size="10.00">+</text>
<text text-anchor="start" x="14" y="-1614.5" font-family="Helvetica,sans-Serif" font-size="10.00">std::string instanceId</text>
<text text-anchor="start" x="4" y="-1598.5" font-family="Helvetica,sans-Serif" font-size="10.00">+</text>
<text text-anchor="start" x="14" y="-1598.5" font-family="Helvetica,sans-Serif" font-size="10.00">EmulatorType myType</text>
<text text-anchor="start" x="4" y="-1582.5" font-family="Helvetica,sans-Serif" font-size="10.00">+</text>
<text text-anchor="start" x="14" y="-1582.5" font-family="Helvetica,sans-Serif" font-size="10.00">bool launch</text>
<text text-anchor="start" x="4" y="-1566.5" font-family="Helvetica,sans-Serif" font-size="10.00">+</text>
<text text-anchor="start" x="14" y="-1566.5" font-family="Helvetica,sans-Serif" font-size="10.00">int dpi</text>
<text text-anchor="start" x="4" y="-1550.5" font-family="Helvetica,sans-Serif" font-size="10.00">+</text>
<text text-anchor="start" x="14" y="-1550.5" font-family="Helvetica,sans-Serif" font-size="10.00">int width</text>
<text text-anchor="start" x="4" y="-1534.5" font-family="Helvetica,sans-Serif" font-size="10.00">+</text>
<text text-anchor="start" x="14" y="-1534.5" font-family="Helvetica,sans-Serif" font-size="10.00">int height</text>
<text text-anchor="start" x="4" y="-1518.5" font-family="Helvetica,sans-Serif" font-size="10.00">+</text>
<text text-anchor="start" x="14" y="-1518.5" font-family="Helvetica,sans-Serif" font-size="10.00">bool hasGame</text>
<text text-anchor="start" x="4" y="-1502.5" font-family="Helvetica,sans-Serif" font-size="10.00">+</text>
<text text-anchor="start" x="14" y="-1502.5" font-family="Helvetica,sans-Serif" font-size="10.00">Instance()</text>
<text text-anchor="start" x="4" y="-1486.5" font-family="Helvetica,sans-Serif" font-size="10.00">+</text>
<text text-anchor="start" x="14" y="-1486.5" font-family="Helvetica,sans-Serif" font-size="10.00">Instance(std::string</text>
<text text-anchor="start" x="14" y="-1474.5" font-family="Helvetica,sans-Serif" font-size="10.00"> instanceName)</text>
<text text-anchor="start" x="4" y="-1458.5" font-family="Helvetica,sans-Serif" font-size="10.00">+</text>
<text text-anchor="start" x="14" y="-1458.5" font-family="Helvetica,sans-Serif" font-size="10.00">virtual std::string</text>
<text text-anchor="start" x="14" y="-1446.5" font-family="Helvetica,sans-Serif" font-size="10.00"> getAdbKey()</text>
<text text-anchor="start" x="4" y="-1430.5" font-family="Helvetica,sans-Serif" font-size="10.00">+</text>
<text text-anchor="start" x="14" y="-1430.5" font-family="Helvetica,sans-Serif" font-size="10.00">const std::string getGlobalId()</text>
<text text-anchor="start" x="4" y="-1414.5" font-family="Helvetica,sans-Serif" font-size="10.00">+</text>
<text text-anchor="start" x="14" y="-1414.5" font-family="Helvetica,sans-Serif" font-size="10.00">virtual void setGlobalId()=0</text>
<text text-anchor="start" x="4" y="-1398.5" font-family="Helvetica,sans-Serif" font-size="10.00">+</text>
<text text-anchor="start" x="14" y="-1398.5" font-family="Helvetica,sans-Serif" font-size="10.00">virtual EmulatorType</text>
<text text-anchor="start" x="14" y="-1386.5" font-family="Helvetica,sans-Serif" font-size="10.00"> getType()</text>
<text text-anchor="start" x="4" y="-1370.5" font-family="Helvetica,sans-Serif" font-size="10.00">+</text>
<text text-anchor="start" x="14" y="-1370.5" font-family="Helvetica,sans-Serif" font-size="10.00">virtual void setLaunch</text>
<text text-anchor="start" x="14" y="-1358.5" font-family="Helvetica,sans-Serif" font-size="10.00">(bool b)</text>
<text text-anchor="start" x="4" y="-1342.5" font-family="Helvetica,sans-Serif" font-size="10.00">+</text>
<text text-anchor="start" x="14" y="-1342.5" font-family="Helvetica,sans-Serif" font-size="10.00">virtual void showInstance()=0</text>
<polygon fill="#666666" stroke="#666666" points="0,-1674 0,-1674 147,-1674 147,-1674 0,-1674"/>
<polygon fill="#666666" stroke="#666666" points="0,-1514 0,-1514 12,-1514 12,-1514 0,-1514"/>
<polygon fill="#666666" stroke="#666666" points="12,-1514 12,-1514 147,-1514 147,-1514 12,-1514"/>
<polygon fill="none" stroke="#666666" points="0,-1336 0,-1692 147,-1692 147,-1336 0,-1336"/>
</a>
</g>
</g>
<!-- Node2&#45;&gt;Node1 -->
<g id="edge8_Node000001_Node000002" class="edge">
<title>Node2&#45;&gt;Node1</title>
<g id="a_edge8_Node000001_Node000002"><a xlink:title=" ">
<path fill="none" stroke="#63b8ff" d="M64.75,-1336.15C59.91,-1197.19 57.49,-998.91 72.25,-826 88.59,-634.58 106.2,-588.05 145.5,-400 147.94,-388.34 150.55,-376.36 153.28,-364.31"/>
<polygon fill="none" stroke="#63b8ff" points="153.28,-364.3 150.71,-357.56 155.95,-352.6 158.51,-359.34 153.28,-364.3"/>
</a>
</g>
<text text-anchor="middle" x="110.88" y="-828.5" font-family="Helvetica,sans-Serif" font-size="10.00" fill="grey"> +playingInstance</text>
</g>
<!-- Node3 -->
<g id="Node000003" class="node">
<title>Node3</title>
<g id="a_Node000003"><a xlink:href="$class_emulator.html" xlink:title=" ">
<polygon fill="white" stroke="none" points="255.88,-1288 87.12,-1288 87.12,-856 255.88,-856 255.88,-1288"/>
<text text-anchor="start" x="152" y="-1274.5" font-family="Helvetica,sans-Serif" font-size="10.00">Emulator</text>
<text text-anchor="start" x="91.12" y="-1258.5" font-family="Helvetica,sans-Serif" font-size="10.00">+</text>
<text text-anchor="start" x="101.12" y="-1258.5" font-family="Helvetica,sans-Serif" font-size="10.00">EmulatorType myType</text>
<text text-anchor="start" x="91.12" y="-1242.5" font-family="Helvetica,sans-Serif" font-size="10.00">+</text>
<text text-anchor="start" x="101.12" y="-1242.5" font-family="Helvetica,sans-Serif" font-size="10.00">std::string gamePackage</text>
<text text-anchor="start" x="91.12" y="-1226.5" font-family="Helvetica,sans-Serif" font-size="10.00">+</text>
<text text-anchor="start" x="101.12" y="-1226.5" font-family="Helvetica,sans-Serif" font-size="10.00">std::string emulatorName</text>
<text text-anchor="start" x="91.12" y="-1210.5" font-family="Helvetica,sans-Serif" font-size="10.00">+</text>
<text text-anchor="start" x="101.12" y="-1210.5" font-family="Helvetica,sans-Serif" font-size="10.00">std::string executableName</text>
<text text-anchor="start" x="91.12" y="-1194.5" font-family="Helvetica,sans-Serif" font-size="10.00">+</text>
<text text-anchor="start" x="101.12" y="-1194.5" font-family="Helvetica,sans-Serif" font-size="10.00">bool isInstalled</text>
<text text-anchor="start" x="91.12" y="-1178.5" font-family="Helvetica,sans-Serif" font-size="10.00">+</text>
<text text-anchor="start" x="101.12" y="-1178.5" font-family="Helvetica,sans-Serif" font-size="10.00">int nbInstances</text>
<text text-anchor="start" x="91.12" y="-1162.5" font-family="Helvetica,sans-Serif" font-size="10.00">+</text>
<text text-anchor="start" x="101.12" y="-1162.5" font-family="Helvetica,sans-Serif" font-size="10.00">std::vector&lt; Instance</text>
<text text-anchor="start" x="101.12" y="-1150.5" font-family="Helvetica,sans-Serif" font-size="10.00"> * &gt; listPlayableInstances</text>
<text text-anchor="start" x="91.12" y="-1134.5" font-family="Helvetica,sans-Serif" font-size="10.00">+</text>
<text text-anchor="start" x="101.12" y="-1134.5" font-family="Helvetica,sans-Serif" font-size="10.00">std::vector&lt; Instance</text>
<text text-anchor="start" x="101.12" y="-1122.5" font-family="Helvetica,sans-Serif" font-size="10.00"> * &gt; listInstances</text>
<text text-anchor="start" x="91.12" y="-1106.5" font-family="Helvetica,sans-Serif" font-size="10.00">+</text>
<text text-anchor="start" x="101.12" y="-1106.5" font-family="Helvetica,sans-Serif" font-size="10.00">int reqDimX</text>
<text text-anchor="start" x="91.12" y="-1090.5" font-family="Helvetica,sans-Serif" font-size="10.00">+</text>
<text text-anchor="start" x="101.12" y="-1090.5" font-family="Helvetica,sans-Serif" font-size="10.00">int reqDimY</text>
<text text-anchor="start" x="91.12" y="-1074.5" font-family="Helvetica,sans-Serif" font-size="10.00">+</text>
<text text-anchor="start" x="101.12" y="-1074.5" font-family="Helvetica,sans-Serif" font-size="10.00">int reqDpi</text>
<text text-anchor="start" x="91.12" y="-1058.5" font-family="Helvetica,sans-Serif" font-size="10.00">+</text>
<text text-anchor="start" x="101.12" y="-1058.5" font-family="Helvetica,sans-Serif" font-size="10.00">Emulator()</text>
<text text-anchor="start" x="91.12" y="-1042.5" font-family="Helvetica,sans-Serif" font-size="10.00">+</text>
<text text-anchor="start" x="101.12" y="-1042.5" font-family="Helvetica,sans-Serif" font-size="10.00">~Emulator()</text>
<text text-anchor="start" x="91.12" y="-1026.5" font-family="Helvetica,sans-Serif" font-size="10.00">+</text>
<text text-anchor="start" x="101.12" y="-1026.5" font-family="Helvetica,sans-Serif" font-size="10.00">virtual void startEmulator()=0</text>
<text text-anchor="start" x="91.12" y="-1010.5" font-family="Helvetica,sans-Serif" font-size="10.00">+</text>
<text text-anchor="start" x="101.12" y="-1010.5" font-family="Helvetica,sans-Serif" font-size="10.00">virtual void startInstance</text>
<text text-anchor="start" x="101.12" y="-998.5" font-family="Helvetica,sans-Serif" font-size="10.00">(Instance *inst)=0</text>
<text text-anchor="start" x="91.12" y="-982.5" font-family="Helvetica,sans-Serif" font-size="10.00">+</text>
<text text-anchor="start" x="101.12" y="-982.5" font-family="Helvetica,sans-Serif" font-size="10.00">virtual void stopInstance</text>
<text text-anchor="start" x="101.12" y="-970.5" font-family="Helvetica,sans-Serif" font-size="10.00">(Instance *inst)=0</text>
<text text-anchor="start" x="91.12" y="-954.5" font-family="Helvetica,sans-Serif" font-size="10.00">+</text>
<text text-anchor="start" x="101.12" y="-954.5" font-family="Helvetica,sans-Serif" font-size="10.00">virtual void stopEmulator()=0</text>
<text text-anchor="start" x="91.12" y="-938.5" font-family="Helvetica,sans-Serif" font-size="10.00">+</text>
<text text-anchor="start" x="101.12" y="-938.5" font-family="Helvetica,sans-Serif" font-size="10.00">virtual bool searchEmulator()=0</text>
<text text-anchor="start" x="91.12" y="-922.5" font-family="Helvetica,sans-Serif" font-size="10.00">+</text>
<text text-anchor="start" x="101.12" y="-922.5" font-family="Helvetica,sans-Serif" font-size="10.00">virtual void searchAllInstances()=0</text>
<text text-anchor="start" x="91.12" y="-906.5" font-family="Helvetica,sans-Serif" font-size="10.00">+</text>
<text text-anchor="start" x="101.12" y="-906.5" font-family="Helvetica,sans-Serif" font-size="10.00">virtual bool initEmulator</text>
<text text-anchor="start" x="101.12" y="-894.5" font-family="Helvetica,sans-Serif" font-size="10.00">(bool searchFiles)=0</text>
<text text-anchor="start" x="91.12" y="-878.5" font-family="Helvetica,sans-Serif" font-size="10.00">+</text>
<text text-anchor="start" x="101.12" y="-878.5" font-family="Helvetica,sans-Serif" font-size="10.00">virtual void initInstances()=0</text>
<text text-anchor="start" x="101.12" y="-862.5" font-family="Helvetica,sans-Serif" font-size="10.00">and 25 more...</text>
<polygon fill="#666666" stroke="#666666" points="87.12,-1270 87.12,-1270 255.88,-1270 255.88,-1270 87.12,-1270"/>
<polygon fill="#666666" stroke="#666666" points="87.12,-1070 87.12,-1070 99.12,-1070 99.12,-1070 87.12,-1070"/>
<polygon fill="#666666" stroke="#666666" points="99.12,-1070 99.12,-1070 255.88,-1070 255.88,-1070 99.12,-1070"/>
<polygon fill="none" stroke="#666666" points="87.12,-856 87.12,-1288 255.88,-1288 255.88,-856 87.12,-856"/>
</a>
</g>
</g>
<!-- Node2&#45;&gt;Node3 -->
<g id="edge10_Node000003_Node000002" class="edge">
<title>Node2&#45;&gt;Node3</title>
<g id="a_edge10_Node000003_Node000002"><a xlink:title=" ">
<path fill="none" stroke="#63b8ff" d="M112.87,-1336.25C115.49,-1324.46 118.16,-1312.5 120.83,-1300.5"/>
<polygon fill="none" stroke="#63b8ff" points="120.81,-1300.59 118.21,-1293.86 123.42,-1288.87 126.02,-1295.6 120.81,-1300.59"/>
</a>
</g>
<text text-anchor="middle" x="158.19" y="-1308.5" font-family="Helvetica,sans-Serif" font-size="10.00" fill="grey"> +playingInstance</text>
</g>
<!-- Node3&#45;&gt;Node1 -->
<g id="edge9_Node000001_Node000003" class="edge">
<title>Node3&#45;&gt;Node1</title>
<g id="a_edge9_Node000001_Node000003"><a xlink:title=" ">
<path fill="none" stroke="#63b8ff" d="M155.28,-856.37C148.32,-724.45 144.63,-552.13 158.75,-400 159.82,-388.48 161.19,-376.67 162.79,-364.78"/>
<polygon fill="none" stroke="#63b8ff" points="162.81,-364.64 159.68,-358.14 164.47,-352.76 167.6,-359.25 162.81,-364.64"/>
</a>
</g>
<text text-anchor="middle" x="198.12" y="-600.5" font-family="Helvetica,sans-Serif" font-size="10.00" fill="grey"> +playingEmulator</text>
</g>
<!-- Node4 -->
<g id="Node000004" class="node">
<title>Node4</title>
<g id="a_Node000004"><a xlink:href="$class_bluestacks.html" xlink:title=" ">
<polygon fill="white" stroke="none" points="400.75,-778 246.25,-778 246.25,-430 400.75,-430 400.75,-778"/>
<text text-anchor="start" x="299.12" y="-764.5" font-family="Helvetica,sans-Serif" font-size="10.00">Bluestacks</text>
<text text-anchor="start" x="250.25" y="-748.5" font-family="Helvetica,sans-Serif" font-size="10.00">+</text>
<text text-anchor="start" x="260.25" y="-748.5" font-family="Helvetica,sans-Serif" font-size="10.00">std::string configFolder</text>
<text text-anchor="start" x="250.25" y="-732.5" font-family="Helvetica,sans-Serif" font-size="10.00">+</text>
<text text-anchor="start" x="260.25" y="-732.5" font-family="Helvetica,sans-Serif" font-size="10.00">std::string hdPlayerFolder</text>
<text text-anchor="start" x="250.25" y="-716.5" font-family="Helvetica,sans-Serif" font-size="10.00">+</text>
<text text-anchor="start" x="260.25" y="-716.5" font-family="Helvetica,sans-Serif" font-size="10.00">Bluestacks()</text>
<text text-anchor="start" x="250.25" y="-700.5" font-family="Helvetica,sans-Serif" font-size="10.00">+</text>
<text text-anchor="start" x="260.25" y="-700.5" font-family="Helvetica,sans-Serif" font-size="10.00">void setListPlayableInstances()</text>
<text text-anchor="start" x="250.25" y="-684.5" font-family="Helvetica,sans-Serif" font-size="10.00">+</text>
<text text-anchor="start" x="260.25" y="-684.5" font-family="Helvetica,sans-Serif" font-size="10.00">Bluestacks(const std</text>
<text text-anchor="start" x="260.25" y="-672.5" font-family="Helvetica,sans-Serif" font-size="10.00">::string &amp;gamePackage,</text>
<text text-anchor="start" x="260.25" y="-660.5" font-family="Helvetica,sans-Serif" font-size="10.00"> int reqDimX, int reqDimY,</text>
<text text-anchor="start" x="260.25" y="-648.5" font-family="Helvetica,sans-Serif" font-size="10.00"> int dpi)</text>
<text text-anchor="start" x="250.25" y="-632.5" font-family="Helvetica,sans-Serif" font-size="10.00">+</text>
<text text-anchor="start" x="260.25" y="-632.5" font-family="Helvetica,sans-Serif" font-size="10.00">void startEmulator</text>
<text text-anchor="start" x="260.25" y="-620.5" font-family="Helvetica,sans-Serif" font-size="10.00">() override</text>
<text text-anchor="start" x="250.25" y="-604.5" font-family="Helvetica,sans-Serif" font-size="10.00">+</text>
<text text-anchor="start" x="260.25" y="-604.5" font-family="Helvetica,sans-Serif" font-size="10.00">void startInstance</text>
<text text-anchor="start" x="260.25" y="-592.5" font-family="Helvetica,sans-Serif" font-size="10.00">(Instance *inst) override</text>
<text text-anchor="start" x="250.25" y="-576.5" font-family="Helvetica,sans-Serif" font-size="10.00">+</text>
<text text-anchor="start" x="260.25" y="-576.5" font-family="Helvetica,sans-Serif" font-size="10.00">void stopInstance(Instance</text>
<text text-anchor="start" x="260.25" y="-564.5" font-family="Helvetica,sans-Serif" font-size="10.00"> *inst) override</text>
<text text-anchor="start" x="250.25" y="-548.5" font-family="Helvetica,sans-Serif" font-size="10.00">+</text>
<text text-anchor="start" x="260.25" y="-548.5" font-family="Helvetica,sans-Serif" font-size="10.00">void showInstance(Instance</text>
<text text-anchor="start" x="260.25" y="-536.5" font-family="Helvetica,sans-Serif" font-size="10.00"> *Inst) override</text>
<text text-anchor="start" x="250.25" y="-520.5" font-family="Helvetica,sans-Serif" font-size="10.00">+</text>
<text text-anchor="start" x="260.25" y="-520.5" font-family="Helvetica,sans-Serif" font-size="10.00">void getAdbKey(Instance</text>
<text text-anchor="start" x="260.25" y="-508.5" font-family="Helvetica,sans-Serif" font-size="10.00"> *inst) override</text>
<text text-anchor="start" x="250.25" y="-492.5" font-family="Helvetica,sans-Serif" font-size="10.00">+</text>
<text text-anchor="start" x="260.25" y="-492.5" font-family="Helvetica,sans-Serif" font-size="10.00">void stopEmulator()</text>
<text text-anchor="start" x="260.25" y="-480.5" font-family="Helvetica,sans-Serif" font-size="10.00"> override</text>
<text text-anchor="start" x="250.25" y="-464.5" font-family="Helvetica,sans-Serif" font-size="10.00">+</text>
<text text-anchor="start" x="260.25" y="-464.5" font-family="Helvetica,sans-Serif" font-size="10.00">bool searchEmulator</text>
<text text-anchor="start" x="260.25" y="-452.5" font-family="Helvetica,sans-Serif" font-size="10.00">() override</text>
<text text-anchor="start" x="260.25" y="-436.5" font-family="Helvetica,sans-Serif" font-size="10.00">and 17 more...</text>
<polygon fill="#666666" stroke="#666666" points="246.25,-760 246.25,-760 400.75,-760 400.75,-760 246.25,-760"/>
<polygon fill="#666666" stroke="#666666" points="246.25,-728 246.25,-728 258.25,-728 258.25,-728 246.25,-728"/>
<polygon fill="#666666" stroke="#666666" points="258.25,-728 258.25,-728 400.75,-728 400.75,-728 258.25,-728"/>
<polygon fill="none" stroke="#666666" points="246.25,-430 246.25,-778 400.75,-778 400.75,-430 246.25,-430"/>
</a>
</g>
</g>
<!-- Node3&#45;&gt;Node4 -->
<g id="edge12_Node000004_Node000003" class="edge">
<title>Node3&#45;&gt;Node4</title>
<g id="a_edge12_Node000004_Node000003"><a xlink:title=" ">
<path fill="none" stroke="#63b8ff" d="M245.12,-845.29C252.53,-822.58 259.97,-799.77 267.16,-777.73"/>
<polygon fill="none" stroke="#63b8ff" points="241.85,-844.04 242.07,-854.63 248.5,-846.21 241.85,-844.04"/>
</a>
</g>
</g>
<!-- Node5 -->
<g id="Node000005" class="node">
<title>Node5</title>
<g id="a_Node000005"><a xlink:href="$class_l_d_player.html" xlink:title=" ">
<polygon fill="white" stroke="none" points="566.38,-808 418.62,-808 418.62,-400 566.38,-400 566.38,-808"/>
<text text-anchor="start" x="472.25" y="-794.5" font-family="Helvetica,sans-Serif" font-size="10.00">LDPlayer</text>
<text text-anchor="start" x="422.62" y="-778.5" font-family="Helvetica,sans-Serif" font-size="10.00">+</text>
<text text-anchor="start" x="432.62" y="-778.5" font-family="Helvetica,sans-Serif" font-size="10.00">std::string formalEngineName</text>
<text text-anchor="start" x="422.62" y="-762.5" font-family="Helvetica,sans-Serif" font-size="10.00">+</text>
<text text-anchor="start" x="432.62" y="-762.5" font-family="Helvetica,sans-Serif" font-size="10.00">std::string configFolder</text>
<text text-anchor="start" x="422.62" y="-746.5" font-family="Helvetica,sans-Serif" font-size="10.00">+</text>
<text text-anchor="start" x="432.62" y="-746.5" font-family="Helvetica,sans-Serif" font-size="10.00">std::string vmsFolder</text>
<text text-anchor="start" x="422.62" y="-730.5" font-family="Helvetica,sans-Serif" font-size="10.00">+</text>
<text text-anchor="start" x="432.62" y="-730.5" font-family="Helvetica,sans-Serif" font-size="10.00">std::string ldPlayerFolder</text>
<text text-anchor="start" x="422.62" y="-714.5" font-family="Helvetica,sans-Serif" font-size="10.00">+</text>
<text text-anchor="start" x="432.62" y="-714.5" font-family="Helvetica,sans-Serif" font-size="10.00">std::vector&lt; std::string</text>
<text text-anchor="start" x="432.62" y="-702.5" font-family="Helvetica,sans-Serif" font-size="10.00"> &gt; allEngines</text>
<text text-anchor="start" x="422.62" y="-686.5" font-family="Helvetica,sans-Serif" font-size="10.00">+</text>
<text text-anchor="start" x="432.62" y="-686.5" font-family="Helvetica,sans-Serif" font-size="10.00">LDPlayer()</text>
<text text-anchor="start" x="422.62" y="-670.5" font-family="Helvetica,sans-Serif" font-size="10.00">+</text>
<text text-anchor="start" x="432.62" y="-670.5" font-family="Helvetica,sans-Serif" font-size="10.00">LDPlayer(std::string</text>
<text text-anchor="start" x="432.62" y="-658.5" font-family="Helvetica,sans-Serif" font-size="10.00"> gamePackage, int reqDimX,</text>
<text text-anchor="start" x="432.62" y="-646.5" font-family="Helvetica,sans-Serif" font-size="10.00"> int reqDimY, int dpi)</text>
<text text-anchor="start" x="422.62" y="-630.5" font-family="Helvetica,sans-Serif" font-size="10.00">+</text>
<text text-anchor="start" x="432.62" y="-630.5" font-family="Helvetica,sans-Serif" font-size="10.00">void startEmulator</text>
<text text-anchor="start" x="432.62" y="-618.5" font-family="Helvetica,sans-Serif" font-size="10.00">() override</text>
<text text-anchor="start" x="422.62" y="-602.5" font-family="Helvetica,sans-Serif" font-size="10.00">+</text>
<text text-anchor="start" x="432.62" y="-602.5" font-family="Helvetica,sans-Serif" font-size="10.00">void startInstance</text>
<text text-anchor="start" x="432.62" y="-590.5" font-family="Helvetica,sans-Serif" font-size="10.00">(Instance *inst) override</text>
<text text-anchor="start" x="422.62" y="-574.5" font-family="Helvetica,sans-Serif" font-size="10.00">+</text>
<text text-anchor="start" x="432.62" y="-574.5" font-family="Helvetica,sans-Serif" font-size="10.00">void stopInstance(Instance</text>
<text text-anchor="start" x="432.62" y="-562.5" font-family="Helvetica,sans-Serif" font-size="10.00"> *inst) override</text>
<text text-anchor="start" x="422.62" y="-546.5" font-family="Helvetica,sans-Serif" font-size="10.00">+</text>
<text text-anchor="start" x="432.62" y="-546.5" font-family="Helvetica,sans-Serif" font-size="10.00">void stopEmulator()</text>
<text text-anchor="start" x="432.62" y="-534.5" font-family="Helvetica,sans-Serif" font-size="10.00"> override</text>
<text text-anchor="start" x="422.62" y="-518.5" font-family="Helvetica,sans-Serif" font-size="10.00">+</text>
<text text-anchor="start" x="432.62" y="-518.5" font-family="Helvetica,sans-Serif" font-size="10.00">bool searchEmulator</text>
<text text-anchor="start" x="432.62" y="-506.5" font-family="Helvetica,sans-Serif" font-size="10.00">() override</text>
<text text-anchor="start" x="422.62" y="-490.5" font-family="Helvetica,sans-Serif" font-size="10.00">+</text>
<text text-anchor="start" x="432.62" y="-490.5" font-family="Helvetica,sans-Serif" font-size="10.00">void searchAllInstances</text>
<text text-anchor="start" x="432.62" y="-478.5" font-family="Helvetica,sans-Serif" font-size="10.00">() override</text>
<text text-anchor="start" x="422.62" y="-462.5" font-family="Helvetica,sans-Serif" font-size="10.00">+</text>
<text text-anchor="start" x="432.62" y="-462.5" font-family="Helvetica,sans-Serif" font-size="10.00">bool initEmulator(bool</text>
<text text-anchor="start" x="432.62" y="-450.5" font-family="Helvetica,sans-Serif" font-size="10.00"> searchFiles) override</text>
<text text-anchor="start" x="422.62" y="-434.5" font-family="Helvetica,sans-Serif" font-size="10.00">+</text>
<text text-anchor="start" x="432.62" y="-434.5" font-family="Helvetica,sans-Serif" font-size="10.00">void initInstances</text>
<text text-anchor="start" x="432.62" y="-422.5" font-family="Helvetica,sans-Serif" font-size="10.00">() override</text>
<text text-anchor="start" x="432.62" y="-406.5" font-family="Helvetica,sans-Serif" font-size="10.00">and 23 more...</text>
<polygon fill="#666666" stroke="#666666" points="418.62,-790 418.62,-790 566.38,-790 566.38,-790 418.62,-790"/>
<polygon fill="#666666" stroke="#666666" points="418.62,-698 418.62,-698 430.62,-698 430.62,-698 418.62,-698"/>
<polygon fill="#666666" stroke="#666666" points="430.62,-698 430.62,-698 566.38,-698 566.38,-698 430.62,-698"/>
<polygon fill="none" stroke="#666666" points="418.62,-400 418.62,-808 566.38,-808 566.38,-400 418.62,-400"/>
</a>
</g>
</g>
<!-- Node3&#45;&gt;Node5 -->
<g id="edge14_Node000005_Node000003" class="edge">
<title>Node3&#45;&gt;Node5</title>
<g id="a_edge14_Node000005_Node000003"><a xlink:title=" ">
<path fill="none" stroke="#63b8ff" d="M263.8,-984.71C311.84,-936.2 368.87,-872.55 409.5,-808 412.64,-803.01 415.71,-797.87 418.7,-792.63"/>
<polygon fill="none" stroke="#63b8ff" points="261.51,-982.04 256.93,-991.6 266.47,-986.99 261.51,-982.04"/>
</a>
</g>
</g>
<!-- Node4&#45;&gt;Node1 -->
<g id="edge11_Node000001_Node000004" class="edge">
<title>Node4&#45;&gt;Node1</title>
<g id="a_edge11_Node000001_Node000004"><a xlink:title=" ">
<path fill="none" stroke="#63b8ff" d="M273.56,-430.04C267.3,-408.36 260.87,-386.1 254.55,-364.21"/>
<polygon fill="none" stroke="#63b8ff" points="254.53,-364.13 249.02,-359.48 251.2,-352.61 256.71,-357.26 254.53,-364.13"/>
</a>
</g>
<text text-anchor="middle" x="271.81" y="-372.5" font-family="Helvetica,sans-Serif" font-size="10.00" fill="grey"> +blue</text>
</g>
<!-- Node5&#45;&gt;Node1 -->
<g id="edge13_Node000001_Node000005" class="edge">
<title>Node5&#45;&gt;Node1</title>
<g id="a_edge13_Node000001_Node000005"><a xlink:title=" ">
<path fill="none" stroke="#63b8ff" d="M418.67,-415.04C415.69,-409.91 412.64,-404.89 409.5,-400 374.33,-345.2 324.85,-291.69 282.87,-250.83"/>
<polygon fill="none" stroke="#63b8ff" points="282.77,-250.74 275.67,-249.46 274.13,-242.41 281.22,-243.69 282.77,-250.74"/>
</a>
</g>
<text text-anchor="middle" x="403.91" y="-372.5" font-family="Helvetica,sans-Serif" font-size="10.00" fill="grey"> +ld</text>
</g>
</g>
</svg>
