<?xml version="1.0" encoding="UTF-8" standalone="no"?>
<!DOCTYPE svg PUBLIC "-//W3C//DTD SVG 1.1//EN"
 "http://www.w3.org/Graphics/SVG/1.1/DTD/svg11.dtd">
<!-- Generated by graphviz version 12.2.0 (20241103.1931)
 -->
<!-- Title: AllEmulators::isBluestacksInstance Pages: 1 -->
<svg width="756pt" height="116pt"
 viewBox="0.00 0.00 755.50 116.00" xmlns="http://www.w3.org/2000/svg" xmlns:xlink="http://www.w3.org/1999/xlink">
<g id="graph0" class="graph" transform="scale(1 1) rotate(0) translate(4 112)">
<title>AllEmulators::isBluestacksInstance</title>
<!-- Node1 -->
<g id="Node000001" class="node">
<title>Node1</title>
<g id="a_Node000001"><a xlink:title=" ">
<polygon fill="#999999" stroke="#666666" points="747.5,-64 613.75,-64 613.75,-32 747.5,-32 747.5,-64"/>
<text text-anchor="start" x="621.75" y="-50.5" font-family="Helvetica,sans-Serif" font-size="10.00">AllEmulators::isBluestacks</text>
<text text-anchor="middle" x="680.62" y="-38.5" font-family="Helvetica,sans-Serif" font-size="10.00">Instance</text>
</a>
</g>
</g>
<!-- Node2 -->
<g id="Node000002" class="node">
<title>Node2</title>
<g id="a_Node000002"><a xlink:href="$struct_all_emulators.html#ab9091f00d35a6266cf70072a5a2ccab7" xlink:title=" ">
<polygon fill="white" stroke="#666666" points="570.25,-108 447,-108 447,-76 570.25,-76 570.25,-108"/>
<text text-anchor="start" x="455" y="-94.5" font-family="Helvetica,sans-Serif" font-size="10.00">AllEmulators::setPlaying</text>
<text text-anchor="middle" x="508.62" y="-82.5" font-family="Helvetica,sans-Serif" font-size="10.00">Emulator</text>
</a>
</g>
</g>
<!-- Node1&#45;&gt;Node2 -->
<g id="edge7_Node000001_Node000002" class="edge">
<title>Node1&#45;&gt;Node2</title>
<g id="a_edge7_Node000001_Node000002"><a xlink:title=" ">
<path fill="none" stroke="#63b8ff" d="M605.35,-67.22C593.78,-70.22 581.95,-73.28 570.72,-76.19"/>
<polygon fill="#63b8ff" stroke="#63b8ff" points="606.05,-70.66 614.86,-64.76 604.3,-63.88 606.05,-70.66"/>
</a>
</g>
</g>
<!-- Node6 -->
<g id="Node000006" class="node">
<title>Node6</title>
<g id="a_Node000006"><a xlink:href="$struct_all_emulators.html#abc4961f4cb82ebbf66e464be8d9285b8" xlink:title=" ">
<polygon fill="white" stroke="#666666" points="577.75,-58 439.5,-58 439.5,-38 577.75,-38 577.75,-58"/>
<text text-anchor="middle" x="508.62" y="-44.5" font-family="Helvetica,sans-Serif" font-size="10.00">AllEmulators::showInstance</text>
</a>
</g>
</g>
<!-- Node1&#45;&gt;Node6 -->
<g id="edge11_Node000001_Node000006" class="edge">
<title>Node1&#45;&gt;Node6</title>
<g id="a_edge11_Node000001_Node000006"><a xlink:title=" ">
<path fill="none" stroke="#63b8ff" d="M601.91,-48C593.99,-48 585.99,-48 578.18,-48"/>
<polygon fill="#63b8ff" stroke="#63b8ff" points="601.9,-51.5 611.9,-48 601.9,-44.5 601.9,-51.5"/>
</a>
</g>
</g>
<!-- Node7 -->
<g id="Node000007" class="node">
<title>Node7</title>
<g id="a_Node000007"><a xlink:href="$struct_all_emulators.html#a86a17ae3ac810b92544baa8cdcb01309" xlink:title=" ">
<polygon fill="white" stroke="#666666" points="577.75,-20 439.5,-20 439.5,0 577.75,0 577.75,-20"/>
<text text-anchor="middle" x="508.62" y="-6.5" font-family="Helvetica,sans-Serif" font-size="10.00">AllEmulators::showInstance</text>
</a>
</g>
</g>
<!-- Node1&#45;&gt;Node7 -->
<g id="edge12_Node000001_Node000007" class="edge">
<title>Node1&#45;&gt;Node7</title>
<g id="a_edge12_Node000001_Node000007"><a xlink:title=" ">
<path fill="none" stroke="#63b8ff" d="M602.6,-30.78C586.86,-27.26 570.76,-23.66 556.46,-20.47"/>
<polygon fill="#63b8ff" stroke="#63b8ff" points="601.41,-34.1 611.93,-32.87 602.94,-27.27 601.41,-34.1"/>
</a>
</g>
</g>
<!-- Node3 -->
<g id="Node000003" class="node">
<title>Node3</title>
<g id="a_Node000003"><a xlink:href="$class_bot_config.html#a72e8877046483a6c3c8f03a21ea9c6b2" xlink:title=" ">
<polygon fill="white" stroke="#666666" points="403.5,-108 274.25,-108 274.25,-76 403.5,-76 403.5,-108"/>
<text text-anchor="start" x="282.25" y="-94.5" font-family="Helvetica,sans-Serif" font-size="10.00">BotConfig::choosePlaying</text>
<text text-anchor="middle" x="338.88" y="-82.5" font-family="Helvetica,sans-Serif" font-size="10.00">Instance</text>
</a>
</g>
</g>
<!-- Node2&#45;&gt;Node3 -->
<g id="edge8_Node000002_Node000003" class="edge">
<title>Node2&#45;&gt;Node3</title>
<g id="a_edge8_Node000002_Node000003"><a xlink:title=" ">
<path fill="none" stroke="#63b8ff" d="M435.38,-92C424.93,-92 414.24,-92 403.97,-92"/>
<polygon fill="#63b8ff" stroke="#63b8ff" points="435.08,-95.5 445.08,-92 435.08,-88.5 435.08,-95.5"/>
</a>
</g>
</g>
<!-- Node4 -->
<g id="Node000004" class="node">
<title>Node4</title>
<g id="a_Node000004"><a xlink:href="$class_bot_config.html#a8925ef3403b945f27b9ee2719ef257b9" xlink:title=" ">
<polygon fill="white" stroke="#666666" points="238.25,-102 116.5,-102 116.5,-82 238.25,-82 238.25,-102"/>
<text text-anchor="middle" x="177.38" y="-88.5" font-family="Helvetica,sans-Serif" font-size="10.00">BotConfig::initBotConfig</text>
</a>
</g>
</g>
<!-- Node3&#45;&gt;Node4 -->
<g id="edge9_Node000003_Node000004" class="edge">
<title>Node3&#45;&gt;Node4</title>
<g id="a_edge9_Node000003_Node000004"><a xlink:title=" ">
<path fill="none" stroke="#63b8ff" d="M262.65,-92C254.63,-92 246.54,-92 238.72,-92"/>
<polygon fill="#63b8ff" stroke="#63b8ff" points="262.41,-95.5 272.41,-92 262.41,-88.5 262.41,-95.5"/>
</a>
</g>
</g>
<!-- Node5 -->
<g id="Node000005" class="node">
<title>Node5</title>
<g id="a_Node000005"><a xlink:href="$classgame.html#aea6b13468585f1be55d1736100158706" xlink:title=" ">
<polygon fill="white" stroke="#666666" points="80.5,-102 0,-102 0,-82 80.5,-82 80.5,-102"/>
<text text-anchor="middle" x="40.25" y="-88.5" font-family="Helvetica,sans-Serif" font-size="10.00">game::startBot</text>
</a>
</g>
</g>
<!-- Node4&#45;&gt;Node5 -->
<g id="edge10_Node000004_Node000005" class="edge">
<title>Node4&#45;&gt;Node5</title>
<g id="a_edge10_Node000004_Node000005"><a xlink:title=" ">
<path fill="none" stroke="#63b8ff" d="M105.04,-92C96.77,-92 88.57,-92 80.95,-92"/>
<polygon fill="#63b8ff" stroke="#63b8ff" points="104.81,-95.5 114.81,-92 104.81,-88.5 104.81,-95.5"/>
</a>
</g>
</g>
</g>
</svg>
