<?xml version="1.0" encoding="UTF-8" standalone="no"?>
<!DOCTYPE svg PUBLIC "-//W3C//DTD SVG 1.1//EN"
 "http://www.w3.org/Graphics/SVG/1.1/DTD/svg11.dtd">
<!-- Generated by graphviz version 12.2.0 (20241103.1931)
 -->
<!-- Title: moveAndStartProgram Pages: 1 -->
<svg width="300pt" height="66pt"
 viewBox="0.00 0.00 299.75 66.00" xmlns="http://www.w3.org/2000/svg" xmlns:xlink="http://www.w3.org/1999/xlink">
<g id="graph0" class="graph" transform="scale(1 1) rotate(0) translate(4 62)">
<title>moveAndStartProgram</title>
<!-- Node1 -->
<g id="Node000001" class="node">
<title>Node1</title>
<g id="a_Node000001"><a xlink:title=" ">
<polygon fill="#999999" stroke="#666666" points="115,-39 0,-39 0,-19 115,-19 115,-39"/>
<text text-anchor="middle" x="57.5" y="-25.5" font-family="Helvetica,sans-Serif" font-size="10.00">moveAndStartProgram</text>
</a>
</g>
</g>
<!-- Node2 -->
<g id="Node000002" class="node">
<title>Node2</title>
<g id="a_Node000002"><a xlink:href="$sys_commands_8cpp.html#ada88c749f0c57b9e29b885c73134e0fe" xlink:title=" ">
<polygon fill="white" stroke="#666666" points="197,-39 151,-39 151,-19 197,-19 197,-39"/>
<text text-anchor="middle" x="174" y="-25.5" font-family="Helvetica,sans-Serif" font-size="10.00">doPipe</text>
</a>
</g>
</g>
<!-- Node1&#45;&gt;Node2 -->
<g id="edge4_Node000001_Node000002" class="edge">
<title>Node1&#45;&gt;Node2</title>
<g id="a_edge4_Node000001_Node000002"><a xlink:title=" ">
<path fill="none" stroke="#63b8ff" d="M115.41,-29C123.67,-29 131.92,-29 139.51,-29"/>
<polygon fill="#63b8ff" stroke="#63b8ff" points="139.26,-32.5 149.26,-29 139.26,-25.5 139.26,-32.5"/>
</a>
</g>
</g>
<!-- Node3 -->
<g id="Node000003" class="node">
<title>Node3</title>
<g id="a_Node000003"><a xlink:href="$sys_commands_8cpp.html#a4771c79171a937893508dabadadbe099" xlink:title=" ">
<polygon fill="white" stroke="#666666" points="291.75,-58 233,-58 233,-38 291.75,-38 291.75,-58"/>
<text text-anchor="middle" x="262.38" y="-44.5" font-family="Helvetica,sans-Serif" font-size="10.00">closePipe</text>
</a>
</g>
</g>
<!-- Node2&#45;&gt;Node3 -->
<g id="edge5_Node000002_Node000003" class="edge">
<title>Node2&#45;&gt;Node3</title>
<g id="a_edge5_Node000002_Node000003"><a xlink:title=" ">
<path fill="none" stroke="#63b8ff" d="M197.24,-33.89C204.67,-35.53 213.18,-37.4 221.52,-39.23"/>
<polygon fill="#63b8ff" stroke="#63b8ff" points="220.68,-42.63 231.2,-41.36 222.19,-35.8 220.68,-42.63"/>
</a>
</g>
</g>
<!-- Node4 -->
<g id="Node000004" class="node">
<title>Node4</title>
<g id="a_Node000004"><a xlink:href="$sys_commands_8cpp.html#a3499ce0cd7e4ed28b3c5461a4d3aec84" xlink:title=" ">
<polygon fill="white" stroke="#666666" points="290.62,-20 234.12,-20 234.12,0 290.62,0 290.62,-20"/>
<text text-anchor="middle" x="262.38" y="-6.5" font-family="Helvetica,sans-Serif" font-size="10.00">openPipe</text>
</a>
</g>
</g>
<!-- Node2&#45;&gt;Node4 -->
<g id="edge6_Node000002_Node000004" class="edge">
<title>Node2&#45;&gt;Node4</title>
<g id="a_edge6_Node000002_Node000004"><a xlink:title=" ">
<path fill="none" stroke="#63b8ff" d="M197.24,-24.11C204.96,-22.41 213.85,-20.45 222.51,-18.55"/>
<polygon fill="#63b8ff" stroke="#63b8ff" points="223.15,-21.99 232.16,-16.43 221.64,-15.16 223.15,-21.99"/>
</a>
</g>
</g>
</g>
</svg>
