<?xml version="1.0" encoding="UTF-8" standalone="no"?>
<!DOCTYPE svg PUBLIC "-//W3C//DTD SVG 1.1//EN"
 "http://www.w3.org/Graphics/SVG/1.1/DTD/svg11.dtd">
<!-- Generated by graphviz version 12.2.0 (20241103.1931)
 -->
<!-- Title: src/sysCommands.h Pages: 1 -->
<svg width="1324pt" height="84pt"
 viewBox="0.00 0.00 1323.88 84.00" xmlns="http://www.w3.org/2000/svg" xmlns:xlink="http://www.w3.org/1999/xlink">
<g id="graph0" class="graph" transform="scale(1 1) rotate(0) translate(4 80)">
<title>src/sysCommands.h</title>
<!-- Node1 -->
<g id="Node000001" class="node">
<title>Node1</title>
<g id="a_Node000001"><a xlink:title=" ">
<polygon fill="#999999" stroke="#666666" points="703.75,-76 597,-76 597,-56 703.75,-56 703.75,-76"/>
<text text-anchor="middle" x="650.38" y="-62.5" font-family="Helvetica,sans-Serif" font-size="10.00">src/sysCommands.h</text>
</a>
</g>
</g>
<!-- Node2 -->
<g id="Node000002" class="node">
<title>Node2</title>
<g id="a_Node000002"><a xlink:title=" ">
<polygon fill="#e0e0e0" stroke="#999999" points="64.75,-20 0,-20 0,0 64.75,0 64.75,-20"/>
<text text-anchor="middle" x="32.38" y="-6.5" font-family="Helvetica,sans-Serif" font-size="10.00">Windows.h</text>
</a>
</g>
</g>
<!-- Node1&#45;&gt;Node2 -->
<g id="edge21_Node000001_Node000002" class="edge">
<title>Node1&#45;&gt;Node2</title>
<g id="a_edge21_Node000001_Node000002"><a xlink:title=" ">
<path fill="none" stroke="#63b8ff" d="M596.8,-63.3C496.45,-59.57 273.2,-48.73 76.12,-20.22"/>
<polygon fill="#63b8ff" stroke="#63b8ff" points="76.87,-16.79 66.47,-18.8 75.86,-23.72 76.87,-16.79"/>
</a>
</g>
</g>
<!-- Node3 -->
<g id="Node000003" class="node">
<title>Node3</title>
<g id="a_Node000003"><a xlink:title=" ">
<polygon fill="#e0e0e0" stroke="#999999" points="136.12,-20 82.62,-20 82.62,0 136.12,0 136.12,-20"/>
<text text-anchor="middle" x="109.38" y="-6.5" font-family="Helvetica,sans-Serif" font-size="10.00">iostream</text>
</a>
</g>
</g>
<!-- Node1&#45;&gt;Node3 -->
<g id="edge22_Node000001_Node000003" class="edge">
<title>Node1&#45;&gt;Node3</title>
<g id="a_edge22_Node000001_Node000003"><a xlink:title=" ">
<path fill="none" stroke="#63b8ff" d="M596.58,-62.97C505.88,-58.93 316.69,-47.94 147.52,-20.1"/>
<polygon fill="#63b8ff" stroke="#63b8ff" points="148.34,-16.69 137.9,-18.49 147.18,-23.59 148.34,-16.69"/>
</a>
</g>
</g>
<!-- Node4 -->
<g id="Node000004" class="node">
<title>Node4</title>
<g id="a_Node000004"><a xlink:title=" ">
<polygon fill="#e0e0e0" stroke="#999999" points="192.25,-20 154.5,-20 154.5,0 192.25,0 192.25,-20"/>
<text text-anchor="middle" x="173.38" y="-6.5" font-family="Helvetica,sans-Serif" font-size="10.00">array</text>
</a>
</g>
</g>
<!-- Node1&#45;&gt;Node4 -->
<g id="edge23_Node000001_Node000004" class="edge">
<title>Node1&#45;&gt;Node4</title>
<g id="a_edge23_Node000001_Node000004"><a xlink:title=" ">
<path fill="none" stroke="#63b8ff" d="M596.6,-63.27C513.85,-59.82 350.34,-49.83 203.5,-20.02"/>
<polygon fill="#63b8ff" stroke="#63b8ff" points="204.5,-16.65 193.99,-18.05 203.08,-23.5 204.5,-16.65"/>
</a>
</g>
</g>
<!-- Node5 -->
<g id="Node000005" class="node">
<title>Node5</title>
<g id="a_Node000005"><a xlink:title=" ">
<polygon fill="#e0e0e0" stroke="#999999" points="262,-20 210.75,-20 210.75,0 262,0 262,-20"/>
<text text-anchor="middle" x="236.38" y="-6.5" font-family="Helvetica,sans-Serif" font-size="10.00">memory</text>
</a>
</g>
</g>
<!-- Node1&#45;&gt;Node5 -->
<g id="edge24_Node000001_Node000005" class="edge">
<title>Node1&#45;&gt;Node5</title>
<g id="a_edge24_Node000001_Node000005"><a xlink:title=" ">
<path fill="none" stroke="#63b8ff" d="M596.68,-60.9C525.16,-54.93 394.54,-42.3 273.58,-20.17"/>
<polygon fill="#63b8ff" stroke="#63b8ff" points="274.24,-16.74 263.77,-18.35 272.96,-23.62 274.24,-16.74"/>
</a>
</g>
</g>
<!-- Node6 -->
<g id="Node000006" class="node">
<title>Node6</title>
<g id="a_Node000006"><a xlink:title=" ">
<polygon fill="#e0e0e0" stroke="#999999" points="320.38,-20 280.38,-20 280.38,0 320.38,0 320.38,-20"/>
<text text-anchor="middle" x="300.38" y="-6.5" font-family="Helvetica,sans-Serif" font-size="10.00">ctime</text>
</a>
</g>
</g>
<!-- Node1&#45;&gt;Node6 -->
<g id="edge25_Node000001_Node000006" class="edge">
<title>Node1&#45;&gt;Node6</title>
<g id="a_edge25_Node000001_Node000006"><a xlink:title=" ">
<path fill="none" stroke="#63b8ff" d="M596.51,-60.14C534.67,-53.96 430.09,-41.69 331.87,-20.26"/>
<polygon fill="#63b8ff" stroke="#63b8ff" points="332.86,-16.89 322.34,-18.14 331.34,-23.72 332.86,-16.89"/>
</a>
</g>
</g>
<!-- Node7 -->
<g id="Node000007" class="node">
<title>Node7</title>
<g id="a_Node000007"><a xlink:title=" ">
<polygon fill="#e0e0e0" stroke="#999999" points="381.88,-20 338.88,-20 338.88,0 381.88,0 381.88,-20"/>
<text text-anchor="middle" x="360.38" y="-6.5" font-family="Helvetica,sans-Serif" font-size="10.00">vector</text>
</a>
</g>
</g>
<!-- Node1&#45;&gt;Node7 -->
<g id="edge26_Node000001_Node000007" class="edge">
<title>Node1&#45;&gt;Node7</title>
<g id="a_edge26_Node000001_Node000007"><a xlink:title=" ">
<path fill="none" stroke="#63b8ff" d="M596.71,-57.64C546.35,-50.3 468.75,-37.89 393.35,-20.49"/>
<polygon fill="#63b8ff" stroke="#63b8ff" points="394.26,-17.11 383.72,-18.24 392.66,-23.93 394.26,-17.11"/>
</a>
</g>
</g>
<!-- Node8 -->
<g id="Node000008" class="node">
<title>Node8</title>
<g id="a_Node000008"><a xlink:title=" ">
<polygon fill="#e0e0e0" stroke="#999999" points="445,-20 399.75,-20 399.75,0 445,0 445,-20"/>
<text text-anchor="middle" x="422.38" y="-6.5" font-family="Helvetica,sans-Serif" font-size="10.00">atomic</text>
</a>
</g>
</g>
<!-- Node1&#45;&gt;Node8 -->
<g id="edge27_Node000001_Node000008" class="edge">
<title>Node1&#45;&gt;Node8</title>
<g id="a_edge27_Node000001_Node000008"><a xlink:title=" ">
<path fill="none" stroke="#63b8ff" d="M605.6,-55.55C567.98,-47.43 512.55,-35.08 456.25,-20.65"/>
<polygon fill="#63b8ff" stroke="#63b8ff" points="457.38,-17.33 446.82,-18.21 455.63,-24.1 457.38,-17.33"/>
</a>
</g>
</g>
<!-- Node9 -->
<g id="Node000009" class="node">
<title>Node9</title>
<g id="a_Node000009"><a xlink:title=" ">
<polygon fill="#e0e0e0" stroke="#999999" points="508,-20 462.75,-20 462.75,0 508,0 508,-20"/>
<text text-anchor="middle" x="485.38" y="-6.5" font-family="Helvetica,sans-Serif" font-size="10.00">chrono</text>
</a>
</g>
</g>
<!-- Node1&#45;&gt;Node9 -->
<g id="edge28_Node000001_Node000009" class="edge">
<title>Node1&#45;&gt;Node9</title>
<g id="a_edge28_Node000001_Node000009"><a xlink:title=" ">
<path fill="none" stroke="#63b8ff" d="M621.63,-55.59C593.14,-46.27 549.5,-31.99 519.32,-22.11"/>
<polygon fill="#63b8ff" stroke="#63b8ff" points="520.5,-18.81 509.91,-19.03 518.32,-25.47 520.5,-18.81"/>
</a>
</g>
</g>
<!-- Node10 -->
<g id="Node000010" class="node">
<title>Node10</title>
<g id="a_Node000010"><a xlink:title=" ">
<polygon fill="#e0e0e0" stroke="#999999" points="568.88,-20 525.88,-20 525.88,0 568.88,0 568.88,-20"/>
<text text-anchor="middle" x="547.38" y="-6.5" font-family="Helvetica,sans-Serif" font-size="10.00">thread</text>
</a>
</g>
</g>
<!-- Node1&#45;&gt;Node10 -->
<g id="edge29_Node000001_Node000010" class="edge">
<title>Node1&#45;&gt;Node10</title>
<g id="a_edge29_Node000001_Node000010"><a xlink:title=" ">
<path fill="none" stroke="#63b8ff" d="M632.43,-55.59C616.73,-47.36 593.64,-35.26 575.49,-25.74"/>
<polygon fill="#63b8ff" stroke="#63b8ff" points="577.28,-22.73 566.8,-21.18 574.03,-28.93 577.28,-22.73"/>
</a>
</g>
</g>
<!-- Node11 -->
<g id="Node000011" class="node">
<title>Node11</title>
<g id="a_Node000011"><a xlink:title=" ">
<polygon fill="#e0e0e0" stroke="#999999" points="645.75,-20 587,-20 587,0 645.75,0 645.75,-20"/>
<text text-anchor="middle" x="616.38" y="-6.5" font-family="Helvetica,sans-Serif" font-size="10.00">stdexcept</text>
</a>
</g>
</g>
<!-- Node1&#45;&gt;Node11 -->
<g id="edge30_Node000001_Node000011" class="edge">
<title>Node1&#45;&gt;Node11</title>
<g id="a_edge30_Node000001_Node000011"><a xlink:title=" ">
<path fill="none" stroke="#63b8ff" d="M644.45,-55.59C640.02,-48.55 633.8,-38.67 628.34,-30"/>
<polygon fill="#63b8ff" stroke="#63b8ff" points="631.33,-28.18 623.04,-21.58 625.4,-31.91 631.33,-28.18"/>
</a>
</g>
</g>
<!-- Node12 -->
<g id="Node000012" class="node">
<title>Node12</title>
<g id="a_Node000012"><a xlink:title=" ">
<polygon fill="#e0e0e0" stroke="#999999" points="706.5,-20 664.25,-20 664.25,0 706.5,0 706.5,-20"/>
<text text-anchor="middle" x="685.38" y="-6.5" font-family="Helvetica,sans-Serif" font-size="10.00">cstdio</text>
</a>
</g>
</g>
<!-- Node1&#45;&gt;Node12 -->
<g id="edge31_Node000001_Node000012" class="edge">
<title>Node1&#45;&gt;Node12</title>
<g id="a_edge31_Node000001_Node000012"><a xlink:title=" ">
<path fill="none" stroke="#63b8ff" d="M656.47,-55.59C661.09,-48.47 667.58,-38.45 673.24,-29.72"/>
<polygon fill="#63b8ff" stroke="#63b8ff" points="676.02,-31.86 678.53,-21.57 670.15,-28.06 676.02,-31.86"/>
</a>
</g>
</g>
<!-- Node13 -->
<g id="Node000013" class="node">
<title>Node13</title>
<g id="a_Node000013"><a xlink:title=" ">
<polygon fill="#e0e0e0" stroke="#999999" points="768.62,-20 724.12,-20 724.12,0 768.62,0 768.62,-20"/>
<text text-anchor="middle" x="746.38" y="-6.5" font-family="Helvetica,sans-Serif" font-size="10.00">cstdlib</text>
</a>
</g>
</g>
<!-- Node1&#45;&gt;Node13 -->
<g id="edge32_Node000001_Node000013" class="edge">
<title>Node1&#45;&gt;Node13</title>
<g id="a_edge32_Node000001_Node000013"><a xlink:title=" ">
<path fill="none" stroke="#63b8ff" d="M667.1,-55.59C681.6,-47.44 702.85,-35.48 719.7,-26"/>
<polygon fill="#63b8ff" stroke="#63b8ff" points="721.2,-29.17 728.2,-21.22 717.77,-23.07 721.2,-29.17"/>
</a>
</g>
</g>
<!-- Node14 -->
<g id="Node000014" class="node">
<title>Node14</title>
<g id="a_Node000014"><a xlink:title=" ">
<polygon fill="#e0e0e0" stroke="#999999" points="850,-20 786.75,-20 786.75,0 850,0 850,-20"/>
<text text-anchor="middle" x="818.38" y="-6.5" font-family="Helvetica,sans-Serif" font-size="10.00">TlHelp32.h</text>
</a>
</g>
</g>
<!-- Node1&#45;&gt;Node14 -->
<g id="edge33_Node000001_Node000014" class="edge">
<title>Node1&#45;&gt;Node14</title>
<g id="a_edge33_Node000001_Node000014"><a xlink:title=" ">
<path fill="none" stroke="#63b8ff" d="M679.64,-55.59C706.93,-46.82 747.89,-33.66 778.23,-23.9"/>
<polygon fill="#63b8ff" stroke="#63b8ff" points="778.99,-27.33 787.44,-20.94 776.85,-20.67 778.99,-27.33"/>
</a>
</g>
</g>
<!-- Node15 -->
<g id="Node000015" class="node">
<title>Node15</title>
<g id="a_Node000015"><a xlink:title=" ">
<polygon fill="#e0e0e0" stroke="#999999" points="916.5,-20 868.25,-20 868.25,0 916.5,0 916.5,-20"/>
<text text-anchor="middle" x="892.38" y="-6.5" font-family="Helvetica,sans-Serif" font-size="10.00">direct.h</text>
</a>
</g>
</g>
<!-- Node1&#45;&gt;Node15 -->
<g id="edge34_Node000001_Node000015" class="edge">
<title>Node1&#45;&gt;Node15</title>
<g id="a_edge34_Node000001_Node000015"><a xlink:title=" ">
<path fill="none" stroke="#63b8ff" d="M697.86,-55.54C737.92,-47.39 797.04,-34.96 857.08,-20.46"/>
<polygon fill="#63b8ff" stroke="#63b8ff" points="857.55,-23.95 866.43,-18.19 855.89,-17.15 857.55,-23.95"/>
</a>
</g>
</g>
<!-- Node16 -->
<g id="Node000016" class="node">
<title>Node16</title>
<g id="a_Node000016"><a xlink:title=" ">
<polygon fill="#e0e0e0" stroke="#999999" points="983.88,-20 934.88,-20 934.88,0 983.88,0 983.88,-20"/>
<text text-anchor="middle" x="959.38" y="-6.5" font-family="Helvetica,sans-Serif" font-size="10.00">fstream</text>
</a>
</g>
</g>
<!-- Node1&#45;&gt;Node16 -->
<g id="edge35_Node000001_Node000016" class="edge">
<title>Node1&#45;&gt;Node16</title>
<g id="a_edge35_Node000001_Node000016"><a xlink:title=" ">
<path fill="none" stroke="#63b8ff" d="M704.15,-57.77C757.41,-50.26 841.48,-37.46 923.52,-20.21"/>
<polygon fill="#63b8ff" stroke="#63b8ff" points="924.03,-23.69 933.08,-18.18 922.57,-16.84 924.03,-23.69"/>
</a>
</g>
</g>
<!-- Node17 -->
<g id="Node000017" class="node">
<title>Node17</title>
<g id="a_Node000017"><a xlink:title=" ">
<polygon fill="#e0e0e0" stroke="#999999" points="1071,-20 1001.75,-20 1001.75,0 1071,0 1071,-20"/>
<text text-anchor="middle" x="1036.38" y="-6.5" font-family="Helvetica,sans-Serif" font-size="10.00">Netlistmgr.h</text>
</a>
</g>
</g>
<!-- Node1&#45;&gt;Node17 -->
<g id="edge36_Node000001_Node000017" class="edge">
<title>Node1&#45;&gt;Node17</title>
<g id="a_edge36_Node000001_Node000017"><a xlink:title=" ">
<path fill="none" stroke="#63b8ff" d="M704.03,-59.24C769.39,-51.93 883.4,-38.29 990.36,-20.41"/>
<polygon fill="#63b8ff" stroke="#63b8ff" points="990.91,-23.87 1000.19,-18.75 989.75,-16.96 990.91,-23.87"/>
</a>
</g>
</g>
<!-- Node18 -->
<g id="Node000018" class="node">
<title>Node18</title>
<g id="a_Node000018"><a xlink:title=" ">
<polygon fill="#e0e0e0" stroke="#999999" points="1129.38,-20 1089.38,-20 1089.38,0 1129.38,0 1129.38,-20"/>
<text text-anchor="middle" x="1109.38" y="-6.5" font-family="Helvetica,sans-Serif" font-size="10.00">bitset</text>
</a>
</g>
</g>
<!-- Node1&#45;&gt;Node18 -->
<g id="edge37_Node000001_Node000018" class="edge">
<title>Node1&#45;&gt;Node18</title>
<g id="a_edge37_Node000001_Node000018"><a xlink:title=" ">
<path fill="none" stroke="#63b8ff" d="M704.19,-62.77C784.04,-58.71 938.64,-48.01 1078.05,-20.11"/>
<polygon fill="#63b8ff" stroke="#63b8ff" points="1078.33,-23.63 1087.43,-18.2 1076.93,-16.77 1078.33,-23.63"/>
</a>
</g>
</g>
<!-- Node19 -->
<g id="Node000019" class="node">
<title>Node19</title>
<g id="a_Node000019"><a xlink:title=" ">
<polygon fill="#e0e0e0" stroke="#999999" points="1187.38,-20 1147.38,-20 1147.38,0 1187.38,0 1187.38,-20"/>
<text text-anchor="middle" x="1167.38" y="-6.5" font-family="Helvetica,sans-Serif" font-size="10.00">string</text>
</a>
</g>
</g>
<!-- Node1&#45;&gt;Node19 -->
<g id="edge38_Node000001_Node000019" class="edge">
<title>Node1&#45;&gt;Node19</title>
<g id="a_edge38_Node000001_Node000019"><a xlink:title=" ">
<path fill="none" stroke="#63b8ff" d="M703.97,-63.71C792.34,-60.79 974.14,-51.44 1135.81,-20.12"/>
<polygon fill="#63b8ff" stroke="#63b8ff" points="1136.3,-23.59 1145.43,-18.22 1134.94,-16.73 1136.3,-23.59"/>
</a>
</g>
</g>
<!-- Node20 -->
<g id="Node000020" class="node">
<title>Node20</title>
<g id="a_Node000020"><a xlink:title=" ">
<polygon fill="#e0e0e0" stroke="#999999" points="1237.25,-20 1205.5,-20 1205.5,0 1237.25,0 1237.25,-20"/>
<text text-anchor="middle" x="1221.38" y="-6.5" font-family="Helvetica,sans-Serif" font-size="10.00">io.h</text>
</a>
</g>
</g>
<!-- Node1&#45;&gt;Node20 -->
<g id="edge39_Node000001_Node000020" class="edge">
<title>Node1&#45;&gt;Node20</title>
<g id="a_edge39_Node000001_Node000020"><a xlink:title=" ">
<path fill="none" stroke="#63b8ff" d="M704.15,-65.23C800.88,-64.63 1010.47,-58.75 1193.94,-19.96"/>
<polygon fill="#63b8ff" stroke="#63b8ff" points="1194.63,-23.39 1203.67,-17.86 1193.16,-16.54 1194.63,-23.39"/>
</a>
</g>
</g>
<!-- Node21 -->
<g id="Node000021" class="node">
<title>Node21</title>
<g id="a_Node000021"><a xlink:title=" ">
<polygon fill="#e0e0e0" stroke="#999999" points="1315.88,-20 1254.88,-20 1254.88,0 1315.88,0 1315.88,-20"/>
<text text-anchor="middle" x="1285.38" y="-6.5" font-family="Helvetica,sans-Serif" font-size="10.00">filesystem</text>
</a>
</g>
</g>
<!-- Node1&#45;&gt;Node21 -->
<g id="edge40_Node000001_Node000021" class="edge">
<title>Node1&#45;&gt;Node21</title>
<g id="a_edge40_Node000001_Node000021"><a xlink:title=" ">
<path fill="none" stroke="#63b8ff" d="M704.11,-63.67C807.05,-60.52 1039.28,-50.59 1243.15,-20.29"/>
<polygon fill="#63b8ff" stroke="#63b8ff" points="1243.51,-23.78 1252.88,-18.83 1242.47,-16.86 1243.51,-23.78"/>
</a>
</g>
</g>
</g>
</svg>
