<?xml version="1.0" encoding="UTF-8" standalone="no"?>
<!DOCTYPE svg PUBLIC "-//W3C//DTD SVG 1.1//EN"
 "http://www.w3.org/Graphics/SVG/1.1/DTD/svg11.dtd">
<!-- Generated by graphviz version 12.2.0 (20241103.1931)
 -->
<!-- Title: src/BluestacksInstance.cpp Pages: 1 -->
<svg width="146pt" height="196pt"
 viewBox="0.00 0.00 145.50 196.00" xmlns="http://www.w3.org/2000/svg" xmlns:xlink="http://www.w3.org/1999/xlink">
<g id="graph0" class="graph" transform="scale(1 1) rotate(0) translate(4 192)">
<title>src/BluestacksInstance.cpp</title>
<!-- Node1 -->
<g id="Node000001" class="node">
<title>Node1</title>
<g id="a_Node000001"><a xlink:title=" ">
<polygon fill="#999999" stroke="#666666" points="137.5,-188 0,-188 0,-168 137.5,-168 137.5,-188"/>
<text text-anchor="middle" x="68.75" y="-174.5" font-family="Helvetica,sans-Serif" font-size="10.00">src/BluestacksInstance.cpp</text>
</a>
</g>
</g>
<!-- Node2 -->
<g id="Node000002" class="node">
<title>Node2</title>
<g id="a_Node000002"><a xlink:href="_bluestacks_instance_8h.html" target="_top" xlink:title=" ">
<polygon fill="white" stroke="#666666" points="124,-132 13.5,-132 13.5,-112 124,-112 124,-132"/>
<text text-anchor="middle" x="68.75" y="-118.5" font-family="Helvetica,sans-Serif" font-size="10.00">BluestacksInstance.h</text>
</a>
</g>
</g>
<!-- Node1&#45;&gt;Node2 -->
<g id="edge1_Node000001_Node000002" class="edge">
<title>Node1&#45;&gt;Node2</title>
<g id="a_edge1_Node000001_Node000002"><a xlink:title=" ">
<path fill="none" stroke="#63b8ff" d="M68.75,-167.59C68.75,-161.01 68.75,-151.96 68.75,-143.73"/>
<polygon fill="#63b8ff" stroke="#63b8ff" points="72.25,-143.81 68.75,-133.81 65.25,-143.81 72.25,-143.81"/>
</a>
</g>
</g>
<!-- Node3 -->
<g id="Node000003" class="node">
<title>Node3</title>
<g id="a_Node000003"><a xlink:href="_instance_8h.html" target="_top" xlink:title=" ">
<polygon fill="white" stroke="#666666" points="99.62,-76 37.88,-76 37.88,-56 99.62,-56 99.62,-76"/>
<text text-anchor="middle" x="68.75" y="-62.5" font-family="Helvetica,sans-Serif" font-size="10.00">Instance.h</text>
</a>
</g>
</g>
<!-- Node2&#45;&gt;Node3 -->
<g id="edge2_Node000002_Node000003" class="edge">
<title>Node2&#45;&gt;Node3</title>
<g id="a_edge2_Node000002_Node000003"><a xlink:title=" ">
<path fill="none" stroke="#63b8ff" d="M68.75,-111.59C68.75,-105.01 68.75,-95.96 68.75,-87.73"/>
<polygon fill="#63b8ff" stroke="#63b8ff" points="72.25,-87.81 68.75,-77.81 65.25,-87.81 72.25,-87.81"/>
</a>
</g>
</g>
<!-- Node4 -->
<g id="Node000004" class="node">
<title>Node4</title>
<g id="a_Node000004"><a xlink:title=" ">
<polygon fill="#e0e0e0" stroke="#999999" points="56.75,-20 16.75,-20 16.75,0 56.75,0 56.75,-20"/>
<text text-anchor="middle" x="36.75" y="-6.5" font-family="Helvetica,sans-Serif" font-size="10.00">string</text>
</a>
</g>
</g>
<!-- Node3&#45;&gt;Node4 -->
<g id="edge3_Node000003_Node000004" class="edge">
<title>Node3&#45;&gt;Node4</title>
<g id="a_edge3_Node000003_Node000004"><a xlink:title=" ">
<path fill="none" stroke="#63b8ff" d="M63.18,-55.59C59,-48.55 53.15,-38.67 48.01,-30"/>
<polygon fill="#63b8ff" stroke="#63b8ff" points="51.14,-28.42 43.03,-21.6 45.12,-31.99 51.14,-28.42"/>
</a>
</g>
</g>
<!-- Node5 -->
<g id="Node000005" class="node">
<title>Node5</title>
<g id="a_Node000005"><a xlink:title=" ">
<polygon fill="#e0e0e0" stroke="#999999" points="128.5,-20 75,-20 75,0 128.5,0 128.5,-20"/>
<text text-anchor="middle" x="101.75" y="-6.5" font-family="Helvetica,sans-Serif" font-size="10.00">iostream</text>
</a>
</g>
</g>
<!-- Node3&#45;&gt;Node5 -->
<g id="edge4_Node000003_Node000005" class="edge">
<title>Node3&#45;&gt;Node5</title>
<g id="a_edge4_Node000003_Node000005"><a xlink:title=" ">
<path fill="none" stroke="#63b8ff" d="M74.5,-55.59C78.8,-48.55 84.84,-38.67 90.14,-30"/>
<polygon fill="#63b8ff" stroke="#63b8ff" points="93.05,-31.95 95.28,-21.59 87.08,-28.3 93.05,-31.95"/>
</a>
</g>
</g>
</g>
</svg>
