<?xml version="1.0" encoding="UTF-8" standalone="no"?>
<!DOCTYPE svg PUBLIC "-//W3C//DTD SVG 1.1//EN"
 "http://www.w3.org/Graphics/SVG/1.1/DTD/svg11.dtd">
<!-- Generated by graphviz version 12.2.0 (20241103.1931)
 -->
<!-- Title: isIdentifier Pages: 1 -->
<svg width="317pt" height="142pt"
 viewBox="0.00 0.00 317.00 142.00" xmlns="http://www.w3.org/2000/svg" xmlns:xlink="http://www.w3.org/1999/xlink">
<g id="graph0" class="graph" transform="scale(1 1) rotate(0) translate(4 138)">
<title>isIdentifier</title>
<!-- Node1 -->
<g id="Node000001" class="node">
<title>Node1</title>
<g id="a_Node000001"><a xlink:title=" ">
<polygon fill="#999999" stroke="#666666" points="61,-77 0,-77 0,-57 61,-57 61,-77"/>
<text text-anchor="middle" x="30.5" y="-63.5" font-family="Helvetica,sans-Serif" font-size="10.00">isIdentifier</text>
</a>
</g>
</g>
<!-- Node2 -->
<g id="Node000002" class="node">
<title>Node2</title>
<g id="a_Node000002"><a xlink:href="_interpretor_8cpp.html#ad42767aaf8252eb57581d009530bd527" target="_top" xlink:title=" ">
<polygon fill="white" stroke="#666666" points="172.25,-77 97,-77 97,-57 172.25,-57 172.25,-77"/>
<text text-anchor="middle" x="134.62" y="-63.5" font-family="Helvetica,sans-Serif" font-size="10.00">isTokenString</text>
</a>
</g>
</g>
<!-- Node1&#45;&gt;Node2 -->
<g id="edge1_Node000001_Node000002" class="edge">
<title>Node1&#45;&gt;Node2</title>
<g id="a_edge1_Node000001_Node000002"><a xlink:title=" ">
<path fill="none" stroke="#63b8ff" d="M61.31,-67C68.84,-67 77.11,-67 85.29,-67"/>
<polygon fill="#63b8ff" stroke="#63b8ff" points="85.19,-70.5 95.19,-67 85.19,-63.5 85.19,-70.5"/>
</a>
</g>
</g>
<!-- Node3 -->
<g id="Node000003" class="node">
<title>Node3</title>
<g id="a_Node000003"><a xlink:href="_interpretor_8cpp.html#a3276e6efe4a3f409262ffe0b345e9636" target="_top" xlink:title=" ">
<polygon fill="white" stroke="#666666" points="302.25,-134 215,-134 215,-114 302.25,-114 302.25,-134"/>
<text text-anchor="middle" x="258.62" y="-120.5" font-family="Helvetica,sans-Serif" font-size="10.00">isKeywordString</text>
</a>
</g>
</g>
<!-- Node2&#45;&gt;Node3 -->
<g id="edge2_Node000002_Node000003" class="edge">
<title>Node2&#45;&gt;Node3</title>
<g id="a_edge2_Node000002_Node000003"><a xlink:title=" ">
<path fill="none" stroke="#63b8ff" d="M154.14,-77.44C168.65,-85.44 189.45,-96.5 208.25,-105 211.56,-106.49 215.02,-107.98 218.51,-109.43"/>
<polygon fill="#63b8ff" stroke="#63b8ff" points="216.95,-112.57 227.53,-113.04 219.55,-106.07 216.95,-112.57"/>
</a>
</g>
</g>
<!-- Node4 -->
<g id="Node000004" class="node">
<title>Node4</title>
<g id="a_Node000004"><a xlink:href="_interpretor_8cpp.html#ae8bab56314c8b787497a84c189b9114d" target="_top" xlink:title=" ">
<polygon fill="white" stroke="#666666" points="296.25,-96 221,-96 221,-76 296.25,-76 296.25,-96"/>
<text text-anchor="middle" x="258.62" y="-82.5" font-family="Helvetica,sans-Serif" font-size="10.00">isLiteralString</text>
</a>
</g>
</g>
<!-- Node2&#45;&gt;Node4 -->
<g id="edge3_Node000002_Node000004" class="edge">
<title>Node2&#45;&gt;Node4</title>
<g id="a_edge3_Node000002_Node000004"><a xlink:title=" ">
<path fill="none" stroke="#63b8ff" d="M172.56,-72.75C184.27,-74.58 197.38,-76.62 209.74,-78.54"/>
<polygon fill="#63b8ff" stroke="#63b8ff" points="208.9,-81.95 219.32,-80.03 209.98,-75.04 208.9,-81.95"/>
</a>
</g>
</g>
<!-- Node5 -->
<g id="Node000005" class="node">
<title>Node5</title>
<g id="a_Node000005"><a xlink:href="_interpretor_8cpp.html#ae80d3823673e42ed3ce7e84597bbd552" target="_top" xlink:title=" ">
<polygon fill="white" stroke="#666666" points="301.88,-58 215.38,-58 215.38,-38 301.88,-38 301.88,-58"/>
<text text-anchor="middle" x="258.62" y="-44.5" font-family="Helvetica,sans-Serif" font-size="10.00">isOperatorString</text>
</a>
</g>
</g>
<!-- Node2&#45;&gt;Node5 -->
<g id="edge4_Node000002_Node000005" class="edge">
<title>Node2&#45;&gt;Node5</title>
<g id="a_edge4_Node000002_Node000005"><a xlink:title=" ">
<path fill="none" stroke="#63b8ff" d="M172.56,-61.25C182.45,-59.71 193.34,-58.01 203.94,-56.36"/>
<polygon fill="#63b8ff" stroke="#63b8ff" points="204.42,-59.83 213.76,-54.83 203.34,-52.91 204.42,-59.83"/>
</a>
</g>
</g>
<!-- Node6 -->
<g id="Node000006" class="node">
<title>Node6</title>
<g id="a_Node000006"><a xlink:href="_interpretor_8cpp.html#ad93eecc58b3fdba57ba605dcb296f03e" target="_top" xlink:title=" ">
<polygon fill="white" stroke="#666666" points="309,-20 208.25,-20 208.25,0 309,0 309,-20"/>
<text text-anchor="middle" x="258.62" y="-6.5" font-family="Helvetica,sans-Serif" font-size="10.00">isPunctuationString</text>
</a>
</g>
</g>
<!-- Node2&#45;&gt;Node6 -->
<g id="edge5_Node000002_Node000006" class="edge">
<title>Node2&#45;&gt;Node6</title>
<g id="a_edge5_Node000002_Node000006"><a xlink:title=" ">
<path fill="none" stroke="#63b8ff" d="M154.14,-56.56C168.65,-48.56 189.45,-37.5 208.25,-29 211.56,-27.51 215.02,-26.02 218.51,-24.57"/>
<polygon fill="#63b8ff" stroke="#63b8ff" points="219.55,-27.93 227.53,-20.96 216.95,-21.43 219.55,-27.93"/>
</a>
</g>
</g>
</g>
</svg>
