<?xml version="1.0" encoding="UTF-8" standalone="no"?>
<!DOCTYPE svg PUBLIC "-//W3C//DTD SVG 1.1//EN"
 "http://www.w3.org/Graphics/SVG/1.1/DTD/svg11.dtd">
<!-- Generated by graphviz version 12.2.0 (20241103.1931)
 -->
<!-- Title: getNextTokenValue Pages: 1 -->
<!--zoomable 161 -->

<svg id="main" version="1.1" xmlns="http://www.w3.org/2000/svg" xmlns:xlink="http://www.w3.org/1999/xlink" xml:space="preserve" onload="init(evt)">

<style type="text/css"><![CDATA[
.node, .edge {opacity: 0.7;}
.node.selected, .edge.selected {opacity: 1;}
.edge:hover path { stroke: red; }
.edge:hover polygon { stroke: red; fill: red; }
]]></style>

<defs>
  <circle id="rim" cx="0" cy="0" r="7"/>
  <circle id="rim2" cx="0" cy="0" r="3.5"/>
  <g id="zoomPlus">
    <use xlink:href="#rim" fill="#404040"><set attributeName="fill" to="#808080" begin="zoomplus.mouseover" end="zoomplus.mouseout"/></use>
    <path d="M-4,0h8M0,-4v8" fill="none" stroke="white" stroke-width="1.5" pointer-events="none"/>
  </g>
  <g id="zoomMin">
    <use xlink:href="#rim" fill="#404040"><set attributeName="fill" to="#808080" begin="zoomminus.mouseover" end="zoomminus.mouseout"/></use>
    <path d="M-4,0h8" fill="none" stroke="white" stroke-width="1.5" pointer-events="none"/>
  </g>
  <g id="arrowUp" transform="translate(30 24)">
    <use xlink:href="#rim"/>
    <path pointer-events="none" fill="none" stroke="white" stroke-width="1.5" d="M0,-3.0v7 M-2.5,-0.5L0,-3.0L2.5,-0.5"/>
  </g>
  <g id="arrowRight" transform="rotate(90) translate(36 -43)">
    <use xlink:href="#rim"/>
    <path pointer-events="none" fill="none" stroke="white" stroke-width="1.5" d="M0,-3.0v7 M-2.5,-0.5L0,-3.0L2.5,-0.5"/>
  </g>
  <g id="arrowDown" transform="rotate(180) translate(-30 -48)">
    <use xlink:href="#rim"/>
    <path pointer-events="none" fill="none" stroke="white" stroke-width="1.5" d="M0,-3.0v7 M-2.5,-0.5L0,-3.0L2.5,-0.5"/>
  </g>
  <g id="arrowLeft" transform="rotate(270) translate(-36 17)">
    <use xlink:href="#rim"/>
    <path pointer-events="none" fill="none" stroke="white" stroke-width="1.5" d="M0,-3.0v7 M-2.5,-0.5L0,-3.0L2.5,-0.5"/>
  </g>
  <g id="resetDef">
    <use xlink:href="#rim2" fill="#404040"><set attributeName="fill" to="#808080" begin="reset.mouseover" end="reset.mouseout"/></use>
  </g>
</defs>
<script type="application/ecmascript">
var viewWidth = 660;
var viewHeight = 161;
var sectionId = 'dynsection-4';
</script>
<script type="application/ecmascript" xlink:href="svg.min.js"/>
<svg id="graph" class="graph">
<g id="viewport">
<title>getNextTokenValue</title>
<!-- Node1 -->
<g id="Node000001" class="node">
<title>Node1</title>
<g id="a_Node000001"><a xlink:title=" ">
<polygon fill="#999999" stroke="#666666" points="100.75,-96 0,-96 0,-76 100.75,-76 100.75,-96"/>
<text text-anchor="middle" x="50.38" y="-82.5" font-family="Helvetica,sans-Serif" font-size="10.00">getNextTokenValue</text>
</a>
</g>
</g>
<!-- Node2 -->
<g id="Node000002" class="node">
<title>Node2</title>
<g id="a_Node000002"><a xlink:href="_interpretor_8cpp.html#aeadcc798628a739f30945ade9bf7c9a1" target="_top" xlink:title=" ">
<polygon fill="white" stroke="#666666" points="239,-115 136.75,-115 136.75,-95 239,-95 239,-115"/>
<text text-anchor="middle" x="187.88" y="-101.5" font-family="Helvetica,sans-Serif" font-size="10.00">getNextTokenString</text>
</a>
</g>
</g>
<!-- Node1&#45;&gt;Node2 -->
<g id="edge1_Node000001_Node000002" class="edge">
<title>Node1&#45;&gt;Node2</title>
<g id="a_edge1_Node000001_Node000002"><a xlink:title=" ">
<path fill="none" stroke="#63b8ff" d="M101.06,-92.97C108.86,-94.06 117.01,-95.2 125.05,-96.33"/>
<polygon fill="#63b8ff" stroke="#63b8ff" points="124.4,-99.77 134.79,-97.7 125.37,-92.84 124.4,-99.77"/>
</a>
</g>
</g>
<!-- Node6 -->
<g id="Node000006" class="node">
<title>Node6</title>
<g id="a_Node000006"><a xlink:href="_interpretor_8cpp.html#a0060c66efc18253619637b287095821c" target="_top" xlink:title=" ">
<polygon fill="white" stroke="#666666" points="227.75,-77 148,-77 148,-57 227.75,-57 227.75,-77"/>
<text text-anchor="middle" x="187.88" y="-63.5" font-family="Helvetica,sans-Serif" font-size="10.00">getTokenValue</text>
</a>
</g>
</g>
<!-- Node1&#45;&gt;Node6 -->
<g id="edge5_Node000001_Node000006" class="edge">
<title>Node1&#45;&gt;Node6</title>
<g id="a_edge5_Node000001_Node000006"><a xlink:title=" ">
<path fill="none" stroke="#63b8ff" d="M101.06,-79.03C112.62,-77.41 124.93,-75.69 136.51,-74.06"/>
<polygon fill="#63b8ff" stroke="#63b8ff" points="136.89,-77.54 146.3,-72.69 135.91,-70.61 136.89,-77.54"/>
</a>
</g>
</g>
<!-- Node3 -->
<g id="Node000003" class="node">
<title>Node3</title>
<g id="a_Node000003"><a xlink:href="_text_manager_8cpp.html#a377407ab4c28873a8e1956ea343f9cc2" target="_top" xlink:title=" ">
<polygon fill="white" stroke="#666666" points="385.5,-153 293,-153 293,-133 385.5,-133 385.5,-153"/>
<text text-anchor="middle" x="339.25" y="-139.5" font-family="Helvetica,sans-Serif" font-size="10.00">getContentBefore</text>
</a>
</g>
</g>
<!-- Node2&#45;&gt;Node3 -->
<g id="edge2_Node000002_Node000003" class="edge">
<title>Node2&#45;&gt;Node3</title>
<g id="a_edge2_Node000002_Node000003"><a xlink:title=" ">
<path fill="none" stroke="#63b8ff" d="M230.09,-115.48C247.39,-119.89 267.72,-125.06 286.06,-129.72"/>
<polygon fill="#63b8ff" stroke="#63b8ff" points="285.15,-133.1 295.7,-132.18 286.88,-126.32 285.15,-133.1"/>
</a>
</g>
</g>
<!-- Node5 -->
<g id="Node000005" class="node">
<title>Node5</title>
<g id="a_Node000005"><a xlink:href="_interpretor_8cpp.html#a44cd9137229f6cc0f965ce359f482379" target="_top" xlink:title=" ">
<polygon fill="white" stroke="#666666" points="403.5,-115 275,-115 275,-95 403.5,-95 403.5,-115"/>
<text text-anchor="middle" x="339.25" y="-101.5" font-family="Helvetica,sans-Serif" font-size="10.00">getNextPunctuationToken</text>
</a>
</g>
</g>
<!-- Node2&#45;&gt;Node5 -->
<g id="edge4_Node000002_Node000005" class="edge">
<title>Node2&#45;&gt;Node5</title>
<g id="a_edge4_Node000002_Node000005"><a xlink:title=" ">
<path fill="none" stroke="#63b8ff" d="M239.45,-105C247.16,-105 255.25,-105 263.34,-105"/>
<polygon fill="#63b8ff" stroke="#63b8ff" points="263.24,-108.5 273.24,-105 263.24,-101.5 263.24,-108.5"/>
</a>
</g>
</g>
<!-- Node4 -->
<g id="Node000004" class="node">
<title>Node4</title>
<g id="a_Node000004"><a xlink:href="_text_manager_8cpp.html#afbb8972025ad14e914fdaafa26957439" target="_top" xlink:title=" ">
<polygon fill="white" stroke="#666666" points="501.62,-153 452.62,-153 452.62,-133 501.62,-133 501.62,-153"/>
<text text-anchor="middle" x="477.12" y="-139.5" font-family="Helvetica,sans-Serif" font-size="10.00">findPos</text>
</a>
</g>
</g>
<!-- Node3&#45;&gt;Node4 -->
<g id="edge3_Node000003_Node000004" class="edge">
<title>Node3&#45;&gt;Node4</title>
<g id="a_edge3_Node000003_Node000004"><a xlink:title=" ">
<path fill="none" stroke="#63b8ff" d="M385.87,-143C403.74,-143 423.92,-143 440.67,-143"/>
<polygon fill="#63b8ff" stroke="#63b8ff" points="440.65,-146.5 450.65,-143 440.65,-139.5 440.65,-146.5"/>
</a>
</g>
</g>
<!-- Node7 -->
<g id="Node000007" class="node">
<title>Node7</title>
<g id="a_Node000007"><a xlink:href="_interpretor_8cpp.html#a32fa5cbc79c968c5b53e8303ad77091d" target="_top" xlink:title=" ">
<polygon fill="white" stroke="#666666" points="369.75,-77 308.75,-77 308.75,-57 369.75,-57 369.75,-77"/>
<text text-anchor="middle" x="339.25" y="-63.5" font-family="Helvetica,sans-Serif" font-size="10.00">isIdentifier</text>
</a>
</g>
</g>
<!-- Node6&#45;&gt;Node7 -->
<g id="edge6_Node000006_Node000007" class="edge">
<title>Node6&#45;&gt;Node7</title>
<g id="a_edge6_Node000006_Node000007"><a xlink:title=" ">
<path fill="none" stroke="#63b8ff" d="M228.12,-67C249.42,-67 275.72,-67 297.28,-67"/>
<polygon fill="#63b8ff" stroke="#63b8ff" points="297.19,-70.5 307.19,-67 297.19,-63.5 297.19,-70.5"/>
</a>
</g>
</g>
<!-- Node13 -->
<g id="Node000013" class="node">
<title>Node13</title>
<g id="a_Node000013"><a xlink:href="_interpretor_8cpp.html#aaa3b01d6b7b6b5bf4b868b37fcf3ac6f" target="_top" xlink:title=" ">
<polygon fill="white" stroke="#666666" points="368.25,-39 310.25,-39 310.25,-19 368.25,-19 368.25,-39"/>
<text text-anchor="middle" x="339.25" y="-25.5" font-family="Helvetica,sans-Serif" font-size="10.00">isNumber</text>
</a>
</g>
</g>
<!-- Node6&#45;&gt;Node13 -->
<g id="edge12_Node000006_Node000013" class="edge">
<title>Node6&#45;&gt;Node13</title>
<g id="a_edge12_Node000006_Node000013"><a xlink:title=" ">
<path fill="none" stroke="#63b8ff" d="M228.12,-57.02C250.06,-51.44 277.3,-44.5 299.2,-38.93"/>
<polygon fill="#63b8ff" stroke="#63b8ff" points="299.82,-42.39 308.65,-36.53 298.09,-35.6 299.82,-42.39"/>
</a>
</g>
</g>
<!-- Node8 -->
<g id="Node000008" class="node">
<title>Node8</title>
<g id="a_Node000008"><a xlink:href="_interpretor_8cpp.html#ad42767aaf8252eb57581d009530bd527" target="_top" xlink:title=" ">
<polygon fill="white" stroke="#666666" points="514.75,-77 439.5,-77 439.5,-57 514.75,-57 514.75,-77"/>
<text text-anchor="middle" x="477.12" y="-63.5" font-family="Helvetica,sans-Serif" font-size="10.00">isTokenString</text>
</a>
</g>
</g>
<!-- Node7&#45;&gt;Node8 -->
<g id="edge7_Node000007_Node000008" class="edge">
<title>Node7&#45;&gt;Node8</title>
<g id="a_edge7_Node000007_Node000008"><a xlink:title=" ">
<path fill="none" stroke="#63b8ff" d="M370.07,-67C386.97,-67 408.52,-67 427.78,-67"/>
<polygon fill="#63b8ff" stroke="#63b8ff" points="427.59,-70.5 437.59,-67 427.59,-63.5 427.59,-70.5"/>
</a>
</g>
</g>
<!-- Node9 -->
<g id="Node000009" class="node">
<title>Node9</title>
<g id="a_Node000009"><a xlink:href="_interpretor_8cpp.html#a3276e6efe4a3f409262ffe0b345e9636" target="_top" xlink:title=" ">
<polygon fill="white" stroke="#666666" points="644.75,-134 557.5,-134 557.5,-114 644.75,-114 644.75,-134"/>
<text text-anchor="middle" x="601.12" y="-120.5" font-family="Helvetica,sans-Serif" font-size="10.00">isKeywordString</text>
</a>
</g>
</g>
<!-- Node8&#45;&gt;Node9 -->
<g id="edge8_Node000008_Node000009" class="edge">
<title>Node8&#45;&gt;Node9</title>
<g id="a_edge8_Node000008_Node000009"><a xlink:title=" ">
<path fill="none" stroke="#63b8ff" d="M496.64,-77.44C511.15,-85.44 531.95,-96.5 550.75,-105 554.06,-106.49 557.52,-107.98 561.01,-109.43"/>
<polygon fill="#63b8ff" stroke="#63b8ff" points="559.45,-112.57 570.03,-113.04 562.05,-106.07 559.45,-112.57"/>
</a>
</g>
</g>
<!-- Node10 -->
<g id="Node000010" class="node">
<title>Node10</title>
<g id="a_Node000010"><a xlink:href="_interpretor_8cpp.html#ae8bab56314c8b787497a84c189b9114d" target="_top" xlink:title=" ">
<polygon fill="white" stroke="#666666" points="638.75,-96 563.5,-96 563.5,-76 638.75,-76 638.75,-96"/>
<text text-anchor="middle" x="601.12" y="-82.5" font-family="Helvetica,sans-Serif" font-size="10.00">isLiteralString</text>
</a>
</g>
</g>
<!-- Node8&#45;&gt;Node10 -->
<g id="edge9_Node000008_Node000010" class="edge">
<title>Node8&#45;&gt;Node10</title>
<g id="a_edge9_Node000008_Node000010"><a xlink:title=" ">
<path fill="none" stroke="#63b8ff" d="M515.06,-72.75C526.77,-74.58 539.88,-76.62 552.24,-78.54"/>
<polygon fill="#63b8ff" stroke="#63b8ff" points="551.4,-81.95 561.82,-80.03 552.48,-75.04 551.4,-81.95"/>
</a>
</g>
</g>
<!-- Node11 -->
<g id="Node000011" class="node">
<title>Node11</title>
<g id="a_Node000011"><a xlink:href="_interpretor_8cpp.html#ae80d3823673e42ed3ce7e84597bbd552" target="_top" xlink:title=" ">
<polygon fill="white" stroke="#666666" points="644.38,-58 557.88,-58 557.88,-38 644.38,-38 644.38,-58"/>
<text text-anchor="middle" x="601.12" y="-44.5" font-family="Helvetica,sans-Serif" font-size="10.00">isOperatorString</text>
</a>
</g>
</g>
<!-- Node8&#45;&gt;Node11 -->
<g id="edge10_Node000008_Node000011" class="edge">
<title>Node8&#45;&gt;Node11</title>
<g id="a_edge10_Node000008_Node000011"><a xlink:title=" ">
<path fill="none" stroke="#63b8ff" d="M515.06,-61.25C524.95,-59.71 535.84,-58.01 546.44,-56.36"/>
<polygon fill="#63b8ff" stroke="#63b8ff" points="546.92,-59.83 556.26,-54.83 545.84,-52.91 546.92,-59.83"/>
</a>
</g>
</g>
<!-- Node12 -->
<g id="Node000012" class="node">
<title>Node12</title>
<g id="a_Node000012"><a xlink:href="_interpretor_8cpp.html#ad93eecc58b3fdba57ba605dcb296f03e" target="_top" xlink:title=" ">
<polygon fill="white" stroke="#666666" points="651.5,-20 550.75,-20 550.75,0 651.5,0 651.5,-20"/>
<text text-anchor="middle" x="601.12" y="-6.5" font-family="Helvetica,sans-Serif" font-size="10.00">isPunctuationString</text>
</a>
</g>
</g>
<!-- Node8&#45;&gt;Node12 -->
<g id="edge11_Node000008_Node000012" class="edge">
<title>Node8&#45;&gt;Node12</title>
<g id="a_edge11_Node000008_Node000012"><a xlink:title=" ">
<path fill="none" stroke="#63b8ff" d="M496.64,-56.56C511.15,-48.56 531.95,-37.5 550.75,-29 554.06,-27.51 557.52,-26.02 561.01,-24.57"/>
<polygon fill="#63b8ff" stroke="#63b8ff" points="562.05,-27.93 570.03,-20.96 559.45,-21.43 562.05,-27.93"/>
</a>
</g>
</g>
</g>
</svg>

<g id="navigator" transform="translate(0 0)" fill="#404254">
  <rect fill="#f2f5e9" fill-opacity="0.5" stroke="#606060" stroke-width=".5" x="0" y="0" width="60" height="60"/>
  <use id="zoomplus" xlink:href="#zoomPlus" x="17" y="9" onmousedown="handleZoom(evt,'in')"/>
  <use id="zoomminus" xlink:href="#zoomMin" x="42" y="9" onmousedown="handleZoom(evt,'out')"/>
  <use id="reset" xlink:href="#resetDef" x="30" y="36" onmousedown="handleReset()"/>
   <use id="arrowup" xlink:href="#arrowUp" x="0" y="0" onmousedown="handlePan(0,-1)"/>
  <use id="arrowright" xlink:href="#arrowRight" x="0" y="0" onmousedown="handlePan(1,0)"/>
  <use id="arrowdown" xlink:href="#arrowDown" x="0" y="0" onmousedown="handlePan(0,1)"/>
  <use id="arrowleft" xlink:href="#arrowLeft" x="0" y="0" onmousedown="handlePan(-1,0)"/>
</g>
<svg viewBox="0 0 15 15" width="100%" height="30px" preserveAspectRatio="xMaxYMin meet">
 <g id="arrow_out" transform="scale(0.3 0.3)">
  <a xlink:href="_interpretor_8cpp_a1efffcc83c5a23c247b70fca364ece06_cgraph_org.svg" target="_base">
   <rect id="button" ry="5" rx="5" y="6" x="6" height="38" width="38"
        fill="#f2f5e9" fill-opacity="0.5" stroke="#606060" stroke-width="1.0"/>
   <path id="arrow"
     d="M 11.500037,31.436501 C 11.940474,20.09759 22.043105,11.32322 32.158766,21.979434 L 37.068811,17.246167 C 37.068811,17.246167 37.088388,32 37.088388,32 L 22.160133,31.978069 C 22.160133,31.978069 26.997745,27.140456 26.997745,27.140456 C 18.528582,18.264221 13.291696,25.230495 11.500037,31.436501 z"
     style="fill:#404040;"/>
  </a>
 </g>
</svg>

<style type='text/css'>
<![CDATA[
[data-mouse-over-selected='false'] { opacity: 0.7; }
[data-mouse-over-selected='true']  { opacity: 1.0; }
]]>
</style>
<script type="application/ecmascript"><![CDATA[
document.addEventListener('DOMContentLoaded', (event) => {
  highlightEdges();
  highlightAdjacentNodes();
});
]]></script>
</svg>
