<?xml version="1.0" encoding="UTF-8" standalone="no"?>
<!DOCTYPE svg PUBLIC "-//W3C//DTD SVG 1.1//EN"
 "http://www.w3.org/Graphics/SVG/1.1/DTD/svg11.dtd">
<!-- Generated by graphviz version 12.2.0 (20241103.1931)
 -->
<!-- Title: isType Pages: 1 -->
<svg width="337pt" height="28pt"
 viewBox="0.00 0.00 336.50 28.00" xmlns="http://www.w3.org/2000/svg" xmlns:xlink="http://www.w3.org/1999/xlink">
<g id="graph0" class="graph" transform="scale(1 1) rotate(0) translate(4 24)">
<title>isType</title>
<!-- Node1 -->
<g id="Node000001" class="node">
<title>Node1</title>
<g id="a_Node000001"><a xlink:title=" ">
<polygon fill="#999999" stroke="#666666" points="328.5,-20 284,-20 284,0 328.5,0 328.5,-20"/>
<text text-anchor="middle" x="306.25" y="-6.5" font-family="Helvetica,sans-Serif" font-size="10.00">isType</text>
</a>
</g>
</g>
<!-- Node2 -->
<g id="Node000002" class="node">
<title>Node2</title>
<g id="a_Node000002"><a xlink:href="class_list_token.html#aea0a223d95a5cef71aa01f13bae99b9f" target="_top" xlink:title=" ">
<polygon fill="white" stroke="#666666" points="248,-20 147.25,-20 147.25,0 248,0 248,-20"/>
<text text-anchor="middle" x="197.62" y="-6.5" font-family="Helvetica,sans-Serif" font-size="10.00">ListToken::addType</text>
</a>
</g>
</g>
<!-- Node1&#45;&gt;Node2 -->
<g id="edge1_Node000001_Node000002" class="edge">
<title>Node1&#45;&gt;Node2</title>
<g id="a_edge1_Node000001_Node000002"><a xlink:title=" ">
<path fill="none" stroke="#63b8ff" d="M272.37,-10C264.77,-10 256.51,-10 248.37,-10"/>
<polygon fill="#63b8ff" stroke="#63b8ff" points="272.16,-13.5 282.16,-10 272.16,-6.5 272.16,-13.5"/>
</a>
</g>
</g>
<!-- Node3 -->
<g id="Node000003" class="node">
<title>Node3</title>
<g id="a_Node000003"><a xlink:href="class_list_token.html#ad933b167a7d348852edf2700a8c2985b" target="_top" xlink:title=" ">
<polygon fill="white" stroke="#666666" points="111.25,-20 0,-20 0,0 111.25,0 111.25,-20"/>
<text text-anchor="middle" x="55.62" y="-6.5" font-family="Helvetica,sans-Serif" font-size="10.00">ListToken::addTokens</text>
</a>
</g>
</g>
<!-- Node2&#45;&gt;Node3 -->
<g id="edge2_Node000002_Node000003" class="edge">
<title>Node2&#45;&gt;Node3</title>
<g id="a_edge2_Node000002_Node000003"><a xlink:title=" ">
<path fill="none" stroke="#63b8ff" d="M135.37,-10C127.41,-10 119.3,-10 111.45,-10"/>
<polygon fill="#63b8ff" stroke="#63b8ff" points="135.36,-13.5 145.36,-10 135.36,-6.5 135.36,-13.5"/>
</a>
</g>
</g>
</g>
</svg>
