<?xml version="1.0" encoding="UTF-8" standalone="no"?>
<!DOCTYPE svg PUBLIC "-//W3C//DTD SVG 1.1//EN"
 "http://www.w3.org/Graphics/SVG/1.1/DTD/svg11.dtd">
<!-- Generated by graphviz version 12.2.0 (20241103.1931)
 -->
<!-- Title: isIdentifier Pages: 1 -->
<svg width="1713pt" height="122pt"
 viewBox="0.00 0.00 1713.25 122.00" xmlns="http://www.w3.org/2000/svg" xmlns:xlink="http://www.w3.org/1999/xlink">
<g id="graph0" class="graph" transform="scale(1 1) rotate(0) translate(4 118)">
<title>isIdentifier</title>
<!-- Node1 -->
<g id="Node000001" class="node">
<title>Node1</title>
<g id="a_Node000001"><a xlink:title=" ">
<polygon fill="#999999" stroke="#666666" points="1705.25,-95 1644.25,-95 1644.25,-75 1705.25,-75 1705.25,-95"/>
<text text-anchor="middle" x="1674.75" y="-81.5" font-family="Helvetica,sans-Serif" font-size="10.00">isIdentifier</text>
</a>
</g>
</g>
<!-- Node2 -->
<g id="Node000002" class="node">
<title>Node2</title>
<g id="a_Node000002"><a xlink:href="class_store_token.html#abbb9193503dd3dc6f03f96be9f71b45a" target="_top" xlink:title=" ">
<polygon fill="white" stroke="#666666" points="1608.25,-114 1483.5,-114 1483.5,-94 1608.25,-94 1608.25,-114"/>
<text text-anchor="middle" x="1545.88" y="-100.5" font-family="Helvetica,sans-Serif" font-size="10.00">StoreToken::addIdentifier</text>
</a>
</g>
</g>
<!-- Node1&#45;&gt;Node2 -->
<g id="edge1_Node000001_Node000002" class="edge">
<title>Node1&#45;&gt;Node2</title>
<g id="a_edge1_Node000001_Node000002"><a xlink:title=" ">
<path fill="none" stroke="#63b8ff" d="M1632.77,-91.14C1625.06,-92.29 1616.85,-93.52 1608.68,-94.75"/>
<polygon fill="#63b8ff" stroke="#63b8ff" points="1633.14,-94.62 1642.51,-89.68 1632.1,-87.7 1633.14,-94.62"/>
</a>
</g>
</g>
<!-- Node4 -->
<g id="Node000004" class="node">
<title>Node4</title>
<g id="a_Node000004"><a xlink:href="_interpretor_8cpp.html#a0060c66efc18253619637b287095821c" target="_top" xlink:title=" ">
<polygon fill="white" stroke="#666666" points="1585.75,-76 1506,-76 1506,-56 1585.75,-56 1585.75,-76"/>
<text text-anchor="middle" x="1545.88" y="-62.5" font-family="Helvetica,sans-Serif" font-size="10.00">getTokenValue</text>
</a>
</g>
</g>
<!-- Node1&#45;&gt;Node4 -->
<g id="edge3_Node000001_Node000004" class="edge">
<title>Node1&#45;&gt;Node4</title>
<g id="a_edge3_Node000001_Node000004"><a xlink:title=" ">
<path fill="none" stroke="#63b8ff" d="M1632.96,-78.89C1617.92,-76.64 1600.94,-74.1 1586.05,-71.87"/>
<polygon fill="#63b8ff" stroke="#63b8ff" points="1632.1,-82.3 1642.51,-80.32 1633.14,-75.38 1632.1,-82.3"/>
</a>
</g>
</g>
<!-- Node3 -->
<g id="Node000003" class="node">
<title>Node3</title>
<g id="a_Node000003"><a xlink:href="class_store_token.html#ada7a74bb6d2f11f78f026be0554183e9" target="_top" xlink:title=" ">
<polygon fill="white" stroke="#666666" points="1447.5,-114 1328.75,-114 1328.75,-94 1447.5,-94 1447.5,-114"/>
<text text-anchor="middle" x="1388.12" y="-100.5" font-family="Helvetica,sans-Serif" font-size="10.00">StoreToken::addTokens</text>
</a>
</g>
</g>
<!-- Node2&#45;&gt;Node3 -->
<g id="edge2_Node000002_Node000003" class="edge">
<title>Node2&#45;&gt;Node3</title>
<g id="a_edge2_Node000002_Node000003"><a xlink:title=" ">
<path fill="none" stroke="#63b8ff" d="M1472,-104C1463.94,-104 1455.81,-104 1447.95,-104"/>
<polygon fill="#63b8ff" stroke="#63b8ff" points="1471.8,-107.5 1481.8,-104 1471.8,-100.5 1471.8,-107.5"/>
</a>
</g>
</g>
<!-- Node5 -->
<g id="Node000005" class="node">
<title>Node5</title>
<g id="a_Node000005"><a xlink:href="_interpretor_8cpp.html#a1efffcc83c5a23c247b70fca364ece06" target="_top" xlink:title=" ">
<polygon fill="white" stroke="#666666" points="1438.5,-76 1337.75,-76 1337.75,-56 1438.5,-56 1438.5,-76"/>
<text text-anchor="middle" x="1388.12" y="-62.5" font-family="Helvetica,sans-Serif" font-size="10.00">getNextTokenValue</text>
</a>
</g>
</g>
<!-- Node4&#45;&gt;Node5 -->
<g id="edge4_Node000004_Node000005" class="edge">
<title>Node4&#45;&gt;Node5</title>
<g id="a_edge4_Node000004_Node000005"><a xlink:title=" ">
<path fill="none" stroke="#63b8ff" d="M1494.24,-66C1476.44,-66 1456.47,-66 1438.76,-66"/>
<polygon fill="#63b8ff" stroke="#63b8ff" points="1494.06,-69.5 1504.06,-66 1494.06,-62.5 1494.06,-69.5"/>
</a>
</g>
</g>
<!-- Node6 -->
<g id="Node000006" class="node">
<title>Node6</title>
<g id="a_Node000006"><a xlink:href="_interpretor_8cpp.html#a7e41e92472c2a2c1aafa174217d4734f" target="_top" xlink:title=" ">
<polygon fill="white" stroke="#666666" points="1416,-20 1360.25,-20 1360.25,0 1416,0 1416,-20"/>
<text text-anchor="middle" x="1388.12" y="-6.5" font-family="Helvetica,sans-Serif" font-size="10.00">getToken</text>
</a>
</g>
</g>
<!-- Node4&#45;&gt;Node6 -->
<g id="edge5_Node000004_Node000006" class="edge">
<title>Node4&#45;&gt;Node6</title>
<g id="a_edge5_Node000004_Node000006"><a xlink:title=" ">
<path fill="none" stroke="#63b8ff" d="M1505.37,-51.79C1477.52,-41.78 1440.96,-28.64 1416.34,-19.78"/>
<polygon fill="#63b8ff" stroke="#63b8ff" points="1503.93,-55 1514.52,-55.09 1506.29,-48.41 1503.93,-55"/>
</a>
</g>
</g>
<!-- Node6&#45;&gt;Node6 -->
<g id="edge15_Node000006_Node000006" class="edge">
<title>Node6&#45;&gt;Node6</title>
<g id="a_edge15_Node000006_Node000006"><a xlink:title=" ">
<path fill="none" stroke="#63b8ff" d="M1414.48,-31.44C1411.09,-35.3 1402.3,-38 1388.12,-38 1362.2,-38 1354.3,-28.98 1364.43,-20.34"/>
<polygon fill="#63b8ff" stroke="#63b8ff" points="1417.91,-30.72 1412.17,-21.81 1411.1,-32.35 1417.91,-30.72"/>
</a>
</g>
</g>
<!-- Node7 -->
<g id="Node000007" class="node">
<title>Node7</title>
<g id="a_Node000007"><a xlink:href="class_lexer.html#ab0ca8b5adc1af3cdec4855fba11491c1" target="_top" xlink:title=" ">
<polygon fill="white" stroke="#666666" points="1292.75,-20 1185.25,-20 1185.25,0 1292.75,0 1292.75,-20"/>
<text text-anchor="middle" x="1239" y="-6.5" font-family="Helvetica,sans-Serif" font-size="10.00">Lexer::extractTokens</text>
</a>
</g>
</g>
<!-- Node6&#45;&gt;Node7 -->
<g id="edge6_Node000006_Node000007" class="edge">
<title>Node6&#45;&gt;Node7</title>
<g id="a_edge6_Node000006_Node000007"><a xlink:title=" ">
<path fill="none" stroke="#63b8ff" d="M1348.64,-10C1331.67,-10 1311.46,-10 1293.1,-10"/>
<polygon fill="#63b8ff" stroke="#63b8ff" points="1348.28,-13.5 1358.28,-10 1348.28,-6.5 1348.28,-13.5"/>
</a>
</g>
</g>
<!-- Node7&#45;&gt;Node7 -->
<g id="edge14_Node000007_Node000007" class="edge">
<title>Node7&#45;&gt;Node7</title>
<g id="a_edge14_Node000007_Node000007"><a xlink:title=" ">
<path fill="none" stroke="#63b8ff" d="M1265.36,-31.44C1261.96,-35.3 1253.18,-38 1239,-38 1213.08,-38 1205.18,-28.98 1215.31,-20.34"/>
<polygon fill="#63b8ff" stroke="#63b8ff" points="1268.78,-30.72 1263.05,-21.81 1261.98,-32.35 1268.78,-30.72"/>
</a>
</g>
</g>
<!-- Node8 -->
<g id="Node000008" class="node">
<title>Node8</title>
<g id="a_Node000008"><a xlink:href="class_interpretor.html#aa49f073000719629567f5563fc487836" target="_top" xlink:title=" ">
<polygon fill="white" stroke="#666666" points="1149.25,-20 1019.25,-20 1019.25,0 1149.25,0 1149.25,-20"/>
<text text-anchor="middle" x="1084.25" y="-6.5" font-family="Helvetica,sans-Serif" font-size="10.00">Interpretor::createMainTag</text>
</a>
</g>
</g>
<!-- Node7&#45;&gt;Node8 -->
<g id="edge7_Node000007_Node000008" class="edge">
<title>Node7&#45;&gt;Node8</title>
<g id="a_edge7_Node000007_Node000008"><a xlink:title=" ">
<path fill="none" stroke="#63b8ff" d="M1173.6,-10C1165.7,-10 1157.63,-10 1149.74,-10"/>
<polygon fill="#63b8ff" stroke="#63b8ff" points="1173.49,-13.5 1183.49,-10 1173.49,-6.5 1173.49,-13.5"/>
</a>
</g>
</g>
<!-- Node9 -->
<g id="Node000009" class="node">
<title>Node9</title>
<g id="a_Node000009"><a xlink:href="class_interpretor.html#a860d7cc665a3202f6f462dc1293fe5e6" target="_top" xlink:title=" ">
<polygon fill="white" stroke="#666666" points="983.25,-20 849.5,-20 849.5,0 983.25,0 983.25,-20"/>
<text text-anchor="middle" x="916.38" y="-6.5" font-family="Helvetica,sans-Serif" font-size="10.00">Interpretor::readActivityFile</text>
</a>
</g>
</g>
<!-- Node8&#45;&gt;Node9 -->
<g id="edge8_Node000008_Node000009" class="edge">
<title>Node8&#45;&gt;Node9</title>
<g id="a_edge8_Node000008_Node000009"><a xlink:title=" ">
<path fill="none" stroke="#63b8ff" d="M1007.78,-10C999.69,-10 991.5,-10 983.53,-10"/>
<polygon fill="#63b8ff" stroke="#63b8ff" points="1007.6,-13.5 1017.6,-10 1007.6,-6.5 1007.6,-13.5"/>
</a>
</g>
</g>
<!-- Node10 -->
<g id="Node000010" class="node">
<title>Node10</title>
<g id="a_Node000010"><a xlink:href="class_my_frame.html#a6e0ebad55b1d785b586997826c512f7d" target="_top" xlink:title=" ">
<polygon fill="white" stroke="#666666" points="813.5,-20 700,-20 700,0 813.5,0 813.5,-20"/>
<text text-anchor="middle" x="756.75" y="-6.5" font-family="Helvetica,sans-Serif" font-size="10.00">MyFrame::getMainTag</text>
</a>
</g>
</g>
<!-- Node9&#45;&gt;Node10 -->
<g id="edge9_Node000009_Node000010" class="edge">
<title>Node9&#45;&gt;Node10</title>
<g id="a_edge9_Node000009_Node000010"><a xlink:title=" ">
<path fill="none" stroke="#63b8ff" d="M838.01,-10C829.88,-10 821.74,-10 813.92,-10"/>
<polygon fill="#63b8ff" stroke="#63b8ff" points="837.93,-13.5 847.93,-10 837.93,-6.5 837.93,-13.5"/>
</a>
</g>
</g>
<!-- Node11 -->
<g id="Node000011" class="node">
<title>Node11</title>
<g id="a_Node000011"><a xlink:href="class_my_frame.html#abb986879321b4dceaffb43eae82e37f1" target="_top" xlink:title=" ">
<polygon fill="white" stroke="#666666" points="664,-20 528,-20 528,0 664,0 664,-20"/>
<text text-anchor="middle" x="596" y="-6.5" font-family="Helvetica,sans-Serif" font-size="10.00">MyFrame::createPanelTags</text>
</a>
</g>
</g>
<!-- Node10&#45;&gt;Node11 -->
<g id="edge10_Node000010_Node000011" class="edge">
<title>Node10&#45;&gt;Node11</title>
<g id="a_edge10_Node000010_Node000011"><a xlink:title=" ">
<path fill="none" stroke="#63b8ff" d="M688.34,-10C680.43,-10 672.35,-10 664.44,-10"/>
<polygon fill="#63b8ff" stroke="#63b8ff" points="688.27,-13.5 698.27,-10 688.27,-6.5 688.27,-13.5"/>
</a>
</g>
</g>
<!-- Node12 -->
<g id="Node000012" class="node">
<title>Node12</title>
<g id="a_Node000012"><a xlink:href="class_my_frame.html#a7795237fe8d78e10023b2e078f9728e3" target="_top" xlink:title=" ">
<polygon fill="white" stroke="#666666" points="492,-20 343.25,-20 343.25,0 492,0 492,-20"/>
<text text-anchor="middle" x="417.62" y="-6.5" font-family="Helvetica,sans-Serif" font-size="10.00">MyFrame::setProgramWindow</text>
</a>
</g>
</g>
<!-- Node11&#45;&gt;Node12 -->
<g id="edge11_Node000011_Node000012" class="edge">
<title>Node11&#45;&gt;Node12</title>
<g id="a_edge11_Node000011_Node000012"><a xlink:title=" ">
<path fill="none" stroke="#63b8ff" d="M516.14,-10C508.27,-10 500.3,-10 492.49,-10"/>
<polygon fill="#63b8ff" stroke="#63b8ff" points="516.05,-13.5 526.05,-10 516.05,-6.5 516.05,-13.5"/>
</a>
</g>
</g>
<!-- Node13 -->
<g id="Node000013" class="node">
<title>Node13</title>
<g id="a_Node000013"><a xlink:href="class_my_frame.html#a72b4f4c02d1a12561c4cc1f5f7685db8" target="_top" xlink:title=" ">
<polygon fill="white" stroke="#666666" points="307.25,-20 169,-20 169,0 307.25,0 307.25,-20"/>
<text text-anchor="middle" x="238.12" y="-6.5" font-family="Helvetica,sans-Serif" font-size="10.00">MyFrame::setProgramPanel</text>
</a>
</g>
</g>
<!-- Node12&#45;&gt;Node13 -->
<g id="edge12_Node000012_Node000013" class="edge">
<title>Node12&#45;&gt;Node13</title>
<g id="a_edge12_Node000012_Node000013"><a xlink:title=" ">
<path fill="none" stroke="#63b8ff" d="M331.55,-10C323.49,-10 315.39,-10 307.51,-10"/>
<polygon fill="#63b8ff" stroke="#63b8ff" points="331.38,-13.5 341.38,-10 331.38,-6.5 331.38,-13.5"/>
</a>
</g>
</g>
<!-- Node14 -->
<g id="Node000014" class="node">
<title>Node14</title>
<g id="a_Node000014"><a xlink:href="class_my_frame.html#a0281cb45b6735fcbd2c885d98c874d18" target="_top" xlink:title=" ">
<polygon fill="#fff0f0" stroke="red" points="133,-20 0,-20 0,0 133,0 133,-20"/>
<text text-anchor="middle" x="66.5" y="-6.5" font-family="Helvetica,sans-Serif" font-size="10.00">MyFrame::setBottomPanel</text>
</a>
</g>
</g>
<!-- Node13&#45;&gt;Node14 -->
<g id="edge13_Node000013_Node000014" class="edge">
<title>Node13&#45;&gt;Node14</title>
<g id="a_edge13_Node000013_Node000014"><a xlink:title=" ">
<path fill="none" stroke="#63b8ff" d="M157.3,-10C149.24,-10 141.12,-10 133.23,-10"/>
<polygon fill="#63b8ff" stroke="#63b8ff" points="157.11,-13.5 167.11,-10 157.11,-6.5 157.11,-13.5"/>
</a>
</g>
</g>
</g>
</svg>
