<?xml version="1.0" encoding="UTF-8" standalone="no"?>
<!DOCTYPE svg PUBLIC "-//W3C//DTD SVG 1.1//EN"
 "http://www.w3.org/Graphics/SVG/1.1/DTD/svg11.dtd">
<!-- Generated by graphviz version 12.2.0 (20241103.1931)
 -->
<!-- Title: isTokenString Pages: 1 -->
<!--zoomable 122 -->

<svg id="main" version="1.1" xmlns="http://www.w3.org/2000/svg" xmlns:xlink="http://www.w3.org/1999/xlink" xml:space="preserve" onload="init(evt)">

<style type="text/css"><![CDATA[
.node, .edge {opacity: 0.7;}
.node.selected, .edge.selected {opacity: 1;}
.edge:hover path { stroke: red; }
.edge:hover polygon { stroke: red; fill: red; }
]]></style>

<defs>
  <circle id="rim" cx="0" cy="0" r="7"/>
  <circle id="rim2" cx="0" cy="0" r="3.5"/>
  <g id="zoomPlus">
    <use xlink:href="#rim" fill="#404040"><set attributeName="fill" to="#808080" begin="zoomplus.mouseover" end="zoomplus.mouseout"/></use>
    <path d="M-4,0h8M0,-4v8" fill="none" stroke="white" stroke-width="1.5" pointer-events="none"/>
  </g>
  <g id="zoomMin">
    <use xlink:href="#rim" fill="#404040"><set attributeName="fill" to="#808080" begin="zoomminus.mouseover" end="zoomminus.mouseout"/></use>
    <path d="M-4,0h8" fill="none" stroke="white" stroke-width="1.5" pointer-events="none"/>
  </g>
  <g id="arrowUp" transform="translate(30 24)">
    <use xlink:href="#rim"/>
    <path pointer-events="none" fill="none" stroke="white" stroke-width="1.5" d="M0,-3.0v7 M-2.5,-0.5L0,-3.0L2.5,-0.5"/>
  </g>
  <g id="arrowRight" transform="rotate(90) translate(36 -43)">
    <use xlink:href="#rim"/>
    <path pointer-events="none" fill="none" stroke="white" stroke-width="1.5" d="M0,-3.0v7 M-2.5,-0.5L0,-3.0L2.5,-0.5"/>
  </g>
  <g id="arrowDown" transform="rotate(180) translate(-30 -48)">
    <use xlink:href="#rim"/>
    <path pointer-events="none" fill="none" stroke="white" stroke-width="1.5" d="M0,-3.0v7 M-2.5,-0.5L0,-3.0L2.5,-0.5"/>
  </g>
  <g id="arrowLeft" transform="rotate(270) translate(-36 17)">
    <use xlink:href="#rim"/>
    <path pointer-events="none" fill="none" stroke="white" stroke-width="1.5" d="M0,-3.0v7 M-2.5,-0.5L0,-3.0L2.5,-0.5"/>
  </g>
  <g id="resetDef">
    <use xlink:href="#rim2" fill="#404040"><set attributeName="fill" to="#808080" begin="reset.mouseover" end="reset.mouseout"/></use>
  </g>
</defs>
<script type="application/ecmascript">
var viewWidth = 1656;
var viewHeight = 122;
var sectionId = 'dynsection-30';
</script>
<script type="application/ecmascript" xlink:href="svg.min.js"/>
<svg id="graph" class="graph">
<g id="viewport">
<title>isTokenString</title>
<!-- Node1 -->
<g id="Node000001" class="node">
<title>Node1</title>
<g id="a_Node000001"><a xlink:title=" ">
<polygon fill="#999999" stroke="#666666" points="1647.5,-95 1572.25,-95 1572.25,-75 1647.5,-75 1647.5,-95"/>
<text text-anchor="middle" x="1609.88" y="-81.5" font-family="Helvetica,sans-Serif" font-size="10.00">isTokenString</text>
</a>
</g>
</g>
<!-- Node2 -->
<g id="Node000002" class="node">
<title>Node2</title>
<g id="a_Node000002"><a xlink:href="_interpretor_8cpp.html#a32fa5cbc79c968c5b53e8303ad77091d" target="_top" xlink:title=" ">
<polygon fill="white" stroke="#666666" points="1536.25,-95 1475.25,-95 1475.25,-75 1536.25,-75 1536.25,-95"/>
<text text-anchor="middle" x="1505.75" y="-81.5" font-family="Helvetica,sans-Serif" font-size="10.00">isIdentifier</text>
</a>
</g>
</g>
<!-- Node1&#45;&gt;Node2 -->
<g id="edge1_Node000001_Node000002" class="edge">
<title>Node1&#45;&gt;Node2</title>
<g id="a_edge1_Node000001_Node000002"><a xlink:title=" ">
<path fill="none" stroke="#63b8ff" d="M1560.56,-85C1552.36,-85 1544.07,-85 1536.53,-85"/>
<polygon fill="#63b8ff" stroke="#63b8ff" points="1560.49,-88.5 1570.49,-85 1560.49,-81.5 1560.49,-88.5"/>
</a>
</g>
</g>
<!-- Node3 -->
<g id="Node000003" class="node">
<title>Node3</title>
<g id="a_Node000003"><a xlink:href="class_store_token.html#abbb9193503dd3dc6f03f96be9f71b45a" target="_top" xlink:title=" ">
<polygon fill="white" stroke="#666666" points="1439.25,-114 1314.5,-114 1314.5,-94 1439.25,-94 1439.25,-114"/>
<text text-anchor="middle" x="1376.88" y="-100.5" font-family="Helvetica,sans-Serif" font-size="10.00">StoreToken::addIdentifier</text>
</a>
</g>
</g>
<!-- Node2&#45;&gt;Node3 -->
<g id="edge2_Node000002_Node000003" class="edge">
<title>Node2&#45;&gt;Node3</title>
<g id="a_edge2_Node000002_Node000003"><a xlink:title=" ">
<path fill="none" stroke="#63b8ff" d="M1463.77,-91.14C1456.06,-92.29 1447.85,-93.52 1439.68,-94.75"/>
<polygon fill="#63b8ff" stroke="#63b8ff" points="1464.14,-94.62 1473.51,-89.68 1463.1,-87.7 1464.14,-94.62"/>
</a>
</g>
</g>
<!-- Node5 -->
<g id="Node000005" class="node">
<title>Node5</title>
<g id="a_Node000005"><a xlink:href="_interpretor_8cpp.html#a0060c66efc18253619637b287095821c" target="_top" xlink:title=" ">
<polygon fill="white" stroke="#666666" points="1416.75,-76 1337,-76 1337,-56 1416.75,-56 1416.75,-76"/>
<text text-anchor="middle" x="1376.88" y="-62.5" font-family="Helvetica,sans-Serif" font-size="10.00">getTokenValue</text>
</a>
</g>
</g>
<!-- Node2&#45;&gt;Node5 -->
<g id="edge4_Node000002_Node000005" class="edge">
<title>Node2&#45;&gt;Node5</title>
<g id="a_edge4_Node000002_Node000005"><a xlink:title=" ">
<path fill="none" stroke="#63b8ff" d="M1463.96,-78.89C1448.92,-76.64 1431.94,-74.1 1417.05,-71.87"/>
<polygon fill="#63b8ff" stroke="#63b8ff" points="1463.1,-82.3 1473.51,-80.32 1464.14,-75.38 1463.1,-82.3"/>
</a>
</g>
</g>
<!-- Node4 -->
<g id="Node000004" class="node">
<title>Node4</title>
<g id="a_Node000004"><a xlink:href="class_store_token.html#ada7a74bb6d2f11f78f026be0554183e9" target="_top" xlink:title=" ">
<polygon fill="white" stroke="#666666" points="1278.5,-114 1159.75,-114 1159.75,-94 1278.5,-94 1278.5,-114"/>
<text text-anchor="middle" x="1219.12" y="-100.5" font-family="Helvetica,sans-Serif" font-size="10.00">StoreToken::addTokens</text>
</a>
</g>
</g>
<!-- Node3&#45;&gt;Node4 -->
<g id="edge3_Node000003_Node000004" class="edge">
<title>Node3&#45;&gt;Node4</title>
<g id="a_edge3_Node000003_Node000004"><a xlink:title=" ">
<path fill="none" stroke="#63b8ff" d="M1303,-104C1294.94,-104 1286.81,-104 1278.95,-104"/>
<polygon fill="#63b8ff" stroke="#63b8ff" points="1302.8,-107.5 1312.8,-104 1302.8,-100.5 1302.8,-107.5"/>
</a>
</g>
</g>
<!-- Node6 -->
<g id="Node000006" class="node">
<title>Node6</title>
<g id="a_Node000006"><a xlink:href="_interpretor_8cpp.html#a1efffcc83c5a23c247b70fca364ece06" target="_top" xlink:title=" ">
<polygon fill="white" stroke="#666666" points="1269.5,-76 1168.75,-76 1168.75,-56 1269.5,-56 1269.5,-76"/>
<text text-anchor="middle" x="1219.12" y="-62.5" font-family="Helvetica,sans-Serif" font-size="10.00">getNextTokenValue</text>
</a>
</g>
</g>
<!-- Node5&#45;&gt;Node6 -->
<g id="edge5_Node000005_Node000006" class="edge">
<title>Node5&#45;&gt;Node6</title>
<g id="a_edge5_Node000005_Node000006"><a xlink:title=" ">
<path fill="none" stroke="#63b8ff" d="M1325.24,-66C1307.44,-66 1287.47,-66 1269.76,-66"/>
<polygon fill="#63b8ff" stroke="#63b8ff" points="1325.06,-69.5 1335.06,-66 1325.06,-62.5 1325.06,-69.5"/>
</a>
</g>
</g>
<!-- Node7 -->
<g id="Node000007" class="node">
<title>Node7</title>
<g id="a_Node000007"><a xlink:href="_interpretor_8cpp.html#a7e41e92472c2a2c1aafa174217d4734f" target="_top" xlink:title=" ">
<polygon fill="white" stroke="#666666" points="1247,-20 1191.25,-20 1191.25,0 1247,0 1247,-20"/>
<text text-anchor="middle" x="1219.12" y="-6.5" font-family="Helvetica,sans-Serif" font-size="10.00">getToken</text>
</a>
</g>
</g>
<!-- Node5&#45;&gt;Node7 -->
<g id="edge6_Node000005_Node000007" class="edge">
<title>Node5&#45;&gt;Node7</title>
<g id="a_edge6_Node000005_Node000007"><a xlink:title=" ">
<path fill="none" stroke="#63b8ff" d="M1336.37,-51.79C1308.52,-41.78 1271.96,-28.64 1247.34,-19.78"/>
<polygon fill="#63b8ff" stroke="#63b8ff" points="1334.93,-55 1345.52,-55.09 1337.29,-48.41 1334.93,-55"/>
</a>
</g>
</g>
<!-- Node7&#45;&gt;Node7 -->
<g id="edge15_Node000007_Node000007" class="edge">
<title>Node7&#45;&gt;Node7</title>
<g id="a_edge15_Node000007_Node000007"><a xlink:title=" ">
<path fill="none" stroke="#63b8ff" d="M1245.48,-31.44C1242.09,-35.3 1233.3,-38 1219.12,-38 1193.2,-38 1185.3,-28.98 1195.43,-20.34"/>
<polygon fill="#63b8ff" stroke="#63b8ff" points="1248.91,-30.72 1243.17,-21.81 1242.1,-32.35 1248.91,-30.72"/>
</a>
</g>
</g>
<!-- Node8 -->
<g id="Node000008" class="node">
<title>Node8</title>
<g id="a_Node000008"><a xlink:href="class_lexer.html#ab0ca8b5adc1af3cdec4855fba11491c1" target="_top" xlink:title=" ">
<polygon fill="white" stroke="#666666" points="1123.75,-20 1016.25,-20 1016.25,0 1123.75,0 1123.75,-20"/>
<text text-anchor="middle" x="1070" y="-6.5" font-family="Helvetica,sans-Serif" font-size="10.00">Lexer::extractTokens</text>
</a>
</g>
</g>
<!-- Node7&#45;&gt;Node8 -->
<g id="edge7_Node000007_Node000008" class="edge">
<title>Node7&#45;&gt;Node8</title>
<g id="a_edge7_Node000007_Node000008"><a xlink:title=" ">
<path fill="none" stroke="#63b8ff" d="M1179.64,-10C1162.67,-10 1142.46,-10 1124.1,-10"/>
<polygon fill="#63b8ff" stroke="#63b8ff" points="1179.28,-13.5 1189.28,-10 1179.28,-6.5 1179.28,-13.5"/>
</a>
</g>
</g>
<!-- Node8&#45;&gt;Node8 -->
<g id="edge14_Node000008_Node000008" class="edge">
<title>Node8&#45;&gt;Node8</title>
<g id="a_edge14_Node000008_Node000008"><a xlink:title=" ">
<path fill="none" stroke="#63b8ff" d="M1096.36,-31.44C1092.96,-35.3 1084.18,-38 1070,-38 1044.08,-38 1036.18,-28.98 1046.31,-20.34"/>
<polygon fill="#63b8ff" stroke="#63b8ff" points="1099.78,-30.72 1094.05,-21.81 1092.98,-32.35 1099.78,-30.72"/>
</a>
</g>
</g>
<!-- Node9 -->
<g id="Node000009" class="node">
<title>Node9</title>
<g id="a_Node000009"><a xlink:href="class_interpretor.html#aa49f073000719629567f5563fc487836" target="_top" xlink:title=" ">
<polygon fill="white" stroke="#666666" points="980.25,-20 850.25,-20 850.25,0 980.25,0 980.25,-20"/>
<text text-anchor="middle" x="915.25" y="-6.5" font-family="Helvetica,sans-Serif" font-size="10.00">Interpretor::createMainTag</text>
</a>
</g>
</g>
<!-- Node8&#45;&gt;Node9 -->
<g id="edge8_Node000008_Node000009" class="edge">
<title>Node8&#45;&gt;Node9</title>
<g id="a_edge8_Node000008_Node000009"><a xlink:title=" ">
<path fill="none" stroke="#63b8ff" d="M1004.6,-10C996.7,-10 988.63,-10 980.74,-10"/>
<polygon fill="#63b8ff" stroke="#63b8ff" points="1004.49,-13.5 1014.49,-10 1004.49,-6.5 1004.49,-13.5"/>
</a>
</g>
</g>
<!-- Node10 -->
<g id="Node000010" class="node">
<title>Node10</title>
<g id="a_Node000010"><a xlink:href="class_interpretor.html#a860d7cc665a3202f6f462dc1293fe5e6" target="_top" xlink:title=" ">
<polygon fill="white" stroke="#666666" points="814.25,-20 680.5,-20 680.5,0 814.25,0 814.25,-20"/>
<text text-anchor="middle" x="747.38" y="-6.5" font-family="Helvetica,sans-Serif" font-size="10.00">Interpretor::readActivityFile</text>
</a>
</g>
</g>
<!-- Node9&#45;&gt;Node10 -->
<g id="edge9_Node000009_Node000010" class="edge">
<title>Node9&#45;&gt;Node10</title>
<g id="a_edge9_Node000009_Node000010"><a xlink:title=" ">
<path fill="none" stroke="#63b8ff" d="M838.78,-10C830.69,-10 822.5,-10 814.53,-10"/>
<polygon fill="#63b8ff" stroke="#63b8ff" points="838.6,-13.5 848.6,-10 838.6,-6.5 838.6,-13.5"/>
</a>
</g>
</g>
<!-- Node11 -->
<g id="Node000011" class="node">
<title>Node11</title>
<g id="a_Node000011"><a xlink:href="class_my_frame.html#a6e0ebad55b1d785b586997826c512f7d" target="_top" xlink:title=" ">
<polygon fill="white" stroke="#666666" points="644.5,-20 531,-20 531,0 644.5,0 644.5,-20"/>
<text text-anchor="middle" x="587.75" y="-6.5" font-family="Helvetica,sans-Serif" font-size="10.00">MyFrame::getMainTag</text>
</a>
</g>
</g>
<!-- Node10&#45;&gt;Node11 -->
<g id="edge10_Node000010_Node000011" class="edge">
<title>Node10&#45;&gt;Node11</title>
<g id="a_edge10_Node000010_Node000011"><a xlink:title=" ">
<path fill="none" stroke="#63b8ff" d="M669.01,-10C660.88,-10 652.74,-10 644.92,-10"/>
<polygon fill="#63b8ff" stroke="#63b8ff" points="668.93,-13.5 678.93,-10 668.93,-6.5 668.93,-13.5"/>
</a>
</g>
</g>
<!-- Node12 -->
<g id="Node000012" class="node">
<title>Node12</title>
<g id="a_Node000012"><a xlink:href="class_my_frame.html#abb986879321b4dceaffb43eae82e37f1" target="_top" xlink:title=" ">
<polygon fill="white" stroke="#666666" points="495,-20 359,-20 359,0 495,0 495,-20"/>
<text text-anchor="middle" x="427" y="-6.5" font-family="Helvetica,sans-Serif" font-size="10.00">MyFrame::createPanelTags</text>
</a>
</g>
</g>
<!-- Node11&#45;&gt;Node12 -->
<g id="edge11_Node000011_Node000012" class="edge">
<title>Node11&#45;&gt;Node12</title>
<g id="a_edge11_Node000011_Node000012"><a xlink:title=" ">
<path fill="none" stroke="#63b8ff" d="M519.34,-10C511.43,-10 503.35,-10 495.44,-10"/>
<polygon fill="#63b8ff" stroke="#63b8ff" points="519.27,-13.5 529.27,-10 519.27,-6.5 519.27,-13.5"/>
</a>
</g>
</g>
<!-- Node13 -->
<g id="Node000013" class="node">
<title>Node13</title>
<g id="a_Node000013"><a xlink:href="class_my_frame.html#a7795237fe8d78e10023b2e078f9728e3" target="_top" xlink:title=" ">
<polygon fill="white" stroke="#666666" points="323,-20 174.25,-20 174.25,0 323,0 323,-20"/>
<text text-anchor="middle" x="248.62" y="-6.5" font-family="Helvetica,sans-Serif" font-size="10.00">MyFrame::setProgramWindow</text>
</a>
</g>
</g>
<!-- Node12&#45;&gt;Node13 -->
<g id="edge12_Node000012_Node000013" class="edge">
<title>Node12&#45;&gt;Node13</title>
<g id="a_edge12_Node000012_Node000013"><a xlink:title=" ">
<path fill="none" stroke="#63b8ff" d="M347.14,-10C339.27,-10 331.3,-10 323.49,-10"/>
<polygon fill="#63b8ff" stroke="#63b8ff" points="347.05,-13.5 357.05,-10 347.05,-6.5 347.05,-13.5"/>
</a>
</g>
</g>
<!-- Node14 -->
<g id="Node000014" class="node">
<title>Node14</title>
<g id="a_Node000014"><a xlink:href="class_my_frame.html#a72b4f4c02d1a12561c4cc1f5f7685db8" target="_top" xlink:title=" ">
<polygon fill="#fff0f0" stroke="red" points="138.25,-20 0,-20 0,0 138.25,0 138.25,-20"/>
<text text-anchor="middle" x="69.12" y="-6.5" font-family="Helvetica,sans-Serif" font-size="10.00">MyFrame::setProgramPanel</text>
</a>
</g>
</g>
<!-- Node13&#45;&gt;Node14 -->
<g id="edge13_Node000013_Node000014" class="edge">
<title>Node13&#45;&gt;Node14</title>
<g id="a_edge13_Node000013_Node000014"><a xlink:title=" ">
<path fill="none" stroke="#63b8ff" d="M162.55,-10C154.49,-10 146.39,-10 138.51,-10"/>
<polygon fill="#63b8ff" stroke="#63b8ff" points="162.38,-13.5 172.38,-10 162.38,-6.5 162.38,-13.5"/>
</a>
</g>
</g>
</g>
</svg>

<g id="navigator" transform="translate(0 0)" fill="#404254">
  <rect fill="#f2f5e9" fill-opacity="0.5" stroke="#606060" stroke-width=".5" x="0" y="0" width="60" height="60"/>
  <use id="zoomplus" xlink:href="#zoomPlus" x="17" y="9" onmousedown="handleZoom(evt,'in')"/>
  <use id="zoomminus" xlink:href="#zoomMin" x="42" y="9" onmousedown="handleZoom(evt,'out')"/>
  <use id="reset" xlink:href="#resetDef" x="30" y="36" onmousedown="handleReset()"/>
   <use id="arrowup" xlink:href="#arrowUp" x="0" y="0" onmousedown="handlePan(0,-1)"/>
  <use id="arrowright" xlink:href="#arrowRight" x="0" y="0" onmousedown="handlePan(1,0)"/>
  <use id="arrowdown" xlink:href="#arrowDown" x="0" y="0" onmousedown="handlePan(0,1)"/>
  <use id="arrowleft" xlink:href="#arrowLeft" x="0" y="0" onmousedown="handlePan(-1,0)"/>
</g>
<svg viewBox="0 0 15 15" width="100%" height="30px" preserveAspectRatio="xMaxYMin meet">
 <g id="arrow_out" transform="scale(0.3 0.3)">
  <a xlink:href="_interpretor_8cpp_ad42767aaf8252eb57581d009530bd527_icgraph_org.svg" target="_base">
   <rect id="button" ry="5" rx="5" y="6" x="6" height="38" width="38"
        fill="#f2f5e9" fill-opacity="0.5" stroke="#606060" stroke-width="1.0"/>
   <path id="arrow"
     d="M 11.500037,31.436501 C 11.940474,20.09759 22.043105,11.32322 32.158766,21.979434 L 37.068811,17.246167 C 37.068811,17.246167 37.088388,32 37.088388,32 L 22.160133,31.978069 C 22.160133,31.978069 26.997745,27.140456 26.997745,27.140456 C 18.528582,18.264221 13.291696,25.230495 11.500037,31.436501 z"
     style="fill:#404040;"/>
  </a>
 </g>
</svg>

<style type='text/css'>
<![CDATA[
[data-mouse-over-selected='false'] { opacity: 0.7; }
[data-mouse-over-selected='true']  { opacity: 1.0; }
]]>
</style>
<script type="application/ecmascript"><![CDATA[
document.addEventListener('DOMContentLoaded', (event) => {
  highlightEdges();
  highlightAdjacentNodes();
});
]]></script>
</svg>
