<?xml version="1.0" encoding="UTF-8" standalone="no"?>
<!DOCTYPE svg PUBLIC "-//W3C//DTD SVG 1.1//EN"
 "http://www.w3.org/Graphics/SVG/1.1/DTD/svg11.dtd">
<!-- Generated by graphviz version 12.2.0 (20241103.1931)
 -->
<!-- Title: isOperatorString Pages: 1 -->
<!--zoomable 122 -->

<svg id="main" version="1.1" xmlns="http://www.w3.org/2000/svg" xmlns:xlink="http://www.w3.org/1999/xlink" xml:space="preserve" onload="init(evt)">

<style type="text/css"><![CDATA[
.node, .edge {opacity: 0.7;}
.node.selected, .edge.selected {opacity: 1;}
.edge:hover path { stroke: red; }
.edge:hover polygon { stroke: red; fill: red; }
]]></style>

<defs>
  <circle id="rim" cx="0" cy="0" r="7"/>
  <circle id="rim2" cx="0" cy="0" r="3.5"/>
  <g id="zoomPlus">
    <use xlink:href="#rim" fill="#404040"><set attributeName="fill" to="#808080" begin="zoomplus.mouseover" end="zoomplus.mouseout"/></use>
    <path d="M-4,0h8M0,-4v8" fill="none" stroke="white" stroke-width="1.5" pointer-events="none"/>
  </g>
  <g id="zoomMin">
    <use xlink:href="#rim" fill="#404040"><set attributeName="fill" to="#808080" begin="zoomminus.mouseover" end="zoomminus.mouseout"/></use>
    <path d="M-4,0h8" fill="none" stroke="white" stroke-width="1.5" pointer-events="none"/>
  </g>
  <g id="arrowUp" transform="translate(30 24)">
    <use xlink:href="#rim"/>
    <path pointer-events="none" fill="none" stroke="white" stroke-width="1.5" d="M0,-3.0v7 M-2.5,-0.5L0,-3.0L2.5,-0.5"/>
  </g>
  <g id="arrowRight" transform="rotate(90) translate(36 -43)">
    <use xlink:href="#rim"/>
    <path pointer-events="none" fill="none" stroke="white" stroke-width="1.5" d="M0,-3.0v7 M-2.5,-0.5L0,-3.0L2.5,-0.5"/>
  </g>
  <g id="arrowDown" transform="rotate(180) translate(-30 -48)">
    <use xlink:href="#rim"/>
    <path pointer-events="none" fill="none" stroke="white" stroke-width="1.5" d="M0,-3.0v7 M-2.5,-0.5L0,-3.0L2.5,-0.5"/>
  </g>
  <g id="arrowLeft" transform="rotate(270) translate(-36 17)">
    <use xlink:href="#rim"/>
    <path pointer-events="none" fill="none" stroke="white" stroke-width="1.5" d="M0,-3.0v7 M-2.5,-0.5L0,-3.0L2.5,-0.5"/>
  </g>
  <g id="resetDef">
    <use xlink:href="#rim2" fill="#404040"><set attributeName="fill" to="#808080" begin="reset.mouseover" end="reset.mouseout"/></use>
  </g>
</defs>
<script type="application/ecmascript">
var viewWidth = 1604;
var viewHeight = 122;
var sectionId = 'dynsection-25';
</script>
<script type="application/ecmascript" xlink:href="svg.min.js"/>
<svg id="graph" class="graph">
<g id="viewport">
<title>isOperatorString</title>
<!-- Node1 -->
<g id="Node000001" class="node">
<title>Node1</title>
<g id="a_Node000001"><a xlink:title=" ">
<polygon fill="#999999" stroke="#666666" points="1595.75,-95 1509.25,-95 1509.25,-75 1595.75,-75 1595.75,-95"/>
<text text-anchor="middle" x="1552.5" y="-81.5" font-family="Helvetica,sans-Serif" font-size="10.00">isOperatorString</text>
</a>
</g>
</g>
<!-- Node2 -->
<g id="Node000002" class="node">
<title>Node2</title>
<g id="a_Node000002"><a xlink:href="_interpretor_8cpp.html#ad42767aaf8252eb57581d009530bd527" target="_top" xlink:title=" ">
<polygon fill="white" stroke="#666666" points="1473.25,-95 1398,-95 1398,-75 1473.25,-75 1473.25,-95"/>
<text text-anchor="middle" x="1435.62" y="-81.5" font-family="Helvetica,sans-Serif" font-size="10.00">isTokenString</text>
</a>
</g>
</g>
<!-- Node1&#45;&gt;Node2 -->
<g id="edge1_Node000001_Node000002" class="edge">
<title>Node1&#45;&gt;Node2</title>
<g id="a_edge1_Node000001_Node000002"><a xlink:title=" ">
<path fill="none" stroke="#63b8ff" d="M1497.67,-85C1489.53,-85 1481.29,-85 1473.61,-85"/>
<polygon fill="#63b8ff" stroke="#63b8ff" points="1497.54,-88.5 1507.54,-85 1497.54,-81.5 1497.54,-88.5"/>
</a>
</g>
</g>
<!-- Node3 -->
<g id="Node000003" class="node">
<title>Node3</title>
<g id="a_Node000003"><a xlink:href="_interpretor_8cpp.html#a32fa5cbc79c968c5b53e8303ad77091d" target="_top" xlink:title=" ">
<polygon fill="white" stroke="#666666" points="1362,-95 1301,-95 1301,-75 1362,-75 1362,-95"/>
<text text-anchor="middle" x="1331.5" y="-81.5" font-family="Helvetica,sans-Serif" font-size="10.00">isIdentifier</text>
</a>
</g>
</g>
<!-- Node2&#45;&gt;Node3 -->
<g id="edge2_Node000002_Node000003" class="edge">
<title>Node2&#45;&gt;Node3</title>
<g id="a_edge2_Node000002_Node000003"><a xlink:title=" ">
<path fill="none" stroke="#63b8ff" d="M1386.31,-85C1378.11,-85 1369.82,-85 1362.28,-85"/>
<polygon fill="#63b8ff" stroke="#63b8ff" points="1386.24,-88.5 1396.24,-85 1386.24,-81.5 1386.24,-88.5"/>
</a>
</g>
</g>
<!-- Node4 -->
<g id="Node000004" class="node">
<title>Node4</title>
<g id="a_Node000004"><a xlink:href="class_store_token.html#abbb9193503dd3dc6f03f96be9f71b45a" target="_top" xlink:title=" ">
<polygon fill="white" stroke="#666666" points="1265,-114 1140.25,-114 1140.25,-94 1265,-94 1265,-114"/>
<text text-anchor="middle" x="1202.62" y="-100.5" font-family="Helvetica,sans-Serif" font-size="10.00">StoreToken::addIdentifier</text>
</a>
</g>
</g>
<!-- Node3&#45;&gt;Node4 -->
<g id="edge3_Node000003_Node000004" class="edge">
<title>Node3&#45;&gt;Node4</title>
<g id="a_edge3_Node000003_Node000004"><a xlink:title=" ">
<path fill="none" stroke="#63b8ff" d="M1289.52,-91.14C1281.81,-92.29 1273.6,-93.52 1265.43,-94.75"/>
<polygon fill="#63b8ff" stroke="#63b8ff" points="1289.89,-94.62 1299.26,-89.68 1288.85,-87.7 1289.89,-94.62"/>
</a>
</g>
</g>
<!-- Node6 -->
<g id="Node000006" class="node">
<title>Node6</title>
<g id="a_Node000006"><a xlink:href="_interpretor_8cpp.html#a0060c66efc18253619637b287095821c" target="_top" xlink:title=" ">
<polygon fill="white" stroke="#666666" points="1242.5,-76 1162.75,-76 1162.75,-56 1242.5,-56 1242.5,-76"/>
<text text-anchor="middle" x="1202.62" y="-62.5" font-family="Helvetica,sans-Serif" font-size="10.00">getTokenValue</text>
</a>
</g>
</g>
<!-- Node3&#45;&gt;Node6 -->
<g id="edge5_Node000003_Node000006" class="edge">
<title>Node3&#45;&gt;Node6</title>
<g id="a_edge5_Node000003_Node000006"><a xlink:title=" ">
<path fill="none" stroke="#63b8ff" d="M1289.71,-78.89C1274.67,-76.64 1257.69,-74.1 1242.8,-71.87"/>
<polygon fill="#63b8ff" stroke="#63b8ff" points="1288.85,-82.3 1299.26,-80.32 1289.89,-75.38 1288.85,-82.3"/>
</a>
</g>
</g>
<!-- Node5 -->
<g id="Node000005" class="node">
<title>Node5</title>
<g id="a_Node000005"><a xlink:href="class_store_token.html#ada7a74bb6d2f11f78f026be0554183e9" target="_top" xlink:title=" ">
<polygon fill="white" stroke="#666666" points="1104.25,-114 985.5,-114 985.5,-94 1104.25,-94 1104.25,-114"/>
<text text-anchor="middle" x="1044.88" y="-100.5" font-family="Helvetica,sans-Serif" font-size="10.00">StoreToken::addTokens</text>
</a>
</g>
</g>
<!-- Node4&#45;&gt;Node5 -->
<g id="edge4_Node000004_Node000005" class="edge">
<title>Node4&#45;&gt;Node5</title>
<g id="a_edge4_Node000004_Node000005"><a xlink:title=" ">
<path fill="none" stroke="#63b8ff" d="M1128.75,-104C1120.69,-104 1112.56,-104 1104.7,-104"/>
<polygon fill="#63b8ff" stroke="#63b8ff" points="1128.55,-107.5 1138.55,-104 1128.55,-100.5 1128.55,-107.5"/>
</a>
</g>
</g>
<!-- Node7 -->
<g id="Node000007" class="node">
<title>Node7</title>
<g id="a_Node000007"><a xlink:href="_interpretor_8cpp.html#a1efffcc83c5a23c247b70fca364ece06" target="_top" xlink:title=" ">
<polygon fill="white" stroke="#666666" points="1095.25,-76 994.5,-76 994.5,-56 1095.25,-56 1095.25,-76"/>
<text text-anchor="middle" x="1044.88" y="-62.5" font-family="Helvetica,sans-Serif" font-size="10.00">getNextTokenValue</text>
</a>
</g>
</g>
<!-- Node6&#45;&gt;Node7 -->
<g id="edge6_Node000006_Node000007" class="edge">
<title>Node6&#45;&gt;Node7</title>
<g id="a_edge6_Node000006_Node000007"><a xlink:title=" ">
<path fill="none" stroke="#63b8ff" d="M1150.99,-66C1133.19,-66 1113.22,-66 1095.51,-66"/>
<polygon fill="#63b8ff" stroke="#63b8ff" points="1150.81,-69.5 1160.81,-66 1150.81,-62.5 1150.81,-69.5"/>
</a>
</g>
</g>
<!-- Node8 -->
<g id="Node000008" class="node">
<title>Node8</title>
<g id="a_Node000008"><a xlink:href="_interpretor_8cpp.html#a7e41e92472c2a2c1aafa174217d4734f" target="_top" xlink:title=" ">
<polygon fill="white" stroke="#666666" points="1072.75,-20 1017,-20 1017,0 1072.75,0 1072.75,-20"/>
<text text-anchor="middle" x="1044.88" y="-6.5" font-family="Helvetica,sans-Serif" font-size="10.00">getToken</text>
</a>
</g>
</g>
<!-- Node6&#45;&gt;Node8 -->
<g id="edge7_Node000006_Node000008" class="edge">
<title>Node6&#45;&gt;Node8</title>
<g id="a_edge7_Node000006_Node000008"><a xlink:title=" ">
<path fill="none" stroke="#63b8ff" d="M1162.12,-51.79C1134.27,-41.78 1097.71,-28.64 1073.09,-19.78"/>
<polygon fill="#63b8ff" stroke="#63b8ff" points="1160.68,-55 1171.27,-55.09 1163.04,-48.41 1160.68,-55"/>
</a>
</g>
</g>
<!-- Node8&#45;&gt;Node8 -->
<g id="edge15_Node000008_Node000008" class="edge">
<title>Node8&#45;&gt;Node8</title>
<g id="a_edge15_Node000008_Node000008"><a xlink:title=" ">
<path fill="none" stroke="#63b8ff" d="M1071.23,-31.44C1067.84,-35.3 1059.05,-38 1044.88,-38 1018.95,-38 1011.05,-28.98 1021.18,-20.34"/>
<polygon fill="#63b8ff" stroke="#63b8ff" points="1074.66,-30.72 1068.92,-21.81 1067.85,-32.35 1074.66,-30.72"/>
</a>
</g>
</g>
<!-- Node9 -->
<g id="Node000009" class="node">
<title>Node9</title>
<g id="a_Node000009"><a xlink:href="class_lexer.html#ab0ca8b5adc1af3cdec4855fba11491c1" target="_top" xlink:title=" ">
<polygon fill="white" stroke="#666666" points="949.5,-20 842,-20 842,0 949.5,0 949.5,-20"/>
<text text-anchor="middle" x="895.75" y="-6.5" font-family="Helvetica,sans-Serif" font-size="10.00">Lexer::extractTokens</text>
</a>
</g>
</g>
<!-- Node8&#45;&gt;Node9 -->
<g id="edge8_Node000008_Node000009" class="edge">
<title>Node8&#45;&gt;Node9</title>
<g id="a_edge8_Node000008_Node000009"><a xlink:title=" ">
<path fill="none" stroke="#63b8ff" d="M1005.39,-10C988.42,-10 968.21,-10 949.85,-10"/>
<polygon fill="#63b8ff" stroke="#63b8ff" points="1005.03,-13.5 1015.03,-10 1005.03,-6.5 1005.03,-13.5"/>
</a>
</g>
</g>
<!-- Node9&#45;&gt;Node9 -->
<g id="edge14_Node000009_Node000009" class="edge">
<title>Node9&#45;&gt;Node9</title>
<g id="a_edge14_Node000009_Node000009"><a xlink:title=" ">
<path fill="none" stroke="#63b8ff" d="M922.11,-31.44C918.71,-35.3 909.93,-38 895.75,-38 869.83,-38 861.93,-28.98 872.06,-20.34"/>
<polygon fill="#63b8ff" stroke="#63b8ff" points="925.53,-30.72 919.8,-21.81 918.73,-32.35 925.53,-30.72"/>
</a>
</g>
</g>
<!-- Node10 -->
<g id="Node000010" class="node">
<title>Node10</title>
<g id="a_Node000010"><a xlink:href="class_interpretor.html#aa49f073000719629567f5563fc487836" target="_top" xlink:title=" ">
<polygon fill="white" stroke="#666666" points="806,-20 676,-20 676,0 806,0 806,-20"/>
<text text-anchor="middle" x="741" y="-6.5" font-family="Helvetica,sans-Serif" font-size="10.00">Interpretor::createMainTag</text>
</a>
</g>
</g>
<!-- Node9&#45;&gt;Node10 -->
<g id="edge9_Node000009_Node000010" class="edge">
<title>Node9&#45;&gt;Node10</title>
<g id="a_edge9_Node000009_Node000010"><a xlink:title=" ">
<path fill="none" stroke="#63b8ff" d="M830.35,-10C822.45,-10 814.38,-10 806.49,-10"/>
<polygon fill="#63b8ff" stroke="#63b8ff" points="830.24,-13.5 840.24,-10 830.24,-6.5 830.24,-13.5"/>
</a>
</g>
</g>
<!-- Node11 -->
<g id="Node000011" class="node">
<title>Node11</title>
<g id="a_Node000011"><a xlink:href="class_interpretor.html#a860d7cc665a3202f6f462dc1293fe5e6" target="_top" xlink:title=" ">
<polygon fill="white" stroke="#666666" points="640,-20 506.25,-20 506.25,0 640,0 640,-20"/>
<text text-anchor="middle" x="573.12" y="-6.5" font-family="Helvetica,sans-Serif" font-size="10.00">Interpretor::readActivityFile</text>
</a>
</g>
</g>
<!-- Node10&#45;&gt;Node11 -->
<g id="edge10_Node000010_Node000011" class="edge">
<title>Node10&#45;&gt;Node11</title>
<g id="a_edge10_Node000010_Node000011"><a xlink:title=" ">
<path fill="none" stroke="#63b8ff" d="M664.53,-10C656.44,-10 648.25,-10 640.28,-10"/>
<polygon fill="#63b8ff" stroke="#63b8ff" points="664.35,-13.5 674.35,-10 664.35,-6.5 664.35,-13.5"/>
</a>
</g>
</g>
<!-- Node12 -->
<g id="Node000012" class="node">
<title>Node12</title>
<g id="a_Node000012"><a xlink:href="class_my_frame.html#a6e0ebad55b1d785b586997826c512f7d" target="_top" xlink:title=" ">
<polygon fill="white" stroke="#666666" points="470.25,-20 356.75,-20 356.75,0 470.25,0 470.25,-20"/>
<text text-anchor="middle" x="413.5" y="-6.5" font-family="Helvetica,sans-Serif" font-size="10.00">MyFrame::getMainTag</text>
</a>
</g>
</g>
<!-- Node11&#45;&gt;Node12 -->
<g id="edge11_Node000011_Node000012" class="edge">
<title>Node11&#45;&gt;Node12</title>
<g id="a_edge11_Node000011_Node000012"><a xlink:title=" ">
<path fill="none" stroke="#63b8ff" d="M494.76,-10C486.63,-10 478.49,-10 470.67,-10"/>
<polygon fill="#63b8ff" stroke="#63b8ff" points="494.68,-13.5 504.68,-10 494.68,-6.5 494.68,-13.5"/>
</a>
</g>
</g>
<!-- Node13 -->
<g id="Node000013" class="node">
<title>Node13</title>
<g id="a_Node000013"><a xlink:href="class_my_frame.html#abb986879321b4dceaffb43eae82e37f1" target="_top" xlink:title=" ">
<polygon fill="white" stroke="#666666" points="320.75,-20 184.75,-20 184.75,0 320.75,0 320.75,-20"/>
<text text-anchor="middle" x="252.75" y="-6.5" font-family="Helvetica,sans-Serif" font-size="10.00">MyFrame::createPanelTags</text>
</a>
</g>
</g>
<!-- Node12&#45;&gt;Node13 -->
<g id="edge12_Node000012_Node000013" class="edge">
<title>Node12&#45;&gt;Node13</title>
<g id="a_edge12_Node000012_Node000013"><a xlink:title=" ">
<path fill="none" stroke="#63b8ff" d="M345.09,-10C337.18,-10 329.1,-10 321.19,-10"/>
<polygon fill="#63b8ff" stroke="#63b8ff" points="345.02,-13.5 355.02,-10 345.02,-6.5 345.02,-13.5"/>
</a>
</g>
</g>
<!-- Node14 -->
<g id="Node000014" class="node">
<title>Node14</title>
<g id="a_Node000014"><a xlink:href="class_my_frame.html#a7795237fe8d78e10023b2e078f9728e3" target="_top" xlink:title=" ">
<polygon fill="#fff0f0" stroke="red" points="148.75,-20 0,-20 0,0 148.75,0 148.75,-20"/>
<text text-anchor="middle" x="74.38" y="-6.5" font-family="Helvetica,sans-Serif" font-size="10.00">MyFrame::setProgramWindow</text>
</a>
</g>
</g>
<!-- Node13&#45;&gt;Node14 -->
<g id="edge13_Node000013_Node000014" class="edge">
<title>Node13&#45;&gt;Node14</title>
<g id="a_edge13_Node000013_Node000014"><a xlink:title=" ">
<path fill="none" stroke="#63b8ff" d="M172.89,-10C165.02,-10 157.05,-10 149.24,-10"/>
<polygon fill="#63b8ff" stroke="#63b8ff" points="172.8,-13.5 182.8,-10 172.8,-6.5 172.8,-13.5"/>
</a>
</g>
</g>
</g>
</svg>

<g id="navigator" transform="translate(0 0)" fill="#404254">
  <rect fill="#f2f5e9" fill-opacity="0.5" stroke="#606060" stroke-width=".5" x="0" y="0" width="60" height="60"/>
  <use id="zoomplus" xlink:href="#zoomPlus" x="17" y="9" onmousedown="handleZoom(evt,'in')"/>
  <use id="zoomminus" xlink:href="#zoomMin" x="42" y="9" onmousedown="handleZoom(evt,'out')"/>
  <use id="reset" xlink:href="#resetDef" x="30" y="36" onmousedown="handleReset()"/>
   <use id="arrowup" xlink:href="#arrowUp" x="0" y="0" onmousedown="handlePan(0,-1)"/>
  <use id="arrowright" xlink:href="#arrowRight" x="0" y="0" onmousedown="handlePan(1,0)"/>
  <use id="arrowdown" xlink:href="#arrowDown" x="0" y="0" onmousedown="handlePan(0,1)"/>
  <use id="arrowleft" xlink:href="#arrowLeft" x="0" y="0" onmousedown="handlePan(-1,0)"/>
</g>
<svg viewBox="0 0 15 15" width="100%" height="30px" preserveAspectRatio="xMaxYMin meet">
 <g id="arrow_out" transform="scale(0.3 0.3)">
  <a xlink:href="_interpretor_8cpp_ae80d3823673e42ed3ce7e84597bbd552_icgraph_org.svg" target="_base">
   <rect id="button" ry="5" rx="5" y="6" x="6" height="38" width="38"
        fill="#f2f5e9" fill-opacity="0.5" stroke="#606060" stroke-width="1.0"/>
   <path id="arrow"
     d="M 11.500037,31.436501 C 11.940474,20.09759 22.043105,11.32322 32.158766,21.979434 L 37.068811,17.246167 C 37.068811,17.246167 37.088388,32 37.088388,32 L 22.160133,31.978069 C 22.160133,31.978069 26.997745,27.140456 26.997745,27.140456 C 18.528582,18.264221 13.291696,25.230495 11.500037,31.436501 z"
     style="fill:#404040;"/>
  </a>
 </g>
</svg>

<style type='text/css'>
<![CDATA[
[data-mouse-over-selected='false'] { opacity: 0.7; }
[data-mouse-over-selected='true']  { opacity: 1.0; }
]]>
</style>
<script type="application/ecmascript"><![CDATA[
document.addEventListener('DOMContentLoaded', (event) => {
  highlightEdges();
  highlightAdjacentNodes();
});
]]></script>
</svg>
