<?xml version="1.0" encoding="UTF-8" standalone="no"?>
<!DOCTYPE svg PUBLIC "-//W3C//DTD SVG 1.1//EN"
 "http://www.w3.org/Graphics/SVG/1.1/DTD/svg11.dtd">
<!-- Generated by graphviz version 12.2.0 (20241103.1931)
 -->
<!-- Title: src/Tags.h Pages: 1 -->
<svg width="407pt" height="252pt"
 viewBox="0.00 0.00 406.50 252.00" xmlns="http://www.w3.org/2000/svg" xmlns:xlink="http://www.w3.org/1999/xlink">
<g id="graph0" class="graph" transform="scale(1 1) rotate(0) translate(4 248)">
<title>src/Tags.h</title>
<!-- Node1 -->
<g id="Node000001" class="node">
<title>Node1</title>
<g id="a_Node000001"><a xlink:title=" ">
<polygon fill="#999999" stroke="#666666" points="278.5,-244 216.75,-244 216.75,-224 278.5,-224 278.5,-244"/>
<text text-anchor="middle" x="247.62" y="-230.5" font-family="Helvetica,sans-Serif" font-size="10.00">src/Tags.h</text>
</a>
</g>
</g>
<!-- Node2 -->
<g id="Node000002" class="node">
<title>Node2</title>
<g id="a_Node000002"><a xlink:href="_interpretor_8h.html" target="_top" xlink:title=" ">
<polygon fill="white" stroke="#666666" points="186.12,-188 101.12,-188 101.12,-168 186.12,-168 186.12,-188"/>
<text text-anchor="middle" x="143.62" y="-174.5" font-family="Helvetica,sans-Serif" font-size="10.00">src/Interpretor.h</text>
</a>
</g>
</g>
<!-- Node1&#45;&gt;Node2 -->
<g id="edge1_Node000001_Node000002" class="edge">
<title>Node1&#45;&gt;Node2</title>
<g id="a_edge1_Node000001_Node000002"><a xlink:title=" ">
<path fill="none" stroke="#63b8ff" d="M219.4,-218.35C201.1,-208.84 177.79,-196.74 161.88,-188.48"/>
<polygon fill="#63b8ff" stroke="#63b8ff" points="217.68,-221.39 228.17,-222.9 220.9,-215.18 217.68,-221.39"/>
</a>
</g>
</g>
<!-- Node10 -->
<g id="Node000010" class="node">
<title>Node10</title>
<g id="a_Node000010"><a xlink:href="_tag_panel_8h.html" target="_top" xlink:title=" ">
<polygon fill="white" stroke="#666666" points="288.25,-188 207,-188 207,-168 288.25,-168 288.25,-188"/>
<text text-anchor="middle" x="247.62" y="-174.5" font-family="Helvetica,sans-Serif" font-size="10.00">src/TagPanel.h</text>
</a>
</g>
</g>
<!-- Node1&#45;&gt;Node10 -->
<g id="edge10_Node000001_Node000010" class="edge">
<title>Node1&#45;&gt;Node10</title>
<g id="a_edge10_Node000001_Node000010"><a xlink:title=" ">
<path fill="none" stroke="#63b8ff" d="M247.62,-212.13C247.62,-203.9 247.62,-194.85 247.62,-188.3"/>
<polygon fill="#63b8ff" stroke="#63b8ff" points="244.13,-212.08 247.63,-222.08 251.13,-212.08 244.13,-212.08"/>
</a>
</g>
</g>
<!-- Node12 -->
<g id="Node000012" class="node">
<title>Node12</title>
<g id="a_Node000012"><a xlink:href="_tags_8cpp.html" target="_top" xlink:title=" ">
<polygon fill="white" stroke="#666666" points="378.75,-188 306.5,-188 306.5,-168 378.75,-168 378.75,-188"/>
<text text-anchor="middle" x="342.62" y="-174.5" font-family="Helvetica,sans-Serif" font-size="10.00">src/Tags.cpp</text>
</a>
</g>
</g>
<!-- Node1&#45;&gt;Node12 -->
<g id="edge13_Node000001_Node000012" class="edge">
<title>Node1&#45;&gt;Node12</title>
<g id="a_edge13_Node000001_Node000012"><a xlink:title=" ">
<path fill="none" stroke="#63b8ff" d="M273.87,-218.08C290.52,-208.62 311.56,-196.66 325.95,-188.48"/>
<polygon fill="#63b8ff" stroke="#63b8ff" points="272.45,-214.86 265.49,-222.85 275.91,-220.95 272.45,-214.86"/>
</a>
</g>
</g>
<!-- Node3 -->
<g id="Node000003" class="node">
<title>Node3</title>
<g id="a_Node000003"><a xlink:href="_interpretor_8cpp.html" target="_top" xlink:title=" ">
<polygon fill="white" stroke="#666666" points="188.38,-132 92.88,-132 92.88,-112 188.38,-112 188.38,-132"/>
<text text-anchor="middle" x="140.62" y="-118.5" font-family="Helvetica,sans-Serif" font-size="10.00">src/Interpretor.cpp</text>
</a>
</g>
</g>
<!-- Node2&#45;&gt;Node3 -->
<g id="edge2_Node000002_Node000003" class="edge">
<title>Node2&#45;&gt;Node3</title>
<g id="a_edge2_Node000002_Node000003"><a xlink:title=" ">
<path fill="none" stroke="#63b8ff" d="M142.47,-156.13C142.01,-147.9 141.51,-138.85 141.14,-132.3"/>
<polygon fill="#63b8ff" stroke="#63b8ff" points="138.97,-156.29 143.02,-166.08 145.96,-155.9 138.97,-156.29"/>
</a>
</g>
</g>
<!-- Node4 -->
<g id="Node000004" class="node">
<title>Node4</title>
<g id="a_Node000004"><a xlink:href="_my_frame_8h.html" target="_top" xlink:title=" ">
<polygon fill="white" stroke="#666666" points="288.62,-132 206.62,-132 206.62,-112 288.62,-112 288.62,-132"/>
<text text-anchor="middle" x="247.62" y="-118.5" font-family="Helvetica,sans-Serif" font-size="10.00">src/MyFrame.h</text>
</a>
</g>
</g>
<!-- Node2&#45;&gt;Node4 -->
<g id="edge3_Node000002_Node000004" class="edge">
<title>Node2&#45;&gt;Node4</title>
<g id="a_edge3_Node000002_Node000004"><a xlink:title=" ">
<path fill="none" stroke="#63b8ff" d="M171.85,-162.35C190.15,-152.84 213.46,-140.74 229.37,-132.48"/>
<polygon fill="#63b8ff" stroke="#63b8ff" points="170.35,-159.18 163.08,-166.9 173.57,-165.39 170.35,-159.18"/>
</a>
</g>
</g>
<!-- Node8 -->
<g id="Node000008" class="node">
<title>Node8</title>
<g id="a_Node000008"><a xlink:href="game_8h.html" target="_top" xlink:title=" ">
<polygon fill="white" stroke="#666666" points="75,-132 10.25,-132 10.25,-112 75,-112 75,-132"/>
<text text-anchor="middle" x="42.62" y="-118.5" font-family="Helvetica,sans-Serif" font-size="10.00">src/game.h</text>
</a>
</g>
</g>
<!-- Node2&#45;&gt;Node8 -->
<g id="edge7_Node000002_Node000008" class="edge">
<title>Node2&#45;&gt;Node8</title>
<g id="a_edge7_Node000002_Node000008"><a xlink:title=" ">
<path fill="none" stroke="#63b8ff" d="M116.22,-162.35C98.44,-152.84 75.8,-140.74 60.36,-132.48"/>
<polygon fill="#63b8ff" stroke="#63b8ff" points="114.23,-165.25 124.7,-166.88 117.53,-159.08 114.23,-165.25"/>
</a>
</g>
</g>
<!-- Node5 -->
<g id="Node000005" class="node">
<title>Node5</title>
<g id="a_Node000005"><a xlink:href="_my_frame_8cpp.html" target="_top" xlink:title=" ">
<polygon fill="white" stroke="#666666" points="298.88,-76 206.38,-76 206.38,-56 298.88,-56 298.88,-76"/>
<text text-anchor="middle" x="252.62" y="-62.5" font-family="Helvetica,sans-Serif" font-size="10.00">src/MyFrame.cpp</text>
</a>
</g>
</g>
<!-- Node4&#45;&gt;Node5 -->
<g id="edge4_Node000004_Node000005" class="edge">
<title>Node4&#45;&gt;Node5</title>
<g id="a_edge4_Node000004_Node000005"><a xlink:title=" ">
<path fill="none" stroke="#63b8ff" d="M249.56,-100.13C250.32,-91.9 251.16,-82.85 251.76,-76.3"/>
<polygon fill="#63b8ff" stroke="#63b8ff" points="246.07,-99.81 248.64,-110.09 253.04,-100.45 246.07,-99.81"/>
</a>
</g>
</g>
<!-- Node6 -->
<g id="Node000006" class="node">
<title>Node6</title>
<g id="a_Node000006"><a xlink:href="_w_x_manager_8h.html" target="_top" xlink:title=" ">
<polygon fill="white" stroke="#666666" points="188,-76 93.25,-76 93.25,-56 188,-56 188,-76"/>
<text text-anchor="middle" x="140.62" y="-62.5" font-family="Helvetica,sans-Serif" font-size="10.00">src/WXManager.h</text>
</a>
</g>
</g>
<!-- Node4&#45;&gt;Node6 -->
<g id="edge5_Node000004_Node000006" class="edge">
<title>Node4&#45;&gt;Node6</title>
<g id="a_edge5_Node000004_Node000006"><a xlink:title=" ">
<path fill="none" stroke="#63b8ff" d="M218.85,-106.48C199.98,-96.96 175.85,-84.78 159.41,-76.48"/>
<polygon fill="#63b8ff" stroke="#63b8ff" points="217.13,-109.53 227.64,-110.91 220.29,-103.28 217.13,-109.53"/>
</a>
</g>
</g>
<!-- Node7 -->
<g id="Node000007" class="node">
<title>Node7</title>
<g id="a_Node000007"><a xlink:href="_w_x_manager_8cpp.html" target="_top" xlink:title=" ">
<polygon fill="white" stroke="#666666" points="193.25,-20 88,-20 88,0 193.25,0 193.25,-20"/>
<text text-anchor="middle" x="140.62" y="-6.5" font-family="Helvetica,sans-Serif" font-size="10.00">src/WXManager.cpp</text>
</a>
</g>
</g>
<!-- Node6&#45;&gt;Node7 -->
<g id="edge6_Node000006_Node000007" class="edge">
<title>Node6&#45;&gt;Node7</title>
<g id="a_edge6_Node000006_Node000007"><a xlink:title=" ">
<path fill="none" stroke="#63b8ff" d="M140.62,-44.13C140.62,-35.9 140.62,-26.85 140.62,-20.3"/>
<polygon fill="#63b8ff" stroke="#63b8ff" points="137.13,-44.08 140.63,-54.08 144.13,-44.08 137.13,-44.08"/>
</a>
</g>
</g>
<!-- Node8&#45;&gt;Node6 -->
<g id="edge8_Node000008_Node000006" class="edge">
<title>Node8&#45;&gt;Node6</title>
<g id="a_edge8_Node000008_Node000006"><a xlink:title=" ">
<path fill="none" stroke="#63b8ff" d="M69.7,-106.08C86.88,-96.62 108.58,-84.66 123.42,-76.48"/>
<polygon fill="#63b8ff" stroke="#63b8ff" points="68.09,-102.97 61.02,-110.86 71.47,-109.1 68.09,-102.97"/>
</a>
</g>
</g>
<!-- Node9 -->
<g id="Node000009" class="node">
<title>Node9</title>
<g id="a_Node000009"><a xlink:href="game_8cpp.html" target="_top" xlink:title=" ">
<polygon fill="white" stroke="#666666" points="75.25,-76 0,-76 0,-56 75.25,-56 75.25,-76"/>
<text text-anchor="middle" x="37.62" y="-62.5" font-family="Helvetica,sans-Serif" font-size="10.00">src/game.cpp</text>
</a>
</g>
</g>
<!-- Node8&#45;&gt;Node9 -->
<g id="edge9_Node000008_Node000009" class="edge">
<title>Node8&#45;&gt;Node9</title>
<g id="a_edge9_Node000008_Node000009"><a xlink:title=" ">
<path fill="none" stroke="#63b8ff" d="M40.69,-100.13C39.93,-91.9 39.09,-82.85 38.49,-76.3"/>
<polygon fill="#63b8ff" stroke="#63b8ff" points="37.21,-100.45 41.61,-110.09 44.18,-99.81 37.21,-100.45"/>
</a>
</g>
</g>
<!-- Node10&#45;&gt;Node4 -->
<g id="edge11_Node000010_Node000004" class="edge">
<title>Node10&#45;&gt;Node4</title>
<g id="a_edge11_Node000010_Node000004"><a xlink:title=" ">
<path fill="none" stroke="#63b8ff" d="M247.62,-156.13C247.62,-147.9 247.62,-138.85 247.62,-132.3"/>
<polygon fill="#63b8ff" stroke="#63b8ff" points="244.13,-156.08 247.63,-166.08 251.13,-156.08 244.13,-156.08"/>
</a>
</g>
</g>
<!-- Node11 -->
<g id="Node000011" class="node">
<title>Node11</title>
<g id="a_Node000011"><a xlink:href="_tag_panel_8cpp.html" target="_top" xlink:title=" ">
<polygon fill="white" stroke="#666666" points="398.5,-132 306.75,-132 306.75,-112 398.5,-112 398.5,-132"/>
<text text-anchor="middle" x="352.62" y="-118.5" font-family="Helvetica,sans-Serif" font-size="10.00">src/TagPanel.cpp</text>
</a>
</g>
</g>
<!-- Node10&#45;&gt;Node11 -->
<g id="edge12_Node000010_Node000011" class="edge">
<title>Node10&#45;&gt;Node11</title>
<g id="a_edge12_Node000010_Node000011"><a xlink:title=" ">
<path fill="none" stroke="#63b8ff" d="M276.12,-162.35C294.6,-152.84 318.14,-140.74 334.19,-132.48"/>
<polygon fill="#63b8ff" stroke="#63b8ff" points="274.55,-159.22 267.26,-166.9 277.75,-165.44 274.55,-159.22"/>
</a>
</g>
</g>
</g>
</svg>
