<?xml version="1.0" encoding="UTF-8" standalone="no"?>
<!DOCTYPE svg PUBLIC "-//W3C//DTD SVG 1.1//EN"
 "http://www.w3.org/Graphics/SVG/1.1/DTD/svg11.dtd">
<!-- Generated by graphviz version 12.2.0 (20241103.1931)
 -->
<!-- Title: getFlowTagPanel Pages: 1 -->
<svg width="280pt" height="66pt"
 viewBox="0.00 0.00 280.00 66.00" xmlns="http://www.w3.org/2000/svg" xmlns:xlink="http://www.w3.org/1999/xlink">
<g id="graph0" class="graph" transform="scale(1 1) rotate(0) translate(4 62)">
<title>getFlowTagPanel</title>
<!-- Node1 -->
<g id="Node000001" class="node">
<title>Node1</title>
<g id="a_Node000001"><a xlink:title=" ">
<polygon fill="#999999" stroke="#666666" points="272,-39 181,-39 181,-19 272,-19 272,-39"/>
<text text-anchor="middle" x="226.5" y="-25.5" font-family="Helvetica,sans-Serif" font-size="10.00">getFlowTagPanel</text>
</a>
</g>
</g>
<!-- Node2 -->
<g id="Node000002" class="node">
<title>Node2</title>
<g id="a_Node000002"><a xlink:href="class_flow_tag_panel.html#ad022a384de848b36e615014a9f727755" target="_top" xlink:title=" ">
<polygon fill="white" stroke="#666666" points="145,-58 0,-58 0,-38 145,-38 145,-58"/>
<text text-anchor="middle" x="72.5" y="-44.5" font-family="Helvetica,sans-Serif" font-size="10.00">FlowTagPanel::FlowTagPanel</text>
</a>
</g>
</g>
<!-- Node1&#45;&gt;Node2 -->
<g id="edge1_Node000001_Node000002" class="edge">
<title>Node1&#45;&gt;Node2</title>
<g id="a_edge1_Node000001_Node000002"><a xlink:title=" ">
<path fill="none" stroke="#63b8ff" d="M169.46,-36C161.6,-36.99 153.44,-38.01 145.33,-39.02"/>
<polygon fill="#63b8ff" stroke="#63b8ff" points="169.73,-39.5 179.22,-34.79 168.86,-32.55 169.73,-39.5"/>
</a>
</g>
</g>
<!-- Node3 -->
<g id="Node000003" class="node">
<title>Node3</title>
<g id="a_Node000003"><a xlink:href="class_flow_tag_panel.html#a370665455a3991702bf8f6c5d9c95272" target="_top" xlink:title=" ">
<polygon fill="white" stroke="#666666" points="145,-20 0,-20 0,0 145,0 145,-20"/>
<text text-anchor="middle" x="72.5" y="-6.5" font-family="Helvetica,sans-Serif" font-size="10.00">FlowTagPanel::FlowTagPanel</text>
</a>
</g>
</g>
<!-- Node1&#45;&gt;Node3 -->
<g id="edge2_Node000001_Node000003" class="edge">
<title>Node1&#45;&gt;Node3</title>
<g id="a_edge2_Node000001_Node000003"><a xlink:title=" ">
<path fill="none" stroke="#63b8ff" d="M169.46,-22C161.6,-21.01 153.44,-19.99 145.33,-18.98"/>
<polygon fill="#63b8ff" stroke="#63b8ff" points="168.86,-25.45 179.22,-23.21 169.73,-18.5 168.86,-25.45"/>
</a>
</g>
</g>
</g>
</svg>
