<?xml version="1.0" encoding="UTF-8" standalone="no"?>
<!DOCTYPE svg PUBLIC "-//W3C//DTD SVG 1.1//EN"
 "http://www.w3.org/Graphics/SVG/1.1/DTD/svg11.dtd">
<!-- Generated by graphviz version 12.2.0 (20241103.1931)
 -->
<!-- Title: getLoadTag Pages: 1 -->
<!--zoomable 1148 -->

<svg id="main" version="1.1" xmlns="http://www.w3.org/2000/svg" xmlns:xlink="http://www.w3.org/1999/xlink" xml:space="preserve" onload="init(evt)">

<style type="text/css"><![CDATA[
.node, .edge {opacity: 0.7;}
.node.selected, .edge.selected {opacity: 1;}
.edge:hover path { stroke: red; }
.edge:hover polygon { stroke: red; fill: red; }
]]></style>

<defs>
  <circle id="rim" cx="0" cy="0" r="7"/>
  <circle id="rim2" cx="0" cy="0" r="3.5"/>
  <g id="zoomPlus">
    <use xlink:href="#rim" fill="#404040"><set attributeName="fill" to="#808080" begin="zoomplus.mouseover" end="zoomplus.mouseout"/></use>
    <path d="M-4,0h8M0,-4v8" fill="none" stroke="white" stroke-width="1.5" pointer-events="none"/>
  </g>
  <g id="zoomMin">
    <use xlink:href="#rim" fill="#404040"><set attributeName="fill" to="#808080" begin="zoomminus.mouseover" end="zoomminus.mouseout"/></use>
    <path d="M-4,0h8" fill="none" stroke="white" stroke-width="1.5" pointer-events="none"/>
  </g>
  <g id="arrowUp" transform="translate(30 24)">
    <use xlink:href="#rim"/>
    <path pointer-events="none" fill="none" stroke="white" stroke-width="1.5" d="M0,-3.0v7 M-2.5,-0.5L0,-3.0L2.5,-0.5"/>
  </g>
  <g id="arrowRight" transform="rotate(90) translate(36 -43)">
    <use xlink:href="#rim"/>
    <path pointer-events="none" fill="none" stroke="white" stroke-width="1.5" d="M0,-3.0v7 M-2.5,-0.5L0,-3.0L2.5,-0.5"/>
  </g>
  <g id="arrowDown" transform="rotate(180) translate(-30 -48)">
    <use xlink:href="#rim"/>
    <path pointer-events="none" fill="none" stroke="white" stroke-width="1.5" d="M0,-3.0v7 M-2.5,-0.5L0,-3.0L2.5,-0.5"/>
  </g>
  <g id="arrowLeft" transform="rotate(270) translate(-36 17)">
    <use xlink:href="#rim"/>
    <path pointer-events="none" fill="none" stroke="white" stroke-width="1.5" d="M0,-3.0v7 M-2.5,-0.5L0,-3.0L2.5,-0.5"/>
  </g>
  <g id="resetDef">
    <use xlink:href="#rim2" fill="#404040"><set attributeName="fill" to="#808080" begin="reset.mouseover" end="reset.mouseout"/></use>
  </g>
</defs>
<script type="application/ecmascript">
var viewWidth = 538;
var viewHeight = 1148;
var sectionId = 'dynsection-33';
</script>
<script type="application/ecmascript" xlink:href="svg.min.js"/>
<svg id="graph" class="graph">
<g id="viewport">
<title>getLoadTag</title>
<!-- Node1 -->
<g id="Node000001" class="node">
<title>Node1</title>
<g id="a_Node000001"><a xlink:title=" ">
<polygon fill="#999999" stroke="#666666" points="529.75,-552 463.5,-552 463.5,-532 529.75,-532 529.75,-552"/>
<text text-anchor="middle" x="496.62" y="-538.5" font-family="Helvetica,sans-Serif" font-size="10.00">getLoadTag</text>
</a>
</g>
</g>
<!-- Node2 -->
<g id="Node000002" class="node">
<title>Node2</title>
<g id="a_Node000002"><a xlink:href="class_list_tag.html#a1aed24f27987c6c8e8d32aeb3cb4e116" target="_top" xlink:title=" ">
<polygon fill="white" stroke="#666666" points="427.5,-1083 339.5,-1083 339.5,-1063 427.5,-1063 427.5,-1083"/>
<text text-anchor="middle" x="383.5" y="-1069.5" font-family="Helvetica,sans-Serif" font-size="10.00">ListTag::execute</text>
</a>
</g>
</g>
<!-- Node1&#45;&gt;Node2 -->
<g id="edge1_Node000001_Node000002" class="edge">
<title>Node1&#45;&gt;Node2</title>
<g id="a_edge1_Node000001_Node000002"><a xlink:title=" ">
<path fill="none" stroke="#63b8ff" d="M491.53,-563.48C481.22,-617.34 453.18,-762.47 427.5,-883 412.84,-951.8 393.62,-1034.23 386.92,-1062.72"/>
<polygon fill="#63b8ff" stroke="#63b8ff" points="494.94,-564.31 493.37,-553.83 488.06,-562.99 494.94,-564.31"/>
</a>
</g>
</g>
<!-- Node7 -->
<g id="Node000007" class="node">
<title>Node7</title>
<g id="a_Node000007"><a xlink:href="_tags_8cpp.html#a760d219c228224543b5e154be938a6c2" target="_top" xlink:title=" ">
<polygon fill="white" stroke="#666666" points="418.5,-874 348.5,-874 348.5,-854 418.5,-854 418.5,-874"/>
<text text-anchor="middle" x="383.5" y="-860.5" font-family="Helvetica,sans-Serif" font-size="10.00">executeBool</text>
</a>
</g>
</g>
<!-- Node1&#45;&gt;Node7 -->
<g id="edge6_Node000001_Node000007" class="edge">
<title>Node1&#45;&gt;Node7</title>
<g id="a_edge6_Node000001_Node000007"><a xlink:title=" ">
<path fill="none" stroke="#63b8ff" d="M488.32,-563.18C466.74,-625.69 403.87,-807.87 388.11,-853.53"/>
<polygon fill="#63b8ff" stroke="#63b8ff" points="491.61,-564.37 491.56,-553.78 484.99,-562.09 491.61,-564.37"/>
</a>
</g>
</g>
<!-- Node20 -->
<g id="Node000020" class="node">
<title>Node20</title>
<g id="a_Node000020"><a xlink:href="_tags_8cpp.html#acc7a7317843e349ecdffda47724bf380" target="_top" xlink:title=" ">
<polygon fill="white" stroke="#666666" points="275,-552 198.25,-552 198.25,-532 275,-532 275,-552"/>
<text text-anchor="middle" x="236.62" y="-538.5" font-family="Helvetica,sans-Serif" font-size="10.00">executeCoord</text>
</a>
</g>
</g>
<!-- Node1&#45;&gt;Node20 -->
<g id="edge19_Node000001_Node000020" class="edge">
<title>Node1&#45;&gt;Node20</title>
<g id="a_edge19_Node000001_Node000020"><a xlink:title=" ">
<path fill="none" stroke="#63b8ff" d="M451.89,-542C402.23,-542 322.04,-542 275.13,-542"/>
<polygon fill="#63b8ff" stroke="#63b8ff" points="451.7,-545.5 461.7,-542 451.7,-538.5 451.7,-545.5"/>
</a>
</g>
</g>
<!-- Node26 -->
<g id="Node000026" class="node">
<title>Node26</title>
<g id="a_Node000026"><a xlink:href="_tags_8cpp.html#ac1dada7a37a3c93abfa74f5d178e096d" target="_top" xlink:title=" ">
<polygon fill="white" stroke="#666666" points="419.62,-646 347.38,-646 347.38,-626 419.62,-626 419.62,-646"/>
<text text-anchor="middle" x="383.5" y="-632.5" font-family="Helvetica,sans-Serif" font-size="10.00">executeFloat</text>
</a>
</g>
</g>
<!-- Node1&#45;&gt;Node26 -->
<g id="edge26_Node000001_Node000026" class="edge">
<title>Node1&#45;&gt;Node26</title>
<g id="a_edge26_Node000001_Node000026"><a xlink:title=" ">
<path fill="none" stroke="#63b8ff" d="M474.65,-559.75C451.7,-579.16 415.68,-609.63 396.87,-625.53"/>
<polygon fill="#63b8ff" stroke="#63b8ff" points="476.78,-562.53 482.15,-553.4 472.26,-557.18 476.78,-562.53"/>
</a>
</g>
</g>
<!-- Node31 -->
<g id="Node000031" class="node">
<title>Node31</title>
<g id="a_Node000031"><a xlink:href="_tags_8cpp.html#af21ab8bf49b3e2e38e00d6cadb1e4871" target="_top" xlink:title=" ">
<polygon fill="white" stroke="#666666" points="414.38,-476 352.62,-476 352.62,-456 414.38,-456 414.38,-476"/>
<text text-anchor="middle" x="383.5" y="-462.5" font-family="Helvetica,sans-Serif" font-size="10.00">executeInt</text>
</a>
</g>
</g>
<!-- Node1&#45;&gt;Node31 -->
<g id="edge31_Node000001_Node000031" class="edge">
<title>Node1&#45;&gt;Node31</title>
<g id="a_edge31_Node000001_Node000031"><a xlink:title=" ">
<path fill="none" stroke="#63b8ff" d="M471.35,-525.4C449.49,-510.45 418.05,-488.95 399.6,-476.33"/>
<polygon fill="#63b8ff" stroke="#63b8ff" points="469.16,-528.14 479.39,-530.9 473.11,-522.36 469.16,-528.14"/>
</a>
</g>
</g>
<!-- Node37 -->
<g id="Node000037" class="node">
<title>Node37</title>
<g id="a_Node000037"><a xlink:href="_tags_8cpp.html#a4bab8267d7e817b59ed55ad288131821" target="_top" xlink:title=" ">
<polygon fill="white" stroke="#666666" points="421.5,-286 345.5,-286 345.5,-266 421.5,-266 421.5,-286"/>
<text text-anchor="middle" x="383.5" y="-272.5" font-family="Helvetica,sans-Serif" font-size="10.00">executeString</text>
</a>
</g>
</g>
<!-- Node1&#45;&gt;Node37 -->
<g id="edge38_Node000001_Node000037" class="edge">
<title>Node1&#45;&gt;Node37</title>
<g id="a_edge38_Node000001_Node000037"><a xlink:title=" ">
<path fill="none" stroke="#63b8ff" d="M486.97,-521.27C464.57,-467.66 405.34,-325.87 388.83,-286.36"/>
<polygon fill="#63b8ff" stroke="#63b8ff" points="483.6,-522.3 490.69,-530.18 490.06,-519.6 483.6,-522.3"/>
</a>
</g>
</g>
<!-- Node42 -->
<g id="Node000042" class="node">
<title>Node42</title>
<g id="a_Node000042"><a xlink:href="_tags_8cpp.html#af880453da2451d42d582407678414cca" target="_top" xlink:title=" ">
<polygon fill="white" stroke="#666666" points="419.62,-115 347.38,-115 347.38,-95 419.62,-95 419.62,-115"/>
<text text-anchor="middle" x="383.5" y="-101.5" font-family="Helvetica,sans-Serif" font-size="10.00">executeZone</text>
</a>
</g>
</g>
<!-- Node1&#45;&gt;Node42 -->
<g id="edge43_Node000001_Node000042" class="edge">
<title>Node1&#45;&gt;Node42</title>
<g id="a_edge43_Node000001_Node000042"><a xlink:title=" ">
<path fill="none" stroke="#63b8ff" d="M490.83,-520.62C480.1,-473.07 453.08,-355.06 427.5,-257 413.52,-203.4 394.83,-139.75 387.57,-115.28"/>
<polygon fill="#63b8ff" stroke="#63b8ff" points="487.36,-521.15 492.97,-530.13 494.19,-519.61 487.36,-521.15"/>
</a>
</g>
</g>
<!-- Node3 -->
<g id="Node000003" class="node">
<title>Node3</title>
<g id="a_Node000003"><a xlink:href="class_compare_tag.html#a86f4370ec7c06612dc614d5ee0a80bbc" target="_top" xlink:title=" ">
<polygon fill="white" stroke="#666666" points="292.62,-1140 180.62,-1140 180.62,-1120 292.62,-1120 292.62,-1140"/>
<text text-anchor="middle" x="236.62" y="-1126.5" font-family="Helvetica,sans-Serif" font-size="10.00">CompareTag::execute</text>
</a>
</g>
</g>
<!-- Node2&#45;&gt;Node3 -->
<g id="edge2_Node000002_Node000003" class="edge">
<title>Node2&#45;&gt;Node3</title>
<g id="a_edge2_Node000002_Node000003"><a xlink:title=" ">
<path fill="none" stroke="#63b8ff" d="M353.12,-1088.59C338.46,-1095.98 320.32,-1104.58 303.5,-1111 295.38,-1114.1 286.54,-1116.97 278.04,-1119.5"/>
<polygon fill="#63b8ff" stroke="#63b8ff" points="354.45,-1091.83 361.75,-1084.15 351.26,-1085.61 354.45,-1091.83"/>
</a>
</g>
</g>
<!-- Node4 -->
<g id="Node000004" class="node">
<title>Node4</title>
<g id="a_Node000004"><a xlink:href="class_compare_tag.html#a574c5229cbbc446a28fa2ef1cea813c3" target="_top" xlink:title=" ">
<polygon fill="white" stroke="#666666" points="292.62,-1102 180.62,-1102 180.62,-1082 292.62,-1082 292.62,-1102"/>
<text text-anchor="middle" x="236.62" y="-1088.5" font-family="Helvetica,sans-Serif" font-size="10.00">CompareTag::execute</text>
</a>
</g>
</g>
<!-- Node2&#45;&gt;Node4 -->
<g id="edge3_Node000002_Node000004" class="edge">
<title>Node2&#45;&gt;Node4</title>
<g id="a_edge3_Node000002_Node000004"><a xlink:title=" ">
<path fill="none" stroke="#63b8ff" d="M327.85,-1080.17C316.42,-1081.67 304.35,-1083.25 292.9,-1084.75"/>
<polygon fill="#63b8ff" stroke="#63b8ff" points="328.07,-1083.67 337.53,-1078.9 327.16,-1076.73 328.07,-1083.67"/>
</a>
</g>
</g>
<!-- Node5 -->
<g id="Node000005" class="node">
<title>Node5</title>
<g id="a_Node000005"><a xlink:href="_tags_8cpp.html#a663afb00e3e4be1f6f395904d5ed7dea" target="_top" xlink:title=" ">
<polygon fill="white" stroke="#666666" points="269.75,-1064 203.5,-1064 203.5,-1044 269.75,-1044 269.75,-1064"/>
<text text-anchor="middle" x="236.62" y="-1050.5" font-family="Helvetica,sans-Serif" font-size="10.00">executeList</text>
</a>
</g>
</g>
<!-- Node2&#45;&gt;Node5 -->
<g id="edge4_Node000002_Node000005" class="edge">
<title>Node2&#45;&gt;Node5</title>
<g id="a_edge4_Node000002_Node000005"><a xlink:title=" ">
<path fill="none" stroke="#63b8ff" d="M327.82,-1065.83C308.33,-1063.27 287.02,-1060.48 270.01,-1058.25"/>
<polygon fill="#63b8ff" stroke="#63b8ff" points="327.16,-1069.27 337.53,-1067.1 328.07,-1062.33 327.16,-1069.27"/>
</a>
</g>
</g>
<!-- Node6 -->
<g id="Node000006" class="node">
<title>Node6</title>
<g id="a_Node000006"><a xlink:href="class_store_tag_3_01std_1_1vector_3_01_t_01_4_01_4.html#af14db3889a7c857f6b33676347fd9055" target="_top" xlink:title=" ">
<polygon fill="white" stroke="#666666" points="122.12,-1070 11.62,-1070 11.62,-1038 122.12,-1038 122.12,-1070"/>
<text text-anchor="start" x="19.62" y="-1056.5" font-family="Helvetica,sans-Serif" font-size="10.00">StoreTag&lt; std::vector</text>
<text text-anchor="middle" x="66.88" y="-1044.5" font-family="Helvetica,sans-Serif" font-size="10.00">&lt; T &gt; &gt;::execute</text>
</a>
</g>
</g>
<!-- Node5&#45;&gt;Node6 -->
<g id="edge5_Node000005_Node000006" class="edge">
<title>Node5&#45;&gt;Node6</title>
<g id="a_edge5_Node000005_Node000006"><a xlink:title=" ">
<path fill="none" stroke="#63b8ff" d="M192.01,-1054C170.8,-1054 145.08,-1054 122.57,-1054"/>
<polygon fill="#63b8ff" stroke="#63b8ff" points="191.77,-1057.5 201.77,-1054 191.77,-1050.5 191.77,-1057.5"/>
</a>
</g>
</g>
<!-- Node8 -->
<g id="Node000008" class="node">
<title>Node8</title>
<g id="a_Node000008"><a xlink:href="class_flow_tag.html#a31aaff76d66f8814e75a6e404c52028c" target="_top" xlink:title=" ">
<polygon fill="white" stroke="#666666" points="299.75,-874 173.5,-874 173.5,-854 299.75,-854 299.75,-874"/>
<text text-anchor="middle" x="236.62" y="-860.5" font-family="Helvetica,sans-Serif" font-size="10.00">FlowTag::checkCondition</text>
</a>
</g>
</g>
<!-- Node7&#45;&gt;Node8 -->
<g id="edge7_Node000007_Node000008" class="edge">
<title>Node7&#45;&gt;Node8</title>
<g id="a_edge7_Node000007_Node000008"><a xlink:title=" ">
<path fill="none" stroke="#63b8ff" d="M336.9,-864C325.22,-864 312.45,-864 300.08,-864"/>
<polygon fill="#63b8ff" stroke="#63b8ff" points="336.65,-867.5 346.65,-864 336.65,-860.5 336.65,-867.5"/>
</a>
</g>
</g>
<!-- Node13 -->
<g id="Node000013" class="node">
<title>Node13</title>
<g id="a_Node000013"><a xlink:href="class_and_tag.html#a717c64277833f629122ee01f13af05ec" target="_top" xlink:title=" ">
<polygon fill="white" stroke="#666666" points="281.38,-836 191.88,-836 191.88,-816 281.38,-816 281.38,-836"/>
<text text-anchor="middle" x="236.62" y="-822.5" font-family="Helvetica,sans-Serif" font-size="10.00">AndTag::execute</text>
</a>
</g>
</g>
<!-- Node7&#45;&gt;Node13 -->
<g id="edge12_Node000007_Node000013" class="edge">
<title>Node7&#45;&gt;Node13</title>
<g id="a_edge12_Node000007_Node000013"><a xlink:title=" ">
<path fill="none" stroke="#63b8ff" d="M337.04,-852.08C317.99,-847.08 296.04,-841.32 277.62,-836.49"/>
<polygon fill="#63b8ff" stroke="#63b8ff" points="336.14,-855.46 346.7,-854.61 337.92,-848.69 336.14,-855.46"/>
</a>
</g>
</g>
<!-- Node14 -->
<g id="Node000014" class="node">
<title>Node14</title>
<g id="a_Node000014"><a xlink:href="class_bool_tag.html#a2695d817dcbf4150f25cec21a453633a" target="_top" xlink:title=" ">
<polygon fill="white" stroke="#666666" points="282.5,-798 190.75,-798 190.75,-778 282.5,-778 282.5,-798"/>
<text text-anchor="middle" x="236.62" y="-784.5" font-family="Helvetica,sans-Serif" font-size="10.00">BoolTag::execute</text>
</a>
</g>
</g>
<!-- Node7&#45;&gt;Node14 -->
<g id="edge13_Node000007_Node000014" class="edge">
<title>Node7&#45;&gt;Node14</title>
<g id="a_edge13_Node000007_Node000014"><a xlink:title=" ">
<path fill="none" stroke="#63b8ff" d="M362.18,-846.31C346.92,-833.81 325.04,-817.48 303.5,-807 296.65,-803.67 289.11,-800.81 281.65,-798.41"/>
<polygon fill="#63b8ff" stroke="#63b8ff" points="359.69,-848.79 369.6,-852.53 364.19,-843.42 359.69,-848.79"/>
</a>
</g>
</g>
<!-- Node15 -->
<g id="Node000015" class="node">
<title>Node15</title>
<g id="a_Node000015"><a xlink:href="class_not_tag.html#a533ae047d2883863ac8e998326a4037c" target="_top" xlink:title=" ">
<polygon fill="white" stroke="#666666" points="280.62,-760 192.62,-760 192.62,-740 280.62,-740 280.62,-760"/>
<text text-anchor="middle" x="236.62" y="-746.5" font-family="Helvetica,sans-Serif" font-size="10.00">NotTag::execute</text>
</a>
</g>
</g>
<!-- Node7&#45;&gt;Node15 -->
<g id="edge14_Node000007_Node000015" class="edge">
<title>Node7&#45;&gt;Node15</title>
<g id="a_edge14_Node000007_Node000015"><a xlink:title=" ">
<path fill="none" stroke="#63b8ff" d="M370.91,-843.9C357.41,-822.28 333.14,-788.38 303.5,-769 296.73,-764.57 288.9,-761.15 281.06,-758.53"/>
<polygon fill="#63b8ff" stroke="#63b8ff" points="367.86,-845.63 376.02,-852.39 373.86,-842.02 367.86,-845.63"/>
</a>
</g>
</g>
<!-- Node16 -->
<g id="Node000016" class="node">
<title>Node16</title>
<g id="a_Node000016"><a xlink:href="class_or_tag.html#a09018c07d9e941c9dcdd1681fb35f396" target="_top" xlink:title=" ">
<polygon fill="white" stroke="#666666" points="278,-1026 195.25,-1026 195.25,-1006 278,-1006 278,-1026"/>
<text text-anchor="middle" x="236.62" y="-1012.5" font-family="Helvetica,sans-Serif" font-size="10.00">OrTag::execute</text>
</a>
</g>
</g>
<!-- Node7&#45;&gt;Node16 -->
<g id="edge15_Node000007_Node000016" class="edge">
<title>Node7&#45;&gt;Node16</title>
<g id="a_edge15_Node000007_Node000016"><a xlink:title=" ">
<path fill="none" stroke="#63b8ff" d="M375.58,-885.17C364.86,-914.64 341.42,-967.7 303.5,-997 296.15,-1002.68 287.17,-1006.66 278.22,-1009.45"/>
<polygon fill="#63b8ff" stroke="#63b8ff" points="378.83,-886.48 378.8,-875.89 372.21,-884.19 378.83,-886.48"/>
</a>
</g>
</g>
<!-- Node17 -->
<g id="Node000017" class="node">
<title>Node17</title>
<g id="a_Node000017"><a xlink:href="class_print_tag.html#a7f13604680769a05f1cfc6d6574dc4d4" target="_top" xlink:title=" ">
<polygon fill="white" stroke="#666666" points="282.88,-988 190.38,-988 190.38,-968 282.88,-968 282.88,-988"/>
<text text-anchor="middle" x="236.62" y="-974.5" font-family="Helvetica,sans-Serif" font-size="10.00">PrintTag::execute</text>
</a>
</g>
</g>
<!-- Node7&#45;&gt;Node17 -->
<g id="edge16_Node000007_Node000017" class="edge">
<title>Node7&#45;&gt;Node17</title>
<g id="a_edge16_Node000007_Node000017"><a xlink:title=" ">
<path fill="none" stroke="#63b8ff" d="M370.91,-884.1C357.41,-905.72 333.14,-939.62 303.5,-959 297.32,-963.04 290.27,-966.23 283.14,-968.76"/>
<polygon fill="#63b8ff" stroke="#63b8ff" points="373.86,-885.98 376.02,-875.61 367.86,-882.37 373.86,-885.98"/>
</a>
</g>
</g>
<!-- Node18 -->
<g id="Node000018" class="node">
<title>Node18</title>
<g id="a_Node000018"><a xlink:href="class_store_tag.html#a2d94b2885139efa8c8c5a81a1f2ad3ad" target="_top" xlink:title=" ">
<polygon fill="white" stroke="#666666" points="284.38,-950 188.88,-950 188.88,-930 284.38,-930 284.38,-950"/>
<text text-anchor="middle" x="236.62" y="-936.5" font-family="Helvetica,sans-Serif" font-size="10.00">StoreTag::execute</text>
</a>
</g>
</g>
<!-- Node7&#45;&gt;Node18 -->
<g id="edge17_Node000007_Node000018" class="edge">
<title>Node7&#45;&gt;Node18</title>
<g id="a_edge17_Node000007_Node000018"><a xlink:title=" ">
<path fill="none" stroke="#63b8ff" d="M362.18,-881.69C346.92,-894.19 325.04,-910.52 303.5,-921 296.65,-924.33 289.11,-927.19 281.65,-929.59"/>
<polygon fill="#63b8ff" stroke="#63b8ff" points="364.19,-884.58 369.6,-875.47 359.69,-879.21 364.19,-884.58"/>
</a>
</g>
</g>
<!-- Node19 -->
<g id="Node000019" class="node">
<title>Node19</title>
<g id="a_Node000019"><a xlink:href="class_list_tag.html#a4b3996b967d7c4ea8a44fd744ef3c054" target="_top" xlink:title=" ">
<polygon fill="white" stroke="#666666" points="303.5,-912 169.75,-912 169.75,-892 303.5,-892 303.5,-912"/>
<text text-anchor="middle" x="236.62" y="-898.5" font-family="Helvetica,sans-Serif" font-size="10.00">ListTag::executeSimpleTag</text>
</a>
</g>
</g>
<!-- Node7&#45;&gt;Node19 -->
<g id="edge18_Node000007_Node000019" class="edge">
<title>Node7&#45;&gt;Node19</title>
<g id="a_edge18_Node000007_Node000019"><a xlink:title=" ">
<path fill="none" stroke="#63b8ff" d="M337.04,-875.92C317.99,-880.92 296.04,-886.68 277.62,-891.51"/>
<polygon fill="#63b8ff" stroke="#63b8ff" points="337.92,-879.31 346.7,-873.39 336.14,-872.54 337.92,-879.31"/>
</a>
</g>
</g>
<!-- Node9 -->
<g id="Node000009" class="node">
<title>Node9</title>
<g id="a_Node000009"><a xlink:href="class_do_loop_tag.html#ae35bcd126538e7d415cfea702992dea2" target="_top" xlink:title=" ">
<polygon fill="white" stroke="#666666" points="119.88,-931 13.88,-931 13.88,-911 119.88,-911 119.88,-931"/>
<text text-anchor="middle" x="66.88" y="-917.5" font-family="Helvetica,sans-Serif" font-size="10.00">DoLoopTag::execute</text>
</a>
</g>
</g>
<!-- Node8&#45;&gt;Node9 -->
<g id="edge8_Node000008_Node000009" class="edge">
<title>Node8&#45;&gt;Node9</title>
<g id="a_edge8_Node000008_Node000009"><a xlink:title=" ">
<path fill="none" stroke="#63b8ff" d="M183.48,-877.96C178.8,-879.54 174.16,-881.22 169.75,-883 152.97,-889.76 150.53,-895.24 133.75,-902 125.91,-905.16 117.35,-908.03 109.08,-910.52"/>
<polygon fill="#63b8ff" stroke="#63b8ff" points="184.51,-881.3 192.98,-874.93 182.39,-874.63 184.51,-881.3"/>
</a>
</g>
</g>
<!-- Node10 -->
<g id="Node000010" class="node">
<title>Node10</title>
<g id="a_Node000010"><a xlink:href="class_elif_tag.html#a7cc72c1d5a35e1272727fd833d47406b" target="_top" xlink:title=" ">
<polygon fill="white" stroke="#666666" points="110.12,-893 23.62,-893 23.62,-873 110.12,-873 110.12,-893"/>
<text text-anchor="middle" x="66.88" y="-879.5" font-family="Helvetica,sans-Serif" font-size="10.00">ElifTag::execute</text>
</a>
</g>
</g>
<!-- Node8&#45;&gt;Node10 -->
<g id="edge9_Node000008_Node000010" class="edge">
<title>Node8&#45;&gt;Node10</title>
<g id="a_edge9_Node000008_Node000010"><a xlink:title=" ">
<path fill="none" stroke="#63b8ff" d="M161.76,-872.37C144.24,-874.35 126.12,-876.4 110.53,-878.17"/>
<polygon fill="#63b8ff" stroke="#63b8ff" points="162.11,-875.85 171.66,-871.25 161.33,-868.89 162.11,-875.85"/>
</a>
</g>
</g>
<!-- Node11 -->
<g id="Node000011" class="node">
<title>Node11</title>
<g id="a_Node000011"><a xlink:href="class_if_tag.html#a1e3e94db1e59bead37cf55cd9c791c70" target="_top" xlink:title=" ">
<polygon fill="white" stroke="#666666" points="106,-855 27.75,-855 27.75,-835 106,-835 106,-855"/>
<text text-anchor="middle" x="66.88" y="-841.5" font-family="Helvetica,sans-Serif" font-size="10.00">IfTag::execute</text>
</a>
</g>
</g>
<!-- Node8&#45;&gt;Node11 -->
<g id="edge10_Node000008_Node000011" class="edge">
<title>Node8&#45;&gt;Node11</title>
<g id="a_edge10_Node000008_Node000011"><a xlink:title=" ">
<path fill="none" stroke="#63b8ff" d="M161.92,-855.65C142.63,-853.47 122.61,-851.2 106.03,-849.32"/>
<polygon fill="#63b8ff" stroke="#63b8ff" points="161.33,-859.11 171.66,-856.75 162.11,-852.15 161.33,-859.11"/>
</a>
</g>
</g>
<!-- Node12 -->
<g id="Node000012" class="node">
<title>Node12</title>
<g id="a_Node000012"><a xlink:href="class_loop_tag.html#ab2c7cf9f4dc1a5df0814410ab7494d1e" target="_top" xlink:title=" ">
<polygon fill="white" stroke="#666666" points="113.5,-817 20.25,-817 20.25,-797 113.5,-797 113.5,-817"/>
<text text-anchor="middle" x="66.88" y="-803.5" font-family="Helvetica,sans-Serif" font-size="10.00">LoopTag::execute</text>
</a>
</g>
</g>
<!-- Node8&#45;&gt;Node12 -->
<g id="edge11_Node000008_Node000012" class="edge">
<title>Node8&#45;&gt;Node12</title>
<g id="a_edge11_Node000008_Node000012"><a xlink:title=" ">
<path fill="none" stroke="#63b8ff" d="M183.48,-850.04C178.8,-848.46 174.16,-846.78 169.75,-845 152.97,-838.24 150.53,-832.76 133.75,-826 125.91,-822.84 117.35,-819.97 109.08,-817.48"/>
<polygon fill="#63b8ff" stroke="#63b8ff" points="182.39,-853.37 192.98,-853.07 184.51,-846.7 182.39,-853.37"/>
</a>
</g>
</g>
<!-- Node20&#45;&gt;Node20 -->
<g id="edge23_Node000020_Node000020" class="edge">
<title>Node20&#45;&gt;Node20</title>
<g id="a_edge23_Node000020_Node000020"><a xlink:title=" ">
<path fill="none" stroke="#63b8ff" d="M262.58,-563.44C259.24,-567.3 250.59,-570 236.62,-570 211.09,-570 203.32,-560.98 213.29,-552.34"/>
<polygon fill="#63b8ff" stroke="#63b8ff" points="266.01,-562.74 260.31,-553.81 259.2,-564.35 266.01,-562.74"/>
</a>
</g>
</g>
<!-- Node21 -->
<g id="Node000021" class="node">
<title>Node21</title>
<g id="a_Node000021"><a xlink:href="class_coord_tag.html#a05fd30fa6bcce4b90c96f81adcc7f096" target="_top" xlink:title=" ">
<polygon fill="white" stroke="#666666" points="116.12,-609 17.62,-609 17.62,-589 116.12,-589 116.12,-609"/>
<text text-anchor="middle" x="66.88" y="-595.5" font-family="Helvetica,sans-Serif" font-size="10.00">CoordTag::execute</text>
</a>
</g>
</g>
<!-- Node20&#45;&gt;Node21 -->
<g id="edge20_Node000020_Node000021" class="edge">
<title>Node20&#45;&gt;Node21</title>
<g id="a_edge20_Node000020_Node000021"><a xlink:title=" ">
<path fill="none" stroke="#63b8ff" d="M198.71,-556.54C179.47,-563.93 155.48,-572.83 133.75,-580 124.82,-582.95 115.13,-585.89 106,-588.54"/>
<polygon fill="#63b8ff" stroke="#63b8ff" points="199.96,-559.81 208.02,-552.94 197.43,-553.28 199.96,-559.81"/>
</a>
</g>
</g>
<!-- Node22 -->
<g id="Node000022" class="node">
<title>Node22</title>
<g id="a_Node000022"><a xlink:href="class_print_tag.html#aaa0074d42cc27ed9be51cf6b680ccba8" target="_top" xlink:title=" ">
<polygon fill="white" stroke="#666666" points="113.12,-571 20.62,-571 20.62,-551 113.12,-551 113.12,-571"/>
<text text-anchor="middle" x="66.88" y="-557.5" font-family="Helvetica,sans-Serif" font-size="10.00">PrintTag::execute</text>
</a>
</g>
</g>
<!-- Node20&#45;&gt;Node22 -->
<g id="edge21_Node000020_Node000022" class="edge">
<title>Node20&#45;&gt;Node22</title>
<g id="a_edge21_Node000020_Node000022"><a xlink:title=" ">
<path fill="none" stroke="#63b8ff" d="M186.67,-547.54C163.56,-550.16 136.13,-553.27 113.46,-555.84"/>
<polygon fill="#63b8ff" stroke="#63b8ff" points="186.93,-551.04 196.47,-546.43 186.14,-544.08 186.93,-551.04"/>
</a>
</g>
</g>
<!-- Node23 -->
<g id="Node000023" class="node">
<title>Node23</title>
<g id="a_Node000023"><a xlink:href="class_store_tag.html#a851b13b9fe7597c4d44f24acc4fc0bff" target="_top" xlink:title=" ">
<polygon fill="white" stroke="#666666" points="114.62,-533 19.12,-533 19.12,-513 114.62,-513 114.62,-533"/>
<text text-anchor="middle" x="66.88" y="-519.5" font-family="Helvetica,sans-Serif" font-size="10.00">StoreTag::execute</text>
</a>
</g>
</g>
<!-- Node20&#45;&gt;Node23 -->
<g id="edge22_Node000020_Node000023" class="edge">
<title>Node20&#45;&gt;Node23</title>
<g id="a_edge22_Node000020_Node000023"><a xlink:title=" ">
<path fill="none" stroke="#63b8ff" d="M186.59,-536.45C164.01,-533.89 137.34,-530.87 115,-528.34"/>
<polygon fill="#63b8ff" stroke="#63b8ff" points="186.14,-539.92 196.47,-537.57 186.93,-532.96 186.14,-539.92"/>
</a>
</g>
</g>
<!-- Node24 -->
<g id="Node000024" class="node">
<title>Node24</title>
<g id="a_Node000024"><a xlink:href="class_list_tag.html#ae4d69bbe6f70fb5303486e8cb901c0e4" target="_top" xlink:title=" ">
<polygon fill="white" stroke="#666666" points="133.75,-495 0,-495 0,-475 133.75,-475 133.75,-495"/>
<text text-anchor="middle" x="66.88" y="-481.5" font-family="Helvetica,sans-Serif" font-size="10.00">ListTag::executeSimpleTag</text>
</a>
</g>
</g>
<!-- Node20&#45;&gt;Node24 -->
<g id="edge24_Node000020_Node000024" class="edge">
<title>Node20&#45;&gt;Node24</title>
<g id="a_edge24_Node000020_Node000024"><a xlink:title=" ">
<path fill="none" stroke="#63b8ff" d="M187.25,-529.29C181.29,-527.36 175.34,-525.25 169.75,-523 152.97,-516.24 150.53,-510.76 133.75,-504 125.91,-500.84 117.35,-497.97 109.08,-495.48"/>
<polygon fill="#63b8ff" stroke="#63b8ff" points="185.86,-532.52 196.45,-532.11 187.92,-525.83 185.86,-532.52"/>
</a>
</g>
</g>
<!-- Node25 -->
<g id="Node000025" class="node">
<title>Node25</title>
<g id="a_Node000025"><a xlink:href="_tags_8cpp.html#a50b5a098d92d9488b24f241307659676" target="_top" xlink:title=" ">
<polygon fill="white" stroke="#666666" points="103,-305 30.75,-305 30.75,-285 103,-285 103,-305"/>
<text text-anchor="middle" x="66.88" y="-291.5" font-family="Helvetica,sans-Serif" font-size="10.00">executeZone</text>
</a>
</g>
</g>
<!-- Node20&#45;&gt;Node25 -->
<g id="edge25_Node000020_Node000025" class="edge">
<title>Node20&#45;&gt;Node25</title>
<g id="a_edge25_Node000020_Node000025"><a xlink:title=" ">
<path fill="none" stroke="#63b8ff" d="M187.16,-533.39C180.84,-530.79 174.81,-527.4 169.75,-523 151.63,-507.25 88.6,-348.07 71.94,-305.45"/>
<polygon fill="#63b8ff" stroke="#63b8ff" points="185.94,-536.67 196.53,-536.58 188.19,-530.04 185.94,-536.67"/>
</a>
</g>
</g>
<!-- Node27 -->
<g id="Node000027" class="node">
<title>Node27</title>
<g id="a_Node000027"><a xlink:href="class_float_tag.html#ab2c4b5b9179aa27b9a1815821cd10c06" target="_top" xlink:title=" ">
<polygon fill="white" stroke="#666666" points="283.62,-722 189.62,-722 189.62,-702 283.62,-702 283.62,-722"/>
<text text-anchor="middle" x="236.62" y="-708.5" font-family="Helvetica,sans-Serif" font-size="10.00">FloatTag::execute</text>
</a>
</g>
</g>
<!-- Node26&#45;&gt;Node27 -->
<g id="edge27_Node000026_Node000027" class="edge">
<title>Node26&#45;&gt;Node27</title>
<g id="a_edge27_Node000026_Node000027"><a xlink:title=" ">
<path fill="none" stroke="#63b8ff" d="M362.18,-653.69C346.92,-666.19 325.04,-682.52 303.5,-693 296.65,-696.33 289.11,-699.19 281.65,-701.59"/>
<polygon fill="#63b8ff" stroke="#63b8ff" points="364.19,-656.58 369.6,-647.47 359.69,-651.21 364.19,-656.58"/>
</a>
</g>
</g>
<!-- Node28 -->
<g id="Node000028" class="node">
<title>Node28</title>
<g id="a_Node000028"><a xlink:href="class_print_tag.html#aa2db39d8ac5d33546877e5919de9a328" target="_top" xlink:title=" ">
<polygon fill="white" stroke="#666666" points="282.88,-684 190.38,-684 190.38,-664 282.88,-664 282.88,-684"/>
<text text-anchor="middle" x="236.62" y="-670.5" font-family="Helvetica,sans-Serif" font-size="10.00">PrintTag::execute</text>
</a>
</g>
</g>
<!-- Node26&#45;&gt;Node28 -->
<g id="edge28_Node000026_Node000028" class="edge">
<title>Node26&#45;&gt;Node28</title>
<g id="a_edge28_Node000026_Node000028"><a xlink:title=" ">
<path fill="none" stroke="#63b8ff" d="M336.03,-648.19C317.2,-653.13 295.67,-658.78 277.55,-663.53"/>
<polygon fill="#63b8ff" stroke="#63b8ff" points="336.81,-651.6 345.6,-645.68 335.03,-644.83 336.81,-651.6"/>
</a>
</g>
</g>
<!-- Node29 -->
<g id="Node000029" class="node">
<title>Node29</title>
<g id="a_Node000029"><a xlink:href="class_store_tag.html#a79e37c3ee8d645186bb4574bd9826729" target="_top" xlink:title=" ">
<polygon fill="white" stroke="#666666" points="284.38,-646 188.88,-646 188.88,-626 284.38,-626 284.38,-646"/>
<text text-anchor="middle" x="236.62" y="-632.5" font-family="Helvetica,sans-Serif" font-size="10.00">StoreTag::execute</text>
</a>
</g>
</g>
<!-- Node26&#45;&gt;Node29 -->
<g id="edge29_Node000026_Node000029" class="edge">
<title>Node26&#45;&gt;Node29</title>
<g id="a_edge29_Node000026_Node000029"><a xlink:title=" ">
<path fill="none" stroke="#63b8ff" d="M335.6,-636C319.31,-636 301.04,-636 284.74,-636"/>
<polygon fill="#63b8ff" stroke="#63b8ff" points="335.55,-639.5 345.55,-636 335.55,-632.5 335.55,-639.5"/>
</a>
</g>
</g>
<!-- Node30 -->
<g id="Node000030" class="node">
<title>Node30</title>
<g id="a_Node000030"><a xlink:href="class_list_tag.html#ac4a1534d0c7bbe85591dc0268635d639" target="_top" xlink:title=" ">
<polygon fill="white" stroke="#666666" points="303.5,-608 169.75,-608 169.75,-588 303.5,-588 303.5,-608"/>
<text text-anchor="middle" x="236.62" y="-594.5" font-family="Helvetica,sans-Serif" font-size="10.00">ListTag::executeSimpleTag</text>
</a>
</g>
</g>
<!-- Node26&#45;&gt;Node30 -->
<g id="edge30_Node000026_Node000030" class="edge">
<title>Node26&#45;&gt;Node30</title>
<g id="a_edge30_Node000026_Node000030"><a xlink:title=" ">
<path fill="none" stroke="#63b8ff" d="M336.03,-623.81C317.2,-618.87 295.67,-613.22 277.55,-608.47"/>
<polygon fill="#63b8ff" stroke="#63b8ff" points="335.03,-627.17 345.6,-626.32 336.81,-620.4 335.03,-627.17"/>
</a>
</g>
</g>
<!-- Node31&#45;&gt;Node20 -->
<g id="edge36_Node000031_Node000020" class="edge">
<title>Node31&#45;&gt;Node20</title>
<g id="a_edge36_Node000031_Node000020"><a xlink:title=" ">
<path fill="none" stroke="#63b8ff" d="M362.18,-483.69C346.92,-496.19 325.04,-512.52 303.5,-523 294.72,-527.27 284.81,-530.76 275.39,-533.52"/>
<polygon fill="#63b8ff" stroke="#63b8ff" points="364.19,-486.58 369.6,-477.47 359.69,-481.21 364.19,-486.58"/>
</a>
</g>
</g>
<!-- Node32 -->
<g id="Node000032" class="node">
<title>Node32</title>
<g id="a_Node000032"><a xlink:href="class_int_tag.html#acd1fc79dd10552857136934ba444d4d4" target="_top" xlink:title=" ">
<polygon fill="white" stroke="#666666" points="278.38,-514 194.88,-514 194.88,-494 278.38,-494 278.38,-514"/>
<text text-anchor="middle" x="236.62" y="-500.5" font-family="Helvetica,sans-Serif" font-size="10.00">IntTag::execute</text>
</a>
</g>
</g>
<!-- Node31&#45;&gt;Node32 -->
<g id="edge32_Node000031_Node000032" class="edge">
<title>Node31&#45;&gt;Node32</title>
<g id="a_edge32_Node000031_Node000032"><a xlink:title=" ">
<path fill="none" stroke="#63b8ff" d="M341.19,-476.84C321.23,-482.07 297.37,-488.33 277.59,-493.52"/>
<polygon fill="#63b8ff" stroke="#63b8ff" points="341.88,-480.27 350.67,-474.35 340.1,-473.5 341.88,-480.27"/>
</a>
</g>
</g>
<!-- Node33 -->
<g id="Node000033" class="node">
<title>Node33</title>
<g id="a_Node000033"><a xlink:href="class_print_tag.html#a4cbad6e5926bac15a87371763407f879" target="_top" xlink:title=" ">
<polygon fill="white" stroke="#666666" points="282.88,-476 190.38,-476 190.38,-456 282.88,-456 282.88,-476"/>
<text text-anchor="middle" x="236.62" y="-462.5" font-family="Helvetica,sans-Serif" font-size="10.00">PrintTag::execute</text>
</a>
</g>
</g>
<!-- Node31&#45;&gt;Node33 -->
<g id="edge33_Node000031_Node000033" class="edge">
<title>Node31&#45;&gt;Node33</title>
<g id="a_edge33_Node000031_Node000033"><a xlink:title=" ">
<path fill="none" stroke="#63b8ff" d="M340.78,-466C322.73,-466 301.55,-466 283.1,-466"/>
<polygon fill="#63b8ff" stroke="#63b8ff" points="340.62,-469.5 350.62,-466 340.62,-462.5 340.62,-469.5"/>
</a>
</g>
</g>
<!-- Node34 -->
<g id="Node000034" class="node">
<title>Node34</title>
<g id="a_Node000034"><a xlink:href="class_store_tag.html#a5bf6c42a586f31ce9a7241c91ec1f382" target="_top" xlink:title=" ">
<polygon fill="white" stroke="#666666" points="284.38,-438 188.88,-438 188.88,-418 284.38,-418 284.38,-438"/>
<text text-anchor="middle" x="236.62" y="-424.5" font-family="Helvetica,sans-Serif" font-size="10.00">StoreTag::execute</text>
</a>
</g>
</g>
<!-- Node31&#45;&gt;Node34 -->
<g id="edge34_Node000031_Node000034" class="edge">
<title>Node31&#45;&gt;Node34</title>
<g id="a_edge34_Node000031_Node000034"><a xlink:title=" ">
<path fill="none" stroke="#63b8ff" d="M341.19,-455.16C321.23,-449.93 297.37,-443.67 277.59,-438.48"/>
<polygon fill="#63b8ff" stroke="#63b8ff" points="340.1,-458.5 350.67,-457.65 341.88,-451.73 340.1,-458.5"/>
</a>
</g>
</g>
<!-- Node35 -->
<g id="Node000035" class="node">
<title>Node35</title>
<g id="a_Node000035"><a xlink:href="class_wait_tag.html#a9f48b0bf250132d442cbaee46ff96b15" target="_top" xlink:title=" ">
<polygon fill="white" stroke="#666666" points="282.5,-400 190.75,-400 190.75,-380 282.5,-380 282.5,-400"/>
<text text-anchor="middle" x="236.62" y="-386.5" font-family="Helvetica,sans-Serif" font-size="10.00">WaitTag::execute</text>
</a>
</g>
</g>
<!-- Node31&#45;&gt;Node35 -->
<g id="edge35_Node000031_Node000035" class="edge">
<title>Node31&#45;&gt;Node35</title>
<g id="a_edge35_Node000031_Node000035"><a xlink:title=" ">
<path fill="none" stroke="#63b8ff" d="M362.18,-448.31C346.92,-435.81 325.04,-419.48 303.5,-409 296.65,-405.67 289.11,-402.81 281.65,-400.41"/>
<polygon fill="#63b8ff" stroke="#63b8ff" points="359.69,-450.79 369.6,-454.53 364.19,-445.42 359.69,-450.79"/>
</a>
</g>
</g>
<!-- Node36 -->
<g id="Node000036" class="node">
<title>Node36</title>
<g id="a_Node000036"><a xlink:href="class_list_tag.html#a9133c6418a6690851c42f2b707f2978d" target="_top" xlink:title=" ">
<polygon fill="white" stroke="#666666" points="303.5,-362 169.75,-362 169.75,-342 303.5,-342 303.5,-362"/>
<text text-anchor="middle" x="236.62" y="-348.5" font-family="Helvetica,sans-Serif" font-size="10.00">ListTag::executeSimpleTag</text>
</a>
</g>
</g>
<!-- Node31&#45;&gt;Node36 -->
<g id="edge37_Node000031_Node000036" class="edge">
<title>Node31&#45;&gt;Node36</title>
<g id="a_edge37_Node000031_Node000036"><a xlink:title=" ">
<path fill="none" stroke="#63b8ff" d="M370.91,-445.9C357.41,-424.28 333.14,-390.38 303.5,-371 298.22,-367.55 292.3,-364.71 286.24,-362.38"/>
<polygon fill="#63b8ff" stroke="#63b8ff" points="367.86,-447.63 376.02,-454.39 373.86,-444.02 367.86,-447.63"/>
</a>
</g>
</g>
<!-- Node38 -->
<g id="Node000038" class="node">
<title>Node38</title>
<g id="a_Node000038"><a xlink:href="class_print_tag.html#add24872f30feaec9a360660b92d353ec" target="_top" xlink:title=" ">
<polygon fill="white" stroke="#666666" points="282.88,-324 190.38,-324 190.38,-304 282.88,-304 282.88,-324"/>
<text text-anchor="middle" x="236.62" y="-310.5" font-family="Helvetica,sans-Serif" font-size="10.00">PrintTag::execute</text>
</a>
</g>
</g>
<!-- Node37&#45;&gt;Node38 -->
<g id="edge39_Node000037_Node000038" class="edge">
<title>Node37&#45;&gt;Node38</title>
<g id="a_edge39_Node000037_Node000038"><a xlink:title=" ">
<path fill="none" stroke="#63b8ff" d="M334.11,-288.69C315.76,-293.5 295.09,-298.93 277.6,-303.51"/>
<polygon fill="#63b8ff" stroke="#63b8ff" points="334.94,-292.09 343.73,-286.17 333.17,-285.32 334.94,-292.09"/>
</a>
</g>
</g>
<!-- Node39 -->
<g id="Node000039" class="node">
<title>Node39</title>
<g id="a_Node000039"><a xlink:href="class_store_tag.html#af902d7fcdb93431a74211efaec81965f" target="_top" xlink:title=" ">
<polygon fill="white" stroke="#666666" points="284.38,-286 188.88,-286 188.88,-266 284.38,-266 284.38,-286"/>
<text text-anchor="middle" x="236.62" y="-272.5" font-family="Helvetica,sans-Serif" font-size="10.00">StoreTag::execute</text>
</a>
</g>
</g>
<!-- Node37&#45;&gt;Node39 -->
<g id="edge40_Node000037_Node000039" class="edge">
<title>Node37&#45;&gt;Node39</title>
<g id="a_edge40_Node000037_Node000039"><a xlink:title=" ">
<path fill="none" stroke="#63b8ff" d="M333.98,-276C318.08,-276 300.46,-276 284.68,-276"/>
<polygon fill="#63b8ff" stroke="#63b8ff" points="333.68,-279.5 343.68,-276 333.68,-272.5 333.68,-279.5"/>
</a>
</g>
</g>
<!-- Node40 -->
<g id="Node000040" class="node">
<title>Node40</title>
<g id="a_Node000040"><a xlink:href="class_string_tag.html#a3c3b61a64de4cafa2a26b413b0bed686" target="_top" xlink:title=" ">
<polygon fill="white" stroke="#666666" points="285.5,-248 187.75,-248 187.75,-228 285.5,-228 285.5,-248"/>
<text text-anchor="middle" x="236.62" y="-234.5" font-family="Helvetica,sans-Serif" font-size="10.00">StringTag::execute</text>
</a>
</g>
</g>
<!-- Node37&#45;&gt;Node40 -->
<g id="edge41_Node000037_Node000040" class="edge">
<title>Node37&#45;&gt;Node40</title>
<g id="a_edge41_Node000037_Node000040"><a xlink:title=" ">
<path fill="none" stroke="#63b8ff" d="M334.11,-263.31C315.76,-258.5 295.09,-253.07 277.6,-248.49"/>
<polygon fill="#63b8ff" stroke="#63b8ff" points="333.17,-266.68 343.73,-265.83 334.94,-259.91 333.17,-266.68"/>
</a>
</g>
</g>
<!-- Node41 -->
<g id="Node000041" class="node">
<title>Node41</title>
<g id="a_Node000041"><a xlink:href="class_list_tag.html#a295acc5454205ee47ffb6da7d06e9a8f" target="_top" xlink:title=" ">
<polygon fill="white" stroke="#666666" points="303.5,-210 169.75,-210 169.75,-190 303.5,-190 303.5,-210"/>
<text text-anchor="middle" x="236.62" y="-196.5" font-family="Helvetica,sans-Serif" font-size="10.00">ListTag::executeSimpleTag</text>
</a>
</g>
</g>
<!-- Node37&#45;&gt;Node41 -->
<g id="edge42_Node000037_Node000041" class="edge">
<title>Node37&#45;&gt;Node41</title>
<g id="a_edge42_Node000037_Node000041"><a xlink:title=" ">
<path fill="none" stroke="#63b8ff" d="M362.18,-258.31C346.92,-245.81 325.04,-229.48 303.5,-219 296.65,-215.67 289.11,-212.81 281.65,-210.41"/>
<polygon fill="#63b8ff" stroke="#63b8ff" points="359.69,-260.79 369.6,-264.53 364.19,-255.42 359.69,-260.79"/>
</a>
</g>
</g>
<!-- Node42&#45;&gt;Node25 -->
<g id="edge49_Node000042_Node000025" class="edge">
<title>Node42&#45;&gt;Node25</title>
<g id="a_edge49_Node000042_Node000025"><a xlink:title=" ">
<path fill="none" stroke="#63b8ff" d="M353.13,-120.61C338.48,-128.02 320.33,-136.61 303.5,-143 245.72,-164.92 222.14,-148.22 169.75,-181 124.97,-209.02 88.25,-262.36 74.12,-284.73"/>
<polygon fill="#63b8ff" stroke="#63b8ff" points="354.47,-123.86 361.76,-116.18 351.27,-117.64 354.47,-123.86"/>
</a>
</g>
</g>
<!-- Node42&#45;&gt;Node42 -->
<g id="edge48_Node000042_Node000042" class="edge">
<title>Node42&#45;&gt;Node42</title>
<g id="a_edge48_Node000042_Node000042"><a xlink:title=" ">
<path fill="none" stroke="#63b8ff" d="M403.49,-126.44C400.92,-130.3 394.25,-133 383.5,-133 363.84,-133 357.84,-123.98 365.53,-115.34"/>
<polygon fill="#63b8ff" stroke="#63b8ff" points="406.98,-126.04 401.75,-116.83 400.09,-127.29 406.98,-126.04"/>
</a>
</g>
</g>
<!-- Node43 -->
<g id="Node000043" class="node">
<title>Node43</title>
<g id="a_Node000043"><a xlink:href="class_print_tag.html#ad67d8a367f9ad4fdc58cc172f59c3d97" target="_top" xlink:title=" ">
<polygon fill="white" stroke="#666666" points="282.88,-134 190.38,-134 190.38,-114 282.88,-114 282.88,-134"/>
<text text-anchor="middle" x="236.62" y="-120.5" font-family="Helvetica,sans-Serif" font-size="10.00">PrintTag::execute</text>
</a>
</g>
</g>
<!-- Node42&#45;&gt;Node43 -->
<g id="edge44_Node000042_Node000043" class="edge">
<title>Node42&#45;&gt;Node43</title>
<g id="a_edge44_Node000042_Node000043"><a xlink:title=" ">
<path fill="none" stroke="#63b8ff" d="M335.77,-111.13C318.9,-113.34 299.88,-115.84 283.11,-118.03"/>
<polygon fill="#63b8ff" stroke="#63b8ff" points="336.1,-114.62 345.56,-109.84 335.19,-107.67 336.1,-114.62"/>
</a>
</g>
</g>
<!-- Node44 -->
<g id="Node000044" class="node">
<title>Node44</title>
<g id="a_Node000044"><a xlink:href="class_store_tag.html#a709232734c8c294e7528d797321b253f" target="_top" xlink:title=" ">
<polygon fill="white" stroke="#666666" points="284.38,-96 188.88,-96 188.88,-76 284.38,-76 284.38,-96"/>
<text text-anchor="middle" x="236.62" y="-82.5" font-family="Helvetica,sans-Serif" font-size="10.00">StoreTag::execute</text>
</a>
</g>
</g>
<!-- Node42&#45;&gt;Node44 -->
<g id="edge45_Node000042_Node000044" class="edge">
<title>Node42&#45;&gt;Node44</title>
<g id="a_edge45_Node000042_Node000044"><a xlink:title=" ">
<path fill="none" stroke="#63b8ff" d="M336.08,-98.91C319.67,-96.76 301.2,-94.34 284.74,-92.18"/>
<polygon fill="#63b8ff" stroke="#63b8ff" points="335.19,-102.33 345.56,-100.16 336.1,-95.38 335.19,-102.33"/>
</a>
</g>
</g>
<!-- Node45 -->
<g id="Node000045" class="node">
<title>Node45</title>
<g id="a_Node000045"><a xlink:href="class_zone_tag.html#a4a10c3cfdb2d700f189d3623a95e610f" target="_top" xlink:title=" ">
<polygon fill="white" stroke="#666666" points="283.62,-58 189.62,-58 189.62,-38 283.62,-38 283.62,-58"/>
<text text-anchor="middle" x="236.62" y="-44.5" font-family="Helvetica,sans-Serif" font-size="10.00">ZoneTag::execute</text>
</a>
</g>
</g>
<!-- Node42&#45;&gt;Node45 -->
<g id="edge46_Node000042_Node000045" class="edge">
<title>Node42&#45;&gt;Node45</title>
<g id="a_edge46_Node000042_Node000045"><a xlink:title=" ">
<path fill="none" stroke="#63b8ff" d="M353.12,-89.41C338.46,-82.02 320.32,-73.42 303.5,-67 295.38,-63.9 286.54,-61.03 278.04,-58.5"/>
<polygon fill="#63b8ff" stroke="#63b8ff" points="351.26,-92.39 361.75,-93.85 354.45,-86.17 351.26,-92.39"/>
</a>
</g>
</g>
<!-- Node46 -->
<g id="Node000046" class="node">
<title>Node46</title>
<g id="a_Node000046"><a xlink:href="class_list_tag.html#aaba7df0a3b99b501867a6b32d6e06281" target="_top" xlink:title=" ">
<polygon fill="white" stroke="#666666" points="303.5,-20 169.75,-20 169.75,0 303.5,0 303.5,-20"/>
<text text-anchor="middle" x="236.62" y="-6.5" font-family="Helvetica,sans-Serif" font-size="10.00">ListTag::executeSimpleTag</text>
</a>
</g>
</g>
<!-- Node42&#45;&gt;Node46 -->
<g id="edge47_Node000042_Node000046" class="edge">
<title>Node42&#45;&gt;Node46</title>
<g id="a_edge47_Node000042_Node000046"><a xlink:title=" ">
<path fill="none" stroke="#63b8ff" d="M367.31,-85.81C352.7,-68.58 329.09,-43.77 303.5,-29 297.62,-25.61 291.1,-22.79 284.5,-20.45"/>
<polygon fill="#63b8ff" stroke="#63b8ff" points="364.45,-87.84 373.5,-93.33 369.85,-83.39 364.45,-87.84"/>
</a>
</g>
</g>
</g>
</svg>

<g id="navigator" transform="translate(0 0)" fill="#404254">
  <rect fill="#f2f5e9" fill-opacity="0.5" stroke="#606060" stroke-width=".5" x="0" y="0" width="60" height="60"/>
  <use id="zoomplus" xlink:href="#zoomPlus" x="17" y="9" onmousedown="handleZoom(evt,'in')"/>
  <use id="zoomminus" xlink:href="#zoomMin" x="42" y="9" onmousedown="handleZoom(evt,'out')"/>
  <use id="reset" xlink:href="#resetDef" x="30" y="36" onmousedown="handleReset()"/>
   <use id="arrowup" xlink:href="#arrowUp" x="0" y="0" onmousedown="handlePan(0,-1)"/>
  <use id="arrowright" xlink:href="#arrowRight" x="0" y="0" onmousedown="handlePan(1,0)"/>
  <use id="arrowdown" xlink:href="#arrowDown" x="0" y="0" onmousedown="handlePan(0,1)"/>
  <use id="arrowleft" xlink:href="#arrowLeft" x="0" y="0" onmousedown="handlePan(-1,0)"/>
</g>
<svg viewBox="0 0 15 15" width="100%" height="30px" preserveAspectRatio="xMaxYMin meet">
 <g id="arrow_out" transform="scale(0.3 0.3)">
  <a xlink:href="_tags_8cpp_aad17b0d48f011d5869f82adb31915669_icgraph_org.svg" target="_base">
   <rect id="button" ry="5" rx="5" y="6" x="6" height="38" width="38"
        fill="#f2f5e9" fill-opacity="0.5" stroke="#606060" stroke-width="1.0"/>
   <path id="arrow"
     d="M 11.500037,31.436501 C 11.940474,20.09759 22.043105,11.32322 32.158766,21.979434 L 37.068811,17.246167 C 37.068811,17.246167 37.088388,32 37.088388,32 L 22.160133,31.978069 C 22.160133,31.978069 26.997745,27.140456 26.997745,27.140456 C 18.528582,18.264221 13.291696,25.230495 11.500037,31.436501 z"
     style="fill:#404040;"/>
  </a>
 </g>
</svg>

<style type='text/css'>
<![CDATA[
[data-mouse-over-selected='false'] { opacity: 0.7; }
[data-mouse-over-selected='true']  { opacity: 1.0; }
]]>
</style>
<script type="application/ecmascript"><![CDATA[
document.addEventListener('DOMContentLoaded', (event) => {
  highlightEdges();
  highlightAdjacentNodes();
});
]]></script>
</svg>
