<?xml version="1.0" encoding="UTF-8" standalone="no"?>
<!DOCTYPE svg PUBLIC "-//W3C//DTD SVG 1.1//EN"
 "http://www.w3.org/Graphics/SVG/1.1/DTD/svg11.dtd">
<!-- Generated by graphviz version 12.2.0 (20241103.1931)
 -->
<!-- Title: src/TagPanel.h Pages: 1 -->
<svg width="261pt" height="196pt"
 viewBox="0.00 0.00 261.12 196.00" xmlns="http://www.w3.org/2000/svg" xmlns:xlink="http://www.w3.org/1999/xlink">
<g id="graph0" class="graph" transform="scale(1 1) rotate(0) translate(4 192)">
<title>src/TagPanel.h</title>
<!-- Node1 -->
<g id="Node000001" class="node">
<title>Node1</title>
<g id="a_Node000001"><a xlink:title=" ">
<polygon fill="#999999" stroke="#666666" points="194.88,-188 113.62,-188 113.62,-168 194.88,-168 194.88,-188"/>
<text text-anchor="middle" x="154.25" y="-174.5" font-family="Helvetica,sans-Serif" font-size="10.00">src/TagPanel.h</text>
</a>
</g>
</g>
<!-- Node2 -->
<g id="Node000002" class="node">
<title>Node2</title>
<g id="a_Node000002"><a xlink:href="_my_frame_8h.html" target="_top" xlink:title=" ">
<polygon fill="white" stroke="#666666" points="143.25,-132 61.25,-132 61.25,-112 143.25,-112 143.25,-132"/>
<text text-anchor="middle" x="102.25" y="-118.5" font-family="Helvetica,sans-Serif" font-size="10.00">src/MyFrame.h</text>
</a>
</g>
</g>
<!-- Node1&#45;&gt;Node2 -->
<g id="edge1_Node000001_Node000002" class="edge">
<title>Node1&#45;&gt;Node2</title>
<g id="a_edge1_Node000001_Node000002"><a xlink:title=" ">
<path fill="none" stroke="#63b8ff" d="M137.46,-159.57C128.73,-150.5 118.41,-139.78 111.2,-132.3"/>
<polygon fill="#63b8ff" stroke="#63b8ff" points="134.68,-161.73 144.14,-166.5 139.73,-156.87 134.68,-161.73"/>
</a>
</g>
</g>
<!-- Node6 -->
<g id="Node000006" class="node">
<title>Node6</title>
<g id="a_Node000006"><a xlink:href="_tag_panel_8cpp.html" target="_top" xlink:title=" ">
<polygon fill="white" stroke="#666666" points="253.12,-132 161.38,-132 161.38,-112 253.12,-112 253.12,-132"/>
<text text-anchor="middle" x="207.25" y="-118.5" font-family="Helvetica,sans-Serif" font-size="10.00">src/TagPanel.cpp</text>
</a>
</g>
</g>
<!-- Node1&#45;&gt;Node6 -->
<g id="edge5_Node000001_Node000006" class="edge">
<title>Node1&#45;&gt;Node6</title>
<g id="a_edge5_Node000001_Node000006"><a xlink:title=" ">
<path fill="none" stroke="#63b8ff" d="M171.36,-159.57C180.26,-150.5 190.78,-139.78 198.12,-132.3"/>
<polygon fill="#63b8ff" stroke="#63b8ff" points="169.05,-156.93 164.54,-166.51 174.04,-161.83 169.05,-156.93"/>
</a>
</g>
</g>
<!-- Node3 -->
<g id="Node000003" class="node">
<title>Node3</title>
<g id="a_Node000003"><a xlink:href="_my_frame_8cpp.html" target="_top" xlink:title=" ">
<polygon fill="white" stroke="#666666" points="92.5,-76 0,-76 0,-56 92.5,-56 92.5,-76"/>
<text text-anchor="middle" x="46.25" y="-62.5" font-family="Helvetica,sans-Serif" font-size="10.00">src/MyFrame.cpp</text>
</a>
</g>
</g>
<!-- Node2&#45;&gt;Node3 -->
<g id="edge2_Node000002_Node000003" class="edge">
<title>Node2&#45;&gt;Node3</title>
<g id="a_edge2_Node000002_Node000003"><a xlink:title=" ">
<path fill="none" stroke="#63b8ff" d="M84.46,-103.85C75,-94.72 63.73,-83.86 55.89,-76.3"/>
<polygon fill="#63b8ff" stroke="#63b8ff" points="81.78,-106.12 91.41,-110.54 86.64,-101.08 81.78,-106.12"/>
</a>
</g>
</g>
<!-- Node4 -->
<g id="Node000004" class="node">
<title>Node4</title>
<g id="a_Node000004"><a xlink:href="_w_x_manager_8h.html" target="_top" xlink:title=" ">
<polygon fill="white" stroke="#666666" points="205.62,-76 110.88,-76 110.88,-56 205.62,-56 205.62,-76"/>
<text text-anchor="middle" x="158.25" y="-62.5" font-family="Helvetica,sans-Serif" font-size="10.00">src/WXManager.h</text>
</a>
</g>
</g>
<!-- Node2&#45;&gt;Node4 -->
<g id="edge3_Node000002_Node000004" class="edge">
<title>Node2&#45;&gt;Node4</title>
<g id="a_edge3_Node000002_Node000004"><a xlink:title=" ">
<path fill="none" stroke="#63b8ff" d="M120.04,-103.85C129.5,-94.72 140.77,-83.86 148.61,-76.3"/>
<polygon fill="#63b8ff" stroke="#63b8ff" points="117.86,-101.08 113.09,-110.54 122.72,-106.12 117.86,-101.08"/>
</a>
</g>
</g>
<!-- Node5 -->
<g id="Node000005" class="node">
<title>Node5</title>
<g id="a_Node000005"><a xlink:href="_w_x_manager_8cpp.html" target="_top" xlink:title=" ">
<polygon fill="white" stroke="#666666" points="210.88,-20 105.62,-20 105.62,0 210.88,0 210.88,-20"/>
<text text-anchor="middle" x="158.25" y="-6.5" font-family="Helvetica,sans-Serif" font-size="10.00">src/WXManager.cpp</text>
</a>
</g>
</g>
<!-- Node4&#45;&gt;Node5 -->
<g id="edge4_Node000004_Node000005" class="edge">
<title>Node4&#45;&gt;Node5</title>
<g id="a_edge4_Node000004_Node000005"><a xlink:title=" ">
<path fill="none" stroke="#63b8ff" d="M158.25,-44.13C158.25,-35.9 158.25,-26.85 158.25,-20.3"/>
<polygon fill="#63b8ff" stroke="#63b8ff" points="154.75,-44.08 158.25,-54.08 161.75,-44.08 154.75,-44.08"/>
</a>
</g>
</g>
</g>
</svg>
