<?xml version="1.0" encoding="UTF-8" standalone="no"?>
<!DOCTYPE svg PUBLIC "-//W3C//DTD SVG 1.1//EN"
 "http://www.w3.org/Graphics/SVG/1.1/DTD/svg11.dtd">
<!-- Generated by graphviz version 12.2.0 (20241103.1931)
 -->
<!-- Title: executeFloat Pages: 1 -->
<svg width="183pt" height="66pt"
 viewBox="0.00 0.00 183.25 66.00" xmlns="http://www.w3.org/2000/svg" xmlns:xlink="http://www.w3.org/1999/xlink">
<g id="graph0" class="graph" transform="scale(1 1) rotate(0) translate(4 62)">
<title>executeFloat</title>
<!-- Node1 -->
<g id="Node000001" class="node">
<title>Node1</title>
<g id="a_Node000001"><a xlink:title=" ">
<polygon fill="#999999" stroke="#666666" points="72.25,-39 0,-39 0,-19 72.25,-19 72.25,-39"/>
<text text-anchor="middle" x="36.12" y="-25.5" font-family="Helvetica,sans-Serif" font-size="10.00">executeFloat</text>
</a>
</g>
</g>
<!-- Node2 -->
<g id="Node000002" class="node">
<title>Node2</title>
<g id="a_Node000002"><a xlink:href="_tags_8cpp.html#a348690c518cc923ed88d56c2d18f6f7d" target="_top" xlink:title=" ">
<polygon fill="white" stroke="#666666" points="175.25,-58 108.25,-58 108.25,-38 175.25,-38 175.25,-58"/>
<text text-anchor="middle" x="141.75" y="-44.5" font-family="Helvetica,sans-Serif" font-size="10.00">getFloatTag</text>
</a>
</g>
</g>
<!-- Node1&#45;&gt;Node2 -->
<g id="edge1_Node000001_Node000002" class="edge">
<title>Node1&#45;&gt;Node2</title>
<g id="a_edge1_Node000001_Node000002"><a xlink:title=" ">
<path fill="none" stroke="#63b8ff" d="M72.5,-35.49C80.31,-36.92 88.67,-38.45 96.78,-39.94"/>
<polygon fill="#63b8ff" stroke="#63b8ff" points="96.02,-43.36 106.49,-41.72 97.28,-36.47 96.02,-43.36"/>
</a>
</g>
</g>
<!-- Node3 -->
<g id="Node000003" class="node">
<title>Node3</title>
<g id="a_Node000003"><a xlink:href="_tags_8cpp.html#aad17b0d48f011d5869f82adb31915669" target="_top" xlink:title=" ">
<polygon fill="white" stroke="#666666" points="174.88,-20 108.62,-20 108.62,0 174.88,0 174.88,-20"/>
<text text-anchor="middle" x="141.75" y="-6.5" font-family="Helvetica,sans-Serif" font-size="10.00">getLoadTag</text>
</a>
</g>
</g>
<!-- Node1&#45;&gt;Node3 -->
<g id="edge2_Node000001_Node000003" class="edge">
<title>Node1&#45;&gt;Node3</title>
<g id="a_edge2_Node000001_Node000003"><a xlink:title=" ">
<path fill="none" stroke="#63b8ff" d="M72.5,-22.51C80.39,-21.07 88.85,-19.52 97.03,-18.02"/>
<polygon fill="#63b8ff" stroke="#63b8ff" points="97.63,-21.46 106.83,-16.22 96.37,-14.58 97.63,-21.46"/>
</a>
</g>
</g>
</g>
</svg>
