<?xml version="1.0" encoding="UTF-8" standalone="no"?>
<!DOCTYPE svg PUBLIC "-//W3C//DTD SVG 1.1//EN"
 "http://www.w3.org/Graphics/SVG/1.1/DTD/svg11.dtd">
<!-- Generated by graphviz version 12.2.0 (20241103.1931)
 -->
<!-- Title: getListTag Pages: 1 -->
<!--zoomable 294 -->

<svg id="main" version="1.1" xmlns="http://www.w3.org/2000/svg" xmlns:xlink="http://www.w3.org/1999/xlink" xml:space="preserve" onload="init(evt)">

<style type="text/css"><![CDATA[
.node, .edge {opacity: 0.7;}
.node.selected, .edge.selected {opacity: 1;}
.edge:hover path { stroke: red; }
.edge:hover polygon { stroke: red; fill: red; }
]]></style>

<defs>
  <circle id="rim" cx="0" cy="0" r="7"/>
  <circle id="rim2" cx="0" cy="0" r="3.5"/>
  <g id="zoomPlus">
    <use xlink:href="#rim" fill="#404040"><set attributeName="fill" to="#808080" begin="zoomplus.mouseover" end="zoomplus.mouseout"/></use>
    <path d="M-4,0h8M0,-4v8" fill="none" stroke="white" stroke-width="1.5" pointer-events="none"/>
  </g>
  <g id="zoomMin">
    <use xlink:href="#rim" fill="#404040"><set attributeName="fill" to="#808080" begin="zoomminus.mouseover" end="zoomminus.mouseout"/></use>
    <path d="M-4,0h8" fill="none" stroke="white" stroke-width="1.5" pointer-events="none"/>
  </g>
  <g id="arrowUp" transform="translate(30 24)">
    <use xlink:href="#rim"/>
    <path pointer-events="none" fill="none" stroke="white" stroke-width="1.5" d="M0,-3.0v7 M-2.5,-0.5L0,-3.0L2.5,-0.5"/>
  </g>
  <g id="arrowRight" transform="rotate(90) translate(36 -43)">
    <use xlink:href="#rim"/>
    <path pointer-events="none" fill="none" stroke="white" stroke-width="1.5" d="M0,-3.0v7 M-2.5,-0.5L0,-3.0L2.5,-0.5"/>
  </g>
  <g id="arrowDown" transform="rotate(180) translate(-30 -48)">
    <use xlink:href="#rim"/>
    <path pointer-events="none" fill="none" stroke="white" stroke-width="1.5" d="M0,-3.0v7 M-2.5,-0.5L0,-3.0L2.5,-0.5"/>
  </g>
  <g id="arrowLeft" transform="rotate(270) translate(-36 17)">
    <use xlink:href="#rim"/>
    <path pointer-events="none" fill="none" stroke="white" stroke-width="1.5" d="M0,-3.0v7 M-2.5,-0.5L0,-3.0L2.5,-0.5"/>
  </g>
  <g id="resetDef">
    <use xlink:href="#rim2" fill="#404040"><set attributeName="fill" to="#808080" begin="reset.mouseover" end="reset.mouseout"/></use>
  </g>
</defs>
<script type="application/ecmascript">
var viewWidth = 509;
var viewHeight = 294;
var sectionId = 'dynsection-32';
</script>
<script type="application/ecmascript" xlink:href="svg.min.js"/>
<svg id="graph" class="graph">
<g id="viewport">
<title>getListTag</title>
<!-- Node1 -->
<g id="Node000001" class="node">
<title>Node1</title>
<g id="a_Node000001"><a xlink:title=" ">
<polygon fill="#999999" stroke="#666666" points="501.25,-153 440.25,-153 440.25,-133 501.25,-133 501.25,-153"/>
<text text-anchor="middle" x="470.75" y="-139.5" font-family="Helvetica,sans-Serif" font-size="10.00">getListTag</text>
</a>
</g>
</g>
<!-- Node2 -->
<g id="Node000002" class="node">
<title>Node2</title>
<g id="a_Node000002"><a xlink:href="class_list_tag.html#a1aed24f27987c6c8e8d32aeb3cb4e116" target="_top" xlink:title=" ">
<polygon fill="white" stroke="#666666" points="404.25,-229 316.25,-229 316.25,-209 404.25,-209 404.25,-229"/>
<text text-anchor="middle" x="360.25" y="-215.5" font-family="Helvetica,sans-Serif" font-size="10.00">ListTag::execute</text>
</a>
</g>
</g>
<!-- Node1&#45;&gt;Node2 -->
<g id="edge1_Node000001_Node000002" class="edge">
<title>Node1&#45;&gt;Node2</title>
<g id="a_edge1_Node000001_Node000002"><a xlink:title=" ">
<path fill="none" stroke="#63b8ff" d="M445.76,-159.8C424.43,-174.74 393.93,-196.11 376,-208.67"/>
<polygon fill="#63b8ff" stroke="#63b8ff" points="447.69,-162.72 453.88,-154.12 443.68,-156.99 447.69,-162.72"/>
</a>
</g>
</g>
<!-- Node7 -->
<g id="Node000007" class="node">
<title>Node7</title>
<g id="a_Node000007"><a xlink:href="_tags_8cpp.html#acc7a7317843e349ecdffda47724bf380" target="_top" xlink:title=" ">
<polygon fill="white" stroke="#666666" points="398.62,-115 321.88,-115 321.88,-95 398.62,-95 398.62,-115"/>
<text text-anchor="middle" x="360.25" y="-101.5" font-family="Helvetica,sans-Serif" font-size="10.00">executeCoord</text>
</a>
</g>
</g>
<!-- Node1&#45;&gt;Node7 -->
<g id="edge6_Node000001_Node000007" class="edge">
<title>Node1&#45;&gt;Node7</title>
<g id="a_edge6_Node000001_Node000007"><a xlink:title=" ">
<path fill="none" stroke="#63b8ff" d="M429.08,-128.76C416.47,-124.34 402.82,-119.56 391.09,-115.45"/>
<polygon fill="#63b8ff" stroke="#63b8ff" points="427.79,-132.01 438.39,-132.02 430.11,-125.41 427.79,-132.01"/>
</a>
</g>
</g>
<!-- Node3 -->
<g id="Node000003" class="node">
<title>Node3</title>
<g id="a_Node000003"><a xlink:href="class_compare_tag.html#a86f4370ec7c06612dc614d5ee0a80bbc" target="_top" xlink:title=" ">
<polygon fill="white" stroke="#666666" points="269.38,-286 157.38,-286 157.38,-266 269.38,-266 269.38,-286"/>
<text text-anchor="middle" x="213.38" y="-272.5" font-family="Helvetica,sans-Serif" font-size="10.00">CompareTag::execute</text>
</a>
</g>
</g>
<!-- Node2&#45;&gt;Node3 -->
<g id="edge2_Node000002_Node000003" class="edge">
<title>Node2&#45;&gt;Node3</title>
<g id="a_edge2_Node000002_Node000003"><a xlink:title=" ">
<path fill="none" stroke="#63b8ff" d="M329.87,-234.59C315.21,-241.98 297.07,-250.58 280.25,-257 272.13,-260.1 263.29,-262.97 254.79,-265.5"/>
<polygon fill="#63b8ff" stroke="#63b8ff" points="331.2,-237.83 338.5,-230.15 328.01,-231.61 331.2,-237.83"/>
</a>
</g>
</g>
<!-- Node4 -->
<g id="Node000004" class="node">
<title>Node4</title>
<g id="a_Node000004"><a xlink:href="class_compare_tag.html#a574c5229cbbc446a28fa2ef1cea813c3" target="_top" xlink:title=" ">
<polygon fill="white" stroke="#666666" points="269.38,-248 157.38,-248 157.38,-228 269.38,-228 269.38,-248"/>
<text text-anchor="middle" x="213.38" y="-234.5" font-family="Helvetica,sans-Serif" font-size="10.00">CompareTag::execute</text>
</a>
</g>
</g>
<!-- Node2&#45;&gt;Node4 -->
<g id="edge3_Node000002_Node000004" class="edge">
<title>Node2&#45;&gt;Node4</title>
<g id="a_edge3_Node000002_Node000004"><a xlink:title=" ">
<path fill="none" stroke="#63b8ff" d="M304.6,-226.17C293.17,-227.67 281.1,-229.25 269.65,-230.75"/>
<polygon fill="#63b8ff" stroke="#63b8ff" points="304.82,-229.67 314.28,-224.9 303.91,-222.73 304.82,-229.67"/>
</a>
</g>
</g>
<!-- Node5 -->
<g id="Node000005" class="node">
<title>Node5</title>
<g id="a_Node000005"><a xlink:href="_tags_8cpp.html#a663afb00e3e4be1f6f395904d5ed7dea" target="_top" xlink:title=" ">
<polygon fill="white" stroke="#666666" points="246.5,-210 180.25,-210 180.25,-190 246.5,-190 246.5,-210"/>
<text text-anchor="middle" x="213.38" y="-196.5" font-family="Helvetica,sans-Serif" font-size="10.00">executeList</text>
</a>
</g>
</g>
<!-- Node2&#45;&gt;Node5 -->
<g id="edge4_Node000002_Node000005" class="edge">
<title>Node2&#45;&gt;Node5</title>
<g id="a_edge4_Node000002_Node000005"><a xlink:title=" ">
<path fill="none" stroke="#63b8ff" d="M304.57,-211.83C285.08,-209.27 263.77,-206.48 246.76,-204.25"/>
<polygon fill="#63b8ff" stroke="#63b8ff" points="303.91,-215.27 314.28,-213.1 304.82,-208.33 303.91,-215.27"/>
</a>
</g>
</g>
<!-- Node6 -->
<g id="Node000006" class="node">
<title>Node6</title>
<g id="a_Node000006"><a xlink:href="class_store_tag_3_01std_1_1vector_3_01_t_01_4_01_4.html#af14db3889a7c857f6b33676347fd9055" target="_top" xlink:title=" ">
<polygon fill="white" stroke="#666666" points="110.5,-216 0,-216 0,-184 110.5,-184 110.5,-216"/>
<text text-anchor="start" x="8" y="-202.5" font-family="Helvetica,sans-Serif" font-size="10.00">StoreTag&lt; std::vector</text>
<text text-anchor="middle" x="55.25" y="-190.5" font-family="Helvetica,sans-Serif" font-size="10.00">&lt; T &gt; &gt;::execute</text>
</a>
</g>
</g>
<!-- Node5&#45;&gt;Node6 -->
<g id="edge5_Node000005_Node000006" class="edge">
<title>Node5&#45;&gt;Node6</title>
<g id="a_edge5_Node000005_Node000006"><a xlink:title=" ">
<path fill="none" stroke="#63b8ff" d="M168.7,-200C150.7,-200 129.67,-200 110.69,-200"/>
<polygon fill="#63b8ff" stroke="#63b8ff" points="168.51,-203.5 178.51,-200 168.51,-196.5 168.51,-203.5"/>
</a>
</g>
</g>
<!-- Node7&#45;&gt;Node7 -->
<g id="edge10_Node000007_Node000007" class="edge">
<title>Node7&#45;&gt;Node7</title>
<g id="a_edge10_Node000007_Node000007"><a xlink:title=" ">
<path fill="none" stroke="#63b8ff" d="M379.78,-126.44C377.26,-130.3 370.75,-133 360.25,-133 341.04,-133 335.19,-123.98 342.69,-115.34"/>
<polygon fill="#63b8ff" stroke="#63b8ff" points="383.27,-126.06 378.07,-116.83 376.38,-127.29 383.27,-126.06"/>
</a>
</g>
</g>
<!-- Node8 -->
<g id="Node000008" class="node">
<title>Node8</title>
<g id="a_Node000008"><a xlink:href="class_coord_tag.html#a05fd30fa6bcce4b90c96f81adcc7f096" target="_top" xlink:title=" ">
<polygon fill="white" stroke="#666666" points="262.62,-172 164.12,-172 164.12,-152 262.62,-152 262.62,-172"/>
<text text-anchor="middle" x="213.38" y="-158.5" font-family="Helvetica,sans-Serif" font-size="10.00">CoordTag::execute</text>
</a>
</g>
</g>
<!-- Node7&#45;&gt;Node8 -->
<g id="edge7_Node000007_Node000008" class="edge">
<title>Node7&#45;&gt;Node8</title>
<g id="a_edge7_Node000007_Node000008"><a xlink:title=" ">
<path fill="none" stroke="#63b8ff" d="M329.87,-120.59C315.21,-127.98 297.07,-136.58 280.25,-143 272.13,-146.1 263.29,-148.97 254.79,-151.5"/>
<polygon fill="#63b8ff" stroke="#63b8ff" points="331.2,-123.83 338.5,-116.15 328.01,-117.61 331.2,-123.83"/>
</a>
</g>
</g>
<!-- Node9 -->
<g id="Node000009" class="node">
<title>Node9</title>
<g id="a_Node000009"><a xlink:href="class_print_tag.html#aaa0074d42cc27ed9be51cf6b680ccba8" target="_top" xlink:title=" ">
<polygon fill="white" stroke="#666666" points="259.62,-134 167.12,-134 167.12,-114 259.62,-114 259.62,-134"/>
<text text-anchor="middle" x="213.38" y="-120.5" font-family="Helvetica,sans-Serif" font-size="10.00">PrintTag::execute</text>
</a>
</g>
</g>
<!-- Node7&#45;&gt;Node9 -->
<g id="edge8_Node000007_Node000009" class="edge">
<title>Node7&#45;&gt;Node9</title>
<g id="a_edge8_Node000007_Node000009"><a xlink:title=" ">
<path fill="none" stroke="#63b8ff" d="M310.57,-111.38C294.19,-113.53 276,-115.92 259.88,-118.03"/>
<polygon fill="#63b8ff" stroke="#63b8ff" points="310.6,-114.91 320.06,-110.14 309.69,-107.97 310.6,-114.91"/>
</a>
</g>
</g>
<!-- Node10 -->
<g id="Node000010" class="node">
<title>Node10</title>
<g id="a_Node000010"><a xlink:href="class_store_tag.html#a851b13b9fe7597c4d44f24acc4fc0bff" target="_top" xlink:title=" ">
<polygon fill="white" stroke="#666666" points="261.12,-96 165.62,-96 165.62,-76 261.12,-76 261.12,-96"/>
<text text-anchor="middle" x="213.38" y="-82.5" font-family="Helvetica,sans-Serif" font-size="10.00">StoreTag::execute</text>
</a>
</g>
</g>
<!-- Node7&#45;&gt;Node10 -->
<g id="edge9_Node000007_Node000010" class="edge">
<title>Node7&#45;&gt;Node10</title>
<g id="a_edge9_Node000007_Node000010"><a xlink:title=" ">
<path fill="none" stroke="#63b8ff" d="M310.41,-98.59C294.61,-96.52 277.14,-94.23 261.47,-92.18"/>
<polygon fill="#63b8ff" stroke="#63b8ff" points="309.69,-102.03 320.06,-99.86 310.6,-95.09 309.69,-102.03"/>
</a>
</g>
</g>
<!-- Node11 -->
<g id="Node000011" class="node">
<title>Node11</title>
<g id="a_Node000011"><a xlink:href="class_list_tag.html#ae4d69bbe6f70fb5303486e8cb901c0e4" target="_top" xlink:title=" ">
<polygon fill="white" stroke="#666666" points="280.25,-58 146.5,-58 146.5,-38 280.25,-38 280.25,-58"/>
<text text-anchor="middle" x="213.38" y="-44.5" font-family="Helvetica,sans-Serif" font-size="10.00">ListTag::executeSimpleTag</text>
</a>
</g>
</g>
<!-- Node7&#45;&gt;Node11 -->
<g id="edge11_Node000007_Node000011" class="edge">
<title>Node7&#45;&gt;Node11</title>
<g id="a_edge11_Node000007_Node000011"><a xlink:title=" ">
<path fill="none" stroke="#63b8ff" d="M329.87,-89.41C315.21,-82.02 297.07,-73.42 280.25,-67 272.13,-63.9 263.29,-61.03 254.79,-58.5"/>
<polygon fill="#63b8ff" stroke="#63b8ff" points="328.01,-92.39 338.5,-93.85 331.2,-86.17 328.01,-92.39"/>
</a>
</g>
</g>
<!-- Node12 -->
<g id="Node000012" class="node">
<title>Node12</title>
<g id="a_Node000012"><a xlink:href="_tags_8cpp.html#a50b5a098d92d9488b24f241307659676" target="_top" xlink:title=" ">
<polygon fill="white" stroke="#666666" points="249.5,-20 177.25,-20 177.25,0 249.5,0 249.5,-20"/>
<text text-anchor="middle" x="213.38" y="-6.5" font-family="Helvetica,sans-Serif" font-size="10.00">executeZone</text>
</a>
</g>
</g>
<!-- Node7&#45;&gt;Node12 -->
<g id="edge12_Node000007_Node000012" class="edge">
<title>Node7&#45;&gt;Node12</title>
<g id="a_edge12_Node000007_Node000012"><a xlink:title=" ">
<path fill="none" stroke="#63b8ff" d="M344.06,-85.81C329.45,-68.58 305.84,-43.77 280.25,-29 270.97,-23.65 260.08,-19.71 249.85,-16.85"/>
<polygon fill="#63b8ff" stroke="#63b8ff" points="341.2,-87.84 350.25,-93.33 346.6,-83.39 341.2,-87.84"/>
</a>
</g>
</g>
</g>
</svg>

<g id="navigator" transform="translate(0 0)" fill="#404254">
  <rect fill="#f2f5e9" fill-opacity="0.5" stroke="#606060" stroke-width=".5" x="0" y="0" width="60" height="60"/>
  <use id="zoomplus" xlink:href="#zoomPlus" x="17" y="9" onmousedown="handleZoom(evt,'in')"/>
  <use id="zoomminus" xlink:href="#zoomMin" x="42" y="9" onmousedown="handleZoom(evt,'out')"/>
  <use id="reset" xlink:href="#resetDef" x="30" y="36" onmousedown="handleReset()"/>
   <use id="arrowup" xlink:href="#arrowUp" x="0" y="0" onmousedown="handlePan(0,-1)"/>
  <use id="arrowright" xlink:href="#arrowRight" x="0" y="0" onmousedown="handlePan(1,0)"/>
  <use id="arrowdown" xlink:href="#arrowDown" x="0" y="0" onmousedown="handlePan(0,1)"/>
  <use id="arrowleft" xlink:href="#arrowLeft" x="0" y="0" onmousedown="handlePan(-1,0)"/>
</g>
<svg viewBox="0 0 15 15" width="100%" height="30px" preserveAspectRatio="xMaxYMin meet">
 <g id="arrow_out" transform="scale(0.3 0.3)">
  <a xlink:href="_tags_8cpp_ab30d3866e4109a758188a1aeb012ea01_icgraph_org.svg" target="_base">
   <rect id="button" ry="5" rx="5" y="6" x="6" height="38" width="38"
        fill="#f2f5e9" fill-opacity="0.5" stroke="#606060" stroke-width="1.0"/>
   <path id="arrow"
     d="M 11.500037,31.436501 C 11.940474,20.09759 22.043105,11.32322 32.158766,21.979434 L 37.068811,17.246167 C 37.068811,17.246167 37.088388,32 37.088388,32 L 22.160133,31.978069 C 22.160133,31.978069 26.997745,27.140456 26.997745,27.140456 C 18.528582,18.264221 13.291696,25.230495 11.500037,31.436501 z"
     style="fill:#404040;"/>
  </a>
 </g>
</svg>

<style type='text/css'>
<![CDATA[
[data-mouse-over-selected='false'] { opacity: 0.7; }
[data-mouse-over-selected='true']  { opacity: 1.0; }
]]>
</style>
<script type="application/ecmascript"><![CDATA[
document.addEventListener('DOMContentLoaded', (event) => {
  highlightEdges();
  highlightAdjacentNodes();
});
]]></script>
</svg>
