<?xml version="1.0" encoding="UTF-8" standalone="no"?>
<!DOCTYPE svg PUBLIC "-//W3C//DTD SVG 1.1//EN"
 "http://www.w3.org/Graphics/SVG/1.1/DTD/svg11.dtd">
<!-- Generated by graphviz version 12.2.0 (20241103.1931)
 -->
<!-- Title: updateContent Pages: 1 -->
<!--zoomable 311 -->

<svg id="main" version="1.1" xmlns="http://www.w3.org/2000/svg" xmlns:xlink="http://www.w3.org/1999/xlink" xml:space="preserve" onload="init(evt)">

<style type="text/css"><![CDATA[
.node, .edge {opacity: 0.7;}
.node.selected, .edge.selected {opacity: 1;}
.edge:hover path { stroke: red; }
.edge:hover polygon { stroke: red; fill: red; }
]]></style>

<defs>
  <circle id="rim" cx="0" cy="0" r="7"/>
  <circle id="rim2" cx="0" cy="0" r="3.5"/>
  <g id="zoomPlus">
    <use xlink:href="#rim" fill="#404040"><set attributeName="fill" to="#808080" begin="zoomplus.mouseover" end="zoomplus.mouseout"/></use>
    <path d="M-4,0h8M0,-4v8" fill="none" stroke="white" stroke-width="1.5" pointer-events="none"/>
  </g>
  <g id="zoomMin">
    <use xlink:href="#rim" fill="#404040"><set attributeName="fill" to="#808080" begin="zoomminus.mouseover" end="zoomminus.mouseout"/></use>
    <path d="M-4,0h8" fill="none" stroke="white" stroke-width="1.5" pointer-events="none"/>
  </g>
  <g id="arrowUp" transform="translate(30 24)">
    <use xlink:href="#rim"/>
    <path pointer-events="none" fill="none" stroke="white" stroke-width="1.5" d="M0,-3.0v7 M-2.5,-0.5L0,-3.0L2.5,-0.5"/>
  </g>
  <g id="arrowRight" transform="rotate(90) translate(36 -43)">
    <use xlink:href="#rim"/>
    <path pointer-events="none" fill="none" stroke="white" stroke-width="1.5" d="M0,-3.0v7 M-2.5,-0.5L0,-3.0L2.5,-0.5"/>
  </g>
  <g id="arrowDown" transform="rotate(180) translate(-30 -48)">
    <use xlink:href="#rim"/>
    <path pointer-events="none" fill="none" stroke="white" stroke-width="1.5" d="M0,-3.0v7 M-2.5,-0.5L0,-3.0L2.5,-0.5"/>
  </g>
  <g id="arrowLeft" transform="rotate(270) translate(-36 17)">
    <use xlink:href="#rim"/>
    <path pointer-events="none" fill="none" stroke="white" stroke-width="1.5" d="M0,-3.0v7 M-2.5,-0.5L0,-3.0L2.5,-0.5"/>
  </g>
  <g id="resetDef">
    <use xlink:href="#rim2" fill="#404040"><set attributeName="fill" to="#808080" begin="reset.mouseover" end="reset.mouseout"/></use>
  </g>
</defs>
<script type="application/ecmascript">
var viewWidth = 1571;
var viewHeight = 311;
var sectionId = 'dynsection-55';
</script>
<script type="application/ecmascript" xlink:href="svg.min.js"/>
<svg id="graph" class="graph">
<g id="viewport">
<title>updateContent</title>
<!-- Node1 -->
<g id="Node000001" class="node">
<title>Node1</title>
<g id="a_Node000001"><a xlink:title=" ">
<polygon fill="#999999" stroke="#666666" points="1563.25,-133 1483.5,-133 1483.5,-113 1563.25,-113 1563.25,-133"/>
<text text-anchor="middle" x="1523.38" y="-119.5" font-family="Helvetica,sans-Serif" font-size="10.00">updateContent</text>
</a>
</g>
</g>
<!-- Node2 -->
<g id="Node000002" class="node">
<title>Node2</title>
<g id="a_Node000002"><a xlink:href="class_l_d_player.html#a71ae4d3ffde14a03452c76942db55e6e" target="_top" xlink:title=" ">
<polygon fill="white" stroke="#666666" points="1444.5,-152 1330.25,-152 1330.25,-132 1444.5,-132 1444.5,-152"/>
<text text-anchor="middle" x="1387.38" y="-138.5" font-family="Helvetica,sans-Serif" font-size="10.00">LDPlayer::activateAdb</text>
</a>
</g>
</g>
<!-- Node1&#45;&gt;Node2 -->
<g id="edge1_Node000001_Node000002" class="edge">
<title>Node1&#45;&gt;Node2</title>
<g id="a_edge1_Node000001_Node000002"><a xlink:title=" ">
<path fill="none" stroke="#63b8ff" d="M1471.89,-130.16C1463.02,-131.42 1453.74,-132.73 1444.72,-134.01"/>
<polygon fill="#63b8ff" stroke="#63b8ff" points="1472.35,-133.63 1481.76,-128.76 1471.37,-126.7 1472.35,-133.63"/>
</a>
</g>
</g>
<!-- Node3 -->
<g id="Node000003" class="node">
<title>Node3</title>
<g id="a_Node000003"><a xlink:href="class_bot_config.html#ab92a15dd3027a7f42b452cdf5eaf9529" target="_top" xlink:title=" ">
<polygon fill="white" stroke="#666666" points="1447.5,-114 1327.25,-114 1327.25,-94 1447.5,-94 1447.5,-114"/>
<text text-anchor="middle" x="1387.38" y="-100.5" font-family="Helvetica,sans-Serif" font-size="10.00">BotConfig::updateString</text>
</a>
</g>
</g>
<!-- Node1&#45;&gt;Node3 -->
<g id="edge2_Node000001_Node000003" class="edge">
<title>Node1&#45;&gt;Node3</title>
<g id="a_edge2_Node000001_Node000003"><a xlink:title=" ">
<path fill="none" stroke="#63b8ff" d="M1472.04,-115.86C1464.19,-114.75 1456.01,-113.59 1447.97,-112.45"/>
<polygon fill="#63b8ff" stroke="#63b8ff" points="1471.37,-119.3 1481.76,-117.24 1472.35,-112.37 1471.37,-119.3"/>
</a>
</g>
</g>
<!-- Node4 -->
<g id="Node000004" class="node">
<title>Node4</title>
<g id="a_Node000004"><a xlink:href="class_bot_config.html#a7b0b572a14dd5f0630b335041f83049a" target="_top" xlink:title=" ">
<polygon fill="white" stroke="#666666" points="1283.38,-224 1169.12,-224 1169.12,-204 1283.38,-204 1283.38,-224"/>
<text text-anchor="middle" x="1226.25" y="-210.5" font-family="Helvetica,sans-Serif" font-size="10.00">BotConfig::updateBool</text>
</a>
</g>
</g>
<!-- Node3&#45;&gt;Node4 -->
<g id="edge3_Node000003_Node000004" class="edge">
<title>Node3&#45;&gt;Node4</title>
<g id="a_edge3_Node000003_Node000004"><a xlink:title=" ">
<path fill="none" stroke="#63b8ff" d="M1333.96,-119.17C1331.64,-120.36 1329.39,-121.63 1327.25,-123 1307.37,-135.69 1308.45,-145.85 1291.25,-162 1274.86,-177.38 1254.5,-193.46 1241.21,-203.59"/>
<polygon fill="#63b8ff" stroke="#63b8ff" points="1335.36,-122.37 1343.06,-115.1 1332.5,-115.98 1335.36,-122.37"/>
</a>
</g>
</g>
<!-- Node18 -->
<g id="Node000018" class="node">
<title>Node18</title>
<g id="a_Node000018"><a xlink:href="class_bot_config.html#a9c0206c0081858886963267f855a9ec8" target="_top" xlink:title=" ">
<polygon fill="white" stroke="#666666" points="1291.25,-120 1161.25,-120 1161.25,-88 1291.25,-88 1291.25,-120"/>
<text text-anchor="start" x="1169.25" y="-106.5" font-family="Helvetica,sans-Serif" font-size="10.00">BotConfig::updateFavorite</text>
<text text-anchor="middle" x="1226.25" y="-94.5" font-family="Helvetica,sans-Serif" font-size="10.00">Instance</text>
</a>
</g>
</g>
<!-- Node3&#45;&gt;Node18 -->
<g id="edge22_Node000003_Node000018" class="edge">
<title>Node3&#45;&gt;Node18</title>
<g id="a_edge22_Node000003_Node000018"><a xlink:title=" ">
<path fill="none" stroke="#63b8ff" d="M1315.85,-104C1307.78,-104 1299.6,-104 1291.62,-104"/>
<polygon fill="#63b8ff" stroke="#63b8ff" points="1315.61,-107.5 1325.61,-104 1315.61,-100.5 1315.61,-107.5"/>
</a>
</g>
</g>
<!-- Node20 -->
<g id="Node000020" class="node">
<title>Node20</title>
<g id="a_Node000020"><a xlink:href="class_bot_config.html#ac766bf2645c392ae3057a93c7628aa85" target="_top" xlink:title=" ">
<polygon fill="white" stroke="#666666" points="1291.25,-70 1161.25,-70 1161.25,-38 1291.25,-38 1291.25,-70"/>
<text text-anchor="start" x="1169.25" y="-56.5" font-family="Helvetica,sans-Serif" font-size="10.00">BotConfig::updateFavorite</text>
<text text-anchor="middle" x="1226.25" y="-44.5" font-family="Helvetica,sans-Serif" font-size="10.00">Preset</text>
</a>
</g>
</g>
<!-- Node3&#45;&gt;Node20 -->
<g id="edge24_Node000003_Node000020" class="edge">
<title>Node3&#45;&gt;Node20</title>
<g id="a_edge24_Node000003_Node000020"><a xlink:title=" ">
<path fill="none" stroke="#63b8ff" d="M1342.07,-90.08C1322.71,-84 1299.87,-76.82 1279.67,-70.47"/>
<polygon fill="#63b8ff" stroke="#63b8ff" points="1340.98,-93.41 1351.57,-93.06 1343.08,-86.73 1340.98,-93.41"/>
</a>
</g>
</g>
<!-- Node22 -->
<g id="Node000022" class="node">
<title>Node22</title>
<g id="a_Node000022"><a xlink:href="class_bot_config.html#a6156a0424ed044c8309b986c62a61d62" target="_top" xlink:title=" ">
<polygon fill="white" stroke="#666666" points="1279.25,-20 1173.25,-20 1173.25,0 1279.25,0 1279.25,-20"/>
<text text-anchor="middle" x="1226.25" y="-6.5" font-family="Helvetica,sans-Serif" font-size="10.00">BotConfig::updateInt</text>
</a>
</g>
</g>
<!-- Node3&#45;&gt;Node22 -->
<g id="edge26_Node000003_Node000022" class="edge">
<title>Node3&#45;&gt;Node22</title>
<g id="a_edge26_Node000003_Node000022"><a xlink:title=" ">
<path fill="none" stroke="#63b8ff" d="M1367.94,-85.93C1349.8,-69.04 1320.61,-44.22 1291.25,-29 1284.77,-25.64 1277.6,-22.78 1270.48,-20.39"/>
<polygon fill="#63b8ff" stroke="#63b8ff" points="1365.16,-88.11 1374.82,-92.46 1369.98,-83.03 1365.16,-88.11"/>
</a>
</g>
</g>
<!-- Node24 -->
<g id="Node000024" class="node">
<title>Node24</title>
<g id="a_Node000024"><a xlink:href="class_bot_config.html#a7fe6cbda7ec98c3070e6f9437f6eeb84" target="_top" xlink:title=" ">
<polygon fill="white" stroke="#666666" points="1123.75,-158 972.75,-158 972.75,-138 1123.75,-138 1123.75,-158"/>
<text text-anchor="middle" x="1048.25" y="-144.5" font-family="Helvetica,sans-Serif" font-size="10.00">BotConfig::updateStringBotFile</text>
</a>
</g>
</g>
<!-- Node3&#45;&gt;Node24 -->
<g id="edge28_Node000003_Node000024" class="edge">
<title>Node3&#45;&gt;Node24</title>
<g id="a_edge28_Node000003_Node000024"><a xlink:title=" ">
<path fill="none" stroke="#63b8ff" d="M1341.72,-117.5C1325.91,-121.8 1307.91,-126.18 1291.25,-129 1235.67,-138.41 1172.11,-143.17 1124.08,-145.58"/>
<polygon fill="#63b8ff" stroke="#63b8ff" points="1342.65,-120.87 1351.34,-114.8 1340.76,-114.13 1342.65,-120.87"/>
</a>
</g>
</g>
<!-- Node5 -->
<g id="Node000005" class="node">
<title>Node5</title>
<g id="a_Node000005"><a xlink:href="class_bot_config.html#a70992bec079cbf9412e69b0f0e712ca2" target="_top" xlink:title=" ">
<polygon fill="white" stroke="#666666" points="1120.75,-246 975.75,-246 975.75,-226 1120.75,-226 1120.75,-246"/>
<text text-anchor="middle" x="1048.25" y="-232.5" font-family="Helvetica,sans-Serif" font-size="10.00">BotConfig::updateBoolBotFile</text>
</a>
</g>
</g>
<!-- Node4&#45;&gt;Node5 -->
<g id="edge4_Node000004_Node000005" class="edge">
<title>Node4&#45;&gt;Node5</title>
<g id="a_edge4_Node000004_Node000005"><a xlink:title=" ">
<path fill="none" stroke="#63b8ff" d="M1157.74,-222.44C1145.71,-223.94 1133.13,-225.51 1120.99,-227.03"/>
<polygon fill="#63b8ff" stroke="#63b8ff" points="1158.09,-225.92 1167.58,-221.21 1157.22,-218.98 1158.09,-225.92"/>
</a>
</g>
</g>
<!-- Node6 -->
<g id="Node000006" class="node">
<title>Node6</title>
<g id="a_Node000006"><a xlink:href="class_bot_config.html#a53485f20f89c00397495b545b91044da" target="_top" xlink:title=" ">
<polygon fill="white" stroke="#666666" points="719.75,-227 592.75,-227 592.75,-207 719.75,-207 719.75,-227"/>
<text text-anchor="middle" x="656.25" y="-213.5" font-family="Helvetica,sans-Serif" font-size="10.00">BotConfig::updateDataAll</text>
</a>
</g>
</g>
<!-- Node5&#45;&gt;Node6 -->
<g id="edge5_Node000005_Node000006" class="edge">
<title>Node5&#45;&gt;Node6</title>
<g id="a_edge5_Node000005_Node000006"><a xlink:title=" ">
<path fill="none" stroke="#63b8ff" d="M963.82,-231.94C890.79,-228.38 786.29,-223.29 720.12,-220.06"/>
<polygon fill="#63b8ff" stroke="#63b8ff" points="963.59,-235.43 973.75,-232.42 963.93,-228.44 963.59,-235.43"/>
</a>
</g>
</g>
<!-- Node12 -->
<g id="Node000012" class="node">
<title>Node12</title>
<g id="a_Node000012"><a xlink:href="class_bot_config.html#ab4929dd1c99a9e725800349a9cfc3b0e" target="_top" xlink:title=" ">
<polygon fill="white" stroke="#666666" points="935.25,-265 770.75,-265 770.75,-245 935.25,-245 935.25,-265"/>
<text text-anchor="middle" x="853" y="-251.5" font-family="Helvetica,sans-Serif" font-size="10.00">BotConfig::updateDataBluestacks</text>
</a>
</g>
</g>
<!-- Node5&#45;&gt;Node12 -->
<g id="edge12_Node000005_Node000012" class="edge">
<title>Node5&#45;&gt;Node12</title>
<g id="a_edge12_Node000005_Node000012"><a xlink:title=" ">
<path fill="none" stroke="#63b8ff" d="M963.9,-244.2C954.46,-245.12 944.86,-246.07 935.45,-246.99"/>
<polygon fill="#63b8ff" stroke="#63b8ff" points="964.18,-247.68 973.78,-243.22 963.49,-240.72 964.18,-247.68"/>
</a>
</g>
</g>
<!-- Node15 -->
<g id="Node000015" class="node">
<title>Node15</title>
<g id="a_Node000015"><a xlink:href="class_bot_config.html#ae1e96b6b256aa8894b603259674f6a6f" target="_top" xlink:title=" ">
<polygon fill="white" stroke="#666666" points="930,-303 776,-303 776,-283 930,-283 930,-303"/>
<text text-anchor="middle" x="853" y="-289.5" font-family="Helvetica,sans-Serif" font-size="10.00">BotConfig::updateDataLdPlayer</text>
</a>
</g>
</g>
<!-- Node5&#45;&gt;Node15 -->
<g id="edge17_Node000005_Node000015" class="edge">
<title>Node5&#45;&gt;Node15</title>
<g id="a_edge17_Node000005_Node000015"><a xlink:title=" ">
<path fill="none" stroke="#63b8ff" d="M1008.32,-250.25C986.92,-257.82 959.8,-266.98 935.25,-274 924.66,-277.03 913.2,-279.93 902.32,-282.52"/>
<polygon fill="#63b8ff" stroke="#63b8ff" points="1009.28,-253.62 1017.52,-246.96 1006.93,-247.03 1009.28,-253.62"/>
</a>
</g>
</g>
<!-- Node7 -->
<g id="Node000007" class="node">
<title>Node7</title>
<g id="a_Node000007"><a xlink:href="class_bot_config.html#af8c906f3cd22726a96e758886c756068" target="_top" xlink:title=" ">
<polygon fill="white" stroke="#666666" points="541.75,-198 419.25,-198 419.25,-178 541.75,-178 541.75,-198"/>
<text text-anchor="middle" x="480.5" y="-184.5" font-family="Helvetica,sans-Serif" font-size="10.00">BotConfig::initEmulators</text>
</a>
</g>
</g>
<!-- Node6&#45;&gt;Node7 -->
<g id="edge6_Node000006_Node000007" class="edge">
<title>Node6&#45;&gt;Node7</title>
<g id="a_edge6_Node000006_Node000007"><a xlink:title=" ">
<path fill="none" stroke="#63b8ff" d="M581.19,-204.64C568.15,-202.46 554.72,-200.22 542.1,-198.11"/>
<polygon fill="#63b8ff" stroke="#63b8ff" points="580.59,-208.09 591.03,-206.28 581.74,-201.18 580.59,-208.09"/>
</a>
</g>
</g>
<!-- Node10 -->
<g id="Node000010" class="node">
<title>Node10</title>
<g id="a_Node000010"><a xlink:href="class_bot_config.html#add6ae08a184d93e02b4ad2a03aa95e90" target="_top" xlink:title=" ">
<polygon fill="white" stroke="#666666" points="534.62,-255 426.38,-255 426.38,-235 534.62,-235 534.62,-255"/>
<text text-anchor="middle" x="480.5" y="-241.5" font-family="Helvetica,sans-Serif" font-size="10.00">BotConfig::updateInit</text>
</a>
</g>
</g>
<!-- Node6&#45;&gt;Node10 -->
<g id="edge9_Node000006_Node000010" class="edge">
<title>Node6&#45;&gt;Node10</title>
<g id="a_edge9_Node000006_Node000010"><a xlink:title=" ">
<path fill="none" stroke="#63b8ff" d="M581.31,-228.91C565.74,-231.42 549.6,-234.03 534.96,-236.38"/>
<polygon fill="#63b8ff" stroke="#63b8ff" points="581.71,-232.4 591.03,-227.35 580.6,-225.49 581.71,-232.4"/>
</a>
</g>
</g>
<!-- Node8 -->
<g id="Node000008" class="node">
<title>Node8</title>
<g id="a_Node000008"><a xlink:href="class_bot_config.html#a8925ef3403b945f27b9ee2719ef257b9" target="_top" xlink:title=" ">
<polygon fill="white" stroke="#666666" points="238.25,-226 116.5,-226 116.5,-206 238.25,-206 238.25,-226"/>
<text text-anchor="middle" x="177.38" y="-212.5" font-family="Helvetica,sans-Serif" font-size="10.00">BotConfig::initBotConfig</text>
</a>
</g>
</g>
<!-- Node7&#45;&gt;Node8 -->
<g id="edge7_Node000007_Node000008" class="edge">
<title>Node7&#45;&gt;Node8</title>
<g id="a_edge7_Node000007_Node000008"><a xlink:title=" ">
<path fill="none" stroke="#63b8ff" d="M407.53,-194.69C355.95,-199.49 287.28,-205.87 238.6,-210.4"/>
<polygon fill="#63b8ff" stroke="#63b8ff" points="407.79,-198.18 417.42,-193.77 407.14,-191.21 407.79,-198.18"/>
</a>
</g>
</g>
<!-- Node9 -->
<g id="Node000009" class="node">
<title>Node9</title>
<g id="a_Node000009"><a xlink:href="classgame.html#aea6b13468585f1be55d1736100158706" target="_top" xlink:title=" ">
<polygon fill="white" stroke="#666666" points="80.5,-226 0,-226 0,-206 80.5,-206 80.5,-226"/>
<text text-anchor="middle" x="40.25" y="-212.5" font-family="Helvetica,sans-Serif" font-size="10.00">game::startBot</text>
</a>
</g>
</g>
<!-- Node8&#45;&gt;Node9 -->
<g id="edge8_Node000008_Node000009" class="edge">
<title>Node8&#45;&gt;Node9</title>
<g id="a_edge8_Node000008_Node000009"><a xlink:title=" ">
<path fill="none" stroke="#63b8ff" d="M105.04,-216C96.77,-216 88.57,-216 80.95,-216"/>
<polygon fill="#63b8ff" stroke="#63b8ff" points="104.81,-219.5 114.81,-216 104.81,-212.5 104.81,-219.5"/>
</a>
</g>
</g>
<!-- Node11 -->
<g id="Node000011" class="node">
<title>Node11</title>
<g id="a_Node000011"><a xlink:href="class_bot_config.html#a939c57f64624e4160f921b093ca827d0" target="_top" xlink:title=" ">
<polygon fill="white" stroke="#666666" points="383.25,-250 274.25,-250 274.25,-230 383.25,-230 383.25,-250"/>
<text text-anchor="middle" x="328.75" y="-236.5" font-family="Helvetica,sans-Serif" font-size="10.00">BotConfig::initBotFile</text>
</a>
</g>
</g>
<!-- Node10&#45;&gt;Node11 -->
<g id="edge10_Node000010_Node000011" class="edge">
<title>Node10&#45;&gt;Node11</title>
<g id="a_edge10_Node000010_Node000011"><a xlink:title=" ">
<path fill="none" stroke="#63b8ff" d="M415.04,-242.85C404.54,-242.5 393.76,-242.14 383.55,-241.8"/>
<polygon fill="#63b8ff" stroke="#63b8ff" points="414.66,-246.34 424.77,-243.17 414.89,-239.34 414.66,-246.34"/>
</a>
</g>
</g>
<!-- Node11&#45;&gt;Node8 -->
<g id="edge11_Node000011_Node000008" class="edge">
<title>Node11&#45;&gt;Node8</title>
<g id="a_edge11_Node000011_Node000008"><a xlink:title=" ">
<path fill="none" stroke="#63b8ff" d="M262.64,-229.54C254.64,-228.25 246.48,-226.94 238.55,-225.67"/>
<polygon fill="#63b8ff" stroke="#63b8ff" points="261.9,-232.96 272.33,-231.1 263.01,-226.05 261.9,-232.96"/>
</a>
</g>
</g>
<!-- Node13 -->
<g id="Node000013" class="node">
<title>Node13</title>
<g id="a_Node000013"><a xlink:href="class_bot_config.html#a24360fdf5b92d7fb02ca39004ceb06cf" target="_top" xlink:title=" ">
<polygon fill="white" stroke="#666666" points="719.75,-142 592.75,-142 592.75,-122 719.75,-122 719.75,-142"/>
<text text-anchor="middle" x="656.25" y="-128.5" font-family="Helvetica,sans-Serif" font-size="10.00">BotConfig::initBluestacks</text>
</a>
</g>
</g>
<!-- Node12&#45;&gt;Node13 -->
<g id="edge13_Node000012_Node000013" class="edge">
<title>Node12&#45;&gt;Node13</title>
<g id="a_edge13_Node000012_Node000013"><a xlink:title=" ">
<path fill="none" stroke="#63b8ff" d="M825.58,-238.42C809.19,-227.66 788.03,-212.92 770.75,-198 753.14,-182.8 754.22,-172.74 734.75,-160 723.38,-152.56 709.77,-146.78 697.16,-142.46"/>
<polygon fill="#63b8ff" stroke="#63b8ff" points="823.53,-241.26 833.83,-243.74 827.33,-235.38 823.53,-241.26"/>
</a>
</g>
</g>
<!-- Node14 -->
<g id="Node000014" class="node">
<title>Node14</title>
<g id="a_Node000014"><a xlink:href="class_bot_config.html#a994d7a4b890c4ab02c1da5778cc36f9c" target="_top" xlink:title=" ">
<polygon fill="white" stroke="#666666" points="734.75,-265 577.75,-265 577.75,-245 734.75,-245 734.75,-265"/>
<text text-anchor="middle" x="656.25" y="-251.5" font-family="Helvetica,sans-Serif" font-size="10.00">BotConfig::updateInitBluestacks</text>
</a>
</g>
</g>
<!-- Node12&#45;&gt;Node14 -->
<g id="edge15_Node000012_Node000014" class="edge">
<title>Node12&#45;&gt;Node14</title>
<g id="a_edge15_Node000012_Node000014"><a xlink:title=" ">
<path fill="none" stroke="#63b8ff" d="M758.98,-255C750.97,-255 742.92,-255 735.05,-255"/>
<polygon fill="#63b8ff" stroke="#63b8ff" points="758.74,-258.5 768.74,-255 758.74,-251.5 758.74,-258.5"/>
</a>
</g>
</g>
<!-- Node13&#45;&gt;Node7 -->
<g id="edge14_Node000013_Node000007" class="edge">
<title>Node13&#45;&gt;Node7</title>
<g id="a_edge14_Node000013_Node000007"><a xlink:title=" ">
<path fill="none" stroke="#63b8ff" d="M612.25,-145.86C581.81,-155.67 541.64,-168.62 513.9,-177.56"/>
<polygon fill="#63b8ff" stroke="#63b8ff" points="613.09,-149.27 621.54,-142.87 610.94,-142.6 613.09,-149.27"/>
</a>
</g>
</g>
<!-- Node14&#45;&gt;Node10 -->
<g id="edge16_Node000014_Node000010" class="edge">
<title>Node14&#45;&gt;Node10</title>
<g id="a_edge16_Node000014_Node000010"><a xlink:title=" ">
<path fill="none" stroke="#63b8ff" d="M565.87,-249.86C555.36,-249.25 544.89,-248.65 535.1,-248.08"/>
<polygon fill="#63b8ff" stroke="#63b8ff" points="565.57,-253.34 575.76,-250.42 565.98,-246.36 565.57,-253.34"/>
</a>
</g>
</g>
<!-- Node16 -->
<g id="Node000016" class="node">
<title>Node16</title>
<g id="a_Node000016"><a xlink:href="class_bot_config.html#ac91f46c5dca7953454d5a2340dfd7f5c" target="_top" xlink:title=" ">
<polygon fill="white" stroke="#666666" points="714.5,-189 598,-189 598,-169 714.5,-169 714.5,-189"/>
<text text-anchor="middle" x="656.25" y="-175.5" font-family="Helvetica,sans-Serif" font-size="10.00">BotConfig::initLdPlayer</text>
</a>
</g>
</g>
<!-- Node15&#45;&gt;Node16 -->
<g id="edge18_Node000015_Node000016" class="edge">
<title>Node15&#45;&gt;Node16</title>
<g id="a_edge18_Node000015_Node000016"><a xlink:title=" ">
<path fill="none" stroke="#63b8ff" d="M774.91,-277.07C773.48,-276.1 772.09,-275.08 770.75,-274 741.67,-250.53 763.71,-221.63 734.75,-198 728.85,-193.18 721.9,-189.56 714.64,-186.84"/>
<polygon fill="#63b8ff" stroke="#63b8ff" points="773.15,-280.09 783.59,-281.91 776.56,-273.98 773.15,-280.09"/>
</a>
</g>
</g>
<!-- Node17 -->
<g id="Node000017" class="node">
<title>Node17</title>
<g id="a_Node000017"><a xlink:href="class_bot_config.html#a4630e1c0cfc4366a1e97df9452cad69d" target="_top" xlink:title=" ">
<polygon fill="white" stroke="#666666" points="729.5,-303 583,-303 583,-283 729.5,-283 729.5,-303"/>
<text text-anchor="middle" x="656.25" y="-289.5" font-family="Helvetica,sans-Serif" font-size="10.00">BotConfig::updateInitLdPlayer</text>
</a>
</g>
</g>
<!-- Node15&#45;&gt;Node17 -->
<g id="edge20_Node000015_Node000017" class="edge">
<title>Node15&#45;&gt;Node17</title>
<g id="a_edge20_Node000015_Node000017"><a xlink:title=" ">
<path fill="none" stroke="#63b8ff" d="M764.21,-293C752.75,-293 741.11,-293 729.94,-293"/>
<polygon fill="#63b8ff" stroke="#63b8ff" points="764.08,-296.5 774.08,-293 764.08,-289.5 764.08,-296.5"/>
</a>
</g>
</g>
<!-- Node16&#45;&gt;Node7 -->
<g id="edge19_Node000016_Node000007" class="edge">
<title>Node16&#45;&gt;Node7</title>
<g id="a_edge19_Node000016_Node000007"><a xlink:title=" ">
<path fill="none" stroke="#63b8ff" d="M586.77,-182.55C572.02,-183.31 556.52,-184.11 542.09,-184.86"/>
<polygon fill="#63b8ff" stroke="#63b8ff" points="586.56,-186.06 596.36,-182.05 586.2,-179.07 586.56,-186.06"/>
</a>
</g>
</g>
<!-- Node17&#45;&gt;Node10 -->
<g id="edge21_Node000017_Node000010" class="edge">
<title>Node17&#45;&gt;Node10</title>
<g id="a_edge21_Node000017_Node000010"><a xlink:title=" ">
<path fill="none" stroke="#63b8ff" d="M599.75,-279.77C592.34,-277.89 584.85,-275.94 577.75,-274 556.71,-268.25 533.26,-261.21 514.78,-255.5"/>
<polygon fill="#63b8ff" stroke="#63b8ff" points="598.87,-283.15 609.42,-282.18 600.56,-276.36 598.87,-283.15"/>
</a>
</g>
</g>
<!-- Node19 -->
<g id="Node000019" class="node">
<title>Node19</title>
<g id="a_Node000019"><a xlink:href="class_bot_config.html#af5d808aed675a21368cb8669ed12b756" target="_top" xlink:title=" ">
<polygon fill="white" stroke="#666666" points="1125.25,-120 971.25,-120 971.25,-88 1125.25,-88 1125.25,-120"/>
<text text-anchor="start" x="979.25" y="-106.5" font-family="Helvetica,sans-Serif" font-size="10.00">BotConfig::interactUserFavorite</text>
<text text-anchor="middle" x="1048.25" y="-94.5" font-family="Helvetica,sans-Serif" font-size="10.00">Instance</text>
</a>
</g>
</g>
<!-- Node18&#45;&gt;Node19 -->
<g id="edge23_Node000018_Node000019" class="edge">
<title>Node18&#45;&gt;Node19</title>
<g id="a_edge23_Node000018_Node000019"><a xlink:title=" ">
<path fill="none" stroke="#63b8ff" d="M1149.91,-104C1141.83,-104 1133.6,-104 1125.51,-104"/>
<polygon fill="#63b8ff" stroke="#63b8ff" points="1149.7,-107.5 1159.7,-104 1149.7,-100.5 1149.7,-107.5"/>
</a>
</g>
</g>
<!-- Node21 -->
<g id="Node000021" class="node">
<title>Node21</title>
<g id="a_Node000021"><a xlink:href="classgame.html#a8aa5386b248e0602728af471e0e19184" target="_top" xlink:title=" ">
<polygon fill="white" stroke="#666666" points="1116.25,-64 980.25,-64 980.25,-44 1116.25,-44 1116.25,-64"/>
<text text-anchor="middle" x="1048.25" y="-50.5" font-family="Helvetica,sans-Serif" font-size="10.00">game::selectFavoritePreset</text>
</a>
</g>
</g>
<!-- Node20&#45;&gt;Node21 -->
<g id="edge25_Node000020_Node000021" class="edge">
<title>Node20&#45;&gt;Node21</title>
<g id="a_edge25_Node000020_Node000021"><a xlink:title=" ">
<path fill="none" stroke="#63b8ff" d="M1149.8,-54C1138.73,-54 1127.39,-54 1116.5,-54"/>
<polygon fill="#63b8ff" stroke="#63b8ff" points="1149.7,-57.5 1159.7,-54 1149.7,-50.5 1149.7,-57.5"/>
</a>
</g>
</g>
<!-- Node23 -->
<g id="Node000023" class="node">
<title>Node23</title>
<g id="a_Node000023"><a xlink:href="class_bot_config.html#a84ab86ab1cdcf8c6c9bac78044bc0f12" target="_top" xlink:title=" ">
<polygon fill="white" stroke="#666666" points="1116.62,-20 979.88,-20 979.88,0 1116.62,0 1116.62,-20"/>
<text text-anchor="middle" x="1048.25" y="-6.5" font-family="Helvetica,sans-Serif" font-size="10.00">BotConfig::updateIntBotFile</text>
</a>
</g>
</g>
<!-- Node22&#45;&gt;Node23 -->
<g id="edge27_Node000022_Node000023" class="edge">
<title>Node22&#45;&gt;Node23</title>
<g id="a_edge27_Node000022_Node000023"><a xlink:title=" ">
<path fill="none" stroke="#63b8ff" d="M1161.56,-10C1147.09,-10 1131.68,-10 1117.05,-10"/>
<polygon fill="#63b8ff" stroke="#63b8ff" points="1161.41,-13.5 1171.41,-10 1161.41,-6.5 1161.41,-13.5"/>
</a>
</g>
</g>
<!-- Node25 -->
<g id="Node000025" class="node">
<title>Node25</title>
<g id="a_Node000025"><a xlink:href="class_bot_config.html#ab9fe07595e423fcdfc22322dd1ede393" target="_top" xlink:title=" ">
<polygon fill="white" stroke="#666666" points="924.75,-139 781.25,-139 781.25,-107 924.75,-107 924.75,-139"/>
<text text-anchor="start" x="789.25" y="-125.5" font-family="Helvetica,sans-Serif" font-size="10.00">BotConfig::updateBluestacks</text>
<text text-anchor="middle" x="853" y="-113.5" font-family="Helvetica,sans-Serif" font-size="10.00">Config</text>
</a>
</g>
</g>
<!-- Node24&#45;&gt;Node25 -->
<g id="edge29_Node000024_Node000025" class="edge">
<title>Node24&#45;&gt;Node25</title>
<g id="a_edge29_Node000024_Node000025"><a xlink:title=" ">
<path fill="none" stroke="#63b8ff" d="M960.89,-136.83C948.94,-135.28 936.78,-133.71 925.15,-132.2"/>
<polygon fill="#63b8ff" stroke="#63b8ff" points="960.39,-140.29 970.76,-138.1 961.29,-133.35 960.39,-140.29"/>
</a>
</g>
</g>
<!-- Node26 -->
<g id="Node000026" class="node">
<title>Node26</title>
<g id="a_Node000026"><a xlink:href="class_bot_config.html#ae21ba22e6f1b9dfcacf38dd78f904d82" target="_top" xlink:title=" ">
<polygon fill="white" stroke="#666666" points="924.75,-89 781.25,-89 781.25,-57 924.75,-57 924.75,-89"/>
<text text-anchor="start" x="789.25" y="-75.5" font-family="Helvetica,sans-Serif" font-size="10.00">BotConfig::updateBluestacks</text>
<text text-anchor="middle" x="853" y="-63.5" font-family="Helvetica,sans-Serif" font-size="10.00">Folder</text>
</a>
</g>
</g>
<!-- Node24&#45;&gt;Node26 -->
<g id="edge31_Node000024_Node000026" class="edge">
<title>Node24&#45;&gt;Node26</title>
<g id="a_edge31_Node000024_Node000026"><a xlink:title=" ">
<path fill="none" stroke="#63b8ff" d="M981.97,-133.86C978.27,-132.39 974.67,-130.77 971.25,-129 952.5,-119.29 953.73,-108.21 935.25,-98 929.44,-94.79 923.16,-91.93 916.75,-89.41"/>
<polygon fill="#63b8ff" stroke="#63b8ff" points="980.53,-137.06 991.12,-137.11 982.87,-130.46 980.53,-137.06"/>
</a>
</g>
</g>
<!-- Node27 -->
<g id="Node000027" class="node">
<title>Node27</title>
<g id="a_Node000027"><a xlink:href="class_bot_config.html#a095c01a9b9e6ff1db9c683716337f45f" target="_top" xlink:title=" ">
<polygon fill="white" stroke="#666666" points="919.5,-189 786.5,-189 786.5,-157 919.5,-157 919.5,-189"/>
<text text-anchor="start" x="794.5" y="-175.5" font-family="Helvetica,sans-Serif" font-size="10.00">BotConfig::updateLdPlayer</text>
<text text-anchor="middle" x="853" y="-163.5" font-family="Helvetica,sans-Serif" font-size="10.00">Folder</text>
</a>
</g>
</g>
<!-- Node24&#45;&gt;Node27 -->
<g id="edge33_Node000024_Node000027" class="edge">
<title>Node24&#45;&gt;Node27</title>
<g id="a_edge33_Node000024_Node000027"><a xlink:title=" ">
<path fill="none" stroke="#63b8ff" d="M961.21,-159.13C947.32,-160.93 933.14,-162.76 919.83,-164.48"/>
<polygon fill="#63b8ff" stroke="#63b8ff" points="961.29,-162.65 970.76,-157.9 960.39,-155.71 961.29,-162.65"/>
</a>
</g>
</g>
<!-- Node25&#45;&gt;Node13 -->
<g id="edge30_Node000025_Node000013" class="edge">
<title>Node25&#45;&gt;Node13</title>
<g id="a_edge30_Node000025_Node000013"><a xlink:title=" ">
<path fill="none" stroke="#63b8ff" d="M769.54,-126.81C753,-127.57 735.89,-128.37 720.15,-129.09"/>
<polygon fill="#63b8ff" stroke="#63b8ff" points="769.52,-130.32 779.35,-126.36 769.2,-123.32 769.52,-130.32"/>
</a>
</g>
</g>
<!-- Node26&#45;&gt;Node13 -->
<g id="edge32_Node000026_Node000013" class="edge">
<title>Node26&#45;&gt;Node13</title>
<g id="a_edge32_Node000026_Node000013"><a xlink:title=" ">
<path fill="none" stroke="#63b8ff" d="M786.77,-92.76C755.03,-102.38 718.17,-113.54 691.91,-121.5"/>
<polygon fill="#63b8ff" stroke="#63b8ff" points="787.75,-96.12 796.3,-89.87 785.72,-89.42 787.75,-96.12"/>
</a>
</g>
</g>
<!-- Node27&#45;&gt;Node16 -->
<g id="edge34_Node000027_Node000016" class="edge">
<title>Node27&#45;&gt;Node16</title>
<g id="a_edge34_Node000027_Node000016"><a xlink:title=" ">
<path fill="none" stroke="#63b8ff" d="M774.81,-175.38C754.86,-175.99 733.73,-176.64 714.96,-177.22"/>
<polygon fill="#63b8ff" stroke="#63b8ff" points="774.67,-178.88 784.55,-175.08 774.45,-171.89 774.67,-178.88"/>
</a>
</g>
</g>
</g>
</svg>

<g id="navigator" transform="translate(0 0)" fill="#404254">
  <rect fill="#f2f5e9" fill-opacity="0.5" stroke="#606060" stroke-width=".5" x="0" y="0" width="60" height="60"/>
  <use id="zoomplus" xlink:href="#zoomPlus" x="17" y="9" onmousedown="handleZoom(evt,'in')"/>
  <use id="zoomminus" xlink:href="#zoomMin" x="42" y="9" onmousedown="handleZoom(evt,'out')"/>
  <use id="reset" xlink:href="#resetDef" x="30" y="36" onmousedown="handleReset()"/>
   <use id="arrowup" xlink:href="#arrowUp" x="0" y="0" onmousedown="handlePan(0,-1)"/>
  <use id="arrowright" xlink:href="#arrowRight" x="0" y="0" onmousedown="handlePan(1,0)"/>
  <use id="arrowdown" xlink:href="#arrowDown" x="0" y="0" onmousedown="handlePan(0,1)"/>
  <use id="arrowleft" xlink:href="#arrowLeft" x="0" y="0" onmousedown="handlePan(-1,0)"/>
</g>
<svg viewBox="0 0 15 15" width="100%" height="30px" preserveAspectRatio="xMaxYMin meet">
 <g id="arrow_out" transform="scale(0.3 0.3)">
  <a xlink:href="_text_manager_8cpp_ac695ebe5513185f42689b419f58d8a83_icgraph_org.svg" target="_base">
   <rect id="button" ry="5" rx="5" y="6" x="6" height="38" width="38"
        fill="#f2f5e9" fill-opacity="0.5" stroke="#606060" stroke-width="1.0"/>
   <path id="arrow"
     d="M 11.500037,31.436501 C 11.940474,20.09759 22.043105,11.32322 32.158766,21.979434 L 37.068811,17.246167 C 37.068811,17.246167 37.088388,32 37.088388,32 L 22.160133,31.978069 C 22.160133,31.978069 26.997745,27.140456 26.997745,27.140456 C 18.528582,18.264221 13.291696,25.230495 11.500037,31.436501 z"
     style="fill:#404040;"/>
  </a>
 </g>
</svg>

<style type='text/css'>
<![CDATA[
[data-mouse-over-selected='false'] { opacity: 0.7; }
[data-mouse-over-selected='true']  { opacity: 1.0; }
]]>
</style>
<script type="application/ecmascript"><![CDATA[
document.addEventListener('DOMContentLoaded', (event) => {
  highlightEdges();
  highlightAdjacentNodes();
});
]]></script>
</svg>
