<?xml version="1.0" encoding="UTF-8" standalone="no"?>
<!DOCTYPE svg PUBLIC "-//W3C//DTD SVG 1.1//EN"
 "http://www.w3.org/Graphics/SVG/1.1/DTD/svg11.dtd">
<!-- Generated by graphviz version 12.2.0 (20241103.1931)
 -->
<!-- Title: extractLineContent Pages: 1 -->
<svg width="718pt" height="122pt"
 viewBox="0.00 0.00 717.50 122.00" xmlns="http://www.w3.org/2000/svg" xmlns:xlink="http://www.w3.org/1999/xlink">
<g id="graph0" class="graph" transform="scale(1 1) rotate(0) translate(4 118)">
<title>extractLineContent</title>
<!-- Node1 -->
<g id="Node000001" class="node">
<title>Node1</title>
<g id="a_Node000001"><a xlink:title=" ">
<polygon fill="#999999" stroke="#666666" points="98.5,-39 0,-39 0,-19 98.5,-19 98.5,-39"/>
<text text-anchor="middle" x="49.25" y="-25.5" font-family="Helvetica,sans-Serif" font-size="10.00">extractLineContent</text>
</a>
</g>
</g>
<!-- Node2 -->
<g id="Node000002" class="node">
<title>Node2</title>
<g id="a_Node000002"><a xlink:href="_text_manager_8cpp.html#a85a282af68cca7cf7d69487d1bacdc47" target="_top" xlink:title=" ">
<polygon fill="white" stroke="#666666" points="320.62,-58 236.38,-58 236.38,-38 320.62,-38 320.62,-58"/>
<text text-anchor="middle" x="278.5" y="-44.5" font-family="Helvetica,sans-Serif" font-size="10.00">extractBetween</text>
</a>
</g>
</g>
<!-- Node1&#45;&gt;Node2 -->
<g id="edge1_Node000001_Node000002" class="edge">
<title>Node1&#45;&gt;Node2</title>
<g id="a_edge1_Node000001_Node000002"><a xlink:title=" ">
<path fill="none" stroke="#63b8ff" d="M98.72,-33.05C135.7,-36.14 186.58,-40.4 224.6,-43.58"/>
<polygon fill="#63b8ff" stroke="#63b8ff" points="224.2,-47.06 234.45,-44.4 224.78,-40.08 224.2,-47.06"/>
</a>
</g>
</g>
<!-- Node8 -->
<g id="Node000008" class="node">
<title>Node8</title>
<g id="a_Node000008"><a xlink:href="_text_manager_8cpp.html#af24bee60aa1d3d5b4ae3bf6ebd267ecd" target="_top" xlink:title=" ">
<polygon fill="white" stroke="#666666" points="182,-20 134.5,-20 134.5,0 182,0 182,-20"/>
<text text-anchor="middle" x="158.25" y="-6.5" font-family="Helvetica,sans-Serif" font-size="10.00">getLine</text>
</a>
</g>
</g>
<!-- Node1&#45;&gt;Node8 -->
<g id="edge10_Node000001_Node000008" class="edge">
<title>Node1&#45;&gt;Node8</title>
<g id="a_edge10_Node000001_Node000008"><a xlink:title=" ">
<path fill="none" stroke="#63b8ff" d="M98.74,-20.39C106.89,-18.94 115.2,-17.47 122.9,-16.1"/>
<polygon fill="#63b8ff" stroke="#63b8ff" points="123.29,-19.58 132.53,-14.39 122.07,-12.69 123.29,-19.58"/>
</a>
</g>
</g>
<!-- Node3 -->
<g id="Node000003" class="node">
<title>Node3</title>
<g id="a_Node000003"><a xlink:href="_text_manager_8cpp.html#a6956d58559ef67f422247fdeb1c22775" target="_top" xlink:title=" ">
<polygon fill="white" stroke="#666666" points="454.75,-58 378.75,-58 378.75,-38 454.75,-38 454.75,-58"/>
<text text-anchor="middle" x="416.75" y="-44.5" font-family="Helvetica,sans-Serif" font-size="10.00">getStringAfter</text>
</a>
</g>
</g>
<!-- Node2&#45;&gt;Node3 -->
<g id="edge2_Node000002_Node000003" class="edge">
<title>Node2&#45;&gt;Node3</title>
<g id="a_edge2_Node000002_Node000003"><a xlink:title=" ">
<path fill="none" stroke="#63b8ff" d="M321.12,-48C335.71,-48 352.23,-48 367.33,-48"/>
<polygon fill="#63b8ff" stroke="#63b8ff" points="367.03,-51.5 377.03,-48 367.03,-44.5 367.03,-51.5"/>
</a>
</g>
</g>
<!-- Node7 -->
<g id="Node000007" class="node">
<title>Node7</title>
<g id="a_Node000007"><a xlink:href="_text_manager_8cpp.html#aff8311b88dbf5f3091f3ac1262543242" target="_top" xlink:title=" ">
<polygon fill="white" stroke="#666666" points="458.5,-20 375,-20 375,0 458.5,0 458.5,-20"/>
<text text-anchor="middle" x="416.75" y="-6.5" font-family="Helvetica,sans-Serif" font-size="10.00">getStringBefore</text>
</a>
</g>
</g>
<!-- Node2&#45;&gt;Node7 -->
<g id="edge8_Node000002_Node000007" class="edge">
<title>Node2&#45;&gt;Node7</title>
<g id="a_edge8_Node000002_Node000007"><a xlink:title=" ">
<path fill="none" stroke="#63b8ff" d="M317.09,-37.52C332.58,-33.2 350.72,-28.14 367.2,-23.54"/>
<polygon fill="#63b8ff" stroke="#63b8ff" points="368.13,-26.91 376.82,-20.86 366.25,-20.17 368.13,-26.91"/>
</a>
</g>
</g>
<!-- Node4 -->
<g id="Node000004" class="node">
<title>Node4</title>
<g id="a_Node000004"><a xlink:href="_text_manager_8cpp.html#a5b66873abcff2faee361721f86b65dd0" target="_top" xlink:title=" ">
<polygon fill="white" stroke="#666666" points="572.75,-58 505,-58 505,-38 572.75,-38 572.75,-58"/>
<text text-anchor="middle" x="538.88" y="-44.5" font-family="Helvetica,sans-Serif" font-size="10.00">getPosAfter</text>
</a>
</g>
</g>
<!-- Node3&#45;&gt;Node4 -->
<g id="edge3_Node000003_Node000004" class="edge">
<title>Node3&#45;&gt;Node4</title>
<g id="a_edge3_Node000003_Node000004"><a xlink:title=" ">
<path fill="none" stroke="#63b8ff" d="M455.1,-48C467.23,-48 480.8,-48 493.4,-48"/>
<polygon fill="#63b8ff" stroke="#63b8ff" points="493.11,-51.5 503.11,-48 493.11,-44.5 493.11,-51.5"/>
</a>
</g>
</g>
<!-- Node6 -->
<g id="Node000006" class="node">
<title>Node6</title>
<g id="a_Node000006"><a xlink:href="_text_manager_8cpp.html#a2946b90fb3df56b0a74d53eb4160f4e2" target="_top" xlink:title=" ">
<polygon fill="white" stroke="#666666" points="583.25,-96 494.5,-96 494.5,-76 583.25,-76 583.25,-96"/>
<text text-anchor="middle" x="538.88" y="-82.5" font-family="Helvetica,sans-Serif" font-size="10.00">getStringStarting</text>
</a>
</g>
</g>
<!-- Node3&#45;&gt;Node6 -->
<g id="edge5_Node000003_Node000006" class="edge">
<title>Node3&#45;&gt;Node6</title>
<g id="a_edge5_Node000003_Node000006"><a xlink:title=" ">
<path fill="none" stroke="#63b8ff" d="M450.89,-58.48C464.28,-62.72 479.93,-67.67 494.23,-72.19"/>
<polygon fill="#63b8ff" stroke="#63b8ff" points="492.81,-75.41 503.4,-75.09 494.92,-68.74 492.81,-75.41"/>
</a>
</g>
</g>
<!-- Node5 -->
<g id="Node000005" class="node">
<title>Node5</title>
<g id="a_Node000005"><a xlink:href="_text_manager_8cpp.html#a3f4afb2b62acd297e783a22ffa9a7000" target="_top" xlink:title=" ">
<polygon fill="white" stroke="#666666" points="709.5,-58 619.25,-58 619.25,-38 709.5,-38 709.5,-58"/>
<text text-anchor="middle" x="664.38" y="-44.5" font-family="Helvetica,sans-Serif" font-size="10.00">getSequencePos</text>
</a>
</g>
</g>
<!-- Node4&#45;&gt;Node5 -->
<g id="edge4_Node000004_Node000005" class="edge">
<title>Node4&#45;&gt;Node5</title>
<g id="a_edge4_Node000004_Node000005"><a xlink:title=" ">
<path fill="none" stroke="#63b8ff" d="M572.97,-48C583.69,-48 595.89,-48 607.79,-48"/>
<polygon fill="#63b8ff" stroke="#63b8ff" points="607.52,-51.5 617.52,-48 607.52,-44.5 607.52,-51.5"/>
</a>
</g>
</g>
<!-- Node6&#45;&gt;Node5 -->
<g id="edge6_Node000006_Node000005" class="edge">
<title>Node6&#45;&gt;Node5</title>
<g id="a_edge6_Node000006_Node000005"><a xlink:title=" ">
<path fill="none" stroke="#63b8ff" d="M573.95,-75.52C587.72,-71.28 603.8,-66.33 618.5,-61.81"/>
<polygon fill="#63b8ff" stroke="#63b8ff" points="619.44,-65.18 627.97,-58.9 617.38,-58.49 619.44,-65.18"/>
</a>
</g>
</g>
<!-- Node6&#45;&gt;Node6 -->
<g id="edge7_Node000006_Node000006" class="edge">
<title>Node6&#45;&gt;Node6</title>
<g id="a_edge7_Node000006_Node000006"><a xlink:title=" ">
<path fill="none" stroke="#63b8ff" d="M519.47,-96.34C511.18,-104.98 517.65,-114 538.88,-114 550.48,-114 557.68,-111.3 560.46,-107.44"/>
<polygon fill="#63b8ff" stroke="#63b8ff" points="563.93,-106.96 558.57,-97.82 557.06,-108.31 563.93,-106.96"/>
</a>
</g>
</g>
<!-- Node7&#45;&gt;Node5 -->
<g id="edge9_Node000007_Node000005" class="edge">
<title>Node7&#45;&gt;Node5</title>
<g id="a_edge9_Node000007_Node000005"><a xlink:title=" ">
<path fill="none" stroke="#63b8ff" d="M458.75,-13.34C492.36,-16.41 541.09,-21.61 583.25,-29 592.76,-30.67 602.84,-32.78 612.51,-34.98"/>
<polygon fill="#63b8ff" stroke="#63b8ff" points="611.62,-38.37 622.15,-37.25 613.22,-31.55 611.62,-38.37"/>
</a>
</g>
</g>
<!-- Node8&#45;&gt;Node2 -->
<g id="edge11_Node000008_Node000002" class="edge">
<title>Node8&#45;&gt;Node2</title>
<g id="a_edge11_Node000008_Node000002"><a xlink:title=" ">
<path fill="none" stroke="#63b8ff" d="M182.4,-17.51C193.22,-21.01 206.26,-25.23 218,-29 223.15,-30.65 228.55,-32.39 233.91,-34.1"/>
<polygon fill="#63b8ff" stroke="#63b8ff" points="232.73,-37.4 243.32,-37.11 234.86,-30.73 232.73,-37.4"/>
</a>
</g>
</g>
<!-- Node9 -->
<g id="Node000009" class="node">
<title>Node9</title>
<g id="a_Node000009"><a xlink:href="_text_manager_8cpp.html#a84a9e24fc5cce3cebf746bb656909bf8" target="_top" xlink:title=" ">
<polygon fill="white" stroke="#666666" points="339,-20 218,-20 218,0 339,0 339,-20"/>
<text text-anchor="middle" x="278.5" y="-6.5" font-family="Helvetica,sans-Serif" font-size="10.00">extractBetweenReverse</text>
</a>
</g>
</g>
<!-- Node8&#45;&gt;Node9 -->
<g id="edge12_Node000008_Node000009" class="edge">
<title>Node8&#45;&gt;Node9</title>
<g id="a_edge12_Node000008_Node000009"><a xlink:title=" ">
<path fill="none" stroke="#63b8ff" d="M182.33,-10C189.43,-10 197.66,-10 206.24,-10"/>
<polygon fill="#63b8ff" stroke="#63b8ff" points="206.15,-13.5 216.15,-10 206.15,-6.5 206.15,-13.5"/>
</a>
</g>
</g>
<!-- Node9&#45;&gt;Node3 -->
<g id="edge13_Node000009_Node000003" class="edge">
<title>Node9&#45;&gt;Node3</title>
<g id="a_edge13_Node000009_Node000003"><a xlink:title=" ">
<path fill="none" stroke="#63b8ff" d="M317.09,-20.48C332.58,-24.8 350.72,-29.86 367.2,-34.46"/>
<polygon fill="#63b8ff" stroke="#63b8ff" points="366.25,-37.83 376.82,-37.14 368.13,-31.09 366.25,-37.83"/>
</a>
</g>
</g>
<!-- Node9&#45;&gt;Node7 -->
<g id="edge14_Node000009_Node000007" class="edge">
<title>Node9&#45;&gt;Node7</title>
<g id="a_edge14_Node000009_Node000007"><a xlink:title=" ">
<path fill="none" stroke="#63b8ff" d="M339.26,-10C347.33,-10 355.56,-10 363.49,-10"/>
<polygon fill="#63b8ff" stroke="#63b8ff" points="363.32,-13.5 373.32,-10 363.32,-6.5 363.32,-13.5"/>
</a>
</g>
</g>
</g>
</svg>
