<?xml version="1.0" encoding="UTF-8" standalone="no"?>
<!DOCTYPE svg PUBLIC "-//W3C//DTD SVG 1.1//EN"
 "http://www.w3.org/Graphics/SVG/1.1/DTD/svg11.dtd">
<!-- Generated by graphviz version 12.2.0 (20241103.1931)
 -->
<!-- Title: getStringInsideBorders Pages: 1 -->
<!--zoomable 231 -->

<svg id="main" version="1.1" xmlns="http://www.w3.org/2000/svg" xmlns:xlink="http://www.w3.org/1999/xlink" xml:space="preserve" onload="init(evt)">

<style type="text/css"><![CDATA[
.node, .edge {opacity: 0.7;}
.node.selected, .edge.selected {opacity: 1;}
.edge:hover path { stroke: red; }
.edge:hover polygon { stroke: red; fill: red; }
]]></style>

<defs>
  <circle id="rim" cx="0" cy="0" r="7"/>
  <circle id="rim2" cx="0" cy="0" r="3.5"/>
  <g id="zoomPlus">
    <use xlink:href="#rim" fill="#404040"><set attributeName="fill" to="#808080" begin="zoomplus.mouseover" end="zoomplus.mouseout"/></use>
    <path d="M-4,0h8M0,-4v8" fill="none" stroke="white" stroke-width="1.5" pointer-events="none"/>
  </g>
  <g id="zoomMin">
    <use xlink:href="#rim" fill="#404040"><set attributeName="fill" to="#808080" begin="zoomminus.mouseover" end="zoomminus.mouseout"/></use>
    <path d="M-4,0h8" fill="none" stroke="white" stroke-width="1.5" pointer-events="none"/>
  </g>
  <g id="arrowUp" transform="translate(30 24)">
    <use xlink:href="#rim"/>
    <path pointer-events="none" fill="none" stroke="white" stroke-width="1.5" d="M0,-3.0v7 M-2.5,-0.5L0,-3.0L2.5,-0.5"/>
  </g>
  <g id="arrowRight" transform="rotate(90) translate(36 -43)">
    <use xlink:href="#rim"/>
    <path pointer-events="none" fill="none" stroke="white" stroke-width="1.5" d="M0,-3.0v7 M-2.5,-0.5L0,-3.0L2.5,-0.5"/>
  </g>
  <g id="arrowDown" transform="rotate(180) translate(-30 -48)">
    <use xlink:href="#rim"/>
    <path pointer-events="none" fill="none" stroke="white" stroke-width="1.5" d="M0,-3.0v7 M-2.5,-0.5L0,-3.0L2.5,-0.5"/>
  </g>
  <g id="arrowLeft" transform="rotate(270) translate(-36 17)">
    <use xlink:href="#rim"/>
    <path pointer-events="none" fill="none" stroke="white" stroke-width="1.5" d="M0,-3.0v7 M-2.5,-0.5L0,-3.0L2.5,-0.5"/>
  </g>
  <g id="resetDef">
    <use xlink:href="#rim2" fill="#404040"><set attributeName="fill" to="#808080" begin="reset.mouseover" end="reset.mouseout"/></use>
  </g>
</defs>
<script type="application/ecmascript">
var viewWidth = 640;
var viewHeight = 231;
var sectionId = 'dynsection-34';
</script>
<script type="application/ecmascript" xlink:href="svg.min.js"/>
<svg id="graph" class="graph">
<g id="viewport">
<title>getStringInsideBorders</title>
<!-- Node1 -->
<g id="Node000001" class="node">
<title>Node1</title>
<g id="a_Node000001"><a xlink:title=" ">
<polygon fill="#999999" stroke="#666666" points="115,-110.45 0,-110.45 0,-90.45 115,-90.45 115,-110.45"/>
<text text-anchor="middle" x="57.5" y="-96.95" font-family="Helvetica,sans-Serif" font-size="10.00">getStringInsideBorders</text>
</a>
</g>
</g>
<!-- Node2 -->
<g id="Node000002" class="node">
<title>Node2</title>
<g id="a_Node000002"><a xlink:href="_text_manager_8cpp.html#a8f90c1ec899f25ae8d1087459a6bc108" target="_top" xlink:title=" ">
<polygon fill="white" stroke="#666666" points="238.62,-172.45 161.12,-172.45 161.12,-152.45 238.62,-152.45 238.62,-172.45"/>
<text text-anchor="middle" x="199.88" y="-158.95" font-family="Helvetica,sans-Serif" font-size="10.00">countMatches</text>
</a>
</g>
</g>
<!-- Node1&#45;&gt;Node2 -->
<g id="edge1_Node000001_Node000002" class="edge">
<title>Node1&#45;&gt;Node2</title>
<g id="a_edge1_Node000001_Node000002"><a xlink:title=" ">
<path fill="none" stroke="#63b8ff" d="M82,-110.83C104.67,-120.84 139.24,-136.11 164.91,-147.45"/>
<polygon fill="#63b8ff" stroke="#63b8ff" points="163.36,-150.59 173.92,-151.43 166.18,-144.18 163.36,-150.59"/>
</a>
</g>
</g>
<!-- Node4 -->
<g id="Node000004" class="node">
<title>Node4</title>
<g id="a_Node000004"><a xlink:href="_text_manager_8cpp.html#a4d2b9819e5e2504ea8d55a553812146a" target="_top" xlink:title=" ">
<polygon fill="white" stroke="#666666" points="370.5,-129.45 295.25,-129.45 295.25,-109.45 370.5,-109.45 370.5,-129.45"/>
<text text-anchor="middle" x="332.88" y="-115.95" font-family="Helvetica,sans-Serif" font-size="10.00">getStringUntil</text>
</a>
</g>
</g>
<!-- Node1&#45;&gt;Node4 -->
<g id="edge14_Node000001_Node000004" class="edge">
<title>Node1&#45;&gt;Node4</title>
<g id="a_edge14_Node000001_Node000004"><a xlink:title=" ">
<path fill="none" stroke="#63b8ff" d="M115.48,-104.41C165.24,-107.87 236.68,-112.83 283.67,-116.1"/>
<polygon fill="#63b8ff" stroke="#63b8ff" points="283.33,-119.58 293.55,-116.78 283.81,-112.6 283.33,-119.58"/>
</a>
</g>
</g>
<!-- Node6 -->
<g id="Node000006" class="node">
<title>Node6</title>
<g id="a_Node000006"><a xlink:href="_text_manager_8cpp.html#a3f4afb2b62acd297e783a22ffa9a7000" target="_top" xlink:title=" ">
<polygon fill="white" stroke="#666666" points="632,-91.45 541.75,-91.45 541.75,-71.45 632,-71.45 632,-91.45"/>
<text text-anchor="middle" x="586.88" y="-77.95" font-family="Helvetica,sans-Serif" font-size="10.00">getSequencePos</text>
</a>
</g>
</g>
<!-- Node1&#45;&gt;Node6 -->
<g id="edge9_Node000001_Node000006" class="edge">
<title>Node1&#45;&gt;Node6</title>
<g id="a_edge9_Node000001_Node000006"><a xlink:title=" ">
<path fill="none" stroke="#63b8ff" d="M115.44,-98.4C217.15,-94.73 428.84,-87.11 529.87,-83.47"/>
<polygon fill="#63b8ff" stroke="#63b8ff" points="529.96,-86.96 539.83,-83.11 529.71,-79.97 529.96,-86.96"/>
</a>
</g>
</g>
<!-- Node7 -->
<g id="Node000007" class="node">
<title>Node7</title>
<g id="a_Node000007"><a xlink:href="_text_manager_8cpp.html#a053e0b36b2796cc4d128150353f13449" target="_top" xlink:title=" ">
<polygon fill="white" stroke="#666666" points="371.62,-223.45 294.12,-223.45 294.12,-203.45 371.62,-203.45 371.62,-223.45"/>
<text text-anchor="middle" x="332.88" y="-209.95" font-family="Helvetica,sans-Serif" font-size="10.00">skipSequence</text>
</a>
</g>
</g>
<!-- Node1&#45;&gt;Node7 -->
<g id="edge15_Node000001_Node000007" class="edge">
<title>Node1&#45;&gt;Node7</title>
<g id="a_edge15_Node000001_Node000007"><a xlink:title=" ">
<path fill="none" stroke="#63b8ff" d="M66.95,-110.88C81.89,-128.55 114.82,-164.1 151,-181.45 192.56,-201.38 244.86,-209.01 282.51,-211.87"/>
<polygon fill="#63b8ff" stroke="#63b8ff" points="281.98,-215.34 292.19,-212.51 282.44,-208.35 281.98,-215.34"/>
</a>
</g>
</g>
<!-- Node8 -->
<g id="Node000008" class="node">
<title>Node8</title>
<g id="a_Node000008"><a xlink:href="_text_manager_8cpp.html#a07d720ed3b57aaff2c6b76019524b927" target="_top" xlink:title=" ">
<polygon fill="white" stroke="#666666" points="248.75,-53.45 151,-53.45 151,-33.45 248.75,-33.45 248.75,-53.45"/>
<text text-anchor="middle" x="199.88" y="-39.95" font-family="Helvetica,sans-Serif" font-size="10.00">getSequencePosR</text>
</a>
</g>
</g>
<!-- Node1&#45;&gt;Node8 -->
<g id="edge10_Node000001_Node000008" class="edge">
<title>Node1&#45;&gt;Node8</title>
<g id="a_edge10_Node000001_Node000008"><a xlink:title=" ">
<path fill="none" stroke="#63b8ff" d="M84.25,-89.99C106.31,-81.03 138.33,-68.03 162.92,-58.05"/>
<polygon fill="#63b8ff" stroke="#63b8ff" points="163.94,-61.41 171.89,-54.41 161.31,-54.93 163.94,-61.41"/>
</a>
</g>
</g>
<!-- Node9 -->
<g id="Node000009" class="node">
<title>Node9</title>
<g id="a_Node000009"><a xlink:href="_text_manager_8cpp.html#a2946b90fb3df56b0a74d53eb4160f4e2" target="_top" xlink:title=" ">
<polygon fill="white" stroke="#666666" points="505.75,-25.45 417,-25.45 417,-5.45 505.75,-5.45 505.75,-25.45"/>
<text text-anchor="middle" x="461.38" y="-11.95" font-family="Helvetica,sans-Serif" font-size="10.00">getStringStarting</text>
</a>
</g>
</g>
<!-- Node1&#45;&gt;Node9 -->
<g id="edge11_Node000001_Node000009" class="edge">
<title>Node1&#45;&gt;Node9</title>
<g id="a_edge11_Node000001_Node000009"><a xlink:title=" ">
<path fill="none" stroke="#63b8ff" d="M66.87,-90.11C81.68,-72.72 114.41,-38.16 151,-24.45 235.32,7.14 341.81,1.23 405.32,-6.62"/>
<polygon fill="#63b8ff" stroke="#63b8ff" points="404.79,-10.08 415.16,-7.9 405.7,-3.14 404.79,-10.08"/>
</a>
</g>
</g>
<!-- Node3 -->
<g id="Node000003" class="node">
<title>Node3</title>
<g id="a_Node000003"><a xlink:href="_text_manager_8cpp.html#a079e0c70f384def9d00b70f9ee62ee4a" target="_top" xlink:title=" ">
<polygon fill="white" stroke="#666666" points="381,-185.45 284.75,-185.45 284.75,-165.45 381,-165.45 381,-185.45"/>
<text text-anchor="middle" x="332.88" y="-171.95" font-family="Helvetica,sans-Serif" font-size="10.00">containsSequence</text>
</a>
</g>
</g>
<!-- Node2&#45;&gt;Node3 -->
<g id="edge2_Node000002_Node000003" class="edge">
<title>Node2&#45;&gt;Node3</title>
<g id="a_edge2_Node000002_Node000003"><a xlink:title=" ">
<path fill="none" stroke="#63b8ff" d="M239.12,-166.24C249.77,-167.3 261.58,-168.47 273.12,-169.62"/>
<polygon fill="#63b8ff" stroke="#63b8ff" points="272.71,-173.09 283,-170.6 273.4,-166.13 272.71,-173.09"/>
</a>
</g>
</g>
<!-- Node2&#45;&gt;Node4 -->
<g id="edge3_Node000002_Node000004" class="edge">
<title>Node2&#45;&gt;Node4</title>
<g id="a_edge3_Node000002_Node000004"><a xlink:title=" ">
<path fill="none" stroke="#63b8ff" d="M232.59,-152.04C249.6,-146.46 270.8,-139.5 289.23,-133.45"/>
<polygon fill="#63b8ff" stroke="#63b8ff" points="290.15,-136.83 298.56,-130.38 287.97,-130.18 290.15,-136.83"/>
</a>
</g>
</g>
<!-- Node2&#45;&gt;Node7 -->
<g id="edge7_Node000002_Node000007" class="edge">
<title>Node2&#45;&gt;Node7</title>
<g id="a_edge7_Node000002_Node000007"><a xlink:title=" ">
<path fill="none" stroke="#63b8ff" d="M227.7,-172.89C246.95,-180.39 273.15,-190.58 294.45,-198.88"/>
<polygon fill="#63b8ff" stroke="#63b8ff" points="293.09,-202.1 303.67,-202.47 295.63,-195.58 293.09,-202.1"/>
</a>
</g>
</g>
<!-- Node4&#45;&gt;Node4 -->
<g id="edge6_Node000004_Node000004" class="edge">
<title>Node4&#45;&gt;Node4</title>
<g id="a_edge6_Node000004_Node000004"><a xlink:title=" ">
<path fill="none" stroke="#63b8ff" d="M312.46,-129.79C303.73,-138.42 310.54,-147.45 332.88,-147.45 345.09,-147.45 352.66,-144.75 355.59,-140.89"/>
<polygon fill="#63b8ff" stroke="#63b8ff" points="359.05,-140.35 353.6,-131.27 352.19,-141.77 359.05,-140.35"/>
</a>
</g>
</g>
<!-- Node5 -->
<g id="Node000005" class="node">
<title>Node5</title>
<g id="a_Node000005"><a xlink:href="_text_manager_8cpp.html#a5b66873abcff2faee361721f86b65dd0" target="_top" xlink:title=" ">
<polygon fill="white" stroke="#666666" points="495.25,-129.45 427.5,-129.45 427.5,-109.45 495.25,-109.45 495.25,-129.45"/>
<text text-anchor="middle" x="461.38" y="-115.95" font-family="Helvetica,sans-Serif" font-size="10.00">getPosAfter</text>
</a>
</g>
</g>
<!-- Node4&#45;&gt;Node5 -->
<g id="edge4_Node000004_Node000005" class="edge">
<title>Node4&#45;&gt;Node5</title>
<g id="a_edge4_Node000004_Node000005"><a xlink:title=" ">
<path fill="none" stroke="#63b8ff" d="M370.8,-119.45C384.84,-119.45 400.99,-119.45 415.67,-119.45"/>
<polygon fill="#63b8ff" stroke="#63b8ff" points="415.56,-122.95 425.56,-119.45 415.56,-115.95 415.56,-122.95"/>
</a>
</g>
</g>
<!-- Node5&#45;&gt;Node6 -->
<g id="edge5_Node000005_Node000006" class="edge">
<title>Node5&#45;&gt;Node6</title>
<g id="a_edge5_Node000005_Node000006"><a xlink:title=" ">
<path fill="none" stroke="#63b8ff" d="M495.47,-109.26C509.5,-104.95 526.06,-99.85 541.16,-95.21"/>
<polygon fill="#63b8ff" stroke="#63b8ff" points="541.85,-98.66 550.38,-92.37 539.79,-91.97 541.85,-98.66"/>
</a>
</g>
</g>
<!-- Node7&#45;&gt;Node5 -->
<g id="edge8_Node000007_Node000005" class="edge">
<title>Node7&#45;&gt;Node5</title>
<g id="a_edge8_Node000007_Node000005"><a xlink:title=" ">
<path fill="none" stroke="#63b8ff" d="M364.62,-203C370.26,-200.54 375.95,-197.69 381,-194.45 405.64,-178.65 429.44,-154.62 444.44,-138.04"/>
<polygon fill="#63b8ff" stroke="#63b8ff" points="446.81,-140.64 450.82,-130.83 441.57,-136 446.81,-140.64"/>
</a>
</g>
</g>
<!-- Node9&#45;&gt;Node6 -->
<g id="edge12_Node000009_Node000006" class="edge">
<title>Node9&#45;&gt;Node6</title>
<g id="a_edge12_Node000009_Node000006"><a xlink:title=" ">
<path fill="none" stroke="#63b8ff" d="M481.94,-25.91C502,-36.62 533.42,-53.42 556.47,-65.73"/>
<polygon fill="#63b8ff" stroke="#63b8ff" points="554.59,-68.7 565.06,-70.33 557.89,-62.53 554.59,-68.7"/>
</a>
</g>
</g>
<!-- Node9&#45;&gt;Node9 -->
<g id="edge13_Node000009_Node000009" class="edge">
<title>Node9&#45;&gt;Node9</title>
<g id="a_edge13_Node000009_Node000009"><a xlink:title=" ">
<path fill="none" stroke="#63b8ff" d="M441.43,-25.79C432.91,-34.42 439.56,-43.45 461.38,-43.45 473.31,-43.45 480.7,-40.75 483.56,-36.89"/>
<polygon fill="#63b8ff" stroke="#63b8ff" points="487.02,-36.38 481.62,-27.27 480.16,-37.77 487.02,-36.38"/>
</a>
</g>
</g>
</g>
</svg>

<g id="navigator" transform="translate(0 0)" fill="#404254">
  <rect fill="#f2f5e9" fill-opacity="0.5" stroke="#606060" stroke-width=".5" x="0" y="0" width="60" height="60"/>
  <use id="zoomplus" xlink:href="#zoomPlus" x="17" y="9" onmousedown="handleZoom(evt,'in')"/>
  <use id="zoomminus" xlink:href="#zoomMin" x="42" y="9" onmousedown="handleZoom(evt,'out')"/>
  <use id="reset" xlink:href="#resetDef" x="30" y="36" onmousedown="handleReset()"/>
   <use id="arrowup" xlink:href="#arrowUp" x="0" y="0" onmousedown="handlePan(0,-1)"/>
  <use id="arrowright" xlink:href="#arrowRight" x="0" y="0" onmousedown="handlePan(1,0)"/>
  <use id="arrowdown" xlink:href="#arrowDown" x="0" y="0" onmousedown="handlePan(0,1)"/>
  <use id="arrowleft" xlink:href="#arrowLeft" x="0" y="0" onmousedown="handlePan(-1,0)"/>
</g>
<svg viewBox="0 0 15 15" width="100%" height="30px" preserveAspectRatio="xMaxYMin meet">
 <g id="arrow_out" transform="scale(0.3 0.3)">
  <a xlink:href="_text_manager_8cpp_a5adfb1e14ce20866bfe01ed05b344a87_cgraph_org.svg" target="_base">
   <rect id="button" ry="5" rx="5" y="6" x="6" height="38" width="38"
        fill="#f2f5e9" fill-opacity="0.5" stroke="#606060" stroke-width="1.0"/>
   <path id="arrow"
     d="M 11.500037,31.436501 C 11.940474,20.09759 22.043105,11.32322 32.158766,21.979434 L 37.068811,17.246167 C 37.068811,17.246167 37.088388,32 37.088388,32 L 22.160133,31.978069 C 22.160133,31.978069 26.997745,27.140456 26.997745,27.140456 C 18.528582,18.264221 13.291696,25.230495 11.500037,31.436501 z"
     style="fill:#404040;"/>
  </a>
 </g>
</svg>

<style type='text/css'>
<![CDATA[
[data-mouse-over-selected='false'] { opacity: 0.7; }
[data-mouse-over-selected='true']  { opacity: 1.0; }
]]>
</style>
<script type="application/ecmascript"><![CDATA[
document.addEventListener('DOMContentLoaded', (event) => {
  highlightEdges();
  highlightAdjacentNodes();
});
]]></script>
</svg>
