<?xml version="1.0" encoding="UTF-8" standalone="no"?>
<!DOCTYPE svg PUBLIC "-//W3C//DTD SVG 1.1//EN"
 "http://www.w3.org/Graphics/SVG/1.1/DTD/svg11.dtd">
<!-- Generated by graphviz version 12.2.0 (20241103.1931)
 -->
<!-- Title: getAllLines Pages: 1 -->
<svg width="291pt" height="102pt"
 viewBox="0.00 0.00 290.75 101.61" xmlns="http://www.w3.org/2000/svg" xmlns:xlink="http://www.w3.org/1999/xlink">

<svg id="main" version="1.1" xmlns="http://www.w3.org/2000/svg" xmlns:xlink="http://www.w3.org/1999/xlink" xml:space="preserve">

<style type="text/css"><![CDATA[
.node, .edge {opacity: 0.7;}
.node.selected, .edge.selected {opacity: 1;}
.edge:hover path { stroke: red; }
.edge:hover polygon { stroke: red; fill: red; }
]]></style>
<script type="application/ecmascript" xlink:href="svg.min.js"/>
<svg id="graph" class="graph">
<g id="graph0" class="graph" transform="scale(1 1) rotate(0) translate(4 97.61)">
<title>getAllLines</title>
<!-- Node1 -->
<g id="Node000001" class="node">
<title>Node1</title>
<g id="a_Node000001"><a xlink:title=" ">
<polygon fill="#999999" stroke="#666666" points="64,-58 0,-58 0,-38 64,-38 64,-58"/>
<text text-anchor="middle" x="32" y="-44.5" font-family="Helvetica,sans-Serif" font-size="10.00">getAllLines</text>
</a>
</g>
</g>
<!-- Node2 -->
<g id="Node000002" class="node">
<title>Node2</title>
<g id="a_Node000002"><a xlink:href="_text_manager_8cpp.html#afbb8972025ad14e914fdaafa26957439" target="_top" xlink:title=" ">
<polygon fill="white" stroke="#666666" points="282.75,-58 233.75,-58 233.75,-38 282.75,-38 282.75,-58"/>
<text text-anchor="middle" x="258.25" y="-44.5" font-family="Helvetica,sans-Serif" font-size="10.00">findPos</text>
</a>
</g>
</g>
<!-- Node1&#45;&gt;Node2 -->
<g id="edge1_Node000001_Node000002" class="edge">
<title>Node1&#45;&gt;Node2</title>
<g id="a_edge1_Node000001_Node000002"><a xlink:title=" ">
<path fill="none" stroke="#63b8ff" d="M46.74,-58.33C59.7,-67.38 80.06,-79.86 100,-85 142.07,-95.84 155.98,-96.93 197.75,-85 211.54,-81.06 225.25,-72.9 236.03,-65.25"/>
<polygon fill="#63b8ff" stroke="#63b8ff" points="237.92,-68.2 243.81,-59.4 233.71,-62.61 237.92,-68.2"/>
</a>
</g>
</g>
<!-- Node3 -->
<g id="Node000003" class="node">
<title>Node3</title>
<g id="a_Node000003"><a xlink:href="_text_manager_8cpp.html#a2b5e78b03c6bedc0fa93a0c3b2dbd5b1" target="_top" xlink:title=" ">
<polygon fill="white" stroke="#666666" points="197.75,-58 100,-58 100,-38 197.75,-38 197.75,-58"/>
<text text-anchor="middle" x="148.88" y="-44.5" font-family="Helvetica,sans-Serif" font-size="10.00">getContentStarting</text>
</a>
</g>
</g>
<!-- Node1&#45;&gt;Node3 -->
<g id="edge2_Node000001_Node000003" class="edge">
<title>Node1&#45;&gt;Node3</title>
<g id="a_edge2_Node000001_Node000003"><a xlink:title=" ">
<path fill="none" stroke="#63b8ff" d="M64.39,-48C71.88,-48 80.12,-48 88.42,-48"/>
<polygon fill="#63b8ff" stroke="#63b8ff" points="88.19,-51.5 98.19,-48 88.18,-44.5 88.19,-51.5"/>
</a>
</g>
</g>
<!-- Node4 -->
<g id="Node000004" class="node">
<title>Node4</title>
<g id="a_Node000004"><a xlink:href="_text_manager_8cpp.html#af24bee60aa1d3d5b4ae3bf6ebd267ecd" target="_top" xlink:title=" ">
<polygon fill="white" stroke="#666666" points="172.62,-20 125.12,-20 125.12,0 172.62,0 172.62,-20"/>
<text text-anchor="middle" x="148.88" y="-6.5" font-family="Helvetica,sans-Serif" font-size="10.00">getLine</text>
</a>
</g>
</g>
<!-- Node1&#45;&gt;Node4 -->
<g id="edge5_Node000001_Node000004" class="edge">
<title>Node1&#45;&gt;Node4</title>
<g id="a_edge5_Node000001_Node000004"><a xlink:title=" ">
<path fill="none" stroke="#63b8ff" d="M64.39,-37.62C79.79,-32.52 98.35,-26.38 114.06,-21.19"/>
<polygon fill="#63b8ff" stroke="#63b8ff" points="115.07,-24.54 123.47,-18.07 112.87,-17.89 115.07,-24.54"/>
</a>
</g>
</g>
<!-- Node3&#45;&gt;Node2 -->
<g id="edge3_Node000003_Node000002" class="edge">
<title>Node3&#45;&gt;Node2</title>
<g id="a_edge3_Node000003_Node000002"><a xlink:title=" ">
<path fill="none" stroke="#63b8ff" d="M198.22,-48C206.26,-48 214.46,-48 222.09,-48"/>
<polygon fill="#63b8ff" stroke="#63b8ff" points="221.99,-51.5 231.99,-48 221.99,-44.5 221.99,-51.5"/>
</a>
</g>
</g>
<!-- Node3&#45;&gt;Node3 -->
<g id="edge4_Node000003_Node000003" class="edge">
<title>Node3&#45;&gt;Node3</title>
<g id="a_edge4_Node000003_Node000003"><a xlink:title=" ">
<path fill="none" stroke="#63b8ff" d="M131.5,-58.34C124.07,-66.98 129.86,-76 148.88,-76 159.27,-76 165.72,-73.3 168.21,-69.44"/>
<polygon fill="#63b8ff" stroke="#63b8ff" points="171.7,-69.07 166.52,-59.83 164.8,-70.28 171.7,-69.07"/>
</a>
</g>
</g>
<!-- Node4&#45;&gt;Node2 -->
<g id="edge6_Node000004_Node000002" class="edge">
<title>Node4&#45;&gt;Node2</title>
<g id="a_edge6_Node000004_Node000002"><a xlink:title=" ">
<path fill="none" stroke="#63b8ff" d="M172.91,-18.15C187.43,-23.29 206.45,-30.02 222.75,-35.79"/>
<polygon fill="#63b8ff" stroke="#63b8ff" points="221.49,-39.06 232.08,-39.09 223.82,-32.46 221.49,-39.06"/>
</a>
</g>
</g>
</g>
</svg>
</svg>

<style type='text/css'>
<![CDATA[
[data-mouse-over-selected='false'] { opacity: 0.7; }
[data-mouse-over-selected='true']  { opacity: 1.0; }
]]>
</style>
<script type="application/ecmascript"><![CDATA[
document.addEventListener('DOMContentLoaded', (event) => {
  highlightEdges();
  highlightAdjacentNodes();
});
]]></script>
</svg>
