<?xml version="1.0" encoding="UTF-8" standalone="no"?>
<!DOCTYPE svg PUBLIC "-//W3C//DTD SVG 1.1//EN"
 "http://www.w3.org/Graphics/SVG/1.1/DTD/svg11.dtd">
<!-- Generated by graphviz version 12.2.0 (20241103.1931)
 -->
<!-- Title: src/TextManager.h Pages: 1 -->
<svg width="703pt" height="588pt"
 viewBox="0.00 0.00 702.75 588.00" xmlns="http://www.w3.org/2000/svg" xmlns:xlink="http://www.w3.org/1999/xlink">
<g id="graph0" class="graph" transform="scale(1 1) rotate(0) translate(4 584)">
<title>src/TextManager.h</title>
<!-- Node1 -->
<g id="Node000001" class="node">
<title>Node1</title>
<g id="a_Node000001"><a xlink:title=" ">
<polygon fill="#999999" stroke="#666666" points="429.5,-580 332.5,-580 332.5,-560 429.5,-560 429.5,-580"/>
<text text-anchor="middle" x="381" y="-566.5" font-family="Helvetica,sans-Serif" font-size="10.00">src/TextManager.h</text>
</a>
</g>
</g>
<!-- Node2 -->
<g id="Node000002" class="node">
<title>Node2</title>
<g id="a_Node000002"><a xlink:href="_bot_config_8h.html" target="_top" xlink:title=" ">
<polygon fill="white" stroke="#666666" points="233.12,-356 148.88,-356 148.88,-336 233.12,-336 233.12,-356"/>
<text text-anchor="middle" x="191" y="-342.5" font-family="Helvetica,sans-Serif" font-size="10.00">src/BotConfig.h</text>
</a>
</g>
</g>
<!-- Node1&#45;&gt;Node2 -->
<g id="edge1_Node000001_Node000002" class="edge">
<title>Node1&#45;&gt;Node2</title>
<g id="a_edge1_Node000001_Node000002"><a xlink:title=" ">
<path fill="none" stroke="#63b8ff" d="M365.56,-551.24C358.38,-542.98 349.74,-533 342,-524 286.96,-459.99 221.15,-382.52 198.83,-356.23"/>
<polygon fill="#63b8ff" stroke="#63b8ff" points="362.72,-553.31 371.92,-558.57 368,-548.72 362.72,-553.31"/>
</a>
</g>
</g>
<!-- Node18 -->
<g id="Node000018" class="node">
<title>Node18</title>
<g id="a_Node000018"><a xlink:href="_emulator_8h.html" target="_top" xlink:title=" ">
<polygon fill="white" stroke="#666666" points="204.88,-468 125.12,-468 125.12,-448 204.88,-448 204.88,-468"/>
<text text-anchor="middle" x="165" y="-454.5" font-family="Helvetica,sans-Serif" font-size="10.00">src/Emulator.h</text>
</a>
</g>
</g>
<!-- Node1&#45;&gt;Node18 -->
<g id="edge21_Node000001_Node000018" class="edge">
<title>Node1&#45;&gt;Node18</title>
<g id="a_edge21_Node000001_Node000018"><a xlink:title=" ">
<path fill="none" stroke="#63b8ff" d="M321.05,-561.25C288.84,-554.98 249.58,-543.79 219,-524 196.34,-509.34 178.35,-482.17 170.03,-468.05"/>
<polygon fill="#63b8ff" stroke="#63b8ff" points="320.17,-564.64 330.64,-563 321.43,-557.76 320.17,-564.64"/>
</a>
</g>
</g>
<!-- Node24 -->
<g id="Node000024" class="node">
<title>Node24</title>
<g id="a_Node000024"><a xlink:href="_text_manager_8cpp.html" target="_top" xlink:title=" ">
<polygon fill="white" stroke="#666666" points="672.75,-524 565.25,-524 565.25,-504 672.75,-504 672.75,-524"/>
<text text-anchor="middle" x="619" y="-510.5" font-family="Helvetica,sans-Serif" font-size="10.00">src/TextManager.cpp</text>
</a>
</g>
</g>
<!-- Node1&#45;&gt;Node24 -->
<g id="edge30_Node000001_Node000024" class="edge">
<title>Node1&#45;&gt;Node24</title>
<g id="a_edge30_Node000001_Node000024"><a xlink:title=" ">
<path fill="none" stroke="#63b8ff" d="M433.89,-557C477.13,-547.19 537.44,-533.51 577.32,-524.46"/>
<polygon fill="#63b8ff" stroke="#63b8ff" points="433.18,-553.57 424.2,-559.2 434.73,-560.4 433.18,-553.57"/>
</a>
</g>
</g>
<!-- Node25 -->
<g id="Node000025" class="node">
<title>Node25</title>
<g id="a_Node000025"><a xlink:href="_token_8h.html" target="_top" xlink:title=" ">
<polygon fill="white" stroke="#666666" points="547.5,-524 480.5,-524 480.5,-504 547.5,-504 547.5,-524"/>
<text text-anchor="middle" x="514" y="-510.5" font-family="Helvetica,sans-Serif" font-size="10.00">src/Token.h</text>
</a>
</g>
</g>
<!-- Node1&#45;&gt;Node25 -->
<g id="edge31_Node000001_Node000025" class="edge">
<title>Node1&#45;&gt;Node25</title>
<g id="a_edge31_Node000001_Node000025"><a xlink:title=" ">
<path fill="none" stroke="#63b8ff" d="M414.81,-555.27C438.54,-545.64 469.65,-533.01 490.65,-524.48"/>
<polygon fill="#63b8ff" stroke="#63b8ff" points="413.52,-552.02 405.57,-559.02 416.15,-558.51 413.52,-552.02"/>
</a>
</g>
</g>
<!-- Node29 -->
<g id="Node000029" class="node">
<title>Node29</title>
<g id="a_Node000029"><a xlink:href="fadb_8h.html" target="_top" xlink:title=" ">
<polygon fill="white" stroke="#666666" points="410.75,-524 351.25,-524 351.25,-504 410.75,-504 410.75,-524"/>
<text text-anchor="middle" x="381" y="-510.5" font-family="Helvetica,sans-Serif" font-size="10.00">src/fadb.h</text>
</a>
</g>
</g>
<!-- Node1&#45;&gt;Node29 -->
<g id="edge36_Node000001_Node000029" class="edge">
<title>Node1&#45;&gt;Node29</title>
<g id="a_edge36_Node000001_Node000029"><a xlink:title=" ">
<path fill="none" stroke="#63b8ff" d="M381,-548.13C381,-539.9 381,-530.85 381,-524.3"/>
<polygon fill="#63b8ff" stroke="#63b8ff" points="377.5,-548.08 381,-558.08 384.5,-548.08 377.5,-548.08"/>
</a>
</g>
</g>
<!-- Node3 -->
<g id="Node000003" class="node">
<title>Node3</title>
<g id="a_Node000003"><a xlink:href="_bot_config_8cpp.html" target="_top" xlink:title=" ">
<polygon fill="white" stroke="#666666" points="233.38,-300 138.62,-300 138.62,-280 233.38,-280 233.38,-300"/>
<text text-anchor="middle" x="186" y="-286.5" font-family="Helvetica,sans-Serif" font-size="10.00">src/BotConfig.cpp</text>
</a>
</g>
</g>
<!-- Node2&#45;&gt;Node3 -->
<g id="edge2_Node000002_Node000003" class="edge">
<title>Node2&#45;&gt;Node3</title>
<g id="a_edge2_Node000002_Node000003"><a xlink:title=" ">
<path fill="none" stroke="#63b8ff" d="M189.07,-324.13C188.31,-315.9 187.47,-306.85 186.86,-300.3"/>
<polygon fill="#63b8ff" stroke="#63b8ff" points="185.58,-324.45 189.99,-334.09 192.55,-323.81 185.58,-324.45"/>
</a>
</g>
</g>
<!-- Node4 -->
<g id="Node000004" class="node">
<title>Node4</title>
<g id="a_Node000004"><a xlink:href="_interactions_8h.html" target="_top" xlink:title=" ">
<polygon fill="white" stroke="#666666" points="385.88,-300 294.12,-300 294.12,-280 385.88,-280 385.88,-300"/>
<text text-anchor="middle" x="340" y="-286.5" font-family="Helvetica,sans-Serif" font-size="10.00">src/Interactions.h</text>
</a>
</g>
</g>
<!-- Node2&#45;&gt;Node4 -->
<g id="edge3_Node000002_Node000004" class="edge">
<title>Node2&#45;&gt;Node4</title>
<g id="a_edge3_Node000002_Node000004"><a xlink:title=" ">
<path fill="none" stroke="#63b8ff" d="M227.45,-331.79C254.19,-322.1 289.89,-309.16 313.84,-300.48"/>
<polygon fill="#63b8ff" stroke="#63b8ff" points="226.59,-328.38 218.38,-335.08 228.97,-334.96 226.59,-328.38"/>
</a>
</g>
</g>
<!-- Node8 -->
<g id="Node000008" class="node">
<title>Node8</title>
<g id="a_Node000008"><a xlink:href="game_8h.html" target="_top" xlink:title=" ">
<polygon fill="white" stroke="#666666" points="309.38,-132 244.62,-132 244.62,-112 309.38,-112 309.38,-132"/>
<text text-anchor="middle" x="277" y="-118.5" font-family="Helvetica,sans-Serif" font-size="10.00">src/game.h</text>
</a>
</g>
</g>
<!-- Node2&#45;&gt;Node8 -->
<g id="edge20_Node000002_Node000008" class="edge">
<title>Node2&#45;&gt;Node8</title>
<g id="a_edge20_Node000002_Node000008"><a xlink:title=" ">
<path fill="none" stroke="#63b8ff" d="M214.96,-329.22C224.8,-321.54 235.4,-311.48 242,-300 274.93,-242.69 277.35,-159.61 277.19,-132.17"/>
<polygon fill="#63b8ff" stroke="#63b8ff" points="213.16,-326.2 207.15,-334.93 217.29,-331.86 213.16,-326.2"/>
</a>
</g>
</g>
<!-- Node9 -->
<g id="Node000009" class="node">
<title>Node9</title>
<g id="a_Node000009"><a xlink:href="_w_x_manager_8h.html" target="_top" xlink:title=" ">
<polygon fill="white" stroke="#666666" points="153.38,-76 58.62,-76 58.62,-56 153.38,-56 153.38,-76"/>
<text text-anchor="middle" x="106" y="-62.5" font-family="Helvetica,sans-Serif" font-size="10.00">src/WXManager.h</text>
</a>
</g>
</g>
<!-- Node2&#45;&gt;Node9 -->
<g id="edge19_Node000002_Node000009" class="edge">
<title>Node2&#45;&gt;Node9</title>
<g id="a_edge19_Node000002_Node000009"><a xlink:title=" ">
<path fill="none" stroke="#63b8ff" d="M142.05,-332.1C97.29,-316.99 38,-287.13 38,-235 38,-235 38,-235 38,-177 38,-146.9 41.11,-137.56 57,-112 66.15,-97.29 81.4,-84.37 92.46,-76.19"/>
<polygon fill="#63b8ff" stroke="#63b8ff" points="140.75,-335.36 151.35,-335.08 142.89,-328.69 140.75,-335.36"/>
</a>
</g>
</g>
<!-- Node5 -->
<g id="Node000005" class="node">
<title>Node5</title>
<g id="a_Node000005"><a xlink:href="_activity_8h.html" target="_top" xlink:title=" ">
<polygon fill="white" stroke="#666666" points="232.5,-244 159.5,-244 159.5,-224 232.5,-224 232.5,-244"/>
<text text-anchor="middle" x="196" y="-230.5" font-family="Helvetica,sans-Serif" font-size="10.00">src/Activity.h</text>
</a>
</g>
</g>
<!-- Node4&#45;&gt;Node5 -->
<g id="edge4_Node000004_Node000005" class="edge">
<title>Node4&#45;&gt;Node5</title>
<g id="a_edge4_Node000004_Node000005"><a xlink:title=" ">
<path fill="none" stroke="#63b8ff" d="M304.43,-275.66C278.62,-265.98 244.33,-253.12 221.28,-244.48"/>
<polygon fill="#63b8ff" stroke="#63b8ff" points="302.91,-278.83 313.5,-279.06 305.37,-272.27 302.91,-278.83"/>
</a>
</g>
</g>
<!-- Node13 -->
<g id="Node000013" class="node">
<title>Node13</title>
<g id="a_Node000013"><a xlink:href="_interactions_8cpp.html" target="_top" xlink:title=" ">
<polygon fill="white" stroke="#666666" points="391.12,-244 288.88,-244 288.88,-224 391.12,-224 391.12,-244"/>
<text text-anchor="middle" x="340" y="-230.5" font-family="Helvetica,sans-Serif" font-size="10.00">src/Interactions.cpp</text>
</a>
</g>
</g>
<!-- Node4&#45;&gt;Node13 -->
<g id="edge12_Node000004_Node000013" class="edge">
<title>Node4&#45;&gt;Node13</title>
<g id="a_edge12_Node000004_Node000013"><a xlink:title=" ">
<path fill="none" stroke="#63b8ff" d="M340,-268.13C340,-259.9 340,-250.85 340,-244.3"/>
<polygon fill="#63b8ff" stroke="#63b8ff" points="336.5,-268.08 340,-278.08 343.5,-268.08 336.5,-268.08"/>
</a>
</g>
</g>
<!-- Node14 -->
<g id="Node000014" class="node">
<title>Node14</title>
<g id="a_Node000014"><a xlink:href="_interpretor_8h.html" target="_top" xlink:title=" ">
<polygon fill="white" stroke="#666666" points="555.5,-244 470.5,-244 470.5,-224 555.5,-224 555.5,-244"/>
<text text-anchor="middle" x="513" y="-230.5" font-family="Helvetica,sans-Serif" font-size="10.00">src/Interpretor.h</text>
</a>
</g>
</g>
<!-- Node4&#45;&gt;Node14 -->
<g id="edge13_Node000004_Node000014" class="edge">
<title>Node4&#45;&gt;Node14</title>
<g id="a_edge13_Node000004_Node000014"><a xlink:title=" ">
<path fill="none" stroke="#63b8ff" d="M381.08,-276.18C412.26,-266.44 454.44,-253.28 482.63,-244.48"/>
<polygon fill="#63b8ff" stroke="#63b8ff" points="380.08,-272.82 371.58,-279.14 382.17,-279.5 380.08,-272.82"/>
</a>
</g>
</g>
<!-- Node6 -->
<g id="Node000006" class="node">
<title>Node6</title>
<g id="a_Node000006"><a xlink:href="_activities_8h.html" target="_top" xlink:title=" ">
<polygon fill="white" stroke="#666666" points="147.62,-188 66.38,-188 66.38,-168 147.62,-168 147.62,-188"/>
<text text-anchor="middle" x="107" y="-174.5" font-family="Helvetica,sans-Serif" font-size="10.00">src/Activities.h</text>
</a>
</g>
</g>
<!-- Node5&#45;&gt;Node6 -->
<g id="edge5_Node000005_Node000006" class="edge">
<title>Node5&#45;&gt;Node6</title>
<g id="a_edge5_Node000005_Node000006"><a xlink:title=" ">
<path fill="none" stroke="#63b8ff" d="M170.97,-217.81C155.44,-208.39 135.98,-196.58 122.62,-188.48"/>
<polygon fill="#63b8ff" stroke="#63b8ff" points="168.84,-220.61 179.2,-222.81 172.47,-214.63 168.84,-220.61"/>
</a>
</g>
</g>
<!-- Node12 -->
<g id="Node000012" class="node">
<title>Node12</title>
<g id="a_Node000012"><a xlink:href="_activity_8cpp.html" target="_top" xlink:title=" ">
<polygon fill="white" stroke="#666666" points="248.75,-188 165.25,-188 165.25,-168 248.75,-168 248.75,-188"/>
<text text-anchor="middle" x="207" y="-174.5" font-family="Helvetica,sans-Serif" font-size="10.00">src/Activity.cpp</text>
</a>
</g>
</g>
<!-- Node5&#45;&gt;Node12 -->
<g id="edge11_Node000005_Node000012" class="edge">
<title>Node5&#45;&gt;Node12</title>
<g id="a_edge11_Node000005_Node000012"><a xlink:title=" ">
<path fill="none" stroke="#63b8ff" d="M200.19,-212.43C201.89,-204.11 203.75,-194.93 205.11,-188.3"/>
<polygon fill="#63b8ff" stroke="#63b8ff" points="196.78,-211.61 198.22,-222.11 203.64,-213.01 196.78,-211.61"/>
</a>
</g>
</g>
<!-- Node7 -->
<g id="Node000007" class="node">
<title>Node7</title>
<g id="a_Node000007"><a xlink:href="_activities_8cpp.html" target="_top" xlink:title=" ">
<polygon fill="white" stroke="#666666" points="157.88,-132 66.12,-132 66.12,-112 157.88,-112 157.88,-132"/>
<text text-anchor="middle" x="112" y="-118.5" font-family="Helvetica,sans-Serif" font-size="10.00">src/Activities.cpp</text>
</a>
</g>
</g>
<!-- Node6&#45;&gt;Node7 -->
<g id="edge6_Node000006_Node000007" class="edge">
<title>Node6&#45;&gt;Node7</title>
<g id="a_edge6_Node000006_Node000007"><a xlink:title=" ">
<path fill="none" stroke="#63b8ff" d="M108.93,-156.13C109.69,-147.9 110.53,-138.85 111.14,-132.3"/>
<polygon fill="#63b8ff" stroke="#63b8ff" points="105.45,-155.81 108.01,-166.09 112.42,-156.45 105.45,-155.81"/>
</a>
</g>
</g>
<!-- Node6&#45;&gt;Node8 -->
<g id="edge7_Node000006_Node000008" class="edge">
<title>Node6&#45;&gt;Node8</title>
<g id="a_edge7_Node000006_Node000008"><a xlink:title=" ">
<path fill="none" stroke="#63b8ff" d="M147.37,-164.18C178.01,-154.44 219.46,-141.28 247.16,-132.48"/>
<polygon fill="#63b8ff" stroke="#63b8ff" points="146.53,-160.77 138.05,-167.14 148.64,-167.44 146.53,-160.77"/>
</a>
</g>
</g>
<!-- Node8&#45;&gt;Node9 -->
<g id="edge8_Node000008_Node000009" class="edge">
<title>Node8&#45;&gt;Node9</title>
<g id="a_edge8_Node000008_Node000009"><a xlink:title=" ">
<path fill="none" stroke="#63b8ff" d="M236.4,-108.18C205.57,-98.44 163.88,-85.28 136.02,-76.48"/>
<polygon fill="#63b8ff" stroke="#63b8ff" points="235.18,-111.46 245.77,-111.14 237.29,-104.79 235.18,-111.46"/>
</a>
</g>
</g>
<!-- Node11 -->
<g id="Node000011" class="node">
<title>Node11</title>
<g id="a_Node000011"><a xlink:href="game_8cpp.html" target="_top" xlink:title=" ">
<polygon fill="white" stroke="#666666" points="314.62,-76 239.38,-76 239.38,-56 314.62,-56 314.62,-76"/>
<text text-anchor="middle" x="277" y="-62.5" font-family="Helvetica,sans-Serif" font-size="10.00">src/game.cpp</text>
</a>
</g>
</g>
<!-- Node8&#45;&gt;Node11 -->
<g id="edge10_Node000008_Node000011" class="edge">
<title>Node8&#45;&gt;Node11</title>
<g id="a_edge10_Node000008_Node000011"><a xlink:title=" ">
<path fill="none" stroke="#63b8ff" d="M277,-100.13C277,-91.9 277,-82.85 277,-76.3"/>
<polygon fill="#63b8ff" stroke="#63b8ff" points="273.5,-100.08 277,-110.08 280.5,-100.08 273.5,-100.08"/>
</a>
</g>
</g>
<!-- Node10 -->
<g id="Node000010" class="node">
<title>Node10</title>
<g id="a_Node000010"><a xlink:href="_w_x_manager_8cpp.html" target="_top" xlink:title=" ">
<polygon fill="white" stroke="#666666" points="158.62,-20 53.38,-20 53.38,0 158.62,0 158.62,-20"/>
<text text-anchor="middle" x="106" y="-6.5" font-family="Helvetica,sans-Serif" font-size="10.00">src/WXManager.cpp</text>
</a>
</g>
</g>
<!-- Node9&#45;&gt;Node10 -->
<g id="edge9_Node000009_Node000010" class="edge">
<title>Node9&#45;&gt;Node10</title>
<g id="a_edge9_Node000009_Node000010"><a xlink:title=" ">
<path fill="none" stroke="#63b8ff" d="M106,-44.13C106,-35.9 106,-26.85 106,-20.3"/>
<polygon fill="#63b8ff" stroke="#63b8ff" points="102.5,-44.08 106,-54.08 109.5,-44.08 102.5,-44.08"/>
</a>
</g>
</g>
<!-- Node14&#45;&gt;Node8 -->
<g id="edge18_Node000014_Node000008" class="edge">
<title>Node14&#45;&gt;Node8</title>
<g id="a_edge18_Node000014_Node000008"><a xlink:title=" ">
<path fill="none" stroke="#63b8ff" d="M494.77,-216.37C477.99,-201.83 451.85,-181.05 426,-168 388.13,-148.88 340.67,-136.29 309.62,-129.41"/>
<polygon fill="#63b8ff" stroke="#63b8ff" points="492.13,-218.71 501.94,-222.72 496.77,-213.47 492.13,-218.71"/>
</a>
</g>
</g>
<!-- Node15 -->
<g id="Node000015" class="node">
<title>Node15</title>
<g id="a_Node000015"><a xlink:href="_interpretor_8cpp.html" target="_top" xlink:title=" ">
<polygon fill="white" stroke="#666666" points="673.75,-188 578.25,-188 578.25,-168 673.75,-168 673.75,-188"/>
<text text-anchor="middle" x="626" y="-174.5" font-family="Helvetica,sans-Serif" font-size="10.00">src/Interpretor.cpp</text>
</a>
</g>
</g>
<!-- Node14&#45;&gt;Node15 -->
<g id="edge14_Node000014_Node000015" class="edge">
<title>Node14&#45;&gt;Node15</title>
<g id="a_edge14_Node000014_Node000015"><a xlink:title=" ">
<path fill="none" stroke="#63b8ff" d="M542.83,-218.75C562.84,-209.18 588.64,-196.85 606.16,-188.48"/>
<polygon fill="#63b8ff" stroke="#63b8ff" points="541.56,-215.47 534.05,-222.94 544.58,-221.79 541.56,-215.47"/>
</a>
</g>
</g>
<!-- Node16 -->
<g id="Node000016" class="node">
<title>Node16</title>
<g id="a_Node000016"><a xlink:href="_my_frame_8h.html" target="_top" xlink:title=" ">
<polygon fill="white" stroke="#666666" points="560,-188 478,-188 478,-168 560,-168 560,-188"/>
<text text-anchor="middle" x="519" y="-174.5" font-family="Helvetica,sans-Serif" font-size="10.00">src/MyFrame.h</text>
</a>
</g>
</g>
<!-- Node14&#45;&gt;Node16 -->
<g id="edge15_Node000014_Node000016" class="edge">
<title>Node14&#45;&gt;Node16</title>
<g id="a_edge15_Node000014_Node000016"><a xlink:title=" ">
<path fill="none" stroke="#63b8ff" d="M515.29,-212.43C516.21,-204.11 517.23,-194.93 517.97,-188.3"/>
<polygon fill="#63b8ff" stroke="#63b8ff" points="511.84,-211.76 514.21,-222.09 518.8,-212.54 511.84,-211.76"/>
</a>
</g>
</g>
<!-- Node16&#45;&gt;Node9 -->
<g id="edge17_Node000016_Node000009" class="edge">
<title>Node16&#45;&gt;Node9</title>
<g id="a_edge17_Node000016_Node000009"><a xlink:title=" ">
<path fill="none" stroke="#63b8ff" d="M482.09,-163.79C442.03,-149.75 376.01,-127.49 318,-112 262.02,-97.05 196.67,-83.8 153.49,-75.62"/>
<polygon fill="#63b8ff" stroke="#63b8ff" points="480.9,-167.08 491.49,-167.1 483.22,-160.48 480.9,-167.08"/>
</a>
</g>
</g>
<!-- Node17 -->
<g id="Node000017" class="node">
<title>Node17</title>
<g id="a_Node000017"><a xlink:href="_my_frame_8cpp.html" target="_top" xlink:title=" ">
<polygon fill="white" stroke="#666666" points="565.25,-132 472.75,-132 472.75,-112 565.25,-112 565.25,-132"/>
<text text-anchor="middle" x="519" y="-118.5" font-family="Helvetica,sans-Serif" font-size="10.00">src/MyFrame.cpp</text>
</a>
</g>
</g>
<!-- Node16&#45;&gt;Node17 -->
<g id="edge16_Node000016_Node000017" class="edge">
<title>Node16&#45;&gt;Node17</title>
<g id="a_edge16_Node000016_Node000017"><a xlink:title=" ">
<path fill="none" stroke="#63b8ff" d="M519,-156.13C519,-147.9 519,-138.85 519,-132.3"/>
<polygon fill="#63b8ff" stroke="#63b8ff" points="515.5,-156.08 519,-166.08 522.5,-156.08 515.5,-156.08"/>
</a>
</g>
</g>
<!-- Node19 -->
<g id="Node000019" class="node">
<title>Node19</title>
<g id="a_Node000019"><a xlink:href="_blue_stacks_8h.html" target="_top" xlink:title=" ">
<polygon fill="white" stroke="#666666" points="352.5,-412 261.5,-412 261.5,-392 352.5,-392 352.5,-412"/>
<text text-anchor="middle" x="307" y="-398.5" font-family="Helvetica,sans-Serif" font-size="10.00">src/BlueStacks.h</text>
</a>
</g>
</g>
<!-- Node18&#45;&gt;Node19 -->
<g id="edge22_Node000018_Node000019" class="edge">
<title>Node18&#45;&gt;Node19</title>
<g id="a_edge22_Node000018_Node000019"><a xlink:title=" ">
<path fill="none" stroke="#63b8ff" d="M200.42,-443.53C225.83,-433.87 259.44,-421.08 282.07,-412.48"/>
<polygon fill="#63b8ff" stroke="#63b8ff" points="199.25,-440.23 191.15,-447.06 201.74,-446.77 199.25,-440.23"/>
</a>
</g>
</g>
<!-- Node21 -->
<g id="Node000021" class="node">
<title>Node21</title>
<g id="a_Node000021"><a xlink:href="_emulator_8cpp.html" target="_top" xlink:title=" ">
<polygon fill="white" stroke="#666666" points="205.12,-412 114.88,-412 114.88,-392 205.12,-392 205.12,-412"/>
<text text-anchor="middle" x="160" y="-398.5" font-family="Helvetica,sans-Serif" font-size="10.00">src/Emulator.cpp</text>
</a>
</g>
</g>
<!-- Node18&#45;&gt;Node21 -->
<g id="edge25_Node000018_Node000021" class="edge">
<title>Node18&#45;&gt;Node21</title>
<g id="a_edge25_Node000018_Node000021"><a xlink:title=" ">
<path fill="none" stroke="#63b8ff" d="M163.07,-436.13C162.31,-427.9 161.47,-418.85 160.86,-412.3"/>
<polygon fill="#63b8ff" stroke="#63b8ff" points="159.58,-436.45 163.99,-446.09 166.55,-435.81 159.58,-436.45"/>
</a>
</g>
</g>
<!-- Node22 -->
<g id="Node000022" class="node">
<title>Node22</title>
<g id="a_Node000022"><a xlink:href="_l_d_player_8h.html" target="_top" xlink:title=" ">
<polygon fill="white" stroke="#666666" points="96.62,-412 15.38,-412 15.38,-392 96.62,-392 96.62,-412"/>
<text text-anchor="middle" x="56" y="-398.5" font-family="Helvetica,sans-Serif" font-size="10.00">src/LDPlayer.h</text>
</a>
</g>
</g>
<!-- Node18&#45;&gt;Node22 -->
<g id="edge26_Node000018_Node000022" class="edge">
<title>Node18&#45;&gt;Node22</title>
<g id="a_edge26_Node000018_Node000022"><a xlink:title=" ">
<path fill="none" stroke="#63b8ff" d="M135.96,-442.61C116.7,-433.07 91.96,-420.81 75.13,-412.48"/>
<polygon fill="#63b8ff" stroke="#63b8ff" points="134.14,-445.62 144.66,-446.92 137.25,-439.35 134.14,-445.62"/>
</a>
</g>
</g>
<!-- Node19&#45;&gt;Node2 -->
<g id="edge24_Node000019_Node000002" class="edge">
<title>Node19&#45;&gt;Node2</title>
<g id="a_edge24_Node000019_Node000002"><a xlink:title=" ">
<path fill="none" stroke="#63b8ff" d="M276.38,-386.75C255.84,-377.18 229.35,-364.85 211.36,-356.48"/>
<polygon fill="#63b8ff" stroke="#63b8ff" points="274.88,-389.91 285.42,-390.96 277.83,-383.56 274.88,-389.91"/>
</a>
</g>
</g>
<!-- Node20 -->
<g id="Node000020" class="node">
<title>Node20</title>
<g id="a_Node000020"><a xlink:href="_blue_stacks_8cpp.html" target="_top" xlink:title=" ">
<polygon fill="white" stroke="#666666" points="352.75,-356 251.25,-356 251.25,-336 352.75,-336 352.75,-356"/>
<text text-anchor="middle" x="302" y="-342.5" font-family="Helvetica,sans-Serif" font-size="10.00">src/BlueStacks.cpp</text>
</a>
</g>
</g>
<!-- Node19&#45;&gt;Node20 -->
<g id="edge23_Node000019_Node000020" class="edge">
<title>Node19&#45;&gt;Node20</title>
<g id="a_edge23_Node000019_Node000020"><a xlink:title=" ">
<path fill="none" stroke="#63b8ff" d="M305.07,-380.13C304.31,-371.9 303.47,-362.85 302.86,-356.3"/>
<polygon fill="#63b8ff" stroke="#63b8ff" points="301.58,-380.45 305.99,-390.09 308.55,-379.81 301.58,-380.45"/>
</a>
</g>
</g>
<!-- Node22&#45;&gt;Node2 -->
<g id="edge27_Node000022_Node000002" class="edge">
<title>Node22&#45;&gt;Node2</title>
<g id="a_edge27_Node000022_Node000002"><a xlink:title=" ">
<path fill="none" stroke="#63b8ff" d="M90,-387.4C114.12,-377.75 145.89,-365.05 167.3,-356.48"/>
<polygon fill="#63b8ff" stroke="#63b8ff" points="88.91,-384.07 80.92,-391.03 91.51,-390.57 88.91,-384.07"/>
</a>
</g>
</g>
<!-- Node22&#45;&gt;Node9 -->
<g id="edge29_Node000022_Node000009" class="edge">
<title>Node22&#45;&gt;Node9</title>
<g id="a_edge29_Node000022_Node000009"><a xlink:title=" ">
<path fill="none" stroke="#63b8ff" d="M38.83,-383.53C31.86,-375.65 24.23,-365.9 19,-356 4.93,-329.39 0,-321.1 0,-291 0,-291 0,-291 0,-177 0,-127.94 55.36,-92.34 86.06,-76.37"/>
<polygon fill="#63b8ff" stroke="#63b8ff" points="36.13,-385.77 45.5,-390.71 41.25,-381 36.13,-385.77"/>
</a>
</g>
</g>
<!-- Node23 -->
<g id="Node000023" class="node">
<title>Node23</title>
<g id="a_Node000023"><a xlink:href="_l_d_player_8cpp.html" target="_top" xlink:title=" ">
<polygon fill="white" stroke="#666666" points="119.88,-356 28.12,-356 28.12,-336 119.88,-336 119.88,-356"/>
<text text-anchor="middle" x="74" y="-342.5" font-family="Helvetica,sans-Serif" font-size="10.00">src/LDPlayer.cpp</text>
</a>
</g>
</g>
<!-- Node22&#45;&gt;Node23 -->
<g id="edge28_Node000022_Node000023" class="edge">
<title>Node22&#45;&gt;Node23</title>
<g id="a_edge28_Node000022_Node000023"><a xlink:title=" ">
<path fill="none" stroke="#63b8ff" d="M62.76,-380.71C65.56,-372.32 68.66,-363.01 70.9,-356.3"/>
<polygon fill="#63b8ff" stroke="#63b8ff" points="59.46,-379.56 59.61,-390.16 66.1,-381.78 59.46,-379.56"/>
</a>
</g>
</g>
<!-- Node26 -->
<g id="Node000026" class="node">
<title>Node26</title>
<g id="a_Node000026"><a xlink:href="_lexer_8h.html" target="_top" xlink:title=" ">
<polygon fill="white" stroke="#666666" points="599.38,-468 534.62,-468 534.62,-448 599.38,-448 599.38,-468"/>
<text text-anchor="middle" x="567" y="-454.5" font-family="Helvetica,sans-Serif" font-size="10.00">src/Lexer.h</text>
</a>
</g>
</g>
<!-- Node25&#45;&gt;Node26 -->
<g id="edge32_Node000025_Node000026" class="edge">
<title>Node25&#45;&gt;Node26</title>
<g id="a_edge32_Node000025_Node000026"><a xlink:title=" ">
<path fill="none" stroke="#63b8ff" d="M531.11,-495.57C540.01,-486.5 550.53,-475.78 557.87,-468.3"/>
<polygon fill="#63b8ff" stroke="#63b8ff" points="528.8,-492.93 524.29,-502.51 533.79,-497.83 528.8,-492.93"/>
</a>
</g>
</g>
<!-- Node28 -->
<g id="Node000028" class="node">
<title>Node28</title>
<g id="a_Node000028"><a xlink:href="_token_8cpp.html" target="_top" xlink:title=" ">
<polygon fill="white" stroke="#666666" points="694.75,-468 617.25,-468 617.25,-448 694.75,-448 694.75,-468"/>
<text text-anchor="middle" x="656" y="-454.5" font-family="Helvetica,sans-Serif" font-size="10.00">src/Token.cpp</text>
</a>
</g>
</g>
<!-- Node25&#45;&gt;Node28 -->
<g id="edge35_Node000025_Node000028" class="edge">
<title>Node25&#45;&gt;Node28</title>
<g id="a_edge35_Node000025_Node000028"><a xlink:title=" ">
<path fill="none" stroke="#63b8ff" d="M549.42,-499.53C574.83,-489.87 608.44,-477.08 631.07,-468.48"/>
<polygon fill="#63b8ff" stroke="#63b8ff" points="548.25,-496.23 540.15,-503.06 550.74,-502.77 548.25,-496.23"/>
</a>
</g>
</g>
<!-- Node26&#45;&gt;Node14 -->
<g id="edge33_Node000026_Node000014" class="edge">
<title>Node26&#45;&gt;Node14</title>
<g id="a_edge33_Node000026_Node000014"><a xlink:title=" ">
<path fill="none" stroke="#63b8ff" d="M549.46,-439.22C542.87,-431.48 536.01,-421.92 532,-412 507.69,-351.82 510.48,-271.27 512.26,-244.26"/>
<polygon fill="#63b8ff" stroke="#63b8ff" points="546.81,-441.51 556.13,-446.54 551.98,-436.79 546.81,-441.51"/>
</a>
</g>
</g>
<!-- Node27 -->
<g id="Node000027" class="node">
<title>Node27</title>
<g id="a_Node000027"><a xlink:href="_lexer_8cpp.html" target="_top" xlink:title=" ">
<polygon fill="white" stroke="#666666" points="616.62,-412 541.38,-412 541.38,-392 616.62,-392 616.62,-412"/>
<text text-anchor="middle" x="579" y="-398.5" font-family="Helvetica,sans-Serif" font-size="10.00">src/Lexer.cpp</text>
</a>
</g>
</g>
<!-- Node26&#45;&gt;Node27 -->
<g id="edge34_Node000026_Node000027" class="edge">
<title>Node26&#45;&gt;Node27</title>
<g id="a_edge34_Node000026_Node000027"><a xlink:title=" ">
<path fill="none" stroke="#63b8ff" d="M571.57,-436.43C573.42,-428.11 575.46,-418.93 576.93,-412.3"/>
<polygon fill="#63b8ff" stroke="#63b8ff" points="568.17,-435.6 569.42,-446.12 575,-437.11 568.17,-435.6"/>
</a>
</g>
</g>
<!-- Node29&#45;&gt;Node4 -->
<g id="edge39_Node000029_Node000004" class="edge">
<title>Node29&#45;&gt;Node4</title>
<g id="a_edge39_Node000029_Node000004"><a xlink:title=" ">
<path fill="none" stroke="#63b8ff" d="M381.08,-492.12C380.7,-458.55 377.8,-390.79 362,-336 358.24,-322.97 350.89,-309.11 345.73,-300.27"/>
<polygon fill="#63b8ff" stroke="#63b8ff" points="377.58,-492.07 381.12,-502.05 384.58,-492.04 377.58,-492.07"/>
</a>
</g>
</g>
<!-- Node29&#45;&gt;Node8 -->
<g id="edge41_Node000029_Node000008" class="edge">
<title>Node29&#45;&gt;Node8</title>
<g id="a_edge41_Node000029_Node000008"><a xlink:title=" ">
<path fill="none" stroke="#63b8ff" d="M392.1,-493.6C403.32,-472.15 419,-436.23 419,-403 419,-403 419,-403 419,-289 419,-258.9 416.59,-249.11 400,-224 371.97,-181.58 320.69,-147.96 294.07,-132.41"/>
<polygon fill="#63b8ff" stroke="#63b8ff" points="389.06,-491.88 387.33,-502.34 395.2,-495.24 389.06,-491.88"/>
</a>
</g>
</g>
<!-- Node29&#45;&gt;Node18 -->
<g id="edge38_Node000029_Node000018" class="edge">
<title>Node29&#45;&gt;Node18</title>
<g id="a_edge38_Node000029_Node000018"><a xlink:title=" ">
<path fill="none" stroke="#63b8ff" d="M339.88,-502.72C300.35,-492.84 241.12,-478.03 202.76,-468.44"/>
<polygon fill="#63b8ff" stroke="#63b8ff" points="338.95,-506.09 349.5,-505.12 340.65,-499.3 338.95,-506.09"/>
</a>
</g>
</g>
<!-- Node29&#45;&gt;Node19 -->
<g id="edge37_Node000029_Node000019" class="edge">
<title>Node29&#45;&gt;Node19</title>
<g id="a_edge37_Node000029_Node000019"><a xlink:title=" ">
<path fill="none" stroke="#63b8ff" d="M368.4,-494.27C352.41,-470.5 325.46,-430.44 313.29,-412.35"/>
<polygon fill="#63b8ff" stroke="#63b8ff" points="365.36,-496.02 373.85,-502.37 371.17,-492.11 365.36,-496.02"/>
</a>
</g>
</g>
<!-- Node30 -->
<g id="Node000030" class="node">
<title>Node30</title>
<g id="a_Node000030"><a xlink:href="fadb_8cpp.html" target="_top" xlink:title=" ">
<polygon fill="white" stroke="#666666" points="517,-468 447,-468 447,-448 517,-448 517,-468"/>
<text text-anchor="middle" x="482" y="-454.5" font-family="Helvetica,sans-Serif" font-size="10.00">src/fadb.cpp</text>
</a>
</g>
</g>
<!-- Node29&#45;&gt;Node30 -->
<g id="edge40_Node000029_Node000030" class="edge">
<title>Node29&#45;&gt;Node30</title>
<g id="a_edge40_Node000029_Node000030"><a xlink:title=" ">
<path fill="none" stroke="#63b8ff" d="M408.41,-498.35C426.18,-488.84 448.83,-476.74 464.27,-468.48"/>
<polygon fill="#63b8ff" stroke="#63b8ff" points="407.1,-495.08 399.93,-502.88 410.4,-501.25 407.1,-495.08"/>
</a>
</g>
</g>
</g>
</svg>
