<?xml version="1.0" encoding="UTF-8" standalone="no"?>
<!DOCTYPE svg PUBLIC "-//W3C//DTD SVG 1.1//EN"
 "http://www.w3.org/Graphics/SVG/1.1/DTD/svg11.dtd">
<!-- Generated by graphviz version 12.2.0 (20241103.1931)
 -->
<!-- Title: src/Token.h Pages: 1 -->
<!--zoomable 196 -->

<svg id="main" version="1.1" xmlns="http://www.w3.org/2000/svg" xmlns:xlink="http://www.w3.org/1999/xlink" xml:space="preserve" onload="init(evt)">

<style type="text/css"><![CDATA[
.node, .edge {opacity: 0.7;}
.node.selected, .edge.selected {opacity: 1;}
.edge:hover path { stroke: red; }
.edge:hover polygon { stroke: red; fill: red; }
]]></style>

<defs>
  <circle id="rim" cx="0" cy="0" r="7"/>
  <circle id="rim2" cx="0" cy="0" r="3.5"/>
  <g id="zoomPlus">
    <use xlink:href="#rim" fill="#404040"><set attributeName="fill" to="#808080" begin="zoomplus.mouseover" end="zoomplus.mouseout"/></use>
    <path d="M-4,0h8M0,-4v8" fill="none" stroke="white" stroke-width="1.5" pointer-events="none"/>
  </g>
  <g id="zoomMin">
    <use xlink:href="#rim" fill="#404040"><set attributeName="fill" to="#808080" begin="zoomminus.mouseover" end="zoomminus.mouseout"/></use>
    <path d="M-4,0h8" fill="none" stroke="white" stroke-width="1.5" pointer-events="none"/>
  </g>
  <g id="arrowUp" transform="translate(30 24)">
    <use xlink:href="#rim"/>
    <path pointer-events="none" fill="none" stroke="white" stroke-width="1.5" d="M0,-3.0v7 M-2.5,-0.5L0,-3.0L2.5,-0.5"/>
  </g>
  <g id="arrowRight" transform="rotate(90) translate(36 -43)">
    <use xlink:href="#rim"/>
    <path pointer-events="none" fill="none" stroke="white" stroke-width="1.5" d="M0,-3.0v7 M-2.5,-0.5L0,-3.0L2.5,-0.5"/>
  </g>
  <g id="arrowDown" transform="rotate(180) translate(-30 -48)">
    <use xlink:href="#rim"/>
    <path pointer-events="none" fill="none" stroke="white" stroke-width="1.5" d="M0,-3.0v7 M-2.5,-0.5L0,-3.0L2.5,-0.5"/>
  </g>
  <g id="arrowLeft" transform="rotate(270) translate(-36 17)">
    <use xlink:href="#rim"/>
    <path pointer-events="none" fill="none" stroke="white" stroke-width="1.5" d="M0,-3.0v7 M-2.5,-0.5L0,-3.0L2.5,-0.5"/>
  </g>
  <g id="resetDef">
    <use xlink:href="#rim2" fill="#404040"><set attributeName="fill" to="#808080" begin="reset.mouseover" end="reset.mouseout"/></use>
  </g>
</defs>
<script type="application/ecmascript">
var viewWidth = 745;
var viewHeight = 196;
var sectionId = 'dynsection-0';
</script>
<script type="application/ecmascript" xlink:href="svg.min.js"/>
<svg id="graph" class="graph">
<g id="viewport">
<title>src/Token.h</title>
<!-- Node1 -->
<g id="Node000001" class="node">
<title>Node1</title>
<g id="a_Node000001"><a xlink:title=" ">
<polygon fill="#999999" stroke="#666666" points="304,-188 237,-188 237,-168 304,-168 304,-188"/>
<text text-anchor="middle" x="270.5" y="-174.5" font-family="Helvetica,sans-Serif" font-size="10.00">src/Token.h</text>
</a>
</g>
</g>
<!-- Node2 -->
<g id="Node000002" class="node">
<title>Node2</title>
<g id="a_Node000002"><a xlink:title=" ">
<polygon fill="#e0e0e0" stroke="#999999" points="260.25,-20 206.75,-20 206.75,0 260.25,0 260.25,-20"/>
<text text-anchor="middle" x="233.5" y="-6.5" font-family="Helvetica,sans-Serif" font-size="10.00">iostream</text>
</a>
</g>
</g>
<!-- Node1&#45;&gt;Node2 -->
<g id="edge1_Node000001_Node000002" class="edge">
<title>Node1&#45;&gt;Node2</title>
<g id="a_edge1_Node000001_Node000002"><a xlink:title=" ">
<path fill="none" stroke="#63b8ff" d="M268.4,-167.6C262.58,-141.46 246.09,-67.48 238.04,-31.36"/>
<polygon fill="#63b8ff" stroke="#63b8ff" points="241.49,-30.77 235.9,-21.77 234.66,-32.3 241.49,-30.77"/>
</a>
</g>
</g>
<!-- Node3 -->
<g id="Node000003" class="node">
<title>Node3</title>
<g id="a_Node000003"><a xlink:title=" ">
<polygon fill="#e0e0e0" stroke="#999999" points="49,-20 0,-20 0,0 49,0 49,-20"/>
<text text-anchor="middle" x="24.5" y="-6.5" font-family="Helvetica,sans-Serif" font-size="10.00">fstream</text>
</a>
</g>
</g>
<!-- Node1&#45;&gt;Node3 -->
<g id="edge2_Node000001_Node000003" class="edge">
<title>Node1&#45;&gt;Node3</title>
<g id="a_edge2_Node000001_Node000003"><a xlink:title=" ">
<path fill="none" stroke="#63b8ff" d="M236.73,-172.01C205.97,-166.23 160.31,-154.47 126.5,-132 85.68,-104.86 52.21,-56.78 35.68,-30.13"/>
<polygon fill="#63b8ff" stroke="#63b8ff" points="38.78,-28.49 30.61,-21.74 32.79,-32.11 38.78,-28.49"/>
</a>
</g>
</g>
<!-- Node4 -->
<g id="Node000004" class="node">
<title>Node4</title>
<g id="a_Node000004"><a xlink:title=" ">
<polygon fill="#e0e0e0" stroke="#999999" points="109.5,-20 69.5,-20 69.5,0 109.5,0 109.5,-20"/>
<text text-anchor="middle" x="89.5" y="-6.5" font-family="Helvetica,sans-Serif" font-size="10.00">string</text>
</a>
</g>
</g>
<!-- Node1&#45;&gt;Node4 -->
<g id="edge3_Node000001_Node000004" class="edge">
<title>Node1&#45;&gt;Node4</title>
<g id="a_edge3_Node000001_Node000004"><a xlink:title=" ">
<path fill="none" stroke="#63b8ff" d="M236.81,-167.67C196.13,-154.49 129.13,-126.23 96.5,-76 87.98,-62.88 86.6,-45.05 87.15,-31.38"/>
<polygon fill="#63b8ff" stroke="#63b8ff" points="90.61,-32.01 87.92,-21.76 83.63,-31.45 90.61,-32.01"/>
</a>
</g>
</g>
<!-- Node5 -->
<g id="Node000005" class="node">
<title>Node5</title>
<g id="a_Node000005"><a xlink:title=" ">
<polygon fill="#e0e0e0" stroke="#999999" points="565,-20 522,-20 522,0 565,0 565,-20"/>
<text text-anchor="middle" x="543.5" y="-6.5" font-family="Helvetica,sans-Serif" font-size="10.00">vector</text>
</a>
</g>
</g>
<!-- Node1&#45;&gt;Node5 -->
<g id="edge4_Node000001_Node000005" class="edge">
<title>Node1&#45;&gt;Node5</title>
<g id="a_edge4_Node000001_Node000005"><a xlink:title=" ">
<path fill="none" stroke="#63b8ff" d="M304.2,-176.88C367.03,-174.61 501.05,-159.66 560.5,-76 570.19,-62.36 563.69,-43.6 556.09,-29.74"/>
<polygon fill="#63b8ff" stroke="#63b8ff" points="559.3,-28.27 551.11,-21.55 553.32,-31.91 559.3,-28.27"/>
</a>
</g>
</g>
<!-- Node6 -->
<g id="Node000006" class="node">
<title>Node6</title>
<g id="a_Node000006"><a xlink:title=" ">
<polygon fill="#e0e0e0" stroke="#999999" points="641.88,-132 607.12,-132 607.12,-112 641.88,-112 641.88,-132"/>
<text text-anchor="middle" x="624.5" y="-118.5" font-family="Helvetica,sans-Serif" font-size="10.00">map</text>
</a>
</g>
</g>
<!-- Node1&#45;&gt;Node6 -->
<g id="edge5_Node000001_Node000006" class="edge">
<title>Node1&#45;&gt;Node6</title>
<g id="a_edge5_Node000001_Node000006"><a xlink:title=" ">
<path fill="none" stroke="#63b8ff" d="M304.26,-173.92C363.34,-168.16 489.13,-154.3 593.5,-132 594.32,-131.82 595.15,-131.64 595.99,-131.44"/>
<polygon fill="#63b8ff" stroke="#63b8ff" points="596.66,-134.89 605.44,-128.97 594.88,-128.12 596.66,-134.89"/>
</a>
</g>
</g>
<!-- Node7 -->
<g id="Node000007" class="node">
<title>Node7</title>
<g id="a_Node000007"><a xlink:title=" ">
<polygon fill="#e0e0e0" stroke="#999999" points="737.25,-132 659.75,-132 659.75,-112 737.25,-112 737.25,-132"/>
<text text-anchor="middle" x="698.5" y="-118.5" font-family="Helvetica,sans-Serif" font-size="10.00">unordered_set</text>
</a>
</g>
</g>
<!-- Node1&#45;&gt;Node7 -->
<g id="edge6_Node000001_Node000007" class="edge">
<title>Node1&#45;&gt;Node7</title>
<g id="a_edge6_Node000001_Node000007"><a xlink:title=" ">
<path fill="none" stroke="#63b8ff" d="M304.41,-173.76C369.14,-167.41 515,-152.3 648.29,-132.24"/>
<polygon fill="#63b8ff" stroke="#63b8ff" points="648.65,-135.73 658.01,-130.77 647.6,-128.81 648.65,-135.73"/>
</a>
</g>
</g>
<!-- Node8 -->
<g id="Node000008" class="node">
<title>Node8</title>
<g id="a_Node000008"><a xlink:href="_tags_8h.html" target="_top" xlink:title=" ">
<polygon fill="white" stroke="#666666" points="357.12,-132 311.88,-132 311.88,-112 357.12,-112 357.12,-132"/>
<text text-anchor="middle" x="334.5" y="-118.5" font-family="Helvetica,sans-Serif" font-size="10.00">Tags.h</text>
</a>
</g>
</g>
<!-- Node1&#45;&gt;Node8 -->
<g id="edge7_Node000001_Node000008" class="edge">
<title>Node1&#45;&gt;Node8</title>
<g id="a_edge7_Node000001_Node000008"><a xlink:title=" ">
<path fill="none" stroke="#63b8ff" d="M281.65,-167.59C290.83,-159.85 304.05,-148.69 314.98,-139.47"/>
<polygon fill="#63b8ff" stroke="#63b8ff" points="316.94,-142.4 322.32,-133.27 312.42,-137.05 316.94,-142.4"/>
</a>
</g>
</g>
<!-- Node15 -->
<g id="Node000015" class="node">
<title>Node15</title>
<g id="a_Node000015"><a xlink:href="_text_manager_8h.html" target="_top" xlink:title=" ">
<polygon fill="white" stroke="#666666" points="204.75,-76 124.25,-76 124.25,-56 204.75,-56 204.75,-76"/>
<text text-anchor="middle" x="164.5" y="-62.5" font-family="Helvetica,sans-Serif" font-size="10.00">TextManager.h</text>
</a>
</g>
</g>
<!-- Node1&#45;&gt;Node15 -->
<g id="edge21_Node000001_Node000015" class="edge">
<title>Node1&#45;&gt;Node15</title>
<g id="a_edge21_Node000001_Node000015"><a xlink:title=" ">
<path fill="none" stroke="#63b8ff" d="M258.44,-167.51C247.57,-158.75 231.37,-145.13 218.5,-132 203.79,-116.99 188.64,-98.43 178.14,-84.99"/>
<polygon fill="#63b8ff" stroke="#63b8ff" points="181.19,-83.22 172.32,-77.43 175.65,-87.49 181.19,-83.22"/>
</a>
</g>
</g>
<!-- Node8&#45;&gt;Node2 -->
<g id="edge8_Node000008_Node000002" class="edge">
<title>Node8&#45;&gt;Node2</title>
<g id="a_edge8_Node000008_Node000002"><a xlink:title=" ">
<path fill="none" stroke="#63b8ff" d="M325.89,-111.62C309.04,-93.27 271.49,-52.37 249.8,-28.75"/>
<polygon fill="#63b8ff" stroke="#63b8ff" points="252.45,-26.47 243.11,-21.47 247.3,-31.2 252.45,-26.47"/>
</a>
</g>
</g>
<!-- Node8&#45;&gt;Node4 -->
<g id="edge9_Node000008_Node000004" class="edge">
<title>Node8&#45;&gt;Node4</title>
<g id="a_edge9_Node000008_Node000004"><a xlink:title=" ">
<path fill="none" stroke="#63b8ff" d="M311.55,-119.02C261.61,-114.29 145.2,-100.84 115.5,-76 102.1,-64.79 95.55,-45.68 92.38,-31.07"/>
<polygon fill="#63b8ff" stroke="#63b8ff" points="95.9,-30.85 90.71,-21.62 89.01,-32.08 95.9,-30.85"/>
</a>
</g>
</g>
<!-- Node8&#45;&gt;Node5 -->
<g id="edge10_Node000008_Node000005" class="edge">
<title>Node8&#45;&gt;Node5</title>
<g id="a_edge10_Node000008_Node000005"><a xlink:title=" ">
<path fill="none" stroke="#63b8ff" d="M357.41,-114.46C382.17,-106.92 422.39,-93.33 454.5,-76 480.07,-62.2 506.63,-41.9 524,-27.66"/>
<polygon fill="#63b8ff" stroke="#63b8ff" points="526.04,-30.52 531.48,-21.43 521.55,-25.14 526.04,-30.52"/>
</a>
</g>
</g>
<!-- Node9 -->
<g id="Node000009" class="node">
<title>Node9</title>
<g id="a_Node000009"><a xlink:href="_units_8h.html" target="_top" xlink:title=" ">
<polygon fill="white" stroke="#666666" points="384.25,-76 336.75,-76 336.75,-56 384.25,-56 384.25,-76"/>
<text text-anchor="middle" x="360.5" y="-62.5" font-family="Helvetica,sans-Serif" font-size="10.00">Units.h</text>
</a>
</g>
</g>
<!-- Node8&#45;&gt;Node9 -->
<g id="edge11_Node000008_Node000009" class="edge">
<title>Node8&#45;&gt;Node9</title>
<g id="a_edge11_Node000008_Node000009"><a xlink:title=" ">
<path fill="none" stroke="#63b8ff" d="M339.03,-111.59C342.35,-104.7 346.97,-95.1 351.08,-86.57"/>
<polygon fill="#63b8ff" stroke="#63b8ff" points="354.18,-88.19 355.37,-77.66 347.87,-85.15 354.18,-88.19"/>
</a>
</g>
</g>
<!-- Node11 -->
<g id="Node000011" class="node">
<title>Node11</title>
<g id="a_Node000011"><a xlink:title=" ">
<polygon fill="#e0e0e0" stroke="#999999" points="334.38,-20 278.62,-20 278.62,0 334.38,0 334.38,-20"/>
<text text-anchor="middle" x="306.5" y="-6.5" font-family="Helvetica,sans-Serif" font-size="10.00">algorithm</text>
</a>
</g>
</g>
<!-- Node8&#45;&gt;Node11 -->
<g id="edge20_Node000008_Node000011" class="edge">
<title>Node8&#45;&gt;Node11</title>
<g id="a_edge20_Node000008_Node000011"><a xlink:title=" ">
<path fill="none" stroke="#63b8ff" d="M332.11,-111.62C327.61,-93.92 317.76,-55.24 311.67,-31.32"/>
<polygon fill="#63b8ff" stroke="#63b8ff" points="315.11,-30.65 309.25,-21.82 308.33,-32.38 315.11,-30.65"/>
</a>
</g>
</g>
<!-- Node13 -->
<g id="Node000013" class="node">
<title>Node13</title>
<g id="a_Node000013"><a xlink:title=" ">
<polygon fill="#e0e0e0" stroke="#999999" points="445,-76 402,-76 402,-56 445,-56 445,-76"/>
<text text-anchor="middle" x="423.5" y="-62.5" font-family="Helvetica,sans-Serif" font-size="10.00">thread</text>
</a>
</g>
</g>
<!-- Node8&#45;&gt;Node13 -->
<g id="edge18_Node000008_Node000013" class="edge">
<title>Node8&#45;&gt;Node13</title>
<g id="a_edge18_Node000008_Node000013"><a xlink:title=" ">
<path fill="none" stroke="#63b8ff" d="M350,-111.59C363.32,-103.51 382.78,-91.71 398.33,-82.27"/>
<polygon fill="#63b8ff" stroke="#63b8ff" points="399.85,-85.44 406.58,-77.26 396.22,-79.46 399.85,-85.44"/>
</a>
</g>
</g>
<!-- Node14 -->
<g id="Node000014" class="node">
<title>Node14</title>
<g id="a_Node000014"><a xlink:title=" ">
<polygon fill="#e0e0e0" stroke="#999999" points="551.75,-76 501.25,-76 501.25,-56 551.75,-56 551.75,-76"/>
<text text-anchor="middle" x="526.5" y="-62.5" font-family="Helvetica,sans-Serif" font-size="10.00">typeinfo</text>
</a>
</g>
</g>
<!-- Node8&#45;&gt;Node14 -->
<g id="edge19_Node000008_Node000014" class="edge">
<title>Node8&#45;&gt;Node14</title>
<g id="a_edge19_Node000008_Node000014"><a xlink:title=" ">
<path fill="none" stroke="#63b8ff" d="M357.28,-114.59C390.1,-105.36 451.02,-88.23 490.12,-77.23"/>
<polygon fill="#63b8ff" stroke="#63b8ff" points="490.87,-80.66 499.55,-74.58 488.98,-73.92 490.87,-80.66"/>
</a>
</g>
</g>
<!-- Node9&#45;&gt;Node2 -->
<g id="edge12_Node000009_Node000002" class="edge">
<title>Node9&#45;&gt;Node2</title>
<g id="a_edge12_Node000009_Node000002"><a xlink:title=" ">
<path fill="none" stroke="#63b8ff" d="M338.38,-55.59C318.47,-47.13 288.95,-34.58 266.29,-24.94"/>
<polygon fill="#63b8ff" stroke="#63b8ff" points="267.76,-21.76 257.19,-21.07 265.02,-28.21 267.76,-21.76"/>
</a>
</g>
</g>
<!-- Node9&#45;&gt;Node4 -->
<g id="edge13_Node000009_Node000004" class="edge">
<title>Node9&#45;&gt;Node4</title>
<g id="a_edge13_Node000009_Node000004"><a xlink:title=" ">
<path fill="none" stroke="#63b8ff" d="M336.37,-61.37C294.61,-54.9 205.95,-40.36 120.91,-20.09"/>
<polygon fill="#63b8ff" stroke="#63b8ff" points="121.77,-16.7 111.22,-17.75 120.12,-23.5 121.77,-16.7"/>
</a>
</g>
</g>
<!-- Node9&#45;&gt;Node5 -->
<g id="edge15_Node000009_Node000005" class="edge">
<title>Node9&#45;&gt;Node5</title>
<g id="a_edge15_Node000009_Node000005"><a xlink:title=" ">
<path fill="none" stroke="#63b8ff" d="M384.63,-57.95C412.72,-49.73 460.82,-35.62 510.58,-20.86"/>
<polygon fill="#63b8ff" stroke="#63b8ff" points="511.51,-24.23 520.1,-18.03 509.52,-17.52 511.51,-24.23"/>
</a>
</g>
</g>
<!-- Node10 -->
<g id="Node000010" class="node">
<title>Node10</title>
<g id="a_Node000010"><a xlink:title=" ">
<polygon fill="#e0e0e0" stroke="#999999" points="380.9,-20 352.1,-20 352.1,0 380.9,0 380.9,-20"/>
<text text-anchor="middle" x="366.5" y="-6.5" font-family="Helvetica,sans-Serif" font-size="10.00">list</text>
</a>
</g>
</g>
<!-- Node9&#45;&gt;Node10 -->
<g id="edge14_Node000009_Node000010" class="edge">
<title>Node9&#45;&gt;Node10</title>
<g id="a_edge14_Node000009_Node000010"><a xlink:title=" ">
<path fill="none" stroke="#63b8ff" d="M361.55,-55.59C362.28,-49.01 363.28,-39.96 364.2,-31.73"/>
<polygon fill="#63b8ff" stroke="#63b8ff" points="367.67,-32.13 365.3,-21.8 360.72,-31.35 367.67,-32.13"/>
</a>
</g>
</g>
<!-- Node9&#45;&gt;Node11 -->
<g id="edge16_Node000009_Node000011" class="edge">
<title>Node9&#45;&gt;Node11</title>
<g id="a_edge16_Node000009_Node000011"><a xlink:title=" ">
<path fill="none" stroke="#63b8ff" d="M351.09,-55.59C343.58,-48.08 332.85,-37.35 323.8,-28.3"/>
<polygon fill="#63b8ff" stroke="#63b8ff" points="326.41,-25.96 316.87,-21.37 321.46,-30.91 326.41,-25.96"/>
</a>
</g>
</g>
<!-- Node12 -->
<g id="Node000012" class="node">
<title>Node12</title>
<g id="a_Node000012"><a xlink:title=" ">
<polygon fill="#e0e0e0" stroke="#999999" points="504.12,-20 398.88,-20 398.88,0 504.12,0 504.12,-20"/>
<text text-anchor="middle" x="451.5" y="-6.5" font-family="Helvetica,sans-Serif" font-size="10.00">opencv2/opencv.hpp</text>
</a>
</g>
</g>
<!-- Node9&#45;&gt;Node12 -->
<g id="edge17_Node000009_Node000012" class="edge">
<title>Node9&#45;&gt;Node12</title>
<g id="a_edge17_Node000009_Node000012"><a xlink:title=" ">
<path fill="none" stroke="#63b8ff" d="M376.35,-55.59C389.97,-47.51 409.86,-35.71 425.76,-26.27"/>
<polygon fill="#63b8ff" stroke="#63b8ff" points="427.41,-29.37 434.22,-21.25 423.84,-23.35 427.41,-29.37"/>
</a>
</g>
</g>
<!-- Node15&#45;&gt;Node2 -->
<g id="edge23_Node000015_Node000002" class="edge">
<title>Node15&#45;&gt;Node2</title>
<g id="a_edge23_Node000015_Node000002"><a xlink:title=" ">
<path fill="none" stroke="#63b8ff" d="M176.52,-55.59C186.51,-47.77 200.96,-36.46 212.81,-27.19"/>
<polygon fill="#63b8ff" stroke="#63b8ff" points="214.71,-30.15 220.43,-21.23 210.39,-24.64 214.71,-30.15"/>
</a>
</g>
</g>
<!-- Node15&#45;&gt;Node3 -->
<g id="edge24_Node000015_Node000003" class="edge">
<title>Node15&#45;&gt;Node3</title>
<g id="a_edge24_Node000015_Node000003"><a xlink:title=" ">
<path fill="none" stroke="#63b8ff" d="M140.11,-55.59C117.87,-47.01 84.73,-34.23 59.63,-24.55"/>
<polygon fill="#63b8ff" stroke="#63b8ff" points="61.08,-21.36 50.49,-21.02 58.56,-27.89 61.08,-21.36"/>
</a>
</g>
</g>
<!-- Node15&#45;&gt;Node4 -->
<g id="edge22_Node000015_Node000004" class="edge">
<title>Node15&#45;&gt;Node4</title>
<g id="a_edge22_Node000015_Node000004"><a xlink:title=" ">
<path fill="none" stroke="#63b8ff" d="M151.44,-55.59C140.53,-47.74 124.75,-36.38 111.84,-27.09"/>
<polygon fill="#63b8ff" stroke="#63b8ff" points="114.05,-24.37 103.89,-21.36 109.96,-30.05 114.05,-24.37"/>
</a>
</g>
</g>
<!-- Node15&#45;&gt;Node5 -->
<g id="edge25_Node000015_Node000005" class="edge">
<title>Node15&#45;&gt;Node5</title>
<g id="a_edge25_Node000015_Node000005"><a xlink:title=" ">
<path fill="none" stroke="#63b8ff" d="M205.17,-61.92C268.6,-56.66 395.04,-44.29 510.51,-20.36"/>
<polygon fill="#63b8ff" stroke="#63b8ff" points="511.11,-23.81 520.17,-18.32 509.66,-16.96 511.11,-23.81"/>
</a>
</g>
</g>
<!-- Node15&#45;&gt;Node11 -->
<g id="edge26_Node000015_Node000011" class="edge">
<title>Node15&#45;&gt;Node11</title>
<g id="a_edge26_Node000015_Node000011"><a xlink:title=" ">
<path fill="none" stroke="#63b8ff" d="M189.23,-55.59C211.8,-47.01 245.41,-34.23 270.87,-24.55"/>
<polygon fill="#63b8ff" stroke="#63b8ff" points="272.05,-27.84 280.16,-21.02 269.57,-21.3 272.05,-27.84"/>
</a>
</g>
</g>
<!-- Node16 -->
<g id="Node000016" class="node">
<title>Node16</title>
<g id="a_Node000016"><a xlink:title=" ">
<polygon fill="#e0e0e0" stroke="#999999" points="189,-20 128,-20 128,0 189,0 189,-20"/>
<text text-anchor="middle" x="158.5" y="-6.5" font-family="Helvetica,sans-Serif" font-size="10.00">filesystem</text>
</a>
</g>
</g>
<!-- Node15&#45;&gt;Node16 -->
<g id="edge27_Node000015_Node000016" class="edge">
<title>Node15&#45;&gt;Node16</title>
<g id="a_edge27_Node000015_Node000016"><a xlink:title=" ">
<path fill="none" stroke="#63b8ff" d="M163.45,-55.59C162.72,-49.01 161.72,-39.96 160.8,-31.73"/>
<polygon fill="#63b8ff" stroke="#63b8ff" points="164.28,-31.35 159.7,-21.8 157.33,-32.13 164.28,-31.35"/>
</a>
</g>
</g>
</g>
</svg>

<g id="navigator" transform="translate(0 0)" fill="#404254">
  <rect fill="#f2f5e9" fill-opacity="0.5" stroke="#606060" stroke-width=".5" x="0" y="0" width="60" height="60"/>
  <use id="zoomplus" xlink:href="#zoomPlus" x="17" y="9" onmousedown="handleZoom(evt,'in')"/>
  <use id="zoomminus" xlink:href="#zoomMin" x="42" y="9" onmousedown="handleZoom(evt,'out')"/>
  <use id="reset" xlink:href="#resetDef" x="30" y="36" onmousedown="handleReset()"/>
   <use id="arrowup" xlink:href="#arrowUp" x="0" y="0" onmousedown="handlePan(0,-1)"/>
  <use id="arrowright" xlink:href="#arrowRight" x="0" y="0" onmousedown="handlePan(1,0)"/>
  <use id="arrowdown" xlink:href="#arrowDown" x="0" y="0" onmousedown="handlePan(0,1)"/>
  <use id="arrowleft" xlink:href="#arrowLeft" x="0" y="0" onmousedown="handlePan(-1,0)"/>
</g>
<svg viewBox="0 0 15 15" width="100%" height="30px" preserveAspectRatio="xMaxYMin meet">
 <g id="arrow_out" transform="scale(0.3 0.3)">
  <a xlink:href="_token_8h__incl_org.svg" target="_base">
   <rect id="button" ry="5" rx="5" y="6" x="6" height="38" width="38"
        fill="#f2f5e9" fill-opacity="0.5" stroke="#606060" stroke-width="1.0"/>
   <path id="arrow"
     d="M 11.500037,31.436501 C 11.940474,20.09759 22.043105,11.32322 32.158766,21.979434 L 37.068811,17.246167 C 37.068811,17.246167 37.088388,32 37.088388,32 L 22.160133,31.978069 C 22.160133,31.978069 26.997745,27.140456 26.997745,27.140456 C 18.528582,18.264221 13.291696,25.230495 11.500037,31.436501 z"
     style="fill:#404040;"/>
  </a>
 </g>
</svg>

<style type='text/css'>
<![CDATA[
[data-mouse-over-selected='false'] { opacity: 0.7; }
[data-mouse-over-selected='true']  { opacity: 1.0; }
]]>
</style>
<script type="application/ecmascript"><![CDATA[
document.addEventListener('DOMContentLoaded', (event) => {
  highlightEdges();
  highlightAdjacentNodes();
});
]]></script>
</svg>
