<?xml version="1.0" encoding="UTF-8" standalone="no"?>
<!DOCTYPE svg PUBLIC "-//W3C//DTD SVG 1.1//EN"
 "http://www.w3.org/Graphics/SVG/1.1/DTD/svg11.dtd">
<!-- Generated by graphviz version 12.2.0 (20241103.1931)
 -->
<!-- Title: isTokenString Pages: 1 -->
<svg width="220pt" height="142pt"
 viewBox="0.00 0.00 220.00 142.00" xmlns="http://www.w3.org/2000/svg" xmlns:xlink="http://www.w3.org/1999/xlink">

<svg id="main" version="1.1" xmlns="http://www.w3.org/2000/svg" xmlns:xlink="http://www.w3.org/1999/xlink" xml:space="preserve">

<style type="text/css"><![CDATA[
.node, .edge {opacity: 0.7;}
.node.selected, .edge.selected {opacity: 1;}
.edge:hover path { stroke: red; }
.edge:hover polygon { stroke: red; fill: red; }
]]></style>
<script type="application/ecmascript" xlink:href="svg.min.js"/>
<svg id="graph" class="graph">
<g id="graph0" class="graph" transform="scale(1 1) rotate(0) translate(4 138)">
<title>isTokenString</title>
<!-- Node1 -->
<g id="Node000001" class="node">
<title>Node1</title>
<g id="a_Node000001"><a xlink:title=" ">
<polygon fill="#999999" stroke="#666666" points="75.25,-77 0,-77 0,-57 75.25,-57 75.25,-77"/>
<text text-anchor="middle" x="37.62" y="-63.5" font-family="Helvetica,sans-Serif" font-size="10.00">isTokenString</text>
</a>
</g>
</g>
<!-- Node2 -->
<g id="Node000002" class="node">
<title>Node2</title>
<g id="a_Node000002"><a xlink:href="_token_8cpp.html#a3276e6efe4a3f409262ffe0b345e9636" target="_top" xlink:title=" ">
<polygon fill="white" stroke="#666666" points="205.25,-134 118,-134 118,-114 205.25,-114 205.25,-134"/>
<text text-anchor="middle" x="161.62" y="-120.5" font-family="Helvetica,sans-Serif" font-size="10.00">isKeywordString</text>
</a>
</g>
</g>
<!-- Node1&#45;&gt;Node2 -->
<g id="edge1_Node000001_Node000002" class="edge">
<title>Node1&#45;&gt;Node2</title>
<g id="a_edge1_Node000001_Node000002"><a xlink:title=" ">
<path fill="none" stroke="#63b8ff" d="M57.14,-77.44C71.65,-85.44 92.45,-96.5 111.25,-105 114.56,-106.49 118.02,-107.98 121.51,-109.43"/>
<polygon fill="#63b8ff" stroke="#63b8ff" points="119.95,-112.57 130.53,-113.04 122.55,-106.07 119.95,-112.57"/>
</a>
</g>
</g>
<!-- Node3 -->
<g id="Node000003" class="node">
<title>Node3</title>
<g id="a_Node000003"><a xlink:href="_token_8cpp.html#ae8bab56314c8b787497a84c189b9114d" target="_top" xlink:title=" ">
<polygon fill="white" stroke="#666666" points="199.25,-96 124,-96 124,-76 199.25,-76 199.25,-96"/>
<text text-anchor="middle" x="161.62" y="-82.5" font-family="Helvetica,sans-Serif" font-size="10.00">isLiteralString</text>
</a>
</g>
</g>
<!-- Node1&#45;&gt;Node3 -->
<g id="edge2_Node000001_Node000003" class="edge">
<title>Node1&#45;&gt;Node3</title>
<g id="a_edge2_Node000001_Node000003"><a xlink:title=" ">
<path fill="none" stroke="#63b8ff" d="M75.56,-72.75C87.27,-74.58 100.38,-76.62 112.74,-78.54"/>
<polygon fill="#63b8ff" stroke="#63b8ff" points="111.9,-81.95 122.32,-80.03 112.98,-75.04 111.9,-81.95"/>
</a>
</g>
</g>
<!-- Node4 -->
<g id="Node000004" class="node">
<title>Node4</title>
<g id="a_Node000004"><a xlink:href="_token_8cpp.html#ae80d3823673e42ed3ce7e84597bbd552" target="_top" xlink:title=" ">
<polygon fill="white" stroke="#666666" points="204.88,-58 118.38,-58 118.38,-38 204.88,-38 204.88,-58"/>
<text text-anchor="middle" x="161.62" y="-44.5" font-family="Helvetica,sans-Serif" font-size="10.00">isOperatorString</text>
</a>
</g>
</g>
<!-- Node1&#45;&gt;Node4 -->
<g id="edge3_Node000001_Node000004" class="edge">
<title>Node1&#45;&gt;Node4</title>
<g id="a_edge3_Node000001_Node000004"><a xlink:title=" ">
<path fill="none" stroke="#63b8ff" d="M75.56,-61.25C85.45,-59.71 96.34,-58.01 106.94,-56.36"/>
<polygon fill="#63b8ff" stroke="#63b8ff" points="107.42,-59.83 116.76,-54.83 106.34,-52.91 107.42,-59.83"/>
</a>
</g>
</g>
<!-- Node5 -->
<g id="Node000005" class="node">
<title>Node5</title>
<g id="a_Node000005"><a xlink:href="_token_8cpp.html#ad93eecc58b3fdba57ba605dcb296f03e" target="_top" xlink:title=" ">
<polygon fill="white" stroke="#666666" points="212,-20 111.25,-20 111.25,0 212,0 212,-20"/>
<text text-anchor="middle" x="161.62" y="-6.5" font-family="Helvetica,sans-Serif" font-size="10.00">isPunctuationString</text>
</a>
</g>
</g>
<!-- Node1&#45;&gt;Node5 -->
<g id="edge4_Node000001_Node000005" class="edge">
<title>Node1&#45;&gt;Node5</title>
<g id="a_edge4_Node000001_Node000005"><a xlink:title=" ">
<path fill="none" stroke="#63b8ff" d="M57.14,-56.56C71.65,-48.56 92.45,-37.5 111.25,-29 114.56,-27.51 118.02,-26.02 121.51,-24.57"/>
<polygon fill="#63b8ff" stroke="#63b8ff" points="122.55,-27.93 130.53,-20.96 119.95,-21.43 122.55,-27.93"/>
</a>
</g>
</g>
</g>
</svg>
</svg>

<style type='text/css'>
<![CDATA[
[data-mouse-over-selected='false'] { opacity: 0.7; }
[data-mouse-over-selected='true']  { opacity: 1.0; }
]]>
</style>
<script type="application/ecmascript"><![CDATA[
document.addEventListener('DOMContentLoaded', (event) => {
  highlightEdges();
  highlightAdjacentNodes();
});
]]></script>
</svg>
