<?xml version="1.0" encoding="UTF-8" standalone="no"?>
<!DOCTYPE svg PUBLIC "-//W3C//DTD SVG 1.1//EN"
 "http://www.w3.org/Graphics/SVG/1.1/DTD/svg11.dtd">
<!-- Generated by graphviz version 12.2.0 (20241103.1931)
 -->
<!-- Title: runTests Pages: 1 -->
<!--zoomable 231 -->

<svg id="main" version="1.1" xmlns="http://www.w3.org/2000/svg" xmlns:xlink="http://www.w3.org/1999/xlink" xml:space="preserve" onload="init(evt)">

<style type="text/css"><![CDATA[
.node, .edge {opacity: 0.7;}
.node.selected, .edge.selected {opacity: 1;}
.edge:hover path { stroke: red; }
.edge:hover polygon { stroke: red; fill: red; }
]]></style>

<defs>
  <circle id="rim" cx="0" cy="0" r="7"/>
  <circle id="rim2" cx="0" cy="0" r="3.5"/>
  <g id="zoomPlus">
    <use xlink:href="#rim" fill="#404040"><set attributeName="fill" to="#808080" begin="zoomplus.mouseover" end="zoomplus.mouseout"/></use>
    <path d="M-4,0h8M0,-4v8" fill="none" stroke="white" stroke-width="1.5" pointer-events="none"/>
  </g>
  <g id="zoomMin">
    <use xlink:href="#rim" fill="#404040"><set attributeName="fill" to="#808080" begin="zoomminus.mouseover" end="zoomminus.mouseout"/></use>
    <path d="M-4,0h8" fill="none" stroke="white" stroke-width="1.5" pointer-events="none"/>
  </g>
  <g id="arrowUp" transform="translate(30 24)">
    <use xlink:href="#rim"/>
    <path pointer-events="none" fill="none" stroke="white" stroke-width="1.5" d="M0,-3.0v7 M-2.5,-0.5L0,-3.0L2.5,-0.5"/>
  </g>
  <g id="arrowRight" transform="rotate(90) translate(36 -43)">
    <use xlink:href="#rim"/>
    <path pointer-events="none" fill="none" stroke="white" stroke-width="1.5" d="M0,-3.0v7 M-2.5,-0.5L0,-3.0L2.5,-0.5"/>
  </g>
  <g id="arrowDown" transform="rotate(180) translate(-30 -48)">
    <use xlink:href="#rim"/>
    <path pointer-events="none" fill="none" stroke="white" stroke-width="1.5" d="M0,-3.0v7 M-2.5,-0.5L0,-3.0L2.5,-0.5"/>
  </g>
  <g id="arrowLeft" transform="rotate(270) translate(-36 17)">
    <use xlink:href="#rim"/>
    <path pointer-events="none" fill="none" stroke="white" stroke-width="1.5" d="M0,-3.0v7 M-2.5,-0.5L0,-3.0L2.5,-0.5"/>
  </g>
  <g id="resetDef">
    <use xlink:href="#rim2" fill="#404040"><set attributeName="fill" to="#808080" begin="reset.mouseover" end="reset.mouseout"/></use>
  </g>
</defs>
<script type="application/ecmascript">
var viewWidth = 730;
var viewHeight = 231;
var sectionId = 'dynsection-1';
</script>
<script type="application/ecmascript" xlink:href="svg.min.js"/>
<svg id="graph" class="graph">
<g id="viewport">
<title>runTests</title>
<!-- Node1 -->
<g id="Node000001" class="node">
<title>Node1</title>
<g id="a_Node000001"><a xlink:title=" ">
<polygon fill="#999999" stroke="#666666" points="53.5,-110.45 0,-110.45 0,-90.45 53.5,-90.45 53.5,-110.45"/>
<text text-anchor="middle" x="26.75" y="-96.95" font-family="Helvetica,sans-Serif" font-size="10.00">runTests</text>
</a>
</g>
</g>
<!-- Node2 -->
<g id="Node000002" class="node">
<title>Node2</title>
<g id="a_Node000002"><a xlink:href="_text_manager_8cpp.html#a5adfb1e14ce20866bfe01ed05b344a87" target="_top" xlink:title=" ">
<polygon fill="white" stroke="#666666" points="204.5,-110.45 89.5,-110.45 89.5,-90.45 204.5,-90.45 204.5,-110.45"/>
<text text-anchor="middle" x="147" y="-96.95" font-family="Helvetica,sans-Serif" font-size="10.00">getStringInsideBorders</text>
</a>
</g>
</g>
<!-- Node1&#45;&gt;Node2 -->
<g id="edge1_Node000001_Node000002" class="edge">
<title>Node1&#45;&gt;Node2</title>
<g id="a_edge1_Node000001_Node000002"><a xlink:title=" ">
<path fill="none" stroke="#63b8ff" d="M53.99,-100.45C61.28,-100.45 69.54,-100.45 78.05,-100.45"/>
<polygon fill="#63b8ff" stroke="#63b8ff" points="77.81,-103.95 87.81,-100.45 77.81,-96.95 77.81,-103.95"/>
</a>
</g>
</g>
<!-- Node3 -->
<g id="Node000003" class="node">
<title>Node3</title>
<g id="a_Node000003"><a xlink:href="_text_manager_8cpp.html#a8f90c1ec899f25ae8d1087459a6bc108" target="_top" xlink:title=" ">
<polygon fill="white" stroke="#666666" points="328.12,-172.45 250.62,-172.45 250.62,-152.45 328.12,-152.45 328.12,-172.45"/>
<text text-anchor="middle" x="289.38" y="-158.95" font-family="Helvetica,sans-Serif" font-size="10.00">countMatches</text>
</a>
</g>
</g>
<!-- Node2&#45;&gt;Node3 -->
<g id="edge2_Node000002_Node000003" class="edge">
<title>Node2&#45;&gt;Node3</title>
<g id="a_edge2_Node000002_Node000003"><a xlink:title=" ">
<path fill="none" stroke="#63b8ff" d="M171.5,-110.83C194.17,-120.84 228.74,-136.11 254.41,-147.45"/>
<polygon fill="#63b8ff" stroke="#63b8ff" points="252.86,-150.59 263.42,-151.43 255.68,-144.18 252.86,-150.59"/>
</a>
</g>
</g>
<!-- Node5 -->
<g id="Node000005" class="node">
<title>Node5</title>
<g id="a_Node000005"><a xlink:href="_text_manager_8cpp.html#a4d2b9819e5e2504ea8d55a553812146a" target="_top" xlink:title=" ">
<polygon fill="white" stroke="#666666" points="460,-129.45 384.75,-129.45 384.75,-109.45 460,-109.45 460,-129.45"/>
<text text-anchor="middle" x="422.38" y="-115.95" font-family="Helvetica,sans-Serif" font-size="10.00">getStringUntil</text>
</a>
</g>
</g>
<!-- Node2&#45;&gt;Node5 -->
<g id="edge15_Node000002_Node000005" class="edge">
<title>Node2&#45;&gt;Node5</title>
<g id="a_edge15_Node000002_Node000005"><a xlink:title=" ">
<path fill="none" stroke="#63b8ff" d="M204.98,-104.41C254.74,-107.87 326.18,-112.83 373.17,-116.1"/>
<polygon fill="#63b8ff" stroke="#63b8ff" points="372.83,-119.58 383.05,-116.78 373.31,-112.6 372.83,-119.58"/>
</a>
</g>
</g>
<!-- Node7 -->
<g id="Node000007" class="node">
<title>Node7</title>
<g id="a_Node000007"><a xlink:href="_text_manager_8cpp.html#a3f4afb2b62acd297e783a22ffa9a7000" target="_top" xlink:title=" ">
<polygon fill="white" stroke="#666666" points="721.5,-91.45 631.25,-91.45 631.25,-71.45 721.5,-71.45 721.5,-91.45"/>
<text text-anchor="middle" x="676.38" y="-77.95" font-family="Helvetica,sans-Serif" font-size="10.00">getSequencePos</text>
</a>
</g>
</g>
<!-- Node2&#45;&gt;Node7 -->
<g id="edge10_Node000002_Node000007" class="edge">
<title>Node2&#45;&gt;Node7</title>
<g id="a_edge10_Node000002_Node000007"><a xlink:title=" ">
<path fill="none" stroke="#63b8ff" d="M204.94,-98.4C306.65,-94.73 518.34,-87.11 619.37,-83.47"/>
<polygon fill="#63b8ff" stroke="#63b8ff" points="619.46,-86.96 629.33,-83.11 619.21,-79.97 619.46,-86.96"/>
</a>
</g>
</g>
<!-- Node8 -->
<g id="Node000008" class="node">
<title>Node8</title>
<g id="a_Node000008"><a xlink:href="_text_manager_8cpp.html#a053e0b36b2796cc4d128150353f13449" target="_top" xlink:title=" ">
<polygon fill="white" stroke="#666666" points="461.12,-223.45 383.62,-223.45 383.62,-203.45 461.12,-203.45 461.12,-223.45"/>
<text text-anchor="middle" x="422.38" y="-209.95" font-family="Helvetica,sans-Serif" font-size="10.00">skipSequence</text>
</a>
</g>
</g>
<!-- Node2&#45;&gt;Node8 -->
<g id="edge16_Node000002_Node000008" class="edge">
<title>Node2&#45;&gt;Node8</title>
<g id="a_edge16_Node000002_Node000008"><a xlink:title=" ">
<path fill="none" stroke="#63b8ff" d="M156.45,-110.88C171.39,-128.55 204.32,-164.1 240.5,-181.45 282.06,-201.38 334.36,-209.01 372.01,-211.87"/>
<polygon fill="#63b8ff" stroke="#63b8ff" points="371.48,-215.34 381.69,-212.51 371.94,-208.35 371.48,-215.34"/>
</a>
</g>
</g>
<!-- Node9 -->
<g id="Node000009" class="node">
<title>Node9</title>
<g id="a_Node000009"><a xlink:href="_text_manager_8cpp.html#a07d720ed3b57aaff2c6b76019524b927" target="_top" xlink:title=" ">
<polygon fill="white" stroke="#666666" points="338.25,-53.45 240.5,-53.45 240.5,-33.45 338.25,-33.45 338.25,-53.45"/>
<text text-anchor="middle" x="289.38" y="-39.95" font-family="Helvetica,sans-Serif" font-size="10.00">getSequencePosR</text>
</a>
</g>
</g>
<!-- Node2&#45;&gt;Node9 -->
<g id="edge11_Node000002_Node000009" class="edge">
<title>Node2&#45;&gt;Node9</title>
<g id="a_edge11_Node000002_Node000009"><a xlink:title=" ">
<path fill="none" stroke="#63b8ff" d="M173.75,-89.99C195.81,-81.03 227.83,-68.03 252.42,-58.05"/>
<polygon fill="#63b8ff" stroke="#63b8ff" points="253.44,-61.41 261.39,-54.41 250.81,-54.93 253.44,-61.41"/>
</a>
</g>
</g>
<!-- Node10 -->
<g id="Node000010" class="node">
<title>Node10</title>
<g id="a_Node000010"><a xlink:href="_text_manager_8cpp.html#a2946b90fb3df56b0a74d53eb4160f4e2" target="_top" xlink:title=" ">
<polygon fill="white" stroke="#666666" points="595.25,-25.45 506.5,-25.45 506.5,-5.45 595.25,-5.45 595.25,-25.45"/>
<text text-anchor="middle" x="550.88" y="-11.95" font-family="Helvetica,sans-Serif" font-size="10.00">getStringStarting</text>
</a>
</g>
</g>
<!-- Node2&#45;&gt;Node10 -->
<g id="edge12_Node000002_Node000010" class="edge">
<title>Node2&#45;&gt;Node10</title>
<g id="a_edge12_Node000002_Node000010"><a xlink:title=" ">
<path fill="none" stroke="#63b8ff" d="M156.37,-90.11C171.18,-72.72 203.91,-38.16 240.5,-24.45 324.82,7.14 431.31,1.23 494.82,-6.62"/>
<polygon fill="#63b8ff" stroke="#63b8ff" points="494.29,-10.08 504.66,-7.9 495.2,-3.14 494.29,-10.08"/>
</a>
</g>
</g>
<!-- Node4 -->
<g id="Node000004" class="node">
<title>Node4</title>
<g id="a_Node000004"><a xlink:href="_text_manager_8cpp.html#a079e0c70f384def9d00b70f9ee62ee4a" target="_top" xlink:title=" ">
<polygon fill="white" stroke="#666666" points="470.5,-185.45 374.25,-185.45 374.25,-165.45 470.5,-165.45 470.5,-185.45"/>
<text text-anchor="middle" x="422.38" y="-171.95" font-family="Helvetica,sans-Serif" font-size="10.00">containsSequence</text>
</a>
</g>
</g>
<!-- Node3&#45;&gt;Node4 -->
<g id="edge3_Node000003_Node000004" class="edge">
<title>Node3&#45;&gt;Node4</title>
<g id="a_edge3_Node000003_Node000004"><a xlink:title=" ">
<path fill="none" stroke="#63b8ff" d="M328.62,-166.24C339.27,-167.3 351.08,-168.47 362.62,-169.62"/>
<polygon fill="#63b8ff" stroke="#63b8ff" points="362.21,-173.09 372.5,-170.6 362.9,-166.13 362.21,-173.09"/>
</a>
</g>
</g>
<!-- Node3&#45;&gt;Node5 -->
<g id="edge4_Node000003_Node000005" class="edge">
<title>Node3&#45;&gt;Node5</title>
<g id="a_edge4_Node000003_Node000005"><a xlink:title=" ">
<path fill="none" stroke="#63b8ff" d="M322.09,-152.04C339.1,-146.46 360.3,-139.5 378.73,-133.45"/>
<polygon fill="#63b8ff" stroke="#63b8ff" points="379.65,-136.83 388.06,-130.38 377.47,-130.18 379.65,-136.83"/>
</a>
</g>
</g>
<!-- Node3&#45;&gt;Node8 -->
<g id="edge8_Node000003_Node000008" class="edge">
<title>Node3&#45;&gt;Node8</title>
<g id="a_edge8_Node000003_Node000008"><a xlink:title=" ">
<path fill="none" stroke="#63b8ff" d="M317.2,-172.89C336.45,-180.39 362.65,-190.58 383.95,-198.88"/>
<polygon fill="#63b8ff" stroke="#63b8ff" points="382.59,-202.1 393.17,-202.47 385.13,-195.58 382.59,-202.1"/>
</a>
</g>
</g>
<!-- Node5&#45;&gt;Node5 -->
<g id="edge7_Node000005_Node000005" class="edge">
<title>Node5&#45;&gt;Node5</title>
<g id="a_edge7_Node000005_Node000005"><a xlink:title=" ">
<path fill="none" stroke="#63b8ff" d="M401.96,-129.79C393.23,-138.42 400.04,-147.45 422.38,-147.45 434.59,-147.45 442.16,-144.75 445.09,-140.89"/>
<polygon fill="#63b8ff" stroke="#63b8ff" points="448.55,-140.35 443.1,-131.27 441.69,-141.77 448.55,-140.35"/>
</a>
</g>
</g>
<!-- Node6 -->
<g id="Node000006" class="node">
<title>Node6</title>
<g id="a_Node000006"><a xlink:href="_text_manager_8cpp.html#a5b66873abcff2faee361721f86b65dd0" target="_top" xlink:title=" ">
<polygon fill="white" stroke="#666666" points="584.75,-129.45 517,-129.45 517,-109.45 584.75,-109.45 584.75,-129.45"/>
<text text-anchor="middle" x="550.88" y="-115.95" font-family="Helvetica,sans-Serif" font-size="10.00">getPosAfter</text>
</a>
</g>
</g>
<!-- Node5&#45;&gt;Node6 -->
<g id="edge5_Node000005_Node000006" class="edge">
<title>Node5&#45;&gt;Node6</title>
<g id="a_edge5_Node000005_Node000006"><a xlink:title=" ">
<path fill="none" stroke="#63b8ff" d="M460.3,-119.45C474.34,-119.45 490.49,-119.45 505.17,-119.45"/>
<polygon fill="#63b8ff" stroke="#63b8ff" points="505.06,-122.95 515.06,-119.45 505.06,-115.95 505.06,-122.95"/>
</a>
</g>
</g>
<!-- Node6&#45;&gt;Node7 -->
<g id="edge6_Node000006_Node000007" class="edge">
<title>Node6&#45;&gt;Node7</title>
<g id="a_edge6_Node000006_Node000007"><a xlink:title=" ">
<path fill="none" stroke="#63b8ff" d="M584.97,-109.26C599,-104.95 615.56,-99.85 630.66,-95.21"/>
<polygon fill="#63b8ff" stroke="#63b8ff" points="631.35,-98.66 639.88,-92.37 629.29,-91.97 631.35,-98.66"/>
</a>
</g>
</g>
<!-- Node8&#45;&gt;Node6 -->
<g id="edge9_Node000008_Node000006" class="edge">
<title>Node8&#45;&gt;Node6</title>
<g id="a_edge9_Node000008_Node000006"><a xlink:title=" ">
<path fill="none" stroke="#63b8ff" d="M454.12,-203C459.76,-200.54 465.45,-197.69 470.5,-194.45 495.14,-178.65 518.94,-154.62 533.94,-138.04"/>
<polygon fill="#63b8ff" stroke="#63b8ff" points="536.31,-140.64 540.32,-130.83 531.07,-136 536.31,-140.64"/>
</a>
</g>
</g>
<!-- Node10&#45;&gt;Node7 -->
<g id="edge13_Node000010_Node000007" class="edge">
<title>Node10&#45;&gt;Node7</title>
<g id="a_edge13_Node000010_Node000007"><a xlink:title=" ">
<path fill="none" stroke="#63b8ff" d="M571.44,-25.91C591.5,-36.62 622.92,-53.42 645.97,-65.73"/>
<polygon fill="#63b8ff" stroke="#63b8ff" points="644.09,-68.7 654.56,-70.33 647.39,-62.53 644.09,-68.7"/>
</a>
</g>
</g>
<!-- Node10&#45;&gt;Node10 -->
<g id="edge14_Node000010_Node000010" class="edge">
<title>Node10&#45;&gt;Node10</title>
<g id="a_edge14_Node000010_Node000010"><a xlink:title=" ">
<path fill="none" stroke="#63b8ff" d="M530.93,-25.79C522.41,-34.42 529.06,-43.45 550.88,-43.45 562.81,-43.45 570.2,-40.75 573.06,-36.89"/>
<polygon fill="#63b8ff" stroke="#63b8ff" points="576.52,-36.38 571.12,-27.27 569.66,-37.77 576.52,-36.38"/>
</a>
</g>
</g>
</g>
</svg>

<g id="navigator" transform="translate(0 0)" fill="#404254">
  <rect fill="#f2f5e9" fill-opacity="0.5" stroke="#606060" stroke-width=".5" x="0" y="0" width="60" height="60"/>
  <use id="zoomplus" xlink:href="#zoomPlus" x="17" y="9" onmousedown="handleZoom(evt,'in')"/>
  <use id="zoomminus" xlink:href="#zoomMin" x="42" y="9" onmousedown="handleZoom(evt,'out')"/>
  <use id="reset" xlink:href="#resetDef" x="30" y="36" onmousedown="handleReset()"/>
   <use id="arrowup" xlink:href="#arrowUp" x="0" y="0" onmousedown="handlePan(0,-1)"/>
  <use id="arrowright" xlink:href="#arrowRight" x="0" y="0" onmousedown="handlePan(1,0)"/>
  <use id="arrowdown" xlink:href="#arrowDown" x="0" y="0" onmousedown="handlePan(0,1)"/>
  <use id="arrowleft" xlink:href="#arrowLeft" x="0" y="0" onmousedown="handlePan(-1,0)"/>
</g>
<svg viewBox="0 0 15 15" width="100%" height="30px" preserveAspectRatio="xMaxYMin meet">
 <g id="arrow_out" transform="scale(0.3 0.3)">
  <a xlink:href="_w_x_manager_8cpp_a5dcb537699bebb9e9db36ab19c5aacf7_cgraph_org.svg" target="_base">
   <rect id="button" ry="5" rx="5" y="6" x="6" height="38" width="38"
        fill="#f2f5e9" fill-opacity="0.5" stroke="#606060" stroke-width="1.0"/>
   <path id="arrow"
     d="M 11.500037,31.436501 C 11.940474,20.09759 22.043105,11.32322 32.158766,21.979434 L 37.068811,17.246167 C 37.068811,17.246167 37.088388,32 37.088388,32 L 22.160133,31.978069 C 22.160133,31.978069 26.997745,27.140456 26.997745,27.140456 C 18.528582,18.264221 13.291696,25.230495 11.500037,31.436501 z"
     style="fill:#404040;"/>
  </a>
 </g>
</svg>

<style type='text/css'>
<![CDATA[
[data-mouse-over-selected='false'] { opacity: 0.7; }
[data-mouse-over-selected='true']  { opacity: 1.0; }
]]>
</style>
<script type="application/ecmascript"><![CDATA[
document.addEventListener('DOMContentLoaded', (event) => {
  highlightEdges();
  highlightAdjacentNodes();
});
]]></script>
</svg>
