<?xml version="1.0" encoding="UTF-8" standalone="no"?>
<!DOCTYPE svg PUBLIC "-//W3C//DTD SVG 1.1//EN"
 "http://www.w3.org/Graphics/SVG/1.1/DTD/svg11.dtd">
<!-- Generated by graphviz version 12.2.0 (20241103.1931)
 -->
<!-- Title: FlowTagPanel::getFirstTag Pages: 1 -->
<svg width="327pt" height="78pt"
 viewBox="0.00 0.00 327.25 78.00" xmlns="http://www.w3.org/2000/svg" xmlns:xlink="http://www.w3.org/1999/xlink">
<g id="graph0" class="graph" transform="scale(1 1) rotate(0) translate(4 74)">
<title>FlowTagPanel::getFirstTag</title>
<!-- Node1 -->
<g id="Node000001" class="node">
<title>Node1</title>
<g id="a_Node000001"><a xlink:title=" ">
<polygon fill="#999999" stroke="#666666" points="319.25,-42 187,-42 187,-22 319.25,-22 319.25,-42"/>
<text text-anchor="middle" x="253.12" y="-28.5" font-family="Helvetica,sans-Serif" font-size="10.00">FlowTagPanel::getFirstTag</text>
</a>
</g>
</g>
<!-- Node2 -->
<g id="Node000002" class="node">
<title>Node2</title>
<g id="a_Node000002"><a xlink:href="class_flow_tag_panel.html#abef0b2e00620e86ebbe17b017aab8e99" target="_top" xlink:title=" ">
<polygon fill="white" stroke="#666666" points="138.62,-70 12.38,-70 12.38,-38 138.62,-38 138.62,-70"/>
<text text-anchor="start" x="20.38" y="-56.5" font-family="Helvetica,sans-Serif" font-size="10.00">FlowTagPanel::isFirstTag</text>
<text text-anchor="middle" x="75.5" y="-44.5" font-family="Helvetica,sans-Serif" font-size="10.00">Child</text>
</a>
</g>
</g>
<!-- Node1&#45;&gt;Node2 -->
<g id="edge1_Node000001_Node000002" class="edge">
<title>Node1&#45;&gt;Node2</title>
<g id="a_edge1_Node000001_Node000002"><a xlink:title=" ">
<path fill="none" stroke="#63b8ff" d="M175.62,-41.58C163.4,-43.11 150.88,-44.68 139.04,-46.17"/>
<polygon fill="#63b8ff" stroke="#63b8ff" points="175.74,-45.1 185.23,-40.38 174.87,-38.15 175.74,-45.1"/>
</a>
</g>
</g>
<!-- Node3 -->
<g id="Node000003" class="node">
<title>Node3</title>
<g id="a_Node000003"><a xlink:href="class_my_frame.html#a4c12737bfb50074cf73aa048290f22d3" target="_top" xlink:title=" ">
<polygon fill="white" stroke="#666666" points="151,-20 0,-20 0,0 151,0 151,-20"/>
<text text-anchor="middle" x="75.5" y="-6.5" font-family="Helvetica,sans-Serif" font-size="10.00">MyFrame::setNeighboursPanel</text>
</a>
</g>
</g>
<!-- Node1&#45;&gt;Node3 -->
<g id="edge2_Node000001_Node000003" class="edge">
<title>Node1&#45;&gt;Node3</title>
<g id="a_edge2_Node000001_Node000003"><a xlink:title=" ">
<path fill="none" stroke="#63b8ff" d="M175.53,-22.41C167.53,-21.4 159.4,-20.38 151.42,-19.38"/>
<polygon fill="#63b8ff" stroke="#63b8ff" points="174.87,-25.85 185.23,-23.62 175.74,-18.9 174.87,-25.85"/>
</a>
</g>
</g>
</g>
</svg>
