<?xml version="1.0" encoding="UTF-8" standalone="no"?>
<!DOCTYPE svg PUBLIC "-//W3C//DTD SVG 1.1//EN"
 "http://www.w3.org/Graphics/SVG/1.1/DTD/svg11.dtd">
<!-- Generated by graphviz version 12.2.0 (20241103.1931)
 -->
<!-- Title: TemplateToken::addToken Pages: 1 -->
<!--zoomable 142 -->

<svg id="main" version="1.1" xmlns="http://www.w3.org/2000/svg" xmlns:xlink="http://www.w3.org/1999/xlink" xml:space="preserve" onload="init(evt)">

<style type="text/css"><![CDATA[
.node, .edge {opacity: 0.7;}
.node.selected, .edge.selected {opacity: 1;}
.edge:hover path { stroke: red; }
.edge:hover polygon { stroke: red; fill: red; }
]]></style>

<defs>
  <circle id="rim" cx="0" cy="0" r="7"/>
  <circle id="rim2" cx="0" cy="0" r="3.5"/>
  <g id="zoomPlus">
    <use xlink:href="#rim" fill="#404040"><set attributeName="fill" to="#808080" begin="zoomplus.mouseover" end="zoomplus.mouseout"/></use>
    <path d="M-4,0h8M0,-4v8" fill="none" stroke="white" stroke-width="1.5" pointer-events="none"/>
  </g>
  <g id="zoomMin">
    <use xlink:href="#rim" fill="#404040"><set attributeName="fill" to="#808080" begin="zoomminus.mouseover" end="zoomminus.mouseout"/></use>
    <path d="M-4,0h8" fill="none" stroke="white" stroke-width="1.5" pointer-events="none"/>
  </g>
  <g id="arrowUp" transform="translate(30 24)">
    <use xlink:href="#rim"/>
    <path pointer-events="none" fill="none" stroke="white" stroke-width="1.5" d="M0,-3.0v7 M-2.5,-0.5L0,-3.0L2.5,-0.5"/>
  </g>
  <g id="arrowRight" transform="rotate(90) translate(36 -43)">
    <use xlink:href="#rim"/>
    <path pointer-events="none" fill="none" stroke="white" stroke-width="1.5" d="M0,-3.0v7 M-2.5,-0.5L0,-3.0L2.5,-0.5"/>
  </g>
  <g id="arrowDown" transform="rotate(180) translate(-30 -48)">
    <use xlink:href="#rim"/>
    <path pointer-events="none" fill="none" stroke="white" stroke-width="1.5" d="M0,-3.0v7 M-2.5,-0.5L0,-3.0L2.5,-0.5"/>
  </g>
  <g id="arrowLeft" transform="rotate(270) translate(-36 17)">
    <use xlink:href="#rim"/>
    <path pointer-events="none" fill="none" stroke="white" stroke-width="1.5" d="M0,-3.0v7 M-2.5,-0.5L0,-3.0L2.5,-0.5"/>
  </g>
  <g id="resetDef">
    <use xlink:href="#rim2" fill="#404040"><set attributeName="fill" to="#808080" begin="reset.mouseover" end="reset.mouseout"/></use>
  </g>
</defs>
<script type="application/ecmascript">
var viewWidth = 634;
var viewHeight = 142;
var sectionId = 'dynsection-20';
</script>
<script type="application/ecmascript" xlink:href="svg.min.js"/>
<svg id="graph" class="graph">
<g id="viewport">
<title>TemplateToken::addToken</title>
<!-- Node1 -->
<g id="Node000001" class="node">
<title>Node1</title>
<g id="a_Node000001"><a xlink:title=" ">
<polygon fill="#999999" stroke="#666666" points="625.75,-77 495.75,-77 495.75,-57 625.75,-57 625.75,-77"/>
<text text-anchor="middle" x="560.75" y="-63.5" font-family="Helvetica,sans-Serif" font-size="10.00">TemplateToken::addToken</text>
</a>
</g>
</g>
<!-- Node2 -->
<g id="Node000002" class="node">
<title>Node2</title>
<g id="a_Node000002"><a xlink:href="class_template_token.html#a7e5256636f4c968720a56ef5ee868274" target="_top" xlink:title=" ">
<polygon fill="white" stroke="#666666" points="450,-134 328.25,-134 328.25,-114 450,-114 450,-134"/>
<text text-anchor="middle" x="389.12" y="-120.5" font-family="Helvetica,sans-Serif" font-size="10.00">TemplateToken::addCab</text>
</a>
</g>
</g>
<!-- Node1&#45;&gt;Node2 -->
<g id="edge1_Node000001_Node000002" class="edge">
<title>Node1&#45;&gt;Node2</title>
<g id="a_edge1_Node000001_Node000002"><a xlink:title=" ">
<path fill="none" stroke="#63b8ff" d="M523.97,-81.56C505.03,-89.02 481.3,-97.98 459.75,-105 450.58,-107.99 440.62,-110.9 431.19,-113.5"/>
<polygon fill="#63b8ff" stroke="#63b8ff" points="525.1,-84.88 533.1,-77.93 522.52,-78.37 525.1,-84.88"/>
</a>
</g>
</g>
<!-- Node5 -->
<g id="Node000005" class="node">
<title>Node5</title>
<g id="a_Node000005"><a xlink:href="class_template_token.html#a0564dddc4f77b9d92efd80c1f6bab565" target="_top" xlink:title=" ">
<polygon fill="white" stroke="#666666" points="458.25,-96 320,-96 320,-76 458.25,-76 458.25,-96"/>
<text text-anchor="middle" x="389.12" y="-82.5" font-family="Helvetica,sans-Serif" font-size="10.00">TemplateToken::addComma</text>
</a>
</g>
</g>
<!-- Node1&#45;&gt;Node5 -->
<g id="edge4_Node000001_Node000005" class="edge">
<title>Node1&#45;&gt;Node5</title>
<g id="a_edge4_Node000001_Node000005"><a xlink:title=" ">
<path fill="none" stroke="#63b8ff" d="M484.42,-75.44C475.82,-76.4 467.09,-77.38 458.59,-78.33"/>
<polygon fill="#63b8ff" stroke="#63b8ff" points="484.57,-78.94 494.12,-74.35 483.79,-71.99 484.57,-78.94"/>
</a>
</g>
</g>
<!-- Node6 -->
<g id="Node000006" class="node">
<title>Node6</title>
<g id="a_Node000006"><a xlink:href="class_template_token.html#abb2f4c81dfdde0b3579d039279191d0a" target="_top" xlink:title=" ">
<polygon fill="white" stroke="#666666" points="459.75,-58 318.5,-58 318.5,-38 459.75,-38 459.75,-58"/>
<text text-anchor="middle" x="389.12" y="-44.5" font-family="Helvetica,sans-Serif" font-size="10.00">TemplateToken::addIdentifier</text>
</a>
</g>
</g>
<!-- Node1&#45;&gt;Node6 -->
<g id="edge5_Node000001_Node000006" class="edge">
<title>Node1&#45;&gt;Node6</title>
<g id="a_edge5_Node000001_Node000006"><a xlink:title=" ">
<path fill="none" stroke="#63b8ff" d="M484.3,-58.55C476.22,-57.64 468.03,-56.73 460.01,-55.83"/>
<polygon fill="#63b8ff" stroke="#63b8ff" points="483.79,-62.01 494.12,-59.65 484.57,-55.06 483.79,-62.01"/>
</a>
</g>
</g>
<!-- Node7 -->
<g id="Node000007" class="node">
<title>Node7</title>
<g id="a_Node000007"><a xlink:href="class_template_token.html#aeab3bb725b06c1368626903bda4431ba" target="_top" xlink:title=" ">
<polygon fill="white" stroke="#666666" points="450,-20 328.25,-20 328.25,0 450,0 450,-20"/>
<text text-anchor="middle" x="389.12" y="-6.5" font-family="Helvetica,sans-Serif" font-size="10.00">TemplateToken::addOab</text>
</a>
</g>
</g>
<!-- Node1&#45;&gt;Node7 -->
<g id="edge6_Node000001_Node000007" class="edge">
<title>Node1&#45;&gt;Node7</title>
<g id="a_edge6_Node000001_Node000007"><a xlink:title=" ">
<path fill="none" stroke="#63b8ff" d="M523.97,-52.44C505.03,-44.98 481.3,-36.02 459.75,-29 450.58,-26.01 440.62,-23.1 431.19,-20.5"/>
<polygon fill="#63b8ff" stroke="#63b8ff" points="522.52,-55.63 533.1,-56.07 525.1,-49.12 522.52,-55.63"/>
</a>
</g>
</g>
<!-- Node3 -->
<g id="Node000003" class="node">
<title>Node3</title>
<g id="a_Node000003"><a xlink:href="class_template_token.html#a4f803a24960bab2671effe0c746d1b8e" target="_top" xlink:title=" ">
<polygon fill="white" stroke="#666666" points="282.5,-77 147.25,-77 147.25,-57 282.5,-57 282.5,-77"/>
<text text-anchor="middle" x="214.88" y="-63.5" font-family="Helvetica,sans-Serif" font-size="10.00">TemplateToken::addTokens</text>
</a>
</g>
</g>
<!-- Node2&#45;&gt;Node3 -->
<g id="edge2_Node000002_Node000003" class="edge">
<title>Node2&#45;&gt;Node3</title>
<g id="a_edge2_Node000002_Node000003"><a xlink:title=" ">
<path fill="none" stroke="#63b8ff" d="M336.55,-110.47C330.44,-108.71 324.32,-106.87 318.5,-105 292.27,-96.58 262.83,-85.51 242.23,-77.49"/>
<polygon fill="#63b8ff" stroke="#63b8ff" points="335.42,-113.79 345.99,-113.14 337.32,-107.05 335.42,-113.79"/>
</a>
</g>
</g>
<!-- Node4 -->
<g id="Node000004" class="node">
<title>Node4</title>
<g id="a_Node000004"><a xlink:href="class_list_token.html#a9003dd872c19760212536f6197d70f51" target="_top" xlink:title=" ">
<polygon fill="white" stroke="#666666" points="111.25,-77 0,-77 0,-57 111.25,-57 111.25,-77"/>
<text text-anchor="middle" x="55.62" y="-63.5" font-family="Helvetica,sans-Serif" font-size="10.00">ListToken::addTokens</text>
</a>
</g>
</g>
<!-- Node3&#45;&gt;Node4 -->
<g id="edge3_Node000003_Node000004" class="edge">
<title>Node3&#45;&gt;Node4</title>
<g id="a_edge3_Node000003_Node000004"><a xlink:title=" ">
<path fill="none" stroke="#63b8ff" d="M135.69,-67C127.52,-67 119.35,-67 111.53,-67"/>
<polygon fill="#63b8ff" stroke="#63b8ff" points="135.67,-70.5 145.67,-67 135.67,-63.5 135.67,-70.5"/>
</a>
</g>
</g>
<!-- Node7&#45;&gt;Node3 -->
<g id="edge7_Node000007_Node000003" class="edge">
<title>Node7&#45;&gt;Node3</title>
<g id="a_edge7_Node000007_Node000003"><a xlink:title=" ">
<path fill="none" stroke="#63b8ff" d="M336.55,-23.53C330.44,-25.29 324.32,-27.13 318.5,-29 292.27,-37.42 262.83,-48.49 242.23,-56.51"/>
<polygon fill="#63b8ff" stroke="#63b8ff" points="337.32,-26.95 345.99,-20.86 335.42,-20.21 337.32,-26.95"/>
</a>
</g>
</g>
</g>
</svg>

<g id="navigator" transform="translate(0 0)" fill="#404254">
  <rect fill="#f2f5e9" fill-opacity="0.5" stroke="#606060" stroke-width=".5" x="0" y="0" width="60" height="60"/>
  <use id="zoomplus" xlink:href="#zoomPlus" x="17" y="9" onmousedown="handleZoom(evt,'in')"/>
  <use id="zoomminus" xlink:href="#zoomMin" x="42" y="9" onmousedown="handleZoom(evt,'out')"/>
  <use id="reset" xlink:href="#resetDef" x="30" y="36" onmousedown="handleReset()"/>
   <use id="arrowup" xlink:href="#arrowUp" x="0" y="0" onmousedown="handlePan(0,-1)"/>
  <use id="arrowright" xlink:href="#arrowRight" x="0" y="0" onmousedown="handlePan(1,0)"/>
  <use id="arrowdown" xlink:href="#arrowDown" x="0" y="0" onmousedown="handlePan(0,1)"/>
  <use id="arrowleft" xlink:href="#arrowLeft" x="0" y="0" onmousedown="handlePan(-1,0)"/>
</g>
<svg viewBox="0 0 15 15" width="100%" height="30px" preserveAspectRatio="xMaxYMin meet">
 <g id="arrow_out" transform="scale(0.3 0.3)">
  <a xlink:href="class_template_token_a3d79f7926bda1d8b49a3f12d6ff615b0_icgraph_org.svg" target="_base">
   <rect id="button" ry="5" rx="5" y="6" x="6" height="38" width="38"
        fill="#f2f5e9" fill-opacity="0.5" stroke="#606060" stroke-width="1.0"/>
   <path id="arrow"
     d="M 11.500037,31.436501 C 11.940474,20.09759 22.043105,11.32322 32.158766,21.979434 L 37.068811,17.246167 C 37.068811,17.246167 37.088388,32 37.088388,32 L 22.160133,31.978069 C 22.160133,31.978069 26.997745,27.140456 26.997745,27.140456 C 18.528582,18.264221 13.291696,25.230495 11.500037,31.436501 z"
     style="fill:#404040;"/>
  </a>
 </g>
</svg>

<style type='text/css'>
<![CDATA[
[data-mouse-over-selected='false'] { opacity: 0.7; }
[data-mouse-over-selected='true']  { opacity: 1.0; }
]]>
</style>
<script type="application/ecmascript"><![CDATA[
document.addEventListener('DOMContentLoaded', (event) => {
  highlightEdges();
  highlightAdjacentNodes();
});
]]></script>
</svg>
