<?xml version="1.0" encoding="UTF-8" standalone="no"?>
<!DOCTYPE svg PUBLIC "-//W3C//DTD SVG 1.1//EN"
 "http://www.w3.org/Graphics/SVG/1.1/DTD/svg11.dtd">
<!-- Generated by graphviz version 12.2.0 (20241103.1931)
 -->
<!-- Title: TemplateToken::addInteger Pages: 1 -->
<svg width="613pt" height="104pt"
 viewBox="0.00 0.00 612.75 104.00" xmlns="http://www.w3.org/2000/svg" xmlns:xlink="http://www.w3.org/1999/xlink">
<g id="graph0" class="graph" transform="scale(1 1) rotate(0) translate(4 100)">
<title>TemplateToken::addInteger</title>
<!-- Node1 -->
<g id="Node000001" class="node">
<title>Node1</title>
<g id="a_Node000001"><a xlink:title=" ">
<polygon fill="#999999" stroke="#666666" points="133.75,-58 0,-58 0,-38 133.75,-38 133.75,-58"/>
<text text-anchor="middle" x="66.88" y="-44.5" font-family="Helvetica,sans-Serif" font-size="10.00">TemplateToken::addInteger</text>
</a>
</g>
</g>
<!-- Node2 -->
<g id="Node000002" class="node">
<title>Node2</title>
<g id="a_Node000002"><a xlink:href="class_template_token.html#ac4146f0f59ba02482abb40679265e21d" target="_top" xlink:title=" ">
<polygon fill="white" stroke="#666666" points="294.5,-58 169.75,-58 169.75,-38 294.5,-38 294.5,-58"/>
<text text-anchor="middle" x="232.12" y="-44.5" font-family="Helvetica,sans-Serif" font-size="10.00">TemplateToken::addType</text>
</a>
</g>
</g>
<!-- Node1&#45;&gt;Node2 -->
<g id="edge1_Node000001_Node000002" class="edge">
<title>Node1&#45;&gt;Node2</title>
<g id="a_edge1_Node000001_Node000002"><a xlink:title=" ">
<path fill="none" stroke="#63b8ff" d="M133.8,-48C141.8,-48 150.01,-48 158.11,-48"/>
<polygon fill="#63b8ff" stroke="#63b8ff" points="157.93,-51.5 167.93,-48 157.93,-44.5 157.93,-51.5"/>
</a>
</g>
</g>
<!-- Node3 -->
<g id="Node000003" class="node">
<title>Node3</title>
<g id="a_Node000003"><a xlink:href="class_template_token.html#ad981d8ad4aeb0162d344d334ff3ac0f3" target="_top" xlink:title=" ">
<polygon fill="white" stroke="#666666" points="455.25,-96 330.5,-96 330.5,-76 455.25,-76 455.25,-96"/>
<text text-anchor="middle" x="392.88" y="-82.5" font-family="Helvetica,sans-Serif" font-size="10.00">TemplateToken::addError</text>
</a>
</g>
</g>
<!-- Node2&#45;&gt;Node3 -->
<g id="edge2_Node000002_Node000003" class="edge">
<title>Node2&#45;&gt;Node3</title>
<g id="a_edge2_Node000002_Node000003"><a xlink:title=" ">
<path fill="none" stroke="#63b8ff" d="M276.92,-58.48C295.58,-62.95 317.53,-68.21 337.23,-72.92"/>
<polygon fill="#63b8ff" stroke="#63b8ff" points="336.21,-76.27 346.75,-75.2 337.84,-69.47 336.21,-76.27"/>
</a>
</g>
</g>
<!-- Node5 -->
<g id="Node000005" class="node">
<title>Node5</title>
<g id="a_Node000005"><a xlink:href="class_iterator_list.html#a4acf162e4a194bddd3c2fe26b073f45a" target="_top" xlink:title=" ">
<polygon fill="white" stroke="#666666" points="455.25,-58 330.5,-58 330.5,-38 455.25,-38 455.25,-58"/>
<text text-anchor="middle" x="392.88" y="-44.5" font-family="Helvetica,sans-Serif" font-size="10.00">IteratorList::currentToken</text>
</a>
</g>
</g>
<!-- Node2&#45;&gt;Node5 -->
<g id="edge4_Node000002_Node000005" class="edge">
<title>Node2&#45;&gt;Node5</title>
<g id="a_edge4_Node000002_Node000005"><a xlink:title=" ">
<path fill="none" stroke="#63b8ff" d="M294.96,-48C302.83,-48 310.94,-48 318.96,-48"/>
<polygon fill="#63b8ff" stroke="#63b8ff" points="318.7,-51.5 328.7,-48 318.7,-44.5 318.7,-51.5"/>
</a>
</g>
</g>
<!-- Node6 -->
<g id="Node000006" class="node">
<title>Node6</title>
<g id="a_Node000006"><a xlink:href="class_iterator_list.html#a2ebc1118094754b7d333b0a9d257d12b" target="_top" xlink:title=" ">
<polygon fill="white" stroke="#666666" points="440.25,-20 345.5,-20 345.5,0 440.25,0 440.25,-20"/>
<text text-anchor="middle" x="392.88" y="-6.5" font-family="Helvetica,sans-Serif" font-size="10.00">IteratorList::ended</text>
</a>
</g>
</g>
<!-- Node2&#45;&gt;Node6 -->
<g id="edge5_Node000002_Node000006" class="edge">
<title>Node2&#45;&gt;Node6</title>
<g id="a_edge5_Node000002_Node000006"><a xlink:title=" ">
<path fill="none" stroke="#63b8ff" d="M276.92,-37.52C295.58,-33.05 317.53,-27.79 337.23,-23.08"/>
<polygon fill="#63b8ff" stroke="#63b8ff" points="337.84,-26.53 346.75,-20.8 336.21,-19.73 337.84,-26.53"/>
</a>
</g>
</g>
<!-- Node4 -->
<g id="Node000004" class="node">
<title>Node4</title>
<g id="a_Node000004"><a xlink:href="class_token_result.html#af997915a62dcb5643b9d61b78a22c9f4" target="_top" xlink:title=" ">
<polygon fill="white" stroke="#666666" points="604.75,-96 491.25,-96 491.25,-76 604.75,-76 604.75,-96"/>
<text text-anchor="middle" x="548" y="-82.5" font-family="Helvetica,sans-Serif" font-size="10.00">TokenResult::addError</text>
</a>
</g>
</g>
<!-- Node3&#45;&gt;Node4 -->
<g id="edge3_Node000003_Node000004" class="edge">
<title>Node3&#45;&gt;Node4</title>
<g id="a_edge3_Node000003_Node000004"><a xlink:title=" ">
<path fill="none" stroke="#63b8ff" d="M455.72,-86C463.52,-86 471.54,-86 479.43,-86"/>
<polygon fill="#63b8ff" stroke="#63b8ff" points="479.35,-89.5 489.35,-86 479.35,-82.5 479.35,-89.5"/>
</a>
</g>
</g>
</g>
</svg>
