<?xml version="1.0" encoding="UTF-8" standalone="no"?>
<!DOCTYPE svg PUBLIC "-//W3C//DTD SVG 1.1//EN"
 "http://www.w3.org/Graphics/SVG/1.1/DTD/svg11.dtd">
<!-- Generated by graphviz version 12.2.0 (20241103.1931)
 -->
<!-- Title: BoolToken Pages: 1 -->
<!--zoomable 1468 -->

<svg id="main" version="1.1" xmlns="http://www.w3.org/2000/svg" xmlns:xlink="http://www.w3.org/1999/xlink" xml:space="preserve" onload="init(evt)">

<style type="text/css"><![CDATA[
.node, .edge {opacity: 0.7;}
.node.selected, .edge.selected {opacity: 1;}
.edge:hover path { stroke: red; }
.edge:hover polygon { stroke: red; fill: red; }
]]></style>

<defs>
  <circle id="rim" cx="0" cy="0" r="7"/>
  <circle id="rim2" cx="0" cy="0" r="3.5"/>
  <g id="zoomPlus">
    <use xlink:href="#rim" fill="#404040"><set attributeName="fill" to="#808080" begin="zoomplus.mouseover" end="zoomplus.mouseout"/></use>
    <path d="M-4,0h8M0,-4v8" fill="none" stroke="white" stroke-width="1.5" pointer-events="none"/>
  </g>
  <g id="zoomMin">
    <use xlink:href="#rim" fill="#404040"><set attributeName="fill" to="#808080" begin="zoomminus.mouseover" end="zoomminus.mouseout"/></use>
    <path d="M-4,0h8" fill="none" stroke="white" stroke-width="1.5" pointer-events="none"/>
  </g>
  <g id="arrowUp" transform="translate(30 24)">
    <use xlink:href="#rim"/>
    <path pointer-events="none" fill="none" stroke="white" stroke-width="1.5" d="M0,-3.0v7 M-2.5,-0.5L0,-3.0L2.5,-0.5"/>
  </g>
  <g id="arrowRight" transform="rotate(90) translate(36 -43)">
    <use xlink:href="#rim"/>
    <path pointer-events="none" fill="none" stroke="white" stroke-width="1.5" d="M0,-3.0v7 M-2.5,-0.5L0,-3.0L2.5,-0.5"/>
  </g>
  <g id="arrowDown" transform="rotate(180) translate(-30 -48)">
    <use xlink:href="#rim"/>
    <path pointer-events="none" fill="none" stroke="white" stroke-width="1.5" d="M0,-3.0v7 M-2.5,-0.5L0,-3.0L2.5,-0.5"/>
  </g>
  <g id="arrowLeft" transform="rotate(270) translate(-36 17)">
    <use xlink:href="#rim"/>
    <path pointer-events="none" fill="none" stroke="white" stroke-width="1.5" d="M0,-3.0v7 M-2.5,-0.5L0,-3.0L2.5,-0.5"/>
  </g>
  <g id="resetDef">
    <use xlink:href="#rim2" fill="#404040"><set attributeName="fill" to="#808080" begin="reset.mouseover" end="reset.mouseout"/></use>
  </g>
</defs>
<script type="application/ecmascript">
var viewWidth = 194;
var viewHeight = 1468;
var sectionId = 'dynsection-0';
</script>
<script type="application/ecmascript" xlink:href="svg.min.js"/>
<svg id="graph" class="graph">
<g id="viewport">
<title>BoolToken</title>
<!-- Node1 -->
<g id="Node000001" class="node">
<title>Node1</title>
<g id="a_Node000001"><a xlink:title=" ">
<polygon fill="#999999" stroke="none" points="159.75,-172 26.25,-172 26.25,0 159.75,0 159.75,-172"/>
<text text-anchor="start" x="70.12" y="-158.5" font-family="Helvetica,sans-Serif" font-size="10.00">BoolToken</text>
<text text-anchor="start" x="30.25" y="-142.5" font-family="Helvetica,sans-Serif" font-size="10.00">+</text>
<text text-anchor="start" x="40.25" y="-142.5" font-family="Helvetica,sans-Serif" font-size="10.00">std::shared_ptr&lt; Token</text>
<text text-anchor="start" x="40.25" y="-130.5" font-family="Helvetica,sans-Serif" font-size="10.00"> &gt; boolToken</text>
<text text-anchor="start" x="30.25" y="-114.5" font-family="Helvetica,sans-Serif" font-size="10.00">+</text>
<text text-anchor="start" x="40.25" y="-114.5" font-family="Helvetica,sans-Serif" font-size="10.00">BoolToken()</text>
<text text-anchor="start" x="30.25" y="-98.5" font-family="Helvetica,sans-Serif" font-size="10.00">+</text>
<text text-anchor="start" x="40.25" y="-98.5" font-family="Helvetica,sans-Serif" font-size="10.00">std::shared_ptr&lt; Token</text>
<text text-anchor="start" x="40.25" y="-86.5" font-family="Helvetica,sans-Serif" font-size="10.00"> &gt; handleCp(IteratorList</text>
<text text-anchor="start" x="40.25" y="-74.5" font-family="Helvetica,sans-Serif" font-size="10.00">&lt; Token &gt; &amp;tl, std::shared</text>
<text text-anchor="start" x="40.25" y="-62.5" font-family="Helvetica,sans-Serif" font-size="10.00">_ptr&lt; TokenResult &gt; tRes)</text>
<text text-anchor="start" x="30.25" y="-46.5" font-family="Helvetica,sans-Serif" font-size="10.00">+</text>
<text text-anchor="start" x="40.25" y="-46.5" font-family="Helvetica,sans-Serif" font-size="10.00">DataType getDataType</text>
<text text-anchor="start" x="40.25" y="-34.5" font-family="Helvetica,sans-Serif" font-size="10.00">() override</text>
<text text-anchor="start" x="30.25" y="-18.5" font-family="Helvetica,sans-Serif" font-size="10.00">+</text>
<text text-anchor="start" x="40.25" y="-18.5" font-family="Helvetica,sans-Serif" font-size="10.00">std::shared_ptr&lt; Tag</text>
<text text-anchor="start" x="40.25" y="-6.5" font-family="Helvetica,sans-Serif" font-size="10.00"> &gt; execute() override</text>
<polygon fill="#666666" stroke="#666666" points="26.25,-154 26.25,-154 159.75,-154 159.75,-154 26.25,-154"/>
<polygon fill="#666666" stroke="#666666" points="26.25,-126 26.25,-126 38.25,-126 38.25,-126 26.25,-126"/>
<polygon fill="#666666" stroke="#666666" points="38.25,-126 38.25,-126 159.75,-126 159.75,-126 38.25,-126"/>
<polygon fill="none" stroke="#666666" points="26.25,0 26.25,-172 159.75,-172 159.75,0 26.25,0"/>
</a>
</g>
</g>
<!-- Node2 -->
<g id="Node000002" class="node">
<title>Node2</title>
<g id="a_Node000002"><a xlink:href="class_e_k_p_token.html" target="_top" xlink:title=" ">
<polygon fill="white" stroke="none" points="178.5,-296 7.5,-296 7.5,-208 178.5,-208 178.5,-296"/>
<text text-anchor="start" x="69.75" y="-282.5" font-family="Helvetica,sans-Serif" font-size="10.00">EKPToken</text>
<text text-anchor="start" x="91.5" y="-266.5" font-family="Helvetica,sans-Serif" font-size="10.00"> </text>
<text text-anchor="start" x="11.5" y="-250.5" font-family="Helvetica,sans-Serif" font-size="10.00">+</text>
<text text-anchor="start" x="21.5" y="-250.5" font-family="Helvetica,sans-Serif" font-size="10.00">std::shared_ptr&lt; TokenResult</text>
<text text-anchor="start" x="21.5" y="-238.5" font-family="Helvetica,sans-Serif" font-size="10.00"> &gt; addTokens(IteratorList</text>
<text text-anchor="start" x="21.5" y="-226.5" font-family="Helvetica,sans-Serif" font-size="10.00">&lt; Token &gt; &amp;tl, std::shared</text>
<text text-anchor="start" x="21.5" y="-214.5" font-family="Helvetica,sans-Serif" font-size="10.00">_ptr&lt; TokenResult &gt; tRes) override</text>
<polygon fill="#666666" stroke="#666666" points="7.5,-278 7.5,-278 178.5,-278 178.5,-278 7.5,-278"/>
<polygon fill="#666666" stroke="#666666" points="7.5,-262 7.5,-262 178.5,-262 178.5,-262 7.5,-262"/>
<polygon fill="none" stroke="#666666" points="7.5,-208 7.5,-296 178.5,-296 178.5,-208 7.5,-208"/>
</a>
</g>
</g>
<!-- Node2&#45;&gt;Node1 -->
<g id="edge1_Node000001_Node000002" class="edge">
<title>Node2&#45;&gt;Node1</title>
<g id="a_edge1_Node000001_Node000002"><a xlink:title=" ">
<path fill="none" stroke="#63b8ff" d="M93,-196.84C93,-188.77 93,-180.28 93,-171.76"/>
<polygon fill="none" stroke="#63b8ff" points="89.5,-196.83 93,-206.83 96.5,-196.83 89.5,-196.83"/>
</a>
</g>
</g>
<!-- Node3 -->
<g id="Node000003" class="node">
<title>Node3</title>
<g id="a_Node000003"><a xlink:href="class_k_p_token.html" target="_top" xlink:title=" ">
<polygon fill="white" stroke="none" points="178.12,-944 7.88,-944 7.88,-332 178.12,-332 178.12,-944"/>
<text text-anchor="start" x="73.12" y="-930.5" font-family="Helvetica,sans-Serif" font-size="10.00">KPToken</text>
<text text-anchor="start" x="91.5" y="-914.5" font-family="Helvetica,sans-Serif" font-size="10.00"> </text>
<text text-anchor="start" x="11.88" y="-898.5" font-family="Helvetica,sans-Serif" font-size="10.00">#</text>
<text text-anchor="start" x="21.12" y="-898.5" font-family="Helvetica,sans-Serif" font-size="10.00">KPToken()</text>
<text text-anchor="start" x="11.88" y="-882.5" font-family="Helvetica,sans-Serif" font-size="10.00">#</text>
<text text-anchor="start" x="21.12" y="-882.5" font-family="Helvetica,sans-Serif" font-size="10.00">std::shared_ptr&lt; TokenResult</text>
<text text-anchor="start" x="21.12" y="-870.5" font-family="Helvetica,sans-Serif" font-size="10.00"> &gt; addTokens(IteratorList</text>
<text text-anchor="start" x="21.12" y="-858.5" font-family="Helvetica,sans-Serif" font-size="10.00">&lt; Token &gt; &amp;tl, std::shared</text>
<text text-anchor="start" x="21.12" y="-846.5" font-family="Helvetica,sans-Serif" font-size="10.00">_ptr&lt; TokenResult &gt; tRes) override</text>
<text text-anchor="start" x="11.88" y="-830.5" font-family="Helvetica,sans-Serif" font-size="10.00">#</text>
<text text-anchor="start" x="21.12" y="-830.5" font-family="Helvetica,sans-Serif" font-size="10.00">std::shared_ptr&lt; Token</text>
<text text-anchor="start" x="21.12" y="-818.5" font-family="Helvetica,sans-Serif" font-size="10.00"> &gt; addNumber(IteratorList</text>
<text text-anchor="start" x="21.12" y="-806.5" font-family="Helvetica,sans-Serif" font-size="10.00">&lt; Token &gt; &amp;tl, std::shared</text>
<text text-anchor="start" x="21.12" y="-794.5" font-family="Helvetica,sans-Serif" font-size="10.00">_ptr&lt; TokenResult &gt; tRes)</text>
<text text-anchor="start" x="11.88" y="-778.5" font-family="Helvetica,sans-Serif" font-size="10.00">#</text>
<text text-anchor="start" x="21.12" y="-778.5" font-family="Helvetica,sans-Serif" font-size="10.00">std::shared_ptr&lt; Token</text>
<text text-anchor="start" x="21.12" y="-766.5" font-family="Helvetica,sans-Serif" font-size="10.00"> &gt; addInteger(IteratorList</text>
<text text-anchor="start" x="21.12" y="-754.5" font-family="Helvetica,sans-Serif" font-size="10.00">&lt; Token &gt; &amp;tl, std::shared</text>
<text text-anchor="start" x="21.12" y="-742.5" font-family="Helvetica,sans-Serif" font-size="10.00">_ptr&lt; TokenResult &gt; tRes)</text>
<text text-anchor="start" x="11.88" y="-726.5" font-family="Helvetica,sans-Serif" font-size="10.00">#</text>
<text text-anchor="start" x="21.12" y="-726.5" font-family="Helvetica,sans-Serif" font-size="10.00">std::shared_ptr&lt; Token</text>
<text text-anchor="start" x="21.12" y="-714.5" font-family="Helvetica,sans-Serif" font-size="10.00"> &gt; addFloat(IteratorList</text>
<text text-anchor="start" x="21.12" y="-702.5" font-family="Helvetica,sans-Serif" font-size="10.00">&lt; Token &gt; &amp;tl, std::shared</text>
<text text-anchor="start" x="21.12" y="-690.5" font-family="Helvetica,sans-Serif" font-size="10.00">_ptr&lt; TokenResult &gt; tRes)</text>
<text text-anchor="start" x="11.88" y="-674.5" font-family="Helvetica,sans-Serif" font-size="10.00">#</text>
<text text-anchor="start" x="21.12" y="-674.5" font-family="Helvetica,sans-Serif" font-size="10.00">std::shared_ptr&lt; Token</text>
<text text-anchor="start" x="21.12" y="-662.5" font-family="Helvetica,sans-Serif" font-size="10.00"> &gt; addCoord(IteratorList</text>
<text text-anchor="start" x="21.12" y="-650.5" font-family="Helvetica,sans-Serif" font-size="10.00">&lt; Token &gt; &amp;tl, std::shared</text>
<text text-anchor="start" x="21.12" y="-638.5" font-family="Helvetica,sans-Serif" font-size="10.00">_ptr&lt; TokenResult &gt; tRes)</text>
<text text-anchor="start" x="11.88" y="-622.5" font-family="Helvetica,sans-Serif" font-size="10.00">#</text>
<text text-anchor="start" x="21.12" y="-622.5" font-family="Helvetica,sans-Serif" font-size="10.00">std::shared_ptr&lt; Token</text>
<text text-anchor="start" x="21.12" y="-610.5" font-family="Helvetica,sans-Serif" font-size="10.00"> &gt; addString(IteratorList</text>
<text text-anchor="start" x="21.12" y="-598.5" font-family="Helvetica,sans-Serif" font-size="10.00">&lt; Token &gt; &amp;tl, std::shared</text>
<text text-anchor="start" x="21.12" y="-586.5" font-family="Helvetica,sans-Serif" font-size="10.00">_ptr&lt; TokenResult &gt; tRes)</text>
<text text-anchor="start" x="11.88" y="-570.5" font-family="Helvetica,sans-Serif" font-size="10.00">#</text>
<text text-anchor="start" x="21.12" y="-570.5" font-family="Helvetica,sans-Serif" font-size="10.00">std::shared_ptr&lt; Token</text>
<text text-anchor="start" x="21.12" y="-558.5" font-family="Helvetica,sans-Serif" font-size="10.00"> &gt; addComma(IteratorList</text>
<text text-anchor="start" x="21.12" y="-546.5" font-family="Helvetica,sans-Serif" font-size="10.00">&lt; Token &gt; &amp;tl)</text>
<text text-anchor="start" x="11.88" y="-530.5" font-family="Helvetica,sans-Serif" font-size="10.00">#</text>
<text text-anchor="start" x="21.12" y="-530.5" font-family="Helvetica,sans-Serif" font-size="10.00">std::shared_ptr&lt; Token</text>
<text text-anchor="start" x="21.12" y="-518.5" font-family="Helvetica,sans-Serif" font-size="10.00"> &gt; addTimeType(IteratorList</text>
<text text-anchor="start" x="21.12" y="-506.5" font-family="Helvetica,sans-Serif" font-size="10.00">&lt; Token &gt; &amp;tl, std::shared</text>
<text text-anchor="start" x="21.12" y="-494.5" font-family="Helvetica,sans-Serif" font-size="10.00">_ptr&lt; TokenResult &gt; tRes)</text>
<text text-anchor="start" x="11.88" y="-478.5" font-family="Helvetica,sans-Serif" font-size="10.00">#</text>
<text text-anchor="start" x="21.12" y="-478.5" font-family="Helvetica,sans-Serif" font-size="10.00">std::shared_ptr&lt; Token</text>
<text text-anchor="start" x="21.12" y="-466.5" font-family="Helvetica,sans-Serif" font-size="10.00"> &gt; addOp(IteratorList</text>
<text text-anchor="start" x="21.12" y="-454.5" font-family="Helvetica,sans-Serif" font-size="10.00">&lt; Token &gt; &amp;tl)</text>
<text text-anchor="start" x="11.88" y="-438.5" font-family="Helvetica,sans-Serif" font-size="10.00">#</text>
<text text-anchor="start" x="21.12" y="-438.5" font-family="Helvetica,sans-Serif" font-size="10.00">std::shared_ptr&lt; Token</text>
<text text-anchor="start" x="21.12" y="-426.5" font-family="Helvetica,sans-Serif" font-size="10.00"> &gt; addCp(IteratorList</text>
<text text-anchor="start" x="21.12" y="-414.5" font-family="Helvetica,sans-Serif" font-size="10.00">&lt; Token &gt; &amp;tl, std::shared</text>
<text text-anchor="start" x="21.12" y="-402.5" font-family="Helvetica,sans-Serif" font-size="10.00">_ptr&lt; TokenResult &gt; tRes)</text>
<text text-anchor="start" x="11.88" y="-386.5" font-family="Helvetica,sans-Serif" font-size="10.00">#</text>
<text text-anchor="start" x="21.12" y="-386.5" font-family="Helvetica,sans-Serif" font-size="10.00">virtual std::shared</text>
<text text-anchor="start" x="21.12" y="-374.5" font-family="Helvetica,sans-Serif" font-size="10.00">_ptr&lt; Token &gt; handleCp</text>
<text text-anchor="start" x="21.12" y="-362.5" font-family="Helvetica,sans-Serif" font-size="10.00">(IteratorList&lt; Token &gt;</text>
<text text-anchor="start" x="21.12" y="-350.5" font-family="Helvetica,sans-Serif" font-size="10.00"> &amp;tl, std::shared_ptr&lt;</text>
<text text-anchor="start" x="21.12" y="-338.5" font-family="Helvetica,sans-Serif" font-size="10.00"> TokenResult &gt; tRes)</text>
<polygon fill="#666666" stroke="#666666" points="7.88,-926 7.88,-926 178.12,-926 178.12,-926 7.88,-926"/>
<polygon fill="#666666" stroke="#666666" points="7.88,-910 7.88,-910 178.12,-910 178.12,-910 7.88,-910"/>
<polygon fill="none" stroke="#666666" points="7.88,-332 7.88,-944 178.12,-944 178.12,-332 7.88,-332"/>
</a>
</g>
</g>
<!-- Node3&#45;&gt;Node2 -->
<g id="edge2_Node000002_Node000003" class="edge">
<title>Node3&#45;&gt;Node2</title>
<g id="a_edge2_Node000002_Node000003"><a xlink:title=" ">
<path fill="none" stroke="#63b8ff" d="M93,-320.77C93,-311.74 93,-303.35 93,-295.77"/>
<polygon fill="none" stroke="#63b8ff" points="89.5,-320.59 93,-330.59 96.5,-320.59 89.5,-320.59"/>
</a>
</g>
</g>
<!-- Node4 -->
<g id="Node000004" class="node">
<title>Node4</title>
<g id="a_Node000004"><a xlink:href="class_k_token.html" target="_top" xlink:title=" ">
<polygon fill="white" stroke="none" points="113.5,-1032 72.5,-1032 72.5,-980 113.5,-980 113.5,-1032"/>
<text text-anchor="start" x="76.5" y="-1018.5" font-family="Helvetica,sans-Serif" font-size="10.00">KToken</text>
<text text-anchor="start" x="91.5" y="-1002.5" font-family="Helvetica,sans-Serif" font-size="10.00"> </text>
<text text-anchor="start" x="91.5" y="-986.5" font-family="Helvetica,sans-Serif" font-size="10.00"> </text>
<polygon fill="#666666" stroke="#666666" points="72.5,-1014 72.5,-1014 113.5,-1014 113.5,-1014 72.5,-1014"/>
<polygon fill="#666666" stroke="#666666" points="72.5,-998 72.5,-998 113.5,-998 113.5,-998 72.5,-998"/>
<polygon fill="none" stroke="#666666" points="72.5,-980 72.5,-1032 113.5,-1032 113.5,-980 72.5,-980"/>
</a>
</g>
</g>
<!-- Node4&#45;&gt;Node3 -->
<g id="edge3_Node000003_Node000004" class="edge">
<title>Node4&#45;&gt;Node3</title>
<g id="a_edge3_Node000003_Node000004"><a xlink:title=" ">
<path fill="none" stroke="#63b8ff" d="M93,-968.88C93,-961.44 93,-953.05 93,-943.91"/>
<polygon fill="none" stroke="#63b8ff" points="89.5,-968.62 93,-978.62 96.5,-968.62 89.5,-968.62"/>
</a>
</g>
</g>
<!-- Node5 -->
<g id="Node000005" class="node">
<title>Node5</title>
<g id="a_Node000005"><a xlink:href="class_token.html" target="_top" xlink:title=" ">
<polygon fill="white" stroke="none" points="186,-1460 0,-1460 0,-1068 186,-1068 186,-1460"/>
<text text-anchor="start" x="79.88" y="-1446.5" font-family="Helvetica,sans-Serif" font-size="10.00">Token</text>
<text text-anchor="start" x="4" y="-1430.5" font-family="Helvetica,sans-Serif" font-size="10.00">+</text>
<text text-anchor="start" x="14" y="-1430.5" font-family="Helvetica,sans-Serif" font-size="10.00">std::string tokenText</text>
<text text-anchor="start" x="4" y="-1414.5" font-family="Helvetica,sans-Serif" font-size="10.00">+</text>
<text text-anchor="start" x="14" y="-1414.5" font-family="Helvetica,sans-Serif" font-size="10.00">TokenVALUE tValue</text>
<text text-anchor="start" x="4" y="-1398.5" font-family="Helvetica,sans-Serif" font-size="10.00">+</text>
<text text-anchor="start" x="14" y="-1398.5" font-family="Helvetica,sans-Serif" font-size="10.00">std::shared_ptr&lt; TokenResult</text>
<text text-anchor="start" x="14" y="-1386.5" font-family="Helvetica,sans-Serif" font-size="10.00"> &gt; tRes</text>
<text text-anchor="start" x="4" y="-1370.5" font-family="Helvetica,sans-Serif" font-size="10.00">+</text>
<text text-anchor="start" x="14" y="-1370.5" font-family="Helvetica,sans-Serif" font-size="10.00">int line</text>
<text text-anchor="start" x="4" y="-1354.5" font-family="Helvetica,sans-Serif" font-size="10.00">+</text>
<text text-anchor="start" x="14" y="-1354.5" font-family="Helvetica,sans-Serif" font-size="10.00">Token()</text>
<text text-anchor="start" x="4" y="-1338.5" font-family="Helvetica,sans-Serif" font-size="10.00">+</text>
<text text-anchor="start" x="14" y="-1338.5" font-family="Helvetica,sans-Serif" font-size="10.00">std::shared_ptr&lt; TokenResult</text>
<text text-anchor="start" x="14" y="-1326.5" font-family="Helvetica,sans-Serif" font-size="10.00"> &gt; updateRes(std::shared</text>
<text text-anchor="start" x="14" y="-1314.5" font-family="Helvetica,sans-Serif" font-size="10.00">_ptr&lt; TokenResult &gt; tRes)</text>
<text text-anchor="start" x="4" y="-1298.5" font-family="Helvetica,sans-Serif" font-size="10.00">+</text>
<text text-anchor="start" x="14" y="-1298.5" font-family="Helvetica,sans-Serif" font-size="10.00">std::shared_ptr&lt; TokenResult</text>
<text text-anchor="start" x="14" y="-1286.5" font-family="Helvetica,sans-Serif" font-size="10.00"> &gt; addError(TokenVALUE value,</text>
<text text-anchor="start" x="14" y="-1274.5" font-family="Helvetica,sans-Serif" font-size="10.00"> ErrorType et=ErrorType::MISSING)</text>
<text text-anchor="start" x="4" y="-1258.5" font-family="Helvetica,sans-Serif" font-size="10.00">+</text>
<text text-anchor="start" x="14" y="-1258.5" font-family="Helvetica,sans-Serif" font-size="10.00">std::shared_ptr&lt; TokenResult</text>
<text text-anchor="start" x="14" y="-1246.5" font-family="Helvetica,sans-Serif" font-size="10.00"> &gt; addError(const std::shared</text>
<text text-anchor="start" x="14" y="-1234.5" font-family="Helvetica,sans-Serif" font-size="10.00">_ptr&lt; TokenResult &gt; &amp;tr)</text>
<text text-anchor="start" x="4" y="-1218.5" font-family="Helvetica,sans-Serif" font-size="10.00">+</text>
<text text-anchor="start" x="14" y="-1218.5" font-family="Helvetica,sans-Serif" font-size="10.00">std::shared_ptr&lt; TokenResult</text>
<text text-anchor="start" x="14" y="-1206.5" font-family="Helvetica,sans-Serif" font-size="10.00"> &gt; addError(DataType type,</text>
<text text-anchor="start" x="14" y="-1194.5" font-family="Helvetica,sans-Serif" font-size="10.00"> ErrorType et=ErrorType::REPLACED)</text>
<text text-anchor="start" x="4" y="-1178.5" font-family="Helvetica,sans-Serif" font-size="10.00">+</text>
<text text-anchor="start" x="14" y="-1178.5" font-family="Helvetica,sans-Serif" font-size="10.00">virtual DataType getData</text>
<text text-anchor="start" x="14" y="-1166.5" font-family="Helvetica,sans-Serif" font-size="10.00">Type()</text>
<text text-anchor="start" x="4" y="-1150.5" font-family="Helvetica,sans-Serif" font-size="10.00">+</text>
<text text-anchor="start" x="14" y="-1150.5" font-family="Helvetica,sans-Serif" font-size="10.00">virtual std::shared</text>
<text text-anchor="start" x="14" y="-1138.5" font-family="Helvetica,sans-Serif" font-size="10.00">_ptr&lt; TokenResult &gt;</text>
<text text-anchor="start" x="14" y="-1126.5" font-family="Helvetica,sans-Serif" font-size="10.00"> addTokens(IteratorList</text>
<text text-anchor="start" x="14" y="-1114.5" font-family="Helvetica,sans-Serif" font-size="10.00">&lt; Token &gt; &amp;tl, std::shared</text>
<text text-anchor="start" x="14" y="-1102.5" font-family="Helvetica,sans-Serif" font-size="10.00">_ptr&lt; TokenResult &gt; tRes)</text>
<text text-anchor="start" x="4" y="-1086.5" font-family="Helvetica,sans-Serif" font-size="10.00">+</text>
<text text-anchor="start" x="14" y="-1086.5" font-family="Helvetica,sans-Serif" font-size="10.00">virtual std::shared</text>
<text text-anchor="start" x="14" y="-1074.5" font-family="Helvetica,sans-Serif" font-size="10.00">_ptr&lt; Tag &gt; execute()</text>
<polygon fill="#666666" stroke="#666666" points="0,-1442 0,-1442 186,-1442 186,-1442 0,-1442"/>
<polygon fill="#666666" stroke="#666666" points="0,-1366 0,-1366 12,-1366 12,-1366 0,-1366"/>
<polygon fill="#666666" stroke="#666666" points="12,-1366 12,-1366 186,-1366 186,-1366 12,-1366"/>
<polygon fill="none" stroke="#666666" points="0,-1068 0,-1460 186,-1460 186,-1068 0,-1068"/>
</a>
</g>
</g>
<!-- Node5&#45;&gt;Node4 -->
<g id="edge4_Node000004_Node000005" class="edge">
<title>Node5&#45;&gt;Node4</title>
<g id="a_edge4_Node000004_Node000005"><a xlink:title=" ">
<path fill="none" stroke="#63b8ff" d="M93,-1056.91C93,-1047.53 93,-1039.06 93,-1031.87"/>
<polygon fill="none" stroke="#63b8ff" points="89.5,-1056.8 93,-1066.8 96.5,-1056.8 89.5,-1056.8"/>
</a>
</g>
</g>
</g>
</svg>

<g id="navigator" transform="translate(0 0)" fill="#404254">
  <rect fill="#f2f5e9" fill-opacity="0.5" stroke="#606060" stroke-width=".5" x="0" y="0" width="60" height="60"/>
  <use id="zoomplus" xlink:href="#zoomPlus" x="17" y="9" onmousedown="handleZoom(evt,'in')"/>
  <use id="zoomminus" xlink:href="#zoomMin" x="42" y="9" onmousedown="handleZoom(evt,'out')"/>
  <use id="reset" xlink:href="#resetDef" x="30" y="36" onmousedown="handleReset()"/>
   <use id="arrowup" xlink:href="#arrowUp" x="0" y="0" onmousedown="handlePan(0,-1)"/>
  <use id="arrowright" xlink:href="#arrowRight" x="0" y="0" onmousedown="handlePan(1,0)"/>
  <use id="arrowdown" xlink:href="#arrowDown" x="0" y="0" onmousedown="handlePan(0,1)"/>
  <use id="arrowleft" xlink:href="#arrowLeft" x="0" y="0" onmousedown="handlePan(-1,0)"/>
</g>
<svg viewBox="0 0 15 15" width="100%" height="30px" preserveAspectRatio="xMaxYMin meet">
 <g id="arrow_out" transform="scale(0.3 0.3)">
  <a xlink:href="class_bool_token__inherit__graph_org.svg" target="_base">
   <rect id="button" ry="5" rx="5" y="6" x="6" height="38" width="38"
        fill="#f2f5e9" fill-opacity="0.5" stroke="#606060" stroke-width="1.0"/>
   <path id="arrow"
     d="M 11.500037,31.436501 C 11.940474,20.09759 22.043105,11.32322 32.158766,21.979434 L 37.068811,17.246167 C 37.068811,17.246167 37.088388,32 37.088388,32 L 22.160133,31.978069 C 22.160133,31.978069 26.997745,27.140456 26.997745,27.140456 C 18.528582,18.264221 13.291696,25.230495 11.500037,31.436501 z"
     style="fill:#404040;"/>
  </a>
 </g>
</svg>

<style type='text/css'>
<![CDATA[
[data-mouse-over-selected='false'] { opacity: 0.7; }
[data-mouse-over-selected='true']  { opacity: 1.0; }
]]>
</style>
<script type="application/ecmascript"><![CDATA[
document.addEventListener('DOMContentLoaded', (event) => {
  highlightEdges();
  highlightAdjacentNodes();
});
]]></script>
</svg>
