<?xml version="1.0" encoding="UTF-8" standalone="no"?>
<!DOCTYPE svg PUBLIC "-//W3C//DTD SVG 1.1//EN"
 "http://www.w3.org/Graphics/SVG/1.1/DTD/svg11.dtd">
<!-- Generated by graphviz version 12.2.0 (20241103.1931)
 -->
<!-- Title: LDPlayer::waitForInstance Pages: 1 -->
<!--zoomable 189 -->

<svg id="main" version="1.1" xmlns="http://www.w3.org/2000/svg" xmlns:xlink="http://www.w3.org/1999/xlink" xml:space="preserve" onload="init(evt)">

<style type="text/css"><![CDATA[
.node, .edge {opacity: 0.7;}
.node.selected, .edge.selected {opacity: 1;}
.edge:hover path { stroke: red; }
.edge:hover polygon { stroke: red; fill: red; }
]]></style>

<defs>
  <circle id="rim" cx="0" cy="0" r="7"/>
  <circle id="rim2" cx="0" cy="0" r="3.5"/>
  <g id="zoomPlus">
    <use xlink:href="#rim" fill="#404040"><set attributeName="fill" to="#808080" begin="zoomplus.mouseover" end="zoomplus.mouseout"/></use>
    <path d="M-4,0h8M0,-4v8" fill="none" stroke="white" stroke-width="1.5" pointer-events="none"/>
  </g>
  <g id="zoomMin">
    <use xlink:href="#rim" fill="#404040"><set attributeName="fill" to="#808080" begin="zoomminus.mouseover" end="zoomminus.mouseout"/></use>
    <path d="M-4,0h8" fill="none" stroke="white" stroke-width="1.5" pointer-events="none"/>
  </g>
  <g id="arrowUp" transform="translate(30 24)">
    <use xlink:href="#rim"/>
    <path pointer-events="none" fill="none" stroke="white" stroke-width="1.5" d="M0,-3.0v7 M-2.5,-0.5L0,-3.0L2.5,-0.5"/>
  </g>
  <g id="arrowRight" transform="rotate(90) translate(36 -43)">
    <use xlink:href="#rim"/>
    <path pointer-events="none" fill="none" stroke="white" stroke-width="1.5" d="M0,-3.0v7 M-2.5,-0.5L0,-3.0L2.5,-0.5"/>
  </g>
  <g id="arrowDown" transform="rotate(180) translate(-30 -48)">
    <use xlink:href="#rim"/>
    <path pointer-events="none" fill="none" stroke="white" stroke-width="1.5" d="M0,-3.0v7 M-2.5,-0.5L0,-3.0L2.5,-0.5"/>
  </g>
  <g id="arrowLeft" transform="rotate(270) translate(-36 17)">
    <use xlink:href="#rim"/>
    <path pointer-events="none" fill="none" stroke="white" stroke-width="1.5" d="M0,-3.0v7 M-2.5,-0.5L0,-3.0L2.5,-0.5"/>
  </g>
  <g id="resetDef">
    <use xlink:href="#rim2" fill="#404040"><set attributeName="fill" to="#808080" begin="reset.mouseover" end="reset.mouseout"/></use>
  </g>
</defs>
<script type="application/ecmascript">
var viewWidth = 779;
var viewHeight = 189;
var sectionId = 'dynsection-48';
</script>
<script type="application/ecmascript" xlink:href="svg.min.js"/>
<svg id="graph" class="graph">
<g id="viewport">
<title>LDPlayer::waitForInstance</title>
<!-- Node1 -->
<g id="Node000001" class="node">
<title>Node1</title>
<g id="a_Node000001"><a xlink:title=" ">
<polygon fill="#999999" stroke="#666666" points="132.25,-77 0,-77 0,-57 132.25,-57 132.25,-77"/>
<text text-anchor="middle" x="66.12" y="-63.5" font-family="Helvetica,sans-Serif" font-size="10.00">LDPlayer::waitForInstance</text>
</a>
</g>
</g>
<!-- Node2 -->
<g id="Node000002" class="node">
<title>Node2</title>
<g id="a_Node000002"><a xlink:href="class_instance.html#abb8d03ac04893774e93ea06e85338d39" target="_top" xlink:title=" ">
<polygon fill="white" stroke="#666666" points="275.75,-134 168.25,-134 168.25,-114 275.75,-114 275.75,-134"/>
<text text-anchor="middle" x="222" y="-120.5" font-family="Helvetica,sans-Serif" font-size="10.00">Instance::getAdbKey</text>
</a>
</g>
</g>
<!-- Node1&#45;&gt;Node2 -->
<g id="edge1_Node000001_Node000002" class="edge">
<title>Node1&#45;&gt;Node2</title>
<g id="a_edge1_Node000001_Node000002"><a xlink:title=" ">
<path fill="none" stroke="#63b8ff" d="M94.56,-77.42C114.88,-85.12 143.26,-95.8 168.25,-105 172.4,-106.53 176.73,-108.11 181.06,-109.68"/>
<polygon fill="#63b8ff" stroke="#63b8ff" points="179.66,-112.89 190.25,-113 182.04,-106.31 179.66,-112.89"/>
</a>
</g>
</g>
<!-- Node3 -->
<g id="Node000003" class="node">
<title>Node3</title>
<g id="a_Node000003"><a xlink:href="fadb_8cpp.html#a79516629b1f513025235d35602e6b1bc" target="_top" xlink:title=" ">
<polygon fill="white" stroke="#666666" points="272.75,-96 171.25,-96 171.25,-76 272.75,-76 272.75,-96"/>
<text text-anchor="middle" x="222" y="-82.5" font-family="Helvetica,sans-Serif" font-size="10.00">isDeviceConnected</text>
</a>
</g>
</g>
<!-- Node1&#45;&gt;Node3 -->
<g id="edge2_Node000001_Node000003" class="edge">
<title>Node1&#45;&gt;Node3</title>
<g id="a_edge2_Node000001_Node000003"><a xlink:title=" ">
<path fill="none" stroke="#63b8ff" d="M132.38,-75.06C141.48,-76.18 150.8,-77.33 159.83,-78.45"/>
<polygon fill="#63b8ff" stroke="#63b8ff" points="159.2,-81.9 169.55,-79.65 160.05,-74.95 159.2,-81.9"/>
</a>
</g>
</g>
<!-- Node15 -->
<g id="Node000015" class="node">
<title>Node15</title>
<g id="a_Node000015"><a xlink:href="fadb_8cpp.html#a4bcd6ce7d04c38f8c4ff908d1fc50f86" target="_top" xlink:title=" ">
<polygon fill="white" stroke="#666666" points="385.5,-58 326.75,-58 326.75,-38 385.5,-38 385.5,-58"/>
<text text-anchor="middle" x="356.12" y="-44.5" font-family="Helvetica,sans-Serif" font-size="10.00">reconnect</text>
</a>
</g>
</g>
<!-- Node1&#45;&gt;Node15 -->
<g id="edge17_Node000001_Node000015" class="edge">
<title>Node1&#45;&gt;Node15</title>
<g id="a_edge17_Node000001_Node000015"><a xlink:title=" ">
<path fill="none" stroke="#63b8ff" d="M132.48,-62.69C188.63,-58.98 267.79,-53.76 315.03,-50.64"/>
<polygon fill="#63b8ff" stroke="#63b8ff" points="315.06,-54.15 324.81,-50 314.6,-47.17 315.06,-54.15"/>
</a>
</g>
</g>
<!-- Node16 -->
<g id="Node000016" class="node">
<title>Node16</title>
<g id="a_Node000016"><a xlink:href="fadb_8cpp.html#a8a395fe7bffcb7ecdfa451b5b7d8a764" target="_top" xlink:title=" ">
<polygon fill="white" stroke="#666666" points="261.5,-20 182.5,-20 182.5,0 261.5,0 261.5,-20"/>
<text text-anchor="middle" x="222" y="-6.5" font-family="Helvetica,sans-Serif" font-size="10.00">waitForDevice</text>
</a>
</g>
</g>
<!-- Node1&#45;&gt;Node16 -->
<g id="edge19_Node000001_Node000016" class="edge">
<title>Node1&#45;&gt;Node16</title>
<g id="a_edge19_Node000001_Node000016"><a xlink:title=" ">
<path fill="none" stroke="#63b8ff" d="M95.35,-56.55C119.67,-47.53 155.04,-34.43 182.05,-24.43"/>
<polygon fill="#63b8ff" stroke="#63b8ff" points="183.11,-27.77 191.28,-21.01 180.68,-21.2 183.11,-27.77"/>
</a>
</g>
</g>
<!-- Node4 -->
<g id="Node000004" class="node">
<title>Node4</title>
<g id="a_Node000004"><a xlink:href="fadb_8cpp.html#a7e4823979e9efbb71575a23ed2b20bed" target="_top" xlink:title=" ">
<polygon fill="white" stroke="#666666" points="381,-96 331.25,-96 331.25,-76 381,-76 381,-96"/>
<text text-anchor="middle" x="356.12" y="-82.5" font-family="Helvetica,sans-Serif" font-size="10.00">devices</text>
</a>
</g>
</g>
<!-- Node3&#45;&gt;Node4 -->
<g id="edge3_Node000003_Node000004" class="edge">
<title>Node3&#45;&gt;Node4</title>
<g id="a_edge3_Node000003_Node000004"><a xlink:title=" ">
<path fill="none" stroke="#63b8ff" d="M272.95,-86C288.48,-86 305.27,-86 319.61,-86"/>
<polygon fill="#63b8ff" stroke="#63b8ff" points="319.47,-89.5 329.47,-86 319.47,-82.5 319.47,-89.5"/>
</a>
</g>
</g>
<!-- Node9 -->
<g id="Node000009" class="node">
<title>Node9</title>
<g id="a_Node000009"><a xlink:href="_text_manager_8cpp.html#a85a282af68cca7cf7d69487d1bacdc47" target="_top" xlink:title=" ">
<polygon fill="white" stroke="#666666" points="398.25,-134 314,-134 314,-114 398.25,-114 398.25,-134"/>
<text text-anchor="middle" x="356.12" y="-120.5" font-family="Helvetica,sans-Serif" font-size="10.00">extractBetween</text>
</a>
</g>
</g>
<!-- Node3&#45;&gt;Node9 -->
<g id="edge8_Node000003_Node000009" class="edge">
<title>Node3&#45;&gt;Node9</title>
<g id="a_edge8_Node000003_Node000009"><a xlink:title=" ">
<path fill="none" stroke="#63b8ff" d="M259.45,-96.48C274.47,-100.8 292.07,-105.86 308.04,-110.46"/>
<polygon fill="#63b8ff" stroke="#63b8ff" points="306.76,-113.73 317.34,-113.13 308.69,-107 306.76,-113.73"/>
</a>
</g>
</g>
<!-- Node5 -->
<g id="Node000005" class="node">
<title>Node5</title>
<g id="a_Node000005"><a xlink:href="fadb_8cpp.html#a383ae5fedc9f597a03c74c729a2eb740" target="_top" xlink:title=" ">
<polygon fill="white" stroke="#666666" points="501.62,-58 454.88,-58 454.88,-38 501.62,-38 501.62,-58"/>
<text text-anchor="middle" x="478.25" y="-44.5" font-family="Helvetica,sans-Serif" font-size="10.00">runAdb</text>
</a>
</g>
</g>
<!-- Node4&#45;&gt;Node5 -->
<g id="edge4_Node000004_Node000005" class="edge">
<title>Node4&#45;&gt;Node5</title>
<g id="a_edge4_Node000004_Node000005"><a xlink:title=" ">
<path fill="none" stroke="#63b8ff" d="M381.43,-78.31C399.4,-72.63 424.07,-64.82 443.88,-58.56"/>
<polygon fill="#63b8ff" stroke="#63b8ff" points="444.68,-61.97 453.16,-55.62 442.57,-55.3 444.68,-61.97"/>
</a>
</g>
</g>
<!-- Node6 -->
<g id="Node000006" class="node">
<title>Node6</title>
<g id="a_Node000006"><a xlink:href="sys_commands_8cpp.html#a321eb7e335377aa7182bafc8a1605032" target="_top" xlink:title=" ">
<polygon fill="white" stroke="#666666" points="633.88,-58 566.88,-58 566.88,-38 633.88,-38 633.88,-58"/>
<text text-anchor="middle" x="600.38" y="-44.5" font-family="Helvetica,sans-Serif" font-size="10.00">receivePipe</text>
</a>
</g>
</g>
<!-- Node5&#45;&gt;Node6 -->
<g id="edge5_Node000005_Node000006" class="edge">
<title>Node5&#45;&gt;Node6</title>
<g id="a_edge5_Node000005_Node000006"><a xlink:title=" ">
<path fill="none" stroke="#63b8ff" d="M501.84,-48C516.79,-48 536.88,-48 554.94,-48"/>
<polygon fill="#63b8ff" stroke="#63b8ff" points="554.93,-51.5 564.93,-48 554.93,-44.5 554.93,-51.5"/>
</a>
</g>
</g>
<!-- Node7 -->
<g id="Node000007" class="node">
<title>Node7</title>
<g id="a_Node000007"><a xlink:href="sys_commands_8cpp.html#a4771c79171a937893508dabadadbe099" target="_top" xlink:title=" ">
<polygon fill="white" stroke="#666666" points="755.25,-77 696.5,-77 696.5,-57 755.25,-57 755.25,-77"/>
<text text-anchor="middle" x="725.88" y="-63.5" font-family="Helvetica,sans-Serif" font-size="10.00">closePipe</text>
</a>
</g>
</g>
<!-- Node6&#45;&gt;Node7 -->
<g id="edge6_Node000006_Node000007" class="edge">
<title>Node6&#45;&gt;Node7</title>
<g id="a_edge6_Node000006_Node000007"><a xlink:title=" ">
<path fill="none" stroke="#63b8ff" d="M634.15,-53.04C649.82,-55.45 668.72,-58.36 685.2,-60.9"/>
<polygon fill="#63b8ff" stroke="#63b8ff" points="684.25,-64.29 694.66,-62.35 685.31,-57.37 684.25,-64.29"/>
</a>
</g>
</g>
<!-- Node8 -->
<g id="Node000008" class="node">
<title>Node8</title>
<g id="a_Node000008"><a xlink:href="sys_commands_8cpp.html#a3499ce0cd7e4ed28b3c5461a4d3aec84" target="_top" xlink:title=" ">
<polygon fill="white" stroke="#666666" points="754.12,-39 697.62,-39 697.62,-19 754.12,-19 754.12,-39"/>
<text text-anchor="middle" x="725.88" y="-25.5" font-family="Helvetica,sans-Serif" font-size="10.00">openPipe</text>
</a>
</g>
</g>
<!-- Node6&#45;&gt;Node8 -->
<g id="edge7_Node000006_Node000008" class="edge">
<title>Node6&#45;&gt;Node8</title>
<g id="a_edge7_Node000006_Node000008"><a xlink:title=" ">
<path fill="none" stroke="#63b8ff" d="M634.15,-42.96C650.17,-40.49 669.56,-37.51 686.3,-34.93"/>
<polygon fill="#63b8ff" stroke="#63b8ff" points="686.54,-38.44 695.89,-33.46 685.48,-31.52 686.54,-38.44"/>
</a>
</g>
</g>
<!-- Node10 -->
<g id="Node000010" class="node">
<title>Node10</title>
<g id="a_Node000010"><a xlink:href="_text_manager_8cpp.html#a6956d58559ef67f422247fdeb1c22775" target="_top" xlink:title=" ">
<polygon fill="white" stroke="#666666" points="516.25,-134 440.25,-134 440.25,-114 516.25,-114 516.25,-134"/>
<text text-anchor="middle" x="478.25" y="-120.5" font-family="Helvetica,sans-Serif" font-size="10.00">getStringAfter</text>
</a>
</g>
</g>
<!-- Node9&#45;&gt;Node10 -->
<g id="edge9_Node000009_Node000010" class="edge">
<title>Node9&#45;&gt;Node10</title>
<g id="a_edge9_Node000009_Node000010"><a xlink:title=" ">
<path fill="none" stroke="#63b8ff" d="M398.47,-124C408.12,-124 418.5,-124 428.45,-124"/>
<polygon fill="#63b8ff" stroke="#63b8ff" points="428.35,-127.5 438.35,-124 428.35,-120.5 428.35,-127.5"/>
</a>
</g>
</g>
<!-- Node14 -->
<g id="Node000014" class="node">
<title>Node14</title>
<g id="a_Node000014"><a xlink:href="_text_manager_8cpp.html#aff8311b88dbf5f3091f3ac1262543242" target="_top" xlink:title=" ">
<polygon fill="white" stroke="#666666" points="520,-181 436.5,-181 436.5,-161 520,-161 520,-181"/>
<text text-anchor="middle" x="478.25" y="-167.5" font-family="Helvetica,sans-Serif" font-size="10.00">getStringBefore</text>
</a>
</g>
</g>
<!-- Node9&#45;&gt;Node14 -->
<g id="edge15_Node000009_Node000014" class="edge">
<title>Node9&#45;&gt;Node14</title>
<g id="a_edge15_Node000009_Node000014"><a xlink:title=" ">
<path fill="none" stroke="#63b8ff" d="M383.78,-134.43C400.35,-140.91 421.88,-149.34 440.1,-156.47"/>
<polygon fill="#63b8ff" stroke="#63b8ff" points="438.67,-159.66 449.26,-160.05 441.22,-153.14 438.67,-159.66"/>
</a>
</g>
</g>
<!-- Node11 -->
<g id="Node000011" class="node">
<title>Node11</title>
<g id="a_Node000011"><a xlink:href="_text_manager_8cpp.html#a5b66873abcff2faee361721f86b65dd0" target="_top" xlink:title=" ">
<polygon fill="white" stroke="#666666" points="634.25,-96 566.5,-96 566.5,-76 634.25,-76 634.25,-96"/>
<text text-anchor="middle" x="600.38" y="-82.5" font-family="Helvetica,sans-Serif" font-size="10.00">getPosAfter</text>
</a>
</g>
</g>
<!-- Node10&#45;&gt;Node11 -->
<g id="edge10_Node000010_Node000011" class="edge">
<title>Node10&#45;&gt;Node11</title>
<g id="a_edge10_Node000010_Node000011"><a xlink:title=" ">
<path fill="none" stroke="#63b8ff" d="M512.39,-113.52C525.78,-109.28 541.43,-104.33 555.73,-99.81"/>
<polygon fill="#63b8ff" stroke="#63b8ff" points="556.42,-103.26 564.9,-96.91 554.31,-96.59 556.42,-103.26"/>
</a>
</g>
</g>
<!-- Node13 -->
<g id="Node000013" class="node">
<title>Node13</title>
<g id="a_Node000013"><a xlink:href="_text_manager_8cpp.html#a2946b90fb3df56b0a74d53eb4160f4e2" target="_top" xlink:title=" ">
<polygon fill="white" stroke="#666666" points="644.75,-134 556,-134 556,-114 644.75,-114 644.75,-134"/>
<text text-anchor="middle" x="600.38" y="-120.5" font-family="Helvetica,sans-Serif" font-size="10.00">getStringStarting</text>
</a>
</g>
</g>
<!-- Node10&#45;&gt;Node13 -->
<g id="edge12_Node000010_Node000013" class="edge">
<title>Node10&#45;&gt;Node13</title>
<g id="a_edge12_Node000010_Node000013"><a xlink:title=" ">
<path fill="none" stroke="#63b8ff" d="M516.6,-124C525.41,-124 534.99,-124 544.4,-124"/>
<polygon fill="#63b8ff" stroke="#63b8ff" points="544.22,-127.5 554.22,-124 544.22,-120.5 544.22,-127.5"/>
</a>
</g>
</g>
<!-- Node12 -->
<g id="Node000012" class="node">
<title>Node12</title>
<g id="a_Node000012"><a xlink:href="_text_manager_8cpp.html#a3f4afb2b62acd297e783a22ffa9a7000" target="_top" xlink:title=" ">
<polygon fill="white" stroke="#666666" points="771,-134 680.75,-134 680.75,-114 771,-114 771,-134"/>
<text text-anchor="middle" x="725.88" y="-120.5" font-family="Helvetica,sans-Serif" font-size="10.00">getSequencePos</text>
</a>
</g>
</g>
<!-- Node11&#45;&gt;Node12 -->
<g id="edge11_Node000011_Node000012" class="edge">
<title>Node11&#45;&gt;Node12</title>
<g id="a_edge11_Node000011_Node000012"><a xlink:title=" ">
<path fill="none" stroke="#63b8ff" d="M634.47,-96.18C648.5,-100.5 665.06,-105.6 680.16,-110.24"/>
<polygon fill="#63b8ff" stroke="#63b8ff" points="678.79,-113.48 689.38,-113.08 680.85,-106.79 678.79,-113.48"/>
</a>
</g>
</g>
<!-- Node13&#45;&gt;Node12 -->
<g id="edge13_Node000013_Node000012" class="edge">
<title>Node13&#45;&gt;Node12</title>
<g id="a_edge13_Node000013_Node000012"><a xlink:title=" ">
<path fill="none" stroke="#63b8ff" d="M644.92,-124C652.75,-124 661.02,-124 669.14,-124"/>
<polygon fill="#63b8ff" stroke="#63b8ff" points="668.96,-127.5 678.96,-124 668.96,-120.5 668.96,-127.5"/>
</a>
</g>
</g>
<!-- Node13&#45;&gt;Node13 -->
<g id="edge14_Node000013_Node000013" class="edge">
<title>Node13&#45;&gt;Node13</title>
<g id="a_edge14_Node000013_Node000013"><a xlink:title=" ">
<path fill="none" stroke="#63b8ff" d="M580.97,-134.34C572.68,-142.98 579.15,-152 600.38,-152 611.98,-152 619.18,-149.3 621.96,-145.44"/>
<polygon fill="#63b8ff" stroke="#63b8ff" points="625.43,-144.96 620.07,-135.82 618.56,-146.31 625.43,-144.96"/>
</a>
</g>
</g>
<!-- Node14&#45;&gt;Node12 -->
<g id="edge16_Node000014_Node000012" class="edge">
<title>Node14&#45;&gt;Node12</title>
<g id="a_edge16_Node000014_Node000012"><a xlink:title=" ">
<path fill="none" stroke="#63b8ff" d="M520.36,-172.71C554.25,-173.12 603.3,-171.43 644.75,-161 663.04,-156.4 682.27,-147.66 697.31,-139.84"/>
<polygon fill="#63b8ff" stroke="#63b8ff" points="698.97,-142.92 706.11,-135.09 695.65,-136.76 698.97,-142.92"/>
</a>
</g>
</g>
<!-- Node15&#45;&gt;Node5 -->
<g id="edge18_Node000015_Node000005" class="edge">
<title>Node15&#45;&gt;Node5</title>
<g id="a_edge18_Node000015_Node000005"><a xlink:title=" ">
<path fill="none" stroke="#63b8ff" d="M385.9,-48C403.12,-48 425.12,-48 443.2,-48"/>
<polygon fill="#63b8ff" stroke="#63b8ff" points="443.2,-51.5 453.2,-48 443.2,-44.5 443.2,-51.5"/>
</a>
</g>
</g>
<!-- Node17 -->
<g id="Node000017" class="node">
<title>Node17</title>
<g id="a_Node000017"><a xlink:href="fadb_8cpp.html#ac6339b59ba8238f7483dece7f3fdf51b" target="_top" xlink:title=" ">
<polygon fill="white" stroke="#666666" points="400.5,-20 311.75,-20 311.75,0 400.5,0 400.5,-20"/>
<text text-anchor="middle" x="356.12" y="-6.5" font-family="Helvetica,sans-Serif" font-size="10.00">runAdbLocalhost</text>
</a>
</g>
</g>
<!-- Node16&#45;&gt;Node17 -->
<g id="edge20_Node000016_Node000017" class="edge">
<title>Node16&#45;&gt;Node17</title>
<g id="a_edge20_Node000016_Node000017"><a xlink:title=" ">
<path fill="none" stroke="#63b8ff" d="M261.93,-10C273.82,-10 287.12,-10 299.88,-10"/>
<polygon fill="#63b8ff" stroke="#63b8ff" points="299.87,-13.5 309.87,-10 299.87,-6.5 299.87,-13.5"/>
</a>
</g>
</g>
<!-- Node17&#45;&gt;Node5 -->
<g id="edge21_Node000017_Node000005" class="edge">
<title>Node17&#45;&gt;Node5</title>
<g id="a_edge21_Node000017_Node000005"><a xlink:title=" ">
<path fill="none" stroke="#63b8ff" d="M390.27,-20.48C406.86,-25.73 426.9,-32.07 443.56,-37.34"/>
<polygon fill="#63b8ff" stroke="#63b8ff" points="442.44,-40.66 453.03,-40.34 444.55,-33.99 442.44,-40.66"/>
</a>
</g>
</g>
</g>
</svg>

<g id="navigator" transform="translate(0 0)" fill="#404254">
  <rect fill="#f2f5e9" fill-opacity="0.5" stroke="#606060" stroke-width=".5" x="0" y="0" width="60" height="60"/>
  <use id="zoomplus" xlink:href="#zoomPlus" x="17" y="9" onmousedown="handleZoom(evt,'in')"/>
  <use id="zoomminus" xlink:href="#zoomMin" x="42" y="9" onmousedown="handleZoom(evt,'out')"/>
  <use id="reset" xlink:href="#resetDef" x="30" y="36" onmousedown="handleReset()"/>
   <use id="arrowup" xlink:href="#arrowUp" x="0" y="0" onmousedown="handlePan(0,-1)"/>
  <use id="arrowright" xlink:href="#arrowRight" x="0" y="0" onmousedown="handlePan(1,0)"/>
  <use id="arrowdown" xlink:href="#arrowDown" x="0" y="0" onmousedown="handlePan(0,1)"/>
  <use id="arrowleft" xlink:href="#arrowLeft" x="0" y="0" onmousedown="handlePan(-1,0)"/>
</g>
<svg viewBox="0 0 15 15" width="100%" height="30px" preserveAspectRatio="xMaxYMin meet">
 <g id="arrow_out" transform="scale(0.3 0.3)">
  <a xlink:href="class_l_d_player_ac7f410ba33d1ae1f0ee568c4eab53e25_cgraph_org.svg" target="_base">
   <rect id="button" ry="5" rx="5" y="6" x="6" height="38" width="38"
        fill="#f2f5e9" fill-opacity="0.5" stroke="#606060" stroke-width="1.0"/>
   <path id="arrow"
     d="M 11.500037,31.436501 C 11.940474,20.09759 22.043105,11.32322 32.158766,21.979434 L 37.068811,17.246167 C 37.068811,17.246167 37.088388,32 37.088388,32 L 22.160133,31.978069 C 22.160133,31.978069 26.997745,27.140456 26.997745,27.140456 C 18.528582,18.264221 13.291696,25.230495 11.500037,31.436501 z"
     style="fill:#404040;"/>
  </a>
 </g>
</svg>

<style type='text/css'>
<![CDATA[
[data-mouse-over-selected='false'] { opacity: 0.7; }
[data-mouse-over-selected='true']  { opacity: 1.0; }
]]>
</style>
<script type="application/ecmascript"><![CDATA[
document.addEventListener('DOMContentLoaded', (event) => {
  highlightEdges();
  highlightAdjacentNodes();
});
]]></script>
</svg>
