<?xml version="1.0" encoding="UTF-8" standalone="no"?>
<!DOCTYPE svg PUBLIC "-//W3C//DTD SVG 1.1//EN"
 "http://www.w3.org/Graphics/SVG/1.1/DTD/svg11.dtd">
<!-- Generated by graphviz version 12.2.0 (20241103.1931)
 -->
<!-- Title: DirectionToken::DirectionToken Pages: 1 -->
<svg width="604pt" height="40pt"
 viewBox="0.00 0.00 603.75 40.00" xmlns="http://www.w3.org/2000/svg" xmlns:xlink="http://www.w3.org/1999/xlink">
<g id="graph0" class="graph" transform="scale(1 1) rotate(0) translate(4 36)">
<title>DirectionToken::DirectionToken</title>
<!-- Node1 -->
<g id="Node000001" class="node">
<title>Node1</title>
<g id="a_Node000001"><a xlink:title=" ">
<polygon fill="#999999" stroke="#666666" points="126.25,-32 0,-32 0,0 126.25,0 126.25,-32"/>
<text text-anchor="start" x="8" y="-18.5" font-family="Helvetica,sans-Serif" font-size="10.00">DirectionToken::Direction</text>
<text text-anchor="middle" x="63.12" y="-6.5" font-family="Helvetica,sans-Serif" font-size="10.00">Token</text>
</a>
</g>
</g>
<!-- Node2 -->
<g id="Node000002" class="node">
<title>Node2</title>
<g id="a_Node000002"><a xlink:href="class_direction_token.html#a0a49d672e7b1c45ed5a67db29dc35955" target="_top" xlink:title=" ">
<polygon fill="white" stroke="#666666" points="307.25,-26 162.25,-26 162.25,-6 307.25,-6 307.25,-26"/>
<text text-anchor="middle" x="234.75" y="-12.5" font-family="Helvetica,sans-Serif" font-size="10.00">DirectionToken::setOverloads</text>
</a>
</g>
</g>
<!-- Node1&#45;&gt;Node2 -->
<g id="edge1_Node000001_Node000002" class="edge">
<title>Node1&#45;&gt;Node2</title>
<g id="a_edge1_Node000001_Node000002"><a xlink:title=" ">
<path fill="none" stroke="#63b8ff" d="M126.32,-16C134.16,-16 142.28,-16 150.38,-16"/>
<polygon fill="#63b8ff" stroke="#63b8ff" points="150.28,-19.5 160.28,-16 150.28,-12.5 150.28,-19.5"/>
</a>
</g>
</g>
<!-- Node3 -->
<g id="Node000003" class="node">
<title>Node3</title>
<g id="a_Node000003"><a xlink:href="class_arguments_overload.html#a17fba6858e03080178ab2cf098861e5f" target="_top" xlink:title=" ">
<polygon fill="white" stroke="#666666" points="451.5,-32 343.25,-32 343.25,0 451.5,0 451.5,-32"/>
<text text-anchor="start" x="351.25" y="-18.5" font-family="Helvetica,sans-Serif" font-size="10.00">ArgumentsOverload::</text>
<text text-anchor="middle" x="397.38" y="-6.5" font-family="Helvetica,sans-Serif" font-size="10.00">addArgs</text>
</a>
</g>
</g>
<!-- Node2&#45;&gt;Node3 -->
<g id="edge2_Node000002_Node000003" class="edge">
<title>Node2&#45;&gt;Node3</title>
<g id="a_edge2_Node000002_Node000003"><a xlink:title=" ">
<path fill="none" stroke="#63b8ff" d="M307.61,-16C315.58,-16 323.66,-16 331.53,-16"/>
<polygon fill="#63b8ff" stroke="#63b8ff" points="331.37,-19.5 341.37,-16 331.37,-12.5 331.37,-19.5"/>
</a>
</g>
</g>
<!-- Node4 -->
<g id="Node000004" class="node">
<title>Node4</title>
<g id="a_Node000004"><a xlink:href="class_arguments_overload.html#a1dfc9815d235cec325412121bea6b559" target="_top" xlink:title=" ">
<polygon fill="white" stroke="#666666" points="595.75,-32 487.5,-32 487.5,0 595.75,0 595.75,-32"/>
<text text-anchor="start" x="495.5" y="-18.5" font-family="Helvetica,sans-Serif" font-size="10.00">ArgumentsOverload::</text>
<text text-anchor="middle" x="541.62" y="-6.5" font-family="Helvetica,sans-Serif" font-size="10.00">isPresent</text>
</a>
</g>
</g>
<!-- Node3&#45;&gt;Node4 -->
<g id="edge3_Node000003_Node000004" class="edge">
<title>Node3&#45;&gt;Node4</title>
<g id="a_edge3_Node000003_Node000004"><a xlink:title=" ">
<path fill="none" stroke="#63b8ff" d="M451.75,-16C459.68,-16 467.92,-16 476.05,-16"/>
<polygon fill="#63b8ff" stroke="#63b8ff" points="475.91,-19.5 485.91,-16 475.91,-12.5 475.91,-19.5"/>
</a>
</g>
</g>
</g>
</svg>
