<?xml version="1.0" encoding="UTF-8" standalone="no"?>
<!DOCTYPE svg PUBLIC "-//W3C//DTD SVG 1.1//EN"
 "http://www.w3.org/Graphics/SVG/1.1/DTD/svg11.dtd">
<!-- Generated by graphviz version 12.2.0 (20241103.1931)
 -->
<!-- Title: LoopToken Pages: 1 -->
<!--zoomable 1712 -->

<svg id="main" version="1.1" xmlns="http://www.w3.org/2000/svg" xmlns:xlink="http://www.w3.org/1999/xlink" xml:space="preserve" onload="init(evt)">

<style type="text/css"><![CDATA[
.node, .edge {opacity: 0.7;}
.node.selected, .edge.selected {opacity: 1;}
.edge:hover path { stroke: red; }
.edge:hover polygon { stroke: red; fill: red; }
]]></style>

<defs>
  <circle id="rim" cx="0" cy="0" r="7"/>
  <circle id="rim2" cx="0" cy="0" r="3.5"/>
  <g id="zoomPlus">
    <use xlink:href="#rim" fill="#404040"><set attributeName="fill" to="#808080" begin="zoomplus.mouseover" end="zoomplus.mouseout"/></use>
    <path d="M-4,0h8M0,-4v8" fill="none" stroke="white" stroke-width="1.5" pointer-events="none"/>
  </g>
  <g id="zoomMin">
    <use xlink:href="#rim" fill="#404040"><set attributeName="fill" to="#808080" begin="zoomminus.mouseover" end="zoomminus.mouseout"/></use>
    <path d="M-4,0h8" fill="none" stroke="white" stroke-width="1.5" pointer-events="none"/>
  </g>
  <g id="arrowUp" transform="translate(30 24)">
    <use xlink:href="#rim"/>
    <path pointer-events="none" fill="none" stroke="white" stroke-width="1.5" d="M0,-3.0v7 M-2.5,-0.5L0,-3.0L2.5,-0.5"/>
  </g>
  <g id="arrowRight" transform="rotate(90) translate(36 -43)">
    <use xlink:href="#rim"/>
    <path pointer-events="none" fill="none" stroke="white" stroke-width="1.5" d="M0,-3.0v7 M-2.5,-0.5L0,-3.0L2.5,-0.5"/>
  </g>
  <g id="arrowDown" transform="rotate(180) translate(-30 -48)">
    <use xlink:href="#rim"/>
    <path pointer-events="none" fill="none" stroke="white" stroke-width="1.5" d="M0,-3.0v7 M-2.5,-0.5L0,-3.0L2.5,-0.5"/>
  </g>
  <g id="arrowLeft" transform="rotate(270) translate(-36 17)">
    <use xlink:href="#rim"/>
    <path pointer-events="none" fill="none" stroke="white" stroke-width="1.5" d="M0,-3.0v7 M-2.5,-0.5L0,-3.0L2.5,-0.5"/>
  </g>
  <g id="resetDef">
    <use xlink:href="#rim2" fill="#404040"><set attributeName="fill" to="#808080" begin="reset.mouseover" end="reset.mouseout"/></use>
  </g>
</defs>
<script type="application/ecmascript">
var viewWidth = 194;
var viewHeight = 1712;
var sectionId = 'dynsection-1';
</script>
<script type="application/ecmascript" xlink:href="svg.min.js"/>
<svg id="graph" class="graph">
<g id="viewport">
<title>LoopToken</title>
<!-- Node1 -->
<g id="Node000001" class="node">
<title>Node1</title>
<g id="a_Node000001"><a xlink:title=" ">
<polygon fill="#999999" stroke="none" points="151.88,-92 34.12,-92 34.12,0 151.88,0 151.88,-92"/>
<text text-anchor="start" x="69.38" y="-78.5" font-family="Helvetica,sans-Serif" font-size="10.00">LoopToken</text>
<text text-anchor="start" x="38.12" y="-62.5" font-family="Helvetica,sans-Serif" font-size="10.00">+</text>
<text text-anchor="start" x="48.12" y="-62.5" font-family="Helvetica,sans-Serif" font-size="10.00">std::shared_ptr&lt; Token</text>
<text text-anchor="start" x="48.12" y="-50.5" font-family="Helvetica,sans-Serif" font-size="10.00"> &gt; conditionToken</text>
<text text-anchor="start" x="38.12" y="-34.5" font-family="Helvetica,sans-Serif" font-size="10.00">+</text>
<text text-anchor="start" x="48.12" y="-34.5" font-family="Helvetica,sans-Serif" font-size="10.00">LoopToken()</text>
<text text-anchor="start" x="38.12" y="-18.5" font-family="Helvetica,sans-Serif" font-size="10.00">+</text>
<text text-anchor="start" x="48.12" y="-18.5" font-family="Helvetica,sans-Serif" font-size="10.00">std::shared_ptr&lt; Tag</text>
<text text-anchor="start" x="48.12" y="-6.5" font-family="Helvetica,sans-Serif" font-size="10.00"> &gt; execute() override</text>
<polygon fill="#666666" stroke="#666666" points="34.12,-74 34.12,-74 151.88,-74 151.88,-74 34.12,-74"/>
<polygon fill="#666666" stroke="#666666" points="34.12,-46 34.12,-46 46.12,-46 46.12,-46 34.12,-46"/>
<polygon fill="#666666" stroke="#666666" points="46.12,-46 46.12,-46 151.88,-46 151.88,-46 46.12,-46"/>
<polygon fill="none" stroke="#666666" points="34.12,0 34.12,-92 151.88,-92 151.88,0 34.12,0"/>
</a>
</g>
</g>
<!-- Node2 -->
<g id="Node000002" class="node">
<title>Node2</title>
<g id="a_Node000002"><a xlink:href="class_flow_k_c_token.html" target="_top" xlink:title=" ">
<polygon fill="white" stroke="none" points="178.12,-296 7.88,-296 7.88,-128 178.12,-128 178.12,-296"/>
<text text-anchor="start" x="62.25" y="-282.5" font-family="Helvetica,sans-Serif" font-size="10.00">FlowKCToken</text>
<text text-anchor="start" x="11.88" y="-266.5" font-family="Helvetica,sans-Serif" font-size="10.00">#</text>
<text text-anchor="start" x="21.12" y="-266.5" font-family="Helvetica,sans-Serif" font-size="10.00">std::shared_ptr&lt; Token</text>
<text text-anchor="start" x="21.12" y="-254.5" font-family="Helvetica,sans-Serif" font-size="10.00"> &gt; condition</text>
<text text-anchor="start" x="11.88" y="-238.5" font-family="Helvetica,sans-Serif" font-size="10.00">#</text>
<text text-anchor="start" x="21.12" y="-238.5" font-family="Helvetica,sans-Serif" font-size="10.00">FlowKCToken()</text>
<text text-anchor="start" x="11.88" y="-222.5" font-family="Helvetica,sans-Serif" font-size="10.00">#</text>
<text text-anchor="start" x="21.12" y="-222.5" font-family="Helvetica,sans-Serif" font-size="10.00">std::shared_ptr&lt; Token</text>
<text text-anchor="start" x="21.12" y="-210.5" font-family="Helvetica,sans-Serif" font-size="10.00"> &gt; addCondition(IteratorList</text>
<text text-anchor="start" x="21.12" y="-198.5" font-family="Helvetica,sans-Serif" font-size="10.00">&lt; Token &gt; &amp;tl, std::shared</text>
<text text-anchor="start" x="21.12" y="-186.5" font-family="Helvetica,sans-Serif" font-size="10.00">_ptr&lt; TokenResult &gt; tRes)</text>
<text text-anchor="start" x="11.88" y="-170.5" font-family="Helvetica,sans-Serif" font-size="10.00">#</text>
<text text-anchor="start" x="21.12" y="-170.5" font-family="Helvetica,sans-Serif" font-size="10.00">std::shared_ptr&lt; TokenResult</text>
<text text-anchor="start" x="21.12" y="-158.5" font-family="Helvetica,sans-Serif" font-size="10.00"> &gt; addTokens(IteratorList</text>
<text text-anchor="start" x="21.12" y="-146.5" font-family="Helvetica,sans-Serif" font-size="10.00">&lt; Token &gt; &amp;tl, std::shared</text>
<text text-anchor="start" x="21.12" y="-134.5" font-family="Helvetica,sans-Serif" font-size="10.00">_ptr&lt; TokenResult &gt; tRes) override</text>
<polygon fill="#666666" stroke="#666666" points="7.88,-278 7.88,-278 178.12,-278 178.12,-278 7.88,-278"/>
<polygon fill="#666666" stroke="#666666" points="7.88,-250 7.88,-250 19.12,-250 19.12,-250 7.88,-250"/>
<polygon fill="#666666" stroke="#666666" points="19.12,-250 19.12,-250 178.12,-250 178.12,-250 19.12,-250"/>
<polygon fill="none" stroke="#666666" points="7.88,-128 7.88,-296 178.12,-296 178.12,-128 7.88,-128"/>
</a>
</g>
</g>
<!-- Node2&#45;&gt;Node1 -->
<g id="edge1_Node000001_Node000002" class="edge">
<title>Node2&#45;&gt;Node1</title>
<g id="a_edge1_Node000001_Node000002"><a xlink:title=" ">
<path fill="none" stroke="#63b8ff" d="M93,-116.61C93,-107.97 93,-99.52 93,-91.65"/>
<polygon fill="none" stroke="#63b8ff" points="89.5,-116.53 93,-126.53 96.5,-116.53 89.5,-116.53"/>
</a>
</g>
</g>
<!-- Node3 -->
<g id="Node000003" class="node">
<title>Node3</title>
<g id="a_Node000003"><a xlink:href="class_flow_k_p_token.html" target="_top" xlink:title=" ">
<polygon fill="white" stroke="none" points="178.12,-540 7.88,-540 7.88,-332 178.12,-332 178.12,-540"/>
<text text-anchor="start" x="62.62" y="-526.5" font-family="Helvetica,sans-Serif" font-size="10.00">FlowKPToken</text>
<text text-anchor="start" x="11.88" y="-510.5" font-family="Helvetica,sans-Serif" font-size="10.00">#</text>
<text text-anchor="start" x="21.12" y="-510.5" font-family="Helvetica,sans-Serif" font-size="10.00">std::vector&lt; std::shared</text>
<text text-anchor="start" x="21.12" y="-498.5" font-family="Helvetica,sans-Serif" font-size="10.00">_ptr&lt; Token &gt; &gt; nestedTokens</text>
<text text-anchor="start" x="11.88" y="-482.5" font-family="Helvetica,sans-Serif" font-size="10.00">#</text>
<text text-anchor="start" x="21.12" y="-482.5" font-family="Helvetica,sans-Serif" font-size="10.00">FlowKPToken()</text>
<text text-anchor="start" x="11.88" y="-466.5" font-family="Helvetica,sans-Serif" font-size="10.00">#</text>
<text text-anchor="start" x="21.12" y="-466.5" font-family="Helvetica,sans-Serif" font-size="10.00">std::shared_ptr&lt; Token</text>
<text text-anchor="start" x="21.12" y="-454.5" font-family="Helvetica,sans-Serif" font-size="10.00"> &gt; addOb(IteratorList</text>
<text text-anchor="start" x="21.12" y="-442.5" font-family="Helvetica,sans-Serif" font-size="10.00">&lt; Token &gt; &amp;tl)</text>
<text text-anchor="start" x="11.88" y="-426.5" font-family="Helvetica,sans-Serif" font-size="10.00">#</text>
<text text-anchor="start" x="21.12" y="-426.5" font-family="Helvetica,sans-Serif" font-size="10.00">std::shared_ptr&lt; Token</text>
<text text-anchor="start" x="21.12" y="-414.5" font-family="Helvetica,sans-Serif" font-size="10.00"> &gt; addCb(IteratorList</text>
<text text-anchor="start" x="21.12" y="-402.5" font-family="Helvetica,sans-Serif" font-size="10.00">&lt; Token &gt; &amp;tl, std::shared</text>
<text text-anchor="start" x="21.12" y="-390.5" font-family="Helvetica,sans-Serif" font-size="10.00">_ptr&lt; TokenResult &gt; tRes)</text>
<text text-anchor="start" x="11.88" y="-374.5" font-family="Helvetica,sans-Serif" font-size="10.00">#</text>
<text text-anchor="start" x="21.12" y="-374.5" font-family="Helvetica,sans-Serif" font-size="10.00">std::shared_ptr&lt; TokenResult</text>
<text text-anchor="start" x="21.12" y="-362.5" font-family="Helvetica,sans-Serif" font-size="10.00"> &gt; addTokens(IteratorList</text>
<text text-anchor="start" x="21.12" y="-350.5" font-family="Helvetica,sans-Serif" font-size="10.00">&lt; Token &gt; &amp;tl, std::shared</text>
<text text-anchor="start" x="21.12" y="-338.5" font-family="Helvetica,sans-Serif" font-size="10.00">_ptr&lt; TokenResult &gt; tRes) override</text>
<polygon fill="#666666" stroke="#666666" points="7.88,-522 7.88,-522 178.12,-522 178.12,-522 7.88,-522"/>
<polygon fill="#666666" stroke="#666666" points="7.88,-494 7.88,-494 19.12,-494 19.12,-494 7.88,-494"/>
<polygon fill="#666666" stroke="#666666" points="19.12,-494 19.12,-494 178.12,-494 178.12,-494 19.12,-494"/>
<polygon fill="none" stroke="#666666" points="7.88,-332 7.88,-540 178.12,-540 178.12,-332 7.88,-332"/>
</a>
</g>
</g>
<!-- Node3&#45;&gt;Node2 -->
<g id="edge2_Node000002_Node000003" class="edge">
<title>Node3&#45;&gt;Node2</title>
<g id="a_edge2_Node000002_Node000003"><a xlink:title=" ">
<path fill="none" stroke="#63b8ff" d="M93,-320.73C93,-312.37 93,-304.03 93,-295.91"/>
<polygon fill="none" stroke="#63b8ff" points="89.5,-320.61 93,-330.61 96.5,-320.61 89.5,-320.61"/>
</a>
</g>
</g>
<!-- Node4 -->
<g id="Node000004" class="node">
<title>Node4</title>
<g id="a_Node000004"><a xlink:href="class_k_p_token.html" target="_top" xlink:title=" ">
<polygon fill="white" stroke="none" points="178.12,-1188 7.88,-1188 7.88,-576 178.12,-576 178.12,-1188"/>
<text text-anchor="start" x="73.12" y="-1174.5" font-family="Helvetica,sans-Serif" font-size="10.00">KPToken</text>
<text text-anchor="start" x="91.5" y="-1158.5" font-family="Helvetica,sans-Serif" font-size="10.00"> </text>
<text text-anchor="start" x="11.88" y="-1142.5" font-family="Helvetica,sans-Serif" font-size="10.00">#</text>
<text text-anchor="start" x="21.12" y="-1142.5" font-family="Helvetica,sans-Serif" font-size="10.00">KPToken()</text>
<text text-anchor="start" x="11.88" y="-1126.5" font-family="Helvetica,sans-Serif" font-size="10.00">#</text>
<text text-anchor="start" x="21.12" y="-1126.5" font-family="Helvetica,sans-Serif" font-size="10.00">std::shared_ptr&lt; TokenResult</text>
<text text-anchor="start" x="21.12" y="-1114.5" font-family="Helvetica,sans-Serif" font-size="10.00"> &gt; addTokens(IteratorList</text>
<text text-anchor="start" x="21.12" y="-1102.5" font-family="Helvetica,sans-Serif" font-size="10.00">&lt; Token &gt; &amp;tl, std::shared</text>
<text text-anchor="start" x="21.12" y="-1090.5" font-family="Helvetica,sans-Serif" font-size="10.00">_ptr&lt; TokenResult &gt; tRes) override</text>
<text text-anchor="start" x="11.88" y="-1074.5" font-family="Helvetica,sans-Serif" font-size="10.00">#</text>
<text text-anchor="start" x="21.12" y="-1074.5" font-family="Helvetica,sans-Serif" font-size="10.00">std::shared_ptr&lt; Token</text>
<text text-anchor="start" x="21.12" y="-1062.5" font-family="Helvetica,sans-Serif" font-size="10.00"> &gt; addNumber(IteratorList</text>
<text text-anchor="start" x="21.12" y="-1050.5" font-family="Helvetica,sans-Serif" font-size="10.00">&lt; Token &gt; &amp;tl, std::shared</text>
<text text-anchor="start" x="21.12" y="-1038.5" font-family="Helvetica,sans-Serif" font-size="10.00">_ptr&lt; TokenResult &gt; tRes)</text>
<text text-anchor="start" x="11.88" y="-1022.5" font-family="Helvetica,sans-Serif" font-size="10.00">#</text>
<text text-anchor="start" x="21.12" y="-1022.5" font-family="Helvetica,sans-Serif" font-size="10.00">std::shared_ptr&lt; Token</text>
<text text-anchor="start" x="21.12" y="-1010.5" font-family="Helvetica,sans-Serif" font-size="10.00"> &gt; addInteger(IteratorList</text>
<text text-anchor="start" x="21.12" y="-998.5" font-family="Helvetica,sans-Serif" font-size="10.00">&lt; Token &gt; &amp;tl, std::shared</text>
<text text-anchor="start" x="21.12" y="-986.5" font-family="Helvetica,sans-Serif" font-size="10.00">_ptr&lt; TokenResult &gt; tRes)</text>
<text text-anchor="start" x="11.88" y="-970.5" font-family="Helvetica,sans-Serif" font-size="10.00">#</text>
<text text-anchor="start" x="21.12" y="-970.5" font-family="Helvetica,sans-Serif" font-size="10.00">std::shared_ptr&lt; Token</text>
<text text-anchor="start" x="21.12" y="-958.5" font-family="Helvetica,sans-Serif" font-size="10.00"> &gt; addFloat(IteratorList</text>
<text text-anchor="start" x="21.12" y="-946.5" font-family="Helvetica,sans-Serif" font-size="10.00">&lt; Token &gt; &amp;tl, std::shared</text>
<text text-anchor="start" x="21.12" y="-934.5" font-family="Helvetica,sans-Serif" font-size="10.00">_ptr&lt; TokenResult &gt; tRes)</text>
<text text-anchor="start" x="11.88" y="-918.5" font-family="Helvetica,sans-Serif" font-size="10.00">#</text>
<text text-anchor="start" x="21.12" y="-918.5" font-family="Helvetica,sans-Serif" font-size="10.00">std::shared_ptr&lt; Token</text>
<text text-anchor="start" x="21.12" y="-906.5" font-family="Helvetica,sans-Serif" font-size="10.00"> &gt; addCoord(IteratorList</text>
<text text-anchor="start" x="21.12" y="-894.5" font-family="Helvetica,sans-Serif" font-size="10.00">&lt; Token &gt; &amp;tl, std::shared</text>
<text text-anchor="start" x="21.12" y="-882.5" font-family="Helvetica,sans-Serif" font-size="10.00">_ptr&lt; TokenResult &gt; tRes)</text>
<text text-anchor="start" x="11.88" y="-866.5" font-family="Helvetica,sans-Serif" font-size="10.00">#</text>
<text text-anchor="start" x="21.12" y="-866.5" font-family="Helvetica,sans-Serif" font-size="10.00">std::shared_ptr&lt; Token</text>
<text text-anchor="start" x="21.12" y="-854.5" font-family="Helvetica,sans-Serif" font-size="10.00"> &gt; addString(IteratorList</text>
<text text-anchor="start" x="21.12" y="-842.5" font-family="Helvetica,sans-Serif" font-size="10.00">&lt; Token &gt; &amp;tl, std::shared</text>
<text text-anchor="start" x="21.12" y="-830.5" font-family="Helvetica,sans-Serif" font-size="10.00">_ptr&lt; TokenResult &gt; tRes)</text>
<text text-anchor="start" x="11.88" y="-814.5" font-family="Helvetica,sans-Serif" font-size="10.00">#</text>
<text text-anchor="start" x="21.12" y="-814.5" font-family="Helvetica,sans-Serif" font-size="10.00">std::shared_ptr&lt; Token</text>
<text text-anchor="start" x="21.12" y="-802.5" font-family="Helvetica,sans-Serif" font-size="10.00"> &gt; addComma(IteratorList</text>
<text text-anchor="start" x="21.12" y="-790.5" font-family="Helvetica,sans-Serif" font-size="10.00">&lt; Token &gt; &amp;tl)</text>
<text text-anchor="start" x="11.88" y="-774.5" font-family="Helvetica,sans-Serif" font-size="10.00">#</text>
<text text-anchor="start" x="21.12" y="-774.5" font-family="Helvetica,sans-Serif" font-size="10.00">std::shared_ptr&lt; Token</text>
<text text-anchor="start" x="21.12" y="-762.5" font-family="Helvetica,sans-Serif" font-size="10.00"> &gt; addTimeType(IteratorList</text>
<text text-anchor="start" x="21.12" y="-750.5" font-family="Helvetica,sans-Serif" font-size="10.00">&lt; Token &gt; &amp;tl, std::shared</text>
<text text-anchor="start" x="21.12" y="-738.5" font-family="Helvetica,sans-Serif" font-size="10.00">_ptr&lt; TokenResult &gt; tRes)</text>
<text text-anchor="start" x="11.88" y="-722.5" font-family="Helvetica,sans-Serif" font-size="10.00">#</text>
<text text-anchor="start" x="21.12" y="-722.5" font-family="Helvetica,sans-Serif" font-size="10.00">std::shared_ptr&lt; Token</text>
<text text-anchor="start" x="21.12" y="-710.5" font-family="Helvetica,sans-Serif" font-size="10.00"> &gt; addOp(IteratorList</text>
<text text-anchor="start" x="21.12" y="-698.5" font-family="Helvetica,sans-Serif" font-size="10.00">&lt; Token &gt; &amp;tl)</text>
<text text-anchor="start" x="11.88" y="-682.5" font-family="Helvetica,sans-Serif" font-size="10.00">#</text>
<text text-anchor="start" x="21.12" y="-682.5" font-family="Helvetica,sans-Serif" font-size="10.00">std::shared_ptr&lt; Token</text>
<text text-anchor="start" x="21.12" y="-670.5" font-family="Helvetica,sans-Serif" font-size="10.00"> &gt; addCp(IteratorList</text>
<text text-anchor="start" x="21.12" y="-658.5" font-family="Helvetica,sans-Serif" font-size="10.00">&lt; Token &gt; &amp;tl, std::shared</text>
<text text-anchor="start" x="21.12" y="-646.5" font-family="Helvetica,sans-Serif" font-size="10.00">_ptr&lt; TokenResult &gt; tRes)</text>
<text text-anchor="start" x="11.88" y="-630.5" font-family="Helvetica,sans-Serif" font-size="10.00">#</text>
<text text-anchor="start" x="21.12" y="-630.5" font-family="Helvetica,sans-Serif" font-size="10.00">virtual std::shared</text>
<text text-anchor="start" x="21.12" y="-618.5" font-family="Helvetica,sans-Serif" font-size="10.00">_ptr&lt; Token &gt; handleCp</text>
<text text-anchor="start" x="21.12" y="-606.5" font-family="Helvetica,sans-Serif" font-size="10.00">(IteratorList&lt; Token &gt;</text>
<text text-anchor="start" x="21.12" y="-594.5" font-family="Helvetica,sans-Serif" font-size="10.00"> &amp;tl, std::shared_ptr&lt;</text>
<text text-anchor="start" x="21.12" y="-582.5" font-family="Helvetica,sans-Serif" font-size="10.00"> TokenResult &gt; tRes)</text>
<polygon fill="#666666" stroke="#666666" points="7.88,-1170 7.88,-1170 178.12,-1170 178.12,-1170 7.88,-1170"/>
<polygon fill="#666666" stroke="#666666" points="7.88,-1154 7.88,-1154 178.12,-1154 178.12,-1154 7.88,-1154"/>
<polygon fill="none" stroke="#666666" points="7.88,-576 7.88,-1188 178.12,-1188 178.12,-576 7.88,-576"/>
</a>
</g>
</g>
<!-- Node4&#45;&gt;Node3 -->
<g id="edge3_Node000003_Node000004" class="edge">
<title>Node4&#45;&gt;Node3</title>
<g id="a_edge3_Node000003_Node000004"><a xlink:title=" ">
<path fill="none" stroke="#63b8ff" d="M93,-564.77C93,-556.12 93,-547.71 93,-539.6"/>
<polygon fill="none" stroke="#63b8ff" points="89.5,-564.75 93,-574.75 96.5,-564.75 89.5,-564.75"/>
</a>
</g>
</g>
<!-- Node5 -->
<g id="Node000005" class="node">
<title>Node5</title>
<g id="a_Node000005"><a xlink:href="class_k_token.html" target="_top" xlink:title=" ">
<polygon fill="white" stroke="none" points="113.5,-1276 72.5,-1276 72.5,-1224 113.5,-1224 113.5,-1276"/>
<text text-anchor="start" x="76.5" y="-1262.5" font-family="Helvetica,sans-Serif" font-size="10.00">KToken</text>
<text text-anchor="start" x="91.5" y="-1246.5" font-family="Helvetica,sans-Serif" font-size="10.00"> </text>
<text text-anchor="start" x="91.5" y="-1230.5" font-family="Helvetica,sans-Serif" font-size="10.00"> </text>
<polygon fill="#666666" stroke="#666666" points="72.5,-1258 72.5,-1258 113.5,-1258 113.5,-1258 72.5,-1258"/>
<polygon fill="#666666" stroke="#666666" points="72.5,-1242 72.5,-1242 113.5,-1242 113.5,-1242 72.5,-1242"/>
<polygon fill="none" stroke="#666666" points="72.5,-1224 72.5,-1276 113.5,-1276 113.5,-1224 72.5,-1224"/>
</a>
</g>
</g>
<!-- Node5&#45;&gt;Node4 -->
<g id="edge4_Node000004_Node000005" class="edge">
<title>Node5&#45;&gt;Node4</title>
<g id="a_edge4_Node000004_Node000005"><a xlink:title=" ">
<path fill="none" stroke="#63b8ff" d="M93,-1212.88C93,-1205.44 93,-1197.05 93,-1187.91"/>
<polygon fill="none" stroke="#63b8ff" points="89.5,-1212.62 93,-1222.62 96.5,-1212.62 89.5,-1212.62"/>
</a>
</g>
</g>
<!-- Node6 -->
<g id="Node000006" class="node">
<title>Node6</title>
<g id="a_Node000006"><a xlink:href="class_token.html" target="_top" xlink:title=" ">
<polygon fill="white" stroke="none" points="186,-1704 0,-1704 0,-1312 186,-1312 186,-1704"/>
<text text-anchor="start" x="79.88" y="-1690.5" font-family="Helvetica,sans-Serif" font-size="10.00">Token</text>
<text text-anchor="start" x="4" y="-1674.5" font-family="Helvetica,sans-Serif" font-size="10.00">+</text>
<text text-anchor="start" x="14" y="-1674.5" font-family="Helvetica,sans-Serif" font-size="10.00">std::string tokenText</text>
<text text-anchor="start" x="4" y="-1658.5" font-family="Helvetica,sans-Serif" font-size="10.00">+</text>
<text text-anchor="start" x="14" y="-1658.5" font-family="Helvetica,sans-Serif" font-size="10.00">TokenVALUE tValue</text>
<text text-anchor="start" x="4" y="-1642.5" font-family="Helvetica,sans-Serif" font-size="10.00">+</text>
<text text-anchor="start" x="14" y="-1642.5" font-family="Helvetica,sans-Serif" font-size="10.00">std::shared_ptr&lt; TokenResult</text>
<text text-anchor="start" x="14" y="-1630.5" font-family="Helvetica,sans-Serif" font-size="10.00"> &gt; tRes</text>
<text text-anchor="start" x="4" y="-1614.5" font-family="Helvetica,sans-Serif" font-size="10.00">+</text>
<text text-anchor="start" x="14" y="-1614.5" font-family="Helvetica,sans-Serif" font-size="10.00">int line</text>
<text text-anchor="start" x="4" y="-1598.5" font-family="Helvetica,sans-Serif" font-size="10.00">+</text>
<text text-anchor="start" x="14" y="-1598.5" font-family="Helvetica,sans-Serif" font-size="10.00">Token()</text>
<text text-anchor="start" x="4" y="-1582.5" font-family="Helvetica,sans-Serif" font-size="10.00">+</text>
<text text-anchor="start" x="14" y="-1582.5" font-family="Helvetica,sans-Serif" font-size="10.00">std::shared_ptr&lt; TokenResult</text>
<text text-anchor="start" x="14" y="-1570.5" font-family="Helvetica,sans-Serif" font-size="10.00"> &gt; updateRes(std::shared</text>
<text text-anchor="start" x="14" y="-1558.5" font-family="Helvetica,sans-Serif" font-size="10.00">_ptr&lt; TokenResult &gt; tRes)</text>
<text text-anchor="start" x="4" y="-1542.5" font-family="Helvetica,sans-Serif" font-size="10.00">+</text>
<text text-anchor="start" x="14" y="-1542.5" font-family="Helvetica,sans-Serif" font-size="10.00">std::shared_ptr&lt; TokenResult</text>
<text text-anchor="start" x="14" y="-1530.5" font-family="Helvetica,sans-Serif" font-size="10.00"> &gt; addError(TokenVALUE value,</text>
<text text-anchor="start" x="14" y="-1518.5" font-family="Helvetica,sans-Serif" font-size="10.00"> ErrorType et=ErrorType::MISSING)</text>
<text text-anchor="start" x="4" y="-1502.5" font-family="Helvetica,sans-Serif" font-size="10.00">+</text>
<text text-anchor="start" x="14" y="-1502.5" font-family="Helvetica,sans-Serif" font-size="10.00">std::shared_ptr&lt; TokenResult</text>
<text text-anchor="start" x="14" y="-1490.5" font-family="Helvetica,sans-Serif" font-size="10.00"> &gt; addError(const std::shared</text>
<text text-anchor="start" x="14" y="-1478.5" font-family="Helvetica,sans-Serif" font-size="10.00">_ptr&lt; TokenResult &gt; &amp;tr)</text>
<text text-anchor="start" x="4" y="-1462.5" font-family="Helvetica,sans-Serif" font-size="10.00">+</text>
<text text-anchor="start" x="14" y="-1462.5" font-family="Helvetica,sans-Serif" font-size="10.00">std::shared_ptr&lt; TokenResult</text>
<text text-anchor="start" x="14" y="-1450.5" font-family="Helvetica,sans-Serif" font-size="10.00"> &gt; addError(DataType type,</text>
<text text-anchor="start" x="14" y="-1438.5" font-family="Helvetica,sans-Serif" font-size="10.00"> ErrorType et=ErrorType::REPLACED)</text>
<text text-anchor="start" x="4" y="-1422.5" font-family="Helvetica,sans-Serif" font-size="10.00">+</text>
<text text-anchor="start" x="14" y="-1422.5" font-family="Helvetica,sans-Serif" font-size="10.00">virtual DataType getData</text>
<text text-anchor="start" x="14" y="-1410.5" font-family="Helvetica,sans-Serif" font-size="10.00">Type()</text>
<text text-anchor="start" x="4" y="-1394.5" font-family="Helvetica,sans-Serif" font-size="10.00">+</text>
<text text-anchor="start" x="14" y="-1394.5" font-family="Helvetica,sans-Serif" font-size="10.00">virtual std::shared</text>
<text text-anchor="start" x="14" y="-1382.5" font-family="Helvetica,sans-Serif" font-size="10.00">_ptr&lt; TokenResult &gt;</text>
<text text-anchor="start" x="14" y="-1370.5" font-family="Helvetica,sans-Serif" font-size="10.00"> addTokens(IteratorList</text>
<text text-anchor="start" x="14" y="-1358.5" font-family="Helvetica,sans-Serif" font-size="10.00">&lt; Token &gt; &amp;tl, std::shared</text>
<text text-anchor="start" x="14" y="-1346.5" font-family="Helvetica,sans-Serif" font-size="10.00">_ptr&lt; TokenResult &gt; tRes)</text>
<text text-anchor="start" x="4" y="-1330.5" font-family="Helvetica,sans-Serif" font-size="10.00">+</text>
<text text-anchor="start" x="14" y="-1330.5" font-family="Helvetica,sans-Serif" font-size="10.00">virtual std::shared</text>
<text text-anchor="start" x="14" y="-1318.5" font-family="Helvetica,sans-Serif" font-size="10.00">_ptr&lt; Tag &gt; execute()</text>
<polygon fill="#666666" stroke="#666666" points="0,-1686 0,-1686 186,-1686 186,-1686 0,-1686"/>
<polygon fill="#666666" stroke="#666666" points="0,-1610 0,-1610 12,-1610 12,-1610 0,-1610"/>
<polygon fill="#666666" stroke="#666666" points="12,-1610 12,-1610 186,-1610 186,-1610 12,-1610"/>
<polygon fill="none" stroke="#666666" points="0,-1312 0,-1704 186,-1704 186,-1312 0,-1312"/>
</a>
</g>
</g>
<!-- Node6&#45;&gt;Node5 -->
<g id="edge5_Node000005_Node000006" class="edge">
<title>Node6&#45;&gt;Node5</title>
<g id="a_edge5_Node000005_Node000006"><a xlink:title=" ">
<path fill="none" stroke="#63b8ff" d="M93,-1300.91C93,-1291.53 93,-1283.06 93,-1275.87"/>
<polygon fill="none" stroke="#63b8ff" points="89.5,-1300.8 93,-1310.8 96.5,-1300.8 89.5,-1300.8"/>
</a>
</g>
</g>
</g>
</svg>

<g id="navigator" transform="translate(0 0)" fill="#404254">
  <rect fill="#f2f5e9" fill-opacity="0.5" stroke="#606060" stroke-width=".5" x="0" y="0" width="60" height="60"/>
  <use id="zoomplus" xlink:href="#zoomPlus" x="17" y="9" onmousedown="handleZoom(evt,'in')"/>
  <use id="zoomminus" xlink:href="#zoomMin" x="42" y="9" onmousedown="handleZoom(evt,'out')"/>
  <use id="reset" xlink:href="#resetDef" x="30" y="36" onmousedown="handleReset()"/>
   <use id="arrowup" xlink:href="#arrowUp" x="0" y="0" onmousedown="handlePan(0,-1)"/>
  <use id="arrowright" xlink:href="#arrowRight" x="0" y="0" onmousedown="handlePan(1,0)"/>
  <use id="arrowdown" xlink:href="#arrowDown" x="0" y="0" onmousedown="handlePan(0,1)"/>
  <use id="arrowleft" xlink:href="#arrowLeft" x="0" y="0" onmousedown="handlePan(-1,0)"/>
</g>
<svg viewBox="0 0 15 15" width="100%" height="30px" preserveAspectRatio="xMaxYMin meet">
 <g id="arrow_out" transform="scale(0.3 0.3)">
  <a xlink:href="class_loop_token__coll__graph_org.svg" target="_base">
   <rect id="button" ry="5" rx="5" y="6" x="6" height="38" width="38"
        fill="#f2f5e9" fill-opacity="0.5" stroke="#606060" stroke-width="1.0"/>
   <path id="arrow"
     d="M 11.500037,31.436501 C 11.940474,20.09759 22.043105,11.32322 32.158766,21.979434 L 37.068811,17.246167 C 37.068811,17.246167 37.088388,32 37.088388,32 L 22.160133,31.978069 C 22.160133,31.978069 26.997745,27.140456 26.997745,27.140456 C 18.528582,18.264221 13.291696,25.230495 11.500037,31.436501 z"
     style="fill:#404040;"/>
  </a>
 </g>
</svg>

<style type='text/css'>
<![CDATA[
[data-mouse-over-selected='false'] { opacity: 0.7; }
[data-mouse-over-selected='true']  { opacity: 1.0; }
]]>
</style>
<script type="application/ecmascript"><![CDATA[
document.addEventListener('DOMContentLoaded', (event) => {
  highlightEdges();
  highlightAdjacentNodes();
});
]]></script>
</svg>
