<?xml version="1.0" encoding="UTF-8" standalone="no"?>
<!DOCTYPE svg PUBLIC "-//W3C//DTD SVG 1.1//EN"
 "http://www.w3.org/Graphics/SVG/1.1/DTD/svg11.dtd">
<!-- Generated by graphviz version 12.2.0 (20241103.1931)
 -->
<!-- Title: FlowTagPanel Pages: 1 -->
<!--zoomable 1376 -->

<svg id="main" version="1.1" xmlns="http://www.w3.org/2000/svg" xmlns:xlink="http://www.w3.org/1999/xlink" xml:space="preserve" onload="init(evt)">

<style type="text/css"><![CDATA[
.node, .edge {opacity: 0.7;}
.node.selected, .edge.selected {opacity: 1;}
.edge:hover path { stroke: red; }
.edge:hover polygon { stroke: red; fill: red; }
]]></style>

<defs>
  <circle id="rim" cx="0" cy="0" r="7"/>
  <circle id="rim2" cx="0" cy="0" r="3.5"/>
  <g id="zoomPlus">
    <use xlink:href="#rim" fill="#404040"><set attributeName="fill" to="#808080" begin="zoomplus.mouseover" end="zoomplus.mouseout"/></use>
    <path d="M-4,0h8M0,-4v8" fill="none" stroke="white" stroke-width="1.5" pointer-events="none"/>
  </g>
  <g id="zoomMin">
    <use xlink:href="#rim" fill="#404040"><set attributeName="fill" to="#808080" begin="zoomminus.mouseover" end="zoomminus.mouseout"/></use>
    <path d="M-4,0h8" fill="none" stroke="white" stroke-width="1.5" pointer-events="none"/>
  </g>
  <g id="arrowUp" transform="translate(30 24)">
    <use xlink:href="#rim"/>
    <path pointer-events="none" fill="none" stroke="white" stroke-width="1.5" d="M0,-3.0v7 M-2.5,-0.5L0,-3.0L2.5,-0.5"/>
  </g>
  <g id="arrowRight" transform="rotate(90) translate(36 -43)">
    <use xlink:href="#rim"/>
    <path pointer-events="none" fill="none" stroke="white" stroke-width="1.5" d="M0,-3.0v7 M-2.5,-0.5L0,-3.0L2.5,-0.5"/>
  </g>
  <g id="arrowDown" transform="rotate(180) translate(-30 -48)">
    <use xlink:href="#rim"/>
    <path pointer-events="none" fill="none" stroke="white" stroke-width="1.5" d="M0,-3.0v7 M-2.5,-0.5L0,-3.0L2.5,-0.5"/>
  </g>
  <g id="arrowLeft" transform="rotate(270) translate(-36 17)">
    <use xlink:href="#rim"/>
    <path pointer-events="none" fill="none" stroke="white" stroke-width="1.5" d="M0,-3.0v7 M-2.5,-0.5L0,-3.0L2.5,-0.5"/>
  </g>
  <g id="resetDef">
    <use xlink:href="#rim2" fill="#404040"><set attributeName="fill" to="#808080" begin="reset.mouseover" end="reset.mouseout"/></use>
  </g>
</defs>
<script type="application/ecmascript">
var viewWidth = 454;
var viewHeight = 1376;
var sectionId = 'dynsection-0';
</script>
<script type="application/ecmascript" xlink:href="svg.min.js"/>
<svg id="graph" class="graph">
<g id="viewport">
<title>FlowTagPanel</title>
<!-- Node1 -->
<g id="Node000001" class="node">
<title>Node1</title>
<g id="a_Node000001"><a xlink:title=" ">
<polygon fill="#999999" stroke="none" points="330.12,-628 126.87,-628 126.87,-232 330.12,-232 330.12,-628"/>
<text text-anchor="start" x="197.75" y="-614.5" font-family="Helvetica,sans-Serif" font-size="10.00">FlowTagPanel</text>
<text text-anchor="start" x="131.25" y="-598.5" font-family="Helvetica,sans-Serif" font-size="10.00">#</text>
<text text-anchor="start" x="140.88" y="-598.5" font-family="Helvetica,sans-Serif" font-size="10.00">wxSizerItem * bottomSpacer</text>
<text text-anchor="start" x="131.25" y="-582.5" font-family="Helvetica,sans-Serif" font-size="10.00">#</text>
<text text-anchor="start" x="140.88" y="-582.5" font-family="Helvetica,sans-Serif" font-size="10.00">EmptyPanel * emptyTagPanel</text>
<text text-anchor="start" x="131.25" y="-566.5" font-family="Helvetica,sans-Serif" font-size="10.00">#</text>
<text text-anchor="start" x="140.88" y="-566.5" font-family="Helvetica,sans-Serif" font-size="10.00">int nbFlowParents</text>
<text text-anchor="start" x="131.25" y="-550.5" font-family="Helvetica,sans-Serif" font-size="10.00">#</text>
<text text-anchor="start" x="140.88" y="-550.5" font-family="Helvetica,sans-Serif" font-size="10.00">wxBoxSizer * childrenSizer</text>
<text text-anchor="start" x="131.25" y="-534.5" font-family="Helvetica,sans-Serif" font-size="10.00">#</text>
<text text-anchor="start" x="140.88" y="-534.5" font-family="Helvetica,sans-Serif" font-size="10.00">wxButton * hider</text>
<text text-anchor="start" x="130.88" y="-518.5" font-family="Helvetica,sans-Serif" font-size="10.00">+</text>
<text text-anchor="start" x="140.88" y="-518.5" font-family="Helvetica,sans-Serif" font-size="10.00">FlowTagPanel(bool</text>
<text text-anchor="start" x="140.88" y="-506.5" font-family="Helvetica,sans-Serif" font-size="10.00"> topConstructor=true)</text>
<text text-anchor="start" x="130.88" y="-490.5" font-family="Helvetica,sans-Serif" font-size="10.00">+</text>
<text text-anchor="start" x="140.88" y="-490.5" font-family="Helvetica,sans-Serif" font-size="10.00">FlowTagPanel(wxWindow</text>
<text text-anchor="start" x="140.88" y="-478.5" font-family="Helvetica,sans-Serif" font-size="10.00"> *parentWindow, bool topConstructor=true)</text>
<text text-anchor="start" x="130.88" y="-462.5" font-family="Helvetica,sans-Serif" font-size="10.00">+</text>
<text text-anchor="start" x="140.88" y="-462.5" font-family="Helvetica,sans-Serif" font-size="10.00">FlowTagPanel(const</text>
<text text-anchor="start" x="140.88" y="-450.5" font-family="Helvetica,sans-Serif" font-size="10.00"> FlowTagPanel &amp;toCopy,</text>
<text text-anchor="start" x="140.88" y="-438.5" font-family="Helvetica,sans-Serif" font-size="10.00"> bool topConstructor=true)</text>
<text text-anchor="start" x="130.88" y="-422.5" font-family="Helvetica,sans-Serif" font-size="10.00">+</text>
<text text-anchor="start" x="140.88" y="-422.5" font-family="Helvetica,sans-Serif" font-size="10.00">FlowTagPanel * clone</text>
<text text-anchor="start" x="140.88" y="-410.5" font-family="Helvetica,sans-Serif" font-size="10.00">() override</text>
<text text-anchor="start" x="130.88" y="-394.5" font-family="Helvetica,sans-Serif" font-size="10.00">+</text>
<text text-anchor="start" x="140.88" y="-394.5" font-family="Helvetica,sans-Serif" font-size="10.00">~FlowTagPanel()</text>
<text text-anchor="start" x="130.88" y="-378.5" font-family="Helvetica,sans-Serif" font-size="10.00">+</text>
<text text-anchor="start" x="140.88" y="-378.5" font-family="Helvetica,sans-Serif" font-size="10.00">void initChildrenSizer()</text>
<text text-anchor="start" x="130.88" y="-362.5" font-family="Helvetica,sans-Serif" font-size="10.00">+</text>
<text text-anchor="start" x="140.88" y="-362.5" font-family="Helvetica,sans-Serif" font-size="10.00">void cloneChildren</text>
<text text-anchor="start" x="140.88" y="-350.5" font-family="Helvetica,sans-Serif" font-size="10.00">(const FlowTagPanel</text>
<text text-anchor="start" x="140.88" y="-338.5" font-family="Helvetica,sans-Serif" font-size="10.00"> *toCopy)</text>
<text text-anchor="start" x="130.88" y="-322.5" font-family="Helvetica,sans-Serif" font-size="10.00">+</text>
<text text-anchor="start" x="140.88" y="-322.5" font-family="Helvetica,sans-Serif" font-size="10.00">void addComponents</text>
<text text-anchor="start" x="140.88" y="-310.5" font-family="Helvetica,sans-Serif" font-size="10.00">(TagPanel *tag) override</text>
<text text-anchor="start" x="130.88" y="-294.5" font-family="Helvetica,sans-Serif" font-size="10.00">+</text>
<text text-anchor="start" x="140.88" y="-294.5" font-family="Helvetica,sans-Serif" font-size="10.00">void addChild(TagPanel</text>
<text text-anchor="start" x="140.88" y="-282.5" font-family="Helvetica,sans-Serif" font-size="10.00"> *childrenTag)</text>
<text text-anchor="start" x="130.88" y="-266.5" font-family="Helvetica,sans-Serif" font-size="10.00">+</text>
<text text-anchor="start" x="140.88" y="-266.5" font-family="Helvetica,sans-Serif" font-size="10.00">void switchFlowTagVisibility</text>
<text text-anchor="start" x="140.88" y="-254.5" font-family="Helvetica,sans-Serif" font-size="10.00">(wxMouseEvent &amp;evt)</text>
<text text-anchor="start" x="140.88" y="-238.5" font-family="Helvetica,sans-Serif" font-size="10.00">and 46 more...</text>
<polygon fill="#666666" stroke="#666666" points="126.88,-610 126.88,-610 330.12,-610 330.12,-610 126.88,-610"/>
<polygon fill="#666666" stroke="#666666" points="126.88,-530 126.88,-530 138.88,-530 138.88,-530 126.88,-530"/>
<polygon fill="#666666" stroke="#666666" points="138.88,-530 138.88,-530 330.12,-530 330.12,-530 138.88,-530"/>
<polygon fill="none" stroke="#666666" points="126.88,-232 126.88,-628 330.12,-628 330.12,-232 126.88,-232"/>
</a>
</g>
</g>
<!-- Node4 -->
<g id="Node000004" class="node">
<title>Node4</title>
<g id="a_Node000004"><a xlink:href="class_if_tag_panel.html" target="_top" xlink:title=" ">
<polygon fill="white" stroke="none" points="141,-188 0,-188 0,-8 141,-8 141,-188"/>
<text text-anchor="start" x="47.25" y="-174.5" font-family="Helvetica,sans-Serif" font-size="10.00">IfTagPanel</text>
<text text-anchor="start" x="69" y="-158.5" font-family="Helvetica,sans-Serif" font-size="10.00"> </text>
<text text-anchor="start" x="4" y="-142.5" font-family="Helvetica,sans-Serif" font-size="10.00">+</text>
<text text-anchor="start" x="14" y="-142.5" font-family="Helvetica,sans-Serif" font-size="10.00">IfTagPanel(wxWindow</text>
<text text-anchor="start" x="14" y="-130.5" font-family="Helvetica,sans-Serif" font-size="10.00"> *parentWindow)</text>
<text text-anchor="start" x="4" y="-114.5" font-family="Helvetica,sans-Serif" font-size="10.00">+</text>
<text text-anchor="start" x="14" y="-114.5" font-family="Helvetica,sans-Serif" font-size="10.00">IfTagPanel * clone</text>
<text text-anchor="start" x="14" y="-102.5" font-family="Helvetica,sans-Serif" font-size="10.00">() override</text>
<text text-anchor="start" x="4" y="-86.5" font-family="Helvetica,sans-Serif" font-size="10.00">+</text>
<text text-anchor="start" x="14" y="-86.5" font-family="Helvetica,sans-Serif" font-size="10.00">IfTagPanel(const IfTagPanel</text>
<text text-anchor="start" x="14" y="-74.5" font-family="Helvetica,sans-Serif" font-size="10.00"> &amp;toCopy)</text>
<text text-anchor="start" x="4" y="-58.5" font-family="Helvetica,sans-Serif" font-size="10.00">+</text>
<text text-anchor="start" x="14" y="-58.5" font-family="Helvetica,sans-Serif" font-size="10.00">void setPanelColor</text>
<text text-anchor="start" x="14" y="-46.5" font-family="Helvetica,sans-Serif" font-size="10.00">() override</text>
<text text-anchor="start" x="4" y="-30.5" font-family="Helvetica,sans-Serif" font-size="10.00">+</text>
<text text-anchor="start" x="14" y="-30.5" font-family="Helvetica,sans-Serif" font-size="10.00">void setTagLine() override</text>
<text text-anchor="start" x="4" y="-14.5" font-family="Helvetica,sans-Serif" font-size="10.00">+</text>
<text text-anchor="start" x="14" y="-14.5" font-family="Helvetica,sans-Serif" font-size="10.00">void setTagName() override</text>
<polygon fill="#666666" stroke="#666666" points="0,-170 0,-170 141,-170 141,-170 0,-170"/>
<polygon fill="#666666" stroke="#666666" points="0,-154 0,-154 141,-154 141,-154 0,-154"/>
<polygon fill="none" stroke="#666666" points="0,-8 0,-188 141,-188 141,-8 0,-8"/>
</a>
</g>
</g>
<!-- Node1&#45;&gt;Node4 -->
<g id="edge3_Node000001_Node000004" class="edge">
<title>Node1&#45;&gt;Node4</title>
<g id="a_edge3_Node000001_Node000004"><a xlink:title=" ">
<path fill="none" stroke="#63b8ff" d="M129.48,-222.19C123.77,-210.26 118.21,-198.65 112.93,-187.62"/>
<polygon fill="none" stroke="#63b8ff" points="126.18,-223.4 133.66,-230.91 132.49,-220.38 126.18,-223.4"/>
</a>
</g>
</g>
<!-- Node5 -->
<g id="Node000005" class="node">
<title>Node5</title>
<g id="a_Node000005"><a xlink:href="class_loop_tag_panel.html" target="_top" xlink:title=" ">
<polygon fill="white" stroke="none" points="297.5,-196 159.5,-196 159.5,0 297.5,0 297.5,-196"/>
<text text-anchor="start" x="197.75" y="-182.5" font-family="Helvetica,sans-Serif" font-size="10.00">LoopTagPanel</text>
<text text-anchor="start" x="227" y="-166.5" font-family="Helvetica,sans-Serif" font-size="10.00"> </text>
<text text-anchor="start" x="163.5" y="-150.5" font-family="Helvetica,sans-Serif" font-size="10.00">+</text>
<text text-anchor="start" x="173.5" y="-150.5" font-family="Helvetica,sans-Serif" font-size="10.00">LoopTagPanel()</text>
<text text-anchor="start" x="163.5" y="-134.5" font-family="Helvetica,sans-Serif" font-size="10.00">+</text>
<text text-anchor="start" x="173.5" y="-134.5" font-family="Helvetica,sans-Serif" font-size="10.00">LoopTagPanel(wxWindow</text>
<text text-anchor="start" x="173.5" y="-122.5" font-family="Helvetica,sans-Serif" font-size="10.00"> *parentWindow)</text>
<text text-anchor="start" x="163.5" y="-106.5" font-family="Helvetica,sans-Serif" font-size="10.00">+</text>
<text text-anchor="start" x="173.5" y="-106.5" font-family="Helvetica,sans-Serif" font-size="10.00">LoopTagPanel * clone</text>
<text text-anchor="start" x="173.5" y="-94.5" font-family="Helvetica,sans-Serif" font-size="10.00">() override</text>
<text text-anchor="start" x="163.5" y="-78.5" font-family="Helvetica,sans-Serif" font-size="10.00">+</text>
<text text-anchor="start" x="173.5" y="-78.5" font-family="Helvetica,sans-Serif" font-size="10.00">LoopTagPanel(const</text>
<text text-anchor="start" x="173.5" y="-66.5" font-family="Helvetica,sans-Serif" font-size="10.00"> LoopTagPanel &amp;toCopy)</text>
<text text-anchor="start" x="163.5" y="-50.5" font-family="Helvetica,sans-Serif" font-size="10.00">+</text>
<text text-anchor="start" x="173.5" y="-50.5" font-family="Helvetica,sans-Serif" font-size="10.00">void setPanelColor</text>
<text text-anchor="start" x="173.5" y="-38.5" font-family="Helvetica,sans-Serif" font-size="10.00">() override</text>
<text text-anchor="start" x="163.5" y="-22.5" font-family="Helvetica,sans-Serif" font-size="10.00">+</text>
<text text-anchor="start" x="173.5" y="-22.5" font-family="Helvetica,sans-Serif" font-size="10.00">void setTagLine() override</text>
<text text-anchor="start" x="163.5" y="-6.5" font-family="Helvetica,sans-Serif" font-size="10.00">+</text>
<text text-anchor="start" x="173.5" y="-6.5" font-family="Helvetica,sans-Serif" font-size="10.00">void setTagName() override</text>
<polygon fill="#666666" stroke="#666666" points="159.5,-178 159.5,-178 297.5,-178 297.5,-178 159.5,-178"/>
<polygon fill="#666666" stroke="#666666" points="159.5,-162 159.5,-162 297.5,-162 297.5,-162 159.5,-162"/>
<polygon fill="none" stroke="#666666" points="159.5,0 159.5,-196 297.5,-196 297.5,0 159.5,0"/>
</a>
</g>
</g>
<!-- Node1&#45;&gt;Node5 -->
<g id="edge4_Node000001_Node000005" class="edge">
<title>Node1&#45;&gt;Node5</title>
<g id="a_edge4_Node000001_Node000005"><a xlink:title=" ">
<path fill="none" stroke="#63b8ff" d="M228.5,-220.87C228.5,-212.27 228.5,-203.83 228.5,-195.66"/>
<polygon fill="none" stroke="#63b8ff" points="225,-220.76 228.5,-230.76 232,-220.76 225,-220.76"/>
</a>
</g>
</g>
<!-- Node6 -->
<g id="Node000006" class="node">
<title>Node6</title>
<g id="a_Node000006"><a xlink:href="class_main_tag_panel.html" target="_top" xlink:title=" ">
<polygon fill="white" stroke="none" points="445.75,-168 315.25,-168 315.25,-28 445.75,-28 445.75,-168"/>
<text text-anchor="start" x="349.75" y="-154.5" font-family="Helvetica,sans-Serif" font-size="10.00">MainTagPanel</text>
<text text-anchor="start" x="379" y="-138.5" font-family="Helvetica,sans-Serif" font-size="10.00"> </text>
<text text-anchor="start" x="319.25" y="-122.5" font-family="Helvetica,sans-Serif" font-size="10.00">+</text>
<text text-anchor="start" x="329.25" y="-122.5" font-family="Helvetica,sans-Serif" font-size="10.00">MainTagPanel(wxWindow</text>
<text text-anchor="start" x="329.25" y="-110.5" font-family="Helvetica,sans-Serif" font-size="10.00"> *window)</text>
<text text-anchor="start" x="319.25" y="-94.5" font-family="Helvetica,sans-Serif" font-size="10.00">+</text>
<text text-anchor="start" x="329.25" y="-94.5" font-family="Helvetica,sans-Serif" font-size="10.00">void setTagName()</text>
<text text-anchor="start" x="319.25" y="-78.5" font-family="Helvetica,sans-Serif" font-size="10.00">+</text>
<text text-anchor="start" x="329.25" y="-78.5" font-family="Helvetica,sans-Serif" font-size="10.00">void setPanelColor()</text>
<text text-anchor="start" x="319.25" y="-62.5" font-family="Helvetica,sans-Serif" font-size="10.00">+</text>
<text text-anchor="start" x="329.25" y="-62.5" font-family="Helvetica,sans-Serif" font-size="10.00">void setTagLine() override</text>
<text text-anchor="start" x="319.25" y="-46.5" font-family="Helvetica,sans-Serif" font-size="10.00">+</text>
<text text-anchor="start" x="329.25" y="-46.5" font-family="Helvetica,sans-Serif" font-size="10.00">MainTagPanel * clone</text>
<text text-anchor="start" x="329.25" y="-34.5" font-family="Helvetica,sans-Serif" font-size="10.00">() override</text>
<polygon fill="#666666" stroke="#666666" points="315.25,-150 315.25,-150 445.75,-150 445.75,-150 315.25,-150"/>
<polygon fill="#666666" stroke="#666666" points="315.25,-134 315.25,-134 445.75,-134 445.75,-134 315.25,-134"/>
<polygon fill="none" stroke="#666666" points="315.25,-28 315.25,-168 445.75,-168 445.75,-28 315.25,-28"/>
</a>
</g>
</g>
<!-- Node1&#45;&gt;Node6 -->
<g id="edge5_Node000001_Node000006" class="edge">
<title>Node1&#45;&gt;Node6</title>
<g id="a_edge5_Node000001_Node000006"><a xlink:title=" ">
<path fill="none" stroke="#63b8ff" d="M323.91,-221.87C332.74,-202.7 341.19,-184.35 348.75,-167.94"/>
<polygon fill="none" stroke="#63b8ff" points="320.75,-220.35 319.75,-230.9 327.11,-223.28 320.75,-220.35"/>
</a>
</g>
</g>
<!-- Node2 -->
<g id="Node000002" class="node">
<title>Node2</title>
<g id="a_Node000002"><a xlink:href="class_tag_panel.html" target="_top" xlink:title=" ">
<polygon fill="white" stroke="none" points="316.25,-1280 140.75,-1280 140.75,-664 316.25,-664 316.25,-1280"/>
<text text-anchor="start" x="208.25" y="-1266.5" font-family="Helvetica,sans-Serif" font-size="10.00">TagPanel</text>
<text text-anchor="start" x="144.75" y="-1250.5" font-family="Helvetica,sans-Serif" font-size="10.00">+</text>
<text text-anchor="start" x="154.75" y="-1250.5" font-family="Helvetica,sans-Serif" font-size="10.00">HoverPosition previousHover</text>
<text text-anchor="start" x="144.75" y="-1234.5" font-family="Helvetica,sans-Serif" font-size="10.00">+</text>
<text text-anchor="start" x="154.75" y="-1234.5" font-family="Helvetica,sans-Serif" font-size="10.00">bool isInserting</text>
<text text-anchor="start" x="144.75" y="-1218.5" font-family="Helvetica,sans-Serif" font-size="10.00">+</text>
<text text-anchor="start" x="154.75" y="-1218.5" font-family="Helvetica,sans-Serif" font-size="10.00">bool isHovering</text>
<text text-anchor="start" x="145.12" y="-1202.5" font-family="Helvetica,sans-Serif" font-size="10.00">#</text>
<text text-anchor="start" x="154.75" y="-1202.5" font-family="Helvetica,sans-Serif" font-size="10.00">wxButton * cloneButton</text>
<text text-anchor="start" x="145.12" y="-1186.5" font-family="Helvetica,sans-Serif" font-size="10.00">#</text>
<text text-anchor="start" x="154.75" y="-1186.5" font-family="Helvetica,sans-Serif" font-size="10.00">wxButton * cutButton</text>
<text text-anchor="start" x="145.12" y="-1170.5" font-family="Helvetica,sans-Serif" font-size="10.00">#</text>
<text text-anchor="start" x="154.75" y="-1170.5" font-family="Helvetica,sans-Serif" font-size="10.00">wxButton * moveUpButton</text>
<text text-anchor="start" x="145.12" y="-1154.5" font-family="Helvetica,sans-Serif" font-size="10.00">#</text>
<text text-anchor="start" x="154.75" y="-1154.5" font-family="Helvetica,sans-Serif" font-size="10.00">wxButton * moveDownButton</text>
<text text-anchor="start" x="145.12" y="-1138.5" font-family="Helvetica,sans-Serif" font-size="10.00">#</text>
<text text-anchor="start" x="154.75" y="-1138.5" font-family="Helvetica,sans-Serif" font-size="10.00">wxButton * deleteButton</text>
<text text-anchor="start" x="145.12" y="-1122.5" font-family="Helvetica,sans-Serif" font-size="10.00">#</text>
<text text-anchor="start" x="154.75" y="-1122.5" font-family="Helvetica,sans-Serif" font-size="10.00">wxPoint insertPoint</text>
<text text-anchor="start" x="145.12" y="-1106.5" font-family="Helvetica,sans-Serif" font-size="10.00">#</text>
<text text-anchor="start" x="154.75" y="-1106.5" font-family="Helvetica,sans-Serif" font-size="10.00">wxSize insertRect</text>
<text text-anchor="start" x="145.12" y="-1090.5" font-family="Helvetica,sans-Serif" font-size="10.00">#</text>
<text text-anchor="start" x="154.75" y="-1090.5" font-family="Helvetica,sans-Serif" font-size="10.00">wxColour panelColor</text>
<text text-anchor="start" x="145.12" y="-1074.5" font-family="Helvetica,sans-Serif" font-size="10.00">#</text>
<text text-anchor="start" x="154.75" y="-1074.5" font-family="Helvetica,sans-Serif" font-size="10.00">wxColour tagNameColor</text>
<text text-anchor="start" x="145.12" y="-1058.5" font-family="Helvetica,sans-Serif" font-size="10.00">#</text>
<text text-anchor="start" x="154.75" y="-1058.5" font-family="Helvetica,sans-Serif" font-size="10.00">wxString tagName</text>
<text text-anchor="start" x="154.75" y="-1042.5" font-family="Helvetica,sans-Serif" font-size="10.00">and 8 more...</text>
<text text-anchor="start" x="144.75" y="-1026.5" font-family="Helvetica,sans-Serif" font-size="10.00">+</text>
<text text-anchor="start" x="154.75" y="-1026.5" font-family="Helvetica,sans-Serif" font-size="10.00">TagPanel(bool topConstructor</text>
<text text-anchor="start" x="154.75" y="-1014.5" font-family="Helvetica,sans-Serif" font-size="10.00">=true)</text>
<text text-anchor="start" x="144.75" y="-998.5" font-family="Helvetica,sans-Serif" font-size="10.00">+</text>
<text text-anchor="start" x="154.75" y="-998.5" font-family="Helvetica,sans-Serif" font-size="10.00">TagPanel(wxWindow</text>
<text text-anchor="start" x="154.75" y="-986.5" font-family="Helvetica,sans-Serif" font-size="10.00"> *parentWindow, bool</text>
<text text-anchor="start" x="154.75" y="-974.5" font-family="Helvetica,sans-Serif" font-size="10.00"> topConstructor=true)</text>
<text text-anchor="start" x="144.75" y="-958.5" font-family="Helvetica,sans-Serif" font-size="10.00">+</text>
<text text-anchor="start" x="154.75" y="-958.5" font-family="Helvetica,sans-Serif" font-size="10.00">TagPanel(const TagPanel</text>
<text text-anchor="start" x="154.75" y="-946.5" font-family="Helvetica,sans-Serif" font-size="10.00"> &amp;toCopy, bool topConstructor=true)</text>
<text text-anchor="start" x="144.75" y="-930.5" font-family="Helvetica,sans-Serif" font-size="10.00">+</text>
<text text-anchor="start" x="154.75" y="-930.5" font-family="Helvetica,sans-Serif" font-size="10.00">virtual TagPanel *</text>
<text text-anchor="start" x="154.75" y="-918.5" font-family="Helvetica,sans-Serif" font-size="10.00"> clone()</text>
<text text-anchor="start" x="144.75" y="-902.5" font-family="Helvetica,sans-Serif" font-size="10.00">+</text>
<text text-anchor="start" x="154.75" y="-902.5" font-family="Helvetica,sans-Serif" font-size="10.00">virtual int getTagHeight()</text>
<text text-anchor="start" x="144.75" y="-886.5" font-family="Helvetica,sans-Serif" font-size="10.00">+</text>
<text text-anchor="start" x="154.75" y="-886.5" font-family="Helvetica,sans-Serif" font-size="10.00">virtual void setTagName()</text>
<text text-anchor="start" x="144.75" y="-870.5" font-family="Helvetica,sans-Serif" font-size="10.00">+</text>
<text text-anchor="start" x="154.75" y="-870.5" font-family="Helvetica,sans-Serif" font-size="10.00">void setTagNameCustom</text>
<text text-anchor="start" x="154.75" y="-858.5" font-family="Helvetica,sans-Serif" font-size="10.00">(const std::string &amp;name)</text>
<text text-anchor="start" x="144.75" y="-842.5" font-family="Helvetica,sans-Serif" font-size="10.00">+</text>
<text text-anchor="start" x="154.75" y="-842.5" font-family="Helvetica,sans-Serif" font-size="10.00">virtual void setTagLine()</text>
<text text-anchor="start" x="144.75" y="-826.5" font-family="Helvetica,sans-Serif" font-size="10.00">+</text>
<text text-anchor="start" x="154.75" y="-826.5" font-family="Helvetica,sans-Serif" font-size="10.00">virtual void setColors()</text>
<text text-anchor="start" x="144.75" y="-810.5" font-family="Helvetica,sans-Serif" font-size="10.00">+</text>
<text text-anchor="start" x="154.75" y="-810.5" font-family="Helvetica,sans-Serif" font-size="10.00">void initLineSizer()</text>
<text text-anchor="start" x="154.75" y="-794.5" font-family="Helvetica,sans-Serif" font-size="10.00">and 41 more...</text>
<text text-anchor="start" x="144.75" y="-778.5" font-family="Helvetica,sans-Serif" font-size="10.00">+</text>
<text text-anchor="start" x="154.75" y="-778.5" font-family="Helvetica,sans-Serif" font-size="10.00">static int getIndexOf</text>
<text text-anchor="start" x="154.75" y="-766.5" font-family="Helvetica,sans-Serif" font-size="10.00">(wxSizer *sizer, wxSizerItem</text>
<text text-anchor="start" x="154.75" y="-754.5" font-family="Helvetica,sans-Serif" font-size="10.00"> *item)</text>
<text text-anchor="start" x="144.75" y="-738.5" font-family="Helvetica,sans-Serif" font-size="10.00">+</text>
<text text-anchor="start" x="154.75" y="-738.5" font-family="Helvetica,sans-Serif" font-size="10.00">static void init(TagPanel</text>
<text text-anchor="start" x="154.75" y="-726.5" font-family="Helvetica,sans-Serif" font-size="10.00"> *tag)</text>
<text text-anchor="start" x="144.75" y="-710.5" font-family="Helvetica,sans-Serif" font-size="10.00">+</text>
<text text-anchor="start" x="154.75" y="-710.5" font-family="Helvetica,sans-Serif" font-size="10.00">static bool isTagPanel</text>
<text text-anchor="start" x="154.75" y="-698.5" font-family="Helvetica,sans-Serif" font-size="10.00">(wxWindow *window)</text>
<text text-anchor="start" x="144.75" y="-682.5" font-family="Helvetica,sans-Serif" font-size="10.00">+</text>
<text text-anchor="start" x="154.75" y="-682.5" font-family="Helvetica,sans-Serif" font-size="10.00">static TagPanel * getTag</text>
<text text-anchor="start" x="154.75" y="-670.5" font-family="Helvetica,sans-Serif" font-size="10.00">Panel(wxWindow *window)</text>
<polygon fill="#666666" stroke="#666666" points="140.75,-1262 140.75,-1262 316.25,-1262 316.25,-1262 140.75,-1262"/>
<polygon fill="#666666" stroke="#666666" points="140.75,-1038 140.75,-1038 152.75,-1038 152.75,-1038 140.75,-1038"/>
<polygon fill="#666666" stroke="#666666" points="152.75,-1038 152.75,-1038 316.25,-1038 316.25,-1038 152.75,-1038"/>
<polygon fill="none" stroke="#666666" points="140.75,-664 140.75,-1280 316.25,-1280 316.25,-664 140.75,-664"/>
</a>
</g>
</g>
<!-- Node2&#45;&gt;Node1 -->
<g id="edge1_Node000001_Node000002" class="edge">
<title>Node2&#45;&gt;Node1</title>
<g id="a_edge1_Node000001_Node000002"><a xlink:title=" ">
<path fill="none" stroke="#63b8ff" d="M228.5,-652.87C228.5,-644.51 228.5,-636.2 228.5,-628"/>
<polygon fill="none" stroke="#63b8ff" points="225,-652.81 228.5,-662.81 232,-652.81 225,-652.81"/>
</a>
</g>
</g>
<!-- Node3 -->
<g id="Node000003" class="node">
<title>Node3</title>
<g id="a_Node000003"><a xlink:title=" ">
<polygon fill="white" stroke="none" points="251.25,-1368 205.75,-1368 205.75,-1316 251.25,-1316 251.25,-1368"/>
<text text-anchor="start" x="209.75" y="-1354.5" font-family="Helvetica,sans-Serif" font-size="10.00">wxPanel</text>
<text text-anchor="start" x="227" y="-1338.5" font-family="Helvetica,sans-Serif" font-size="10.00"> </text>
<text text-anchor="start" x="227" y="-1322.5" font-family="Helvetica,sans-Serif" font-size="10.00"> </text>
<polygon fill="#666666" stroke="#666666" points="205.75,-1350 205.75,-1350 251.25,-1350 251.25,-1350 205.75,-1350"/>
<polygon fill="#666666" stroke="#666666" points="205.75,-1334 205.75,-1334 251.25,-1334 251.25,-1334 205.75,-1334"/>
<polygon fill="none" stroke="#666666" points="205.75,-1316 205.75,-1368 251.25,-1368 251.25,-1316 205.75,-1316"/>
</a>
</g>
</g>
<!-- Node3&#45;&gt;Node2 -->
<g id="edge2_Node000002_Node000003" class="edge">
<title>Node3&#45;&gt;Node2</title>
<g id="a_edge2_Node000002_Node000003"><a xlink:title=" ">
<path fill="none" stroke="#63b8ff" d="M228.5,-1305.01C228.5,-1297.54 228.5,-1289.12 228.5,-1279.94"/>
<polygon fill="none" stroke="#63b8ff" points="225,-1304.77 228.5,-1314.77 232,-1304.77 225,-1304.77"/>
</a>
</g>
</g>
</g>
</svg>

<g id="navigator" transform="translate(0 0)" fill="#404254">
  <rect fill="#f2f5e9" fill-opacity="0.5" stroke="#606060" stroke-width=".5" x="0" y="0" width="60" height="60"/>
  <use id="zoomplus" xlink:href="#zoomPlus" x="17" y="9" onmousedown="handleZoom(evt,'in')"/>
  <use id="zoomminus" xlink:href="#zoomMin" x="42" y="9" onmousedown="handleZoom(evt,'out')"/>
  <use id="reset" xlink:href="#resetDef" x="30" y="36" onmousedown="handleReset()"/>
   <use id="arrowup" xlink:href="#arrowUp" x="0" y="0" onmousedown="handlePan(0,-1)"/>
  <use id="arrowright" xlink:href="#arrowRight" x="0" y="0" onmousedown="handlePan(1,0)"/>
  <use id="arrowdown" xlink:href="#arrowDown" x="0" y="0" onmousedown="handlePan(0,1)"/>
  <use id="arrowleft" xlink:href="#arrowLeft" x="0" y="0" onmousedown="handlePan(-1,0)"/>
</g>
<svg viewBox="0 0 15 15" width="100%" height="30px" preserveAspectRatio="xMaxYMin meet">
 <g id="arrow_out" transform="scale(0.3 0.3)">
  <a xlink:href="class_flow_tag_panel__inherit__graph_org.svg" target="_base">
   <rect id="button" ry="5" rx="5" y="6" x="6" height="38" width="38"
        fill="#f2f5e9" fill-opacity="0.5" stroke="#606060" stroke-width="1.0"/>
   <path id="arrow"
     d="M 11.500037,31.436501 C 11.940474,20.09759 22.043105,11.32322 32.158766,21.979434 L 37.068811,17.246167 C 37.068811,17.246167 37.088388,32 37.088388,32 L 22.160133,31.978069 C 22.160133,31.978069 26.997745,27.140456 26.997745,27.140456 C 18.528582,18.264221 13.291696,25.230495 11.500037,31.436501 z"
     style="fill:#404040;"/>
  </a>
 </g>
</svg>

<style type='text/css'>
<![CDATA[
[data-mouse-over-selected='false'] { opacity: 0.7; }
[data-mouse-over-selected='true']  { opacity: 1.0; }
]]>
</style>
<script type="application/ecmascript"><![CDATA[
document.addEventListener('DOMContentLoaded', (event) => {
  highlightEdges();
  highlightAdjacentNodes();
});
]]></script>
</svg>
