<?xml version="1.0" encoding="UTF-8" standalone="no"?>
<!DOCTYPE svg PUBLIC "-//W3C//DTD SVG 1.1//EN"
 "http://www.w3.org/Graphics/SVG/1.1/DTD/svg11.dtd">
<!-- Generated by graphviz version 12.2.0 (20241103.1931)
 -->
<!-- Title: BotConfig::doWriteInit Pages: 1 -->
<svg width="715pt" height="292pt"
 viewBox="0.00 0.00 715.00 292.00" xmlns="http://www.w3.org/2000/svg" xmlns:xlink="http://www.w3.org/1999/xlink">
<g id="graph0" class="graph" transform="scale(1 1) rotate(0) translate(4 288)">
<title>BotConfig::doWriteInit</title>
<!-- Node1 -->
<g id="Node000001" class="node">
<title>Node1</title>
<g id="a_Node000001"><a xlink:title=" ">
<polygon fill="#999999" stroke="#666666" points="112,-124 0,-124 0,-104 112,-104 112,-124"/>
<text text-anchor="middle" x="56" y="-110.5" font-family="Helvetica,sans-Serif" font-size="10.00">BotConfig::doWriteInit</text>
</a>
</g>
</g>
<!-- Node2 -->
<g id="Node000002" class="node">
<title>Node2</title>
<g id="a_Node000002"><a xlink:href="class_bot_config.html#a100e179305b4c6eb54ff8a680616ec03" target="_top" xlink:title=" ">
<polygon fill="white" stroke="#666666" points="287.75,-190 148,-190 148,-170 287.75,-170 287.75,-190"/>
<text text-anchor="middle" x="217.88" y="-176.5" font-family="Helvetica,sans-Serif" font-size="10.00">BotConfig::verifyParameters</text>
</a>
</g>
</g>
<!-- Node1&#45;&gt;Node2 -->
<g id="edge1_Node000001_Node000002" class="edge">
<title>Node1&#45;&gt;Node2</title>
<g id="a_edge1_Node000001_Node000002"><a xlink:title=" ">
<path fill="none" stroke="#63b8ff" d="M82.33,-124.46C108.99,-135.46 151.18,-152.88 181.2,-165.27"/>
<polygon fill="#63b8ff" stroke="#63b8ff" points="179.68,-168.43 190.26,-169.01 182.35,-161.96 179.68,-168.43"/>
</a>
</g>
</g>
<!-- Node11 -->
<g id="Node000011" class="node">
<title>Node11</title>
<g id="a_Node000011"><a xlink:href="class_bot_config.html#a5ea5db5fbc78be03cd9450d4b4c0e73c" target="_top" xlink:title=" ">
<polygon fill="white" stroke="#666666" points="267.88,-77 167.88,-77 167.88,-57 267.88,-57 267.88,-77"/>
<text text-anchor="middle" x="217.88" y="-63.5" font-family="Helvetica,sans-Serif" font-size="10.00">BotConfig::writeInit</text>
</a>
</g>
</g>
<!-- Node1&#45;&gt;Node11 -->
<g id="edge12_Node000001_Node000011" class="edge">
<title>Node1&#45;&gt;Node11</title>
<g id="a_edge12_Node000001_Node000011"><a xlink:title=" ">
<path fill="none" stroke="#63b8ff" d="M92.48,-103.57C115.38,-96.84 145.41,-88.01 170.22,-80.71"/>
<polygon fill="#63b8ff" stroke="#63b8ff" points="171.16,-84.09 179.76,-77.91 169.18,-77.37 171.16,-84.09"/>
</a>
</g>
</g>
<!-- Node3 -->
<g id="Node000003" class="node">
<title>Node3</title>
<g id="a_Node000003"><a xlink:href="class_bot_config.html#a1652dcc0a496d11e8d7f35d8c88e6014" target="_top" xlink:title=" ">
<polygon fill="white" stroke="#666666" points="466.88,-284 324.88,-284 324.88,-264 466.88,-264 466.88,-284"/>
<text text-anchor="middle" x="395.88" y="-270.5" font-family="Helvetica,sans-Serif" font-size="10.00">BotConfig::getBotFilecontent</text>
</a>
</g>
</g>
<!-- Node2&#45;&gt;Node3 -->
<g id="edge2_Node000002_Node000003" class="edge">
<title>Node2&#45;&gt;Node3</title>
<g id="a_edge2_Node000002_Node000003"><a xlink:title=" ">
<path fill="none" stroke="#63b8ff" d="M230.26,-190.29C248.62,-206.37 286.5,-237.42 323.75,-255 327.5,-256.77 331.43,-258.39 335.45,-259.88"/>
<polygon fill="#63b8ff" stroke="#63b8ff" points="334.19,-263.15 344.78,-263.03 336.42,-256.52 334.19,-263.15"/>
</a>
</g>
</g>
<!-- Node6 -->
<g id="Node000006" class="node">
<title>Node6</title>
<g id="a_Node000006"><a xlink:href="class_bot_config.html#a87ca6a00d5b852b1c96966bcd1cbb417" target="_top" xlink:title=" ">
<polygon fill="white" stroke="#666666" points="465,-246 326.75,-246 326.75,-214 465,-214 465,-246"/>
<text text-anchor="start" x="334.75" y="-232.5" font-family="Helvetica,sans-Serif" font-size="10.00">BotConfig::verifyBluestacks</text>
<text text-anchor="middle" x="395.88" y="-220.5" font-family="Helvetica,sans-Serif" font-size="10.00">Parameters</text>
</a>
</g>
</g>
<!-- Node2&#45;&gt;Node6 -->
<g id="edge5_Node000002_Node000006" class="edge">
<title>Node2&#45;&gt;Node6</title>
<g id="a_edge5_Node000002_Node000006"><a xlink:title=" ">
<path fill="none" stroke="#63b8ff" d="M255.77,-190.48C276.14,-196.27 302.09,-203.64 326.05,-210.45"/>
<polygon fill="#63b8ff" stroke="#63b8ff" points="324.86,-213.75 335.44,-213.12 326.78,-207.02 324.86,-213.75"/>
</a>
</g>
</g>
<!-- Node9 -->
<g id="Node000009" class="node">
<title>Node9</title>
<g id="a_Node000009"><a xlink:href="class_bot_config.html#a065587486500e26019a183c4727ac9ef" target="_top" xlink:title=" ">
<polygon fill="white" stroke="#666666" points="456.75,-196 335,-196 335,-164 456.75,-164 456.75,-196"/>
<text text-anchor="start" x="343" y="-182.5" font-family="Helvetica,sans-Serif" font-size="10.00">BotConfig::verifyfavorite</text>
<text text-anchor="middle" x="395.88" y="-170.5" font-family="Helvetica,sans-Serif" font-size="10.00">Parameters</text>
</a>
</g>
</g>
<!-- Node2&#45;&gt;Node9 -->
<g id="edge8_Node000002_Node000009" class="edge">
<title>Node2&#45;&gt;Node9</title>
<g id="a_edge8_Node000002_Node000009"><a xlink:title=" ">
<path fill="none" stroke="#63b8ff" d="M288.18,-180C299.73,-180 311.72,-180 323.32,-180"/>
<polygon fill="#63b8ff" stroke="#63b8ff" points="323.24,-183.5 333.24,-180 323.24,-176.5 323.24,-183.5"/>
</a>
</g>
</g>
<!-- Node10 -->
<g id="Node000010" class="node">
<title>Node10</title>
<g id="a_Node000010"><a xlink:href="class_bot_config.html#a6ed63ab2d1ba5fcb75a28e8068296585" target="_top" xlink:title=" ">
<polygon fill="white" stroke="#666666" points="459.75,-146 332,-146 332,-114 459.75,-114 459.75,-146"/>
<text text-anchor="start" x="340" y="-132.5" font-family="Helvetica,sans-Serif" font-size="10.00">BotConfig::verifyLdPlayer</text>
<text text-anchor="middle" x="395.88" y="-120.5" font-family="Helvetica,sans-Serif" font-size="10.00">Parameters</text>
</a>
</g>
</g>
<!-- Node2&#45;&gt;Node10 -->
<g id="edge10_Node000002_Node000010" class="edge">
<title>Node2&#45;&gt;Node10</title>
<g id="a_edge10_Node000002_Node000010"><a xlink:title=" ">
<path fill="none" stroke="#63b8ff" d="M255.77,-169.52C276.14,-163.73 302.09,-156.36 326.05,-149.55"/>
<polygon fill="#63b8ff" stroke="#63b8ff" points="326.78,-152.98 335.44,-146.88 324.86,-146.25 326.78,-152.98"/>
</a>
</g>
</g>
<!-- Node4 -->
<g id="Node000004" class="node">
<title>Node4</title>
<g id="a_Node000004"><a xlink:href="_text_manager_8cpp.html#add36cc54cd9616a393a17b8961491477" target="_top" xlink:title=" ">
<polygon fill="white" stroke="#666666" points="586.75,-284 507,-284 507,-264 586.75,-264 586.75,-284"/>
<text text-anchor="middle" x="546.88" y="-270.5" font-family="Helvetica,sans-Serif" font-size="10.00">getFileContent</text>
</a>
</g>
</g>
<!-- Node3&#45;&gt;Node4 -->
<g id="edge3_Node000003_Node000004" class="edge">
<title>Node3&#45;&gt;Node4</title>
<g id="a_edge3_Node000003_Node000004"><a xlink:title=" ">
<path fill="none" stroke="#63b8ff" d="M467.01,-274C476.56,-274 486.21,-274 495.33,-274"/>
<polygon fill="#63b8ff" stroke="#63b8ff" points="495.02,-277.5 505.02,-274 495.02,-270.5 495.02,-277.5"/>
</a>
</g>
</g>
<!-- Node5 -->
<g id="Node000005" class="node">
<title>Node5</title>
<g id="a_Node000005"><a xlink:href="_text_manager_8cpp.html#a5e4308ca14d1f4cfc2456fc26b1361a8" target="_top" xlink:title=" ">
<polygon fill="white" stroke="#666666" points="707,-284 625.75,-284 625.75,-264 707,-264 707,-284"/>
<text text-anchor="middle" x="666.38" y="-270.5" font-family="Helvetica,sans-Serif" font-size="10.00">getIfstreamFile</text>
</a>
</g>
</g>
<!-- Node4&#45;&gt;Node5 -->
<g id="edge4_Node000004_Node000005" class="edge">
<title>Node4&#45;&gt;Node5</title>
<g id="a_edge4_Node000004_Node000005"><a xlink:title=" ">
<path fill="none" stroke="#63b8ff" d="M587,-274C595.73,-274 605.12,-274 614.25,-274"/>
<polygon fill="#63b8ff" stroke="#63b8ff" points="614.1,-277.5 624.1,-274 614.1,-270.5 614.1,-277.5"/>
</a>
</g>
</g>
<!-- Node7 -->
<g id="Node000007" class="node">
<title>Node7</title>
<g id="a_Node000007"><a xlink:href="_text_manager_8cpp.html#acd5e438b43d1ea1b3fc41a8badfe635b" target="_top" xlink:title=" ">
<polygon fill="white" stroke="#666666" points="580,-190 513.75,-190 513.75,-170 580,-170 580,-190"/>
<text text-anchor="middle" x="546.88" y="-176.5" font-family="Helvetica,sans-Serif" font-size="10.00">findContent</text>
</a>
</g>
</g>
<!-- Node6&#45;&gt;Node7 -->
<g id="edge6_Node000006_Node000007" class="edge">
<title>Node6&#45;&gt;Node7</title>
<g id="a_edge6_Node000006_Node000007"><a xlink:title=" ">
<path fill="none" stroke="#63b8ff" d="M445.66,-213.63C464.5,-207.31 485.84,-200.15 503.96,-194.06"/>
<polygon fill="#63b8ff" stroke="#63b8ff" points="504.99,-197.41 513.35,-190.91 502.76,-190.78 504.99,-197.41"/>
</a>
</g>
</g>
<!-- Node8 -->
<g id="Node000008" class="node">
<title>Node8</title>
<g id="a_Node000008"><a xlink:href="_text_manager_8cpp.html#afbb8972025ad14e914fdaafa26957439" target="_top" xlink:title=" ">
<polygon fill="white" stroke="#666666" points="690.88,-190 641.88,-190 641.88,-170 690.88,-170 690.88,-190"/>
<text text-anchor="middle" x="666.38" y="-176.5" font-family="Helvetica,sans-Serif" font-size="10.00">findPos</text>
</a>
</g>
</g>
<!-- Node7&#45;&gt;Node8 -->
<g id="edge7_Node000007_Node000008" class="edge">
<title>Node7&#45;&gt;Node8</title>
<g id="a_edge7_Node000007_Node000008"><a xlink:title=" ">
<path fill="none" stroke="#63b8ff" d="M580.29,-180C595.77,-180 614.33,-180 630.16,-180"/>
<polygon fill="#63b8ff" stroke="#63b8ff" points="630.12,-183.5 640.12,-180 630.12,-176.5 630.12,-183.5"/>
</a>
</g>
</g>
<!-- Node9&#45;&gt;Node7 -->
<g id="edge9_Node000009_Node000007" class="edge">
<title>Node9&#45;&gt;Node7</title>
<g id="a_edge9_Node000009_Node000007"><a xlink:title=" ">
<path fill="none" stroke="#63b8ff" d="M457.05,-180C472.07,-180 487.89,-180 501.96,-180"/>
<polygon fill="#63b8ff" stroke="#63b8ff" points="501.79,-183.5 511.79,-180 501.79,-176.5 501.79,-183.5"/>
</a>
</g>
</g>
<!-- Node10&#45;&gt;Node7 -->
<g id="edge11_Node000010_Node000007" class="edge">
<title>Node10&#45;&gt;Node7</title>
<g id="a_edge11_Node000010_Node000007"><a xlink:title=" ">
<path fill="none" stroke="#63b8ff" d="M445.66,-146.37C464.5,-152.69 485.84,-159.85 503.96,-165.94"/>
<polygon fill="#63b8ff" stroke="#63b8ff" points="502.76,-169.22 513.35,-169.09 504.99,-162.59 502.76,-169.22"/>
</a>
</g>
</g>
<!-- Node12 -->
<g id="Node000012" class="node">
<title>Node12</title>
<g id="a_Node000012"><a xlink:href="class_bot_config.html#aeb7fe97edfbfb8a9d0a30c156e8a5bb9" target="_top" xlink:title=" ">
<polygon fill="white" stroke="#666666" points="468,-96 323.75,-96 323.75,-76 468,-76 468,-96"/>
<text text-anchor="middle" x="395.88" y="-82.5" font-family="Helvetica,sans-Serif" font-size="10.00">BotConfig::textInitBluestacks</text>
</a>
</g>
</g>
<!-- Node11&#45;&gt;Node12 -->
<g id="edge13_Node000011_Node000012" class="edge">
<title>Node11&#45;&gt;Node12</title>
<g id="a_edge13_Node000011_Node000012"><a xlink:title=" ">
<path fill="none" stroke="#63b8ff" d="M268.37,-72.34C281.98,-73.81 297.12,-75.45 312.07,-77.06"/>
<polygon fill="#63b8ff" stroke="#63b8ff" points="311.6,-80.53 321.92,-78.12 312.35,-73.57 311.6,-80.53"/>
</a>
</g>
</g>
<!-- Node13 -->
<g id="Node000013" class="node">
<title>Node13</title>
<g id="a_Node000013"><a xlink:href="class_bot_config.html#a734ee0b264983e8da4ee33926e076602" target="_top" xlink:title=" ">
<polygon fill="white" stroke="#666666" points="462.75,-58 329,-58 329,-38 462.75,-38 462.75,-58"/>
<text text-anchor="middle" x="395.88" y="-44.5" font-family="Helvetica,sans-Serif" font-size="10.00">BotConfig::textInitLdPlayer</text>
</a>
</g>
</g>
<!-- Node11&#45;&gt;Node13 -->
<g id="edge14_Node000011_Node000013" class="edge">
<title>Node11&#45;&gt;Node13</title>
<g id="a_edge14_Node000011_Node000013"><a xlink:title=" ">
<path fill="none" stroke="#63b8ff" d="M268.37,-61.66C283.57,-60.02 300.68,-58.17 317.29,-56.38"/>
<polygon fill="#63b8ff" stroke="#63b8ff" points="317.6,-59.86 327.17,-55.31 316.85,-52.9 317.6,-59.86"/>
</a>
</g>
</g>
<!-- Node14 -->
<g id="Node000014" class="node">
<title>Node14</title>
<g id="a_Node000014"><a xlink:href="_text_manager_8cpp.html#ab55140c566370b105b9bf81756293fa5" target="_top" xlink:title=" ">
<polygon fill="white" stroke="#666666" points="427.5,-20 364.25,-20 364.25,0 427.5,0 427.5,-20"/>
<text text-anchor="middle" x="395.88" y="-6.5" font-family="Helvetica,sans-Serif" font-size="10.00">writeToFile</text>
</a>
</g>
</g>
<!-- Node11&#45;&gt;Node14 -->
<g id="edge15_Node000011_Node000014" class="edge">
<title>Node11&#45;&gt;Node14</title>
<g id="a_edge15_Node000011_Node000014"><a xlink:title=" ">
<path fill="none" stroke="#63b8ff" d="M245.82,-56.51C266.87,-48.49 296.96,-37.41 323.75,-29 333.13,-26.05 343.29,-23.16 352.92,-20.56"/>
<polygon fill="#63b8ff" stroke="#63b8ff" points="353.67,-23.98 362.44,-18.04 351.87,-17.22 353.67,-23.98"/>
</a>
</g>
</g>
<!-- Node15 -->
<g id="Node000015" class="node">
<title>Node15</title>
<g id="a_Node000015"><a xlink:href="_text_manager_8cpp.html#a4a86df56d2737552b2fd63bfa85c5800" target="_top" xlink:title=" ">
<polygon fill="white" stroke="#666666" points="589.75,-20 504,-20 504,0 589.75,0 589.75,-20"/>
<text text-anchor="middle" x="546.88" y="-6.5" font-family="Helvetica,sans-Serif" font-size="10.00">getOfstreamFile</text>
</a>
</g>
</g>
<!-- Node14&#45;&gt;Node15 -->
<g id="edge16_Node000014_Node000015" class="edge">
<title>Node14&#45;&gt;Node15</title>
<g id="a_edge16_Node000014_Node000015"><a xlink:title=" ">
<path fill="none" stroke="#63b8ff" d="M427.75,-10C446.39,-10 470.66,-10 492.35,-10"/>
<polygon fill="#63b8ff" stroke="#63b8ff" points="492.23,-13.5 502.23,-10 492.23,-6.5 492.23,-13.5"/>
</a>
</g>
</g>
</g>
</svg>
