<?xml version="1.0" encoding="UTF-8" standalone="no"?>
<!DOCTYPE svg PUBLIC "-//W3C//DTD SVG 1.1//EN"
 "http://www.w3.org/Graphics/SVG/1.1/DTD/svg11.dtd">
<!-- Generated by graphviz version 12.2.0 (20241103.1931)
 -->
<!-- Title: BotConfig::readDataBluestacks Pages: 1 -->
<svg width="852pt" height="104pt"
 viewBox="0.00 0.00 851.75 104.00" xmlns="http://www.w3.org/2000/svg" xmlns:xlink="http://www.w3.org/1999/xlink">
<g id="graph0" class="graph" transform="scale(1 1) rotate(0) translate(4 100)">
<title>BotConfig::readDataBluestacks</title>
<!-- Node1 -->
<g id="Node000001" class="node">
<title>Node1</title>
<g id="a_Node000001"><a xlink:title=" ">
<polygon fill="#999999" stroke="#666666" points="154,-58 0,-58 0,-38 154,-38 154,-58"/>
<text text-anchor="middle" x="77" y="-44.5" font-family="Helvetica,sans-Serif" font-size="10.00">BotConfig::readDataBluestacks</text>
</a>
</g>
</g>
<!-- Node2 -->
<g id="Node000002" class="node">
<title>Node2</title>
<g id="a_Node000002"><a xlink:href="class_bot_config.html#a5aafe893fa75e1b711e3ef3f4e4db9cc" target="_top" xlink:title=" ">
<polygon fill="white" stroke="#666666" points="324.5,-58 190,-58 190,-38 324.5,-38 324.5,-58"/>
<text text-anchor="middle" x="257.25" y="-44.5" font-family="Helvetica,sans-Serif" font-size="10.00">BotConfig::readBoolBotFile</text>
</a>
</g>
</g>
<!-- Node1&#45;&gt;Node2 -->
<g id="edge1_Node000001_Node000002" class="edge">
<title>Node1&#45;&gt;Node2</title>
<g id="a_edge1_Node000001_Node000002"><a xlink:title=" ">
<path fill="none" stroke="#63b8ff" d="M154.37,-48C162.24,-48 170.25,-48 178.14,-48"/>
<polygon fill="#63b8ff" stroke="#63b8ff" points="178.08,-51.5 188.08,-48 178.08,-44.5 178.08,-51.5"/>
</a>
</g>
</g>
<!-- Node3 -->
<g id="Node000003" class="node">
<title>Node3</title>
<g id="a_Node000003"><a xlink:href="class_bot_config.html#a459cd36b6c6f36f9bd73ff207e2fe5ec" target="_top" xlink:title=" ">
<polygon fill="white" stroke="#666666" points="464.25,-58 360.5,-58 360.5,-38 464.25,-38 464.25,-58"/>
<text text-anchor="middle" x="412.38" y="-44.5" font-family="Helvetica,sans-Serif" font-size="10.00">BotConfig::readBool</text>
</a>
</g>
</g>
<!-- Node2&#45;&gt;Node3 -->
<g id="edge2_Node000002_Node000003" class="edge">
<title>Node2&#45;&gt;Node3</title>
<g id="a_edge2_Node000002_Node000003"><a xlink:title=" ">
<path fill="none" stroke="#63b8ff" d="M324.97,-48C332.87,-48 340.92,-48 348.77,-48"/>
<polygon fill="#63b8ff" stroke="#63b8ff" points="348.56,-51.5 358.56,-48 348.56,-44.5 348.56,-51.5"/>
</a>
</g>
</g>
<!-- Node4 -->
<g id="Node000004" class="node">
<title>Node4</title>
<g id="a_Node000004"><a xlink:href="class_bot_config.html#a623d05e4d8e0122d35b1a3e391fc2464" target="_top" xlink:title=" ">
<polygon fill="white" stroke="#666666" points="610,-58 500.25,-58 500.25,-38 610,-38 610,-58"/>
<text text-anchor="middle" x="555.12" y="-44.5" font-family="Helvetica,sans-Serif" font-size="10.00">BotConfig::readString</text>
</a>
</g>
</g>
<!-- Node3&#45;&gt;Node4 -->
<g id="edge3_Node000003_Node000004" class="edge">
<title>Node3&#45;&gt;Node4</title>
<g id="a_edge3_Node000003_Node000004"><a xlink:title=" ">
<path fill="none" stroke="#63b8ff" d="M464.59,-48C472.39,-48 480.53,-48 488.58,-48"/>
<polygon fill="#63b8ff" stroke="#63b8ff" points="488.36,-51.5 498.36,-48 488.36,-44.5 488.36,-51.5"/>
</a>
</g>
</g>
<!-- Node5 -->
<g id="Node000005" class="node">
<title>Node5</title>
<g id="a_Node000005"><a xlink:href="_text_manager_8cpp.html#aa61ad4367d44c1e14541c7c1c46da795" target="_top" xlink:title=" ">
<polygon fill="white" stroke="#666666" points="726.5,-96 646,-96 646,-76 726.5,-76 726.5,-96"/>
<text text-anchor="middle" x="686.25" y="-82.5" font-family="Helvetica,sans-Serif" font-size="10.00">extractContent</text>
</a>
</g>
</g>
<!-- Node4&#45;&gt;Node5 -->
<g id="edge4_Node000004_Node000005" class="edge">
<title>Node4&#45;&gt;Node5</title>
<g id="a_edge4_Node000004_Node000005"><a xlink:title=" ">
<path fill="none" stroke="#63b8ff" d="M591.75,-58.48C606.29,-62.76 623.29,-67.77 638.78,-72.33"/>
<polygon fill="#63b8ff" stroke="#63b8ff" points="637.71,-75.66 648.29,-75.12 639.68,-68.94 637.71,-75.66"/>
</a>
</g>
</g>
<!-- Node7 -->
<g id="Node000007" class="node">
<title>Node7</title>
<g id="a_Node000007"><a xlink:href="_text_manager_8cpp.html#add36cc54cd9616a393a17b8961491477" target="_top" xlink:title=" ">
<polygon fill="white" stroke="#666666" points="726.12,-20 646.38,-20 646.38,0 726.12,0 726.12,-20"/>
<text text-anchor="middle" x="686.25" y="-6.5" font-family="Helvetica,sans-Serif" font-size="10.00">getFileContent</text>
</a>
</g>
</g>
<!-- Node4&#45;&gt;Node7 -->
<g id="edge6_Node000004_Node000007" class="edge">
<title>Node4&#45;&gt;Node7</title>
<g id="a_edge6_Node000004_Node000007"><a xlink:title=" ">
<path fill="none" stroke="#63b8ff" d="M591.75,-37.52C606.29,-33.24 623.29,-28.23 638.78,-23.67"/>
<polygon fill="#63b8ff" stroke="#63b8ff" points="639.68,-27.06 648.29,-20.88 637.71,-20.34 639.68,-27.06"/>
</a>
</g>
</g>
<!-- Node9 -->
<g id="Node000009" class="node">
<title>Node9</title>
<g id="a_Node000009"><a xlink:href="_text_manager_8cpp.html#af24bee60aa1d3d5b4ae3bf6ebd267ecd" target="_top" xlink:title=" ">
<polygon fill="white" stroke="#666666" points="710,-58 662.5,-58 662.5,-38 710,-38 710,-58"/>
<text text-anchor="middle" x="686.25" y="-44.5" font-family="Helvetica,sans-Serif" font-size="10.00">getLine</text>
</a>
</g>
</g>
<!-- Node4&#45;&gt;Node9 -->
<g id="edge8_Node000004_Node000009" class="edge">
<title>Node4&#45;&gt;Node9</title>
<g id="a_edge8_Node000004_Node000009"><a xlink:title=" ">
<path fill="none" stroke="#63b8ff" d="M610.14,-48C623.96,-48 638.45,-48 650.98,-48"/>
<polygon fill="#63b8ff" stroke="#63b8ff" points="650.78,-51.5 660.78,-48 650.78,-44.5 650.78,-51.5"/>
</a>
</g>
</g>
<!-- Node6 -->
<g id="Node000006" class="node">
<title>Node6</title>
<g id="a_Node000006"><a xlink:href="_text_manager_8cpp.html#afbb8972025ad14e914fdaafa26957439" target="_top" xlink:title=" ">
<polygon fill="white" stroke="#666666" points="827.62,-77 778.62,-77 778.62,-57 827.62,-57 827.62,-77"/>
<text text-anchor="middle" x="803.12" y="-63.5" font-family="Helvetica,sans-Serif" font-size="10.00">findPos</text>
</a>
</g>
</g>
<!-- Node5&#45;&gt;Node6 -->
<g id="edge5_Node000005_Node000006" class="edge">
<title>Node5&#45;&gt;Node6</title>
<g id="a_edge5_Node000005_Node000006"><a xlink:title=" ">
<path fill="none" stroke="#63b8ff" d="M726.78,-79.46C739.9,-77.29 754.4,-74.89 767.15,-72.78"/>
<polygon fill="#63b8ff" stroke="#63b8ff" points="767.49,-76.28 776.79,-71.19 766.35,-69.37 767.49,-76.28"/>
</a>
</g>
</g>
<!-- Node8 -->
<g id="Node000008" class="node">
<title>Node8</title>
<g id="a_Node000008"><a xlink:href="_text_manager_8cpp.html#a5e4308ca14d1f4cfc2456fc26b1361a8" target="_top" xlink:title=" ">
<polygon fill="white" stroke="#666666" points="843.75,-20 762.5,-20 762.5,0 843.75,0 843.75,-20"/>
<text text-anchor="middle" x="803.12" y="-6.5" font-family="Helvetica,sans-Serif" font-size="10.00">getIfstreamFile</text>
</a>
</g>
</g>
<!-- Node7&#45;&gt;Node8 -->
<g id="edge7_Node000007_Node000008" class="edge">
<title>Node7&#45;&gt;Node8</title>
<g id="a_edge7_Node000007_Node000008"><a xlink:title=" ">
<path fill="none" stroke="#63b8ff" d="M726.46,-10C734.33,-10 742.7,-10 750.9,-10"/>
<polygon fill="#63b8ff" stroke="#63b8ff" points="750.8,-13.5 760.8,-10 750.8,-6.5 750.8,-13.5"/>
</a>
</g>
</g>
<!-- Node9&#45;&gt;Node6 -->
<g id="edge9_Node000009_Node000006" class="edge">
<title>Node9&#45;&gt;Node6</title>
<g id="a_edge9_Node000009_Node000006"><a xlink:title=" ">
<path fill="none" stroke="#63b8ff" d="M710.5,-51.84C726.82,-54.54 748.92,-58.2 767.34,-61.25"/>
<polygon fill="#63b8ff" stroke="#63b8ff" points="766.59,-64.67 777.03,-62.85 767.73,-57.76 766.59,-64.67"/>
</a>
</g>
</g>
</g>
</svg>
