<?xml version="1.0" encoding="UTF-8" standalone="no"?>
<!DOCTYPE svg PUBLIC "-//W3C//DTD SVG 1.1//EN"
 "http://www.w3.org/Graphics/SVG/1.1/DTD/svg11.dtd">
<!-- Generated by graphviz version 12.2.0 (20241103.1931)
 -->
<!-- Title: Interpretor Pages: 1 -->
<!--zoomable 860 -->

<svg id="main" version="1.1" xmlns="http://www.w3.org/2000/svg" xmlns:xlink="http://www.w3.org/1999/xlink" xml:space="preserve" onload="init(evt)">

<style type="text/css"><![CDATA[
.node, .edge {opacity: 0.7;}
.node.selected, .edge.selected {opacity: 1;}
.edge:hover path { stroke: red; }
.edge:hover polygon { stroke: red; fill: red; }
]]></style>

<defs>
  <circle id="rim" cx="0" cy="0" r="7"/>
  <circle id="rim2" cx="0" cy="0" r="3.5"/>
  <g id="zoomPlus">
    <use xlink:href="#rim" fill="#404040"><set attributeName="fill" to="#808080" begin="zoomplus.mouseover" end="zoomplus.mouseout"/></use>
    <path d="M-4,0h8M0,-4v8" fill="none" stroke="white" stroke-width="1.5" pointer-events="none"/>
  </g>
  <g id="zoomMin">
    <use xlink:href="#rim" fill="#404040"><set attributeName="fill" to="#808080" begin="zoomminus.mouseover" end="zoomminus.mouseout"/></use>
    <path d="M-4,0h8" fill="none" stroke="white" stroke-width="1.5" pointer-events="none"/>
  </g>
  <g id="arrowUp" transform="translate(30 24)">
    <use xlink:href="#rim"/>
    <path pointer-events="none" fill="none" stroke="white" stroke-width="1.5" d="M0,-3.0v7 M-2.5,-0.5L0,-3.0L2.5,-0.5"/>
  </g>
  <g id="arrowRight" transform="rotate(90) translate(36 -43)">
    <use xlink:href="#rim"/>
    <path pointer-events="none" fill="none" stroke="white" stroke-width="1.5" d="M0,-3.0v7 M-2.5,-0.5L0,-3.0L2.5,-0.5"/>
  </g>
  <g id="arrowDown" transform="rotate(180) translate(-30 -48)">
    <use xlink:href="#rim"/>
    <path pointer-events="none" fill="none" stroke="white" stroke-width="1.5" d="M0,-3.0v7 M-2.5,-0.5L0,-3.0L2.5,-0.5"/>
  </g>
  <g id="arrowLeft" transform="rotate(270) translate(-36 17)">
    <use xlink:href="#rim"/>
    <path pointer-events="none" fill="none" stroke="white" stroke-width="1.5" d="M0,-3.0v7 M-2.5,-0.5L0,-3.0L2.5,-0.5"/>
  </g>
  <g id="resetDef">
    <use xlink:href="#rim2" fill="#404040"><set attributeName="fill" to="#808080" begin="reset.mouseover" end="reset.mouseout"/></use>
  </g>
</defs>
<script type="application/ecmascript">
var viewWidth = 366;
var viewHeight = 860;
var sectionId = 'dynsection-0';
</script>
<script type="application/ecmascript" xlink:href="svg.min.js"/>
<svg id="graph" class="graph">
<g id="viewport">
<title>Interpretor</title>
<!-- Node1 -->
<g id="Node000001" class="node">
<title>Node1</title>
<g id="a_Node000001"><a xlink:title=" ">
<polygon fill="#999999" stroke="none" points="210.88,-332 46.62,-332 46.62,0 210.88,0 210.88,-332"/>
<text text-anchor="start" x="106.62" y="-318.5" font-family="Helvetica,sans-Serif" font-size="10.00">Interpretor</text>
<text text-anchor="start" x="50.62" y="-302.5" font-family="Helvetica,sans-Serif" font-size="10.00">+</text>
<text text-anchor="start" x="60.62" y="-302.5" font-family="Helvetica,sans-Serif" font-size="10.00">std::shared_ptr&lt; MainToken</text>
<text text-anchor="start" x="60.62" y="-290.5" font-family="Helvetica,sans-Serif" font-size="10.00"> &gt; mainToken</text>
<text text-anchor="start" x="50.62" y="-274.5" font-family="Helvetica,sans-Serif" font-size="10.00">+</text>
<text text-anchor="start" x="60.62" y="-274.5" font-family="Helvetica,sans-Serif" font-size="10.00">std::shared_ptr&lt; MainTag</text>
<text text-anchor="start" x="60.62" y="-262.5" font-family="Helvetica,sans-Serif" font-size="10.00"> &gt; mainTag</text>
<text text-anchor="start" x="50.62" y="-246.5" font-family="Helvetica,sans-Serif" font-size="10.00">+</text>
<text text-anchor="start" x="60.62" y="-246.5" font-family="Helvetica,sans-Serif" font-size="10.00">std::shared_ptr&lt; Lexer</text>
<text text-anchor="start" x="60.62" y="-234.5" font-family="Helvetica,sans-Serif" font-size="10.00"> &gt; mainStack</text>
<text text-anchor="start" x="50.62" y="-218.5" font-family="Helvetica,sans-Serif" font-size="10.00">+</text>
<text text-anchor="start" x="60.62" y="-218.5" font-family="Helvetica,sans-Serif" font-size="10.00">std::shared_ptr&lt; TokenResult &gt; tr</text>
<text text-anchor="start" x="50.62" y="-202.5" font-family="Helvetica,sans-Serif" font-size="10.00">+</text>
<text text-anchor="start" x="60.62" y="-202.5" font-family="Helvetica,sans-Serif" font-size="10.00">std::filesystem::path</text>
<text text-anchor="start" x="60.62" y="-190.5" font-family="Helvetica,sans-Serif" font-size="10.00"> ActivityFolder</text>
<text text-anchor="start" x="50.62" y="-174.5" font-family="Helvetica,sans-Serif" font-size="10.00">+</text>
<text text-anchor="start" x="60.62" y="-174.5" font-family="Helvetica,sans-Serif" font-size="10.00">Interpretor()</text>
<text text-anchor="start" x="50.62" y="-158.5" font-family="Helvetica,sans-Serif" font-size="10.00">+</text>
<text text-anchor="start" x="60.62" y="-158.5" font-family="Helvetica,sans-Serif" font-size="10.00">Interpretor(std::string</text>
<text text-anchor="start" x="60.62" y="-146.5" font-family="Helvetica,sans-Serif" font-size="10.00"> folder)</text>
<text text-anchor="start" x="50.62" y="-130.5" font-family="Helvetica,sans-Serif" font-size="10.00">+</text>
<text text-anchor="start" x="60.62" y="-130.5" font-family="Helvetica,sans-Serif" font-size="10.00">~Interpretor()</text>
<text text-anchor="start" x="50.62" y="-114.5" font-family="Helvetica,sans-Serif" font-size="10.00">+</text>
<text text-anchor="start" x="60.62" y="-114.5" font-family="Helvetica,sans-Serif" font-size="10.00">void readActivityFile</text>
<text text-anchor="start" x="60.62" y="-102.5" font-family="Helvetica,sans-Serif" font-size="10.00">(std::string ActivityName)</text>
<text text-anchor="start" x="50.62" y="-86.5" font-family="Helvetica,sans-Serif" font-size="10.00">+</text>
<text text-anchor="start" x="60.62" y="-86.5" font-family="Helvetica,sans-Serif" font-size="10.00">std::string copyActivity</text>
<text text-anchor="start" x="60.62" y="-74.5" font-family="Helvetica,sans-Serif" font-size="10.00">(std::filesystem::path</text>
<text text-anchor="start" x="60.62" y="-62.5" font-family="Helvetica,sans-Serif" font-size="10.00"> ActivityName)</text>
<text text-anchor="start" x="50.62" y="-46.5" font-family="Helvetica,sans-Serif" font-size="10.00">+</text>
<text text-anchor="start" x="60.62" y="-46.5" font-family="Helvetica,sans-Serif" font-size="10.00">std::shared_ptr&lt; Tag</text>
<text text-anchor="start" x="60.62" y="-34.5" font-family="Helvetica,sans-Serif" font-size="10.00"> &gt; getActivityTag()</text>
<text text-anchor="start" x="50.62" y="-18.5" font-family="Helvetica,sans-Serif" font-size="10.00">+</text>
<text text-anchor="start" x="60.62" y="-18.5" font-family="Helvetica,sans-Serif" font-size="10.00">void createMainTag</text>
<text text-anchor="start" x="60.62" y="-6.5" font-family="Helvetica,sans-Serif" font-size="10.00">(const std::string &amp;text)</text>
<polygon fill="#666666" stroke="#666666" points="46.62,-314 46.62,-314 210.88,-314 210.88,-314 46.62,-314"/>
<polygon fill="#666666" stroke="#666666" points="46.62,-186 46.62,-186 58.62,-186 58.62,-186 46.62,-186"/>
<polygon fill="#666666" stroke="#666666" points="58.62,-186 58.62,-186 210.88,-186 210.88,-186 58.62,-186"/>
<polygon fill="none" stroke="#666666" points="46.62,0 46.62,-332 210.88,-332 210.88,0 46.62,0"/>
</a>
</g>
</g>
<!-- Node2 -->
<g id="Node000002" class="node">
<title>Node2</title>
<g id="a_Node000002"><a xlink:href="struct_user_variables.html" target="_top" xlink:title=" ">
<polygon fill="white" stroke="none" points="115.5,-798 0,-798 0,-694 115.5,-694 115.5,-798"/>
<text text-anchor="start" x="27.38" y="-784.5" font-family="Helvetica,sans-Serif" font-size="10.00">UserVariables</text>
<text text-anchor="start" x="4" y="-768.5" font-family="Helvetica,sans-Serif" font-size="10.00">+</text>
<text text-anchor="start" x="14" y="-768.5" font-family="Helvetica,sans-Serif" font-size="10.00">std::map&lt; std::string,</text>
<text text-anchor="start" x="14" y="-756.5" font-family="Helvetica,sans-Serif" font-size="10.00"> void * &gt; variables</text>
<text text-anchor="start" x="4" y="-740.5" font-family="Helvetica,sans-Serif" font-size="10.00">+</text>
<text text-anchor="start" x="14" y="-740.5" font-family="Helvetica,sans-Serif" font-size="10.00">void addVariable(std</text>
<text text-anchor="start" x="14" y="-728.5" font-family="Helvetica,sans-Serif" font-size="10.00">::string name, T value)</text>
<text text-anchor="start" x="4" y="-712.5" font-family="Helvetica,sans-Serif" font-size="10.00">+</text>
<text text-anchor="start" x="14" y="-712.5" font-family="Helvetica,sans-Serif" font-size="10.00">T getValue(std::string</text>
<text text-anchor="start" x="14" y="-700.5" font-family="Helvetica,sans-Serif" font-size="10.00"> name)</text>
<polygon fill="#666666" stroke="#666666" points="0,-780 0,-780 115.5,-780 115.5,-780 0,-780"/>
<polygon fill="#666666" stroke="#666666" points="0,-752 0,-752 12,-752 12,-752 0,-752"/>
<polygon fill="#666666" stroke="#666666" points="12,-752 12,-752 115.5,-752 115.5,-752 12,-752"/>
<polygon fill="none" stroke="#666666" points="0,-694 0,-798 115.5,-798 115.5,-694 0,-694"/>
</a>
</g>
</g>
<!-- Node2&#45;&gt;Node1 -->
<g id="edge1_Node000001_Node000002" class="edge">
<title>Node2&#45;&gt;Node1</title>
<g id="a_edge1_Node000001_Node000002"><a xlink:title=" ">
<path fill="none" stroke="#63b8ff" d="M45.31,-694.18C29.91,-623.06 8.45,-490.21 32.25,-380 34.96,-367.45 38.48,-354.74 42.56,-342.11"/>
<polygon fill="none" stroke="#63b8ff" points="42.5,-342.26 40.63,-335.3 46.34,-330.89 48.21,-337.86 42.5,-342.26"/>
</a>
</g>
<text text-anchor="middle" x="42" y="-482.5" font-family="Helvetica,sans-Serif" font-size="10.00" fill="grey"> +uv</text>
</g>
<!-- Node5 -->
<g id="Node000005" class="node">
<title>Node5</title>
<g id="a_Node000005"><a xlink:href="class_lexer.html" target="_top" xlink:title=" ">
<polygon fill="white" stroke="none" points="197,-586 60.5,-586 60.5,-386 197,-386 197,-586"/>
<text text-anchor="start" x="116.75" y="-572.5" font-family="Helvetica,sans-Serif" font-size="10.00">Lexer</text>
<text text-anchor="start" x="64.5" y="-556.5" font-family="Helvetica,sans-Serif" font-size="10.00">+</text>
<text text-anchor="start" x="74.5" y="-556.5" font-family="Helvetica,sans-Serif" font-size="10.00">std::string nameToken</text>
<text text-anchor="start" x="64.5" y="-540.5" font-family="Helvetica,sans-Serif" font-size="10.00">+</text>
<text text-anchor="start" x="74.5" y="-540.5" font-family="Helvetica,sans-Serif" font-size="10.00">std::string totalContent</text>
<text text-anchor="start" x="64.5" y="-524.5" font-family="Helvetica,sans-Serif" font-size="10.00">+</text>
<text text-anchor="start" x="74.5" y="-524.5" font-family="Helvetica,sans-Serif" font-size="10.00">std::string updatedContent</text>
<text text-anchor="start" x="64.5" y="-508.5" font-family="Helvetica,sans-Serif" font-size="10.00">+</text>
<text text-anchor="start" x="74.5" y="-508.5" font-family="Helvetica,sans-Serif" font-size="10.00">std::vector&lt; std::shared</text>
<text text-anchor="start" x="74.5" y="-496.5" font-family="Helvetica,sans-Serif" font-size="10.00">_ptr&lt; Token &gt; &gt; listTokens</text>
<text text-anchor="start" x="64.5" y="-480.5" font-family="Helvetica,sans-Serif" font-size="10.00">+</text>
<text text-anchor="start" x="74.5" y="-480.5" font-family="Helvetica,sans-Serif" font-size="10.00">Lexer()</text>
<text text-anchor="start" x="64.5" y="-464.5" font-family="Helvetica,sans-Serif" font-size="10.00">+</text>
<text text-anchor="start" x="74.5" y="-464.5" font-family="Helvetica,sans-Serif" font-size="10.00">Lexer(const std::string</text>
<text text-anchor="start" x="74.5" y="-452.5" font-family="Helvetica,sans-Serif" font-size="10.00"> &amp;text)</text>
<text text-anchor="start" x="64.5" y="-436.5" font-family="Helvetica,sans-Serif" font-size="10.00">+</text>
<text text-anchor="start" x="74.5" y="-436.5" font-family="Helvetica,sans-Serif" font-size="10.00">bool empty()</text>
<text text-anchor="start" x="64.5" y="-420.5" font-family="Helvetica,sans-Serif" font-size="10.00">+</text>
<text text-anchor="start" x="74.5" y="-420.5" font-family="Helvetica,sans-Serif" font-size="10.00">void extractTokens</text>
<text text-anchor="start" x="74.5" y="-408.5" font-family="Helvetica,sans-Serif" font-size="10.00">(const std::string &amp;text)</text>
<text text-anchor="start" x="64.5" y="-392.5" font-family="Helvetica,sans-Serif" font-size="10.00">+</text>
<text text-anchor="start" x="74.5" y="-392.5" font-family="Helvetica,sans-Serif" font-size="10.00">std::string showAllTokens()</text>
<polygon fill="#666666" stroke="#666666" points="60.5,-568 60.5,-568 197,-568 197,-568 60.5,-568"/>
<polygon fill="#666666" stroke="#666666" points="60.5,-492 60.5,-492 72.5,-492 72.5,-492 60.5,-492"/>
<polygon fill="#666666" stroke="#666666" points="72.5,-492 72.5,-492 197,-492 197,-492 72.5,-492"/>
<polygon fill="none" stroke="#666666" points="60.5,-386 60.5,-586 197,-586 197,-386 60.5,-386"/>
</a>
</g>
</g>
<!-- Node2&#45;&gt;Node5 -->
<g id="edge5_Node000005_Node000002" class="edge">
<title>Node2&#45;&gt;Node5</title>
<g id="a_edge5_Node000005_Node000002"><a xlink:title=" ">
<path fill="none" stroke="#63b8ff" d="M71.78,-694.03C79.34,-666.56 88.97,-631.54 98.17,-598.14"/>
<polygon fill="none" stroke="#63b8ff" points="98.1,-598.36 95.84,-591.52 101.29,-586.79 103.55,-593.64 98.1,-598.36"/>
</a>
</g>
<text text-anchor="middle" x="103" y="-612.5" font-family="Helvetica,sans-Serif" font-size="10.00" fill="grey"> +uv</text>
</g>
<!-- Node3 -->
<g id="Node000003" class="node">
<title>Node3</title>
<g id="a_Node000003"><a xlink:href="class_iterator_list.html" target="_top" xlink:title=" ">
<polygon fill="white" stroke="none" points="358.38,-592 215.12,-592 215.12,-380 358.38,-380 358.38,-592"/>
<text text-anchor="start" x="241.75" y="-578.5" font-family="Helvetica,sans-Serif" font-size="10.00">IteratorList&lt; Token &gt;</text>
<text text-anchor="start" x="219.12" y="-562.5" font-family="Helvetica,sans-Serif" font-size="10.00">+</text>
<text text-anchor="start" x="229.12" y="-562.5" font-family="Helvetica,sans-Serif" font-size="10.00">std::vector&lt; std::shared</text>
<text text-anchor="start" x="229.12" y="-550.5" font-family="Helvetica,sans-Serif" font-size="10.00">_ptr&lt; Token &gt; &gt; nextTokens</text>
<text text-anchor="start" x="219.12" y="-534.5" font-family="Helvetica,sans-Serif" font-size="10.00">+</text>
<text text-anchor="start" x="229.12" y="-534.5" font-family="Helvetica,sans-Serif" font-size="10.00">int current</text>
<text text-anchor="start" x="219.12" y="-518.5" font-family="Helvetica,sans-Serif" font-size="10.00">+</text>
<text text-anchor="start" x="229.12" y="-518.5" font-family="Helvetica,sans-Serif" font-size="10.00">IteratorList()</text>
<text text-anchor="start" x="219.12" y="-502.5" font-family="Helvetica,sans-Serif" font-size="10.00">+</text>
<text text-anchor="start" x="229.12" y="-502.5" font-family="Helvetica,sans-Serif" font-size="10.00">IteratorList(std::</text>
<text text-anchor="start" x="229.12" y="-490.5" font-family="Helvetica,sans-Serif" font-size="10.00">vector&lt; std::shared</text>
<text text-anchor="start" x="229.12" y="-478.5" font-family="Helvetica,sans-Serif" font-size="10.00">_ptr&lt; Token &gt; &gt; nextTokens)</text>
<text text-anchor="start" x="219.12" y="-462.5" font-family="Helvetica,sans-Serif" font-size="10.00">+</text>
<text text-anchor="start" x="229.12" y="-462.5" font-family="Helvetica,sans-Serif" font-size="10.00">void next()</text>
<text text-anchor="start" x="219.12" y="-446.5" font-family="Helvetica,sans-Serif" font-size="10.00">+</text>
<text text-anchor="start" x="229.12" y="-446.5" font-family="Helvetica,sans-Serif" font-size="10.00">bool ended()</text>
<text text-anchor="start" x="219.12" y="-430.5" font-family="Helvetica,sans-Serif" font-size="10.00">+</text>
<text text-anchor="start" x="229.12" y="-430.5" font-family="Helvetica,sans-Serif" font-size="10.00">int size() const</text>
<text text-anchor="start" x="219.12" y="-414.5" font-family="Helvetica,sans-Serif" font-size="10.00">+</text>
<text text-anchor="start" x="229.12" y="-414.5" font-family="Helvetica,sans-Serif" font-size="10.00">std::shared_ptr&lt; Token</text>
<text text-anchor="start" x="229.12" y="-402.5" font-family="Helvetica,sans-Serif" font-size="10.00"> &gt; currentToken()</text>
<text text-anchor="start" x="219.12" y="-386.5" font-family="Helvetica,sans-Serif" font-size="10.00">+</text>
<text text-anchor="start" x="229.12" y="-386.5" font-family="Helvetica,sans-Serif" font-size="10.00">bool empty() const</text>
<polygon fill="#666666" stroke="#666666" points="215.12,-574 215.12,-574 358.38,-574 358.38,-574 215.12,-574"/>
<polygon fill="#666666" stroke="#666666" points="215.12,-530 215.12,-530 227.12,-530 227.12,-530 215.12,-530"/>
<polygon fill="#666666" stroke="#666666" points="227.12,-530 227.12,-530 358.38,-530 358.38,-530 227.12,-530"/>
<polygon fill="none" stroke="#666666" points="215.12,-380 215.12,-592 358.38,-592 358.38,-380 215.12,-380"/>
</a>
</g>
</g>
<!-- Node3&#45;&gt;Node1 -->
<g id="edge2_Node000001_Node000003" class="edge">
<title>Node3&#45;&gt;Node1</title>
<g id="a_edge2_Node000001_Node000003"><a xlink:title=" ">
<path fill="none" stroke="#63b8ff" d="M234.8,-380.43C228.84,-368.45 222.65,-355.99 216.39,-343.38"/>
<polygon fill="none" stroke="#63b8ff" points="216.36,-343.33 210.11,-339.73 211.02,-332.58 217.27,-336.17 216.36,-343.33"/>
</a>
</g>
<text text-anchor="middle" x="229.03" y="-352.5" font-family="Helvetica,sans-Serif" font-size="10.00" fill="grey"> +tl</text>
</g>
<!-- Node4 -->
<g id="Node000004" class="node">
<title>Node4</title>
<g id="a_Node000004"><a xlink:href="class_iterator_list.html" target="_top" xlink:title=" ">
<polygon fill="white" stroke="none" points="348.25,-852 225.25,-852 225.25,-640 348.25,-640 348.25,-852"/>
<text text-anchor="start" x="251.88" y="-838.5" font-family="Helvetica,sans-Serif" font-size="10.00">IteratorList&lt; T &gt;</text>
<text text-anchor="start" x="229.25" y="-822.5" font-family="Helvetica,sans-Serif" font-size="10.00">+</text>
<text text-anchor="start" x="239.25" y="-822.5" font-family="Helvetica,sans-Serif" font-size="10.00">std::vector&lt; std::shared</text>
<text text-anchor="start" x="239.25" y="-810.5" font-family="Helvetica,sans-Serif" font-size="10.00">_ptr&lt; T &gt; &gt; nextTokens</text>
<text text-anchor="start" x="229.25" y="-794.5" font-family="Helvetica,sans-Serif" font-size="10.00">+</text>
<text text-anchor="start" x="239.25" y="-794.5" font-family="Helvetica,sans-Serif" font-size="10.00">int current</text>
<text text-anchor="start" x="229.25" y="-778.5" font-family="Helvetica,sans-Serif" font-size="10.00">+</text>
<text text-anchor="start" x="239.25" y="-778.5" font-family="Helvetica,sans-Serif" font-size="10.00">IteratorList()</text>
<text text-anchor="start" x="229.25" y="-762.5" font-family="Helvetica,sans-Serif" font-size="10.00">+</text>
<text text-anchor="start" x="239.25" y="-762.5" font-family="Helvetica,sans-Serif" font-size="10.00">IteratorList(std::</text>
<text text-anchor="start" x="239.25" y="-750.5" font-family="Helvetica,sans-Serif" font-size="10.00">vector&lt; std::shared</text>
<text text-anchor="start" x="239.25" y="-738.5" font-family="Helvetica,sans-Serif" font-size="10.00">_ptr&lt; T &gt; &gt; nextTokens)</text>
<text text-anchor="start" x="229.25" y="-722.5" font-family="Helvetica,sans-Serif" font-size="10.00">+</text>
<text text-anchor="start" x="239.25" y="-722.5" font-family="Helvetica,sans-Serif" font-size="10.00">void next()</text>
<text text-anchor="start" x="229.25" y="-706.5" font-family="Helvetica,sans-Serif" font-size="10.00">+</text>
<text text-anchor="start" x="239.25" y="-706.5" font-family="Helvetica,sans-Serif" font-size="10.00">bool ended()</text>
<text text-anchor="start" x="229.25" y="-690.5" font-family="Helvetica,sans-Serif" font-size="10.00">+</text>
<text text-anchor="start" x="239.25" y="-690.5" font-family="Helvetica,sans-Serif" font-size="10.00">int size() const</text>
<text text-anchor="start" x="229.25" y="-674.5" font-family="Helvetica,sans-Serif" font-size="10.00">+</text>
<text text-anchor="start" x="239.25" y="-674.5" font-family="Helvetica,sans-Serif" font-size="10.00">std::shared_ptr&lt; T</text>
<text text-anchor="start" x="239.25" y="-662.5" font-family="Helvetica,sans-Serif" font-size="10.00"> &gt; currentToken()</text>
<text text-anchor="start" x="229.25" y="-646.5" font-family="Helvetica,sans-Serif" font-size="10.00">+</text>
<text text-anchor="start" x="239.25" y="-646.5" font-family="Helvetica,sans-Serif" font-size="10.00">bool empty() const</text>
<polygon fill="#666666" stroke="#666666" points="225.25,-834 225.25,-834 348.25,-834 348.25,-834 225.25,-834"/>
<polygon fill="#666666" stroke="#666666" points="225.25,-790 225.25,-790 237.25,-790 237.25,-790 225.25,-790"/>
<polygon fill="#666666" stroke="#666666" points="237.25,-790 237.25,-790 348.25,-790 348.25,-790 237.25,-790"/>
<polygon fill="none" stroke="#666666" points="225.25,-640 225.25,-852 348.25,-852 348.25,-640 225.25,-640"/>
</a>
</g>
</g>
<!-- Node4&#45;&gt;Node3 -->
<g id="edge3_Node000003_Node000004" class="edge">
<title>Node4&#45;&gt;Node3</title>
<g id="a_edge3_Node000003_Node000004"><a xlink:title=" ">
<path fill="none" stroke="orange" d="M286.75,-628.81C286.75,-616.49 286.75,-604.02 286.75,-591.85"/>
<polygon fill="orange" stroke="orange" points="283.25,-628.55 286.75,-638.55 290.25,-628.55 283.25,-628.55"/>
</a>
</g>
<text text-anchor="middle" x="310" y="-612.5" font-family="Helvetica,sans-Serif" font-size="10.00" fill="grey"> &lt; Token &gt;</text>
</g>
<!-- Node5&#45;&gt;Node1 -->
<g id="edge4_Node000001_Node000005" class="edge">
<title>Node5&#45;&gt;Node1</title>
<g id="a_edge4_Node000001_Node000005"><a xlink:title=" ">
<path fill="none" stroke="#63b8ff" d="M128.75,-386.13C128.75,-372.86 128.75,-358.95 128.75,-344.83"/>
<polygon fill="none" stroke="#63b8ff" points="128.75,-344.73 124.75,-338.73 128.75,-332.73 132.75,-338.73 128.75,-344.73"/>
</a>
</g>
<text text-anchor="middle" x="139.62" y="-352.5" font-family="Helvetica,sans-Serif" font-size="10.00" fill="grey"> +lex</text>
</g>
</g>
</svg>

<g id="navigator" transform="translate(0 0)" fill="#404254">
  <rect fill="#f2f5e9" fill-opacity="0.5" stroke="#606060" stroke-width=".5" x="0" y="0" width="60" height="60"/>
  <use id="zoomplus" xlink:href="#zoomPlus" x="17" y="9" onmousedown="handleZoom(evt,'in')"/>
  <use id="zoomminus" xlink:href="#zoomMin" x="42" y="9" onmousedown="handleZoom(evt,'out')"/>
  <use id="reset" xlink:href="#resetDef" x="30" y="36" onmousedown="handleReset()"/>
   <use id="arrowup" xlink:href="#arrowUp" x="0" y="0" onmousedown="handlePan(0,-1)"/>
  <use id="arrowright" xlink:href="#arrowRight" x="0" y="0" onmousedown="handlePan(1,0)"/>
  <use id="arrowdown" xlink:href="#arrowDown" x="0" y="0" onmousedown="handlePan(0,1)"/>
  <use id="arrowleft" xlink:href="#arrowLeft" x="0" y="0" onmousedown="handlePan(-1,0)"/>
</g>
<svg viewBox="0 0 15 15" width="100%" height="30px" preserveAspectRatio="xMaxYMin meet">
 <g id="arrow_out" transform="scale(0.3 0.3)">
  <a xlink:href="class_interpretor__coll__graph_org.svg" target="_base">
   <rect id="button" ry="5" rx="5" y="6" x="6" height="38" width="38"
        fill="#f2f5e9" fill-opacity="0.5" stroke="#606060" stroke-width="1.0"/>
   <path id="arrow"
     d="M 11.500037,31.436501 C 11.940474,20.09759 22.043105,11.32322 32.158766,21.979434 L 37.068811,17.246167 C 37.068811,17.246167 37.088388,32 37.088388,32 L 22.160133,31.978069 C 22.160133,31.978069 26.997745,27.140456 26.997745,27.140456 C 18.528582,18.264221 13.291696,25.230495 11.500037,31.436501 z"
     style="fill:#404040;"/>
  </a>
 </g>
</svg>

<style type='text/css'>
<![CDATA[
[data-mouse-over-selected='false'] { opacity: 0.7; }
[data-mouse-over-selected='true']  { opacity: 1.0; }
]]>
</style>
<script type="application/ecmascript"><![CDATA[
document.addEventListener('DOMContentLoaded', (event) => {
  highlightEdges();
  highlightAdjacentNodes();
});
]]></script>
</svg>
