<?xml version="1.0" encoding="UTF-8" standalone="no"?>
<!DOCTYPE svg PUBLIC "-//W3C//DTD SVG 1.1//EN"
 "http://www.w3.org/Graphics/SVG/1.1/DTD/svg11.dtd">
<!-- Generated by graphviz version 12.2.0 (20241103.1931)
 -->
<!-- Title: fsfml::initMenu Pages: 1 -->
<svg width="647pt" height="104pt"
 viewBox="0.00 0.00 646.75 104.00" xmlns="http://www.w3.org/2000/svg" xmlns:xlink="http://www.w3.org/1999/xlink">
<g id="graph0" class="graph" transform="scale(1 1) rotate(0) translate(4 100)">
<title>fsfml::initMenu</title>
<!-- Node1 -->
<g id="Node000001" class="node">
<title>Node1</title>
<g id="a_Node000001"><a xlink:title=" ">
<polygon fill="#999999" stroke="#666666" points="80.5,-77 0,-77 0,-57 80.5,-57 80.5,-77"/>
<text text-anchor="middle" x="40.25" y="-63.5" font-family="Helvetica,sans-Serif" font-size="10.00">fsfml::initMenu</text>
</a>
</g>
</g>
<!-- Node2 -->
<g id="Node000002" class="node">
<title>Node2</title>
<g id="a_Node000002"><a xlink:href="classfsfml.html#ab45b3aa9320cf22836dc133f40186955" target="_top" xlink:title=" ">
<polygon fill="white" stroke="#666666" points="197.75,-77 116.5,-77 116.5,-57 197.75,-57 197.75,-77"/>
<text text-anchor="middle" x="157.12" y="-63.5" font-family="Helvetica,sans-Serif" font-size="10.00">fsfml::initPanel</text>
</a>
</g>
</g>
<!-- Node1&#45;&gt;Node2 -->
<g id="edge1_Node000001_Node000002" class="edge">
<title>Node1&#45;&gt;Node2</title>
<g id="a_edge1_Node000001_Node000002"><a xlink:title=" ">
<path fill="none" stroke="#63b8ff" d="M80.78,-67C88.55,-67 96.8,-67 104.88,-67"/>
<polygon fill="#63b8ff" stroke="#63b8ff" points="104.62,-70.5 114.62,-67 104.62,-63.5 104.62,-70.5"/>
</a>
</g>
</g>
<!-- Node3 -->
<g id="Node000003" class="node">
<title>Node3</title>
<g id="a_Node000003"><a xlink:href="classfsfml.html#a1e465443ae65cef7eff4c7eb68096edf" target="_top" xlink:title=" ">
<polygon fill="white" stroke="#666666" points="356.25,-96 233.75,-96 233.75,-76 356.25,-76 356.25,-96"/>
<text text-anchor="middle" x="295" y="-82.5" font-family="Helvetica,sans-Serif" font-size="10.00">fsfml::initElementsPanel</text>
</a>
</g>
</g>
<!-- Node2&#45;&gt;Node3 -->
<g id="edge2_Node000002_Node000003" class="edge">
<title>Node2&#45;&gt;Node3</title>
<g id="a_edge2_Node000002_Node000003"><a xlink:title=" ">
<path fill="none" stroke="#63b8ff" d="M198.16,-72.6C205.75,-73.66 213.9,-74.8 222.12,-75.95"/>
<polygon fill="#63b8ff" stroke="#63b8ff" points="221.46,-79.39 231.85,-77.31 222.43,-72.46 221.46,-79.39"/>
</a>
</g>
</g>
<!-- Node5 -->
<g id="Node000005" class="node">
<title>Node5</title>
<g id="a_Node000005"><a xlink:href="classfsfml.html#a95f6eb53223fafa2f2b06548f4d1b323" target="_top" xlink:title=" ">
<polygon fill="white" stroke="#666666" points="337.12,-58 252.88,-58 252.88,-38 337.12,-38 337.12,-58"/>
<text text-anchor="middle" x="295" y="-44.5" font-family="Helvetica,sans-Serif" font-size="10.00">fsfml::seePanel</text>
</a>
</g>
</g>
<!-- Node2&#45;&gt;Node5 -->
<g id="edge4_Node000002_Node000005" class="edge">
<title>Node2&#45;&gt;Node5</title>
<g id="a_edge4_Node000002_Node000005"><a xlink:title=" ">
<path fill="none" stroke="#63b8ff" d="M198.16,-61.4C211.75,-59.5 227.14,-57.35 241.55,-55.33"/>
<polygon fill="#63b8ff" stroke="#63b8ff" points="241.92,-58.82 251.34,-53.97 240.95,-51.88 241.92,-58.82"/>
</a>
</g>
</g>
<!-- Node4 -->
<g id="Node000004" class="node">
<title>Node4</title>
<g id="a_Node000004"><a xlink:href="classfsfml.html#a8172dd2d6f556c7829e9adc766ef2565" target="_top" xlink:title=" ">
<polygon fill="white" stroke="#666666" points="494.88,-96 399.38,-96 399.38,-76 494.88,-76 494.88,-96"/>
<text text-anchor="middle" x="447.12" y="-82.5" font-family="Helvetica,sans-Serif" font-size="10.00">fsfml::addElement</text>
</a>
</g>
</g>
<!-- Node3&#45;&gt;Node4 -->
<g id="edge3_Node000003_Node000004" class="edge">
<title>Node3&#45;&gt;Node4</title>
<g id="a_edge3_Node000003_Node000004"><a xlink:title=" ">
<path fill="none" stroke="#63b8ff" d="M356.63,-86C366.92,-86 377.58,-86 387.81,-86"/>
<polygon fill="#63b8ff" stroke="#63b8ff" points="387.61,-89.5 397.61,-86 387.61,-82.5 387.61,-89.5"/>
</a>
</g>
</g>
<!-- Node6 -->
<g id="Node000006" class="node">
<title>Node6</title>
<g id="a_Node000006"><a xlink:href="classfsfml.html#af5ec5a73c3deb2ebea2b7ab05e550975" target="_top" xlink:title=" ">
<polygon fill="white" stroke="#666666" points="494.88,-58 399.38,-58 399.38,-38 494.88,-38 494.88,-58"/>
<text text-anchor="middle" x="447.12" y="-44.5" font-family="Helvetica,sans-Serif" font-size="10.00">fsfml::seeElement</text>
</a>
</g>
</g>
<!-- Node5&#45;&gt;Node6 -->
<g id="edge5_Node000005_Node000006" class="edge">
<title>Node5&#45;&gt;Node6</title>
<g id="a_edge5_Node000005_Node000006"><a xlink:title=" ">
<path fill="none" stroke="#63b8ff" d="M337.42,-48C352.93,-48 370.86,-48 387.63,-48"/>
<polygon fill="#63b8ff" stroke="#63b8ff" points="387.5,-51.5 397.5,-48 387.5,-44.5 387.5,-51.5"/>
</a>
</g>
</g>
<!-- Node8 -->
<g id="Node000008" class="node">
<title>Node8</title>
<g id="a_Node000008"><a xlink:href="classfsfml.html#a527d1f9dc8024dab8b6c0af4dc8c6a60" target="_top" xlink:title=" ">
<polygon fill="white" stroke="#666666" points="502,-20 392.25,-20 392.25,0 502,0 502,-20"/>
<text text-anchor="middle" x="447.12" y="-6.5" font-family="Helvetica,sans-Serif" font-size="10.00">fsfml::setActivePanel</text>
</a>
</g>
</g>
<!-- Node5&#45;&gt;Node8 -->
<g id="edge7_Node000005_Node000008" class="edge">
<title>Node5&#45;&gt;Node8</title>
<g id="a_edge7_Node000005_Node000008"><a xlink:title=" ">
<path fill="none" stroke="#63b8ff" d="M337.42,-37.52C354.89,-33.09 375.44,-27.89 393.93,-23.21"/>
<polygon fill="#63b8ff" stroke="#63b8ff" points="394.54,-26.67 403.37,-20.82 392.82,-19.88 394.54,-26.67"/>
</a>
</g>
</g>
<!-- Node7 -->
<g id="Node000007" class="node">
<title>Node7</title>
<g id="a_Node000007"><a xlink:href="struct_element.html#a5df40a1ac2e9e8f5aa782f1dd40830d4" target="_top" xlink:title=" ">
<polygon fill="white" stroke="#666666" points="638.75,-58 538,-58 538,-38 638.75,-38 638.75,-58"/>
<text text-anchor="middle" x="588.38" y="-44.5" font-family="Helvetica,sans-Serif" font-size="10.00">Element::setVisible</text>
</a>
</g>
</g>
<!-- Node6&#45;&gt;Node7 -->
<g id="edge6_Node000006_Node000007" class="edge">
<title>Node6&#45;&gt;Node7</title>
<g id="a_edge6_Node000006_Node000007"><a xlink:title=" ">
<path fill="none" stroke="#63b8ff" d="M495.27,-48C505.35,-48 516.14,-48 526.65,-48"/>
<polygon fill="#63b8ff" stroke="#63b8ff" points="526.39,-51.5 536.39,-48 526.39,-44.5 526.39,-51.5"/>
</a>
</g>
</g>
</g>
</svg>
