<?xml version="1.0" encoding="UTF-8" standalone="no"?>
<!DOCTYPE svg PUBLIC "-//W3C//DTD SVG 1.1//EN"
 "http://www.w3.org/Graphics/SVG/1.1/DTD/svg11.dtd">
<!-- Generated by graphviz version 12.2.0 (20241103.1931)
 -->
<!-- Title: fsfml::autoPadding Pages: 1 -->
<svg width="400pt" height="66pt"
 viewBox="0.00 0.00 400.25 66.00" xmlns="http://www.w3.org/2000/svg" xmlns:xlink="http://www.w3.org/1999/xlink">

<svg id="main" version="1.1" xmlns="http://www.w3.org/2000/svg" xmlns:xlink="http://www.w3.org/1999/xlink" xml:space="preserve">

<style type="text/css"><![CDATA[
.node, .edge {opacity: 0.7;}
.node.selected, .edge.selected {opacity: 1;}
.edge:hover path { stroke: red; }
.edge:hover polygon { stroke: red; fill: red; }
]]></style>
<script type="application/ecmascript" xlink:href="svg.min.js"/>
<svg id="graph" class="graph">
<g id="graph0" class="graph" transform="scale(1 1) rotate(0) translate(4 62)">
<title>fsfml::autoPadding</title>
<!-- Node1 -->
<g id="Node000001" class="node">
<title>Node1</title>
<g id="a_Node000001"><a xlink:title=" ">
<polygon fill="#999999" stroke="#666666" points="392.25,-39 294.5,-39 294.5,-19 392.25,-19 392.25,-39"/>
<text text-anchor="middle" x="343.38" y="-25.5" font-family="Helvetica,sans-Serif" font-size="10.00">fsfml::autoPadding</text>
</a>
</g>
</g>
<!-- Node2 -->
<g id="Node000002" class="node">
<title>Node2</title>
<g id="a_Node000002"><a xlink:href="classfsfml.html#a9dd8962bbcb36f68676b4d39325e727d" target="_top" xlink:title=" ">
<polygon fill="white" stroke="#666666" points="258.5,-58 160.75,-58 160.75,-38 258.5,-38 258.5,-58"/>
<text text-anchor="middle" x="209.62" y="-44.5" font-family="Helvetica,sans-Serif" font-size="10.00">fsfml::autoPadding</text>
</a>
</g>
</g>
<!-- Node1&#45;&gt;Node2 -->
<g id="edge1_Node000001_Node000002" class="edge">
<title>Node1&#45;&gt;Node2</title>
<g id="a_edge1_Node000001_Node000002"><a xlink:title=" ">
<path fill="none" stroke="#63b8ff" d="M282.87,-37.58C274.86,-38.74 266.72,-39.91 258.93,-41.03"/>
<polygon fill="#63b8ff" stroke="#63b8ff" points="283.17,-41.07 292.57,-36.18 282.17,-34.15 283.17,-41.07"/>
</a>
</g>
</g>
<!-- Node3 -->
<g id="Node000003" class="node">
<title>Node3</title>
<g id="a_Node000003"><a xlink:href="classfsfml.html#a6b4ab16d375ff176a0533dccdc09fc20" target="_top" xlink:title=" ">
<polygon fill="white" stroke="#666666" points="256.62,-20 162.62,-20 162.62,0 256.62,0 256.62,-20"/>
<text text-anchor="middle" x="209.62" y="-6.5" font-family="Helvetica,sans-Serif" font-size="10.00">fsfml::PanelEvent</text>
</a>
</g>
</g>
<!-- Node1&#45;&gt;Node3 -->
<g id="edge2_Node000001_Node000003" class="edge">
<title>Node1&#45;&gt;Node3</title>
<g id="a_edge2_Node000001_Node000003"><a xlink:title=" ">
<path fill="none" stroke="#63b8ff" d="M282.73,-20.4C274.01,-19.14 265.14,-17.86 256.74,-16.65"/>
<polygon fill="#63b8ff" stroke="#63b8ff" points="282.17,-23.85 292.57,-21.82 283.17,-16.93 282.17,-23.85"/>
</a>
</g>
</g>
<!-- Node4 -->
<g id="Node000004" class="node">
<title>Node4</title>
<g id="a_Node000004"><a xlink:href="classfsfml.html#ad0c2351c234aa59ef60b2c38b5fe5dd9" target="_top" xlink:title=" ">
<polygon fill="white" stroke="#666666" points="124.75,-20 0,-20 0,0 124.75,0 124.75,-20"/>
<text text-anchor="middle" x="62.38" y="-6.5" font-family="Helvetica,sans-Serif" font-size="10.00">fsfml::handleActivePanel</text>
</a>
</g>
</g>
<!-- Node3&#45;&gt;Node4 -->
<g id="edge3_Node000003_Node000004" class="edge">
<title>Node3&#45;&gt;Node4</title>
<g id="a_edge3_Node000003_Node000004"><a xlink:title=" ">
<path fill="none" stroke="#63b8ff" d="M150.95,-10C142.48,-10 133.74,-10 125.2,-10"/>
<polygon fill="#63b8ff" stroke="#63b8ff" points="150.75,-13.5 160.75,-10 150.75,-6.5 150.75,-13.5"/>
</a>
</g>
</g>
</g>
</svg>
</svg>

<style type='text/css'>
<![CDATA[
[data-mouse-over-selected='false'] { opacity: 0.7; }
[data-mouse-over-selected='true']  { opacity: 1.0; }
]]>
</style>
<script type="application/ecmascript"><![CDATA[
document.addEventListener('DOMContentLoaded', (event) => {
  highlightEdges();
  highlightAdjacentNodes();
});
]]></script>
</svg>
