<?xml version="1.0" encoding="UTF-8" standalone="no"?>
<!DOCTYPE svg PUBLIC "-//W3C//DTD SVG 1.1//EN"
 "http://www.w3.org/Graphics/SVG/1.1/DTD/svg11.dtd">
<!-- Generated by graphviz version 12.2.0 (20241103.1931)
 -->
<!-- Title: NotTag Pages: 1 -->
<svg width="161pt" height="616pt"
 viewBox="0.00 0.00 161.00 616.00" xmlns="http://www.w3.org/2000/svg" xmlns:xlink="http://www.w3.org/1999/xlink">
<g id="graph0" class="graph" transform="scale(1 1) rotate(0) translate(4 612)">
<title>NotTag</title>
<!-- Node1 -->
<g id="Node000001" class="node">
<title>Node1</title>
<g id="a_Node000001"><a xlink:title=" ">
<polygon fill="#999999" stroke="none" points="153,-168 0,-168 0,0 153,0 153,-168"/>
<text text-anchor="start" x="60.75" y="-154.5" font-family="Helvetica,sans-Serif" font-size="10.00">NotTag</text>
<text text-anchor="start" x="75" y="-138.5" font-family="Helvetica,sans-Serif" font-size="10.00"> </text>
<text text-anchor="start" x="4" y="-122.5" font-family="Helvetica,sans-Serif" font-size="10.00">+</text>
<text text-anchor="start" x="14" y="-122.5" font-family="Helvetica,sans-Serif" font-size="10.00">NotTag()</text>
<text text-anchor="start" x="4" y="-106.5" font-family="Helvetica,sans-Serif" font-size="10.00">+</text>
<text text-anchor="start" x="14" y="-106.5" font-family="Helvetica,sans-Serif" font-size="10.00">NotTag(const NotTag</text>
<text text-anchor="start" x="14" y="-94.5" font-family="Helvetica,sans-Serif" font-size="10.00"> &amp;toCopy)</text>
<text text-anchor="start" x="4" y="-78.5" font-family="Helvetica,sans-Serif" font-size="10.00">+</text>
<text text-anchor="start" x="14" y="-78.5" font-family="Helvetica,sans-Serif" font-size="10.00">NotTag(const std::</text>
<text text-anchor="start" x="14" y="-66.5" font-family="Helvetica,sans-Serif" font-size="10.00">shared_ptr&lt; Tag &gt; &amp;parameter)</text>
<text text-anchor="start" x="4" y="-50.5" font-family="Helvetica,sans-Serif" font-size="10.00">+</text>
<text text-anchor="start" x="14" y="-50.5" font-family="Helvetica,sans-Serif" font-size="10.00">NotTag(bool b)</text>
<text text-anchor="start" x="4" y="-34.5" font-family="Helvetica,sans-Serif" font-size="10.00">+</text>
<text text-anchor="start" x="14" y="-34.5" font-family="Helvetica,sans-Serif" font-size="10.00">std::shared_ptr&lt; NotTag</text>
<text text-anchor="start" x="14" y="-22.5" font-family="Helvetica,sans-Serif" font-size="10.00"> &gt; clone()</text>
<text text-anchor="start" x="4" y="-6.5" font-family="Helvetica,sans-Serif" font-size="10.00">+</text>
<text text-anchor="start" x="14" y="-6.5" font-family="Helvetica,sans-Serif" font-size="10.00">void execute() override</text>
<polygon fill="#666666" stroke="#666666" points="0,-150 0,-150 153,-150 153,-150 0,-150"/>
<polygon fill="#666666" stroke="#666666" points="0,-134 0,-134 153,-134 153,-134 0,-134"/>
<polygon fill="none" stroke="#666666" points="0,0 0,-168 153,-168 153,0 0,0"/>
</a>
</g>
</g>
<!-- Node2 -->
<g id="Node000002" class="node">
<title>Node2</title>
<g id="a_Node000002"><a xlink:href="class_bool_tag.html" target="_top" xlink:title=" ">
<polygon fill="white" stroke="none" points="140.25,-412 12.75,-412 12.75,-204 140.25,-204 140.25,-412"/>
<text text-anchor="start" x="58.88" y="-398.5" font-family="Helvetica,sans-Serif" font-size="10.00">BoolTag</text>
<text text-anchor="start" x="16.75" y="-382.5" font-family="Helvetica,sans-Serif" font-size="10.00">+</text>
<text text-anchor="start" x="26.75" y="-382.5" font-family="Helvetica,sans-Serif" font-size="10.00">std::shared_ptr&lt; Tag</text>
<text text-anchor="start" x="26.75" y="-370.5" font-family="Helvetica,sans-Serif" font-size="10.00"> &gt; boolTag</text>
<text text-anchor="start" x="16.75" y="-354.5" font-family="Helvetica,sans-Serif" font-size="10.00">+</text>
<text text-anchor="start" x="26.75" y="-354.5" font-family="Helvetica,sans-Serif" font-size="10.00">bool myBool</text>
<text text-anchor="start" x="16.75" y="-338.5" font-family="Helvetica,sans-Serif" font-size="10.00">+</text>
<text text-anchor="start" x="26.75" y="-338.5" font-family="Helvetica,sans-Serif" font-size="10.00">BoolTag()</text>
<text text-anchor="start" x="16.75" y="-322.5" font-family="Helvetica,sans-Serif" font-size="10.00">+</text>
<text text-anchor="start" x="26.75" y="-322.5" font-family="Helvetica,sans-Serif" font-size="10.00">BoolTag(const BoolTag</text>
<text text-anchor="start" x="26.75" y="-310.5" font-family="Helvetica,sans-Serif" font-size="10.00"> &amp;toCopy)</text>
<text text-anchor="start" x="16.75" y="-294.5" font-family="Helvetica,sans-Serif" font-size="10.00">+</text>
<text text-anchor="start" x="26.75" y="-294.5" font-family="Helvetica,sans-Serif" font-size="10.00">BoolTag(const std</text>
<text text-anchor="start" x="26.75" y="-282.5" font-family="Helvetica,sans-Serif" font-size="10.00">::shared_ptr&lt; Tag &gt;</text>
<text text-anchor="start" x="26.75" y="-270.5" font-family="Helvetica,sans-Serif" font-size="10.00"> &amp;parameter)</text>
<text text-anchor="start" x="16.75" y="-254.5" font-family="Helvetica,sans-Serif" font-size="10.00">+</text>
<text text-anchor="start" x="26.75" y="-254.5" font-family="Helvetica,sans-Serif" font-size="10.00">BoolTag(bool v)</text>
<text text-anchor="start" x="16.75" y="-238.5" font-family="Helvetica,sans-Serif" font-size="10.00">+</text>
<text text-anchor="start" x="26.75" y="-238.5" font-family="Helvetica,sans-Serif" font-size="10.00">std::shared_ptr&lt; BoolTag</text>
<text text-anchor="start" x="26.75" y="-226.5" font-family="Helvetica,sans-Serif" font-size="10.00"> &gt; clone()</text>
<text text-anchor="start" x="16.75" y="-210.5" font-family="Helvetica,sans-Serif" font-size="10.00">+</text>
<text text-anchor="start" x="26.75" y="-210.5" font-family="Helvetica,sans-Serif" font-size="10.00">void execute() override</text>
<polygon fill="#666666" stroke="#666666" points="12.75,-394 12.75,-394 140.25,-394 140.25,-394 12.75,-394"/>
<polygon fill="#666666" stroke="#666666" points="12.75,-350 12.75,-350 24.75,-350 24.75,-350 12.75,-350"/>
<polygon fill="#666666" stroke="#666666" points="24.75,-350 24.75,-350 140.25,-350 140.25,-350 24.75,-350"/>
<polygon fill="none" stroke="#666666" points="12.75,-204 12.75,-412 140.25,-412 140.25,-204 12.75,-204"/>
</a>
</g>
</g>
<!-- Node2&#45;&gt;Node1 -->
<g id="edge1_Node000001_Node000002" class="edge">
<title>Node2&#45;&gt;Node1</title>
<g id="a_edge1_Node000001_Node000002"><a xlink:title=" ">
<path fill="none" stroke="#63b8ff" d="M76.5,-192.73C76.5,-184.37 76.5,-176.03 76.5,-167.91"/>
<polygon fill="none" stroke="#63b8ff" points="73,-192.61 76.5,-202.61 80,-192.61 73,-192.61"/>
</a>
</g>
</g>
<!-- Node3 -->
<g id="Node000003" class="node">
<title>Node3</title>
<g id="a_Node000003"><a xlink:href="class_tag.html" target="_top" xlink:title=" ">
<polygon fill="white" stroke="none" points="138,-608 15,-608 15,-448 138,-448 138,-608"/>
<text text-anchor="start" x="68.62" y="-594.5" font-family="Helvetica,sans-Serif" font-size="10.00">Tag</text>
<text text-anchor="start" x="19" y="-578.5" font-family="Helvetica,sans-Serif" font-size="10.00">+</text>
<text text-anchor="start" x="29" y="-578.5" font-family="Helvetica,sans-Serif" font-size="10.00">std::string tagText</text>
<text text-anchor="start" x="19" y="-562.5" font-family="Helvetica,sans-Serif" font-size="10.00">+</text>
<text text-anchor="start" x="29" y="-562.5" font-family="Helvetica,sans-Serif" font-size="10.00">int nbParents</text>
<text text-anchor="start" x="19" y="-546.5" font-family="Helvetica,sans-Serif" font-size="10.00">+</text>
<text text-anchor="start" x="29" y="-546.5" font-family="Helvetica,sans-Serif" font-size="10.00">bool doExecute</text>
<text text-anchor="start" x="19" y="-530.5" font-family="Helvetica,sans-Serif" font-size="10.00">+</text>
<text text-anchor="start" x="29" y="-530.5" font-family="Helvetica,sans-Serif" font-size="10.00">TagType myType</text>
<text text-anchor="start" x="19" y="-514.5" font-family="Helvetica,sans-Serif" font-size="10.00">+</text>
<text text-anchor="start" x="29" y="-514.5" font-family="Helvetica,sans-Serif" font-size="10.00">Tag()</text>
<text text-anchor="start" x="19" y="-498.5" font-family="Helvetica,sans-Serif" font-size="10.00">+</text>
<text text-anchor="start" x="29" y="-498.5" font-family="Helvetica,sans-Serif" font-size="10.00">Tag(const Tag &amp;toCopy)</text>
<text text-anchor="start" x="19" y="-482.5" font-family="Helvetica,sans-Serif" font-size="10.00">+</text>
<text text-anchor="start" x="29" y="-482.5" font-family="Helvetica,sans-Serif" font-size="10.00">std::shared_ptr&lt; Tag</text>
<text text-anchor="start" x="29" y="-470.5" font-family="Helvetica,sans-Serif" font-size="10.00"> &gt; clone()</text>
<text text-anchor="start" x="19" y="-454.5" font-family="Helvetica,sans-Serif" font-size="10.00">+</text>
<text text-anchor="start" x="29" y="-454.5" font-family="Helvetica,sans-Serif" font-size="10.00">virtual void execute()</text>
<polygon fill="#666666" stroke="#666666" points="15,-590 15,-590 138,-590 138,-590 15,-590"/>
<polygon fill="#666666" stroke="#666666" points="15,-526 15,-526 27,-526 27,-526 15,-526"/>
<polygon fill="#666666" stroke="#666666" points="27,-526 27,-526 138,-526 138,-526 27,-526"/>
<polygon fill="none" stroke="#666666" points="15,-448 15,-608 138,-608 138,-448 15,-448"/>
</a>
</g>
</g>
<!-- Node3&#45;&gt;Node2 -->
<g id="edge2_Node000002_Node000003" class="edge">
<title>Node3&#45;&gt;Node2</title>
<g id="a_edge2_Node000002_Node000003"><a xlink:title=" ">
<path fill="none" stroke="#63b8ff" d="M76.5,-436.79C76.5,-428.57 76.5,-420.2 76.5,-411.88"/>
<polygon fill="none" stroke="#63b8ff" points="73,-436.78 76.5,-446.78 80,-436.78 73,-436.78"/>
</a>
</g>
</g>
</g>
</svg>
