<?xml version="1.0" encoding="UTF-8" standalone="no"?>
<!DOCTYPE svg PUBLIC "-//W3C//DTD SVG 1.1//EN"
 "http://www.w3.org/Graphics/SVG/1.1/DTD/svg11.dtd">
<!-- Generated by graphviz version 12.2.0 (20241103.1931)
 -->
<!-- Title: Interpretor::readActivityFile Pages: 1 -->
<svg width="1481pt" height="381pt"
 viewBox="0.00 0.00 1480.50 381.00" xmlns="http://www.w3.org/2000/svg" xmlns:xlink="http://www.w3.org/1999/xlink">
<g id="graph0" class="graph" transform="scale(1 1) rotate(0) translate(4 377)">
<title>Interpretor::readActivityFile</title>
<!-- Node1 -->
<g id="Node000001" class="node">
<title>Node1</title>
<g id="a_Node000001"><a xlink:title=" ">
<polygon fill="#999999" stroke="#666666" points="133.75,-237 0,-237 0,-217 133.75,-217 133.75,-237"/>
<text text-anchor="middle" x="66.88" y="-223.5" font-family="Helvetica,sans-Serif" font-size="10.00">Interpretor::readActivityFile</text>
</a>
</g>
</g>
<!-- Node2 -->
<g id="Node000002" class="node">
<title>Node2</title>
<g id="a_Node000002"><a xlink:href="_text_manager_8cpp.html#a34a7fbcd3165980b6f6a9e00f79af34c" target="_top" xlink:title=" ">
<polygon fill="white" stroke="#666666" points="272.75,-275 187.75,-275 187.75,-255 272.75,-255 272.75,-275"/>
<text text-anchor="middle" x="230.25" y="-261.5" font-family="Helvetica,sans-Serif" font-size="10.00">appendToFolder</text>
</a>
</g>
</g>
<!-- Node1&#45;&gt;Node2 -->
<g id="edge1_Node000001_Node000002" class="edge">
<title>Node1&#45;&gt;Node2</title>
<g id="a_edge1_Node000001_Node000002"><a xlink:title=" ">
<path fill="none" stroke="#63b8ff" d="M112.4,-237.48C132.16,-242.14 155.56,-247.65 176.22,-252.51"/>
<polygon fill="#63b8ff" stroke="#63b8ff" points="175.36,-255.91 185.89,-254.79 176.96,-249.09 175.36,-255.91"/>
</a>
</g>
</g>
<!-- Node3 -->
<g id="Node000003" class="node">
<title>Node3</title>
<g id="a_Node000003"><a xlink:href="class_interpretor.html#ad464f7beab8778df1253377d8084325c" target="_top" xlink:title=" ">
<polygon fill="white" stroke="#666666" points="290.75,-237 169.75,-237 169.75,-217 290.75,-217 290.75,-237"/>
<text text-anchor="middle" x="230.25" y="-223.5" font-family="Helvetica,sans-Serif" font-size="10.00">Interpretor::compileTags</text>
</a>
</g>
</g>
<!-- Node1&#45;&gt;Node3 -->
<g id="edge2_Node000001_Node000003" class="edge">
<title>Node1&#45;&gt;Node3</title>
<g id="a_edge2_Node000001_Node000003"><a xlink:title=" ">
<path fill="none" stroke="#63b8ff" d="M133.98,-227C141.96,-227 150.15,-227 158.2,-227"/>
<polygon fill="#63b8ff" stroke="#63b8ff" points="157.96,-230.5 167.96,-227 157.96,-223.5 157.96,-230.5"/>
</a>
</g>
</g>
<!-- Node35 -->
<g id="Node000035" class="node">
<title>Node35</title>
<g id="a_Node000035"><a xlink:href="class_interpretor.html#a9dc6ba1dacc8671e9b9fdf0f30911c6e" target="_top" xlink:title=" ">
<polygon fill="white" stroke="#666666" points="290.38,-190 170.12,-190 170.12,-170 290.38,-170 290.38,-190"/>
<text text-anchor="middle" x="230.25" y="-176.5" font-family="Helvetica,sans-Serif" font-size="10.00">Interpretor::copyActivity</text>
</a>
</g>
</g>
<!-- Node1&#45;&gt;Node35 -->
<g id="edge42_Node000001_Node000035" class="edge">
<title>Node1&#45;&gt;Node35</title>
<g id="a_edge42_Node000001_Node000035"><a xlink:title=" ">
<path fill="none" stroke="#63b8ff" d="M103.69,-216.57C126.9,-209.81 157.38,-200.93 182.5,-193.62"/>
<polygon fill="#63b8ff" stroke="#63b8ff" points="183.18,-197.06 191.8,-190.91 181.22,-190.34 183.18,-197.06"/>
</a>
</g>
</g>
<!-- Node4 -->
<g id="Node000004" class="node">
<title>Node4</title>
<g id="a_Node000004"><a xlink:href="class_interpretor.html#ace593d79758b37f81ca8cf9d0d8ed386" target="_top" xlink:title=" ">
<polygon fill="white" stroke="#666666" points="453.75,-285 332,-285 332,-265 453.75,-265 453.75,-285"/>
<text text-anchor="middle" x="392.88" y="-271.5" font-family="Helvetica,sans-Serif" font-size="10.00">Interpretor::executeTags</text>
</a>
</g>
</g>
<!-- Node3&#45;&gt;Node4 -->
<g id="edge3_Node000003_Node000004" class="edge">
<title>Node3&#45;&gt;Node4</title>
<g id="a_edge3_Node000003_Node000004"><a xlink:title=" ">
<path fill="none" stroke="#63b8ff" d="M265.26,-237.43C283.48,-242.99 306.32,-249.92 326.75,-256 332.61,-257.74 338.76,-259.56 344.86,-261.35"/>
<polygon fill="#63b8ff" stroke="#63b8ff" points="343.65,-264.64 354.23,-264.09 345.62,-257.92 343.65,-264.64"/>
</a>
</g>
</g>
<!-- Node5 -->
<g id="Node000005" class="node">
<title>Node5</title>
<g id="a_Node000005"><a xlink:href="class_interpretor.html#a832cf788bcaca68a99ca43db0bd448d7" target="_top" xlink:title=" ">
<polygon fill="white" stroke="#666666" points="459,-247 326.75,-247 326.75,-227 459,-227 459,-247"/>
<text text-anchor="middle" x="392.88" y="-233.5" font-family="Helvetica,sans-Serif" font-size="10.00">Interpretor::executeTokens</text>
</a>
</g>
</g>
<!-- Node3&#45;&gt;Node5 -->
<g id="edge4_Node000003_Node000005" class="edge">
<title>Node3&#45;&gt;Node5</title>
<g id="a_edge4_Node000003_Node000005"><a xlink:title=" ">
<path fill="none" stroke="#63b8ff" d="M291.06,-230.72C298.88,-231.21 306.98,-231.71 315.03,-232.22"/>
<polygon fill="#63b8ff" stroke="#63b8ff" points="314.64,-235.7 324.84,-232.83 315.08,-228.71 314.64,-235.7"/>
</a>
</g>
</g>
<!-- Node9 -->
<g id="Node000009" class="node">
<title>Node9</title>
<g id="a_Node000009"><a xlink:href="class_interpretor.html#a213dd04d8ca9dbb188f29e2284fcbc5a" target="_top" xlink:title=" ">
<polygon fill="white" stroke="#666666" points="448.5,-209 337.25,-209 337.25,-189 448.5,-189 448.5,-209"/>
<text text-anchor="middle" x="392.88" y="-195.5" font-family="Helvetica,sans-Serif" font-size="10.00">Interpretor::getTokens</text>
</a>
</g>
</g>
<!-- Node3&#45;&gt;Node9 -->
<g id="edge8_Node000003_Node000009" class="edge">
<title>Node3&#45;&gt;Node9</title>
<g id="a_edge8_Node000003_Node000009"><a xlink:title=" ">
<path fill="none" stroke="#63b8ff" d="M291.06,-216.57C302.3,-214.61 314.11,-212.56 325.54,-210.56"/>
<polygon fill="#63b8ff" stroke="#63b8ff" points="326.05,-214.03 335.3,-208.86 324.85,-207.13 326.05,-214.03"/>
</a>
</g>
</g>
<!-- Node6 -->
<g id="Node000006" class="node">
<title>Node6</title>
<g id="a_Node000006"><a xlink:href="class_iterator_list.html#ad207131e5d995b00c00118fa4ac6a21d" target="_top" xlink:title=" ">
<polygon fill="white" stroke="#666666" points="596.5,-228 501,-228 501,-208 596.5,-208 596.5,-228"/>
<text text-anchor="middle" x="548.75" y="-214.5" font-family="Helvetica,sans-Serif" font-size="10.00">IteratorList::empty</text>
</a>
</g>
</g>
<!-- Node5&#45;&gt;Node6 -->
<g id="edge5_Node000005_Node000006" class="edge">
<title>Node5&#45;&gt;Node6</title>
<g id="a_edge5_Node000005_Node000006"><a xlink:title=" ">
<path fill="none" stroke="#63b8ff" d="M459.13,-228.94C469.14,-227.71 479.42,-226.44 489.27,-225.22"/>
<polygon fill="#63b8ff" stroke="#63b8ff" points="489.59,-228.71 499.09,-224.01 488.74,-221.76 489.59,-228.71"/>
</a>
</g>
</g>
<!-- Node7 -->
<g id="Node000007" class="node">
<title>Node7</title>
<g id="a_Node000007"><a xlink:href="class_iterator_list.html#abf379455656b776b4e100dba9d4d7ccc" target="_top" xlink:title=" ">
<polygon fill="white" stroke="#666666" points="599.5,-304 498,-304 498,-284 599.5,-284 599.5,-304"/>
<text text-anchor="middle" x="548.75" y="-290.5" font-family="Helvetica,sans-Serif" font-size="10.00">IteratorList::getFirst</text>
</a>
</g>
</g>
<!-- Node5&#45;&gt;Node7 -->
<g id="edge6_Node000005_Node000007" class="edge">
<title>Node5&#45;&gt;Node7</title>
<g id="a_edge6_Node000005_Node000007"><a xlink:title=" ">
<path fill="none" stroke="#63b8ff" d="M434.26,-247.4C442.55,-249.92 451.14,-252.82 459,-256 475.77,-262.79 478.45,-267.69 495,-275 498.54,-276.56 502.24,-278.09 505.98,-279.57"/>
<polygon fill="#63b8ff" stroke="#63b8ff" points="504.5,-282.75 515.09,-283.02 506.98,-276.21 504.5,-282.75"/>
</a>
</g>
</g>
<!-- Node8 -->
<g id="Node000008" class="node">
<title>Node8</title>
<g id="a_Node000008"><a xlink:href="class_iterator_list.html#a47139a087ca9af560c2001e08c4d3f83" target="_top" xlink:title=" ">
<polygon fill="white" stroke="#666666" points="592,-266 505.5,-266 505.5,-246 592,-246 592,-266"/>
<text text-anchor="middle" x="548.75" y="-252.5" font-family="Helvetica,sans-Serif" font-size="10.00">IteratorList::size</text>
</a>
</g>
</g>
<!-- Node5&#45;&gt;Node8 -->
<g id="edge7_Node000005_Node000008" class="edge">
<title>Node5&#45;&gt;Node8</title>
<g id="a_edge7_Node000005_Node000008"><a xlink:title=" ">
<path fill="none" stroke="#63b8ff" d="M459.13,-245.06C470.68,-246.48 482.59,-247.95 493.79,-249.34"/>
<polygon fill="#63b8ff" stroke="#63b8ff" points="493.3,-252.8 503.65,-250.55 494.15,-245.86 493.3,-252.8"/>
</a>
</g>
</g>
<!-- Node10 -->
<g id="Node000010" class="node">
<title>Node10</title>
<g id="a_Node000010"><a xlink:href="class_lexer.html#acf897fb607a542d5c7c8cd4b0dcb1d18" target="_top" xlink:title=" ">
<polygon fill="white" stroke="#666666" points="602.5,-190 495,-190 495,-170 602.5,-170 602.5,-190"/>
<text text-anchor="middle" x="548.75" y="-176.5" font-family="Helvetica,sans-Serif" font-size="10.00">Lexer::extractTokens</text>
</a>
</g>
</g>
<!-- Node9&#45;&gt;Node10 -->
<g id="edge9_Node000009_Node000010" class="edge">
<title>Node9&#45;&gt;Node10</title>
<g id="a_edge9_Node000009_Node000010"><a xlink:title=" ">
<path fill="none" stroke="#63b8ff" d="M448.99,-192.19C460.12,-190.82 471.91,-189.37 483.32,-187.96"/>
<polygon fill="#63b8ff" stroke="#63b8ff" points="483.56,-191.45 493.06,-186.75 482.71,-184.5 483.56,-191.45"/>
</a>
</g>
</g>
<!-- Node11 -->
<g id="Node000011" class="node">
<title>Node11</title>
<g id="a_Node000011"><a xlink:href="_text_manager_8cpp.html#a46d952a72f09b33c8620f9978b962cee" target="_top" xlink:title=" ">
<polygon fill="white" stroke="#666666" points="746.75,-348 662.5,-348 662.5,-328 746.75,-328 746.75,-348"/>
<text text-anchor="middle" x="704.62" y="-334.5" font-family="Helvetica,sans-Serif" font-size="10.00">beginsBySpace</text>
</a>
</g>
</g>
<!-- Node10&#45;&gt;Node11 -->
<g id="edge10_Node000010_Node000011" class="edge">
<title>Node10&#45;&gt;Node11</title>
<g id="a_edge10_Node000010_Node000011"><a xlink:title=" ">
<path fill="none" stroke="#63b8ff" d="M590.51,-190.48C594.9,-192.78 599.03,-195.59 602.5,-199 634.69,-230.66 610.48,-258.59 638.5,-294 647.5,-305.37 660.24,-314.88 672.08,-322.12"/>
<polygon fill="#63b8ff" stroke="#63b8ff" points="669.98,-324.95 680.39,-326.9 673.47,-318.88 669.98,-324.95"/>
</a>
</g>
</g>
<!-- Node13 -->
<g id="Node000013" class="node">
<title>Node13</title>
<g id="a_Node000013"><a xlink:href="class_lexer.html#a38487c80f0fe8c7f35a2a495015945be" target="_top" xlink:title=" ">
<polygon fill="white" stroke="#666666" points="768.5,-209 640.75,-209 640.75,-189 768.5,-189 768.5,-209"/>
<text text-anchor="middle" x="704.62" y="-195.5" font-family="Helvetica,sans-Serif" font-size="10.00">Lexer::extractStringLiteral</text>
</a>
</g>
</g>
<!-- Node10&#45;&gt;Node13 -->
<g id="edge12_Node000010_Node000013" class="edge">
<title>Node10&#45;&gt;Node13</title>
<g id="a_edge12_Node000010_Node000013"><a xlink:title=" ">
<path fill="none" stroke="#63b8ff" d="M602.71,-186.54C611.26,-187.6 620.26,-188.71 629.21,-189.81"/>
<polygon fill="#63b8ff" stroke="#63b8ff" points="628.63,-193.27 638.99,-191.02 629.49,-186.32 628.63,-193.27"/>
</a>
</g>
</g>
<!-- Node17 -->
<g id="Node000017" class="node">
<title>Node17</title>
<g id="a_Node000017"><a xlink:href="class_lexer.html#a6d58c8a031d7f7dd28c3501984b4eab6" target="_top" xlink:title=" ">
<polygon fill="white" stroke="#666666" points="915.75,-115 830,-115 830,-95 915.75,-95 915.75,-115"/>
<text text-anchor="middle" x="872.88" y="-101.5" font-family="Helvetica,sans-Serif" font-size="10.00">Lexer::getToken</text>
</a>
</g>
</g>
<!-- Node10&#45;&gt;Node17 -->
<g id="edge38_Node000010_Node000017" class="edge">
<title>Node10&#45;&gt;Node17</title>
<g id="a_edge38_Node000010_Node000017"><a xlink:title=" ">
<path fill="none" stroke="#63b8ff" d="M594.54,-169.57C653.13,-155.93 755.67,-132.06 818.3,-117.47"/>
<polygon fill="#63b8ff" stroke="#63b8ff" points="819.09,-120.88 828.04,-115.21 817.51,-114.06 819.09,-120.88"/>
</a>
</g>
</g>
<!-- Node28 -->
<g id="Node000028" class="node">
<title>Node28</title>
<g id="a_Node000028"><a xlink:href="class_lexer.html#a6d27c5679af8fff9df7b0885ecceb9ac" target="_top" xlink:title=" ">
<polygon fill="white" stroke="#666666" points="930.75,-171 815,-171 815,-151 930.75,-151 930.75,-171"/>
<text text-anchor="middle" x="872.88" y="-157.5" font-family="Helvetica,sans-Serif" font-size="10.00">Lexer::skipTokenString</text>
</a>
</g>
</g>
<!-- Node10&#45;&gt;Node28 -->
<g id="edge41_Node000010_Node000028" class="edge">
<title>Node10&#45;&gt;Node28</title>
<g id="a_edge41_Node000010_Node000028"><a xlink:title=" ">
<path fill="none" stroke="#63b8ff" d="M602.94,-176.86C657.75,-173.63 743.41,-168.58 803.29,-165.05"/>
<polygon fill="#63b8ff" stroke="#63b8ff" points="803.24,-168.55 813.02,-164.47 802.83,-161.57 803.24,-168.55"/>
</a>
</g>
</g>
<!-- Node31 -->
<g id="Node000031" class="node">
<title>Node31</title>
<g id="a_Node000031"><a xlink:href="class_lexer.html#a243227232c190f441498270efa40ccb8" target="_top" xlink:title=" ">
<polygon fill="white" stroke="#666666" points="770.75,-285 638.5,-285 638.5,-265 770.75,-265 770.75,-285"/>
<text text-anchor="middle" x="704.62" y="-271.5" font-family="Helvetica,sans-Serif" font-size="10.00">Lexer::getNextTokenString</text>
</a>
</g>
</g>
<!-- Node10&#45;&gt;Node31 -->
<g id="edge35_Node000010_Node000031" class="edge">
<title>Node10&#45;&gt;Node31</title>
<g id="a_edge35_Node000010_Node000031"><a xlink:title=" ">
<path fill="none" stroke="#63b8ff" d="M583.61,-190.49C590.03,-192.96 596.59,-195.81 602.5,-199 632.89,-215.41 664.11,-240.34 683.66,-257.13"/>
<polygon fill="#63b8ff" stroke="#63b8ff" points="681.3,-259.71 691.13,-263.65 685.9,-254.44 681.3,-259.71"/>
</a>
</g>
</g>
<!-- Node33 -->
<g id="Node000033" class="node">
<title>Node33</title>
<g id="a_Node000033"><a xlink:href="_text_manager_8cpp.html#aa6913b7fe272fe20684f1c5c701d54d7" target="_top" xlink:title=" ">
<polygon fill="white" stroke="#666666" points="735.5,-86 673.75,-86 673.75,-66 735.5,-66 735.5,-86"/>
<text text-anchor="middle" x="704.62" y="-72.5" font-family="Helvetica,sans-Serif" font-size="10.00">skipSpace</text>
</a>
</g>
</g>
<!-- Node10&#45;&gt;Node33 -->
<g id="edge39_Node000010_Node000033" class="edge">
<title>Node10&#45;&gt;Node33</title>
<g id="a_edge39_Node000010_Node000033"><a xlink:title=" ">
<path fill="none" stroke="#63b8ff" d="M559.91,-169.71C575.66,-154.19 607.4,-124.51 638.5,-105 646.79,-99.8 656.17,-95.05 665.18,-90.96"/>
<polygon fill="#63b8ff" stroke="#63b8ff" points="666.33,-94.28 674.1,-87.08 663.54,-87.85 666.33,-94.28"/>
</a>
</g>
</g>
<!-- Node12 -->
<g id="Node000012" class="node">
<title>Node12</title>
<g id="a_Node000012"><a xlink:href="_text_manager_8cpp.html#aa18ab3a474aba30784c5521be8a7da65" target="_top" xlink:title=" ">
<polygon fill="white" stroke="#666666" points="922.88,-373 822.88,-373 822.88,-353 922.88,-353 922.88,-373"/>
<text text-anchor="middle" x="872.88" y="-359.5" font-family="Helvetica,sans-Serif" font-size="10.00">beginsBySequence</text>
</a>
</g>
</g>
<!-- Node11&#45;&gt;Node12 -->
<g id="edge11_Node000011_Node000012" class="edge">
<title>Node11&#45;&gt;Node12</title>
<g id="a_edge11_Node000011_Node000012"><a xlink:title=" ">
<path fill="none" stroke="#63b8ff" d="M747.15,-344.24C766.55,-347.16 790.03,-350.69 811.36,-353.9"/>
<polygon fill="#63b8ff" stroke="#63b8ff" points="810.71,-357.34 821.11,-355.37 811.75,-350.42 810.71,-357.34"/>
</a>
</g>
</g>
<!-- Node14 -->
<g id="Node000014" class="node">
<title>Node14</title>
<g id="a_Node000014"><a xlink:href="_token_8cpp.html#a426cbd25cc7742ac6cface09364031ba" target="_top" xlink:title=" ">
<polygon fill="white" stroke="#666666" points="913.5,-247 832.25,-247 832.25,-227 913.5,-227 913.5,-247"/>
<text text-anchor="middle" x="872.88" y="-233.5" font-family="Helvetica,sans-Serif" font-size="10.00">getStringLiteral</text>
</a>
</g>
</g>
<!-- Node13&#45;&gt;Node14 -->
<g id="edge13_Node000013_Node000014" class="edge">
<title>Node13&#45;&gt;Node14</title>
<g id="a_edge13_Node000013_Node000014"><a xlink:title=" ">
<path fill="none" stroke="#63b8ff" d="M751.49,-209.48C772.94,-214.39 798.55,-220.24 820.63,-225.29"/>
<polygon fill="#63b8ff" stroke="#63b8ff" points="819.81,-228.69 830.34,-227.51 821.37,-221.86 819.81,-228.69"/>
</a>
</g>
</g>
<!-- Node13&#45;&gt;Node17 -->
<g id="edge16_Node000013_Node000017" class="edge">
<title>Node13&#45;&gt;Node17</title>
<g id="a_edge16_Node000013_Node000017"><a xlink:title=" ">
<path fill="none" stroke="#63b8ff" d="M724.05,-188.58C753.01,-172.21 809.39,-140.33 843.54,-121.02"/>
<polygon fill="#63b8ff" stroke="#63b8ff" points="845.07,-124.18 852.05,-116.21 841.62,-118.09 845.07,-124.18"/>
</a>
</g>
</g>
<!-- Node26 -->
<g id="Node000026" class="node">
<title>Node26</title>
<g id="a_Node000026"><a xlink:href="_text_manager_8cpp.html#a053e0b36b2796cc4d128150353f13449" target="_top" xlink:title=" ">
<polygon fill="white" stroke="#666666" points="1068.62,-209 991.12,-209 991.12,-189 1068.62,-189 1068.62,-209"/>
<text text-anchor="middle" x="1029.88" y="-195.5" font-family="Helvetica,sans-Serif" font-size="10.00">skipSequence</text>
</a>
</g>
</g>
<!-- Node13&#45;&gt;Node26 -->
<g id="edge26_Node000013_Node000026" class="edge">
<title>Node13&#45;&gt;Node26</title>
<g id="a_edge26_Node000013_Node000026"><a xlink:title=" ">
<path fill="none" stroke="#63b8ff" d="M768.72,-199C830.3,-199 922.74,-199 979.25,-199"/>
<polygon fill="#63b8ff" stroke="#63b8ff" points="979.22,-202.5 989.22,-199 979.22,-195.5 979.22,-202.5"/>
</a>
</g>
</g>
<!-- Node13&#45;&gt;Node28 -->
<g id="edge29_Node000013_Node000028" class="edge">
<title>Node13&#45;&gt;Node28</title>
<g id="a_edge29_Node000013_Node000028"><a xlink:title=" ">
<path fill="none" stroke="#63b8ff" d="M751.49,-188.52C771.12,-184.03 794.24,-178.75 814.94,-174.01"/>
<polygon fill="#63b8ff" stroke="#63b8ff" points="815.71,-177.43 824.68,-171.79 814.15,-170.6 815.71,-177.43"/>
</a>
</g>
</g>
<!-- Node15 -->
<g id="Node000015" class="node">
<title>Node15</title>
<g id="a_Node000015"><a xlink:href="_text_manager_8cpp.html#aff8311b88dbf5f3091f3ac1262543242" target="_top" xlink:title=" ">
<polygon fill="white" stroke="#666666" points="1071.62,-247 988.12,-247 988.12,-227 1071.62,-227 1071.62,-247"/>
<text text-anchor="middle" x="1029.88" y="-233.5" font-family="Helvetica,sans-Serif" font-size="10.00">getStringBefore</text>
</a>
</g>
</g>
<!-- Node14&#45;&gt;Node15 -->
<g id="edge14_Node000014_Node000015" class="edge">
<title>Node14&#45;&gt;Node15</title>
<g id="a_edge14_Node000014_Node000015"><a xlink:title=" ">
<path fill="none" stroke="#63b8ff" d="M913.79,-237C932.85,-237 955.91,-237 976.37,-237"/>
<polygon fill="#63b8ff" stroke="#63b8ff" points="976.23,-240.5 986.23,-237 976.23,-233.5 976.23,-240.5"/>
</a>
</g>
</g>
<!-- Node16 -->
<g id="Node000016" class="node">
<title>Node16</title>
<g id="a_Node000016"><a xlink:href="_text_manager_8cpp.html#a3f4afb2b62acd297e783a22ffa9a7000" target="_top" xlink:title=" ">
<polygon fill="white" stroke="#666666" points="1335.75,-209 1245.5,-209 1245.5,-189 1335.75,-189 1335.75,-209"/>
<text text-anchor="middle" x="1290.62" y="-195.5" font-family="Helvetica,sans-Serif" font-size="10.00">getSequencePos</text>
</a>
</g>
</g>
<!-- Node15&#45;&gt;Node16 -->
<g id="edge15_Node000015_Node000016" class="edge">
<title>Node15&#45;&gt;Node16</title>
<g id="a_edge15_Node000015_Node000016"><a xlink:title=" ">
<path fill="none" stroke="#63b8ff" d="M1071.87,-234.13C1108.21,-231.23 1162.62,-226.02 1209.5,-218 1219.02,-216.37 1229.1,-214.28 1238.77,-212.08"/>
<polygon fill="#63b8ff" stroke="#63b8ff" points="1239.48,-215.51 1248.42,-209.82 1237.88,-208.7 1239.48,-215.51"/>
</a>
</g>
</g>
<!-- Node17&#45;&gt;Node17 -->
<g id="edge17_Node000017_Node000017" class="edge">
<title>Node17&#45;&gt;Node17</title>
<g id="a_edge17_Node000017_Node000017"><a xlink:title=" ">
<path fill="none" stroke="#63b8ff" d="M847.93,-115.34C837.27,-123.98 845.58,-133 872.88,-133 887.8,-133 897.05,-130.3 900.62,-126.44"/>
<polygon fill="#63b8ff" stroke="#63b8ff" points="904.03,-125.65 898.19,-116.81 897.25,-127.36 904.03,-125.65"/>
</a>
</g>
</g>
<!-- Node18 -->
<g id="Node000018" class="node">
<title>Node18</title>
<g id="a_Node000018"><a xlink:href="class_lexer.html#a142bd017adf2e3df1522e0cce7a3fb0c" target="_top" xlink:title=" ">
<polygon fill="white" stroke="#666666" points="1084.75,-115 975,-115 975,-95 1084.75,-95 1084.75,-115"/>
<text text-anchor="middle" x="1029.88" y="-101.5" font-family="Helvetica,sans-Serif" font-size="10.00">Lexer::getTokenValue</text>
</a>
</g>
</g>
<!-- Node17&#45;&gt;Node18 -->
<g id="edge18_Node000017_Node000018" class="edge">
<title>Node17&#45;&gt;Node18</title>
<g id="a_edge18_Node000017_Node000018"><a xlink:title=" ">
<path fill="none" stroke="#63b8ff" d="M916.23,-105C930.73,-105 947.31,-105 963.21,-105"/>
<polygon fill="#63b8ff" stroke="#63b8ff" points="963.11,-108.5 973.11,-105 963.11,-101.5 963.11,-108.5"/>
</a>
</g>
</g>
<!-- Node19 -->
<g id="Node000019" class="node">
<title>Node19</title>
<g id="a_Node000019"><a xlink:href="_lexer_8cpp.html#a32fa5cbc79c968c5b53e8303ad77091d" target="_top" xlink:title=" ">
<polygon fill="white" stroke="#666666" points="1195.62,-77 1134.62,-77 1134.62,-57 1195.62,-57 1195.62,-77"/>
<text text-anchor="middle" x="1165.12" y="-63.5" font-family="Helvetica,sans-Serif" font-size="10.00">isIdentifier</text>
</a>
</g>
</g>
<!-- Node18&#45;&gt;Node19 -->
<g id="edge19_Node000018_Node000019" class="edge">
<title>Node18&#45;&gt;Node19</title>
<g id="a_edge19_Node000018_Node000019"><a xlink:title=" ">
<path fill="none" stroke="#63b8ff" d="M1067.64,-94.52C1084.91,-89.59 1105.55,-83.7 1123.31,-78.64"/>
<polygon fill="#63b8ff" stroke="#63b8ff" points="1124.1,-82.05 1132.76,-75.95 1122.18,-75.32 1124.1,-82.05"/>
</a>
</g>
</g>
<!-- Node25 -->
<g id="Node000025" class="node">
<title>Node25</title>
<g id="a_Node000025"><a xlink:href="_lexer_8cpp.html#aaa3b01d6b7b6b5bf4b868b37fcf3ac6f" target="_top" xlink:title=" ">
<polygon fill="white" stroke="#666666" points="1194.12,-115 1136.12,-115 1136.12,-95 1194.12,-95 1194.12,-115"/>
<text text-anchor="middle" x="1165.12" y="-101.5" font-family="Helvetica,sans-Serif" font-size="10.00">isNumber</text>
</a>
</g>
</g>
<!-- Node18&#45;&gt;Node25 -->
<g id="edge25_Node000018_Node000025" class="edge">
<title>Node18&#45;&gt;Node25</title>
<g id="a_edge25_Node000018_Node000025"><a xlink:title=" ">
<path fill="none" stroke="#63b8ff" d="M1085.07,-105C1098.29,-105 1112.18,-105 1124.56,-105"/>
<polygon fill="#63b8ff" stroke="#63b8ff" points="1124.39,-108.5 1134.39,-105 1124.39,-101.5 1124.39,-108.5"/>
</a>
</g>
</g>
<!-- Node20 -->
<g id="Node000020" class="node">
<title>Node20</title>
<g id="a_Node000020"><a xlink:href="_token_8cpp.html#ad42767aaf8252eb57581d009530bd527" target="_top" xlink:title=" ">
<polygon fill="white" stroke="#666666" points="1328.25,-77 1253,-77 1253,-57 1328.25,-57 1328.25,-77"/>
<text text-anchor="middle" x="1290.62" y="-63.5" font-family="Helvetica,sans-Serif" font-size="10.00">isTokenString</text>
</a>
</g>
</g>
<!-- Node19&#45;&gt;Node20 -->
<g id="edge20_Node000019_Node000020" class="edge">
<title>Node19&#45;&gt;Node20</title>
<g id="a_edge20_Node000019_Node000020"><a xlink:title=" ">
<path fill="none" stroke="#63b8ff" d="M1196.02,-67C1209.67,-67 1226.19,-67 1241.52,-67"/>
<polygon fill="#63b8ff" stroke="#63b8ff" points="1241.43,-70.5 1251.43,-67 1241.43,-63.5 1241.43,-70.5"/>
</a>
</g>
</g>
<!-- Node21 -->
<g id="Node000021" class="node">
<title>Node21</title>
<g id="a_Node000021"><a xlink:href="_token_8cpp.html#a3276e6efe4a3f409262ffe0b345e9636" target="_top" xlink:title=" ">
<polygon fill="white" stroke="#666666" points="1465.75,-134 1378.5,-134 1378.5,-114 1465.75,-114 1465.75,-134"/>
<text text-anchor="middle" x="1422.12" y="-120.5" font-family="Helvetica,sans-Serif" font-size="10.00">isKeywordString</text>
</a>
</g>
</g>
<!-- Node20&#45;&gt;Node21 -->
<g id="edge21_Node000020_Node000021" class="edge">
<title>Node20&#45;&gt;Node21</title>
<g id="a_edge21_Node000020_Node000021"><a xlink:title=" ">
<path fill="none" stroke="#63b8ff" d="M1312.51,-77.44C1328.57,-85.33 1351.37,-96.26 1371.75,-105 1375.13,-106.45 1378.65,-107.91 1382.2,-109.34"/>
<polygon fill="#63b8ff" stroke="#63b8ff" points="1380.78,-112.54 1391.37,-112.96 1383.35,-106.03 1380.78,-112.54"/>
</a>
</g>
</g>
<!-- Node22 -->
<g id="Node000022" class="node">
<title>Node22</title>
<g id="a_Node000022"><a xlink:href="_token_8cpp.html#ae8bab56314c8b787497a84c189b9114d" target="_top" xlink:title=" ">
<polygon fill="white" stroke="#666666" points="1459.75,-96 1384.5,-96 1384.5,-76 1459.75,-76 1459.75,-96"/>
<text text-anchor="middle" x="1422.12" y="-82.5" font-family="Helvetica,sans-Serif" font-size="10.00">isLiteralString</text>
</a>
</g>
</g>
<!-- Node20&#45;&gt;Node22 -->
<g id="edge22_Node000020_Node000022" class="edge">
<title>Node20&#45;&gt;Node22</title>
<g id="a_edge22_Node000020_Node000022"><a xlink:title=" ">
<path fill="none" stroke="#63b8ff" d="M1328.73,-72.44C1342.42,-74.45 1358.13,-76.76 1372.66,-78.89"/>
<polygon fill="#63b8ff" stroke="#63b8ff" points="1372.11,-82.35 1382.51,-80.33 1373.13,-75.42 1372.11,-82.35"/>
</a>
</g>
</g>
<!-- Node23 -->
<g id="Node000023" class="node">
<title>Node23</title>
<g id="a_Node000023"><a xlink:href="_token_8cpp.html#ae80d3823673e42ed3ce7e84597bbd552" target="_top" xlink:title=" ">
<polygon fill="white" stroke="#666666" points="1465.38,-58 1378.88,-58 1378.88,-38 1465.38,-38 1465.38,-58"/>
<text text-anchor="middle" x="1422.12" y="-44.5" font-family="Helvetica,sans-Serif" font-size="10.00">isOperatorString</text>
</a>
</g>
</g>
<!-- Node20&#45;&gt;Node23 -->
<g id="edge23_Node000020_Node000023" class="edge">
<title>Node20&#45;&gt;Node23</title>
<g id="a_edge23_Node000020_Node000023"><a xlink:title=" ">
<path fill="none" stroke="#63b8ff" d="M1328.73,-61.56C1340.76,-59.79 1354.35,-57.8 1367.33,-55.89"/>
<polygon fill="#63b8ff" stroke="#63b8ff" points="1367.65,-59.38 1377.03,-54.47 1366.63,-52.46 1367.65,-59.38"/>
</a>
</g>
</g>
<!-- Node24 -->
<g id="Node000024" class="node">
<title>Node24</title>
<g id="a_Node000024"><a xlink:href="_token_8cpp.html#ad93eecc58b3fdba57ba605dcb296f03e" target="_top" xlink:title=" ">
<polygon fill="white" stroke="#666666" points="1472.5,-20 1371.75,-20 1371.75,0 1472.5,0 1472.5,-20"/>
<text text-anchor="middle" x="1422.12" y="-6.5" font-family="Helvetica,sans-Serif" font-size="10.00">isPunctuationString</text>
</a>
</g>
</g>
<!-- Node20&#45;&gt;Node24 -->
<g id="edge24_Node000020_Node000024" class="edge">
<title>Node20&#45;&gt;Node24</title>
<g id="a_edge24_Node000020_Node000024"><a xlink:title=" ">
<path fill="none" stroke="#63b8ff" d="M1312.51,-56.56C1328.57,-48.67 1351.37,-37.74 1371.75,-29 1375.13,-27.55 1378.65,-26.09 1382.2,-24.66"/>
<polygon fill="#63b8ff" stroke="#63b8ff" points="1383.35,-27.97 1391.37,-21.04 1380.78,-21.46 1383.35,-27.97"/>
</a>
</g>
</g>
<!-- Node27 -->
<g id="Node000027" class="node">
<title>Node27</title>
<g id="a_Node000027"><a xlink:href="_text_manager_8cpp.html#a5b66873abcff2faee361721f86b65dd0" target="_top" xlink:title=" ">
<polygon fill="white" stroke="#666666" points="1199,-209 1131.25,-209 1131.25,-189 1199,-189 1199,-209"/>
<text text-anchor="middle" x="1165.12" y="-195.5" font-family="Helvetica,sans-Serif" font-size="10.00">getPosAfter</text>
</a>
</g>
</g>
<!-- Node26&#45;&gt;Node27 -->
<g id="edge27_Node000026_Node000027" class="edge">
<title>Node26&#45;&gt;Node27</title>
<g id="a_edge27_Node000026_Node000027"><a xlink:title=" ">
<path fill="none" stroke="#63b8ff" d="M1069.06,-199C1084.78,-199 1103.1,-199 1119.43,-199"/>
<polygon fill="#63b8ff" stroke="#63b8ff" points="1119.4,-202.5 1129.4,-199 1119.4,-195.5 1119.4,-202.5"/>
</a>
</g>
</g>
<!-- Node27&#45;&gt;Node16 -->
<g id="edge28_Node000027_Node000016" class="edge">
<title>Node27&#45;&gt;Node16</title>
<g id="a_edge28_Node000027_Node000016"><a xlink:title=" ">
<path fill="none" stroke="#63b8ff" d="M1199.22,-199C1209.94,-199 1222.14,-199 1234.04,-199"/>
<polygon fill="#63b8ff" stroke="#63b8ff" points="1233.77,-202.5 1243.77,-199 1233.77,-195.5 1233.77,-202.5"/>
</a>
</g>
</g>
<!-- Node29 -->
<g id="Node000029" class="node">
<title>Node29</title>
<g id="a_Node000029"><a xlink:href="_text_manager_8cpp.html#a6956d58559ef67f422247fdeb1c22775" target="_top" xlink:title=" ">
<polygon fill="white" stroke="#666666" points="1067.88,-171 991.88,-171 991.88,-151 1067.88,-151 1067.88,-171"/>
<text text-anchor="middle" x="1029.88" y="-157.5" font-family="Helvetica,sans-Serif" font-size="10.00">getStringAfter</text>
</a>
</g>
</g>
<!-- Node28&#45;&gt;Node29 -->
<g id="edge30_Node000028_Node000029" class="edge">
<title>Node28&#45;&gt;Node29</title>
<g id="a_edge30_Node000028_Node000029"><a xlink:title=" ">
<path fill="none" stroke="#63b8ff" d="M931.15,-161C947.23,-161 964.56,-161 980.1,-161"/>
<polygon fill="#63b8ff" stroke="#63b8ff" points="980.06,-164.5 990.06,-161 980.06,-157.5 980.06,-164.5"/>
</a>
</g>
</g>
<!-- Node29&#45;&gt;Node27 -->
<g id="edge31_Node000029_Node000027" class="edge">
<title>Node29&#45;&gt;Node27</title>
<g id="a_edge31_Node000029_Node000027"><a xlink:title=" ">
<path fill="none" stroke="#63b8ff" d="M1067.64,-171.48C1083.94,-176.13 1103.25,-181.64 1120.3,-186.5"/>
<polygon fill="#63b8ff" stroke="#63b8ff" points="1119.09,-189.8 1129.67,-189.17 1121.01,-183.06 1119.09,-189.8"/>
</a>
</g>
</g>
<!-- Node30 -->
<g id="Node000030" class="node">
<title>Node30</title>
<g id="a_Node000030"><a xlink:href="_text_manager_8cpp.html#a2946b90fb3df56b0a74d53eb4160f4e2" target="_top" xlink:title=" ">
<polygon fill="white" stroke="#666666" points="1209.5,-153 1120.75,-153 1120.75,-133 1209.5,-133 1209.5,-153"/>
<text text-anchor="middle" x="1165.12" y="-139.5" font-family="Helvetica,sans-Serif" font-size="10.00">getStringStarting</text>
</a>
</g>
</g>
<!-- Node29&#45;&gt;Node30 -->
<g id="edge32_Node000029_Node000030" class="edge">
<title>Node29&#45;&gt;Node30</title>
<g id="a_edge32_Node000029_Node000030"><a xlink:title=" ">
<path fill="none" stroke="#63b8ff" d="M1068.35,-155.94C1080.98,-154.23 1095.35,-152.29 1109.04,-150.44"/>
<polygon fill="#63b8ff" stroke="#63b8ff" points="1109.4,-153.92 1118.84,-149.12 1108.46,-146.99 1109.4,-153.92"/>
</a>
</g>
</g>
<!-- Node30&#45;&gt;Node16 -->
<g id="edge33_Node000030_Node000016" class="edge">
<title>Node30&#45;&gt;Node16</title>
<g id="a_edge33_Node000030_Node000016"><a xlink:title=" ">
<path fill="none" stroke="#63b8ff" d="M1189.06,-153.4C1208.04,-162.01 1235.24,-174.34 1256.57,-184.01"/>
<polygon fill="#63b8ff" stroke="#63b8ff" points="1254.88,-187.09 1265.43,-188.03 1257.77,-180.71 1254.88,-187.09"/>
</a>
</g>
</g>
<!-- Node30&#45;&gt;Node30 -->
<g id="edge34_Node000030_Node000030" class="edge">
<title>Node30&#45;&gt;Node30</title>
<g id="a_edge34_Node000030_Node000030"><a xlink:title=" ">
<path fill="none" stroke="#63b8ff" d="M1145.18,-153.34C1136.66,-161.98 1143.31,-171 1165.12,-171 1177.06,-171 1184.45,-168.3 1187.31,-164.44"/>
<polygon fill="#63b8ff" stroke="#63b8ff" points="1190.77,-163.93 1185.37,-154.82 1183.91,-165.32 1190.77,-163.93"/>
</a>
</g>
</g>
<!-- Node31&#45;&gt;Node15 -->
<g id="edge37_Node000031_Node000015" class="edge">
<title>Node31&#45;&gt;Node15</title>
<g id="a_edge37_Node000031_Node000015"><a xlink:title=" ">
<path fill="none" stroke="#63b8ff" d="M771.01,-271.9C817.94,-269.14 882.58,-264.23 939,-256 951.32,-254.2 964.49,-251.73 976.84,-249.17"/>
<polygon fill="#63b8ff" stroke="#63b8ff" points="977.38,-252.64 986.43,-247.12 975.92,-245.79 977.38,-252.64"/>
</a>
</g>
</g>
<!-- Node32 -->
<g id="Node000032" class="node">
<title>Node32</title>
<g id="a_Node000032"><a xlink:href="class_lexer.html#aeea59528280fc24aaf8a24d0182df826" target="_top" xlink:title=" ">
<polygon fill="white" stroke="#666666" points="939,-335 806.75,-335 806.75,-303 939,-303 939,-335"/>
<text text-anchor="start" x="814.75" y="-321.5" font-family="Helvetica,sans-Serif" font-size="10.00">Lexer::getNextPunctuation</text>
<text text-anchor="middle" x="872.88" y="-309.5" font-family="Helvetica,sans-Serif" font-size="10.00">Token</text>
</a>
</g>
</g>
<!-- Node31&#45;&gt;Node32 -->
<g id="edge36_Node000031_Node000032" class="edge">
<title>Node31&#45;&gt;Node32</title>
<g id="a_edge36_Node000031_Node000032"><a xlink:title=" ">
<path fill="none" stroke="#63b8ff" d="M745.02,-285.43C761.08,-289.68 780.18,-294.73 798.63,-299.61"/>
<polygon fill="#63b8ff" stroke="#63b8ff" points="797.66,-302.98 808.22,-302.15 799.45,-296.21 797.66,-302.98"/>
</a>
</g>
</g>
<!-- Node34 -->
<g id="Node000034" class="node">
<title>Node34</title>
<g id="a_Node000034"><a xlink:href="_text_manager_8cpp.html#ae58f22c7238c63a9ffd8ac0f9fb36216" target="_top" xlink:title=" ">
<polygon fill="white" stroke="#666666" points="920.25,-77 825.5,-77 825.5,-57 920.25,-57 920.25,-77"/>
<text text-anchor="middle" x="872.88" y="-63.5" font-family="Helvetica,sans-Serif" font-size="10.00">skipAnySequence</text>
</a>
</g>
</g>
<!-- Node33&#45;&gt;Node34 -->
<g id="edge40_Node000033_Node000034" class="edge">
<title>Node33&#45;&gt;Node34</title>
<g id="a_edge40_Node000033_Node000034"><a xlink:title=" ">
<path fill="none" stroke="#63b8ff" d="M735.73,-74.37C757.41,-73.2 787.35,-71.58 813.64,-70.15"/>
<polygon fill="#63b8ff" stroke="#63b8ff" points="813.72,-73.65 823.52,-69.62 813.34,-66.66 813.72,-73.65"/>
</a>
</g>
</g>
<!-- Node36 -->
<g id="Node000036" class="node">
<title>Node36</title>
<g id="a_Node000036"><a xlink:href="_text_manager_8cpp.html#add36cc54cd9616a393a17b8961491477" target="_top" xlink:title=" ">
<polygon fill="white" stroke="#666666" points="432.75,-171 353,-171 353,-151 432.75,-151 432.75,-171"/>
<text text-anchor="middle" x="392.88" y="-157.5" font-family="Helvetica,sans-Serif" font-size="10.00">getFileContent</text>
</a>
</g>
</g>
<!-- Node35&#45;&gt;Node36 -->
<g id="edge43_Node000035_Node000036" class="edge">
<title>Node35&#45;&gt;Node36</title>
<g id="a_edge43_Node000035_Node000036"><a xlink:title=" ">
<path fill="none" stroke="#63b8ff" d="M290.6,-172.98C307.29,-171.01 325.27,-168.88 341.38,-166.97"/>
<polygon fill="#63b8ff" stroke="#63b8ff" points="341.72,-170.46 351.24,-165.81 340.9,-163.51 341.72,-170.46"/>
</a>
</g>
</g>
</g>
</svg>
