<?xml version="1.0" encoding="UTF-8" standalone="no"?>
<!DOCTYPE svg PUBLIC "-//W3C//DTD SVG 1.1//EN"
 "http://www.w3.org/Graphics/SVG/1.1/DTD/svg11.dtd">
<!-- Generated by graphviz version 12.2.0 (20241103.1931)
 -->
<!-- Title: Emulator::searchEmulatorAllDrives Pages: 1 -->
<svg width="1151pt" height="40pt"
 viewBox="0.00 0.00 1150.75 40.00" xmlns="http://www.w3.org/2000/svg" xmlns:xlink="http://www.w3.org/1999/xlink">
<g id="graph0" class="graph" transform="scale(1 1) rotate(0) translate(4 36)">
<title>Emulator::searchEmulatorAllDrives</title>
<!-- Node1 -->
<g id="Node000001" class="node">
<title>Node1</title>
<g id="a_Node000001"><a xlink:title=" ">
<polygon fill="#999999" stroke="#666666" points="1142.75,-32 1013.5,-32 1013.5,0 1142.75,0 1142.75,-32"/>
<text text-anchor="start" x="1021.5" y="-18.5" font-family="Helvetica,sans-Serif" font-size="10.00">Emulator::searchEmulator</text>
<text text-anchor="middle" x="1078.12" y="-6.5" font-family="Helvetica,sans-Serif" font-size="10.00">AllDrives</text>
</a>
</g>
</g>
<!-- Node2 -->
<g id="Node000002" class="node">
<title>Node2</title>
<g id="a_Node000002"><a xlink:href="class_l_d_player.html#a99b2174bd6a896874fe39023faa4e88c" target="_top" xlink:title=" ">
<polygon fill="white" stroke="#666666" points="977.5,-26 846.75,-26 846.75,-6 977.5,-6 977.5,-26"/>
<text text-anchor="middle" x="912.12" y="-12.5" font-family="Helvetica,sans-Serif" font-size="10.00">LDPlayer::searchEmulator</text>
</a>
</g>
</g>
<!-- Node1&#45;&gt;Node2 -->
<g id="edge1_Node000001_Node000002" class="edge">
<title>Node1&#45;&gt;Node2</title>
<g id="a_edge1_Node000001_Node000002"><a xlink:title=" ">
<path fill="none" stroke="#63b8ff" d="M1001.98,-16C993.94,-16 985.81,-16 977.91,-16"/>
<polygon fill="#63b8ff" stroke="#63b8ff" points="1001.74,-19.5 1011.74,-16 1001.74,-12.5 1001.74,-19.5"/>
</a>
</g>
</g>
<!-- Node3 -->
<g id="Node000003" class="node">
<title>Node3</title>
<g id="a_Node000003"><a xlink:href="class_l_d_player.html#af652c272f07898fcabf0df740fbacefa" target="_top" xlink:title=" ">
<polygon fill="white" stroke="#666666" points="810.75,-26 696.5,-26 696.5,-6 810.75,-6 810.75,-26"/>
<text text-anchor="middle" x="753.62" y="-12.5" font-family="Helvetica,sans-Serif" font-size="10.00">LDPlayer::initEmulator</text>
</a>
</g>
</g>
<!-- Node2&#45;&gt;Node3 -->
<g id="edge2_Node000002_Node000003" class="edge">
<title>Node2&#45;&gt;Node3</title>
<g id="a_edge2_Node000002_Node000003"><a xlink:title=" ">
<path fill="none" stroke="#63b8ff" d="M835.14,-16C827.02,-16 818.87,-16 811.04,-16"/>
<polygon fill="#63b8ff" stroke="#63b8ff" points="835.05,-19.5 845.05,-16 835.05,-12.5 835.05,-19.5"/>
</a>
</g>
</g>
<!-- Node4 -->
<g id="Node000004" class="node">
<title>Node4</title>
<g id="a_Node000004"><a xlink:href="class_l_d_player.html#aa4d08272c0957b3f9ccd69bee91d39ac" target="_top" xlink:title=" ">
<polygon fill="white" stroke="#666666" points="660.5,-26 585.25,-26 585.25,-6 660.5,-6 660.5,-26"/>
<text text-anchor="middle" x="622.88" y="-12.5" font-family="Helvetica,sans-Serif" font-size="10.00">LDPlayer::init</text>
</a>
</g>
</g>
<!-- Node3&#45;&gt;Node4 -->
<g id="edge3_Node000003_Node000004" class="edge">
<title>Node3&#45;&gt;Node4</title>
<g id="a_edge3_Node000003_Node000004"><a xlink:title=" ">
<path fill="none" stroke="#63b8ff" d="M684.82,-16C676.51,-16 668.27,-16 660.67,-16"/>
<polygon fill="#63b8ff" stroke="#63b8ff" points="684.64,-19.5 694.64,-16 684.64,-12.5 684.64,-19.5"/>
</a>
</g>
</g>
<!-- Node5 -->
<g id="Node000005" class="node">
<title>Node5</title>
<g id="a_Node000005"><a xlink:href="class_bot_config.html#ac91f46c5dca7953454d5a2340dfd7f5c" target="_top" xlink:title=" ">
<polygon fill="white" stroke="#666666" points="549.25,-26 432.75,-26 432.75,-6 549.25,-6 549.25,-26"/>
<text text-anchor="middle" x="491" y="-12.5" font-family="Helvetica,sans-Serif" font-size="10.00">BotConfig::initLdPlayer</text>
</a>
</g>
</g>
<!-- Node4&#45;&gt;Node5 -->
<g id="edge4_Node000004_Node000005" class="edge">
<title>Node4&#45;&gt;Node5</title>
<g id="a_edge4_Node000004_Node000005"><a xlink:title=" ">
<path fill="none" stroke="#63b8ff" d="M573.7,-16C565.77,-16 557.48,-16 549.35,-16"/>
<polygon fill="#63b8ff" stroke="#63b8ff" points="573.49,-19.5 583.49,-16 573.49,-12.5 573.49,-19.5"/>
</a>
</g>
</g>
<!-- Node6 -->
<g id="Node000006" class="node">
<title>Node6</title>
<g id="a_Node000006"><a xlink:href="class_bot_config.html#af8c906f3cd22726a96e758886c756068" target="_top" xlink:title=" ">
<polygon fill="white" stroke="#666666" points="396.75,-26 274.25,-26 274.25,-6 396.75,-6 396.75,-26"/>
<text text-anchor="middle" x="335.5" y="-12.5" font-family="Helvetica,sans-Serif" font-size="10.00">BotConfig::initEmulators</text>
</a>
</g>
</g>
<!-- Node5&#45;&gt;Node6 -->
<g id="edge5_Node000005_Node000006" class="edge">
<title>Node5&#45;&gt;Node6</title>
<g id="a_edge5_Node000005_Node000006"><a xlink:title=" ">
<path fill="none" stroke="#63b8ff" d="M420.94,-16C413.04,-16 405.02,-16 397.24,-16"/>
<polygon fill="#63b8ff" stroke="#63b8ff" points="420.89,-19.5 430.89,-16 420.89,-12.5 420.89,-19.5"/>
</a>
</g>
</g>
<!-- Node7 -->
<g id="Node000007" class="node">
<title>Node7</title>
<g id="a_Node000007"><a xlink:href="class_bot_config.html#a8925ef3403b945f27b9ee2719ef257b9" target="_top" xlink:title=" ">
<polygon fill="white" stroke="#666666" points="238.25,-26 116.5,-26 116.5,-6 238.25,-6 238.25,-26"/>
<text text-anchor="middle" x="177.38" y="-12.5" font-family="Helvetica,sans-Serif" font-size="10.00">BotConfig::initBotConfig</text>
</a>
</g>
</g>
<!-- Node6&#45;&gt;Node7 -->
<g id="edge6_Node000006_Node000007" class="edge">
<title>Node6&#45;&gt;Node7</title>
<g id="a_edge6_Node000006_Node000007"><a xlink:title=" ">
<path fill="none" stroke="#63b8ff" d="M262.79,-16C254.69,-16 246.5,-16 238.58,-16"/>
<polygon fill="#63b8ff" stroke="#63b8ff" points="262.62,-19.5 272.62,-16 262.62,-12.5 262.62,-19.5"/>
</a>
</g>
</g>
<!-- Node8 -->
<g id="Node000008" class="node">
<title>Node8</title>
<g id="a_Node000008"><a xlink:href="classgame.html#aea6b13468585f1be55d1736100158706" target="_top" xlink:title=" ">
<polygon fill="white" stroke="#666666" points="80.5,-26 0,-26 0,-6 80.5,-6 80.5,-26"/>
<text text-anchor="middle" x="40.25" y="-12.5" font-family="Helvetica,sans-Serif" font-size="10.00">game::startBot</text>
</a>
</g>
</g>
<!-- Node7&#45;&gt;Node8 -->
<g id="edge7_Node000007_Node000008" class="edge">
<title>Node7&#45;&gt;Node8</title>
<g id="a_edge7_Node000007_Node000008"><a xlink:title=" ">
<path fill="none" stroke="#63b8ff" d="M105.04,-16C96.77,-16 88.57,-16 80.95,-16"/>
<polygon fill="#63b8ff" stroke="#63b8ff" points="104.81,-19.5 114.81,-16 104.81,-12.5 104.81,-19.5"/>
</a>
</g>
</g>
</g>
</svg>
