<?xml version="1.0" encoding="UTF-8" standalone="no"?>
<!DOCTYPE svg PUBLIC "-//W3C//DTD SVG 1.1//EN"
 "http://www.w3.org/Graphics/SVG/1.1/DTD/svg11.dtd">
<!-- Generated by graphviz version 12.2.0 (20241103.1931)
 -->
<!-- Title: CoordTag::execute Pages: 1 -->
<svg width="429pt" height="142pt"
 viewBox="0.00 0.00 429.00 142.00" xmlns="http://www.w3.org/2000/svg" xmlns:xlink="http://www.w3.org/1999/xlink">
<g id="graph0" class="graph" transform="scale(1 1) rotate(0) translate(4 138)">
<title>CoordTag::execute</title>
<!-- Node1 -->
<g id="Node000001" class="node">
<title>Node1</title>
<g id="a_Node000001"><a xlink:title=" ">
<polygon fill="#999999" stroke="#666666" points="98.5,-77 0,-77 0,-57 98.5,-57 98.5,-77"/>
<text text-anchor="middle" x="49.25" y="-63.5" font-family="Helvetica,sans-Serif" font-size="10.00">CoordTag::execute</text>
</a>
</g>
</g>
<!-- Node2 -->
<g id="Node000002" class="node">
<title>Node2</title>
<g id="a_Node000002"><a xlink:href="_tags_8cpp.html#acc7a7317843e349ecdffda47724bf380" target="_top" xlink:title=" ">
<polygon fill="white" stroke="#666666" points="211.25,-77 134.5,-77 134.5,-57 211.25,-57 211.25,-77"/>
<text text-anchor="middle" x="172.88" y="-63.5" font-family="Helvetica,sans-Serif" font-size="10.00">executeCoord</text>
</a>
</g>
</g>
<!-- Node1&#45;&gt;Node2 -->
<g id="edge1_Node000001_Node000002" class="edge">
<title>Node1&#45;&gt;Node2</title>
<g id="a_edge1_Node000001_Node000002"><a xlink:title=" ">
<path fill="none" stroke="#63b8ff" d="M98.67,-67C106.59,-67 114.81,-67 122.75,-67"/>
<polygon fill="#63b8ff" stroke="#63b8ff" points="122.6,-70.5 132.6,-67 122.6,-63.5 122.6,-70.5"/>
</a>
</g>
</g>
<!-- Node2&#45;&gt;Node2 -->
<g id="edge2_Node000002_Node000002" class="edge">
<title>Node2&#45;&gt;Node2</title>
<g id="a_edge2_Node000002_Node000002"><a xlink:title=" ">
<path fill="none" stroke="#63b8ff" d="M155.38,-77.34C147.9,-85.98 153.73,-95 172.88,-95 183.34,-95 189.83,-92.3 192.34,-88.44"/>
<polygon fill="#63b8ff" stroke="#63b8ff" points="195.83,-88.07 190.64,-78.83 188.93,-89.29 195.83,-88.07"/>
</a>
</g>
</g>
<!-- Node3 -->
<g id="Node000003" class="node">
<title>Node3</title>
<g id="a_Node000003"><a xlink:href="_tags_8cpp.html#af21ab8bf49b3e2e38e00d6cadb1e4871" target="_top" xlink:title=" ">
<polygon fill="white" stroke="#666666" points="313.88,-134 252.12,-134 252.12,-114 313.88,-114 313.88,-134"/>
<text text-anchor="middle" x="283" y="-120.5" font-family="Helvetica,sans-Serif" font-size="10.00">executeInt</text>
</a>
</g>
</g>
<!-- Node2&#45;&gt;Node3 -->
<g id="edge3_Node000002_Node000003" class="edge">
<title>Node2&#45;&gt;Node3</title>
<g id="a_edge3_Node000002_Node000003"><a xlink:title=" ">
<path fill="none" stroke="#63b8ff" d="M193.71,-77.45C210.09,-86.09 233.6,-98.49 252.24,-108.31"/>
<polygon fill="#63b8ff" stroke="#63b8ff" points="250.48,-111.34 260.96,-112.91 253.74,-105.15 250.48,-111.34"/>
</a>
</g>
</g>
<!-- Node5 -->
<g id="Node000005" class="node">
<title>Node5</title>
<g id="a_Node000005"><a xlink:href="_tags_8cpp.html#aad17b0d48f011d5869f82adb31915669" target="_top" xlink:title=" ">
<polygon fill="white" stroke="#666666" points="421,-96 354.75,-96 354.75,-76 421,-76 421,-96"/>
<text text-anchor="middle" x="387.88" y="-82.5" font-family="Helvetica,sans-Serif" font-size="10.00">getLoadTag</text>
</a>
</g>
</g>
<!-- Node2&#45;&gt;Node5 -->
<g id="edge8_Node000002_Node000005" class="edge">
<title>Node2&#45;&gt;Node5</title>
<g id="a_edge8_Node000002_Node000005"><a xlink:title=" ">
<path fill="none" stroke="#63b8ff" d="M211.46,-70.35C248.26,-73.64 304.3,-78.63 343.09,-82.09"/>
<polygon fill="#63b8ff" stroke="#63b8ff" points="342.76,-85.58 353.03,-82.98 343.38,-78.61 342.76,-85.58"/>
</a>
</g>
</g>
<!-- Node6 -->
<g id="Node000006" class="node">
<title>Node6</title>
<g id="a_Node000006"><a xlink:href="_tags_8cpp.html#aa6a6d33b38f91d7bc097749918417cfe" target="_top" xlink:title=" ">
<polygon fill="white" stroke="#666666" points="318.75,-58 247.25,-58 247.25,-38 318.75,-38 318.75,-58"/>
<text text-anchor="middle" x="283" y="-44.5" font-family="Helvetica,sans-Serif" font-size="10.00">getCoordTag</text>
</a>
</g>
</g>
<!-- Node2&#45;&gt;Node6 -->
<g id="edge6_Node000002_Node000006" class="edge">
<title>Node2&#45;&gt;Node6</title>
<g id="a_edge6_Node000002_Node000006"><a xlink:title=" ">
<path fill="none" stroke="#63b8ff" d="M211.69,-60.35C219.47,-58.99 227.75,-57.53 235.79,-56.12"/>
<polygon fill="#63b8ff" stroke="#63b8ff" points="236.19,-59.6 245.43,-54.43 234.98,-52.71 236.19,-59.6"/>
</a>
</g>
</g>
<!-- Node7 -->
<g id="Node000007" class="node">
<title>Node7</title>
<g id="a_Node000007"><a xlink:href="_tags_8cpp.html#ab30d3866e4109a758188a1aeb012ea01" target="_top" xlink:title=" ">
<polygon fill="white" stroke="#666666" points="313.5,-20 252.5,-20 252.5,0 313.5,0 313.5,-20"/>
<text text-anchor="middle" x="283" y="-6.5" font-family="Helvetica,sans-Serif" font-size="10.00">getListTag</text>
</a>
</g>
</g>
<!-- Node2&#45;&gt;Node7 -->
<g id="edge7_Node000002_Node000007" class="edge">
<title>Node2&#45;&gt;Node7</title>
<g id="a_edge7_Node000002_Node000007"><a xlink:title=" ">
<path fill="none" stroke="#63b8ff" d="M193.71,-56.55C210.09,-47.91 233.6,-35.51 252.24,-25.69"/>
<polygon fill="#63b8ff" stroke="#63b8ff" points="253.74,-28.85 260.96,-21.09 250.48,-22.66 253.74,-28.85"/>
</a>
</g>
</g>
<!-- Node4 -->
<g id="Node000004" class="node">
<title>Node4</title>
<g id="a_Node000004"><a xlink:href="_tags_8cpp.html#ad39e58dec05b3a0be440334312e1b0a8" target="_top" xlink:title=" ">
<polygon fill="white" stroke="#666666" points="416.12,-134 359.62,-134 359.62,-114 416.12,-114 416.12,-134"/>
<text text-anchor="middle" x="387.88" y="-120.5" font-family="Helvetica,sans-Serif" font-size="10.00">getIntTag</text>
</a>
</g>
</g>
<!-- Node3&#45;&gt;Node4 -->
<g id="edge4_Node000003_Node000004" class="edge">
<title>Node3&#45;&gt;Node4</title>
<g id="a_edge4_Node000003_Node000004"><a xlink:title=" ">
<path fill="none" stroke="#63b8ff" d="M314.31,-124C324.87,-124 336.86,-124 348.02,-124"/>
<polygon fill="#63b8ff" stroke="#63b8ff" points="347.73,-127.5 357.73,-124 347.73,-120.5 347.73,-127.5"/>
</a>
</g>
</g>
<!-- Node3&#45;&gt;Node5 -->
<g id="edge5_Node000003_Node000005" class="edge">
<title>Node3&#45;&gt;Node5</title>
<g id="a_edge5_Node000003_Node000005"><a xlink:title=" ">
<path fill="none" stroke="#63b8ff" d="M312.38,-113.52C323.4,-109.45 336.2,-104.72 348.05,-100.34"/>
<polygon fill="#63b8ff" stroke="#63b8ff" points="349,-103.72 357.16,-96.97 346.57,-97.16 349,-103.72"/>
</a>
</g>
</g>
</g>
</svg>
