<?xml version="1.0" encoding="UTF-8" standalone="no"?>
<!DOCTYPE svg PUBLIC "-//W3C//DTD SVG 1.1//EN"
 "http://www.w3.org/Graphics/SVG/1.1/DTD/svg11.dtd">
<!-- Generated by graphviz version 12.2.0 (20241103.1931)
 -->
<!-- Title: Interactions::fNumberIntegerA Pages: 1 -->
<svg width="456pt" height="142pt"
 viewBox="0.00 0.00 455.75 142.00" xmlns="http://www.w3.org/2000/svg" xmlns:xlink="http://www.w3.org/1999/xlink">
<g id="graph0" class="graph" transform="scale(1 1) rotate(0) translate(4 138)">
<title>Interactions::fNumberIntegerA</title>
<!-- Node1 -->
<g id="Node000001" class="node">
<title>Node1</title>
<g id="a_Node000001"><a xlink:title=" ">
<polygon fill="#999999" stroke="#666666" points="447.75,-77 300.5,-77 300.5,-57 447.75,-57 447.75,-77"/>
<text text-anchor="middle" x="374.12" y="-63.5" font-family="Helvetica,sans-Serif" font-size="10.00">Interactions::fNumberIntegerA</text>
</a>
</g>
</g>
<!-- Node2 -->
<g id="Node000002" class="node">
<title>Node2</title>
<g id="a_Node000002"><a xlink:href="class_alchemy.html#ae1ada9705b99bbeb5a4c5cfa1003424a" target="_top" xlink:title=" ">
<polygon fill="white" stroke="#666666" points="261.88,-134 142.38,-134 142.38,-114 261.88,-114 261.88,-134"/>
<text text-anchor="middle" x="202.12" y="-120.5" font-family="Helvetica,sans-Serif" font-size="10.00">Alchemy::craftBetterPill</text>
</a>
</g>
</g>
<!-- Node1&#45;&gt;Node2 -->
<g id="edge1_Node000001_Node000002" class="edge">
<title>Node1&#45;&gt;Node2</title>
<g id="a_edge1_Node000001_Node000002"><a xlink:title=" ">
<path fill="none" stroke="#63b8ff" d="M331.39,-80.99C301.41,-91.04 261.66,-104.37 234.4,-113.52"/>
<polygon fill="#63b8ff" stroke="#63b8ff" points="332.14,-84.43 340.51,-77.94 329.92,-77.8 332.14,-84.43"/>
</a>
</g>
</g>
<!-- Node3 -->
<g id="Node000003" class="node">
<title>Node3</title>
<g id="a_Node000003"><a xlink:href="class_alchemy.html#aad0ec6faf7a5f72d0392ee1a7fbe94f9" target="_top" xlink:title=" ">
<polygon fill="white" stroke="#666666" points="103.75,-96 0,-96 0,-76 103.75,-76 103.75,-96"/>
<text text-anchor="middle" x="51.88" y="-82.5" font-family="Helvetica,sans-Serif" font-size="10.00">Alchemy::doActivity</text>
</a>
</g>
</g>
<!-- Node1&#45;&gt;Node3 -->
<g id="edge5_Node000001_Node000003" class="edge">
<title>Node1&#45;&gt;Node3</title>
<g id="a_edge5_Node000001_Node000003"><a xlink:title=" ">
<path fill="none" stroke="#63b8ff" d="M288.58,-72.02C229.97,-75.49 153.84,-80.01 104.19,-82.96"/>
<polygon fill="#63b8ff" stroke="#63b8ff" points="288.77,-75.51 298.54,-71.42 288.35,-68.52 288.77,-75.51"/>
</a>
</g>
</g>
<!-- Node4 -->
<g id="Node000004" class="node">
<title>Node4</title>
<g id="a_Node000004"><a xlink:href="class_alchemy.html#a3f9c7cdb0d2b8df78c40bb3e4374d3c1" target="_top" xlink:title=" ">
<polygon fill="white" stroke="#666666" points="264.5,-58 139.75,-58 139.75,-38 264.5,-38 264.5,-58"/>
<text text-anchor="middle" x="202.12" y="-44.5" font-family="Helvetica,sans-Serif" font-size="10.00">Alchemy::craftNormalPill</text>
</a>
</g>
</g>
<!-- Node1&#45;&gt;Node4 -->
<g id="edge3_Node000001_Node000004" class="edge">
<title>Node1&#45;&gt;Node4</title>
<g id="a_edge3_Node000001_Node000004"><a xlink:title=" ">
<path fill="none" stroke="#63b8ff" d="M288.74,-57.57C280.71,-56.67 272.69,-55.77 264.93,-54.91"/>
<polygon fill="#63b8ff" stroke="#63b8ff" points="288.21,-61.03 298.54,-58.66 288.99,-54.07 288.21,-61.03"/>
</a>
</g>
</g>
<!-- Node5 -->
<g id="Node000005" class="node">
<title>Node5</title>
<g id="a_Node000005"><a xlink:href="class_garden.html#aa57f4ad267096e9c448782c6f8ee82ff" target="_top" xlink:title=" ">
<polygon fill="white" stroke="#666666" points="250.62,-20 153.62,-20 153.62,0 250.62,0 250.62,-20"/>
<text text-anchor="middle" x="202.12" y="-6.5" font-family="Helvetica,sans-Serif" font-size="10.00">Garden::doActivity</text>
</a>
</g>
</g>
<!-- Node1&#45;&gt;Node5 -->
<g id="edge6_Node000001_Node000005" class="edge">
<title>Node1&#45;&gt;Node5</title>
<g id="a_edge6_Node000001_Node000005"><a xlink:title=" ">
<path fill="none" stroke="#63b8ff" d="M333.34,-52.69C312.84,-45.42 287.39,-36.55 264.5,-29 255.81,-26.14 246.39,-23.16 237.6,-20.43"/>
<polygon fill="#63b8ff" stroke="#63b8ff" points="332.16,-55.99 342.75,-56.04 334.5,-49.39 332.16,-55.99"/>
</a>
</g>
</g>
<!-- Node2&#45;&gt;Node3 -->
<g id="edge2_Node000002_Node000003" class="edge">
<title>Node2&#45;&gt;Node3</title>
<g id="a_edge2_Node000002_Node000003"><a xlink:title=" ">
<path fill="none" stroke="#63b8ff" d="M149.18,-110.69C130.98,-106.02 110.8,-100.85 93.64,-96.45"/>
<polygon fill="#63b8ff" stroke="#63b8ff" points="148.2,-114.05 158.76,-113.14 149.94,-107.27 148.2,-114.05"/>
</a>
</g>
</g>
<!-- Node4&#45;&gt;Node3 -->
<g id="edge4_Node000004_Node000003" class="edge">
<title>Node4&#45;&gt;Node3</title>
<g id="a_edge4_Node000004_Node000003"><a xlink:title=" ">
<path fill="none" stroke="#63b8ff" d="M149.18,-61.31C130.98,-65.98 110.8,-71.15 93.64,-75.55"/>
<polygon fill="#63b8ff" stroke="#63b8ff" points="149.94,-64.73 158.76,-58.86 148.2,-57.95 149.94,-64.73"/>
</a>
</g>
</g>
</g>
</svg>
