<?xml version="1.0" encoding="UTF-8" standalone="no"?>
<!DOCTYPE svg PUBLIC "-//W3C//DTD SVG 1.1//EN"
 "http://www.w3.org/Graphics/SVG/1.1/DTD/svg11.dtd">
<!-- Generated by graphviz version 12.2.0 (20241103.1931)
 -->
<!-- Title: StoreTag&lt; T &gt; Pages: 1 -->
<!--zoomable 532 -->

<svg id="main" version="1.1" xmlns="http://www.w3.org/2000/svg" xmlns:xlink="http://www.w3.org/1999/xlink" xml:space="preserve" onload="init(evt)">

<style type="text/css"><![CDATA[
.node, .edge {opacity: 0.7;}
.node.selected, .edge.selected {opacity: 1;}
.edge:hover path { stroke: red; }
.edge:hover polygon { stroke: red; fill: red; }
]]></style>

<defs>
  <circle id="rim" cx="0" cy="0" r="7"/>
  <circle id="rim2" cx="0" cy="0" r="3.5"/>
  <g id="zoomPlus">
    <use xlink:href="#rim" fill="#404040"><set attributeName="fill" to="#808080" begin="zoomplus.mouseover" end="zoomplus.mouseout"/></use>
    <path d="M-4,0h8M0,-4v8" fill="none" stroke="white" stroke-width="1.5" pointer-events="none"/>
  </g>
  <g id="zoomMin">
    <use xlink:href="#rim" fill="#404040"><set attributeName="fill" to="#808080" begin="zoomminus.mouseover" end="zoomminus.mouseout"/></use>
    <path d="M-4,0h8" fill="none" stroke="white" stroke-width="1.5" pointer-events="none"/>
  </g>
  <g id="arrowUp" transform="translate(30 24)">
    <use xlink:href="#rim"/>
    <path pointer-events="none" fill="none" stroke="white" stroke-width="1.5" d="M0,-3.0v7 M-2.5,-0.5L0,-3.0L2.5,-0.5"/>
  </g>
  <g id="arrowRight" transform="rotate(90) translate(36 -43)">
    <use xlink:href="#rim"/>
    <path pointer-events="none" fill="none" stroke="white" stroke-width="1.5" d="M0,-3.0v7 M-2.5,-0.5L0,-3.0L2.5,-0.5"/>
  </g>
  <g id="arrowDown" transform="rotate(180) translate(-30 -48)">
    <use xlink:href="#rim"/>
    <path pointer-events="none" fill="none" stroke="white" stroke-width="1.5" d="M0,-3.0v7 M-2.5,-0.5L0,-3.0L2.5,-0.5"/>
  </g>
  <g id="arrowLeft" transform="rotate(270) translate(-36 17)">
    <use xlink:href="#rim"/>
    <path pointer-events="none" fill="none" stroke="white" stroke-width="1.5" d="M0,-3.0v7 M-2.5,-0.5L0,-3.0L2.5,-0.5"/>
  </g>
  <g id="resetDef">
    <use xlink:href="#rim2" fill="#404040"><set attributeName="fill" to="#808080" begin="reset.mouseover" end="reset.mouseout"/></use>
  </g>
</defs>
<script type="application/ecmascript">
var viewWidth = 264;
var viewHeight = 532;
var sectionId = 'dynsection-1';
</script>
<script type="application/ecmascript" xlink:href="svg.min.js"/>
<svg id="graph" class="graph">
<g id="viewport">
<title>StoreTag&lt; T &gt;</title>
<!-- Node1 -->
<g id="Node000001" class="node">
<title>Node1</title>
<g id="a_Node000001"><a xlink:title=" ">
<polygon fill="#999999" stroke="none" points="203,-316 56,-316 56,0 203,0 203,-316"/>
<text text-anchor="start" x="98.38" y="-302.5" font-family="Helvetica,sans-Serif" font-size="10.00">StoreTag&lt; T &gt;</text>
<text text-anchor="start" x="60" y="-286.5" font-family="Helvetica,sans-Serif" font-size="10.00">+</text>
<text text-anchor="start" x="70" y="-286.5" font-family="Helvetica,sans-Serif" font-size="10.00">std::string varName</text>
<text text-anchor="start" x="60" y="-270.5" font-family="Helvetica,sans-Serif" font-size="10.00">+</text>
<text text-anchor="start" x="70" y="-270.5" font-family="Helvetica,sans-Serif" font-size="10.00">std::shared_ptr&lt; Tag</text>
<text text-anchor="start" x="70" y="-258.5" font-family="Helvetica,sans-Serif" font-size="10.00"> &gt; valueTag</text>
<text text-anchor="start" x="60" y="-242.5" font-family="Helvetica,sans-Serif" font-size="10.00">+</text>
<text text-anchor="start" x="70" y="-242.5" font-family="Helvetica,sans-Serif" font-size="10.00">StoreTag()</text>
<text text-anchor="start" x="60" y="-226.5" font-family="Helvetica,sans-Serif" font-size="10.00">+</text>
<text text-anchor="start" x="70" y="-226.5" font-family="Helvetica,sans-Serif" font-size="10.00">StoreTag(const StoreTag</text>
<text text-anchor="start" x="70" y="-214.5" font-family="Helvetica,sans-Serif" font-size="10.00"> &amp;toCopy)</text>
<text text-anchor="start" x="60" y="-198.5" font-family="Helvetica,sans-Serif" font-size="10.00">+</text>
<text text-anchor="start" x="70" y="-198.5" font-family="Helvetica,sans-Serif" font-size="10.00">StoreTag(const std</text>
<text text-anchor="start" x="70" y="-186.5" font-family="Helvetica,sans-Serif" font-size="10.00">::string &amp;name, const</text>
<text text-anchor="start" x="70" y="-174.5" font-family="Helvetica,sans-Serif" font-size="10.00"> std::shared_ptr&lt; Tag</text>
<text text-anchor="start" x="70" y="-162.5" font-family="Helvetica,sans-Serif" font-size="10.00"> &gt; &amp;value, UserVariables *uv)</text>
<text text-anchor="start" x="60" y="-146.5" font-family="Helvetica,sans-Serif" font-size="10.00">+</text>
<text text-anchor="start" x="70" y="-146.5" font-family="Helvetica,sans-Serif" font-size="10.00">std::shared_ptr&lt; StoreTag</text>
<text text-anchor="start" x="70" y="-134.5" font-family="Helvetica,sans-Serif" font-size="10.00"> &gt; clone()</text>
<text text-anchor="start" x="60" y="-118.5" font-family="Helvetica,sans-Serif" font-size="10.00">+</text>
<text text-anchor="start" x="70" y="-118.5" font-family="Helvetica,sans-Serif" font-size="10.00">void execute() override</text>
<text text-anchor="start" x="60" y="-102.5" font-family="Helvetica,sans-Serif" font-size="10.00">+</text>
<text text-anchor="start" x="70" y="-102.5" font-family="Helvetica,sans-Serif" font-size="10.00">void execute()</text>
<text text-anchor="start" x="60" y="-86.5" font-family="Helvetica,sans-Serif" font-size="10.00">+</text>
<text text-anchor="start" x="70" y="-86.5" font-family="Helvetica,sans-Serif" font-size="10.00">void execute()</text>
<text text-anchor="start" x="60" y="-70.5" font-family="Helvetica,sans-Serif" font-size="10.00">+</text>
<text text-anchor="start" x="70" y="-70.5" font-family="Helvetica,sans-Serif" font-size="10.00">void execute()</text>
<text text-anchor="start" x="60" y="-54.5" font-family="Helvetica,sans-Serif" font-size="10.00">+</text>
<text text-anchor="start" x="70" y="-54.5" font-family="Helvetica,sans-Serif" font-size="10.00">void execute()</text>
<text text-anchor="start" x="60" y="-38.5" font-family="Helvetica,sans-Serif" font-size="10.00">+</text>
<text text-anchor="start" x="70" y="-38.5" font-family="Helvetica,sans-Serif" font-size="10.00">void execute()</text>
<text text-anchor="start" x="60" y="-22.5" font-family="Helvetica,sans-Serif" font-size="10.00">+</text>
<text text-anchor="start" x="70" y="-22.5" font-family="Helvetica,sans-Serif" font-size="10.00">void execute()</text>
<text text-anchor="start" x="60" y="-6.5" font-family="Helvetica,sans-Serif" font-size="10.00">+</text>
<text text-anchor="start" x="70" y="-6.5" font-family="Helvetica,sans-Serif" font-size="10.00">void execute()</text>
<polygon fill="#666666" stroke="#666666" points="56,-298 56,-298 203,-298 203,-298 56,-298"/>
<polygon fill="#666666" stroke="#666666" points="56,-254 56,-254 68,-254 68,-254 56,-254"/>
<polygon fill="#666666" stroke="#666666" points="68,-254 68,-254 203,-254 203,-254 68,-254"/>
<polygon fill="none" stroke="#666666" points="56,0 56,-316 203,-316 203,0 56,0"/>
</a>
</g>
</g>
<!-- Node2 -->
<g id="Node000002" class="node">
<title>Node2</title>
<g id="a_Node000002"><a xlink:href="class_tag.html" target="_top" xlink:title=" ">
<polygon fill="white" stroke="none" points="123,-524 0,-524 0,-364 123,-364 123,-524"/>
<text text-anchor="start" x="53.62" y="-510.5" font-family="Helvetica,sans-Serif" font-size="10.00">Tag</text>
<text text-anchor="start" x="4" y="-494.5" font-family="Helvetica,sans-Serif" font-size="10.00">+</text>
<text text-anchor="start" x="14" y="-494.5" font-family="Helvetica,sans-Serif" font-size="10.00">std::string tagText</text>
<text text-anchor="start" x="4" y="-478.5" font-family="Helvetica,sans-Serif" font-size="10.00">+</text>
<text text-anchor="start" x="14" y="-478.5" font-family="Helvetica,sans-Serif" font-size="10.00">int nbParents</text>
<text text-anchor="start" x="4" y="-462.5" font-family="Helvetica,sans-Serif" font-size="10.00">+</text>
<text text-anchor="start" x="14" y="-462.5" font-family="Helvetica,sans-Serif" font-size="10.00">bool doExecute</text>
<text text-anchor="start" x="4" y="-446.5" font-family="Helvetica,sans-Serif" font-size="10.00">+</text>
<text text-anchor="start" x="14" y="-446.5" font-family="Helvetica,sans-Serif" font-size="10.00">TagType myType</text>
<text text-anchor="start" x="4" y="-430.5" font-family="Helvetica,sans-Serif" font-size="10.00">+</text>
<text text-anchor="start" x="14" y="-430.5" font-family="Helvetica,sans-Serif" font-size="10.00">Tag()</text>
<text text-anchor="start" x="4" y="-414.5" font-family="Helvetica,sans-Serif" font-size="10.00">+</text>
<text text-anchor="start" x="14" y="-414.5" font-family="Helvetica,sans-Serif" font-size="10.00">Tag(const Tag &amp;toCopy)</text>
<text text-anchor="start" x="4" y="-398.5" font-family="Helvetica,sans-Serif" font-size="10.00">+</text>
<text text-anchor="start" x="14" y="-398.5" font-family="Helvetica,sans-Serif" font-size="10.00">std::shared_ptr&lt; Tag</text>
<text text-anchor="start" x="14" y="-386.5" font-family="Helvetica,sans-Serif" font-size="10.00"> &gt; clone()</text>
<text text-anchor="start" x="4" y="-370.5" font-family="Helvetica,sans-Serif" font-size="10.00">+</text>
<text text-anchor="start" x="14" y="-370.5" font-family="Helvetica,sans-Serif" font-size="10.00">virtual void execute()</text>
<polygon fill="#666666" stroke="#666666" points="0,-506 0,-506 123,-506 123,-506 0,-506"/>
<polygon fill="#666666" stroke="#666666" points="0,-442 0,-442 12,-442 12,-442 0,-442"/>
<polygon fill="#666666" stroke="#666666" points="12,-442 12,-442 123,-442 123,-442 12,-442"/>
<polygon fill="none" stroke="#666666" points="0,-364 0,-524 123,-524 123,-364 0,-364"/>
</a>
</g>
</g>
<!-- Node2&#45;&gt;Node1 -->
<g id="edge1_Node000001_Node000002" class="edge">
<title>Node2&#45;&gt;Node1</title>
<g id="a_edge1_Node000001_Node000002"><a xlink:title=" ">
<path fill="none" stroke="#63b8ff" d="M82.97,-353.34C85.86,-341.25 88.9,-328.58 91.97,-315.74"/>
<polygon fill="none" stroke="#63b8ff" points="79.63,-352.26 80.7,-362.8 86.44,-353.89 79.63,-352.26"/>
</a>
</g>
</g>
<!-- Node3 -->
<g id="Node000003" class="node">
<title>Node3</title>
<g id="a_Node000003"><a xlink:href="struct_user_variables.html" target="_top" xlink:title=" ">
<polygon fill="white" stroke="none" points="256.25,-496 140.75,-496 140.75,-392 256.25,-392 256.25,-496"/>
<text text-anchor="start" x="168.12" y="-482.5" font-family="Helvetica,sans-Serif" font-size="10.00">UserVariables</text>
<text text-anchor="start" x="144.75" y="-466.5" font-family="Helvetica,sans-Serif" font-size="10.00">+</text>
<text text-anchor="start" x="154.75" y="-466.5" font-family="Helvetica,sans-Serif" font-size="10.00">std::map&lt; std::string,</text>
<text text-anchor="start" x="154.75" y="-454.5" font-family="Helvetica,sans-Serif" font-size="10.00"> void * &gt; variables</text>
<text text-anchor="start" x="144.75" y="-438.5" font-family="Helvetica,sans-Serif" font-size="10.00">+</text>
<text text-anchor="start" x="154.75" y="-438.5" font-family="Helvetica,sans-Serif" font-size="10.00">void addVariable(std</text>
<text text-anchor="start" x="154.75" y="-426.5" font-family="Helvetica,sans-Serif" font-size="10.00">::string name, T value)</text>
<text text-anchor="start" x="144.75" y="-410.5" font-family="Helvetica,sans-Serif" font-size="10.00">+</text>
<text text-anchor="start" x="154.75" y="-410.5" font-family="Helvetica,sans-Serif" font-size="10.00">T getValue(std::string</text>
<text text-anchor="start" x="154.75" y="-398.5" font-family="Helvetica,sans-Serif" font-size="10.00"> name)</text>
<polygon fill="#666666" stroke="#666666" points="140.75,-478 140.75,-478 256.25,-478 256.25,-478 140.75,-478"/>
<polygon fill="#666666" stroke="#666666" points="140.75,-450 140.75,-450 152.75,-450 152.75,-450 140.75,-450"/>
<polygon fill="#666666" stroke="#666666" points="152.75,-450 152.75,-450 256.25,-450 256.25,-450 152.75,-450"/>
<polygon fill="none" stroke="#666666" points="140.75,-392 140.75,-496 256.25,-496 256.25,-392 140.75,-392"/>
</a>
</g>
</g>
<!-- Node3&#45;&gt;Node1 -->
<g id="edge2_Node000001_Node000003" class="edge">
<title>Node3&#45;&gt;Node1</title>
<g id="a_edge2_Node000001_Node000003"><a xlink:title=" ">
<path fill="none" stroke="#63b8ff" d="M186.16,-392.23C181.66,-373.7 176.29,-351.58 170.67,-328.45"/>
<polygon fill="none" stroke="#63b8ff" points="170.66,-328.43 165.36,-323.54 167.83,-316.77 173.13,-321.65 170.66,-328.43"/>
</a>
</g>
<text text-anchor="middle" x="205.34" y="-336.5" font-family="Helvetica,sans-Serif" font-size="10.00" fill="grey"> +myVariables</text>
</g>
</g>
</svg>

<g id="navigator" transform="translate(0 0)" fill="#404254">
  <rect fill="#f2f5e9" fill-opacity="0.5" stroke="#606060" stroke-width=".5" x="0" y="0" width="60" height="60"/>
  <use id="zoomplus" xlink:href="#zoomPlus" x="17" y="9" onmousedown="handleZoom(evt,'in')"/>
  <use id="zoomminus" xlink:href="#zoomMin" x="42" y="9" onmousedown="handleZoom(evt,'out')"/>
  <use id="reset" xlink:href="#resetDef" x="30" y="36" onmousedown="handleReset()"/>
   <use id="arrowup" xlink:href="#arrowUp" x="0" y="0" onmousedown="handlePan(0,-1)"/>
  <use id="arrowright" xlink:href="#arrowRight" x="0" y="0" onmousedown="handlePan(1,0)"/>
  <use id="arrowdown" xlink:href="#arrowDown" x="0" y="0" onmousedown="handlePan(0,1)"/>
  <use id="arrowleft" xlink:href="#arrowLeft" x="0" y="0" onmousedown="handlePan(-1,0)"/>
</g>
<svg viewBox="0 0 15 15" width="100%" height="30px" preserveAspectRatio="xMaxYMin meet">
 <g id="arrow_out" transform="scale(0.3 0.3)">
  <a xlink:href="class_store_tag__coll__graph_org.svg" target="_base">
   <rect id="button" ry="5" rx="5" y="6" x="6" height="38" width="38"
        fill="#f2f5e9" fill-opacity="0.5" stroke="#606060" stroke-width="1.0"/>
   <path id="arrow"
     d="M 11.500037,31.436501 C 11.940474,20.09759 22.043105,11.32322 32.158766,21.979434 L 37.068811,17.246167 C 37.068811,17.246167 37.088388,32 37.088388,32 L 22.160133,31.978069 C 22.160133,31.978069 26.997745,27.140456 26.997745,27.140456 C 18.528582,18.264221 13.291696,25.230495 11.500037,31.436501 z"
     style="fill:#404040;"/>
  </a>
 </g>
</svg>

<style type='text/css'>
<![CDATA[
[data-mouse-over-selected='false'] { opacity: 0.7; }
[data-mouse-over-selected='true']  { opacity: 1.0; }
]]>
</style>
<script type="application/ecmascript"><![CDATA[
document.addEventListener('DOMContentLoaded', (event) => {
  highlightEdges();
  highlightAdjacentNodes();
});
]]></script>
</svg>
