<?xml version="1.0" encoding="UTF-8" standalone="no"?>
<!DOCTYPE svg PUBLIC "-//W3C//DTD SVG 1.1//EN"
 "http://www.w3.org/Graphics/SVG/1.1/DTD/svg11.dtd">
<!-- Generated by graphviz version 12.2.0 (20241103.1931)
 -->
<!-- Title: LDPlayer::startPlayingInstance Pages: 1 -->
<svg width="702pt" height="97pt"
 viewBox="0.00 0.00 702.25 97.00" xmlns="http://www.w3.org/2000/svg" xmlns:xlink="http://www.w3.org/1999/xlink">
<g id="graph0" class="graph" transform="scale(1 1) rotate(0) translate(4 93)">
<title>LDPlayer::startPlayingInstance</title>
<!-- Node1 -->
<g id="Node000001" class="node">
<title>Node1</title>
<g id="a_Node000001"><a xlink:title=" ">
<polygon fill="#999999" stroke="#666666" points="151.75,-61 0,-61 0,-41 151.75,-41 151.75,-61"/>
<text text-anchor="middle" x="75.88" y="-47.5" font-family="Helvetica,sans-Serif" font-size="10.00">LDPlayer::startPlayingInstance</text>
</a>
</g>
</g>
<!-- Node2 -->
<g id="Node000002" class="node">
<title>Node2</title>
<g id="a_Node000002"><a xlink:href="class_l_d_player.html#a6a75a0ed7816421e0154ce60c91697b1" target="_top" xlink:title=" ">
<polygon fill="white" stroke="#666666" points="319.25,-89 187.75,-89 187.75,-57 319.25,-57 319.25,-89"/>
<text text-anchor="start" x="195.75" y="-75.5" font-family="Helvetica,sans-Serif" font-size="10.00">LDPlayer::selectedPlaying</text>
<text text-anchor="middle" x="253.5" y="-63.5" font-family="Helvetica,sans-Serif" font-size="10.00">Instance</text>
</a>
</g>
</g>
<!-- Node1&#45;&gt;Node2 -->
<g id="edge1_Node000001_Node000002" class="edge">
<title>Node1&#45;&gt;Node2</title>
<g id="a_edge1_Node000001_Node000002"><a xlink:title=" ">
<path fill="none" stroke="#63b8ff" d="M152.12,-60.43C160.09,-61.42 168.21,-62.44 176.19,-63.44"/>
<polygon fill="#63b8ff" stroke="#63b8ff" points="175.51,-66.88 185.87,-64.65 176.38,-59.94 175.51,-66.88"/>
</a>
</g>
</g>
<!-- Node3 -->
<g id="Node000003" class="node">
<title>Node3</title>
<g id="a_Node000003"><a xlink:href="class_l_d_player.html#aed135e9f726d03ab77cc86533892576e" target="_top" xlink:title=" ">
<polygon fill="white" stroke="#666666" points="313.25,-39 193.75,-39 193.75,-19 313.25,-19 313.25,-39"/>
<text text-anchor="middle" x="253.5" y="-25.5" font-family="Helvetica,sans-Serif" font-size="10.00">LDPlayer::startInstance</text>
</a>
</g>
</g>
<!-- Node1&#45;&gt;Node3 -->
<g id="edge2_Node000001_Node000003" class="edge">
<title>Node1&#45;&gt;Node3</title>
<g id="a_edge2_Node000001_Node000003"><a xlink:title=" ">
<path fill="none" stroke="#63b8ff" d="M152.12,-41.57C162.02,-40.33 172.15,-39.07 181.97,-37.84"/>
<polygon fill="#63b8ff" stroke="#63b8ff" points="182.34,-41.32 191.82,-36.6 181.47,-34.37 182.34,-41.32"/>
</a>
</g>
</g>
<!-- Node4 -->
<g id="Node000004" class="node">
<title>Node4</title>
<g id="a_Node000004"><a xlink:href="sys_commands_8cpp.html#a40529d2008c5ec34a2251615ad504e28" target="_top" xlink:title=" ">
<polygon fill="white" stroke="#666666" points="472.5,-58 379.25,-58 379.25,-38 472.5,-38 472.5,-58"/>
<text text-anchor="middle" x="425.88" y="-44.5" font-family="Helvetica,sans-Serif" font-size="10.00">moveAndExecute</text>
</a>
</g>
</g>
<!-- Node3&#45;&gt;Node4 -->
<g id="edge3_Node000003_Node000004" class="edge">
<title>Node3&#45;&gt;Node4</title>
<g id="a_edge3_Node000003_Node000004"><a xlink:title=" ">
<path fill="none" stroke="#63b8ff" d="M313.61,-35.59C331.11,-37.54 350.24,-39.68 367.62,-41.62"/>
<polygon fill="#63b8ff" stroke="#63b8ff" points="366.93,-45.06 377.26,-42.69 367.71,-38.1 366.93,-45.06"/>
</a>
</g>
</g>
<!-- Node8 -->
<g id="Node000008" class="node">
<title>Node8</title>
<g id="a_Node000008"><a xlink:href="class_l_d_player.html#aa85461ad56f19bcf3620c16d6781f640" target="_top" xlink:title=" ">
<polygon fill="white" stroke="#666666" points="496.5,-20 355.25,-20 355.25,0 496.5,0 496.5,-20"/>
<text text-anchor="middle" x="425.88" y="-6.5" font-family="Helvetica,sans-Serif" font-size="10.00">LDPlayer::transformInstance</text>
</a>
</g>
</g>
<!-- Node3&#45;&gt;Node8 -->
<g id="edge7_Node000003_Node000008" class="edge">
<title>Node3&#45;&gt;Node8</title>
<g id="a_edge7_Node000003_Node000008"><a xlink:title=" ">
<path fill="none" stroke="#63b8ff" d="M313.61,-22.41C323.32,-21.33 333.52,-20.19 343.65,-19.06"/>
<polygon fill="#63b8ff" stroke="#63b8ff" points="343.98,-22.54 353.53,-17.96 343.2,-15.59 343.98,-22.54"/>
</a>
</g>
</g>
<!-- Node5 -->
<g id="Node000005" class="node">
<title>Node5</title>
<g id="a_Node000005"><a xlink:href="sys_commands_8cpp.html#a321eb7e335377aa7182bafc8a1605032" target="_top" xlink:title=" ">
<polygon fill="white" stroke="#666666" points="599.5,-58 532.5,-58 532.5,-38 599.5,-38 599.5,-58"/>
<text text-anchor="middle" x="566" y="-44.5" font-family="Helvetica,sans-Serif" font-size="10.00">receivePipe</text>
</a>
</g>
</g>
<!-- Node4&#45;&gt;Node5 -->
<g id="edge4_Node000004_Node000005" class="edge">
<title>Node4&#45;&gt;Node5</title>
<g id="a_edge4_Node000004_Node000005"><a xlink:title=" ">
<path fill="none" stroke="#63b8ff" d="M472.87,-48C488.38,-48 505.64,-48 520.99,-48"/>
<polygon fill="#63b8ff" stroke="#63b8ff" points="520.79,-51.5 530.79,-48 520.79,-44.5 520.79,-51.5"/>
</a>
</g>
</g>
<!-- Node6 -->
<g id="Node000006" class="node">
<title>Node6</title>
<g id="a_Node000006"><a xlink:href="sys_commands_8cpp.html#a4771c79171a937893508dabadadbe099" target="_top" xlink:title=" ">
<polygon fill="white" stroke="#666666" points="694.25,-77 635.5,-77 635.5,-57 694.25,-57 694.25,-77"/>
<text text-anchor="middle" x="664.88" y="-63.5" font-family="Helvetica,sans-Serif" font-size="10.00">closePipe</text>
</a>
</g>
</g>
<!-- Node5&#45;&gt;Node6 -->
<g id="edge5_Node000005_Node000006" class="edge">
<title>Node5&#45;&gt;Node6</title>
<g id="a_edge5_Node000005_Node000006"><a xlink:title=" ">
<path fill="none" stroke="#63b8ff" d="M599.8,-54.43C607.56,-55.95 615.92,-57.59 623.96,-59.17"/>
<polygon fill="#63b8ff" stroke="#63b8ff" points="623.03,-62.56 633.52,-61.05 624.38,-55.69 623.03,-62.56"/>
</a>
</g>
</g>
<!-- Node7 -->
<g id="Node000007" class="node">
<title>Node7</title>
<g id="a_Node000007"><a xlink:href="sys_commands_8cpp.html#a3499ce0cd7e4ed28b3c5461a4d3aec84" target="_top" xlink:title=" ">
<polygon fill="white" stroke="#666666" points="693.12,-39 636.62,-39 636.62,-19 693.12,-19 693.12,-39"/>
<text text-anchor="middle" x="664.88" y="-25.5" font-family="Helvetica,sans-Serif" font-size="10.00">openPipe</text>
</a>
</g>
</g>
<!-- Node5&#45;&gt;Node7 -->
<g id="edge6_Node000005_Node000007" class="edge">
<title>Node5&#45;&gt;Node7</title>
<g id="a_edge6_Node000005_Node000007"><a xlink:title=" ">
<path fill="none" stroke="#63b8ff" d="M599.8,-41.57C607.95,-39.97 616.76,-38.24 625.17,-36.59"/>
<polygon fill="#63b8ff" stroke="#63b8ff" points="625.65,-40.06 634.79,-34.7 624.3,-33.19 625.65,-40.06"/>
</a>
</g>
</g>
</g>
</svg>
