<?xml version="1.0" encoding="UTF-8" standalone="no"?>
<!DOCTYPE svg PUBLIC "-//W3C//DTD SVG 1.1//EN"
 "http://www.w3.org/Graphics/SVG/1.1/DTD/svg11.dtd">
<!-- Generated by graphviz version 12.2.0 (20241103.1931)
 -->
<!-- Title: BotConfig::updateDataAll Pages: 1 -->
<svg width="712pt" height="66pt"
 viewBox="0.00 0.00 712.00 66.00" xmlns="http://www.w3.org/2000/svg" xmlns:xlink="http://www.w3.org/1999/xlink">
<g id="graph0" class="graph" transform="scale(1 1) rotate(0) translate(4 62)">
<title>BotConfig::updateDataAll</title>
<!-- Node1 -->
<g id="Node000001" class="node">
<title>Node1</title>
<g id="a_Node000001"><a xlink:title=" ">
<polygon fill="#999999" stroke="#666666" points="704,-39 577,-39 577,-19 704,-19 704,-39"/>
<text text-anchor="middle" x="640.5" y="-25.5" font-family="Helvetica,sans-Serif" font-size="10.00">BotConfig::updateDataAll</text>
</a>
</g>
</g>
<!-- Node2 -->
<g id="Node000002" class="node">
<title>Node2</title>
<g id="a_Node000002"><a xlink:href="class_bot_config.html#af8c906f3cd22726a96e758886c756068" target="_top" xlink:title=" ">
<polygon fill="white" stroke="#666666" points="396.75,-58 274.25,-58 274.25,-38 396.75,-38 396.75,-58"/>
<text text-anchor="middle" x="335.5" y="-44.5" font-family="Helvetica,sans-Serif" font-size="10.00">BotConfig::initEmulators</text>
</a>
</g>
</g>
<!-- Node1&#45;&gt;Node2 -->
<g id="edge1_Node000001_Node000002" class="edge">
<title>Node1&#45;&gt;Node2</title>
<g id="a_edge1_Node000001_Node000002"><a xlink:title=" ">
<path fill="none" stroke="#63b8ff" d="M565.29,-33.65C513.62,-36.89 445.55,-41.16 397.13,-44.2"/>
<polygon fill="#63b8ff" stroke="#63b8ff" points="565.45,-37.15 575.21,-33.03 565.01,-30.16 565.45,-37.15"/>
</a>
</g>
</g>
<!-- Node5 -->
<g id="Node000005" class="node">
<title>Node5</title>
<g id="a_Node000005"><a xlink:href="class_bot_config.html#add6ae08a184d93e02b4ad2a03aa95e90" target="_top" xlink:title=" ">
<polygon fill="white" stroke="#666666" points="541,-20 432.75,-20 432.75,0 541,0 541,-20"/>
<text text-anchor="middle" x="486.88" y="-6.5" font-family="Helvetica,sans-Serif" font-size="10.00">BotConfig::updateInit</text>
</a>
</g>
</g>
<!-- Node1&#45;&gt;Node5 -->
<g id="edge4_Node000001_Node000005" class="edge">
<title>Node1&#45;&gt;Node5</title>
<g id="a_edge4_Node000001_Node000005"><a xlink:title=" ">
<path fill="none" stroke="#63b8ff" d="M565.16,-19.69C557.1,-18.67 549.01,-17.66 541.27,-16.69"/>
<polygon fill="#63b8ff" stroke="#63b8ff" points="564.66,-23.15 575.01,-20.92 565.53,-16.2 564.66,-23.15"/>
</a>
</g>
</g>
<!-- Node3 -->
<g id="Node000003" class="node">
<title>Node3</title>
<g id="a_Node000003"><a xlink:href="class_bot_config.html#a8925ef3403b945f27b9ee2719ef257b9" target="_top" xlink:title=" ">
<polygon fill="white" stroke="#666666" points="238.25,-39 116.5,-39 116.5,-19 238.25,-19 238.25,-39"/>
<text text-anchor="middle" x="177.38" y="-25.5" font-family="Helvetica,sans-Serif" font-size="10.00">BotConfig::initBotConfig</text>
</a>
</g>
</g>
<!-- Node2&#45;&gt;Node3 -->
<g id="edge2_Node000002_Node000003" class="edge">
<title>Node2&#45;&gt;Node3</title>
<g id="a_edge2_Node000002_Node000003"><a xlink:title=" ">
<path fill="none" stroke="#63b8ff" d="M262.79,-39.27C254.69,-38.29 246.5,-37.29 238.58,-36.33"/>
<polygon fill="#63b8ff" stroke="#63b8ff" points="262.29,-42.74 272.64,-40.47 263.13,-35.79 262.29,-42.74"/>
</a>
</g>
</g>
<!-- Node4 -->
<g id="Node000004" class="node">
<title>Node4</title>
<g id="a_Node000004"><a xlink:href="classgame.html#aea6b13468585f1be55d1736100158706" target="_top" xlink:title=" ">
<polygon fill="white" stroke="#666666" points="80.5,-39 0,-39 0,-19 80.5,-19 80.5,-39"/>
<text text-anchor="middle" x="40.25" y="-25.5" font-family="Helvetica,sans-Serif" font-size="10.00">game::startBot</text>
</a>
</g>
</g>
<!-- Node3&#45;&gt;Node4 -->
<g id="edge3_Node000003_Node000004" class="edge">
<title>Node3&#45;&gt;Node4</title>
<g id="a_edge3_Node000003_Node000004"><a xlink:title=" ">
<path fill="none" stroke="#63b8ff" d="M105.04,-29C96.77,-29 88.57,-29 80.95,-29"/>
<polygon fill="#63b8ff" stroke="#63b8ff" points="104.81,-32.5 114.81,-29 104.81,-25.5 104.81,-32.5"/>
</a>
</g>
</g>
<!-- Node6 -->
<g id="Node000006" class="node">
<title>Node6</title>
<g id="a_Node000006"><a xlink:href="class_bot_config.html#a939c57f64624e4160f921b093ca827d0" target="_top" xlink:title=" ">
<polygon fill="white" stroke="#666666" points="390,-20 281,-20 281,0 390,0 390,-20"/>
<text text-anchor="middle" x="335.5" y="-6.5" font-family="Helvetica,sans-Serif" font-size="10.00">BotConfig::initBotFile</text>
</a>
</g>
</g>
<!-- Node5&#45;&gt;Node6 -->
<g id="edge5_Node000005_Node000006" class="edge">
<title>Node5&#45;&gt;Node6</title>
<g id="a_edge5_Node000005_Node000006"><a xlink:title=" ">
<path fill="none" stroke="#63b8ff" d="M420.99,-10C410.77,-10 400.31,-10 390.39,-10"/>
<polygon fill="#63b8ff" stroke="#63b8ff" points="420.86,-13.5 430.86,-10 420.86,-6.5 420.86,-13.5"/>
</a>
</g>
</g>
<!-- Node6&#45;&gt;Node3 -->
<g id="edge6_Node000006_Node000003" class="edge">
<title>Node6&#45;&gt;Node3</title>
<g id="a_edge6_Node000006_Node000003"><a xlink:title=" ">
<path fill="none" stroke="#63b8ff" d="M269.42,-17.92C259.22,-19.16 248.72,-20.44 238.63,-21.67"/>
<polygon fill="#63b8ff" stroke="#63b8ff" points="269.76,-21.4 279.27,-16.72 268.92,-14.46 269.76,-21.4"/>
</a>
</g>
</g>
</g>
</svg>
