<?xml version="1.0" encoding="UTF-8" standalone="no"?>
<!DOCTYPE svg PUBLIC "-//W3C//DTD SVG 1.1//EN"
 "http://www.w3.org/Graphics/SVG/1.1/DTD/svg11.dtd">
<!-- Generated by graphviz version 12.2.0 (20241103.1931)
 -->
<!-- Title: BMPKToken Pages: 1 -->
<!--zoomable 1779 -->

<svg id="main" version="1.1" xmlns="http://www.w3.org/2000/svg" xmlns:xlink="http://www.w3.org/1999/xlink" xml:space="preserve" onload="init(evt)">

<style type="text/css"><![CDATA[
.node, .edge {opacity: 0.7;}
.node.selected, .edge.selected {opacity: 1;}
.edge:hover path { stroke: red; }
.edge:hover polygon { stroke: red; fill: red; }
]]></style>

<defs>
  <circle id="rim" cx="0" cy="0" r="7"/>
  <circle id="rim2" cx="0" cy="0" r="3.5"/>
  <g id="zoomPlus">
    <use xlink:href="#rim" fill="#404040"><set attributeName="fill" to="#808080" begin="zoomplus.mouseover" end="zoomplus.mouseout"/></use>
    <path d="M-4,0h8M0,-4v8" fill="none" stroke="white" stroke-width="1.5" pointer-events="none"/>
  </g>
  <g id="zoomMin">
    <use xlink:href="#rim" fill="#404040"><set attributeName="fill" to="#808080" begin="zoomminus.mouseover" end="zoomminus.mouseout"/></use>
    <path d="M-4,0h8" fill="none" stroke="white" stroke-width="1.5" pointer-events="none"/>
  </g>
  <g id="arrowUp" transform="translate(30 24)">
    <use xlink:href="#rim"/>
    <path pointer-events="none" fill="none" stroke="white" stroke-width="1.5" d="M0,-3.0v7 M-2.5,-0.5L0,-3.0L2.5,-0.5"/>
  </g>
  <g id="arrowRight" transform="rotate(90) translate(36 -43)">
    <use xlink:href="#rim"/>
    <path pointer-events="none" fill="none" stroke="white" stroke-width="1.5" d="M0,-3.0v7 M-2.5,-0.5L0,-3.0L2.5,-0.5"/>
  </g>
  <g id="arrowDown" transform="rotate(180) translate(-30 -48)">
    <use xlink:href="#rim"/>
    <path pointer-events="none" fill="none" stroke="white" stroke-width="1.5" d="M0,-3.0v7 M-2.5,-0.5L0,-3.0L2.5,-0.5"/>
  </g>
  <g id="arrowLeft" transform="rotate(270) translate(-36 17)">
    <use xlink:href="#rim"/>
    <path pointer-events="none" fill="none" stroke="white" stroke-width="1.5" d="M0,-3.0v7 M-2.5,-0.5L0,-3.0L2.5,-0.5"/>
  </g>
  <g id="resetDef">
    <use xlink:href="#rim2" fill="#404040"><set attributeName="fill" to="#808080" begin="reset.mouseover" end="reset.mouseout"/></use>
  </g>
</defs>
<script type="application/ecmascript">
var viewWidth = 303;
var viewHeight = 1779;
var sectionId = 'dynsection-1';
</script>
<script type="application/ecmascript" xlink:href="svg.min.js"/>
<svg id="graph" class="graph">
<g id="viewport">
<title>BMPKToken</title>
<!-- Node1 -->
<g id="Node000001" class="node">
<title>Node1</title>
<g id="a_Node000001"><a xlink:title=" ">
<polygon fill="#999999" stroke="none" points="221.38,-148 74.38,-148 74.38,0 221.38,0 221.38,-148"/>
<text text-anchor="start" x="120.5" y="-134.5" font-family="Helvetica,sans-Serif" font-size="10.00">BMPKToken</text>
<text text-anchor="start" x="146.38" y="-118.5" font-family="Helvetica,sans-Serif" font-size="10.00"> </text>
<text text-anchor="start" x="78.38" y="-102.5" font-family="Helvetica,sans-Serif" font-size="10.00">+</text>
<text text-anchor="start" x="88.38" y="-102.5" font-family="Helvetica,sans-Serif" font-size="10.00">BMPKToken()</text>
<text text-anchor="start" x="78.38" y="-86.5" font-family="Helvetica,sans-Serif" font-size="10.00">+</text>
<text text-anchor="start" x="88.38" y="-86.5" font-family="Helvetica,sans-Serif" font-size="10.00">void setOverloads()</text>
<text text-anchor="start" x="88.38" y="-74.5" font-family="Helvetica,sans-Serif" font-size="10.00"> final</text>
<text text-anchor="start" x="78.38" y="-58.5" font-family="Helvetica,sans-Serif" font-size="10.00">+</text>
<text text-anchor="start" x="88.38" y="-58.5" font-family="Helvetica,sans-Serif" font-size="10.00">DataType getDataType</text>
<text text-anchor="start" x="88.38" y="-46.5" font-family="Helvetica,sans-Serif" font-size="10.00">(TokenResult &amp;tRes) override</text>
<text text-anchor="start" x="78.38" y="-30.5" font-family="Helvetica,sans-Serif" font-size="10.00">+</text>
<text text-anchor="start" x="88.38" y="-30.5" font-family="Helvetica,sans-Serif" font-size="10.00">bool addTokens(IteratorList</text>
<text text-anchor="start" x="88.38" y="-18.5" font-family="Helvetica,sans-Serif" font-size="10.00">&lt; Token &gt; &amp;tl, TokenResult</text>
<text text-anchor="start" x="88.38" y="-6.5" font-family="Helvetica,sans-Serif" font-size="10.00"> &amp;tRes) override</text>
<polygon fill="#666666" stroke="#666666" points="74.38,-130 74.38,-130 221.38,-130 221.38,-130 74.38,-130"/>
<polygon fill="#666666" stroke="#666666" points="74.38,-114 74.38,-114 221.38,-114 221.38,-114 74.38,-114"/>
<polygon fill="none" stroke="#666666" points="74.38,0 74.38,-148 221.38,-148 221.38,0 74.38,0"/>
</a>
</g>
</g>
<!-- Node2 -->
<g id="Node000002" class="node">
<title>Node2</title>
<g id="a_Node000002"><a xlink:href="class_m_p_k_token.html" target="_top" xlink:title=" ">
<polygon fill="white" stroke="none" points="216.12,-317 79.62,-317 79.62,-185 216.12,-185 216.12,-317"/>
<text text-anchor="start" x="123.88" y="-303.5" font-family="Helvetica,sans-Serif" font-size="10.00">MPKToken</text>
<text text-anchor="start" x="146.38" y="-287.5" font-family="Helvetica,sans-Serif" font-size="10.00"> </text>
<text text-anchor="start" x="83.62" y="-271.5" font-family="Helvetica,sans-Serif" font-size="10.00">+</text>
<text text-anchor="start" x="93.62" y="-271.5" font-family="Helvetica,sans-Serif" font-size="10.00">MPKToken()</text>
<text text-anchor="start" x="83.62" y="-255.5" font-family="Helvetica,sans-Serif" font-size="10.00">+</text>
<text text-anchor="start" x="93.62" y="-255.5" font-family="Helvetica,sans-Serif" font-size="10.00">bool addTokens(IteratorList</text>
<text text-anchor="start" x="93.62" y="-243.5" font-family="Helvetica,sans-Serif" font-size="10.00">&lt; Token &gt; &amp;tl, TokenResult</text>
<text text-anchor="start" x="93.62" y="-231.5" font-family="Helvetica,sans-Serif" font-size="10.00"> &amp;tRes) override</text>
<text text-anchor="start" x="84" y="-215.5" font-family="Helvetica,sans-Serif" font-size="10.00">#</text>
<text text-anchor="start" x="93.62" y="-215.5" font-family="Helvetica,sans-Serif" font-size="10.00">void showArguments</text>
<text text-anchor="start" x="93.62" y="-203.5" font-family="Helvetica,sans-Serif" font-size="10.00">(const int nestedLayer)</text>
<text text-anchor="start" x="93.62" y="-191.5" font-family="Helvetica,sans-Serif" font-size="10.00"> override</text>
<polygon fill="#666666" stroke="#666666" points="79.62,-299 79.62,-299 216.12,-299 216.12,-299 79.62,-299"/>
<polygon fill="#666666" stroke="#666666" points="79.62,-283 79.62,-283 216.12,-283 216.12,-283 79.62,-283"/>
<polygon fill="none" stroke="#666666" points="79.62,-185 79.62,-317 216.12,-317 216.12,-185 79.62,-185"/>
</a>
</g>
</g>
<!-- Node2&#45;&gt;Node1 -->
<g id="edge1_Node000001_Node000002" class="edge">
<title>Node2&#45;&gt;Node1</title>
<g id="a_edge1_Node000001_Node000002"><a xlink:title=" ">
<path fill="none" stroke="#63b8ff" d="M147.88,-174.06C147.88,-165.4 147.88,-156.58 147.88,-147.96"/>
<polygon fill="none" stroke="#63b8ff" points="144.38,-173.82 147.88,-183.82 151.38,-173.82 144.38,-173.82"/>
</a>
</g>
</g>
<!-- Node3 -->
<g id="Node000003" class="node">
<title>Node3</title>
<g id="a_Node000003"><a xlink:href="class_p_k_token.html" target="_top" xlink:title=" ">
<polygon fill="white" stroke="none" points="240.88,-866 54.88,-866 54.88,-354 240.88,-354 240.88,-866"/>
<text text-anchor="start" x="128" y="-852.5" font-family="Helvetica,sans-Serif" font-size="10.00">PKToken</text>
<text text-anchor="start" x="59.25" y="-836.5" font-family="Helvetica,sans-Serif" font-size="10.00">#</text>
<text text-anchor="start" x="68.88" y="-836.5" font-family="Helvetica,sans-Serif" font-size="10.00">std::vector&lt; std::shared</text>
<text text-anchor="start" x="68.88" y="-824.5" font-family="Helvetica,sans-Serif" font-size="10.00">_ptr&lt; Token &gt; &gt; argTokens</text>
<text text-anchor="start" x="58.88" y="-808.5" font-family="Helvetica,sans-Serif" font-size="10.00">+</text>
<text text-anchor="start" x="68.88" y="-808.5" font-family="Helvetica,sans-Serif" font-size="10.00">PKToken()</text>
<text text-anchor="start" x="58.88" y="-792.5" font-family="Helvetica,sans-Serif" font-size="10.00">+</text>
<text text-anchor="start" x="68.88" y="-792.5" font-family="Helvetica,sans-Serif" font-size="10.00">void showTokenTree</text>
<text text-anchor="start" x="68.88" y="-780.5" font-family="Helvetica,sans-Serif" font-size="10.00">(const int nestedLayer)</text>
<text text-anchor="start" x="68.88" y="-768.5" font-family="Helvetica,sans-Serif" font-size="10.00"> override</text>
<text text-anchor="start" x="58.88" y="-752.5" font-family="Helvetica,sans-Serif" font-size="10.00">+</text>
<text text-anchor="start" x="68.88" y="-752.5" font-family="Helvetica,sans-Serif" font-size="10.00">bool addTokens(IteratorList</text>
<text text-anchor="start" x="68.88" y="-740.5" font-family="Helvetica,sans-Serif" font-size="10.00">&lt; Token &gt; &amp;tl, TokenResult</text>
<text text-anchor="start" x="68.88" y="-728.5" font-family="Helvetica,sans-Serif" font-size="10.00"> &amp;tRes) override</text>
<text text-anchor="start" x="59.25" y="-712.5" font-family="Helvetica,sans-Serif" font-size="10.00">#</text>
<text text-anchor="start" x="68.88" y="-712.5" font-family="Helvetica,sans-Serif" font-size="10.00">bool addToken(TokenVALUE</text>
<text text-anchor="start" x="68.88" y="-700.5" font-family="Helvetica,sans-Serif" font-size="10.00"> tVal, IteratorList&lt; Token</text>
<text text-anchor="start" x="68.88" y="-688.5" font-family="Helvetica,sans-Serif" font-size="10.00"> &gt; &amp;tl, TokenResult &amp;tRes)</text>
<text text-anchor="start" x="59.25" y="-672.5" font-family="Helvetica,sans-Serif" font-size="10.00">#</text>
<text text-anchor="start" x="68.88" y="-672.5" font-family="Helvetica,sans-Serif" font-size="10.00">bool addType(DataType</text>
<text text-anchor="start" x="68.88" y="-660.5" font-family="Helvetica,sans-Serif" font-size="10.00"> tVal, IteratorList&lt;</text>
<text text-anchor="start" x="68.88" y="-648.5" font-family="Helvetica,sans-Serif" font-size="10.00"> Token &gt; &amp;tl, TokenResult</text>
<text text-anchor="start" x="68.88" y="-636.5" font-family="Helvetica,sans-Serif" font-size="10.00"> &amp;tRes)</text>
<text text-anchor="start" x="59.25" y="-620.5" font-family="Helvetica,sans-Serif" font-size="10.00">#</text>
<text text-anchor="start" x="68.88" y="-620.5" font-family="Helvetica,sans-Serif" font-size="10.00">bool addType(std::vector</text>
<text text-anchor="start" x="68.88" y="-608.5" font-family="Helvetica,sans-Serif" font-size="10.00">&lt; DataType &gt; listTypes,</text>
<text text-anchor="start" x="68.88" y="-596.5" font-family="Helvetica,sans-Serif" font-size="10.00"> IteratorList&lt; Token &gt; &amp;tl,</text>
<text text-anchor="start" x="68.88" y="-584.5" font-family="Helvetica,sans-Serif" font-size="10.00"> TokenResult &amp;tRes)</text>
<text text-anchor="start" x="59.25" y="-568.5" font-family="Helvetica,sans-Serif" font-size="10.00">#</text>
<text text-anchor="start" x="68.88" y="-568.5" font-family="Helvetica,sans-Serif" font-size="10.00">bool addNumber(IteratorList</text>
<text text-anchor="start" x="68.88" y="-556.5" font-family="Helvetica,sans-Serif" font-size="10.00">&lt; Token &gt; &amp;tl, TokenResult &amp;tRes)</text>
<text text-anchor="start" x="59.25" y="-540.5" font-family="Helvetica,sans-Serif" font-size="10.00">#</text>
<text text-anchor="start" x="68.88" y="-540.5" font-family="Helvetica,sans-Serif" font-size="10.00">bool addDataType(Iterator</text>
<text text-anchor="start" x="68.88" y="-528.5" font-family="Helvetica,sans-Serif" font-size="10.00">List&lt; Token &gt; &amp;tl, TokenResult &amp;tRes)</text>
<text text-anchor="start" x="59.25" y="-512.5" font-family="Helvetica,sans-Serif" font-size="10.00">#</text>
<text text-anchor="start" x="68.88" y="-512.5" font-family="Helvetica,sans-Serif" font-size="10.00">bool addInteger(Iterator</text>
<text text-anchor="start" x="68.88" y="-500.5" font-family="Helvetica,sans-Serif" font-size="10.00">List&lt; Token &gt; &amp;tl, TokenResult</text>
<text text-anchor="start" x="68.88" y="-488.5" font-family="Helvetica,sans-Serif" font-size="10.00"> &amp;tRes)</text>
<text text-anchor="start" x="59.25" y="-472.5" font-family="Helvetica,sans-Serif" font-size="10.00">#</text>
<text text-anchor="start" x="68.88" y="-472.5" font-family="Helvetica,sans-Serif" font-size="10.00">bool addFloat(IteratorList</text>
<text text-anchor="start" x="68.88" y="-460.5" font-family="Helvetica,sans-Serif" font-size="10.00">&lt; Token &gt; &amp;tl, TokenResult &amp;tRes)</text>
<text text-anchor="start" x="59.25" y="-444.5" font-family="Helvetica,sans-Serif" font-size="10.00">#</text>
<text text-anchor="start" x="68.88" y="-444.5" font-family="Helvetica,sans-Serif" font-size="10.00">bool addCoord(IteratorList</text>
<text text-anchor="start" x="68.88" y="-432.5" font-family="Helvetica,sans-Serif" font-size="10.00">&lt; Token &gt; &amp;tl, TokenResult &amp;tRes)</text>
<text text-anchor="start" x="59.25" y="-416.5" font-family="Helvetica,sans-Serif" font-size="10.00">#</text>
<text text-anchor="start" x="68.88" y="-416.5" font-family="Helvetica,sans-Serif" font-size="10.00">bool addZone(IteratorList</text>
<text text-anchor="start" x="68.88" y="-404.5" font-family="Helvetica,sans-Serif" font-size="10.00">&lt; Token &gt; &amp;tl, TokenResult &amp;tRes)</text>
<text text-anchor="start" x="59.25" y="-388.5" font-family="Helvetica,sans-Serif" font-size="10.00">#</text>
<text text-anchor="start" x="68.88" y="-388.5" font-family="Helvetica,sans-Serif" font-size="10.00">bool addBool(IteratorList</text>
<text text-anchor="start" x="68.88" y="-376.5" font-family="Helvetica,sans-Serif" font-size="10.00">&lt; Token &gt; &amp;tl, TokenResult &amp;tRes)</text>
<text text-anchor="start" x="68.88" y="-360.5" font-family="Helvetica,sans-Serif" font-size="10.00">and 10 more...</text>
<polygon fill="#666666" stroke="#666666" points="54.88,-848 54.88,-848 240.88,-848 240.88,-848 54.88,-848"/>
<polygon fill="#666666" stroke="#666666" points="54.88,-820 54.88,-820 66.88,-820 66.88,-820 54.88,-820"/>
<polygon fill="#666666" stroke="#666666" points="66.88,-820 66.88,-820 240.88,-820 240.88,-820 66.88,-820"/>
<polygon fill="none" stroke="#666666" points="54.88,-354 54.88,-866 240.88,-866 240.88,-354 54.88,-354"/>
</a>
</g>
</g>
<!-- Node3&#45;&gt;Node2 -->
<g id="edge2_Node000002_Node000003" class="edge">
<title>Node3&#45;&gt;Node2</title>
<g id="a_edge2_Node000002_Node000003"><a xlink:title=" ">
<path fill="none" stroke="#63b8ff" d="M147.88,-342.96C147.88,-333.81 147.88,-325.08 147.88,-316.89"/>
<polygon fill="none" stroke="#63b8ff" points="144.38,-342.79 147.88,-352.79 151.38,-342.79 144.38,-342.79"/>
</a>
</g>
</g>
<!-- Node4 -->
<g id="Node000004" class="node">
<title>Node4</title>
<g id="a_Node000004"><a xlink:href="class_k_token.html" target="_top" xlink:title=" ">
<polygon fill="white" stroke="none" points="138.75,-1180 3,-1180 3,-1104 138.75,-1104 138.75,-1180"/>
<text text-anchor="start" x="54.38" y="-1166.5" font-family="Helvetica,sans-Serif" font-size="10.00">KToken</text>
<text text-anchor="start" x="69.38" y="-1150.5" font-family="Helvetica,sans-Serif" font-size="10.00"> </text>
<text text-anchor="start" x="7" y="-1134.5" font-family="Helvetica,sans-Serif" font-size="10.00">#</text>
<text text-anchor="start" x="16.25" y="-1134.5" font-family="Helvetica,sans-Serif" font-size="10.00">bool addTokens(IteratorList</text>
<text text-anchor="start" x="16.25" y="-1122.5" font-family="Helvetica,sans-Serif" font-size="10.00">&lt; Token &gt; &amp;tl, TokenResult</text>
<text text-anchor="start" x="16.25" y="-1110.5" font-family="Helvetica,sans-Serif" font-size="10.00"> &amp;tRes) override</text>
<polygon fill="#666666" stroke="#666666" points="3,-1162 3,-1162 138.75,-1162 138.75,-1162 3,-1162"/>
<polygon fill="#666666" stroke="#666666" points="3,-1146 3,-1146 138.75,-1146 138.75,-1146 3,-1146"/>
<polygon fill="none" stroke="#666666" points="3,-1104 3,-1180 138.75,-1180 138.75,-1104 3,-1104"/>
</a>
</g>
</g>
<!-- Node4&#45;&gt;Node3 -->
<g id="edge3_Node000003_Node000004" class="edge">
<title>Node4&#45;&gt;Node3</title>
<g id="a_edge3_Node000003_Node000004"><a xlink:title=" ">
<path fill="none" stroke="#63b8ff" d="M77.87,-1092.87C85.49,-1040.41 98.29,-952.31 110.87,-865.68"/>
<polygon fill="none" stroke="#63b8ff" points="74.42,-1092.26 76.45,-1102.65 81.35,-1093.26 74.42,-1092.26"/>
</a>
</g>
</g>
<!-- Node5 -->
<g id="Node000005" class="node">
<title>Node5</title>
<g id="a_Node000005"><a xlink:href="class_token.html" target="_top" xlink:title=" ">
<polygon fill="white" stroke="none" points="141.75,-1771 0,-1771 0,-1407 141.75,-1407 141.75,-1771"/>
<text text-anchor="start" x="57.75" y="-1757.5" font-family="Helvetica,sans-Serif" font-size="10.00">Token</text>
<text text-anchor="start" x="4.38" y="-1741.5" font-family="Helvetica,sans-Serif" font-size="10.00">#</text>
<text text-anchor="start" x="14" y="-1741.5" font-family="Helvetica,sans-Serif" font-size="10.00">std::string tokenText</text>
<text text-anchor="start" x="4.38" y="-1725.5" font-family="Helvetica,sans-Serif" font-size="10.00">#</text>
<text text-anchor="start" x="14" y="-1725.5" font-family="Helvetica,sans-Serif" font-size="10.00">TokenVALUE tValue</text>
<text text-anchor="start" x="4.38" y="-1709.5" font-family="Helvetica,sans-Serif" font-size="10.00">#</text>
<text text-anchor="start" x="14" y="-1709.5" font-family="Helvetica,sans-Serif" font-size="10.00">int line</text>
<text text-anchor="start" x="4" y="-1693.5" font-family="Helvetica,sans-Serif" font-size="10.00">+</text>
<text text-anchor="start" x="14" y="-1693.5" font-family="Helvetica,sans-Serif" font-size="10.00">Token()</text>
<text text-anchor="start" x="4" y="-1677.5" font-family="Helvetica,sans-Serif" font-size="10.00">+</text>
<text text-anchor="start" x="14" y="-1677.5" font-family="Helvetica,sans-Serif" font-size="10.00">virtual DataType getData</text>
<text text-anchor="start" x="14" y="-1665.5" font-family="Helvetica,sans-Serif" font-size="10.00">Type(TokenResult &amp;tRes)</text>
<text text-anchor="start" x="4" y="-1649.5" font-family="Helvetica,sans-Serif" font-size="10.00">+</text>
<text text-anchor="start" x="14" y="-1649.5" font-family="Helvetica,sans-Serif" font-size="10.00">virtual void showTokenTree</text>
<text text-anchor="start" x="14" y="-1637.5" font-family="Helvetica,sans-Serif" font-size="10.00">(const int nestedLayer)</text>
<text text-anchor="start" x="4" y="-1621.5" font-family="Helvetica,sans-Serif" font-size="10.00">+</text>
<text text-anchor="start" x="14" y="-1621.5" font-family="Helvetica,sans-Serif" font-size="10.00">TokenVALUE getValue()</text>
<text text-anchor="start" x="4" y="-1605.5" font-family="Helvetica,sans-Serif" font-size="10.00">+</text>
<text text-anchor="start" x="14" y="-1605.5" font-family="Helvetica,sans-Serif" font-size="10.00">bool addError(TokenResult</text>
<text text-anchor="start" x="14" y="-1593.5" font-family="Helvetica,sans-Serif" font-size="10.00"> &amp;tRes, TokenVALUE value,</text>
<text text-anchor="start" x="14" y="-1581.5" font-family="Helvetica,sans-Serif" font-size="10.00"> ErrorType et=ErrorType::</text>
<text text-anchor="start" x="14" y="-1569.5" font-family="Helvetica,sans-Serif" font-size="10.00">MISSING)</text>
<text text-anchor="start" x="4" y="-1553.5" font-family="Helvetica,sans-Serif" font-size="10.00">+</text>
<text text-anchor="start" x="14" y="-1553.5" font-family="Helvetica,sans-Serif" font-size="10.00">bool addError(TokenResult</text>
<text text-anchor="start" x="14" y="-1541.5" font-family="Helvetica,sans-Serif" font-size="10.00"> &amp;tRes, DataType type)</text>
<text text-anchor="start" x="4" y="-1525.5" font-family="Helvetica,sans-Serif" font-size="10.00">+</text>
<text text-anchor="start" x="14" y="-1525.5" font-family="Helvetica,sans-Serif" font-size="10.00">std::string getTokenText()</text>
<text text-anchor="start" x="4" y="-1509.5" font-family="Helvetica,sans-Serif" font-size="10.00">+</text>
<text text-anchor="start" x="14" y="-1509.5" font-family="Helvetica,sans-Serif" font-size="10.00">int getLine()</text>
<text text-anchor="start" x="4" y="-1493.5" font-family="Helvetica,sans-Serif" font-size="10.00">+</text>
<text text-anchor="start" x="14" y="-1493.5" font-family="Helvetica,sans-Serif" font-size="10.00">bool hasValue(TokenVALUE</text>
<text text-anchor="start" x="14" y="-1481.5" font-family="Helvetica,sans-Serif" font-size="10.00"> value) const</text>
<text text-anchor="start" x="4" y="-1465.5" font-family="Helvetica,sans-Serif" font-size="10.00">+</text>
<text text-anchor="start" x="14" y="-1465.5" font-family="Helvetica,sans-Serif" font-size="10.00">virtual bool addTokens</text>
<text text-anchor="start" x="14" y="-1453.5" font-family="Helvetica,sans-Serif" font-size="10.00">(IteratorList&lt; Token &gt;</text>
<text text-anchor="start" x="14" y="-1441.5" font-family="Helvetica,sans-Serif" font-size="10.00"> &amp;tl, TokenResult &amp;tRes)</text>
<text text-anchor="start" x="4" y="-1425.5" font-family="Helvetica,sans-Serif" font-size="10.00">+</text>
<text text-anchor="start" x="14" y="-1425.5" font-family="Helvetica,sans-Serif" font-size="10.00">virtual std::shared</text>
<text text-anchor="start" x="14" y="-1413.5" font-family="Helvetica,sans-Serif" font-size="10.00">_ptr&lt; Tag &gt; execute()</text>
<polygon fill="#666666" stroke="#666666" points="0,-1753 0,-1753 141.75,-1753 141.75,-1753 0,-1753"/>
<polygon fill="#666666" stroke="#666666" points="0,-1705 0,-1705 12,-1705 12,-1705 0,-1705"/>
<polygon fill="#666666" stroke="#666666" points="12,-1705 12,-1705 141.75,-1705 141.75,-1705 12,-1705"/>
<polygon fill="none" stroke="#666666" points="0,-1407 0,-1771 141.75,-1771 141.75,-1407 0,-1407"/>
</a>
</g>
</g>
<!-- Node5&#45;&gt;Node4 -->
<g id="edge4_Node000004_Node000005" class="edge">
<title>Node5&#45;&gt;Node4</title>
<g id="a_edge4_Node000004_Node000005"><a xlink:title=" ">
<path fill="none" stroke="#63b8ff" d="M70.88,-1395.57C70.88,-1314.3 70.88,-1227.57 70.88,-1179.84"/>
<polygon fill="none" stroke="#63b8ff" points="67.38,-1395.49 70.88,-1405.49 74.38,-1395.49 67.38,-1395.49"/>
</a>
</g>
</g>
<!-- Node6 -->
<g id="Node000006" class="node">
<title>Node6</title>
<g id="a_Node000006"><a xlink:href="class_arguments_overload.html" target="_top" xlink:title=" ">
<polygon fill="white" stroke="none" points="294.5,-1370 157.25,-1370 157.25,-914 294.5,-914 294.5,-1370"/>
<text text-anchor="start" x="182.75" y="-1356.5" font-family="Helvetica,sans-Serif" font-size="10.00">ArgumentsOverload</text>
<text text-anchor="start" x="161.62" y="-1340.5" font-family="Helvetica,sans-Serif" font-size="10.00">#</text>
<text text-anchor="start" x="171.25" y="-1340.5" font-family="Helvetica,sans-Serif" font-size="10.00">std::map&lt; int, std</text>
<text text-anchor="start" x="171.25" y="-1328.5" font-family="Helvetica,sans-Serif" font-size="10.00">::shared_ptr&lt; Arguments</text>
<text text-anchor="start" x="171.25" y="-1316.5" font-family="Helvetica,sans-Serif" font-size="10.00"> &gt; &gt; validArguments</text>
<text text-anchor="start" x="161.62" y="-1300.5" font-family="Helvetica,sans-Serif" font-size="10.00">#</text>
<text text-anchor="start" x="171.25" y="-1300.5" font-family="Helvetica,sans-Serif" font-size="10.00">std::map&lt; int, std</text>
<text text-anchor="start" x="171.25" y="-1288.5" font-family="Helvetica,sans-Serif" font-size="10.00">::shared_ptr&lt; Arguments</text>
<text text-anchor="start" x="171.25" y="-1276.5" font-family="Helvetica,sans-Serif" font-size="10.00"> &gt; &gt; completedArguments</text>
<text text-anchor="start" x="161.62" y="-1260.5" font-family="Helvetica,sans-Serif" font-size="10.00">#</text>
<text text-anchor="start" x="171.25" y="-1260.5" font-family="Helvetica,sans-Serif" font-size="10.00">std::vector&lt; DataType</text>
<text text-anchor="start" x="171.25" y="-1248.5" font-family="Helvetica,sans-Serif" font-size="10.00"> &gt; currentDataTypes</text>
<text text-anchor="start" x="161.62" y="-1232.5" font-family="Helvetica,sans-Serif" font-size="10.00">#</text>
<text text-anchor="start" x="171.25" y="-1232.5" font-family="Helvetica,sans-Serif" font-size="10.00">std::map&lt; int, std</text>
<text text-anchor="start" x="171.25" y="-1220.5" font-family="Helvetica,sans-Serif" font-size="10.00">::shared_ptr&lt; Arguments</text>
<text text-anchor="start" x="171.25" y="-1208.5" font-family="Helvetica,sans-Serif" font-size="10.00"> &gt; &gt; mapArguments</text>
<text text-anchor="start" x="161.62" y="-1192.5" font-family="Helvetica,sans-Serif" font-size="10.00">#</text>
<text text-anchor="start" x="171.25" y="-1192.5" font-family="Helvetica,sans-Serif" font-size="10.00">unsigned int completeIndex</text>
<text text-anchor="start" x="161.25" y="-1176.5" font-family="Helvetica,sans-Serif" font-size="10.00">+</text>
<text text-anchor="start" x="171.25" y="-1176.5" font-family="Helvetica,sans-Serif" font-size="10.00">ArgumentsOverload()</text>
<text text-anchor="start" x="161.25" y="-1160.5" font-family="Helvetica,sans-Serif" font-size="10.00">+</text>
<text text-anchor="start" x="171.25" y="-1160.5" font-family="Helvetica,sans-Serif" font-size="10.00">bool isPresent(Arguments</text>
<text text-anchor="start" x="171.25" y="-1148.5" font-family="Helvetica,sans-Serif" font-size="10.00"> args)</text>
<text text-anchor="start" x="161.25" y="-1132.5" font-family="Helvetica,sans-Serif" font-size="10.00">+</text>
<text text-anchor="start" x="171.25" y="-1132.5" font-family="Helvetica,sans-Serif" font-size="10.00">void addArgs(Arguments</text>
<text text-anchor="start" x="171.25" y="-1120.5" font-family="Helvetica,sans-Serif" font-size="10.00"> args, int index)</text>
<text text-anchor="start" x="161.25" y="-1104.5" font-family="Helvetica,sans-Serif" font-size="10.00">+</text>
<text text-anchor="start" x="171.25" y="-1104.5" font-family="Helvetica,sans-Serif" font-size="10.00">void initTabs()</text>
<text text-anchor="start" x="161.25" y="-1088.5" font-family="Helvetica,sans-Serif" font-size="10.00">+</text>
<text text-anchor="start" x="171.25" y="-1088.5" font-family="Helvetica,sans-Serif" font-size="10.00">void next()</text>
<text text-anchor="start" x="161.25" y="-1072.5" font-family="Helvetica,sans-Serif" font-size="10.00">+</text>
<text text-anchor="start" x="171.25" y="-1072.5" font-family="Helvetica,sans-Serif" font-size="10.00">bool approveType(const</text>
<text text-anchor="start" x="171.25" y="-1060.5" font-family="Helvetica,sans-Serif" font-size="10.00"> DataType &amp;type)</text>
<text text-anchor="start" x="161.25" y="-1044.5" font-family="Helvetica,sans-Serif" font-size="10.00">+</text>
<text text-anchor="start" x="171.25" y="-1044.5" font-family="Helvetica,sans-Serif" font-size="10.00">std::vector&lt; DataType</text>
<text text-anchor="start" x="171.25" y="-1032.5" font-family="Helvetica,sans-Serif" font-size="10.00"> &gt; getPossibleDataTypes()</text>
<text text-anchor="start" x="161.25" y="-1016.5" font-family="Helvetica,sans-Serif" font-size="10.00">+</text>
<text text-anchor="start" x="171.25" y="-1016.5" font-family="Helvetica,sans-Serif" font-size="10.00">std::map&lt; int, std</text>
<text text-anchor="start" x="171.25" y="-1004.5" font-family="Helvetica,sans-Serif" font-size="10.00">::shared_ptr&lt; Arguments</text>
<text text-anchor="start" x="171.25" y="-992.5" font-family="Helvetica,sans-Serif" font-size="10.00"> &gt; &gt; getValidArguments()</text>
<text text-anchor="start" x="161.25" y="-976.5" font-family="Helvetica,sans-Serif" font-size="10.00">+</text>
<text text-anchor="start" x="171.25" y="-976.5" font-family="Helvetica,sans-Serif" font-size="10.00">std::map&lt; int, std</text>
<text text-anchor="start" x="171.25" y="-964.5" font-family="Helvetica,sans-Serif" font-size="10.00">::shared_ptr&lt; Arguments</text>
<text text-anchor="start" x="171.25" y="-952.5" font-family="Helvetica,sans-Serif" font-size="10.00"> &gt; &gt; getCompletedArgs()</text>
<text text-anchor="start" x="161.25" y="-936.5" font-family="Helvetica,sans-Serif" font-size="10.00">+</text>
<text text-anchor="start" x="171.25" y="-936.5" font-family="Helvetica,sans-Serif" font-size="10.00">bool ended()</text>
<text text-anchor="start" x="171.25" y="-920.5" font-family="Helvetica,sans-Serif" font-size="10.00">and 9 more...</text>
<polygon fill="#666666" stroke="#666666" points="157.25,-1352 157.25,-1352 294.5,-1352 294.5,-1352 157.25,-1352"/>
<polygon fill="#666666" stroke="#666666" points="157.25,-1188 157.25,-1188 169.25,-1188 169.25,-1188 157.25,-1188"/>
<polygon fill="#666666" stroke="#666666" points="169.25,-1188 169.25,-1188 294.5,-1188 294.5,-1188 169.25,-1188"/>
<polygon fill="none" stroke="#666666" points="157.25,-914 157.25,-1370 294.5,-1370 294.5,-914 157.25,-914"/>
</a>
</g>
</g>
<!-- Node6&#45;&gt;Node3 -->
<g id="edge5_Node000003_Node000006" class="edge">
<title>Node6&#45;&gt;Node3</title>
<g id="a_edge5_Node000003_Node000006"><a xlink:title=" ">
<path fill="none" stroke="#63b8ff" d="M192.51,-914.31C190.78,-902.54 189.03,-890.67 187.29,-878.79"/>
<polygon fill="none" stroke="#63b8ff" points="187.27,-878.66 182.44,-873.31 185.52,-866.79 190.35,-872.15 187.27,-878.66"/>
</a>
</g>
<text text-anchor="middle" x="222.21" y="-886.5" font-family="Helvetica,sans-Serif" font-size="10.00" fill="grey"> #argsOverload</text>
</g>
</g>
</svg>

<g id="navigator" transform="translate(0 0)" fill="#404254">
  <rect fill="#f2f5e9" fill-opacity="0.5" stroke="#606060" stroke-width=".5" x="0" y="0" width="60" height="60"/>
  <use id="zoomplus" xlink:href="#zoomPlus" x="17" y="9" onmousedown="handleZoom(evt,'in')"/>
  <use id="zoomminus" xlink:href="#zoomMin" x="42" y="9" onmousedown="handleZoom(evt,'out')"/>
  <use id="reset" xlink:href="#resetDef" x="30" y="36" onmousedown="handleReset()"/>
   <use id="arrowup" xlink:href="#arrowUp" x="0" y="0" onmousedown="handlePan(0,-1)"/>
  <use id="arrowright" xlink:href="#arrowRight" x="0" y="0" onmousedown="handlePan(1,0)"/>
  <use id="arrowdown" xlink:href="#arrowDown" x="0" y="0" onmousedown="handlePan(0,1)"/>
  <use id="arrowleft" xlink:href="#arrowLeft" x="0" y="0" onmousedown="handlePan(-1,0)"/>
</g>
<svg viewBox="0 0 15 15" width="100%" height="30px" preserveAspectRatio="xMaxYMin meet">
 <g id="arrow_out" transform="scale(0.3 0.3)">
  <a xlink:href="class_b_m_p_k_token__coll__graph_org.svg" target="_base">
   <rect id="button" ry="5" rx="5" y="6" x="6" height="38" width="38"
        fill="#f2f5e9" fill-opacity="0.5" stroke="#606060" stroke-width="1.0"/>
   <path id="arrow"
     d="M 11.500037,31.436501 C 11.940474,20.09759 22.043105,11.32322 32.158766,21.979434 L 37.068811,17.246167 C 37.068811,17.246167 37.088388,32 37.088388,32 L 22.160133,31.978069 C 22.160133,31.978069 26.997745,27.140456 26.997745,27.140456 C 18.528582,18.264221 13.291696,25.230495 11.500037,31.436501 z"
     style="fill:#404040;"/>
  </a>
 </g>
</svg>

<style type='text/css'>
<![CDATA[
[data-mouse-over-selected='false'] { opacity: 0.7; }
[data-mouse-over-selected='true']  { opacity: 1.0; }
]]>
</style>
<script type="application/ecmascript"><![CDATA[
document.addEventListener('DOMContentLoaded', (event) => {
  highlightEdges();
  highlightAdjacentNodes();
});
]]></script>
</svg>
