<?xml version="1.0" encoding="UTF-8" standalone="no"?>
<!DOCTYPE svg PUBLIC "-//W3C//DTD SVG 1.1//EN"
 "http://www.w3.org/Graphics/SVG/1.1/DTD/svg11.dtd">
<!-- Generated by graphviz version 12.2.0 (20241103.1931)
 -->
<!-- Title: BotConfig::readSearchBluestacks Pages: 1 -->
<!--zoomable 160 -->

<svg id="main" version="1.1" xmlns="http://www.w3.org/2000/svg" xmlns:xlink="http://www.w3.org/1999/xlink" xml:space="preserve" onload="init(evt)">

<style type="text/css"><![CDATA[
.node, .edge {opacity: 0.7;}
.node.selected, .edge.selected {opacity: 1;}
.edge:hover path { stroke: red; }
.edge:hover polygon { stroke: red; fill: red; }
]]></style>

<defs>
  <circle id="rim" cx="0" cy="0" r="7"/>
  <circle id="rim2" cx="0" cy="0" r="3.5"/>
  <g id="zoomPlus">
    <use xlink:href="#rim" fill="#404040"><set attributeName="fill" to="#808080" begin="zoomplus.mouseover" end="zoomplus.mouseout"/></use>
    <path d="M-4,0h8M0,-4v8" fill="none" stroke="white" stroke-width="1.5" pointer-events="none"/>
  </g>
  <g id="zoomMin">
    <use xlink:href="#rim" fill="#404040"><set attributeName="fill" to="#808080" begin="zoomminus.mouseover" end="zoomminus.mouseout"/></use>
    <path d="M-4,0h8" fill="none" stroke="white" stroke-width="1.5" pointer-events="none"/>
  </g>
  <g id="arrowUp" transform="translate(30 24)">
    <use xlink:href="#rim"/>
    <path pointer-events="none" fill="none" stroke="white" stroke-width="1.5" d="M0,-3.0v7 M-2.5,-0.5L0,-3.0L2.5,-0.5"/>
  </g>
  <g id="arrowRight" transform="rotate(90) translate(36 -43)">
    <use xlink:href="#rim"/>
    <path pointer-events="none" fill="none" stroke="white" stroke-width="1.5" d="M0,-3.0v7 M-2.5,-0.5L0,-3.0L2.5,-0.5"/>
  </g>
  <g id="arrowDown" transform="rotate(180) translate(-30 -48)">
    <use xlink:href="#rim"/>
    <path pointer-events="none" fill="none" stroke="white" stroke-width="1.5" d="M0,-3.0v7 M-2.5,-0.5L0,-3.0L2.5,-0.5"/>
  </g>
  <g id="arrowLeft" transform="rotate(270) translate(-36 17)">
    <use xlink:href="#rim"/>
    <path pointer-events="none" fill="none" stroke="white" stroke-width="1.5" d="M0,-3.0v7 M-2.5,-0.5L0,-3.0L2.5,-0.5"/>
  </g>
  <g id="resetDef">
    <use xlink:href="#rim2" fill="#404040"><set attributeName="fill" to="#808080" begin="reset.mouseover" end="reset.mouseout"/></use>
  </g>
</defs>
<script type="application/ecmascript">
var viewWidth = 1498;
var viewHeight = 160;
var sectionId = 'dynsection-57';
</script>
<script type="application/ecmascript" xlink:href="svg.min.js"/>
<svg id="graph" class="graph">
<g id="viewport">
<title>BotConfig::readSearchBluestacks</title>
<!-- Node1 -->
<g id="Node000001" class="node">
<title>Node1</title>
<g id="a_Node000001"><a xlink:title=" ">
<polygon fill="#999999" stroke="#666666" points="163.75,-74 0,-74 0,-54 163.75,-54 163.75,-74"/>
<text text-anchor="middle" x="81.88" y="-60.5" font-family="Helvetica,sans-Serif" font-size="10.00">BotConfig::readSearchBluestacks</text>
</a>
</g>
</g>
<!-- Node2 -->
<g id="Node000002" class="node">
<title>Node2</title>
<g id="a_Node000002"><a xlink:href="class_bot_config.html#ad461209f70e41b763999c7453e4529ee" target="_top" xlink:title=" ">
<polygon fill="white" stroke="#666666" points="353.75,-96 199.75,-96 199.75,-76 353.75,-76 353.75,-96"/>
<text text-anchor="middle" x="276.75" y="-82.5" font-family="Helvetica,sans-Serif" font-size="10.00">BotConfig::readDataBluestacks</text>
</a>
</g>
</g>
<!-- Node1&#45;&gt;Node2 -->
<g id="edge1_Node000001_Node000002" class="edge">
<title>Node1&#45;&gt;Node2</title>
<g id="a_edge1_Node000001_Node000002"><a xlink:title=" ">
<path fill="none" stroke="#63b8ff" d="M164.11,-73.27C172.09,-74.18 180.21,-75.1 188.25,-76.02"/>
<polygon fill="#63b8ff" stroke="#63b8ff" points="187.69,-79.48 198.02,-77.13 188.48,-72.52 187.69,-79.48"/>
</a>
</g>
</g>
<!-- Node15 -->
<g id="Node000015" class="node">
<title>Node15</title>
<g id="a_Node000015"><a xlink:href="class_bot_config.html#a1ede9834fcb1b8dcedf47a367241d030" target="_top" xlink:title=" ">
<polygon fill="white" stroke="#666666" points="341,-58 212.5,-58 212.5,-26 341,-26 341,-58"/>
<text text-anchor="start" x="220.5" y="-44.5" font-family="Helvetica,sans-Serif" font-size="10.00">BotConfig::verifyEmulator</text>
<text text-anchor="middle" x="276.75" y="-32.5" font-family="Helvetica,sans-Serif" font-size="10.00">Folder</text>
</a>
</g>
</g>
<!-- Node1&#45;&gt;Node15 -->
<g id="edge20_Node000001_Node000015" class="edge">
<title>Node1&#45;&gt;Node15</title>
<g id="a_edge20_Node000001_Node000015"><a xlink:title=" ">
<path fill="none" stroke="#63b8ff" d="M164.11,-54.73C176.28,-53.35 188.79,-51.92 200.82,-50.55"/>
<polygon fill="#63b8ff" stroke="#63b8ff" points="201.14,-54.03 210.68,-49.42 200.35,-47.08 201.14,-54.03"/>
</a>
</g>
</g>
<!-- Node3 -->
<g id="Node000003" class="node">
<title>Node3</title>
<g id="a_Node000003"><a xlink:href="class_bot_config.html#a5aafe893fa75e1b711e3ef3f4e4db9cc" target="_top" xlink:title=" ">
<polygon fill="white" stroke="#666666" points="524.25,-96 389.75,-96 389.75,-76 524.25,-76 524.25,-96"/>
<text text-anchor="middle" x="457" y="-82.5" font-family="Helvetica,sans-Serif" font-size="10.00">BotConfig::readBoolBotFile</text>
</a>
</g>
</g>
<!-- Node2&#45;&gt;Node3 -->
<g id="edge2_Node000002_Node000003" class="edge">
<title>Node2&#45;&gt;Node3</title>
<g id="a_edge2_Node000002_Node000003"><a xlink:title=" ">
<path fill="none" stroke="#63b8ff" d="M354.12,-86C361.99,-86 370,-86 377.89,-86"/>
<polygon fill="#63b8ff" stroke="#63b8ff" points="377.83,-89.5 387.83,-86 377.83,-82.5 377.83,-89.5"/>
</a>
</g>
</g>
<!-- Node4 -->
<g id="Node000004" class="node">
<title>Node4</title>
<g id="a_Node000004"><a xlink:href="class_bot_config.html#a459cd36b6c6f36f9bd73ff207e2fe5ec" target="_top" xlink:title=" ">
<polygon fill="white" stroke="#666666" points="682.38,-86 578.62,-86 578.62,-66 682.38,-66 682.38,-86"/>
<text text-anchor="middle" x="630.5" y="-72.5" font-family="Helvetica,sans-Serif" font-size="10.00">BotConfig::readBool</text>
</a>
</g>
</g>
<!-- Node3&#45;&gt;Node4 -->
<g id="edge3_Node000003_Node000004" class="edge">
<title>Node3&#45;&gt;Node4</title>
<g id="a_edge3_Node000003_Node000004"><a xlink:title=" ">
<path fill="none" stroke="#63b8ff" d="M524.31,-82.13C538.3,-81.32 553.02,-80.46 566.87,-79.65"/>
<polygon fill="#63b8ff" stroke="#63b8ff" points="566.97,-83.15 576.75,-79.08 566.57,-76.16 566.97,-83.15"/>
</a>
</g>
</g>
<!-- Node5 -->
<g id="Node000005" class="node">
<title>Node5</title>
<g id="a_Node000005"><a xlink:href="class_bot_config.html#a623d05e4d8e0122d35b1a3e391fc2464" target="_top" xlink:title=" ">
<polygon fill="white" stroke="#666666" points="846.5,-58 736.75,-58 736.75,-38 846.5,-38 846.5,-58"/>
<text text-anchor="middle" x="791.62" y="-44.5" font-family="Helvetica,sans-Serif" font-size="10.00">BotConfig::readString</text>
</a>
</g>
</g>
<!-- Node4&#45;&gt;Node5 -->
<g id="edge4_Node000004_Node000005" class="edge">
<title>Node4&#45;&gt;Node5</title>
<g id="a_edge4_Node000004_Node000005"><a xlink:title=" ">
<path fill="none" stroke="#63b8ff" d="M682.72,-66.99C696.27,-64.6 711.08,-62 725.27,-59.5"/>
<polygon fill="#63b8ff" stroke="#63b8ff" points="725.75,-62.97 734.99,-57.79 724.53,-56.08 725.75,-62.97"/>
</a>
</g>
</g>
<!-- Node6 -->
<g id="Node000006" class="node">
<title>Node6</title>
<g id="a_Node000006"><a xlink:href="_text_manager_8cpp.html#a85a282af68cca7cf7d69487d1bacdc47" target="_top" xlink:title=" ">
<polygon fill="white" stroke="#666666" points="1100.88,-96 1016.62,-96 1016.62,-76 1100.88,-76 1100.88,-96"/>
<text text-anchor="middle" x="1058.75" y="-82.5" font-family="Helvetica,sans-Serif" font-size="10.00">extractBetween</text>
</a>
</g>
</g>
<!-- Node5&#45;&gt;Node6 -->
<g id="edge5_Node000005_Node000006" class="edge">
<title>Node5&#45;&gt;Node6</title>
<g id="a_edge5_Node000005_Node000006"><a xlink:title=" ">
<path fill="none" stroke="#63b8ff" d="M837.72,-58.46C851.99,-61.52 867.85,-64.66 882.5,-67 923.36,-73.52 969.95,-78.45 1004.82,-81.66"/>
<polygon fill="#63b8ff" stroke="#63b8ff" points="1004.38,-85.13 1014.66,-82.54 1005.01,-78.16 1004.38,-85.13"/>
</a>
</g>
</g>
<!-- Node12 -->
<g id="Node000012" class="node">
<title>Node12</title>
<g id="a_Node000012"><a xlink:href="_text_manager_8cpp.html#add36cc54cd9616a393a17b8961491477" target="_top" xlink:title=" ">
<polygon fill="white" stroke="#666666" points="962.25,-20 882.5,-20 882.5,0 962.25,0 962.25,-20"/>
<text text-anchor="middle" x="922.38" y="-6.5" font-family="Helvetica,sans-Serif" font-size="10.00">getFileContent</text>
</a>
</g>
</g>
<!-- Node5&#45;&gt;Node12 -->
<g id="edge14_Node000005_Node000012" class="edge">
<title>Node5&#45;&gt;Node12</title>
<g id="a_edge14_Node000005_Node000012"><a xlink:title=" ">
<path fill="none" stroke="#63b8ff" d="M828.15,-37.52C842.64,-33.24 859.6,-28.23 875.04,-23.67"/>
<polygon fill="#63b8ff" stroke="#63b8ff" points="875.92,-27.07 884.52,-20.88 873.94,-20.35 875.92,-27.07"/>
</a>
</g>
</g>
<!-- Node13 -->
<g id="Node000013" class="node">
<title>Node13</title>
<g id="a_Node000013"><a xlink:href="_text_manager_8cpp.html#af24bee60aa1d3d5b4ae3bf6ebd267ecd" target="_top" xlink:title=" ">
<polygon fill="white" stroke="#666666" points="946.12,-58 898.62,-58 898.62,-38 946.12,-38 946.12,-58"/>
<text text-anchor="middle" x="922.38" y="-44.5" font-family="Helvetica,sans-Serif" font-size="10.00">getLine</text>
</a>
</g>
</g>
<!-- Node5&#45;&gt;Node13 -->
<g id="edge15_Node000005_Node000013" class="edge">
<title>Node5&#45;&gt;Node13</title>
<g id="a_edge15_Node000005_Node000013"><a xlink:title=" ">
<path fill="none" stroke="#63b8ff" d="M846.85,-48C860.5,-48 874.77,-48 887.12,-48"/>
<polygon fill="#63b8ff" stroke="#63b8ff" points="886.79,-51.5 896.79,-48 886.79,-44.5 886.79,-51.5"/>
</a>
</g>
</g>
<!-- Node7 -->
<g id="Node000007" class="node">
<title>Node7</title>
<g id="a_Node000007"><a xlink:href="_text_manager_8cpp.html#a6956d58559ef67f422247fdeb1c22775" target="_top" xlink:title=" ">
<polygon fill="white" stroke="#666666" points="1235,-96 1159,-96 1159,-76 1235,-76 1235,-96"/>
<text text-anchor="middle" x="1197" y="-82.5" font-family="Helvetica,sans-Serif" font-size="10.00">getStringAfter</text>
</a>
</g>
</g>
<!-- Node6&#45;&gt;Node7 -->
<g id="edge6_Node000006_Node000007" class="edge">
<title>Node6&#45;&gt;Node7</title>
<g id="a_edge6_Node000006_Node000007"><a xlink:title=" ">
<path fill="none" stroke="#63b8ff" d="M1101.37,-86C1115.96,-86 1132.48,-86 1147.58,-86"/>
<polygon fill="#63b8ff" stroke="#63b8ff" points="1147.28,-89.5 1157.28,-86 1147.28,-82.5 1147.28,-89.5"/>
</a>
</g>
</g>
<!-- Node11 -->
<g id="Node000011" class="node">
<title>Node11</title>
<g id="a_Node000011"><a xlink:href="_text_manager_8cpp.html#aff8311b88dbf5f3091f3ac1262543242" target="_top" xlink:title=" ">
<polygon fill="white" stroke="#666666" points="1238.75,-58 1155.25,-58 1155.25,-38 1238.75,-38 1238.75,-58"/>
<text text-anchor="middle" x="1197" y="-44.5" font-family="Helvetica,sans-Serif" font-size="10.00">getStringBefore</text>
</a>
</g>
</g>
<!-- Node6&#45;&gt;Node11 -->
<g id="edge12_Node000006_Node000011" class="edge">
<title>Node6&#45;&gt;Node11</title>
<g id="a_edge12_Node000006_Node000011"><a xlink:title=" ">
<path fill="none" stroke="#63b8ff" d="M1097.34,-75.52C1112.83,-71.2 1130.97,-66.14 1147.45,-61.54"/>
<polygon fill="#63b8ff" stroke="#63b8ff" points="1148.38,-64.91 1157.07,-58.86 1146.5,-58.17 1148.38,-64.91"/>
</a>
</g>
</g>
<!-- Node8 -->
<g id="Node000008" class="node">
<title>Node8</title>
<g id="a_Node000008"><a xlink:href="_text_manager_8cpp.html#a5b66873abcff2faee361721f86b65dd0" target="_top" xlink:title=" ">
<polygon fill="white" stroke="#666666" points="1353,-96 1285.25,-96 1285.25,-76 1353,-76 1353,-96"/>
<text text-anchor="middle" x="1319.12" y="-82.5" font-family="Helvetica,sans-Serif" font-size="10.00">getPosAfter</text>
</a>
</g>
</g>
<!-- Node7&#45;&gt;Node8 -->
<g id="edge7_Node000007_Node000008" class="edge">
<title>Node7&#45;&gt;Node8</title>
<g id="a_edge7_Node000007_Node000008"><a xlink:title=" ">
<path fill="none" stroke="#63b8ff" d="M1235.35,-86C1247.48,-86 1261.05,-86 1273.65,-86"/>
<polygon fill="#63b8ff" stroke="#63b8ff" points="1273.36,-89.5 1283.36,-86 1273.36,-82.5 1273.36,-89.5"/>
</a>
</g>
</g>
<!-- Node10 -->
<g id="Node000010" class="node">
<title>Node10</title>
<g id="a_Node000010"><a xlink:href="_text_manager_8cpp.html#a2946b90fb3df56b0a74d53eb4160f4e2" target="_top" xlink:title=" ">
<polygon fill="white" stroke="#666666" points="1363.5,-134 1274.75,-134 1274.75,-114 1363.5,-114 1363.5,-134"/>
<text text-anchor="middle" x="1319.12" y="-120.5" font-family="Helvetica,sans-Serif" font-size="10.00">getStringStarting</text>
</a>
</g>
</g>
<!-- Node7&#45;&gt;Node10 -->
<g id="edge9_Node000007_Node000010" class="edge">
<title>Node7&#45;&gt;Node10</title>
<g id="a_edge9_Node000007_Node000010"><a xlink:title=" ">
<path fill="none" stroke="#63b8ff" d="M1231.14,-96.48C1244.53,-100.72 1260.18,-105.67 1274.48,-110.19"/>
<polygon fill="#63b8ff" stroke="#63b8ff" points="1273.06,-113.41 1283.65,-113.09 1275.17,-106.74 1273.06,-113.41"/>
</a>
</g>
</g>
<!-- Node9 -->
<g id="Node000009" class="node">
<title>Node9</title>
<g id="a_Node000009"><a xlink:href="_text_manager_8cpp.html#a3f4afb2b62acd297e783a22ffa9a7000" target="_top" xlink:title=" ">
<polygon fill="white" stroke="#666666" points="1489.75,-96 1399.5,-96 1399.5,-76 1489.75,-76 1489.75,-96"/>
<text text-anchor="middle" x="1444.62" y="-82.5" font-family="Helvetica,sans-Serif" font-size="10.00">getSequencePos</text>
</a>
</g>
</g>
<!-- Node8&#45;&gt;Node9 -->
<g id="edge8_Node000008_Node000009" class="edge">
<title>Node8&#45;&gt;Node9</title>
<g id="a_edge8_Node000008_Node000009"><a xlink:title=" ">
<path fill="none" stroke="#63b8ff" d="M1353.22,-86C1363.94,-86 1376.14,-86 1388.04,-86"/>
<polygon fill="#63b8ff" stroke="#63b8ff" points="1387.77,-89.5 1397.77,-86 1387.77,-82.5 1387.77,-89.5"/>
</a>
</g>
</g>
<!-- Node10&#45;&gt;Node9 -->
<g id="edge10_Node000010_Node000009" class="edge">
<title>Node10&#45;&gt;Node9</title>
<g id="a_edge10_Node000010_Node000009"><a xlink:title=" ">
<path fill="none" stroke="#63b8ff" d="M1354.2,-113.52C1367.97,-109.28 1384.05,-104.33 1398.75,-99.81"/>
<polygon fill="#63b8ff" stroke="#63b8ff" points="1399.69,-103.18 1408.22,-96.9 1397.63,-96.49 1399.69,-103.18"/>
</a>
</g>
</g>
<!-- Node10&#45;&gt;Node10 -->
<g id="edge11_Node000010_Node000010" class="edge">
<title>Node10&#45;&gt;Node10</title>
<g id="a_edge11_Node000010_Node000010"><a xlink:title=" ">
<path fill="none" stroke="#63b8ff" d="M1299.72,-134.34C1291.43,-142.98 1297.9,-152 1319.12,-152 1330.73,-152 1337.93,-149.3 1340.71,-145.44"/>
<polygon fill="#63b8ff" stroke="#63b8ff" points="1344.18,-144.96 1338.82,-135.82 1337.31,-146.31 1344.18,-144.96"/>
</a>
</g>
</g>
<!-- Node11&#45;&gt;Node9 -->
<g id="edge13_Node000011_Node000009" class="edge">
<title>Node11&#45;&gt;Node9</title>
<g id="a_edge13_Node000011_Node000009"><a xlink:title=" ">
<path fill="none" stroke="#63b8ff" d="M1239,-51.34C1272.61,-54.41 1321.34,-59.61 1363.5,-67 1373.01,-68.67 1383.09,-70.78 1392.76,-72.98"/>
<polygon fill="#63b8ff" stroke="#63b8ff" points="1391.87,-76.37 1402.4,-75.25 1393.47,-69.55 1391.87,-76.37"/>
</a>
</g>
</g>
<!-- Node13&#45;&gt;Node6 -->
<g id="edge16_Node000013_Node000006" class="edge">
<title>Node13&#45;&gt;Node6</title>
<g id="a_edge16_Node000013_Node000006"><a xlink:title=" ">
<path fill="none" stroke="#63b8ff" d="M946.47,-54.53C963.86,-59.45 988.28,-66.36 1009.83,-72.45"/>
<polygon fill="#63b8ff" stroke="#63b8ff" points="1008.74,-75.78 1019.32,-75.13 1010.65,-69.04 1008.74,-75.78"/>
</a>
</g>
</g>
<!-- Node14 -->
<g id="Node000014" class="node">
<title>Node14</title>
<g id="a_Node000014"><a xlink:href="_text_manager_8cpp.html#a84a9e24fc5cce3cebf746bb656909bf8" target="_top" xlink:title=" ">
<polygon fill="white" stroke="#666666" points="1119.25,-58 998.25,-58 998.25,-38 1119.25,-38 1119.25,-58"/>
<text text-anchor="middle" x="1058.75" y="-44.5" font-family="Helvetica,sans-Serif" font-size="10.00">extractBetweenReverse</text>
</a>
</g>
</g>
<!-- Node13&#45;&gt;Node14 -->
<g id="edge17_Node000013_Node000014" class="edge">
<title>Node13&#45;&gt;Node14</title>
<g id="a_edge17_Node000013_Node000014"><a xlink:title=" ">
<path fill="none" stroke="#63b8ff" d="M946.47,-48C957.84,-48 972.21,-48 986.82,-48"/>
<polygon fill="#63b8ff" stroke="#63b8ff" points="986.48,-51.5 996.48,-48 986.48,-44.5 986.48,-51.5"/>
</a>
</g>
</g>
<!-- Node14&#45;&gt;Node7 -->
<g id="edge18_Node000014_Node000007" class="edge">
<title>Node14&#45;&gt;Node7</title>
<g id="a_edge18_Node000014_Node000007"><a xlink:title=" ">
<path fill="none" stroke="#63b8ff" d="M1097.34,-58.48C1112.83,-62.8 1130.97,-67.86 1147.45,-72.46"/>
<polygon fill="#63b8ff" stroke="#63b8ff" points="1146.5,-75.83 1157.07,-75.14 1148.38,-69.09 1146.5,-75.83"/>
</a>
</g>
</g>
<!-- Node14&#45;&gt;Node11 -->
<g id="edge19_Node000014_Node000011" class="edge">
<title>Node14&#45;&gt;Node11</title>
<g id="a_edge19_Node000014_Node000011"><a xlink:title=" ">
<path fill="none" stroke="#63b8ff" d="M1119.51,-48C1127.58,-48 1135.81,-48 1143.74,-48"/>
<polygon fill="#63b8ff" stroke="#63b8ff" points="1143.57,-51.5 1153.57,-48 1143.57,-44.5 1143.57,-51.5"/>
</a>
</g>
</g>
<!-- Node16 -->
<g id="Node000016" class="node">
<title>Node16</title>
<g id="a_Node000016"><a xlink:href="sys_commands_8cpp.html#a662dd4893690567ba825a473508f47e2" target="_top" xlink:title=" ">
<polygon fill="white" stroke="#666666" points="488.25,-58 425.75,-58 425.75,-38 488.25,-38 488.25,-58"/>
<text text-anchor="middle" x="457" y="-44.5" font-family="Helvetica,sans-Serif" font-size="10.00">pathExists</text>
</a>
</g>
</g>
<!-- Node15&#45;&gt;Node16 -->
<g id="edge21_Node000015_Node000016" class="edge">
<title>Node15&#45;&gt;Node16</title>
<g id="a_edge21_Node000015_Node000016"><a xlink:title=" ">
<path fill="none" stroke="#63b8ff" d="M341.35,-44.14C365.47,-44.95 392.33,-45.86 413.98,-46.59"/>
<polygon fill="#63b8ff" stroke="#63b8ff" points="413.79,-50.08 423.91,-46.92 414.03,-43.09 413.79,-50.08"/>
</a>
</g>
</g>
<!-- Node17 -->
<g id="Node000017" class="node">
<title>Node17</title>
<g id="a_Node000017"><a xlink:href="class_bot_config.html#a6347ad0b79f04a755fe1d7151ed87cd2" target="_top" xlink:title=" ">
<polygon fill="white" stroke="#666666" points="700.75,-39 560.25,-39 560.25,-19 700.75,-19 700.75,-39"/>
<text text-anchor="middle" x="630.5" y="-25.5" font-family="Helvetica,sans-Serif" font-size="10.00">BotConfig::readStringBotFile</text>
</a>
</g>
</g>
<!-- Node15&#45;&gt;Node17 -->
<g id="edge22_Node000015_Node000017" class="edge">
<title>Node15&#45;&gt;Node17</title>
<g id="a_edge22_Node000015_Node000017"><a xlink:title=" ">
<path fill="none" stroke="#63b8ff" d="M341.31,-33.33C357.11,-31.53 374.02,-29.91 389.75,-29 442.63,-25.94 502.18,-25.92 548.7,-26.68"/>
<polygon fill="#63b8ff" stroke="#63b8ff" points="548.36,-30.17 558.42,-26.85 548.49,-23.17 548.36,-30.17"/>
</a>
</g>
</g>
<!-- Node17&#45;&gt;Node5 -->
<g id="edge23_Node000017_Node000005" class="edge">
<title>Node17&#45;&gt;Node5</title>
<g id="a_edge23_Node000017_Node000005"><a xlink:title=" ">
<path fill="none" stroke="#63b8ff" d="M700.83,-37.28C708.91,-38.24 717.14,-39.23 725.17,-40.18"/>
<polygon fill="#63b8ff" stroke="#63b8ff" points="724.51,-43.63 734.85,-41.34 725.34,-36.68 724.51,-43.63"/>
</a>
</g>
</g>
</g>
</svg>

<g id="navigator" transform="translate(0 0)" fill="#404254">
  <rect fill="#f2f5e9" fill-opacity="0.5" stroke="#606060" stroke-width=".5" x="0" y="0" width="60" height="60"/>
  <use id="zoomplus" xlink:href="#zoomPlus" x="17" y="9" onmousedown="handleZoom(evt,'in')"/>
  <use id="zoomminus" xlink:href="#zoomMin" x="42" y="9" onmousedown="handleZoom(evt,'out')"/>
  <use id="reset" xlink:href="#resetDef" x="30" y="36" onmousedown="handleReset()"/>
   <use id="arrowup" xlink:href="#arrowUp" x="0" y="0" onmousedown="handlePan(0,-1)"/>
  <use id="arrowright" xlink:href="#arrowRight" x="0" y="0" onmousedown="handlePan(1,0)"/>
  <use id="arrowdown" xlink:href="#arrowDown" x="0" y="0" onmousedown="handlePan(0,1)"/>
  <use id="arrowleft" xlink:href="#arrowLeft" x="0" y="0" onmousedown="handlePan(-1,0)"/>
</g>
<svg viewBox="0 0 15 15" width="100%" height="30px" preserveAspectRatio="xMaxYMin meet">
 <g id="arrow_out" transform="scale(0.3 0.3)">
  <a xlink:href="class_bot_config_abe575477e07b1c120141f019fc7101af_cgraph_org.svg" target="_base">
   <rect id="button" ry="5" rx="5" y="6" x="6" height="38" width="38"
        fill="#f2f5e9" fill-opacity="0.5" stroke="#606060" stroke-width="1.0"/>
   <path id="arrow"
     d="M 11.500037,31.436501 C 11.940474,20.09759 22.043105,11.32322 32.158766,21.979434 L 37.068811,17.246167 C 37.068811,17.246167 37.088388,32 37.088388,32 L 22.160133,31.978069 C 22.160133,31.978069 26.997745,27.140456 26.997745,27.140456 C 18.528582,18.264221 13.291696,25.230495 11.500037,31.436501 z"
     style="fill:#404040;"/>
  </a>
 </g>
</svg>

<style type='text/css'>
<![CDATA[
[data-mouse-over-selected='false'] { opacity: 0.7; }
[data-mouse-over-selected='true']  { opacity: 1.0; }
]]>
</style>
<script type="application/ecmascript"><![CDATA[
document.addEventListener('DOMContentLoaded', (event) => {
  highlightEdges();
  highlightAdjacentNodes();
});
]]></script>
</svg>
