<?xml version="1.0" encoding="UTF-8" standalone="no"?>
<!DOCTYPE svg PUBLIC "-//W3C//DTD SVG 1.1//EN"
 "http://www.w3.org/Graphics/SVG/1.1/DTD/svg11.dtd">
<!-- Generated by graphviz version 12.2.0 (20241103.1931)
 -->
<!-- Title: Interactions::fCompareA Pages: 1 -->
<svg width="1076pt" height="405pt"
 viewBox="0.00 0.00 1075.75 405.00" xmlns="http://www.w3.org/2000/svg" xmlns:xlink="http://www.w3.org/1999/xlink">
<g id="graph0" class="graph" transform="scale(1 1) rotate(0) translate(4 401)">
<title>Interactions::fCompareA</title>
<!-- Node1 -->
<g id="Node000001" class="node">
<title>Node1</title>
<g id="a_Node000001"><a xlink:title=" ">
<polygon fill="#999999" stroke="#666666" points="122.5,-96 0,-96 0,-76 122.5,-76 122.5,-96"/>
<text text-anchor="middle" x="61.25" y="-82.5" font-family="Helvetica,sans-Serif" font-size="10.00">Interactions::fCompareA</text>
</a>
</g>
</g>
<!-- Node2 -->
<g id="Node000002" class="node">
<title>Node2</title>
<g id="a_Node000002"><a xlink:href="fopencv_8cpp.html#a248b5cdc64398082a700818b8e29ff59" target="_top" xlink:title=" ">
<polygon fill="white" stroke="#666666" points="449.62,-256 329.38,-256 329.38,-236 449.62,-236 449.62,-256"/>
<text text-anchor="middle" x="389.5" y="-242.5" font-family="Helvetica,sans-Serif" font-size="10.00">cvmtfCompareTemplate</text>
</a>
</g>
</g>
<!-- Node1&#45;&gt;Node2 -->
<g id="edge1_Node000001_Node000002" class="edge">
<title>Node1&#45;&gt;Node2</title>
<g id="a_edge1_Node000001_Node000002"><a xlink:title=" ">
<path fill="none" stroke="#63b8ff" d="M75.38,-96.35C93.39,-110.23 127.11,-135.08 158.5,-152 221.42,-185.93 299.26,-215.32 346.33,-231.83"/>
<polygon fill="#63b8ff" stroke="#63b8ff" points="345.01,-235.08 355.61,-235.05 347.31,-228.47 345.01,-235.08"/>
</a>
</g>
</g>
<!-- Node12 -->
<g id="Node000012" class="node">
<title>Node12</title>
<g id="a_Node000012"><a xlink:href="class_interactions.html#a5b5af2b125ff152043789cfcf70ffb2b" target="_top" xlink:title=" ">
<polygon fill="white" stroke="#666666" points="284.75,-58 158.5,-58 158.5,-38 284.75,-38 284.75,-58"/>
<text text-anchor="middle" x="221.62" y="-44.5" font-family="Helvetica,sans-Serif" font-size="10.00">Interactions::getTemplate</text>
</a>
</g>
</g>
<!-- Node1&#45;&gt;Node12 -->
<g id="edge16_Node000001_Node000012" class="edge">
<title>Node1&#45;&gt;Node12</title>
<g id="a_edge16_Node000001_Node000012"><a xlink:title=" ">
<path fill="none" stroke="#63b8ff" d="M105.95,-75.52C124.55,-71.05 146.46,-65.79 166.11,-61.08"/>
<polygon fill="#63b8ff" stroke="#63b8ff" points="166.69,-64.54 175.6,-58.8 165.06,-57.73 166.69,-64.54"/>
</a>
</g>
</g>
<!-- Node14 -->
<g id="Node000014" class="node">
<title>Node14</title>
<g id="a_Node000014"><a xlink:href="class_interactions.html#a0a0ffd9ad1990de31fd7b2773db32667" target="_top" xlink:title=" ">
<polygon fill="white" stroke="#666666" points="282.12,-143 161.12,-143 161.12,-123 282.12,-123 282.12,-143"/>
<text text-anchor="middle" x="221.62" y="-129.5" font-family="Helvetica,sans-Serif" font-size="10.00">Interactions::loopPopUp</text>
</a>
</g>
</g>
<!-- Node1&#45;&gt;Node14 -->
<g id="edge18_Node000001_Node000014" class="edge">
<title>Node1&#45;&gt;Node14</title>
<g id="a_edge18_Node000001_Node000014"><a xlink:title=" ">
<path fill="none" stroke="#63b8ff" d="M97.4,-96.43C120.08,-103.16 149.83,-111.99 174.41,-119.29"/>
<polygon fill="#63b8ff" stroke="#63b8ff" points="173.27,-122.6 183.85,-122.09 175.26,-115.89 173.27,-122.6"/>
</a>
</g>
</g>
<!-- Node26 -->
<g id="Node000026" class="node">
<title>Node26</title>
<g id="a_Node000026"><a xlink:href="class_interactions.html#ade7f52c59105f434650b9358b22e5488" target="_top" xlink:title=" ">
<polygon fill="white" stroke="#666666" points="282.12,-20 161.12,-20 161.12,0 282.12,0 282.12,-20"/>
<text text-anchor="middle" x="221.62" y="-6.5" font-family="Helvetica,sans-Serif" font-size="10.00">Interactions::resetCount</text>
</a>
</g>
</g>
<!-- Node1&#45;&gt;Node26 -->
<g id="edge32_Node000001_Node000026" class="edge">
<title>Node1&#45;&gt;Node26</title>
<g id="a_edge32_Node000001_Node000026"><a xlink:title=" ">
<path fill="none" stroke="#63b8ff" d="M77.31,-75.54C95.76,-63.09 128.3,-42.33 158.5,-29 162.34,-27.31 166.37,-25.7 170.46,-24.2"/>
<polygon fill="#63b8ff" stroke="#63b8ff" points="171.58,-27.52 179.9,-20.96 169.31,-20.9 171.58,-27.52"/>
</a>
</g>
</g>
<!-- Node27 -->
<g id="Node000027" class="node">
<title>Node27</title>
<g id="a_Node000027"><a xlink:href="class_interactions.html#ad7daddd9df3cea80e69872b8afd6c8dc" target="_top" xlink:title=" ">
<polygon fill="white" stroke="#666666" points="458.25,-86 320.75,-86 320.75,-66 458.25,-66 458.25,-86"/>
<text text-anchor="middle" x="389.5" y="-72.5" font-family="Helvetica,sans-Serif" font-size="10.00">Interactions::templateFound</text>
</a>
</g>
</g>
<!-- Node1&#45;&gt;Node27 -->
<g id="edge33_Node000001_Node000027" class="edge">
<title>Node1&#45;&gt;Node27</title>
<g id="a_edge33_Node000001_Node000027"><a xlink:title=" ">
<path fill="none" stroke="#63b8ff" d="M122.85,-84.14C175.37,-82.53 251.73,-80.19 309.12,-78.43"/>
<polygon fill="#63b8ff" stroke="#63b8ff" points="308.93,-81.94 318.82,-78.14 308.72,-74.94 308.93,-81.94"/>
</a>
</g>
</g>
<!-- Node3 -->
<g id="Node000003" class="node">
<title>Node3</title>
<g id="a_Node000003"><a xlink:href="fopencv_8cpp.html#a95c56af5716e2b2d1b4df612796cc229" target="_top" xlink:title=" ">
<polygon fill="white" stroke="#666666" points="608.5,-313 494.25,-313 494.25,-293 608.5,-293 608.5,-313"/>
<text text-anchor="middle" x="551.38" y="-299.5" font-family="Helvetica,sans-Serif" font-size="10.00">cvmtfMultipleTemplate</text>
</a>
</g>
</g>
<!-- Node2&#45;&gt;Node3 -->
<g id="edge2_Node000002_Node000003" class="edge">
<title>Node2&#45;&gt;Node3</title>
<g id="a_edge2_Node000002_Node000003"><a xlink:title=" ">
<path fill="none" stroke="#63b8ff" d="M419.82,-256.45C445.21,-265.51 482.17,-278.68 510.28,-288.71"/>
<polygon fill="#63b8ff" stroke="#63b8ff" points="508.95,-291.95 519.54,-292.01 511.3,-285.35 508.95,-291.95"/>
</a>
</g>
</g>
<!-- Node8 -->
<g id="Node000008" class="node">
<title>Node8</title>
<g id="a_Node000008"><a xlink:href="fopencv_8cpp.html#a6abdcaeee06b3da6f210daf0162bcd01" target="_top" xlink:title=" ">
<polygon fill="white" stroke="#666666" points="862.88,-379 804.12,-379 804.12,-359 862.88,-359 862.88,-379"/>
<text text-anchor="middle" x="833.5" y="-365.5" font-family="Helvetica,sans-Serif" font-size="10.00">intersects</text>
</a>
</g>
</g>
<!-- Node2&#45;&gt;Node8 -->
<g id="edge14_Node000002_Node000008" class="edge">
<title>Node2&#45;&gt;Node8</title>
<g id="a_edge14_Node000002_Node000008"><a xlink:title=" ">
<path fill="none" stroke="#63b8ff" d="M401.8,-256.26C420.03,-272.32 457.58,-303.48 494.25,-322 556.7,-353.54 575.33,-358.43 644.5,-369 695.08,-376.73 754.22,-374.99 792.47,-372.48"/>
<polygon fill="#63b8ff" stroke="#63b8ff" points="792.39,-376 802.12,-371.8 791.9,-369.01 792.39,-376"/>
</a>
</g>
</g>
<!-- Node9 -->
<g id="Node000009" class="node">
<title>Node9</title>
<g id="a_Node000009"><a xlink:href="fopencv_8cpp.html#a69713584f69a121e4ed91918a64448a0" target="_top" xlink:title=" ">
<polygon fill="white" stroke="#666666" points="591.62,-256 511.12,-256 511.12,-236 591.62,-236 591.62,-256"/>
<text text-anchor="middle" x="551.38" y="-242.5" font-family="Helvetica,sans-Serif" font-size="10.00">cvmtfTemplate</text>
</a>
</g>
</g>
<!-- Node2&#45;&gt;Node9 -->
<g id="edge9_Node000002_Node000009" class="edge">
<title>Node2&#45;&gt;Node9</title>
<g id="a_edge9_Node000002_Node000009"><a xlink:title=" ">
<path fill="none" stroke="#63b8ff" d="M450.03,-246C466.32,-246 483.82,-246 499.57,-246"/>
<polygon fill="#63b8ff" stroke="#63b8ff" points="499.17,-249.5 509.17,-246 499.17,-242.5 499.17,-249.5"/>
</a>
</g>
</g>
<!-- Node10 -->
<g id="Node000010" class="node">
<title>Node10</title>
<g id="a_Node000010"><a xlink:href="fopencv_8cpp.html#a1ed1ff1a9df2ab889e1423cb11a58c06" target="_top" xlink:title=" ">
<polygon fill="white" stroke="#666666" points="744.12,-208 661.38,-208 661.38,-188 744.12,-188 744.12,-208"/>
<text text-anchor="middle" x="702.75" y="-194.5" font-family="Helvetica,sans-Serif" font-size="10.00">messageFound</text>
</a>
</g>
</g>
<!-- Node2&#45;&gt;Node10 -->
<g id="edge15_Node000002_Node000010" class="edge">
<title>Node2&#45;&gt;Node10</title>
<g id="a_edge15_Node000002_Node000010"><a xlink:title=" ">
<path fill="none" stroke="#63b8ff" d="M445.35,-235.51C461.11,-232.61 478.34,-229.57 494.25,-227 547.1,-218.47 607.76,-210.17 649.78,-204.64"/>
<polygon fill="#63b8ff" stroke="#63b8ff" points="650.16,-208.12 659.62,-203.36 649.25,-201.18 650.16,-208.12"/>
</a>
</g>
</g>
<!-- Node4 -->
<g id="Node000004" class="node">
<title>Node4</title>
<g id="a_Node000004"><a xlink:href="fopencv_8cpp.html#af6fc77188d314c0d5a58888452f9b313" target="_top" xlink:title=" ">
<polygon fill="white" stroke="#666666" points="736.62,-284 668.88,-284 668.88,-264 736.62,-264 736.62,-284"/>
<text text-anchor="middle" x="702.75" y="-270.5" font-family="Helvetica,sans-Serif" font-size="10.00">extractZone</text>
</a>
</g>
</g>
<!-- Node3&#45;&gt;Node4 -->
<g id="edge3_Node000003_Node000004" class="edge">
<title>Node3&#45;&gt;Node4</title>
<g id="a_edge3_Node000003_Node000004"><a xlink:title=" ">
<path fill="none" stroke="#63b8ff" d="M606.3,-292.53C623.11,-289.27 641.45,-285.71 657.52,-282.59"/>
<polygon fill="#63b8ff" stroke="#63b8ff" points="658.13,-286.03 667.28,-280.69 656.79,-279.16 658.13,-286.03"/>
</a>
</g>
</g>
<!-- Node5 -->
<g id="Node000005" class="node">
<title>Node5</title>
<g id="a_Node000005"><a xlink:href="struct_zone.html#a5301e7fcf185a5a79c1bf7d7930f4b8a" target="_top" xlink:title=" ">
<polygon fill="white" stroke="#666666" points="737,-322 668.5,-322 668.5,-302 737,-302 737,-322"/>
<text text-anchor="middle" x="702.75" y="-308.5" font-family="Helvetica,sans-Serif" font-size="10.00">Zone::isNull</text>
</a>
</g>
</g>
<!-- Node3&#45;&gt;Node5 -->
<g id="edge4_Node000003_Node000005" class="edge">
<title>Node3&#45;&gt;Node5</title>
<g id="a_edge4_Node000003_Node000005"><a xlink:title=" ">
<path fill="none" stroke="#63b8ff" d="M608.85,-306.4C624.78,-307.36 641.89,-308.39 657.03,-309.31"/>
<polygon fill="#63b8ff" stroke="#63b8ff" points="656.47,-312.78 666.66,-309.89 656.89,-305.79 656.47,-312.78"/>
</a>
</g>
</g>
<!-- Node7 -->
<g id="Node000007" class="node">
<title>Node7</title>
<g id="a_Node000007"><a xlink:href="fopencv_8cpp.html#a7521a083566181475d36ee14aad60f1d" target="_top" xlink:title=" ">
<polygon fill="white" stroke="#666666" points="761,-360 644.5,-360 644.5,-340 761,-340 761,-360"/>
<text text-anchor="middle" x="702.75" y="-346.5" font-family="Helvetica,sans-Serif" font-size="10.00">multipleMatchTemplate</text>
</a>
</g>
</g>
<!-- Node3&#45;&gt;Node7 -->
<g id="edge6_Node000003_Node000007" class="edge">
<title>Node3&#45;&gt;Node7</title>
<g id="a_edge6_Node000003_Node000007"><a xlink:title=" ">
<path fill="none" stroke="#63b8ff" d="M585.53,-313.43C606.73,-320.1 634.47,-328.83 657.54,-336.09"/>
<polygon fill="#63b8ff" stroke="#63b8ff" points="656.4,-339.4 666.99,-339.06 658.5,-332.72 656.4,-339.4"/>
</a>
</g>
</g>
<!-- Node6 -->
<g id="Node000006" class="node">
<title>Node6</title>
<g id="a_Node000006"><a xlink:href="struct_coord.html#a34c573cd6230e5a532f12ae97e7395e2" target="_top" xlink:title=" ">
<polygon fill="white" stroke="#666666" points="870,-322 797,-322 797,-302 870,-302 870,-322"/>
<text text-anchor="middle" x="833.5" y="-308.5" font-family="Helvetica,sans-Serif" font-size="10.00">Coord::isNull</text>
</a>
</g>
</g>
<!-- Node5&#45;&gt;Node6 -->
<g id="edge5_Node000005_Node000006" class="edge">
<title>Node5&#45;&gt;Node6</title>
<g id="a_edge5_Node000005_Node000006"><a xlink:title=" ">
<path fill="none" stroke="#63b8ff" d="M737.24,-312C751.99,-312 769.57,-312 785.6,-312"/>
<polygon fill="#63b8ff" stroke="#63b8ff" points="785.41,-315.5 795.41,-312 785.41,-308.5 785.41,-315.5"/>
</a>
</g>
</g>
<!-- Node7&#45;&gt;Node8 -->
<g id="edge7_Node000007_Node000008" class="edge">
<title>Node7&#45;&gt;Node8</title>
<g id="a_edge7_Node000007_Node000008"><a xlink:title=" ">
<path fill="none" stroke="#63b8ff" d="M761.35,-358.5C771.93,-360.06 782.77,-361.66 792.69,-363.12"/>
<polygon fill="#63b8ff" stroke="#63b8ff" points="791.94,-366.55 802.34,-364.55 792.96,-359.63 791.94,-366.55"/>
</a>
</g>
</g>
<!-- Node8&#45;&gt;Node8 -->
<g id="edge8_Node000008_Node000008" class="edge">
<title>Node8&#45;&gt;Node8</title>
<g id="a_edge8_Node000008_Node000008"><a xlink:title=" ">
<path fill="none" stroke="#63b8ff" d="M816.66,-379.34C809.46,-387.98 815.07,-397 833.5,-397 843.58,-397 849.82,-394.3 852.23,-390.44"/>
<polygon fill="#63b8ff" stroke="#63b8ff" points="855.73,-390.1 850.6,-380.83 848.83,-391.28 855.73,-390.1"/>
</a>
</g>
</g>
<!-- Node9&#45;&gt;Node4 -->
<g id="edge10_Node000009_Node000004" class="edge">
<title>Node9&#45;&gt;Node4</title>
<g id="a_edge10_Node000009_Node000004"><a xlink:title=" ">
<path fill="none" stroke="#63b8ff" d="M592.01,-253.43C612.14,-257.2 636.66,-261.8 657.41,-265.69"/>
<polygon fill="#63b8ff" stroke="#63b8ff" points="656.54,-269.09 667.02,-267.49 657.83,-262.21 656.54,-269.09"/>
</a>
</g>
</g>
<!-- Node9&#45;&gt;Node5 -->
<g id="edge11_Node000009_Node000005" class="edge">
<title>Node9&#45;&gt;Node5</title>
<g id="a_edge11_Node000009_Node000005"><a xlink:title=" ">
<path fill="none" stroke="#63b8ff" d="M570.69,-256.39C589,-266.52 618.16,-281.99 644.5,-293 648.62,-294.72 652.96,-296.4 657.33,-298"/>
<polygon fill="#63b8ff" stroke="#63b8ff" points="656.11,-301.28 666.71,-301.29 658.43,-294.68 656.11,-301.28"/>
</a>
</g>
</g>
<!-- Node9&#45;&gt;Node10 -->
<g id="edge12_Node000009_Node000010" class="edge">
<title>Node9&#45;&gt;Node10</title>
<g id="a_edge12_Node000009_Node000010"><a xlink:title=" ">
<path fill="none" stroke="#63b8ff" d="M584.79,-235.58C606.34,-228.66 634.9,-219.48 658.41,-211.93"/>
<polygon fill="#63b8ff" stroke="#63b8ff" points="659.25,-215.33 667.7,-208.94 657.11,-208.67 659.25,-215.33"/>
</a>
</g>
</g>
<!-- Node11 -->
<g id="Node000011" class="node">
<title>Node11</title>
<g id="a_Node000011"><a xlink:href="fopencv_8cpp.html#ae51fd1f3ed39bd8c9b8da4a313d5aeb3" target="_top" xlink:title=" ">
<polygon fill="white" stroke="#666666" points="752,-246 653.5,-246 653.5,-226 752,-226 752,-246"/>
<text text-anchor="middle" x="702.75" y="-232.5" font-family="Helvetica,sans-Serif" font-size="10.00">oneMatchTemplate</text>
</a>
</g>
</g>
<!-- Node9&#45;&gt;Node11 -->
<g id="edge13_Node000009_Node000011" class="edge">
<title>Node9&#45;&gt;Node11</title>
<g id="a_edge13_Node000009_Node000011"><a xlink:title=" ">
<path fill="none" stroke="#63b8ff" d="M592.01,-243.35C607.25,-242.33 625.01,-241.14 641.74,-240.02"/>
<polygon fill="#63b8ff" stroke="#63b8ff" points="641.87,-243.52 651.61,-239.36 641.4,-236.53 641.87,-243.52"/>
</a>
</g>
</g>
<!-- Node13 -->
<g id="Node000013" class="node">
<title>Node13</title>
<g id="a_Node000013"><a xlink:href="struct_template.html#a93d3c6f97592ba09d7819fda3c3296d7" target="_top" xlink:title=" ">
<polygon fill="white" stroke="#666666" points="437.62,-48 341.38,-48 341.38,-28 437.62,-28 437.62,-48"/>
<text text-anchor="middle" x="389.5" y="-34.5" font-family="Helvetica,sans-Serif" font-size="10.00">Template::setType</text>
</a>
</g>
</g>
<!-- Node12&#45;&gt;Node13 -->
<g id="edge17_Node000012_Node000013" class="edge">
<title>Node12&#45;&gt;Node13</title>
<g id="a_edge17_Node000012_Node000013"><a xlink:title=" ">
<path fill="none" stroke="#63b8ff" d="M284.86,-44.25C299.52,-43.36 315.09,-42.43 329.59,-41.55"/>
<polygon fill="#63b8ff" stroke="#63b8ff" points="329.67,-45.05 339.44,-40.96 329.25,-38.07 329.67,-45.05"/>
</a>
</g>
</g>
<!-- Node15 -->
<g id="Node000015" class="node">
<title>Node15</title>
<g id="a_Node000015"><a xlink:href="fopencv_8cpp.html#a5c455ed716b7fa4c675446fc5b8ba4fb" target="_top" xlink:title=" ">
<polygon fill="white" stroke="#666666" points="420.38,-124 358.62,-124 358.62,-104 420.38,-104 420.38,-124"/>
<text text-anchor="middle" x="389.5" y="-110.5" font-family="Helvetica,sans-Serif" font-size="10.00">CreateMat</text>
</a>
</g>
</g>
<!-- Node14&#45;&gt;Node15 -->
<g id="edge19_Node000014_Node000015" class="edge">
<title>Node14&#45;&gt;Node15</title>
<g id="a_edge19_Node000014_Node000015"><a xlink:title=" ">
<path fill="none" stroke="#63b8ff" d="M282.51,-126.14C303.97,-123.68 327.68,-120.97 347.21,-118.73"/>
<polygon fill="#63b8ff" stroke="#63b8ff" points="347.44,-122.23 356.98,-117.61 346.65,-115.27 347.44,-122.23"/>
</a>
</g>
</g>
<!-- Node16 -->
<g id="Node000016" class="node">
<title>Node16</title>
<g id="a_Node000016"><a xlink:href="class_interactions.html#aed04f9177d2aba467d71818a5e82c7bc" target="_top" xlink:title=" ">
<polygon fill="white" stroke="#666666" points="446.62,-162 332.38,-162 332.38,-142 446.62,-142 446.62,-162"/>
<text text-anchor="middle" x="389.5" y="-148.5" font-family="Helvetica,sans-Serif" font-size="10.00">Interactions::fcpopupA</text>
</a>
</g>
</g>
<!-- Node14&#45;&gt;Node16 -->
<g id="edge20_Node000014_Node000016" class="edge">
<title>Node14&#45;&gt;Node16</title>
<g id="a_edge20_Node000014_Node000016"><a xlink:title=" ">
<path fill="none" stroke="#63b8ff" d="M282.51,-139.86C294.87,-141.28 307.98,-142.78 320.6,-144.22"/>
<polygon fill="#63b8ff" stroke="#63b8ff" points="320.19,-147.7 330.52,-145.36 320.98,-140.74 320.19,-147.7"/>
</a>
</g>
</g>
<!-- Node19 -->
<g id="Node000019" class="node">
<title>Node19</title>
<g id="a_Node000019"><a xlink:href="fadb_8cpp.html#aeec40a5f78ae4713eedd84cb5f75746f" target="_top" xlink:title=" ">
<polygon fill="white" stroke="#666666" points="421.5,-200 357.5,-200 357.5,-180 421.5,-180 421.5,-200"/>
<text text-anchor="middle" x="389.5" y="-186.5" font-family="Helvetica,sans-Serif" font-size="10.00">screenshot</text>
</a>
</g>
</g>
<!-- Node14&#45;&gt;Node19 -->
<g id="edge25_Node000014_Node000019" class="edge">
<title>Node14&#45;&gt;Node19</title>
<g id="a_edge25_Node000014_Node000019"><a xlink:title=" ">
<path fill="none" stroke="#63b8ff" d="M247.39,-143.35C267.09,-151.4 295.44,-162.57 320.75,-171 328.97,-173.74 337.84,-176.42 346.36,-178.86"/>
<polygon fill="#63b8ff" stroke="#63b8ff" points="345.25,-182.18 355.82,-181.51 347.14,-175.44 345.25,-182.18"/>
</a>
</g>
</g>
<!-- Node16&#45;&gt;Node9 -->
<g id="edge23_Node000016_Node000009" class="edge">
<title>Node16&#45;&gt;Node9</title>
<g id="a_edge23_Node000016_Node000009"><a xlink:title=" ">
<path fill="none" stroke="#63b8ff" d="M437.39,-162.42C444.56,-164.79 451.74,-167.63 458.25,-171 486.94,-185.88 515.02,-210.64 532.49,-227.61"/>
<polygon fill="#63b8ff" stroke="#63b8ff" points="529.98,-230.05 539.53,-234.62 534.91,-225.08 529.98,-230.05"/>
</a>
</g>
</g>
<!-- Node17 -->
<g id="Node000017" class="node">
<title>Node17</title>
<g id="a_Node000017"><a xlink:href="class_interactions.html#aae6172962092f278714536142e987cde" target="_top" xlink:title=" ">
<polygon fill="white" stroke="#666666" points="598,-124 504.75,-124 504.75,-104 598,-104 598,-124"/>
<text text-anchor="middle" x="551.38" y="-110.5" font-family="Helvetica,sans-Serif" font-size="10.00">Interactions::click</text>
</a>
</g>
</g>
<!-- Node16&#45;&gt;Node17 -->
<g id="edge21_Node000016_Node000017" class="edge">
<title>Node16&#45;&gt;Node17</title>
<g id="a_edge21_Node000016_Node000017"><a xlink:title=" ">
<path fill="none" stroke="#63b8ff" d="M434.61,-141.52C453.39,-137.05 475.51,-131.79 495.35,-127.08"/>
<polygon fill="#63b8ff" stroke="#63b8ff" points="496.02,-130.52 504.94,-124.8 494.4,-123.71 496.02,-130.52"/>
</a>
</g>
</g>
<!-- Node18 -->
<g id="Node000018" class="node">
<title>Node18</title>
<g id="a_Node000018"><a xlink:href="class_interactions.html#abd5b5d8a44970e1333e3611e302f166c" target="_top" xlink:title=" ">
<polygon fill="white" stroke="#666666" points="596.88,-86 505.88,-86 505.88,-66 596.88,-66 596.88,-86"/>
<text text-anchor="middle" x="551.38" y="-72.5" font-family="Helvetica,sans-Serif" font-size="10.00">Interactions::wait</text>
</a>
</g>
</g>
<!-- Node16&#45;&gt;Node18 -->
<g id="edge24_Node000016_Node000018" class="edge">
<title>Node16&#45;&gt;Node18</title>
<g id="a_edge24_Node000016_Node000018"><a xlink:title=" ">
<path fill="none" stroke="#63b8ff" d="M439.93,-141.55C446.32,-139.22 452.6,-136.41 458.25,-133 478.17,-120.98 474.66,-107.54 494.25,-95 496.48,-93.57 498.83,-92.24 501.25,-91"/>
<polygon fill="#63b8ff" stroke="#63b8ff" points="502.43,-94.31 510.11,-87.01 499.56,-87.92 502.43,-94.31"/>
</a>
</g>
</g>
<!-- Node17&#45;&gt;Node17 -->
<g id="edge22_Node000017_Node000017" class="edge">
<title>Node17&#45;&gt;Node17</title>
<g id="a_edge22_Node000017_Node000017"><a xlink:title=" ">
<path fill="none" stroke="#63b8ff" d="M527.32,-124.34C517.04,-132.98 525.06,-142 551.38,-142 565.77,-142 574.68,-139.3 578.13,-135.44"/>
<polygon fill="#63b8ff" stroke="#63b8ff" points="581.55,-134.7 575.78,-125.81 574.75,-136.35 581.55,-134.7"/>
</a>
</g>
</g>
<!-- Node20 -->
<g id="Node000020" class="node">
<title>Node20</title>
<g id="a_Node000020"><a xlink:href="fadb_8cpp.html#a7ab9819839864ebd26d0e7e68e330418" target="_top" xlink:title=" ">
<polygon fill="white" stroke="#666666" points="593.5,-180 509.25,-180 509.25,-160 593.5,-160 593.5,-180"/>
<text text-anchor="middle" x="551.38" y="-166.5" font-family="Helvetica,sans-Serif" font-size="10.00">takeScreenshot</text>
</a>
</g>
</g>
<!-- Node19&#45;&gt;Node20 -->
<g id="edge26_Node000019_Node000020" class="edge">
<title>Node19&#45;&gt;Node20</title>
<g id="a_edge26_Node000019_Node000020"><a xlink:title=" ">
<path fill="none" stroke="#63b8ff" d="M421.71,-186.1C443.3,-183.4 472.56,-179.73 497.72,-176.59"/>
<polygon fill="#63b8ff" stroke="#63b8ff" points="497.96,-180.08 507.45,-175.37 497.1,-173.14 497.96,-180.08"/>
</a>
</g>
</g>
<!-- Node21 -->
<g id="Node000021" class="node">
<title>Node21</title>
<g id="a_Node000021"><a xlink:href="fadb_8cpp.html#ac6339b59ba8238f7483dece7f3fdf51b" target="_top" xlink:title=" ">
<polygon fill="white" stroke="#666666" points="747.12,-170 658.38,-170 658.38,-150 747.12,-150 747.12,-170"/>
<text text-anchor="middle" x="702.75" y="-156.5" font-family="Helvetica,sans-Serif" font-size="10.00">runAdbLocalhost</text>
</a>
</g>
</g>
<!-- Node20&#45;&gt;Node21 -->
<g id="edge27_Node000020_Node000021" class="edge">
<title>Node20&#45;&gt;Node21</title>
<g id="a_edge27_Node000020_Node000021"><a xlink:title=" ">
<path fill="none" stroke="#63b8ff" d="M593.98,-167.21C610.34,-166.12 629.35,-164.85 646.81,-163.68"/>
<polygon fill="#63b8ff" stroke="#63b8ff" points="646.76,-167.19 656.51,-163.03 646.3,-160.2 646.76,-167.19"/>
</a>
</g>
</g>
<!-- Node22 -->
<g id="Node000022" class="node">
<title>Node22</title>
<g id="a_Node000022"><a xlink:href="fadb_8cpp.html#a383ae5fedc9f597a03c74c729a2eb740" target="_top" xlink:title=" ">
<polygon fill="white" stroke="#666666" points="856.88,-170 810.12,-170 810.12,-150 856.88,-150 856.88,-170"/>
<text text-anchor="middle" x="833.5" y="-156.5" font-family="Helvetica,sans-Serif" font-size="10.00">runAdb</text>
</a>
</g>
</g>
<!-- Node21&#45;&gt;Node22 -->
<g id="edge28_Node000021_Node000022" class="edge">
<title>Node21&#45;&gt;Node22</title>
<g id="a_edge28_Node000021_Node000022"><a xlink:title=" ">
<path fill="none" stroke="#63b8ff" d="M747.34,-160C764.08,-160 782.93,-160 798.62,-160"/>
<polygon fill="#63b8ff" stroke="#63b8ff" points="798.41,-163.5 808.41,-160 798.41,-156.5 798.41,-163.5"/>
</a>
</g>
</g>
<!-- Node23 -->
<g id="Node000023" class="node">
<title>Node23</title>
<g id="a_Node000023"><a xlink:href="sys_commands_8cpp.html#a321eb7e335377aa7182bafc8a1605032" target="_top" xlink:title=" ">
<polygon fill="white" stroke="#666666" points="973,-170 906,-170 906,-150 973,-150 973,-170"/>
<text text-anchor="middle" x="939.5" y="-156.5" font-family="Helvetica,sans-Serif" font-size="10.00">receivePipe</text>
</a>
</g>
</g>
<!-- Node22&#45;&gt;Node23 -->
<g id="edge29_Node000022_Node000023" class="edge">
<title>Node22&#45;&gt;Node23</title>
<g id="a_edge29_Node000022_Node000023"><a xlink:title=" ">
<path fill="none" stroke="#63b8ff" d="M857.32,-160C868.22,-160 881.64,-160 894.41,-160"/>
<polygon fill="#63b8ff" stroke="#63b8ff" points="894.35,-163.5 904.35,-160 894.35,-156.5 894.35,-163.5"/>
</a>
</g>
</g>
<!-- Node24 -->
<g id="Node000024" class="node">
<title>Node24</title>
<g id="a_Node000024"><a xlink:href="sys_commands_8cpp.html#a4771c79171a937893508dabadadbe099" target="_top" xlink:title=" ">
<polygon fill="white" stroke="#666666" points="1067.75,-189 1009,-189 1009,-169 1067.75,-169 1067.75,-189"/>
<text text-anchor="middle" x="1038.38" y="-175.5" font-family="Helvetica,sans-Serif" font-size="10.00">closePipe</text>
</a>
</g>
</g>
<!-- Node23&#45;&gt;Node24 -->
<g id="edge30_Node000023_Node000024" class="edge">
<title>Node23&#45;&gt;Node24</title>
<g id="a_edge30_Node000023_Node000024"><a xlink:title=" ">
<path fill="none" stroke="#63b8ff" d="M973.3,-166.43C981.06,-167.95 989.42,-169.59 997.46,-171.17"/>
<polygon fill="#63b8ff" stroke="#63b8ff" points="996.53,-174.56 1007.02,-173.05 997.88,-167.69 996.53,-174.56"/>
</a>
</g>
</g>
<!-- Node25 -->
<g id="Node000025" class="node">
<title>Node25</title>
<g id="a_Node000025"><a xlink:href="sys_commands_8cpp.html#a3499ce0cd7e4ed28b3c5461a4d3aec84" target="_top" xlink:title=" ">
<polygon fill="white" stroke="#666666" points="1066.62,-151 1010.12,-151 1010.12,-131 1066.62,-131 1066.62,-151"/>
<text text-anchor="middle" x="1038.38" y="-137.5" font-family="Helvetica,sans-Serif" font-size="10.00">openPipe</text>
</a>
</g>
</g>
<!-- Node23&#45;&gt;Node25 -->
<g id="edge31_Node000023_Node000025" class="edge">
<title>Node23&#45;&gt;Node25</title>
<g id="a_edge31_Node000023_Node000025"><a xlink:title=" ">
<path fill="none" stroke="#63b8ff" d="M973.3,-153.57C981.45,-151.97 990.26,-150.24 998.67,-148.59"/>
<polygon fill="#63b8ff" stroke="#63b8ff" points="999.15,-152.06 1008.29,-146.7 997.8,-145.19 999.15,-152.06"/>
</a>
</g>
</g>
<!-- Node27&#45;&gt;Node17 -->
<g id="edge34_Node000027_Node000017" class="edge">
<title>Node27&#45;&gt;Node17</title>
<g id="a_edge34_Node000027_Node000017"><a xlink:title=" ">
<path fill="none" stroke="#63b8ff" d="M434.61,-86.48C453.39,-90.95 475.51,-96.21 495.35,-100.92"/>
<polygon fill="#63b8ff" stroke="#63b8ff" points="494.4,-104.29 504.94,-103.2 496.02,-97.48 494.4,-104.29"/>
</a>
</g>
</g>
<!-- Node27&#45;&gt;Node18 -->
<g id="edge35_Node000027_Node000018" class="edge">
<title>Node27&#45;&gt;Node18</title>
<g id="a_edge35_Node000027_Node000018"><a xlink:title=" ">
<path fill="none" stroke="#63b8ff" d="M458.3,-76C470.3,-76 482.67,-76 494.31,-76"/>
<polygon fill="#63b8ff" stroke="#63b8ff" points="494.13,-79.5 504.13,-76 494.13,-72.5 494.13,-79.5"/>
</a>
</g>
</g>
</g>
</svg>
