<?xml version="1.0" encoding="UTF-8" standalone="no"?>
<!DOCTYPE svg PUBLIC "-//W3C//DTD SVG 1.1//EN"
 "http://www.w3.org/Graphics/SVG/1.1/DTD/svg11.dtd">
<!-- Generated by graphviz version 12.2.0 (20241103.1931)
 -->
<!-- Title: PrintTag::execute Pages: 1 -->
<svg width="346pt" height="66pt"
 viewBox="0.00 0.00 346.25 66.00" xmlns="http://www.w3.org/2000/svg" xmlns:xlink="http://www.w3.org/1999/xlink">
<g id="graph0" class="graph" transform="scale(1 1) rotate(0) translate(4 62)">
<title>PrintTag::execute</title>
<!-- Node1 -->
<g id="Node000001" class="node">
<title>Node1</title>
<g id="a_Node000001"><a xlink:title=" ">
<polygon fill="#999999" stroke="#666666" points="92.5,-39 0,-39 0,-19 92.5,-19 92.5,-39"/>
<text text-anchor="middle" x="46.25" y="-25.5" font-family="Helvetica,sans-Serif" font-size="10.00">PrintTag::execute</text>
</a>
</g>
</g>
<!-- Node2 -->
<g id="Node000002" class="node">
<title>Node2</title>
<g id="a_Node000002"><a xlink:href="_tags_8cpp.html#adb0c764ef1f20ef3d860516a5040b43a" target="_top" xlink:title=" ">
<polygon fill="white" stroke="#666666" points="218,-58 128.5,-58 128.5,-38 218,-38 218,-58"/>
<text text-anchor="middle" x="173.25" y="-44.5" font-family="Helvetica,sans-Serif" font-size="10.00">executeDirection</text>
</a>
</g>
</g>
<!-- Node1&#45;&gt;Node2 -->
<g id="edge1_Node000001_Node000002" class="edge">
<title>Node1&#45;&gt;Node2</title>
<g id="a_edge1_Node000001_Node000002"><a xlink:title=" ">
<path fill="none" stroke="#63b8ff" d="M92.73,-35.91C100.61,-37.11 108.87,-38.37 116.98,-39.6"/>
<polygon fill="#63b8ff" stroke="#63b8ff" points="116.35,-43.04 126.77,-41.09 117.41,-36.12 116.35,-43.04"/>
</a>
</g>
</g>
<!-- Node4 -->
<g id="Node000004" class="node">
<title>Node4</title>
<g id="a_Node000004"><a xlink:href="_tags_8cpp.html#ad05fc0cffadc5a4fad1c4bea39546bb8" target="_top" xlink:title=" ">
<polygon fill="white" stroke="#666666" points="207.5,-20 139,-20 139,0 207.5,0 207.5,-20"/>
<text text-anchor="middle" x="173.25" y="-6.5" font-family="Helvetica,sans-Serif" font-size="10.00">getDirection</text>
</a>
</g>
</g>
<!-- Node1&#45;&gt;Node4 -->
<g id="edge3_Node000001_Node000004" class="edge">
<title>Node1&#45;&gt;Node4</title>
<g id="a_edge3_Node000001_Node000004"><a xlink:title=" ">
<path fill="none" stroke="#63b8ff" d="M92.73,-22.09C104.03,-20.37 116.12,-18.53 127.39,-16.82"/>
<polygon fill="#63b8ff" stroke="#63b8ff" points="127.9,-20.28 137.26,-15.32 126.85,-13.36 127.9,-20.28"/>
</a>
</g>
</g>
<!-- Node3 -->
<g id="Node000003" class="node">
<title>Node3</title>
<g id="a_Node000003"><a xlink:href="_tags_8cpp.html#a51e57c878c8df7f38ce915b45d3dc451" target="_top" xlink:title=" ">
<polygon fill="white" stroke="#666666" points="338.25,-58 254,-58 254,-38 338.25,-38 338.25,-58"/>
<text text-anchor="middle" x="296.12" y="-44.5" font-family="Helvetica,sans-Serif" font-size="10.00">getDirectionTag</text>
</a>
</g>
</g>
<!-- Node2&#45;&gt;Node3 -->
<g id="edge2_Node000002_Node000003" class="edge">
<title>Node2&#45;&gt;Node3</title>
<g id="a_edge2_Node000002_Node000003"><a xlink:title=" ">
<path fill="none" stroke="#63b8ff" d="M218.23,-48C226.12,-48 234.42,-48 242.52,-48"/>
<polygon fill="#63b8ff" stroke="#63b8ff" points="242.28,-51.5 252.28,-48 242.28,-44.5 242.28,-51.5"/>
</a>
</g>
</g>
</g>
</svg>
