<?xml version="1.0" encoding="UTF-8" standalone="no"?>
<!DOCTYPE svg PUBLIC "-//W3C//DTD SVG 1.1//EN"
 "http://www.w3.org/Graphics/SVG/1.1/DTD/svg11.dtd">
<!-- Generated by graphviz version 12.2.0 (20241103.1931)
 -->
<!-- Title: game::selectFavoritePreset Pages: 1 -->
<svg width="1110pt" height="256pt"
 viewBox="0.00 0.00 1109.50 256.00" xmlns="http://www.w3.org/2000/svg" xmlns:xlink="http://www.w3.org/1999/xlink">
<g id="graph0" class="graph" transform="scale(1 1) rotate(0) translate(4 252)">
<title>game::selectFavoritePreset</title>
<!-- Node1 -->
<g id="Node000001" class="node">
<title>Node1</title>
<g id="a_Node000001"><a xlink:title=" ">
<polygon fill="#999999" stroke="#666666" points="136,-115 0,-115 0,-95 136,-95 136,-115"/>
<text text-anchor="middle" x="68" y="-101.5" font-family="Helvetica,sans-Serif" font-size="10.00">game::selectFavoritePreset</text>
</a>
</g>
</g>
<!-- Node2 -->
<g id="Node000002" class="node">
<title>Node2</title>
<g id="a_Node000002"><a xlink:href="class_bot_config.html#ac766bf2645c392ae3057a93c7628aa85" target="_top" xlink:title=" ">
<polygon fill="white" stroke="#666666" points="302,-121 172,-121 172,-89 302,-89 302,-121"/>
<text text-anchor="start" x="180" y="-107.5" font-family="Helvetica,sans-Serif" font-size="10.00">BotConfig::updateFavorite</text>
<text text-anchor="middle" x="237" y="-95.5" font-family="Helvetica,sans-Serif" font-size="10.00">Preset</text>
</a>
</g>
</g>
<!-- Node1&#45;&gt;Node2 -->
<g id="edge1_Node000001_Node000002" class="edge">
<title>Node1&#45;&gt;Node2</title>
<g id="a_edge1_Node000001_Node000002"><a xlink:title=" ">
<path fill="none" stroke="#63b8ff" d="M136.44,-105C144.23,-105 152.21,-105 160.1,-105"/>
<polygon fill="#63b8ff" stroke="#63b8ff" points="160.04,-108.5 170.04,-105 160.04,-101.5 160.04,-108.5"/>
</a>
</g>
</g>
<!-- Node3 -->
<g id="Node000003" class="node">
<title>Node3</title>
<g id="a_Node000003"><a xlink:href="class_bot_config.html#ab92a15dd3027a7f42b452cdf5eaf9529" target="_top" xlink:title=" ">
<polygon fill="white" stroke="#666666" points="458.25,-115 338,-115 338,-95 458.25,-95 458.25,-115"/>
<text text-anchor="middle" x="398.12" y="-101.5" font-family="Helvetica,sans-Serif" font-size="10.00">BotConfig::updateString</text>
</a>
</g>
</g>
<!-- Node2&#45;&gt;Node3 -->
<g id="edge2_Node000002_Node000003" class="edge">
<title>Node2&#45;&gt;Node3</title>
<g id="a_edge2_Node000002_Node000003"><a xlink:title=" ">
<path fill="none" stroke="#63b8ff" d="M302.26,-105C310.09,-105 318.12,-105 326.03,-105"/>
<polygon fill="#63b8ff" stroke="#63b8ff" points="326,-108.5 336,-105 326,-101.5 326,-108.5"/>
</a>
</g>
</g>
<!-- Node4 -->
<g id="Node000004" class="node">
<title>Node4</title>
<g id="a_Node000004"><a xlink:href="_text_manager_8cpp.html#add36cc54cd9616a393a17b8961491477" target="_top" xlink:title=" ">
<polygon fill="white" stroke="#666666" points="574,-248 494.25,-248 494.25,-228 574,-228 574,-248"/>
<text text-anchor="middle" x="534.12" y="-234.5" font-family="Helvetica,sans-Serif" font-size="10.00">getFileContent</text>
</a>
</g>
</g>
<!-- Node3&#45;&gt;Node4 -->
<g id="edge3_Node000003_Node000004" class="edge">
<title>Node3&#45;&gt;Node4</title>
<g id="a_edge3_Node000003_Node000004"><a xlink:title=" ">
<path fill="none" stroke="#63b8ff" d="M406.39,-115.22C421.25,-135.66 456.89,-182.33 494.25,-214 497.31,-216.59 500.67,-219.1 504.1,-221.44"/>
<polygon fill="#63b8ff" stroke="#63b8ff" points="502.17,-224.36 512.48,-226.79 505.93,-218.46 502.17,-224.36"/>
</a>
</g>
</g>
<!-- Node5 -->
<g id="Node000005" class="node">
<title>Node5</title>
<g id="a_Node000005"><a xlink:href="_text_manager_8cpp.html#af24bee60aa1d3d5b4ae3bf6ebd267ecd" target="_top" xlink:title=" ">
<polygon fill="white" stroke="#666666" points="557.88,-134 510.38,-134 510.38,-114 557.88,-114 557.88,-134"/>
<text text-anchor="middle" x="534.12" y="-120.5" font-family="Helvetica,sans-Serif" font-size="10.00">getLine</text>
</a>
</g>
</g>
<!-- Node3&#45;&gt;Node5 -->
<g id="edge4_Node000003_Node000005" class="edge">
<title>Node3&#45;&gt;Node5</title>
<g id="a_edge4_Node000003_Node000005"><a xlink:title=" ">
<path fill="none" stroke="#63b8ff" d="M458.68,-113.44C472.45,-115.4 486.65,-117.41 498.9,-119.15"/>
<polygon fill="#63b8ff" stroke="#63b8ff" points="498.09,-122.57 508.48,-120.51 499.07,-115.64 498.09,-122.57"/>
</a>
</g>
</g>
<!-- Node7 -->
<g id="Node000007" class="node">
<title>Node7</title>
<g id="a_Node000007"><a xlink:href="_text_manager_8cpp.html#a6956d58559ef67f422247fdeb1c22775" target="_top" xlink:title=" ">
<polygon fill="white" stroke="#666666" points="846.75,-153 770.75,-153 770.75,-133 846.75,-133 846.75,-153"/>
<text text-anchor="middle" x="808.75" y="-139.5" font-family="Helvetica,sans-Serif" font-size="10.00">getStringAfter</text>
</a>
</g>
</g>
<!-- Node3&#45;&gt;Node7 -->
<g id="edge17_Node000003_Node000007" class="edge">
<title>Node3&#45;&gt;Node7</title>
<g id="a_edge17_Node000003_Node000007"><a xlink:title=" ">
<path fill="none" stroke="#63b8ff" d="M419.68,-115.36C456.62,-133.3 537.18,-169.35 610,-181 663.1,-189.49 678.64,-193.25 731,-181 749.17,-176.75 767.98,-167.53 782.43,-159.24"/>
<polygon fill="#63b8ff" stroke="#63b8ff" points="784.02,-162.36 790.81,-154.22 780.43,-156.35 784.02,-162.36"/>
</a>
</g>
</g>
<!-- Node11 -->
<g id="Node000011" class="node">
<title>Node11</title>
<g id="a_Node000011"><a xlink:href="_text_manager_8cpp.html#aff8311b88dbf5f3091f3ac1262543242" target="_top" xlink:title=" ">
<polygon fill="white" stroke="#666666" points="850.5,-96 767,-96 767,-76 850.5,-76 850.5,-96"/>
<text text-anchor="middle" x="808.75" y="-82.5" font-family="Helvetica,sans-Serif" font-size="10.00">getStringBefore</text>
</a>
</g>
</g>
<!-- Node3&#45;&gt;Node11 -->
<g id="edge18_Node000003_Node000011" class="edge">
<title>Node3&#45;&gt;Node11</title>
<g id="a_edge18_Node000003_Node000011"><a xlink:title=" ">
<path fill="none" stroke="#63b8ff" d="M438.23,-94.55C500.31,-79.3 625.22,-54.1 731,-67 741.2,-68.24 751.99,-70.38 762.16,-72.79"/>
<polygon fill="#63b8ff" stroke="#63b8ff" points="761.3,-76.18 771.85,-75.22 763,-69.39 761.3,-76.18"/>
</a>
</g>
</g>
<!-- Node13 -->
<g id="Node000013" class="node">
<title>Node13</title>
<g id="a_Node000013"><a xlink:href="_text_manager_8cpp.html#ac695ebe5513185f42689b419f58d8a83" target="_top" xlink:title=" ">
<polygon fill="white" stroke="#666666" points="710.38,-96 630.62,-96 630.62,-76 710.38,-76 710.38,-96"/>
<text text-anchor="middle" x="670.5" y="-82.5" font-family="Helvetica,sans-Serif" font-size="10.00">updateContent</text>
</a>
</g>
</g>
<!-- Node3&#45;&gt;Node13 -->
<g id="edge19_Node000003_Node000013" class="edge">
<title>Node3&#45;&gt;Node13</title>
<g id="a_edge19_Node000003_Node000013"><a xlink:title=" ">
<path fill="none" stroke="#63b8ff" d="M458.46,-100.83C506.51,-97.45 573.46,-92.75 618.97,-89.55"/>
<polygon fill="#63b8ff" stroke="#63b8ff" points="619.11,-93.05 628.84,-88.86 618.62,-86.07 619.11,-93.05"/>
</a>
</g>
</g>
<!-- Node14 -->
<g id="Node000014" class="node">
<title>Node14</title>
<g id="a_Node000014"><a xlink:href="_text_manager_8cpp.html#ab55140c566370b105b9bf81756293fa5" target="_top" xlink:title=" ">
<polygon fill="white" stroke="#666666" points="565.75,-20 502.5,-20 502.5,0 565.75,0 565.75,-20"/>
<text text-anchor="middle" x="534.12" y="-6.5" font-family="Helvetica,sans-Serif" font-size="10.00">writeToFile</text>
</a>
</g>
</g>
<!-- Node3&#45;&gt;Node14 -->
<g id="edge22_Node000003_Node000014" class="edge">
<title>Node3&#45;&gt;Node14</title>
<g id="a_edge22_Node000003_Node000014"><a xlink:title=" ">
<path fill="none" stroke="#63b8ff" d="M412.4,-94.51C430.54,-80.3 464.26,-54.39 494.25,-34 497.98,-31.46 501.97,-28.87 505.92,-26.37"/>
<polygon fill="#63b8ff" stroke="#63b8ff" points="507.56,-29.47 514.21,-21.23 503.87,-23.52 507.56,-29.47"/>
</a>
</g>
</g>
<!-- Node6 -->
<g id="Node000006" class="node">
<title>Node6</title>
<g id="a_Node000006"><a xlink:href="_text_manager_8cpp.html#a85a282af68cca7cf7d69487d1bacdc47" target="_top" xlink:title=" ">
<polygon fill="white" stroke="#666666" points="712.62,-172 628.38,-172 628.38,-152 712.62,-152 712.62,-172"/>
<text text-anchor="middle" x="670.5" y="-158.5" font-family="Helvetica,sans-Serif" font-size="10.00">extractBetween</text>
</a>
</g>
</g>
<!-- Node5&#45;&gt;Node6 -->
<g id="edge5_Node000005_Node000006" class="edge">
<title>Node5&#45;&gt;Node6</title>
<g id="a_edge5_Node000005_Node000006"><a xlink:title=" ">
<path fill="none" stroke="#63b8ff" d="M558.22,-130.53C575.61,-135.45 600.03,-142.36 621.58,-148.45"/>
<polygon fill="#63b8ff" stroke="#63b8ff" points="620.49,-151.78 631.07,-151.13 622.4,-145.04 620.49,-151.78"/>
</a>
</g>
</g>
<!-- Node12 -->
<g id="Node000012" class="node">
<title>Node12</title>
<g id="a_Node000012"><a xlink:href="_text_manager_8cpp.html#a84a9e24fc5cce3cebf746bb656909bf8" target="_top" xlink:title=" ">
<polygon fill="white" stroke="#666666" points="731,-134 610,-134 610,-114 731,-114 731,-134"/>
<text text-anchor="middle" x="670.5" y="-120.5" font-family="Helvetica,sans-Serif" font-size="10.00">extractBetweenReverse</text>
</a>
</g>
</g>
<!-- Node5&#45;&gt;Node12 -->
<g id="edge14_Node000005_Node000012" class="edge">
<title>Node5&#45;&gt;Node12</title>
<g id="a_edge14_Node000005_Node000012"><a xlink:title=" ">
<path fill="none" stroke="#63b8ff" d="M558.22,-124C569.59,-124 583.96,-124 598.57,-124"/>
<polygon fill="#63b8ff" stroke="#63b8ff" points="598.23,-127.5 608.23,-124 598.23,-120.5 598.23,-127.5"/>
</a>
</g>
</g>
<!-- Node6&#45;&gt;Node7 -->
<g id="edge6_Node000006_Node000007" class="edge">
<title>Node6&#45;&gt;Node7</title>
<g id="a_edge6_Node000006_Node000007"><a xlink:title=" ">
<path fill="none" stroke="#63b8ff" d="M713.12,-156.2C727.71,-154.16 744.23,-151.86 759.33,-149.75"/>
<polygon fill="#63b8ff" stroke="#63b8ff" points="759.63,-153.24 769.05,-148.4 758.66,-146.31 759.63,-153.24"/>
</a>
</g>
</g>
<!-- Node6&#45;&gt;Node11 -->
<g id="edge12_Node000006_Node000011" class="edge">
<title>Node6&#45;&gt;Node11</title>
<g id="a_edge12_Node000006_Node000011"><a xlink:title=" ">
<path fill="none" stroke="#63b8ff" d="M710.65,-151.54C717.59,-149.11 724.63,-146.27 731,-143 751.91,-132.27 773.17,-115.97 788,-103.55"/>
<polygon fill="#63b8ff" stroke="#63b8ff" points="789.88,-106.55 795.19,-97.38 785.32,-101.23 789.88,-106.55"/>
</a>
</g>
</g>
<!-- Node8 -->
<g id="Node000008" class="node">
<title>Node8</title>
<g id="a_Node000008"><a xlink:href="_text_manager_8cpp.html#a5b66873abcff2faee361721f86b65dd0" target="_top" xlink:title=" ">
<polygon fill="white" stroke="#666666" points="964.75,-134 897,-134 897,-114 964.75,-114 964.75,-134"/>
<text text-anchor="middle" x="930.88" y="-120.5" font-family="Helvetica,sans-Serif" font-size="10.00">getPosAfter</text>
</a>
</g>
</g>
<!-- Node7&#45;&gt;Node8 -->
<g id="edge7_Node000007_Node000008" class="edge">
<title>Node7&#45;&gt;Node8</title>
<g id="a_edge7_Node000007_Node000008"><a xlink:title=" ">
<path fill="none" stroke="#63b8ff" d="M847.1,-137.09C859.23,-135.17 872.8,-133.03 885.4,-131.03"/>
<polygon fill="#63b8ff" stroke="#63b8ff" points="885.79,-134.52 895.13,-129.5 884.7,-127.6 885.79,-134.52"/>
</a>
</g>
</g>
<!-- Node10 -->
<g id="Node000010" class="node">
<title>Node10</title>
<g id="a_Node000010"><a xlink:href="_text_manager_8cpp.html#a2946b90fb3df56b0a74d53eb4160f4e2" target="_top" xlink:title=" ">
<polygon fill="white" stroke="#666666" points="975.25,-172 886.5,-172 886.5,-152 975.25,-152 975.25,-172"/>
<text text-anchor="middle" x="930.88" y="-158.5" font-family="Helvetica,sans-Serif" font-size="10.00">getStringStarting</text>
</a>
</g>
</g>
<!-- Node7&#45;&gt;Node10 -->
<g id="edge9_Node000007_Node000010" class="edge">
<title>Node7&#45;&gt;Node10</title>
<g id="a_edge9_Node000007_Node000010"><a xlink:title=" ">
<path fill="none" stroke="#63b8ff" d="M847.1,-148.91C855.91,-150.3 865.49,-151.82 874.9,-153.31"/>
<polygon fill="#63b8ff" stroke="#63b8ff" points="874.32,-156.76 884.74,-154.86 875.41,-149.84 874.32,-156.76"/>
</a>
</g>
</g>
<!-- Node9 -->
<g id="Node000009" class="node">
<title>Node9</title>
<g id="a_Node000009"><a xlink:href="_text_manager_8cpp.html#a3f4afb2b62acd297e783a22ffa9a7000" target="_top" xlink:title=" ">
<polygon fill="white" stroke="#666666" points="1101.5,-134 1011.25,-134 1011.25,-114 1101.5,-114 1101.5,-134"/>
<text text-anchor="middle" x="1056.38" y="-120.5" font-family="Helvetica,sans-Serif" font-size="10.00">getSequencePos</text>
</a>
</g>
</g>
<!-- Node8&#45;&gt;Node9 -->
<g id="edge8_Node000008_Node000009" class="edge">
<title>Node8&#45;&gt;Node9</title>
<g id="a_edge8_Node000008_Node000009"><a xlink:title=" ">
<path fill="none" stroke="#63b8ff" d="M964.97,-124C975.69,-124 987.89,-124 999.79,-124"/>
<polygon fill="#63b8ff" stroke="#63b8ff" points="999.52,-127.5 1009.52,-124 999.52,-120.5 999.52,-127.5"/>
</a>
</g>
</g>
<!-- Node10&#45;&gt;Node9 -->
<g id="edge10_Node000010_Node000009" class="edge">
<title>Node10&#45;&gt;Node9</title>
<g id="a_edge10_Node000010_Node000009"><a xlink:title=" ">
<path fill="none" stroke="#63b8ff" d="M965.95,-151.52C979.72,-147.28 995.8,-142.33 1010.5,-137.81"/>
<polygon fill="#63b8ff" stroke="#63b8ff" points="1011.44,-141.18 1019.97,-134.9 1009.38,-134.49 1011.44,-141.18"/>
</a>
</g>
</g>
<!-- Node10&#45;&gt;Node10 -->
<g id="edge11_Node000010_Node000010" class="edge">
<title>Node10&#45;&gt;Node10</title>
<g id="a_edge11_Node000010_Node000010"><a xlink:title=" ">
<path fill="none" stroke="#63b8ff" d="M911.47,-172.34C903.18,-180.98 909.65,-190 930.88,-190 942.48,-190 949.68,-187.3 952.46,-183.44"/>
<polygon fill="#63b8ff" stroke="#63b8ff" points="955.93,-182.96 950.57,-173.82 949.06,-184.31 955.93,-182.96"/>
</a>
</g>
</g>
<!-- Node11&#45;&gt;Node9 -->
<g id="edge13_Node000011_Node000009" class="edge">
<title>Node11&#45;&gt;Node9</title>
<g id="a_edge13_Node000011_Node000009"><a xlink:title=" ">
<path fill="none" stroke="#63b8ff" d="M850.75,-89.34C884.36,-92.41 933.09,-97.61 975.25,-105 984.76,-106.67 994.84,-108.78 1004.51,-110.98"/>
<polygon fill="#63b8ff" stroke="#63b8ff" points="1003.62,-114.37 1014.15,-113.25 1005.22,-107.55 1003.62,-114.37"/>
</a>
</g>
</g>
<!-- Node12&#45;&gt;Node7 -->
<g id="edge15_Node000012_Node000007" class="edge">
<title>Node12&#45;&gt;Node7</title>
<g id="a_edge15_Node000012_Node000007"><a xlink:title=" ">
<path fill="none" stroke="#63b8ff" d="M731.26,-132.33C740.61,-133.64 750.18,-134.97 759.24,-136.23"/>
<polygon fill="#63b8ff" stroke="#63b8ff" points="758.5,-139.67 768.89,-137.58 759.47,-132.73 758.5,-139.67"/>
</a>
</g>
</g>
<!-- Node12&#45;&gt;Node11 -->
<g id="edge16_Node000012_Node000011" class="edge">
<title>Node12&#45;&gt;Node11</title>
<g id="a_edge16_Node000012_Node000011"><a xlink:title=" ">
<path fill="none" stroke="#63b8ff" d="M709.09,-113.52C724.58,-109.2 742.72,-104.14 759.2,-99.54"/>
<polygon fill="#63b8ff" stroke="#63b8ff" points="760.13,-102.91 768.82,-96.86 758.25,-96.17 760.13,-102.91"/>
</a>
</g>
</g>
<!-- Node13&#45;&gt;Node7 -->
<g id="edge20_Node000013_Node000007" class="edge">
<title>Node13&#45;&gt;Node7</title>
<g id="a_edge20_Node000013_Node000007"><a xlink:title=" ">
<path fill="none" stroke="#63b8ff" d="M707.37,-96.49C715.23,-99.06 723.46,-101.95 731,-105 747.15,-111.53 764.59,-120.04 778.75,-127.35"/>
<polygon fill="#63b8ff" stroke="#63b8ff" points="777.05,-130.41 787.54,-131.95 780.3,-124.21 777.05,-130.41"/>
</a>
</g>
</g>
<!-- Node13&#45;&gt;Node11 -->
<g id="edge21_Node000013_Node000011" class="edge">
<title>Node13&#45;&gt;Node11</title>
<g id="a_edge21_Node000013_Node000011"><a xlink:title=" ">
<path fill="none" stroke="#63b8ff" d="M710.54,-86C724.58,-86 740.64,-86 755.62,-86"/>
<polygon fill="#63b8ff" stroke="#63b8ff" points="755.29,-89.5 765.29,-86 755.29,-82.5 755.29,-89.5"/>
</a>
</g>
</g>
<!-- Node15 -->
<g id="Node000015" class="node">
<title>Node15</title>
<g id="a_Node000015"><a xlink:href="_text_manager_8cpp.html#a4a86df56d2737552b2fd63bfa85c5800" target="_top" xlink:title=" ">
<polygon fill="white" stroke="#666666" points="713.38,-20 627.62,-20 627.62,0 713.38,0 713.38,-20"/>
<text text-anchor="middle" x="670.5" y="-6.5" font-family="Helvetica,sans-Serif" font-size="10.00">getOfstreamFile</text>
</a>
</g>
</g>
<!-- Node14&#45;&gt;Node15 -->
<g id="edge23_Node000014_Node000015" class="edge">
<title>Node14&#45;&gt;Node15</title>
<g id="a_edge23_Node000014_Node000015"><a xlink:title=" ">
<path fill="none" stroke="#63b8ff" d="M565.95,-10C580.75,-10 598.91,-10 615.87,-10"/>
<polygon fill="#63b8ff" stroke="#63b8ff" points="615.85,-13.5 625.85,-10 615.85,-6.5 615.85,-13.5"/>
</a>
</g>
</g>
</g>
</svg>
