<?xml version="1.0" encoding="UTF-8" standalone="no"?>
<!DOCTYPE svg PUBLIC "-//W3C//DTD SVG 1.1//EN"
 "http://www.w3.org/Graphics/SVG/1.1/DTD/svg11.dtd">
<!-- Generated by graphviz version 12.2.0 (20241103.1931)
 -->
<!-- Title: StoreToken::addTokens Pages: 1 -->
<svg width="696pt" height="260pt"
 viewBox="0.00 0.00 696.25 259.54" xmlns="http://www.w3.org/2000/svg" xmlns:xlink="http://www.w3.org/1999/xlink">
<g id="graph0" class="graph" transform="scale(1 1) rotate(0) translate(4 255.54)">
<title>StoreToken::addTokens</title>
<!-- Node1 -->
<g id="Node000001" class="node">
<title>Node1</title>
<g id="a_Node000001"><a xlink:title=" ">
<polygon fill="#999999" stroke="#666666" points="118.75,-153 0,-153 0,-133 118.75,-133 118.75,-153"/>
<text text-anchor="middle" x="59.38" y="-139.5" font-family="Helvetica,sans-Serif" font-size="10.00">StoreToken::addTokens</text>
</a>
</g>
</g>
<!-- Node2 -->
<g id="Node000002" class="node">
<title>Node2</title>
<g id="a_Node000002"><a xlink:href="class_k_p_token.html#a53794cd4c78b5873550ca3f5a457f346" target="_top" xlink:title=" ">
<polygon fill="white" stroke="#666666" points="273.12,-229 161.12,-229 161.12,-209 273.12,-209 273.12,-229"/>
<text text-anchor="middle" x="217.12" y="-215.5" font-family="Helvetica,sans-Serif" font-size="10.00">KPToken::addComma</text>
</a>
</g>
</g>
<!-- Node1&#45;&gt;Node2 -->
<g id="edge1_Node000001_Node000002" class="edge">
<title>Node1&#45;&gt;Node2</title>
<g id="a_edge1_Node000001_Node000002"><a xlink:title=" ">
<path fill="none" stroke="#63b8ff" d="M75.12,-153.47C93.19,-165.91 125.06,-186.68 154.75,-200 158.53,-201.7 162.51,-203.3 166.55,-204.81"/>
<polygon fill="#63b8ff" stroke="#63b8ff" points="165.26,-208.07 175.86,-208.05 167.57,-201.45 165.26,-208.07"/>
</a>
</g>
</g>
<!-- Node6 -->
<g id="Node000006" class="node">
<title>Node6</title>
<g id="a_Node000006"><a xlink:href="class_iterator_list.html#af5c370ccb8698e2a9fb0714782d57203" target="_top" xlink:title=" ">
<polygon fill="white" stroke="#666666" points="421.5,-229 334.25,-229 334.25,-209 421.5,-209 421.5,-229"/>
<text text-anchor="middle" x="377.88" y="-215.5" font-family="Helvetica,sans-Serif" font-size="10.00">IteratorList::next</text>
</a>
</g>
</g>
<!-- Node1&#45;&gt;Node6 -->
<g id="edge32_Node000001_Node000006" class="edge">
<title>Node1&#45;&gt;Node6</title>
<g id="a_edge32_Node000001_Node000006"><a xlink:title=" ">
<path fill="none" stroke="#63b8ff" d="M66.56,-153.32C79.71,-174.11 112.68,-220.49 154.75,-238 215.03,-263.09 292.33,-246.86 338.03,-232.87"/>
<polygon fill="#63b8ff" stroke="#63b8ff" points="339.04,-236.23 347.5,-229.85 336.91,-229.56 339.04,-236.23"/>
</a>
</g>
</g>
<!-- Node7 -->
<g id="Node000007" class="node">
<title>Node7</title>
<g id="a_Node000007"><a xlink:href="class_k_p_token.html#a0a95e55ef2440fbaa21cd74442eb3c65" target="_top" xlink:title=" ">
<polygon fill="white" stroke="#666666" points="262.25,-191 172,-191 172,-171 262.25,-171 262.25,-191"/>
<text text-anchor="middle" x="217.12" y="-177.5" font-family="Helvetica,sans-Serif" font-size="10.00">KPToken::addCp</text>
</a>
</g>
</g>
<!-- Node1&#45;&gt;Node7 -->
<g id="edge6_Node000001_Node000007" class="edge">
<title>Node1&#45;&gt;Node7</title>
<g id="a_edge6_Node000001_Node000007"><a xlink:title=" ">
<path fill="none" stroke="#63b8ff" d="M103.35,-153.48C121.56,-157.93 142.99,-163.16 162.25,-167.85"/>
<polygon fill="#63b8ff" stroke="#63b8ff" points="161.28,-171.22 171.82,-170.19 162.94,-164.42 161.28,-171.22"/>
</a>
</g>
</g>
<!-- Node8 -->
<g id="Node000008" class="node">
<title>Node8</title>
<g id="a_Node000008"><a xlink:href="class_store_token.html#abbb9193503dd3dc6f03f96be9f71b45a" target="_top" xlink:title=" ">
<polygon fill="white" stroke="#666666" points="279.5,-115 154.75,-115 154.75,-95 279.5,-95 279.5,-115"/>
<text text-anchor="middle" x="217.12" y="-101.5" font-family="Helvetica,sans-Serif" font-size="10.00">StoreToken::addIdentifier</text>
</a>
</g>
</g>
<!-- Node1&#45;&gt;Node8 -->
<g id="edge11_Node000001_Node000008" class="edge">
<title>Node1&#45;&gt;Node8</title>
<g id="a_edge11_Node000001_Node000008"><a xlink:title=" ">
<path fill="none" stroke="#63b8ff" d="M103.35,-132.52C121.56,-128.07 142.99,-122.84 162.25,-118.15"/>
<polygon fill="#63b8ff" stroke="#63b8ff" points="162.94,-121.58 171.82,-115.81 161.28,-114.78 162.94,-121.58"/>
</a>
</g>
</g>
<!-- Node15 -->
<g id="Node000015" class="node">
<title>Node15</title>
<g id="a_Node000015"><a xlink:href="class_k_p_token.html#a0d6ee24aa23095edb2b1c9ba4baedc03" target="_top" xlink:title=" ">
<polygon fill="white" stroke="#666666" points="262.25,-153 172,-153 172,-133 262.25,-133 262.25,-153"/>
<text text-anchor="middle" x="217.12" y="-139.5" font-family="Helvetica,sans-Serif" font-size="10.00">KPToken::addOp</text>
</a>
</g>
</g>
<!-- Node1&#45;&gt;Node15 -->
<g id="edge22_Node000001_Node000015" class="edge">
<title>Node1&#45;&gt;Node15</title>
<g id="a_edge22_Node000001_Node000015"><a xlink:title=" ">
<path fill="none" stroke="#63b8ff" d="M118.81,-143C132.57,-143 147.19,-143 160.81,-143"/>
<polygon fill="#63b8ff" stroke="#63b8ff" points="160.45,-146.5 170.45,-143 160.45,-139.5 160.45,-146.5"/>
</a>
</g>
</g>
<!-- Node16 -->
<g id="Node000016" class="node">
<title>Node16</title>
<g id="a_Node000016"><a xlink:href="class_store_token.html#a477dcacce7acf5a3c4ff14ff5e4f95fd" target="_top" xlink:title=" ">
<polygon fill="white" stroke="#666666" points="272.75,-77 161.5,-77 161.5,-57 272.75,-57 272.75,-77"/>
<text text-anchor="middle" x="217.12" y="-63.5" font-family="Helvetica,sans-Serif" font-size="10.00">StoreToken::addValue</text>
</a>
</g>
</g>
<!-- Node1&#45;&gt;Node16 -->
<g id="edge27_Node000001_Node000016" class="edge">
<title>Node1&#45;&gt;Node16</title>
<g id="a_edge27_Node000001_Node000016"><a xlink:title=" ">
<path fill="none" stroke="#63b8ff" d="M75.12,-132.53C93.19,-120.09 125.06,-99.32 154.75,-86 158.53,-84.3 162.51,-82.7 166.55,-81.19"/>
<polygon fill="#63b8ff" stroke="#63b8ff" points="167.57,-84.55 175.86,-77.95 165.26,-77.93 167.57,-84.55"/>
</a>
</g>
</g>
<!-- Node18 -->
<g id="Node000018" class="node">
<title>Node18</title>
<g id="a_Node000018"><a xlink:href="class_token.html#af13c7d494e5fe273558cb37286fa7185" target="_top" xlink:title=" ">
<polygon fill="white" stroke="#666666" points="264.88,-39 169.38,-39 169.38,-19 264.88,-19 264.88,-39"/>
<text text-anchor="middle" x="217.12" y="-25.5" font-family="Helvetica,sans-Serif" font-size="10.00">Token::updateRes</text>
</a>
</g>
</g>
<!-- Node1&#45;&gt;Node18 -->
<g id="edge33_Node000001_Node000018" class="edge">
<title>Node1&#45;&gt;Node18</title>
<g id="a_edge33_Node000001_Node000018"><a xlink:title=" ">
<path fill="none" stroke="#63b8ff" d="M67.74,-132.79C82.22,-113.43 116.37,-71.24 154.75,-48 157.21,-46.51 159.8,-45.12 162.47,-43.84"/>
<polygon fill="#63b8ff" stroke="#63b8ff" points="163.78,-47.09 171.63,-39.97 161.06,-40.64 163.78,-47.09"/>
</a>
</g>
</g>
<!-- Node3 -->
<g id="Node000003" class="node">
<title>Node3</title>
<g id="a_Node000003"><a xlink:href="class_token.html#a4c0f84a84656f0b5e28c4193c3c13ea3" target="_top" xlink:title=" ">
<polygon fill="white" stroke="#666666" points="420.38,-153 335.38,-153 335.38,-133 420.38,-133 420.38,-153"/>
<text text-anchor="middle" x="377.88" y="-139.5" font-family="Helvetica,sans-Serif" font-size="10.00">Token::addError</text>
</a>
</g>
</g>
<!-- Node2&#45;&gt;Node3 -->
<g id="edge2_Node000002_Node000003" class="edge">
<title>Node2&#45;&gt;Node3</title>
<g id="a_edge2_Node000002_Node000003"><a xlink:title=" ">
<path fill="none" stroke="#63b8ff" d="M261.62,-208.61C267.85,-206.26 274.01,-203.42 279.5,-200 299.26,-187.71 295.74,-174.29 315.5,-162 318.39,-160.2 321.46,-158.56 324.64,-157.07"/>
<polygon fill="#63b8ff" stroke="#63b8ff" points="325.69,-160.42 333.6,-153.37 323.02,-153.95 325.69,-160.42"/>
</a>
</g>
</g>
<!-- Node4 -->
<g id="Node000004" class="node">
<title>Node4</title>
<g id="a_Node000004"><a xlink:href="class_iterator_list.html#a4acf162e4a194bddd3c2fe26b073f45a" target="_top" xlink:title=" ">
<polygon fill="white" stroke="#666666" points="440.25,-115 315.5,-115 315.5,-95 440.25,-95 440.25,-115"/>
<text text-anchor="middle" x="377.88" y="-101.5" font-family="Helvetica,sans-Serif" font-size="10.00">IteratorList::currentToken</text>
</a>
</g>
</g>
<!-- Node2&#45;&gt;Node4 -->
<g id="edge3_Node000002_Node000004" class="edge">
<title>Node2&#45;&gt;Node4</title>
<g id="a_edge3_Node000002_Node000004"><a xlink:title=" ">
<path fill="none" stroke="#63b8ff" d="M266.13,-208.55C270.96,-206.25 275.54,-203.43 279.5,-200 307.74,-175.52 287.26,-148.48 315.5,-124 316.61,-123.03 317.78,-122.12 318.98,-121.25"/>
<polygon fill="#63b8ff" stroke="#63b8ff" points="320.71,-124.29 327.56,-116.21 317.16,-118.25 320.71,-124.29"/>
</a>
</g>
</g>
<!-- Node5 -->
<g id="Node000005" class="node">
<title>Node5</title>
<g id="a_Node000005"><a xlink:href="class_iterator_list.html#a2ebc1118094754b7d333b0a9d257d12b" target="_top" xlink:title=" ">
<polygon fill="white" stroke="#666666" points="425.25,-191 330.5,-191 330.5,-171 425.25,-171 425.25,-191"/>
<text text-anchor="middle" x="377.88" y="-177.5" font-family="Helvetica,sans-Serif" font-size="10.00">IteratorList::ended</text>
</a>
</g>
</g>
<!-- Node2&#45;&gt;Node5 -->
<g id="edge4_Node000002_Node000005" class="edge">
<title>Node2&#45;&gt;Node5</title>
<g id="a_edge4_Node000002_Node000005"><a xlink:title=" ">
<path fill="none" stroke="#63b8ff" d="M261.92,-208.52C280.58,-204.05 302.53,-198.79 322.23,-194.08"/>
<polygon fill="#63b8ff" stroke="#63b8ff" points="322.84,-197.53 331.75,-191.8 321.21,-190.73 322.84,-197.53"/>
</a>
</g>
</g>
<!-- Node2&#45;&gt;Node6 -->
<g id="edge5_Node000002_Node000006" class="edge">
<title>Node2&#45;&gt;Node6</title>
<g id="a_edge5_Node000002_Node000006"><a xlink:title=" ">
<path fill="none" stroke="#63b8ff" d="M273.2,-219C289.2,-219 306.66,-219 322.6,-219"/>
<polygon fill="#63b8ff" stroke="#63b8ff" points="322.39,-222.5 332.39,-219 322.39,-215.5 322.39,-222.5"/>
</a>
</g>
</g>
<!-- Node7&#45;&gt;Node3 -->
<g id="edge7_Node000007_Node000003" class="edge">
<title>Node7&#45;&gt;Node3</title>
<g id="a_edge7_Node000007_Node000003"><a xlink:title=" ">
<path fill="none" stroke="#63b8ff" d="M261.92,-170.52C281.12,-165.92 303.81,-160.49 323.94,-155.67"/>
<polygon fill="#63b8ff" stroke="#63b8ff" points="324.75,-159.08 333.66,-153.34 323.12,-152.27 324.75,-159.08"/>
</a>
</g>
</g>
<!-- Node7&#45;&gt;Node4 -->
<g id="edge8_Node000007_Node000004" class="edge">
<title>Node7&#45;&gt;Node4</title>
<g id="a_edge8_Node000007_Node000004"><a xlink:title=" ">
<path fill="none" stroke="#63b8ff" d="M261.62,-170.61C267.85,-168.26 274.01,-165.42 279.5,-162 299.26,-149.71 295.74,-136.29 315.5,-124 317.9,-122.51 320.43,-121.12 323.04,-119.84"/>
<polygon fill="#63b8ff" stroke="#63b8ff" points="324.19,-123.15 331.99,-115.98 321.42,-116.72 324.19,-123.15"/>
</a>
</g>
</g>
<!-- Node7&#45;&gt;Node5 -->
<g id="edge9_Node000007_Node000005" class="edge">
<title>Node7&#45;&gt;Node5</title>
<g id="a_edge9_Node000007_Node000005"><a xlink:title=" ">
<path fill="none" stroke="#63b8ff" d="M262.35,-181C279.82,-181 300.14,-181 318.78,-181"/>
<polygon fill="#63b8ff" stroke="#63b8ff" points="318.61,-184.5 328.61,-181 318.61,-177.5 318.61,-184.5"/>
</a>
</g>
</g>
<!-- Node7&#45;&gt;Node6 -->
<g id="edge10_Node000007_Node000006" class="edge">
<title>Node7&#45;&gt;Node6</title>
<g id="a_edge10_Node000007_Node000006"><a xlink:title=" ">
<path fill="none" stroke="#63b8ff" d="M261.92,-191.48C280.73,-195.99 302.9,-201.29 322.72,-206.04"/>
<polygon fill="#63b8ff" stroke="#63b8ff" points="321.76,-209.4 332.3,-208.33 323.39,-202.6 321.76,-209.4"/>
</a>
</g>
</g>
<!-- Node8&#45;&gt;Node3 -->
<g id="edge12_Node000008_Node000003" class="edge">
<title>Node8&#45;&gt;Node3</title>
<g id="a_edge12_Node000008_Node000003"><a xlink:title=" ">
<path fill="none" stroke="#63b8ff" d="M261.92,-115.48C281.12,-120.08 303.81,-125.51 323.94,-130.33"/>
<polygon fill="#63b8ff" stroke="#63b8ff" points="323.12,-133.73 333.66,-132.66 324.75,-126.92 323.12,-133.73"/>
</a>
</g>
</g>
<!-- Node8&#45;&gt;Node4 -->
<g id="edge13_Node000008_Node000004" class="edge">
<title>Node8&#45;&gt;Node4</title>
<g id="a_edge13_Node000008_Node000004"><a xlink:title=" ">
<path fill="none" stroke="#63b8ff" d="M279.96,-105C287.83,-105 295.94,-105 303.96,-105"/>
<polygon fill="#63b8ff" stroke="#63b8ff" points="303.7,-108.5 313.7,-105 303.7,-101.5 303.7,-108.5"/>
</a>
</g>
</g>
<!-- Node8&#45;&gt;Node5 -->
<g id="edge14_Node000008_Node000005" class="edge">
<title>Node8&#45;&gt;Node5</title>
<g id="a_edge14_Node000008_Node000005"><a xlink:title=" ">
<path fill="none" stroke="#63b8ff" d="M261.62,-115.39C267.85,-117.74 274.01,-120.58 279.5,-124 299.26,-136.29 295.74,-149.71 315.5,-162 317.9,-163.49 320.43,-164.88 323.04,-166.16"/>
<polygon fill="#63b8ff" stroke="#63b8ff" points="321.42,-169.28 331.99,-170.02 324.19,-162.85 321.42,-169.28"/>
</a>
</g>
</g>
<!-- Node8&#45;&gt;Node6 -->
<g id="edge21_Node000008_Node000006" class="edge">
<title>Node8&#45;&gt;Node6</title>
<g id="a_edge21_Node000008_Node000006"><a xlink:title=" ">
<path fill="none" stroke="#63b8ff" d="M266.13,-115.45C270.96,-117.75 275.54,-120.57 279.5,-124 307.74,-148.48 287.26,-175.52 315.5,-200 317.99,-202.16 320.72,-204.07 323.6,-205.77"/>
<polygon fill="#63b8ff" stroke="#63b8ff" points="321.99,-208.87 332.51,-210.08 325.03,-202.57 321.99,-208.87"/>
</a>
</g>
</g>
<!-- Node9 -->
<g id="Node000009" class="node">
<title>Node9</title>
<g id="a_Node000009"><a xlink:href="_interpretor_8cpp.html#a32fa5cbc79c968c5b53e8303ad77091d" target="_top" xlink:title=" ">
<polygon fill="white" stroke="#666666" points="408.38,-77 347.38,-77 347.38,-57 408.38,-57 408.38,-77"/>
<text text-anchor="middle" x="377.88" y="-63.5" font-family="Helvetica,sans-Serif" font-size="10.00">isIdentifier</text>
</a>
</g>
</g>
<!-- Node8&#45;&gt;Node9 -->
<g id="edge15_Node000008_Node000009" class="edge">
<title>Node8&#45;&gt;Node9</title>
<g id="a_edge15_Node000008_Node000009"><a xlink:title=" ">
<path fill="none" stroke="#63b8ff" d="M261.92,-94.52C285.16,-88.95 313.53,-82.16 336.27,-76.72"/>
<polygon fill="#63b8ff" stroke="#63b8ff" points="336.88,-80.17 345.79,-74.44 335.25,-73.36 336.88,-80.17"/>
</a>
</g>
</g>
<!-- Node10 -->
<g id="Node000010" class="node">
<title>Node10</title>
<g id="a_Node000010"><a xlink:href="_interpretor_8cpp.html#ad42767aaf8252eb57581d009530bd527" target="_top" xlink:title=" ">
<polygon fill="white" stroke="#666666" points="551.5,-77 476.25,-77 476.25,-57 551.5,-57 551.5,-77"/>
<text text-anchor="middle" x="513.88" y="-63.5" font-family="Helvetica,sans-Serif" font-size="10.00">isTokenString</text>
</a>
</g>
</g>
<!-- Node9&#45;&gt;Node10 -->
<g id="edge16_Node000009_Node000010" class="edge">
<title>Node9&#45;&gt;Node10</title>
<g id="a_edge16_Node000009_Node000010"><a xlink:title=" ">
<path fill="none" stroke="#63b8ff" d="M408.61,-67C425.09,-67 445.97,-67 464.71,-67"/>
<polygon fill="#63b8ff" stroke="#63b8ff" points="464.53,-70.5 474.53,-67 464.53,-63.5 464.53,-70.5"/>
</a>
</g>
</g>
<!-- Node11 -->
<g id="Node000011" class="node">
<title>Node11</title>
<g id="a_Node000011"><a xlink:href="_interpretor_8cpp.html#a3276e6efe4a3f409262ffe0b345e9636" target="_top" xlink:title=" ">
<polygon fill="white" stroke="#666666" points="681.5,-134 594.25,-134 594.25,-114 681.5,-114 681.5,-134"/>
<text text-anchor="middle" x="637.88" y="-120.5" font-family="Helvetica,sans-Serif" font-size="10.00">isKeywordString</text>
</a>
</g>
</g>
<!-- Node10&#45;&gt;Node11 -->
<g id="edge17_Node000010_Node000011" class="edge">
<title>Node10&#45;&gt;Node11</title>
<g id="a_edge17_Node000010_Node000011"><a xlink:title=" ">
<path fill="none" stroke="#63b8ff" d="M533.39,-77.44C547.9,-85.44 568.7,-96.5 587.5,-105 590.81,-106.49 594.27,-107.98 597.76,-109.43"/>
<polygon fill="#63b8ff" stroke="#63b8ff" points="596.2,-112.57 606.78,-113.04 598.8,-106.07 596.2,-112.57"/>
</a>
</g>
</g>
<!-- Node12 -->
<g id="Node000012" class="node">
<title>Node12</title>
<g id="a_Node000012"><a xlink:href="_interpretor_8cpp.html#ae8bab56314c8b787497a84c189b9114d" target="_top" xlink:title=" ">
<polygon fill="white" stroke="#666666" points="675.5,-96 600.25,-96 600.25,-76 675.5,-76 675.5,-96"/>
<text text-anchor="middle" x="637.88" y="-82.5" font-family="Helvetica,sans-Serif" font-size="10.00">isLiteralString</text>
</a>
</g>
</g>
<!-- Node10&#45;&gt;Node12 -->
<g id="edge18_Node000010_Node000012" class="edge">
<title>Node10&#45;&gt;Node12</title>
<g id="a_edge18_Node000010_Node000012"><a xlink:title=" ">
<path fill="none" stroke="#63b8ff" d="M551.81,-72.75C563.52,-74.58 576.63,-76.62 588.99,-78.54"/>
<polygon fill="#63b8ff" stroke="#63b8ff" points="588.15,-81.95 598.57,-80.03 589.23,-75.04 588.15,-81.95"/>
</a>
</g>
</g>
<!-- Node13 -->
<g id="Node000013" class="node">
<title>Node13</title>
<g id="a_Node000013"><a xlink:href="_interpretor_8cpp.html#ae80d3823673e42ed3ce7e84597bbd552" target="_top" xlink:title=" ">
<polygon fill="white" stroke="#666666" points="681.12,-58 594.62,-58 594.62,-38 681.12,-38 681.12,-58"/>
<text text-anchor="middle" x="637.88" y="-44.5" font-family="Helvetica,sans-Serif" font-size="10.00">isOperatorString</text>
</a>
</g>
</g>
<!-- Node10&#45;&gt;Node13 -->
<g id="edge19_Node000010_Node000013" class="edge">
<title>Node10&#45;&gt;Node13</title>
<g id="a_edge19_Node000010_Node000013"><a xlink:title=" ">
<path fill="none" stroke="#63b8ff" d="M551.81,-61.25C561.7,-59.71 572.59,-58.01 583.19,-56.36"/>
<polygon fill="#63b8ff" stroke="#63b8ff" points="583.67,-59.83 593.01,-54.83 582.59,-52.91 583.67,-59.83"/>
</a>
</g>
</g>
<!-- Node14 -->
<g id="Node000014" class="node">
<title>Node14</title>
<g id="a_Node000014"><a xlink:href="_interpretor_8cpp.html#ad93eecc58b3fdba57ba605dcb296f03e" target="_top" xlink:title=" ">
<polygon fill="white" stroke="#666666" points="688.25,-20 587.5,-20 587.5,0 688.25,0 688.25,-20"/>
<text text-anchor="middle" x="637.88" y="-6.5" font-family="Helvetica,sans-Serif" font-size="10.00">isPunctuationString</text>
</a>
</g>
</g>
<!-- Node10&#45;&gt;Node14 -->
<g id="edge20_Node000010_Node000014" class="edge">
<title>Node10&#45;&gt;Node14</title>
<g id="a_edge20_Node000010_Node000014"><a xlink:title=" ">
<path fill="none" stroke="#63b8ff" d="M533.39,-56.56C547.9,-48.56 568.7,-37.5 587.5,-29 590.81,-27.51 594.27,-26.02 597.76,-24.57"/>
<polygon fill="#63b8ff" stroke="#63b8ff" points="598.8,-27.93 606.78,-20.96 596.2,-21.43 598.8,-27.93"/>
</a>
</g>
</g>
<!-- Node15&#45;&gt;Node3 -->
<g id="edge23_Node000015_Node000003" class="edge">
<title>Node15&#45;&gt;Node3</title>
<g id="a_edge23_Node000015_Node000003"><a xlink:title=" ">
<path fill="none" stroke="#63b8ff" d="M262.35,-143C281.37,-143 303.76,-143 323.68,-143"/>
<polygon fill="#63b8ff" stroke="#63b8ff" points="323.56,-146.5 333.56,-143 323.56,-139.5 323.56,-146.5"/>
</a>
</g>
</g>
<!-- Node15&#45;&gt;Node4 -->
<g id="edge24_Node000015_Node000004" class="edge">
<title>Node15&#45;&gt;Node4</title>
<g id="a_edge24_Node000015_Node000004"><a xlink:title=" ">
<path fill="none" stroke="#63b8ff" d="M261.92,-132.52C280.58,-128.05 302.53,-122.79 322.23,-118.08"/>
<polygon fill="#63b8ff" stroke="#63b8ff" points="322.84,-121.53 331.75,-115.8 321.21,-114.73 322.84,-121.53"/>
</a>
</g>
</g>
<!-- Node15&#45;&gt;Node5 -->
<g id="edge25_Node000015_Node000005" class="edge">
<title>Node15&#45;&gt;Node5</title>
<g id="a_edge25_Node000015_Node000005"><a xlink:title=" ">
<path fill="none" stroke="#63b8ff" d="M261.92,-153.48C280.58,-157.95 302.53,-163.21 322.23,-167.92"/>
<polygon fill="#63b8ff" stroke="#63b8ff" points="321.21,-171.27 331.75,-170.2 322.84,-164.47 321.21,-171.27"/>
</a>
</g>
</g>
<!-- Node15&#45;&gt;Node6 -->
<g id="edge26_Node000015_Node000006" class="edge">
<title>Node15&#45;&gt;Node6</title>
<g id="a_edge26_Node000015_Node000006"><a xlink:title=" ">
<path fill="none" stroke="#63b8ff" d="M261.62,-153.39C267.85,-155.74 274.01,-158.58 279.5,-162 299.26,-174.29 295.74,-187.71 315.5,-200 318.08,-201.6 320.8,-203.08 323.6,-204.44"/>
<polygon fill="#63b8ff" stroke="#63b8ff" points="322.06,-207.58 332.63,-208.27 324.79,-201.14 322.06,-207.58"/>
</a>
</g>
</g>
<!-- Node16&#45;&gt;Node3 -->
<g id="edge28_Node000016_Node000003" class="edge">
<title>Node16&#45;&gt;Node3</title>
<g id="a_edge28_Node000016_Node000003"><a xlink:title=" ">
<path fill="none" stroke="#63b8ff" d="M261.62,-77.39C267.85,-79.74 274.01,-82.58 279.5,-86 299.26,-98.29 295.74,-111.71 315.5,-124 318.39,-125.8 321.46,-127.44 324.64,-128.93"/>
<polygon fill="#63b8ff" stroke="#63b8ff" points="323.02,-132.05 333.6,-132.63 325.69,-125.58 323.02,-132.05"/>
</a>
</g>
</g>
<!-- Node16&#45;&gt;Node4 -->
<g id="edge29_Node000016_Node000004" class="edge">
<title>Node16&#45;&gt;Node4</title>
<g id="a_edge29_Node000016_Node000004"><a xlink:title=" ">
<path fill="none" stroke="#63b8ff" d="M261.92,-77.48C280.58,-81.95 302.53,-87.21 322.23,-91.92"/>
<polygon fill="#63b8ff" stroke="#63b8ff" points="321.21,-95.27 331.75,-94.2 322.84,-88.47 321.21,-95.27"/>
</a>
</g>
</g>
<!-- Node16&#45;&gt;Node5 -->
<g id="edge30_Node000016_Node000005" class="edge">
<title>Node16&#45;&gt;Node5</title>
<g id="a_edge30_Node000016_Node000005"><a xlink:title=" ">
<path fill="none" stroke="#63b8ff" d="M266.13,-77.45C270.96,-79.75 275.54,-82.57 279.5,-86 307.74,-110.48 287.26,-137.52 315.5,-162 316.98,-163.28 318.54,-164.48 320.17,-165.59"/>
<polygon fill="#63b8ff" stroke="#63b8ff" points="318.35,-168.58 328.78,-170.39 321.75,-162.47 318.35,-168.58"/>
</a>
</g>
</g>
<!-- Node17 -->
<g id="Node000017" class="node">
<title>Node17</title>
<g id="a_Node000017"><a xlink:href="_interpretor_8cpp.html#abcc4565ee1966ac13a3f10b4f9a878ba" target="_top" xlink:title=" ">
<polygon fill="white" stroke="#666666" points="401.62,-39 354.12,-39 354.12,-19 401.62,-19 401.62,-39"/>
<text text-anchor="middle" x="377.88" y="-25.5" font-family="Helvetica,sans-Serif" font-size="10.00">isValue</text>
</a>
</g>
</g>
<!-- Node16&#45;&gt;Node17 -->
<g id="edge31_Node000016_Node000017" class="edge">
<title>Node16&#45;&gt;Node17</title>
<g id="a_edge31_Node000016_Node000017"><a xlink:title=" ">
<path fill="none" stroke="#63b8ff" d="M261.92,-56.52C287.48,-50.4 319.23,-42.8 342.89,-37.14"/>
<polygon fill="#63b8ff" stroke="#63b8ff" points="343.41,-40.61 352.32,-34.88 341.78,-33.8 343.41,-40.61"/>
</a>
</g>
</g>
</g>
</svg>
