<?xml version="1.0" encoding="UTF-8" standalone="no"?>
<!DOCTYPE svg PUBLIC "-//W3C//DTD SVG 1.1//EN"
 "http://www.w3.org/Graphics/SVG/1.1/DTD/svg11.dtd">
<!-- Generated by graphviz version 12.2.0 (20241103.1931)
 -->
<!-- Title: fsfml::updateWindowSize Pages: 1 -->
<svg width="441pt" height="66pt"
 viewBox="0.00 0.00 440.75 66.00" xmlns="http://www.w3.org/2000/svg" xmlns:xlink="http://www.w3.org/1999/xlink">

<svg id="main" version="1.1" xmlns="http://www.w3.org/2000/svg" xmlns:xlink="http://www.w3.org/1999/xlink" xml:space="preserve">

<style type="text/css"><![CDATA[
.node, .edge {opacity: 0.7;}
.node.selected, .edge.selected {opacity: 1;}
.edge:hover path { stroke: red; }
.edge:hover polygon { stroke: red; fill: red; }
]]></style>
<script type="application/ecmascript" xlink:href="svg.min.js"/>
<svg id="graph" class="graph">
<g id="graph0" class="graph" transform="scale(1 1) rotate(0) translate(4 62)">
<title>fsfml::updateWindowSize</title>
<!-- Node1 -->
<g id="Node000001" class="node">
<title>Node1</title>
<g id="a_Node000001"><a xlink:title=" ">
<polygon fill="#999999" stroke="#666666" points="127.75,-39 0,-39 0,-19 127.75,-19 127.75,-39"/>
<text text-anchor="middle" x="63.88" y="-25.5" font-family="Helvetica,sans-Serif" font-size="10.00">fsfml::updateWindowSize</text>
</a>
</g>
</g>
<!-- Node2 -->
<g id="Node000002" class="node">
<title>Node2</title>
<g id="a_Node000002"><a xlink:href="classfsfml.html#ae573a629144f2905af0ef5acf29aac17" target="_top" xlink:title=" ">
<polygon fill="white" stroke="#666666" points="284.75,-58 163.75,-58 163.75,-38 284.75,-38 284.75,-58"/>
<text text-anchor="middle" x="224.25" y="-44.5" font-family="Helvetica,sans-Serif" font-size="10.00">fsfml::getWindowHeight</text>
</a>
</g>
</g>
<!-- Node1&#45;&gt;Node2 -->
<g id="edge1_Node000001_Node000002" class="edge">
<title>Node1&#45;&gt;Node2</title>
<g id="a_edge1_Node000001_Node000002"><a xlink:title=" ">
<path fill="none" stroke="#63b8ff" d="M127.92,-36.56C135.84,-37.51 143.98,-38.49 152.01,-39.45"/>
<polygon fill="#63b8ff" stroke="#63b8ff" points="151.4,-42.91 161.75,-40.62 152.24,-35.96 151.4,-42.91"/>
</a>
</g>
</g>
<!-- Node4 -->
<g id="Node000004" class="node">
<title>Node4</title>
<g id="a_Node000004"><a xlink:href="classfsfml.html#af27e6bb49f79cd1ff0262ebf0fdeb96d" target="_top" xlink:title=" ">
<polygon fill="white" stroke="#666666" points="283.25,-20 165.25,-20 165.25,0 283.25,0 283.25,-20"/>
<text text-anchor="middle" x="224.25" y="-6.5" font-family="Helvetica,sans-Serif" font-size="10.00">fsfml::getWindowWidth</text>
</a>
</g>
</g>
<!-- Node1&#45;&gt;Node4 -->
<g id="edge3_Node000001_Node000004" class="edge">
<title>Node1&#45;&gt;Node4</title>
<g id="a_edge3_Node000001_Node000004"><a xlink:title=" ">
<path fill="none" stroke="#63b8ff" d="M127.92,-21.44C136.29,-20.43 144.9,-19.4 153.37,-18.38"/>
<polygon fill="#63b8ff" stroke="#63b8ff" points="153.77,-21.86 163.29,-17.19 152.94,-14.91 153.77,-21.86"/>
</a>
</g>
</g>
<!-- Node3 -->
<g id="Node000003" class="node">
<title>Node3</title>
<g id="a_Node000003"><a xlink:href="classfsfml.html#a91426b963b5b55787b64e31694bf4791" target="_top" xlink:title=" ">
<polygon fill="white" stroke="#666666" points="432.75,-39 320.75,-39 320.75,-19 432.75,-19 432.75,-39"/>
<text text-anchor="middle" x="376.75" y="-25.5" font-family="Helvetica,sans-Serif" font-size="10.00">fsfml::getWindowSize</text>
</a>
</g>
</g>
<!-- Node2&#45;&gt;Node3 -->
<g id="edge2_Node000002_Node000003" class="edge">
<title>Node2&#45;&gt;Node3</title>
<g id="a_edge2_Node000002_Node000003"><a xlink:title=" ">
<path fill="none" stroke="#63b8ff" d="M285.16,-40.44C293.08,-39.44 301.22,-38.41 309.24,-37.4"/>
<polygon fill="#63b8ff" stroke="#63b8ff" points="309.45,-40.9 318.94,-36.17 308.58,-33.95 309.45,-40.9"/>
</a>
</g>
</g>
<!-- Node4&#45;&gt;Node3 -->
<g id="edge4_Node000004_Node000003" class="edge">
<title>Node4&#45;&gt;Node3</title>
<g id="a_edge4_Node000004_Node000003"><a xlink:title=" ">
<path fill="none" stroke="#63b8ff" d="M283.44,-17.35C291.95,-18.42 300.77,-19.53 309.43,-20.63"/>
<polygon fill="#63b8ff" stroke="#63b8ff" points="308.82,-24.08 319.18,-21.86 309.7,-17.13 308.82,-24.08"/>
</a>
</g>
</g>
</g>
</svg>
</svg>

<style type='text/css'>
<![CDATA[
[data-mouse-over-selected='false'] { opacity: 0.7; }
[data-mouse-over-selected='true']  { opacity: 1.0; }
]]>
</style>
<script type="application/ecmascript"><![CDATA[
document.addEventListener('DOMContentLoaded', (event) => {
  highlightEdges();
  highlightAdjacentNodes();
});
]]></script>
</svg>
