<?xml version="1.0" encoding="UTF-8" standalone="no"?>
<!DOCTYPE svg PUBLIC "-//W3C//DTD SVG 1.1//EN"
 "http://www.w3.org/Graphics/SVG/1.1/DTD/svg11.dtd">
<!-- Generated by graphviz version 12.2.0 (20241103.1931)
 -->
<!-- Title: BotConfig::choosePlayingInstance Pages: 1 -->
<svg width="1079pt" height="380pt"
 viewBox="0.00 0.00 1078.50 380.00" xmlns="http://www.w3.org/2000/svg" xmlns:xlink="http://www.w3.org/1999/xlink">
<g id="graph0" class="graph" transform="scale(1 1) rotate(0) translate(4 376)">
<title>BotConfig::choosePlayingInstance</title>
<!-- Node1 -->
<g id="Node000001" class="node">
<title>Node1</title>
<g id="a_Node000001"><a xlink:title=" ">
<polygon fill="#999999" stroke="#666666" points="129.25,-229 0,-229 0,-197 129.25,-197 129.25,-229"/>
<text text-anchor="start" x="8" y="-215.5" font-family="Helvetica,sans-Serif" font-size="10.00">BotConfig::choosePlaying</text>
<text text-anchor="middle" x="64.62" y="-203.5" font-family="Helvetica,sans-Serif" font-size="10.00">Instance</text>
</a>
</g>
</g>
<!-- Node2 -->
<g id="Node000002" class="node">
<title>Node2</title>
<g id="a_Node000002"><a xlink:href="class_bot_config.html#a2de6914c1428da89266ac78057e0ebe0" target="_top" xlink:title=" ">
<polygon fill="white" stroke="#666666" points="321.5,-372 165.25,-372 165.25,-352 321.5,-352 321.5,-372"/>
<text text-anchor="middle" x="243.38" y="-358.5" font-family="Helvetica,sans-Serif" font-size="10.00">BotConfig::chronoInstanceMenu</text>
</a>
</g>
</g>
<!-- Node1&#45;&gt;Node2 -->
<g id="edge1_Node000001_Node000002" class="edge">
<title>Node1&#45;&gt;Node2</title>
<g id="a_edge1_Node000001_Node000002"><a xlink:title=" ">
<path fill="none" stroke="#63b8ff" d="M73.51,-229.45C87.75,-257.35 120.51,-313.74 165.25,-343 167.49,-344.46 169.83,-345.82 172.25,-347.06"/>
<polygon fill="#63b8ff" stroke="#63b8ff" points="170.6,-350.16 181.16,-351.02 173.44,-343.76 170.6,-350.16"/>
</a>
</g>
</g>
<!-- Node3 -->
<g id="Node000003" class="node">
<title>Node3</title>
<g id="a_Node000003"><a xlink:href="class_bot_config.html#ad0f786d110e0eb647fbc444963a1d8e7" target="_top" xlink:title=" ">
<polygon fill="white" stroke="#666666" points="310.25,-334 176.5,-334 176.5,-302 310.25,-302 310.25,-334"/>
<text text-anchor="start" x="184.5" y="-320.5" font-family="Helvetica,sans-Serif" font-size="10.00">BotConfig::explainInstance</text>
<text text-anchor="middle" x="243.38" y="-308.5" font-family="Helvetica,sans-Serif" font-size="10.00">Choice</text>
</a>
</g>
</g>
<!-- Node1&#45;&gt;Node3 -->
<g id="edge2_Node000001_Node000003" class="edge">
<title>Node1&#45;&gt;Node3</title>
<g id="a_edge2_Node000001_Node000003"><a xlink:title=" ">
<path fill="none" stroke="#63b8ff" d="M84.02,-229.31C103.25,-245.75 134.8,-271.04 165.25,-288 171.18,-291.3 177.55,-294.41 183.99,-297.28"/>
<polygon fill="#63b8ff" stroke="#63b8ff" points="182.16,-300.3 192.73,-300.99 184.9,-293.86 182.16,-300.3"/>
</a>
</g>
</g>
<!-- Node4 -->
<g id="Node000004" class="node">
<title>Node4</title>
<g id="a_Node000004"><a xlink:href="struct_all_emulators.html#a4866e51109e46a475c389e658350c07d" target="_top" xlink:title=" ">
<polygon fill="white" stroke="#666666" points="685,-190 556.5,-190 556.5,-170 685,-170 685,-190"/>
<text text-anchor="middle" x="620.75" y="-176.5" font-family="Helvetica,sans-Serif" font-size="10.00">AllEmulators::getInstance</text>
</a>
</g>
</g>
<!-- Node1&#45;&gt;Node4 -->
<g id="edge3_Node000001_Node000004" class="edge">
<title>Node1&#45;&gt;Node4</title>
<g id="a_edge3_Node000001_Node000004"><a xlink:title=" ">
<path fill="none" stroke="#63b8ff" d="M96.5,-229.34C115.7,-238.56 141.23,-249.18 165.25,-254 317.45,-284.5 366.66,-302.29 514.5,-255 549.18,-243.91 582.19,-216.73 601.71,-198.33"/>
<polygon fill="#63b8ff" stroke="#63b8ff" points="604.11,-200.88 608.84,-191.4 599.23,-195.86 604.11,-200.88"/>
</a>
</g>
</g>
<!-- Node5 -->
<g id="Node000005" class="node">
<title>Node5</title>
<g id="a_Node000005"><a xlink:href="class_bot_config.html#a7b9529e08b815f71595c6b5953654057" target="_top" xlink:title=" ">
<polygon fill="white" stroke="#666666" points="317.75,-245 169,-245 169,-225 317.75,-225 317.75,-245"/>
<text text-anchor="middle" x="243.38" y="-231.5" font-family="Helvetica,sans-Serif" font-size="10.00">BotConfig::getPlayingInstance</text>
</a>
</g>
</g>
<!-- Node1&#45;&gt;Node5 -->
<g id="edge4_Node000001_Node000005" class="edge">
<title>Node1&#45;&gt;Node5</title>
<g id="a_edge4_Node000001_Node000005"><a xlink:title=" ">
<path fill="none" stroke="#63b8ff" d="M129.69,-220.97C138.68,-222.09 148.03,-223.26 157.34,-224.42"/>
<polygon fill="#63b8ff" stroke="#63b8ff" points="156.78,-227.87 167.13,-225.63 157.64,-220.93 156.78,-227.87"/>
</a>
</g>
</g>
<!-- Node6 -->
<g id="Node000006" class="node">
<title>Node6</title>
<g id="a_Node000006"><a xlink:href="class_bot_config.html#ac00a1d2728bca4fe8ad17e8dc8b792e2" target="_top" xlink:title=" ">
<polygon fill="white" stroke="#666666" points="308,-155 178.75,-155 178.75,-123 308,-123 308,-155"/>
<text text-anchor="start" x="186.75" y="-141.5" font-family="Helvetica,sans-Serif" font-size="10.00">BotConfig::handleFavorite</text>
<text text-anchor="middle" x="243.38" y="-129.5" font-family="Helvetica,sans-Serif" font-size="10.00">Instance</text>
</a>
</g>
</g>
<!-- Node1&#45;&gt;Node6 -->
<g id="edge5_Node000001_Node000006" class="edge">
<title>Node1&#45;&gt;Node6</title>
<g id="a_edge5_Node000001_Node000006"><a xlink:title=" ">
<path fill="none" stroke="#63b8ff" d="M98,-196.68C117.3,-187.21 142.42,-175.35 165.25,-166 170.83,-163.71 176.68,-161.44 182.56,-159.25"/>
<polygon fill="#63b8ff" stroke="#63b8ff" points="183.52,-162.62 191.71,-155.9 181.11,-156.05 183.52,-162.62"/>
</a>
</g>
</g>
<!-- Node17 -->
<g id="Node000017" class="node">
<title>Node17</title>
<g id="a_Node000017"><a xlink:href="struct_all_emulators.html#ab9091f00d35a6266cf70072a5a2ccab7" target="_top" xlink:title=" ">
<polygon fill="white" stroke="#666666" points="305,-207 181.75,-207 181.75,-175 305,-175 305,-207"/>
<text text-anchor="start" x="189.75" y="-193.5" font-family="Helvetica,sans-Serif" font-size="10.00">AllEmulators::setPlaying</text>
<text text-anchor="middle" x="243.38" y="-181.5" font-family="Helvetica,sans-Serif" font-size="10.00">Emulator</text>
</a>
</g>
</g>
<!-- Node1&#45;&gt;Node17 -->
<g id="edge19_Node000001_Node000017" class="edge">
<title>Node1&#45;&gt;Node17</title>
<g id="a_edge19_Node000001_Node000017"><a xlink:title=" ">
<path fill="none" stroke="#63b8ff" d="M129.69,-205.03C142.88,-203.38 156.87,-201.64 170.33,-199.97"/>
<polygon fill="#63b8ff" stroke="#63b8ff" points="170.49,-203.47 179.98,-198.77 169.62,-196.53 170.49,-203.47"/>
</a>
</g>
</g>
<!-- Node20 -->
<g id="Node000020" class="node">
<title>Node20</title>
<g id="a_Node000020"><a xlink:href="struct_all_emulators.html#a6ae821ac9da5f8ff39251f2b6e9b74d2" target="_top" xlink:title=" ">
<polygon fill="white" stroke="#666666" points="320.75,-105 166,-105 166,-85 320.75,-85 320.75,-105"/>
<text text-anchor="middle" x="243.38" y="-91.5" font-family="Helvetica,sans-Serif" font-size="10.00">AllEmulators::showAllInstances</text>
</a>
</g>
</g>
<!-- Node1&#45;&gt;Node20 -->
<g id="edge24_Node000001_Node000020" class="edge">
<title>Node1&#45;&gt;Node20</title>
<g id="a_edge24_Node000001_Node000020"><a xlink:title=" ">
<path fill="none" stroke="#63b8ff" d="M77.48,-196.58C94.4,-174.37 127.62,-135.14 165.25,-114 168.22,-112.33 171.33,-110.81 174.54,-109.42"/>
<polygon fill="#63b8ff" stroke="#63b8ff" points="175.51,-112.79 183.6,-105.95 173,-106.26 175.51,-112.79"/>
</a>
</g>
</g>
<!-- Node21 -->
<g id="Node000021" class="node">
<title>Node21</title>
<g id="a_Node000021"><a xlink:href="class_instance.html#a789f80bb6165405145c9b61da092b1d3" target="_top" xlink:title=" ">
<polygon fill="white" stroke="#666666" points="303.5,-67 183.25,-67 183.25,-47 303.5,-47 303.5,-67"/>
<text text-anchor="middle" x="243.38" y="-53.5" font-family="Helvetica,sans-Serif" font-size="10.00">Instance::showInstance</text>
</a>
</g>
</g>
<!-- Node1&#45;&gt;Node21 -->
<g id="edge25_Node000001_Node000021" class="edge">
<title>Node1&#45;&gt;Node21</title>
<g id="a_edge25_Node000001_Node000021"><a xlink:title=" ">
<path fill="none" stroke="#63b8ff" d="M72.83,-196.59C86.46,-167.54 118.88,-107.17 165.25,-76 167.52,-74.47 169.9,-73.07 172.36,-71.78"/>
<polygon fill="#63b8ff" stroke="#63b8ff" points="173.77,-74.98 181.47,-67.7 170.91,-68.6 173.77,-74.98"/>
</a>
</g>
</g>
<!-- Node6&#45;&gt;Node4 -->
<g id="edge9_Node000006_Node000004" class="edge">
<title>Node6&#45;&gt;Node4</title>
<g id="a_edge9_Node000006_Node000004"><a xlink:title=" ">
<path fill="none" stroke="#63b8ff" d="M308.28,-139.66C363.22,-140.97 444.43,-144.68 514.5,-155 533.49,-157.8 554.09,-162.34 571.99,-166.8"/>
<polygon fill="#63b8ff" stroke="#63b8ff" points="571.01,-170.16 581.57,-169.25 572.75,-163.38 571.01,-170.16"/>
</a>
</g>
</g>
<!-- Node7 -->
<g id="Node000007" class="node">
<title>Node7</title>
<g id="a_Node000007"><a xlink:href="struct_all_emulators.html#aa1df5ba4e1c2d0b4427f5d1bd3f3339c" target="_top" xlink:title=" ">
<polygon fill="white" stroke="#666666" points="499.12,-108 372.88,-108 372.88,-76 499.12,-76 499.12,-108"/>
<text text-anchor="start" x="380.88" y="-94.5" font-family="Helvetica,sans-Serif" font-size="10.00">AllEmulators::getFavorite</text>
<text text-anchor="middle" x="436" y="-82.5" font-family="Helvetica,sans-Serif" font-size="10.00">InstanceIndex</text>
</a>
</g>
</g>
<!-- Node6&#45;&gt;Node7 -->
<g id="edge6_Node000006_Node000007" class="edge">
<title>Node6&#45;&gt;Node7</title>
<g id="a_edge6_Node000006_Node000007"><a xlink:title=" ">
<path fill="none" stroke="#63b8ff" d="M308.38,-123.22C325.49,-119 344.11,-114.41 361.68,-110.08"/>
<polygon fill="#63b8ff" stroke="#63b8ff" points="362.12,-113.57 370.99,-107.78 360.44,-106.78 362.12,-113.57"/>
</a>
</g>
</g>
<!-- Node9 -->
<g id="Node000009" class="node">
<title>Node9</title>
<g id="a_Node000009"><a xlink:href="class_bot_config.html#abf2a58007d9d7ea7d39e4f5a47f70bfc" target="_top" xlink:title=" ">
<polygon fill="white" stroke="#666666" points="514.5,-58 357.5,-58 357.5,-38 514.5,-38 514.5,-58"/>
<text text-anchor="middle" x="436" y="-44.5" font-family="Helvetica,sans-Serif" font-size="10.00">BotConfig::readFavoriteInstance</text>
</a>
</g>
</g>
<!-- Node6&#45;&gt;Node9 -->
<g id="edge10_Node000006_Node000009" class="edge">
<title>Node6&#45;&gt;Node9</title>
<g id="a_edge10_Node000006_Node000009"><a xlink:title=" ">
<path fill="none" stroke="#63b8ff" d="M306.62,-122.58C311.86,-120.09 316.9,-117.25 321.5,-114 342.99,-98.81 335.47,-81.39 357.5,-67 359.62,-65.61 361.83,-64.33 364.11,-63.14"/>
<polygon fill="#63b8ff" stroke="#63b8ff" points="365.4,-66.4 373.1,-59.11 362.54,-60.01 365.4,-66.4"/>
</a>
</g>
</g>
<!-- Node7&#45;&gt;Node4 -->
<g id="edge8_Node000007_Node000004" class="edge">
<title>Node7&#45;&gt;Node4</title>
<g id="a_edge8_Node000007_Node000004"><a xlink:title=" ">
<path fill="none" stroke="#63b8ff" d="M482.51,-108.44C493.12,-112.6 504.3,-117.24 514.5,-122 541.83,-134.75 571.86,-151.6 592.82,-163.85"/>
<polygon fill="#63b8ff" stroke="#63b8ff" points="590.92,-166.79 601.31,-168.85 594.48,-160.76 590.92,-166.79"/>
</a>
</g>
</g>
<!-- Node8 -->
<g id="Node000008" class="node">
<title>Node8</title>
<g id="a_Node000008"><a xlink:href="class_instance.html#a951c978f2d8b94264ada22b2f881469b" target="_top" xlink:title=" ">
<polygon fill="white" stroke="#666666" points="675.25,-102 566.25,-102 566.25,-82 675.25,-82 675.25,-102"/>
<text text-anchor="middle" x="620.75" y="-88.5" font-family="Helvetica,sans-Serif" font-size="10.00">Instance::getGlobalId</text>
</a>
</g>
</g>
<!-- Node7&#45;&gt;Node8 -->
<g id="edge7_Node000007_Node000008" class="edge">
<title>Node7&#45;&gt;Node8</title>
<g id="a_edge7_Node000007_Node000008"><a xlink:title=" ">
<path fill="none" stroke="#63b8ff" d="M499.38,-92C517.19,-92 536.64,-92 554.62,-92"/>
<polygon fill="#63b8ff" stroke="#63b8ff" points="554.37,-95.5 564.37,-92 554.37,-88.5 554.37,-95.5"/>
</a>
</g>
</g>
<!-- Node10 -->
<g id="Node000010" class="node">
<title>Node10</title>
<g id="a_Node000010"><a xlink:href="class_bot_config.html#a6347ad0b79f04a755fe1d7151ed87cd2" target="_top" xlink:title=" ">
<polygon fill="white" stroke="#666666" points="691,-58 550.5,-58 550.5,-38 691,-38 691,-58"/>
<text text-anchor="middle" x="620.75" y="-44.5" font-family="Helvetica,sans-Serif" font-size="10.00">BotConfig::readStringBotFile</text>
</a>
</g>
</g>
<!-- Node9&#45;&gt;Node10 -->
<g id="edge11_Node000009_Node000010" class="edge">
<title>Node9&#45;&gt;Node10</title>
<g id="a_edge11_Node000009_Node000010"><a xlink:title=" ">
<path fill="none" stroke="#63b8ff" d="M514.77,-48C522.76,-48 530.89,-48 538.91,-48"/>
<polygon fill="#63b8ff" stroke="#63b8ff" points="538.64,-51.5 548.64,-48 538.64,-44.5 538.64,-51.5"/>
</a>
</g>
</g>
<!-- Node11 -->
<g id="Node000011" class="node">
<title>Node11</title>
<g id="a_Node000011"><a xlink:href="class_bot_config.html#a623d05e4d8e0122d35b1a3e391fc2464" target="_top" xlink:title=" ">
<polygon fill="white" stroke="#666666" points="836.75,-58 727,-58 727,-38 836.75,-38 836.75,-58"/>
<text text-anchor="middle" x="781.88" y="-44.5" font-family="Helvetica,sans-Serif" font-size="10.00">BotConfig::readString</text>
</a>
</g>
</g>
<!-- Node10&#45;&gt;Node11 -->
<g id="edge12_Node000010_Node000011" class="edge">
<title>Node10&#45;&gt;Node11</title>
<g id="a_edge12_Node000010_Node000011"><a xlink:title=" ">
<path fill="none" stroke="#63b8ff" d="M691.08,-48C699.07,-48 707.2,-48 715.14,-48"/>
<polygon fill="#63b8ff" stroke="#63b8ff" points="715.09,-51.5 725.09,-48 715.09,-44.5 715.09,-51.5"/>
</a>
</g>
</g>
<!-- Node12 -->
<g id="Node000012" class="node">
<title>Node12</title>
<g id="a_Node000012"><a xlink:href="_text_manager_8cpp.html#aa61ad4367d44c1e14541c7c1c46da795" target="_top" xlink:title=" ">
<polygon fill="white" stroke="#666666" points="953.25,-58 872.75,-58 872.75,-38 953.25,-38 953.25,-58"/>
<text text-anchor="middle" x="913" y="-44.5" font-family="Helvetica,sans-Serif" font-size="10.00">extractContent</text>
</a>
</g>
</g>
<!-- Node11&#45;&gt;Node12 -->
<g id="edge13_Node000011_Node000012" class="edge">
<title>Node11&#45;&gt;Node12</title>
<g id="a_edge13_Node000011_Node000012"><a xlink:title=" ">
<path fill="none" stroke="#63b8ff" d="M836.89,-48C844.87,-48 853.08,-48 861,-48"/>
<polygon fill="#63b8ff" stroke="#63b8ff" points="860.83,-51.5 870.83,-48 860.83,-44.5 860.83,-51.5"/>
</a>
</g>
</g>
<!-- Node14 -->
<g id="Node000014" class="node">
<title>Node14</title>
<g id="a_Node000014"><a xlink:href="_text_manager_8cpp.html#add36cc54cd9616a393a17b8961491477" target="_top" xlink:title=" ">
<polygon fill="white" stroke="#666666" points="952.88,-20 873.12,-20 873.12,0 952.88,0 952.88,-20"/>
<text text-anchor="middle" x="913" y="-6.5" font-family="Helvetica,sans-Serif" font-size="10.00">getFileContent</text>
</a>
</g>
</g>
<!-- Node11&#45;&gt;Node14 -->
<g id="edge15_Node000011_Node000014" class="edge">
<title>Node11&#45;&gt;Node14</title>
<g id="a_edge15_Node000011_Node000014"><a xlink:title=" ">
<path fill="none" stroke="#63b8ff" d="M818.5,-37.52C833.04,-33.24 850.04,-28.23 865.53,-23.67"/>
<polygon fill="#63b8ff" stroke="#63b8ff" points="866.43,-27.06 875.04,-20.88 864.46,-20.34 866.43,-27.06"/>
</a>
</g>
</g>
<!-- Node16 -->
<g id="Node000016" class="node">
<title>Node16</title>
<g id="a_Node000016"><a xlink:href="_text_manager_8cpp.html#af24bee60aa1d3d5b4ae3bf6ebd267ecd" target="_top" xlink:title=" ">
<polygon fill="white" stroke="#666666" points="936.75,-96 889.25,-96 889.25,-76 936.75,-76 936.75,-96"/>
<text text-anchor="middle" x="913" y="-82.5" font-family="Helvetica,sans-Serif" font-size="10.00">getLine</text>
</a>
</g>
</g>
<!-- Node11&#45;&gt;Node16 -->
<g id="edge17_Node000011_Node000016" class="edge">
<title>Node11&#45;&gt;Node16</title>
<g id="a_edge17_Node000011_Node000016"><a xlink:title=" ">
<path fill="none" stroke="#63b8ff" d="M818.5,-58.48C837.17,-63.98 859.91,-70.67 878.29,-76.08"/>
<polygon fill="#63b8ff" stroke="#63b8ff" points="877.06,-79.37 887.64,-78.83 879.04,-72.65 877.06,-79.37"/>
</a>
</g>
</g>
<!-- Node13 -->
<g id="Node000013" class="node">
<title>Node13</title>
<g id="a_Node000013"><a xlink:href="_text_manager_8cpp.html#afbb8972025ad14e914fdaafa26957439" target="_top" xlink:title=" ">
<polygon fill="white" stroke="#666666" points="1054.38,-77 1005.38,-77 1005.38,-57 1054.38,-57 1054.38,-77"/>
<text text-anchor="middle" x="1029.88" y="-63.5" font-family="Helvetica,sans-Serif" font-size="10.00">findPos</text>
</a>
</g>
</g>
<!-- Node12&#45;&gt;Node13 -->
<g id="edge14_Node000012_Node000013" class="edge">
<title>Node12&#45;&gt;Node13</title>
<g id="a_edge14_Node000012_Node000013"><a xlink:title=" ">
<path fill="none" stroke="#63b8ff" d="M953.53,-54.54C966.65,-56.71 981.15,-59.11 993.9,-61.22"/>
<polygon fill="#63b8ff" stroke="#63b8ff" points="993.1,-64.63 1003.54,-62.81 994.24,-57.72 993.1,-64.63"/>
</a>
</g>
</g>
<!-- Node15 -->
<g id="Node000015" class="node">
<title>Node15</title>
<g id="a_Node000015"><a xlink:href="_text_manager_8cpp.html#a5e4308ca14d1f4cfc2456fc26b1361a8" target="_top" xlink:title=" ">
<polygon fill="white" stroke="#666666" points="1070.5,-20 989.25,-20 989.25,0 1070.5,0 1070.5,-20"/>
<text text-anchor="middle" x="1029.88" y="-6.5" font-family="Helvetica,sans-Serif" font-size="10.00">getIfstreamFile</text>
</a>
</g>
</g>
<!-- Node14&#45;&gt;Node15 -->
<g id="edge16_Node000014_Node000015" class="edge">
<title>Node14&#45;&gt;Node15</title>
<g id="a_edge16_Node000014_Node000015"><a xlink:title=" ">
<path fill="none" stroke="#63b8ff" d="M953.21,-10C961.08,-10 969.45,-10 977.65,-10"/>
<polygon fill="#63b8ff" stroke="#63b8ff" points="977.55,-13.5 987.55,-10 977.55,-6.5 977.55,-13.5"/>
</a>
</g>
</g>
<!-- Node16&#45;&gt;Node13 -->
<g id="edge18_Node000016_Node000013" class="edge">
<title>Node16&#45;&gt;Node13</title>
<g id="a_edge18_Node000016_Node000013"><a xlink:title=" ">
<path fill="none" stroke="#63b8ff" d="M937.25,-82.16C953.57,-79.46 975.67,-75.8 994.09,-72.75"/>
<polygon fill="#63b8ff" stroke="#63b8ff" points="994.48,-76.24 1003.78,-71.15 993.34,-69.33 994.48,-76.24"/>
</a>
</g>
</g>
<!-- Node18 -->
<g id="Node000018" class="node">
<title>Node18</title>
<g id="a_Node000018"><a xlink:href="struct_all_emulators.html#ac38be2840e4ae476295c7f08b62caa1f" target="_top" xlink:title=" ">
<polygon fill="white" stroke="#666666" points="502.88,-246 369.12,-246 369.12,-214 502.88,-214 502.88,-246"/>
<text text-anchor="start" x="377.12" y="-232.5" font-family="Helvetica,sans-Serif" font-size="10.00">AllEmulators::isBluestacks</text>
<text text-anchor="middle" x="436" y="-220.5" font-family="Helvetica,sans-Serif" font-size="10.00">Instance</text>
</a>
</g>
</g>
<!-- Node17&#45;&gt;Node18 -->
<g id="edge20_Node000017_Node000018" class="edge">
<title>Node17&#45;&gt;Node18</title>
<g id="a_edge20_Node000017_Node000018"><a xlink:title=" ">
<path fill="none" stroke="#63b8ff" d="M305.48,-203.5C322,-206.88 340.11,-210.59 357.41,-214.13"/>
<polygon fill="#63b8ff" stroke="#63b8ff" points="356.66,-217.54 367.16,-216.12 358.06,-210.69 356.66,-217.54"/>
</a>
</g>
</g>
<!-- Node19 -->
<g id="Node000019" class="node">
<title>Node19</title>
<g id="a_Node000019"><a xlink:href="struct_all_emulators.html#afdb51d890e849116f1ef02b6da56e8b3" target="_top" xlink:title=" ">
<polygon fill="white" stroke="#666666" points="497.62,-196 374.38,-196 374.38,-164 497.62,-164 497.62,-196"/>
<text text-anchor="start" x="382.38" y="-182.5" font-family="Helvetica,sans-Serif" font-size="10.00">AllEmulators::isLdPlayer</text>
<text text-anchor="middle" x="436" y="-170.5" font-family="Helvetica,sans-Serif" font-size="10.00">Instance</text>
</a>
</g>
</g>
<!-- Node17&#45;&gt;Node19 -->
<g id="edge22_Node000017_Node000019" class="edge">
<title>Node17&#45;&gt;Node19</title>
<g id="a_edge22_Node000017_Node000019"><a xlink:title=" ">
<path fill="none" stroke="#63b8ff" d="M305.48,-187.47C323.69,-186.42 343.82,-185.26 362.68,-184.17"/>
<polygon fill="#63b8ff" stroke="#63b8ff" points="362.62,-187.68 372.41,-183.61 362.22,-180.69 362.62,-187.68"/>
</a>
</g>
</g>
<!-- Node18&#45;&gt;Node4 -->
<g id="edge21_Node000018_Node000004" class="edge">
<title>Node18&#45;&gt;Node4</title>
<g id="a_edge21_Node000018_Node000004"><a xlink:title=" ">
<path fill="none" stroke="#63b8ff" d="M497.09,-213.56C520.85,-207.06 547.83,-199.68 570.42,-193.5"/>
<polygon fill="#63b8ff" stroke="#63b8ff" points="571.27,-196.89 579.99,-190.88 569.42,-190.14 571.27,-196.89"/>
</a>
</g>
</g>
<!-- Node19&#45;&gt;Node4 -->
<g id="edge23_Node000019_Node000004" class="edge">
<title>Node19&#45;&gt;Node4</title>
<g id="a_edge23_Node000019_Node000004"><a xlink:title=" ">
<path fill="none" stroke="#63b8ff" d="M498.11,-180C513.14,-180 529.4,-180 544.99,-180"/>
<polygon fill="#63b8ff" stroke="#63b8ff" points="544.69,-183.5 554.69,-180 544.69,-176.5 544.69,-183.5"/>
</a>
</g>
</g>
</g>
</svg>
