<?xml version="1.0" encoding="UTF-8" standalone="no"?>
<!DOCTYPE svg PUBLIC "-//W3C//DTD SVG 1.1//EN"
 "http://www.w3.org/Graphics/SVG/1.1/DTD/svg11.dtd">
<!-- Generated by graphviz version 12.2.0 (20241103.1931)
 -->
<!-- Title: LoopTag::execute Pages: 1 -->
<svg width="491pt" height="218pt"
 viewBox="0.00 0.00 490.50 218.00" xmlns="http://www.w3.org/2000/svg" xmlns:xlink="http://www.w3.org/1999/xlink">

<svg id="main" version="1.1" xmlns="http://www.w3.org/2000/svg" xmlns:xlink="http://www.w3.org/1999/xlink" xml:space="preserve">

<style type="text/css"><![CDATA[
.node, .edge {opacity: 0.7;}
.node.selected, .edge.selected {opacity: 1;}
.edge:hover path { stroke: red; }
.edge:hover polygon { stroke: red; fill: red; }
]]></style>
<script type="application/ecmascript" xlink:href="svg.min.js"/>
<svg id="graph" class="graph">
<g id="graph0" class="graph" transform="scale(1 1) rotate(0) translate(4 214)">
<title>LoopTag::execute</title>
<!-- Node1 -->
<g id="Node000001" class="node">
<title>Node1</title>
<g id="a_Node000001"><a xlink:title=" ">
<polygon fill="#999999" stroke="#666666" points="93.25,-96 0,-96 0,-76 93.25,-76 93.25,-96"/>
<text text-anchor="middle" x="46.62" y="-82.5" font-family="Helvetica,sans-Serif" font-size="10.00">LoopTag::execute</text>
</a>
</g>
</g>
<!-- Node2 -->
<g id="Node000002" class="node">
<title>Node2</title>
<g id="a_Node000002"><a xlink:href="class_flow_tag.html#a31aaff76d66f8814e75a6e404c52028c" target="_top" xlink:title=" ">
<polygon fill="white" stroke="#666666" points="255.5,-115 129.25,-115 129.25,-95 255.5,-95 255.5,-115"/>
<text text-anchor="middle" x="192.38" y="-101.5" font-family="Helvetica,sans-Serif" font-size="10.00">FlowTag::checkCondition</text>
</a>
</g>
</g>
<!-- Node1&#45;&gt;Node2 -->
<g id="edge1_Node000001_Node000002" class="edge">
<title>Node1&#45;&gt;Node2</title>
<g id="a_edge1_Node000001_Node000002"><a xlink:title=" ">
<path fill="none" stroke="#63b8ff" d="M93.5,-92.06C101.24,-93.09 109.45,-94.17 117.68,-95.26"/>
<polygon fill="#63b8ff" stroke="#63b8ff" points="117.02,-98.7 127.39,-96.54 117.94,-91.76 117.02,-98.7"/>
</a>
</g>
</g>
<!-- Node10 -->
<g id="Node000010" class="node">
<title>Node10</title>
<g id="a_Node000010"><a xlink:href="class_flow_tag.html#ae6c96344984018fc5be3f56f89f2bf20" target="_top" xlink:title=" ">
<polygon fill="white" stroke="#666666" points="241.25,-77 143.5,-77 143.5,-57 241.25,-57 241.25,-77"/>
<text text-anchor="middle" x="192.38" y="-63.5" font-family="Helvetica,sans-Serif" font-size="10.00">FlowTag::showTag</text>
</a>
</g>
</g>
<!-- Node1&#45;&gt;Node10 -->
<g id="edge9_Node000001_Node000010" class="edge">
<title>Node1&#45;&gt;Node10</title>
<g id="a_edge9_Node000001_Node000010"><a xlink:title=" ">
<path fill="none" stroke="#63b8ff" d="M93.5,-79.94C105.83,-78.31 119.34,-76.52 132.28,-74.81"/>
<polygon fill="#63b8ff" stroke="#63b8ff" points="132.5,-78.31 141.96,-73.53 131.58,-71.37 132.5,-78.31"/>
</a>
</g>
</g>
<!-- Node3 -->
<g id="Node000003" class="node">
<title>Node3</title>
<g id="a_Node000003"><a xlink:href="_tags_8cpp.html#a760d219c228224543b5e154be938a6c2" target="_top" xlink:title=" ">
<polygon fill="white" stroke="#666666" points="361.5,-115 291.5,-115 291.5,-95 361.5,-95 361.5,-115"/>
<text text-anchor="middle" x="326.5" y="-101.5" font-family="Helvetica,sans-Serif" font-size="10.00">executeBool</text>
</a>
</g>
</g>
<!-- Node2&#45;&gt;Node3 -->
<g id="edge2_Node000002_Node000003" class="edge">
<title>Node2&#45;&gt;Node3</title>
<g id="a_edge2_Node000002_Node000003"><a xlink:title=" ">
<path fill="none" stroke="#63b8ff" d="M255.96,-105C264.02,-105 272.15,-105 279.87,-105"/>
<polygon fill="#63b8ff" stroke="#63b8ff" points="279.69,-108.5 289.69,-105 279.69,-101.5 279.69,-108.5"/>
</a>
</g>
</g>
<!-- Node4 -->
<g id="Node000004" class="node">
<title>Node4</title>
<g id="a_Node000004"><a xlink:href="_tags_8cpp.html#af91452b821388e3a5bd807713149302e" target="_top" xlink:title=" ">
<polygon fill="white" stroke="#666666" points="471.25,-210 408.75,-210 408.75,-190 471.25,-190 471.25,-210"/>
<text text-anchor="middle" x="440" y="-196.5" font-family="Helvetica,sans-Serif" font-size="10.00">getAndTag</text>
</a>
</g>
</g>
<!-- Node3&#45;&gt;Node4 -->
<g id="edge3_Node000003_Node000004" class="edge">
<title>Node3&#45;&gt;Node4</title>
<g id="a_edge3_Node000003_Node000004"><a xlink:title=" ">
<path fill="none" stroke="#63b8ff" d="M334.85,-115.31C346.58,-131.17 370.93,-161.72 397.5,-181 399.04,-182.12 400.66,-183.2 402.33,-184.23"/>
<polygon fill="#63b8ff" stroke="#63b8ff" points="400.44,-187.19 410.89,-188.92 403.8,-181.05 400.44,-187.19"/>
</a>
</g>
</g>
<!-- Node5 -->
<g id="Node000005" class="node">
<title>Node5</title>
<g id="a_Node000005"><a xlink:href="_tags_8cpp.html#ada36a59d6eb45b5f395f63dcebd48b61" target="_top" xlink:title=" ">
<polygon fill="white" stroke="#666666" points="472.38,-172 407.62,-172 407.62,-152 472.38,-152 472.38,-172"/>
<text text-anchor="middle" x="440" y="-158.5" font-family="Helvetica,sans-Serif" font-size="10.00">getBoolTag</text>
</a>
</g>
</g>
<!-- Node3&#45;&gt;Node5 -->
<g id="edge4_Node000003_Node000005" class="edge">
<title>Node3&#45;&gt;Node5</title>
<g id="a_edge4_Node000003_Node000005"><a xlink:title=" ">
<path fill="none" stroke="#63b8ff" d="M345.74,-115.35C359.77,-123.19 379.69,-134.1 397.5,-143 400.04,-144.27 402.69,-145.56 405.36,-146.83"/>
<polygon fill="#63b8ff" stroke="#63b8ff" points="403.69,-149.92 414.23,-150.98 406.66,-143.58 403.69,-149.92"/>
</a>
</g>
</g>
<!-- Node6 -->
<g id="Node000006" class="node">
<title>Node6</title>
<g id="a_Node000006"><a xlink:href="_tags_8cpp.html#a084ac86e8860745ecc3d46c0a0ec9043" target="_top" xlink:title=" ">
<polygon fill="white" stroke="#666666" points="482.5,-134 397.5,-134 397.5,-114 482.5,-114 482.5,-134"/>
<text text-anchor="middle" x="440" y="-120.5" font-family="Helvetica,sans-Serif" font-size="10.00">getCompareTag</text>
</a>
</g>
</g>
<!-- Node3&#45;&gt;Node6 -->
<g id="edge5_Node000003_Node000006" class="edge">
<title>Node3&#45;&gt;Node6</title>
<g id="a_edge5_Node000003_Node000006"><a xlink:title=" ">
<path fill="none" stroke="#63b8ff" d="M361.86,-110.86C369.52,-112.16 377.81,-113.57 386.01,-114.97"/>
<polygon fill="#63b8ff" stroke="#63b8ff" points="385.15,-118.37 395.6,-116.6 386.33,-111.47 385.15,-118.37"/>
</a>
</g>
</g>
<!-- Node7 -->
<g id="Node000007" class="node">
<title>Node7</title>
<g id="a_Node000007"><a xlink:href="_tags_8cpp.html#aad17b0d48f011d5869f82adb31915669" target="_top" xlink:title=" ">
<polygon fill="white" stroke="#666666" points="473.12,-96 406.88,-96 406.88,-76 473.12,-76 473.12,-96"/>
<text text-anchor="middle" x="440" y="-82.5" font-family="Helvetica,sans-Serif" font-size="10.00">getLoadTag</text>
</a>
</g>
</g>
<!-- Node3&#45;&gt;Node7 -->
<g id="edge6_Node000003_Node000007" class="edge">
<title>Node3&#45;&gt;Node7</title>
<g id="a_edge6_Node000003_Node000007"><a xlink:title=" ">
<path fill="none" stroke="#63b8ff" d="M361.86,-99.14C372.41,-97.35 384.15,-95.35 395.23,-93.46"/>
<polygon fill="#63b8ff" stroke="#63b8ff" points="395.7,-96.93 404.97,-91.8 394.53,-90.03 395.7,-96.93"/>
</a>
</g>
</g>
<!-- Node8 -->
<g id="Node000008" class="node">
<title>Node8</title>
<g id="a_Node000008"><a xlink:href="_tags_8cpp.html#a805b34d208faf3a3fac1a282754b792b" target="_top" xlink:title=" ">
<polygon fill="white" stroke="#666666" points="470.5,-58 409.5,-58 409.5,-38 470.5,-38 470.5,-58"/>
<text text-anchor="middle" x="440" y="-44.5" font-family="Helvetica,sans-Serif" font-size="10.00">getNotTag</text>
</a>
</g>
</g>
<!-- Node3&#45;&gt;Node8 -->
<g id="edge7_Node000003_Node000008" class="edge">
<title>Node3&#45;&gt;Node8</title>
<g id="a_edge7_Node000003_Node000008"><a xlink:title=" ">
<path fill="none" stroke="#63b8ff" d="M345.74,-94.65C359.77,-86.81 379.69,-75.9 397.5,-67 400.04,-65.73 402.69,-64.44 405.36,-63.17"/>
<polygon fill="#63b8ff" stroke="#63b8ff" points="406.66,-66.42 414.23,-59.02 403.69,-60.08 406.66,-66.42"/>
</a>
</g>
</g>
<!-- Node9 -->
<g id="Node000009" class="node">
<title>Node9</title>
<g id="a_Node000009"><a xlink:href="_tags_8cpp.html#ad21823e37708103e71e5792016193442" target="_top" xlink:title=" ">
<polygon fill="white" stroke="#666666" points="467.88,-20 412.12,-20 412.12,0 467.88,0 467.88,-20"/>
<text text-anchor="middle" x="440" y="-6.5" font-family="Helvetica,sans-Serif" font-size="10.00">getOrTag</text>
</a>
</g>
</g>
<!-- Node3&#45;&gt;Node9 -->
<g id="edge8_Node000003_Node000009" class="edge">
<title>Node3&#45;&gt;Node9</title>
<g id="a_edge8_Node000003_Node000009"><a xlink:title=" ">
<path fill="none" stroke="#63b8ff" d="M334.85,-94.69C346.58,-78.83 370.93,-48.28 397.5,-29 399.04,-27.88 400.66,-26.8 402.33,-25.77"/>
<polygon fill="#63b8ff" stroke="#63b8ff" points="403.8,-28.95 410.89,-21.08 400.44,-22.81 403.8,-28.95"/>
</a>
</g>
</g>
</g>
</svg>
</svg>

<style type='text/css'>
<![CDATA[
[data-mouse-over-selected='false'] { opacity: 0.7; }
[data-mouse-over-selected='true']  { opacity: 1.0; }
]]>
</style>
<script type="application/ecmascript"><![CDATA[
document.addEventListener('DOMContentLoaded', (event) => {
  highlightEdges();
  highlightAdjacentNodes();
});
]]></script>
</svg>
