<?xml version="1.0" encoding="UTF-8" standalone="no"?>
<!DOCTYPE svg PUBLIC "-//W3C//DTD SVG 1.1//EN"
 "http://www.w3.org/Graphics/SVG/1.1/DTD/svg11.dtd">
<!-- Generated by graphviz version 12.2.0 (20241103.1931)
 -->
<!-- Title: Interactions::fOneTemplateMultipleTemplateA Pages: 1 -->
<!--zoomable 311 -->

<svg id="main" version="1.1" xmlns="http://www.w3.org/2000/svg" xmlns:xlink="http://www.w3.org/1999/xlink" xml:space="preserve" onload="init(evt)">

<style type="text/css"><![CDATA[
.node, .edge {opacity: 0.7;}
.node.selected, .edge.selected {opacity: 1;}
.edge:hover path { stroke: red; }
.edge:hover polygon { stroke: red; fill: red; }
]]></style>

<defs>
  <circle id="rim" cx="0" cy="0" r="7"/>
  <circle id="rim2" cx="0" cy="0" r="3.5"/>
  <g id="zoomPlus">
    <use xlink:href="#rim" fill="#404040"><set attributeName="fill" to="#808080" begin="zoomplus.mouseover" end="zoomplus.mouseout"/></use>
    <path d="M-4,0h8M0,-4v8" fill="none" stroke="white" stroke-width="1.5" pointer-events="none"/>
  </g>
  <g id="zoomMin">
    <use xlink:href="#rim" fill="#404040"><set attributeName="fill" to="#808080" begin="zoomminus.mouseover" end="zoomminus.mouseout"/></use>
    <path d="M-4,0h8" fill="none" stroke="white" stroke-width="1.5" pointer-events="none"/>
  </g>
  <g id="arrowUp" transform="translate(30 24)">
    <use xlink:href="#rim"/>
    <path pointer-events="none" fill="none" stroke="white" stroke-width="1.5" d="M0,-3.0v7 M-2.5,-0.5L0,-3.0L2.5,-0.5"/>
  </g>
  <g id="arrowRight" transform="rotate(90) translate(36 -43)">
    <use xlink:href="#rim"/>
    <path pointer-events="none" fill="none" stroke="white" stroke-width="1.5" d="M0,-3.0v7 M-2.5,-0.5L0,-3.0L2.5,-0.5"/>
  </g>
  <g id="arrowDown" transform="rotate(180) translate(-30 -48)">
    <use xlink:href="#rim"/>
    <path pointer-events="none" fill="none" stroke="white" stroke-width="1.5" d="M0,-3.0v7 M-2.5,-0.5L0,-3.0L2.5,-0.5"/>
  </g>
  <g id="arrowLeft" transform="rotate(270) translate(-36 17)">
    <use xlink:href="#rim"/>
    <path pointer-events="none" fill="none" stroke="white" stroke-width="1.5" d="M0,-3.0v7 M-2.5,-0.5L0,-3.0L2.5,-0.5"/>
  </g>
  <g id="resetDef">
    <use xlink:href="#rim2" fill="#404040"><set attributeName="fill" to="#808080" begin="reset.mouseover" end="reset.mouseout"/></use>
  </g>
</defs>
<script type="application/ecmascript">
var viewWidth = 1101;
var viewHeight = 311;
var sectionId = 'dynsection-60';
</script>
<script type="application/ecmascript" xlink:href="svg.min.js"/>
<svg id="graph" class="graph">
<g id="viewport">
<title>Interactions::fOneTemplateMultipleTemplateA</title>
<!-- Node1 -->
<g id="Node000001" class="node">
<title>Node1</title>
<g id="a_Node000001"><a xlink:title=" ">
<polygon fill="#999999" stroke="#666666" points="133.75,-158 0,-158 0,-126 133.75,-126 133.75,-158"/>
<text text-anchor="start" x="8" y="-144.5" font-family="Helvetica,sans-Serif" font-size="10.00">Interactions::fOneTemplate</text>
<text text-anchor="middle" x="66.88" y="-132.5" font-family="Helvetica,sans-Serif" font-size="10.00">MultipleTemplateA</text>
</a>
</g>
</g>
<!-- Node2 -->
<g id="Node000002" class="node">
<title>Node2</title>
<g id="a_Node000002"><a xlink:href="fopencv_8cpp.html#a95c56af5716e2b2d1b4df612796cc229" target="_top" xlink:title=" ">
<polygon fill="white" stroke="#666666" points="633.25,-247 519,-247 519,-227 633.25,-227 633.25,-247"/>
<text text-anchor="middle" x="576.12" y="-233.5" font-family="Helvetica,sans-Serif" font-size="10.00">cvmtfMultipleTemplate</text>
</a>
</g>
</g>
<!-- Node1&#45;&gt;Node2 -->
<g id="edge1_Node000001_Node000002" class="edge">
<title>Node1&#45;&gt;Node2</title>
<g id="a_edge1_Node000001_Node000002"><a xlink:title=" ">
<path fill="none" stroke="#63b8ff" d="M83.34,-158.34C101.88,-176.68 134.85,-205.5 169.75,-218 282.83,-258.5 425.08,-253.48 507.49,-245.61"/>
<polygon fill="#63b8ff" stroke="#63b8ff" points="507.61,-249.12 517.21,-244.64 506.91,-242.15 507.61,-249.12"/>
</a>
</g>
</g>
<!-- Node8 -->
<g id="Node000008" class="node">
<title>Node8</title>
<g id="a_Node000008"><a xlink:href="class_interactions.html#a5b5af2b125ff152043789cfcf70ffb2b" target="_top" xlink:title=" ">
<polygon fill="white" stroke="#666666" points="302.75,-209 176.5,-209 176.5,-189 302.75,-189 302.75,-209"/>
<text text-anchor="middle" x="239.62" y="-195.5" font-family="Helvetica,sans-Serif" font-size="10.00">Interactions::getTemplate</text>
</a>
</g>
</g>
<!-- Node1&#45;&gt;Node8 -->
<g id="edge8_Node000001_Node000008" class="edge">
<title>Node1&#45;&gt;Node8</title>
<g id="a_edge8_Node000001_Node000008"><a xlink:title=" ">
<path fill="none" stroke="#63b8ff" d="M109.22,-158.36C127.62,-165.4 149.64,-173.49 169.75,-180 175.5,-181.86 181.56,-183.7 187.6,-185.47"/>
<polygon fill="#63b8ff" stroke="#63b8ff" points="186.35,-188.75 196.93,-188.12 188.27,-182.02 186.35,-188.75"/>
</a>
</g>
</g>
<!-- Node10 -->
<g id="Node000010" class="node">
<title>Node10</title>
<g id="a_Node000010"><a xlink:href="class_interactions.html#a0a0ffd9ad1990de31fd7b2773db32667" target="_top" xlink:title=" ">
<polygon fill="white" stroke="#666666" points="300.12,-171 179.12,-171 179.12,-151 300.12,-151 300.12,-171"/>
<text text-anchor="middle" x="239.62" y="-157.5" font-family="Helvetica,sans-Serif" font-size="10.00">Interactions::loopPopUp</text>
</a>
</g>
</g>
<!-- Node1&#45;&gt;Node10 -->
<g id="edge10_Node000001_Node000010" class="edge">
<title>Node1&#45;&gt;Node10</title>
<g id="a_edge10_Node000001_Node000010"><a xlink:title=" ">
<path fill="none" stroke="#63b8ff" d="M133.89,-149.35C144.83,-150.56 156.21,-151.83 167.27,-153.06"/>
<polygon fill="#63b8ff" stroke="#63b8ff" points="166.82,-156.53 177.14,-154.16 167.59,-149.57 166.82,-156.53"/>
</a>
</g>
</g>
<!-- Node25 -->
<g id="Node000025" class="node">
<title>Node25</title>
<g id="a_Node000025"><a xlink:href="class_interactions.html#a9947d091de5ba2d09ec925866d231fe1" target="_top" xlink:title=" ">
<polygon fill="white" stroke="#666666" points="309.5,-133 169.75,-133 169.75,-113 309.5,-113 309.5,-133"/>
<text text-anchor="middle" x="239.62" y="-119.5" font-family="Helvetica,sans-Serif" font-size="10.00">Interactions::orderTemplates</text>
</a>
</g>
</g>
<!-- Node1&#45;&gt;Node25 -->
<g id="edge28_Node000001_Node000025" class="edge">
<title>Node1&#45;&gt;Node25</title>
<g id="a_edge28_Node000001_Node000025"><a xlink:title=" ">
<path fill="none" stroke="#63b8ff" d="M133.89,-134.65C141.8,-133.77 149.94,-132.87 158.03,-131.97"/>
<polygon fill="#63b8ff" stroke="#63b8ff" points="158.34,-135.46 167.89,-130.87 157.56,-128.5 158.34,-135.46"/>
</a>
</g>
</g>
<!-- Node26 -->
<g id="Node000026" class="node">
<title>Node26</title>
<g id="a_Node000026"><a xlink:href="class_interactions.html#ade7f52c59105f434650b9358b22e5488" target="_top" xlink:title=" ">
<polygon fill="white" stroke="#666666" points="300.12,-95 179.12,-95 179.12,-75 300.12,-75 300.12,-95"/>
<text text-anchor="middle" x="239.62" y="-81.5" font-family="Helvetica,sans-Serif" font-size="10.00">Interactions::resetCount</text>
</a>
</g>
</g>
<!-- Node1&#45;&gt;Node26 -->
<g id="edge29_Node000001_Node000026" class="edge">
<title>Node1&#45;&gt;Node26</title>
<g id="a_edge29_Node000001_Node000026"><a xlink:title=" ">
<path fill="none" stroke="#63b8ff" d="M109.22,-125.64C127.62,-118.6 149.64,-110.51 169.75,-104 175.5,-102.14 181.56,-100.3 187.6,-98.53"/>
<polygon fill="#63b8ff" stroke="#63b8ff" points="188.27,-101.98 196.93,-95.88 186.35,-95.25 188.27,-101.98"/>
</a>
</g>
</g>
<!-- Node27 -->
<g id="Node000027" class="node">
<title>Node27</title>
<g id="a_Node000027"><a xlink:href="class_interactions.html#ad7daddd9df3cea80e69872b8afd6c8dc" target="_top" xlink:title=" ">
<polygon fill="white" stroke="#666666" points="483,-77 345.5,-77 345.5,-57 483,-57 483,-77"/>
<text text-anchor="middle" x="414.25" y="-63.5" font-family="Helvetica,sans-Serif" font-size="10.00">Interactions::templateFound</text>
</a>
</g>
</g>
<!-- Node1&#45;&gt;Node27 -->
<g id="edge30_Node000001_Node000027" class="edge">
<title>Node1&#45;&gt;Node27</title>
<g id="a_edge30_Node000001_Node000027"><a xlink:title=" ">
<path fill="none" stroke="#63b8ff" d="M82.91,-125.7C101.3,-107.11 134.36,-77.75 169.75,-66 226.14,-47.28 294.01,-49.42 343.76,-55.15"/>
<polygon fill="#63b8ff" stroke="#63b8ff" points="343.18,-58.61 353.54,-56.36 344.04,-51.66 343.18,-58.61"/>
</a>
</g>
</g>
<!-- Node3 -->
<g id="Node000003" class="node">
<title>Node3</title>
<g id="a_Node000003"><a xlink:href="fopencv_8cpp.html#af6fc77188d314c0d5a58888452f9b313" target="_top" xlink:title=" ">
<polygon fill="white" stroke="#666666" points="761.38,-209 693.62,-209 693.62,-189 761.38,-189 761.38,-209"/>
<text text-anchor="middle" x="727.5" y="-195.5" font-family="Helvetica,sans-Serif" font-size="10.00">extractZone</text>
</a>
</g>
</g>
<!-- Node2&#45;&gt;Node3 -->
<g id="edge2_Node000002_Node000003" class="edge">
<title>Node2&#45;&gt;Node3</title>
<g id="a_edge2_Node000002_Node000003"><a xlink:title=" ">
<path fill="none" stroke="#63b8ff" d="M618.34,-226.52C638.21,-221.46 662.07,-215.39 682.32,-210.24"/>
<polygon fill="#63b8ff" stroke="#63b8ff" points="683.16,-213.64 691.98,-207.78 681.43,-206.85 683.16,-213.64"/>
</a>
</g>
</g>
<!-- Node4 -->
<g id="Node000004" class="node">
<title>Node4</title>
<g id="a_Node000004"><a xlink:href="struct_zone.html#a5301e7fcf185a5a79c1bf7d7930f4b8a" target="_top" xlink:title=" ">
<polygon fill="white" stroke="#666666" points="761.75,-247 693.25,-247 693.25,-227 761.75,-227 761.75,-247"/>
<text text-anchor="middle" x="727.5" y="-233.5" font-family="Helvetica,sans-Serif" font-size="10.00">Zone::isNull</text>
</a>
</g>
</g>
<!-- Node2&#45;&gt;Node4 -->
<g id="edge3_Node000002_Node000004" class="edge">
<title>Node2&#45;&gt;Node4</title>
<g id="a_edge3_Node000002_Node000004"><a xlink:title=" ">
<path fill="none" stroke="#63b8ff" d="M633.6,-237C649.53,-237 666.64,-237 681.78,-237"/>
<polygon fill="#63b8ff" stroke="#63b8ff" points="681.41,-240.5 691.41,-237 681.41,-233.5 681.41,-240.5"/>
</a>
</g>
</g>
<!-- Node6 -->
<g id="Node000006" class="node">
<title>Node6</title>
<g id="a_Node000006"><a xlink:href="fopencv_8cpp.html#a7521a083566181475d36ee14aad60f1d" target="_top" xlink:title=" ">
<polygon fill="white" stroke="#666666" points="785.75,-285 669.25,-285 669.25,-265 785.75,-265 785.75,-285"/>
<text text-anchor="middle" x="727.5" y="-271.5" font-family="Helvetica,sans-Serif" font-size="10.00">multipleMatchTemplate</text>
</a>
</g>
</g>
<!-- Node2&#45;&gt;Node6 -->
<g id="edge5_Node000002_Node000006" class="edge">
<title>Node2&#45;&gt;Node6</title>
<g id="a_edge5_Node000002_Node000006"><a xlink:title=" ">
<path fill="none" stroke="#63b8ff" d="M618.34,-247.48C635.64,-251.89 655.97,-257.06 674.31,-261.72"/>
<polygon fill="#63b8ff" stroke="#63b8ff" points="673.4,-265.1 683.95,-264.18 675.13,-258.32 673.4,-265.1"/>
</a>
</g>
</g>
<!-- Node5 -->
<g id="Node000005" class="node">
<title>Node5</title>
<g id="a_Node000005"><a xlink:href="struct_coord.html#a34c573cd6230e5a532f12ae97e7395e2" target="_top" xlink:title=" ">
<polygon fill="white" stroke="#666666" points="894.75,-247 821.75,-247 821.75,-227 894.75,-227 894.75,-247"/>
<text text-anchor="middle" x="858.25" y="-233.5" font-family="Helvetica,sans-Serif" font-size="10.00">Coord::isNull</text>
</a>
</g>
</g>
<!-- Node4&#45;&gt;Node5 -->
<g id="edge4_Node000004_Node000005" class="edge">
<title>Node4&#45;&gt;Node5</title>
<g id="a_edge4_Node000004_Node000005"><a xlink:title=" ">
<path fill="none" stroke="#63b8ff" d="M761.99,-237C776.74,-237 794.32,-237 810.35,-237"/>
<polygon fill="#63b8ff" stroke="#63b8ff" points="810.16,-240.5 820.16,-237 810.16,-233.5 810.16,-240.5"/>
</a>
</g>
</g>
<!-- Node7 -->
<g id="Node000007" class="node">
<title>Node7</title>
<g id="a_Node000007"><a xlink:href="fopencv_8cpp.html#a6abdcaeee06b3da6f210daf0162bcd01" target="_top" xlink:title=" ">
<polygon fill="white" stroke="#666666" points="887.62,-285 828.88,-285 828.88,-265 887.62,-265 887.62,-285"/>
<text text-anchor="middle" x="858.25" y="-271.5" font-family="Helvetica,sans-Serif" font-size="10.00">intersects</text>
</a>
</g>
</g>
<!-- Node6&#45;&gt;Node7 -->
<g id="edge6_Node000006_Node000007" class="edge">
<title>Node6&#45;&gt;Node7</title>
<g id="a_edge6_Node000006_Node000007"><a xlink:title=" ">
<path fill="none" stroke="#63b8ff" d="M786.1,-275C796.57,-275 807.28,-275 817.11,-275"/>
<polygon fill="#63b8ff" stroke="#63b8ff" points="817.08,-278.5 827.08,-275 817.08,-271.5 817.08,-278.5"/>
</a>
</g>
</g>
<!-- Node7&#45;&gt;Node7 -->
<g id="edge7_Node000007_Node000007" class="edge">
<title>Node7&#45;&gt;Node7</title>
<g id="a_edge7_Node000007_Node000007"><a xlink:title=" ">
<path fill="none" stroke="#63b8ff" d="M841.41,-285.34C834.21,-293.98 839.82,-303 858.25,-303 868.33,-303 874.57,-300.3 876.98,-296.44"/>
<polygon fill="#63b8ff" stroke="#63b8ff" points="880.48,-296.1 875.35,-286.83 873.58,-297.28 880.48,-296.1"/>
</a>
</g>
</g>
<!-- Node9 -->
<g id="Node000009" class="node">
<title>Node9</title>
<g id="a_Node000009"><a xlink:href="struct_template.html#a93d3c6f97592ba09d7819fda3c3296d7" target="_top" xlink:title=" ">
<polygon fill="white" stroke="#666666" points="462.38,-209 366.12,-209 366.12,-189 462.38,-189 462.38,-209"/>
<text text-anchor="middle" x="414.25" y="-195.5" font-family="Helvetica,sans-Serif" font-size="10.00">Template::setType</text>
</a>
</g>
</g>
<!-- Node8&#45;&gt;Node9 -->
<g id="edge9_Node000008_Node000009" class="edge">
<title>Node8&#45;&gt;Node9</title>
<g id="a_edge9_Node000008_Node000009"><a xlink:title=" ">
<path fill="none" stroke="#63b8ff" d="M302.95,-199C319.74,-199 337.85,-199 354.44,-199"/>
<polygon fill="#63b8ff" stroke="#63b8ff" points="354.14,-202.5 364.14,-199 354.14,-195.5 354.14,-202.5"/>
</a>
</g>
</g>
<!-- Node11 -->
<g id="Node000011" class="node">
<title>Node11</title>
<g id="a_Node000011"><a xlink:href="fopencv_8cpp.html#a5c455ed716b7fa4c675446fc5b8ba4fb" target="_top" xlink:title=" ">
<polygon fill="white" stroke="#666666" points="445.12,-171 383.38,-171 383.38,-151 445.12,-151 445.12,-171"/>
<text text-anchor="middle" x="414.25" y="-157.5" font-family="Helvetica,sans-Serif" font-size="10.00">CreateMat</text>
</a>
</g>
</g>
<!-- Node10&#45;&gt;Node11 -->
<g id="edge11_Node000010_Node000011" class="edge">
<title>Node10&#45;&gt;Node11</title>
<g id="a_edge11_Node000010_Node000011"><a xlink:title=" ">
<path fill="none" stroke="#63b8ff" d="M300.52,-161C324.02,-161 350.41,-161 371.74,-161"/>
<polygon fill="#63b8ff" stroke="#63b8ff" points="371.51,-164.5 381.51,-161 371.51,-157.5 371.51,-164.5"/>
</a>
</g>
</g>
<!-- Node12 -->
<g id="Node000012" class="node">
<title>Node12</title>
<g id="a_Node000012"><a xlink:href="class_interactions.html#aed04f9177d2aba467d71818a5e82c7bc" target="_top" xlink:title=" ">
<polygon fill="white" stroke="#666666" points="471.38,-133 357.12,-133 357.12,-113 471.38,-113 471.38,-133"/>
<text text-anchor="middle" x="414.25" y="-119.5" font-family="Helvetica,sans-Serif" font-size="10.00">Interactions::fcpopupA</text>
</a>
</g>
</g>
<!-- Node10&#45;&gt;Node12 -->
<g id="edge12_Node000010_Node000012" class="edge">
<title>Node10&#45;&gt;Node12</title>
<g id="a_edge12_Node000010_Node000012"><a xlink:title=" ">
<path fill="none" stroke="#63b8ff" d="M288.25,-150.52C308.82,-145.99 333.08,-140.65 354.73,-135.88"/>
<polygon fill="#63b8ff" stroke="#63b8ff" points="355.29,-139.34 364.3,-133.78 353.78,-132.51 355.29,-139.34"/>
</a>
</g>
</g>
<!-- Node18 -->
<g id="Node000018" class="node">
<title>Node18</title>
<g id="a_Node000018"><a xlink:href="fadb_8cpp.html#aeec40a5f78ae4713eedd84cb5f75746f" target="_top" xlink:title=" ">
<polygon fill="white" stroke="#666666" points="446.25,-39 382.25,-39 382.25,-19 446.25,-19 446.25,-39"/>
<text text-anchor="middle" x="414.25" y="-25.5" font-family="Helvetica,sans-Serif" font-size="10.00">screenshot</text>
</a>
</g>
</g>
<!-- Node10&#45;&gt;Node18 -->
<g id="edge21_Node000010_Node000018" class="edge">
<title>Node10&#45;&gt;Node18</title>
<g id="a_edge21_Node000010_Node000018"><a xlink:title=" ">
<path fill="none" stroke="#63b8ff" d="M296.8,-150.54C301.41,-148.23 305.73,-145.42 309.5,-142 342.62,-111.93 312.44,-78.14 345.5,-48 352.56,-41.56 361.63,-37.29 370.82,-34.45"/>
<polygon fill="#63b8ff" stroke="#63b8ff" points="371.65,-37.85 380.5,-32.02 369.95,-31.06 371.65,-37.85"/>
</a>
</g>
</g>
<!-- Node13 -->
<g id="Node000013" class="node">
<title>Node13</title>
<g id="a_Node000013"><a xlink:href="class_interactions.html#aae6172962092f278714536142e987cde" target="_top" xlink:title=" ">
<polygon fill="white" stroke="#666666" points="622.75,-77 529.5,-77 529.5,-57 622.75,-57 622.75,-77"/>
<text text-anchor="middle" x="576.12" y="-63.5" font-family="Helvetica,sans-Serif" font-size="10.00">Interactions::click</text>
</a>
</g>
</g>
<!-- Node12&#45;&gt;Node13 -->
<g id="edge13_Node000012_Node000013" class="edge">
<title>Node12&#45;&gt;Node13</title>
<g id="a_edge13_Node000012_Node000013"><a xlink:title=" ">
<path fill="none" stroke="#63b8ff" d="M444.95,-112.6C470.22,-103.75 506.75,-90.95 534.69,-81.16"/>
<polygon fill="#63b8ff" stroke="#63b8ff" points="535.61,-84.55 543.89,-77.94 533.29,-77.94 535.61,-84.55"/>
</a>
</g>
</g>
<!-- Node14 -->
<g id="Node000014" class="node">
<title>Node14</title>
<g id="a_Node000014"><a xlink:href="fopencv_8cpp.html#a69713584f69a121e4ed91918a64448a0" target="_top" xlink:title=" ">
<polygon fill="white" stroke="#666666" points="616.38,-171 535.88,-171 535.88,-151 616.38,-151 616.38,-171"/>
<text text-anchor="middle" x="576.12" y="-157.5" font-family="Helvetica,sans-Serif" font-size="10.00">cvmtfTemplate</text>
</a>
</g>
</g>
<!-- Node12&#45;&gt;Node14 -->
<g id="edge15_Node000012_Node000014" class="edge">
<title>Node12&#45;&gt;Node14</title>
<g id="a_edge15_Node000012_Node000014"><a xlink:title=" ">
<path fill="none" stroke="#63b8ff" d="M459.36,-133.48C479.57,-138.29 503.64,-144.01 524.58,-148.99"/>
<polygon fill="#63b8ff" stroke="#63b8ff" points="523.52,-152.33 534.05,-151.24 525.13,-145.52 523.52,-152.33"/>
</a>
</g>
</g>
<!-- Node17 -->
<g id="Node000017" class="node">
<title>Node17</title>
<g id="a_Node000017"><a xlink:href="class_interactions.html#abd5b5d8a44970e1333e3611e302f166c" target="_top" xlink:title=" ">
<polygon fill="white" stroke="#666666" points="621.62,-133 530.62,-133 530.62,-113 621.62,-113 621.62,-133"/>
<text text-anchor="middle" x="576.12" y="-119.5" font-family="Helvetica,sans-Serif" font-size="10.00">Interactions::wait</text>
</a>
</g>
</g>
<!-- Node12&#45;&gt;Node17 -->
<g id="edge20_Node000012_Node000017" class="edge">
<title>Node12&#45;&gt;Node17</title>
<g id="a_edge20_Node000012_Node000017"><a xlink:title=" ">
<path fill="none" stroke="#63b8ff" d="M471.62,-123C486.95,-123 503.55,-123 518.87,-123"/>
<polygon fill="#63b8ff" stroke="#63b8ff" points="518.79,-126.5 528.79,-123 518.79,-119.5 518.79,-126.5"/>
</a>
</g>
</g>
<!-- Node13&#45;&gt;Node13 -->
<g id="edge14_Node000013_Node000013" class="edge">
<title>Node13&#45;&gt;Node13</title>
<g id="a_edge14_Node000013_Node000013"><a xlink:title=" ">
<path fill="none" stroke="#63b8ff" d="M552.07,-77.34C541.79,-85.98 549.81,-95 576.12,-95 590.52,-95 599.43,-92.3 602.88,-88.44"/>
<polygon fill="#63b8ff" stroke="#63b8ff" points="606.3,-87.7 600.53,-78.81 599.5,-89.35 606.3,-87.7"/>
</a>
</g>
</g>
<!-- Node14&#45;&gt;Node3 -->
<g id="edge16_Node000014_Node000003" class="edge">
<title>Node14&#45;&gt;Node3</title>
<g id="a_edge16_Node000014_Node000003"><a xlink:title=" ">
<path fill="none" stroke="#63b8ff" d="M616.76,-171.08C636.89,-176.2 661.41,-182.44 682.16,-187.72"/>
<polygon fill="#63b8ff" stroke="#63b8ff" points="681.23,-191.1 691.79,-190.17 682.96,-184.31 681.23,-191.1"/>
</a>
</g>
</g>
<!-- Node14&#45;&gt;Node4 -->
<g id="edge17_Node000014_Node000004" class="edge">
<title>Node14&#45;&gt;Node4</title>
<g id="a_edge17_Node000014_Node000004"><a xlink:title=" ">
<path fill="none" stroke="#63b8ff" d="M591.52,-171.39C609.16,-183.77 640.28,-204.46 669.25,-218 673.47,-219.97 677.94,-221.83 682.46,-223.56"/>
<polygon fill="#63b8ff" stroke="#63b8ff" points="680.97,-226.74 691.56,-226.82 683.34,-220.15 680.97,-226.74"/>
</a>
</g>
</g>
<!-- Node15 -->
<g id="Node000015" class="node">
<title>Node15</title>
<g id="a_Node000015"><a xlink:href="fopencv_8cpp.html#a1ed1ff1a9df2ab889e1423cb11a58c06" target="_top" xlink:title=" ">
<polygon fill="white" stroke="#666666" points="768.88,-171 686.12,-171 686.12,-151 768.88,-151 768.88,-171"/>
<text text-anchor="middle" x="727.5" y="-157.5" font-family="Helvetica,sans-Serif" font-size="10.00">messageFound</text>
</a>
</g>
</g>
<!-- Node14&#45;&gt;Node15 -->
<g id="edge18_Node000014_Node000015" class="edge">
<title>Node14&#45;&gt;Node15</title>
<g id="a_edge18_Node000014_Node000015"><a xlink:title=" ">
<path fill="none" stroke="#63b8ff" d="M616.76,-161C634.37,-161 655.34,-161 674.21,-161"/>
<polygon fill="#63b8ff" stroke="#63b8ff" points="674.12,-164.5 684.12,-161 674.12,-157.5 674.12,-164.5"/>
</a>
</g>
</g>
<!-- Node16 -->
<g id="Node000016" class="node">
<title>Node16</title>
<g id="a_Node000016"><a xlink:href="fopencv_8cpp.html#ae51fd1f3ed39bd8c9b8da4a313d5aeb3" target="_top" xlink:title=" ">
<polygon fill="white" stroke="#666666" points="776.75,-133 678.25,-133 678.25,-113 776.75,-113 776.75,-133"/>
<text text-anchor="middle" x="727.5" y="-119.5" font-family="Helvetica,sans-Serif" font-size="10.00">oneMatchTemplate</text>
</a>
</g>
</g>
<!-- Node14&#45;&gt;Node16 -->
<g id="edge19_Node000014_Node000016" class="edge">
<title>Node14&#45;&gt;Node16</title>
<g id="a_edge19_Node000014_Node000016"><a xlink:title=" ">
<path fill="none" stroke="#63b8ff" d="M616.76,-150.92C634.38,-146.43 655.37,-141.1 674.24,-136.29"/>
<polygon fill="#63b8ff" stroke="#63b8ff" points="675.08,-139.69 683.91,-133.84 673.35,-132.91 675.08,-139.69"/>
</a>
</g>
</g>
<!-- Node19 -->
<g id="Node000019" class="node">
<title>Node19</title>
<g id="a_Node000019"><a xlink:href="fadb_8cpp.html#a7ab9819839864ebd26d0e7e68e330418" target="_top" xlink:title=" ">
<polygon fill="white" stroke="#666666" points="618.25,-39 534,-39 534,-19 618.25,-19 618.25,-39"/>
<text text-anchor="middle" x="576.12" y="-25.5" font-family="Helvetica,sans-Serif" font-size="10.00">takeScreenshot</text>
</a>
</g>
</g>
<!-- Node18&#45;&gt;Node19 -->
<g id="edge22_Node000018_Node000019" class="edge">
<title>Node18&#45;&gt;Node19</title>
<g id="a_edge22_Node000018_Node000019"><a xlink:title=" ">
<path fill="none" stroke="#63b8ff" d="M446.46,-29C468.05,-29 497.31,-29 522.47,-29"/>
<polygon fill="#63b8ff" stroke="#63b8ff" points="522.19,-32.5 532.19,-29 522.19,-25.5 522.19,-32.5"/>
</a>
</g>
</g>
<!-- Node20 -->
<g id="Node000020" class="node">
<title>Node20</title>
<g id="a_Node000020"><a xlink:href="fadb_8cpp.html#ac6339b59ba8238f7483dece7f3fdf51b" target="_top" xlink:title=" ">
<polygon fill="white" stroke="#666666" points="771.88,-39 683.12,-39 683.12,-19 771.88,-19 771.88,-39"/>
<text text-anchor="middle" x="727.5" y="-25.5" font-family="Helvetica,sans-Serif" font-size="10.00">runAdbLocalhost</text>
</a>
</g>
</g>
<!-- Node19&#45;&gt;Node20 -->
<g id="edge23_Node000019_Node000020" class="edge">
<title>Node19&#45;&gt;Node20</title>
<g id="a_edge23_Node000019_Node000020"><a xlink:title=" ">
<path fill="none" stroke="#63b8ff" d="M618.73,-29C635.09,-29 654.1,-29 671.56,-29"/>
<polygon fill="#63b8ff" stroke="#63b8ff" points="671.26,-32.5 681.26,-29 671.26,-25.5 671.26,-32.5"/>
</a>
</g>
</g>
<!-- Node21 -->
<g id="Node000021" class="node">
<title>Node21</title>
<g id="a_Node000021"><a xlink:href="fadb_8cpp.html#a383ae5fedc9f597a03c74c729a2eb740" target="_top" xlink:title=" ">
<polygon fill="white" stroke="#666666" points="881.62,-39 834.88,-39 834.88,-19 881.62,-19 881.62,-39"/>
<text text-anchor="middle" x="858.25" y="-25.5" font-family="Helvetica,sans-Serif" font-size="10.00">runAdb</text>
</a>
</g>
</g>
<!-- Node20&#45;&gt;Node21 -->
<g id="edge24_Node000020_Node000021" class="edge">
<title>Node20&#45;&gt;Node21</title>
<g id="a_edge24_Node000020_Node000021"><a xlink:title=" ">
<path fill="none" stroke="#63b8ff" d="M772.09,-29C788.83,-29 807.68,-29 823.37,-29"/>
<polygon fill="#63b8ff" stroke="#63b8ff" points="823.16,-32.5 833.16,-29 823.16,-25.5 823.16,-32.5"/>
</a>
</g>
</g>
<!-- Node22 -->
<g id="Node000022" class="node">
<title>Node22</title>
<g id="a_Node000022"><a xlink:href="sys_commands_8cpp.html#a321eb7e335377aa7182bafc8a1605032" target="_top" xlink:title=" ">
<polygon fill="white" stroke="#666666" points="997.75,-39 930.75,-39 930.75,-19 997.75,-19 997.75,-39"/>
<text text-anchor="middle" x="964.25" y="-25.5" font-family="Helvetica,sans-Serif" font-size="10.00">receivePipe</text>
</a>
</g>
</g>
<!-- Node21&#45;&gt;Node22 -->
<g id="edge25_Node000021_Node000022" class="edge">
<title>Node21&#45;&gt;Node22</title>
<g id="a_edge25_Node000021_Node000022"><a xlink:title=" ">
<path fill="none" stroke="#63b8ff" d="M882.07,-29C892.97,-29 906.39,-29 919.16,-29"/>
<polygon fill="#63b8ff" stroke="#63b8ff" points="919.1,-32.5 929.1,-29 919.1,-25.5 919.1,-32.5"/>
</a>
</g>
</g>
<!-- Node23 -->
<g id="Node000023" class="node">
<title>Node23</title>
<g id="a_Node000023"><a xlink:href="sys_commands_8cpp.html#a4771c79171a937893508dabadadbe099" target="_top" xlink:title=" ">
<polygon fill="white" stroke="#666666" points="1092.5,-58 1033.75,-58 1033.75,-38 1092.5,-38 1092.5,-58"/>
<text text-anchor="middle" x="1063.12" y="-44.5" font-family="Helvetica,sans-Serif" font-size="10.00">closePipe</text>
</a>
</g>
</g>
<!-- Node22&#45;&gt;Node23 -->
<g id="edge26_Node000022_Node000023" class="edge">
<title>Node22&#45;&gt;Node23</title>
<g id="a_edge26_Node000022_Node000023"><a xlink:title=" ">
<path fill="none" stroke="#63b8ff" d="M998.05,-35.43C1005.81,-36.95 1014.17,-38.59 1022.21,-40.17"/>
<polygon fill="#63b8ff" stroke="#63b8ff" points="1021.28,-43.56 1031.77,-42.05 1022.63,-36.69 1021.28,-43.56"/>
</a>
</g>
</g>
<!-- Node24 -->
<g id="Node000024" class="node">
<title>Node24</title>
<g id="a_Node000024"><a xlink:href="sys_commands_8cpp.html#a3499ce0cd7e4ed28b3c5461a4d3aec84" target="_top" xlink:title=" ">
<polygon fill="white" stroke="#666666" points="1091.38,-20 1034.88,-20 1034.88,0 1091.38,0 1091.38,-20"/>
<text text-anchor="middle" x="1063.12" y="-6.5" font-family="Helvetica,sans-Serif" font-size="10.00">openPipe</text>
</a>
</g>
</g>
<!-- Node22&#45;&gt;Node24 -->
<g id="edge27_Node000022_Node000024" class="edge">
<title>Node22&#45;&gt;Node24</title>
<g id="a_edge27_Node000022_Node000024"><a xlink:title=" ">
<path fill="none" stroke="#63b8ff" d="M998.05,-22.57C1006.2,-20.97 1015.01,-19.24 1023.42,-17.59"/>
<polygon fill="#63b8ff" stroke="#63b8ff" points="1023.9,-21.06 1033.04,-15.7 1022.55,-14.19 1023.9,-21.06"/>
</a>
</g>
</g>
<!-- Node27&#45;&gt;Node13 -->
<g id="edge31_Node000027_Node000013" class="edge">
<title>Node27&#45;&gt;Node13</title>
<g id="a_edge31_Node000027_Node000013"><a xlink:title=" ">
<path fill="none" stroke="#63b8ff" d="M483.05,-67C494.67,-67 506.65,-67 517.96,-67"/>
<polygon fill="#63b8ff" stroke="#63b8ff" points="517.94,-70.5 527.94,-67 517.94,-63.5 517.94,-70.5"/>
</a>
</g>
</g>
<!-- Node27&#45;&gt;Node17 -->
<g id="edge32_Node000027_Node000017" class="edge">
<title>Node27&#45;&gt;Node17</title>
<g id="a_edge32_Node000027_Node000017"><a xlink:title=" ">
<path fill="none" stroke="#63b8ff" d="M444.27,-77.49C465.05,-84.97 493.71,-95.21 519,-104 523.66,-105.62 528.55,-107.3 533.41,-108.96"/>
<polygon fill="#63b8ff" stroke="#63b8ff" points="531.9,-112.14 542.49,-112.05 534.15,-105.52 531.9,-112.14"/>
</a>
</g>
</g>
</g>
</svg>

<g id="navigator" transform="translate(0 0)" fill="#404254">
  <rect fill="#f2f5e9" fill-opacity="0.5" stroke="#606060" stroke-width=".5" x="0" y="0" width="60" height="60"/>
  <use id="zoomplus" xlink:href="#zoomPlus" x="17" y="9" onmousedown="handleZoom(evt,'in')"/>
  <use id="zoomminus" xlink:href="#zoomMin" x="42" y="9" onmousedown="handleZoom(evt,'out')"/>
  <use id="reset" xlink:href="#resetDef" x="30" y="36" onmousedown="handleReset()"/>
   <use id="arrowup" xlink:href="#arrowUp" x="0" y="0" onmousedown="handlePan(0,-1)"/>
  <use id="arrowright" xlink:href="#arrowRight" x="0" y="0" onmousedown="handlePan(1,0)"/>
  <use id="arrowdown" xlink:href="#arrowDown" x="0" y="0" onmousedown="handlePan(0,1)"/>
  <use id="arrowleft" xlink:href="#arrowLeft" x="0" y="0" onmousedown="handlePan(-1,0)"/>
</g>
<svg viewBox="0 0 15 15" width="100%" height="30px" preserveAspectRatio="xMaxYMin meet">
 <g id="arrow_out" transform="scale(0.3 0.3)">
  <a xlink:href="class_interactions_a2b8392d9a1a414b61dca6d6320fd2f79_cgraph_org.svg" target="_base">
   <rect id="button" ry="5" rx="5" y="6" x="6" height="38" width="38"
        fill="#f2f5e9" fill-opacity="0.5" stroke="#606060" stroke-width="1.0"/>
   <path id="arrow"
     d="M 11.500037,31.436501 C 11.940474,20.09759 22.043105,11.32322 32.158766,21.979434 L 37.068811,17.246167 C 37.068811,17.246167 37.088388,32 37.088388,32 L 22.160133,31.978069 C 22.160133,31.978069 26.997745,27.140456 26.997745,27.140456 C 18.528582,18.264221 13.291696,25.230495 11.500037,31.436501 z"
     style="fill:#404040;"/>
  </a>
 </g>
</svg>

<style type='text/css'>
<![CDATA[
[data-mouse-over-selected='false'] { opacity: 0.7; }
[data-mouse-over-selected='true']  { opacity: 1.0; }
]]>
</style>
<script type="application/ecmascript"><![CDATA[
document.addEventListener('DOMContentLoaded', (event) => {
  highlightEdges();
  highlightAdjacentNodes();
});
]]></script>
</svg>
