<?xml version="1.0" encoding="UTF-8" standalone="no"?>
<!DOCTYPE svg PUBLIC "-//W3C//DTD SVG 1.1//EN"
 "http://www.w3.org/Graphics/SVG/1.1/DTD/svg11.dtd">
<!-- Generated by graphviz version 12.2.0 (20241103.1931)
 -->
<!-- Title: FlowKCToken::addTokens Pages: 1 -->
<svg width="476pt" height="256pt"
 viewBox="0.00 0.00 476.00 256.00" xmlns="http://www.w3.org/2000/svg" xmlns:xlink="http://www.w3.org/1999/xlink">

<svg id="main" version="1.1" xmlns="http://www.w3.org/2000/svg" xmlns:xlink="http://www.w3.org/1999/xlink" xml:space="preserve">

<style type="text/css"><![CDATA[
.node, .edge {opacity: 0.7;}
.node.selected, .edge.selected {opacity: 1;}
.edge:hover path { stroke: red; }
.edge:hover polygon { stroke: red; fill: red; }
]]></style>
<script type="application/ecmascript" xlink:href="svg.min.js"/>
<svg id="graph" class="graph">
<g id="graph0" class="graph" transform="scale(1 1) rotate(0) translate(4 252)">
<title>FlowKCToken::addTokens</title>
<!-- Node1 -->
<g id="Node000001" class="node">
<title>Node1</title>
<g id="a_Node000001"><a xlink:title=" ">
<polygon fill="#999999" stroke="#666666" points="130.75,-134 0,-134 0,-114 130.75,-114 130.75,-134"/>
<text text-anchor="middle" x="65.38" y="-120.5" font-family="Helvetica,sans-Serif" font-size="10.00">FlowKCToken::addTokens</text>
</a>
</g>
</g>
<!-- Node2 -->
<g id="Node000002" class="node">
<title>Node2</title>
<g id="a_Node000002"><a xlink:href="class_flow_k_p_token.html#ab25c9519d5389e5abbda0b6b378ef9ad" target="_top" xlink:title=" ">
<polygon fill="white" stroke="#666666" points="292.62,-248 181.38,-248 181.38,-228 292.62,-228 292.62,-248"/>
<text text-anchor="middle" x="237" y="-234.5" font-family="Helvetica,sans-Serif" font-size="10.00">FlowKPToken::addCb</text>
</a>
</g>
</g>
<!-- Node1&#45;&gt;Node2 -->
<g id="edge1_Node000001_Node000002" class="edge">
<title>Node1&#45;&gt;Node2</title>
<g id="a_edge1_Node000001_Node000002"><a xlink:title=" ">
<path fill="none" stroke="#63b8ff" d="M74.29,-134.3C89.84,-153.82 126.4,-196.28 166.75,-219 169.6,-220.61 172.6,-222.08 175.68,-223.44"/>
<polygon fill="#63b8ff" stroke="#63b8ff" points="174.38,-226.69 184.97,-227.05 176.92,-220.17 174.38,-226.69"/>
</a>
</g>
</g>
<!-- Node6 -->
<g id="Node000006" class="node">
<title>Node6</title>
<g id="a_Node000006"><a xlink:href="class_flow_k_c_token.html#aa8e871c7b557b02746ffad16e531a567" target="_top" xlink:title=" ">
<polygon fill="white" stroke="#666666" points="307.25,-96 166.75,-96 166.75,-76 307.25,-76 307.25,-96"/>
<text text-anchor="middle" x="237" y="-82.5" font-family="Helvetica,sans-Serif" font-size="10.00">FlowKCToken::addCondition</text>
</a>
</g>
</g>
<!-- Node1&#45;&gt;Node6 -->
<g id="edge5_Node000001_Node000006" class="edge">
<title>Node1&#45;&gt;Node6</title>
<g id="a_edge5_Node000001_Node000006"><a xlink:title=" ">
<path fill="none" stroke="#63b8ff" d="M113.17,-113.52C133.29,-109.01 157,-103.7 178.2,-98.95"/>
<polygon fill="#63b8ff" stroke="#63b8ff" points="178.88,-102.38 187.88,-96.78 177.35,-95.55 178.88,-102.38"/>
</a>
</g>
</g>
<!-- Node8 -->
<g id="Node000008" class="node">
<title>Node8</title>
<g id="a_Node000008"><a xlink:href="class_iterator_list.html#af5c370ccb8698e2a9fb0714782d57203" target="_top" xlink:title=" ">
<polygon fill="white" stroke="#666666" points="449.25,-96 362,-96 362,-76 449.25,-76 449.25,-96"/>
<text text-anchor="middle" x="405.62" y="-82.5" font-family="Helvetica,sans-Serif" font-size="10.00">IteratorList::next</text>
</a>
</g>
</g>
<!-- Node1&#45;&gt;Node8 -->
<g id="edge26_Node000001_Node000008" class="edge">
<title>Node1&#45;&gt;Node8</title>
<g id="a_edge26_Node000001_Node000008"><a xlink:title=" ">
<path fill="none" stroke="#63b8ff" d="M79.35,-113.65C97.6,-99.84 132.46,-76.06 166.75,-67 230.9,-50.06 307.89,-61.75 356.54,-72.88"/>
<polygon fill="#63b8ff" stroke="#63b8ff" points="355.67,-76.27 366.2,-75.18 357.29,-69.46 355.67,-76.27"/>
</a>
</g>
</g>
<!-- Node9 -->
<g id="Node000009" class="node">
<title>Node9</title>
<g id="a_Node000009"><a xlink:href="class_k_p_token.html#a0a95e55ef2440fbaa21cd74442eb3c65" target="_top" xlink:title=" ">
<polygon fill="white" stroke="#666666" points="282.12,-210 191.88,-210 191.88,-190 282.12,-190 282.12,-210"/>
<text text-anchor="middle" x="237" y="-196.5" font-family="Helvetica,sans-Serif" font-size="10.00">KPToken::addCp</text>
</a>
</g>
</g>
<!-- Node1&#45;&gt;Node9 -->
<g id="edge11_Node000001_Node000009" class="edge">
<title>Node1&#45;&gt;Node9</title>
<g id="a_edge11_Node000001_Node000009"><a xlink:title=" ">
<path fill="none" stroke="#63b8ff" d="M81.75,-134.35C100.94,-146.87 135.08,-167.9 166.75,-181 171.28,-182.87 176.05,-184.62 180.88,-186.23"/>
<polygon fill="#63b8ff" stroke="#63b8ff" points="179.45,-189.45 190.04,-189.1 181.54,-182.77 179.45,-189.45"/>
</a>
</g>
</g>
<!-- Node10 -->
<g id="Node000010" class="node">
<title>Node10</title>
<g id="a_Node000010"><a xlink:href="class_flow_k_p_token.html#a2a3c69d4e82ac4a76c1f39ea505a64e7" target="_top" xlink:title=" ">
<polygon fill="white" stroke="#666666" points="292.62,-172 181.38,-172 181.38,-152 292.62,-152 292.62,-172"/>
<text text-anchor="middle" x="237" y="-158.5" font-family="Helvetica,sans-Serif" font-size="10.00">FlowKPToken::addOb</text>
</a>
</g>
</g>
<!-- Node1&#45;&gt;Node10 -->
<g id="edge16_Node000001_Node000010" class="edge">
<title>Node1&#45;&gt;Node10</title>
<g id="a_edge16_Node000001_Node000010"><a xlink:title=" ">
<path fill="none" stroke="#63b8ff" d="M113.17,-134.48C133.29,-138.99 157,-144.3 178.2,-149.05"/>
<polygon fill="#63b8ff" stroke="#63b8ff" points="177.35,-152.45 187.88,-151.22 178.88,-145.62 177.35,-152.45"/>
</a>
</g>
</g>
<!-- Node11 -->
<g id="Node000011" class="node">
<title>Node11</title>
<g id="a_Node000011"><a xlink:href="class_k_p_token.html#a0d6ee24aa23095edb2b1c9ba4baedc03" target="_top" xlink:title=" ">
<polygon fill="white" stroke="#666666" points="282.12,-134 191.88,-134 191.88,-114 282.12,-114 282.12,-134"/>
<text text-anchor="middle" x="237" y="-120.5" font-family="Helvetica,sans-Serif" font-size="10.00">KPToken::addOp</text>
</a>
</g>
</g>
<!-- Node1&#45;&gt;Node11 -->
<g id="edge21_Node000001_Node000011" class="edge">
<title>Node1&#45;&gt;Node11</title>
<g id="a_edge21_Node000001_Node000011"><a xlink:title=" ">
<path fill="none" stroke="#63b8ff" d="M130.99,-124C147.26,-124 164.59,-124 180.38,-124"/>
<polygon fill="#63b8ff" stroke="#63b8ff" points="180.05,-127.5 190.05,-124 180.05,-120.5 180.05,-127.5"/>
</a>
</g>
</g>
<!-- Node12 -->
<g id="Node000012" class="node">
<title>Node12</title>
<g id="a_Node000012"><a xlink:href="class_token.html#af13c7d494e5fe273558cb37286fa7185" target="_top" xlink:title=" ">
<polygon fill="white" stroke="#666666" points="284.75,-20 189.25,-20 189.25,0 284.75,0 284.75,-20"/>
<text text-anchor="middle" x="237" y="-6.5" font-family="Helvetica,sans-Serif" font-size="10.00">Token::updateRes</text>
</a>
</g>
</g>
<!-- Node1&#45;&gt;Node12 -->
<g id="edge27_Node000001_Node000012" class="edge">
<title>Node1&#45;&gt;Node12</title>
<g id="a_edge27_Node000001_Node000012"><a xlink:title=" ">
<path fill="none" stroke="#63b8ff" d="M75.31,-113.64C91.7,-95.21 128.43,-56.57 166.75,-34 172.87,-30.4 179.6,-27.23 186.4,-24.47"/>
<polygon fill="#63b8ff" stroke="#63b8ff" points="187.51,-27.79 195.64,-21 185.05,-21.24 187.51,-27.79"/>
</a>
</g>
</g>
<!-- Node3 -->
<g id="Node000003" class="node">
<title>Node3</title>
<g id="a_Node000003"><a xlink:href="class_token.html#a4c0f84a84656f0b5e28c4193c3c13ea3" target="_top" xlink:title=" ">
<polygon fill="white" stroke="#666666" points="448.12,-210 363.12,-210 363.12,-190 448.12,-190 448.12,-210"/>
<text text-anchor="middle" x="405.62" y="-196.5" font-family="Helvetica,sans-Serif" font-size="10.00">Token::addError</text>
</a>
</g>
</g>
<!-- Node2&#45;&gt;Node3 -->
<g id="edge2_Node000002_Node000003" class="edge">
<title>Node2&#45;&gt;Node3</title>
<g id="a_edge2_Node000002_Node000003"><a xlink:title=" ">
<path fill="none" stroke="#63b8ff" d="M283.97,-227.52C304.97,-222.73 329.96,-217.03 351.74,-212.06"/>
<polygon fill="#63b8ff" stroke="#63b8ff" points="352.35,-215.51 361.32,-209.88 350.79,-208.69 352.35,-215.51"/>
</a>
</g>
</g>
<!-- Node4 -->
<g id="Node000004" class="node">
<title>Node4</title>
<g id="a_Node000004"><a xlink:href="class_iterator_list.html#a4acf162e4a194bddd3c2fe26b073f45a" target="_top" xlink:title=" ">
<polygon fill="white" stroke="#666666" points="468,-172 343.25,-172 343.25,-152 468,-152 468,-172"/>
<text text-anchor="middle" x="405.62" y="-158.5" font-family="Helvetica,sans-Serif" font-size="10.00">IteratorList::currentToken</text>
</a>
</g>
</g>
<!-- Node2&#45;&gt;Node4 -->
<g id="edge3_Node000002_Node000004" class="edge">
<title>Node2&#45;&gt;Node4</title>
<g id="a_edge3_Node000002_Node000004"><a xlink:title=" ">
<path fill="none" stroke="#63b8ff" d="M288.88,-227.52C295.29,-225.2 301.58,-222.4 307.25,-219 327.2,-207.04 323.49,-193.29 343.25,-181 345.65,-179.51 348.18,-178.12 350.79,-176.84"/>
<polygon fill="#63b8ff" stroke="#63b8ff" points="351.94,-180.15 359.74,-172.98 349.17,-173.72 351.94,-180.15"/>
</a>
</g>
</g>
<!-- Node5 -->
<g id="Node000005" class="node">
<title>Node5</title>
<g id="a_Node000005"><a xlink:href="class_iterator_list.html#a2ebc1118094754b7d333b0a9d257d12b" target="_top" xlink:title=" ">
<polygon fill="white" stroke="#666666" points="453,-134 358.25,-134 358.25,-114 453,-114 453,-134"/>
<text text-anchor="middle" x="405.62" y="-120.5" font-family="Helvetica,sans-Serif" font-size="10.00">IteratorList::ended</text>
</a>
</g>
</g>
<!-- Node2&#45;&gt;Node5 -->
<g id="edge4_Node000002_Node000005" class="edge">
<title>Node2&#45;&gt;Node5</title>
<g id="a_edge4_Node000002_Node000005"><a xlink:title=" ">
<path fill="none" stroke="#63b8ff" d="M292.82,-227.9C298.03,-225.53 302.95,-222.61 307.25,-219 335.88,-194.98 315.01,-167.48 343.25,-143 344.73,-141.72 346.29,-140.52 347.92,-139.41"/>
<polygon fill="#63b8ff" stroke="#63b8ff" points="349.5,-142.53 356.53,-134.61 346.1,-136.42 349.5,-142.53"/>
</a>
</g>
</g>
<!-- Node6&#45;&gt;Node3 -->
<g id="edge6_Node000006_Node000003" class="edge">
<title>Node6&#45;&gt;Node3</title>
<g id="a_edge6_Node000006_Node000003"><a xlink:title=" ">
<path fill="none" stroke="#63b8ff" d="M293.52,-96.42C298.46,-98.73 303.14,-101.55 307.25,-105 335.88,-129.02 315.01,-156.52 343.25,-181 346.07,-183.45 349.21,-185.58 352.53,-187.44"/>
<polygon fill="#63b8ff" stroke="#63b8ff" points="350.97,-190.58 361.52,-191.59 353.91,-184.22 350.97,-190.58"/>
</a>
</g>
</g>
<!-- Node6&#45;&gt;Node4 -->
<g id="edge7_Node000006_Node000004" class="edge">
<title>Node6&#45;&gt;Node4</title>
<g id="a_edge7_Node000006_Node000004"><a xlink:title=" ">
<path fill="none" stroke="#63b8ff" d="M288.88,-96.48C295.29,-98.8 301.58,-101.6 307.25,-105 327.2,-116.96 323.49,-130.71 343.25,-143 345.65,-144.49 348.18,-145.88 350.79,-147.16"/>
<polygon fill="#63b8ff" stroke="#63b8ff" points="349.17,-150.28 359.74,-151.02 351.94,-143.85 349.17,-150.28"/>
</a>
</g>
</g>
<!-- Node6&#45;&gt;Node5 -->
<g id="edge8_Node000006_Node000005" class="edge">
<title>Node6&#45;&gt;Node5</title>
<g id="a_edge8_Node000006_Node000005"><a xlink:title=" ">
<path fill="none" stroke="#63b8ff" d="M283.97,-96.48C303.73,-100.99 327.03,-106.3 347.85,-111.05"/>
<polygon fill="#63b8ff" stroke="#63b8ff" points="346.8,-114.4 357.33,-113.21 348.36,-107.58 346.8,-114.4"/>
</a>
</g>
</g>
<!-- Node7 -->
<g id="Node000007" class="node">
<title>Node7</title>
<g id="a_Node000007"><a xlink:href="_interpretor_8cpp.html#add26727275e38a1c0054c4baa0c2662a" target="_top" xlink:title=" ">
<polygon fill="white" stroke="#666666" points="448.12,-58 363.12,-58 363.12,-38 448.12,-38 448.12,-58"/>
<text text-anchor="middle" x="405.62" y="-44.5" font-family="Helvetica,sans-Serif" font-size="10.00">isBooleanToken</text>
</a>
</g>
</g>
<!-- Node6&#45;&gt;Node7 -->
<g id="edge9_Node000006_Node000007" class="edge">
<title>Node6&#45;&gt;Node7</title>
<g id="a_edge9_Node000006_Node000007"><a xlink:title=" ">
<path fill="none" stroke="#63b8ff" d="M283.97,-75.52C304.97,-70.73 329.96,-65.03 351.74,-60.06"/>
<polygon fill="#63b8ff" stroke="#63b8ff" points="352.35,-63.51 361.32,-57.88 350.79,-56.69 352.35,-63.51"/>
</a>
</g>
</g>
<!-- Node6&#45;&gt;Node8 -->
<g id="edge10_Node000006_Node000008" class="edge">
<title>Node6&#45;&gt;Node8</title>
<g id="a_edge10_Node000006_Node000008"><a xlink:title=" ">
<path fill="none" stroke="#63b8ff" d="M307.7,-86C322.05,-86 336.96,-86 350.65,-86"/>
<polygon fill="#63b8ff" stroke="#63b8ff" points="350.32,-89.5 360.32,-86 350.32,-82.5 350.32,-89.5"/>
</a>
</g>
</g>
<!-- Node9&#45;&gt;Node3 -->
<g id="edge12_Node000009_Node000003" class="edge">
<title>Node9&#45;&gt;Node3</title>
<g id="a_edge12_Node000009_Node000003"><a xlink:title=" ">
<path fill="none" stroke="#63b8ff" d="M282.21,-200C303.48,-200 329.14,-200 351.46,-200"/>
<polygon fill="#63b8ff" stroke="#63b8ff" points="351.27,-203.5 361.27,-200 351.27,-196.5 351.27,-203.5"/>
</a>
</g>
</g>
<!-- Node9&#45;&gt;Node4 -->
<g id="edge13_Node000009_Node000004" class="edge">
<title>Node9&#45;&gt;Node4</title>
<g id="a_edge13_Node000009_Node000004"><a xlink:title=" ">
<path fill="none" stroke="#63b8ff" d="M282.21,-189.92C302.33,-185.33 326.38,-179.84 347.81,-174.96"/>
<polygon fill="#63b8ff" stroke="#63b8ff" points="348.3,-178.43 357.27,-172.8 346.75,-171.61 348.3,-178.43"/>
</a>
</g>
</g>
<!-- Node9&#45;&gt;Node5 -->
<g id="edge14_Node000009_Node000005" class="edge">
<title>Node9&#45;&gt;Node5</title>
<g id="a_edge14_Node000009_Node000005"><a xlink:title=" ">
<path fill="none" stroke="#63b8ff" d="M282.33,-191.7C290.95,-189.04 299.66,-185.55 307.25,-181 327.2,-169.04 323.49,-155.29 343.25,-143 345.65,-141.51 348.18,-140.12 350.79,-138.84"/>
<polygon fill="#63b8ff" stroke="#63b8ff" points="351.94,-142.15 359.74,-134.98 349.17,-135.72 351.94,-142.15"/>
</a>
</g>
</g>
<!-- Node9&#45;&gt;Node8 -->
<g id="edge15_Node000009_Node000008" class="edge">
<title>Node9&#45;&gt;Node8</title>
<g id="a_edge15_Node000009_Node000008"><a xlink:title=" ">
<path fill="none" stroke="#63b8ff" d="M282.52,-193.84C291.41,-191.02 300.18,-186.93 307.25,-181 335.88,-156.98 315.01,-129.48 343.25,-105 345.74,-102.84 348.47,-100.93 351.35,-99.23"/>
<polygon fill="#63b8ff" stroke="#63b8ff" points="352.78,-102.43 360.26,-94.92 349.74,-96.13 352.78,-102.43"/>
</a>
</g>
</g>
<!-- Node10&#45;&gt;Node3 -->
<g id="edge17_Node000010_Node000003" class="edge">
<title>Node10&#45;&gt;Node3</title>
<g id="a_edge17_Node000010_Node000003"><a xlink:title=" ">
<path fill="none" stroke="#63b8ff" d="M283.97,-172.48C304.97,-177.27 329.96,-182.97 351.74,-187.94"/>
<polygon fill="#63b8ff" stroke="#63b8ff" points="350.79,-191.31 361.32,-190.12 352.35,-184.49 350.79,-191.31"/>
</a>
</g>
</g>
<!-- Node10&#45;&gt;Node4 -->
<g id="edge18_Node000010_Node000004" class="edge">
<title>Node10&#45;&gt;Node4</title>
<g id="a_edge18_Node000010_Node000004"><a xlink:title=" ">
<path fill="none" stroke="#63b8ff" d="M293.02,-162C305.34,-162 318.59,-162 331.51,-162"/>
<polygon fill="#63b8ff" stroke="#63b8ff" points="331.24,-165.5 341.24,-162 331.24,-158.5 331.24,-165.5"/>
</a>
</g>
</g>
<!-- Node10&#45;&gt;Node5 -->
<g id="edge19_Node000010_Node000005" class="edge">
<title>Node10&#45;&gt;Node5</title>
<g id="a_edge19_Node000010_Node000005"><a xlink:title=" ">
<path fill="none" stroke="#63b8ff" d="M283.97,-151.52C303.73,-147.01 327.03,-141.7 347.85,-136.95"/>
<polygon fill="#63b8ff" stroke="#63b8ff" points="348.36,-140.42 357.33,-134.79 346.8,-133.6 348.36,-140.42"/>
</a>
</g>
</g>
<!-- Node10&#45;&gt;Node8 -->
<g id="edge20_Node000010_Node000008" class="edge">
<title>Node10&#45;&gt;Node8</title>
<g id="a_edge20_Node000010_Node000008"><a xlink:title=" ">
<path fill="none" stroke="#63b8ff" d="M288.88,-151.52C295.29,-149.2 301.58,-146.4 307.25,-143 327.2,-131.04 323.49,-117.29 343.25,-105 345.83,-103.4 348.55,-101.92 351.35,-100.56"/>
<polygon fill="#63b8ff" stroke="#63b8ff" points="352.54,-103.86 360.38,-96.73 349.81,-97.42 352.54,-103.86"/>
</a>
</g>
</g>
<!-- Node11&#45;&gt;Node3 -->
<g id="edge22_Node000011_Node000003" class="edge">
<title>Node11&#45;&gt;Node3</title>
<g id="a_edge22_Node000011_Node000003"><a xlink:title=" ">
<path fill="none" stroke="#63b8ff" d="M282.33,-132.3C290.95,-134.96 299.66,-138.45 307.25,-143 327.2,-154.96 323.49,-168.71 343.25,-181 346.14,-182.8 349.21,-184.44 352.39,-185.93"/>
<polygon fill="#63b8ff" stroke="#63b8ff" points="350.77,-189.05 361.35,-189.63 353.44,-182.58 350.77,-189.05"/>
</a>
</g>
</g>
<!-- Node11&#45;&gt;Node4 -->
<g id="edge23_Node000011_Node000004" class="edge">
<title>Node11&#45;&gt;Node4</title>
<g id="a_edge23_Node000011_Node000004"><a xlink:title=" ">
<path fill="none" stroke="#63b8ff" d="M282.21,-134.08C302.33,-138.67 326.38,-144.16 347.81,-149.04"/>
<polygon fill="#63b8ff" stroke="#63b8ff" points="346.75,-152.39 357.27,-151.2 348.3,-145.57 346.75,-152.39"/>
</a>
</g>
</g>
<!-- Node11&#45;&gt;Node5 -->
<g id="edge24_Node000011_Node000005" class="edge">
<title>Node11&#45;&gt;Node5</title>
<g id="a_edge24_Node000011_Node000005"><a xlink:title=" ">
<path fill="none" stroke="#63b8ff" d="M282.21,-124C301.9,-124 325.35,-124 346.44,-124"/>
<polygon fill="#63b8ff" stroke="#63b8ff" points="346.36,-127.5 356.36,-124 346.36,-120.5 346.36,-127.5"/>
</a>
</g>
</g>
<!-- Node11&#45;&gt;Node8 -->
<g id="edge25_Node000011_Node000008" class="edge">
<title>Node11&#45;&gt;Node8</title>
<g id="a_edge25_Node000011_Node000008"><a xlink:title=" ">
<path fill="none" stroke="#63b8ff" d="M282.21,-113.92C303.15,-109.14 328.35,-103.4 350.42,-98.36"/>
<polygon fill="#63b8ff" stroke="#63b8ff" points="351.2,-101.77 360.17,-96.14 349.64,-94.95 351.2,-101.77"/>
</a>
</g>
</g>
</g>
</svg>
</svg>

<style type='text/css'>
<![CDATA[
[data-mouse-over-selected='false'] { opacity: 0.7; }
[data-mouse-over-selected='true']  { opacity: 1.0; }
]]>
</style>
<script type="application/ecmascript"><![CDATA[
document.addEventListener('DOMContentLoaded', (event) => {
  highlightEdges();
  highlightAdjacentNodes();
});
]]></script>
</svg>
