<?xml version="1.0" encoding="UTF-8" standalone="no"?>
<!DOCTYPE svg PUBLIC "-//W3C//DTD SVG 1.1//EN"
 "http://www.w3.org/Graphics/SVG/1.1/DTD/svg11.dtd">
<!-- Generated by graphviz version 12.2.0 (20241103.1931)
 -->
<!-- Title: TagPanel::addMover Pages: 1 -->
<!--zoomable 218 -->

<svg id="main" version="1.1" xmlns="http://www.w3.org/2000/svg" xmlns:xlink="http://www.w3.org/1999/xlink" xml:space="preserve" onload="init(evt)">

<style type="text/css"><![CDATA[
.node, .edge {opacity: 0.7;}
.node.selected, .edge.selected {opacity: 1;}
.edge:hover path { stroke: red; }
.edge:hover polygon { stroke: red; fill: red; }
]]></style>

<defs>
  <circle id="rim" cx="0" cy="0" r="7"/>
  <circle id="rim2" cx="0" cy="0" r="3.5"/>
  <g id="zoomPlus">
    <use xlink:href="#rim" fill="#404040"><set attributeName="fill" to="#808080" begin="zoomplus.mouseover" end="zoomplus.mouseout"/></use>
    <path d="M-4,0h8M0,-4v8" fill="none" stroke="white" stroke-width="1.5" pointer-events="none"/>
  </g>
  <g id="zoomMin">
    <use xlink:href="#rim" fill="#404040"><set attributeName="fill" to="#808080" begin="zoomminus.mouseover" end="zoomminus.mouseout"/></use>
    <path d="M-4,0h8" fill="none" stroke="white" stroke-width="1.5" pointer-events="none"/>
  </g>
  <g id="arrowUp" transform="translate(30 24)">
    <use xlink:href="#rim"/>
    <path pointer-events="none" fill="none" stroke="white" stroke-width="1.5" d="M0,-3.0v7 M-2.5,-0.5L0,-3.0L2.5,-0.5"/>
  </g>
  <g id="arrowRight" transform="rotate(90) translate(36 -43)">
    <use xlink:href="#rim"/>
    <path pointer-events="none" fill="none" stroke="white" stroke-width="1.5" d="M0,-3.0v7 M-2.5,-0.5L0,-3.0L2.5,-0.5"/>
  </g>
  <g id="arrowDown" transform="rotate(180) translate(-30 -48)">
    <use xlink:href="#rim"/>
    <path pointer-events="none" fill="none" stroke="white" stroke-width="1.5" d="M0,-3.0v7 M-2.5,-0.5L0,-3.0L2.5,-0.5"/>
  </g>
  <g id="arrowLeft" transform="rotate(270) translate(-36 17)">
    <use xlink:href="#rim"/>
    <path pointer-events="none" fill="none" stroke="white" stroke-width="1.5" d="M0,-3.0v7 M-2.5,-0.5L0,-3.0L2.5,-0.5"/>
  </g>
  <g id="resetDef">
    <use xlink:href="#rim2" fill="#404040"><set attributeName="fill" to="#808080" begin="reset.mouseover" end="reset.mouseout"/></use>
  </g>
</defs>
<script type="application/ecmascript">
var viewWidth = 731;
var viewHeight = 218;
var sectionId = 'dynsection-6';
</script>
<script type="application/ecmascript" xlink:href="svg.min.js"/>
<svg id="graph" class="graph">
<g id="viewport">
<title>TagPanel::addMover</title>
<!-- Node1 -->
<g id="Node000001" class="node">
<title>Node1</title>
<g id="a_Node000001"><a xlink:title=" ">
<polygon fill="#999999" stroke="#666666" points="105.25,-86 0,-86 0,-66 105.25,-66 105.25,-86"/>
<text text-anchor="middle" x="52.62" y="-72.5" font-family="Helvetica,sans-Serif" font-size="10.00">TagPanel::addMover</text>
</a>
</g>
</g>
<!-- Node2 -->
<g id="Node000002" class="node">
<title>Node2</title>
<g id="a_Node000002"><a xlink:href="class_tag_panel.html#a33ffecd8625bc7e0783d208d8d18daf7" target="_top" xlink:title=" ">
<polygon fill="white" stroke="#666666" points="288.5,-143 141.25,-143 141.25,-123 288.5,-123 288.5,-143"/>
<text text-anchor="middle" x="214.88" y="-129.5" font-family="Helvetica,sans-Serif" font-size="10.00">TagPanel::OnMoveDownClick</text>
</a>
</g>
</g>
<!-- Node1&#45;&gt;Node2 -->
<g id="edge1_Node000001_Node000002" class="edge">
<title>Node1&#45;&gt;Node2</title>
<g id="a_edge1_Node000001_Node000002"><a xlink:title=" ">
<path fill="none" stroke="#63b8ff" d="M83.02,-86.45C108.46,-95.51 145.51,-108.68 173.69,-118.71"/>
<polygon fill="#63b8ff" stroke="#63b8ff" points="172.38,-121.95 182.97,-122.01 174.72,-115.36 172.38,-121.95"/>
</a>
</g>
</g>
<!-- Node7 -->
<g id="Node000007" class="node">
<title>Node7</title>
<g id="a_Node000007"><a xlink:href="class_tag_panel.html#a4ddfadd1d39efac7f0123146fc9f8233" target="_top" xlink:title=" ">
<polygon fill="white" stroke="#666666" points="282.12,-86 147.62,-86 147.62,-66 282.12,-66 282.12,-86"/>
<text text-anchor="middle" x="214.88" y="-72.5" font-family="Helvetica,sans-Serif" font-size="10.00">TagPanel::OnMoveUpClick</text>
</a>
</g>
</g>
<!-- Node1&#45;&gt;Node7 -->
<g id="edge8_Node000001_Node000007" class="edge">
<title>Node1&#45;&gt;Node7</title>
<g id="a_edge8_Node000001_Node000007"><a xlink:title=" ">
<path fill="none" stroke="#63b8ff" d="M105.65,-76C115.28,-76 125.53,-76 135.73,-76"/>
<polygon fill="#63b8ff" stroke="#63b8ff" points="135.69,-79.5 145.69,-76 135.69,-72.5 135.69,-79.5"/>
</a>
</g>
</g>
<!-- Node10 -->
<g id="Node000010" class="node">
<title>Node10</title>
<g id="a_Node000010"><a xlink:href="class_tag_panel.html#a43c96ffa9523c002fb96126500209ce8" target="_top" xlink:title=" ">
<polygon fill="white" stroke="#666666" points="272.38,-48 157.38,-48 157.38,-28 272.38,-28 272.38,-48"/>
<text text-anchor="middle" x="214.88" y="-34.5" font-family="Helvetica,sans-Serif" font-size="10.00">TagPanel::SetLineFont</text>
</a>
</g>
</g>
<!-- Node1&#45;&gt;Node10 -->
<g id="edge14_Node000001_Node000010" class="edge">
<title>Node1&#45;&gt;Node10</title>
<g id="a_edge14_Node000001_Node000010"><a xlink:title=" ">
<path fill="none" stroke="#63b8ff" d="M97.84,-65.52C116.67,-61.05 138.83,-55.79 158.72,-51.08"/>
<polygon fill="#63b8ff" stroke="#63b8ff" points="159.41,-54.51 168.33,-48.8 157.8,-47.7 159.41,-54.51"/>
</a>
</g>
</g>
<!-- Node3 -->
<g id="Node000003" class="node">
<title>Node3</title>
<g id="a_Node000003"><a xlink:href="class_tag_panel.html#aefc411bf7be4bd7fd05b3e8a48a6671f" target="_top" xlink:title=" ">
<polygon fill="white" stroke="#666666" points="445.88,-210 333.12,-210 333.12,-190 445.88,-190 445.88,-210"/>
<text text-anchor="middle" x="389.5" y="-196.5" font-family="Helvetica,sans-Serif" font-size="10.00">TagPanel::getNextTag</text>
</a>
</g>
</g>
<!-- Node2&#45;&gt;Node3 -->
<g id="edge2_Node000002_Node000003" class="edge">
<title>Node2&#45;&gt;Node3</title>
<g id="a_edge2_Node000002_Node000003"><a xlink:title=" ">
<path fill="none" stroke="#63b8ff" d="M241.72,-143.38C263.7,-152.18 296.11,-165.06 324.5,-176 332.66,-179.15 341.43,-182.47 349.77,-185.61"/>
<polygon fill="#63b8ff" stroke="#63b8ff" points="348.41,-188.83 359,-189.06 350.87,-182.28 348.41,-188.83"/>
</a>
</g>
</g>
<!-- Node4 -->
<g id="Node000004" class="node">
<title>Node4</title>
<g id="a_Node000004"><a xlink:href="_tag_panel_8cpp.html#a2f4c4fdbb29d8e8fadcbbd9673b3c370" target="_top" xlink:title=" ">
<polygon fill="white" stroke="#666666" points="566.5,-115 490.5,-115 490.5,-95 566.5,-95 566.5,-115"/>
<text text-anchor="middle" x="528.5" y="-101.5" font-family="Helvetica,sans-Serif" font-size="10.00">GetParentTag</text>
</a>
</g>
</g>
<!-- Node2&#45;&gt;Node4 -->
<g id="edge5_Node000002_Node000004" class="edge">
<title>Node2&#45;&gt;Node4</title>
<g id="a_edge5_Node000002_Node000004"><a xlink:title=" ">
<path fill="none" stroke="#63b8ff" d="M268.37,-143.5C317.28,-151.34 391.87,-158.32 454.5,-143 471.75,-138.78 489.46,-129.7 503.12,-121.47"/>
<polygon fill="#63b8ff" stroke="#63b8ff" points="504.82,-124.54 511.42,-116.25 501.09,-118.61 504.82,-124.54"/>
</a>
</g>
</g>
<!-- Node6 -->
<g id="Node000006" class="node">
<title>Node6</title>
<g id="a_Node000006"><a xlink:href="class_tag_panel.html#a9a11954167303954710c12832b39fbf4" target="_top" xlink:title=" ">
<polygon fill="white" stroke="#666666" points="441.75,-134 337.25,-134 337.25,-114 441.75,-114 441.75,-134"/>
<text text-anchor="middle" x="389.5" y="-120.5" font-family="Helvetica,sans-Serif" font-size="10.00">TagPanel::isLastTag</text>
</a>
</g>
</g>
<!-- Node2&#45;&gt;Node6 -->
<g id="edge6_Node000002_Node000006" class="edge">
<title>Node2&#45;&gt;Node6</title>
<g id="a_edge6_Node000002_Node000006"><a xlink:title=" ">
<path fill="none" stroke="#63b8ff" d="M288.83,-129.2C301.11,-128.56 313.75,-127.9 325.73,-127.27"/>
<polygon fill="#63b8ff" stroke="#63b8ff" points="325.68,-130.78 335.48,-126.76 325.31,-123.79 325.68,-130.78"/>
</a>
</g>
</g>
<!-- Node3&#45;&gt;Node4 -->
<g id="edge3_Node000003_Node000004" class="edge">
<title>Node3&#45;&gt;Node4</title>
<g id="a_edge3_Node000003_Node000004"><a xlink:title=" ">
<path fill="none" stroke="#63b8ff" d="M426.28,-189.54C435.83,-185.97 445.88,-181.47 454.5,-176 477.09,-161.67 498.48,-139.48 512.19,-123.72"/>
<polygon fill="#63b8ff" stroke="#63b8ff" points="514.56,-126.35 518.35,-116.45 509.22,-121.82 514.56,-126.35"/>
</a>
</g>
</g>
<!-- Node5 -->
<g id="Node000005" class="node">
<title>Node5</title>
<g id="a_Node000005"><a xlink:href="class_tag_panel.html#af3b5b6fc2b16171af7cab7b0d79d9ed7" target="_top" xlink:title=" ">
<polygon fill="white" stroke="#666666" points="722.75,-115 602.5,-115 602.5,-95 722.75,-95 722.75,-115"/>
<text text-anchor="middle" x="662.62" y="-101.5" font-family="Helvetica,sans-Serif" font-size="10.00">TagPanel::getParentTag</text>
</a>
</g>
</g>
<!-- Node4&#45;&gt;Node5 -->
<g id="edge4_Node000004_Node000005" class="edge">
<title>Node4&#45;&gt;Node5</title>
<g id="a_edge4_Node000004_Node000005"><a xlink:title=" ">
<path fill="none" stroke="#63b8ff" d="M566.66,-105C574.21,-105 582.4,-105 590.68,-105"/>
<polygon fill="#63b8ff" stroke="#63b8ff" points="590.49,-108.5 600.49,-105 590.49,-101.5 590.49,-108.5"/>
</a>
</g>
</g>
<!-- Node6&#45;&gt;Node4 -->
<g id="edge7_Node000006_Node000004" class="edge">
<title>Node6&#45;&gt;Node4</title>
<g id="a_edge7_Node000006_Node000004"><a xlink:title=" ">
<path fill="none" stroke="#63b8ff" d="M441.9,-116.87C454.1,-115.18 467.07,-113.38 479.13,-111.71"/>
<polygon fill="#63b8ff" stroke="#63b8ff" points="479.43,-115.2 488.86,-110.36 478.47,-108.27 479.43,-115.2"/>
</a>
</g>
</g>
<!-- Node7&#45;&gt;Node4 -->
<g id="edge9_Node000007_Node000004" class="edge">
<title>Node7&#45;&gt;Node4</title>
<g id="a_edge9_Node000007_Node000004"><a xlink:title=" ">
<path fill="none" stroke="#63b8ff" d="M282.34,-82.19C341.34,-87.68 426.14,-95.57 478.97,-100.48"/>
<polygon fill="#63b8ff" stroke="#63b8ff" points="478.59,-103.96 488.88,-101.41 479.24,-96.99 478.59,-103.96"/>
</a>
</g>
</g>
<!-- Node8 -->
<g id="Node000008" class="node">
<title>Node8</title>
<g id="a_Node000008"><a xlink:href="class_tag_panel.html#a20a4cc67dc3ecd4538cb8af3c9668421" target="_top" xlink:title=" ">
<polygon fill="white" stroke="#666666" points="454.5,-58 324.5,-58 324.5,-38 454.5,-38 454.5,-58"/>
<text text-anchor="middle" x="389.5" y="-44.5" font-family="Helvetica,sans-Serif" font-size="10.00">TagPanel::getPreviousTag</text>
</a>
</g>
</g>
<!-- Node7&#45;&gt;Node8 -->
<g id="edge10_Node000007_Node000008" class="edge">
<title>Node7&#45;&gt;Node8</title>
<g id="a_edge10_Node000007_Node000008"><a xlink:title=" ">
<path fill="none" stroke="#63b8ff" d="M280.15,-65.57C290.83,-63.84 301.98,-62.03 312.9,-60.26"/>
<polygon fill="#63b8ff" stroke="#63b8ff" points="313.36,-63.73 322.67,-58.68 312.24,-56.82 313.36,-63.73"/>
</a>
</g>
</g>
<!-- Node9 -->
<g id="Node000009" class="node">
<title>Node9</title>
<g id="a_Node000009"><a xlink:href="class_tag_panel.html#aa16fddf213851034cb33b775ea653efc" target="_top" xlink:title=" ">
<polygon fill="white" stroke="#666666" points="442.12,-20 336.88,-20 336.88,0 442.12,0 442.12,-20"/>
<text text-anchor="middle" x="389.5" y="-6.5" font-family="Helvetica,sans-Serif" font-size="10.00">TagPanel::isFirstTag</text>
</a>
</g>
</g>
<!-- Node7&#45;&gt;Node9 -->
<g id="edge12_Node000007_Node000009" class="edge">
<title>Node7&#45;&gt;Node9</title>
<g id="a_edge12_Node000007_Node000009"><a xlink:title=" ">
<path fill="none" stroke="#63b8ff" d="M266.46,-65.61C274.03,-63.25 281.6,-60.4 288.5,-57 306.68,-48.03 306.47,-38.27 324.5,-29 327.75,-27.33 331.16,-25.78 334.66,-24.36"/>
<polygon fill="#63b8ff" stroke="#63b8ff" points="335.71,-27.7 343.87,-20.95 333.28,-21.14 335.71,-27.7"/>
</a>
</g>
</g>
<!-- Node8&#45;&gt;Node4 -->
<g id="edge11_Node000008_Node000004" class="edge">
<title>Node8&#45;&gt;Node4</title>
<g id="a_edge11_Node000008_Node000004"><a xlink:title=" ">
<path fill="none" stroke="#63b8ff" d="M419.65,-58.47C430.64,-62.54 443.2,-67.33 454.5,-72 467.82,-77.5 482.32,-83.96 494.86,-89.69"/>
<polygon fill="#63b8ff" stroke="#63b8ff" points="493.38,-92.86 503.93,-93.87 496.31,-86.51 493.38,-92.86"/>
</a>
</g>
</g>
<!-- Node9&#45;&gt;Node4 -->
<g id="edge13_Node000009_Node000004" class="edge">
<title>Node9&#45;&gt;Node4</title>
<g id="a_edge13_Node000009_Node000004"><a xlink:title=" ">
<path fill="none" stroke="#63b8ff" d="M436.5,-20.49C442.78,-22.82 448.96,-25.62 454.5,-29 478.53,-43.64 500.04,-68.12 513.38,-85.34"/>
<polygon fill="#63b8ff" stroke="#63b8ff" points="510.54,-87.39 519.34,-93.29 516.14,-83.19 510.54,-87.39"/>
</a>
</g>
</g>
</g>
</svg>

<g id="navigator" transform="translate(0 0)" fill="#404254">
  <rect fill="#f2f5e9" fill-opacity="0.5" stroke="#606060" stroke-width=".5" x="0" y="0" width="60" height="60"/>
  <use id="zoomplus" xlink:href="#zoomPlus" x="17" y="9" onmousedown="handleZoom(evt,'in')"/>
  <use id="zoomminus" xlink:href="#zoomMin" x="42" y="9" onmousedown="handleZoom(evt,'out')"/>
  <use id="reset" xlink:href="#resetDef" x="30" y="36" onmousedown="handleReset()"/>
   <use id="arrowup" xlink:href="#arrowUp" x="0" y="0" onmousedown="handlePan(0,-1)"/>
  <use id="arrowright" xlink:href="#arrowRight" x="0" y="0" onmousedown="handlePan(1,0)"/>
  <use id="arrowdown" xlink:href="#arrowDown" x="0" y="0" onmousedown="handlePan(0,1)"/>
  <use id="arrowleft" xlink:href="#arrowLeft" x="0" y="0" onmousedown="handlePan(-1,0)"/>
</g>
<svg viewBox="0 0 15 15" width="100%" height="30px" preserveAspectRatio="xMaxYMin meet">
 <g id="arrow_out" transform="scale(0.3 0.3)">
  <a xlink:href="class_tag_panel_aaa6f2d383b2380c7c103b5019bd05782_cgraph_org.svg" target="_base">
   <rect id="button" ry="5" rx="5" y="6" x="6" height="38" width="38"
        fill="#f2f5e9" fill-opacity="0.5" stroke="#606060" stroke-width="1.0"/>
   <path id="arrow"
     d="M 11.500037,31.436501 C 11.940474,20.09759 22.043105,11.32322 32.158766,21.979434 L 37.068811,17.246167 C 37.068811,17.246167 37.088388,32 37.088388,32 L 22.160133,31.978069 C 22.160133,31.978069 26.997745,27.140456 26.997745,27.140456 C 18.528582,18.264221 13.291696,25.230495 11.500037,31.436501 z"
     style="fill:#404040;"/>
  </a>
 </g>
</svg>

<style type='text/css'>
<![CDATA[
[data-mouse-over-selected='false'] { opacity: 0.7; }
[data-mouse-over-selected='true']  { opacity: 1.0; }
]]>
</style>
<script type="application/ecmascript"><![CDATA[
document.addEventListener('DOMContentLoaded', (event) => {
  highlightEdges();
  highlightAdjacentNodes();
});
]]></script>
</svg>
