<?xml version="1.0" encoding="UTF-8" standalone="no"?>
<!DOCTYPE svg PUBLIC "-//W3C//DTD SVG 1.1//EN"
 "http://www.w3.org/Graphics/SVG/1.1/DTD/svg11.dtd">
<!-- Generated by graphviz version 12.2.0 (20241103.1931)
 -->
<!-- Title: TemplateToken::addBool Pages: 1 -->
<svg width="602pt" height="104pt"
 viewBox="0.00 0.00 602.25 104.00" xmlns="http://www.w3.org/2000/svg" xmlns:xlink="http://www.w3.org/1999/xlink">
<g id="graph0" class="graph" transform="scale(1 1) rotate(0) translate(4 100)">
<title>TemplateToken::addBool</title>
<!-- Node1 -->
<g id="Node000001" class="node">
<title>Node1</title>
<g id="a_Node000001"><a xlink:title=" ">
<polygon fill="#999999" stroke="#666666" points="123.25,-58 0,-58 0,-38 123.25,-38 123.25,-58"/>
<text text-anchor="middle" x="61.62" y="-44.5" font-family="Helvetica,sans-Serif" font-size="10.00">TemplateToken::addBool</text>
</a>
</g>
</g>
<!-- Node2 -->
<g id="Node000002" class="node">
<title>Node2</title>
<g id="a_Node000002"><a xlink:href="class_template_token.html#ac4146f0f59ba02482abb40679265e21d" target="_top" xlink:title=" ">
<polygon fill="white" stroke="#666666" points="284,-58 159.25,-58 159.25,-38 284,-38 284,-58"/>
<text text-anchor="middle" x="221.62" y="-44.5" font-family="Helvetica,sans-Serif" font-size="10.00">TemplateToken::addType</text>
</a>
</g>
</g>
<!-- Node1&#45;&gt;Node2 -->
<g id="edge1_Node000001_Node000002" class="edge">
<title>Node1&#45;&gt;Node2</title>
<g id="a_edge1_Node000001_Node000002"><a xlink:title=" ">
<path fill="none" stroke="#63b8ff" d="M123.71,-48C131.56,-48 139.66,-48 147.68,-48"/>
<polygon fill="#63b8ff" stroke="#63b8ff" points="147.4,-51.5 157.4,-48 147.4,-44.5 147.4,-51.5"/>
</a>
</g>
</g>
<!-- Node3 -->
<g id="Node000003" class="node">
<title>Node3</title>
<g id="a_Node000003"><a xlink:href="class_template_token.html#ad981d8ad4aeb0162d344d334ff3ac0f3" target="_top" xlink:title=" ">
<polygon fill="white" stroke="#666666" points="444.75,-96 320,-96 320,-76 444.75,-76 444.75,-96"/>
<text text-anchor="middle" x="382.38" y="-82.5" font-family="Helvetica,sans-Serif" font-size="10.00">TemplateToken::addError</text>
</a>
</g>
</g>
<!-- Node2&#45;&gt;Node3 -->
<g id="edge2_Node000002_Node000003" class="edge">
<title>Node2&#45;&gt;Node3</title>
<g id="a_edge2_Node000002_Node000003"><a xlink:title=" ">
<path fill="none" stroke="#63b8ff" d="M266.42,-58.48C285.08,-62.95 307.03,-68.21 326.73,-72.92"/>
<polygon fill="#63b8ff" stroke="#63b8ff" points="325.71,-76.27 336.25,-75.2 327.34,-69.47 325.71,-76.27"/>
</a>
</g>
</g>
<!-- Node5 -->
<g id="Node000005" class="node">
<title>Node5</title>
<g id="a_Node000005"><a xlink:href="class_iterator_list.html#a4acf162e4a194bddd3c2fe26b073f45a" target="_top" xlink:title=" ">
<polygon fill="white" stroke="#666666" points="444.75,-58 320,-58 320,-38 444.75,-38 444.75,-58"/>
<text text-anchor="middle" x="382.38" y="-44.5" font-family="Helvetica,sans-Serif" font-size="10.00">IteratorList::currentToken</text>
</a>
</g>
</g>
<!-- Node2&#45;&gt;Node5 -->
<g id="edge4_Node000002_Node000005" class="edge">
<title>Node2&#45;&gt;Node5</title>
<g id="a_edge4_Node000002_Node000005"><a xlink:title=" ">
<path fill="none" stroke="#63b8ff" d="M284.46,-48C292.33,-48 300.44,-48 308.46,-48"/>
<polygon fill="#63b8ff" stroke="#63b8ff" points="308.2,-51.5 318.2,-48 308.2,-44.5 308.2,-51.5"/>
</a>
</g>
</g>
<!-- Node6 -->
<g id="Node000006" class="node">
<title>Node6</title>
<g id="a_Node000006"><a xlink:href="class_iterator_list.html#a2ebc1118094754b7d333b0a9d257d12b" target="_top" xlink:title=" ">
<polygon fill="white" stroke="#666666" points="429.75,-20 335,-20 335,0 429.75,0 429.75,-20"/>
<text text-anchor="middle" x="382.38" y="-6.5" font-family="Helvetica,sans-Serif" font-size="10.00">IteratorList::ended</text>
</a>
</g>
</g>
<!-- Node2&#45;&gt;Node6 -->
<g id="edge5_Node000002_Node000006" class="edge">
<title>Node2&#45;&gt;Node6</title>
<g id="a_edge5_Node000002_Node000006"><a xlink:title=" ">
<path fill="none" stroke="#63b8ff" d="M266.42,-37.52C285.08,-33.05 307.03,-27.79 326.73,-23.08"/>
<polygon fill="#63b8ff" stroke="#63b8ff" points="327.34,-26.53 336.25,-20.8 325.71,-19.73 327.34,-26.53"/>
</a>
</g>
</g>
<!-- Node4 -->
<g id="Node000004" class="node">
<title>Node4</title>
<g id="a_Node000004"><a xlink:href="class_token_result.html#af997915a62dcb5643b9d61b78a22c9f4" target="_top" xlink:title=" ">
<polygon fill="white" stroke="#666666" points="594.25,-96 480.75,-96 480.75,-76 594.25,-76 594.25,-96"/>
<text text-anchor="middle" x="537.5" y="-82.5" font-family="Helvetica,sans-Serif" font-size="10.00">TokenResult::addError</text>
</a>
</g>
</g>
<!-- Node3&#45;&gt;Node4 -->
<g id="edge3_Node000003_Node000004" class="edge">
<title>Node3&#45;&gt;Node4</title>
<g id="a_edge3_Node000003_Node000004"><a xlink:title=" ">
<path fill="none" stroke="#63b8ff" d="M445.22,-86C453.02,-86 461.04,-86 468.93,-86"/>
<polygon fill="#63b8ff" stroke="#63b8ff" points="468.85,-89.5 478.85,-86 468.85,-82.5 468.85,-89.5"/>
</a>
</g>
</g>
</g>
</svg>
