<?xml version="1.0" encoding="UTF-8" standalone="no"?>
<!DOCTYPE svg PUBLIC "-//W3C//DTD SVG 1.1//EN"
 "http://www.w3.org/Graphics/SVG/1.1/DTD/svg11.dtd">
<!-- Generated by graphviz version 12.2.0 (20241103.1931)
 -->
<!-- Title: BotConfig::updateInitBluestacks Pages: 1 -->
<!--zoomable 256 -->

<svg id="main" version="1.1" xmlns="http://www.w3.org/2000/svg" xmlns:xlink="http://www.w3.org/1999/xlink" xml:space="preserve" onload="init(evt)">

<style type="text/css"><![CDATA[
.node, .edge {opacity: 0.7;}
.node.selected, .edge.selected {opacity: 1;}
.edge:hover path { stroke: red; }
.edge:hover polygon { stroke: red; fill: red; }
]]></style>

<defs>
  <circle id="rim" cx="0" cy="0" r="7"/>
  <circle id="rim2" cx="0" cy="0" r="3.5"/>
  <g id="zoomPlus">
    <use xlink:href="#rim" fill="#404040"><set attributeName="fill" to="#808080" begin="zoomplus.mouseover" end="zoomplus.mouseout"/></use>
    <path d="M-4,0h8M0,-4v8" fill="none" stroke="white" stroke-width="1.5" pointer-events="none"/>
  </g>
  <g id="zoomMin">
    <use xlink:href="#rim" fill="#404040"><set attributeName="fill" to="#808080" begin="zoomminus.mouseover" end="zoomminus.mouseout"/></use>
    <path d="M-4,0h8" fill="none" stroke="white" stroke-width="1.5" pointer-events="none"/>
  </g>
  <g id="arrowUp" transform="translate(30 24)">
    <use xlink:href="#rim"/>
    <path pointer-events="none" fill="none" stroke="white" stroke-width="1.5" d="M0,-3.0v7 M-2.5,-0.5L0,-3.0L2.5,-0.5"/>
  </g>
  <g id="arrowRight" transform="rotate(90) translate(36 -43)">
    <use xlink:href="#rim"/>
    <path pointer-events="none" fill="none" stroke="white" stroke-width="1.5" d="M0,-3.0v7 M-2.5,-0.5L0,-3.0L2.5,-0.5"/>
  </g>
  <g id="arrowDown" transform="rotate(180) translate(-30 -48)">
    <use xlink:href="#rim"/>
    <path pointer-events="none" fill="none" stroke="white" stroke-width="1.5" d="M0,-3.0v7 M-2.5,-0.5L0,-3.0L2.5,-0.5"/>
  </g>
  <g id="arrowLeft" transform="rotate(270) translate(-36 17)">
    <use xlink:href="#rim"/>
    <path pointer-events="none" fill="none" stroke="white" stroke-width="1.5" d="M0,-3.0v7 M-2.5,-0.5L0,-3.0L2.5,-0.5"/>
  </g>
  <g id="resetDef">
    <use xlink:href="#rim2" fill="#404040"><set attributeName="fill" to="#808080" begin="reset.mouseover" end="reset.mouseout"/></use>
  </g>
</defs>
<script type="application/ecmascript">
var viewWidth = 1496;
var viewHeight = 256;
var sectionId = 'dynsection-93';
</script>
<script type="application/ecmascript" xlink:href="svg.min.js"/>
<svg id="graph" class="graph">
<g id="viewport">
<title>BotConfig::updateInitBluestacks</title>
<!-- Node1 -->
<g id="Node000001" class="node">
<title>Node1</title>
<g id="a_Node000001"><a xlink:title=" ">
<polygon fill="#999999" stroke="#666666" points="157,-115 0,-115 0,-95 157,-95 157,-115"/>
<text text-anchor="middle" x="78.5" y="-101.5" font-family="Helvetica,sans-Serif" font-size="10.00">BotConfig::updateInitBluestacks</text>
</a>
</g>
</g>
<!-- Node2 -->
<g id="Node000002" class="node">
<title>Node2</title>
<g id="a_Node000002"><a xlink:href="class_bot_config.html#ab4929dd1c99a9e725800349a9cfc3b0e" target="_top" xlink:title=" ">
<polygon fill="white" stroke="#666666" points="357.5,-115 193,-115 193,-95 357.5,-95 357.5,-115"/>
<text text-anchor="middle" x="275.25" y="-101.5" font-family="Helvetica,sans-Serif" font-size="10.00">BotConfig::updateDataBluestacks</text>
</a>
</g>
</g>
<!-- Node1&#45;&gt;Node2 -->
<g id="edge1_Node000001_Node000002" class="edge">
<title>Node1&#45;&gt;Node2</title>
<g id="a_edge1_Node000001_Node000002"><a xlink:title=" ">
<path fill="none" stroke="#63b8ff" d="M157.31,-105C165.23,-105 173.33,-105 181.39,-105"/>
<polygon fill="#63b8ff" stroke="#63b8ff" points="181.22,-108.5 191.22,-105 181.22,-101.5 181.22,-108.5"/>
</a>
</g>
</g>
<!-- Node3 -->
<g id="Node000003" class="node">
<title>Node3</title>
<g id="a_Node000003"><a xlink:href="class_bot_config.html#a70992bec079cbf9412e69b0f0e712ca2" target="_top" xlink:title=" ">
<polygon fill="white" stroke="#666666" points="538.5,-115 393.5,-115 393.5,-95 538.5,-95 538.5,-115"/>
<text text-anchor="middle" x="466" y="-101.5" font-family="Helvetica,sans-Serif" font-size="10.00">BotConfig::updateBoolBotFile</text>
</a>
</g>
</g>
<!-- Node2&#45;&gt;Node3 -->
<g id="edge2_Node000002_Node000003" class="edge">
<title>Node2&#45;&gt;Node3</title>
<g id="a_edge2_Node000002_Node000003"><a xlink:title=" ">
<path fill="none" stroke="#63b8ff" d="M357.94,-105C365.84,-105 373.86,-105 381.77,-105"/>
<polygon fill="#63b8ff" stroke="#63b8ff" points="381.75,-108.5 391.75,-105 381.75,-101.5 381.75,-108.5"/>
</a>
</g>
</g>
<!-- Node4 -->
<g id="Node000004" class="node">
<title>Node4</title>
<g id="a_Node000004"><a xlink:href="class_bot_config.html#a7b0b572a14dd5f0630b335041f83049a" target="_top" xlink:title=" ">
<polygon fill="white" stroke="#666666" points="688.75,-115 574.5,-115 574.5,-95 688.75,-95 688.75,-115"/>
<text text-anchor="middle" x="631.62" y="-101.5" font-family="Helvetica,sans-Serif" font-size="10.00">BotConfig::updateBool</text>
</a>
</g>
</g>
<!-- Node3&#45;&gt;Node4 -->
<g id="edge3_Node000003_Node000004" class="edge">
<title>Node3&#45;&gt;Node4</title>
<g id="a_edge3_Node000003_Node000004"><a xlink:title=" ">
<path fill="none" stroke="#63b8ff" d="M538.77,-105C546.73,-105 554.82,-105 562.73,-105"/>
<polygon fill="#63b8ff" stroke="#63b8ff" points="562.65,-108.5 572.65,-105 562.65,-101.5 562.65,-108.5"/>
</a>
</g>
</g>
<!-- Node5 -->
<g id="Node000005" class="node">
<title>Node5</title>
<g id="a_Node000005"><a xlink:href="class_bot_config.html#ab92a15dd3027a7f42b452cdf5eaf9529" target="_top" xlink:title=" ">
<polygon fill="white" stroke="#666666" points="845,-115 724.75,-115 724.75,-95 845,-95 845,-115"/>
<text text-anchor="middle" x="784.88" y="-101.5" font-family="Helvetica,sans-Serif" font-size="10.00">BotConfig::updateString</text>
</a>
</g>
</g>
<!-- Node4&#45;&gt;Node5 -->
<g id="edge4_Node000004_Node000005" class="edge">
<title>Node4&#45;&gt;Node5</title>
<g id="a_edge4_Node000004_Node000005"><a xlink:title=" ">
<path fill="none" stroke="#63b8ff" d="M688.94,-105C696.82,-105 705,-105 713.1,-105"/>
<polygon fill="#63b8ff" stroke="#63b8ff" points="712.96,-108.5 722.96,-105 712.96,-101.5 712.96,-108.5"/>
</a>
</g>
</g>
<!-- Node6 -->
<g id="Node000006" class="node">
<title>Node6</title>
<g id="a_Node000006"><a xlink:href="_text_manager_8cpp.html#add36cc54cd9616a393a17b8961491477" target="_top" xlink:title=" ">
<polygon fill="white" stroke="#666666" points="960.75,-248 881,-248 881,-228 960.75,-228 960.75,-248"/>
<text text-anchor="middle" x="920.88" y="-234.5" font-family="Helvetica,sans-Serif" font-size="10.00">getFileContent</text>
</a>
</g>
</g>
<!-- Node5&#45;&gt;Node6 -->
<g id="edge5_Node000005_Node000006" class="edge">
<title>Node5&#45;&gt;Node6</title>
<g id="a_edge5_Node000005_Node000006"><a xlink:title=" ">
<path fill="none" stroke="#63b8ff" d="M793.14,-115.22C808,-135.66 843.64,-182.33 881,-214 884.06,-216.59 887.42,-219.1 890.85,-221.44"/>
<polygon fill="#63b8ff" stroke="#63b8ff" points="888.92,-224.36 899.23,-226.79 892.68,-218.46 888.92,-224.36"/>
</a>
</g>
</g>
<!-- Node7 -->
<g id="Node000007" class="node">
<title>Node7</title>
<g id="a_Node000007"><a xlink:href="_text_manager_8cpp.html#af24bee60aa1d3d5b4ae3bf6ebd267ecd" target="_top" xlink:title=" ">
<polygon fill="white" stroke="#666666" points="944.62,-134 897.12,-134 897.12,-114 944.62,-114 944.62,-134"/>
<text text-anchor="middle" x="920.88" y="-120.5" font-family="Helvetica,sans-Serif" font-size="10.00">getLine</text>
</a>
</g>
</g>
<!-- Node5&#45;&gt;Node7 -->
<g id="edge6_Node000005_Node000007" class="edge">
<title>Node5&#45;&gt;Node7</title>
<g id="a_edge6_Node000005_Node000007"><a xlink:title=" ">
<path fill="none" stroke="#63b8ff" d="M845.43,-113.44C859.2,-115.4 873.4,-117.41 885.65,-119.15"/>
<polygon fill="#63b8ff" stroke="#63b8ff" points="884.84,-122.57 895.23,-120.51 885.82,-115.64 884.84,-122.57"/>
</a>
</g>
</g>
<!-- Node9 -->
<g id="Node000009" class="node">
<title>Node9</title>
<g id="a_Node000009"><a xlink:href="_text_manager_8cpp.html#a6956d58559ef67f422247fdeb1c22775" target="_top" xlink:title=" ">
<polygon fill="white" stroke="#666666" points="1233.5,-153 1157.5,-153 1157.5,-133 1233.5,-133 1233.5,-153"/>
<text text-anchor="middle" x="1195.5" y="-139.5" font-family="Helvetica,sans-Serif" font-size="10.00">getStringAfter</text>
</a>
</g>
</g>
<!-- Node5&#45;&gt;Node9 -->
<g id="edge19_Node000005_Node000009" class="edge">
<title>Node5&#45;&gt;Node9</title>
<g id="a_edge19_Node000005_Node000009"><a xlink:title=" ">
<path fill="none" stroke="#63b8ff" d="M806.43,-115.36C843.37,-133.3 923.93,-169.35 996.75,-181 1049.85,-189.49 1065.39,-193.25 1117.75,-181 1135.92,-176.75 1154.73,-167.53 1169.18,-159.24"/>
<polygon fill="#63b8ff" stroke="#63b8ff" points="1170.77,-162.36 1177.56,-154.22 1167.18,-156.35 1170.77,-162.36"/>
</a>
</g>
</g>
<!-- Node13 -->
<g id="Node000013" class="node">
<title>Node13</title>
<g id="a_Node000013"><a xlink:href="_text_manager_8cpp.html#aff8311b88dbf5f3091f3ac1262543242" target="_top" xlink:title=" ">
<polygon fill="white" stroke="#666666" points="1237.25,-96 1153.75,-96 1153.75,-76 1237.25,-76 1237.25,-96"/>
<text text-anchor="middle" x="1195.5" y="-82.5" font-family="Helvetica,sans-Serif" font-size="10.00">getStringBefore</text>
</a>
</g>
</g>
<!-- Node5&#45;&gt;Node13 -->
<g id="edge20_Node000005_Node000013" class="edge">
<title>Node5&#45;&gt;Node13</title>
<g id="a_edge20_Node000005_Node000013"><a xlink:title=" ">
<path fill="none" stroke="#63b8ff" d="M824.98,-94.55C887.06,-79.3 1011.97,-54.1 1117.75,-67 1127.95,-68.24 1138.74,-70.38 1148.91,-72.79"/>
<polygon fill="#63b8ff" stroke="#63b8ff" points="1148.05,-76.18 1158.6,-75.22 1149.75,-69.39 1148.05,-76.18"/>
</a>
</g>
</g>
<!-- Node15 -->
<g id="Node000015" class="node">
<title>Node15</title>
<g id="a_Node000015"><a xlink:href="_text_manager_8cpp.html#ac695ebe5513185f42689b419f58d8a83" target="_top" xlink:title=" ">
<polygon fill="white" stroke="#666666" points="1097.12,-96 1017.38,-96 1017.38,-76 1097.12,-76 1097.12,-96"/>
<text text-anchor="middle" x="1057.25" y="-82.5" font-family="Helvetica,sans-Serif" font-size="10.00">updateContent</text>
</a>
</g>
</g>
<!-- Node5&#45;&gt;Node15 -->
<g id="edge21_Node000005_Node000015" class="edge">
<title>Node5&#45;&gt;Node15</title>
<g id="a_edge21_Node000005_Node000015"><a xlink:title=" ">
<path fill="none" stroke="#63b8ff" d="M845.21,-100.83C893.26,-97.45 960.21,-92.75 1005.72,-89.55"/>
<polygon fill="#63b8ff" stroke="#63b8ff" points="1005.86,-93.05 1015.59,-88.86 1005.37,-86.07 1005.86,-93.05"/>
</a>
</g>
</g>
<!-- Node16 -->
<g id="Node000016" class="node">
<title>Node16</title>
<g id="a_Node000016"><a xlink:href="_text_manager_8cpp.html#ab55140c566370b105b9bf81756293fa5" target="_top" xlink:title=" ">
<polygon fill="white" stroke="#666666" points="952.5,-20 889.25,-20 889.25,0 952.5,0 952.5,-20"/>
<text text-anchor="middle" x="920.88" y="-6.5" font-family="Helvetica,sans-Serif" font-size="10.00">writeToFile</text>
</a>
</g>
</g>
<!-- Node5&#45;&gt;Node16 -->
<g id="edge24_Node000005_Node000016" class="edge">
<title>Node5&#45;&gt;Node16</title>
<g id="a_edge24_Node000005_Node000016"><a xlink:title=" ">
<path fill="none" stroke="#63b8ff" d="M799.15,-94.51C817.29,-80.3 851.01,-54.39 881,-34 884.73,-31.46 888.72,-28.87 892.67,-26.37"/>
<polygon fill="#63b8ff" stroke="#63b8ff" points="894.31,-29.47 900.96,-21.23 890.62,-23.52 894.31,-29.47"/>
</a>
</g>
</g>
<!-- Node8 -->
<g id="Node000008" class="node">
<title>Node8</title>
<g id="a_Node000008"><a xlink:href="_text_manager_8cpp.html#a85a282af68cca7cf7d69487d1bacdc47" target="_top" xlink:title=" ">
<polygon fill="white" stroke="#666666" points="1099.38,-172 1015.12,-172 1015.12,-152 1099.38,-152 1099.38,-172"/>
<text text-anchor="middle" x="1057.25" y="-158.5" font-family="Helvetica,sans-Serif" font-size="10.00">extractBetween</text>
</a>
</g>
</g>
<!-- Node7&#45;&gt;Node8 -->
<g id="edge7_Node000007_Node000008" class="edge">
<title>Node7&#45;&gt;Node8</title>
<g id="a_edge7_Node000007_Node000008"><a xlink:title=" ">
<path fill="none" stroke="#63b8ff" d="M944.97,-130.53C962.36,-135.45 986.78,-142.36 1008.33,-148.45"/>
<polygon fill="#63b8ff" stroke="#63b8ff" points="1007.24,-151.78 1017.82,-151.13 1009.15,-145.04 1007.24,-151.78"/>
</a>
</g>
</g>
<!-- Node14 -->
<g id="Node000014" class="node">
<title>Node14</title>
<g id="a_Node000014"><a xlink:href="_text_manager_8cpp.html#a84a9e24fc5cce3cebf746bb656909bf8" target="_top" xlink:title=" ">
<polygon fill="white" stroke="#666666" points="1117.75,-134 996.75,-134 996.75,-114 1117.75,-114 1117.75,-134"/>
<text text-anchor="middle" x="1057.25" y="-120.5" font-family="Helvetica,sans-Serif" font-size="10.00">extractBetweenReverse</text>
</a>
</g>
</g>
<!-- Node7&#45;&gt;Node14 -->
<g id="edge16_Node000007_Node000014" class="edge">
<title>Node7&#45;&gt;Node14</title>
<g id="a_edge16_Node000007_Node000014"><a xlink:title=" ">
<path fill="none" stroke="#63b8ff" d="M944.97,-124C956.34,-124 970.71,-124 985.32,-124"/>
<polygon fill="#63b8ff" stroke="#63b8ff" points="984.98,-127.5 994.98,-124 984.98,-120.5 984.98,-127.5"/>
</a>
</g>
</g>
<!-- Node8&#45;&gt;Node9 -->
<g id="edge8_Node000008_Node000009" class="edge">
<title>Node8&#45;&gt;Node9</title>
<g id="a_edge8_Node000008_Node000009"><a xlink:title=" ">
<path fill="none" stroke="#63b8ff" d="M1099.87,-156.2C1114.46,-154.16 1130.98,-151.86 1146.08,-149.75"/>
<polygon fill="#63b8ff" stroke="#63b8ff" points="1146.38,-153.24 1155.8,-148.4 1145.41,-146.31 1146.38,-153.24"/>
</a>
</g>
</g>
<!-- Node8&#45;&gt;Node13 -->
<g id="edge14_Node000008_Node000013" class="edge">
<title>Node8&#45;&gt;Node13</title>
<g id="a_edge14_Node000008_Node000013"><a xlink:title=" ">
<path fill="none" stroke="#63b8ff" d="M1097.4,-151.54C1104.34,-149.11 1111.38,-146.27 1117.75,-143 1138.66,-132.27 1159.92,-115.97 1174.75,-103.55"/>
<polygon fill="#63b8ff" stroke="#63b8ff" points="1176.63,-106.55 1181.94,-97.38 1172.07,-101.23 1176.63,-106.55"/>
</a>
</g>
</g>
<!-- Node10 -->
<g id="Node000010" class="node">
<title>Node10</title>
<g id="a_Node000010"><a xlink:href="_text_manager_8cpp.html#a5b66873abcff2faee361721f86b65dd0" target="_top" xlink:title=" ">
<polygon fill="white" stroke="#666666" points="1351.5,-134 1283.75,-134 1283.75,-114 1351.5,-114 1351.5,-134"/>
<text text-anchor="middle" x="1317.62" y="-120.5" font-family="Helvetica,sans-Serif" font-size="10.00">getPosAfter</text>
</a>
</g>
</g>
<!-- Node9&#45;&gt;Node10 -->
<g id="edge9_Node000009_Node000010" class="edge">
<title>Node9&#45;&gt;Node10</title>
<g id="a_edge9_Node000009_Node000010"><a xlink:title=" ">
<path fill="none" stroke="#63b8ff" d="M1233.85,-137.09C1245.98,-135.17 1259.55,-133.03 1272.15,-131.03"/>
<polygon fill="#63b8ff" stroke="#63b8ff" points="1272.54,-134.52 1281.88,-129.5 1271.45,-127.6 1272.54,-134.52"/>
</a>
</g>
</g>
<!-- Node12 -->
<g id="Node000012" class="node">
<title>Node12</title>
<g id="a_Node000012"><a xlink:href="_text_manager_8cpp.html#a2946b90fb3df56b0a74d53eb4160f4e2" target="_top" xlink:title=" ">
<polygon fill="white" stroke="#666666" points="1362,-172 1273.25,-172 1273.25,-152 1362,-152 1362,-172"/>
<text text-anchor="middle" x="1317.62" y="-158.5" font-family="Helvetica,sans-Serif" font-size="10.00">getStringStarting</text>
</a>
</g>
</g>
<!-- Node9&#45;&gt;Node12 -->
<g id="edge11_Node000009_Node000012" class="edge">
<title>Node9&#45;&gt;Node12</title>
<g id="a_edge11_Node000009_Node000012"><a xlink:title=" ">
<path fill="none" stroke="#63b8ff" d="M1233.85,-148.91C1242.66,-150.3 1252.24,-151.82 1261.65,-153.31"/>
<polygon fill="#63b8ff" stroke="#63b8ff" points="1261.07,-156.76 1271.49,-154.86 1262.16,-149.84 1261.07,-156.76"/>
</a>
</g>
</g>
<!-- Node11 -->
<g id="Node000011" class="node">
<title>Node11</title>
<g id="a_Node000011"><a xlink:href="_text_manager_8cpp.html#a3f4afb2b62acd297e783a22ffa9a7000" target="_top" xlink:title=" ">
<polygon fill="white" stroke="#666666" points="1488.25,-134 1398,-134 1398,-114 1488.25,-114 1488.25,-134"/>
<text text-anchor="middle" x="1443.12" y="-120.5" font-family="Helvetica,sans-Serif" font-size="10.00">getSequencePos</text>
</a>
</g>
</g>
<!-- Node10&#45;&gt;Node11 -->
<g id="edge10_Node000010_Node000011" class="edge">
<title>Node10&#45;&gt;Node11</title>
<g id="a_edge10_Node000010_Node000011"><a xlink:title=" ">
<path fill="none" stroke="#63b8ff" d="M1351.72,-124C1362.44,-124 1374.64,-124 1386.54,-124"/>
<polygon fill="#63b8ff" stroke="#63b8ff" points="1386.27,-127.5 1396.27,-124 1386.27,-120.5 1386.27,-127.5"/>
</a>
</g>
</g>
<!-- Node12&#45;&gt;Node11 -->
<g id="edge12_Node000012_Node000011" class="edge">
<title>Node12&#45;&gt;Node11</title>
<g id="a_edge12_Node000012_Node000011"><a xlink:title=" ">
<path fill="none" stroke="#63b8ff" d="M1352.7,-151.52C1366.47,-147.28 1382.55,-142.33 1397.25,-137.81"/>
<polygon fill="#63b8ff" stroke="#63b8ff" points="1398.19,-141.18 1406.72,-134.9 1396.13,-134.49 1398.19,-141.18"/>
</a>
</g>
</g>
<!-- Node12&#45;&gt;Node12 -->
<g id="edge13_Node000012_Node000012" class="edge">
<title>Node12&#45;&gt;Node12</title>
<g id="a_edge13_Node000012_Node000012"><a xlink:title=" ">
<path fill="none" stroke="#63b8ff" d="M1298.22,-172.34C1289.93,-180.98 1296.4,-190 1317.62,-190 1329.23,-190 1336.43,-187.3 1339.21,-183.44"/>
<polygon fill="#63b8ff" stroke="#63b8ff" points="1342.68,-182.96 1337.32,-173.82 1335.81,-184.31 1342.68,-182.96"/>
</a>
</g>
</g>
<!-- Node13&#45;&gt;Node11 -->
<g id="edge15_Node000013_Node000011" class="edge">
<title>Node13&#45;&gt;Node11</title>
<g id="a_edge15_Node000013_Node000011"><a xlink:title=" ">
<path fill="none" stroke="#63b8ff" d="M1237.5,-89.34C1271.11,-92.41 1319.84,-97.61 1362,-105 1371.51,-106.67 1381.59,-108.78 1391.26,-110.98"/>
<polygon fill="#63b8ff" stroke="#63b8ff" points="1390.37,-114.37 1400.9,-113.25 1391.97,-107.55 1390.37,-114.37"/>
</a>
</g>
</g>
<!-- Node14&#45;&gt;Node9 -->
<g id="edge17_Node000014_Node000009" class="edge">
<title>Node14&#45;&gt;Node9</title>
<g id="a_edge17_Node000014_Node000009"><a xlink:title=" ">
<path fill="none" stroke="#63b8ff" d="M1118.01,-132.33C1127.36,-133.64 1136.93,-134.97 1145.99,-136.23"/>
<polygon fill="#63b8ff" stroke="#63b8ff" points="1145.25,-139.67 1155.64,-137.58 1146.22,-132.73 1145.25,-139.67"/>
</a>
</g>
</g>
<!-- Node14&#45;&gt;Node13 -->
<g id="edge18_Node000014_Node000013" class="edge">
<title>Node14&#45;&gt;Node13</title>
<g id="a_edge18_Node000014_Node000013"><a xlink:title=" ">
<path fill="none" stroke="#63b8ff" d="M1095.84,-113.52C1111.33,-109.2 1129.47,-104.14 1145.95,-99.54"/>
<polygon fill="#63b8ff" stroke="#63b8ff" points="1146.88,-102.91 1155.57,-96.86 1145,-96.17 1146.88,-102.91"/>
</a>
</g>
</g>
<!-- Node15&#45;&gt;Node9 -->
<g id="edge22_Node000015_Node000009" class="edge">
<title>Node15&#45;&gt;Node9</title>
<g id="a_edge22_Node000015_Node000009"><a xlink:title=" ">
<path fill="none" stroke="#63b8ff" d="M1094.12,-96.49C1101.98,-99.06 1110.21,-101.95 1117.75,-105 1133.9,-111.53 1151.34,-120.04 1165.5,-127.35"/>
<polygon fill="#63b8ff" stroke="#63b8ff" points="1163.8,-130.41 1174.29,-131.95 1167.05,-124.21 1163.8,-130.41"/>
</a>
</g>
</g>
<!-- Node15&#45;&gt;Node13 -->
<g id="edge23_Node000015_Node000013" class="edge">
<title>Node15&#45;&gt;Node13</title>
<g id="a_edge23_Node000015_Node000013"><a xlink:title=" ">
<path fill="none" stroke="#63b8ff" d="M1097.29,-86C1111.33,-86 1127.39,-86 1142.37,-86"/>
<polygon fill="#63b8ff" stroke="#63b8ff" points="1142.04,-89.5 1152.04,-86 1142.04,-82.5 1142.04,-89.5"/>
</a>
</g>
</g>
<!-- Node17 -->
<g id="Node000017" class="node">
<title>Node17</title>
<g id="a_Node000017"><a xlink:href="_text_manager_8cpp.html#a4a86df56d2737552b2fd63bfa85c5800" target="_top" xlink:title=" ">
<polygon fill="white" stroke="#666666" points="1100.12,-20 1014.38,-20 1014.38,0 1100.12,0 1100.12,-20"/>
<text text-anchor="middle" x="1057.25" y="-6.5" font-family="Helvetica,sans-Serif" font-size="10.00">getOfstreamFile</text>
</a>
</g>
</g>
<!-- Node16&#45;&gt;Node17 -->
<g id="edge25_Node000016_Node000017" class="edge">
<title>Node16&#45;&gt;Node17</title>
<g id="a_edge25_Node000016_Node000017"><a xlink:title=" ">
<path fill="none" stroke="#63b8ff" d="M952.7,-10C967.5,-10 985.66,-10 1002.62,-10"/>
<polygon fill="#63b8ff" stroke="#63b8ff" points="1002.6,-13.5 1012.6,-10 1002.6,-6.5 1002.6,-13.5"/>
</a>
</g>
</g>
</g>
</svg>

<g id="navigator" transform="translate(0 0)" fill="#404254">
  <rect fill="#f2f5e9" fill-opacity="0.5" stroke="#606060" stroke-width=".5" x="0" y="0" width="60" height="60"/>
  <use id="zoomplus" xlink:href="#zoomPlus" x="17" y="9" onmousedown="handleZoom(evt,'in')"/>
  <use id="zoomminus" xlink:href="#zoomMin" x="42" y="9" onmousedown="handleZoom(evt,'out')"/>
  <use id="reset" xlink:href="#resetDef" x="30" y="36" onmousedown="handleReset()"/>
   <use id="arrowup" xlink:href="#arrowUp" x="0" y="0" onmousedown="handlePan(0,-1)"/>
  <use id="arrowright" xlink:href="#arrowRight" x="0" y="0" onmousedown="handlePan(1,0)"/>
  <use id="arrowdown" xlink:href="#arrowDown" x="0" y="0" onmousedown="handlePan(0,1)"/>
  <use id="arrowleft" xlink:href="#arrowLeft" x="0" y="0" onmousedown="handlePan(-1,0)"/>
</g>
<svg viewBox="0 0 15 15" width="100%" height="30px" preserveAspectRatio="xMaxYMin meet">
 <g id="arrow_out" transform="scale(0.3 0.3)">
  <a xlink:href="class_bot_config_a994d7a4b890c4ab02c1da5778cc36f9c_cgraph_org.svg" target="_base">
   <rect id="button" ry="5" rx="5" y="6" x="6" height="38" width="38"
        fill="#f2f5e9" fill-opacity="0.5" stroke="#606060" stroke-width="1.0"/>
   <path id="arrow"
     d="M 11.500037,31.436501 C 11.940474,20.09759 22.043105,11.32322 32.158766,21.979434 L 37.068811,17.246167 C 37.068811,17.246167 37.088388,32 37.088388,32 L 22.160133,31.978069 C 22.160133,31.978069 26.997745,27.140456 26.997745,27.140456 C 18.528582,18.264221 13.291696,25.230495 11.500037,31.436501 z"
     style="fill:#404040;"/>
  </a>
 </g>
</svg>

<style type='text/css'>
<![CDATA[
[data-mouse-over-selected='false'] { opacity: 0.7; }
[data-mouse-over-selected='true']  { opacity: 1.0; }
]]>
</style>
<script type="application/ecmascript"><![CDATA[
document.addEventListener('DOMContentLoaded', (event) => {
  highlightEdges();
  highlightAdjacentNodes();
});
]]></script>
</svg>
