<?xml version="1.0" encoding="UTF-8" standalone="no"?>
<!DOCTYPE svg PUBLIC "-//W3C//DTD SVG 1.1//EN"
 "http://www.w3.org/Graphics/SVG/1.1/DTD/svg11.dtd">
<!-- Generated by graphviz version 12.2.0 (20241103.1931)
 -->
<!-- Title: Bluestacks::receiveFolders Pages: 1 -->
<svg width="738pt" height="28pt"
 viewBox="0.00 0.00 738.25 28.00" xmlns="http://www.w3.org/2000/svg" xmlns:xlink="http://www.w3.org/1999/xlink">
<g id="graph0" class="graph" transform="scale(1 1) rotate(0) translate(4 24)">
<title>Bluestacks::receiveFolders</title>
<!-- Node1 -->
<g id="Node000001" class="node">
<title>Node1</title>
<g id="a_Node000001"><a xlink:title=" ">
<polygon fill="#999999" stroke="#666666" points="730.25,-20 595.75,-20 595.75,0 730.25,0 730.25,-20"/>
<text text-anchor="middle" x="663" y="-6.5" font-family="Helvetica,sans-Serif" font-size="10.00">Bluestacks::receiveFolders</text>
</a>
</g>
</g>
<!-- Node2 -->
<g id="Node000002" class="node">
<title>Node2</title>
<g id="a_Node000002"><a xlink:href="class_bot_config.html#a24360fdf5b92d7fb02ca39004ceb06cf" target="_top" xlink:title=" ">
<polygon fill="white" stroke="#666666" points="559.75,-20 432.75,-20 432.75,0 559.75,0 559.75,-20"/>
<text text-anchor="middle" x="496.25" y="-6.5" font-family="Helvetica,sans-Serif" font-size="10.00">BotConfig::initBluestacks</text>
</a>
</g>
</g>
<!-- Node1&#45;&gt;Node2 -->
<g id="edge1_Node000001_Node000002" class="edge">
<title>Node1&#45;&gt;Node2</title>
<g id="a_edge1_Node000001_Node000002"><a xlink:title=" ">
<path fill="none" stroke="#63b8ff" d="M584.12,-10C576.04,-10 567.91,-10 560.03,-10"/>
<polygon fill="#63b8ff" stroke="#63b8ff" points="583.95,-13.5 593.95,-10 583.95,-6.5 583.95,-13.5"/>
</a>
</g>
</g>
<!-- Node3 -->
<g id="Node000003" class="node">
<title>Node3</title>
<g id="a_Node000003"><a xlink:href="class_bot_config.html#af8c906f3cd22726a96e758886c756068" target="_top" xlink:title=" ">
<polygon fill="white" stroke="#666666" points="396.75,-20 274.25,-20 274.25,0 396.75,0 396.75,-20"/>
<text text-anchor="middle" x="335.5" y="-6.5" font-family="Helvetica,sans-Serif" font-size="10.00">BotConfig::initEmulators</text>
</a>
</g>
</g>
<!-- Node2&#45;&gt;Node3 -->
<g id="edge2_Node000002_Node000003" class="edge">
<title>Node2&#45;&gt;Node3</title>
<g id="a_edge2_Node000002_Node000003"><a xlink:title=" ">
<path fill="none" stroke="#63b8ff" d="M421.23,-10C413.19,-10 405.08,-10 397.23,-10"/>
<polygon fill="#63b8ff" stroke="#63b8ff" points="420.99,-13.5 430.99,-10 420.99,-6.5 420.99,-13.5"/>
</a>
</g>
</g>
<!-- Node4 -->
<g id="Node000004" class="node">
<title>Node4</title>
<g id="a_Node000004"><a xlink:href="class_bot_config.html#a8925ef3403b945f27b9ee2719ef257b9" target="_top" xlink:title=" ">
<polygon fill="white" stroke="#666666" points="238.25,-20 116.5,-20 116.5,0 238.25,0 238.25,-20"/>
<text text-anchor="middle" x="177.38" y="-6.5" font-family="Helvetica,sans-Serif" font-size="10.00">BotConfig::initBotConfig</text>
</a>
</g>
</g>
<!-- Node3&#45;&gt;Node4 -->
<g id="edge3_Node000003_Node000004" class="edge">
<title>Node3&#45;&gt;Node4</title>
<g id="a_edge3_Node000003_Node000004"><a xlink:title=" ">
<path fill="none" stroke="#63b8ff" d="M262.79,-10C254.69,-10 246.5,-10 238.58,-10"/>
<polygon fill="#63b8ff" stroke="#63b8ff" points="262.62,-13.5 272.62,-10 262.62,-6.5 262.62,-13.5"/>
</a>
</g>
</g>
<!-- Node5 -->
<g id="Node000005" class="node">
<title>Node5</title>
<g id="a_Node000005"><a xlink:href="classgame.html#aea6b13468585f1be55d1736100158706" target="_top" xlink:title=" ">
<polygon fill="white" stroke="#666666" points="80.5,-20 0,-20 0,0 80.5,0 80.5,-20"/>
<text text-anchor="middle" x="40.25" y="-6.5" font-family="Helvetica,sans-Serif" font-size="10.00">game::startBot</text>
</a>
</g>
</g>
<!-- Node4&#45;&gt;Node5 -->
<g id="edge4_Node000004_Node000005" class="edge">
<title>Node4&#45;&gt;Node5</title>
<g id="a_edge4_Node000004_Node000005"><a xlink:title=" ">
<path fill="none" stroke="#63b8ff" d="M105.04,-10C96.77,-10 88.57,-10 80.95,-10"/>
<polygon fill="#63b8ff" stroke="#63b8ff" points="104.81,-13.5 114.81,-10 104.81,-6.5 104.81,-13.5"/>
</a>
</g>
</g>
</g>
</svg>
