<?xml version="1.0" encoding="UTF-8" standalone="no"?>
<!DOCTYPE svg PUBLIC "-//W3C//DTD SVG 1.1//EN"
 "http://www.w3.org/Graphics/SVG/1.1/DTD/svg11.dtd">
<!-- Generated by graphviz version 12.2.0 (20241103.1931)
 -->
<!-- Title: CoordTag Pages: 1 -->
<!--zoomable 632 -->

<svg id="main" version="1.1" xmlns="http://www.w3.org/2000/svg" xmlns:xlink="http://www.w3.org/1999/xlink" xml:space="preserve" onload="init(evt)">

<style type="text/css"><![CDATA[
.node, .edge {opacity: 0.7;}
.node.selected, .edge.selected {opacity: 1;}
.edge:hover path { stroke: red; }
.edge:hover polygon { stroke: red; fill: red; }
]]></style>

<defs>
  <circle id="rim" cx="0" cy="0" r="7"/>
  <circle id="rim2" cx="0" cy="0" r="3.5"/>
  <g id="zoomPlus">
    <use xlink:href="#rim" fill="#404040"><set attributeName="fill" to="#808080" begin="zoomplus.mouseover" end="zoomplus.mouseout"/></use>
    <path d="M-4,0h8M0,-4v8" fill="none" stroke="white" stroke-width="1.5" pointer-events="none"/>
  </g>
  <g id="zoomMin">
    <use xlink:href="#rim" fill="#404040"><set attributeName="fill" to="#808080" begin="zoomminus.mouseover" end="zoomminus.mouseout"/></use>
    <path d="M-4,0h8" fill="none" stroke="white" stroke-width="1.5" pointer-events="none"/>
  </g>
  <g id="arrowUp" transform="translate(30 24)">
    <use xlink:href="#rim"/>
    <path pointer-events="none" fill="none" stroke="white" stroke-width="1.5" d="M0,-3.0v7 M-2.5,-0.5L0,-3.0L2.5,-0.5"/>
  </g>
  <g id="arrowRight" transform="rotate(90) translate(36 -43)">
    <use xlink:href="#rim"/>
    <path pointer-events="none" fill="none" stroke="white" stroke-width="1.5" d="M0,-3.0v7 M-2.5,-0.5L0,-3.0L2.5,-0.5"/>
  </g>
  <g id="arrowDown" transform="rotate(180) translate(-30 -48)">
    <use xlink:href="#rim"/>
    <path pointer-events="none" fill="none" stroke="white" stroke-width="1.5" d="M0,-3.0v7 M-2.5,-0.5L0,-3.0L2.5,-0.5"/>
  </g>
  <g id="arrowLeft" transform="rotate(270) translate(-36 17)">
    <use xlink:href="#rim"/>
    <path pointer-events="none" fill="none" stroke="white" stroke-width="1.5" d="M0,-3.0v7 M-2.5,-0.5L0,-3.0L2.5,-0.5"/>
  </g>
  <g id="resetDef">
    <use xlink:href="#rim2" fill="#404040"><set attributeName="fill" to="#808080" begin="reset.mouseover" end="reset.mouseout"/></use>
  </g>
</defs>
<script type="application/ecmascript">
var viewWidth = 290;
var viewHeight = 632;
var sectionId = 'dynsection-1';
</script>
<script type="application/ecmascript" xlink:href="svg.min.js"/>
<svg id="graph" class="graph">
<g id="viewport">
<title>CoordTag</title>
<!-- Node1 -->
<g id="Node000001" class="node">
<title>Node1</title>
<g id="a_Node000001"><a xlink:title=" ">
<polygon fill="#999999" stroke="none" points="205.12,-228 67.88,-228 67.88,0 205.12,0 205.12,-228"/>
<text text-anchor="start" x="115.5" y="-214.5" font-family="Helvetica,sans-Serif" font-size="10.00">CoordTag</text>
<text text-anchor="start" x="71.88" y="-198.5" font-family="Helvetica,sans-Serif" font-size="10.00">+</text>
<text text-anchor="start" x="81.88" y="-198.5" font-family="Helvetica,sans-Serif" font-size="10.00">std::shared_ptr&lt; Tag</text>
<text text-anchor="start" x="81.88" y="-186.5" font-family="Helvetica,sans-Serif" font-size="10.00"> &gt; coordsTag</text>
<text text-anchor="start" x="71.88" y="-170.5" font-family="Helvetica,sans-Serif" font-size="10.00">+</text>
<text text-anchor="start" x="81.88" y="-170.5" font-family="Helvetica,sans-Serif" font-size="10.00">CoordTag()</text>
<text text-anchor="start" x="71.88" y="-154.5" font-family="Helvetica,sans-Serif" font-size="10.00">+</text>
<text text-anchor="start" x="81.88" y="-154.5" font-family="Helvetica,sans-Serif" font-size="10.00">CoordTag(const CoordTag</text>
<text text-anchor="start" x="81.88" y="-142.5" font-family="Helvetica,sans-Serif" font-size="10.00"> &amp;toCopy)</text>
<text text-anchor="start" x="71.88" y="-126.5" font-family="Helvetica,sans-Serif" font-size="10.00">+</text>
<text text-anchor="start" x="81.88" y="-126.5" font-family="Helvetica,sans-Serif" font-size="10.00">CoordTag(const std</text>
<text text-anchor="start" x="81.88" y="-114.5" font-family="Helvetica,sans-Serif" font-size="10.00">::shared_ptr&lt; Tag &gt;</text>
<text text-anchor="start" x="81.88" y="-102.5" font-family="Helvetica,sans-Serif" font-size="10.00"> &amp;parameters)</text>
<text text-anchor="start" x="71.88" y="-86.5" font-family="Helvetica,sans-Serif" font-size="10.00">+</text>
<text text-anchor="start" x="81.88" y="-86.5" font-family="Helvetica,sans-Serif" font-size="10.00">CoordTag(const std</text>
<text text-anchor="start" x="81.88" y="-74.5" font-family="Helvetica,sans-Serif" font-size="10.00">::shared_ptr&lt; Tag &gt;</text>
<text text-anchor="start" x="81.88" y="-62.5" font-family="Helvetica,sans-Serif" font-size="10.00"> &amp;xPoint, const std::</text>
<text text-anchor="start" x="81.88" y="-50.5" font-family="Helvetica,sans-Serif" font-size="10.00">shared_ptr&lt; Tag &gt; &amp;yPoint)</text>
<text text-anchor="start" x="71.88" y="-34.5" font-family="Helvetica,sans-Serif" font-size="10.00">+</text>
<text text-anchor="start" x="81.88" y="-34.5" font-family="Helvetica,sans-Serif" font-size="10.00">std::shared_ptr&lt; CoordTag</text>
<text text-anchor="start" x="81.88" y="-22.5" font-family="Helvetica,sans-Serif" font-size="10.00"> &gt; clone()</text>
<text text-anchor="start" x="71.88" y="-6.5" font-family="Helvetica,sans-Serif" font-size="10.00">+</text>
<text text-anchor="start" x="81.88" y="-6.5" font-family="Helvetica,sans-Serif" font-size="10.00">void execute() override</text>
<polygon fill="#666666" stroke="#666666" points="67.88,-210 67.88,-210 205.12,-210 205.12,-210 67.88,-210"/>
<polygon fill="#666666" stroke="#666666" points="67.88,-182 67.88,-182 79.88,-182 79.88,-182 67.88,-182"/>
<polygon fill="#666666" stroke="#666666" points="79.88,-182 79.88,-182 205.12,-182 205.12,-182 79.88,-182"/>
<polygon fill="none" stroke="#666666" points="67.88,0 67.88,-228 205.12,-228 205.12,0 67.88,0"/>
</a>
</g>
</g>
<!-- Node2 -->
<g id="Node000002" class="node">
<title>Node2</title>
<g id="a_Node000002"><a xlink:href="class_tag.html" target="_top" xlink:title=" ">
<polygon fill="white" stroke="none" points="123,-530 0,-530 0,-370 123,-370 123,-530"/>
<text text-anchor="start" x="53.62" y="-516.5" font-family="Helvetica,sans-Serif" font-size="10.00">Tag</text>
<text text-anchor="start" x="4" y="-500.5" font-family="Helvetica,sans-Serif" font-size="10.00">+</text>
<text text-anchor="start" x="14" y="-500.5" font-family="Helvetica,sans-Serif" font-size="10.00">std::string tagText</text>
<text text-anchor="start" x="4" y="-484.5" font-family="Helvetica,sans-Serif" font-size="10.00">+</text>
<text text-anchor="start" x="14" y="-484.5" font-family="Helvetica,sans-Serif" font-size="10.00">int nbParents</text>
<text text-anchor="start" x="4" y="-468.5" font-family="Helvetica,sans-Serif" font-size="10.00">+</text>
<text text-anchor="start" x="14" y="-468.5" font-family="Helvetica,sans-Serif" font-size="10.00">bool doExecute</text>
<text text-anchor="start" x="4" y="-452.5" font-family="Helvetica,sans-Serif" font-size="10.00">+</text>
<text text-anchor="start" x="14" y="-452.5" font-family="Helvetica,sans-Serif" font-size="10.00">TagType myType</text>
<text text-anchor="start" x="4" y="-436.5" font-family="Helvetica,sans-Serif" font-size="10.00">+</text>
<text text-anchor="start" x="14" y="-436.5" font-family="Helvetica,sans-Serif" font-size="10.00">Tag()</text>
<text text-anchor="start" x="4" y="-420.5" font-family="Helvetica,sans-Serif" font-size="10.00">+</text>
<text text-anchor="start" x="14" y="-420.5" font-family="Helvetica,sans-Serif" font-size="10.00">Tag(const Tag &amp;toCopy)</text>
<text text-anchor="start" x="4" y="-404.5" font-family="Helvetica,sans-Serif" font-size="10.00">+</text>
<text text-anchor="start" x="14" y="-404.5" font-family="Helvetica,sans-Serif" font-size="10.00">std::shared_ptr&lt; Tag</text>
<text text-anchor="start" x="14" y="-392.5" font-family="Helvetica,sans-Serif" font-size="10.00"> &gt; clone()</text>
<text text-anchor="start" x="4" y="-376.5" font-family="Helvetica,sans-Serif" font-size="10.00">+</text>
<text text-anchor="start" x="14" y="-376.5" font-family="Helvetica,sans-Serif" font-size="10.00">virtual void execute()</text>
<polygon fill="#666666" stroke="#666666" points="0,-512 0,-512 123,-512 123,-512 0,-512"/>
<polygon fill="#666666" stroke="#666666" points="0,-448 0,-448 12,-448 12,-448 0,-448"/>
<polygon fill="#666666" stroke="#666666" points="12,-448 12,-448 123,-448 123,-448 12,-448"/>
<polygon fill="none" stroke="#666666" points="0,-370 0,-530 123,-530 123,-370 0,-370"/>
</a>
</g>
</g>
<!-- Node2&#45;&gt;Node1 -->
<g id="edge1_Node000001_Node000002" class="edge">
<title>Node2&#45;&gt;Node1</title>
<g id="a_edge1_Node000001_Node000002"><a xlink:title=" ">
<path fill="none" stroke="#63b8ff" d="M81.69,-359.11C90.75,-318.76 101.53,-270.72 111.13,-227.98"/>
<polygon fill="none" stroke="#63b8ff" points="78.29,-358.27 79.51,-368.79 85.12,-359.8 78.29,-358.27"/>
</a>
</g>
</g>
<!-- Node3 -->
<g id="Node000003" class="node">
<title>Node3</title>
<g id="a_Node000003"><a xlink:href="struct_coord.html" target="_top" xlink:title=" ">
<polygon fill="white" stroke="none" points="281.62,-624 141.38,-624 141.38,-276 281.62,-276 281.62,-624"/>
<text text-anchor="start" x="198.38" y="-610.5" font-family="Helvetica,sans-Serif" font-size="10.00">Coord</text>
<text text-anchor="start" x="145.38" y="-594.5" font-family="Helvetica,sans-Serif" font-size="10.00">+</text>
<text text-anchor="start" x="155.38" y="-594.5" font-family="Helvetica,sans-Serif" font-size="10.00">int x</text>
<text text-anchor="start" x="145.38" y="-578.5" font-family="Helvetica,sans-Serif" font-size="10.00">+</text>
<text text-anchor="start" x="155.38" y="-578.5" font-family="Helvetica,sans-Serif" font-size="10.00">int y</text>
<text text-anchor="start" x="145.38" y="-562.5" font-family="Helvetica,sans-Serif" font-size="10.00">+</text>
<text text-anchor="start" x="155.38" y="-562.5" font-family="Helvetica,sans-Serif" font-size="10.00">Coord()</text>
<text text-anchor="start" x="145.38" y="-546.5" font-family="Helvetica,sans-Serif" font-size="10.00">+</text>
<text text-anchor="start" x="155.38" y="-546.5" font-family="Helvetica,sans-Serif" font-size="10.00">Coord(const Coord &amp;Co)</text>
<text text-anchor="start" x="145.38" y="-530.5" font-family="Helvetica,sans-Serif" font-size="10.00">+</text>
<text text-anchor="start" x="155.38" y="-530.5" font-family="Helvetica,sans-Serif" font-size="10.00">Coord(int x1, int y1)</text>
<text text-anchor="start" x="145.38" y="-514.5" font-family="Helvetica,sans-Serif" font-size="10.00">+</text>
<text text-anchor="start" x="155.38" y="-514.5" font-family="Helvetica,sans-Serif" font-size="10.00">Coord(double x1, double y1)</text>
<text text-anchor="start" x="145.38" y="-498.5" font-family="Helvetica,sans-Serif" font-size="10.00">+</text>
<text text-anchor="start" x="155.38" y="-498.5" font-family="Helvetica,sans-Serif" font-size="10.00">Coord(int x1, double y1)</text>
<text text-anchor="start" x="145.38" y="-482.5" font-family="Helvetica,sans-Serif" font-size="10.00">+</text>
<text text-anchor="start" x="155.38" y="-482.5" font-family="Helvetica,sans-Serif" font-size="10.00">Coord(double x1, int y1)</text>
<text text-anchor="start" x="145.38" y="-466.5" font-family="Helvetica,sans-Serif" font-size="10.00">+</text>
<text text-anchor="start" x="155.38" y="-466.5" font-family="Helvetica,sans-Serif" font-size="10.00">void showCoords()</text>
<text text-anchor="start" x="145.38" y="-450.5" font-family="Helvetica,sans-Serif" font-size="10.00">+</text>
<text text-anchor="start" x="155.38" y="-450.5" font-family="Helvetica,sans-Serif" font-size="10.00">bool isNull()</text>
<text text-anchor="start" x="145.38" y="-434.5" font-family="Helvetica,sans-Serif" font-size="10.00">+</text>
<text text-anchor="start" x="155.38" y="-434.5" font-family="Helvetica,sans-Serif" font-size="10.00">bool operator==(const</text>
<text text-anchor="start" x="155.38" y="-422.5" font-family="Helvetica,sans-Serif" font-size="10.00"> Coord &amp;other) const</text>
<text text-anchor="start" x="145.38" y="-406.5" font-family="Helvetica,sans-Serif" font-size="10.00">+</text>
<text text-anchor="start" x="155.38" y="-406.5" font-family="Helvetica,sans-Serif" font-size="10.00">bool operator!=(const</text>
<text text-anchor="start" x="155.38" y="-394.5" font-family="Helvetica,sans-Serif" font-size="10.00"> Coord &amp;other) const</text>
<text text-anchor="start" x="145.38" y="-378.5" font-family="Helvetica,sans-Serif" font-size="10.00">+</text>
<text text-anchor="start" x="155.38" y="-378.5" font-family="Helvetica,sans-Serif" font-size="10.00">Coord &amp; operator=(const</text>
<text text-anchor="start" x="155.38" y="-366.5" font-family="Helvetica,sans-Serif" font-size="10.00"> Coord &amp;other)</text>
<text text-anchor="start" x="145.38" y="-350.5" font-family="Helvetica,sans-Serif" font-size="10.00">+</text>
<text text-anchor="start" x="155.38" y="-350.5" font-family="Helvetica,sans-Serif" font-size="10.00">Coord operator+(const</text>
<text text-anchor="start" x="155.38" y="-338.5" font-family="Helvetica,sans-Serif" font-size="10.00"> Coord &amp;other) const</text>
<text text-anchor="start" x="145.38" y="-322.5" font-family="Helvetica,sans-Serif" font-size="10.00">+</text>
<text text-anchor="start" x="155.38" y="-322.5" font-family="Helvetica,sans-Serif" font-size="10.00">Coord operator&#45;(const</text>
<text text-anchor="start" x="155.38" y="-310.5" font-family="Helvetica,sans-Serif" font-size="10.00"> Coord &amp;other) const</text>
<text text-anchor="start" x="145.38" y="-294.5" font-family="Helvetica,sans-Serif" font-size="10.00">+</text>
<text text-anchor="start" x="155.38" y="-294.5" font-family="Helvetica,sans-Serif" font-size="10.00">Coord operator*(const</text>
<text text-anchor="start" x="155.38" y="-282.5" font-family="Helvetica,sans-Serif" font-size="10.00"> Coord &amp;other) const</text>
<polygon fill="#666666" stroke="#666666" points="141.38,-606 141.38,-606 281.62,-606 281.62,-606 141.38,-606"/>
<polygon fill="#666666" stroke="#666666" points="141.38,-574 141.38,-574 153.38,-574 153.38,-574 141.38,-574"/>
<polygon fill="#666666" stroke="#666666" points="153.38,-574 153.38,-574 281.62,-574 281.62,-574 153.38,-574"/>
<polygon fill="none" stroke="#666666" points="141.38,-276 141.38,-624 281.62,-624 281.62,-276 141.38,-276"/>
</a>
</g>
</g>
<!-- Node3&#45;&gt;Node1 -->
<g id="edge2_Node000001_Node000003" class="edge">
<title>Node3&#45;&gt;Node1</title>
<g id="a_edge2_Node000001_Node000003"><a xlink:title=" ">
<path fill="none" stroke="#63b8ff" d="M172.68,-276.13C169.98,-264.09 167.28,-252.09 164.65,-240.38"/>
<polygon fill="none" stroke="#63b8ff" points="164.66,-240.39 159.44,-235.41 162.03,-228.68 167.25,-233.66 164.66,-240.39"/>
</a>
</g>
<text text-anchor="middle" x="194.28" y="-248.5" font-family="Helvetica,sans-Serif" font-size="10.00" fill="grey"> +myCoords</text>
</g>
</g>
</svg>

<g id="navigator" transform="translate(0 0)" fill="#404254">
  <rect fill="#f2f5e9" fill-opacity="0.5" stroke="#606060" stroke-width=".5" x="0" y="0" width="60" height="60"/>
  <use id="zoomplus" xlink:href="#zoomPlus" x="17" y="9" onmousedown="handleZoom(evt,'in')"/>
  <use id="zoomminus" xlink:href="#zoomMin" x="42" y="9" onmousedown="handleZoom(evt,'out')"/>
  <use id="reset" xlink:href="#resetDef" x="30" y="36" onmousedown="handleReset()"/>
   <use id="arrowup" xlink:href="#arrowUp" x="0" y="0" onmousedown="handlePan(0,-1)"/>
  <use id="arrowright" xlink:href="#arrowRight" x="0" y="0" onmousedown="handlePan(1,0)"/>
  <use id="arrowdown" xlink:href="#arrowDown" x="0" y="0" onmousedown="handlePan(0,1)"/>
  <use id="arrowleft" xlink:href="#arrowLeft" x="0" y="0" onmousedown="handlePan(-1,0)"/>
</g>
<svg viewBox="0 0 15 15" width="100%" height="30px" preserveAspectRatio="xMaxYMin meet">
 <g id="arrow_out" transform="scale(0.3 0.3)">
  <a xlink:href="class_coord_tag__coll__graph_org.svg" target="_base">
   <rect id="button" ry="5" rx="5" y="6" x="6" height="38" width="38"
        fill="#f2f5e9" fill-opacity="0.5" stroke="#606060" stroke-width="1.0"/>
   <path id="arrow"
     d="M 11.500037,31.436501 C 11.940474,20.09759 22.043105,11.32322 32.158766,21.979434 L 37.068811,17.246167 C 37.068811,17.246167 37.088388,32 37.088388,32 L 22.160133,31.978069 C 22.160133,31.978069 26.997745,27.140456 26.997745,27.140456 C 18.528582,18.264221 13.291696,25.230495 11.500037,31.436501 z"
     style="fill:#404040;"/>
  </a>
 </g>
</svg>

<style type='text/css'>
<![CDATA[
[data-mouse-over-selected='false'] { opacity: 0.7; }
[data-mouse-over-selected='true']  { opacity: 1.0; }
]]>
</style>
<script type="application/ecmascript"><![CDATA[
document.addEventListener('DOMContentLoaded', (event) => {
  highlightEdges();
  highlightAdjacentNodes();
});
]]></script>
</svg>
