<?xml version="1.0" encoding="UTF-8" standalone="no"?>
<!DOCTYPE svg PUBLIC "-//W3C//DTD SVG 1.1//EN"
 "http://www.w3.org/Graphics/SVG/1.1/DTD/svg11.dtd">
<!-- Generated by graphviz version 12.2.0 (20241103.1931)
 -->
<!-- Title: StoreTag::execute Pages: 1 -->
<svg width="349pt" height="28pt"
 viewBox="0.00 0.00 349.25 28.00" xmlns="http://www.w3.org/2000/svg" xmlns:xlink="http://www.w3.org/1999/xlink">
<g id="graph0" class="graph" transform="scale(1 1) rotate(0) translate(4 24)">
<title>StoreTag::execute</title>
<!-- Node1 -->
<g id="Node000001" class="node">
<title>Node1</title>
<g id="a_Node000001"><a xlink:title=" ">
<polygon fill="#999999" stroke="#666666" points="95.5,-20 0,-20 0,0 95.5,0 95.5,-20"/>
<text text-anchor="middle" x="47.75" y="-6.5" font-family="Helvetica,sans-Serif" font-size="10.00">StoreTag::execute</text>
</a>
</g>
</g>
<!-- Node2 -->
<g id="Node000002" class="node">
<title>Node2</title>
<g id="a_Node000002"><a xlink:href="_tags_8cpp.html#adb0c764ef1f20ef3d860516a5040b43a" target="_top" xlink:title=" ">
<polygon fill="white" stroke="#666666" points="221,-20 131.5,-20 131.5,0 221,0 221,-20"/>
<text text-anchor="middle" x="176.25" y="-6.5" font-family="Helvetica,sans-Serif" font-size="10.00">executeDirection</text>
</a>
</g>
</g>
<!-- Node1&#45;&gt;Node2 -->
<g id="edge1_Node000001_Node000002" class="edge">
<title>Node1&#45;&gt;Node2</title>
<g id="a_edge1_Node000001_Node000002"><a xlink:title=" ">
<path fill="none" stroke="#63b8ff" d="M95.85,-10C103.59,-10 111.68,-10 119.6,-10"/>
<polygon fill="#63b8ff" stroke="#63b8ff" points="119.53,-13.5 129.53,-10 119.53,-6.5 119.53,-13.5"/>
</a>
</g>
</g>
<!-- Node3 -->
<g id="Node000003" class="node">
<title>Node3</title>
<g id="a_Node000003"><a xlink:href="_tags_8cpp.html#a51e57c878c8df7f38ce915b45d3dc451" target="_top" xlink:title=" ">
<polygon fill="white" stroke="#666666" points="341.25,-20 257,-20 257,0 341.25,0 341.25,-20"/>
<text text-anchor="middle" x="299.12" y="-6.5" font-family="Helvetica,sans-Serif" font-size="10.00">getDirectionTag</text>
</a>
</g>
</g>
<!-- Node2&#45;&gt;Node3 -->
<g id="edge2_Node000002_Node000003" class="edge">
<title>Node2&#45;&gt;Node3</title>
<g id="a_edge2_Node000002_Node000003"><a xlink:title=" ">
<path fill="none" stroke="#63b8ff" d="M221.23,-10C229.12,-10 237.42,-10 245.52,-10"/>
<polygon fill="#63b8ff" stroke="#63b8ff" points="245.28,-13.5 255.28,-10 245.28,-6.5 245.28,-13.5"/>
</a>
</g>
</g>
</g>
</svg>
