<?xml version="1.0" encoding="UTF-8" standalone="no"?>
<!DOCTYPE svg PUBLIC "-//W3C//DTD SVG 1.1//EN"
 "http://www.w3.org/Graphics/SVG/1.1/DTD/svg11.dtd">
<!-- Generated by graphviz version 12.2.0 (20241103.1931)
 -->
<!-- Title: ListToken::addCab Pages: 1 -->
<svg width="267pt" height="142pt"
 viewBox="0.00 0.00 266.50 142.00" xmlns="http://www.w3.org/2000/svg" xmlns:xlink="http://www.w3.org/1999/xlink">

<svg id="main" version="1.1" xmlns="http://www.w3.org/2000/svg" xmlns:xlink="http://www.w3.org/1999/xlink" xml:space="preserve">

<style type="text/css"><![CDATA[
.node, .edge {opacity: 0.7;}
.node.selected, .edge.selected {opacity: 1;}
.edge:hover path { stroke: red; }
.edge:hover polygon { stroke: red; fill: red; }
]]></style>
<script type="application/ecmascript" xlink:href="svg.min.js"/>
<svg id="graph" class="graph">
<g id="graph0" class="graph" transform="scale(1 1) rotate(0) translate(4 138)">
<title>ListToken::addCab</title>
<!-- Node1 -->
<g id="Node000001" class="node">
<title>Node1</title>
<g id="a_Node000001"><a xlink:title=" ">
<polygon fill="#999999" stroke="#666666" points="97.75,-77 0,-77 0,-57 97.75,-57 97.75,-77"/>
<text text-anchor="middle" x="48.88" y="-63.5" font-family="Helvetica,sans-Serif" font-size="10.00">ListToken::addCab</text>
</a>
</g>
</g>
<!-- Node2 -->
<g id="Node000002" class="node">
<title>Node2</title>
<g id="a_Node000002"><a xlink:href="class_token.html#a4c0f84a84656f0b5e28c4193c3c13ea3" target="_top" xlink:title=" ">
<polygon fill="white" stroke="#666666" points="238.62,-134 153.62,-134 153.62,-114 238.62,-114 238.62,-134"/>
<text text-anchor="middle" x="196.12" y="-120.5" font-family="Helvetica,sans-Serif" font-size="10.00">Token::addError</text>
</a>
</g>
</g>
<!-- Node1&#45;&gt;Node2 -->
<g id="edge1_Node000001_Node000002" class="edge">
<title>Node1&#45;&gt;Node2</title>
<g id="a_edge1_Node000001_Node000002"><a xlink:title=" ">
<path fill="none" stroke="#63b8ff" d="M70.94,-77.43C87.72,-85.52 111.93,-96.72 133.75,-105 138.39,-106.76 143.28,-108.49 148.18,-110.13"/>
<polygon fill="#63b8ff" stroke="#63b8ff" points="146.81,-113.37 157.41,-113.13 148.97,-106.71 146.81,-113.37"/>
</a>
</g>
</g>
<!-- Node3 -->
<g id="Node000003" class="node">
<title>Node3</title>
<g id="a_Node000003"><a xlink:href="class_iterator_list.html#a4acf162e4a194bddd3c2fe26b073f45a" target="_top" xlink:title=" ">
<polygon fill="white" stroke="#666666" points="258.5,-96 133.75,-96 133.75,-76 258.5,-76 258.5,-96"/>
<text text-anchor="middle" x="196.12" y="-82.5" font-family="Helvetica,sans-Serif" font-size="10.00">IteratorList::currentToken</text>
</a>
</g>
</g>
<!-- Node1&#45;&gt;Node3 -->
<g id="edge2_Node000001_Node000003" class="edge">
<title>Node1&#45;&gt;Node3</title>
<g id="a_edge2_Node000001_Node000003"><a xlink:title=" ">
<path fill="none" stroke="#63b8ff" d="M98.24,-73.33C105.87,-74.32 113.9,-75.38 121.94,-76.43"/>
<polygon fill="#63b8ff" stroke="#63b8ff" points="121.41,-79.89 131.78,-77.71 122.31,-72.95 121.41,-79.89"/>
</a>
</g>
</g>
<!-- Node4 -->
<g id="Node000004" class="node">
<title>Node4</title>
<g id="a_Node000004"><a xlink:href="class_iterator_list.html#a2ebc1118094754b7d333b0a9d257d12b" target="_top" xlink:title=" ">
<polygon fill="white" stroke="#666666" points="243.5,-58 148.75,-58 148.75,-38 243.5,-38 243.5,-58"/>
<text text-anchor="middle" x="196.12" y="-44.5" font-family="Helvetica,sans-Serif" font-size="10.00">IteratorList::ended</text>
</a>
</g>
</g>
<!-- Node1&#45;&gt;Node4 -->
<g id="edge3_Node000001_Node000004" class="edge">
<title>Node1&#45;&gt;Node4</title>
<g id="a_edge3_Node000001_Node000004"><a xlink:title=" ">
<path fill="none" stroke="#63b8ff" d="M98.24,-60.67C110.75,-59.04 124.35,-57.26 137.29,-55.57"/>
<polygon fill="#63b8ff" stroke="#63b8ff" points="137.49,-59.07 146.95,-54.3 136.58,-52.13 137.49,-59.07"/>
</a>
</g>
</g>
<!-- Node5 -->
<g id="Node000005" class="node">
<title>Node5</title>
<g id="a_Node000005"><a xlink:href="class_iterator_list.html#af5c370ccb8698e2a9fb0714782d57203" target="_top" xlink:title=" ">
<polygon fill="white" stroke="#666666" points="239.75,-20 152.5,-20 152.5,0 239.75,0 239.75,-20"/>
<text text-anchor="middle" x="196.12" y="-6.5" font-family="Helvetica,sans-Serif" font-size="10.00">IteratorList::next</text>
</a>
</g>
</g>
<!-- Node1&#45;&gt;Node5 -->
<g id="edge4_Node000001_Node000005" class="edge">
<title>Node1&#45;&gt;Node5</title>
<g id="a_edge4_Node000001_Node000005"><a xlink:title=" ">
<path fill="none" stroke="#63b8ff" d="M70.94,-56.57C87.72,-48.48 111.93,-37.28 133.75,-29 138.39,-27.24 143.28,-25.51 148.18,-23.87"/>
<polygon fill="#63b8ff" stroke="#63b8ff" points="148.97,-27.29 157.41,-20.87 146.81,-20.63 148.97,-27.29"/>
</a>
</g>
</g>
</g>
</svg>
</svg>

<style type='text/css'>
<![CDATA[
[data-mouse-over-selected='false'] { opacity: 0.7; }
[data-mouse-over-selected='true']  { opacity: 1.0; }
]]>
</style>
<script type="application/ecmascript"><![CDATA[
document.addEventListener('DOMContentLoaded', (event) => {
  highlightEdges();
  highlightAdjacentNodes();
});
]]></script>
</svg>
