<?xml version="1.0" encoding="UTF-8" standalone="no"?>
<!DOCTYPE svg PUBLIC "-//W3C//DTD SVG 1.1//EN"
 "http://www.w3.org/Graphics/SVG/1.1/DTD/svg11.dtd">
<!-- Generated by graphviz version 12.2.0 (20241103.1931)
 -->
<!-- Title: BotConfig::readFavoriteInstance Pages: 1 -->
<svg width="1131pt" height="160pt"
 viewBox="0.00 0.00 1130.50 160.00" xmlns="http://www.w3.org/2000/svg" xmlns:xlink="http://www.w3.org/1999/xlink">
<g id="graph0" class="graph" transform="scale(1 1) rotate(0) translate(4 156)">
<title>BotConfig::readFavoriteInstance</title>
<!-- Node1 -->
<g id="Node000001" class="node">
<title>Node1</title>
<g id="a_Node000001"><a xlink:title=" ">
<polygon fill="#999999" stroke="#666666" points="157,-58 0,-58 0,-38 157,-38 157,-58"/>
<text text-anchor="middle" x="78.5" y="-44.5" font-family="Helvetica,sans-Serif" font-size="10.00">BotConfig::readFavoriteInstance</text>
</a>
</g>
</g>
<!-- Node2 -->
<g id="Node000002" class="node">
<title>Node2</title>
<g id="a_Node000002"><a xlink:href="class_bot_config.html#a6347ad0b79f04a755fe1d7151ed87cd2" target="_top" xlink:title=" ">
<polygon fill="white" stroke="#666666" points="333.5,-58 193,-58 193,-38 333.5,-38 333.5,-58"/>
<text text-anchor="middle" x="263.25" y="-44.5" font-family="Helvetica,sans-Serif" font-size="10.00">BotConfig::readStringBotFile</text>
</a>
</g>
</g>
<!-- Node1&#45;&gt;Node2 -->
<g id="edge1_Node000001_Node000002" class="edge">
<title>Node1&#45;&gt;Node2</title>
<g id="a_edge1_Node000001_Node000002"><a xlink:title=" ">
<path fill="none" stroke="#63b8ff" d="M157.27,-48C165.26,-48 173.39,-48 181.41,-48"/>
<polygon fill="#63b8ff" stroke="#63b8ff" points="181.14,-51.5 191.14,-48 181.14,-44.5 181.14,-51.5"/>
</a>
</g>
</g>
<!-- Node3 -->
<g id="Node000003" class="node">
<title>Node3</title>
<g id="a_Node000003"><a xlink:href="class_bot_config.html#a623d05e4d8e0122d35b1a3e391fc2464" target="_top" xlink:title=" ">
<polygon fill="white" stroke="#666666" points="479.25,-58 369.5,-58 369.5,-38 479.25,-38 479.25,-58"/>
<text text-anchor="middle" x="424.38" y="-44.5" font-family="Helvetica,sans-Serif" font-size="10.00">BotConfig::readString</text>
</a>
</g>
</g>
<!-- Node2&#45;&gt;Node3 -->
<g id="edge2_Node000002_Node000003" class="edge">
<title>Node2&#45;&gt;Node3</title>
<g id="a_edge2_Node000002_Node000003"><a xlink:title=" ">
<path fill="none" stroke="#63b8ff" d="M333.58,-48C341.57,-48 349.7,-48 357.64,-48"/>
<polygon fill="#63b8ff" stroke="#63b8ff" points="357.59,-51.5 367.59,-48 357.59,-44.5 357.59,-51.5"/>
</a>
</g>
</g>
<!-- Node4 -->
<g id="Node000004" class="node">
<title>Node4</title>
<g id="a_Node000004"><a xlink:href="_text_manager_8cpp.html#a85a282af68cca7cf7d69487d1bacdc47" target="_top" xlink:title=" ">
<polygon fill="white" stroke="#666666" points="733.62,-96 649.38,-96 649.38,-76 733.62,-76 733.62,-96"/>
<text text-anchor="middle" x="691.5" y="-82.5" font-family="Helvetica,sans-Serif" font-size="10.00">extractBetween</text>
</a>
</g>
</g>
<!-- Node3&#45;&gt;Node4 -->
<g id="edge3_Node000003_Node000004" class="edge">
<title>Node3&#45;&gt;Node4</title>
<g id="a_edge3_Node000003_Node000004"><a xlink:title=" ">
<path fill="none" stroke="#63b8ff" d="M470.47,-58.46C484.74,-61.52 500.6,-64.66 515.25,-67 556.11,-73.52 602.7,-78.45 637.57,-81.66"/>
<polygon fill="#63b8ff" stroke="#63b8ff" points="637.13,-85.13 647.41,-82.54 637.76,-78.16 637.13,-85.13"/>
</a>
</g>
</g>
<!-- Node10 -->
<g id="Node000010" class="node">
<title>Node10</title>
<g id="a_Node000010"><a xlink:href="_text_manager_8cpp.html#add36cc54cd9616a393a17b8961491477" target="_top" xlink:title=" ">
<polygon fill="white" stroke="#666666" points="595,-20 515.25,-20 515.25,0 595,0 595,-20"/>
<text text-anchor="middle" x="555.12" y="-6.5" font-family="Helvetica,sans-Serif" font-size="10.00">getFileContent</text>
</a>
</g>
</g>
<!-- Node3&#45;&gt;Node10 -->
<g id="edge12_Node000003_Node000010" class="edge">
<title>Node3&#45;&gt;Node10</title>
<g id="a_edge12_Node000003_Node000010"><a xlink:title=" ">
<path fill="none" stroke="#63b8ff" d="M460.9,-37.52C475.39,-33.24 492.35,-28.23 507.79,-23.67"/>
<polygon fill="#63b8ff" stroke="#63b8ff" points="508.67,-27.07 517.27,-20.88 506.69,-20.35 508.67,-27.07"/>
</a>
</g>
</g>
<!-- Node11 -->
<g id="Node000011" class="node">
<title>Node11</title>
<g id="a_Node000011"><a xlink:href="_text_manager_8cpp.html#af24bee60aa1d3d5b4ae3bf6ebd267ecd" target="_top" xlink:title=" ">
<polygon fill="white" stroke="#666666" points="578.88,-58 531.38,-58 531.38,-38 578.88,-38 578.88,-58"/>
<text text-anchor="middle" x="555.12" y="-44.5" font-family="Helvetica,sans-Serif" font-size="10.00">getLine</text>
</a>
</g>
</g>
<!-- Node3&#45;&gt;Node11 -->
<g id="edge13_Node000003_Node000011" class="edge">
<title>Node3&#45;&gt;Node11</title>
<g id="a_edge13_Node000003_Node000011"><a xlink:title=" ">
<path fill="none" stroke="#63b8ff" d="M479.6,-48C493.25,-48 507.52,-48 519.87,-48"/>
<polygon fill="#63b8ff" stroke="#63b8ff" points="519.54,-51.5 529.54,-48 519.54,-44.5 519.54,-51.5"/>
</a>
</g>
</g>
<!-- Node5 -->
<g id="Node000005" class="node">
<title>Node5</title>
<g id="a_Node000005"><a xlink:href="_text_manager_8cpp.html#a6956d58559ef67f422247fdeb1c22775" target="_top" xlink:title=" ">
<polygon fill="white" stroke="#666666" points="867.75,-96 791.75,-96 791.75,-76 867.75,-76 867.75,-96"/>
<text text-anchor="middle" x="829.75" y="-82.5" font-family="Helvetica,sans-Serif" font-size="10.00">getStringAfter</text>
</a>
</g>
</g>
<!-- Node4&#45;&gt;Node5 -->
<g id="edge4_Node000004_Node000005" class="edge">
<title>Node4&#45;&gt;Node5</title>
<g id="a_edge4_Node000004_Node000005"><a xlink:title=" ">
<path fill="none" stroke="#63b8ff" d="M734.12,-86C748.71,-86 765.23,-86 780.33,-86"/>
<polygon fill="#63b8ff" stroke="#63b8ff" points="780.03,-89.5 790.03,-86 780.03,-82.5 780.03,-89.5"/>
</a>
</g>
</g>
<!-- Node9 -->
<g id="Node000009" class="node">
<title>Node9</title>
<g id="a_Node000009"><a xlink:href="_text_manager_8cpp.html#aff8311b88dbf5f3091f3ac1262543242" target="_top" xlink:title=" ">
<polygon fill="white" stroke="#666666" points="871.5,-58 788,-58 788,-38 871.5,-38 871.5,-58"/>
<text text-anchor="middle" x="829.75" y="-44.5" font-family="Helvetica,sans-Serif" font-size="10.00">getStringBefore</text>
</a>
</g>
</g>
<!-- Node4&#45;&gt;Node9 -->
<g id="edge10_Node000004_Node000009" class="edge">
<title>Node4&#45;&gt;Node9</title>
<g id="a_edge10_Node000004_Node000009"><a xlink:title=" ">
<path fill="none" stroke="#63b8ff" d="M730.09,-75.52C745.58,-71.2 763.72,-66.14 780.2,-61.54"/>
<polygon fill="#63b8ff" stroke="#63b8ff" points="781.13,-64.91 789.82,-58.86 779.25,-58.17 781.13,-64.91"/>
</a>
</g>
</g>
<!-- Node6 -->
<g id="Node000006" class="node">
<title>Node6</title>
<g id="a_Node000006"><a xlink:href="_text_manager_8cpp.html#a5b66873abcff2faee361721f86b65dd0" target="_top" xlink:title=" ">
<polygon fill="white" stroke="#666666" points="985.75,-96 918,-96 918,-76 985.75,-76 985.75,-96"/>
<text text-anchor="middle" x="951.88" y="-82.5" font-family="Helvetica,sans-Serif" font-size="10.00">getPosAfter</text>
</a>
</g>
</g>
<!-- Node5&#45;&gt;Node6 -->
<g id="edge5_Node000005_Node000006" class="edge">
<title>Node5&#45;&gt;Node6</title>
<g id="a_edge5_Node000005_Node000006"><a xlink:title=" ">
<path fill="none" stroke="#63b8ff" d="M868.1,-86C880.23,-86 893.8,-86 906.4,-86"/>
<polygon fill="#63b8ff" stroke="#63b8ff" points="906.11,-89.5 916.11,-86 906.11,-82.5 906.11,-89.5"/>
</a>
</g>
</g>
<!-- Node8 -->
<g id="Node000008" class="node">
<title>Node8</title>
<g id="a_Node000008"><a xlink:href="_text_manager_8cpp.html#a2946b90fb3df56b0a74d53eb4160f4e2" target="_top" xlink:title=" ">
<polygon fill="white" stroke="#666666" points="996.25,-134 907.5,-134 907.5,-114 996.25,-114 996.25,-134"/>
<text text-anchor="middle" x="951.88" y="-120.5" font-family="Helvetica,sans-Serif" font-size="10.00">getStringStarting</text>
</a>
</g>
</g>
<!-- Node5&#45;&gt;Node8 -->
<g id="edge7_Node000005_Node000008" class="edge">
<title>Node5&#45;&gt;Node8</title>
<g id="a_edge7_Node000005_Node000008"><a xlink:title=" ">
<path fill="none" stroke="#63b8ff" d="M863.89,-96.48C877.28,-100.72 892.93,-105.67 907.23,-110.19"/>
<polygon fill="#63b8ff" stroke="#63b8ff" points="905.81,-113.41 916.4,-113.09 907.92,-106.74 905.81,-113.41"/>
</a>
</g>
</g>
<!-- Node7 -->
<g id="Node000007" class="node">
<title>Node7</title>
<g id="a_Node000007"><a xlink:href="_text_manager_8cpp.html#a3f4afb2b62acd297e783a22ffa9a7000" target="_top" xlink:title=" ">
<polygon fill="white" stroke="#666666" points="1122.5,-96 1032.25,-96 1032.25,-76 1122.5,-76 1122.5,-96"/>
<text text-anchor="middle" x="1077.38" y="-82.5" font-family="Helvetica,sans-Serif" font-size="10.00">getSequencePos</text>
</a>
</g>
</g>
<!-- Node6&#45;&gt;Node7 -->
<g id="edge6_Node000006_Node000007" class="edge">
<title>Node6&#45;&gt;Node7</title>
<g id="a_edge6_Node000006_Node000007"><a xlink:title=" ">
<path fill="none" stroke="#63b8ff" d="M985.97,-86C996.69,-86 1008.89,-86 1020.79,-86"/>
<polygon fill="#63b8ff" stroke="#63b8ff" points="1020.52,-89.5 1030.52,-86 1020.52,-82.5 1020.52,-89.5"/>
</a>
</g>
</g>
<!-- Node8&#45;&gt;Node7 -->
<g id="edge8_Node000008_Node000007" class="edge">
<title>Node8&#45;&gt;Node7</title>
<g id="a_edge8_Node000008_Node000007"><a xlink:title=" ">
<path fill="none" stroke="#63b8ff" d="M986.95,-113.52C1000.72,-109.28 1016.8,-104.33 1031.5,-99.81"/>
<polygon fill="#63b8ff" stroke="#63b8ff" points="1032.44,-103.18 1040.97,-96.9 1030.38,-96.49 1032.44,-103.18"/>
</a>
</g>
</g>
<!-- Node8&#45;&gt;Node8 -->
<g id="edge9_Node000008_Node000008" class="edge">
<title>Node8&#45;&gt;Node8</title>
<g id="a_edge9_Node000008_Node000008"><a xlink:title=" ">
<path fill="none" stroke="#63b8ff" d="M932.47,-134.34C924.18,-142.98 930.65,-152 951.88,-152 963.48,-152 970.68,-149.3 973.46,-145.44"/>
<polygon fill="#63b8ff" stroke="#63b8ff" points="976.93,-144.96 971.57,-135.82 970.06,-146.31 976.93,-144.96"/>
</a>
</g>
</g>
<!-- Node9&#45;&gt;Node7 -->
<g id="edge11_Node000009_Node000007" class="edge">
<title>Node9&#45;&gt;Node7</title>
<g id="a_edge11_Node000009_Node000007"><a xlink:title=" ">
<path fill="none" stroke="#63b8ff" d="M871.75,-51.34C905.36,-54.41 954.09,-59.61 996.25,-67 1005.76,-68.67 1015.84,-70.78 1025.51,-72.98"/>
<polygon fill="#63b8ff" stroke="#63b8ff" points="1024.62,-76.37 1035.15,-75.25 1026.22,-69.55 1024.62,-76.37"/>
</a>
</g>
</g>
<!-- Node11&#45;&gt;Node4 -->
<g id="edge14_Node000011_Node000004" class="edge">
<title>Node11&#45;&gt;Node4</title>
<g id="a_edge14_Node000011_Node000004"><a xlink:title=" ">
<path fill="none" stroke="#63b8ff" d="M579.22,-54.53C596.61,-59.45 621.03,-66.36 642.58,-72.45"/>
<polygon fill="#63b8ff" stroke="#63b8ff" points="641.49,-75.78 652.07,-75.13 643.4,-69.04 641.49,-75.78"/>
</a>
</g>
</g>
<!-- Node12 -->
<g id="Node000012" class="node">
<title>Node12</title>
<g id="a_Node000012"><a xlink:href="_text_manager_8cpp.html#a84a9e24fc5cce3cebf746bb656909bf8" target="_top" xlink:title=" ">
<polygon fill="white" stroke="#666666" points="752,-58 631,-58 631,-38 752,-38 752,-58"/>
<text text-anchor="middle" x="691.5" y="-44.5" font-family="Helvetica,sans-Serif" font-size="10.00">extractBetweenReverse</text>
</a>
</g>
</g>
<!-- Node11&#45;&gt;Node12 -->
<g id="edge15_Node000011_Node000012" class="edge">
<title>Node11&#45;&gt;Node12</title>
<g id="a_edge15_Node000011_Node000012"><a xlink:title=" ">
<path fill="none" stroke="#63b8ff" d="M579.22,-48C590.59,-48 604.96,-48 619.57,-48"/>
<polygon fill="#63b8ff" stroke="#63b8ff" points="619.23,-51.5 629.23,-48 619.23,-44.5 619.23,-51.5"/>
</a>
</g>
</g>
<!-- Node12&#45;&gt;Node5 -->
<g id="edge16_Node000012_Node000005" class="edge">
<title>Node12&#45;&gt;Node5</title>
<g id="a_edge16_Node000012_Node000005"><a xlink:title=" ">
<path fill="none" stroke="#63b8ff" d="M730.09,-58.48C745.58,-62.8 763.72,-67.86 780.2,-72.46"/>
<polygon fill="#63b8ff" stroke="#63b8ff" points="779.25,-75.83 789.82,-75.14 781.13,-69.09 779.25,-75.83"/>
</a>
</g>
</g>
<!-- Node12&#45;&gt;Node9 -->
<g id="edge17_Node000012_Node000009" class="edge">
<title>Node12&#45;&gt;Node9</title>
<g id="a_edge17_Node000012_Node000009"><a xlink:title=" ">
<path fill="none" stroke="#63b8ff" d="M752.26,-48C760.33,-48 768.56,-48 776.49,-48"/>
<polygon fill="#63b8ff" stroke="#63b8ff" points="776.32,-51.5 786.32,-48 776.32,-44.5 776.32,-51.5"/>
</a>
</g>
</g>
</g>
</svg>
