<?xml version="1.0" encoding="UTF-8" standalone="no"?>
<!DOCTYPE svg PUBLIC "-//W3C//DTD SVG 1.1//EN"
 "http://www.w3.org/Graphics/SVG/1.1/DTD/svg11.dtd">
<!-- Generated by graphviz version 12.2.0 (20241103.1931)
 -->
<!-- Title: Interactions::fcA Pages: 1 -->
<svg width="1121pt" height="322pt"
 viewBox="0.00 0.00 1121.00 322.00" xmlns="http://www.w3.org/2000/svg" xmlns:xlink="http://www.w3.org/1999/xlink">
<g id="graph0" class="graph" transform="scale(1 1) rotate(0) translate(4 318)">
<title>Interactions::fcA</title>
<!-- Node1 -->
<g id="Node000001" class="node">
<title>Node1</title>
<g id="a_Node000001"><a xlink:title=" ">
<polygon fill="#999999" stroke="#666666" points="88,-96 0,-96 0,-76 88,-76 88,-96"/>
<text text-anchor="middle" x="44" y="-82.5" font-family="Helvetica,sans-Serif" font-size="10.00">Interactions::fcA</text>
</a>
</g>
</g>
<!-- Node2 -->
<g id="Node000002" class="node">
<title>Node2</title>
<g id="a_Node000002"><a xlink:href="class_interactions.html#a25637266a0bf2b2c77d5c7e276baabd0" target="_top" xlink:title=" ">
<polygon fill="white" stroke="#666666" points="206.75,-96 124,-96 124,-76 206.75,-76 206.75,-96"/>
<text text-anchor="middle" x="165.38" y="-82.5" font-family="Helvetica,sans-Serif" font-size="10.00">Interactions::fA</text>
</a>
</g>
</g>
<!-- Node1&#45;&gt;Node2 -->
<g id="edge1_Node000001_Node000002" class="edge">
<title>Node1&#45;&gt;Node2</title>
<g id="a_edge1_Node000001_Node000002"><a xlink:title=" ">
<path fill="none" stroke="#63b8ff" d="M88.43,-86C96.14,-86 104.23,-86 112.15,-86"/>
<polygon fill="#63b8ff" stroke="#63b8ff" points="112.04,-89.5 122.04,-86 112.04,-82.5 112.04,-89.5"/>
</a>
</g>
</g>
<!-- Node3 -->
<g id="Node000003" class="node">
<title>Node3</title>
<g id="a_Node000003"><a xlink:href="fopencv_8cpp.html#a69713584f69a121e4ed91918a64448a0" target="_top" xlink:title=" ">
<polygon fill="white" stroke="#666666" points="665.38,-238 584.88,-238 584.88,-218 665.38,-218 665.38,-238"/>
<text text-anchor="middle" x="625.12" y="-224.5" font-family="Helvetica,sans-Serif" font-size="10.00">cvmtfTemplate</text>
</a>
</g>
</g>
<!-- Node2&#45;&gt;Node3 -->
<g id="edge2_Node000002_Node000003" class="edge">
<title>Node2&#45;&gt;Node3</title>
<g id="a_edge2_Node000002_Node000003"><a xlink:title=" ">
<path fill="none" stroke="#63b8ff" d="M175.81,-96.29C189.38,-110.56 215.76,-136.36 242.75,-152 348.87,-213.5 496.44,-225.99 573.18,-228.05"/>
<polygon fill="#63b8ff" stroke="#63b8ff" points="572.84,-231.55 582.91,-228.26 572.99,-224.55 572.84,-231.55"/>
</a>
</g>
</g>
<!-- Node9 -->
<g id="Node000009" class="node">
<title>Node9</title>
<g id="a_Node000009"><a xlink:href="class_interactions.html#a5b5af2b125ff152043789cfcf70ffb2b" target="_top" xlink:title=" ">
<polygon fill="white" stroke="#666666" points="369,-58 242.75,-58 242.75,-38 369,-38 369,-58"/>
<text text-anchor="middle" x="305.88" y="-44.5" font-family="Helvetica,sans-Serif" font-size="10.00">Interactions::getTemplate</text>
</a>
</g>
</g>
<!-- Node2&#45;&gt;Node9 -->
<g id="edge8_Node000002_Node000009" class="edge">
<title>Node2&#45;&gt;Node9</title>
<g id="a_edge8_Node000002_Node000009"><a xlink:title=" ">
<path fill="none" stroke="#63b8ff" d="M204.59,-75.52C220.48,-71.15 239.13,-66.04 256,-61.41"/>
<polygon fill="#63b8ff" stroke="#63b8ff" points="256.61,-64.87 265.33,-58.85 254.76,-58.12 256.61,-64.87"/>
</a>
</g>
</g>
<!-- Node11 -->
<g id="Node000011" class="node">
<title>Node11</title>
<g id="a_Node000011"><a xlink:href="class_interactions.html#a0a0ffd9ad1990de31fd7b2773db32667" target="_top" xlink:title=" ">
<polygon fill="white" stroke="#666666" points="366.38,-143 245.38,-143 245.38,-123 366.38,-123 366.38,-143"/>
<text text-anchor="middle" x="305.88" y="-129.5" font-family="Helvetica,sans-Serif" font-size="10.00">Interactions::loopPopUp</text>
</a>
</g>
</g>
<!-- Node2&#45;&gt;Node11 -->
<g id="edge10_Node000002_Node000011" class="edge">
<title>Node2&#45;&gt;Node11</title>
<g id="a_edge10_Node000002_Node000011"><a xlink:title=" ">
<path fill="none" stroke="#63b8ff" d="M197.11,-96.43C216.66,-103.06 242.2,-111.73 263.52,-118.97"/>
<polygon fill="#63b8ff" stroke="#63b8ff" points="262.2,-122.21 272.79,-122.11 264.45,-115.58 262.2,-122.21"/>
</a>
</g>
</g>
<!-- Node23 -->
<g id="Node000023" class="node">
<title>Node23</title>
<g id="a_Node000023"><a xlink:href="class_interactions.html#ade7f52c59105f434650b9358b22e5488" target="_top" xlink:title=" ">
<polygon fill="white" stroke="#666666" points="366.38,-20 245.38,-20 245.38,0 366.38,0 366.38,-20"/>
<text text-anchor="middle" x="305.88" y="-6.5" font-family="Helvetica,sans-Serif" font-size="10.00">Interactions::resetCount</text>
</a>
</g>
</g>
<!-- Node2&#45;&gt;Node23 -->
<g id="edge24_Node000002_Node000023" class="edge">
<title>Node2&#45;&gt;Node23</title>
<g id="a_edge24_Node000002_Node000023"><a xlink:title=" ">
<path fill="none" stroke="#63b8ff" d="M177.45,-75.77C191.61,-63.17 217.36,-41.86 242.75,-29 246.02,-27.34 249.46,-25.8 252.98,-24.37"/>
<polygon fill="#63b8ff" stroke="#63b8ff" points="254.07,-27.7 262.23,-20.94 251.64,-21.13 254.07,-27.7"/>
</a>
</g>
</g>
<!-- Node24 -->
<g id="Node000024" class="node">
<title>Node24</title>
<g id="a_Node000024"><a xlink:href="class_interactions.html#ad7daddd9df3cea80e69872b8afd6c8dc" target="_top" xlink:title=" ">
<polygon fill="white" stroke="#666666" points="542.5,-86 405,-86 405,-66 542.5,-66 542.5,-86"/>
<text text-anchor="middle" x="473.75" y="-72.5" font-family="Helvetica,sans-Serif" font-size="10.00">Interactions::templateFound</text>
</a>
</g>
</g>
<!-- Node2&#45;&gt;Node24 -->
<g id="edge25_Node000002_Node000024" class="edge">
<title>Node2&#45;&gt;Node24</title>
<g id="a_edge25_Node000002_Node000024"><a xlink:title=" ">
<path fill="none" stroke="#63b8ff" d="M207.06,-84.67C254.39,-83.13 333.65,-80.54 393.31,-78.59"/>
<polygon fill="#63b8ff" stroke="#63b8ff" points="393.19,-82.1 403.07,-78.27 392.96,-75.1 393.19,-82.1"/>
</a>
</g>
</g>
<!-- Node4 -->
<g id="Node000004" class="node">
<title>Node4</title>
<g id="a_Node000004"><a xlink:href="fopencv_8cpp.html#af6fc77188d314c0d5a58888452f9b313" target="_top" xlink:title=" ">
<polygon fill="white" stroke="#666666" points="790.88,-200 723.12,-200 723.12,-180 790.88,-180 790.88,-200"/>
<text text-anchor="middle" x="757" y="-186.5" font-family="Helvetica,sans-Serif" font-size="10.00">extractZone</text>
</a>
</g>
</g>
<!-- Node3&#45;&gt;Node4 -->
<g id="edge3_Node000003_Node000004" class="edge">
<title>Node3&#45;&gt;Node4</title>
<g id="a_edge3_Node000003_Node000004"><a xlink:title=" ">
<path fill="none" stroke="#63b8ff" d="M661.96,-217.52C677.45,-212.98 695.74,-207.63 712.04,-202.86"/>
<polygon fill="#63b8ff" stroke="#63b8ff" points="712.89,-206.26 721.5,-200.09 710.92,-199.54 712.89,-206.26"/>
</a>
</g>
</g>
<!-- Node5 -->
<g id="Node000005" class="node">
<title>Node5</title>
<g id="a_Node000005"><a xlink:href="struct_zone.html#a5301e7fcf185a5a79c1bf7d7930f4b8a" target="_top" xlink:title=" ">
<polygon fill="white" stroke="#666666" points="791.25,-314 722.75,-314 722.75,-294 791.25,-294 791.25,-314"/>
<text text-anchor="middle" x="757" y="-300.5" font-family="Helvetica,sans-Serif" font-size="10.00">Zone::isNull</text>
</a>
</g>
</g>
<!-- Node3&#45;&gt;Node5 -->
<g id="edge4_Node000003_Node000005" class="edge">
<title>Node3&#45;&gt;Node5</title>
<g id="a_edge4_Node000003_Node000005"><a xlink:title=" ">
<path fill="none" stroke="#63b8ff" d="M639.08,-238.49C654.68,-250.77 682.01,-271.19 707.75,-285 710.28,-286.36 712.94,-287.67 715.64,-288.94"/>
<polygon fill="#63b8ff" stroke="#63b8ff" points="714.21,-292.13 724.77,-292.91 717,-285.71 714.21,-292.13"/>
</a>
</g>
</g>
<!-- Node7 -->
<g id="Node000007" class="node">
<title>Node7</title>
<g id="a_Node000007"><a xlink:href="fopencv_8cpp.html#a1ed1ff1a9df2ab889e1423cb11a58c06" target="_top" xlink:title=" ">
<polygon fill="white" stroke="#666666" points="798.38,-276 715.62,-276 715.62,-256 798.38,-256 798.38,-276"/>
<text text-anchor="middle" x="757" y="-262.5" font-family="Helvetica,sans-Serif" font-size="10.00">messageFound</text>
</a>
</g>
</g>
<!-- Node3&#45;&gt;Node7 -->
<g id="edge6_Node000003_Node000007" class="edge">
<title>Node3&#45;&gt;Node7</title>
<g id="a_edge6_Node000003_Node000007"><a xlink:title=" ">
<path fill="none" stroke="#63b8ff" d="M661.96,-238.48C676.58,-242.76 693.68,-247.77 709.26,-252.33"/>
<polygon fill="#63b8ff" stroke="#63b8ff" points="708.25,-255.68 718.83,-255.12 710.22,-248.96 708.25,-255.68"/>
</a>
</g>
</g>
<!-- Node8 -->
<g id="Node000008" class="node">
<title>Node8</title>
<g id="a_Node000008"><a xlink:href="fopencv_8cpp.html#ae51fd1f3ed39bd8c9b8da4a313d5aeb3" target="_top" xlink:title=" ">
<polygon fill="white" stroke="#666666" points="806.25,-238 707.75,-238 707.75,-218 806.25,-218 806.25,-238"/>
<text text-anchor="middle" x="757" y="-224.5" font-family="Helvetica,sans-Serif" font-size="10.00">oneMatchTemplate</text>
</a>
</g>
</g>
<!-- Node3&#45;&gt;Node8 -->
<g id="edge7_Node000003_Node000008" class="edge">
<title>Node3&#45;&gt;Node8</title>
<g id="a_edge7_Node000003_Node000008"><a xlink:title=" ">
<path fill="none" stroke="#63b8ff" d="M665.8,-228C675.34,-228 685.74,-228 695.97,-228"/>
<polygon fill="#63b8ff" stroke="#63b8ff" points="695.89,-231.5 705.89,-228 695.89,-224.5 695.89,-231.5"/>
</a>
</g>
</g>
<!-- Node6 -->
<g id="Node000006" class="node">
<title>Node6</title>
<g id="a_Node000006"><a xlink:href="struct_coord.html#a34c573cd6230e5a532f12ae97e7395e2" target="_top" xlink:title=" ">
<polygon fill="white" stroke="#666666" points="915.25,-314 842.25,-314 842.25,-294 915.25,-294 915.25,-314"/>
<text text-anchor="middle" x="878.75" y="-300.5" font-family="Helvetica,sans-Serif" font-size="10.00">Coord::isNull</text>
</a>
</g>
</g>
<!-- Node5&#45;&gt;Node6 -->
<g id="edge5_Node000005_Node000006" class="edge">
<title>Node5&#45;&gt;Node6</title>
<g id="a_edge5_Node000005_Node000006"><a xlink:title=" ">
<path fill="none" stroke="#63b8ff" d="M791.68,-304C803.77,-304 817.64,-304 830.66,-304"/>
<polygon fill="#63b8ff" stroke="#63b8ff" points="830.3,-307.5 840.3,-304 830.3,-300.5 830.3,-307.5"/>
</a>
</g>
</g>
<!-- Node10 -->
<g id="Node000010" class="node">
<title>Node10</title>
<g id="a_Node000010"><a xlink:href="struct_template.html#a93d3c6f97592ba09d7819fda3c3296d7" target="_top" xlink:title=" ">
<polygon fill="white" stroke="#666666" points="521.88,-48 425.62,-48 425.62,-28 521.88,-28 521.88,-48"/>
<text text-anchor="middle" x="473.75" y="-34.5" font-family="Helvetica,sans-Serif" font-size="10.00">Template::setType</text>
</a>
</g>
</g>
<!-- Node9&#45;&gt;Node10 -->
<g id="edge9_Node000009_Node000010" class="edge">
<title>Node9&#45;&gt;Node10</title>
<g id="a_edge9_Node000009_Node000010"><a xlink:title=" ">
<path fill="none" stroke="#63b8ff" d="M369.11,-44.25C383.77,-43.36 399.34,-42.43 413.84,-41.55"/>
<polygon fill="#63b8ff" stroke="#63b8ff" points="413.92,-45.05 423.69,-40.96 413.5,-38.07 413.92,-45.05"/>
</a>
</g>
</g>
<!-- Node12 -->
<g id="Node000012" class="node">
<title>Node12</title>
<g id="a_Node000012"><a xlink:href="fopencv_8cpp.html#a5c455ed716b7fa4c675446fc5b8ba4fb" target="_top" xlink:title=" ">
<polygon fill="white" stroke="#666666" points="504.62,-124 442.88,-124 442.88,-104 504.62,-104 504.62,-124"/>
<text text-anchor="middle" x="473.75" y="-110.5" font-family="Helvetica,sans-Serif" font-size="10.00">CreateMat</text>
</a>
</g>
</g>
<!-- Node11&#45;&gt;Node12 -->
<g id="edge11_Node000011_Node000012" class="edge">
<title>Node11&#45;&gt;Node12</title>
<g id="a_edge11_Node000011_Node000012"><a xlink:title=" ">
<path fill="none" stroke="#63b8ff" d="M366.76,-126.14C388.22,-123.68 411.93,-120.97 431.46,-118.73"/>
<polygon fill="#63b8ff" stroke="#63b8ff" points="431.69,-122.23 441.23,-117.61 430.9,-115.27 431.69,-122.23"/>
</a>
</g>
</g>
<!-- Node13 -->
<g id="Node000013" class="node">
<title>Node13</title>
<g id="a_Node000013"><a xlink:href="class_interactions.html#aed04f9177d2aba467d71818a5e82c7bc" target="_top" xlink:title=" ">
<polygon fill="white" stroke="#666666" points="530.88,-162 416.62,-162 416.62,-142 530.88,-142 530.88,-162"/>
<text text-anchor="middle" x="473.75" y="-148.5" font-family="Helvetica,sans-Serif" font-size="10.00">Interactions::fcpopupA</text>
</a>
</g>
</g>
<!-- Node11&#45;&gt;Node13 -->
<g id="edge12_Node000011_Node000013" class="edge">
<title>Node11&#45;&gt;Node13</title>
<g id="a_edge12_Node000011_Node000013"><a xlink:title=" ">
<path fill="none" stroke="#63b8ff" d="M366.76,-139.86C379.12,-141.28 392.23,-142.78 404.85,-144.22"/>
<polygon fill="#63b8ff" stroke="#63b8ff" points="404.44,-147.7 414.77,-145.36 405.23,-140.74 404.44,-147.7"/>
</a>
</g>
</g>
<!-- Node16 -->
<g id="Node000016" class="node">
<title>Node16</title>
<g id="a_Node000016"><a xlink:href="fadb_8cpp.html#aeec40a5f78ae4713eedd84cb5f75746f" target="_top" xlink:title=" ">
<polygon fill="white" stroke="#666666" points="505.75,-200 441.75,-200 441.75,-180 505.75,-180 505.75,-200"/>
<text text-anchor="middle" x="473.75" y="-186.5" font-family="Helvetica,sans-Serif" font-size="10.00">screenshot</text>
</a>
</g>
</g>
<!-- Node11&#45;&gt;Node16 -->
<g id="edge17_Node000011_Node000016" class="edge">
<title>Node11&#45;&gt;Node16</title>
<g id="a_edge17_Node000011_Node000016"><a xlink:title=" ">
<path fill="none" stroke="#63b8ff" d="M331.64,-143.35C351.34,-151.4 379.69,-162.57 405,-171 413.22,-173.74 422.09,-176.42 430.61,-178.86"/>
<polygon fill="#63b8ff" stroke="#63b8ff" points="429.5,-182.18 440.07,-181.51 431.39,-175.44 429.5,-182.18"/>
</a>
</g>
</g>
<!-- Node13&#45;&gt;Node3 -->
<g id="edge15_Node000013_Node000003" class="edge">
<title>Node13&#45;&gt;Node3</title>
<g id="a_edge15_Node000013_Node000003"><a xlink:title=" ">
<path fill="none" stroke="#63b8ff" d="M523.74,-162.47C530.27,-164.79 536.7,-167.61 542.5,-171 562.03,-182.43 559.93,-194.07 578.5,-207 581.18,-208.87 584.06,-210.64 587.01,-212.3"/>
<polygon fill="#63b8ff" stroke="#63b8ff" points="585.36,-215.39 595.85,-216.83 588.55,-209.16 585.36,-215.39"/>
</a>
</g>
</g>
<!-- Node14 -->
<g id="Node000014" class="node">
<title>Node14</title>
<g id="a_Node000014"><a xlink:href="class_interactions.html#aae6172962092f278714536142e987cde" target="_top" xlink:title=" ">
<polygon fill="white" stroke="#666666" points="671.75,-91 578.5,-91 578.5,-71 671.75,-71 671.75,-91"/>
<text text-anchor="middle" x="625.12" y="-77.5" font-family="Helvetica,sans-Serif" font-size="10.00">Interactions::click</text>
</a>
</g>
</g>
<!-- Node13&#45;&gt;Node14 -->
<g id="edge13_Node000013_Node000014" class="edge">
<title>Node13&#45;&gt;Node14</title>
<g id="a_edge13_Node000013_Node000014"><a xlink:title=" ">
<path fill="none" stroke="#63b8ff" d="M519.15,-141.57C527.07,-139.15 535.14,-136.29 542.5,-133 563.71,-123.52 585.83,-109.11 601.68,-97.86"/>
<polygon fill="#63b8ff" stroke="#63b8ff" points="603.41,-100.93 609.45,-92.22 599.3,-95.26 603.41,-100.93"/>
</a>
</g>
</g>
<!-- Node15 -->
<g id="Node000015" class="node">
<title>Node15</title>
<g id="a_Node000015"><a xlink:href="class_interactions.html#abd5b5d8a44970e1333e3611e302f166c" target="_top" xlink:title=" ">
<polygon fill="white" stroke="#666666" points="670.62,-157 579.62,-157 579.62,-137 670.62,-137 670.62,-157"/>
<text text-anchor="middle" x="625.12" y="-143.5" font-family="Helvetica,sans-Serif" font-size="10.00">Interactions::wait</text>
</a>
</g>
</g>
<!-- Node13&#45;&gt;Node15 -->
<g id="edge16_Node000013_Node000015" class="edge">
<title>Node13&#45;&gt;Node15</title>
<g id="a_edge16_Node000013_Node000015"><a xlink:title=" ">
<path fill="none" stroke="#63b8ff" d="M531.22,-150.11C543.24,-149.71 555.93,-149.28 567.94,-148.88"/>
<polygon fill="#63b8ff" stroke="#63b8ff" points="567.82,-152.39 577.69,-148.55 567.58,-145.39 567.82,-152.39"/>
</a>
</g>
</g>
<!-- Node14&#45;&gt;Node14 -->
<g id="edge14_Node000014_Node000014" class="edge">
<title>Node14&#45;&gt;Node14</title>
<g id="a_edge14_Node000014_Node000014"><a xlink:title=" ">
<path fill="none" stroke="#63b8ff" d="M604.17,-91.34C595.22,-99.98 602.2,-109 625.12,-109 637.66,-109 645.43,-106.3 648.43,-102.44"/>
<polygon fill="#63b8ff" stroke="#63b8ff" points="651.89,-101.88 646.39,-92.82 645.04,-103.33 651.89,-101.88"/>
</a>
</g>
</g>
<!-- Node17 -->
<g id="Node000017" class="node">
<title>Node17</title>
<g id="a_Node000017"><a xlink:href="fadb_8cpp.html#a7ab9819839864ebd26d0e7e68e330418" target="_top" xlink:title=" ">
<polygon fill="white" stroke="#666666" points="667.25,-198 583,-198 583,-178 667.25,-178 667.25,-198"/>
<text text-anchor="middle" x="625.12" y="-184.5" font-family="Helvetica,sans-Serif" font-size="10.00">takeScreenshot</text>
</a>
</g>
</g>
<!-- Node16&#45;&gt;Node17 -->
<g id="edge18_Node000016_Node000017" class="edge">
<title>Node16&#45;&gt;Node17</title>
<g id="a_edge18_Node000016_Node000017"><a xlink:title=" ">
<path fill="none" stroke="#63b8ff" d="M506.06,-189.58C524.92,-189.33 549.42,-189 571.21,-188.71"/>
<polygon fill="#63b8ff" stroke="#63b8ff" points="571.18,-192.21 581.13,-188.58 571.08,-185.21 571.18,-192.21"/>
</a>
</g>
</g>
<!-- Node18 -->
<g id="Node000018" class="node">
<title>Node18</title>
<g id="a_Node000018"><a xlink:href="fadb_8cpp.html#ac6339b59ba8238f7483dece7f3fdf51b" target="_top" xlink:title=" ">
<polygon fill="white" stroke="#666666" points="801.38,-162 712.62,-162 712.62,-142 801.38,-142 801.38,-162"/>
<text text-anchor="middle" x="757" y="-148.5" font-family="Helvetica,sans-Serif" font-size="10.00">runAdbLocalhost</text>
</a>
</g>
</g>
<!-- Node17&#45;&gt;Node18 -->
<g id="edge19_Node000017_Node000018" class="edge">
<title>Node17&#45;&gt;Node18</title>
<g id="a_edge19_Node000017_Node000018"><a xlink:title=" ">
<path fill="none" stroke="#63b8ff" d="M663.69,-177.59C677.42,-173.78 693.15,-169.42 707.69,-165.39"/>
<polygon fill="#63b8ff" stroke="#63b8ff" points="708.36,-168.84 717.06,-162.79 706.49,-162.09 708.36,-168.84"/>
</a>
</g>
</g>
<!-- Node19 -->
<g id="Node000019" class="node">
<title>Node19</title>
<g id="a_Node000019"><a xlink:href="fadb_8cpp.html#a383ae5fedc9f597a03c74c729a2eb740" target="_top" xlink:title=" ">
<polygon fill="white" stroke="#666666" points="902.12,-162 855.38,-162 855.38,-142 902.12,-142 902.12,-162"/>
<text text-anchor="middle" x="878.75" y="-148.5" font-family="Helvetica,sans-Serif" font-size="10.00">runAdb</text>
</a>
</g>
</g>
<!-- Node18&#45;&gt;Node19 -->
<g id="edge20_Node000018_Node000019" class="edge">
<title>Node18&#45;&gt;Node19</title>
<g id="a_edge20_Node000018_Node000019"><a xlink:title=" ">
<path fill="none" stroke="#63b8ff" d="M801.57,-152C815.4,-152 830.47,-152 843.54,-152"/>
<polygon fill="#63b8ff" stroke="#63b8ff" points="843.37,-155.5 853.37,-152 843.37,-148.5 843.37,-155.5"/>
</a>
</g>
</g>
<!-- Node20 -->
<g id="Node000020" class="node">
<title>Node20</title>
<g id="a_Node000020"><a xlink:href="sys_commands_8cpp.html#a321eb7e335377aa7182bafc8a1605032" target="_top" xlink:title=" ">
<polygon fill="white" stroke="#666666" points="1018.25,-162 951.25,-162 951.25,-142 1018.25,-142 1018.25,-162"/>
<text text-anchor="middle" x="984.75" y="-148.5" font-family="Helvetica,sans-Serif" font-size="10.00">receivePipe</text>
</a>
</g>
</g>
<!-- Node19&#45;&gt;Node20 -->
<g id="edge21_Node000019_Node000020" class="edge">
<title>Node19&#45;&gt;Node20</title>
<g id="a_edge21_Node000019_Node000020"><a xlink:title=" ">
<path fill="none" stroke="#63b8ff" d="M902.57,-152C913.47,-152 926.89,-152 939.66,-152"/>
<polygon fill="#63b8ff" stroke="#63b8ff" points="939.6,-155.5 949.6,-152 939.6,-148.5 939.6,-155.5"/>
</a>
</g>
</g>
<!-- Node21 -->
<g id="Node000021" class="node">
<title>Node21</title>
<g id="a_Node000021"><a xlink:href="sys_commands_8cpp.html#a4771c79171a937893508dabadadbe099" target="_top" xlink:title=" ">
<polygon fill="white" stroke="#666666" points="1113,-181 1054.25,-181 1054.25,-161 1113,-161 1113,-181"/>
<text text-anchor="middle" x="1083.62" y="-167.5" font-family="Helvetica,sans-Serif" font-size="10.00">closePipe</text>
</a>
</g>
</g>
<!-- Node20&#45;&gt;Node21 -->
<g id="edge22_Node000020_Node000021" class="edge">
<title>Node20&#45;&gt;Node21</title>
<g id="a_edge22_Node000020_Node000021"><a xlink:title=" ">
<path fill="none" stroke="#63b8ff" d="M1018.55,-158.43C1026.31,-159.95 1034.67,-161.59 1042.71,-163.17"/>
<polygon fill="#63b8ff" stroke="#63b8ff" points="1041.78,-166.56 1052.27,-165.05 1043.13,-159.69 1041.78,-166.56"/>
</a>
</g>
</g>
<!-- Node22 -->
<g id="Node000022" class="node">
<title>Node22</title>
<g id="a_Node000022"><a xlink:href="sys_commands_8cpp.html#a3499ce0cd7e4ed28b3c5461a4d3aec84" target="_top" xlink:title=" ">
<polygon fill="white" stroke="#666666" points="1111.88,-143 1055.38,-143 1055.38,-123 1111.88,-123 1111.88,-143"/>
<text text-anchor="middle" x="1083.62" y="-129.5" font-family="Helvetica,sans-Serif" font-size="10.00">openPipe</text>
</a>
</g>
</g>
<!-- Node20&#45;&gt;Node22 -->
<g id="edge23_Node000020_Node000022" class="edge">
<title>Node20&#45;&gt;Node22</title>
<g id="a_edge23_Node000020_Node000022"><a xlink:title=" ">
<path fill="none" stroke="#63b8ff" d="M1018.55,-145.57C1026.7,-143.97 1035.51,-142.24 1043.92,-140.59"/>
<polygon fill="#63b8ff" stroke="#63b8ff" points="1044.4,-144.06 1053.54,-138.7 1043.05,-137.19 1044.4,-144.06"/>
</a>
</g>
</g>
<!-- Node24&#45;&gt;Node14 -->
<g id="edge26_Node000024_Node000014" class="edge">
<title>Node24&#45;&gt;Node14</title>
<g id="a_edge26_Node000024_Node000014"><a xlink:title=" ">
<path fill="none" stroke="#63b8ff" d="M542.88,-78.28C550.95,-78.55 559.11,-78.82 567,-79.09"/>
<polygon fill="#63b8ff" stroke="#63b8ff" points="566.7,-82.58 576.81,-79.42 566.93,-75.58 566.7,-82.58"/>
</a>
</g>
</g>
<!-- Node24&#45;&gt;Node15 -->
<g id="edge27_Node000024_Node000015" class="edge">
<title>Node24&#45;&gt;Node15</title>
<g id="a_edge27_Node000024_Node000015"><a xlink:title=" ">
<path fill="none" stroke="#63b8ff" d="M519.15,-86.42C527.07,-88.85 535.14,-91.71 542.5,-95 559.83,-102.76 562.49,-107.8 578.5,-118 584.84,-122.04 591.67,-126.39 598.08,-130.46"/>
<polygon fill="#63b8ff" stroke="#63b8ff" points="596.05,-133.32 606.37,-135.73 599.81,-127.41 596.05,-133.32"/>
</a>
</g>
</g>
</g>
</svg>
