<?xml version="1.0" encoding="UTF-8" standalone="no"?>
<!DOCTYPE svg PUBLIC "-//W3C//DTD SVG 1.1//EN"
 "http://www.w3.org/Graphics/SVG/1.1/DTD/svg11.dtd">
<!-- Generated by graphviz version 12.2.0 (20241103.1931)
 -->
<!-- Title: IfTagPanel::setTagLine Pages: 1 -->
<!--zoomable 413 -->

<svg id="main" version="1.1" xmlns="http://www.w3.org/2000/svg" xmlns:xlink="http://www.w3.org/1999/xlink" xml:space="preserve" onload="init(evt)">

<style type="text/css"><![CDATA[
.node, .edge {opacity: 0.7;}
.node.selected, .edge.selected {opacity: 1;}
.edge:hover path { stroke: red; }
.edge:hover polygon { stroke: red; fill: red; }
]]></style>

<defs>
  <circle id="rim" cx="0" cy="0" r="7"/>
  <circle id="rim2" cx="0" cy="0" r="3.5"/>
  <g id="zoomPlus">
    <use xlink:href="#rim" fill="#404040"><set attributeName="fill" to="#808080" begin="zoomplus.mouseover" end="zoomplus.mouseout"/></use>
    <path d="M-4,0h8M0,-4v8" fill="none" stroke="white" stroke-width="1.5" pointer-events="none"/>
  </g>
  <g id="zoomMin">
    <use xlink:href="#rim" fill="#404040"><set attributeName="fill" to="#808080" begin="zoomminus.mouseover" end="zoomminus.mouseout"/></use>
    <path d="M-4,0h8" fill="none" stroke="white" stroke-width="1.5" pointer-events="none"/>
  </g>
  <g id="arrowUp" transform="translate(30 24)">
    <use xlink:href="#rim"/>
    <path pointer-events="none" fill="none" stroke="white" stroke-width="1.5" d="M0,-3.0v7 M-2.5,-0.5L0,-3.0L2.5,-0.5"/>
  </g>
  <g id="arrowRight" transform="rotate(90) translate(36 -43)">
    <use xlink:href="#rim"/>
    <path pointer-events="none" fill="none" stroke="white" stroke-width="1.5" d="M0,-3.0v7 M-2.5,-0.5L0,-3.0L2.5,-0.5"/>
  </g>
  <g id="arrowDown" transform="rotate(180) translate(-30 -48)">
    <use xlink:href="#rim"/>
    <path pointer-events="none" fill="none" stroke="white" stroke-width="1.5" d="M0,-3.0v7 M-2.5,-0.5L0,-3.0L2.5,-0.5"/>
  </g>
  <g id="arrowLeft" transform="rotate(270) translate(-36 17)">
    <use xlink:href="#rim"/>
    <path pointer-events="none" fill="none" stroke="white" stroke-width="1.5" d="M0,-3.0v7 M-2.5,-0.5L0,-3.0L2.5,-0.5"/>
  </g>
  <g id="resetDef">
    <use xlink:href="#rim2" fill="#404040"><set attributeName="fill" to="#808080" begin="reset.mouseover" end="reset.mouseout"/></use>
  </g>
</defs>
<script type="application/ecmascript">
var viewWidth = 1038;
var viewHeight = 413;
var sectionId = 'dynsection-6';
</script>
<script type="application/ecmascript" xlink:href="svg.min.js"/>
<svg id="graph" class="graph">
<g id="viewport">
<title>IfTagPanel::setTagLine</title>
<!-- Node1 -->
<g id="Node000001" class="node">
<title>Node1</title>
<g id="a_Node000001"><a xlink:title=" ">
<polygon fill="#999999" stroke="#666666" points="115.75,-219 0,-219 0,-199 115.75,-199 115.75,-219"/>
<text text-anchor="middle" x="57.88" y="-205.5" font-family="Helvetica,sans-Serif" font-size="10.00">IfTagPanel::setTagLine</text>
</a>
</g>
</g>
<!-- Node2 -->
<g id="Node000002" class="node">
<title>Node2</title>
<g id="a_Node000002"><a xlink:href="class_flow_tag_panel.html#aa69c21d11b4824c7d7955a6c35f33564" target="_top" xlink:title=" ">
<polygon fill="white" stroke="#666666" points="293.75,-296 153.25,-296 153.25,-276 293.75,-276 293.75,-296"/>
<text text-anchor="middle" x="223.5" y="-282.5" font-family="Helvetica,sans-Serif" font-size="10.00">FlowTagPanel::addCondition</text>
</a>
</g>
</g>
<!-- Node1&#45;&gt;Node2 -->
<g id="edge1_Node000001_Node000002" class="edge">
<title>Node1&#45;&gt;Node2</title>
<g id="a_edge1_Node000001_Node000002"><a xlink:title=" ">
<path fill="none" stroke="#63b8ff" d="M72.63,-219.42C90.15,-232.26 121.77,-253.96 151.75,-267 156.01,-268.85 160.5,-270.57 165.07,-272.14"/>
<polygon fill="#63b8ff" stroke="#63b8ff" points="163.74,-275.39 174.33,-275.1 165.87,-268.72 163.74,-275.39"/>
</a>
</g>
</g>
<!-- Node3 -->
<g id="Node000003" class="node">
<title>Node3</title>
<g id="a_Node000003"><a xlink:href="class_flow_tag_panel.html#a94ca55612cbf5a6300712ffaee243c9b" target="_top" xlink:title=" ">
<polygon fill="white" stroke="#666666" points="284.75,-258 162.25,-258 162.25,-238 284.75,-238 284.75,-258"/>
<text text-anchor="middle" x="223.5" y="-244.5" font-family="Helvetica,sans-Serif" font-size="10.00">FlowTagPanel::addHider</text>
</a>
</g>
</g>
<!-- Node1&#45;&gt;Node3 -->
<g id="edge2_Node000001_Node000003" class="edge">
<title>Node1&#45;&gt;Node3</title>
<g id="a_edge2_Node000001_Node000003"><a xlink:title=" ">
<path fill="none" stroke="#63b8ff" d="M102.72,-219.45C122.62,-224.19 146.37,-229.86 167.46,-234.88"/>
<polygon fill="#63b8ff" stroke="#63b8ff" points="166.52,-238.25 177.06,-237.17 168.14,-231.45 166.52,-238.25"/>
</a>
</g>
</g>
<!-- Node15 -->
<g id="Node000015" class="node">
<title>Node15</title>
<g id="a_Node000015"><a xlink:href="class_tag_panel.html#aaa6f2d383b2380c7c103b5019bd05782" target="_top" xlink:title=" ">
<polygon fill="white" stroke="#666666" points="276.12,-178 170.88,-178 170.88,-158 276.12,-158 276.12,-178"/>
<text text-anchor="middle" x="223.5" y="-164.5" font-family="Helvetica,sans-Serif" font-size="10.00">TagPanel::addMover</text>
</a>
</g>
</g>
<!-- Node1&#45;&gt;Node15 -->
<g id="edge16_Node000001_Node000015" class="edge">
<title>Node1&#45;&gt;Node15</title>
<g id="a_edge16_Node000001_Node000015"><a xlink:title=" ">
<path fill="none" stroke="#63b8ff" d="M100.59,-198.55C121.65,-193.27 147.42,-186.81 169.83,-181.2"/>
<polygon fill="#63b8ff" stroke="#63b8ff" points="170.55,-184.63 179.4,-178.8 168.84,-177.84 170.55,-184.63"/>
</a>
</g>
</g>
<!-- Node22 -->
<g id="Node000022" class="node">
<title>Node22</title>
<g id="a_Node000022"><a xlink:href="class_tag_panel.html#ab2f6c36e777443dcffd1cff986027790" target="_top" xlink:title=" ">
<polygon fill="white" stroke="#666666" points="287.75,-219 159.25,-219 159.25,-199 287.75,-199 287.75,-219"/>
<text text-anchor="middle" x="223.5" y="-205.5" font-family="Helvetica,sans-Serif" font-size="10.00">TagPanel::initDeletePanel</text>
</a>
</g>
</g>
<!-- Node1&#45;&gt;Node22 -->
<g id="edge30_Node000001_Node000022" class="edge">
<title>Node1&#45;&gt;Node22</title>
<g id="a_edge30_Node000001_Node000022"><a xlink:title=" ">
<path fill="none" stroke="#63b8ff" d="M116.1,-209C126.25,-209 136.96,-209 147.52,-209"/>
<polygon fill="#63b8ff" stroke="#63b8ff" points="147.37,-212.5 157.37,-209 147.37,-205.5 147.37,-212.5"/>
</a>
</g>
</g>
<!-- Node24 -->
<g id="Node000024" class="node">
<title>Node24</title>
<g id="a_Node000024"><a xlink:href="class_tag_panel.html#a01e839de7aa3bedbe9a7bc1f152a02f8" target="_top" xlink:title=" ">
<polygon fill="white" stroke="#666666" points="295.25,-99 151.75,-99 151.75,-79 295.25,-79 295.25,-99"/>
<text text-anchor="middle" x="223.5" y="-85.5" font-family="Helvetica,sans-Serif" font-size="10.00">TagPanel::setStaticTagName</text>
</a>
</g>
</g>
<!-- Node1&#45;&gt;Node24 -->
<g id="edge34_Node000001_Node000024" class="edge">
<title>Node1&#45;&gt;Node24</title>
<g id="a_edge34_Node000001_Node000024"><a xlink:title=" ">
<path fill="none" stroke="#63b8ff" d="M73.11,-198.56C101.42,-177.8 165,-131.17 199.38,-105.96"/>
<polygon fill="#63b8ff" stroke="#63b8ff" points="201.43,-108.79 207.43,-100.06 197.29,-103.15 201.43,-108.79"/>
</a>
</g>
</g>
<!-- Node4 -->
<g id="Node000004" class="node">
<title>Node4</title>
<g id="a_Node000004"><a xlink:href="class_tag_panel.html#a43c96ffa9523c002fb96126500209ce8" target="_top" xlink:title=" ">
<polygon fill="white" stroke="#666666" points="462.38,-260 347.38,-260 347.38,-240 462.38,-240 462.38,-260"/>
<text text-anchor="middle" x="404.88" y="-246.5" font-family="Helvetica,sans-Serif" font-size="10.00">TagPanel::SetLineFont</text>
</a>
</g>
</g>
<!-- Node3&#45;&gt;Node4 -->
<g id="edge3_Node000003_Node000004" class="edge">
<title>Node3&#45;&gt;Node4</title>
<g id="a_edge3_Node000003_Node000004"><a xlink:title=" ">
<path fill="none" stroke="#63b8ff" d="M285.23,-248.68C301.5,-248.86 319.19,-249.06 335.82,-249.24"/>
<polygon fill="#63b8ff" stroke="#63b8ff" points="335.59,-252.74 345.63,-249.35 335.67,-245.74 335.59,-252.74"/>
</a>
</g>
</g>
<!-- Node5 -->
<g id="Node000005" class="node">
<title>Node5</title>
<g id="a_Node000005"><a xlink:href="class_flow_tag_panel.html#abf730289f88b08402ed5d924d362814c" target="_top" xlink:title=" ">
<polygon fill="white" stroke="#666666" points="471.38,-329 338.38,-329 338.38,-297 471.38,-297 471.38,-329"/>
<text text-anchor="start" x="346.38" y="-315.5" font-family="Helvetica,sans-Serif" font-size="10.00">FlowTagPanel::switchFlow</text>
<text text-anchor="middle" x="404.88" y="-303.5" font-family="Helvetica,sans-Serif" font-size="10.00">TagVisibility</text>
</a>
</g>
</g>
<!-- Node3&#45;&gt;Node5 -->
<g id="edge4_Node000003_Node000005" class="edge">
<title>Node3&#45;&gt;Node5</title>
<g id="a_edge4_Node000003_Node000005"><a xlink:title=" ">
<path fill="none" stroke="#63b8ff" d="M267.06,-258.41C276.42,-260.98 286.23,-263.9 295.25,-267 316.33,-274.25 339.12,-283.66 358.35,-292.07"/>
<polygon fill="#63b8ff" stroke="#63b8ff" points="356.7,-295.16 367.26,-296.01 359.53,-288.76 356.7,-295.16"/>
</a>
</g>
</g>
<!-- Node6 -->
<g id="Node000006" class="node">
<title>Node6</title>
<g id="a_Node000006"><a xlink:href="class_flow_tag_panel.html#a38a7e2167532623906ae82c0b92728c2" target="_top" xlink:title=" ">
<polygon fill="white" stroke="#666666" points="661,-342 514.5,-342 514.5,-322 661,-322 661,-342"/>
<text text-anchor="middle" x="587.75" y="-328.5" font-family="Helvetica,sans-Serif" font-size="10.00">FlowTagPanel::childrenVisible</text>
</a>
</g>
</g>
<!-- Node5&#45;&gt;Node6 -->
<g id="edge5_Node000005_Node000006" class="edge">
<title>Node5&#45;&gt;Node6</title>
<g id="a_edge5_Node000005_Node000006"><a xlink:title=" ">
<path fill="none" stroke="#63b8ff" d="M471.69,-319.91C481.85,-320.98 492.46,-322.1 502.95,-323.2"/>
<polygon fill="#63b8ff" stroke="#63b8ff" points="502.45,-326.66 512.76,-324.23 503.18,-319.7 502.45,-326.66"/>
</a>
</g>
</g>
<!-- Node7 -->
<g id="Node000007" class="node">
<title>Node7</title>
<g id="a_Node000007"><a xlink:href="class_flow_tag_panel.html#ae4f118933196a60a71cfa6b4b9b69894" target="_top" xlink:title=" ">
<polygon fill="white" stroke="#666666" points="654.25,-392 521.25,-392 521.25,-360 654.25,-360 654.25,-392"/>
<text text-anchor="start" x="529.25" y="-378.5" font-family="Helvetica,sans-Serif" font-size="10.00">FlowTagPanel::setChildren</text>
<text text-anchor="middle" x="587.75" y="-366.5" font-family="Helvetica,sans-Serif" font-size="10.00">Visibility</text>
</a>
</g>
</g>
<!-- Node5&#45;&gt;Node7 -->
<g id="edge6_Node000005_Node000007" class="edge">
<title>Node5&#45;&gt;Node7</title>
<g id="a_edge6_Node000005_Node000007"><a xlink:title=" ">
<path fill="none" stroke="#63b8ff" d="M452.91,-329.49C472.02,-336.18 494.31,-343.98 514.5,-351 519.14,-352.61 523.95,-354.28 528.77,-355.96"/>
<polygon fill="#63b8ff" stroke="#63b8ff" points="527.3,-359.15 537.9,-359.12 529.6,-352.54 527.3,-359.15"/>
</a>
</g>
</g>
<!-- Node12 -->
<g id="Node000012" class="node">
<title>Node12</title>
<g id="a_Node000012"><a xlink:href="class_flow_tag_panel.html#a482b23630874fb9f414c9b029501aadd" target="_top" xlink:title=" ">
<polygon fill="white" stroke="#666666" points="658.75,-286 516.75,-286 516.75,-266 658.75,-266 658.75,-286"/>
<text text-anchor="middle" x="587.75" y="-272.5" font-family="Helvetica,sans-Serif" font-size="10.00">FlowTagPanel::updateLayout</text>
</a>
</g>
</g>
<!-- Node5&#45;&gt;Node12 -->
<g id="edge12_Node000005_Node000012" class="edge">
<title>Node5&#45;&gt;Node12</title>
<g id="a_edge12_Node000005_Node000012"><a xlink:title=" ">
<path fill="none" stroke="#63b8ff" d="M471.69,-299.54C488.92,-296.01 507.45,-292.22 524.49,-288.74"/>
<polygon fill="#63b8ff" stroke="#63b8ff" points="524.87,-292.23 533.96,-286.8 523.47,-285.37 524.87,-292.23"/>
</a>
</g>
</g>
<!-- Node8 -->
<g id="Node000008" class="node">
<title>Node8</title>
<g id="a_Node000008"><a xlink:href="class_flow_tag_panel.html#a1822bbc91daca9379e090f363e870d40" target="_top" xlink:title=" ">
<polygon fill="white" stroke="#666666" points="837.12,-405 699.62,-405 699.62,-385 837.12,-385 837.12,-405"/>
<text text-anchor="middle" x="768.38" y="-391.5" font-family="Helvetica,sans-Serif" font-size="10.00">FlowTagPanel::hideChildren</text>
</a>
</g>
</g>
<!-- Node7&#45;&gt;Node8 -->
<g id="edge7_Node000007_Node000008" class="edge">
<title>Node7&#45;&gt;Node8</title>
<g id="a_edge7_Node000007_Node000008"><a xlink:title=" ">
<path fill="none" stroke="#63b8ff" d="M654.5,-382.99C665.47,-384.16 676.95,-385.38 688.21,-386.58"/>
<polygon fill="#63b8ff" stroke="#63b8ff" points="687.55,-390.03 697.86,-387.61 688.29,-383.07 687.55,-390.03"/>
</a>
</g>
</g>
<!-- Node11 -->
<g id="Node000011" class="node">
<title>Node11</title>
<g id="a_Node000011"><a xlink:href="class_flow_tag_panel.html#a4c02b86a1776b70cdd14afd50de4736b" target="_top" xlink:title=" ">
<polygon fill="white" stroke="#666666" points="839.75,-367 697,-367 697,-347 839.75,-347 839.75,-367"/>
<text text-anchor="middle" x="768.38" y="-353.5" font-family="Helvetica,sans-Serif" font-size="10.00">FlowTagPanel::showChildren</text>
</a>
</g>
</g>
<!-- Node7&#45;&gt;Node11 -->
<g id="edge10_Node000007_Node000011" class="edge">
<title>Node7&#45;&gt;Node11</title>
<g id="a_edge10_Node000007_Node000011"><a xlink:title=" ">
<path fill="none" stroke="#63b8ff" d="M654.5,-369.01C664.58,-367.93 675.1,-366.82 685.47,-365.71"/>
<polygon fill="#63b8ff" stroke="#63b8ff" points="685.58,-369.22 695.15,-364.68 684.84,-362.26 685.58,-369.22"/>
</a>
</g>
</g>
<!-- Node9 -->
<g id="Node000009" class="node">
<title>Node9</title>
<g id="a_Node000009"><a xlink:href="class_flow_tag_panel.html#a908b8a9b0319c8c60588dff9296e9baf" target="_top" xlink:title=" ">
<polygon fill="white" stroke="#666666" points="1029.75,-367 875.75,-367 875.75,-347 1029.75,-347 1029.75,-367"/>
<text text-anchor="middle" x="952.75" y="-353.5" font-family="Helvetica,sans-Serif" font-size="10.00">FlowTagPanel::getChildrenTags</text>
</a>
</g>
</g>
<!-- Node8&#45;&gt;Node9 -->
<g id="edge8_Node000008_Node000009" class="edge">
<title>Node8&#45;&gt;Node9</title>
<g id="a_edge8_Node000008_Node000009"><a xlink:title=" ">
<path fill="none" stroke="#63b8ff" d="M819.69,-384.52C841.62,-379.95 867.52,-374.55 890.55,-369.75"/>
<polygon fill="#63b8ff" stroke="#63b8ff" points="891.04,-373.23 900.11,-367.76 889.61,-366.37 891.04,-373.23"/>
</a>
</g>
</g>
<!-- Node10 -->
<g id="Node000010" class="node">
<title>Node10</title>
<g id="a_Node000010"><a xlink:href="class_tag_panel.html#a975da9b33d0c94992472b291df4aadbe" target="_top" xlink:title=" ">
<polygon fill="white" stroke="#666666" points="1008,-405 897.5,-405 897.5,-385 1008,-385 1008,-405"/>
<text text-anchor="middle" x="952.75" y="-391.5" font-family="Helvetica,sans-Serif" font-size="10.00">TagPanel::getIndexOf</text>
</a>
</g>
</g>
<!-- Node8&#45;&gt;Node10 -->
<g id="edge9_Node000008_Node000010" class="edge">
<title>Node8&#45;&gt;Node10</title>
<g id="a_edge9_Node000008_Node000010"><a xlink:title=" ">
<path fill="none" stroke="#63b8ff" d="M837.54,-395C853.34,-395 870.12,-395 885.81,-395"/>
<polygon fill="#63b8ff" stroke="#63b8ff" points="885.51,-398.5 895.51,-395 885.51,-391.5 885.51,-398.5"/>
</a>
</g>
</g>
<!-- Node11&#45;&gt;Node9 -->
<g id="edge11_Node000011_Node000009" class="edge">
<title>Node11&#45;&gt;Node9</title>
<g id="a_edge11_Node000011_Node000009"><a xlink:title=" ">
<path fill="none" stroke="#63b8ff" d="M840.15,-357C847.97,-357 856.01,-357 864.01,-357"/>
<polygon fill="#63b8ff" stroke="#63b8ff" points="863.76,-360.5 873.76,-357 863.76,-353.5 863.76,-360.5"/>
</a>
</g>
</g>
<!-- Node12&#45;&gt;Node12 -->
<g id="edge15_Node000012_Node000012" class="edge">
<title>Node12&#45;&gt;Node12</title>
<g id="a_edge15_Node000012_Node000012"><a xlink:title=" ">
<path fill="none" stroke="#63b8ff" d="M559.05,-286.34C546.79,-294.98 556.35,-304 587.75,-304 605.41,-304 616.16,-301.14 620.01,-297.11"/>
<polygon fill="#63b8ff" stroke="#63b8ff" points="623.39,-296.17 616.92,-287.78 616.74,-298.37 623.39,-296.17"/>
</a>
</g>
</g>
<!-- Node13 -->
<g id="Node000013" class="node">
<title>Node13</title>
<g id="a_Node000013"><a xlink:href="_tag_panel_8cpp.html#a2f4c4fdbb29d8e8fadcbbd9673b3c370" target="_top" xlink:title=" ">
<polygon fill="white" stroke="#666666" points="806.38,-153 730.38,-153 730.38,-133 806.38,-133 806.38,-153"/>
<text text-anchor="middle" x="768.38" y="-139.5" font-family="Helvetica,sans-Serif" font-size="10.00">GetParentTag</text>
</a>
</g>
</g>
<!-- Node12&#45;&gt;Node13 -->
<g id="edge13_Node000012_Node000013" class="edge">
<title>Node12&#45;&gt;Node13</title>
<g id="a_edge13_Node000012_Node000013"><a xlink:title=" ">
<path fill="none" stroke="#63b8ff" d="M631.53,-265.52C641.62,-262.06 652.04,-257.61 661,-252 699.81,-227.71 734.78,-186.42 753.36,-162.23"/>
<polygon fill="#63b8ff" stroke="#63b8ff" points="755.95,-164.61 759.16,-154.51 750.35,-160.4 755.95,-164.61"/>
</a>
</g>
</g>
<!-- Node14 -->
<g id="Node000014" class="node">
<title>Node14</title>
<g id="a_Node000014"><a xlink:href="class_tag_panel.html#af3b5b6fc2b16171af7cab7b0d79d9ed7" target="_top" xlink:title=" ">
<polygon fill="white" stroke="#666666" points="1012.88,-153 892.62,-153 892.62,-133 1012.88,-133 1012.88,-153"/>
<text text-anchor="middle" x="952.75" y="-139.5" font-family="Helvetica,sans-Serif" font-size="10.00">TagPanel::getParentTag</text>
</a>
</g>
</g>
<!-- Node13&#45;&gt;Node14 -->
<g id="edge14_Node000013_Node000014" class="edge">
<title>Node13&#45;&gt;Node14</title>
<g id="a_edge14_Node000013_Node000014"><a xlink:title=" ">
<path fill="none" stroke="#63b8ff" d="M806.72,-143C828.05,-143 855.5,-143 880.77,-143"/>
<polygon fill="#63b8ff" stroke="#63b8ff" points="880.68,-146.5 890.68,-143 880.68,-139.5 880.68,-146.5"/>
</a>
</g>
</g>
<!-- Node15&#45;&gt;Node4 -->
<g id="edge29_Node000015_Node000004" class="edge">
<title>Node15&#45;&gt;Node4</title>
<g id="a_edge29_Node000015_Node000004"><a xlink:title=" ">
<path fill="none" stroke="#63b8ff" d="M271.06,-178.46C279.48,-181.45 287.91,-185.24 295.25,-190 315.59,-203.21 310.62,-218.26 331.25,-231 333.68,-232.5 336.22,-233.88 338.84,-235.15"/>
<polygon fill="#63b8ff" stroke="#63b8ff" points="337.28,-238.29 347.86,-238.95 340,-231.84 337.28,-238.29"/>
</a>
</g>
</g>
<!-- Node16 -->
<g id="Node000016" class="node">
<title>Node16</title>
<g id="a_Node000016"><a xlink:href="class_tag_panel.html#a33ffecd8625bc7e0783d208d8d18daf7" target="_top" xlink:title=" ">
<polygon fill="white" stroke="#666666" points="478.5,-96 331.25,-96 331.25,-76 478.5,-76 478.5,-96"/>
<text text-anchor="middle" x="404.88" y="-82.5" font-family="Helvetica,sans-Serif" font-size="10.00">TagPanel::OnMoveDownClick</text>
</a>
</g>
</g>
<!-- Node15&#45;&gt;Node16 -->
<g id="edge17_Node000015_Node000016" class="edge">
<title>Node15&#45;&gt;Node16</title>
<g id="a_edge17_Node000015_Node000016"><a xlink:title=" ">
<path fill="none" stroke="#63b8ff" d="M247.22,-157.61C278.4,-143.36 334.68,-117.63 370.61,-101.21"/>
<polygon fill="#63b8ff" stroke="#63b8ff" points="372.04,-104.4 379.68,-97.06 369.13,-98.03 372.04,-104.4"/>
</a>
</g>
</g>
<!-- Node19 -->
<g id="Node000019" class="node">
<title>Node19</title>
<g id="a_Node000019"><a xlink:href="class_tag_panel.html#a4ddfadd1d39efac7f0123146fc9f8233" target="_top" xlink:title=" ">
<polygon fill="white" stroke="#666666" points="472.12,-172 337.62,-172 337.62,-152 472.12,-152 472.12,-172"/>
<text text-anchor="middle" x="404.88" y="-158.5" font-family="Helvetica,sans-Serif" font-size="10.00">TagPanel::OnMoveUpClick</text>
</a>
</g>
</g>
<!-- Node15&#45;&gt;Node19 -->
<g id="edge23_Node000015_Node000019" class="edge">
<title>Node15&#45;&gt;Node19</title>
<g id="a_edge23_Node000015_Node000019"><a xlink:title=" ">
<path fill="none" stroke="#63b8ff" d="M276.38,-166.26C291.85,-165.75 309.16,-165.17 325.91,-164.61"/>
<polygon fill="#63b8ff" stroke="#63b8ff" points="325.99,-168.11 335.87,-164.27 325.76,-161.11 325.99,-168.11"/>
</a>
</g>
</g>
<!-- Node16&#45;&gt;Node13 -->
<g id="edge20_Node000016_Node000013" class="edge">
<title>Node16&#45;&gt;Node13</title>
<g id="a_edge20_Node000016_Node000013"><a xlink:title=" ">
<path fill="none" stroke="#63b8ff" d="M455.12,-75.53C473.64,-72.08 494.95,-68.7 514.5,-67 579.37,-61.37 599,-47.13 661,-67 696.24,-78.29 729.74,-106.03 749.42,-124.68"/>
<polygon fill="#63b8ff" stroke="#63b8ff" points="746.76,-126.98 756.36,-131.46 751.65,-121.97 746.76,-126.98"/>
</a>
</g>
</g>
<!-- Node17 -->
<g id="Node000017" class="node">
<title>Node17</title>
<g id="a_Node000017"><a xlink:href="class_tag_panel.html#aefc411bf7be4bd7fd05b3e8a48a6671f" target="_top" xlink:title=" ">
<polygon fill="white" stroke="#666666" points="644.12,-20 531.38,-20 531.38,0 644.12,0 644.12,-20"/>
<text text-anchor="middle" x="587.75" y="-6.5" font-family="Helvetica,sans-Serif" font-size="10.00">TagPanel::getNextTag</text>
</a>
</g>
</g>
<!-- Node16&#45;&gt;Node17 -->
<g id="edge18_Node000016_Node000017" class="edge">
<title>Node16&#45;&gt;Node17</title>
<g id="a_edge18_Node000016_Node000017"><a xlink:title=" ">
<path fill="none" stroke="#63b8ff" d="M458.24,-75.6C465.26,-73.26 472.21,-70.43 478.5,-67 497.56,-56.61 495.79,-45 514.5,-34 520.85,-30.27 527.87,-27.02 534.95,-24.23"/>
<polygon fill="#63b8ff" stroke="#63b8ff" points="535.7,-27.68 543.9,-20.97 533.3,-21.1 535.7,-27.68"/>
</a>
</g>
</g>
<!-- Node18 -->
<g id="Node000018" class="node">
<title>Node18</title>
<g id="a_Node000018"><a xlink:href="class_tag_panel.html#a9a11954167303954710c12832b39fbf4" target="_top" xlink:title=" ">
<polygon fill="white" stroke="#666666" points="640,-96 535.5,-96 535.5,-76 640,-76 640,-96"/>
<text text-anchor="middle" x="587.75" y="-82.5" font-family="Helvetica,sans-Serif" font-size="10.00">TagPanel::isLastTag</text>
</a>
</g>
</g>
<!-- Node16&#45;&gt;Node18 -->
<g id="edge21_Node000016_Node000018" class="edge">
<title>Node16&#45;&gt;Node18</title>
<g id="a_edge21_Node000016_Node000018"><a xlink:title=" ">
<path fill="none" stroke="#63b8ff" d="M478.92,-86C493.78,-86 509.28,-86 523.75,-86"/>
<polygon fill="#63b8ff" stroke="#63b8ff" points="523.59,-89.5 533.59,-86 523.59,-82.5 523.59,-89.5"/>
</a>
</g>
</g>
<!-- Node17&#45;&gt;Node13 -->
<g id="edge19_Node000017_Node000013" class="edge">
<title>Node17&#45;&gt;Node13</title>
<g id="a_edge19_Node000017_Node000013"><a xlink:title=" ">
<path fill="none" stroke="#63b8ff" d="M631.53,-20.48C641.62,-23.94 652.04,-28.39 661,-34 699.81,-58.29 734.78,-99.58 753.36,-123.77"/>
<polygon fill="#63b8ff" stroke="#63b8ff" points="750.35,-125.6 759.16,-131.49 755.95,-121.39 750.35,-125.6"/>
</a>
</g>
</g>
<!-- Node18&#45;&gt;Node13 -->
<g id="edge22_Node000018_Node000013" class="edge">
<title>Node18&#45;&gt;Node13</title>
<g id="a_edge22_Node000018_Node000013"><a xlink:title=" ">
<path fill="none" stroke="#63b8ff" d="M621.51,-96.45C650.25,-105.63 692.27,-119.03 723.83,-129.1"/>
<polygon fill="#63b8ff" stroke="#63b8ff" points="722.49,-132.35 733.08,-132.06 724.61,-125.68 722.49,-132.35"/>
</a>
</g>
</g>
<!-- Node19&#45;&gt;Node13 -->
<g id="edge24_Node000019_Node000013" class="edge">
<title>Node19&#45;&gt;Node13</title>
<g id="a_edge24_Node000019_Node000013"><a xlink:title=" ">
<path fill="none" stroke="#63b8ff" d="M455.12,-151.53C473.64,-148.08 494.95,-144.7 514.5,-143 585.31,-136.85 667.69,-138.48 718.69,-140.51"/>
<polygon fill="#63b8ff" stroke="#63b8ff" points="718.36,-144 728.5,-140.92 718.66,-137 718.36,-144"/>
</a>
</g>
</g>
<!-- Node20 -->
<g id="Node000020" class="node">
<title>Node20</title>
<g id="a_Node000020"><a xlink:href="class_tag_panel.html#a20a4cc67dc3ecd4538cb8af3c9668421" target="_top" xlink:title=" ">
<polygon fill="white" stroke="#666666" points="652.75,-210 522.75,-210 522.75,-190 652.75,-190 652.75,-210"/>
<text text-anchor="middle" x="587.75" y="-196.5" font-family="Helvetica,sans-Serif" font-size="10.00">TagPanel::getPreviousTag</text>
</a>
</g>
</g>
<!-- Node19&#45;&gt;Node20 -->
<g id="edge25_Node000019_Node000020" class="edge">
<title>Node19&#45;&gt;Node20</title>
<g id="a_edge25_Node000019_Node000020"><a xlink:title=" ">
<path fill="none" stroke="#63b8ff" d="M455.78,-172.48C477.43,-177.03 502.98,-182.4 525.74,-187.18"/>
<polygon fill="#63b8ff" stroke="#63b8ff" points="525.02,-190.61 535.53,-189.24 526.46,-183.76 525.02,-190.61"/>
</a>
</g>
</g>
<!-- Node21 -->
<g id="Node000021" class="node">
<title>Node21</title>
<g id="a_Node000021"><a xlink:href="class_tag_panel.html#aa16fddf213851034cb33b775ea653efc" target="_top" xlink:title=" ">
<polygon fill="white" stroke="#666666" points="640.38,-172 535.12,-172 535.12,-152 640.38,-152 640.38,-172"/>
<text text-anchor="middle" x="587.75" y="-158.5" font-family="Helvetica,sans-Serif" font-size="10.00">TagPanel::isFirstTag</text>
</a>
</g>
</g>
<!-- Node19&#45;&gt;Node21 -->
<g id="edge27_Node000019_Node000021" class="edge">
<title>Node19&#45;&gt;Node21</title>
<g id="a_edge27_Node000019_Node000021"><a xlink:title=" ">
<path fill="none" stroke="#63b8ff" d="M472.46,-162C489.15,-162 507.02,-162 523.54,-162"/>
<polygon fill="#63b8ff" stroke="#63b8ff" points="523.23,-165.5 533.23,-162 523.23,-158.5 523.23,-165.5"/>
</a>
</g>
</g>
<!-- Node20&#45;&gt;Node13 -->
<g id="edge26_Node000020_Node000013" class="edge">
<title>Node20&#45;&gt;Node13</title>
<g id="a_edge26_Node000020_Node000013"><a xlink:title=" ">
<path fill="none" stroke="#63b8ff" d="M630.95,-189.55C640.85,-186.92 651.34,-183.99 661,-181 683.92,-173.91 709.23,-164.91 729.41,-157.46"/>
<polygon fill="#63b8ff" stroke="#63b8ff" points="730.48,-160.8 738.62,-154.02 728.03,-154.24 730.48,-160.8"/>
</a>
</g>
</g>
<!-- Node21&#45;&gt;Node13 -->
<g id="edge28_Node000021_Node000013" class="edge">
<title>Node21&#45;&gt;Node13</title>
<g id="a_edge28_Node000021_Node000013"><a xlink:title=" ">
<path fill="none" stroke="#63b8ff" d="M640.42,-156.5C665.14,-153.87 694.58,-150.74 718.89,-148.16"/>
<polygon fill="#63b8ff" stroke="#63b8ff" points="718.93,-151.67 728.5,-147.13 718.19,-144.71 718.93,-151.67"/>
</a>
</g>
</g>
<!-- Node22&#45;&gt;Node4 -->
<g id="edge33_Node000022_Node000004" class="edge">
<title>Node22&#45;&gt;Node4</title>
<g id="a_edge33_Node000022_Node000004"><a xlink:title=" ">
<path fill="none" stroke="#63b8ff" d="M270.23,-219.45C293.63,-224.8 322.34,-231.36 347.14,-237.03"/>
<polygon fill="#63b8ff" stroke="#63b8ff" points="346.23,-240.41 356.76,-239.23 347.79,-233.59 346.23,-240.41"/>
</a>
</g>
</g>
<!-- Node23 -->
<g id="Node000023" class="node">
<title>Node23</title>
<g id="a_Node000023"><a xlink:href="class_tag_panel.html#a92b74a6332f46423e1509044989a4a0a" target="_top" xlink:title=" ">
<polygon fill="white" stroke="#666666" points="471,-222 338.75,-222 338.75,-190 471,-190 471,-222"/>
<text text-anchor="start" x="346.75" y="-208.5" font-family="Helvetica,sans-Serif" font-size="10.00">TagPanel::OnDeleteButton</text>
<text text-anchor="middle" x="404.88" y="-196.5" font-family="Helvetica,sans-Serif" font-size="10.00">Click</text>
</a>
</g>
</g>
<!-- Node22&#45;&gt;Node23 -->
<g id="edge31_Node000022_Node000023" class="edge">
<title>Node22&#45;&gt;Node23</title>
<g id="a_edge31_Node000022_Node000023"><a xlink:title=" ">
<path fill="none" stroke="#63b8ff" d="M288.25,-207.93C300.86,-207.72 314.23,-207.5 327.22,-207.28"/>
<polygon fill="#63b8ff" stroke="#63b8ff" points="327.06,-210.79 337,-207.12 326.95,-203.79 327.06,-210.79"/>
</a>
</g>
</g>
<!-- Node23&#45;&gt;Node13 -->
<g id="edge32_Node000023_Node000013" class="edge">
<title>Node23&#45;&gt;Node13</title>
<g id="a_edge32_Node000023_Node000013"><a xlink:title=" ">
<path fill="none" stroke="#63b8ff" d="M471.48,-221.89C524.01,-231.66 598.92,-238.9 661,-219 696.24,-207.71 729.74,-179.97 749.42,-161.32"/>
<polygon fill="#63b8ff" stroke="#63b8ff" points="751.65,-164.03 756.36,-154.54 746.76,-159.02 751.65,-164.03"/>
</a>
</g>
</g>
<!-- Node25 -->
<g id="Node000025" class="node">
<title>Node25</title>
<g id="a_Node000025"><a xlink:href="class_tag_panel.html#af2926b62ee8940d7aa87591255623814" target="_top" xlink:title=" ">
<polygon fill="white" stroke="#666666" points="465,-58 344.75,-58 344.75,-38 465,-38 465,-58"/>
<text text-anchor="middle" x="404.88" y="-44.5" font-family="Helvetica,sans-Serif" font-size="10.00">TagPanel::addTagName</text>
</a>
</g>
</g>
<!-- Node24&#45;&gt;Node25 -->
<g id="edge35_Node000024_Node000025" class="edge">
<title>Node24&#45;&gt;Node25</title>
<g id="a_edge35_Node000024_Node000025"><a xlink:title=" ">
<path fill="none" stroke="#63b8ff" d="M270.23,-78.55C293.63,-73.2 322.34,-66.64 347.14,-60.97"/>
<polygon fill="#63b8ff" stroke="#63b8ff" points="347.79,-64.41 356.76,-58.77 346.23,-57.59 347.79,-64.41"/>
</a>
</g>
</g>
</g>
</svg>

<g id="navigator" transform="translate(0 0)" fill="#404254">
  <rect fill="#f2f5e9" fill-opacity="0.5" stroke="#606060" stroke-width=".5" x="0" y="0" width="60" height="60"/>
  <use id="zoomplus" xlink:href="#zoomPlus" x="17" y="9" onmousedown="handleZoom(evt,'in')"/>
  <use id="zoomminus" xlink:href="#zoomMin" x="42" y="9" onmousedown="handleZoom(evt,'out')"/>
  <use id="reset" xlink:href="#resetDef" x="30" y="36" onmousedown="handleReset()"/>
   <use id="arrowup" xlink:href="#arrowUp" x="0" y="0" onmousedown="handlePan(0,-1)"/>
  <use id="arrowright" xlink:href="#arrowRight" x="0" y="0" onmousedown="handlePan(1,0)"/>
  <use id="arrowdown" xlink:href="#arrowDown" x="0" y="0" onmousedown="handlePan(0,1)"/>
  <use id="arrowleft" xlink:href="#arrowLeft" x="0" y="0" onmousedown="handlePan(-1,0)"/>
</g>
<svg viewBox="0 0 15 15" width="100%" height="30px" preserveAspectRatio="xMaxYMin meet">
 <g id="arrow_out" transform="scale(0.3 0.3)">
  <a xlink:href="class_if_tag_panel_a0eecad5e847dada1e8dfbceb5e1e6121_cgraph_org.svg" target="_base">
   <rect id="button" ry="5" rx="5" y="6" x="6" height="38" width="38"
        fill="#f2f5e9" fill-opacity="0.5" stroke="#606060" stroke-width="1.0"/>
   <path id="arrow"
     d="M 11.500037,31.436501 C 11.940474,20.09759 22.043105,11.32322 32.158766,21.979434 L 37.068811,17.246167 C 37.068811,17.246167 37.088388,32 37.088388,32 L 22.160133,31.978069 C 22.160133,31.978069 26.997745,27.140456 26.997745,27.140456 C 18.528582,18.264221 13.291696,25.230495 11.500037,31.436501 z"
     style="fill:#404040;"/>
  </a>
 </g>
</svg>

<style type='text/css'>
<![CDATA[
[data-mouse-over-selected='false'] { opacity: 0.7; }
[data-mouse-over-selected='true']  { opacity: 1.0; }
]]>
</style>
<script type="application/ecmascript"><![CDATA[
document.addEventListener('DOMContentLoaded', (event) => {
  highlightEdges();
  highlightAdjacentNodes();
});
]]></script>
</svg>
