<?xml version="1.0" encoding="UTF-8" standalone="no"?>
<!DOCTYPE svg PUBLIC "-//W3C//DTD SVG 1.1//EN"
 "http://www.w3.org/Graphics/SVG/1.1/DTD/svg11.dtd">
<!-- Generated by graphviz version 12.2.0 (20241103.1931)
 -->
<!-- Title: LDPlayer::startEmulator Pages: 1 -->
<svg width="456pt" height="66pt"
 viewBox="0.00 0.00 456.00 66.00" xmlns="http://www.w3.org/2000/svg" xmlns:xlink="http://www.w3.org/1999/xlink">

<svg id="main" version="1.1" xmlns="http://www.w3.org/2000/svg" xmlns:xlink="http://www.w3.org/1999/xlink" xml:space="preserve">

<style type="text/css"><![CDATA[
.node, .edge {opacity: 0.7;}
.node.selected, .edge.selected {opacity: 1;}
.edge:hover path { stroke: red; }
.edge:hover polygon { stroke: red; fill: red; }
]]></style>
<script type="application/ecmascript" xlink:href="svg.min.js"/>
<svg id="graph" class="graph">
<g id="graph0" class="graph" transform="scale(1 1) rotate(0) translate(4 62)">
<title>LDPlayer::startEmulator</title>
<!-- Node1 -->
<g id="Node000001" class="node">
<title>Node1</title>
<g id="a_Node000001"><a xlink:title=" ">
<polygon fill="#999999" stroke="#666666" points="121,-39 0,-39 0,-19 121,-19 121,-39"/>
<text text-anchor="middle" x="60.5" y="-25.5" font-family="Helvetica,sans-Serif" font-size="10.00">LDPlayer::startEmulator</text>
</a>
</g>
</g>
<!-- Node2 -->
<g id="Node000002" class="node">
<title>Node2</title>
<g id="a_Node000002"><a xlink:href="sys_commands_8cpp.html#a40529d2008c5ec34a2251615ad504e28" target="_top" xlink:title=" ">
<polygon fill="white" stroke="#666666" points="250.25,-39 157,-39 157,-19 250.25,-19 250.25,-39"/>
<text text-anchor="middle" x="203.62" y="-25.5" font-family="Helvetica,sans-Serif" font-size="10.00">moveAndExecute</text>
</a>
</g>
</g>
<!-- Node1&#45;&gt;Node2 -->
<g id="edge1_Node000001_Node000002" class="edge">
<title>Node1&#45;&gt;Node2</title>
<g id="a_edge1_Node000001_Node000002"><a xlink:title=" ">
<path fill="none" stroke="#63b8ff" d="M121.35,-29C129.32,-29 137.49,-29 145.41,-29"/>
<polygon fill="#63b8ff" stroke="#63b8ff" points="145.3,-32.5 155.3,-29 145.3,-25.5 145.3,-32.5"/>
</a>
</g>
</g>
<!-- Node3 -->
<g id="Node000003" class="node">
<title>Node3</title>
<g id="a_Node000003"><a xlink:href="sys_commands_8cpp.html#a321eb7e335377aa7182bafc8a1605032" target="_top" xlink:title=" ">
<polygon fill="white" stroke="#666666" points="353.25,-39 286.25,-39 286.25,-19 353.25,-19 353.25,-39"/>
<text text-anchor="middle" x="319.75" y="-25.5" font-family="Helvetica,sans-Serif" font-size="10.00">receivePipe</text>
</a>
</g>
</g>
<!-- Node2&#45;&gt;Node3 -->
<g id="edge2_Node000002_Node000003" class="edge">
<title>Node2&#45;&gt;Node3</title>
<g id="a_edge2_Node000002_Node000003"><a xlink:title=" ">
<path fill="none" stroke="#63b8ff" d="M250.72,-29C258.52,-29 266.61,-29 274.37,-29"/>
<polygon fill="#63b8ff" stroke="#63b8ff" points="274.3,-32.5 284.3,-29 274.3,-25.5 274.3,-32.5"/>
</a>
</g>
</g>
<!-- Node4 -->
<g id="Node000004" class="node">
<title>Node4</title>
<g id="a_Node000004"><a xlink:href="sys_commands_8cpp.html#a4771c79171a937893508dabadadbe099" target="_top" xlink:title=" ">
<polygon fill="white" stroke="#666666" points="448,-58 389.25,-58 389.25,-38 448,-38 448,-58"/>
<text text-anchor="middle" x="418.62" y="-44.5" font-family="Helvetica,sans-Serif" font-size="10.00">closePipe</text>
</a>
</g>
</g>
<!-- Node3&#45;&gt;Node4 -->
<g id="edge3_Node000003_Node000004" class="edge">
<title>Node3&#45;&gt;Node4</title>
<g id="a_edge3_Node000003_Node000004"><a xlink:title=" ">
<path fill="none" stroke="#63b8ff" d="M353.55,-35.43C361.31,-36.95 369.67,-38.59 377.71,-40.17"/>
<polygon fill="#63b8ff" stroke="#63b8ff" points="376.78,-43.56 387.27,-42.05 378.13,-36.69 376.78,-43.56"/>
</a>
</g>
</g>
<!-- Node5 -->
<g id="Node000005" class="node">
<title>Node5</title>
<g id="a_Node000005"><a xlink:href="sys_commands_8cpp.html#a3499ce0cd7e4ed28b3c5461a4d3aec84" target="_top" xlink:title=" ">
<polygon fill="white" stroke="#666666" points="446.88,-20 390.38,-20 390.38,0 446.88,0 446.88,-20"/>
<text text-anchor="middle" x="418.62" y="-6.5" font-family="Helvetica,sans-Serif" font-size="10.00">openPipe</text>
</a>
</g>
</g>
<!-- Node3&#45;&gt;Node5 -->
<g id="edge4_Node000003_Node000005" class="edge">
<title>Node3&#45;&gt;Node5</title>
<g id="a_edge4_Node000003_Node000005"><a xlink:title=" ">
<path fill="none" stroke="#63b8ff" d="M353.55,-22.57C361.7,-20.97 370.51,-19.24 378.92,-17.59"/>
<polygon fill="#63b8ff" stroke="#63b8ff" points="379.4,-21.06 388.54,-15.7 378.05,-14.19 379.4,-21.06"/>
</a>
</g>
</g>
</g>
</svg>
</svg>

<style type='text/css'>
<![CDATA[
[data-mouse-over-selected='false'] { opacity: 0.7; }
[data-mouse-over-selected='true']  { opacity: 1.0; }
]]>
</style>
<script type="application/ecmascript"><![CDATA[
document.addEventListener('DOMContentLoaded', (event) => {
  highlightEdges();
  highlightAdjacentNodes();
});
]]></script>
</svg>
