<?xml version="1.0" encoding="UTF-8" standalone="no"?>
<!DOCTYPE svg PUBLIC "-//W3C//DTD SVG 1.1//EN"
 "http://www.w3.org/Graphics/SVG/1.1/DTD/svg11.dtd">
<!-- Generated by graphviz version 12.2.0 (20241103.1931)
 -->
<!-- Title: TemplateToken::addToken Pages: 1 -->
<svg width="634pt" height="142pt"
 viewBox="0.00 0.00 633.75 142.00" xmlns="http://www.w3.org/2000/svg" xmlns:xlink="http://www.w3.org/1999/xlink">
<g id="graph0" class="graph" transform="scale(1 1) rotate(0) translate(4 138)">
<title>TemplateToken::addToken</title>
<!-- Node1 -->
<g id="Node000001" class="node">
<title>Node1</title>
<g id="a_Node000001"><a xlink:title=" ">
<polygon fill="#999999" stroke="#666666" points="625.75,-77 495.75,-77 495.75,-57 625.75,-57 625.75,-77"/>
<text text-anchor="middle" x="560.75" y="-63.5" font-family="Helvetica,sans-Serif" font-size="10.00">TemplateToken::addToken</text>
</a>
</g>
</g>
<!-- Node2 -->
<g id="Node000002" class="node">
<title>Node2</title>
<g id="a_Node000002"><a xlink:href="class_template_token.html#a7e5256636f4c968720a56ef5ee868274" target="_top" xlink:title=" ">
<polygon fill="white" stroke="#666666" points="450,-134 328.25,-134 328.25,-114 450,-114 450,-134"/>
<text text-anchor="middle" x="389.12" y="-120.5" font-family="Helvetica,sans-Serif" font-size="10.00">TemplateToken::addCab</text>
</a>
</g>
</g>
<!-- Node1&#45;&gt;Node2 -->
<g id="edge1_Node000001_Node000002" class="edge">
<title>Node1&#45;&gt;Node2</title>
<g id="a_edge1_Node000001_Node000002"><a xlink:title=" ">
<path fill="none" stroke="#63b8ff" d="M523.97,-81.56C505.03,-89.02 481.3,-97.98 459.75,-105 450.58,-107.99 440.62,-110.9 431.19,-113.5"/>
<polygon fill="#63b8ff" stroke="#63b8ff" points="525.1,-84.88 533.1,-77.93 522.52,-78.37 525.1,-84.88"/>
</a>
</g>
</g>
<!-- Node5 -->
<g id="Node000005" class="node">
<title>Node5</title>
<g id="a_Node000005"><a xlink:href="class_template_token.html#a0564dddc4f77b9d92efd80c1f6bab565" target="_top" xlink:title=" ">
<polygon fill="white" stroke="#666666" points="458.25,-96 320,-96 320,-76 458.25,-76 458.25,-96"/>
<text text-anchor="middle" x="389.12" y="-82.5" font-family="Helvetica,sans-Serif" font-size="10.00">TemplateToken::addComma</text>
</a>
</g>
</g>
<!-- Node1&#45;&gt;Node5 -->
<g id="edge4_Node000001_Node000005" class="edge">
<title>Node1&#45;&gt;Node5</title>
<g id="a_edge4_Node000001_Node000005"><a xlink:title=" ">
<path fill="none" stroke="#63b8ff" d="M484.42,-75.44C475.82,-76.4 467.09,-77.38 458.59,-78.33"/>
<polygon fill="#63b8ff" stroke="#63b8ff" points="484.57,-78.94 494.12,-74.35 483.79,-71.99 484.57,-78.94"/>
</a>
</g>
</g>
<!-- Node6 -->
<g id="Node000006" class="node">
<title>Node6</title>
<g id="a_Node000006"><a xlink:href="class_template_token.html#abb2f4c81dfdde0b3579d039279191d0a" target="_top" xlink:title=" ">
<polygon fill="white" stroke="#666666" points="459.75,-58 318.5,-58 318.5,-38 459.75,-38 459.75,-58"/>
<text text-anchor="middle" x="389.12" y="-44.5" font-family="Helvetica,sans-Serif" font-size="10.00">TemplateToken::addIdentifier</text>
</a>
</g>
</g>
<!-- Node1&#45;&gt;Node6 -->
<g id="edge5_Node000001_Node000006" class="edge">
<title>Node1&#45;&gt;Node6</title>
<g id="a_edge5_Node000001_Node000006"><a xlink:title=" ">
<path fill="none" stroke="#63b8ff" d="M484.3,-58.55C476.22,-57.64 468.03,-56.73 460.01,-55.83"/>
<polygon fill="#63b8ff" stroke="#63b8ff" points="483.79,-62.01 494.12,-59.65 484.57,-55.06 483.79,-62.01"/>
</a>
</g>
</g>
<!-- Node7 -->
<g id="Node000007" class="node">
<title>Node7</title>
<g id="a_Node000007"><a xlink:href="class_template_token.html#aeab3bb725b06c1368626903bda4431ba" target="_top" xlink:title=" ">
<polygon fill="white" stroke="#666666" points="450,-20 328.25,-20 328.25,0 450,0 450,-20"/>
<text text-anchor="middle" x="389.12" y="-6.5" font-family="Helvetica,sans-Serif" font-size="10.00">TemplateToken::addOab</text>
</a>
</g>
</g>
<!-- Node1&#45;&gt;Node7 -->
<g id="edge6_Node000001_Node000007" class="edge">
<title>Node1&#45;&gt;Node7</title>
<g id="a_edge6_Node000001_Node000007"><a xlink:title=" ">
<path fill="none" stroke="#63b8ff" d="M523.97,-52.44C505.03,-44.98 481.3,-36.02 459.75,-29 450.58,-26.01 440.62,-23.1 431.19,-20.5"/>
<polygon fill="#63b8ff" stroke="#63b8ff" points="522.52,-55.63 533.1,-56.07 525.1,-49.12 522.52,-55.63"/>
</a>
</g>
</g>
<!-- Node3 -->
<g id="Node000003" class="node">
<title>Node3</title>
<g id="a_Node000003"><a xlink:href="class_template_token.html#a4f803a24960bab2671effe0c746d1b8e" target="_top" xlink:title=" ">
<polygon fill="white" stroke="#666666" points="282.5,-77 147.25,-77 147.25,-57 282.5,-57 282.5,-77"/>
<text text-anchor="middle" x="214.88" y="-63.5" font-family="Helvetica,sans-Serif" font-size="10.00">TemplateToken::addTokens</text>
</a>
</g>
</g>
<!-- Node2&#45;&gt;Node3 -->
<g id="edge2_Node000002_Node000003" class="edge">
<title>Node2&#45;&gt;Node3</title>
<g id="a_edge2_Node000002_Node000003"><a xlink:title=" ">
<path fill="none" stroke="#63b8ff" d="M336.55,-110.47C330.44,-108.71 324.32,-106.87 318.5,-105 292.27,-96.58 262.83,-85.51 242.23,-77.49"/>
<polygon fill="#63b8ff" stroke="#63b8ff" points="335.42,-113.79 345.99,-113.14 337.32,-107.05 335.42,-113.79"/>
</a>
</g>
</g>
<!-- Node4 -->
<g id="Node000004" class="node">
<title>Node4</title>
<g id="a_Node000004"><a xlink:href="class_list_token.html#a9003dd872c19760212536f6197d70f51" target="_top" xlink:title=" ">
<polygon fill="white" stroke="#666666" points="111.25,-77 0,-77 0,-57 111.25,-57 111.25,-77"/>
<text text-anchor="middle" x="55.62" y="-63.5" font-family="Helvetica,sans-Serif" font-size="10.00">ListToken::addTokens</text>
</a>
</g>
</g>
<!-- Node3&#45;&gt;Node4 -->
<g id="edge3_Node000003_Node000004" class="edge">
<title>Node3&#45;&gt;Node4</title>
<g id="a_edge3_Node000003_Node000004"><a xlink:title=" ">
<path fill="none" stroke="#63b8ff" d="M135.69,-67C127.52,-67 119.35,-67 111.53,-67"/>
<polygon fill="#63b8ff" stroke="#63b8ff" points="135.67,-70.5 145.67,-67 135.67,-63.5 135.67,-70.5"/>
</a>
</g>
</g>
<!-- Node7&#45;&gt;Node3 -->
<g id="edge7_Node000007_Node000003" class="edge">
<title>Node7&#45;&gt;Node3</title>
<g id="a_edge7_Node000007_Node000003"><a xlink:title=" ">
<path fill="none" stroke="#63b8ff" d="M336.55,-23.53C330.44,-25.29 324.32,-27.13 318.5,-29 292.27,-37.42 262.83,-48.49 242.23,-56.51"/>
<polygon fill="#63b8ff" stroke="#63b8ff" points="337.32,-26.95 345.99,-20.86 335.42,-20.21 337.32,-26.95"/>
</a>
</g>
</g>
</g>
</svg>
