<?xml version="1.0" encoding="UTF-8" standalone="no"?>
<!DOCTYPE svg PUBLIC "-//W3C//DTD SVG 1.1//EN"
 "http://www.w3.org/Graphics/SVG/1.1/DTD/svg11.dtd">
<!-- Generated by graphviz version 12.2.0 (20241103.1931)
 -->
<!-- Title: TemplateToken::addType Pages: 1 -->
<svg width="443pt" height="104pt"
 viewBox="0.00 0.00 443.00 104.00" xmlns="http://www.w3.org/2000/svg" xmlns:xlink="http://www.w3.org/1999/xlink">

<svg id="main" version="1.1" xmlns="http://www.w3.org/2000/svg" xmlns:xlink="http://www.w3.org/1999/xlink" xml:space="preserve">

<style type="text/css"><![CDATA[
.node, .edge {opacity: 0.7;}
.node.selected, .edge.selected {opacity: 1;}
.edge:hover path { stroke: red; }
.edge:hover polygon { stroke: red; fill: red; }
]]></style>
<script type="application/ecmascript" xlink:href="svg.min.js"/>
<svg id="graph" class="graph">
<g id="graph0" class="graph" transform="scale(1 1) rotate(0) translate(4 100)">
<title>TemplateToken::addType</title>
<!-- Node1 -->
<g id="Node000001" class="node">
<title>Node1</title>
<g id="a_Node000001"><a xlink:title=" ">
<polygon fill="#999999" stroke="#666666" points="124.75,-58 0,-58 0,-38 124.75,-38 124.75,-58"/>
<text text-anchor="middle" x="62.38" y="-44.5" font-family="Helvetica,sans-Serif" font-size="10.00">TemplateToken::addType</text>
</a>
</g>
</g>
<!-- Node2 -->
<g id="Node000002" class="node">
<title>Node2</title>
<g id="a_Node000002"><a xlink:href="class_template_token.html#ad981d8ad4aeb0162d344d334ff3ac0f3" target="_top" xlink:title=" ">
<polygon fill="white" stroke="#666666" points="285.5,-96 160.75,-96 160.75,-76 285.5,-76 285.5,-96"/>
<text text-anchor="middle" x="223.12" y="-82.5" font-family="Helvetica,sans-Serif" font-size="10.00">TemplateToken::addError</text>
</a>
</g>
</g>
<!-- Node1&#45;&gt;Node2 -->
<g id="edge1_Node000001_Node000002" class="edge">
<title>Node1&#45;&gt;Node2</title>
<g id="a_edge1_Node000001_Node000002"><a xlink:title=" ">
<path fill="none" stroke="#63b8ff" d="M107.17,-58.48C125.83,-62.95 147.78,-68.21 167.48,-72.92"/>
<polygon fill="#63b8ff" stroke="#63b8ff" points="166.46,-76.27 177,-75.2 168.09,-69.47 166.46,-76.27"/>
</a>
</g>
</g>
<!-- Node4 -->
<g id="Node000004" class="node">
<title>Node4</title>
<g id="a_Node000004"><a xlink:href="class_iterator_list.html#a4acf162e4a194bddd3c2fe26b073f45a" target="_top" xlink:title=" ">
<polygon fill="white" stroke="#666666" points="285.5,-58 160.75,-58 160.75,-38 285.5,-38 285.5,-58"/>
<text text-anchor="middle" x="223.12" y="-44.5" font-family="Helvetica,sans-Serif" font-size="10.00">IteratorList::currentToken</text>
</a>
</g>
</g>
<!-- Node1&#45;&gt;Node4 -->
<g id="edge3_Node000001_Node000004" class="edge">
<title>Node1&#45;&gt;Node4</title>
<g id="a_edge3_Node000001_Node000004"><a xlink:title=" ">
<path fill="none" stroke="#63b8ff" d="M125.21,-48C133.08,-48 141.19,-48 149.21,-48"/>
<polygon fill="#63b8ff" stroke="#63b8ff" points="148.95,-51.5 158.95,-48 148.95,-44.5 148.95,-51.5"/>
</a>
</g>
</g>
<!-- Node5 -->
<g id="Node000005" class="node">
<title>Node5</title>
<g id="a_Node000005"><a xlink:href="class_iterator_list.html#a2ebc1118094754b7d333b0a9d257d12b" target="_top" xlink:title=" ">
<polygon fill="white" stroke="#666666" points="270.5,-20 175.75,-20 175.75,0 270.5,0 270.5,-20"/>
<text text-anchor="middle" x="223.12" y="-6.5" font-family="Helvetica,sans-Serif" font-size="10.00">IteratorList::ended</text>
</a>
</g>
</g>
<!-- Node1&#45;&gt;Node5 -->
<g id="edge4_Node000001_Node000005" class="edge">
<title>Node1&#45;&gt;Node5</title>
<g id="a_edge4_Node000001_Node000005"><a xlink:title=" ">
<path fill="none" stroke="#63b8ff" d="M107.17,-37.52C125.83,-33.05 147.78,-27.79 167.48,-23.08"/>
<polygon fill="#63b8ff" stroke="#63b8ff" points="168.09,-26.53 177,-20.8 166.46,-19.73 168.09,-26.53"/>
</a>
</g>
</g>
<!-- Node3 -->
<g id="Node000003" class="node">
<title>Node3</title>
<g id="a_Node000003"><a xlink:href="class_token_result.html#af997915a62dcb5643b9d61b78a22c9f4" target="_top" xlink:title=" ">
<polygon fill="white" stroke="#666666" points="435,-96 321.5,-96 321.5,-76 435,-76 435,-96"/>
<text text-anchor="middle" x="378.25" y="-82.5" font-family="Helvetica,sans-Serif" font-size="10.00">TokenResult::addError</text>
</a>
</g>
</g>
<!-- Node2&#45;&gt;Node3 -->
<g id="edge2_Node000002_Node000003" class="edge">
<title>Node2&#45;&gt;Node3</title>
<g id="a_edge2_Node000002_Node000003"><a xlink:title=" ">
<path fill="none" stroke="#63b8ff" d="M285.97,-86C293.77,-86 301.79,-86 309.68,-86"/>
<polygon fill="#63b8ff" stroke="#63b8ff" points="309.6,-89.5 319.6,-86 309.6,-82.5 309.6,-89.5"/>
</a>
</g>
</g>
</g>
</svg>
</svg>

<style type='text/css'>
<![CDATA[
[data-mouse-over-selected='false'] { opacity: 0.7; }
[data-mouse-over-selected='true']  { opacity: 1.0; }
]]>
</style>
<script type="application/ecmascript"><![CDATA[
document.addEventListener('DOMContentLoaded', (event) => {
  highlightEdges();
  highlightAdjacentNodes();
});
]]></script>
</svg>
