<?xml version="1.0" encoding="UTF-8" standalone="no"?>
<!DOCTYPE svg PUBLIC "-//W3C//DTD SVG 1.1//EN"
 "http://www.w3.org/Graphics/SVG/1.1/DTD/svg11.dtd">
<!-- Generated by graphviz version 12.2.0 (20241103.1931)
 -->
<!-- Title: fsfml::pressedElement Pages: 1 -->
<svg width="369pt" height="66pt"
 viewBox="0.00 0.00 368.75 66.00" xmlns="http://www.w3.org/2000/svg" xmlns:xlink="http://www.w3.org/1999/xlink">
<g id="graph0" class="graph" transform="scale(1 1) rotate(0) translate(4 62)">
<title>fsfml::pressedElement</title>
<!-- Node1 -->
<g id="Node000001" class="node">
<title>Node1</title>
<g id="a_Node000001"><a xlink:title=" ">
<polygon fill="#999999" stroke="#666666" points="114.25,-39 0,-39 0,-19 114.25,-19 114.25,-39"/>
<text text-anchor="middle" x="57.12" y="-25.5" font-family="Helvetica,sans-Serif" font-size="10.00">fsfml::pressedElement</text>
</a>
</g>
</g>
<!-- Node2 -->
<g id="Node000002" class="node">
<title>Node2</title>
<g id="a_Node000002"><a xlink:href="classfsfml.html#a6c776fc7941d47fb2f10d9a2579d2a2e" target="_top" xlink:title=" ">
<polygon fill="white" stroke="#666666" points="236,-58 157,-58 157,-38 236,-38 236,-58"/>
<text text-anchor="middle" x="196.5" y="-44.5" font-family="Helvetica,sans-Serif" font-size="10.00">fsfml::convertf</text>
</a>
</g>
</g>
<!-- Node1&#45;&gt;Node2 -->
<g id="edge1_Node000001_Node000002" class="edge">
<title>Node1&#45;&gt;Node2</title>
<g id="a_edge1_Node000001_Node000002"><a xlink:title=" ">
<path fill="none" stroke="#63b8ff" d="M114.4,-36.78C124.73,-38.21 135.46,-39.7 145.59,-41.1"/>
<polygon fill="#63b8ff" stroke="#63b8ff" points="144.85,-44.53 155.23,-42.43 145.81,-37.59 144.85,-44.53"/>
</a>
</g>
</g>
<!-- Node3 -->
<g id="Node000003" class="node">
<title>Node3</title>
<g id="a_Node000003"><a xlink:href="classfsfml.html#a200802324bb5f37bfae3d935c0b91db4" target="_top" xlink:title=" ">
<polygon fill="white" stroke="#666666" points="242.75,-20 150.25,-20 150.25,0 242.75,0 242.75,-20"/>
<text text-anchor="middle" x="196.5" y="-6.5" font-family="Helvetica,sans-Serif" font-size="10.00">fsfml::OnElement</text>
</a>
</g>
</g>
<!-- Node1&#45;&gt;Node3 -->
<g id="edge2_Node000001_Node000003" class="edge">
<title>Node1&#45;&gt;Node3</title>
<g id="a_edge2_Node000001_Node000003"><a xlink:title=" ">
<path fill="none" stroke="#63b8ff" d="M114.4,-21.22C122.46,-20.1 130.75,-18.96 138.82,-17.84"/>
<polygon fill="#63b8ff" stroke="#63b8ff" points="139.09,-21.33 148.52,-16.5 138.13,-14.4 139.09,-21.33"/>
</a>
</g>
</g>
<!-- Node4 -->
<g id="Node000004" class="node">
<title>Node4</title>
<g id="a_Node000004"><a xlink:href="classfsfml.html#a0ad8f537cba99a886634de5d16d889c3" target="_top" xlink:title=" ">
<polygon fill="white" stroke="#666666" points="360.75,-20 278.75,-20 278.75,0 360.75,0 360.75,-20"/>
<text text-anchor="middle" x="319.75" y="-6.5" font-family="Helvetica,sans-Serif" font-size="10.00">fsfml::OnSprite</text>
</a>
</g>
</g>
<!-- Node3&#45;&gt;Node4 -->
<g id="edge3_Node000003_Node000004" class="edge">
<title>Node3&#45;&gt;Node4</title>
<g id="a_edge3_Node000003_Node000004"><a xlink:title=" ">
<path fill="none" stroke="#63b8ff" d="M242.99,-10C250.85,-10 259.07,-10 267.07,-10"/>
<polygon fill="#63b8ff" stroke="#63b8ff" points="267.07,-13.5 277.07,-10 267.07,-6.5 267.07,-13.5"/>
</a>
</g>
</g>
</g>
</svg>
