<?xml version="1.0" encoding="UTF-8" standalone="no"?>
<!DOCTYPE svg PUBLIC "-//W3C//DTD SVG 1.1//EN"
 "http://www.w3.org/Graphics/SVG/1.1/DTD/svg11.dtd">
<!-- Generated by graphviz version 12.2.0 (20241103.1931)
 -->
<!-- Title: MainTagPanel::setTagLine Pages: 1 -->
<!--zoomable 134 -->

<svg id="main" version="1.1" xmlns="http://www.w3.org/2000/svg" xmlns:xlink="http://www.w3.org/1999/xlink" xml:space="preserve" onload="init(evt)">

<style type="text/css"><![CDATA[
.node, .edge {opacity: 0.7;}
.node.selected, .edge.selected {opacity: 1;}
.edge:hover path { stroke: red; }
.edge:hover polygon { stroke: red; fill: red; }
]]></style>

<defs>
  <circle id="rim" cx="0" cy="0" r="7"/>
  <circle id="rim2" cx="0" cy="0" r="3.5"/>
  <g id="zoomPlus">
    <use xlink:href="#rim" fill="#404040"><set attributeName="fill" to="#808080" begin="zoomplus.mouseover" end="zoomplus.mouseout"/></use>
    <path d="M-4,0h8M0,-4v8" fill="none" stroke="white" stroke-width="1.5" pointer-events="none"/>
  </g>
  <g id="zoomMin">
    <use xlink:href="#rim" fill="#404040"><set attributeName="fill" to="#808080" begin="zoomminus.mouseover" end="zoomminus.mouseout"/></use>
    <path d="M-4,0h8" fill="none" stroke="white" stroke-width="1.5" pointer-events="none"/>
  </g>
  <g id="arrowUp" transform="translate(30 24)">
    <use xlink:href="#rim"/>
    <path pointer-events="none" fill="none" stroke="white" stroke-width="1.5" d="M0,-3.0v7 M-2.5,-0.5L0,-3.0L2.5,-0.5"/>
  </g>
  <g id="arrowRight" transform="rotate(90) translate(36 -43)">
    <use xlink:href="#rim"/>
    <path pointer-events="none" fill="none" stroke="white" stroke-width="1.5" d="M0,-3.0v7 M-2.5,-0.5L0,-3.0L2.5,-0.5"/>
  </g>
  <g id="arrowDown" transform="rotate(180) translate(-30 -48)">
    <use xlink:href="#rim"/>
    <path pointer-events="none" fill="none" stroke="white" stroke-width="1.5" d="M0,-3.0v7 M-2.5,-0.5L0,-3.0L2.5,-0.5"/>
  </g>
  <g id="arrowLeft" transform="rotate(270) translate(-36 17)">
    <use xlink:href="#rim"/>
    <path pointer-events="none" fill="none" stroke="white" stroke-width="1.5" d="M0,-3.0v7 M-2.5,-0.5L0,-3.0L2.5,-0.5"/>
  </g>
  <g id="resetDef">
    <use xlink:href="#rim2" fill="#404040"><set attributeName="fill" to="#808080" begin="reset.mouseover" end="reset.mouseout"/></use>
  </g>
</defs>
<script type="application/ecmascript">
var viewWidth = 1039;
var viewHeight = 134;
var sectionId = 'dynsection-5';
</script>
<script type="application/ecmascript" xlink:href="svg.min.js"/>
<svg id="graph" class="graph">
<g id="viewport">
<title>MainTagPanel::setTagLine</title>
<!-- Node1 -->
<g id="Node000001" class="node">
<title>Node1</title>
<g id="a_Node000001"><a xlink:title=" ">
<polygon fill="#999999" stroke="#666666" points="130.75,-60 0,-60 0,-40 130.75,-40 130.75,-60"/>
<text text-anchor="middle" x="65.38" y="-46.5" font-family="Helvetica,sans-Serif" font-size="10.00">MainTagPanel::setTagLine</text>
</a>
</g>
</g>
<!-- Node2 -->
<g id="Node000002" class="node">
<title>Node2</title>
<g id="a_Node000002"><a xlink:href="class_flow_tag_panel.html#a94ca55612cbf5a6300712ffaee243c9b" target="_top" xlink:title=" ">
<polygon fill="white" stroke="#666666" points="299.75,-82 177.25,-82 177.25,-62 299.75,-62 299.75,-82"/>
<text text-anchor="middle" x="238.5" y="-68.5" font-family="Helvetica,sans-Serif" font-size="10.00">FlowTagPanel::addHider</text>
</a>
</g>
</g>
<!-- Node1&#45;&gt;Node2 -->
<g id="edge1_Node000001_Node000002" class="edge">
<title>Node1&#45;&gt;Node2</title>
<g id="a_edge1_Node000001_Node000002"><a xlink:title=" ">
<path fill="none" stroke="#63b8ff" d="M131.07,-58.32C142.36,-59.77 154.16,-61.29 165.63,-62.76"/>
<polygon fill="#63b8ff" stroke="#63b8ff" points="165.08,-66.22 175.45,-64.02 165.97,-59.28 165.08,-66.22"/>
</a>
</g>
</g>
<!-- Node14 -->
<g id="Node000014" class="node">
<title>Node14</title>
<g id="a_Node000014"><a xlink:href="class_tag_panel.html#a01e839de7aa3bedbe9a7bc1f152a02f8" target="_top" xlink:title=" ">
<polygon fill="white" stroke="#666666" points="310.25,-41 166.75,-41 166.75,-21 310.25,-21 310.25,-41"/>
<text text-anchor="middle" x="238.5" y="-27.5" font-family="Helvetica,sans-Serif" font-size="10.00">TagPanel::setStaticTagName</text>
</a>
</g>
</g>
<!-- Node1&#45;&gt;Node14 -->
<g id="edge15_Node000001_Node000014" class="edge">
<title>Node1&#45;&gt;Node14</title>
<g id="a_edge15_Node000001_Node000014"><a xlink:title=" ">
<path fill="none" stroke="#63b8ff" d="M131.07,-42.82C138.92,-41.95 147.02,-41.05 155.08,-40.15"/>
<polygon fill="#63b8ff" stroke="#63b8ff" points="155.36,-43.64 164.91,-39.06 154.59,-36.68 155.36,-43.64"/>
</a>
</g>
</g>
<!-- Node3 -->
<g id="Node000003" class="node">
<title>Node3</title>
<g id="a_Node000003"><a xlink:href="class_tag_panel.html#a43c96ffa9523c002fb96126500209ce8" target="_top" xlink:title=" ">
<polygon fill="white" stroke="#666666" points="470.25,-126 355.25,-126 355.25,-106 470.25,-106 470.25,-126"/>
<text text-anchor="middle" x="412.75" y="-112.5" font-family="Helvetica,sans-Serif" font-size="10.00">TagPanel::SetLineFont</text>
</a>
</g>
</g>
<!-- Node2&#45;&gt;Node3 -->
<g id="edge2_Node000002_Node000003" class="edge">
<title>Node2&#45;&gt;Node3</title>
<g id="a_edge2_Node000002_Node000003"><a xlink:title=" ">
<path fill="none" stroke="#63b8ff" d="M280.32,-82.43C304.15,-88.52 334.45,-96.26 359.96,-102.77"/>
<polygon fill="#63b8ff" stroke="#63b8ff" points="358.9,-106.11 369.46,-105.2 360.63,-99.33 358.9,-106.11"/>
</a>
</g>
</g>
<!-- Node4 -->
<g id="Node000004" class="node">
<title>Node4</title>
<g id="a_Node000004"><a xlink:href="class_flow_tag_panel.html#abf730289f88b08402ed5d924d362814c" target="_top" xlink:title=" ">
<polygon fill="white" stroke="#666666" points="479.25,-88 346.25,-88 346.25,-56 479.25,-56 479.25,-88"/>
<text text-anchor="start" x="354.25" y="-74.5" font-family="Helvetica,sans-Serif" font-size="10.00">FlowTagPanel::switchFlow</text>
<text text-anchor="middle" x="412.75" y="-62.5" font-family="Helvetica,sans-Serif" font-size="10.00">TagVisibility</text>
</a>
</g>
</g>
<!-- Node2&#45;&gt;Node4 -->
<g id="edge3_Node000002_Node000004" class="edge">
<title>Node2&#45;&gt;Node4</title>
<g id="a_edge3_Node000002_Node000004"><a xlink:title=" ">
<path fill="none" stroke="#63b8ff" d="M300.23,-72C311.34,-72 323.08,-72 334.6,-72"/>
<polygon fill="#63b8ff" stroke="#63b8ff" points="334.5,-75.5 344.5,-72 334.5,-68.5 334.5,-75.5"/>
</a>
</g>
</g>
<!-- Node5 -->
<g id="Node000005" class="node">
<title>Node5</title>
<g id="a_Node000005"><a xlink:href="class_flow_tag_panel.html#a38a7e2167532623906ae82c0b92728c2" target="_top" xlink:title=" ">
<polygon fill="white" stroke="#666666" points="661.75,-126 515.25,-126 515.25,-106 661.75,-106 661.75,-126"/>
<text text-anchor="middle" x="588.5" y="-112.5" font-family="Helvetica,sans-Serif" font-size="10.00">FlowTagPanel::childrenVisible</text>
</a>
</g>
</g>
<!-- Node4&#45;&gt;Node5 -->
<g id="edge4_Node000004_Node000005" class="edge">
<title>Node4&#45;&gt;Node5</title>
<g id="a_edge4_Node000004_Node000005"><a xlink:title=" ">
<path fill="none" stroke="#63b8ff" d="M478.45,-88.38C497.14,-93.12 517.29,-98.22 535.13,-102.74"/>
<polygon fill="#63b8ff" stroke="#63b8ff" points="534.17,-106.11 544.72,-105.17 535.89,-99.32 534.17,-106.11"/>
</a>
</g>
</g>
<!-- Node6 -->
<g id="Node000006" class="node">
<title>Node6</title>
<g id="a_Node000006"><a xlink:href="class_flow_tag_panel.html#ae4f118933196a60a71cfa6b4b9b69894" target="_top" xlink:title=" ">
<polygon fill="white" stroke="#666666" points="655,-88 522,-88 522,-56 655,-56 655,-88"/>
<text text-anchor="start" x="530" y="-74.5" font-family="Helvetica,sans-Serif" font-size="10.00">FlowTagPanel::setChildren</text>
<text text-anchor="middle" x="588.5" y="-62.5" font-family="Helvetica,sans-Serif" font-size="10.00">Visibility</text>
</a>
</g>
</g>
<!-- Node4&#45;&gt;Node6 -->
<g id="edge5_Node000004_Node000006" class="edge">
<title>Node4&#45;&gt;Node6</title>
<g id="a_edge5_Node000004_Node000006"><a xlink:title=" ">
<path fill="none" stroke="#63b8ff" d="M479.44,-72C489.49,-72 499.95,-72 510.23,-72"/>
<polygon fill="#63b8ff" stroke="#63b8ff" points="510.21,-75.5 520.21,-72 510.21,-68.5 510.21,-75.5"/>
</a>
</g>
</g>
<!-- Node11 -->
<g id="Node000011" class="node">
<title>Node11</title>
<g id="a_Node000011"><a xlink:href="class_flow_tag_panel.html#a482b23630874fb9f414c9b029501aadd" target="_top" xlink:title=" ">
<polygon fill="white" stroke="#666666" points="659.5,-20 517.5,-20 517.5,0 659.5,0 659.5,-20"/>
<text text-anchor="middle" x="588.5" y="-6.5" font-family="Helvetica,sans-Serif" font-size="10.00">FlowTagPanel::updateLayout</text>
</a>
</g>
</g>
<!-- Node4&#45;&gt;Node11 -->
<g id="edge11_Node000004_Node000011" class="edge">
<title>Node4&#45;&gt;Node11</title>
<g id="a_edge11_Node000004_Node000011"><a xlink:title=" ">
<path fill="none" stroke="#63b8ff" d="M459.86,-55.55C487.13,-45.82 521.33,-33.61 547.46,-24.29"/>
<polygon fill="#63b8ff" stroke="#63b8ff" points="548.46,-27.65 556.7,-20.99 546.11,-21.05 548.46,-27.65"/>
</a>
</g>
</g>
<!-- Node7 -->
<g id="Node000007" class="node">
<title>Node7</title>
<g id="a_Node000007"><a xlink:href="class_flow_tag_panel.html#a1822bbc91daca9379e090f363e870d40" target="_top" xlink:title=" ">
<polygon fill="white" stroke="#666666" points="837.88,-70 700.38,-70 700.38,-50 837.88,-50 837.88,-70"/>
<text text-anchor="middle" x="769.12" y="-56.5" font-family="Helvetica,sans-Serif" font-size="10.00">FlowTagPanel::hideChildren</text>
</a>
</g>
</g>
<!-- Node6&#45;&gt;Node7 -->
<g id="edge6_Node000006_Node000007" class="edge">
<title>Node6&#45;&gt;Node7</title>
<g id="a_edge6_Node000006_Node000007"><a xlink:title=" ">
<path fill="none" stroke="#63b8ff" d="M655.25,-67.58C666.22,-66.85 677.7,-66.07 688.96,-65.32"/>
<polygon fill="#63b8ff" stroke="#63b8ff" points="688.86,-68.83 698.61,-64.67 688.4,-61.85 688.86,-68.83"/>
</a>
</g>
</g>
<!-- Node10 -->
<g id="Node000010" class="node">
<title>Node10</title>
<g id="a_Node000010"><a xlink:href="class_flow_tag_panel.html#a4c02b86a1776b70cdd14afd50de4736b" target="_top" xlink:title=" ">
<polygon fill="white" stroke="#666666" points="840.5,-108 697.75,-108 697.75,-88 840.5,-88 840.5,-108"/>
<text text-anchor="middle" x="769.12" y="-94.5" font-family="Helvetica,sans-Serif" font-size="10.00">FlowTagPanel::showChildren</text>
</a>
</g>
</g>
<!-- Node6&#45;&gt;Node10 -->
<g id="edge9_Node000006_Node000010" class="edge">
<title>Node6&#45;&gt;Node10</title>
<g id="a_edge9_Node000006_Node000010"><a xlink:title=" ">
<path fill="none" stroke="#63b8ff" d="M655.25,-81.57C665.33,-83.04 675.85,-84.57 686.22,-86.08"/>
<polygon fill="#63b8ff" stroke="#63b8ff" points="685.51,-89.51 695.91,-87.49 686.52,-82.58 685.51,-89.51"/>
</a>
</g>
</g>
<!-- Node8 -->
<g id="Node000008" class="node">
<title>Node8</title>
<g id="a_Node000008"><a xlink:href="class_flow_tag_panel.html#a908b8a9b0319c8c60588dff9296e9baf" target="_top" xlink:title=" ">
<polygon fill="white" stroke="#666666" points="1030.5,-108 876.5,-108 876.5,-88 1030.5,-88 1030.5,-108"/>
<text text-anchor="middle" x="953.5" y="-94.5" font-family="Helvetica,sans-Serif" font-size="10.00">FlowTagPanel::getChildrenTags</text>
</a>
</g>
</g>
<!-- Node7&#45;&gt;Node8 -->
<g id="edge7_Node000007_Node000008" class="edge">
<title>Node7&#45;&gt;Node8</title>
<g id="a_edge7_Node000007_Node000008"><a xlink:title=" ">
<path fill="none" stroke="#63b8ff" d="M820.44,-70.48C842.37,-75.05 868.27,-80.45 891.3,-85.25"/>
<polygon fill="#63b8ff" stroke="#63b8ff" points="890.36,-88.63 900.86,-87.24 891.79,-81.77 890.36,-88.63"/>
</a>
</g>
</g>
<!-- Node9 -->
<g id="Node000009" class="node">
<title>Node9</title>
<g id="a_Node000009"><a xlink:href="class_tag_panel.html#a975da9b33d0c94992472b291df4aadbe" target="_top" xlink:title=" ">
<polygon fill="white" stroke="#666666" points="1008.75,-70 898.25,-70 898.25,-50 1008.75,-50 1008.75,-70"/>
<text text-anchor="middle" x="953.5" y="-56.5" font-family="Helvetica,sans-Serif" font-size="10.00">TagPanel::getIndexOf</text>
</a>
</g>
</g>
<!-- Node7&#45;&gt;Node9 -->
<g id="edge8_Node000007_Node000009" class="edge">
<title>Node7&#45;&gt;Node9</title>
<g id="a_edge8_Node000007_Node000009"><a xlink:title=" ">
<path fill="none" stroke="#63b8ff" d="M838.29,-60C854.09,-60 870.87,-60 886.56,-60"/>
<polygon fill="#63b8ff" stroke="#63b8ff" points="886.26,-63.5 896.26,-60 886.26,-56.5 886.26,-63.5"/>
</a>
</g>
</g>
<!-- Node10&#45;&gt;Node8 -->
<g id="edge10_Node000010_Node000008" class="edge">
<title>Node10&#45;&gt;Node8</title>
<g id="a_edge10_Node000010_Node000008"><a xlink:title=" ">
<path fill="none" stroke="#63b8ff" d="M840.9,-98C848.72,-98 856.76,-98 864.76,-98"/>
<polygon fill="#63b8ff" stroke="#63b8ff" points="864.51,-101.5 874.51,-98 864.51,-94.5 864.51,-101.5"/>
</a>
</g>
</g>
<!-- Node11&#45;&gt;Node11 -->
<g id="edge14_Node000011_Node000011" class="edge">
<title>Node11&#45;&gt;Node11</title>
<g id="a_edge14_Node000011_Node000011"><a xlink:title=" ">
<path fill="none" stroke="#63b8ff" d="M560.58,-20.34C548.64,-28.98 557.95,-38 588.5,-38 605.68,-38 616.15,-35.14 619.89,-31.11"/>
<polygon fill="#63b8ff" stroke="#63b8ff" points="623.28,-30.23 616.89,-21.78 616.62,-32.37 623.28,-30.23"/>
</a>
</g>
</g>
<!-- Node12 -->
<g id="Node000012" class="node">
<title>Node12</title>
<g id="a_Node000012"><a xlink:href="_tag_panel_8cpp.html#a2f4c4fdbb29d8e8fadcbbd9673b3c370" target="_top" xlink:title=" ">
<polygon fill="white" stroke="#666666" points="807.12,-20 731.12,-20 731.12,0 807.12,0 807.12,-20"/>
<text text-anchor="middle" x="769.12" y="-6.5" font-family="Helvetica,sans-Serif" font-size="10.00">GetParentTag</text>
</a>
</g>
</g>
<!-- Node11&#45;&gt;Node12 -->
<g id="edge12_Node000011_Node000012" class="edge">
<title>Node11&#45;&gt;Node12</title>
<g id="a_edge12_Node000011_Node000012"><a xlink:title=" ">
<path fill="none" stroke="#63b8ff" d="M659.84,-10C679.8,-10 701.08,-10 719.44,-10"/>
<polygon fill="#63b8ff" stroke="#63b8ff" points="719.24,-13.5 729.24,-10 719.24,-6.5 719.24,-13.5"/>
</a>
</g>
</g>
<!-- Node13 -->
<g id="Node000013" class="node">
<title>Node13</title>
<g id="a_Node000013"><a xlink:href="class_tag_panel.html#af3b5b6fc2b16171af7cab7b0d79d9ed7" target="_top" xlink:title=" ">
<polygon fill="white" stroke="#666666" points="1013.62,-20 893.38,-20 893.38,0 1013.62,0 1013.62,-20"/>
<text text-anchor="middle" x="953.5" y="-6.5" font-family="Helvetica,sans-Serif" font-size="10.00">TagPanel::getParentTag</text>
</a>
</g>
</g>
<!-- Node12&#45;&gt;Node13 -->
<g id="edge13_Node000012_Node000013" class="edge">
<title>Node12&#45;&gt;Node13</title>
<g id="a_edge13_Node000012_Node000013"><a xlink:title=" ">
<path fill="none" stroke="#63b8ff" d="M807.47,-10C828.8,-10 856.25,-10 881.52,-10"/>
<polygon fill="#63b8ff" stroke="#63b8ff" points="881.43,-13.5 891.43,-10 881.43,-6.5 881.43,-13.5"/>
</a>
</g>
</g>
<!-- Node15 -->
<g id="Node000015" class="node">
<title>Node15</title>
<g id="a_Node000015"><a xlink:href="class_tag_panel.html#af2926b62ee8940d7aa87591255623814" target="_top" xlink:title=" ">
<polygon fill="white" stroke="#666666" points="472.88,-38 352.62,-38 352.62,-18 472.88,-18 472.88,-38"/>
<text text-anchor="middle" x="412.75" y="-24.5" font-family="Helvetica,sans-Serif" font-size="10.00">TagPanel::addTagName</text>
</a>
</g>
</g>
<!-- Node14&#45;&gt;Node15 -->
<g id="edge16_Node000014_Node000015" class="edge">
<title>Node14&#45;&gt;Node15</title>
<g id="a_edge16_Node000014_Node000015"><a xlink:title=" ">
<path fill="none" stroke="#63b8ff" d="M310.56,-29.76C320.65,-29.59 331.04,-29.41 341.13,-29.23"/>
<polygon fill="#63b8ff" stroke="#63b8ff" points="340.92,-32.73 350.86,-29.06 340.8,-25.74 340.92,-32.73"/>
</a>
</g>
</g>
</g>
</svg>

<g id="navigator" transform="translate(0 0)" fill="#404254">
  <rect fill="#f2f5e9" fill-opacity="0.5" stroke="#606060" stroke-width=".5" x="0" y="0" width="60" height="60"/>
  <use id="zoomplus" xlink:href="#zoomPlus" x="17" y="9" onmousedown="handleZoom(evt,'in')"/>
  <use id="zoomminus" xlink:href="#zoomMin" x="42" y="9" onmousedown="handleZoom(evt,'out')"/>
  <use id="reset" xlink:href="#resetDef" x="30" y="36" onmousedown="handleReset()"/>
   <use id="arrowup" xlink:href="#arrowUp" x="0" y="0" onmousedown="handlePan(0,-1)"/>
  <use id="arrowright" xlink:href="#arrowRight" x="0" y="0" onmousedown="handlePan(1,0)"/>
  <use id="arrowdown" xlink:href="#arrowDown" x="0" y="0" onmousedown="handlePan(0,1)"/>
  <use id="arrowleft" xlink:href="#arrowLeft" x="0" y="0" onmousedown="handlePan(-1,0)"/>
</g>
<svg viewBox="0 0 15 15" width="100%" height="30px" preserveAspectRatio="xMaxYMin meet">
 <g id="arrow_out" transform="scale(0.3 0.3)">
  <a xlink:href="class_main_tag_panel_ae0748c8b3939b1533b7ae12a9316ca78_cgraph_org.svg" target="_base">
   <rect id="button" ry="5" rx="5" y="6" x="6" height="38" width="38"
        fill="#f2f5e9" fill-opacity="0.5" stroke="#606060" stroke-width="1.0"/>
   <path id="arrow"
     d="M 11.500037,31.436501 C 11.940474,20.09759 22.043105,11.32322 32.158766,21.979434 L 37.068811,17.246167 C 37.068811,17.246167 37.088388,32 37.088388,32 L 22.160133,31.978069 C 22.160133,31.978069 26.997745,27.140456 26.997745,27.140456 C 18.528582,18.264221 13.291696,25.230495 11.500037,31.436501 z"
     style="fill:#404040;"/>
  </a>
 </g>
</svg>

<style type='text/css'>
<![CDATA[
[data-mouse-over-selected='false'] { opacity: 0.7; }
[data-mouse-over-selected='true']  { opacity: 1.0; }
]]>
</style>
<script type="application/ecmascript"><![CDATA[
document.addEventListener('DOMContentLoaded', (event) => {
  highlightEdges();
  highlightAdjacentNodes();
});
]]></script>
</svg>
