<?xml version="1.0" encoding="UTF-8" standalone="no"?>
<!DOCTYPE svg PUBLIC "-//W3C//DTD SVG 1.1//EN"
 "http://www.w3.org/Graphics/SVG/1.1/DTD/svg11.dtd">
<!-- Generated by graphviz version 12.2.0 (20241103.1931)
 -->
<!-- Title: FlowKPToken::addTokens Pages: 1 -->
<svg width="446pt" height="218pt"
 viewBox="0.00 0.00 446.00 218.00" xmlns="http://www.w3.org/2000/svg" xmlns:xlink="http://www.w3.org/1999/xlink">

<svg id="main" version="1.1" xmlns="http://www.w3.org/2000/svg" xmlns:xlink="http://www.w3.org/1999/xlink" xml:space="preserve">

<style type="text/css"><![CDATA[
.node, .edge {opacity: 0.7;}
.node.selected, .edge.selected {opacity: 1;}
.edge:hover path { stroke: red; }
.edge:hover polygon { stroke: red; fill: red; }
]]></style>
<script type="application/ecmascript" xlink:href="svg.min.js"/>
<svg id="graph" class="graph">
<g id="graph0" class="graph" transform="scale(1 1) rotate(0) translate(4 214)">
<title>FlowKPToken::addTokens</title>
<!-- Node1 -->
<g id="Node000001" class="node">
<title>Node1</title>
<g id="a_Node000001"><a xlink:title=" ">
<polygon fill="#999999" stroke="#666666" points="130,-115 0,-115 0,-95 130,-95 130,-115"/>
<text text-anchor="middle" x="65" y="-101.5" font-family="Helvetica,sans-Serif" font-size="10.00">FlowKPToken::addTokens</text>
</a>
</g>
</g>
<!-- Node2 -->
<g id="Node000002" class="node">
<title>Node2</title>
<g id="a_Node000002"><a xlink:href="class_flow_k_p_token.html#ab25c9519d5389e5abbda0b6b378ef9ad" target="_top" xlink:title=" ">
<polygon fill="white" stroke="#666666" points="277.25,-210 166,-210 166,-190 277.25,-190 277.25,-210"/>
<text text-anchor="middle" x="221.62" y="-196.5" font-family="Helvetica,sans-Serif" font-size="10.00">FlowKPToken::addCb</text>
</a>
</g>
</g>
<!-- Node1&#45;&gt;Node2 -->
<g id="edge1_Node000001_Node000002" class="edge">
<title>Node1&#45;&gt;Node2</title>
<g id="a_edge1_Node000001_Node000002"><a xlink:title=" ">
<path fill="none" stroke="#63b8ff" d="M77.18,-115.41C94.84,-131.41 130.83,-162.14 166,-181 168.82,-182.51 171.79,-183.94 174.82,-185.29"/>
<polygon fill="#63b8ff" stroke="#63b8ff" points="173.27,-188.44 183.85,-188.96 175.9,-181.95 173.27,-188.44"/>
</a>
</g>
</g>
<!-- Node6 -->
<g id="Node000006" class="node">
<title>Node6</title>
<g id="a_Node000006"><a xlink:href="class_k_p_token.html#a0a95e55ef2440fbaa21cd74442eb3c65" target="_top" xlink:title=" ">
<polygon fill="white" stroke="#666666" points="266.75,-172 176.5,-172 176.5,-152 266.75,-152 266.75,-172"/>
<text text-anchor="middle" x="221.62" y="-158.5" font-family="Helvetica,sans-Serif" font-size="10.00">KPToken::addCp</text>
</a>
</g>
</g>
<!-- Node1&#45;&gt;Node6 -->
<g id="edge5_Node000001_Node000006" class="edge">
<title>Node1&#45;&gt;Node6</title>
<g id="a_edge5_Node000001_Node000006"><a xlink:title=" ">
<path fill="none" stroke="#63b8ff" d="M92.66,-115.37C112.76,-123.13 141.04,-133.92 166,-143 170.35,-144.58 174.91,-146.21 179.46,-147.82"/>
<polygon fill="#63b8ff" stroke="#63b8ff" points="177.92,-150.99 188.52,-151 180.24,-144.39 177.92,-150.99"/>
</a>
</g>
</g>
<!-- Node7 -->
<g id="Node000007" class="node">
<title>Node7</title>
<g id="a_Node000007"><a xlink:href="class_iterator_list.html#af5c370ccb8698e2a9fb0714782d57203" target="_top" xlink:title=" ">
<polygon fill="white" stroke="#666666" points="419.25,-96 332,-96 332,-76 419.25,-76 419.25,-96"/>
<text text-anchor="middle" x="375.62" y="-82.5" font-family="Helvetica,sans-Serif" font-size="10.00">IteratorList::next</text>
</a>
</g>
</g>
<!-- Node1&#45;&gt;Node7 -->
<g id="edge20_Node000001_Node000007" class="edge">
<title>Node1&#45;&gt;Node7</title>
<g id="a_edge20_Node000001_Node000007"><a xlink:title=" ">
<path fill="none" stroke="#63b8ff" d="M86.81,-94.53C106.6,-85.2 137.5,-72.23 166,-67 218.43,-57.37 279.21,-65 321.59,-73.27"/>
<polygon fill="#63b8ff" stroke="#63b8ff" points="320.78,-76.68 331.28,-75.25 322.18,-69.82 320.78,-76.68"/>
</a>
</g>
</g>
<!-- Node8 -->
<g id="Node000008" class="node">
<title>Node8</title>
<g id="a_Node000008"><a xlink:href="class_flow_k_p_token.html#a2a3c69d4e82ac4a76c1f39ea505a64e7" target="_top" xlink:title=" ">
<polygon fill="white" stroke="#666666" points="277.25,-134 166,-134 166,-114 277.25,-114 277.25,-134"/>
<text text-anchor="middle" x="221.62" y="-120.5" font-family="Helvetica,sans-Serif" font-size="10.00">FlowKPToken::addOb</text>
</a>
</g>
</g>
<!-- Node1&#45;&gt;Node8 -->
<g id="edge10_Node000001_Node000008" class="edge">
<title>Node1&#45;&gt;Node8</title>
<g id="a_edge10_Node000001_Node000008"><a xlink:title=" ">
<path fill="none" stroke="#63b8ff" d="M130.23,-112.89C138.24,-113.88 146.44,-114.88 154.48,-115.87"/>
<polygon fill="#63b8ff" stroke="#63b8ff" points="153.84,-119.32 164.19,-117.07 154.69,-112.37 153.84,-119.32"/>
</a>
</g>
</g>
<!-- Node9 -->
<g id="Node000009" class="node">
<title>Node9</title>
<g id="a_Node000009"><a xlink:href="class_k_p_token.html#a0d6ee24aa23095edb2b1c9ba4baedc03" target="_top" xlink:title=" ">
<polygon fill="white" stroke="#666666" points="266.75,-96 176.5,-96 176.5,-76 266.75,-76 266.75,-96"/>
<text text-anchor="middle" x="221.62" y="-82.5" font-family="Helvetica,sans-Serif" font-size="10.00">KPToken::addOp</text>
</a>
</g>
</g>
<!-- Node1&#45;&gt;Node9 -->
<g id="edge15_Node000001_Node000009" class="edge">
<title>Node1&#45;&gt;Node9</title>
<g id="a_edge15_Node000001_Node000009"><a xlink:title=" ">
<path fill="none" stroke="#63b8ff" d="M130.23,-97.11C141.69,-95.7 153.53,-94.24 164.73,-92.87"/>
<polygon fill="#63b8ff" stroke="#63b8ff" points="165.12,-96.35 174.62,-91.65 164.27,-89.4 165.12,-96.35"/>
</a>
</g>
</g>
<!-- Node10 -->
<g id="Node000010" class="node">
<title>Node10</title>
<g id="a_Node000010"><a xlink:href="class_token.html#af13c7d494e5fe273558cb37286fa7185" target="_top" xlink:title=" ">
<polygon fill="white" stroke="#666666" points="269.38,-20 173.88,-20 173.88,0 269.38,0 269.38,-20"/>
<text text-anchor="middle" x="221.62" y="-6.5" font-family="Helvetica,sans-Serif" font-size="10.00">Token::updateRes</text>
</a>
</g>
</g>
<!-- Node1&#45;&gt;Node10 -->
<g id="edge21_Node000001_Node000010" class="edge">
<title>Node1&#45;&gt;Node10</title>
<g id="a_edge21_Node000001_Node000010"><a xlink:title=" ">
<path fill="none" stroke="#63b8ff" d="M78.7,-94.7C97.16,-80.02 132.84,-52.79 166,-34 171.52,-30.87 177.52,-27.87 183.47,-25.1"/>
<polygon fill="#63b8ff" stroke="#63b8ff" points="184.89,-28.3 192.6,-21.04 182.04,-21.91 184.89,-28.3"/>
</a>
</g>
</g>
<!-- Node3 -->
<g id="Node000003" class="node">
<title>Node3</title>
<g id="a_Node000003"><a xlink:href="class_token.html#a4c0f84a84656f0b5e28c4193c3c13ea3" target="_top" xlink:title=" ">
<polygon fill="white" stroke="#666666" points="418.12,-210 333.12,-210 333.12,-190 418.12,-190 418.12,-210"/>
<text text-anchor="middle" x="375.62" y="-196.5" font-family="Helvetica,sans-Serif" font-size="10.00">Token::addError</text>
</a>
</g>
</g>
<!-- Node2&#45;&gt;Node3 -->
<g id="edge2_Node000002_Node000003" class="edge">
<title>Node2&#45;&gt;Node3</title>
<g id="a_edge2_Node000002_Node000003"><a xlink:title=" ">
<path fill="none" stroke="#63b8ff" d="M277.5,-200C291.86,-200 307.31,-200 321.57,-200"/>
<polygon fill="#63b8ff" stroke="#63b8ff" points="321.2,-203.5 331.2,-200 321.2,-196.5 321.2,-203.5"/>
</a>
</g>
</g>
<!-- Node4 -->
<g id="Node000004" class="node">
<title>Node4</title>
<g id="a_Node000004"><a xlink:href="class_iterator_list.html#a4acf162e4a194bddd3c2fe26b073f45a" target="_top" xlink:title=" ">
<polygon fill="white" stroke="#666666" points="438,-172 313.25,-172 313.25,-152 438,-152 438,-172"/>
<text text-anchor="middle" x="375.62" y="-158.5" font-family="Helvetica,sans-Serif" font-size="10.00">IteratorList::currentToken</text>
</a>
</g>
</g>
<!-- Node2&#45;&gt;Node4 -->
<g id="edge3_Node000002_Node000004" class="edge">
<title>Node2&#45;&gt;Node4</title>
<g id="a_edge3_Node000002_Node000004"><a xlink:title=" ">
<path fill="none" stroke="#63b8ff" d="M264.56,-189.52C282.26,-185.09 303.05,-179.89 321.78,-175.21"/>
<polygon fill="#63b8ff" stroke="#63b8ff" points="322.5,-178.64 331.36,-172.82 320.81,-171.85 322.5,-178.64"/>
</a>
</g>
</g>
<!-- Node5 -->
<g id="Node000005" class="node">
<title>Node5</title>
<g id="a_Node000005"><a xlink:href="class_iterator_list.html#a2ebc1118094754b7d333b0a9d257d12b" target="_top" xlink:title=" ">
<polygon fill="white" stroke="#666666" points="423,-134 328.25,-134 328.25,-114 423,-114 423,-134"/>
<text text-anchor="middle" x="375.62" y="-120.5" font-family="Helvetica,sans-Serif" font-size="10.00">IteratorList::ended</text>
</a>
</g>
</g>
<!-- Node2&#45;&gt;Node5 -->
<g id="edge4_Node000002_Node000005" class="edge">
<title>Node2&#45;&gt;Node5</title>
<g id="a_edge4_Node000002_Node000005"><a xlink:title=" ">
<path fill="none" stroke="#63b8ff" d="M260.47,-189.51C266.31,-187.14 272.11,-184.32 277.25,-181 296.79,-168.38 293.49,-155.29 313.25,-143 315.65,-141.51 318.18,-140.12 320.79,-138.84"/>
<polygon fill="#63b8ff" stroke="#63b8ff" points="321.94,-142.15 329.74,-134.98 319.17,-135.72 321.94,-142.15"/>
</a>
</g>
</g>
<!-- Node6&#45;&gt;Node3 -->
<g id="edge6_Node000006_Node000003" class="edge">
<title>Node6&#45;&gt;Node3</title>
<g id="a_edge6_Node000006_Node000003"><a xlink:title=" ">
<path fill="none" stroke="#63b8ff" d="M264.56,-172.48C282.26,-176.91 303.05,-182.11 321.78,-186.79"/>
<polygon fill="#63b8ff" stroke="#63b8ff" points="320.81,-190.15 331.36,-189.18 322.5,-183.36 320.81,-190.15"/>
</a>
</g>
</g>
<!-- Node6&#45;&gt;Node4 -->
<g id="edge7_Node000006_Node000004" class="edge">
<title>Node6&#45;&gt;Node4</title>
<g id="a_edge7_Node000006_Node000004"><a xlink:title=" ">
<path fill="none" stroke="#63b8ff" d="M267,-162C277.89,-162 289.83,-162 301.68,-162"/>
<polygon fill="#63b8ff" stroke="#63b8ff" points="301.46,-165.5 311.46,-162 301.45,-158.5 301.46,-165.5"/>
</a>
</g>
</g>
<!-- Node6&#45;&gt;Node5 -->
<g id="edge8_Node000006_Node000005" class="edge">
<title>Node6&#45;&gt;Node5</title>
<g id="a_edge8_Node000006_Node000005"><a xlink:title=" ">
<path fill="none" stroke="#63b8ff" d="M264.56,-151.52C282.26,-147.09 303.05,-141.89 321.78,-137.21"/>
<polygon fill="#63b8ff" stroke="#63b8ff" points="322.5,-140.64 331.36,-134.82 320.81,-133.85 322.5,-140.64"/>
</a>
</g>
</g>
<!-- Node6&#45;&gt;Node7 -->
<g id="edge9_Node000006_Node000007" class="edge">
<title>Node6&#45;&gt;Node7</title>
<g id="a_edge9_Node000006_Node000007"><a xlink:title=" ">
<path fill="none" stroke="#63b8ff" d="M260.47,-151.51C266.31,-149.14 272.11,-146.32 277.25,-143 296.79,-130.38 293.49,-117.29 313.25,-105 315.83,-103.4 318.55,-101.92 321.35,-100.56"/>
<polygon fill="#63b8ff" stroke="#63b8ff" points="322.54,-103.86 330.38,-96.73 319.81,-97.42 322.54,-103.86"/>
</a>
</g>
</g>
<!-- Node8&#45;&gt;Node3 -->
<g id="edge11_Node000008_Node000003" class="edge">
<title>Node8&#45;&gt;Node3</title>
<g id="a_edge11_Node000008_Node000003"><a xlink:title=" ">
<path fill="none" stroke="#63b8ff" d="M260.47,-134.49C266.31,-136.86 272.11,-139.68 277.25,-143 296.79,-155.62 293.49,-168.71 313.25,-181 316.14,-182.8 319.21,-184.44 322.39,-185.93"/>
<polygon fill="#63b8ff" stroke="#63b8ff" points="320.77,-189.05 331.35,-189.63 323.44,-182.58 320.77,-189.05"/>
</a>
</g>
</g>
<!-- Node8&#45;&gt;Node4 -->
<g id="edge12_Node000008_Node000004" class="edge">
<title>Node8&#45;&gt;Node4</title>
<g id="a_edge12_Node000008_Node000004"><a xlink:title=" ">
<path fill="none" stroke="#63b8ff" d="M264.56,-134.48C282.26,-138.91 303.05,-144.11 321.78,-148.79"/>
<polygon fill="#63b8ff" stroke="#63b8ff" points="320.81,-152.15 331.36,-151.18 322.5,-145.36 320.81,-152.15"/>
</a>
</g>
</g>
<!-- Node8&#45;&gt;Node5 -->
<g id="edge13_Node000008_Node000005" class="edge">
<title>Node8&#45;&gt;Node5</title>
<g id="a_edge13_Node000008_Node000005"><a xlink:title=" ">
<path fill="none" stroke="#63b8ff" d="M277.5,-124C290.13,-124 303.61,-124 316.38,-124"/>
<polygon fill="#63b8ff" stroke="#63b8ff" points="316.34,-127.5 326.34,-124 316.34,-120.5 316.34,-127.5"/>
</a>
</g>
</g>
<!-- Node8&#45;&gt;Node7 -->
<g id="edge14_Node000008_Node000007" class="edge">
<title>Node8&#45;&gt;Node7</title>
<g id="a_edge14_Node000008_Node000007"><a xlink:title=" ">
<path fill="none" stroke="#63b8ff" d="M264.56,-113.52C282.26,-109.09 303.05,-103.89 321.78,-99.21"/>
<polygon fill="#63b8ff" stroke="#63b8ff" points="322.5,-102.64 331.36,-96.82 320.81,-95.85 322.5,-102.64"/>
</a>
</g>
</g>
<!-- Node9&#45;&gt;Node3 -->
<g id="edge16_Node000009_Node000003" class="edge">
<title>Node9&#45;&gt;Node3</title>
<g id="a_edge16_Node000009_Node000003"><a xlink:title=" ">
<path fill="none" stroke="#63b8ff" d="M264.28,-96.46C268.98,-98.77 273.44,-101.58 277.25,-105 305.06,-129.97 285.01,-156.52 313.25,-181 316.07,-183.45 319.21,-185.58 322.53,-187.44"/>
<polygon fill="#63b8ff" stroke="#63b8ff" points="320.97,-190.58 331.52,-191.59 323.91,-184.22 320.97,-190.58"/>
</a>
</g>
</g>
<!-- Node9&#45;&gt;Node4 -->
<g id="edge17_Node000009_Node000004" class="edge">
<title>Node9&#45;&gt;Node4</title>
<g id="a_edge17_Node000009_Node000004"><a xlink:title=" ">
<path fill="none" stroke="#63b8ff" d="M260.47,-96.49C266.31,-98.86 272.11,-101.68 277.25,-105 296.79,-117.62 293.49,-130.71 313.25,-143 315.65,-144.49 318.18,-145.88 320.79,-147.16"/>
<polygon fill="#63b8ff" stroke="#63b8ff" points="319.17,-150.28 329.74,-151.02 321.94,-143.85 319.17,-150.28"/>
</a>
</g>
</g>
<!-- Node9&#45;&gt;Node5 -->
<g id="edge18_Node000009_Node000005" class="edge">
<title>Node9&#45;&gt;Node5</title>
<g id="a_edge18_Node000009_Node000005"><a xlink:title=" ">
<path fill="none" stroke="#63b8ff" d="M264.56,-96.48C282.26,-100.91 303.05,-106.11 321.78,-110.79"/>
<polygon fill="#63b8ff" stroke="#63b8ff" points="320.81,-114.15 331.36,-113.18 322.5,-107.36 320.81,-114.15"/>
</a>
</g>
</g>
<!-- Node9&#45;&gt;Node7 -->
<g id="edge19_Node000009_Node000007" class="edge">
<title>Node9&#45;&gt;Node7</title>
<g id="a_edge19_Node000009_Node000007"><a xlink:title=" ">
<path fill="none" stroke="#63b8ff" d="M267,-86C283.67,-86 302.82,-86 320.3,-86"/>
<polygon fill="#63b8ff" stroke="#63b8ff" points="319.99,-89.5 329.99,-86 319.99,-82.5 319.99,-89.5"/>
</a>
</g>
</g>
</g>
</svg>
</svg>

<style type='text/css'>
<![CDATA[
[data-mouse-over-selected='false'] { opacity: 0.7; }
[data-mouse-over-selected='true']  { opacity: 1.0; }
]]>
</style>
<script type="application/ecmascript"><![CDATA[
document.addEventListener('DOMContentLoaded', (event) => {
  highlightEdges();
  highlightAdjacentNodes();
});
]]></script>
</svg>
