<?xml version="1.0" encoding="UTF-8" standalone="no"?>
<!DOCTYPE svg PUBLIC "-//W3C//DTD SVG 1.1//EN"
 "http://www.w3.org/Graphics/SVG/1.1/DTD/svg11.dtd">
<!-- Generated by graphviz version 12.2.0 (20241103.1931)
 -->
<!-- Title: StoreTag::execute Pages: 1 -->
<svg width="322pt" height="66pt"
 viewBox="0.00 0.00 322.25 66.00" xmlns="http://www.w3.org/2000/svg" xmlns:xlink="http://www.w3.org/1999/xlink">
<g id="graph0" class="graph" transform="scale(1 1) rotate(0) translate(4 62)">
<title>StoreTag::execute</title>
<!-- Node1 -->
<g id="Node000001" class="node">
<title>Node1</title>
<g id="a_Node000001"><a xlink:title=" ">
<polygon fill="#999999" stroke="#666666" points="95.5,-39 0,-39 0,-19 95.5,-19 95.5,-39"/>
<text text-anchor="middle" x="47.75" y="-25.5" font-family="Helvetica,sans-Serif" font-size="10.00">StoreTag::execute</text>
</a>
</g>
</g>
<!-- Node2 -->
<g id="Node000002" class="node">
<title>Node2</title>
<g id="a_Node000002"><a xlink:href="_tags_8cpp.html#a4bab8267d7e817b59ed55ad288131821" target="_top" xlink:title=" ">
<polygon fill="white" stroke="#666666" points="207.5,-39 131.5,-39 131.5,-19 207.5,-19 207.5,-39"/>
<text text-anchor="middle" x="169.5" y="-25.5" font-family="Helvetica,sans-Serif" font-size="10.00">executeString</text>
</a>
</g>
</g>
<!-- Node1&#45;&gt;Node2 -->
<g id="edge1_Node000001_Node000002" class="edge">
<title>Node1&#45;&gt;Node2</title>
<g id="a_edge1_Node000001_Node000002"><a xlink:title=" ">
<path fill="none" stroke="#63b8ff" d="M95.73,-29C103.66,-29 111.9,-29 119.87,-29"/>
<polygon fill="#63b8ff" stroke="#63b8ff" points="119.76,-32.5 129.76,-29 119.76,-25.5 119.76,-32.5"/>
</a>
</g>
</g>
<!-- Node3 -->
<g id="Node000003" class="node">
<title>Node3</title>
<g id="a_Node000003"><a xlink:href="_tags_8cpp.html#aad17b0d48f011d5869f82adb31915669" target="_top" xlink:title=" ">
<polygon fill="white" stroke="#666666" points="312,-58 245.75,-58 245.75,-38 312,-38 312,-58"/>
<text text-anchor="middle" x="278.88" y="-44.5" font-family="Helvetica,sans-Serif" font-size="10.00">getLoadTag</text>
</a>
</g>
</g>
<!-- Node2&#45;&gt;Node3 -->
<g id="edge2_Node000002_Node000003" class="edge">
<title>Node2&#45;&gt;Node3</title>
<g id="a_edge2_Node000002_Node000003"><a xlink:title=" ">
<path fill="none" stroke="#63b8ff" d="M207.75,-35.59C216.26,-37.1 225.38,-38.71 234.13,-40.26"/>
<polygon fill="#63b8ff" stroke="#63b8ff" points="233.39,-43.68 243.85,-41.98 234.61,-36.79 233.39,-43.68"/>
</a>
</g>
</g>
<!-- Node4 -->
<g id="Node000004" class="node">
<title>Node4</title>
<g id="a_Node000004"><a xlink:href="_tags_8cpp.html#a6d2d78e110de0d5def95ebf64150ef48" target="_top" xlink:title=" ">
<polygon fill="white" stroke="#666666" points="314.25,-20 243.5,-20 243.5,0 314.25,0 314.25,-20"/>
<text text-anchor="middle" x="278.88" y="-6.5" font-family="Helvetica,sans-Serif" font-size="10.00">getStringTag</text>
</a>
</g>
</g>
<!-- Node2&#45;&gt;Node4 -->
<g id="edge3_Node000002_Node000004" class="edge">
<title>Node2&#45;&gt;Node4</title>
<g id="a_edge3_Node000002_Node000004"><a xlink:title=" ">
<path fill="none" stroke="#63b8ff" d="M207.75,-22.41C215.58,-21.02 223.91,-19.55 232.01,-18.12"/>
<polygon fill="#63b8ff" stroke="#63b8ff" points="232.48,-21.59 241.72,-16.4 231.26,-14.69 232.48,-21.59"/>
</a>
</g>
</g>
</g>
</svg>
