<?xml version="1.0" encoding="UTF-8" standalone="no"?>
<!DOCTYPE svg PUBLIC "-//W3C//DTD SVG 1.1//EN"
 "http://www.w3.org/Graphics/SVG/1.1/DTD/svg11.dtd">
<!-- Generated by graphviz version 12.2.0 (20241103.1931)
 -->
<!-- Title: fsfml::initAllPanels Pages: 1 -->
<svg width="781pt" height="104pt"
 viewBox="0.00 0.00 780.50 104.00" xmlns="http://www.w3.org/2000/svg" xmlns:xlink="http://www.w3.org/1999/xlink">
<g id="graph0" class="graph" transform="scale(1 1) rotate(0) translate(4 100)">
<title>fsfml::initAllPanels</title>
<!-- Node1 -->
<g id="Node000001" class="node">
<title>Node1</title>
<g id="a_Node000001"><a xlink:title=" ">
<polygon fill="#999999" stroke="#666666" points="97.75,-77 0,-77 0,-57 97.75,-57 97.75,-77"/>
<text text-anchor="middle" x="48.88" y="-63.5" font-family="Helvetica,sans-Serif" font-size="10.00">fsfml::initAllPanels</text>
</a>
</g>
</g>
<!-- Node2 -->
<g id="Node000002" class="node">
<title>Node2</title>
<g id="a_Node000002"><a xlink:href="classfsfml.html#a405db5ed694c7e2664a82f690eeb87d2" target="_top" xlink:title=" ">
<polygon fill="white" stroke="#666666" points="214.25,-77 133.75,-77 133.75,-57 214.25,-57 214.25,-77"/>
<text text-anchor="middle" x="174" y="-63.5" font-family="Helvetica,sans-Serif" font-size="10.00">fsfml::initMenu</text>
</a>
</g>
</g>
<!-- Node1&#45;&gt;Node2 -->
<g id="edge1_Node000001_Node000002" class="edge">
<title>Node1&#45;&gt;Node2</title>
<g id="a_edge1_Node000001_Node000002"><a xlink:title=" ">
<path fill="none" stroke="#63b8ff" d="M98.18,-67C106.06,-67 114.24,-67 122.17,-67"/>
<polygon fill="#63b8ff" stroke="#63b8ff" points="122.05,-70.5 132.05,-67 122.05,-63.5 122.05,-70.5"/>
</a>
</g>
</g>
<!-- Node3 -->
<g id="Node000003" class="node">
<title>Node3</title>
<g id="a_Node000003"><a xlink:href="classfsfml.html#ab45b3aa9320cf22836dc133f40186955" target="_top" xlink:title=" ">
<polygon fill="white" stroke="#666666" points="331.5,-77 250.25,-77 250.25,-57 331.5,-57 331.5,-77"/>
<text text-anchor="middle" x="290.88" y="-63.5" font-family="Helvetica,sans-Serif" font-size="10.00">fsfml::initPanel</text>
</a>
</g>
</g>
<!-- Node2&#45;&gt;Node3 -->
<g id="edge2_Node000002_Node000003" class="edge">
<title>Node2&#45;&gt;Node3</title>
<g id="a_edge2_Node000002_Node000003"><a xlink:title=" ">
<path fill="none" stroke="#63b8ff" d="M214.53,-67C222.3,-67 230.55,-67 238.63,-67"/>
<polygon fill="#63b8ff" stroke="#63b8ff" points="238.37,-70.5 248.37,-67 238.37,-63.5 238.37,-70.5"/>
</a>
</g>
</g>
<!-- Node4 -->
<g id="Node000004" class="node">
<title>Node4</title>
<g id="a_Node000004"><a xlink:href="classfsfml.html#a1e465443ae65cef7eff4c7eb68096edf" target="_top" xlink:title=" ">
<polygon fill="white" stroke="#666666" points="490,-96 367.5,-96 367.5,-76 490,-76 490,-96"/>
<text text-anchor="middle" x="428.75" y="-82.5" font-family="Helvetica,sans-Serif" font-size="10.00">fsfml::initElementsPanel</text>
</a>
</g>
</g>
<!-- Node3&#45;&gt;Node4 -->
<g id="edge3_Node000003_Node000004" class="edge">
<title>Node3&#45;&gt;Node4</title>
<g id="a_edge3_Node000003_Node000004"><a xlink:title=" ">
<path fill="none" stroke="#63b8ff" d="M331.91,-72.6C339.5,-73.66 347.65,-74.8 355.87,-75.95"/>
<polygon fill="#63b8ff" stroke="#63b8ff" points="355.21,-79.39 365.6,-77.31 356.18,-72.46 355.21,-79.39"/>
</a>
</g>
</g>
<!-- Node6 -->
<g id="Node000006" class="node">
<title>Node6</title>
<g id="a_Node000006"><a xlink:href="classfsfml.html#a95f6eb53223fafa2f2b06548f4d1b323" target="_top" xlink:title=" ">
<polygon fill="white" stroke="#666666" points="470.88,-58 386.62,-58 386.62,-38 470.88,-38 470.88,-58"/>
<text text-anchor="middle" x="428.75" y="-44.5" font-family="Helvetica,sans-Serif" font-size="10.00">fsfml::seePanel</text>
</a>
</g>
</g>
<!-- Node3&#45;&gt;Node6 -->
<g id="edge5_Node000003_Node000006" class="edge">
<title>Node3&#45;&gt;Node6</title>
<g id="a_edge5_Node000003_Node000006"><a xlink:title=" ">
<path fill="none" stroke="#63b8ff" d="M331.91,-61.4C345.5,-59.5 360.89,-57.35 375.3,-55.33"/>
<polygon fill="#63b8ff" stroke="#63b8ff" points="375.67,-58.82 385.09,-53.97 374.7,-51.88 375.67,-58.82"/>
</a>
</g>
</g>
<!-- Node5 -->
<g id="Node000005" class="node">
<title>Node5</title>
<g id="a_Node000005"><a xlink:href="classfsfml.html#a8172dd2d6f556c7829e9adc766ef2565" target="_top" xlink:title=" ">
<polygon fill="white" stroke="#666666" points="628.62,-96 533.12,-96 533.12,-76 628.62,-76 628.62,-96"/>
<text text-anchor="middle" x="580.88" y="-82.5" font-family="Helvetica,sans-Serif" font-size="10.00">fsfml::addElement</text>
</a>
</g>
</g>
<!-- Node4&#45;&gt;Node5 -->
<g id="edge4_Node000004_Node000005" class="edge">
<title>Node4&#45;&gt;Node5</title>
<g id="a_edge4_Node000004_Node000005"><a xlink:title=" ">
<path fill="none" stroke="#63b8ff" d="M490.38,-86C500.67,-86 511.33,-86 521.56,-86"/>
<polygon fill="#63b8ff" stroke="#63b8ff" points="521.36,-89.5 531.36,-86 521.36,-82.5 521.36,-89.5"/>
</a>
</g>
</g>
<!-- Node7 -->
<g id="Node000007" class="node">
<title>Node7</title>
<g id="a_Node000007"><a xlink:href="classfsfml.html#af5ec5a73c3deb2ebea2b7ab05e550975" target="_top" xlink:title=" ">
<polygon fill="white" stroke="#666666" points="628.62,-58 533.12,-58 533.12,-38 628.62,-38 628.62,-58"/>
<text text-anchor="middle" x="580.88" y="-44.5" font-family="Helvetica,sans-Serif" font-size="10.00">fsfml::seeElement</text>
</a>
</g>
</g>
<!-- Node6&#45;&gt;Node7 -->
<g id="edge6_Node000006_Node000007" class="edge">
<title>Node6&#45;&gt;Node7</title>
<g id="a_edge6_Node000006_Node000007"><a xlink:title=" ">
<path fill="none" stroke="#63b8ff" d="M471.17,-48C486.68,-48 504.61,-48 521.38,-48"/>
<polygon fill="#63b8ff" stroke="#63b8ff" points="521.25,-51.5 531.25,-48 521.25,-44.5 521.25,-51.5"/>
</a>
</g>
</g>
<!-- Node9 -->
<g id="Node000009" class="node">
<title>Node9</title>
<g id="a_Node000009"><a xlink:href="classfsfml.html#a527d1f9dc8024dab8b6c0af4dc8c6a60" target="_top" xlink:title=" ">
<polygon fill="white" stroke="#666666" points="635.75,-20 526,-20 526,0 635.75,0 635.75,-20"/>
<text text-anchor="middle" x="580.88" y="-6.5" font-family="Helvetica,sans-Serif" font-size="10.00">fsfml::setActivePanel</text>
</a>
</g>
</g>
<!-- Node6&#45;&gt;Node9 -->
<g id="edge8_Node000006_Node000009" class="edge">
<title>Node6&#45;&gt;Node9</title>
<g id="a_edge8_Node000006_Node000009"><a xlink:title=" ">
<path fill="none" stroke="#63b8ff" d="M471.17,-37.52C488.64,-33.09 509.19,-27.89 527.68,-23.21"/>
<polygon fill="#63b8ff" stroke="#63b8ff" points="528.29,-26.67 537.12,-20.82 526.57,-19.88 528.29,-26.67"/>
</a>
</g>
</g>
<!-- Node8 -->
<g id="Node000008" class="node">
<title>Node8</title>
<g id="a_Node000008"><a xlink:href="struct_element.html#a5df40a1ac2e9e8f5aa782f1dd40830d4" target="_top" xlink:title=" ">
<polygon fill="white" stroke="#666666" points="772.5,-58 671.75,-58 671.75,-38 772.5,-38 772.5,-58"/>
<text text-anchor="middle" x="722.12" y="-44.5" font-family="Helvetica,sans-Serif" font-size="10.00">Element::setVisible</text>
</a>
</g>
</g>
<!-- Node7&#45;&gt;Node8 -->
<g id="edge7_Node000007_Node000008" class="edge">
<title>Node7&#45;&gt;Node8</title>
<g id="a_edge7_Node000007_Node000008"><a xlink:title=" ">
<path fill="none" stroke="#63b8ff" d="M629.02,-48C639.1,-48 649.89,-48 660.4,-48"/>
<polygon fill="#63b8ff" stroke="#63b8ff" points="660.14,-51.5 670.14,-48 660.14,-44.5 660.14,-51.5"/>
</a>
</g>
</g>
</g>
</svg>
