<?xml version="1.0" encoding="UTF-8" standalone="no"?>
<!DOCTYPE svg PUBLIC "-//W3C//DTD SVG 1.1//EN"
 "http://www.w3.org/Graphics/SVG/1.1/DTD/svg11.dtd">
<!-- Generated by graphviz version 12.2.0 (20241103.1931)
 -->
<!-- Title: FlowTagPanel::addComponents Pages: 1 -->
<!--zoomable 360 -->

<svg id="main" version="1.1" xmlns="http://www.w3.org/2000/svg" xmlns:xlink="http://www.w3.org/1999/xlink" xml:space="preserve" onload="init(evt)">

<style type="text/css"><![CDATA[
.node, .edge {opacity: 0.7;}
.node.selected, .edge.selected {opacity: 1;}
.edge:hover path { stroke: red; }
.edge:hover polygon { stroke: red; fill: red; }
]]></style>

<defs>
  <circle id="rim" cx="0" cy="0" r="7"/>
  <circle id="rim2" cx="0" cy="0" r="3.5"/>
  <g id="zoomPlus">
    <use xlink:href="#rim" fill="#404040"><set attributeName="fill" to="#808080" begin="zoomplus.mouseover" end="zoomplus.mouseout"/></use>
    <path d="M-4,0h8M0,-4v8" fill="none" stroke="white" stroke-width="1.5" pointer-events="none"/>
  </g>
  <g id="zoomMin">
    <use xlink:href="#rim" fill="#404040"><set attributeName="fill" to="#808080" begin="zoomminus.mouseover" end="zoomminus.mouseout"/></use>
    <path d="M-4,0h8" fill="none" stroke="white" stroke-width="1.5" pointer-events="none"/>
  </g>
  <g id="arrowUp" transform="translate(30 24)">
    <use xlink:href="#rim"/>
    <path pointer-events="none" fill="none" stroke="white" stroke-width="1.5" d="M0,-3.0v7 M-2.5,-0.5L0,-3.0L2.5,-0.5"/>
  </g>
  <g id="arrowRight" transform="rotate(90) translate(36 -43)">
    <use xlink:href="#rim"/>
    <path pointer-events="none" fill="none" stroke="white" stroke-width="1.5" d="M0,-3.0v7 M-2.5,-0.5L0,-3.0L2.5,-0.5"/>
  </g>
  <g id="arrowDown" transform="rotate(180) translate(-30 -48)">
    <use xlink:href="#rim"/>
    <path pointer-events="none" fill="none" stroke="white" stroke-width="1.5" d="M0,-3.0v7 M-2.5,-0.5L0,-3.0L2.5,-0.5"/>
  </g>
  <g id="arrowLeft" transform="rotate(270) translate(-36 17)">
    <use xlink:href="#rim"/>
    <path pointer-events="none" fill="none" stroke="white" stroke-width="1.5" d="M0,-3.0v7 M-2.5,-0.5L0,-3.0L2.5,-0.5"/>
  </g>
  <g id="resetDef">
    <use xlink:href="#rim2" fill="#404040"><set attributeName="fill" to="#808080" begin="reset.mouseover" end="reset.mouseout"/></use>
  </g>
</defs>
<script type="application/ecmascript">
var viewWidth = 1154;
var viewHeight = 360;
var sectionId = 'dynsection-11';
</script>
<script type="application/ecmascript" xlink:href="svg.min.js"/>
<svg id="graph" class="graph">
<g id="viewport">
<title>FlowTagPanel::addComponents</title>
<!-- Node1 -->
<g id="Node000001" class="node">
<title>Node1</title>
<g id="a_Node000001"><a xlink:title=" ">
<polygon fill="#999999" stroke="#666666" points="154.75,-146 0,-146 0,-126 154.75,-126 154.75,-146"/>
<text text-anchor="middle" x="77.38" y="-132.5" font-family="Helvetica,sans-Serif" font-size="10.00">FlowTagPanel::addComponents</text>
</a>
</g>
</g>
<!-- Node2 -->
<g id="Node000002" class="node">
<title>Node2</title>
<g id="a_Node000002"><a xlink:href="class_flow_tag_panel.html#ab190cd6aefb44611ef4b382c315da514" target="_top" xlink:title=" ">
<polygon fill="white" stroke="#666666" points="340.25,-174 190.75,-174 190.75,-154 340.25,-154 340.25,-174"/>
<text text-anchor="middle" x="265.5" y="-160.5" font-family="Helvetica,sans-Serif" font-size="10.00">FlowTagPanel::initEmptyPanel</text>
</a>
</g>
</g>
<!-- Node1&#45;&gt;Node2 -->
<g id="edge1_Node000001_Node000002" class="edge">
<title>Node1&#45;&gt;Node2</title>
<g id="a_edge1_Node000001_Node000002"><a xlink:title=" ">
<path fill="none" stroke="#63b8ff" d="M147.95,-146.47C159.53,-148.21 171.63,-150.03 183.46,-151.81"/>
<polygon fill="#63b8ff" stroke="#63b8ff" points="182.8,-155.25 193.21,-153.27 183.84,-148.33 182.8,-155.25"/>
</a>
</g>
</g>
<!-- Node7 -->
<g id="Node000007" class="node">
<title>Node7</title>
<g id="a_Node000007"><a xlink:href="class_tag_panel.html#a6e53bfa1e9893d31775867a4f0c7c749" target="_top" xlink:title=" ">
<polygon fill="white" stroke="#666666" points="320.38,-127 210.62,-127 210.62,-107 320.38,-107 320.38,-127"/>
<text text-anchor="middle" x="265.5" y="-113.5" font-family="Helvetica,sans-Serif" font-size="10.00">TagPanel::setTagLine</text>
</a>
</g>
</g>
<!-- Node1&#45;&gt;Node7 -->
<g id="edge7_Node000001_Node000007" class="edge">
<title>Node1&#45;&gt;Node7</title>
<g id="a_edge7_Node000001_Node000007"><a xlink:title=" ">
<path fill="none" stroke="#63b8ff" d="M155.15,-128.16C169.77,-126.67 184.94,-125.12 199.16,-123.67"/>
<polygon fill="#63b8ff" stroke="#63b8ff" points="199.24,-127.18 208.83,-122.68 198.53,-120.22 199.24,-127.18"/>
</a>
</g>
</g>
<!-- Node3 -->
<g id="Node000003" class="node">
<title>Node3</title>
<g id="a_Node000003"><a xlink:href="class_flow_tag_panel.html#a24aede4ad59f41a079d4c38e26955d55" target="_top" xlink:title=" ">
<polygon fill="white" stroke="#666666" points="508.88,-241 387.12,-241 387.12,-221 508.88,-221 508.88,-241"/>
<text text-anchor="middle" x="448" y="-227.5" font-family="Helvetica,sans-Serif" font-size="10.00">FlowTagPanel::addChild</text>
</a>
</g>
</g>
<!-- Node2&#45;&gt;Node3 -->
<g id="edge2_Node000002_Node000003" class="edge">
<title>Node2&#45;&gt;Node3</title>
<g id="a_edge2_Node000002_Node000003"><a xlink:title=" ">
<path fill="none" stroke="#63b8ff" d="M294.7,-174.47C325.3,-185.83 374.34,-204.03 408.48,-216.7"/>
<polygon fill="#63b8ff" stroke="#63b8ff" points="406.98,-219.88 417.58,-220.08 409.42,-213.32 406.98,-219.88"/>
</a>
</g>
</g>
<!-- Node4 -->
<g id="Node000004" class="node">
<title>Node4</title>
<g id="a_Node000004"><a xlink:href="class_flow_tag_panel.html#af98215cc2497f7ef7d8e4ed00e94ca33" target="_top" xlink:title=" ">
<polygon fill="white" stroke="#666666" points="694.38,-314 564.38,-314 564.38,-294 694.38,-294 694.38,-314"/>
<text text-anchor="middle" x="629.38" y="-300.5" font-family="Helvetica,sans-Serif" font-size="10.00">FlowTagPanel::insertChild</text>
</a>
</g>
</g>
<!-- Node3&#45;&gt;Node4 -->
<g id="edge3_Node000003_Node000004" class="edge">
<title>Node3&#45;&gt;Node4</title>
<g id="a_edge3_Node000003_Node000004"><a xlink:title=" ">
<path fill="none" stroke="#63b8ff" d="M474.7,-241.46C505.6,-254.04 557.65,-275.22 592.5,-289.4"/>
<polygon fill="#63b8ff" stroke="#63b8ff" points="590.74,-292.46 601.32,-292.99 593.38,-285.98 590.74,-292.46"/>
</a>
</g>
</g>
<!-- Node4&#45;&gt;Node4 -->
<g id="edge6_Node000004_Node000004" class="edge">
<title>Node4&#45;&gt;Node4</title>
<g id="a_edge6_Node000004_Node000004"><a xlink:title=" ">
<path fill="none" stroke="#63b8ff" d="M600.91,-314.34C588.75,-322.98 598.24,-332 629.38,-332 646.89,-332 657.55,-329.14 661.37,-325.11"/>
<polygon fill="#63b8ff" stroke="#63b8ff" points="664.75,-324.19 658.31,-315.78 658.1,-326.37 664.75,-324.19"/>
</a>
</g>
</g>
<!-- Node5 -->
<g id="Node000005" class="node">
<title>Node5</title>
<g id="a_Node000005"><a xlink:href="class_tag_panel.html#a975da9b33d0c94992472b291df4aadbe" target="_top" xlink:title=" ">
<polygon fill="white" stroke="#666666" points="863.75,-352 753.25,-352 753.25,-332 863.75,-332 863.75,-352"/>
<text text-anchor="middle" x="808.5" y="-338.5" font-family="Helvetica,sans-Serif" font-size="10.00">TagPanel::getIndexOf</text>
</a>
</g>
</g>
<!-- Node4&#45;&gt;Node5 -->
<g id="edge4_Node000004_Node000005" class="edge">
<title>Node4&#45;&gt;Node5</title>
<g id="a_edge4_Node000004_Node000005"><a xlink:title=" ">
<path fill="none" stroke="#63b8ff" d="M679.24,-314.48C700.44,-319.03 725.47,-324.4 747.76,-329.18"/>
<polygon fill="#63b8ff" stroke="#63b8ff" points="746.8,-332.56 757.31,-331.23 748.27,-325.71 746.8,-332.56"/>
</a>
</g>
</g>
<!-- Node6 -->
<g id="Node000006" class="node">
<title>Node6</title>
<g id="a_Node000006"><a xlink:href="class_flow_tag_panel.html#a292d74fbfba61f5c7df90789a9eb31e2" target="_top" xlink:title=" ">
<polygon fill="white" stroke="#666666" points="878,-314 739,-314 739,-294 878,-294 878,-314"/>
<text text-anchor="middle" x="808.5" y="-300.5" font-family="Helvetica,sans-Serif" font-size="10.00">FlowTagPanel::getSizerItem</text>
</a>
</g>
</g>
<!-- Node4&#45;&gt;Node6 -->
<g id="edge5_Node000004_Node000006" class="edge">
<title>Node4&#45;&gt;Node6</title>
<g id="a_edge5_Node000004_Node000006"><a xlink:title=" ">
<path fill="none" stroke="#63b8ff" d="M694.82,-304C705.39,-304 716.46,-304 727.36,-304"/>
<polygon fill="#63b8ff" stroke="#63b8ff" points="727.11,-307.5 737.11,-304 727.11,-300.5 727.11,-307.5"/>
</a>
</g>
</g>
<!-- Node8 -->
<g id="Node000008" class="node">
<title>Node8</title>
<g id="a_Node000008"><a xlink:href="class_tag_panel.html#aaa6f2d383b2380c7c103b5019bd05782" target="_top" xlink:title=" ">
<polygon fill="white" stroke="#666666" points="500.62,-146 395.38,-146 395.38,-126 500.62,-126 500.62,-146"/>
<text text-anchor="middle" x="448" y="-132.5" font-family="Helvetica,sans-Serif" font-size="10.00">TagPanel::addMover</text>
</a>
</g>
</g>
<!-- Node7&#45;&gt;Node8 -->
<g id="edge8_Node000007_Node000008" class="edge">
<title>Node7&#45;&gt;Node8</title>
<g id="a_edge8_Node000007_Node000008"><a xlink:title=" ">
<path fill="none" stroke="#63b8ff" d="M320.66,-122.7C340.55,-124.79 363.23,-127.18 383.85,-129.35"/>
<polygon fill="#63b8ff" stroke="#63b8ff" points="383.23,-132.81 393.55,-130.37 383.97,-125.85 383.23,-132.81"/>
</a>
</g>
</g>
<!-- Node18 -->
<g id="Node000018" class="node">
<title>Node18</title>
<g id="a_Node000018"><a xlink:href="class_tag_panel.html#ab2f6c36e777443dcffd1cff986027790" target="_top" xlink:title=" ">
<polygon fill="white" stroke="#666666" points="512.25,-108 383.75,-108 383.75,-88 512.25,-88 512.25,-108"/>
<text text-anchor="middle" x="448" y="-94.5" font-family="Helvetica,sans-Serif" font-size="10.00">TagPanel::initDeletePanel</text>
</a>
</g>
</g>
<!-- Node7&#45;&gt;Node18 -->
<g id="edge23_Node000007_Node000018" class="edge">
<title>Node7&#45;&gt;Node18</title>
<g id="a_edge23_Node000007_Node000018"><a xlink:title=" ">
<path fill="none" stroke="#63b8ff" d="M320.66,-111.3C336.84,-109.6 354.88,-107.7 372.14,-105.88"/>
<polygon fill="#63b8ff" stroke="#63b8ff" points="372.27,-109.39 381.85,-104.86 371.53,-102.42 372.27,-109.39"/>
</a>
</g>
</g>
<!-- Node20 -->
<g id="Node000020" class="node">
<title>Node20</title>
<g id="a_Node000020"><a xlink:href="class_tag_panel.html#a01e839de7aa3bedbe9a7bc1f152a02f8" target="_top" xlink:title=" ">
<polygon fill="white" stroke="#666666" points="519.75,-45 376.25,-45 376.25,-25 519.75,-25 519.75,-45"/>
<text text-anchor="middle" x="448" y="-31.5" font-family="Helvetica,sans-Serif" font-size="10.00">TagPanel::setStaticTagName</text>
</a>
</g>
</g>
<!-- Node7&#45;&gt;Node20 -->
<g id="edge27_Node000007_Node000020" class="edge">
<title>Node7&#45;&gt;Node20</title>
<g id="a_edge27_Node000007_Node000020"><a xlink:title=" ">
<path fill="none" stroke="#63b8ff" d="M289.36,-106.61C320.87,-92.3 377.86,-66.41 413.99,-49.99"/>
<polygon fill="#63b8ff" stroke="#63b8ff" points="415.01,-53.38 422.66,-46.06 412.11,-47.01 415.01,-53.38"/>
</a>
</g>
</g>
<!-- Node9 -->
<g id="Node000009" class="node">
<title>Node9</title>
<g id="a_Node000009"><a xlink:href="class_tag_panel.html#a33ffecd8625bc7e0783d208d8d18daf7" target="_top" xlink:title=" ">
<polygon fill="white" stroke="#666666" points="703,-219 555.75,-219 555.75,-199 703,-199 703,-219"/>
<text text-anchor="middle" x="629.38" y="-205.5" font-family="Helvetica,sans-Serif" font-size="10.00">TagPanel::OnMoveDownClick</text>
</a>
</g>
</g>
<!-- Node8&#45;&gt;Node9 -->
<g id="edge9_Node000008_Node000009" class="edge">
<title>Node8&#45;&gt;Node9</title>
<g id="a_edge9_Node000008_Node000009"><a xlink:title=" ">
<path fill="none" stroke="#63b8ff" d="M474.7,-146.46C505.6,-159.04 557.65,-180.22 592.5,-194.4"/>
<polygon fill="#63b8ff" stroke="#63b8ff" points="590.74,-197.46 601.32,-197.99 593.38,-190.98 590.74,-197.46"/>
</a>
</g>
</g>
<!-- Node14 -->
<g id="Node000014" class="node">
<title>Node14</title>
<g id="a_Node000014"><a xlink:href="class_tag_panel.html#a4ddfadd1d39efac7f0123146fc9f8233" target="_top" xlink:title=" ">
<polygon fill="white" stroke="#666666" points="696.62,-146 562.12,-146 562.12,-126 696.62,-126 696.62,-146"/>
<text text-anchor="middle" x="629.38" y="-132.5" font-family="Helvetica,sans-Serif" font-size="10.00">TagPanel::OnMoveUpClick</text>
</a>
</g>
</g>
<!-- Node8&#45;&gt;Node14 -->
<g id="edge16_Node000008_Node000014" class="edge">
<title>Node8&#45;&gt;Node14</title>
<g id="a_edge16_Node000008_Node000014"><a xlink:title=" ">
<path fill="none" stroke="#63b8ff" d="M500.88,-136C516.35,-136 533.66,-136 550.41,-136"/>
<polygon fill="#63b8ff" stroke="#63b8ff" points="550.37,-139.5 560.37,-136 550.37,-132.5 550.37,-139.5"/>
</a>
</g>
</g>
<!-- Node17 -->
<g id="Node000017" class="node">
<title>Node17</title>
<g id="a_Node000017"><a xlink:href="class_tag_panel.html#a43c96ffa9523c002fb96126500209ce8" target="_top" xlink:title=" ">
<polygon fill="white" stroke="#666666" points="686.88,-108 571.88,-108 571.88,-88 686.88,-88 686.88,-108"/>
<text text-anchor="middle" x="629.38" y="-94.5" font-family="Helvetica,sans-Serif" font-size="10.00">TagPanel::SetLineFont</text>
</a>
</g>
</g>
<!-- Node8&#45;&gt;Node17 -->
<g id="edge22_Node000008_Node000017" class="edge">
<title>Node8&#45;&gt;Node17</title>
<g id="a_edge22_Node000008_Node000017"><a xlink:title=" ">
<path fill="none" stroke="#63b8ff" d="M498.49,-125.52C519.96,-120.97 545.3,-115.6 567.87,-110.82"/>
<polygon fill="#63b8ff" stroke="#63b8ff" points="568.51,-114.26 577.57,-108.76 567.06,-107.41 568.51,-114.26"/>
</a>
</g>
</g>
<!-- Node10 -->
<g id="Node000010" class="node">
<title>Node10</title>
<g id="a_Node000010"><a xlink:href="class_tag_panel.html#aefc411bf7be4bd7fd05b3e8a48a6671f" target="_top" xlink:title=" ">
<polygon fill="white" stroke="#666666" points="864.88,-276 752.12,-276 752.12,-256 864.88,-256 864.88,-276"/>
<text text-anchor="middle" x="808.5" y="-262.5" font-family="Helvetica,sans-Serif" font-size="10.00">TagPanel::getNextTag</text>
</a>
</g>
</g>
<!-- Node9&#45;&gt;Node10 -->
<g id="edge10_Node000009_Node000010" class="edge">
<title>Node9&#45;&gt;Node10</title>
<g id="a_edge10_Node000009_Node000010"><a xlink:title=" ">
<path fill="none" stroke="#63b8ff" d="M662.86,-219.45C691.36,-228.63 733.02,-242.03 764.32,-252.1"/>
<polygon fill="#63b8ff" stroke="#63b8ff" points="762.89,-255.32 773.48,-255.05 765.03,-248.66 762.89,-255.32"/>
</a>
</g>
</g>
<!-- Node11 -->
<g id="Node000011" class="node">
<title>Node11</title>
<g id="a_Node000011"><a xlink:href="_tag_panel_8cpp.html#a2f4c4fdbb29d8e8fadcbbd9673b3c370" target="_top" xlink:title=" ">
<polygon fill="white" stroke="#666666" points="990,-162 914,-162 914,-142 990,-142 990,-162"/>
<text text-anchor="middle" x="952" y="-148.5" font-family="Helvetica,sans-Serif" font-size="10.00">GetParentTag</text>
</a>
</g>
</g>
<!-- Node9&#45;&gt;Node11 -->
<g id="edge13_Node000009_Node000011" class="edge">
<title>Node9&#45;&gt;Node11</title>
<g id="a_edge13_Node000009_Node000011"><a xlink:title=" ">
<path fill="none" stroke="#63b8ff" d="M688.93,-219.5C740.25,-226.27 816.11,-230.3 878,-209 900.2,-201.36 920.82,-183.89 934.45,-170.29"/>
<polygon fill="#63b8ff" stroke="#63b8ff" points="936.9,-172.79 941.29,-163.15 931.84,-167.95 936.9,-172.79"/>
</a>
</g>
</g>
<!-- Node13 -->
<g id="Node000013" class="node">
<title>Node13</title>
<g id="a_Node000013"><a xlink:href="class_tag_panel.html#a9a11954167303954710c12832b39fbf4" target="_top" xlink:title=" ">
<polygon fill="white" stroke="#666666" points="860.75,-200 756.25,-200 756.25,-180 860.75,-180 860.75,-200"/>
<text text-anchor="middle" x="808.5" y="-186.5" font-family="Helvetica,sans-Serif" font-size="10.00">TagPanel::isLastTag</text>
</a>
</g>
</g>
<!-- Node9&#45;&gt;Node13 -->
<g id="edge14_Node000009_Node000013" class="edge">
<title>Node9&#45;&gt;Node13</title>
<g id="a_edge14_Node000009_Node000013"><a xlink:title=" ">
<path fill="none" stroke="#63b8ff" d="M703.44,-201.16C717.08,-199.7 731.22,-198.18 744.52,-196.76"/>
<polygon fill="#63b8ff" stroke="#63b8ff" points="744.88,-200.24 754.45,-195.69 744.13,-193.28 744.88,-200.24"/>
</a>
</g>
</g>
<!-- Node10&#45;&gt;Node11 -->
<g id="edge11_Node000010_Node000011" class="edge">
<title>Node10&#45;&gt;Node11</title>
<g id="a_edge11_Node000010_Node000011"><a xlink:title=" ">
<path fill="none" stroke="#63b8ff" d="M851.14,-255.53C860.46,-252.09 869.96,-247.66 878,-242 904.5,-223.35 926.55,-192.55 939.26,-172.26"/>
<polygon fill="#63b8ff" stroke="#63b8ff" points="942.21,-174.14 944.4,-163.77 936.23,-170.52 942.21,-174.14"/>
</a>
</g>
</g>
<!-- Node12 -->
<g id="Node000012" class="node">
<title>Node12</title>
<g id="a_Node000012"><a xlink:href="class_tag_panel.html#af3b5b6fc2b16171af7cab7b0d79d9ed7" target="_top" xlink:title=" ">
<polygon fill="white" stroke="#666666" points="1146.25,-162 1026,-162 1026,-142 1146.25,-142 1146.25,-162"/>
<text text-anchor="middle" x="1086.12" y="-148.5" font-family="Helvetica,sans-Serif" font-size="10.00">TagPanel::getParentTag</text>
</a>
</g>
</g>
<!-- Node11&#45;&gt;Node12 -->
<g id="edge12_Node000011_Node000012" class="edge">
<title>Node11&#45;&gt;Node12</title>
<g id="a_edge12_Node000011_Node000012"><a xlink:title=" ">
<path fill="none" stroke="#63b8ff" d="M990.16,-152C997.71,-152 1005.9,-152 1014.18,-152"/>
<polygon fill="#63b8ff" stroke="#63b8ff" points="1013.99,-155.5 1023.99,-152 1013.99,-148.5 1013.99,-155.5"/>
</a>
</g>
</g>
<!-- Node13&#45;&gt;Node11 -->
<g id="edge15_Node000013_Node000011" class="edge">
<title>Node13&#45;&gt;Node11</title>
<g id="a_edge15_Node000013_Node000011"><a xlink:title=" ">
<path fill="none" stroke="#63b8ff" d="M848.54,-179.52C865.26,-175.03 884.96,-169.73 902.6,-165"/>
<polygon fill="#63b8ff" stroke="#63b8ff" points="903.34,-168.42 912.09,-162.45 901.52,-161.66 903.34,-168.42"/>
</a>
</g>
</g>
<!-- Node14&#45;&gt;Node11 -->
<g id="edge17_Node000014_Node000011" class="edge">
<title>Node14&#45;&gt;Node11</title>
<g id="a_edge17_Node000014_Node000011"><a xlink:title=" ">
<path fill="none" stroke="#63b8ff" d="M696.81,-139.32C757.99,-142.37 847.32,-146.83 902.17,-149.56"/>
<polygon fill="#63b8ff" stroke="#63b8ff" points="901.99,-153.06 912.15,-150.06 902.34,-146.07 901.99,-153.06"/>
</a>
</g>
</g>
<!-- Node15 -->
<g id="Node000015" class="node">
<title>Node15</title>
<g id="a_Node000015"><a xlink:href="class_tag_panel.html#a20a4cc67dc3ecd4538cb8af3c9668421" target="_top" xlink:title=" ">
<polygon fill="white" stroke="#666666" points="873.5,-124 743.5,-124 743.5,-104 873.5,-104 873.5,-124"/>
<text text-anchor="middle" x="808.5" y="-110.5" font-family="Helvetica,sans-Serif" font-size="10.00">TagPanel::getPreviousTag</text>
</a>
</g>
</g>
<!-- Node14&#45;&gt;Node15 -->
<g id="edge18_Node000014_Node000015" class="edge">
<title>Node14&#45;&gt;Node15</title>
<g id="a_edge18_Node000014_Node000015"><a xlink:title=" ">
<path fill="none" stroke="#63b8ff" d="M697.09,-127.71C708.41,-126.31 720.25,-124.84 731.79,-123.4"/>
<polygon fill="#63b8ff" stroke="#63b8ff" points="732.2,-126.88 741.69,-122.17 731.34,-119.93 732.2,-126.88"/>
</a>
</g>
</g>
<!-- Node16 -->
<g id="Node000016" class="node">
<title>Node16</title>
<g id="a_Node000016"><a xlink:href="class_tag_panel.html#aa16fddf213851034cb33b775ea653efc" target="_top" xlink:title=" ">
<polygon fill="white" stroke="#666666" points="861.12,-86 755.88,-86 755.88,-66 861.12,-66 861.12,-86"/>
<text text-anchor="middle" x="808.5" y="-72.5" font-family="Helvetica,sans-Serif" font-size="10.00">TagPanel::isFirstTag</text>
</a>
</g>
</g>
<!-- Node14&#45;&gt;Node16 -->
<g id="edge20_Node000014_Node000016" class="edge">
<title>Node14&#45;&gt;Node16</title>
<g id="a_edge20_Node000014_Node000016"><a xlink:title=" ">
<path fill="none" stroke="#63b8ff" d="M678.31,-125.59C686.69,-123.17 695.2,-120.32 703,-117 720.25,-109.66 721.8,-102.47 739,-95 743.27,-93.15 747.76,-91.43 752.32,-89.85"/>
<polygon fill="#63b8ff" stroke="#63b8ff" points="753.14,-93.26 761.58,-86.86 750.99,-86.6 753.14,-93.26"/>
</a>
</g>
</g>
<!-- Node15&#45;&gt;Node11 -->
<g id="edge19_Node000015_Node000011" class="edge">
<title>Node15&#45;&gt;Node11</title>
<g id="a_edge19_Node000015_Node000011"><a xlink:title=" ">
<path fill="none" stroke="#63b8ff" d="M848.54,-124.48C865.26,-128.97 884.96,-134.27 902.6,-139"/>
<polygon fill="#63b8ff" stroke="#63b8ff" points="901.52,-142.34 912.09,-141.55 903.34,-135.58 901.52,-142.34"/>
</a>
</g>
</g>
<!-- Node16&#45;&gt;Node11 -->
<g id="edge21_Node000016_Node000011" class="edge">
<title>Node16&#45;&gt;Node11</title>
<g id="a_edge21_Node000016_Node000011"><a xlink:title=" ">
<path fill="none" stroke="#63b8ff" d="M856.85,-86.5C864.11,-88.85 871.39,-91.67 878,-95 898.26,-105.21 918.36,-121.48 932.33,-134.03"/>
<polygon fill="#63b8ff" stroke="#63b8ff" points="929.73,-136.39 939.45,-140.61 934.48,-131.25 929.73,-136.39"/>
</a>
</g>
</g>
<!-- Node18&#45;&gt;Node17 -->
<g id="edge26_Node000018_Node000017" class="edge">
<title>Node18&#45;&gt;Node17</title>
<g id="a_edge26_Node000018_Node000017"><a xlink:title=" ">
<path fill="none" stroke="#63b8ff" d="M512.75,-98C528.14,-98 544.65,-98 560.24,-98"/>
<polygon fill="#63b8ff" stroke="#63b8ff" points="559.89,-101.5 569.89,-98 559.89,-94.5 559.89,-101.5"/>
</a>
</g>
</g>
<!-- Node19 -->
<g id="Node000019" class="node">
<title>Node19</title>
<g id="a_Node000019"><a xlink:href="class_tag_panel.html#a92b74a6332f46423e1509044989a4a0a" target="_top" xlink:title=" ">
<polygon fill="white" stroke="#666666" points="695.5,-70 563.25,-70 563.25,-38 695.5,-38 695.5,-70"/>
<text text-anchor="start" x="571.25" y="-56.5" font-family="Helvetica,sans-Serif" font-size="10.00">TagPanel::OnDeleteButton</text>
<text text-anchor="middle" x="629.38" y="-44.5" font-family="Helvetica,sans-Serif" font-size="10.00">Click</text>
</a>
</g>
</g>
<!-- Node18&#45;&gt;Node19 -->
<g id="edge24_Node000018_Node000019" class="edge">
<title>Node18&#45;&gt;Node19</title>
<g id="a_edge24_Node000018_Node000019"><a xlink:title=" ">
<path fill="none" stroke="#63b8ff" d="M491.51,-87.57C509.6,-83.14 531.27,-77.82 551.97,-72.74"/>
<polygon fill="#63b8ff" stroke="#63b8ff" points="552.67,-76.17 561.55,-70.39 551,-69.38 552.67,-76.17"/>
</a>
</g>
</g>
<!-- Node19&#45;&gt;Node11 -->
<g id="edge25_Node000019_Node000011" class="edge">
<title>Node19&#45;&gt;Node11</title>
<g id="a_edge25_Node000019_Node000011"><a xlink:title=" ">
<path fill="none" stroke="#63b8ff" d="M695.82,-39.83C747.97,-31.94 821.38,-28.68 878,-57 909.19,-72.6 930.84,-108.52 942.07,-131.45"/>
<polygon fill="#63b8ff" stroke="#63b8ff" points="938.84,-132.82 946.22,-140.42 945.19,-129.88 938.84,-132.82"/>
</a>
</g>
</g>
<!-- Node21 -->
<g id="Node000021" class="node">
<title>Node21</title>
<g id="a_Node000021"><a xlink:href="class_tag_panel.html#af2926b62ee8940d7aa87591255623814" target="_top" xlink:title=" ">
<polygon fill="white" stroke="#666666" points="689.5,-20 569.25,-20 569.25,0 689.5,0 689.5,-20"/>
<text text-anchor="middle" x="629.38" y="-6.5" font-family="Helvetica,sans-Serif" font-size="10.00">TagPanel::addTagName</text>
</a>
</g>
</g>
<!-- Node20&#45;&gt;Node21 -->
<g id="edge28_Node000020_Node000021" class="edge">
<title>Node20&#45;&gt;Node21</title>
<g id="a_edge28_Node000020_Node000021"><a xlink:title=" ">
<path fill="none" stroke="#63b8ff" d="M520.15,-25.08C532.51,-23.36 545.36,-21.57 557.7,-19.85"/>
<polygon fill="#63b8ff" stroke="#63b8ff" points="557.95,-23.35 567.37,-18.5 556.98,-16.42 557.95,-23.35"/>
</a>
</g>
</g>
</g>
</svg>

<g id="navigator" transform="translate(0 0)" fill="#404254">
  <rect fill="#f2f5e9" fill-opacity="0.5" stroke="#606060" stroke-width=".5" x="0" y="0" width="60" height="60"/>
  <use id="zoomplus" xlink:href="#zoomPlus" x="17" y="9" onmousedown="handleZoom(evt,'in')"/>
  <use id="zoomminus" xlink:href="#zoomMin" x="42" y="9" onmousedown="handleZoom(evt,'out')"/>
  <use id="reset" xlink:href="#resetDef" x="30" y="36" onmousedown="handleReset()"/>
   <use id="arrowup" xlink:href="#arrowUp" x="0" y="0" onmousedown="handlePan(0,-1)"/>
  <use id="arrowright" xlink:href="#arrowRight" x="0" y="0" onmousedown="handlePan(1,0)"/>
  <use id="arrowdown" xlink:href="#arrowDown" x="0" y="0" onmousedown="handlePan(0,1)"/>
  <use id="arrowleft" xlink:href="#arrowLeft" x="0" y="0" onmousedown="handlePan(-1,0)"/>
</g>
<svg viewBox="0 0 15 15" width="100%" height="30px" preserveAspectRatio="xMaxYMin meet">
 <g id="arrow_out" transform="scale(0.3 0.3)">
  <a xlink:href="class_flow_tag_panel_a92c626fbe9ab70ee75813edec7e323ba_cgraph_org.svg" target="_base">
   <rect id="button" ry="5" rx="5" y="6" x="6" height="38" width="38"
        fill="#f2f5e9" fill-opacity="0.5" stroke="#606060" stroke-width="1.0"/>
   <path id="arrow"
     d="M 11.500037,31.436501 C 11.940474,20.09759 22.043105,11.32322 32.158766,21.979434 L 37.068811,17.246167 C 37.068811,17.246167 37.088388,32 37.088388,32 L 22.160133,31.978069 C 22.160133,31.978069 26.997745,27.140456 26.997745,27.140456 C 18.528582,18.264221 13.291696,25.230495 11.500037,31.436501 z"
     style="fill:#404040;"/>
  </a>
 </g>
</svg>

<style type='text/css'>
<![CDATA[
[data-mouse-over-selected='false'] { opacity: 0.7; }
[data-mouse-over-selected='true']  { opacity: 1.0; }
]]>
</style>
<script type="application/ecmascript"><![CDATA[
document.addEventListener('DOMContentLoaded', (event) => {
  highlightEdges();
  highlightAdjacentNodes();
});
]]></script>
</svg>
