<?xml version="1.0" encoding="UTF-8" standalone="no"?>
<!DOCTYPE svg PUBLIC "-//W3C//DTD SVG 1.1//EN"
 "http://www.w3.org/Graphics/SVG/1.1/DTD/svg11.dtd">
<!-- Generated by graphviz version 12.2.0 (20241103.1931)
 -->
<!-- Title: FlowTag Pages: 1 -->
<svg width="1428pt" height="828pt"
 viewBox="0.00 0.00 1427.62 828.00" xmlns="http://www.w3.org/2000/svg" xmlns:xlink="http://www.w3.org/1999/xlink">
<g id="graph0" class="graph" transform="scale(1 1) rotate(0) translate(4 824)">
<title>FlowTag</title>
<!-- Node1 -->
<g id="Node000001" class="node">
<title>Node1</title>
<g id="a_Node000001"><a xlink:title=" ">
<polygon fill="#999999" stroke="none" points="753.62,-624 623.88,-624 623.88,-304 753.62,-304 753.62,-624"/>
<text text-anchor="start" x="670.38" y="-610.5" font-family="Helvetica,sans-Serif" font-size="10.00">FlowTag</text>
<text text-anchor="start" x="627.88" y="-594.5" font-family="Helvetica,sans-Serif" font-size="10.00">+</text>
<text text-anchor="start" x="637.88" y="-594.5" font-family="Helvetica,sans-Serif" font-size="10.00">bool canReboot</text>
<text text-anchor="start" x="627.88" y="-578.5" font-family="Helvetica,sans-Serif" font-size="10.00">+</text>
<text text-anchor="start" x="637.88" y="-578.5" font-family="Helvetica,sans-Serif" font-size="10.00">bool executed</text>
<text text-anchor="start" x="627.88" y="-562.5" font-family="Helvetica,sans-Serif" font-size="10.00">+</text>
<text text-anchor="start" x="637.88" y="-562.5" font-family="Helvetica,sans-Serif" font-size="10.00">bool forcedExit</text>
<text text-anchor="start" x="627.88" y="-546.5" font-family="Helvetica,sans-Serif" font-size="10.00">+</text>
<text text-anchor="start" x="637.88" y="-546.5" font-family="Helvetica,sans-Serif" font-size="10.00">bool rebootLoop</text>
<text text-anchor="start" x="627.88" y="-530.5" font-family="Helvetica,sans-Serif" font-size="10.00">+</text>
<text text-anchor="start" x="637.88" y="-530.5" font-family="Helvetica,sans-Serif" font-size="10.00">std::shared_ptr&lt; Tag</text>
<text text-anchor="start" x="637.88" y="-518.5" font-family="Helvetica,sans-Serif" font-size="10.00"> &gt; condition</text>
<text text-anchor="start" x="627.88" y="-502.5" font-family="Helvetica,sans-Serif" font-size="10.00">+</text>
<text text-anchor="start" x="637.88" y="-502.5" font-family="Helvetica,sans-Serif" font-size="10.00">FlowTag * previousTag</text>
<text text-anchor="start" x="627.88" y="-486.5" font-family="Helvetica,sans-Serif" font-size="10.00">+</text>
<text text-anchor="start" x="637.88" y="-486.5" font-family="Helvetica,sans-Serif" font-size="10.00">FlowTag * parentFlowTag</text>
<text text-anchor="start" x="627.88" y="-470.5" font-family="Helvetica,sans-Serif" font-size="10.00">+</text>
<text text-anchor="start" x="637.88" y="-470.5" font-family="Helvetica,sans-Serif" font-size="10.00">std::vector&lt; std::shared</text>
<text text-anchor="start" x="637.88" y="-458.5" font-family="Helvetica,sans-Serif" font-size="10.00">_ptr&lt; Tag &gt; &gt; nestedTags</text>
<text text-anchor="start" x="627.88" y="-442.5" font-family="Helvetica,sans-Serif" font-size="10.00">+</text>
<text text-anchor="start" x="637.88" y="-442.5" font-family="Helvetica,sans-Serif" font-size="10.00">std::vector&lt; FlowTag</text>
<text text-anchor="start" x="637.88" y="-430.5" font-family="Helvetica,sans-Serif" font-size="10.00"> * &gt; listPreviousFlowTags</text>
<text text-anchor="start" x="627.88" y="-414.5" font-family="Helvetica,sans-Serif" font-size="10.00">+</text>
<text text-anchor="start" x="637.88" y="-414.5" font-family="Helvetica,sans-Serif" font-size="10.00">FlowTag()</text>
<text text-anchor="start" x="627.88" y="-398.5" font-family="Helvetica,sans-Serif" font-size="10.00">+</text>
<text text-anchor="start" x="637.88" y="-398.5" font-family="Helvetica,sans-Serif" font-size="10.00">FlowTag(const FlowTag</text>
<text text-anchor="start" x="637.88" y="-386.5" font-family="Helvetica,sans-Serif" font-size="10.00"> &amp;toCopy)</text>
<text text-anchor="start" x="627.88" y="-370.5" font-family="Helvetica,sans-Serif" font-size="10.00">+</text>
<text text-anchor="start" x="637.88" y="-370.5" font-family="Helvetica,sans-Serif" font-size="10.00">std::shared_ptr&lt; FlowTag</text>
<text text-anchor="start" x="637.88" y="-358.5" font-family="Helvetica,sans-Serif" font-size="10.00"> &gt; clone()</text>
<text text-anchor="start" x="627.88" y="-342.5" font-family="Helvetica,sans-Serif" font-size="10.00">+</text>
<text text-anchor="start" x="637.88" y="-342.5" font-family="Helvetica,sans-Serif" font-size="10.00">void showTag()</text>
<text text-anchor="start" x="627.88" y="-326.5" font-family="Helvetica,sans-Serif" font-size="10.00">+</text>
<text text-anchor="start" x="637.88" y="-326.5" font-family="Helvetica,sans-Serif" font-size="10.00">bool checkCondition()</text>
<text text-anchor="start" x="627.88" y="-310.5" font-family="Helvetica,sans-Serif" font-size="10.00">+</text>
<text text-anchor="start" x="637.88" y="-310.5" font-family="Helvetica,sans-Serif" font-size="10.00">void linkTags()</text>
<polygon fill="#666666" stroke="#666666" points="623.88,-606 623.88,-606 753.62,-606 753.62,-606 623.88,-606"/>
<polygon fill="#666666" stroke="#666666" points="623.88,-426 623.88,-426 635.88,-426 635.88,-426 623.88,-426"/>
<polygon fill="#666666" stroke="#666666" points="635.88,-426 635.88,-426 753.62,-426 753.62,-426 635.88,-426"/>
<polygon fill="none" stroke="#666666" points="623.88,-304 623.88,-624 753.62,-624 753.62,-304 623.88,-304"/>
</a>
</g>
</g>
<!-- Node3 -->
<g id="Node000003" class="node">
<title>Node3</title>
<g id="a_Node000003"><a xlink:href="class_break_tag.html" target="_top" xlink:title=" ">
<polygon fill="white" stroke="none" points="133.5,-196 0,-196 0,-72 133.5,-72 133.5,-196"/>
<text text-anchor="start" x="46.12" y="-182.5" font-family="Helvetica,sans-Serif" font-size="10.00">BreakTag</text>
<text text-anchor="start" x="65.25" y="-166.5" font-family="Helvetica,sans-Serif" font-size="10.00"> </text>
<text text-anchor="start" x="4" y="-150.5" font-family="Helvetica,sans-Serif" font-size="10.00">+</text>
<text text-anchor="start" x="14" y="-150.5" font-family="Helvetica,sans-Serif" font-size="10.00">BreakTag()</text>
<text text-anchor="start" x="4" y="-134.5" font-family="Helvetica,sans-Serif" font-size="10.00">+</text>
<text text-anchor="start" x="14" y="-134.5" font-family="Helvetica,sans-Serif" font-size="10.00">BreakTag(const BreakTag</text>
<text text-anchor="start" x="14" y="-122.5" font-family="Helvetica,sans-Serif" font-size="10.00"> &amp;toCopy)</text>
<text text-anchor="start" x="4" y="-106.5" font-family="Helvetica,sans-Serif" font-size="10.00">+</text>
<text text-anchor="start" x="14" y="-106.5" font-family="Helvetica,sans-Serif" font-size="10.00">std::shared_ptr&lt; BreakTag</text>
<text text-anchor="start" x="14" y="-94.5" font-family="Helvetica,sans-Serif" font-size="10.00"> &gt; clone()</text>
<text text-anchor="start" x="4" y="-78.5" font-family="Helvetica,sans-Serif" font-size="10.00">+</text>
<text text-anchor="start" x="14" y="-78.5" font-family="Helvetica,sans-Serif" font-size="10.00">void execute() override</text>
<polygon fill="#666666" stroke="#666666" points="0,-178 0,-178 133.5,-178 133.5,-178 0,-178"/>
<polygon fill="#666666" stroke="#666666" points="0,-162 0,-162 133.5,-162 133.5,-162 0,-162"/>
<polygon fill="none" stroke="#666666" points="0,-72 0,-196 133.5,-196 133.5,-72 0,-72"/>
</a>
</g>
</g>
<!-- Node1&#45;&gt;Node3 -->
<g id="edge2_Node000001_Node000003" class="edge">
<title>Node1&#45;&gt;Node3</title>
<g id="a_edge2_Node000001_Node000003"><a xlink:title=" ">
<path fill="none" stroke="#63b8ff" d="M612.78,-453.09C498.79,-434.76 281.92,-386.04 141.75,-268 119.04,-248.88 101.85,-221.03 89.69,-195.75"/>
<polygon fill="none" stroke="#63b8ff" points="612.24,-456.55 622.66,-454.64 613.33,-449.64 612.24,-456.55"/>
</a>
</g>
</g>
<!-- Node4 -->
<g id="Node000004" class="node">
<title>Node4</title>
<g id="a_Node000004"><a xlink:href="class_case_tag.html" target="_top" xlink:title=" ">
<polygon fill="white" stroke="none" points="214.25,-160 151.25,-160 151.25,-108 214.25,-108 214.25,-160"/>
<text text-anchor="start" x="163.25" y="-146.5" font-family="Helvetica,sans-Serif" font-size="10.00">CaseTag</text>
<text text-anchor="start" x="181.25" y="-130.5" font-family="Helvetica,sans-Serif" font-size="10.00"> </text>
<text text-anchor="start" x="155.25" y="-114.5" font-family="Helvetica,sans-Serif" font-size="10.00">+</text>
<text text-anchor="start" x="165.25" y="-114.5" font-family="Helvetica,sans-Serif" font-size="10.00">CaseTag()</text>
<polygon fill="#666666" stroke="#666666" points="151.25,-142 151.25,-142 214.25,-142 214.25,-142 151.25,-142"/>
<polygon fill="#666666" stroke="#666666" points="151.25,-126 151.25,-126 214.25,-126 214.25,-126 151.25,-126"/>
<polygon fill="none" stroke="#666666" points="151.25,-108 151.25,-160 214.25,-160 214.25,-108 151.25,-108"/>
</a>
</g>
</g>
<!-- Node1&#45;&gt;Node4 -->
<g id="edge3_Node000001_Node000004" class="edge">
<title>Node1&#45;&gt;Node4</title>
<g id="a_edge3_Node000001_Node000004"><a xlink:title=" ">
<path fill="none" stroke="#63b8ff" d="M612.88,-451.74C509.87,-432.46 326.72,-383.4 222.75,-268 195.39,-237.64 186.73,-189.17 183.99,-159.89"/>
<polygon fill="none" stroke="#63b8ff" points="612.17,-455.16 622.63,-453.51 613.42,-448.28 612.17,-455.16"/>
</a>
</g>
</g>
<!-- Node5 -->
<g id="Node000005" class="node">
<title>Node5</title>
<g id="a_Node000005"><a xlink:href="class_continue_tag.html" target="_top" xlink:title=" ">
<polygon fill="white" stroke="none" points="363.38,-196 232.12,-196 232.12,-72 363.38,-72 363.38,-196"/>
<text text-anchor="start" x="270.38" y="-182.5" font-family="Helvetica,sans-Serif" font-size="10.00">ContinueTag</text>
<text text-anchor="start" x="296.25" y="-166.5" font-family="Helvetica,sans-Serif" font-size="10.00"> </text>
<text text-anchor="start" x="236.12" y="-150.5" font-family="Helvetica,sans-Serif" font-size="10.00">+</text>
<text text-anchor="start" x="246.12" y="-150.5" font-family="Helvetica,sans-Serif" font-size="10.00">ContinueTag()</text>
<text text-anchor="start" x="236.12" y="-134.5" font-family="Helvetica,sans-Serif" font-size="10.00">+</text>
<text text-anchor="start" x="246.12" y="-134.5" font-family="Helvetica,sans-Serif" font-size="10.00">ContinueTag(const</text>
<text text-anchor="start" x="246.12" y="-122.5" font-family="Helvetica,sans-Serif" font-size="10.00"> ContinueTag &amp;toCopy)</text>
<text text-anchor="start" x="236.12" y="-106.5" font-family="Helvetica,sans-Serif" font-size="10.00">+</text>
<text text-anchor="start" x="246.12" y="-106.5" font-family="Helvetica,sans-Serif" font-size="10.00">std::shared_ptr&lt; Continue</text>
<text text-anchor="start" x="246.12" y="-94.5" font-family="Helvetica,sans-Serif" font-size="10.00">Tag &gt; clone()</text>
<text text-anchor="start" x="236.12" y="-78.5" font-family="Helvetica,sans-Serif" font-size="10.00">+</text>
<text text-anchor="start" x="246.12" y="-78.5" font-family="Helvetica,sans-Serif" font-size="10.00">void execute() override</text>
<polygon fill="#666666" stroke="#666666" points="232.12,-178 232.12,-178 363.38,-178 363.38,-178 232.12,-178"/>
<polygon fill="#666666" stroke="#666666" points="232.12,-162 232.12,-162 363.38,-162 363.38,-162 232.12,-162"/>
<polygon fill="none" stroke="#666666" points="232.12,-72 232.12,-196 363.38,-196 363.38,-72 232.12,-72"/>
</a>
</g>
</g>
<!-- Node1&#45;&gt;Node5 -->
<g id="edge4_Node000001_Node000005" class="edge">
<title>Node1&#45;&gt;Node5</title>
<g id="a_edge4_Node000001_Node000005"><a xlink:title=" ">
<path fill="none" stroke="#63b8ff" d="M613.66,-430.16C544.53,-397.05 442.44,-340.5 372.75,-268 352.82,-247.27 336.31,-220.22 323.9,-195.93"/>
<polygon fill="none" stroke="#63b8ff" points="612.13,-433.31 622.67,-434.43 615.13,-426.99 612.13,-433.31"/>
</a>
</g>
</g>
<!-- Node6 -->
<g id="Node000006" class="node">
<title>Node6</title>
<g id="a_Node000006"><a xlink:href="class_do_loop_tag.html" target="_top" xlink:title=" ">
<polygon fill="white" stroke="none" points="536,-222 381.5,-222 381.5,-46 536,-46 536,-222"/>
<text text-anchor="start" x="434" y="-208.5" font-family="Helvetica,sans-Serif" font-size="10.00">DoLoopTag</text>
<text text-anchor="start" x="457.25" y="-192.5" font-family="Helvetica,sans-Serif" font-size="10.00"> </text>
<text text-anchor="start" x="385.5" y="-176.5" font-family="Helvetica,sans-Serif" font-size="10.00">+</text>
<text text-anchor="start" x="395.5" y="-176.5" font-family="Helvetica,sans-Serif" font-size="10.00">DoLoopTag()</text>
<text text-anchor="start" x="385.5" y="-160.5" font-family="Helvetica,sans-Serif" font-size="10.00">+</text>
<text text-anchor="start" x="395.5" y="-160.5" font-family="Helvetica,sans-Serif" font-size="10.00">DoLoopTag(const DoLoopTag</text>
<text text-anchor="start" x="395.5" y="-148.5" font-family="Helvetica,sans-Serif" font-size="10.00"> &amp;toCopy)</text>
<text text-anchor="start" x="385.5" y="-132.5" font-family="Helvetica,sans-Serif" font-size="10.00">+</text>
<text text-anchor="start" x="395.5" y="-132.5" font-family="Helvetica,sans-Serif" font-size="10.00">DoLoopTag(const std</text>
<text text-anchor="start" x="395.5" y="-120.5" font-family="Helvetica,sans-Serif" font-size="10.00">::shared_ptr&lt; Tag &gt; &amp;condition,</text>
<text text-anchor="start" x="395.5" y="-108.5" font-family="Helvetica,sans-Serif" font-size="10.00"> const std::vector&lt; std::shared</text>
<text text-anchor="start" x="395.5" y="-96.5" font-family="Helvetica,sans-Serif" font-size="10.00">_ptr&lt; Tag &gt; &gt; &amp;nestedTags)</text>
<text text-anchor="start" x="385.5" y="-80.5" font-family="Helvetica,sans-Serif" font-size="10.00">+</text>
<text text-anchor="start" x="395.5" y="-80.5" font-family="Helvetica,sans-Serif" font-size="10.00">std::shared_ptr&lt; DoLoopTag</text>
<text text-anchor="start" x="395.5" y="-68.5" font-family="Helvetica,sans-Serif" font-size="10.00"> &gt; clone()</text>
<text text-anchor="start" x="385.5" y="-52.5" font-family="Helvetica,sans-Serif" font-size="10.00">+</text>
<text text-anchor="start" x="395.5" y="-52.5" font-family="Helvetica,sans-Serif" font-size="10.00">void execute() override</text>
<polygon fill="#666666" stroke="#666666" points="381.5,-204 381.5,-204 536,-204 536,-204 381.5,-204"/>
<polygon fill="#666666" stroke="#666666" points="381.5,-188 381.5,-188 536,-188 536,-188 381.5,-188"/>
<polygon fill="none" stroke="#666666" points="381.5,-46 381.5,-222 536,-222 536,-46 381.5,-46"/>
</a>
</g>
</g>
<!-- Node1&#45;&gt;Node6 -->
<g id="edge5_Node000001_Node000006" class="edge">
<title>Node1&#45;&gt;Node6</title>
<g id="a_edge5_Node000001_Node000006"><a xlink:title=" ">
<path fill="none" stroke="#63b8ff" d="M617.56,-369.07C593.96,-337.28 567.83,-301.38 544.75,-268 534.51,-253.19 523.87,-237.25 513.72,-221.73"/>
<polygon fill="none" stroke="#63b8ff" points="614.46,-370.77 623.24,-376.71 620.08,-366.59 614.46,-370.77"/>
</a>
</g>
</g>
<!-- Node7 -->
<g id="Node000007" class="node">
<title>Node7</title>
<g id="a_Node000007"><a xlink:href="class_elif_tag.html" target="_top" xlink:title=" ">
<polygon fill="white" stroke="none" points="679.38,-228 554.12,-228 554.12,-40 679.38,-40 679.38,-228"/>
<text text-anchor="start" x="601.75" y="-214.5" font-family="Helvetica,sans-Serif" font-size="10.00">ElifTag</text>
<text text-anchor="start" x="615.25" y="-198.5" font-family="Helvetica,sans-Serif" font-size="10.00"> </text>
<text text-anchor="start" x="558.12" y="-182.5" font-family="Helvetica,sans-Serif" font-size="10.00">+</text>
<text text-anchor="start" x="568.12" y="-182.5" font-family="Helvetica,sans-Serif" font-size="10.00">ElifTag()</text>
<text text-anchor="start" x="558.12" y="-166.5" font-family="Helvetica,sans-Serif" font-size="10.00">+</text>
<text text-anchor="start" x="568.12" y="-166.5" font-family="Helvetica,sans-Serif" font-size="10.00">ElifTag(const ElifTag</text>
<text text-anchor="start" x="568.12" y="-154.5" font-family="Helvetica,sans-Serif" font-size="10.00"> &amp;toCopy)</text>
<text text-anchor="start" x="558.12" y="-138.5" font-family="Helvetica,sans-Serif" font-size="10.00">+</text>
<text text-anchor="start" x="568.12" y="-138.5" font-family="Helvetica,sans-Serif" font-size="10.00">ElifTag(const std</text>
<text text-anchor="start" x="568.12" y="-126.5" font-family="Helvetica,sans-Serif" font-size="10.00">::shared_ptr&lt; Tag &gt;</text>
<text text-anchor="start" x="568.12" y="-114.5" font-family="Helvetica,sans-Serif" font-size="10.00"> &amp;condition, const std</text>
<text text-anchor="start" x="568.12" y="-102.5" font-family="Helvetica,sans-Serif" font-size="10.00">::vector&lt; std::shared_ptr</text>
<text text-anchor="start" x="568.12" y="-90.5" font-family="Helvetica,sans-Serif" font-size="10.00">&lt; Tag &gt; &gt; &amp;listTags)</text>
<text text-anchor="start" x="558.12" y="-74.5" font-family="Helvetica,sans-Serif" font-size="10.00">+</text>
<text text-anchor="start" x="568.12" y="-74.5" font-family="Helvetica,sans-Serif" font-size="10.00">std::shared_ptr&lt; ElifTag</text>
<text text-anchor="start" x="568.12" y="-62.5" font-family="Helvetica,sans-Serif" font-size="10.00"> &gt; clone()</text>
<text text-anchor="start" x="558.12" y="-46.5" font-family="Helvetica,sans-Serif" font-size="10.00">+</text>
<text text-anchor="start" x="568.12" y="-46.5" font-family="Helvetica,sans-Serif" font-size="10.00">void execute() override</text>
<polygon fill="#666666" stroke="#666666" points="554.12,-210 554.12,-210 679.38,-210 679.38,-210 554.12,-210"/>
<polygon fill="#666666" stroke="#666666" points="554.12,-194 554.12,-194 679.38,-194 679.38,-194 554.12,-194"/>
<polygon fill="none" stroke="#666666" points="554.12,-40 554.12,-228 679.38,-228 679.38,-40 554.12,-40"/>
</a>
</g>
</g>
<!-- Node1&#45;&gt;Node7 -->
<g id="edge6_Node000001_Node000007" class="edge">
<title>Node1&#45;&gt;Node7</title>
<g id="a_edge6_Node000001_Node000007"><a xlink:title=" ">
<path fill="none" stroke="#63b8ff" d="M651.49,-293.24C646.55,-270.76 641.65,-248.42 637.15,-227.92"/>
<polygon fill="none" stroke="#63b8ff" points="648.02,-293.79 653.59,-302.81 654.86,-292.29 648.02,-293.79"/>
</a>
</g>
</g>
<!-- Node8 -->
<g id="Node000008" class="node">
<title>Node8</title>
<g id="a_Node000008"><a xlink:href="class_else_tag.html" target="_top" xlink:title=" ">
<polygon fill="white" stroke="none" points="824.5,-216 697,-216 697,-52 824.5,-52 824.5,-216"/>
<text text-anchor="start" x="743.12" y="-202.5" font-family="Helvetica,sans-Serif" font-size="10.00">ElseTag</text>
<text text-anchor="start" x="759.25" y="-186.5" font-family="Helvetica,sans-Serif" font-size="10.00"> </text>
<text text-anchor="start" x="701" y="-170.5" font-family="Helvetica,sans-Serif" font-size="10.00">+</text>
<text text-anchor="start" x="711" y="-170.5" font-family="Helvetica,sans-Serif" font-size="10.00">ElseTag()</text>
<text text-anchor="start" x="701" y="-154.5" font-family="Helvetica,sans-Serif" font-size="10.00">+</text>
<text text-anchor="start" x="711" y="-154.5" font-family="Helvetica,sans-Serif" font-size="10.00">ElseTag(const ElseTag</text>
<text text-anchor="start" x="711" y="-142.5" font-family="Helvetica,sans-Serif" font-size="10.00"> &amp;toCopy)</text>
<text text-anchor="start" x="701" y="-126.5" font-family="Helvetica,sans-Serif" font-size="10.00">+</text>
<text text-anchor="start" x="711" y="-126.5" font-family="Helvetica,sans-Serif" font-size="10.00">ElseTag(const std</text>
<text text-anchor="start" x="711" y="-114.5" font-family="Helvetica,sans-Serif" font-size="10.00">::vector&lt; std::shared</text>
<text text-anchor="start" x="711" y="-102.5" font-family="Helvetica,sans-Serif" font-size="10.00">_ptr&lt; Tag &gt; &gt; &amp;listTags)</text>
<text text-anchor="start" x="701" y="-86.5" font-family="Helvetica,sans-Serif" font-size="10.00">+</text>
<text text-anchor="start" x="711" y="-86.5" font-family="Helvetica,sans-Serif" font-size="10.00">std::shared_ptr&lt; ElseTag</text>
<text text-anchor="start" x="711" y="-74.5" font-family="Helvetica,sans-Serif" font-size="10.00"> &gt; clone()</text>
<text text-anchor="start" x="701" y="-58.5" font-family="Helvetica,sans-Serif" font-size="10.00">+</text>
<text text-anchor="start" x="711" y="-58.5" font-family="Helvetica,sans-Serif" font-size="10.00">void execute() override</text>
<polygon fill="#666666" stroke="#666666" points="697,-198 697,-198 824.5,-198 824.5,-198 697,-198"/>
<polygon fill="#666666" stroke="#666666" points="697,-182 697,-182 824.5,-182 824.5,-182 697,-182"/>
<polygon fill="none" stroke="#666666" points="697,-52 697,-216 824.5,-216 824.5,-52 697,-52"/>
</a>
</g>
</g>
<!-- Node1&#45;&gt;Node8 -->
<g id="edge7_Node000001_Node000008" class="edge">
<title>Node1&#45;&gt;Node8</title>
<g id="a_edge7_Node000001_Node000008"><a xlink:title=" ">
<path fill="none" stroke="#63b8ff" d="M726.04,-293.11C731.97,-266.1 737.86,-239.29 743.05,-215.64"/>
<polygon fill="none" stroke="#63b8ff" points="722.64,-292.29 723.91,-302.81 729.48,-293.79 722.64,-292.29"/>
</a>
</g>
</g>
<!-- Node9 -->
<g id="Node000009" class="node">
<title>Node9</title>
<g id="a_Node000009"><a xlink:href="class_if_tag.html" target="_top" xlink:title=" ">
<polygon fill="white" stroke="none" points="1000.88,-222 842.62,-222 842.62,-46 1000.88,-46 1000.88,-222"/>
<text text-anchor="start" x="910.88" y="-208.5" font-family="Helvetica,sans-Serif" font-size="10.00">IfTag</text>
<text text-anchor="start" x="920.25" y="-192.5" font-family="Helvetica,sans-Serif" font-size="10.00"> </text>
<text text-anchor="start" x="846.62" y="-176.5" font-family="Helvetica,sans-Serif" font-size="10.00">+</text>
<text text-anchor="start" x="856.62" y="-176.5" font-family="Helvetica,sans-Serif" font-size="10.00">IfTag()</text>
<text text-anchor="start" x="846.62" y="-160.5" font-family="Helvetica,sans-Serif" font-size="10.00">+</text>
<text text-anchor="start" x="856.62" y="-160.5" font-family="Helvetica,sans-Serif" font-size="10.00">IfTag(const IfTag</text>
<text text-anchor="start" x="856.62" y="-148.5" font-family="Helvetica,sans-Serif" font-size="10.00"> &amp;toCopy)</text>
<text text-anchor="start" x="846.62" y="-132.5" font-family="Helvetica,sans-Serif" font-size="10.00">+</text>
<text text-anchor="start" x="856.62" y="-132.5" font-family="Helvetica,sans-Serif" font-size="10.00">IfTag(const std::shared</text>
<text text-anchor="start" x="856.62" y="-120.5" font-family="Helvetica,sans-Serif" font-size="10.00">_ptr&lt; Tag &gt; &amp;condition,</text>
<text text-anchor="start" x="856.62" y="-108.5" font-family="Helvetica,sans-Serif" font-size="10.00"> const std::vector&lt; std</text>
<text text-anchor="start" x="856.62" y="-96.5" font-family="Helvetica,sans-Serif" font-size="10.00">::shared_ptr&lt; Tag &gt; &gt; &amp;listTags)</text>
<text text-anchor="start" x="846.62" y="-80.5" font-family="Helvetica,sans-Serif" font-size="10.00">+</text>
<text text-anchor="start" x="856.62" y="-80.5" font-family="Helvetica,sans-Serif" font-size="10.00">std::shared_ptr&lt; IfTag</text>
<text text-anchor="start" x="856.62" y="-68.5" font-family="Helvetica,sans-Serif" font-size="10.00"> &gt; clone()</text>
<text text-anchor="start" x="846.62" y="-52.5" font-family="Helvetica,sans-Serif" font-size="10.00">+</text>
<text text-anchor="start" x="856.62" y="-52.5" font-family="Helvetica,sans-Serif" font-size="10.00">void execute() override</text>
<polygon fill="#666666" stroke="#666666" points="842.62,-204 842.62,-204 1000.88,-204 1000.88,-204 842.62,-204"/>
<polygon fill="#666666" stroke="#666666" points="842.62,-188 842.62,-188 1000.88,-188 1000.88,-188 842.62,-188"/>
<polygon fill="none" stroke="#666666" points="842.62,-46 842.62,-222 1000.88,-222 1000.88,-46 842.62,-46"/>
</a>
</g>
</g>
<!-- Node1&#45;&gt;Node9 -->
<g id="edge8_Node000001_Node000009" class="edge">
<title>Node1&#45;&gt;Node9</title>
<g id="a_edge8_Node000001_Node000009"><a xlink:title=" ">
<path fill="none" stroke="#63b8ff" d="M759.95,-369.43C783.79,-337.52 810.27,-301.46 833.75,-268 844.17,-253.16 855.02,-237.2 865.39,-221.68"/>
<polygon fill="none" stroke="#63b8ff" points="757.4,-367 754.2,-377.1 763,-371.19 757.4,-367"/>
</a>
</g>
</g>
<!-- Node10 -->
<g id="Node000010" class="node">
<title>Node10</title>
<g id="a_Node000010"><a xlink:href="class_loop_tag.html" target="_top" xlink:title=" ">
<polygon fill="white" stroke="none" points="1185,-268 1018.5,-268 1018.5,0 1185,0 1185,-268"/>
<text text-anchor="start" x="1083.38" y="-254.5" font-family="Helvetica,sans-Serif" font-size="10.00">LoopTag</text>
<text text-anchor="start" x="1100.25" y="-238.5" font-family="Helvetica,sans-Serif" font-size="10.00"> </text>
<text text-anchor="start" x="1022.5" y="-222.5" font-family="Helvetica,sans-Serif" font-size="10.00">+</text>
<text text-anchor="start" x="1032.5" y="-222.5" font-family="Helvetica,sans-Serif" font-size="10.00">LoopTag()</text>
<text text-anchor="start" x="1022.5" y="-206.5" font-family="Helvetica,sans-Serif" font-size="10.00">+</text>
<text text-anchor="start" x="1032.5" y="-206.5" font-family="Helvetica,sans-Serif" font-size="10.00">LoopTag(const std</text>
<text text-anchor="start" x="1032.5" y="-194.5" font-family="Helvetica,sans-Serif" font-size="10.00">::shared_ptr&lt; Tag &gt;conditionTag)</text>
<text text-anchor="start" x="1022.5" y="-178.5" font-family="Helvetica,sans-Serif" font-size="10.00">+</text>
<text text-anchor="start" x="1032.5" y="-178.5" font-family="Helvetica,sans-Serif" font-size="10.00">LoopTag(const std</text>
<text text-anchor="start" x="1032.5" y="-166.5" font-family="Helvetica,sans-Serif" font-size="10.00">::shared_ptr&lt; Tag &gt;condition</text>
<text text-anchor="start" x="1032.5" y="-154.5" font-family="Helvetica,sans-Serif" font-size="10.00">Tag, const std::vector&lt; std</text>
<text text-anchor="start" x="1032.5" y="-142.5" font-family="Helvetica,sans-Serif" font-size="10.00">::shared_ptr&lt; Tag &gt; &gt; &amp;bodyTags)</text>
<text text-anchor="start" x="1022.5" y="-126.5" font-family="Helvetica,sans-Serif" font-size="10.00">+</text>
<text text-anchor="start" x="1032.5" y="-126.5" font-family="Helvetica,sans-Serif" font-size="10.00">LoopTag(const LoopTag</text>
<text text-anchor="start" x="1032.5" y="-114.5" font-family="Helvetica,sans-Serif" font-size="10.00"> &amp;toCopy)</text>
<text text-anchor="start" x="1022.5" y="-98.5" font-family="Helvetica,sans-Serif" font-size="10.00">+</text>
<text text-anchor="start" x="1032.5" y="-98.5" font-family="Helvetica,sans-Serif" font-size="10.00">LoopTag(const std</text>
<text text-anchor="start" x="1032.5" y="-86.5" font-family="Helvetica,sans-Serif" font-size="10.00">::shared_ptr&lt; Tag &gt;</text>
<text text-anchor="start" x="1032.5" y="-74.5" font-family="Helvetica,sans-Serif" font-size="10.00"> &amp;condition, const std</text>
<text text-anchor="start" x="1032.5" y="-62.5" font-family="Helvetica,sans-Serif" font-size="10.00">::vector&lt; std::shared_ptr</text>
<text text-anchor="start" x="1032.5" y="-50.5" font-family="Helvetica,sans-Serif" font-size="10.00">&lt; Tag &gt; &gt; &amp;listTags)</text>
<text text-anchor="start" x="1022.5" y="-34.5" font-family="Helvetica,sans-Serif" font-size="10.00">+</text>
<text text-anchor="start" x="1032.5" y="-34.5" font-family="Helvetica,sans-Serif" font-size="10.00">std::shared_ptr&lt; LoopTag</text>
<text text-anchor="start" x="1032.5" y="-22.5" font-family="Helvetica,sans-Serif" font-size="10.00"> &gt; clone()</text>
<text text-anchor="start" x="1022.5" y="-6.5" font-family="Helvetica,sans-Serif" font-size="10.00">+</text>
<text text-anchor="start" x="1032.5" y="-6.5" font-family="Helvetica,sans-Serif" font-size="10.00">void execute() override</text>
<polygon fill="#666666" stroke="#666666" points="1018.5,-250 1018.5,-250 1185,-250 1185,-250 1018.5,-250"/>
<polygon fill="#666666" stroke="#666666" points="1018.5,-234 1018.5,-234 1185,-234 1185,-234 1018.5,-234"/>
<polygon fill="none" stroke="#666666" points="1018.5,0 1018.5,-268 1185,-268 1185,0 1018.5,0"/>
</a>
</g>
</g>
<!-- Node1&#45;&gt;Node10 -->
<g id="edge9_Node000001_Node000010" class="edge">
<title>Node1&#45;&gt;Node10</title>
<g id="a_edge9_Node000001_Node000010"><a xlink:title=" ">
<path fill="none" stroke="#63b8ff" d="M763.44,-428.97C832.62,-394.97 935.69,-337.8 1009.75,-268 1012.71,-265.21 1015.63,-262.31 1018.51,-259.31"/>
<polygon fill="none" stroke="#63b8ff" points="762.31,-425.63 754.85,-433.15 765.37,-431.92 762.31,-425.63"/>
</a>
</g>
</g>
<!-- Node11 -->
<g id="Node000011" class="node">
<title>Node11</title>
<g id="a_Node000011"><a xlink:href="class_main_tag.html" target="_top" xlink:title=" ">
<polygon fill="white" stroke="none" points="1332.25,-222 1203.25,-222 1203.25,-46 1332.25,-46 1332.25,-222"/>
<text text-anchor="start" x="1249.38" y="-208.5" font-family="Helvetica,sans-Serif" font-size="10.00">MainTag</text>
<text text-anchor="start" x="1207.25" y="-192.5" font-family="Helvetica,sans-Serif" font-size="10.00">+</text>
<text text-anchor="start" x="1217.25" y="-192.5" font-family="Helvetica,sans-Serif" font-size="10.00">std::vector&lt; std::shared</text>
<text text-anchor="start" x="1217.25" y="-180.5" font-family="Helvetica,sans-Serif" font-size="10.00">_ptr&lt; Tag &gt; &gt; argvTag</text>
<text text-anchor="start" x="1207.25" y="-164.5" font-family="Helvetica,sans-Serif" font-size="10.00">+</text>
<text text-anchor="start" x="1217.25" y="-164.5" font-family="Helvetica,sans-Serif" font-size="10.00">MainTag()</text>
<text text-anchor="start" x="1207.25" y="-148.5" font-family="Helvetica,sans-Serif" font-size="10.00">+</text>
<text text-anchor="start" x="1217.25" y="-148.5" font-family="Helvetica,sans-Serif" font-size="10.00">MainTag(const MainTag</text>
<text text-anchor="start" x="1217.25" y="-136.5" font-family="Helvetica,sans-Serif" font-size="10.00"> &amp;toCopy)</text>
<text text-anchor="start" x="1207.25" y="-120.5" font-family="Helvetica,sans-Serif" font-size="10.00">+</text>
<text text-anchor="start" x="1217.25" y="-120.5" font-family="Helvetica,sans-Serif" font-size="10.00">MainTag(const std</text>
<text text-anchor="start" x="1217.25" y="-108.5" font-family="Helvetica,sans-Serif" font-size="10.00">::vector&lt; std::shared</text>
<text text-anchor="start" x="1217.25" y="-96.5" font-family="Helvetica,sans-Serif" font-size="10.00">_ptr&lt; Tag &gt; &gt; &amp;tags)</text>
<text text-anchor="start" x="1207.25" y="-80.5" font-family="Helvetica,sans-Serif" font-size="10.00">+</text>
<text text-anchor="start" x="1217.25" y="-80.5" font-family="Helvetica,sans-Serif" font-size="10.00">std::shared_ptr&lt; MainTag</text>
<text text-anchor="start" x="1217.25" y="-68.5" font-family="Helvetica,sans-Serif" font-size="10.00"> &gt; clone()</text>
<text text-anchor="start" x="1207.25" y="-52.5" font-family="Helvetica,sans-Serif" font-size="10.00">+</text>
<text text-anchor="start" x="1217.25" y="-52.5" font-family="Helvetica,sans-Serif" font-size="10.00">void execute() override</text>
<polygon fill="#666666" stroke="#666666" points="1203.25,-204 1203.25,-204 1332.25,-204 1332.25,-204 1203.25,-204"/>
<polygon fill="#666666" stroke="#666666" points="1203.25,-176 1203.25,-176 1215.25,-176 1215.25,-176 1203.25,-176"/>
<polygon fill="#666666" stroke="#666666" points="1215.25,-176 1215.25,-176 1332.25,-176 1332.25,-176 1215.25,-176"/>
<polygon fill="none" stroke="#666666" points="1203.25,-46 1203.25,-222 1332.25,-222 1332.25,-46 1203.25,-46"/>
</a>
</g>
</g>
<!-- Node1&#45;&gt;Node11 -->
<g id="edge10_Node000001_Node000011" class="edge">
<title>Node1&#45;&gt;Node11</title>
<g id="a_edge10_Node000001_Node000011"><a xlink:title=" ">
<path fill="none" stroke="#63b8ff" d="M764.45,-450.54C871.2,-429.56 1067.04,-378.19 1193.75,-268 1208.41,-255.26 1220.74,-238.87 1230.89,-221.97"/>
<polygon fill="none" stroke="#63b8ff" points="764.11,-447.04 754.95,-452.36 765.43,-453.91 764.11,-447.04"/>
</a>
</g>
</g>
<!-- Node12 -->
<g id="Node000012" class="node">
<title>Node12</title>
<g id="a_Node000012"><a xlink:href="class_switch_tag.html" target="_top" xlink:title=" ">
<polygon fill="white" stroke="none" points="1419.62,-160 1349.88,-160 1349.88,-108 1419.62,-108 1419.62,-160"/>
<text text-anchor="start" x="1361.88" y="-146.5" font-family="Helvetica,sans-Serif" font-size="10.00">SwitchTag</text>
<text text-anchor="start" x="1383.25" y="-130.5" font-family="Helvetica,sans-Serif" font-size="10.00"> </text>
<text text-anchor="start" x="1353.88" y="-114.5" font-family="Helvetica,sans-Serif" font-size="10.00">+</text>
<text text-anchor="start" x="1363.88" y="-114.5" font-family="Helvetica,sans-Serif" font-size="10.00">SwitchTag()</text>
<polygon fill="#666666" stroke="#666666" points="1349.88,-142 1349.88,-142 1419.62,-142 1419.62,-142 1349.88,-142"/>
<polygon fill="#666666" stroke="#666666" points="1349.88,-126 1349.88,-126 1419.62,-126 1419.62,-126 1349.88,-126"/>
<polygon fill="none" stroke="#666666" points="1349.88,-108 1349.88,-160 1419.62,-160 1419.62,-108 1349.88,-108"/>
</a>
</g>
</g>
<!-- Node1&#45;&gt;Node12 -->
<g id="edge11_Node000001_Node000012" class="edge">
<title>Node1&#45;&gt;Node12</title>
<g id="a_edge11_Node000001_Node000012"><a xlink:title=" ">
<path fill="none" stroke="#63b8ff" d="M764.61,-462.13C899.28,-456.44 1181.05,-425.13 1341.75,-268 1371.33,-239.07 1380.59,-189.68 1383.46,-159.92"/>
<polygon fill="none" stroke="#63b8ff" points="764.58,-458.63 754.73,-462.51 764.85,-465.63 764.58,-458.63"/>
</a>
</g>
</g>
<!-- Node2 -->
<g id="Node000002" class="node">
<title>Node2</title>
<g id="a_Node000002"><a xlink:href="class_tag.html" target="_top" xlink:title=" ">
<polygon fill="white" stroke="none" points="750.25,-820 627.25,-820 627.25,-660 750.25,-660 750.25,-820"/>
<text text-anchor="start" x="680.88" y="-806.5" font-family="Helvetica,sans-Serif" font-size="10.00">Tag</text>
<text text-anchor="start" x="631.25" y="-790.5" font-family="Helvetica,sans-Serif" font-size="10.00">+</text>
<text text-anchor="start" x="641.25" y="-790.5" font-family="Helvetica,sans-Serif" font-size="10.00">std::string tagText</text>
<text text-anchor="start" x="631.25" y="-774.5" font-family="Helvetica,sans-Serif" font-size="10.00">+</text>
<text text-anchor="start" x="641.25" y="-774.5" font-family="Helvetica,sans-Serif" font-size="10.00">int nbParents</text>
<text text-anchor="start" x="631.25" y="-758.5" font-family="Helvetica,sans-Serif" font-size="10.00">+</text>
<text text-anchor="start" x="641.25" y="-758.5" font-family="Helvetica,sans-Serif" font-size="10.00">bool doExecute</text>
<text text-anchor="start" x="631.25" y="-742.5" font-family="Helvetica,sans-Serif" font-size="10.00">+</text>
<text text-anchor="start" x="641.25" y="-742.5" font-family="Helvetica,sans-Serif" font-size="10.00">TagType myType</text>
<text text-anchor="start" x="631.25" y="-726.5" font-family="Helvetica,sans-Serif" font-size="10.00">+</text>
<text text-anchor="start" x="641.25" y="-726.5" font-family="Helvetica,sans-Serif" font-size="10.00">Tag()</text>
<text text-anchor="start" x="631.25" y="-710.5" font-family="Helvetica,sans-Serif" font-size="10.00">+</text>
<text text-anchor="start" x="641.25" y="-710.5" font-family="Helvetica,sans-Serif" font-size="10.00">Tag(const Tag &amp;toCopy)</text>
<text text-anchor="start" x="631.25" y="-694.5" font-family="Helvetica,sans-Serif" font-size="10.00">+</text>
<text text-anchor="start" x="641.25" y="-694.5" font-family="Helvetica,sans-Serif" font-size="10.00">std::shared_ptr&lt; Tag</text>
<text text-anchor="start" x="641.25" y="-682.5" font-family="Helvetica,sans-Serif" font-size="10.00"> &gt; clone()</text>
<text text-anchor="start" x="631.25" y="-666.5" font-family="Helvetica,sans-Serif" font-size="10.00">+</text>
<text text-anchor="start" x="641.25" y="-666.5" font-family="Helvetica,sans-Serif" font-size="10.00">virtual void execute()</text>
<polygon fill="#666666" stroke="#666666" points="627.25,-802 627.25,-802 750.25,-802 750.25,-802 627.25,-802"/>
<polygon fill="#666666" stroke="#666666" points="627.25,-738 627.25,-738 639.25,-738 639.25,-738 627.25,-738"/>
<polygon fill="#666666" stroke="#666666" points="639.25,-738 639.25,-738 750.25,-738 750.25,-738 639.25,-738"/>
<polygon fill="none" stroke="#666666" points="627.25,-660 627.25,-820 750.25,-820 750.25,-660 627.25,-660"/>
</a>
</g>
</g>
<!-- Node2&#45;&gt;Node1 -->
<g id="edge1_Node000001_Node000002" class="edge">
<title>Node2&#45;&gt;Node1</title>
<g id="a_edge1_Node000001_Node000002"><a xlink:title=" ">
<path fill="none" stroke="#63b8ff" d="M688.75,-648.83C688.75,-640.72 688.75,-632.37 688.75,-623.89"/>
<polygon fill="none" stroke="#63b8ff" points="685.25,-648.6 688.75,-658.6 692.25,-648.6 685.25,-648.6"/>
</a>
</g>
</g>
</g>
</svg>
