<?xml version="1.0" encoding="UTF-8" standalone="no"?>
<!DOCTYPE svg PUBLIC "-//W3C//DTD SVG 1.1//EN"
 "http://www.w3.org/Graphics/SVG/1.1/DTD/svg11.dtd">
<!-- Generated by graphviz version 12.2.0 (20241103.1931)
 -->
<!-- Title: MPKToken::addTokens Pages: 1 -->
<!--zoomable 513 -->

<svg id="main" version="1.1" xmlns="http://www.w3.org/2000/svg" xmlns:xlink="http://www.w3.org/1999/xlink" xml:space="preserve" onload="init(evt)">

<style type="text/css"><![CDATA[
.node, .edge {opacity: 0.7;}
.node.selected, .edge.selected {opacity: 1;}
.edge:hover path { stroke: red; }
.edge:hover polygon { stroke: red; fill: red; }
]]></style>

<defs>
  <circle id="rim" cx="0" cy="0" r="7"/>
  <circle id="rim2" cx="0" cy="0" r="3.5"/>
  <g id="zoomPlus">
    <use xlink:href="#rim" fill="#404040"><set attributeName="fill" to="#808080" begin="zoomplus.mouseover" end="zoomplus.mouseout"/></use>
    <path d="M-4,0h8M0,-4v8" fill="none" stroke="white" stroke-width="1.5" pointer-events="none"/>
  </g>
  <g id="zoomMin">
    <use xlink:href="#rim" fill="#404040"><set attributeName="fill" to="#808080" begin="zoomminus.mouseover" end="zoomminus.mouseout"/></use>
    <path d="M-4,0h8" fill="none" stroke="white" stroke-width="1.5" pointer-events="none"/>
  </g>
  <g id="arrowUp" transform="translate(30 24)">
    <use xlink:href="#rim"/>
    <path pointer-events="none" fill="none" stroke="white" stroke-width="1.5" d="M0,-3.0v7 M-2.5,-0.5L0,-3.0L2.5,-0.5"/>
  </g>
  <g id="arrowRight" transform="rotate(90) translate(36 -43)">
    <use xlink:href="#rim"/>
    <path pointer-events="none" fill="none" stroke="white" stroke-width="1.5" d="M0,-3.0v7 M-2.5,-0.5L0,-3.0L2.5,-0.5"/>
  </g>
  <g id="arrowDown" transform="rotate(180) translate(-30 -48)">
    <use xlink:href="#rim"/>
    <path pointer-events="none" fill="none" stroke="white" stroke-width="1.5" d="M0,-3.0v7 M-2.5,-0.5L0,-3.0L2.5,-0.5"/>
  </g>
  <g id="arrowLeft" transform="rotate(270) translate(-36 17)">
    <use xlink:href="#rim"/>
    <path pointer-events="none" fill="none" stroke="white" stroke-width="1.5" d="M0,-3.0v7 M-2.5,-0.5L0,-3.0L2.5,-0.5"/>
  </g>
  <g id="resetDef">
    <use xlink:href="#rim2" fill="#404040"><set attributeName="fill" to="#808080" begin="reset.mouseover" end="reset.mouseout"/></use>
  </g>
</defs>
<script type="application/ecmascript">
var viewWidth = 1095;
var viewHeight = 513;
var sectionId = 'dynsection-2';
</script>
<script type="application/ecmascript" xlink:href="svg.min.js"/>
<svg id="graph" class="graph">
<g id="viewport">
<title>MPKToken::addTokens</title>
<!-- Node1 -->
<g id="Node000001" class="node">
<title>Node1</title>
<g id="a_Node000001"><a xlink:title=" ">
<polygon fill="#999999" stroke="#666666" points="117.25,-448 0,-448 0,-428 117.25,-428 117.25,-448"/>
<text text-anchor="middle" x="58.62" y="-434.5" font-family="Helvetica,sans-Serif" font-size="10.00">MPKToken::addTokens</text>
</a>
</g>
</g>
<!-- Node2 -->
<g id="Node000002" class="node">
<title>Node2</title>
<g id="a_Node000002"><a xlink:href="class_p_k_token.html#a533aa21d507b12c9682e3babc83c4396" target="_top" xlink:title=" ">
<polygon fill="white" stroke="#666666" points="262.25,-448 153.25,-448 153.25,-428 262.25,-428 262.25,-448"/>
<text text-anchor="middle" x="207.75" y="-434.5" font-family="Helvetica,sans-Serif" font-size="10.00">PKToken::addTokens</text>
</a>
</g>
</g>
<!-- Node1&#45;&gt;Node2 -->
<g id="edge1_Node000001_Node000002" class="edge">
<title>Node1&#45;&gt;Node2</title>
<g id="a_edge1_Node000001_Node000002"><a xlink:title=" ">
<path fill="none" stroke="#63b8ff" d="M117.35,-438C125.34,-438 133.59,-438 141.7,-438"/>
<polygon fill="#63b8ff" stroke="#63b8ff" points="141.52,-441.5 151.52,-438 141.52,-434.5 141.52,-441.5"/>
</a>
</g>
</g>
<!-- Node3 -->
<g id="Node000003" class="node">
<title>Node3</title>
<g id="a_Node000003"><a xlink:href="class_p_k_token.html#aa0d39255200f157dcead5e02815c0345" target="_top" xlink:title=" ">
<polygon fill="white" stroke="#666666" points="412.12,-448 321.88,-448 321.88,-428 412.12,-428 412.12,-448"/>
<text text-anchor="middle" x="367" y="-434.5" font-family="Helvetica,sans-Serif" font-size="10.00">PKToken::addOp</text>
</a>
</g>
</g>
<!-- Node2&#45;&gt;Node3 -->
<g id="edge2_Node000002_Node000003" class="edge">
<title>Node2&#45;&gt;Node3</title>
<g id="a_edge2_Node000002_Node000003"><a xlink:title=" ">
<path fill="none" stroke="#63b8ff" d="M262.43,-438C277.89,-438 294.79,-438 310.37,-438"/>
<polygon fill="#63b8ff" stroke="#63b8ff" points="309.93,-441.5 319.93,-438 309.93,-434.5 309.93,-441.5"/>
</a>
</g>
</g>
<!-- Node10 -->
<g id="Node000010" class="node">
<title>Node10</title>
<g id="a_Node000010"><a xlink:href="class_k_token.html#aa70f9690ec470ceece17f9641bc9fb96" target="_top" xlink:title=" ">
<polygon fill="white" stroke="#666666" points="418.12,-505 315.88,-505 315.88,-485 418.12,-485 418.12,-505"/>
<text text-anchor="middle" x="367" y="-491.5" font-family="Helvetica,sans-Serif" font-size="10.00">KToken::addTokens</text>
</a>
</g>
</g>
<!-- Node2&#45;&gt;Node10 -->
<g id="edge9_Node000002_Node000010" class="edge">
<title>Node2&#45;&gt;Node10</title>
<g id="a_edge9_Node000002_Node000010"><a xlink:title=" ">
<path fill="none" stroke="#63b8ff" d="M237.59,-448.45C262.56,-457.51 298.91,-470.68 326.57,-480.71"/>
<polygon fill="#63b8ff" stroke="#63b8ff" points="325.06,-483.88 335.65,-484 327.44,-477.3 325.06,-483.88"/>
</a>
</g>
</g>
<!-- Node11 -->
<g id="Node000011" class="node">
<title>Node11</title>
<g id="a_Node000011"><a xlink:href="class_p_k_token.html#ab964c1ed5353551fafcab7d9f0053a86" target="_top" xlink:title=" ">
<polygon fill="white" stroke="#666666" points="435.75,-274 298.25,-274 298.25,-254 435.75,-254 435.75,-274"/>
<text text-anchor="middle" x="367" y="-260.5" font-family="Helvetica,sans-Serif" font-size="10.00">PKToken::handleArguments</text>
</a>
</g>
</g>
<!-- Node2&#45;&gt;Node11 -->
<g id="edge11_Node000002_Node000011" class="edge">
<title>Node2&#45;&gt;Node11</title>
<g id="a_edge11_Node000002_Node000011"><a xlink:title=" ">
<path fill="none" stroke="#63b8ff" d="M218.12,-427.64C243.96,-399.04 316.53,-318.73 349.43,-282.34"/>
<polygon fill="#63b8ff" stroke="#63b8ff" points="351.76,-284.98 355.87,-275.21 346.56,-280.29 351.76,-284.98"/>
</a>
</g>
</g>
<!-- Node4 -->
<g id="Node000004" class="node">
<title>Node4</title>
<g id="a_Node000004"><a xlink:href="class_p_k_token.html#a6161b28490f22a80ba2898bcc3fab9d8" target="_top" xlink:title=" ">
<polygon fill="white" stroke="#666666" points="759.5,-353 655.75,-353 655.75,-333 759.5,-333 759.5,-353"/>
<text text-anchor="middle" x="707.62" y="-339.5" font-family="Helvetica,sans-Serif" font-size="10.00">PKToken::addToken</text>
</a>
</g>
</g>
<!-- Node3&#45;&gt;Node4 -->
<g id="edge3_Node000003_Node000004" class="edge">
<title>Node3&#45;&gt;Node4</title>
<g id="a_edge3_Node000003_Node000004"><a xlink:title=" ">
<path fill="none" stroke="#63b8ff" d="M412.36,-430.34C462.76,-421.08 547.13,-403.84 617.5,-381 636.92,-374.7 657.97,-365.82 674.73,-358.24"/>
<polygon fill="#63b8ff" stroke="#63b8ff" points="676.07,-361.48 683.69,-354.11 673.14,-355.12 676.07,-361.48"/>
</a>
</g>
</g>
<!-- Node5 -->
<g id="Node000005" class="node">
<title>Node5</title>
<g id="a_Node000005"><a xlink:href="class_token.html#ade47ed51e2f495f6d847c1bff9fe8db6" target="_top" xlink:title=" ">
<polygon fill="white" stroke="#666666" points="910.12,-410 825.12,-410 825.12,-390 910.12,-390 910.12,-410"/>
<text text-anchor="middle" x="867.62" y="-396.5" font-family="Helvetica,sans-Serif" font-size="10.00">Token::addError</text>
</a>
</g>
</g>
<!-- Node4&#45;&gt;Node5 -->
<g id="edge4_Node000004_Node000005" class="edge">
<title>Node4&#45;&gt;Node5</title>
<g id="a_edge4_Node000004_Node000005"><a xlink:title=" ">
<path fill="none" stroke="#63b8ff" d="M737.6,-353.45C762.69,-362.51 799.22,-375.68 827,-385.71"/>
<polygon fill="#63b8ff" stroke="#63b8ff" points="825.54,-388.9 836.14,-389 827.92,-382.32 825.54,-388.9"/>
</a>
</g>
</g>
<!-- Node7 -->
<g id="Node000007" class="node">
<title>Node7</title>
<g id="a_Node000007"><a xlink:href="class_iterator_list.html#a4acf162e4a194bddd3c2fe26b073f45a" target="_top" xlink:title=" ">
<polygon fill="white" stroke="#666666" points="930,-315 805.25,-315 805.25,-295 930,-295 930,-315"/>
<text text-anchor="middle" x="867.62" y="-301.5" font-family="Helvetica,sans-Serif" font-size="10.00">IteratorList::currentToken</text>
</a>
</g>
</g>
<!-- Node4&#45;&gt;Node7 -->
<g id="edge6_Node000004_Node000007" class="edge">
<title>Node4&#45;&gt;Node7</title>
<g id="a_edge6_Node000004_Node000007"><a xlink:title=" ">
<path fill="none" stroke="#63b8ff" d="M752.22,-332.52C770.78,-328.05 792.64,-322.79 812.24,-318.08"/>
<polygon fill="#63b8ff" stroke="#63b8ff" points="812.8,-321.55 821.7,-315.8 811.16,-314.74 812.8,-321.55"/>
</a>
</g>
</g>
<!-- Node8 -->
<g id="Node000008" class="node">
<title>Node8</title>
<g id="a_Node000008"><a xlink:href="class_iterator_list.html#a2ebc1118094754b7d333b0a9d257d12b" target="_top" xlink:title=" ">
<polygon fill="white" stroke="#666666" points="915,-233 820.25,-233 820.25,-213 915,-213 915,-233"/>
<text text-anchor="middle" x="867.62" y="-219.5" font-family="Helvetica,sans-Serif" font-size="10.00">IteratorList::ended</text>
</a>
</g>
</g>
<!-- Node4&#45;&gt;Node8 -->
<g id="edge7_Node000004_Node000008" class="edge">
<title>Node4&#45;&gt;Node8</title>
<g id="a_edge7_Node000004_Node000008"><a xlink:title=" ">
<path fill="none" stroke="#63b8ff" d="M722.37,-332.56C749.7,-311.8 811.1,-265.17 844.3,-239.96"/>
<polygon fill="#63b8ff" stroke="#63b8ff" points="846.2,-242.91 852.04,-234.08 841.96,-237.34 846.2,-242.91"/>
</a>
</g>
</g>
<!-- Node9 -->
<g id="Node000009" class="node">
<title>Node9</title>
<g id="a_Node000009"><a xlink:href="class_iterator_list.html#af5c370ccb8698e2a9fb0714782d57203" target="_top" xlink:title=" ">
<polygon fill="white" stroke="#666666" points="911.25,-486 824,-486 824,-466 911.25,-466 911.25,-486"/>
<text text-anchor="middle" x="867.62" y="-472.5" font-family="Helvetica,sans-Serif" font-size="10.00">IteratorList::next</text>
</a>
</g>
</g>
<!-- Node4&#45;&gt;Node9 -->
<g id="edge8_Node000004_Node000009" class="edge">
<title>Node4&#45;&gt;Node9</title>
<g id="a_edge8_Node000004_Node000009"><a xlink:title=" ">
<path fill="none" stroke="#63b8ff" d="M720.69,-353.38C737.77,-368.07 770.04,-395.72 797.75,-419 813.59,-432.3 831.6,-447.2 845.23,-458.43"/>
<polygon fill="#63b8ff" stroke="#63b8ff" points="842.77,-460.94 852.72,-464.59 847.22,-455.53 842.77,-460.94"/>
</a>
</g>
</g>
<!-- Node6 -->
<g id="Node000006" class="node">
<title>Node6</title>
<g id="a_Node000006"><a xlink:href="class_token_result.html#af997915a62dcb5643b9d61b78a22c9f4" target="_top" xlink:title=" ">
<polygon fill="white" stroke="#666666" points="1087,-410 973.5,-410 973.5,-390 1087,-390 1087,-410"/>
<text text-anchor="middle" x="1030.25" y="-396.5" font-family="Helvetica,sans-Serif" font-size="10.00">TokenResult::addError</text>
</a>
</g>
</g>
<!-- Node5&#45;&gt;Node6 -->
<g id="edge5_Node000005_Node000006" class="edge">
<title>Node5&#45;&gt;Node6</title>
<g id="a_edge5_Node000005_Node000006"><a xlink:title=" ">
<path fill="none" stroke="#63b8ff" d="M910.41,-400C926.12,-400 944.4,-400 961.85,-400"/>
<polygon fill="#63b8ff" stroke="#63b8ff" points="961.65,-403.5 971.65,-400 961.65,-396.5 961.65,-403.5"/>
</a>
</g>
</g>
<!-- Node10&#45;&gt;Node9 -->
<g id="edge10_Node000010_Node000009" class="edge">
<title>Node10&#45;&gt;Node9</title>
<g id="a_edge10_Node000010_Node000009"><a xlink:title=" ">
<path fill="none" stroke="#63b8ff" d="M418.43,-496.29C493.41,-497.77 638.68,-498.96 761.75,-490 778.35,-488.79 796.33,-486.68 812.64,-484.47"/>
<polygon fill="#63b8ff" stroke="#63b8ff" points="812.71,-487.99 822.13,-483.13 811.74,-481.06 812.71,-487.99"/>
</a>
</g>
</g>
<!-- Node11&#45;&gt;Node5 -->
<g id="edge14_Node000011_Node000005" class="edge">
<title>Node11&#45;&gt;Node5</title>
<g id="a_edge14_Node000011_Node000005"><a xlink:title=" ">
<path fill="none" stroke="#63b8ff" d="M373.3,-274.26C386.29,-298.16 422.29,-357.31 471.75,-381 583.85,-434.69 734.95,-421.93 813.78,-409.86"/>
<polygon fill="#63b8ff" stroke="#63b8ff" points="814.05,-413.36 823.38,-408.33 812.95,-406.45 814.05,-413.36"/>
</a>
</g>
</g>
<!-- Node11&#45;&gt;Node7 -->
<g id="edge19_Node000011_Node000007" class="edge">
<title>Node11&#45;&gt;Node7</title>
<g id="a_edge19_Node000011_Node000007"><a xlink:title=" ">
<path fill="none" stroke="#63b8ff" d="M436.03,-269.59C529.63,-277.29 697.44,-291.09 793.6,-299"/>
<polygon fill="#63b8ff" stroke="#63b8ff" points="793.2,-302.47 803.45,-299.81 793.77,-295.5 793.2,-302.47"/>
</a>
</g>
</g>
<!-- Node11&#45;&gt;Node8 -->
<g id="edge21_Node000011_Node000008" class="edge">
<title>Node11&#45;&gt;Node8</title>
<g id="a_edge21_Node000011_Node000008"><a xlink:title=" ">
<path fill="none" stroke="#63b8ff" d="M384.84,-253.64C404.74,-242.06 439.28,-224.01 471.75,-217 589.28,-191.62 731.1,-203.83 808.77,-214.04"/>
<polygon fill="#63b8ff" stroke="#63b8ff" points="807.87,-217.45 818.25,-215.32 808.81,-210.51 807.87,-217.45"/>
</a>
</g>
</g>
<!-- Node11&#45;&gt;Node9 -->
<g id="edge26_Node000011_Node000009" class="edge">
<title>Node11&#45;&gt;Node9</title>
<g id="a_edge26_Node000011_Node000009"><a xlink:title=" ">
<path fill="none" stroke="#63b8ff" d="M371.87,-274.48C382.76,-302.3 416.48,-378.32 471.75,-413 578.24,-479.82 731.67,-483.63 812.34,-480.14"/>
<polygon fill="#63b8ff" stroke="#63b8ff" points="812.37,-483.64 822.19,-479.65 812.03,-476.65 812.37,-483.64"/>
</a>
</g>
</g>
<!-- Node12 -->
<g id="Node000012" class="node">
<title>Node12</title>
<g id="a_Node000012"><a xlink:href="class_p_k_token.html#a9bd07a9eaf2728560d1aa29bcc13bba9" target="_top" xlink:title=" ">
<polygon fill="white" stroke="#666666" points="600.62,-334 488.62,-334 488.62,-314 600.62,-314 600.62,-334"/>
<text text-anchor="middle" x="544.62" y="-320.5" font-family="Helvetica,sans-Serif" font-size="10.00">PKToken::addComma</text>
</a>
</g>
</g>
<!-- Node11&#45;&gt;Node12 -->
<g id="edge12_Node000011_Node000012" class="edge">
<title>Node11&#45;&gt;Node12</title>
<g id="a_edge12_Node000011_Node000012"><a xlink:title=" ">
<path fill="none" stroke="#63b8ff" d="M397.93,-274.49C418.64,-281.72 446.84,-291.52 471.75,-300 481.34,-303.27 491.67,-306.74 501.42,-310"/>
<polygon fill="#63b8ff" stroke="#63b8ff" points="500.08,-313.24 510.67,-313.09 502.3,-306.6 500.08,-313.24"/>
</a>
</g>
</g>
<!-- Node13 -->
<g id="Node000013" class="node">
<title>Node13</title>
<g id="a_Node000013"><a xlink:href="class_arguments_overload.html#aaed90f32011643050b1440daed30c168" target="_top" xlink:title=" ">
<polygon fill="white" stroke="#666666" points="598.75,-170 490.5,-170 490.5,-138 598.75,-138 598.75,-170"/>
<text text-anchor="start" x="498.5" y="-156.5" font-family="Helvetica,sans-Serif" font-size="10.00">ArgumentsOverload::</text>
<text text-anchor="middle" x="544.62" y="-144.5" font-family="Helvetica,sans-Serif" font-size="10.00">approveType</text>
</a>
</g>
</g>
<!-- Node11&#45;&gt;Node13 -->
<g id="edge15_Node000011_Node000013" class="edge">
<title>Node11&#45;&gt;Node13</title>
<g id="a_edge15_Node000011_Node000013"><a xlink:title=" ">
<path fill="none" stroke="#63b8ff" d="M379.42,-253.56C397.8,-237.15 435.56,-205.02 471.75,-184 477.08,-180.9 482.8,-177.96 488.59,-175.2"/>
<polygon fill="#63b8ff" stroke="#63b8ff" points="489.99,-178.41 497.66,-171.1 487.1,-172.04 489.99,-178.41"/>
</a>
</g>
</g>
<!-- Node17 -->
<g id="Node000017" class="node">
<title>Node17</title>
<g id="a_Node000017"><a xlink:href="class_p_k_token.html#a64d744e4cf4b113bc458eb03f15ba69d" target="_top" xlink:title=" ">
<polygon fill="white" stroke="#666666" points="617.5,-120 471.75,-120 471.75,-100 617.5,-100 617.5,-120"/>
<text text-anchor="middle" x="544.62" y="-106.5" font-family="Helvetica,sans-Serif" font-size="10.00">PKToken::dispatchArguments</text>
</a>
</g>
</g>
<!-- Node11&#45;&gt;Node17 -->
<g id="edge20_Node000011_Node000017" class="edge">
<title>Node11&#45;&gt;Node17</title>
<g id="a_edge20_Node000011_Node000017"><a xlink:title=" ">
<path fill="none" stroke="#63b8ff" d="M372.89,-253.69C385.47,-228.29 421.54,-162.4 471.75,-129 473.85,-127.61 476.04,-126.31 478.3,-125.12"/>
<polygon fill="#63b8ff" stroke="#63b8ff" points="479.56,-128.39 487.22,-121.08 476.67,-122.02 479.56,-128.39"/>
</a>
</g>
</g>
<!-- Node18 -->
<g id="Node000018" class="node">
<title>Node18</title>
<g id="a_Node000018"><a xlink:href="class_arguments_overload.html#a65ea1970c75fddd5990ac66a1475a63f" target="_top" xlink:title=" ">
<polygon fill="white" stroke="#666666" points="607.75,-82 481.5,-82 481.5,-50 607.75,-50 607.75,-82"/>
<text text-anchor="start" x="489.5" y="-68.5" font-family="Helvetica,sans-Serif" font-size="10.00">ArgumentsOverload::</text>
<text text-anchor="middle" x="544.62" y="-56.5" font-family="Helvetica,sans-Serif" font-size="10.00">hasCompletedArguments</text>
</a>
</g>
</g>
<!-- Node11&#45;&gt;Node18 -->
<g id="edge22_Node000011_Node000018" class="edge">
<title>Node11&#45;&gt;Node18</title>
<g id="a_edge22_Node000011_Node000018"><a xlink:title=" ">
<path fill="none" stroke="#63b8ff" d="M371.32,-253.74C381.43,-224.09 414.69,-137.4 471.75,-91 472.87,-90.09 474.03,-89.2 475.22,-88.35"/>
<polygon fill="#63b8ff" stroke="#63b8ff" points="476.89,-91.44 483.57,-83.22 473.22,-85.48 476.89,-91.44"/>
</a>
</g>
</g>
<!-- Node20 -->
<g id="Node000020" class="node">
<title>Node20</title>
<g id="a_Node000020"><a xlink:href="class_arguments_overload.html#a4fc9b2ef6a2ec9c3f963ddcb44621794" target="_top" xlink:title=" ">
<polygon fill="white" stroke="#666666" points="598.75,-32 490.5,-32 490.5,0 598.75,0 598.75,-32"/>
<text text-anchor="start" x="498.5" y="-18.5" font-family="Helvetica,sans-Serif" font-size="10.00">ArgumentsOverload::</text>
<text text-anchor="middle" x="544.62" y="-6.5" font-family="Helvetica,sans-Serif" font-size="10.00">initTabs</text>
</a>
</g>
</g>
<!-- Node11&#45;&gt;Node20 -->
<g id="edge24_Node000011_Node000020" class="edge">
<title>Node11&#45;&gt;Node20</title>
<g id="a_edge24_Node000011_Node000020"><a xlink:title=" ">
<path fill="none" stroke="#63b8ff" d="M369.8,-253.9C376.51,-219.09 403.33,-102.85 471.75,-41 474.36,-38.64 477.21,-36.5 480.21,-34.56"/>
<polygon fill="#63b8ff" stroke="#63b8ff" points="481.86,-37.65 488.92,-29.75 478.47,-31.52 481.86,-37.65"/>
</a>
</g>
</g>
<!-- Node21 -->
<g id="Node000021" class="node">
<title>Node21</title>
<g id="a_Node000021"><a xlink:href="class_arguments_overload.html#a44c9abfe32ebc098862157d7ddf22b19" target="_top" xlink:title=" ">
<polygon fill="white" stroke="#666666" points="608.12,-372 481.12,-372 481.12,-352 608.12,-352 608.12,-372"/>
<text text-anchor="middle" x="544.62" y="-358.5" font-family="Helvetica,sans-Serif" font-size="10.00">ArgumentsOverload::next</text>
</a>
</g>
</g>
<!-- Node11&#45;&gt;Node21 -->
<g id="edge25_Node000011_Node000021" class="edge">
<title>Node11&#45;&gt;Node21</title>
<g id="a_edge25_Node000011_Node000021"><a xlink:title=" ">
<path fill="none" stroke="#63b8ff" d="M378.54,-274.34C396.29,-291.18 433.92,-324.51 471.75,-343 475.28,-344.72 478.98,-346.31 482.77,-347.76"/>
<polygon fill="#63b8ff" stroke="#63b8ff" points="481.57,-351.05 492.17,-351.01 483.86,-344.43 481.57,-351.05"/>
</a>
</g>
</g>
<!-- Node22 -->
<g id="Node000022" class="node">
<title>Node22</title>
<g id="a_Node000022"><a xlink:href="class_arguments_overload.html#ab26f7552e32582556f6c7c6132e355cf" target="_top" xlink:title=" ">
<polygon fill="white" stroke="#666666" points="598.75,-258 490.5,-258 490.5,-226 598.75,-226 598.75,-258"/>
<text text-anchor="start" x="498.5" y="-244.5" font-family="Helvetica,sans-Serif" font-size="10.00">ArgumentsOverload::</text>
<text text-anchor="middle" x="544.62" y="-232.5" font-family="Helvetica,sans-Serif" font-size="10.00">setCompleteIndex</text>
</a>
</g>
</g>
<!-- Node11&#45;&gt;Node22 -->
<g id="edge27_Node000011_Node000022" class="edge">
<title>Node11&#45;&gt;Node22</title>
<g id="a_edge27_Node000011_Node000022"><a xlink:title=" ">
<path fill="none" stroke="#63b8ff" d="M436.15,-255.46C450.3,-253.69 465.17,-251.83 479.19,-250.07"/>
<polygon fill="#63b8ff" stroke="#63b8ff" points="479.22,-253.6 488.71,-248.88 478.35,-246.65 479.22,-253.6"/>
</a>
</g>
</g>
<!-- Node12&#45;&gt;Node4 -->
<g id="edge13_Node000012_Node000004" class="edge">
<title>Node12&#45;&gt;Node4</title>
<g id="a_edge13_Node000012_Node000004"><a xlink:title=" ">
<path fill="none" stroke="#63b8ff" d="M601.03,-330.54C614.96,-332.18 629.99,-333.96 644.23,-335.64"/>
<polygon fill="#63b8ff" stroke="#63b8ff" points="643.6,-339.09 653.94,-336.78 644.42,-332.13 643.6,-339.09"/>
</a>
</g>
</g>
<!-- Node14 -->
<g id="Node000014" class="node">
<title>Node14</title>
<g id="a_Node000014"><a xlink:href="class_arguments_overload.html#a0316dfe033593e31fe4f754e9fc2ea3a" target="_top" xlink:title=" ">
<polygon fill="white" stroke="#666666" points="761.75,-170 653.5,-170 653.5,-138 761.75,-138 761.75,-170"/>
<text text-anchor="start" x="661.5" y="-156.5" font-family="Helvetica,sans-Serif" font-size="10.00">ArgumentsOverload::</text>
<text text-anchor="middle" x="707.62" y="-144.5" font-family="Helvetica,sans-Serif" font-size="10.00">updateTabs</text>
</a>
</g>
</g>
<!-- Node13&#45;&gt;Node14 -->
<g id="edge16_Node000013_Node000014" class="edge">
<title>Node13&#45;&gt;Node14</title>
<g id="a_edge16_Node000013_Node000014"><a xlink:title=" ">
<path fill="none" stroke="#63b8ff" d="M599.24,-154C612.95,-154 627.84,-154 642.04,-154"/>
<polygon fill="#63b8ff" stroke="#63b8ff" points="641.73,-157.5 651.73,-154 641.73,-150.5 641.73,-157.5"/>
</a>
</g>
</g>
<!-- Node15 -->
<g id="Node000015" class="node">
<title>Node15</title>
<g id="a_Node000015"><a xlink:href="class_arguments_overload.html#a6b65e84a1deed85e8403721df4358b9e" target="_top" xlink:title=" ">
<polygon fill="white" stroke="#666666" points="937.5,-195 797.75,-195 797.75,-163 937.5,-163 937.5,-195"/>
<text text-anchor="start" x="805.75" y="-181.5" font-family="Helvetica,sans-Serif" font-size="10.00">ArgumentsOverload::</text>
<text text-anchor="middle" x="867.62" y="-169.5" font-family="Helvetica,sans-Serif" font-size="10.00">updateCompletedArguments</text>
</a>
</g>
</g>
<!-- Node14&#45;&gt;Node15 -->
<g id="edge17_Node000014_Node000015" class="edge">
<title>Node14&#45;&gt;Node15</title>
<g id="a_edge17_Node000014_Node000015"><a xlink:title=" ">
<path fill="none" stroke="#63b8ff" d="M762.12,-162.46C769.93,-163.7 778.12,-165 786.33,-166.3"/>
<polygon fill="#63b8ff" stroke="#63b8ff" points="785.58,-169.72 796.01,-167.83 786.68,-162.81 785.58,-169.72"/>
</a>
</g>
</g>
<!-- Node16 -->
<g id="Node000016" class="node">
<title>Node16</title>
<g id="a_Node000016"><a xlink:href="class_arguments_overload.html#adf2f990572f8ba98d4f45fec3181bca1" target="_top" xlink:title=" ">
<polygon fill="white" stroke="#666666" points="924.38,-145 810.88,-145 810.88,-113 924.38,-113 924.38,-145"/>
<text text-anchor="start" x="818.88" y="-131.5" font-family="Helvetica,sans-Serif" font-size="10.00">ArgumentsOverload::</text>
<text text-anchor="middle" x="867.62" y="-119.5" font-family="Helvetica,sans-Serif" font-size="10.00">updateValidArguments</text>
</a>
</g>
</g>
<!-- Node14&#45;&gt;Node16 -->
<g id="edge18_Node000014_Node000016" class="edge">
<title>Node14&#45;&gt;Node16</title>
<g id="a_edge18_Node000014_Node000016"><a xlink:title=" ">
<path fill="none" stroke="#63b8ff" d="M762.12,-145.54C774.04,-143.65 786.84,-141.62 799.24,-139.66"/>
<polygon fill="#63b8ff" stroke="#63b8ff" points="799.66,-143.14 808.99,-138.12 798.57,-136.22 799.66,-143.14"/>
</a>
</g>
</g>
<!-- Node19 -->
<g id="Node000019" class="node">
<title>Node19</title>
<g id="a_Node000019"><a xlink:href="class_arguments_overload.html#ab7709e65ce6926230400a3ed8b9483ac" target="_top" xlink:title=" ">
<polygon fill="white" stroke="#666666" points="761.75,-82 653.5,-82 653.5,-50 761.75,-50 761.75,-82"/>
<text text-anchor="start" x="661.5" y="-68.5" font-family="Helvetica,sans-Serif" font-size="10.00">ArgumentsOverload::</text>
<text text-anchor="middle" x="707.62" y="-56.5" font-family="Helvetica,sans-Serif" font-size="10.00">getCompletedArgs</text>
</a>
</g>
</g>
<!-- Node18&#45;&gt;Node19 -->
<g id="edge23_Node000018_Node000019" class="edge">
<title>Node18&#45;&gt;Node19</title>
<g id="a_edge23_Node000018_Node000019"><a xlink:title=" ">
<path fill="none" stroke="#63b8ff" d="M607.87,-66C618.97,-66 630.56,-66 641.73,-66"/>
<polygon fill="#63b8ff" stroke="#63b8ff" points="641.67,-69.5 651.67,-66 641.67,-62.5 641.67,-69.5"/>
</a>
</g>
</g>
</g>
</svg>

<g id="navigator" transform="translate(0 0)" fill="#404254">
  <rect fill="#f2f5e9" fill-opacity="0.5" stroke="#606060" stroke-width=".5" x="0" y="0" width="60" height="60"/>
  <use id="zoomplus" xlink:href="#zoomPlus" x="17" y="9" onmousedown="handleZoom(evt,'in')"/>
  <use id="zoomminus" xlink:href="#zoomMin" x="42" y="9" onmousedown="handleZoom(evt,'out')"/>
  <use id="reset" xlink:href="#resetDef" x="30" y="36" onmousedown="handleReset()"/>
   <use id="arrowup" xlink:href="#arrowUp" x="0" y="0" onmousedown="handlePan(0,-1)"/>
  <use id="arrowright" xlink:href="#arrowRight" x="0" y="0" onmousedown="handlePan(1,0)"/>
  <use id="arrowdown" xlink:href="#arrowDown" x="0" y="0" onmousedown="handlePan(0,1)"/>
  <use id="arrowleft" xlink:href="#arrowLeft" x="0" y="0" onmousedown="handlePan(-1,0)"/>
</g>
<svg viewBox="0 0 15 15" width="100%" height="30px" preserveAspectRatio="xMaxYMin meet">
 <g id="arrow_out" transform="scale(0.3 0.3)">
  <a xlink:href="class_m_p_k_token_a9a5cbbc3269d1601a414e3dd25bfeb63_cgraph_org.svg" target="_base">
   <rect id="button" ry="5" rx="5" y="6" x="6" height="38" width="38"
        fill="#f2f5e9" fill-opacity="0.5" stroke="#606060" stroke-width="1.0"/>
   <path id="arrow"
     d="M 11.500037,31.436501 C 11.940474,20.09759 22.043105,11.32322 32.158766,21.979434 L 37.068811,17.246167 C 37.068811,17.246167 37.088388,32 37.088388,32 L 22.160133,31.978069 C 22.160133,31.978069 26.997745,27.140456 26.997745,27.140456 C 18.528582,18.264221 13.291696,25.230495 11.500037,31.436501 z"
     style="fill:#404040;"/>
  </a>
 </g>
</svg>

<style type='text/css'>
<![CDATA[
[data-mouse-over-selected='false'] { opacity: 0.7; }
[data-mouse-over-selected='true']  { opacity: 1.0; }
]]>
</style>
<script type="application/ecmascript"><![CDATA[
document.addEventListener('DOMContentLoaded', (event) => {
  highlightEdges();
  highlightAdjacentNodes();
});
]]></script>
</svg>
