<?xml version="1.0" encoding="UTF-8" standalone="no"?>
<!DOCTYPE svg PUBLIC "-//W3C//DTD SVG 1.1//EN"
 "http://www.w3.org/Graphics/SVG/1.1/DTD/svg11.dtd">
<!-- Generated by graphviz version 12.2.0 (20241103.1931)
 -->
<!-- Title: BotConfig::updateBool Pages: 1 -->
<!--zoomable 256 -->

<svg id="main" version="1.1" xmlns="http://www.w3.org/2000/svg" xmlns:xlink="http://www.w3.org/1999/xlink" xml:space="preserve" onload="init(evt)">

<style type="text/css"><![CDATA[
.node, .edge {opacity: 0.7;}
.node.selected, .edge.selected {opacity: 1;}
.edge:hover path { stroke: red; }
.edge:hover polygon { stroke: red; fill: red; }
]]></style>

<defs>
  <circle id="rim" cx="0" cy="0" r="7"/>
  <circle id="rim2" cx="0" cy="0" r="3.5"/>
  <g id="zoomPlus">
    <use xlink:href="#rim" fill="#404040"><set attributeName="fill" to="#808080" begin="zoomplus.mouseover" end="zoomplus.mouseout"/></use>
    <path d="M-4,0h8M0,-4v8" fill="none" stroke="white" stroke-width="1.5" pointer-events="none"/>
  </g>
  <g id="zoomMin">
    <use xlink:href="#rim" fill="#404040"><set attributeName="fill" to="#808080" begin="zoomminus.mouseover" end="zoomminus.mouseout"/></use>
    <path d="M-4,0h8" fill="none" stroke="white" stroke-width="1.5" pointer-events="none"/>
  </g>
  <g id="arrowUp" transform="translate(30 24)">
    <use xlink:href="#rim"/>
    <path pointer-events="none" fill="none" stroke="white" stroke-width="1.5" d="M0,-3.0v7 M-2.5,-0.5L0,-3.0L2.5,-0.5"/>
  </g>
  <g id="arrowRight" transform="rotate(90) translate(36 -43)">
    <use xlink:href="#rim"/>
    <path pointer-events="none" fill="none" stroke="white" stroke-width="1.5" d="M0,-3.0v7 M-2.5,-0.5L0,-3.0L2.5,-0.5"/>
  </g>
  <g id="arrowDown" transform="rotate(180) translate(-30 -48)">
    <use xlink:href="#rim"/>
    <path pointer-events="none" fill="none" stroke="white" stroke-width="1.5" d="M0,-3.0v7 M-2.5,-0.5L0,-3.0L2.5,-0.5"/>
  </g>
  <g id="arrowLeft" transform="rotate(270) translate(-36 17)">
    <use xlink:href="#rim"/>
    <path pointer-events="none" fill="none" stroke="white" stroke-width="1.5" d="M0,-3.0v7 M-2.5,-0.5L0,-3.0L2.5,-0.5"/>
  </g>
  <g id="resetDef">
    <use xlink:href="#rim2" fill="#404040"><set attributeName="fill" to="#808080" begin="reset.mouseover" end="reset.mouseout"/></use>
  </g>
</defs>
<script type="application/ecmascript">
var viewWidth = 922;
var viewHeight = 256;
var sectionId = 'dynsection-77';
</script>
<script type="application/ecmascript" xlink:href="svg.min.js"/>
<svg id="graph" class="graph">
<g id="viewport">
<title>BotConfig::updateBool</title>
<!-- Node1 -->
<g id="Node000001" class="node">
<title>Node1</title>
<g id="a_Node000001"><a xlink:title=" ">
<polygon fill="#999999" stroke="#666666" points="114.25,-115 0,-115 0,-95 114.25,-95 114.25,-115"/>
<text text-anchor="middle" x="57.12" y="-101.5" font-family="Helvetica,sans-Serif" font-size="10.00">BotConfig::updateBool</text>
</a>
</g>
</g>
<!-- Node2 -->
<g id="Node000002" class="node">
<title>Node2</title>
<g id="a_Node000002"><a xlink:href="class_bot_config.html#ab92a15dd3027a7f42b452cdf5eaf9529" target="_top" xlink:title=" ">
<polygon fill="white" stroke="#666666" points="270.5,-115 150.25,-115 150.25,-95 270.5,-95 270.5,-115"/>
<text text-anchor="middle" x="210.38" y="-101.5" font-family="Helvetica,sans-Serif" font-size="10.00">BotConfig::updateString</text>
</a>
</g>
</g>
<!-- Node1&#45;&gt;Node2 -->
<g id="edge1_Node000001_Node000002" class="edge">
<title>Node1&#45;&gt;Node2</title>
<g id="a_edge1_Node000001_Node000002"><a xlink:title=" ">
<path fill="none" stroke="#63b8ff" d="M114.44,-105C122.32,-105 130.5,-105 138.6,-105"/>
<polygon fill="#63b8ff" stroke="#63b8ff" points="138.46,-108.5 148.46,-105 138.46,-101.5 138.46,-108.5"/>
</a>
</g>
</g>
<!-- Node3 -->
<g id="Node000003" class="node">
<title>Node3</title>
<g id="a_Node000003"><a xlink:href="_text_manager_8cpp.html#add36cc54cd9616a393a17b8961491477" target="_top" xlink:title=" ">
<polygon fill="white" stroke="#666666" points="386.25,-248 306.5,-248 306.5,-228 386.25,-228 386.25,-248"/>
<text text-anchor="middle" x="346.38" y="-234.5" font-family="Helvetica,sans-Serif" font-size="10.00">getFileContent</text>
</a>
</g>
</g>
<!-- Node2&#45;&gt;Node3 -->
<g id="edge2_Node000002_Node000003" class="edge">
<title>Node2&#45;&gt;Node3</title>
<g id="a_edge2_Node000002_Node000003"><a xlink:title=" ">
<path fill="none" stroke="#63b8ff" d="M218.64,-115.22C233.5,-135.66 269.14,-182.33 306.5,-214 309.56,-216.59 312.92,-219.1 316.35,-221.44"/>
<polygon fill="#63b8ff" stroke="#63b8ff" points="314.42,-224.36 324.73,-226.79 318.18,-218.46 314.42,-224.36"/>
</a>
</g>
</g>
<!-- Node4 -->
<g id="Node000004" class="node">
<title>Node4</title>
<g id="a_Node000004"><a xlink:href="_text_manager_8cpp.html#af24bee60aa1d3d5b4ae3bf6ebd267ecd" target="_top" xlink:title=" ">
<polygon fill="white" stroke="#666666" points="370.12,-134 322.62,-134 322.62,-114 370.12,-114 370.12,-134"/>
<text text-anchor="middle" x="346.38" y="-120.5" font-family="Helvetica,sans-Serif" font-size="10.00">getLine</text>
</a>
</g>
</g>
<!-- Node2&#45;&gt;Node4 -->
<g id="edge3_Node000002_Node000004" class="edge">
<title>Node2&#45;&gt;Node4</title>
<g id="a_edge3_Node000002_Node000004"><a xlink:title=" ">
<path fill="none" stroke="#63b8ff" d="M270.93,-113.44C284.7,-115.4 298.9,-117.41 311.15,-119.15"/>
<polygon fill="#63b8ff" stroke="#63b8ff" points="310.34,-122.57 320.73,-120.51 311.32,-115.64 310.34,-122.57"/>
</a>
</g>
</g>
<!-- Node6 -->
<g id="Node000006" class="node">
<title>Node6</title>
<g id="a_Node000006"><a xlink:href="_text_manager_8cpp.html#a6956d58559ef67f422247fdeb1c22775" target="_top" xlink:title=" ">
<polygon fill="white" stroke="#666666" points="659,-153 583,-153 583,-133 659,-133 659,-153"/>
<text text-anchor="middle" x="621" y="-139.5" font-family="Helvetica,sans-Serif" font-size="10.00">getStringAfter</text>
</a>
</g>
</g>
<!-- Node2&#45;&gt;Node6 -->
<g id="edge16_Node000002_Node000006" class="edge">
<title>Node2&#45;&gt;Node6</title>
<g id="a_edge16_Node000002_Node000006"><a xlink:title=" ">
<path fill="none" stroke="#63b8ff" d="M231.93,-115.36C268.87,-133.3 349.43,-169.35 422.25,-181 475.35,-189.49 490.89,-193.25 543.25,-181 561.42,-176.75 580.23,-167.53 594.68,-159.24"/>
<polygon fill="#63b8ff" stroke="#63b8ff" points="596.27,-162.36 603.06,-154.22 592.68,-156.35 596.27,-162.36"/>
</a>
</g>
</g>
<!-- Node10 -->
<g id="Node000010" class="node">
<title>Node10</title>
<g id="a_Node000010"><a xlink:href="_text_manager_8cpp.html#aff8311b88dbf5f3091f3ac1262543242" target="_top" xlink:title=" ">
<polygon fill="white" stroke="#666666" points="662.75,-96 579.25,-96 579.25,-76 662.75,-76 662.75,-96"/>
<text text-anchor="middle" x="621" y="-82.5" font-family="Helvetica,sans-Serif" font-size="10.00">getStringBefore</text>
</a>
</g>
</g>
<!-- Node2&#45;&gt;Node10 -->
<g id="edge17_Node000002_Node000010" class="edge">
<title>Node2&#45;&gt;Node10</title>
<g id="a_edge17_Node000002_Node000010"><a xlink:title=" ">
<path fill="none" stroke="#63b8ff" d="M250.48,-94.55C312.56,-79.3 437.47,-54.1 543.25,-67 553.45,-68.24 564.24,-70.38 574.41,-72.79"/>
<polygon fill="#63b8ff" stroke="#63b8ff" points="573.55,-76.18 584.1,-75.22 575.25,-69.39 573.55,-76.18"/>
</a>
</g>
</g>
<!-- Node12 -->
<g id="Node000012" class="node">
<title>Node12</title>
<g id="a_Node000012"><a xlink:href="_text_manager_8cpp.html#ac695ebe5513185f42689b419f58d8a83" target="_top" xlink:title=" ">
<polygon fill="white" stroke="#666666" points="522.62,-96 442.88,-96 442.88,-76 522.62,-76 522.62,-96"/>
<text text-anchor="middle" x="482.75" y="-82.5" font-family="Helvetica,sans-Serif" font-size="10.00">updateContent</text>
</a>
</g>
</g>
<!-- Node2&#45;&gt;Node12 -->
<g id="edge18_Node000002_Node000012" class="edge">
<title>Node2&#45;&gt;Node12</title>
<g id="a_edge18_Node000002_Node000012"><a xlink:title=" ">
<path fill="none" stroke="#63b8ff" d="M270.71,-100.83C318.76,-97.45 385.71,-92.75 431.22,-89.55"/>
<polygon fill="#63b8ff" stroke="#63b8ff" points="431.36,-93.05 441.09,-88.86 430.87,-86.07 431.36,-93.05"/>
</a>
</g>
</g>
<!-- Node13 -->
<g id="Node000013" class="node">
<title>Node13</title>
<g id="a_Node000013"><a xlink:href="_text_manager_8cpp.html#ab55140c566370b105b9bf81756293fa5" target="_top" xlink:title=" ">
<polygon fill="white" stroke="#666666" points="378,-20 314.75,-20 314.75,0 378,0 378,-20"/>
<text text-anchor="middle" x="346.38" y="-6.5" font-family="Helvetica,sans-Serif" font-size="10.00">writeToFile</text>
</a>
</g>
</g>
<!-- Node2&#45;&gt;Node13 -->
<g id="edge21_Node000002_Node000013" class="edge">
<title>Node2&#45;&gt;Node13</title>
<g id="a_edge21_Node000002_Node000013"><a xlink:title=" ">
<path fill="none" stroke="#63b8ff" d="M224.65,-94.51C242.79,-80.3 276.51,-54.39 306.5,-34 310.23,-31.46 314.22,-28.87 318.17,-26.37"/>
<polygon fill="#63b8ff" stroke="#63b8ff" points="319.81,-29.47 326.46,-21.23 316.12,-23.52 319.81,-29.47"/>
</a>
</g>
</g>
<!-- Node5 -->
<g id="Node000005" class="node">
<title>Node5</title>
<g id="a_Node000005"><a xlink:href="_text_manager_8cpp.html#a85a282af68cca7cf7d69487d1bacdc47" target="_top" xlink:title=" ">
<polygon fill="white" stroke="#666666" points="524.88,-172 440.62,-172 440.62,-152 524.88,-152 524.88,-172"/>
<text text-anchor="middle" x="482.75" y="-158.5" font-family="Helvetica,sans-Serif" font-size="10.00">extractBetween</text>
</a>
</g>
</g>
<!-- Node4&#45;&gt;Node5 -->
<g id="edge4_Node000004_Node000005" class="edge">
<title>Node4&#45;&gt;Node5</title>
<g id="a_edge4_Node000004_Node000005"><a xlink:title=" ">
<path fill="none" stroke="#63b8ff" d="M370.47,-130.53C387.86,-135.45 412.28,-142.36 433.83,-148.45"/>
<polygon fill="#63b8ff" stroke="#63b8ff" points="432.74,-151.78 443.32,-151.13 434.65,-145.04 432.74,-151.78"/>
</a>
</g>
</g>
<!-- Node11 -->
<g id="Node000011" class="node">
<title>Node11</title>
<g id="a_Node000011"><a xlink:href="_text_manager_8cpp.html#a84a9e24fc5cce3cebf746bb656909bf8" target="_top" xlink:title=" ">
<polygon fill="white" stroke="#666666" points="543.25,-134 422.25,-134 422.25,-114 543.25,-114 543.25,-134"/>
<text text-anchor="middle" x="482.75" y="-120.5" font-family="Helvetica,sans-Serif" font-size="10.00">extractBetweenReverse</text>
</a>
</g>
</g>
<!-- Node4&#45;&gt;Node11 -->
<g id="edge13_Node000004_Node000011" class="edge">
<title>Node4&#45;&gt;Node11</title>
<g id="a_edge13_Node000004_Node000011"><a xlink:title=" ">
<path fill="none" stroke="#63b8ff" d="M370.47,-124C381.84,-124 396.21,-124 410.82,-124"/>
<polygon fill="#63b8ff" stroke="#63b8ff" points="410.48,-127.5 420.48,-124 410.48,-120.5 410.48,-127.5"/>
</a>
</g>
</g>
<!-- Node5&#45;&gt;Node6 -->
<g id="edge5_Node000005_Node000006" class="edge">
<title>Node5&#45;&gt;Node6</title>
<g id="a_edge5_Node000005_Node000006"><a xlink:title=" ">
<path fill="none" stroke="#63b8ff" d="M525.37,-156.2C539.96,-154.16 556.48,-151.86 571.58,-149.75"/>
<polygon fill="#63b8ff" stroke="#63b8ff" points="571.88,-153.24 581.3,-148.4 570.91,-146.31 571.88,-153.24"/>
</a>
</g>
</g>
<!-- Node5&#45;&gt;Node10 -->
<g id="edge11_Node000005_Node000010" class="edge">
<title>Node5&#45;&gt;Node10</title>
<g id="a_edge11_Node000005_Node000010"><a xlink:title=" ">
<path fill="none" stroke="#63b8ff" d="M522.9,-151.54C529.84,-149.11 536.88,-146.27 543.25,-143 564.16,-132.27 585.42,-115.97 600.25,-103.55"/>
<polygon fill="#63b8ff" stroke="#63b8ff" points="602.13,-106.55 607.44,-97.38 597.57,-101.23 602.13,-106.55"/>
</a>
</g>
</g>
<!-- Node7 -->
<g id="Node000007" class="node">
<title>Node7</title>
<g id="a_Node000007"><a xlink:href="_text_manager_8cpp.html#a5b66873abcff2faee361721f86b65dd0" target="_top" xlink:title=" ">
<polygon fill="white" stroke="#666666" points="777,-134 709.25,-134 709.25,-114 777,-114 777,-134"/>
<text text-anchor="middle" x="743.12" y="-120.5" font-family="Helvetica,sans-Serif" font-size="10.00">getPosAfter</text>
</a>
</g>
</g>
<!-- Node6&#45;&gt;Node7 -->
<g id="edge6_Node000006_Node000007" class="edge">
<title>Node6&#45;&gt;Node7</title>
<g id="a_edge6_Node000006_Node000007"><a xlink:title=" ">
<path fill="none" stroke="#63b8ff" d="M659.35,-137.09C671.48,-135.17 685.05,-133.03 697.65,-131.03"/>
<polygon fill="#63b8ff" stroke="#63b8ff" points="698.04,-134.52 707.38,-129.5 696.95,-127.6 698.04,-134.52"/>
</a>
</g>
</g>
<!-- Node9 -->
<g id="Node000009" class="node">
<title>Node9</title>
<g id="a_Node000009"><a xlink:href="_text_manager_8cpp.html#a2946b90fb3df56b0a74d53eb4160f4e2" target="_top" xlink:title=" ">
<polygon fill="white" stroke="#666666" points="787.5,-172 698.75,-172 698.75,-152 787.5,-152 787.5,-172"/>
<text text-anchor="middle" x="743.12" y="-158.5" font-family="Helvetica,sans-Serif" font-size="10.00">getStringStarting</text>
</a>
</g>
</g>
<!-- Node6&#45;&gt;Node9 -->
<g id="edge8_Node000006_Node000009" class="edge">
<title>Node6&#45;&gt;Node9</title>
<g id="a_edge8_Node000006_Node000009"><a xlink:title=" ">
<path fill="none" stroke="#63b8ff" d="M659.35,-148.91C668.16,-150.3 677.74,-151.82 687.15,-153.31"/>
<polygon fill="#63b8ff" stroke="#63b8ff" points="686.57,-156.76 696.99,-154.86 687.66,-149.84 686.57,-156.76"/>
</a>
</g>
</g>
<!-- Node8 -->
<g id="Node000008" class="node">
<title>Node8</title>
<g id="a_Node000008"><a xlink:href="_text_manager_8cpp.html#a3f4afb2b62acd297e783a22ffa9a7000" target="_top" xlink:title=" ">
<polygon fill="white" stroke="#666666" points="913.75,-134 823.5,-134 823.5,-114 913.75,-114 913.75,-134"/>
<text text-anchor="middle" x="868.62" y="-120.5" font-family="Helvetica,sans-Serif" font-size="10.00">getSequencePos</text>
</a>
</g>
</g>
<!-- Node7&#45;&gt;Node8 -->
<g id="edge7_Node000007_Node000008" class="edge">
<title>Node7&#45;&gt;Node8</title>
<g id="a_edge7_Node000007_Node000008"><a xlink:title=" ">
<path fill="none" stroke="#63b8ff" d="M777.22,-124C787.94,-124 800.14,-124 812.04,-124"/>
<polygon fill="#63b8ff" stroke="#63b8ff" points="811.77,-127.5 821.77,-124 811.77,-120.5 811.77,-127.5"/>
</a>
</g>
</g>
<!-- Node9&#45;&gt;Node8 -->
<g id="edge9_Node000009_Node000008" class="edge">
<title>Node9&#45;&gt;Node8</title>
<g id="a_edge9_Node000009_Node000008"><a xlink:title=" ">
<path fill="none" stroke="#63b8ff" d="M778.2,-151.52C791.97,-147.28 808.05,-142.33 822.75,-137.81"/>
<polygon fill="#63b8ff" stroke="#63b8ff" points="823.69,-141.18 832.22,-134.9 821.63,-134.49 823.69,-141.18"/>
</a>
</g>
</g>
<!-- Node9&#45;&gt;Node9 -->
<g id="edge10_Node000009_Node000009" class="edge">
<title>Node9&#45;&gt;Node9</title>
<g id="a_edge10_Node000009_Node000009"><a xlink:title=" ">
<path fill="none" stroke="#63b8ff" d="M723.72,-172.34C715.43,-180.98 721.9,-190 743.12,-190 754.73,-190 761.93,-187.3 764.71,-183.44"/>
<polygon fill="#63b8ff" stroke="#63b8ff" points="768.18,-182.96 762.82,-173.82 761.31,-184.31 768.18,-182.96"/>
</a>
</g>
</g>
<!-- Node10&#45;&gt;Node8 -->
<g id="edge12_Node000010_Node000008" class="edge">
<title>Node10&#45;&gt;Node8</title>
<g id="a_edge12_Node000010_Node000008"><a xlink:title=" ">
<path fill="none" stroke="#63b8ff" d="M663,-89.34C696.61,-92.41 745.34,-97.61 787.5,-105 797.01,-106.67 807.09,-108.78 816.76,-110.98"/>
<polygon fill="#63b8ff" stroke="#63b8ff" points="815.87,-114.37 826.4,-113.25 817.47,-107.55 815.87,-114.37"/>
</a>
</g>
</g>
<!-- Node11&#45;&gt;Node6 -->
<g id="edge14_Node000011_Node000006" class="edge">
<title>Node11&#45;&gt;Node6</title>
<g id="a_edge14_Node000011_Node000006"><a xlink:title=" ">
<path fill="none" stroke="#63b8ff" d="M543.51,-132.33C552.86,-133.64 562.43,-134.97 571.49,-136.23"/>
<polygon fill="#63b8ff" stroke="#63b8ff" points="570.75,-139.67 581.14,-137.58 571.72,-132.73 570.75,-139.67"/>
</a>
</g>
</g>
<!-- Node11&#45;&gt;Node10 -->
<g id="edge15_Node000011_Node000010" class="edge">
<title>Node11&#45;&gt;Node10</title>
<g id="a_edge15_Node000011_Node000010"><a xlink:title=" ">
<path fill="none" stroke="#63b8ff" d="M521.34,-113.52C536.83,-109.2 554.97,-104.14 571.45,-99.54"/>
<polygon fill="#63b8ff" stroke="#63b8ff" points="572.38,-102.91 581.07,-96.86 570.5,-96.17 572.38,-102.91"/>
</a>
</g>
</g>
<!-- Node12&#45;&gt;Node6 -->
<g id="edge19_Node000012_Node000006" class="edge">
<title>Node12&#45;&gt;Node6</title>
<g id="a_edge19_Node000012_Node000006"><a xlink:title=" ">
<path fill="none" stroke="#63b8ff" d="M519.62,-96.49C527.48,-99.06 535.71,-101.95 543.25,-105 559.4,-111.53 576.84,-120.04 591,-127.35"/>
<polygon fill="#63b8ff" stroke="#63b8ff" points="589.3,-130.41 599.79,-131.95 592.55,-124.21 589.3,-130.41"/>
</a>
</g>
</g>
<!-- Node12&#45;&gt;Node10 -->
<g id="edge20_Node000012_Node000010" class="edge">
<title>Node12&#45;&gt;Node10</title>
<g id="a_edge20_Node000012_Node000010"><a xlink:title=" ">
<path fill="none" stroke="#63b8ff" d="M522.79,-86C536.83,-86 552.89,-86 567.87,-86"/>
<polygon fill="#63b8ff" stroke="#63b8ff" points="567.54,-89.5 577.54,-86 567.54,-82.5 567.54,-89.5"/>
</a>
</g>
</g>
<!-- Node14 -->
<g id="Node000014" class="node">
<title>Node14</title>
<g id="a_Node000014"><a xlink:href="_text_manager_8cpp.html#a4a86df56d2737552b2fd63bfa85c5800" target="_top" xlink:title=" ">
<polygon fill="white" stroke="#666666" points="525.62,-20 439.88,-20 439.88,0 525.62,0 525.62,-20"/>
<text text-anchor="middle" x="482.75" y="-6.5" font-family="Helvetica,sans-Serif" font-size="10.00">getOfstreamFile</text>
</a>
</g>
</g>
<!-- Node13&#45;&gt;Node14 -->
<g id="edge22_Node000013_Node000014" class="edge">
<title>Node13&#45;&gt;Node14</title>
<g id="a_edge22_Node000013_Node000014"><a xlink:title=" ">
<path fill="none" stroke="#63b8ff" d="M378.2,-10C393,-10 411.16,-10 428.12,-10"/>
<polygon fill="#63b8ff" stroke="#63b8ff" points="428.1,-13.5 438.1,-10 428.1,-6.5 428.1,-13.5"/>
</a>
</g>
</g>
</g>
</svg>

<g id="navigator" transform="translate(0 0)" fill="#404254">
  <rect fill="#f2f5e9" fill-opacity="0.5" stroke="#606060" stroke-width=".5" x="0" y="0" width="60" height="60"/>
  <use id="zoomplus" xlink:href="#zoomPlus" x="17" y="9" onmousedown="handleZoom(evt,'in')"/>
  <use id="zoomminus" xlink:href="#zoomMin" x="42" y="9" onmousedown="handleZoom(evt,'out')"/>
  <use id="reset" xlink:href="#resetDef" x="30" y="36" onmousedown="handleReset()"/>
   <use id="arrowup" xlink:href="#arrowUp" x="0" y="0" onmousedown="handlePan(0,-1)"/>
  <use id="arrowright" xlink:href="#arrowRight" x="0" y="0" onmousedown="handlePan(1,0)"/>
  <use id="arrowdown" xlink:href="#arrowDown" x="0" y="0" onmousedown="handlePan(0,1)"/>
  <use id="arrowleft" xlink:href="#arrowLeft" x="0" y="0" onmousedown="handlePan(-1,0)"/>
</g>
<svg viewBox="0 0 15 15" width="100%" height="30px" preserveAspectRatio="xMaxYMin meet">
 <g id="arrow_out" transform="scale(0.3 0.3)">
  <a xlink:href="class_bot_config_a7b0b572a14dd5f0630b335041f83049a_cgraph_org.svg" target="_base">
   <rect id="button" ry="5" rx="5" y="6" x="6" height="38" width="38"
        fill="#f2f5e9" fill-opacity="0.5" stroke="#606060" stroke-width="1.0"/>
   <path id="arrow"
     d="M 11.500037,31.436501 C 11.940474,20.09759 22.043105,11.32322 32.158766,21.979434 L 37.068811,17.246167 C 37.068811,17.246167 37.088388,32 37.088388,32 L 22.160133,31.978069 C 22.160133,31.978069 26.997745,27.140456 26.997745,27.140456 C 18.528582,18.264221 13.291696,25.230495 11.500037,31.436501 z"
     style="fill:#404040;"/>
  </a>
 </g>
</svg>

<style type='text/css'>
<![CDATA[
[data-mouse-over-selected='false'] { opacity: 0.7; }
[data-mouse-over-selected='true']  { opacity: 1.0; }
]]>
</style>
<script type="application/ecmascript"><![CDATA[
document.addEventListener('DOMContentLoaded', (event) => {
  highlightEdges();
  highlightAdjacentNodes();
});
]]></script>
</svg>
