<?xml version="1.0" encoding="UTF-8" standalone="no"?>
<!DOCTYPE svg PUBLIC "-//W3C//DTD SVG 1.1//EN"
 "http://www.w3.org/Graphics/SVG/1.1/DTD/svg11.dtd">
<!-- Generated by graphviz version 12.2.0 (20241103.1931)
 -->
<!-- Title: fsfml::handleActivePanel Pages: 1 -->
<svg width="1098pt" height="507pt"
 viewBox="0.00 0.00 1098.00 507.00" xmlns="http://www.w3.org/2000/svg" xmlns:xlink="http://www.w3.org/1999/xlink">
<g id="graph0" class="graph" transform="scale(1 1) rotate(0) translate(4 503)">
<title>fsfml::handleActivePanel</title>
<!-- Node1 -->
<g id="Node000001" class="node">
<title>Node1</title>
<g id="a_Node000001"><a xlink:title=" ">
<polygon fill="#999999" stroke="#666666" points="124.75,-367 0,-367 0,-347 124.75,-347 124.75,-367"/>
<text text-anchor="middle" x="62.38" y="-353.5" font-family="Helvetica,sans-Serif" font-size="10.00">fsfml::handleActivePanel</text>
</a>
</g>
</g>
<!-- Node2 -->
<g id="Node000002" class="node">
<title>Node2</title>
<g id="a_Node000002"><a xlink:href="classfsfml.html#aceb59f10f27fe378b70ba005cffd6e95" target="_top" xlink:title=" ">
<polygon fill="white" stroke="#666666" points="278,-405 160.75,-405 160.75,-385 278,-385 278,-405"/>
<text text-anchor="middle" x="219.38" y="-391.5" font-family="Helvetica,sans-Serif" font-size="10.00">fsfml::drawActivePanel</text>
</a>
</g>
</g>
<!-- Node1&#45;&gt;Node2 -->
<g id="edge1_Node000001_Node000002" class="edge">
<title>Node1&#45;&gt;Node2</title>
<g id="a_edge1_Node000001_Node000002"><a xlink:title=" ">
<path fill="none" stroke="#63b8ff" d="M106.14,-367.48C124.27,-371.93 145.59,-377.16 164.76,-381.85"/>
<polygon fill="#63b8ff" stroke="#63b8ff" points="163.73,-385.21 174.28,-384.19 165.4,-378.41 163.73,-385.21"/>
</a>
</g>
</g>
<!-- Node6 -->
<g id="Node000006" class="node">
<title>Node6</title>
<g id="a_Node000006"><a xlink:href="classfsfml.html#a6b4ab16d375ff176a0533dccdc09fc20" target="_top" xlink:title=" ">
<polygon fill="white" stroke="#666666" points="266.38,-348 172.38,-348 172.38,-328 266.38,-328 266.38,-348"/>
<text text-anchor="middle" x="219.38" y="-334.5" font-family="Helvetica,sans-Serif" font-size="10.00">fsfml::PanelEvent</text>
</a>
</g>
</g>
<!-- Node1&#45;&gt;Node6 -->
<g id="edge5_Node000001_Node000006" class="edge">
<title>Node1&#45;&gt;Node6</title>
<g id="a_edge5_Node000001_Node000006"><a xlink:title=" ">
<path fill="none" stroke="#63b8ff" d="M125.08,-349.44C136.86,-347.99 149.14,-346.49 160.78,-345.06"/>
<polygon fill="#63b8ff" stroke="#63b8ff" points="161.17,-348.54 170.67,-343.85 160.32,-341.59 161.17,-348.54"/>
</a>
</g>
</g>
<!-- Node3 -->
<g id="Node000003" class="node">
<title>Node3</title>
<g id="a_Node000003"><a xlink:href="classfsfml.html#af96aba7ca8dc0881d294824ef411423e" target="_top" xlink:title=" ">
<polygon fill="white" stroke="#666666" points="411.38,-471 321.88,-471 321.88,-451 411.38,-451 411.38,-471"/>
<text text-anchor="middle" x="366.62" y="-457.5" font-family="Helvetica,sans-Serif" font-size="10.00">fsfml::drawPanel</text>
</a>
</g>
</g>
<!-- Node2&#45;&gt;Node3 -->
<g id="edge2_Node000002_Node000003" class="edge">
<title>Node2&#45;&gt;Node3</title>
<g id="a_edge2_Node000002_Node000003"><a xlink:title=" ">
<path fill="none" stroke="#63b8ff" d="M243.39,-405.46C267.4,-416.37 305.27,-433.57 332.5,-445.95"/>
<polygon fill="#63b8ff" stroke="#63b8ff" points="330.79,-449.01 341.34,-449.96 333.68,-442.64 330.79,-449.01"/>
</a>
</g>
</g>
<!-- Node4 -->
<g id="Node000004" class="node">
<title>Node4</title>
<g id="a_Node000004"><a xlink:href="classfsfml.html#a3932b66747544d6b2f03f0c7c0ec73f1" target="_top" xlink:title=" ">
<polygon fill="white" stroke="#666666" points="572.88,-499 472.12,-499 472.12,-479 572.88,-479 572.88,-499"/>
<text text-anchor="middle" x="522.5" y="-485.5" font-family="Helvetica,sans-Serif" font-size="10.00">fsfml::drawElement</text>
</a>
</g>
</g>
<!-- Node3&#45;&gt;Node4 -->
<g id="edge3_Node000003_Node000004" class="edge">
<title>Node3&#45;&gt;Node4</title>
<g id="a_edge3_Node000003_Node000004"><a xlink:title=" ">
<path fill="none" stroke="#63b8ff" d="M411.72,-469.02C426.94,-471.79 444.28,-474.95 460.61,-477.92"/>
<polygon fill="#63b8ff" stroke="#63b8ff" points="459.76,-481.32 470.23,-479.67 461.01,-474.44 459.76,-481.32"/>
</a>
</g>
</g>
<!-- Node5 -->
<g id="Node000005" class="node">
<title>Node5</title>
<g id="a_Node000005"><a xlink:href="classfsfml.html#a7e5def29a9cfa65cd2fad8622ca68128" target="_top" xlink:title=" ">
<polygon fill="white" stroke="#666666" points="746.75,-499 656.5,-499 656.5,-479 746.75,-479 746.75,-499"/>
<text text-anchor="middle" x="701.62" y="-485.5" font-family="Helvetica,sans-Serif" font-size="10.00">fsfml::drawSprite</text>
</a>
</g>
</g>
<!-- Node4&#45;&gt;Node5 -->
<g id="edge4_Node000004_Node000005" class="edge">
<title>Node4&#45;&gt;Node5</title>
<g id="a_edge4_Node000004_Node000005"><a xlink:title=" ">
<path fill="none" stroke="#63b8ff" d="M573.31,-489C595.54,-489 621.84,-489 644.74,-489"/>
<polygon fill="#63b8ff" stroke="#63b8ff" points="644.51,-492.5 654.51,-489 644.51,-485.5 644.51,-492.5"/>
</a>
</g>
</g>
<!-- Node7 -->
<g id="Node000007" class="node">
<title>Node7</title>
<g id="a_Node000007"><a xlink:href="classfsfml.html#a91666521c0a898f3c36635657fe81e9d" target="_top" xlink:title=" ">
<polygon fill="white" stroke="#666666" points="415.5,-168 317.75,-168 317.75,-148 415.5,-148 415.5,-168"/>
<text text-anchor="middle" x="366.62" y="-154.5" font-family="Helvetica,sans-Serif" font-size="10.00">fsfml::autoPadding</text>
</a>
</g>
</g>
<!-- Node6&#45;&gt;Node7 -->
<g id="edge6_Node000006_Node000007" class="edge">
<title>Node6&#45;&gt;Node7</title>
<g id="a_edge6_Node000006_Node000007"><a xlink:title=" ">
<path fill="none" stroke="#63b8ff" d="M228.81,-327.54C252.48,-298.22 319.75,-214.85 350.25,-177.05"/>
<polygon fill="#63b8ff" stroke="#63b8ff" points="352.66,-179.64 356.21,-169.66 347.21,-175.25 352.66,-179.64"/>
</a>
</g>
</g>
<!-- Node9 -->
<g id="Node000009" class="node">
<title>Node9</title>
<g id="a_Node000009"><a xlink:href="classfsfml.html#a54f1c15c7c8063c7d8bb0eb2445515d5" target="_top" xlink:title=" ">
<polygon fill="white" stroke="#666666" points="413.25,-405 320,-405 320,-385 413.25,-385 413.25,-405"/>
<text text-anchor="middle" x="366.62" y="-391.5" font-family="Helvetica,sans-Serif" font-size="10.00">fsfml::autoResize</text>
</a>
</g>
</g>
<!-- Node6&#45;&gt;Node9 -->
<g id="edge8_Node000006_Node000009" class="edge">
<title>Node6&#45;&gt;Node9</title>
<g id="a_edge8_Node000006_Node000009"><a xlink:title=" ">
<path fill="none" stroke="#63b8ff" d="M247.02,-348.45C269.95,-357.45 303.27,-370.53 328.76,-380.53"/>
<polygon fill="#63b8ff" stroke="#63b8ff" points="327.16,-383.66 337.74,-384.06 329.71,-377.15 327.16,-383.66"/>
</a>
</g>
</g>
<!-- Node13 -->
<g id="Node000013" class="node">
<title>Node13</title>
<g id="a_Node000013"><a xlink:href="classfsfml.html#aaedb2c3e71e110318848a8ccc956a2e2" target="_top" xlink:title=" ">
<polygon fill="white" stroke="#666666" points="417.38,-348 315.88,-348 315.88,-328 417.38,-328 417.38,-348"/>
<text text-anchor="middle" x="366.62" y="-334.5" font-family="Helvetica,sans-Serif" font-size="10.00">fsfml::autoSeparate</text>
</a>
</g>
</g>
<!-- Node6&#45;&gt;Node13 -->
<g id="edge13_Node000006_Node000013" class="edge">
<title>Node6&#45;&gt;Node13</title>
<g id="a_edge13_Node000006_Node000013"><a xlink:title=" ">
<path fill="none" stroke="#63b8ff" d="M266.73,-338C278.62,-338 291.59,-338 304.11,-338"/>
<polygon fill="#63b8ff" stroke="#63b8ff" points="303.93,-341.5 313.93,-338 303.93,-334.5 303.93,-341.5"/>
</a>
</g>
</g>
<!-- Node23 -->
<g id="Node000023" class="node">
<title>Node23</title>
<g id="a_Node000023"><a xlink:href="classfsfml.html#a7e31fbe38054def5364e705811d867de" target="_top" xlink:title=" ">
<polygon fill="white" stroke="#666666" points="419.25,-263 314,-263 314,-243 419.25,-243 419.25,-263"/>
<text text-anchor="middle" x="366.62" y="-249.5" font-family="Helvetica,sans-Serif" font-size="10.00">fsfml::ElementEvent</text>
</a>
</g>
</g>
<!-- Node6&#45;&gt;Node23 -->
<g id="edge24_Node000006_Node000023" class="edge">
<title>Node6&#45;&gt;Node23</title>
<g id="a_edge24_Node000006_Node000023"><a xlink:title=" ">
<path fill="none" stroke="#63b8ff" d="M238.19,-327.58C263.26,-312.9 309.17,-286.04 338.5,-268.87"/>
<polygon fill="#63b8ff" stroke="#63b8ff" points="339.95,-272.08 346.82,-264.01 336.42,-266.04 339.95,-272.08"/>
</a>
</g>
</g>
<!-- Node8 -->
<g id="Node000008" class="node">
<title>Node8</title>
<g id="a_Node000008"><a xlink:href="struct_element.html#aa94441b1818c1267cb015bdb1db0b157" target="_top" xlink:title=" ">
<polygon fill="white" stroke="#666666" points="575.88,-139 469.12,-139 469.12,-119 575.88,-119 575.88,-139"/>
<text text-anchor="middle" x="522.5" y="-125.5" font-family="Helvetica,sans-Serif" font-size="10.00">Element::setPadding</text>
</a>
</g>
</g>
<!-- Node7&#45;&gt;Node8 -->
<g id="edge7_Node000007_Node000008" class="edge">
<title>Node7&#45;&gt;Node8</title>
<g id="a_edge7_Node000007_Node000008"><a xlink:title=" ">
<path fill="none" stroke="#63b8ff" d="M415.89,-148.9C429.17,-146.4 443.79,-143.65 457.8,-141.01"/>
<polygon fill="#63b8ff" stroke="#63b8ff" points="458.2,-144.49 467.38,-139.2 456.9,-137.61 458.2,-144.49"/>
</a>
</g>
</g>
<!-- Node10 -->
<g id="Node000010" class="node">
<title>Node10</title>
<g id="a_Node000010"><a xlink:href="classfsfml.html#aa7a23a2f8f1b77216ab78de518572a19" target="_top" xlink:title=" ">
<polygon fill="white" stroke="#666666" points="563.5,-443 481.5,-443 481.5,-423 563.5,-423 563.5,-443"/>
<text text-anchor="middle" x="522.5" y="-429.5" font-family="Helvetica,sans-Serif" font-size="10.00">fsfml::getScale</text>
</a>
</g>
</g>
<!-- Node9&#45;&gt;Node10 -->
<g id="edge9_Node000009_Node000010" class="edge">
<title>Node9&#45;&gt;Node10</title>
<g id="a_edge9_Node000009_Node000010"><a xlink:title=" ">
<path fill="none" stroke="#63b8ff" d="M410.08,-405.48C428.6,-410.06 450.47,-415.46 469.92,-420.26"/>
<polygon fill="#63b8ff" stroke="#63b8ff" points="469.02,-423.65 479.57,-422.65 470.7,-416.85 469.02,-423.65"/>
</a>
</g>
</g>
<!-- Node11 -->
<g id="Node000011" class="node">
<title>Node11</title>
<g id="a_Node000011"><a xlink:href="classfsfml.html#a91c3af88560235ca3bc5bdbb8ddd2e9b" target="_top" xlink:title=" ">
<polygon fill="white" stroke="#666666" points="575.5,-405 469.5,-405 469.5,-385 575.5,-385 575.5,-405"/>
<text text-anchor="middle" x="522.5" y="-391.5" font-family="Helvetica,sans-Serif" font-size="10.00">fsfml::resizeElement</text>
</a>
</g>
</g>
<!-- Node9&#45;&gt;Node11 -->
<g id="edge11_Node000009_Node000011" class="edge">
<title>Node9&#45;&gt;Node11</title>
<g id="a_edge11_Node000009_Node000011"><a xlink:title=" ">
<path fill="none" stroke="#63b8ff" d="M413.38,-395C427.35,-395 442.98,-395 457.92,-395"/>
<polygon fill="#63b8ff" stroke="#63b8ff" points="457.66,-398.5 467.66,-395 457.66,-391.5 457.66,-398.5"/>
</a>
</g>
</g>
<!-- Node10&#45;&gt;Node10 -->
<g id="edge10_Node000010_Node000010" class="edge">
<title>Node10&#45;&gt;Node10</title>
<g id="a_edge10_Node000010_Node000010"><a xlink:title=" ">
<path fill="none" stroke="#63b8ff" d="M497.73,-443.34C487.15,-451.98 495.4,-461 522.5,-461 537.32,-461 546.5,-458.3 550.05,-454.44"/>
<polygon fill="#63b8ff" stroke="#63b8ff" points="553.46,-453.66 547.63,-444.81 546.67,-455.36 553.46,-453.66"/>
</a>
</g>
</g>
<!-- Node12 -->
<g id="Node000012" class="node">
<title>Node12</title>
<g id="a_Node000012"><a xlink:href="classfsfml.html#a2c79ba56c482be575f405a9871eab787" target="_top" xlink:title=" ">
<polygon fill="white" stroke="#666666" points="749.38,-443 653.88,-443 653.88,-423 749.38,-423 749.38,-443"/>
<text text-anchor="middle" x="701.62" y="-429.5" font-family="Helvetica,sans-Serif" font-size="10.00">fsfml::resizeSprite</text>
</a>
</g>
</g>
<!-- Node11&#45;&gt;Node12 -->
<g id="edge12_Node000011_Node000012" class="edge">
<title>Node11&#45;&gt;Node12</title>
<g id="a_edge12_Node000011_Node000012"><a xlink:title=" ">
<path fill="none" stroke="#63b8ff" d="M572.37,-405.48C594.01,-410.13 619.63,-415.62 642.26,-420.48"/>
<polygon fill="#63b8ff" stroke="#63b8ff" points="641.45,-423.88 651.96,-422.56 642.92,-417.04 641.45,-423.88"/>
</a>
</g>
</g>
<!-- Node14 -->
<g id="Node000014" class="node">
<title>Node14</title>
<g id="a_Node000014"><a xlink:href="classfsfml.html#aac1968ad932a98b9142e4cee0c38cd2a" target="_top" xlink:title=" ">
<polygon fill="white" stroke="#666666" points="584.5,-367 460.5,-367 460.5,-347 584.5,-347 584.5,-367"/>
<text text-anchor="middle" x="522.5" y="-353.5" font-family="Helvetica,sans-Serif" font-size="10.00">fsfml::separateElementX</text>
</a>
</g>
</g>
<!-- Node13&#45;&gt;Node14 -->
<g id="edge14_Node000013_Node000014" class="edge">
<title>Node13&#45;&gt;Node14</title>
<g id="a_edge14_Node000013_Node000014"><a xlink:title=" ">
<path fill="none" stroke="#63b8ff" d="M417.58,-344.17C427.57,-345.4 438.26,-346.72 448.83,-348.03"/>
<polygon fill="#63b8ff" stroke="#63b8ff" points="448.37,-351.5 458.73,-349.25 449.23,-344.55 448.37,-351.5"/>
</a>
</g>
</g>
<!-- Node21 -->
<g id="Node000021" class="node">
<title>Node21</title>
<g id="a_Node000021"><a xlink:href="classfsfml.html#a9f922766e67798b7172b4479a89eed9b" target="_top" xlink:title=" ">
<polygon fill="white" stroke="#666666" points="584.5,-329 460.5,-329 460.5,-309 584.5,-309 584.5,-329"/>
<text text-anchor="middle" x="522.5" y="-315.5" font-family="Helvetica,sans-Serif" font-size="10.00">fsfml::separateElementY</text>
</a>
</g>
</g>
<!-- Node13&#45;&gt;Node21 -->
<g id="edge21_Node000013_Node000021" class="edge">
<title>Node13&#45;&gt;Node21</title>
<g id="a_edge21_Node000013_Node000021"><a xlink:title=" ">
<path fill="none" stroke="#63b8ff" d="M417.58,-331.83C427.57,-330.6 438.26,-329.28 448.83,-327.97"/>
<polygon fill="#63b8ff" stroke="#63b8ff" points="449.23,-331.45 458.73,-326.75 448.37,-324.5 449.23,-331.45"/>
</a>
</g>
</g>
<!-- Node15 -->
<g id="Node000015" class="node">
<title>Node15</title>
<g id="a_Node000015"><a xlink:href="classfsfml.html#a27da377b199c90dbed037bf3c298b58f" target="_top" xlink:title=" ">
<polygon fill="white" stroke="#666666" points="777.5,-405 625.75,-405 625.75,-385 777.5,-385 777.5,-405"/>
<text text-anchor="middle" x="701.62" y="-391.5" font-family="Helvetica,sans-Serif" font-size="10.00">fsfml::distanceBorderElementX</text>
</a>
</g>
</g>
<!-- Node14&#45;&gt;Node15 -->
<g id="edge15_Node000014_Node000015" class="edge">
<title>Node14&#45;&gt;Node15</title>
<g id="a_edge15_Node000014_Node000015"><a xlink:title=" ">
<path fill="none" stroke="#63b8ff" d="M572.37,-367.48C593.57,-372.03 618.59,-377.4 640.88,-382.18"/>
<polygon fill="#63b8ff" stroke="#63b8ff" points="639.92,-385.56 650.44,-384.23 641.39,-378.71 639.92,-385.56"/>
</a>
</g>
</g>
<!-- Node16 -->
<g id="Node000016" class="node">
<title>Node16</title>
<g id="a_Node000016"><a xlink:href="classfsfml.html#a9cfc61fa4330f08605082f2dc0a3763f" target="_top" xlink:title=" ">
<polygon fill="white" stroke="#666666" points="753.5,-367 649.75,-367 649.75,-347 753.5,-347 753.5,-367"/>
<text text-anchor="middle" x="701.62" y="-353.5" font-family="Helvetica,sans-Serif" font-size="10.00">fsfml::moveElement</text>
</a>
</g>
</g>
<!-- Node14&#45;&gt;Node16 -->
<g id="edge16_Node000014_Node000016" class="edge">
<title>Node14&#45;&gt;Node16</title>
<g id="a_edge16_Node000014_Node000016"><a xlink:title=" ">
<path fill="none" stroke="#63b8ff" d="M584.95,-357C602.17,-357 620.89,-357 638.16,-357"/>
<polygon fill="#63b8ff" stroke="#63b8ff" points="637.76,-360.5 647.76,-357 637.76,-353.5 637.76,-360.5"/>
</a>
</g>
</g>
<!-- Node17 -->
<g id="Node000017" class="node">
<title>Node17</title>
<g id="a_Node000017"><a xlink:href="classfsfml.html#a914f1f9ee2c9f8a97db5704052161a3e" target="_top" xlink:title=" ">
<polygon fill="white" stroke="#666666" points="927.38,-367 834.12,-367 834.12,-347 927.38,-347 927.38,-367"/>
<text text-anchor="middle" x="880.75" y="-353.5" font-family="Helvetica,sans-Serif" font-size="10.00">fsfml::moveSprite</text>
</a>
</g>
</g>
<!-- Node16&#45;&gt;Node17 -->
<g id="edge17_Node000016_Node000017" class="edge">
<title>Node16&#45;&gt;Node17</title>
<g id="a_edge17_Node000016_Node000017"><a xlink:title=" ">
<path fill="none" stroke="#63b8ff" d="M753.86,-357C775.35,-357 800.43,-357 822.52,-357"/>
<polygon fill="#63b8ff" stroke="#63b8ff" points="822.25,-360.5 832.25,-357 822.25,-353.5 822.25,-360.5"/>
</a>
</g>
</g>
<!-- Node18 -->
<g id="Node000018" class="node">
<title>Node18</title>
<g id="a_Node000018"><a xlink:href="classfsfml.html#aa9726b537036754c5927b584939e0e75" target="_top" xlink:title=" ">
<polygon fill="white" stroke="#666666" points="935.25,-310 826.25,-310 826.25,-290 935.25,-290 935.25,-310"/>
<text text-anchor="middle" x="880.75" y="-296.5" font-family="Helvetica,sans-Serif" font-size="10.00">fsfml::updateElement</text>
</a>
</g>
</g>
<!-- Node16&#45;&gt;Node18 -->
<g id="edge18_Node000016_Node000018" class="edge">
<title>Node16&#45;&gt;Node18</title>
<g id="a_edge18_Node000016_Node000018"><a xlink:title=" ">
<path fill="none" stroke="#63b8ff" d="M747.19,-346.53C757.22,-343.94 767.77,-341.03 777.5,-338 799.67,-331.09 824.06,-322.08 843.46,-314.57"/>
<polygon fill="#63b8ff" stroke="#63b8ff" points="844.51,-317.92 852.55,-311.01 841.96,-311.4 844.51,-317.92"/>
</a>
</g>
</g>
<!-- Node19 -->
<g id="Node000019" class="node">
<title>Node19</title>
<g id="a_Node000019"><a xlink:href="struct_element.html#afb65b315f0c1ce49bcaa10aec825fc45" target="_top" xlink:title=" ">
<polygon fill="white" stroke="#666666" points="1082.88,-291 991.12,-291 991.12,-271 1082.88,-271 1082.88,-291"/>
<text text-anchor="middle" x="1037" y="-277.5" font-family="Helvetica,sans-Serif" font-size="10.00">Element::setArea</text>
</a>
</g>
</g>
<!-- Node18&#45;&gt;Node19 -->
<g id="edge19_Node000018_Node000019" class="edge">
<title>Node18&#45;&gt;Node19</title>
<g id="a_edge19_Node000018_Node000019"><a xlink:title=" ">
<path fill="none" stroke="#63b8ff" d="M935.7,-293.35C949.89,-291.61 965.23,-289.72 979.55,-287.95"/>
<polygon fill="#63b8ff" stroke="#63b8ff" points="979.77,-291.45 989.27,-286.76 978.92,-284.5 979.77,-291.45"/>
</a>
</g>
</g>
<!-- Node20 -->
<g id="Node000020" class="node">
<title>Node20</title>
<g id="a_Node000020"><a xlink:href="struct_element.html#a40f17d5f017c9c43f204fc5d92010485" target="_top" xlink:title=" ">
<polygon fill="white" stroke="#666666" points="1082.5,-329 991.5,-329 991.5,-309 1082.5,-309 1082.5,-329"/>
<text text-anchor="middle" x="1037" y="-315.5" font-family="Helvetica,sans-Serif" font-size="10.00">Element::setSize</text>
</a>
</g>
</g>
<!-- Node18&#45;&gt;Node20 -->
<g id="edge20_Node000018_Node000020" class="edge">
<title>Node18&#45;&gt;Node20</title>
<g id="a_edge20_Node000018_Node000020"><a xlink:title=" ">
<path fill="none" stroke="#63b8ff" d="M935.7,-306.65C949.96,-308.4 965.38,-310.3 979.76,-312.07"/>
<polygon fill="#63b8ff" stroke="#63b8ff" points="979.17,-315.53 989.52,-313.27 980.02,-308.58 979.17,-315.53"/>
</a>
</g>
</g>
<!-- Node21&#45;&gt;Node16 -->
<g id="edge23_Node000021_Node000016" class="edge">
<title>Node21&#45;&gt;Node16</title>
<g id="a_edge23_Node000021_Node000016"><a xlink:title=" ">
<path fill="none" stroke="#63b8ff" d="M572.37,-329.48C593.57,-334.03 618.59,-339.4 640.88,-344.18"/>
<polygon fill="#63b8ff" stroke="#63b8ff" points="639.92,-347.56 650.44,-346.23 641.39,-340.71 639.92,-347.56"/>
</a>
</g>
</g>
<!-- Node22 -->
<g id="Node000022" class="node">
<title>Node22</title>
<g id="a_Node000022"><a xlink:href="classfsfml.html#a46e8d36f5909284ba10f98b1062b2e8d" target="_top" xlink:title=" ">
<polygon fill="white" stroke="#666666" points="777.5,-329 625.75,-329 625.75,-309 777.5,-309 777.5,-329"/>
<text text-anchor="middle" x="701.62" y="-315.5" font-family="Helvetica,sans-Serif" font-size="10.00">fsfml::distanceBorderElementY</text>
</a>
</g>
</g>
<!-- Node21&#45;&gt;Node22 -->
<g id="edge22_Node000021_Node000022" class="edge">
<title>Node21&#45;&gt;Node22</title>
<g id="a_edge22_Node000021_Node000022"><a xlink:title=" ">
<path fill="none" stroke="#63b8ff" d="M584.95,-319C594.36,-319 604.22,-319 614.05,-319"/>
<polygon fill="#63b8ff" stroke="#63b8ff" points="614.03,-322.5 624.03,-319 614.03,-315.5 614.03,-322.5"/>
</a>
</g>
</g>
<!-- Node23&#45;&gt;Node18 -->
<g id="edge42_Node000023_Node000018" class="edge">
<title>Node23&#45;&gt;Node18</title>
<g id="a_edge42_Node000023_Node000018"><a xlink:title=" ">
<path fill="none" stroke="#63b8ff" d="M419.55,-257.77C513.55,-266.39 711.69,-284.58 814.6,-294.02"/>
<polygon fill="#63b8ff" stroke="#63b8ff" points="813.98,-297.48 824.26,-294.91 814.62,-290.51 813.98,-297.48"/>
</a>
</g>
</g>
<!-- Node24 -->
<g id="Node000024" class="node">
<title>Node24</title>
<g id="a_Node000024"><a xlink:href="classfsfml.html#ac93c3196218e12fa0e03b10252f9a895" target="_top" xlink:title=" ">
<polygon fill="white" stroke="#666666" points="589.75,-177 455.25,-177 455.25,-157 589.75,-157 589.75,-177"/>
<text text-anchor="middle" x="522.5" y="-163.5" font-family="Helvetica,sans-Serif" font-size="10.00">fsfml::changeColorElement</text>
</a>
</g>
</g>
<!-- Node23&#45;&gt;Node24 -->
<g id="edge25_Node000023_Node000024" class="edge">
<title>Node23&#45;&gt;Node24</title>
<g id="a_edge25_Node000023_Node000024"><a xlink:title=" ">
<path fill="none" stroke="#63b8ff" d="M378.33,-242.64C393.99,-228.02 424.63,-201.4 455.25,-186 458.67,-184.28 462.26,-182.7 465.94,-181.24"/>
<polygon fill="#63b8ff" stroke="#63b8ff" points="466.8,-184.65 475.02,-177.97 464.42,-178.06 466.8,-184.65"/>
</a>
</g>
</g>
<!-- Node29 -->
<g id="Node000029" class="node">
<title>Node29</title>
<g id="a_Node000029"><a xlink:href="classfsfml.html#a39cda5bb0baadfad22eb4af01b9b14a9" target="_top" xlink:title=" ">
<polygon fill="white" stroke="#666666" points="580.75,-215 464.25,-215 464.25,-195 580.75,-195 580.75,-215"/>
<text text-anchor="middle" x="522.5" y="-201.5" font-family="Helvetica,sans-Serif" font-size="10.00">fsfml::getElementState</text>
</a>
</g>
</g>
<!-- Node23&#45;&gt;Node29 -->
<g id="edge31_Node000023_Node000029" class="edge">
<title>Node23&#45;&gt;Node29</title>
<g id="a_edge31_Node000023_Node000029"><a xlink:title=" ">
<path fill="none" stroke="#63b8ff" d="M401.01,-242.58C423.32,-235.63 452.91,-226.4 477.18,-218.83"/>
<polygon fill="#63b8ff" stroke="#63b8ff" points="477.96,-222.25 486.47,-215.93 475.88,-215.57 477.96,-222.25"/>
</a>
</g>
</g>
<!-- Node25 -->
<g id="Node000025" class="node">
<title>Node25</title>
<g id="a_Node000025"><a xlink:href="classfsfml.html#a25eeb8db0d0be9115d85caf1400c018f" target="_top" xlink:title=" ">
<polygon fill="white" stroke="#666666" points="768.88,-63 634.38,-63 634.38,-31 768.88,-31 768.88,-63"/>
<text text-anchor="start" x="642.38" y="-49.5" font-family="Helvetica,sans-Serif" font-size="10.00">fsfml::changeColorElement</text>
<text text-anchor="middle" x="701.62" y="-37.5" font-family="Helvetica,sans-Serif" font-size="10.00">Mouse</text>
</a>
</g>
</g>
<!-- Node24&#45;&gt;Node25 -->
<g id="edge26_Node000024_Node000025" class="edge">
<title>Node24&#45;&gt;Node25</title>
<g id="a_edge26_Node000024_Node000025"><a xlink:title=" ">
<path fill="none" stroke="#63b8ff" d="M575.87,-156.54C580.86,-154.24 585.6,-151.43 589.75,-148 617.03,-125.47 599.65,-100.89 625.75,-77 628.88,-74.14 632.31,-71.53 635.94,-69.16"/>
<polygon fill="#63b8ff" stroke="#63b8ff" points="637.67,-72.2 644.59,-64.18 634.18,-66.14 637.67,-72.2"/>
</a>
</g>
</g>
<!-- Node26 -->
<g id="Node000026" class="node">
<title>Node26</title>
<g id="a_Node000026"><a xlink:href="classfsfml.html#a086f93c342c36c44f23fd318faab987b" target="_top" xlink:title=" ">
<polygon fill="white" stroke="#666666" points="948,-82 813.5,-82 813.5,-50 948,-50 948,-82"/>
<text text-anchor="start" x="821.5" y="-68.5" font-family="Helvetica,sans-Serif" font-size="10.00">fsfml::changeColorElement</text>
<text text-anchor="middle" x="880.75" y="-56.5" font-family="Helvetica,sans-Serif" font-size="10.00">Hover</text>
</a>
</g>
</g>
<!-- Node25&#45;&gt;Node26 -->
<g id="edge27_Node000025_Node000026" class="edge">
<title>Node25&#45;&gt;Node26</title>
<g id="a_edge27_Node000025_Node000026"><a xlink:title=" ">
<path fill="none" stroke="#63b8ff" d="M769.34,-54.16C779.96,-55.3 791.04,-56.48 801.89,-57.65"/>
<polygon fill="#63b8ff" stroke="#63b8ff" points="801.28,-61.1 811.59,-58.69 802.02,-54.14 801.28,-61.1"/>
</a>
</g>
</g>
<!-- Node28 -->
<g id="Node000028" class="node">
<title>Node28</title>
<g id="a_Node000028"><a xlink:href="classfsfml.html#a6206758c01c270444e8c704535a2acb7" target="_top" xlink:title=" ">
<polygon fill="white" stroke="#666666" points="948,-32 813.5,-32 813.5,0 948,0 948,-32"/>
<text text-anchor="start" x="821.5" y="-18.5" font-family="Helvetica,sans-Serif" font-size="10.00">fsfml::changeColorElement</text>
<text text-anchor="middle" x="880.75" y="-6.5" font-family="Helvetica,sans-Serif" font-size="10.00">Pressed</text>
</a>
</g>
</g>
<!-- Node25&#45;&gt;Node28 -->
<g id="edge29_Node000025_Node000028" class="edge">
<title>Node25&#45;&gt;Node28</title>
<g id="a_edge29_Node000025_Node000028"><a xlink:title=" ">
<path fill="none" stroke="#63b8ff" d="M769.34,-35.32C779.96,-33.46 791.04,-31.53 801.89,-29.63"/>
<polygon fill="#63b8ff" stroke="#63b8ff" points="802.36,-33.1 811.61,-27.93 801.15,-26.2 802.36,-33.1"/>
</a>
</g>
</g>
<!-- Node27 -->
<g id="Node000027" class="node">
<title>Node27</title>
<g id="a_Node000027"><a xlink:href="classfsfml.html#a5eb57f7a09768d185d53cf87fb8544ee" target="_top" xlink:title=" ">
<polygon fill="white" stroke="#666666" points="1090,-51 984,-51 984,-31 1090,-31 1090,-51"/>
<text text-anchor="middle" x="1037" y="-37.5" font-family="Helvetica,sans-Serif" font-size="10.00">fsfml::setSpriteColor</text>
</a>
</g>
</g>
<!-- Node26&#45;&gt;Node27 -->
<g id="edge28_Node000026_Node000027" class="edge">
<title>Node26&#45;&gt;Node27</title>
<g id="a_edge28_Node000026_Node000027"><a xlink:title=" ">
<path fill="none" stroke="#63b8ff" d="M948.06,-55.25C956.16,-53.94 964.43,-52.6 972.49,-51.29"/>
<polygon fill="#63b8ff" stroke="#63b8ff" points="972.91,-54.77 982.22,-49.72 971.79,-47.86 972.91,-54.77"/>
</a>
</g>
</g>
<!-- Node28&#45;&gt;Node27 -->
<g id="edge30_Node000028_Node000027" class="edge">
<title>Node28&#45;&gt;Node27</title>
<g id="a_edge30_Node000028_Node000027"><a xlink:title=" ">
<path fill="none" stroke="#63b8ff" d="M948.06,-26.75C956.16,-28.06 964.43,-29.4 972.49,-30.71"/>
<polygon fill="#63b8ff" stroke="#63b8ff" points="971.79,-34.14 982.22,-32.28 972.91,-27.23 971.79,-34.14"/>
</a>
</g>
</g>
<!-- Node30 -->
<g id="Node000030" class="node">
<title>Node30</title>
<g id="a_Node000030"><a xlink:href="classfsfml.html#abdf8a3b6da3d8041aa23a51a52cf5c1f" target="_top" xlink:title=" ">
<polygon fill="white" stroke="#666666" points="756.88,-177 646.38,-177 646.38,-157 756.88,-157 756.88,-177"/>
<text text-anchor="middle" x="701.62" y="-163.5" font-family="Helvetica,sans-Serif" font-size="10.00">fsfml::clickedElement</text>
</a>
</g>
</g>
<!-- Node29&#45;&gt;Node30 -->
<g id="edge32_Node000029_Node000030" class="edge">
<title>Node29&#45;&gt;Node30</title>
<g id="a_edge32_Node000029_Node000030"><a xlink:title=" ">
<path fill="none" stroke="#63b8ff" d="M572.37,-194.52C593.57,-189.97 618.59,-184.6 640.88,-179.82"/>
<polygon fill="#63b8ff" stroke="#63b8ff" points="641.39,-183.29 650.44,-177.77 639.92,-176.44 641.39,-183.29"/>
</a>
</g>
</g>
<!-- Node31 -->
<g id="Node000031" class="node">
<title>Node31</title>
<g id="a_Node000031"><a xlink:href="classfsfml.html#a6c776fc7941d47fb2f10d9a2579d2a2e" target="_top" xlink:title=" ">
<polygon fill="white" stroke="#666666" points="920.25,-139 841.25,-139 841.25,-119 920.25,-119 920.25,-139"/>
<text text-anchor="middle" x="880.75" y="-125.5" font-family="Helvetica,sans-Serif" font-size="10.00">fsfml::convertf</text>
</a>
</g>
</g>
<!-- Node29&#45;&gt;Node31 -->
<g id="edge36_Node000029_Node000031" class="edge">
<title>Node29&#45;&gt;Node31</title>
<g id="a_edge36_Node000029_Node000031"><a xlink:title=" ">
<path fill="none" stroke="#63b8ff" d="M576.29,-194.5C581.15,-192.2 585.74,-189.41 589.75,-186 618.24,-161.81 594.17,-129.99 625.75,-110 693.81,-66.93 793.6,-94.76 845.51,-114.41"/>
<polygon fill="#63b8ff" stroke="#63b8ff" points="844.14,-117.63 854.73,-118.02 846.69,-111.11 844.14,-117.63"/>
</a>
</g>
</g>
<!-- Node32 -->
<g id="Node000032" class="node">
<title>Node32</title>
<g id="a_Node000032"><a xlink:href="classfsfml.html#a200802324bb5f37bfae3d935c0b91db4" target="_top" xlink:title=" ">
<polygon fill="white" stroke="#666666" points="927,-177 834.5,-177 834.5,-157 927,-157 927,-177"/>
<text text-anchor="middle" x="880.75" y="-163.5" font-family="Helvetica,sans-Serif" font-size="10.00">fsfml::OnElement</text>
</a>
</g>
</g>
<!-- Node29&#45;&gt;Node32 -->
<g id="edge37_Node000029_Node000032" class="edge">
<title>Node29&#45;&gt;Node32</title>
<g id="a_edge37_Node000029_Node000032"><a xlink:title=" ">
<path fill="none" stroke="#63b8ff" d="M581.18,-202.48C632.78,-199.8 710.41,-194.72 777.5,-186 792.34,-184.07 808.29,-181.4 823.07,-178.67"/>
<polygon fill="#63b8ff" stroke="#63b8ff" points="823.45,-182.16 832.62,-176.86 822.15,-175.28 823.45,-182.16"/>
</a>
</g>
</g>
<!-- Node34 -->
<g id="Node000034" class="node">
<title>Node34</title>
<g id="a_Node000034"><a xlink:href="classfsfml.html#a094eb58373ba492a7c19666625acf2eb" target="_top" xlink:title=" ">
<polygon fill="white" stroke="#666666" points="758.75,-139 644.5,-139 644.5,-119 758.75,-119 758.75,-139"/>
<text text-anchor="middle" x="701.62" y="-125.5" font-family="Helvetica,sans-Serif" font-size="10.00">fsfml::pressedElement</text>
</a>
</g>
</g>
<!-- Node29&#45;&gt;Node34 -->
<g id="edge38_Node000029_Node000034" class="edge">
<title>Node29&#45;&gt;Node34</title>
<g id="a_edge38_Node000029_Node000034"><a xlink:title=" ">
<path fill="none" stroke="#63b8ff" d="M571.49,-194.57C577.86,-192.24 584.13,-189.42 589.75,-186 609.63,-173.92 605.68,-159.77 625.75,-148 628.52,-146.38 631.42,-144.89 634.41,-143.53"/>
<polygon fill="#63b8ff" stroke="#63b8ff" points="635.43,-146.89 643.42,-139.94 632.84,-140.39 635.43,-146.89"/>
</a>
</g>
</g>
<!-- Node35 -->
<g id="Node000035" class="node">
<title>Node35</title>
<g id="a_Node000035"><a xlink:href="struct_element.html#ab0a841dcde36a4cae2aba77c2572368d" target="_top" xlink:title=" ">
<polygon fill="white" stroke="#666666" points="749,-253 654.25,-253 654.25,-233 749,-233 749,-253"/>
<text text-anchor="middle" x="701.62" y="-239.5" font-family="Helvetica,sans-Serif" font-size="10.00">Element::setState</text>
</a>
</g>
</g>
<!-- Node29&#45;&gt;Node35 -->
<g id="edge41_Node000029_Node000035" class="edge">
<title>Node29&#45;&gt;Node35</title>
<g id="a_edge41_Node000029_Node000035"><a xlink:title=" ">
<path fill="none" stroke="#63b8ff" d="M572.37,-215.48C594.18,-220.16 620.04,-225.71 642.81,-230.6"/>
<polygon fill="#63b8ff" stroke="#63b8ff" points="642.06,-234.01 652.57,-232.69 643.53,-227.17 642.06,-234.01"/>
</a>
</g>
</g>
<!-- Node30&#45;&gt;Node31 -->
<g id="edge33_Node000030_Node000031" class="edge">
<title>Node30&#45;&gt;Node31</title>
<g id="a_edge33_Node000030_Node000031"><a xlink:title=" ">
<path fill="none" stroke="#63b8ff" d="M751.49,-156.52C775.8,-151.3 805.14,-145.01 829.62,-139.75"/>
<polygon fill="#63b8ff" stroke="#63b8ff" points="830.33,-143.18 839.37,-137.66 828.86,-136.34 830.33,-143.18"/>
</a>
</g>
</g>
<!-- Node30&#45;&gt;Node32 -->
<g id="edge34_Node000030_Node000032" class="edge">
<title>Node30&#45;&gt;Node32</title>
<g id="a_edge34_Node000030_Node000032"><a xlink:title=" ">
<path fill="none" stroke="#63b8ff" d="M757.21,-167C778.05,-167 801.85,-167 822.9,-167"/>
<polygon fill="#63b8ff" stroke="#63b8ff" points="822.76,-170.5 832.76,-167 822.76,-163.5 822.76,-170.5"/>
</a>
</g>
</g>
<!-- Node33 -->
<g id="Node000033" class="node">
<title>Node33</title>
<g id="a_Node000033"><a xlink:href="classfsfml.html#a0ad8f537cba99a886634de5d16d889c3" target="_top" xlink:title=" ">
<polygon fill="white" stroke="#666666" points="1078,-177 996,-177 996,-157 1078,-157 1078,-177"/>
<text text-anchor="middle" x="1037" y="-163.5" font-family="Helvetica,sans-Serif" font-size="10.00">fsfml::OnSprite</text>
</a>
</g>
</g>
<!-- Node32&#45;&gt;Node33 -->
<g id="edge35_Node000032_Node000033" class="edge">
<title>Node32&#45;&gt;Node33</title>
<g id="a_edge35_Node000032_Node000033"><a xlink:title=" ">
<path fill="none" stroke="#63b8ff" d="M927.2,-167C945.07,-167 965.69,-167 984.14,-167"/>
<polygon fill="#63b8ff" stroke="#63b8ff" points="984.09,-170.5 994.09,-167 984.09,-163.5 984.09,-170.5"/>
</a>
</g>
</g>
<!-- Node34&#45;&gt;Node31 -->
<g id="edge39_Node000034_Node000031" class="edge">
<title>Node34&#45;&gt;Node31</title>
<g id="a_edge39_Node000034_Node000031"><a xlink:title=" ">
<path fill="none" stroke="#63b8ff" d="M759.16,-129C781.73,-129 807.5,-129 829.42,-129"/>
<polygon fill="#63b8ff" stroke="#63b8ff" points="829.3,-132.5 839.3,-129 829.3,-125.5 829.3,-132.5"/>
</a>
</g>
</g>
<!-- Node34&#45;&gt;Node32 -->
<g id="edge40_Node000034_Node000032" class="edge">
<title>Node34&#45;&gt;Node32</title>
<g id="a_edge40_Node000034_Node000032"><a xlink:title=" ">
<path fill="none" stroke="#63b8ff" d="M751.49,-139.48C773.67,-144.24 800.03,-149.9 823.07,-154.84"/>
<polygon fill="#63b8ff" stroke="#63b8ff" points="822.09,-158.21 832.6,-156.88 823.56,-151.37 822.09,-158.21"/>
</a>
</g>
</g>
</g>
</svg>
