<?xml version="1.0" encoding="UTF-8" standalone="no"?>
<!DOCTYPE svg PUBLIC "-//W3C//DTD SVG 1.1//EN"
 "http://www.w3.org/Graphics/SVG/1.1/DTD/svg11.dtd">
<!-- Generated by graphviz version 12.2.0 (20241103.1931)
 -->
<!-- Title: LDPlayer::adbActivated Pages: 1 -->
<svg width="989pt" height="226pt"
 viewBox="0.00 0.00 988.50 226.00" xmlns="http://www.w3.org/2000/svg" xmlns:xlink="http://www.w3.org/1999/xlink">
<g id="graph0" class="graph" transform="scale(1 1) rotate(0) translate(4 222)">
<title>LDPlayer::adbActivated</title>
<!-- Node1 -->
<g id="Node000001" class="node">
<title>Node1</title>
<g id="a_Node000001"><a xlink:title=" ">
<polygon fill="#999999" stroke="#666666" points="119.5,-77 0,-77 0,-57 119.5,-57 119.5,-77"/>
<text text-anchor="middle" x="59.75" y="-63.5" font-family="Helvetica,sans-Serif" font-size="10.00">LDPlayer::adbActivated</text>
</a>
</g>
</g>
<!-- Node2 -->
<g id="Node000002" class="node">
<title>Node2</title>
<g id="a_Node000002"><a xlink:href="_text_manager_8cpp.html#ae390b108793fa81984968410a695c1af" target="_top" xlink:title=" ">
<polygon fill="white" stroke="#666666" points="264.88,-134 166.38,-134 166.38,-114 264.88,-114 264.88,-134"/>
<text text-anchor="middle" x="215.62" y="-120.5" font-family="Helvetica,sans-Serif" font-size="10.00">extractLineContent</text>
</a>
</g>
</g>
<!-- Node1&#45;&gt;Node2 -->
<g id="edge1_Node000001_Node000002" class="edge">
<title>Node1&#45;&gt;Node2</title>
<g id="a_edge1_Node000001_Node000002"><a xlink:title=" ">
<path fill="none" stroke="#63b8ff" d="M88.97,-77.45C113.3,-86.47 148.66,-99.57 175.68,-109.57"/>
<polygon fill="#63b8ff" stroke="#63b8ff" points="174.31,-112.8 184.9,-112.99 176.74,-106.23 174.31,-112.8"/>
</a>
</g>
</g>
<!-- Node11 -->
<g id="Node000011" class="node">
<title>Node11</title>
<g id="a_Node000011"><a xlink:href="class_l_d_player.html#adbb21d959364d3b54d3981e73f24b0ac" target="_top" xlink:title=" ">
<polygon fill="white" stroke="#666666" points="275.75,-58 155.5,-58 155.5,-38 275.75,-38 275.75,-58"/>
<text text-anchor="middle" x="215.62" y="-44.5" font-family="Helvetica,sans-Serif" font-size="10.00">LDPlayer::getConfigFile</text>
</a>
</g>
</g>
<!-- Node1&#45;&gt;Node11 -->
<g id="edge16_Node000001_Node000011" class="edge">
<title>Node1&#45;&gt;Node11</title>
<g id="a_edge16_Node000001_Node000011"><a xlink:title=" ">
<path fill="none" stroke="#63b8ff" d="M119.8,-59.71C127.69,-58.73 135.85,-57.73 143.92,-56.73"/>
<polygon fill="#63b8ff" stroke="#63b8ff" points="144.22,-60.22 153.72,-55.52 143.37,-53.27 144.22,-60.22"/>
</a>
</g>
</g>
<!-- Node12 -->
<g id="Node000012" class="node">
<title>Node12</title>
<g id="a_Node000012"><a xlink:href="class_l_d_player.html#aa85461ad56f19bcf3620c16d6781f640" target="_top" xlink:title=" ">
<polygon fill="white" stroke="#666666" points="453,-77 311.75,-77 311.75,-57 453,-57 453,-77"/>
<text text-anchor="middle" x="382.38" y="-63.5" font-family="Helvetica,sans-Serif" font-size="10.00">LDPlayer::transformInstance</text>
</a>
</g>
</g>
<!-- Node1&#45;&gt;Node12 -->
<g id="edge19_Node000001_Node000012" class="edge">
<title>Node1&#45;&gt;Node12</title>
<g id="a_edge19_Node000001_Node000012"><a xlink:title=" ">
<path fill="none" stroke="#63b8ff" d="M119.93,-67C170.55,-67 243.89,-67 300.03,-67"/>
<polygon fill="#63b8ff" stroke="#63b8ff" points="299.86,-70.5 309.86,-67 299.86,-63.5 299.86,-70.5"/>
</a>
</g>
</g>
<!-- Node13 -->
<g id="Node000013" class="node">
<title>Node13</title>
<g id="a_Node000013"><a xlink:href="_text_manager_8cpp.html#add36cc54cd9616a393a17b8961491477" target="_top" xlink:title=" ">
<polygon fill="white" stroke="#666666" points="255.5,-20 175.75,-20 175.75,0 255.5,0 255.5,-20"/>
<text text-anchor="middle" x="215.62" y="-6.5" font-family="Helvetica,sans-Serif" font-size="10.00">getFileContent</text>
</a>
</g>
</g>
<!-- Node1&#45;&gt;Node13 -->
<g id="edge18_Node000001_Node000013" class="edge">
<title>Node1&#45;&gt;Node13</title>
<g id="a_edge18_Node000001_Node000013"><a xlink:title=" ">
<path fill="none" stroke="#63b8ff" d="M85.5,-56.52C104.51,-48.6 131.49,-37.66 155.5,-29 160.19,-27.31 165.12,-25.61 170.04,-23.96"/>
<polygon fill="#63b8ff" stroke="#63b8ff" points="170.87,-27.37 179.28,-20.92 168.69,-20.72 170.87,-27.37"/>
</a>
</g>
</g>
<!-- Node3 -->
<g id="Node000003" class="node">
<title>Node3</title>
<g id="a_Node000003"><a xlink:href="_text_manager_8cpp.html#a85a282af68cca7cf7d69487d1bacdc47" target="_top" xlink:title=" ">
<polygon fill="white" stroke="#666666" points="591.62,-124 507.38,-124 507.38,-104 591.62,-104 591.62,-124"/>
<text text-anchor="middle" x="549.5" y="-110.5" font-family="Helvetica,sans-Serif" font-size="10.00">extractBetween</text>
</a>
</g>
</g>
<!-- Node2&#45;&gt;Node3 -->
<g id="edge2_Node000002_Node000003" class="edge">
<title>Node2&#45;&gt;Node3</title>
<g id="a_edge2_Node000002_Node000003"><a xlink:title=" ">
<path fill="none" stroke="#63b8ff" d="M265.24,-122.54C326.76,-120.68 432.35,-117.5 495.77,-115.59"/>
<polygon fill="#63b8ff" stroke="#63b8ff" points="495.7,-119.09 505.59,-115.29 495.49,-112.1 495.7,-119.09"/>
</a>
</g>
</g>
<!-- Node9 -->
<g id="Node000009" class="node">
<title>Node9</title>
<g id="a_Node000009"><a xlink:href="_text_manager_8cpp.html#af24bee60aa1d3d5b4ae3bf6ebd267ecd" target="_top" xlink:title=" ">
<polygon fill="white" stroke="#666666" points="406.12,-162 358.62,-162 358.62,-142 406.12,-142 406.12,-162"/>
<text text-anchor="middle" x="382.38" y="-148.5" font-family="Helvetica,sans-Serif" font-size="10.00">getLine</text>
</a>
</g>
</g>
<!-- Node2&#45;&gt;Node9 -->
<g id="edge11_Node000002_Node000009" class="edge">
<title>Node2&#45;&gt;Node9</title>
<g id="a_edge11_Node000002_Node000009"><a xlink:title=" ">
<path fill="none" stroke="#63b8ff" d="M265.16,-132.25C291.47,-136.72 323.35,-142.14 347.06,-146.17"/>
<polygon fill="#63b8ff" stroke="#63b8ff" points="346.38,-149.6 356.82,-147.83 347.55,-142.7 346.38,-149.6"/>
</a>
</g>
</g>
<!-- Node4 -->
<g id="Node000004" class="node">
<title>Node4</title>
<g id="a_Node000004"><a xlink:href="_text_manager_8cpp.html#a6956d58559ef67f422247fdeb1c22775" target="_top" xlink:title=" ">
<polygon fill="white" stroke="#666666" points="725.75,-162 649.75,-162 649.75,-142 725.75,-142 725.75,-162"/>
<text text-anchor="middle" x="687.75" y="-148.5" font-family="Helvetica,sans-Serif" font-size="10.00">getStringAfter</text>
</a>
</g>
</g>
<!-- Node3&#45;&gt;Node4 -->
<g id="edge3_Node000003_Node000004" class="edge">
<title>Node3&#45;&gt;Node4</title>
<g id="a_edge3_Node000003_Node000004"><a xlink:title=" ">
<path fill="none" stroke="#63b8ff" d="M588.09,-124.48C603.58,-128.8 621.72,-133.86 638.2,-138.46"/>
<polygon fill="#63b8ff" stroke="#63b8ff" points="637.25,-141.83 647.82,-141.14 639.13,-135.09 637.25,-141.83"/>
</a>
</g>
</g>
<!-- Node8 -->
<g id="Node000008" class="node">
<title>Node8</title>
<g id="a_Node000008"><a xlink:href="_text_manager_8cpp.html#aff8311b88dbf5f3091f3ac1262543242" target="_top" xlink:title=" ">
<polygon fill="white" stroke="#666666" points="729.5,-124 646,-124 646,-104 729.5,-104 729.5,-124"/>
<text text-anchor="middle" x="687.75" y="-110.5" font-family="Helvetica,sans-Serif" font-size="10.00">getStringBefore</text>
</a>
</g>
</g>
<!-- Node3&#45;&gt;Node8 -->
<g id="edge9_Node000003_Node000008" class="edge">
<title>Node3&#45;&gt;Node8</title>
<g id="a_edge9_Node000003_Node000008"><a xlink:title=" ">
<path fill="none" stroke="#63b8ff" d="M592.12,-114C605.45,-114 620.38,-114 634.37,-114"/>
<polygon fill="#63b8ff" stroke="#63b8ff" points="634.34,-117.5 644.34,-114 634.34,-110.5 634.34,-117.5"/>
</a>
</g>
</g>
<!-- Node5 -->
<g id="Node000005" class="node">
<title>Node5</title>
<g id="a_Node000005"><a xlink:href="_text_manager_8cpp.html#a5b66873abcff2faee361721f86b65dd0" target="_top" xlink:title=" ">
<polygon fill="white" stroke="#666666" points="843.75,-162 776,-162 776,-142 843.75,-142 843.75,-162"/>
<text text-anchor="middle" x="809.88" y="-148.5" font-family="Helvetica,sans-Serif" font-size="10.00">getPosAfter</text>
</a>
</g>
</g>
<!-- Node4&#45;&gt;Node5 -->
<g id="edge4_Node000004_Node000005" class="edge">
<title>Node4&#45;&gt;Node5</title>
<g id="a_edge4_Node000004_Node000005"><a xlink:title=" ">
<path fill="none" stroke="#63b8ff" d="M726.1,-152C738.23,-152 751.8,-152 764.4,-152"/>
<polygon fill="#63b8ff" stroke="#63b8ff" points="764.11,-155.5 774.11,-152 764.11,-148.5 764.11,-155.5"/>
</a>
</g>
</g>
<!-- Node7 -->
<g id="Node000007" class="node">
<title>Node7</title>
<g id="a_Node000007"><a xlink:href="_text_manager_8cpp.html#a2946b90fb3df56b0a74d53eb4160f4e2" target="_top" xlink:title=" ">
<polygon fill="white" stroke="#666666" points="854.25,-200 765.5,-200 765.5,-180 854.25,-180 854.25,-200"/>
<text text-anchor="middle" x="809.88" y="-186.5" font-family="Helvetica,sans-Serif" font-size="10.00">getStringStarting</text>
</a>
</g>
</g>
<!-- Node4&#45;&gt;Node7 -->
<g id="edge6_Node000004_Node000007" class="edge">
<title>Node4&#45;&gt;Node7</title>
<g id="a_edge6_Node000004_Node000007"><a xlink:title=" ">
<path fill="none" stroke="#63b8ff" d="M721.89,-162.48C735.28,-166.72 750.93,-171.67 765.23,-176.19"/>
<polygon fill="#63b8ff" stroke="#63b8ff" points="763.81,-179.41 774.4,-179.09 765.92,-172.74 763.81,-179.41"/>
</a>
</g>
</g>
<!-- Node6 -->
<g id="Node000006" class="node">
<title>Node6</title>
<g id="a_Node000006"><a xlink:href="_text_manager_8cpp.html#a3f4afb2b62acd297e783a22ffa9a7000" target="_top" xlink:title=" ">
<polygon fill="white" stroke="#666666" points="980.5,-162 890.25,-162 890.25,-142 980.5,-142 980.5,-162"/>
<text text-anchor="middle" x="935.38" y="-148.5" font-family="Helvetica,sans-Serif" font-size="10.00">getSequencePos</text>
</a>
</g>
</g>
<!-- Node5&#45;&gt;Node6 -->
<g id="edge5_Node000005_Node000006" class="edge">
<title>Node5&#45;&gt;Node6</title>
<g id="a_edge5_Node000005_Node000006"><a xlink:title=" ">
<path fill="none" stroke="#63b8ff" d="M843.97,-152C854.69,-152 866.89,-152 878.79,-152"/>
<polygon fill="#63b8ff" stroke="#63b8ff" points="878.52,-155.5 888.52,-152 878.52,-148.5 878.52,-155.5"/>
</a>
</g>
</g>
<!-- Node7&#45;&gt;Node6 -->
<g id="edge7_Node000007_Node000006" class="edge">
<title>Node7&#45;&gt;Node6</title>
<g id="a_edge7_Node000007_Node000006"><a xlink:title=" ">
<path fill="none" stroke="#63b8ff" d="M844.95,-179.52C858.72,-175.28 874.8,-170.33 889.5,-165.81"/>
<polygon fill="#63b8ff" stroke="#63b8ff" points="890.44,-169.18 898.97,-162.9 888.38,-162.49 890.44,-169.18"/>
</a>
</g>
</g>
<!-- Node7&#45;&gt;Node7 -->
<g id="edge8_Node000007_Node000007" class="edge">
<title>Node7&#45;&gt;Node7</title>
<g id="a_edge8_Node000007_Node000007"><a xlink:title=" ">
<path fill="none" stroke="#63b8ff" d="M790.47,-200.34C782.18,-208.98 788.65,-218 809.88,-218 821.48,-218 828.68,-215.3 831.46,-211.44"/>
<polygon fill="#63b8ff" stroke="#63b8ff" points="834.93,-210.96 829.57,-201.82 828.06,-212.31 834.93,-210.96"/>
</a>
</g>
</g>
<!-- Node8&#45;&gt;Node6 -->
<g id="edge10_Node000008_Node000006" class="edge">
<title>Node8&#45;&gt;Node6</title>
<g id="a_edge10_Node000008_Node000006"><a xlink:title=" ">
<path fill="none" stroke="#63b8ff" d="M729.75,-117.34C763.36,-120.41 812.09,-125.61 854.25,-133 863.76,-134.67 873.84,-136.78 883.51,-138.98"/>
<polygon fill="#63b8ff" stroke="#63b8ff" points="882.62,-142.37 893.15,-141.25 884.22,-135.55 882.62,-142.37"/>
</a>
</g>
</g>
<!-- Node9&#45;&gt;Node3 -->
<g id="edge12_Node000009_Node000003" class="edge">
<title>Node9&#45;&gt;Node3</title>
<g id="a_edge12_Node000009_Node000003"><a xlink:title=" ">
<path fill="none" stroke="#63b8ff" d="M406.33,-146.72C429.36,-141.42 465.62,-133.07 495.76,-126.14"/>
<polygon fill="#63b8ff" stroke="#63b8ff" points="496.54,-129.55 505.5,-123.9 494.97,-122.73 496.54,-129.55"/>
</a>
</g>
</g>
<!-- Node10 -->
<g id="Node000010" class="node">
<title>Node10</title>
<g id="a_Node000010"><a xlink:href="_text_manager_8cpp.html#a84a9e24fc5cce3cebf746bb656909bf8" target="_top" xlink:title=" ">
<polygon fill="white" stroke="#666666" points="610,-162 489,-162 489,-142 610,-142 610,-162"/>
<text text-anchor="middle" x="549.5" y="-148.5" font-family="Helvetica,sans-Serif" font-size="10.00">extractBetweenReverse</text>
</a>
</g>
</g>
<!-- Node9&#45;&gt;Node10 -->
<g id="edge13_Node000009_Node000010" class="edge">
<title>Node9&#45;&gt;Node10</title>
<g id="a_edge13_Node000009_Node000010"><a xlink:title=" ">
<path fill="none" stroke="#63b8ff" d="M406.33,-152C424.86,-152 451.96,-152 477.54,-152"/>
<polygon fill="#63b8ff" stroke="#63b8ff" points="477.26,-155.5 487.26,-152 477.26,-148.5 477.26,-155.5"/>
</a>
</g>
</g>
<!-- Node10&#45;&gt;Node4 -->
<g id="edge14_Node000010_Node000004" class="edge">
<title>Node10&#45;&gt;Node4</title>
<g id="a_edge14_Node000010_Node000004"><a xlink:title=" ">
<path fill="none" stroke="#63b8ff" d="M610.26,-152C619.51,-152 628.96,-152 637.93,-152"/>
<polygon fill="#63b8ff" stroke="#63b8ff" points="637.87,-155.5 647.87,-152 637.87,-148.5 637.87,-155.5"/>
</a>
</g>
</g>
<!-- Node10&#45;&gt;Node8 -->
<g id="edge15_Node000010_Node000008" class="edge">
<title>Node10&#45;&gt;Node8</title>
<g id="a_edge15_Node000010_Node000008"><a xlink:title=" ">
<path fill="none" stroke="#63b8ff" d="M588.09,-141.52C603.58,-137.2 621.72,-132.14 638.2,-127.54"/>
<polygon fill="#63b8ff" stroke="#63b8ff" points="639.13,-130.91 647.82,-124.86 637.25,-124.17 639.13,-130.91"/>
</a>
</g>
</g>
<!-- Node11&#45;&gt;Node12 -->
<g id="edge17_Node000011_Node000012" class="edge">
<title>Node11&#45;&gt;Node12</title>
<g id="a_edge17_Node000011_Node000012"><a xlink:title=" ">
<path fill="none" stroke="#63b8ff" d="M276.1,-54.86C283.87,-55.76 291.93,-56.69 299.99,-57.61"/>
<polygon fill="#63b8ff" stroke="#63b8ff" points="299.49,-61.08 309.82,-58.75 300.29,-54.13 299.49,-61.08"/>
</a>
</g>
</g>
</g>
</svg>
