<?xml version="1.0" encoding="UTF-8" standalone="no"?>
<!DOCTYPE svg PUBLIC "-//W3C//DTD SVG 1.1//EN"
 "http://www.w3.org/Graphics/SVG/1.1/DTD/svg11.dtd">
<!-- Generated by graphviz version 12.2.0 (20241103.1931)
 -->
<!-- Title: BoolTag Pages: 1 -->
<!--zoomable 684 -->

<svg id="main" version="1.1" xmlns="http://www.w3.org/2000/svg" xmlns:xlink="http://www.w3.org/1999/xlink" xml:space="preserve" onload="init(evt)">

<style type="text/css"><![CDATA[
.node, .edge {opacity: 0.7;}
.node.selected, .edge.selected {opacity: 1;}
.edge:hover path { stroke: red; }
.edge:hover polygon { stroke: red; fill: red; }
]]></style>

<defs>
  <circle id="rim" cx="0" cy="0" r="7"/>
  <circle id="rim2" cx="0" cy="0" r="3.5"/>
  <g id="zoomPlus">
    <use xlink:href="#rim" fill="#404040"><set attributeName="fill" to="#808080" begin="zoomplus.mouseover" end="zoomplus.mouseout"/></use>
    <path d="M-4,0h8M0,-4v8" fill="none" stroke="white" stroke-width="1.5" pointer-events="none"/>
  </g>
  <g id="zoomMin">
    <use xlink:href="#rim" fill="#404040"><set attributeName="fill" to="#808080" begin="zoomminus.mouseover" end="zoomminus.mouseout"/></use>
    <path d="M-4,0h8" fill="none" stroke="white" stroke-width="1.5" pointer-events="none"/>
  </g>
  <g id="arrowUp" transform="translate(30 24)">
    <use xlink:href="#rim"/>
    <path pointer-events="none" fill="none" stroke="white" stroke-width="1.5" d="M0,-3.0v7 M-2.5,-0.5L0,-3.0L2.5,-0.5"/>
  </g>
  <g id="arrowRight" transform="rotate(90) translate(36 -43)">
    <use xlink:href="#rim"/>
    <path pointer-events="none" fill="none" stroke="white" stroke-width="1.5" d="M0,-3.0v7 M-2.5,-0.5L0,-3.0L2.5,-0.5"/>
  </g>
  <g id="arrowDown" transform="rotate(180) translate(-30 -48)">
    <use xlink:href="#rim"/>
    <path pointer-events="none" fill="none" stroke="white" stroke-width="1.5" d="M0,-3.0v7 M-2.5,-0.5L0,-3.0L2.5,-0.5"/>
  </g>
  <g id="arrowLeft" transform="rotate(270) translate(-36 17)">
    <use xlink:href="#rim"/>
    <path pointer-events="none" fill="none" stroke="white" stroke-width="1.5" d="M0,-3.0v7 M-2.5,-0.5L0,-3.0L2.5,-0.5"/>
  </g>
  <g id="resetDef">
    <use xlink:href="#rim2" fill="#404040"><set attributeName="fill" to="#808080" begin="reset.mouseover" end="reset.mouseout"/></use>
  </g>
</defs>
<script type="application/ecmascript">
var viewWidth = 623;
var viewHeight = 684;
var sectionId = 'dynsection-0';
</script>
<script type="application/ecmascript" xlink:href="svg.min.js"/>
<svg id="graph" class="graph">
<g id="viewport">
<title>BoolTag</title>
<!-- Node1 -->
<g id="Node000001" class="node">
<title>Node1</title>
<g id="a_Node000001"><a xlink:title=" ">
<polygon fill="#999999" stroke="none" points="377.75,-480 250.25,-480 250.25,-272 377.75,-272 377.75,-480"/>
<text text-anchor="start" x="296.38" y="-466.5" font-family="Helvetica,sans-Serif" font-size="10.00">BoolTag</text>
<text text-anchor="start" x="254.25" y="-450.5" font-family="Helvetica,sans-Serif" font-size="10.00">+</text>
<text text-anchor="start" x="264.25" y="-450.5" font-family="Helvetica,sans-Serif" font-size="10.00">std::shared_ptr&lt; Tag</text>
<text text-anchor="start" x="264.25" y="-438.5" font-family="Helvetica,sans-Serif" font-size="10.00"> &gt; boolTag</text>
<text text-anchor="start" x="254.25" y="-422.5" font-family="Helvetica,sans-Serif" font-size="10.00">+</text>
<text text-anchor="start" x="264.25" y="-422.5" font-family="Helvetica,sans-Serif" font-size="10.00">bool myBool</text>
<text text-anchor="start" x="254.25" y="-406.5" font-family="Helvetica,sans-Serif" font-size="10.00">+</text>
<text text-anchor="start" x="264.25" y="-406.5" font-family="Helvetica,sans-Serif" font-size="10.00">BoolTag()</text>
<text text-anchor="start" x="254.25" y="-390.5" font-family="Helvetica,sans-Serif" font-size="10.00">+</text>
<text text-anchor="start" x="264.25" y="-390.5" font-family="Helvetica,sans-Serif" font-size="10.00">BoolTag(const BoolTag</text>
<text text-anchor="start" x="264.25" y="-378.5" font-family="Helvetica,sans-Serif" font-size="10.00"> &amp;toCopy)</text>
<text text-anchor="start" x="254.25" y="-362.5" font-family="Helvetica,sans-Serif" font-size="10.00">+</text>
<text text-anchor="start" x="264.25" y="-362.5" font-family="Helvetica,sans-Serif" font-size="10.00">BoolTag(const std</text>
<text text-anchor="start" x="264.25" y="-350.5" font-family="Helvetica,sans-Serif" font-size="10.00">::shared_ptr&lt; Tag &gt;</text>
<text text-anchor="start" x="264.25" y="-338.5" font-family="Helvetica,sans-Serif" font-size="10.00"> &amp;parameter)</text>
<text text-anchor="start" x="254.25" y="-322.5" font-family="Helvetica,sans-Serif" font-size="10.00">+</text>
<text text-anchor="start" x="264.25" y="-322.5" font-family="Helvetica,sans-Serif" font-size="10.00">BoolTag(bool v)</text>
<text text-anchor="start" x="254.25" y="-306.5" font-family="Helvetica,sans-Serif" font-size="10.00">+</text>
<text text-anchor="start" x="264.25" y="-306.5" font-family="Helvetica,sans-Serif" font-size="10.00">std::shared_ptr&lt; BoolTag</text>
<text text-anchor="start" x="264.25" y="-294.5" font-family="Helvetica,sans-Serif" font-size="10.00"> &gt; clone()</text>
<text text-anchor="start" x="254.25" y="-278.5" font-family="Helvetica,sans-Serif" font-size="10.00">+</text>
<text text-anchor="start" x="264.25" y="-278.5" font-family="Helvetica,sans-Serif" font-size="10.00">void execute() override</text>
<polygon fill="#666666" stroke="#666666" points="250.25,-462 250.25,-462 377.75,-462 377.75,-462 250.25,-462"/>
<polygon fill="#666666" stroke="#666666" points="250.25,-418 250.25,-418 262.25,-418 262.25,-418 250.25,-418"/>
<polygon fill="#666666" stroke="#666666" points="262.25,-418 262.25,-418 377.75,-418 377.75,-418 262.25,-418"/>
<polygon fill="none" stroke="#666666" points="250.25,-272 250.25,-480 377.75,-480 377.75,-272 250.25,-272"/>
</a>
</g>
</g>
<!-- Node3 -->
<g id="Node000003" class="node">
<title>Node3</title>
<g id="a_Node000003"><a xlink:href="class_and_tag.html" target="_top" xlink:title=" ">
<polygon fill="white" stroke="none" points="138,-206 0,-206 0,-30 138,-30 138,-206"/>
<text text-anchor="start" x="52.5" y="-192.5" font-family="Helvetica,sans-Serif" font-size="10.00">AndTag</text>
<text text-anchor="start" x="4" y="-176.5" font-family="Helvetica,sans-Serif" font-size="10.00">+</text>
<text text-anchor="start" x="14" y="-176.5" font-family="Helvetica,sans-Serif" font-size="10.00">std::vector&lt; std::shared</text>
<text text-anchor="start" x="14" y="-164.5" font-family="Helvetica,sans-Serif" font-size="10.00">_ptr&lt; Tag &gt; &gt; listTags</text>
<text text-anchor="start" x="4" y="-148.5" font-family="Helvetica,sans-Serif" font-size="10.00">+</text>
<text text-anchor="start" x="14" y="-148.5" font-family="Helvetica,sans-Serif" font-size="10.00">AndTag()</text>
<text text-anchor="start" x="4" y="-132.5" font-family="Helvetica,sans-Serif" font-size="10.00">+</text>
<text text-anchor="start" x="14" y="-132.5" font-family="Helvetica,sans-Serif" font-size="10.00">AndTag(const AndTag</text>
<text text-anchor="start" x="14" y="-120.5" font-family="Helvetica,sans-Serif" font-size="10.00"> &amp;toCopy)</text>
<text text-anchor="start" x="4" y="-104.5" font-family="Helvetica,sans-Serif" font-size="10.00">+</text>
<text text-anchor="start" x="14" y="-104.5" font-family="Helvetica,sans-Serif" font-size="10.00">AndTag(const std::</text>
<text text-anchor="start" x="14" y="-92.5" font-family="Helvetica,sans-Serif" font-size="10.00">vector&lt; std::shared</text>
<text text-anchor="start" x="14" y="-80.5" font-family="Helvetica,sans-Serif" font-size="10.00">_ptr&lt; Tag &gt; &gt; &amp;parameters)</text>
<text text-anchor="start" x="4" y="-64.5" font-family="Helvetica,sans-Serif" font-size="10.00">+</text>
<text text-anchor="start" x="14" y="-64.5" font-family="Helvetica,sans-Serif" font-size="10.00">std::shared_ptr&lt; AndTag</text>
<text text-anchor="start" x="14" y="-52.5" font-family="Helvetica,sans-Serif" font-size="10.00"> &gt; clone()</text>
<text text-anchor="start" x="4" y="-36.5" font-family="Helvetica,sans-Serif" font-size="10.00">+</text>
<text text-anchor="start" x="14" y="-36.5" font-family="Helvetica,sans-Serif" font-size="10.00">void execute() override</text>
<polygon fill="#666666" stroke="#666666" points="0,-188 0,-188 138,-188 138,-188 0,-188"/>
<polygon fill="#666666" stroke="#666666" points="0,-160 0,-160 12,-160 12,-160 0,-160"/>
<polygon fill="#666666" stroke="#666666" points="12,-160 12,-160 138,-160 138,-160 12,-160"/>
<polygon fill="none" stroke="#666666" points="0,-30 0,-206 138,-206 138,-30 0,-30"/>
</a>
</g>
</g>
<!-- Node1&#45;&gt;Node3 -->
<g id="edge2_Node000001_Node000003" class="edge">
<title>Node1&#45;&gt;Node3</title>
<g id="a_edge2_Node000001_Node000003"><a xlink:title=" ">
<path fill="none" stroke="#63b8ff" d="M241.32,-322.03C210.42,-297.67 175.12,-267.28 147,-236 138.59,-226.65 130.41,-216.33 122.71,-205.8"/>
<polygon fill="none" stroke="#63b8ff" points="239.1,-324.73 249.13,-328.13 243.4,-319.21 239.1,-324.73"/>
</a>
</g>
</g>
<!-- Node4 -->
<g id="Node000004" class="node">
<title>Node4</title>
<g id="a_Node000004"><a xlink:href="class_compare_tag.html" target="_top" xlink:title=" ">
<polygon fill="white" stroke="none" points="303.88,-236 156.12,-236 156.12,0 303.88,0 303.88,-236"/>
<text text-anchor="start" x="190.62" y="-222.5" font-family="Helvetica,sans-Serif" font-size="10.00">CompareTag&lt; T &gt;</text>
<text text-anchor="start" x="160.12" y="-206.5" font-family="Helvetica,sans-Serif" font-size="10.00">+</text>
<text text-anchor="start" x="170.12" y="-206.5" font-family="Helvetica,sans-Serif" font-size="10.00">std::vector&lt; std::shared</text>
<text text-anchor="start" x="170.12" y="-194.5" font-family="Helvetica,sans-Serif" font-size="10.00">_ptr&lt; Tag &gt; &gt; listTags</text>
<text text-anchor="start" x="160.12" y="-178.5" font-family="Helvetica,sans-Serif" font-size="10.00">+</text>
<text text-anchor="start" x="170.12" y="-178.5" font-family="Helvetica,sans-Serif" font-size="10.00">CompareType compType</text>
<text text-anchor="start" x="160.12" y="-162.5" font-family="Helvetica,sans-Serif" font-size="10.00">+</text>
<text text-anchor="start" x="170.12" y="-162.5" font-family="Helvetica,sans-Serif" font-size="10.00">CompareTag()</text>
<text text-anchor="start" x="160.12" y="-146.5" font-family="Helvetica,sans-Serif" font-size="10.00">+</text>
<text text-anchor="start" x="170.12" y="-146.5" font-family="Helvetica,sans-Serif" font-size="10.00">CompareTag(const Compare</text>
<text text-anchor="start" x="170.12" y="-134.5" font-family="Helvetica,sans-Serif" font-size="10.00">Tag &amp;toCopy)</text>
<text text-anchor="start" x="160.12" y="-118.5" font-family="Helvetica,sans-Serif" font-size="10.00">+</text>
<text text-anchor="start" x="170.12" y="-118.5" font-family="Helvetica,sans-Serif" font-size="10.00">CompareTag(const std</text>
<text text-anchor="start" x="170.12" y="-106.5" font-family="Helvetica,sans-Serif" font-size="10.00">::vector&lt; std::shared</text>
<text text-anchor="start" x="170.12" y="-94.5" font-family="Helvetica,sans-Serif" font-size="10.00">_ptr&lt; Tag &gt; &gt; &amp;parameters,</text>
<text text-anchor="start" x="170.12" y="-82.5" font-family="Helvetica,sans-Serif" font-size="10.00"> const CompareType &amp;cType)</text>
<text text-anchor="start" x="160.12" y="-66.5" font-family="Helvetica,sans-Serif" font-size="10.00">+</text>
<text text-anchor="start" x="170.12" y="-66.5" font-family="Helvetica,sans-Serif" font-size="10.00">std::shared_ptr&lt; Compare</text>
<text text-anchor="start" x="170.12" y="-54.5" font-family="Helvetica,sans-Serif" font-size="10.00">Tag &gt; clone()</text>
<text text-anchor="start" x="160.12" y="-38.5" font-family="Helvetica,sans-Serif" font-size="10.00">+</text>
<text text-anchor="start" x="170.12" y="-38.5" font-family="Helvetica,sans-Serif" font-size="10.00">void execute() override</text>
<text text-anchor="start" x="160.12" y="-22.5" font-family="Helvetica,sans-Serif" font-size="10.00">+</text>
<text text-anchor="start" x="170.12" y="-22.5" font-family="Helvetica,sans-Serif" font-size="10.00">void execute()</text>
<text text-anchor="start" x="160.12" y="-6.5" font-family="Helvetica,sans-Serif" font-size="10.00">+</text>
<text text-anchor="start" x="170.12" y="-6.5" font-family="Helvetica,sans-Serif" font-size="10.00">void execute()</text>
<polygon fill="#666666" stroke="#666666" points="156.12,-218 156.12,-218 303.88,-218 303.88,-218 156.12,-218"/>
<polygon fill="#666666" stroke="#666666" points="156.12,-174 156.12,-174 168.12,-174 168.12,-174 156.12,-174"/>
<polygon fill="#666666" stroke="#666666" points="168.12,-174 168.12,-174 303.88,-174 303.88,-174 168.12,-174"/>
<polygon fill="none" stroke="#666666" points="156.12,0 156.12,-236 303.88,-236 303.88,0 156.12,0"/>
</a>
</g>
</g>
<!-- Node1&#45;&gt;Node4 -->
<g id="edge3_Node000001_Node000004" class="edge">
<title>Node1&#45;&gt;Node4</title>
<g id="a_edge3_Node000001_Node000004"><a xlink:title=" ">
<path fill="none" stroke="#63b8ff" d="M276.8,-261.63C274.01,-253.11 271.18,-244.51 268.38,-235.98"/>
<polygon fill="none" stroke="#63b8ff" points="273.4,-262.5 279.85,-270.91 280.05,-260.32 273.4,-262.5"/>
</a>
</g>
</g>
<!-- Node5 -->
<g id="Node000005" class="node">
<title>Node5</title>
<g id="a_Node000005"><a xlink:href="class_not_tag.html" target="_top" xlink:title=" ">
<polygon fill="white" stroke="none" points="474.5,-202 321.5,-202 321.5,-34 474.5,-34 474.5,-202"/>
<text text-anchor="start" x="382.25" y="-188.5" font-family="Helvetica,sans-Serif" font-size="10.00">NotTag</text>
<text text-anchor="start" x="396.5" y="-172.5" font-family="Helvetica,sans-Serif" font-size="10.00"> </text>
<text text-anchor="start" x="325.5" y="-156.5" font-family="Helvetica,sans-Serif" font-size="10.00">+</text>
<text text-anchor="start" x="335.5" y="-156.5" font-family="Helvetica,sans-Serif" font-size="10.00">NotTag()</text>
<text text-anchor="start" x="325.5" y="-140.5" font-family="Helvetica,sans-Serif" font-size="10.00">+</text>
<text text-anchor="start" x="335.5" y="-140.5" font-family="Helvetica,sans-Serif" font-size="10.00">NotTag(const NotTag</text>
<text text-anchor="start" x="335.5" y="-128.5" font-family="Helvetica,sans-Serif" font-size="10.00"> &amp;toCopy)</text>
<text text-anchor="start" x="325.5" y="-112.5" font-family="Helvetica,sans-Serif" font-size="10.00">+</text>
<text text-anchor="start" x="335.5" y="-112.5" font-family="Helvetica,sans-Serif" font-size="10.00">NotTag(const std::</text>
<text text-anchor="start" x="335.5" y="-100.5" font-family="Helvetica,sans-Serif" font-size="10.00">shared_ptr&lt; Tag &gt; &amp;parameter)</text>
<text text-anchor="start" x="325.5" y="-84.5" font-family="Helvetica,sans-Serif" font-size="10.00">+</text>
<text text-anchor="start" x="335.5" y="-84.5" font-family="Helvetica,sans-Serif" font-size="10.00">NotTag(bool b)</text>
<text text-anchor="start" x="325.5" y="-68.5" font-family="Helvetica,sans-Serif" font-size="10.00">+</text>
<text text-anchor="start" x="335.5" y="-68.5" font-family="Helvetica,sans-Serif" font-size="10.00">std::shared_ptr&lt; NotTag</text>
<text text-anchor="start" x="335.5" y="-56.5" font-family="Helvetica,sans-Serif" font-size="10.00"> &gt; clone()</text>
<text text-anchor="start" x="325.5" y="-40.5" font-family="Helvetica,sans-Serif" font-size="10.00">+</text>
<text text-anchor="start" x="335.5" y="-40.5" font-family="Helvetica,sans-Serif" font-size="10.00">void execute() override</text>
<polygon fill="#666666" stroke="#666666" points="321.5,-184 321.5,-184 474.5,-184 474.5,-184 321.5,-184"/>
<polygon fill="#666666" stroke="#666666" points="321.5,-168 321.5,-168 474.5,-168 474.5,-168 321.5,-168"/>
<polygon fill="none" stroke="#666666" points="321.5,-34 321.5,-202 474.5,-202 474.5,-34 321.5,-34"/>
</a>
</g>
</g>
<!-- Node1&#45;&gt;Node5 -->
<g id="edge4_Node000001_Node000005" class="edge">
<title>Node1&#45;&gt;Node5</title>
<g id="a_edge4_Node000001_Node000005"><a xlink:title=" ">
<path fill="none" stroke="#63b8ff" d="M351.23,-261.54C357.85,-241.37 364.63,-220.71 370.9,-201.61"/>
<polygon fill="none" stroke="#63b8ff" points="347.95,-260.32 348.15,-270.91 354.6,-262.5 347.95,-260.32"/>
</a>
</g>
</g>
<!-- Node6 -->
<g id="Node000006" class="node">
<title>Node6</title>
<g id="a_Node000006"><a xlink:href="class_or_tag.html" target="_top" xlink:title=" ">
<polygon fill="white" stroke="none" points="615.12,-206 492.88,-206 492.88,-30 615.12,-30 615.12,-206"/>
<text text-anchor="start" x="540.88" y="-192.5" font-family="Helvetica,sans-Serif" font-size="10.00">OrTag</text>
<text text-anchor="start" x="496.88" y="-176.5" font-family="Helvetica,sans-Serif" font-size="10.00">+</text>
<text text-anchor="start" x="506.88" y="-176.5" font-family="Helvetica,sans-Serif" font-size="10.00">std::vector&lt; std::shared</text>
<text text-anchor="start" x="506.88" y="-164.5" font-family="Helvetica,sans-Serif" font-size="10.00">_ptr&lt; Tag &gt; &gt; listTags</text>
<text text-anchor="start" x="496.88" y="-148.5" font-family="Helvetica,sans-Serif" font-size="10.00">+</text>
<text text-anchor="start" x="506.88" y="-148.5" font-family="Helvetica,sans-Serif" font-size="10.00">OrTag()</text>
<text text-anchor="start" x="496.88" y="-132.5" font-family="Helvetica,sans-Serif" font-size="10.00">+</text>
<text text-anchor="start" x="506.88" y="-132.5" font-family="Helvetica,sans-Serif" font-size="10.00">OrTag(const OrTag</text>
<text text-anchor="start" x="506.88" y="-120.5" font-family="Helvetica,sans-Serif" font-size="10.00"> &amp;toCopy)</text>
<text text-anchor="start" x="496.88" y="-104.5" font-family="Helvetica,sans-Serif" font-size="10.00">+</text>
<text text-anchor="start" x="506.88" y="-104.5" font-family="Helvetica,sans-Serif" font-size="10.00">OrTag(const std::vector</text>
<text text-anchor="start" x="506.88" y="-92.5" font-family="Helvetica,sans-Serif" font-size="10.00">&lt; std::shared_ptr&lt; Tag</text>
<text text-anchor="start" x="506.88" y="-80.5" font-family="Helvetica,sans-Serif" font-size="10.00"> &gt; &gt; &amp;parameters)</text>
<text text-anchor="start" x="496.88" y="-64.5" font-family="Helvetica,sans-Serif" font-size="10.00">+</text>
<text text-anchor="start" x="506.88" y="-64.5" font-family="Helvetica,sans-Serif" font-size="10.00">std::shared_ptr&lt; OrTag</text>
<text text-anchor="start" x="506.88" y="-52.5" font-family="Helvetica,sans-Serif" font-size="10.00"> &gt; clone()</text>
<text text-anchor="start" x="496.88" y="-36.5" font-family="Helvetica,sans-Serif" font-size="10.00">+</text>
<text text-anchor="start" x="506.88" y="-36.5" font-family="Helvetica,sans-Serif" font-size="10.00">void execute() override</text>
<polygon fill="#666666" stroke="#666666" points="492.88,-188 492.88,-188 615.12,-188 615.12,-188 492.88,-188"/>
<polygon fill="#666666" stroke="#666666" points="492.88,-160 492.88,-160 504.88,-160 504.88,-160 492.88,-160"/>
<polygon fill="#666666" stroke="#666666" points="504.88,-160 504.88,-160 615.12,-160 615.12,-160 504.88,-160"/>
<polygon fill="none" stroke="#666666" points="492.88,-30 492.88,-206 615.12,-206 615.12,-30 492.88,-30"/>
</a>
</g>
</g>
<!-- Node1&#45;&gt;Node6 -->
<g id="edge5_Node000001_Node000006" class="edge">
<title>Node1&#45;&gt;Node6</title>
<g id="a_edge5_Node000001_Node000006"><a xlink:title=" ">
<path fill="none" stroke="#63b8ff" d="M386.45,-324.67C418.61,-300.2 455.53,-268.97 484,-236 492.04,-226.68 499.71,-216.33 506.82,-205.73"/>
<polygon fill="none" stroke="#63b8ff" points="384.62,-321.67 378.73,-330.48 388.83,-327.27 384.62,-321.67"/>
</a>
</g>
</g>
<!-- Node2 -->
<g id="Node000002" class="node">
<title>Node2</title>
<g id="a_Node000002"><a xlink:href="class_tag.html" target="_top" xlink:title=" ">
<polygon fill="white" stroke="none" points="375.5,-676 252.5,-676 252.5,-516 375.5,-516 375.5,-676"/>
<text text-anchor="start" x="306.12" y="-662.5" font-family="Helvetica,sans-Serif" font-size="10.00">Tag</text>
<text text-anchor="start" x="256.5" y="-646.5" font-family="Helvetica,sans-Serif" font-size="10.00">+</text>
<text text-anchor="start" x="266.5" y="-646.5" font-family="Helvetica,sans-Serif" font-size="10.00">std::string tagText</text>
<text text-anchor="start" x="256.5" y="-630.5" font-family="Helvetica,sans-Serif" font-size="10.00">+</text>
<text text-anchor="start" x="266.5" y="-630.5" font-family="Helvetica,sans-Serif" font-size="10.00">int nbParents</text>
<text text-anchor="start" x="256.5" y="-614.5" font-family="Helvetica,sans-Serif" font-size="10.00">+</text>
<text text-anchor="start" x="266.5" y="-614.5" font-family="Helvetica,sans-Serif" font-size="10.00">bool doExecute</text>
<text text-anchor="start" x="256.5" y="-598.5" font-family="Helvetica,sans-Serif" font-size="10.00">+</text>
<text text-anchor="start" x="266.5" y="-598.5" font-family="Helvetica,sans-Serif" font-size="10.00">TagType myType</text>
<text text-anchor="start" x="256.5" y="-582.5" font-family="Helvetica,sans-Serif" font-size="10.00">+</text>
<text text-anchor="start" x="266.5" y="-582.5" font-family="Helvetica,sans-Serif" font-size="10.00">Tag()</text>
<text text-anchor="start" x="256.5" y="-566.5" font-family="Helvetica,sans-Serif" font-size="10.00">+</text>
<text text-anchor="start" x="266.5" y="-566.5" font-family="Helvetica,sans-Serif" font-size="10.00">Tag(const Tag &amp;toCopy)</text>
<text text-anchor="start" x="256.5" y="-550.5" font-family="Helvetica,sans-Serif" font-size="10.00">+</text>
<text text-anchor="start" x="266.5" y="-550.5" font-family="Helvetica,sans-Serif" font-size="10.00">std::shared_ptr&lt; Tag</text>
<text text-anchor="start" x="266.5" y="-538.5" font-family="Helvetica,sans-Serif" font-size="10.00"> &gt; clone()</text>
<text text-anchor="start" x="256.5" y="-522.5" font-family="Helvetica,sans-Serif" font-size="10.00">+</text>
<text text-anchor="start" x="266.5" y="-522.5" font-family="Helvetica,sans-Serif" font-size="10.00">virtual void execute()</text>
<polygon fill="#666666" stroke="#666666" points="252.5,-658 252.5,-658 375.5,-658 375.5,-658 252.5,-658"/>
<polygon fill="#666666" stroke="#666666" points="252.5,-594 252.5,-594 264.5,-594 264.5,-594 252.5,-594"/>
<polygon fill="#666666" stroke="#666666" points="264.5,-594 264.5,-594 375.5,-594 375.5,-594 264.5,-594"/>
<polygon fill="none" stroke="#666666" points="252.5,-516 252.5,-676 375.5,-676 375.5,-516 252.5,-516"/>
</a>
</g>
</g>
<!-- Node2&#45;&gt;Node1 -->
<g id="edge1_Node000001_Node000002" class="edge">
<title>Node2&#45;&gt;Node1</title>
<g id="a_edge1_Node000001_Node000002"><a xlink:title=" ">
<path fill="none" stroke="#63b8ff" d="M314,-504.79C314,-496.57 314,-488.2 314,-479.88"/>
<polygon fill="none" stroke="#63b8ff" points="310.5,-504.78 314,-514.78 317.5,-504.78 310.5,-504.78"/>
</a>
</g>
</g>
</g>
</svg>

<g id="navigator" transform="translate(0 0)" fill="#404254">
  <rect fill="#f2f5e9" fill-opacity="0.5" stroke="#606060" stroke-width=".5" x="0" y="0" width="60" height="60"/>
  <use id="zoomplus" xlink:href="#zoomPlus" x="17" y="9" onmousedown="handleZoom(evt,'in')"/>
  <use id="zoomminus" xlink:href="#zoomMin" x="42" y="9" onmousedown="handleZoom(evt,'out')"/>
  <use id="reset" xlink:href="#resetDef" x="30" y="36" onmousedown="handleReset()"/>
   <use id="arrowup" xlink:href="#arrowUp" x="0" y="0" onmousedown="handlePan(0,-1)"/>
  <use id="arrowright" xlink:href="#arrowRight" x="0" y="0" onmousedown="handlePan(1,0)"/>
  <use id="arrowdown" xlink:href="#arrowDown" x="0" y="0" onmousedown="handlePan(0,1)"/>
  <use id="arrowleft" xlink:href="#arrowLeft" x="0" y="0" onmousedown="handlePan(-1,0)"/>
</g>
<svg viewBox="0 0 15 15" width="100%" height="30px" preserveAspectRatio="xMaxYMin meet">
 <g id="arrow_out" transform="scale(0.3 0.3)">
  <a xlink:href="class_bool_tag__inherit__graph_org.svg" target="_base">
   <rect id="button" ry="5" rx="5" y="6" x="6" height="38" width="38"
        fill="#f2f5e9" fill-opacity="0.5" stroke="#606060" stroke-width="1.0"/>
   <path id="arrow"
     d="M 11.500037,31.436501 C 11.940474,20.09759 22.043105,11.32322 32.158766,21.979434 L 37.068811,17.246167 C 37.068811,17.246167 37.088388,32 37.088388,32 L 22.160133,31.978069 C 22.160133,31.978069 26.997745,27.140456 26.997745,27.140456 C 18.528582,18.264221 13.291696,25.230495 11.500037,31.436501 z"
     style="fill:#404040;"/>
  </a>
 </g>
</svg>

<style type='text/css'>
<![CDATA[
[data-mouse-over-selected='false'] { opacity: 0.7; }
[data-mouse-over-selected='true']  { opacity: 1.0; }
]]>
</style>
<script type="application/ecmascript"><![CDATA[
document.addEventListener('DOMContentLoaded', (event) => {
  highlightEdges();
  highlightAdjacentNodes();
});
]]></script>
</svg>
