<?xml version="1.0" encoding="UTF-8" standalone="no"?>
<!DOCTYPE svg PUBLIC "-//W3C//DTD SVG 1.1//EN"
 "http://www.w3.org/Graphics/SVG/1.1/DTD/svg11.dtd">
<!-- Generated by graphviz version 12.2.0 (20241103.1931)
 -->
<!-- Title: FlowTagPanel::getChildrenTags Pages: 1 -->
<svg width="1030pt" height="420pt"
 viewBox="0.00 0.00 1030.25 420.00" xmlns="http://www.w3.org/2000/svg" xmlns:xlink="http://www.w3.org/1999/xlink">
<g id="graph0" class="graph" transform="scale(1 1) rotate(0) translate(4 416)">
<title>FlowTagPanel::getChildrenTags</title>
<!-- Node1 -->
<g id="Node000001" class="node">
<title>Node1</title>
<g id="a_Node000001"><a xlink:title=" ">
<polygon fill="#999999" stroke="#666666" points="1022.25,-172 868.25,-172 868.25,-152 1022.25,-152 1022.25,-172"/>
<text text-anchor="middle" x="945.25" y="-158.5" font-family="Helvetica,sans-Serif" font-size="10.00">FlowTagPanel::getChildrenTags</text>
</a>
</g>
</g>
<!-- Node2 -->
<g id="Node000002" class="node">
<title>Node2</title>
<g id="a_Node000002"><a xlink:href="class_flow_tag_panel.html#a0e1305928f680ed7efb08d17d951d814" target="_top" xlink:title=" ">
<polygon fill="white" stroke="#666666" points="828.12,-355 685.38,-355 685.38,-335 828.12,-335 828.12,-355"/>
<text text-anchor="middle" x="756.75" y="-341.5" font-family="Helvetica,sans-Serif" font-size="10.00">FlowTagPanel::cloneChildren</text>
</a>
</g>
</g>
<!-- Node1&#45;&gt;Node2 -->
<g id="edge1_Node000001_Node000002" class="edge">
<title>Node1&#45;&gt;Node2</title>
<g id="a_edge1_Node000001_Node000002"><a xlink:title=" ">
<path fill="none" stroke="#63b8ff" d="M930.61,-181.42C910.87,-208.71 872.31,-259.08 832.25,-295 814.74,-310.7 791.97,-325.28 776.23,-334.59"/>
<polygon fill="#63b8ff" stroke="#63b8ff" points="933.37,-183.57 936.34,-173.4 927.68,-179.51 933.37,-183.57"/>
</a>
</g>
</g>
<!-- Node6 -->
<g id="Node000006" class="node">
<title>Node6</title>
<g id="a_Node000006"><a xlink:href="class_flow_tag_panel.html#a94ad251f2137de78a0c8b8fd75d81d7f" target="_top" xlink:title=" ">
<polygon fill="white" stroke="#666666" points="822.88,-286 690.62,-286 690.62,-266 822.88,-266 822.88,-286"/>
<text text-anchor="middle" x="756.75" y="-272.5" font-family="Helvetica,sans-Serif" font-size="10.00">FlowTagPanel::getFirstTag</text>
</a>
</g>
</g>
<!-- Node1&#45;&gt;Node6 -->
<g id="edge5_Node000001_Node000006" class="edge">
<title>Node1&#45;&gt;Node6</title>
<g id="a_edge5_Node000001_Node000006"><a xlink:title=" ">
<path fill="none" stroke="#63b8ff" d="M927.46,-180.66C907.03,-202.21 870.51,-237.25 832.25,-257 825.61,-260.43 818.31,-263.27 810.95,-265.61"/>
<polygon fill="#63b8ff" stroke="#63b8ff" points="929.92,-183.15 934.15,-173.44 924.79,-178.39 929.92,-183.15"/>
</a>
</g>
</g>
<!-- Node9 -->
<g id="Node000009" class="node">
<title>Node9</title>
<g id="a_Node000009"><a xlink:href="class_flow_tag_panel.html#ae00ff43656f4b31fa667c69d74317e59" target="_top" xlink:title=" ">
<polygon fill="white" stroke="#666666" points="822.5,-248 691,-248 691,-228 822.5,-228 822.5,-248"/>
<text text-anchor="middle" x="756.75" y="-234.5" font-family="Helvetica,sans-Serif" font-size="10.00">FlowTagPanel::getLastTag</text>
</a>
</g>
</g>
<!-- Node1&#45;&gt;Node9 -->
<g id="edge8_Node000001_Node000009" class="edge">
<title>Node1&#45;&gt;Node9</title>
<g id="a_edge8_Node000001_Node000009"><a xlink:title=" ">
<path fill="none" stroke="#63b8ff" d="M913.76,-177.4C891.49,-188.34 860.38,-202.99 832.25,-214 819.72,-218.9 805.74,-223.6 793.31,-227.53"/>
<polygon fill="#63b8ff" stroke="#63b8ff" points="915.17,-180.6 922.58,-173.03 912.07,-174.33 915.17,-180.6"/>
</a>
</g>
</g>
<!-- Node10 -->
<g id="Node000010" class="node">
<title>Node10</title>
<g id="a_Node000010"><a xlink:href="class_flow_tag_panel.html#aa8d5b418c6c046a0c53cb67a8d793308" target="_top" xlink:title=" ">
<polygon fill="white" stroke="#666666" points="643.75,-210 495.75,-210 495.75,-190 643.75,-190 643.75,-210"/>
<text text-anchor="middle" x="569.75" y="-196.5" font-family="Helvetica,sans-Serif" font-size="10.00">FlowTagPanel::isLastTagChild</text>
</a>
</g>
</g>
<!-- Node1&#45;&gt;Node10 -->
<g id="edge22_Node000001_Node000010" class="edge">
<title>Node1&#45;&gt;Node10</title>
<g id="a_edge22_Node000001_Node000010"><a xlink:title=" ">
<path fill="none" stroke="#63b8ff" d="M877.66,-174.37C862.76,-176.84 846.99,-179.22 832.25,-181 768.98,-188.65 696.71,-193.61 644.2,-196.54"/>
<polygon fill="#63b8ff" stroke="#63b8ff" points="878.09,-177.85 887.37,-172.73 876.92,-170.95 878.09,-177.85"/>
</a>
</g>
</g>
<!-- Node11 -->
<g id="Node000011" class="node">
<title>Node11</title>
<g id="a_Node000011"><a xlink:href="class_flow_tag_panel.html#a93b947ffb6b2dc6c2f359490158b7b90" target="_top" xlink:title=" ">
<polygon fill="white" stroke="#666666" points="827.38,-172 686.12,-172 686.12,-152 827.38,-152 827.38,-172"/>
<text text-anchor="middle" x="756.75" y="-158.5" font-family="Helvetica,sans-Serif" font-size="10.00">FlowTagPanel::getTagHeight</text>
</a>
</g>
</g>
<!-- Node1&#45;&gt;Node11 -->
<g id="edge11_Node000001_Node000011" class="edge">
<title>Node1&#45;&gt;Node11</title>
<g id="a_edge11_Node000001_Node000011"><a xlink:title=" ">
<path fill="none" stroke="#63b8ff" d="M856.56,-162C846.89,-162 837.14,-162 827.73,-162"/>
<polygon fill="#63b8ff" stroke="#63b8ff" points="856.34,-165.5 866.34,-162 856.34,-158.5 856.34,-165.5"/>
</a>
</g>
</g>
<!-- Node12 -->
<g id="Node000012" class="node">
<title>Node12</title>
<g id="a_Node000012"><a xlink:href="class_flow_tag_panel.html#a1822bbc91daca9379e090f363e870d40" target="_top" xlink:title=" ">
<polygon fill="white" stroke="#666666" points="825.5,-134 688,-134 688,-114 825.5,-114 825.5,-134"/>
<text text-anchor="middle" x="756.75" y="-120.5" font-family="Helvetica,sans-Serif" font-size="10.00">FlowTagPanel::hideChildren</text>
</a>
</g>
</g>
<!-- Node1&#45;&gt;Node12 -->
<g id="edge12_Node000001_Node000012" class="edge">
<title>Node1&#45;&gt;Node12</title>
<g id="a_edge12_Node000001_Node000012"><a xlink:title=" ">
<path fill="none" stroke="#63b8ff" d="M881.81,-149.28C858.17,-144.46 831.54,-139.04 809.04,-134.45"/>
<polygon fill="#63b8ff" stroke="#63b8ff" points="880.81,-152.65 891.31,-151.21 882.21,-145.79 880.81,-152.65"/>
</a>
</g>
</g>
<!-- Node20 -->
<g id="Node000020" class="node">
<title>Node20</title>
<g id="a_Node000020"><a xlink:href="class_flow_tag_panel.html#a3ed9948e56d17d5b28c2c8708a90bea2" target="_top" xlink:title=" ">
<polygon fill="white" stroke="#666666" points="816.5,-58 697,-58 697,-38 816.5,-38 816.5,-58"/>
<text text-anchor="middle" x="756.75" y="-44.5" font-family="Helvetica,sans-Serif" font-size="10.00">FlowTagPanel::isEmpty</text>
</a>
</g>
</g>
<!-- Node1&#45;&gt;Node20 -->
<g id="edge20_Node000001_Node000020" class="edge">
<title>Node1&#45;&gt;Node20</title>
<g id="a_edge20_Node000001_Node000020"><a xlink:title=" ">
<path fill="none" stroke="#63b8ff" d="M927.46,-143.34C907.03,-121.79 870.51,-86.75 832.25,-67 825.61,-63.57 818.31,-60.73 810.95,-58.39"/>
<polygon fill="#63b8ff" stroke="#63b8ff" points="924.79,-145.61 934.15,-150.56 929.92,-140.85 924.79,-145.61"/>
</a>
</g>
</g>
<!-- Node22 -->
<g id="Node000022" class="node">
<title>Node22</title>
<g id="a_Node000022"><a xlink:href="class_flow_tag_panel.html#a4c02b86a1776b70cdd14afd50de4736b" target="_top" xlink:title=" ">
<polygon fill="white" stroke="#666666" points="828.12,-96 685.38,-96 685.38,-76 828.12,-76 828.12,-96"/>
<text text-anchor="middle" x="756.75" y="-82.5" font-family="Helvetica,sans-Serif" font-size="10.00">FlowTagPanel::showChildren</text>
</a>
</g>
</g>
<!-- Node1&#45;&gt;Node22 -->
<g id="edge23_Node000001_Node000022" class="edge">
<title>Node1&#45;&gt;Node22</title>
<g id="a_edge23_Node000001_Node000022"><a xlink:title=" ">
<path fill="none" stroke="#63b8ff" d="M917.23,-146.11C895.01,-133.57 862.39,-116.35 832.25,-105 823.63,-101.75 814.25,-98.88 805.13,-96.41"/>
<polygon fill="#63b8ff" stroke="#63b8ff" points="915.22,-148.99 925.64,-150.92 918.7,-142.91 915.22,-148.99"/>
</a>
</g>
</g>
<!-- Node23 -->
<g id="Node000023" class="node">
<title>Node23</title>
<g id="a_Node000023"><a xlink:href="class_flow_tag_panel.html#a4057aa51063dc198ca7f1497ecfdf9bd" target="_top" xlink:title=" ">
<polygon fill="white" stroke="#666666" points="832.25,-20 681.25,-20 681.25,0 832.25,0 832.25,-20"/>
<text text-anchor="middle" x="756.75" y="-6.5" font-family="Helvetica,sans-Serif" font-size="10.00">FlowTagPanel::~FlowTagPanel</text>
</a>
</g>
</g>
<!-- Node1&#45;&gt;Node23 -->
<g id="edge25_Node000001_Node000023" class="edge">
<title>Node1&#45;&gt;Node23</title>
<g id="a_edge25_Node000001_Node000023"><a xlink:title=" ">
<path fill="none" stroke="#63b8ff" d="M933.16,-142.25C915.64,-112.91 878.71,-58.15 832.25,-29 826.71,-25.52 820.56,-22.68 814.24,-20.36"/>
<polygon fill="#63b8ff" stroke="#63b8ff" points="929.91,-143.62 937.96,-150.51 935.96,-140.1 929.91,-143.62"/>
</a>
</g>
</g>
<!-- Node3 -->
<g id="Node000003" class="node">
<title>Node3</title>
<g id="a_Node000003"><a xlink:href="class_flow_tag_panel.html#ad022a384de848b36e615014a9f727755" target="_top" xlink:title=" ">
<polygon fill="white" stroke="#666666" points="642.25,-412 497.25,-412 497.25,-392 642.25,-392 642.25,-412"/>
<text text-anchor="middle" x="569.75" y="-398.5" font-family="Helvetica,sans-Serif" font-size="10.00">FlowTagPanel::FlowTagPanel</text>
</a>
</g>
</g>
<!-- Node2&#45;&gt;Node3 -->
<g id="edge2_Node000002_Node000003" class="edge">
<title>Node2&#45;&gt;Node3</title>
<g id="a_edge2_Node000002_Node000003"><a xlink:title=" ">
<path fill="none" stroke="#63b8ff" d="M716.58,-359.34C695.56,-366.82 669.14,-375.86 645.25,-383 635.27,-385.98 624.46,-388.91 614.25,-391.54"/>
<polygon fill="#63b8ff" stroke="#63b8ff" points="717.68,-362.66 725.91,-356 715.32,-356.08 717.68,-362.66"/>
</a>
</g>
</g>
<!-- Node4 -->
<g id="Node000004" class="node">
<title>Node4</title>
<g id="a_Node000004"><a xlink:href="class_if_tag_panel.html#ae771ebf0ecffe9a2bf16f02999ef469e" target="_top" xlink:title=" ">
<polygon fill="white" stroke="#666666" points="627.25,-374 512.25,-374 512.25,-354 627.25,-354 627.25,-374"/>
<text text-anchor="middle" x="569.75" y="-360.5" font-family="Helvetica,sans-Serif" font-size="10.00">IfTagPanel::IfTagPanel</text>
</a>
</g>
</g>
<!-- Node2&#45;&gt;Node4 -->
<g id="edge3_Node000002_Node000004" class="edge">
<title>Node2&#45;&gt;Node4</title>
<g id="a_edge3_Node000002_Node000004"><a xlink:title=" ">
<path fill="none" stroke="#63b8ff" d="M673.78,-353.42C658.21,-355.02 642.24,-356.66 627.66,-358.16"/>
<polygon fill="#63b8ff" stroke="#63b8ff" points="673.92,-356.92 683.51,-352.42 673.21,-349.96 673.92,-356.92"/>
</a>
</g>
</g>
<!-- Node5 -->
<g id="Node000005" class="node">
<title>Node5</title>
<g id="a_Node000005"><a xlink:href="class_loop_tag_panel.html#a16b4c63d3e9be7b20a4ef02091f0a993" target="_top" xlink:title=" ">
<polygon fill="white" stroke="#666666" points="642.25,-336 497.25,-336 497.25,-316 642.25,-316 642.25,-336"/>
<text text-anchor="middle" x="569.75" y="-322.5" font-family="Helvetica,sans-Serif" font-size="10.00">LoopTagPanel::LoopTagPanel</text>
</a>
</g>
</g>
<!-- Node2&#45;&gt;Node5 -->
<g id="edge4_Node000002_Node000005" class="edge">
<title>Node2&#45;&gt;Node5</title>
<g id="a_edge4_Node000002_Node000005"><a xlink:title=" ">
<path fill="none" stroke="#63b8ff" d="M673.84,-336.59C663.45,-335.52 652.88,-334.44 642.67,-333.39"/>
<polygon fill="#63b8ff" stroke="#63b8ff" points="673.21,-340.04 683.51,-337.58 673.92,-333.08 673.21,-340.04"/>
</a>
</g>
</g>
<!-- Node7 -->
<g id="Node000007" class="node">
<title>Node7</title>
<g id="a_Node000007"><a xlink:href="class_flow_tag_panel.html#abef0b2e00620e86ebbe17b017aab8e99" target="_top" xlink:title=" ">
<polygon fill="white" stroke="#666666" points="632.88,-298 506.62,-298 506.62,-266 632.88,-266 632.88,-298"/>
<text text-anchor="start" x="514.62" y="-284.5" font-family="Helvetica,sans-Serif" font-size="10.00">FlowTagPanel::isFirstTag</text>
<text text-anchor="middle" x="569.75" y="-272.5" font-family="Helvetica,sans-Serif" font-size="10.00">Child</text>
</a>
</g>
</g>
<!-- Node6&#45;&gt;Node7 -->
<g id="edge6_Node000006_Node000007" class="edge">
<title>Node6&#45;&gt;Node7</title>
<g id="a_edge6_Node000006_Node000007"><a xlink:title=" ">
<path fill="none" stroke="#63b8ff" d="M678.82,-278.49C663.68,-278.99 647.96,-279.5 633.35,-279.97"/>
<polygon fill="#63b8ff" stroke="#63b8ff" points="678.87,-282 688.75,-278.17 678.64,-275 678.87,-282"/>
</a>
</g>
</g>
<!-- Node8 -->
<g id="Node000008" class="node">
<title>Node8</title>
<g id="a_Node000008"><a xlink:href="class_my_frame.html#a4c12737bfb50074cf73aa048290f22d3" target="_top" xlink:title=" ">
<polygon fill="white" stroke="#666666" points="645.25,-248 494.25,-248 494.25,-228 645.25,-228 645.25,-248"/>
<text text-anchor="middle" x="569.75" y="-234.5" font-family="Helvetica,sans-Serif" font-size="10.00">MyFrame::setNeighboursPanel</text>
</a>
</g>
</g>
<!-- Node6&#45;&gt;Node8 -->
<g id="edge7_Node000006_Node000008" class="edge">
<title>Node6&#45;&gt;Node8</title>
<g id="a_edge7_Node000006_Node000008"><a xlink:title=" ">
<path fill="none" stroke="#63b8ff" d="M693.5,-263.21C670.12,-258.41 643.85,-253.01 621.63,-248.45"/>
<polygon fill="#63b8ff" stroke="#63b8ff" points="692.73,-266.63 703.23,-265.21 694.13,-259.77 692.73,-266.63"/>
</a>
</g>
</g>
<!-- Node9&#45;&gt;Node8 -->
<g id="edge10_Node000009_Node000008" class="edge">
<title>Node9&#45;&gt;Node8</title>
<g id="a_edge10_Node000009_Node000008"><a xlink:title=" ">
<path fill="none" stroke="#63b8ff" d="M679.09,-238C667.98,-238 656.56,-238 645.49,-238"/>
<polygon fill="#63b8ff" stroke="#63b8ff" points="679.01,-241.5 689.01,-238 679.01,-234.5 679.01,-241.5"/>
</a>
</g>
</g>
<!-- Node9&#45;&gt;Node10 -->
<g id="edge9_Node000009_Node000010" class="edge">
<title>Node9&#45;&gt;Node10</title>
<g id="a_edge9_Node000009_Node000010"><a xlink:title=" ">
<path fill="none" stroke="#63b8ff" d="M693.5,-225.21C670.12,-220.41 643.85,-215.01 621.63,-210.45"/>
<polygon fill="#63b8ff" stroke="#63b8ff" points="692.73,-228.63 703.23,-227.21 694.13,-221.77 692.73,-228.63"/>
</a>
</g>
</g>
<!-- Node13 -->
<g id="Node000013" class="node">
<title>Node13</title>
<g id="a_Node000013"><a xlink:href="class_flow_tag_panel.html#ae4f118933196a60a71cfa6b4b9b69894" target="_top" xlink:title=" ">
<polygon fill="white" stroke="#666666" points="636.25,-124 503.25,-124 503.25,-92 636.25,-92 636.25,-124"/>
<text text-anchor="start" x="511.25" y="-110.5" font-family="Helvetica,sans-Serif" font-size="10.00">FlowTagPanel::setChildren</text>
<text text-anchor="middle" x="569.75" y="-98.5" font-family="Helvetica,sans-Serif" font-size="10.00">Visibility</text>
</a>
</g>
</g>
<!-- Node12&#45;&gt;Node13 -->
<g id="edge13_Node000012_Node000013" class="edge">
<title>Node12&#45;&gt;Node13</title>
<g id="a_edge13_Node000012_Node000013"><a xlink:title=" ">
<path fill="none" stroke="#63b8ff" d="M676.56,-117.15C663.22,-116 649.5,-114.81 636.55,-113.69"/>
<polygon fill="#63b8ff" stroke="#63b8ff" points="675.88,-120.61 686.14,-117.98 676.48,-113.63 675.88,-120.61"/>
</a>
</g>
</g>
<!-- Node14 -->
<g id="Node000014" class="node">
<title>Node14</title>
<g id="a_Node000014"><a xlink:href="class_flow_tag_panel.html#abf730289f88b08402ed5d924d362814c" target="_top" xlink:title=" ">
<polygon fill="white" stroke="#666666" points="458.25,-124 325.25,-124 325.25,-92 458.25,-92 458.25,-124"/>
<text text-anchor="start" x="333.25" y="-110.5" font-family="Helvetica,sans-Serif" font-size="10.00">FlowTagPanel::switchFlow</text>
<text text-anchor="middle" x="391.75" y="-98.5" font-family="Helvetica,sans-Serif" font-size="10.00">TagVisibility</text>
</a>
</g>
</g>
<!-- Node13&#45;&gt;Node14 -->
<g id="edge14_Node000013_Node000014" class="edge">
<title>Node13&#45;&gt;Node14</title>
<g id="a_edge14_Node000013_Node000014"><a xlink:title=" ">
<path fill="none" stroke="#63b8ff" d="M491.65,-108C480.68,-108 469.48,-108 458.75,-108"/>
<polygon fill="#63b8ff" stroke="#63b8ff" points="491.45,-111.5 501.45,-108 491.45,-104.5 491.45,-111.5"/>
</a>
</g>
</g>
<!-- Node15 -->
<g id="Node000015" class="node">
<title>Node15</title>
<g id="a_Node000015"><a xlink:href="class_flow_tag_panel.html#a94ca55612cbf5a6300712ffaee243c9b" target="_top" xlink:title=" ">
<polygon fill="white" stroke="#666666" points="289.25,-118 166.75,-118 166.75,-98 289.25,-98 289.25,-118"/>
<text text-anchor="middle" x="228" y="-104.5" font-family="Helvetica,sans-Serif" font-size="10.00">FlowTagPanel::addHider</text>
</a>
</g>
</g>
<!-- Node14&#45;&gt;Node15 -->
<g id="edge15_Node000014_Node000015" class="edge">
<title>Node14&#45;&gt;Node15</title>
<g id="a_edge15_Node000014_Node000015"><a xlink:title=" ">
<path fill="none" stroke="#63b8ff" d="M313.6,-108C305.51,-108 297.38,-108 289.52,-108"/>
<polygon fill="#63b8ff" stroke="#63b8ff" points="313.45,-111.5 323.45,-108 313.45,-104.5 313.45,-111.5"/>
</a>
</g>
</g>
<!-- Node16 -->
<g id="Node000016" class="node">
<title>Node16</title>
<g id="a_Node000016"><a xlink:href="class_flow_tag_panel.html#a6a2ba7ef0cfdae4b333371b8704a0612" target="_top" xlink:title=" ">
<polygon fill="white" stroke="#666666" points="130.75,-175 0,-175 0,-155 130.75,-155 130.75,-175"/>
<text text-anchor="middle" x="65.38" y="-161.5" font-family="Helvetica,sans-Serif" font-size="10.00">FlowTagPanel::setTagLine</text>
</a>
</g>
</g>
<!-- Node15&#45;&gt;Node16 -->
<g id="edge16_Node000015_Node000016" class="edge">
<title>Node15&#45;&gt;Node16</title>
<g id="a_edge16_Node000015_Node000016"><a xlink:title=" ">
<path fill="none" stroke="#63b8ff" d="M191.66,-122.82C173.59,-130.18 151.15,-138.98 130.75,-146 122.16,-148.96 112.82,-151.88 104,-154.51"/>
<polygon fill="#63b8ff" stroke="#63b8ff" points="192.98,-126.07 200.9,-119.03 190.32,-119.59 192.98,-126.07"/>
</a>
</g>
</g>
<!-- Node17 -->
<g id="Node000017" class="node">
<title>Node17</title>
<g id="a_Node000017"><a xlink:href="class_if_tag_panel.html#a0eecad5e847dada1e8dfbceb5e1e6121" target="_top" xlink:title=" ">
<polygon fill="white" stroke="#666666" points="123.25,-137 7.5,-137 7.5,-117 123.25,-117 123.25,-137"/>
<text text-anchor="middle" x="65.38" y="-123.5" font-family="Helvetica,sans-Serif" font-size="10.00">IfTagPanel::setTagLine</text>
</a>
</g>
</g>
<!-- Node15&#45;&gt;Node17 -->
<g id="edge17_Node000015_Node000017" class="edge">
<title>Node15&#45;&gt;Node17</title>
<g id="a_edge17_Node000015_Node000017"><a xlink:title=" ">
<path fill="none" stroke="#63b8ff" d="M155.02,-116.51C144.54,-117.75 133.87,-119.02 123.74,-120.21"/>
<polygon fill="#63b8ff" stroke="#63b8ff" points="155.25,-120.01 164.77,-115.36 154.43,-113.06 155.25,-120.01"/>
</a>
</g>
</g>
<!-- Node18 -->
<g id="Node000018" class="node">
<title>Node18</title>
<g id="a_Node000018"><a xlink:href="class_loop_tag_panel.html#a199ec8f84860272037a7d2a25051a0a3" target="_top" xlink:title=" ">
<polygon fill="white" stroke="#666666" points="130.75,-99 0,-99 0,-79 130.75,-79 130.75,-99"/>
<text text-anchor="middle" x="65.38" y="-85.5" font-family="Helvetica,sans-Serif" font-size="10.00">LoopTagPanel::setTagLine</text>
</a>
</g>
</g>
<!-- Node15&#45;&gt;Node18 -->
<g id="edge18_Node000015_Node000018" class="edge">
<title>Node15&#45;&gt;Node18</title>
<g id="a_edge18_Node000015_Node000018"><a xlink:title=" ">
<path fill="none" stroke="#63b8ff" d="M154.85,-99.47C146.97,-98.53 138.99,-97.59 131.21,-96.67"/>
<polygon fill="#63b8ff" stroke="#63b8ff" points="154.43,-102.94 164.77,-100.64 155.25,-95.99 154.43,-102.94"/>
</a>
</g>
</g>
<!-- Node19 -->
<g id="Node000019" class="node">
<title>Node19</title>
<g id="a_Node000019"><a xlink:href="class_main_tag_panel.html#ae0748c8b3939b1533b7ae12a9316ca78" target="_top" xlink:title=" ">
<polygon fill="white" stroke="#666666" points="130.75,-61 0,-61 0,-41 130.75,-41 130.75,-61"/>
<text text-anchor="middle" x="65.38" y="-47.5" font-family="Helvetica,sans-Serif" font-size="10.00">MainTagPanel::setTagLine</text>
</a>
</g>
</g>
<!-- Node15&#45;&gt;Node19 -->
<g id="edge19_Node000015_Node000019" class="edge">
<title>Node15&#45;&gt;Node19</title>
<g id="a_edge19_Node000015_Node000019"><a xlink:title=" ">
<path fill="none" stroke="#63b8ff" d="M191.66,-93.18C173.59,-85.82 151.15,-77.02 130.75,-70 122.16,-67.04 112.82,-64.12 104,-61.49"/>
<polygon fill="#63b8ff" stroke="#63b8ff" points="190.32,-96.41 200.9,-96.97 192.98,-89.93 190.32,-96.41"/>
</a>
</g>
</g>
<!-- Node21 -->
<g id="Node000021" class="node">
<title>Node21</title>
<g id="a_Node000021"><a xlink:href="class_flow_tag_panel.html#a38bade8b3e467e730e739bce386b5ea0" target="_top" xlink:title=" ">
<polygon fill="white" stroke="#666666" points="634.75,-58 504.75,-58 504.75,-38 634.75,-38 634.75,-58"/>
<text text-anchor="middle" x="569.75" y="-44.5" font-family="Helvetica,sans-Serif" font-size="10.00">FlowTagPanel::insertChild</text>
</a>
</g>
</g>
<!-- Node20&#45;&gt;Node21 -->
<g id="edge21_Node000020_Node000021" class="edge">
<title>Node20&#45;&gt;Node21</title>
<g id="a_edge21_Node000020_Node000021"><a xlink:title=" ">
<path fill="none" stroke="#63b8ff" d="M685.42,-48C668.86,-48 651.28,-48 634.99,-48"/>
<polygon fill="#63b8ff" stroke="#63b8ff" points="685.19,-51.5 695.19,-48 685.19,-44.5 685.19,-51.5"/>
</a>
</g>
</g>
<!-- Node22&#45;&gt;Node13 -->
<g id="edge24_Node000022_Node000013" class="edge">
<title>Node22&#45;&gt;Node13</title>
<g id="a_edge24_Node000022_Node000013"><a xlink:title=" ">
<path fill="none" stroke="#63b8ff" d="M673.7,-95.76C661.28,-97.23 648.6,-98.74 636.58,-100.17"/>
<polygon fill="#63b8ff" stroke="#63b8ff" points="674,-99.25 683.51,-94.59 673.17,-92.3 674,-99.25"/>
</a>
</g>
</g>
</g>
</svg>
