<?xml version="1.0" encoding="UTF-8" standalone="no"?>
<!DOCTYPE svg PUBLIC "-//W3C//DTD SVG 1.1//EN"
 "http://www.w3.org/Graphics/SVG/1.1/DTD/svg11.dtd">
<!-- Generated by graphviz version 12.2.0 (20241103.1931)
 -->
<!-- Title: Interactions::fcCompareA Pages: 1 -->
<svg width="1240pt" height="405pt"
 viewBox="0.00 0.00 1239.50 405.00" xmlns="http://www.w3.org/2000/svg" xmlns:xlink="http://www.w3.org/1999/xlink">
<g id="graph0" class="graph" transform="scale(1 1) rotate(0) translate(4 401)">
<title>Interactions::fcCompareA</title>
<!-- Node1 -->
<g id="Node000001" class="node">
<title>Node1</title>
<g id="a_Node000001"><a xlink:title=" ">
<polygon fill="#999999" stroke="#666666" points="127.75,-96 0,-96 0,-76 127.75,-76 127.75,-96"/>
<text text-anchor="middle" x="63.88" y="-82.5" font-family="Helvetica,sans-Serif" font-size="10.00">Interactions::fcCompareA</text>
</a>
</g>
</g>
<!-- Node2 -->
<g id="Node000002" class="node">
<title>Node2</title>
<g id="a_Node000002"><a xlink:href="class_interactions.html#ad24b4992a69c681dc645d213527d2a07" target="_top" xlink:title=" ">
<polygon fill="white" stroke="#666666" points="286.25,-96 163.75,-96 163.75,-76 286.25,-76 286.25,-96"/>
<text text-anchor="middle" x="225" y="-82.5" font-family="Helvetica,sans-Serif" font-size="10.00">Interactions::fCompareA</text>
</a>
</g>
</g>
<!-- Node1&#45;&gt;Node2 -->
<g id="edge1_Node000001_Node000002" class="edge">
<title>Node1&#45;&gt;Node2</title>
<g id="a_edge1_Node000001_Node000002"><a xlink:title=" ">
<path fill="none" stroke="#63b8ff" d="M128.22,-86C136.03,-86 144.05,-86 151.97,-86"/>
<polygon fill="#63b8ff" stroke="#63b8ff" points="151.95,-89.5 161.95,-86 151.95,-82.5 151.95,-89.5"/>
</a>
</g>
</g>
<!-- Node3 -->
<g id="Node000003" class="node">
<title>Node3</title>
<g id="a_Node000003"><a xlink:href="fopencv_8cpp.html#a248b5cdc64398082a700818b8e29ff59" target="_top" xlink:title=" ">
<polygon fill="white" stroke="#666666" points="613.38,-256 493.12,-256 493.12,-236 613.38,-236 613.38,-256"/>
<text text-anchor="middle" x="553.25" y="-242.5" font-family="Helvetica,sans-Serif" font-size="10.00">cvmtfCompareTemplate</text>
</a>
</g>
</g>
<!-- Node2&#45;&gt;Node3 -->
<g id="edge2_Node000002_Node000003" class="edge">
<title>Node2&#45;&gt;Node3</title>
<g id="a_edge2_Node000002_Node000003"><a xlink:title=" ">
<path fill="none" stroke="#63b8ff" d="M239.13,-96.35C257.14,-110.23 290.86,-135.08 322.25,-152 385.17,-185.93 463.01,-215.32 510.08,-231.83"/>
<polygon fill="#63b8ff" stroke="#63b8ff" points="508.76,-235.08 519.36,-235.05 511.06,-228.47 508.76,-235.08"/>
</a>
</g>
</g>
<!-- Node13 -->
<g id="Node000013" class="node">
<title>Node13</title>
<g id="a_Node000013"><a xlink:href="class_interactions.html#a5b5af2b125ff152043789cfcf70ffb2b" target="_top" xlink:title=" ">
<polygon fill="white" stroke="#666666" points="448.5,-58 322.25,-58 322.25,-38 448.5,-38 448.5,-58"/>
<text text-anchor="middle" x="385.38" y="-44.5" font-family="Helvetica,sans-Serif" font-size="10.00">Interactions::getTemplate</text>
</a>
</g>
</g>
<!-- Node2&#45;&gt;Node13 -->
<g id="edge17_Node000002_Node000013" class="edge">
<title>Node2&#45;&gt;Node13</title>
<g id="a_edge17_Node000002_Node000013"><a xlink:title=" ">
<path fill="none" stroke="#63b8ff" d="M269.7,-75.52C288.3,-71.05 310.21,-65.79 329.86,-61.08"/>
<polygon fill="#63b8ff" stroke="#63b8ff" points="330.44,-64.54 339.35,-58.8 328.81,-57.73 330.44,-64.54"/>
</a>
</g>
</g>
<!-- Node15 -->
<g id="Node000015" class="node">
<title>Node15</title>
<g id="a_Node000015"><a xlink:href="class_interactions.html#a0a0ffd9ad1990de31fd7b2773db32667" target="_top" xlink:title=" ">
<polygon fill="white" stroke="#666666" points="445.88,-143 324.88,-143 324.88,-123 445.88,-123 445.88,-143"/>
<text text-anchor="middle" x="385.38" y="-129.5" font-family="Helvetica,sans-Serif" font-size="10.00">Interactions::loopPopUp</text>
</a>
</g>
</g>
<!-- Node2&#45;&gt;Node15 -->
<g id="edge19_Node000002_Node000015" class="edge">
<title>Node2&#45;&gt;Node15</title>
<g id="a_edge19_Node000002_Node000015"><a xlink:title=" ">
<path fill="none" stroke="#63b8ff" d="M261.15,-96.43C283.83,-103.16 313.58,-111.99 338.16,-119.29"/>
<polygon fill="#63b8ff" stroke="#63b8ff" points="337.02,-122.6 347.6,-122.09 339.01,-115.89 337.02,-122.6"/>
</a>
</g>
</g>
<!-- Node27 -->
<g id="Node000027" class="node">
<title>Node27</title>
<g id="a_Node000027"><a xlink:href="class_interactions.html#ade7f52c59105f434650b9358b22e5488" target="_top" xlink:title=" ">
<polygon fill="white" stroke="#666666" points="445.88,-20 324.88,-20 324.88,0 445.88,0 445.88,-20"/>
<text text-anchor="middle" x="385.38" y="-6.5" font-family="Helvetica,sans-Serif" font-size="10.00">Interactions::resetCount</text>
</a>
</g>
</g>
<!-- Node2&#45;&gt;Node27 -->
<g id="edge33_Node000002_Node000027" class="edge">
<title>Node2&#45;&gt;Node27</title>
<g id="a_edge33_Node000002_Node000027"><a xlink:title=" ">
<path fill="none" stroke="#63b8ff" d="M241.06,-75.54C259.51,-63.09 292.05,-42.33 322.25,-29 326.09,-27.31 330.12,-25.7 334.21,-24.2"/>
<polygon fill="#63b8ff" stroke="#63b8ff" points="335.33,-27.52 343.65,-20.96 333.06,-20.9 335.33,-27.52"/>
</a>
</g>
</g>
<!-- Node28 -->
<g id="Node000028" class="node">
<title>Node28</title>
<g id="a_Node000028"><a xlink:href="class_interactions.html#ad7daddd9df3cea80e69872b8afd6c8dc" target="_top" xlink:title=" ">
<polygon fill="white" stroke="#666666" points="622,-86 484.5,-86 484.5,-66 622,-66 622,-86"/>
<text text-anchor="middle" x="553.25" y="-72.5" font-family="Helvetica,sans-Serif" font-size="10.00">Interactions::templateFound</text>
</a>
</g>
</g>
<!-- Node2&#45;&gt;Node28 -->
<g id="edge34_Node000002_Node000028" class="edge">
<title>Node2&#45;&gt;Node28</title>
<g id="a_edge34_Node000002_Node000028"><a xlink:title=" ">
<path fill="none" stroke="#63b8ff" d="M286.6,-84.14C339.12,-82.53 415.48,-80.19 472.87,-78.43"/>
<polygon fill="#63b8ff" stroke="#63b8ff" points="472.68,-81.94 482.57,-78.14 472.47,-74.94 472.68,-81.94"/>
</a>
</g>
</g>
<!-- Node4 -->
<g id="Node000004" class="node">
<title>Node4</title>
<g id="a_Node000004"><a xlink:href="fopencv_8cpp.html#a95c56af5716e2b2d1b4df612796cc229" target="_top" xlink:title=" ">
<polygon fill="white" stroke="#666666" points="772.25,-313 658,-313 658,-293 772.25,-293 772.25,-313"/>
<text text-anchor="middle" x="715.12" y="-299.5" font-family="Helvetica,sans-Serif" font-size="10.00">cvmtfMultipleTemplate</text>
</a>
</g>
</g>
<!-- Node3&#45;&gt;Node4 -->
<g id="edge3_Node000003_Node000004" class="edge">
<title>Node3&#45;&gt;Node4</title>
<g id="a_edge3_Node000003_Node000004"><a xlink:title=" ">
<path fill="none" stroke="#63b8ff" d="M583.57,-256.45C608.96,-265.51 645.92,-278.68 674.03,-288.71"/>
<polygon fill="#63b8ff" stroke="#63b8ff" points="672.7,-291.95 683.29,-292.01 675.05,-285.35 672.7,-291.95"/>
</a>
</g>
</g>
<!-- Node9 -->
<g id="Node000009" class="node">
<title>Node9</title>
<g id="a_Node000009"><a xlink:href="fopencv_8cpp.html#a6abdcaeee06b3da6f210daf0162bcd01" target="_top" xlink:title=" ">
<polygon fill="white" stroke="#666666" points="1026.62,-379 967.88,-379 967.88,-359 1026.62,-359 1026.62,-379"/>
<text text-anchor="middle" x="997.25" y="-365.5" font-family="Helvetica,sans-Serif" font-size="10.00">intersects</text>
</a>
</g>
</g>
<!-- Node3&#45;&gt;Node9 -->
<g id="edge15_Node000003_Node000009" class="edge">
<title>Node3&#45;&gt;Node9</title>
<g id="a_edge15_Node000003_Node000009"><a xlink:title=" ">
<path fill="none" stroke="#63b8ff" d="M565.55,-256.26C583.78,-272.32 621.33,-303.48 658,-322 720.45,-353.54 739.08,-358.43 808.25,-369 858.83,-376.73 917.97,-374.99 956.22,-372.48"/>
<polygon fill="#63b8ff" stroke="#63b8ff" points="956.14,-376 965.87,-371.8 955.65,-369.01 956.14,-376"/>
</a>
</g>
</g>
<!-- Node10 -->
<g id="Node000010" class="node">
<title>Node10</title>
<g id="a_Node000010"><a xlink:href="fopencv_8cpp.html#a69713584f69a121e4ed91918a64448a0" target="_top" xlink:title=" ">
<polygon fill="white" stroke="#666666" points="755.38,-256 674.88,-256 674.88,-236 755.38,-236 755.38,-256"/>
<text text-anchor="middle" x="715.12" y="-242.5" font-family="Helvetica,sans-Serif" font-size="10.00">cvmtfTemplate</text>
</a>
</g>
</g>
<!-- Node3&#45;&gt;Node10 -->
<g id="edge10_Node000003_Node000010" class="edge">
<title>Node3&#45;&gt;Node10</title>
<g id="a_edge10_Node000003_Node000010"><a xlink:title=" ">
<path fill="none" stroke="#63b8ff" d="M613.78,-246C630.07,-246 647.57,-246 663.32,-246"/>
<polygon fill="#63b8ff" stroke="#63b8ff" points="662.92,-249.5 672.92,-246 662.92,-242.5 662.92,-249.5"/>
</a>
</g>
</g>
<!-- Node11 -->
<g id="Node000011" class="node">
<title>Node11</title>
<g id="a_Node000011"><a xlink:href="fopencv_8cpp.html#a1ed1ff1a9df2ab889e1423cb11a58c06" target="_top" xlink:title=" ">
<polygon fill="white" stroke="#666666" points="907.88,-208 825.12,-208 825.12,-188 907.88,-188 907.88,-208"/>
<text text-anchor="middle" x="866.5" y="-194.5" font-family="Helvetica,sans-Serif" font-size="10.00">messageFound</text>
</a>
</g>
</g>
<!-- Node3&#45;&gt;Node11 -->
<g id="edge16_Node000003_Node000011" class="edge">
<title>Node3&#45;&gt;Node11</title>
<g id="a_edge16_Node000003_Node000011"><a xlink:title=" ">
<path fill="none" stroke="#63b8ff" d="M609.1,-235.51C624.86,-232.61 642.09,-229.57 658,-227 710.85,-218.47 771.51,-210.17 813.53,-204.64"/>
<polygon fill="#63b8ff" stroke="#63b8ff" points="813.91,-208.12 823.37,-203.36 813,-201.18 813.91,-208.12"/>
</a>
</g>
</g>
<!-- Node5 -->
<g id="Node000005" class="node">
<title>Node5</title>
<g id="a_Node000005"><a xlink:href="fopencv_8cpp.html#af6fc77188d314c0d5a58888452f9b313" target="_top" xlink:title=" ">
<polygon fill="white" stroke="#666666" points="900.38,-284 832.62,-284 832.62,-264 900.38,-264 900.38,-284"/>
<text text-anchor="middle" x="866.5" y="-270.5" font-family="Helvetica,sans-Serif" font-size="10.00">extractZone</text>
</a>
</g>
</g>
<!-- Node4&#45;&gt;Node5 -->
<g id="edge4_Node000004_Node000005" class="edge">
<title>Node4&#45;&gt;Node5</title>
<g id="a_edge4_Node000004_Node000005"><a xlink:title=" ">
<path fill="none" stroke="#63b8ff" d="M770.05,-292.53C786.86,-289.27 805.2,-285.71 821.27,-282.59"/>
<polygon fill="#63b8ff" stroke="#63b8ff" points="821.88,-286.03 831.03,-280.69 820.54,-279.16 821.88,-286.03"/>
</a>
</g>
</g>
<!-- Node6 -->
<g id="Node000006" class="node">
<title>Node6</title>
<g id="a_Node000006"><a xlink:href="struct_zone.html#a5301e7fcf185a5a79c1bf7d7930f4b8a" target="_top" xlink:title=" ">
<polygon fill="white" stroke="#666666" points="900.75,-322 832.25,-322 832.25,-302 900.75,-302 900.75,-322"/>
<text text-anchor="middle" x="866.5" y="-308.5" font-family="Helvetica,sans-Serif" font-size="10.00">Zone::isNull</text>
</a>
</g>
</g>
<!-- Node4&#45;&gt;Node6 -->
<g id="edge5_Node000004_Node000006" class="edge">
<title>Node4&#45;&gt;Node6</title>
<g id="a_edge5_Node000004_Node000006"><a xlink:title=" ">
<path fill="none" stroke="#63b8ff" d="M772.6,-306.4C788.53,-307.36 805.64,-308.39 820.78,-309.31"/>
<polygon fill="#63b8ff" stroke="#63b8ff" points="820.22,-312.78 830.41,-309.89 820.64,-305.79 820.22,-312.78"/>
</a>
</g>
</g>
<!-- Node8 -->
<g id="Node000008" class="node">
<title>Node8</title>
<g id="a_Node000008"><a xlink:href="fopencv_8cpp.html#a7521a083566181475d36ee14aad60f1d" target="_top" xlink:title=" ">
<polygon fill="white" stroke="#666666" points="924.75,-360 808.25,-360 808.25,-340 924.75,-340 924.75,-360"/>
<text text-anchor="middle" x="866.5" y="-346.5" font-family="Helvetica,sans-Serif" font-size="10.00">multipleMatchTemplate</text>
</a>
</g>
</g>
<!-- Node4&#45;&gt;Node8 -->
<g id="edge7_Node000004_Node000008" class="edge">
<title>Node4&#45;&gt;Node8</title>
<g id="a_edge7_Node000004_Node000008"><a xlink:title=" ">
<path fill="none" stroke="#63b8ff" d="M749.28,-313.43C770.48,-320.1 798.22,-328.83 821.29,-336.09"/>
<polygon fill="#63b8ff" stroke="#63b8ff" points="820.15,-339.4 830.74,-339.06 822.25,-332.72 820.15,-339.4"/>
</a>
</g>
</g>
<!-- Node7 -->
<g id="Node000007" class="node">
<title>Node7</title>
<g id="a_Node000007"><a xlink:href="struct_coord.html#a34c573cd6230e5a532f12ae97e7395e2" target="_top" xlink:title=" ">
<polygon fill="white" stroke="#666666" points="1033.75,-322 960.75,-322 960.75,-302 1033.75,-302 1033.75,-322"/>
<text text-anchor="middle" x="997.25" y="-308.5" font-family="Helvetica,sans-Serif" font-size="10.00">Coord::isNull</text>
</a>
</g>
</g>
<!-- Node6&#45;&gt;Node7 -->
<g id="edge6_Node000006_Node000007" class="edge">
<title>Node6&#45;&gt;Node7</title>
<g id="a_edge6_Node000006_Node000007"><a xlink:title=" ">
<path fill="none" stroke="#63b8ff" d="M900.99,-312C915.74,-312 933.32,-312 949.35,-312"/>
<polygon fill="#63b8ff" stroke="#63b8ff" points="949.16,-315.5 959.16,-312 949.16,-308.5 949.16,-315.5"/>
</a>
</g>
</g>
<!-- Node8&#45;&gt;Node9 -->
<g id="edge8_Node000008_Node000009" class="edge">
<title>Node8&#45;&gt;Node9</title>
<g id="a_edge8_Node000008_Node000009"><a xlink:title=" ">
<path fill="none" stroke="#63b8ff" d="M925.1,-358.5C935.68,-360.06 946.52,-361.66 956.44,-363.12"/>
<polygon fill="#63b8ff" stroke="#63b8ff" points="955.69,-366.55 966.09,-364.55 956.71,-359.63 955.69,-366.55"/>
</a>
</g>
</g>
<!-- Node9&#45;&gt;Node9 -->
<g id="edge9_Node000009_Node000009" class="edge">
<title>Node9&#45;&gt;Node9</title>
<g id="a_edge9_Node000009_Node000009"><a xlink:title=" ">
<path fill="none" stroke="#63b8ff" d="M980.41,-379.34C973.21,-387.98 978.82,-397 997.25,-397 1007.33,-397 1013.57,-394.3 1015.98,-390.44"/>
<polygon fill="#63b8ff" stroke="#63b8ff" points="1019.48,-390.1 1014.35,-380.83 1012.58,-391.28 1019.48,-390.1"/>
</a>
</g>
</g>
<!-- Node10&#45;&gt;Node5 -->
<g id="edge11_Node000010_Node000005" class="edge">
<title>Node10&#45;&gt;Node5</title>
<g id="a_edge11_Node000010_Node000005"><a xlink:title=" ">
<path fill="none" stroke="#63b8ff" d="M755.76,-253.43C775.89,-257.2 800.41,-261.8 821.16,-265.69"/>
<polygon fill="#63b8ff" stroke="#63b8ff" points="820.29,-269.09 830.77,-267.49 821.58,-262.21 820.29,-269.09"/>
</a>
</g>
</g>
<!-- Node10&#45;&gt;Node6 -->
<g id="edge12_Node000010_Node000006" class="edge">
<title>Node10&#45;&gt;Node6</title>
<g id="a_edge12_Node000010_Node000006"><a xlink:title=" ">
<path fill="none" stroke="#63b8ff" d="M734.44,-256.39C752.75,-266.52 781.91,-281.99 808.25,-293 812.37,-294.72 816.71,-296.4 821.08,-298"/>
<polygon fill="#63b8ff" stroke="#63b8ff" points="819.86,-301.28 830.46,-301.29 822.18,-294.68 819.86,-301.28"/>
</a>
</g>
</g>
<!-- Node10&#45;&gt;Node11 -->
<g id="edge13_Node000010_Node000011" class="edge">
<title>Node10&#45;&gt;Node11</title>
<g id="a_edge13_Node000010_Node000011"><a xlink:title=" ">
<path fill="none" stroke="#63b8ff" d="M748.54,-235.58C770.09,-228.66 798.65,-219.48 822.16,-211.93"/>
<polygon fill="#63b8ff" stroke="#63b8ff" points="823,-215.33 831.45,-208.94 820.86,-208.67 823,-215.33"/>
</a>
</g>
</g>
<!-- Node12 -->
<g id="Node000012" class="node">
<title>Node12</title>
<g id="a_Node000012"><a xlink:href="fopencv_8cpp.html#ae51fd1f3ed39bd8c9b8da4a313d5aeb3" target="_top" xlink:title=" ">
<polygon fill="white" stroke="#666666" points="915.75,-246 817.25,-246 817.25,-226 915.75,-226 915.75,-246"/>
<text text-anchor="middle" x="866.5" y="-232.5" font-family="Helvetica,sans-Serif" font-size="10.00">oneMatchTemplate</text>
</a>
</g>
</g>
<!-- Node10&#45;&gt;Node12 -->
<g id="edge14_Node000010_Node000012" class="edge">
<title>Node10&#45;&gt;Node12</title>
<g id="a_edge14_Node000010_Node000012"><a xlink:title=" ">
<path fill="none" stroke="#63b8ff" d="M755.76,-243.35C771,-242.33 788.76,-241.14 805.49,-240.02"/>
<polygon fill="#63b8ff" stroke="#63b8ff" points="805.62,-243.52 815.36,-239.36 805.15,-236.53 805.62,-243.52"/>
</a>
</g>
</g>
<!-- Node14 -->
<g id="Node000014" class="node">
<title>Node14</title>
<g id="a_Node000014"><a xlink:href="struct_template.html#a93d3c6f97592ba09d7819fda3c3296d7" target="_top" xlink:title=" ">
<polygon fill="white" stroke="#666666" points="601.38,-48 505.12,-48 505.12,-28 601.38,-28 601.38,-48"/>
<text text-anchor="middle" x="553.25" y="-34.5" font-family="Helvetica,sans-Serif" font-size="10.00">Template::setType</text>
</a>
</g>
</g>
<!-- Node13&#45;&gt;Node14 -->
<g id="edge18_Node000013_Node000014" class="edge">
<title>Node13&#45;&gt;Node14</title>
<g id="a_edge18_Node000013_Node000014"><a xlink:title=" ">
<path fill="none" stroke="#63b8ff" d="M448.61,-44.25C463.27,-43.36 478.84,-42.43 493.34,-41.55"/>
<polygon fill="#63b8ff" stroke="#63b8ff" points="493.42,-45.05 503.19,-40.96 493,-38.07 493.42,-45.05"/>
</a>
</g>
</g>
<!-- Node16 -->
<g id="Node000016" class="node">
<title>Node16</title>
<g id="a_Node000016"><a xlink:href="fopencv_8cpp.html#a5c455ed716b7fa4c675446fc5b8ba4fb" target="_top" xlink:title=" ">
<polygon fill="white" stroke="#666666" points="584.12,-124 522.38,-124 522.38,-104 584.12,-104 584.12,-124"/>
<text text-anchor="middle" x="553.25" y="-110.5" font-family="Helvetica,sans-Serif" font-size="10.00">CreateMat</text>
</a>
</g>
</g>
<!-- Node15&#45;&gt;Node16 -->
<g id="edge20_Node000015_Node000016" class="edge">
<title>Node15&#45;&gt;Node16</title>
<g id="a_edge20_Node000015_Node000016"><a xlink:title=" ">
<path fill="none" stroke="#63b8ff" d="M446.26,-126.14C467.72,-123.68 491.43,-120.97 510.96,-118.73"/>
<polygon fill="#63b8ff" stroke="#63b8ff" points="511.19,-122.23 520.73,-117.61 510.4,-115.27 511.19,-122.23"/>
</a>
</g>
</g>
<!-- Node17 -->
<g id="Node000017" class="node">
<title>Node17</title>
<g id="a_Node000017"><a xlink:href="class_interactions.html#aed04f9177d2aba467d71818a5e82c7bc" target="_top" xlink:title=" ">
<polygon fill="white" stroke="#666666" points="610.38,-162 496.12,-162 496.12,-142 610.38,-142 610.38,-162"/>
<text text-anchor="middle" x="553.25" y="-148.5" font-family="Helvetica,sans-Serif" font-size="10.00">Interactions::fcpopupA</text>
</a>
</g>
</g>
<!-- Node15&#45;&gt;Node17 -->
<g id="edge21_Node000015_Node000017" class="edge">
<title>Node15&#45;&gt;Node17</title>
<g id="a_edge21_Node000015_Node000017"><a xlink:title=" ">
<path fill="none" stroke="#63b8ff" d="M446.26,-139.86C458.62,-141.28 471.73,-142.78 484.35,-144.22"/>
<polygon fill="#63b8ff" stroke="#63b8ff" points="483.94,-147.7 494.27,-145.36 484.73,-140.74 483.94,-147.7"/>
</a>
</g>
</g>
<!-- Node20 -->
<g id="Node000020" class="node">
<title>Node20</title>
<g id="a_Node000020"><a xlink:href="fadb_8cpp.html#aeec40a5f78ae4713eedd84cb5f75746f" target="_top" xlink:title=" ">
<polygon fill="white" stroke="#666666" points="585.25,-200 521.25,-200 521.25,-180 585.25,-180 585.25,-200"/>
<text text-anchor="middle" x="553.25" y="-186.5" font-family="Helvetica,sans-Serif" font-size="10.00">screenshot</text>
</a>
</g>
</g>
<!-- Node15&#45;&gt;Node20 -->
<g id="edge26_Node000015_Node000020" class="edge">
<title>Node15&#45;&gt;Node20</title>
<g id="a_edge26_Node000015_Node000020"><a xlink:title=" ">
<path fill="none" stroke="#63b8ff" d="M411.14,-143.35C430.84,-151.4 459.19,-162.57 484.5,-171 492.72,-173.74 501.59,-176.42 510.11,-178.86"/>
<polygon fill="#63b8ff" stroke="#63b8ff" points="509,-182.18 519.57,-181.51 510.89,-175.44 509,-182.18"/>
</a>
</g>
</g>
<!-- Node17&#45;&gt;Node10 -->
<g id="edge24_Node000017_Node000010" class="edge">
<title>Node17&#45;&gt;Node10</title>
<g id="a_edge24_Node000017_Node000010"><a xlink:title=" ">
<path fill="none" stroke="#63b8ff" d="M601.14,-162.42C608.31,-164.79 615.49,-167.63 622,-171 650.69,-185.88 678.77,-210.64 696.24,-227.61"/>
<polygon fill="#63b8ff" stroke="#63b8ff" points="693.73,-230.05 703.28,-234.62 698.66,-225.08 693.73,-230.05"/>
</a>
</g>
</g>
<!-- Node18 -->
<g id="Node000018" class="node">
<title>Node18</title>
<g id="a_Node000018"><a xlink:href="class_interactions.html#aae6172962092f278714536142e987cde" target="_top" xlink:title=" ">
<polygon fill="white" stroke="#666666" points="761.75,-124 668.5,-124 668.5,-104 761.75,-104 761.75,-124"/>
<text text-anchor="middle" x="715.12" y="-110.5" font-family="Helvetica,sans-Serif" font-size="10.00">Interactions::click</text>
</a>
</g>
</g>
<!-- Node17&#45;&gt;Node18 -->
<g id="edge22_Node000017_Node000018" class="edge">
<title>Node17&#45;&gt;Node18</title>
<g id="a_edge22_Node000017_Node000018"><a xlink:title=" ">
<path fill="none" stroke="#63b8ff" d="M598.36,-141.52C617.14,-137.05 639.26,-131.79 659.1,-127.08"/>
<polygon fill="#63b8ff" stroke="#63b8ff" points="659.77,-130.52 668.69,-124.8 658.15,-123.71 659.77,-130.52"/>
</a>
</g>
</g>
<!-- Node19 -->
<g id="Node000019" class="node">
<title>Node19</title>
<g id="a_Node000019"><a xlink:href="class_interactions.html#abd5b5d8a44970e1333e3611e302f166c" target="_top" xlink:title=" ">
<polygon fill="white" stroke="#666666" points="760.62,-86 669.62,-86 669.62,-66 760.62,-66 760.62,-86"/>
<text text-anchor="middle" x="715.12" y="-72.5" font-family="Helvetica,sans-Serif" font-size="10.00">Interactions::wait</text>
</a>
</g>
</g>
<!-- Node17&#45;&gt;Node19 -->
<g id="edge25_Node000017_Node000019" class="edge">
<title>Node17&#45;&gt;Node19</title>
<g id="a_edge25_Node000017_Node000019"><a xlink:title=" ">
<path fill="none" stroke="#63b8ff" d="M603.68,-141.55C610.07,-139.22 616.35,-136.41 622,-133 641.92,-120.98 638.41,-107.54 658,-95 660.23,-93.57 662.58,-92.24 665,-91"/>
<polygon fill="#63b8ff" stroke="#63b8ff" points="666.18,-94.31 673.86,-87.01 663.31,-87.92 666.18,-94.31"/>
</a>
</g>
</g>
<!-- Node18&#45;&gt;Node18 -->
<g id="edge23_Node000018_Node000018" class="edge">
<title>Node18&#45;&gt;Node18</title>
<g id="a_edge23_Node000018_Node000018"><a xlink:title=" ">
<path fill="none" stroke="#63b8ff" d="M691.07,-124.34C680.79,-132.98 688.81,-142 715.12,-142 729.52,-142 738.43,-139.3 741.88,-135.44"/>
<polygon fill="#63b8ff" stroke="#63b8ff" points="745.3,-134.7 739.53,-125.81 738.5,-136.35 745.3,-134.7"/>
</a>
</g>
</g>
<!-- Node21 -->
<g id="Node000021" class="node">
<title>Node21</title>
<g id="a_Node000021"><a xlink:href="fadb_8cpp.html#a7ab9819839864ebd26d0e7e68e330418" target="_top" xlink:title=" ">
<polygon fill="white" stroke="#666666" points="757.25,-180 673,-180 673,-160 757.25,-160 757.25,-180"/>
<text text-anchor="middle" x="715.12" y="-166.5" font-family="Helvetica,sans-Serif" font-size="10.00">takeScreenshot</text>
</a>
</g>
</g>
<!-- Node20&#45;&gt;Node21 -->
<g id="edge27_Node000020_Node000021" class="edge">
<title>Node20&#45;&gt;Node21</title>
<g id="a_edge27_Node000020_Node000021"><a xlink:title=" ">
<path fill="none" stroke="#63b8ff" d="M585.46,-186.1C607.05,-183.4 636.31,-179.73 661.47,-176.59"/>
<polygon fill="#63b8ff" stroke="#63b8ff" points="661.71,-180.08 671.2,-175.37 660.85,-173.14 661.71,-180.08"/>
</a>
</g>
</g>
<!-- Node22 -->
<g id="Node000022" class="node">
<title>Node22</title>
<g id="a_Node000022"><a xlink:href="fadb_8cpp.html#ac6339b59ba8238f7483dece7f3fdf51b" target="_top" xlink:title=" ">
<polygon fill="white" stroke="#666666" points="910.88,-170 822.12,-170 822.12,-150 910.88,-150 910.88,-170"/>
<text text-anchor="middle" x="866.5" y="-156.5" font-family="Helvetica,sans-Serif" font-size="10.00">runAdbLocalhost</text>
</a>
</g>
</g>
<!-- Node21&#45;&gt;Node22 -->
<g id="edge28_Node000021_Node000022" class="edge">
<title>Node21&#45;&gt;Node22</title>
<g id="a_edge28_Node000021_Node000022"><a xlink:title=" ">
<path fill="none" stroke="#63b8ff" d="M757.73,-167.21C774.09,-166.12 793.1,-164.85 810.56,-163.68"/>
<polygon fill="#63b8ff" stroke="#63b8ff" points="810.51,-167.19 820.26,-163.03 810.05,-160.2 810.51,-167.19"/>
</a>
</g>
</g>
<!-- Node23 -->
<g id="Node000023" class="node">
<title>Node23</title>
<g id="a_Node000023"><a xlink:href="fadb_8cpp.html#a383ae5fedc9f597a03c74c729a2eb740" target="_top" xlink:title=" ">
<polygon fill="white" stroke="#666666" points="1020.62,-170 973.88,-170 973.88,-150 1020.62,-150 1020.62,-170"/>
<text text-anchor="middle" x="997.25" y="-156.5" font-family="Helvetica,sans-Serif" font-size="10.00">runAdb</text>
</a>
</g>
</g>
<!-- Node22&#45;&gt;Node23 -->
<g id="edge29_Node000022_Node000023" class="edge">
<title>Node22&#45;&gt;Node23</title>
<g id="a_edge29_Node000022_Node000023"><a xlink:title=" ">
<path fill="none" stroke="#63b8ff" d="M911.09,-160C927.83,-160 946.68,-160 962.37,-160"/>
<polygon fill="#63b8ff" stroke="#63b8ff" points="962.16,-163.5 972.16,-160 962.16,-156.5 962.16,-163.5"/>
</a>
</g>
</g>
<!-- Node24 -->
<g id="Node000024" class="node">
<title>Node24</title>
<g id="a_Node000024"><a xlink:href="sys_commands_8cpp.html#a321eb7e335377aa7182bafc8a1605032" target="_top" xlink:title=" ">
<polygon fill="white" stroke="#666666" points="1136.75,-170 1069.75,-170 1069.75,-150 1136.75,-150 1136.75,-170"/>
<text text-anchor="middle" x="1103.25" y="-156.5" font-family="Helvetica,sans-Serif" font-size="10.00">receivePipe</text>
</a>
</g>
</g>
<!-- Node23&#45;&gt;Node24 -->
<g id="edge30_Node000023_Node000024" class="edge">
<title>Node23&#45;&gt;Node24</title>
<g id="a_edge30_Node000023_Node000024"><a xlink:title=" ">
<path fill="none" stroke="#63b8ff" d="M1021.07,-160C1031.97,-160 1045.39,-160 1058.16,-160"/>
<polygon fill="#63b8ff" stroke="#63b8ff" points="1058.1,-163.5 1068.1,-160 1058.1,-156.5 1058.1,-163.5"/>
</a>
</g>
</g>
<!-- Node25 -->
<g id="Node000025" class="node">
<title>Node25</title>
<g id="a_Node000025"><a xlink:href="sys_commands_8cpp.html#a4771c79171a937893508dabadadbe099" target="_top" xlink:title=" ">
<polygon fill="white" stroke="#666666" points="1231.5,-189 1172.75,-189 1172.75,-169 1231.5,-169 1231.5,-189"/>
<text text-anchor="middle" x="1202.12" y="-175.5" font-family="Helvetica,sans-Serif" font-size="10.00">closePipe</text>
</a>
</g>
</g>
<!-- Node24&#45;&gt;Node25 -->
<g id="edge31_Node000024_Node000025" class="edge">
<title>Node24&#45;&gt;Node25</title>
<g id="a_edge31_Node000024_Node000025"><a xlink:title=" ">
<path fill="none" stroke="#63b8ff" d="M1137.05,-166.43C1144.81,-167.95 1153.17,-169.59 1161.21,-171.17"/>
<polygon fill="#63b8ff" stroke="#63b8ff" points="1160.28,-174.56 1170.77,-173.05 1161.63,-167.69 1160.28,-174.56"/>
</a>
</g>
</g>
<!-- Node26 -->
<g id="Node000026" class="node">
<title>Node26</title>
<g id="a_Node000026"><a xlink:href="sys_commands_8cpp.html#a3499ce0cd7e4ed28b3c5461a4d3aec84" target="_top" xlink:title=" ">
<polygon fill="white" stroke="#666666" points="1230.38,-151 1173.88,-151 1173.88,-131 1230.38,-131 1230.38,-151"/>
<text text-anchor="middle" x="1202.12" y="-137.5" font-family="Helvetica,sans-Serif" font-size="10.00">openPipe</text>
</a>
</g>
</g>
<!-- Node24&#45;&gt;Node26 -->
<g id="edge32_Node000024_Node000026" class="edge">
<title>Node24&#45;&gt;Node26</title>
<g id="a_edge32_Node000024_Node000026"><a xlink:title=" ">
<path fill="none" stroke="#63b8ff" d="M1137.05,-153.57C1145.2,-151.97 1154.01,-150.24 1162.42,-148.59"/>
<polygon fill="#63b8ff" stroke="#63b8ff" points="1162.9,-152.06 1172.04,-146.7 1161.55,-145.19 1162.9,-152.06"/>
</a>
</g>
</g>
<!-- Node28&#45;&gt;Node18 -->
<g id="edge35_Node000028_Node000018" class="edge">
<title>Node28&#45;&gt;Node18</title>
<g id="a_edge35_Node000028_Node000018"><a xlink:title=" ">
<path fill="none" stroke="#63b8ff" d="M598.36,-86.48C617.14,-90.95 639.26,-96.21 659.1,-100.92"/>
<polygon fill="#63b8ff" stroke="#63b8ff" points="658.15,-104.29 668.69,-103.2 659.77,-97.48 658.15,-104.29"/>
</a>
</g>
</g>
<!-- Node28&#45;&gt;Node19 -->
<g id="edge36_Node000028_Node000019" class="edge">
<title>Node28&#45;&gt;Node19</title>
<g id="a_edge36_Node000028_Node000019"><a xlink:title=" ">
<path fill="none" stroke="#63b8ff" d="M622.05,-76C634.05,-76 646.42,-76 658.06,-76"/>
<polygon fill="#63b8ff" stroke="#63b8ff" points="657.88,-79.5 667.88,-76 657.88,-72.5 657.88,-79.5"/>
</a>
</g>
</g>
</g>
</svg>
