<?xml version="1.0" encoding="UTF-8" standalone="no"?>
<!DOCTYPE svg PUBLIC "-//W3C//DTD SVG 1.1//EN"
 "http://www.w3.org/Graphics/SVG/1.1/DTD/svg11.dtd">
<!-- Generated by graphviz version 12.2.0 (20241103.1931)
 -->
<!-- Title: FlowCKToken Pages: 1 -->
<svg width="494pt" height="2128pt"
 viewBox="0.00 0.00 494.00 2128.00" xmlns="http://www.w3.org/2000/svg" xmlns:xlink="http://www.w3.org/1999/xlink">
<g id="graph0" class="graph" transform="scale(1 1) rotate(0) translate(4 2124)">
<title>FlowCKToken</title>
<!-- Node1 -->
<g id="Node000001" class="node">
<title>Node1</title>
<g id="a_Node000001"><a xlink:title=" ">
<polygon fill="#999999" stroke="none" points="332.62,-276 153.38,-276 153.38,-116 332.62,-116 332.62,-276"/>
<text text-anchor="start" x="212.25" y="-262.5" font-family="Helvetica,sans-Serif" font-size="10.00">FlowCKToken</text>
<text text-anchor="start" x="241.5" y="-246.5" font-family="Helvetica,sans-Serif" font-size="10.00"> </text>
<text text-anchor="start" x="157.38" y="-230.5" font-family="Helvetica,sans-Serif" font-size="10.00">+</text>
<text text-anchor="start" x="167.38" y="-230.5" font-family="Helvetica,sans-Serif" font-size="10.00">FlowCKToken()</text>
<text text-anchor="start" x="157.75" y="-214.5" font-family="Helvetica,sans-Serif" font-size="10.00">#</text>
<text text-anchor="start" x="167.38" y="-214.5" font-family="Helvetica,sans-Serif" font-size="10.00">bool addCondition(Iterator</text>
<text text-anchor="start" x="167.38" y="-202.5" font-family="Helvetica,sans-Serif" font-size="10.00">List&lt; Token &gt; &amp;tl, TokenResult tRes)</text>
<text text-anchor="start" x="157.75" y="-186.5" font-family="Helvetica,sans-Serif" font-size="10.00">#</text>
<text text-anchor="start" x="167.38" y="-186.5" font-family="Helvetica,sans-Serif" font-size="10.00">bool addTokens(IteratorList</text>
<text text-anchor="start" x="167.38" y="-174.5" font-family="Helvetica,sans-Serif" font-size="10.00">&lt; Token &gt; &amp;tl, TokenResult</text>
<text text-anchor="start" x="167.38" y="-162.5" font-family="Helvetica,sans-Serif" font-size="10.00"> &amp;tRes) override</text>
<text text-anchor="start" x="157.75" y="-146.5" font-family="Helvetica,sans-Serif" font-size="10.00">#</text>
<text text-anchor="start" x="167.38" y="-146.5" font-family="Helvetica,sans-Serif" font-size="10.00">void showArguments</text>
<text text-anchor="start" x="167.38" y="-134.5" font-family="Helvetica,sans-Serif" font-size="10.00">(const int nestedLayer)</text>
<text text-anchor="start" x="167.38" y="-122.5" font-family="Helvetica,sans-Serif" font-size="10.00"> override</text>
<polygon fill="#666666" stroke="#666666" points="153.38,-258 153.38,-258 332.62,-258 332.62,-258 153.38,-258"/>
<polygon fill="#666666" stroke="#666666" points="153.38,-242 153.38,-242 332.62,-242 332.62,-242 153.38,-242"/>
<polygon fill="none" stroke="#666666" points="153.38,-116 153.38,-276 332.62,-276 332.62,-116 153.38,-116"/>
</a>
</g>
</g>
<!-- Node8 -->
<g id="Node000008" class="node">
<title>Node8</title>
<g id="a_Node000008"><a xlink:href="class_do_loop_token.html" target="_top" xlink:title=" ">
<polygon fill="white" stroke="none" points="108,-80 0,-80 0,0 108,0 108,-80"/>
<text text-anchor="start" x="24" y="-66.5" font-family="Helvetica,sans-Serif" font-size="10.00">DoLoopToken</text>
<text text-anchor="start" x="52.5" y="-50.5" font-family="Helvetica,sans-Serif" font-size="10.00"> </text>
<text text-anchor="start" x="4" y="-34.5" font-family="Helvetica,sans-Serif" font-size="10.00">+</text>
<text text-anchor="start" x="14" y="-34.5" font-family="Helvetica,sans-Serif" font-size="10.00">DoLoopToken()</text>
<text text-anchor="start" x="4" y="-18.5" font-family="Helvetica,sans-Serif" font-size="10.00">+</text>
<text text-anchor="start" x="14" y="-18.5" font-family="Helvetica,sans-Serif" font-size="10.00">std::shared_ptr&lt; Tag</text>
<text text-anchor="start" x="14" y="-6.5" font-family="Helvetica,sans-Serif" font-size="10.00"> &gt; execute() override</text>
<polygon fill="#666666" stroke="#666666" points="0,-62 0,-62 108,-62 108,-62 0,-62"/>
<polygon fill="#666666" stroke="#666666" points="0,-46 0,-46 108,-46 108,-46 0,-46"/>
<polygon fill="none" stroke="#666666" points="0,0 0,-80 108,-80 108,0 0,0"/>
</a>
</g>
</g>
<!-- Node1&#45;&gt;Node8 -->
<g id="edge7_Node000001_Node000008" class="edge">
<title>Node1&#45;&gt;Node8</title>
<g id="a_edge7_Node000001_Node000008"><a xlink:title=" ">
<path fill="none" stroke="#63b8ff" d="M144.69,-114.9C129.77,-102.74 114.97,-90.68 101.8,-79.95"/>
<polygon fill="none" stroke="#63b8ff" points="142.34,-117.5 152.31,-121.1 146.77,-112.07 142.34,-117.5"/>
</a>
</g>
</g>
<!-- Node9 -->
<g id="Node000009" class="node">
<title>Node9</title>
<g id="a_Node000009"><a xlink:href="class_elif_token.html" target="_top" xlink:title=" ">
<polygon fill="white" stroke="none" points="234,-80 126,-80 126,0 234,0 234,-80"/>
<text text-anchor="start" x="159.75" y="-66.5" font-family="Helvetica,sans-Serif" font-size="10.00">ElifToken</text>
<text text-anchor="start" x="178.5" y="-50.5" font-family="Helvetica,sans-Serif" font-size="10.00"> </text>
<text text-anchor="start" x="130" y="-34.5" font-family="Helvetica,sans-Serif" font-size="10.00">+</text>
<text text-anchor="start" x="140" y="-34.5" font-family="Helvetica,sans-Serif" font-size="10.00">ElifToken()</text>
<text text-anchor="start" x="130" y="-18.5" font-family="Helvetica,sans-Serif" font-size="10.00">+</text>
<text text-anchor="start" x="140" y="-18.5" font-family="Helvetica,sans-Serif" font-size="10.00">std::shared_ptr&lt; Tag</text>
<text text-anchor="start" x="140" y="-6.5" font-family="Helvetica,sans-Serif" font-size="10.00"> &gt; execute() override</text>
<polygon fill="#666666" stroke="#666666" points="126,-62 126,-62 234,-62 234,-62 126,-62"/>
<polygon fill="#666666" stroke="#666666" points="126,-46 126,-46 234,-46 234,-46 126,-46"/>
<polygon fill="none" stroke="#666666" points="126,0 126,-80 234,-80 234,0 126,0"/>
</a>
</g>
</g>
<!-- Node1&#45;&gt;Node9 -->
<g id="edge8_Node000001_Node000009" class="edge">
<title>Node1&#45;&gt;Node9</title>
<g id="a_edge8_Node000001_Node000009"><a xlink:title=" ">
<path fill="none" stroke="#63b8ff" d="M206.44,-105.63C202.78,-96.69 199.22,-87.97 195.95,-79.99"/>
<polygon fill="none" stroke="#63b8ff" points="203.16,-106.86 210.19,-114.79 209.64,-104.21 203.16,-106.86"/>
</a>
</g>
</g>
<!-- Node10 -->
<g id="Node000010" class="node">
<title>Node10</title>
<g id="a_Node000010"><a xlink:href="class_if_token.html" target="_top" xlink:title=" ">
<polygon fill="white" stroke="none" points="360,-80 252,-80 252,0 360,0 360,-80"/>
<text text-anchor="start" x="289.88" y="-66.5" font-family="Helvetica,sans-Serif" font-size="10.00">IfToken</text>
<text text-anchor="start" x="304.5" y="-50.5" font-family="Helvetica,sans-Serif" font-size="10.00"> </text>
<text text-anchor="start" x="256" y="-34.5" font-family="Helvetica,sans-Serif" font-size="10.00">+</text>
<text text-anchor="start" x="266" y="-34.5" font-family="Helvetica,sans-Serif" font-size="10.00">IfToken()</text>
<text text-anchor="start" x="256" y="-18.5" font-family="Helvetica,sans-Serif" font-size="10.00">+</text>
<text text-anchor="start" x="266" y="-18.5" font-family="Helvetica,sans-Serif" font-size="10.00">std::shared_ptr&lt; Tag</text>
<text text-anchor="start" x="266" y="-6.5" font-family="Helvetica,sans-Serif" font-size="10.00"> &gt; execute() override</text>
<polygon fill="#666666" stroke="#666666" points="252,-62 252,-62 360,-62 360,-62 252,-62"/>
<polygon fill="#666666" stroke="#666666" points="252,-46 252,-46 360,-46 360,-46 252,-46"/>
<polygon fill="none" stroke="#666666" points="252,0 252,-80 360,-80 360,0 252,0"/>
</a>
</g>
</g>
<!-- Node1&#45;&gt;Node10 -->
<g id="edge9_Node000001_Node000010" class="edge">
<title>Node1&#45;&gt;Node10</title>
<g id="a_edge9_Node000001_Node000010"><a xlink:title=" ">
<path fill="none" stroke="#63b8ff" d="M279.56,-105.63C283.22,-96.69 286.78,-87.97 290.05,-79.99"/>
<polygon fill="none" stroke="#63b8ff" points="276.36,-104.21 275.81,-114.79 282.84,-106.86 276.36,-104.21"/>
</a>
</g>
</g>
<!-- Node11 -->
<g id="Node000011" class="node">
<title>Node11</title>
<g id="a_Node000011"><a xlink:href="class_loop_token.html" target="_top" xlink:title=" ">
<polygon fill="white" stroke="none" points="486,-80 378,-80 378,0 486,0 486,-80"/>
<text text-anchor="start" x="408.38" y="-66.5" font-family="Helvetica,sans-Serif" font-size="10.00">LoopToken</text>
<text text-anchor="start" x="430.5" y="-50.5" font-family="Helvetica,sans-Serif" font-size="10.00"> </text>
<text text-anchor="start" x="382" y="-34.5" font-family="Helvetica,sans-Serif" font-size="10.00">+</text>
<text text-anchor="start" x="392" y="-34.5" font-family="Helvetica,sans-Serif" font-size="10.00">LoopToken()</text>
<text text-anchor="start" x="382" y="-18.5" font-family="Helvetica,sans-Serif" font-size="10.00">+</text>
<text text-anchor="start" x="392" y="-18.5" font-family="Helvetica,sans-Serif" font-size="10.00">std::shared_ptr&lt; Tag</text>
<text text-anchor="start" x="392" y="-6.5" font-family="Helvetica,sans-Serif" font-size="10.00"> &gt; execute() override</text>
<polygon fill="#666666" stroke="#666666" points="378,-62 378,-62 486,-62 486,-62 378,-62"/>
<polygon fill="#666666" stroke="#666666" points="378,-46 378,-46 486,-46 486,-46 378,-46"/>
<polygon fill="none" stroke="#666666" points="378,0 378,-80 486,-80 486,0 378,0"/>
</a>
</g>
</g>
<!-- Node1&#45;&gt;Node11 -->
<g id="edge10_Node000001_Node000011" class="edge">
<title>Node1&#45;&gt;Node11</title>
<g id="a_edge10_Node000001_Node000011"><a xlink:title=" ">
<path fill="none" stroke="#63b8ff" d="M341.31,-114.9C356.23,-102.74 371.03,-90.68 384.2,-79.95"/>
<polygon fill="none" stroke="#63b8ff" points="339.23,-112.07 333.69,-121.1 343.66,-117.5 339.23,-112.07"/>
</a>
</g>
</g>
<!-- Node2 -->
<g id="Node000002" class="node">
<title>Node2</title>
<g id="a_Node000002"><a xlink:href="class_c_k_token.html" target="_top" xlink:title=" ">
<polygon fill="white" stroke="none" points="231.12,-636 72.88,-636 72.88,-512 231.12,-512 231.12,-636"/>
<text text-anchor="start" x="131.75" y="-622.5" font-family="Helvetica,sans-Serif" font-size="10.00">CKToken</text>
<text text-anchor="start" x="150.5" y="-606.5" font-family="Helvetica,sans-Serif" font-size="10.00"> </text>
<text text-anchor="start" x="76.88" y="-590.5" font-family="Helvetica,sans-Serif" font-size="10.00">+</text>
<text text-anchor="start" x="86.88" y="-590.5" font-family="Helvetica,sans-Serif" font-size="10.00">CKToken()</text>
<text text-anchor="start" x="76.88" y="-574.5" font-family="Helvetica,sans-Serif" font-size="10.00">+</text>
<text text-anchor="start" x="86.88" y="-574.5" font-family="Helvetica,sans-Serif" font-size="10.00">void setOverloads()</text>
<text text-anchor="start" x="86.88" y="-562.5" font-family="Helvetica,sans-Serif" font-size="10.00"> final</text>
<text text-anchor="start" x="76.88" y="-546.5" font-family="Helvetica,sans-Serif" font-size="10.00">+</text>
<text text-anchor="start" x="86.88" y="-546.5" font-family="Helvetica,sans-Serif" font-size="10.00">virtual void dispatchArguments()</text>
<text text-anchor="start" x="76.88" y="-530.5" font-family="Helvetica,sans-Serif" font-size="10.00">+</text>
<text text-anchor="start" x="86.88" y="-530.5" font-family="Helvetica,sans-Serif" font-size="10.00">DataType getDataType</text>
<text text-anchor="start" x="86.88" y="-518.5" font-family="Helvetica,sans-Serif" font-size="10.00">(TokenResult &amp;tRes) override</text>
<polygon fill="#666666" stroke="#666666" points="72.88,-618 72.88,-618 231.12,-618 231.12,-618 72.88,-618"/>
<polygon fill="#666666" stroke="#666666" points="72.88,-602 72.88,-602 231.12,-602 231.12,-602 72.88,-602"/>
<polygon fill="none" stroke="#666666" points="72.88,-512 72.88,-636 231.12,-636 231.12,-512 72.88,-512"/>
</a>
</g>
</g>
<!-- Node2&#45;&gt;Node1 -->
<g id="edge1_Node000001_Node000002" class="edge">
<title>Node2&#45;&gt;Node1</title>
<g id="a_edge1_Node000001_Node000002"><a xlink:title=" ">
<path fill="none" stroke="#63b8ff" d="M169.35,-501.29C184.96,-436.81 207.84,-342.27 223.95,-275.72"/>
<polygon fill="none" stroke="#63b8ff" points="166.03,-500.16 167.08,-510.7 172.83,-501.8 166.03,-500.16"/>
</a>
</g>
</g>
<!-- Node3 -->
<g id="Node000003" class="node">
<title>Node3</title>
<g id="a_Node000003"><a xlink:href="class_u_p_k_token.html" target="_top" xlink:title=" ">
<polygon fill="white" stroke="none" points="220.25,-1044 83.75,-1044 83.75,-872 220.25,-872 220.25,-1044"/>
<text text-anchor="start" x="128.38" y="-1030.5" font-family="Helvetica,sans-Serif" font-size="10.00">UPKToken</text>
<text text-anchor="start" x="88.12" y="-1014.5" font-family="Helvetica,sans-Serif" font-size="10.00">#</text>
<text text-anchor="start" x="97.75" y="-1014.5" font-family="Helvetica,sans-Serif" font-size="10.00">std::shared_ptr&lt; Token</text>
<text text-anchor="start" x="97.75" y="-1002.5" font-family="Helvetica,sans-Serif" font-size="10.00"> &gt; uniqueToken</text>
<text text-anchor="start" x="87.75" y="-986.5" font-family="Helvetica,sans-Serif" font-size="10.00">+</text>
<text text-anchor="start" x="97.75" y="-986.5" font-family="Helvetica,sans-Serif" font-size="10.00">UPKToken()</text>
<text text-anchor="start" x="87.75" y="-970.5" font-family="Helvetica,sans-Serif" font-size="10.00">+</text>
<text text-anchor="start" x="97.75" y="-970.5" font-family="Helvetica,sans-Serif" font-size="10.00">void dispatchArguments</text>
<text text-anchor="start" x="97.75" y="-958.5" font-family="Helvetica,sans-Serif" font-size="10.00">() override</text>
<text text-anchor="start" x="87.75" y="-942.5" font-family="Helvetica,sans-Serif" font-size="10.00">+</text>
<text text-anchor="start" x="97.75" y="-942.5" font-family="Helvetica,sans-Serif" font-size="10.00">bool addTokens(IteratorList</text>
<text text-anchor="start" x="97.75" y="-930.5" font-family="Helvetica,sans-Serif" font-size="10.00">&lt; Token &gt; &amp;tl, TokenResult</text>
<text text-anchor="start" x="97.75" y="-918.5" font-family="Helvetica,sans-Serif" font-size="10.00"> &amp;tRes) override</text>
<text text-anchor="start" x="88.12" y="-902.5" font-family="Helvetica,sans-Serif" font-size="10.00">#</text>
<text text-anchor="start" x="97.75" y="-902.5" font-family="Helvetica,sans-Serif" font-size="10.00">void showArguments</text>
<text text-anchor="start" x="97.75" y="-890.5" font-family="Helvetica,sans-Serif" font-size="10.00">(const int nestedLayer)</text>
<text text-anchor="start" x="97.75" y="-878.5" font-family="Helvetica,sans-Serif" font-size="10.00"> override</text>
<polygon fill="#666666" stroke="#666666" points="83.75,-1026 83.75,-1026 220.25,-1026 220.25,-1026 83.75,-1026"/>
<polygon fill="#666666" stroke="#666666" points="83.75,-998 83.75,-998 95.75,-998 95.75,-998 83.75,-998"/>
<polygon fill="#666666" stroke="#666666" points="95.75,-998 95.75,-998 220.25,-998 220.25,-998 95.75,-998"/>
<polygon fill="none" stroke="#666666" points="83.75,-872 83.75,-1044 220.25,-1044 220.25,-872 83.75,-872"/>
</a>
</g>
</g>
<!-- Node3&#45;&gt;Node2 -->
<g id="edge2_Node000002_Node000003" class="edge">
<title>Node3&#45;&gt;Node2</title>
<g id="a_edge2_Node000002_Node000003"><a xlink:title=" ">
<path fill="none" stroke="#63b8ff" d="M152,-861.09C152,-790.41 152,-696.42 152,-635.81"/>
<polygon fill="none" stroke="#63b8ff" points="148.5,-860.71 152,-870.71 155.5,-860.71 148.5,-860.71"/>
</a>
</g>
</g>
<!-- Node4 -->
<g id="Node000004" class="node">
<title>Node4</title>
<g id="a_Node000004"><a xlink:href="class_p_k_token.html" target="_top" xlink:title=" ">
<polygon fill="white" stroke="none" points="245,-1608 59,-1608 59,-1080 245,-1080 245,-1608"/>
<text text-anchor="start" x="132.12" y="-1594.5" font-family="Helvetica,sans-Serif" font-size="10.00">PKToken</text>
<text text-anchor="start" x="63.38" y="-1578.5" font-family="Helvetica,sans-Serif" font-size="10.00">#</text>
<text text-anchor="start" x="73" y="-1578.5" font-family="Helvetica,sans-Serif" font-size="10.00">ArgumentsOverload argsOverload</text>
<text text-anchor="start" x="63.38" y="-1562.5" font-family="Helvetica,sans-Serif" font-size="10.00">#</text>
<text text-anchor="start" x="73" y="-1562.5" font-family="Helvetica,sans-Serif" font-size="10.00">std::vector&lt; std::shared</text>
<text text-anchor="start" x="73" y="-1550.5" font-family="Helvetica,sans-Serif" font-size="10.00">_ptr&lt; Token &gt; &gt; argTokens</text>
<text text-anchor="start" x="63" y="-1534.5" font-family="Helvetica,sans-Serif" font-size="10.00">+</text>
<text text-anchor="start" x="73" y="-1534.5" font-family="Helvetica,sans-Serif" font-size="10.00">PKToken()</text>
<text text-anchor="start" x="63" y="-1518.5" font-family="Helvetica,sans-Serif" font-size="10.00">+</text>
<text text-anchor="start" x="73" y="-1518.5" font-family="Helvetica,sans-Serif" font-size="10.00">void showTokenTree</text>
<text text-anchor="start" x="73" y="-1506.5" font-family="Helvetica,sans-Serif" font-size="10.00">(const int nestedLayer)</text>
<text text-anchor="start" x="73" y="-1494.5" font-family="Helvetica,sans-Serif" font-size="10.00"> override</text>
<text text-anchor="start" x="63" y="-1478.5" font-family="Helvetica,sans-Serif" font-size="10.00">+</text>
<text text-anchor="start" x="73" y="-1478.5" font-family="Helvetica,sans-Serif" font-size="10.00">bool addTokens(IteratorList</text>
<text text-anchor="start" x="73" y="-1466.5" font-family="Helvetica,sans-Serif" font-size="10.00">&lt; Token &gt; &amp;tl, TokenResult</text>
<text text-anchor="start" x="73" y="-1454.5" font-family="Helvetica,sans-Serif" font-size="10.00"> &amp;tRes) override</text>
<text text-anchor="start" x="63.38" y="-1438.5" font-family="Helvetica,sans-Serif" font-size="10.00">#</text>
<text text-anchor="start" x="73" y="-1438.5" font-family="Helvetica,sans-Serif" font-size="10.00">bool addToken(TokenVALUE</text>
<text text-anchor="start" x="73" y="-1426.5" font-family="Helvetica,sans-Serif" font-size="10.00"> tVal, IteratorList&lt; Token</text>
<text text-anchor="start" x="73" y="-1414.5" font-family="Helvetica,sans-Serif" font-size="10.00"> &gt; &amp;tl, TokenResult &amp;tRes)</text>
<text text-anchor="start" x="63.38" y="-1398.5" font-family="Helvetica,sans-Serif" font-size="10.00">#</text>
<text text-anchor="start" x="73" y="-1398.5" font-family="Helvetica,sans-Serif" font-size="10.00">bool addType(DataType</text>
<text text-anchor="start" x="73" y="-1386.5" font-family="Helvetica,sans-Serif" font-size="10.00"> tVal, IteratorList&lt;</text>
<text text-anchor="start" x="73" y="-1374.5" font-family="Helvetica,sans-Serif" font-size="10.00"> Token &gt; &amp;tl, TokenResult</text>
<text text-anchor="start" x="73" y="-1362.5" font-family="Helvetica,sans-Serif" font-size="10.00"> &amp;tRes)</text>
<text text-anchor="start" x="63.38" y="-1346.5" font-family="Helvetica,sans-Serif" font-size="10.00">#</text>
<text text-anchor="start" x="73" y="-1346.5" font-family="Helvetica,sans-Serif" font-size="10.00">bool addType(std::vector</text>
<text text-anchor="start" x="73" y="-1334.5" font-family="Helvetica,sans-Serif" font-size="10.00">&lt; DataType &gt; listTypes,</text>
<text text-anchor="start" x="73" y="-1322.5" font-family="Helvetica,sans-Serif" font-size="10.00"> IteratorList&lt; Token &gt; &amp;tl,</text>
<text text-anchor="start" x="73" y="-1310.5" font-family="Helvetica,sans-Serif" font-size="10.00"> TokenResult &amp;tRes)</text>
<text text-anchor="start" x="63.38" y="-1294.5" font-family="Helvetica,sans-Serif" font-size="10.00">#</text>
<text text-anchor="start" x="73" y="-1294.5" font-family="Helvetica,sans-Serif" font-size="10.00">bool addNumber(IteratorList</text>
<text text-anchor="start" x="73" y="-1282.5" font-family="Helvetica,sans-Serif" font-size="10.00">&lt; Token &gt; &amp;tl, TokenResult &amp;tRes)</text>
<text text-anchor="start" x="63.38" y="-1266.5" font-family="Helvetica,sans-Serif" font-size="10.00">#</text>
<text text-anchor="start" x="73" y="-1266.5" font-family="Helvetica,sans-Serif" font-size="10.00">bool addDataType(Iterator</text>
<text text-anchor="start" x="73" y="-1254.5" font-family="Helvetica,sans-Serif" font-size="10.00">List&lt; Token &gt; &amp;tl, TokenResult &amp;tRes)</text>
<text text-anchor="start" x="63.38" y="-1238.5" font-family="Helvetica,sans-Serif" font-size="10.00">#</text>
<text text-anchor="start" x="73" y="-1238.5" font-family="Helvetica,sans-Serif" font-size="10.00">bool addInteger(Iterator</text>
<text text-anchor="start" x="73" y="-1226.5" font-family="Helvetica,sans-Serif" font-size="10.00">List&lt; Token &gt; &amp;tl, TokenResult</text>
<text text-anchor="start" x="73" y="-1214.5" font-family="Helvetica,sans-Serif" font-size="10.00"> &amp;tRes)</text>
<text text-anchor="start" x="63.38" y="-1198.5" font-family="Helvetica,sans-Serif" font-size="10.00">#</text>
<text text-anchor="start" x="73" y="-1198.5" font-family="Helvetica,sans-Serif" font-size="10.00">bool addFloat(IteratorList</text>
<text text-anchor="start" x="73" y="-1186.5" font-family="Helvetica,sans-Serif" font-size="10.00">&lt; Token &gt; &amp;tl, TokenResult &amp;tRes)</text>
<text text-anchor="start" x="63.38" y="-1170.5" font-family="Helvetica,sans-Serif" font-size="10.00">#</text>
<text text-anchor="start" x="73" y="-1170.5" font-family="Helvetica,sans-Serif" font-size="10.00">bool addCoord(IteratorList</text>
<text text-anchor="start" x="73" y="-1158.5" font-family="Helvetica,sans-Serif" font-size="10.00">&lt; Token &gt; &amp;tl, TokenResult &amp;tRes)</text>
<text text-anchor="start" x="63.38" y="-1142.5" font-family="Helvetica,sans-Serif" font-size="10.00">#</text>
<text text-anchor="start" x="73" y="-1142.5" font-family="Helvetica,sans-Serif" font-size="10.00">bool addZone(IteratorList</text>
<text text-anchor="start" x="73" y="-1130.5" font-family="Helvetica,sans-Serif" font-size="10.00">&lt; Token &gt; &amp;tl, TokenResult &amp;tRes)</text>
<text text-anchor="start" x="63.38" y="-1114.5" font-family="Helvetica,sans-Serif" font-size="10.00">#</text>
<text text-anchor="start" x="73" y="-1114.5" font-family="Helvetica,sans-Serif" font-size="10.00">bool addBool(IteratorList</text>
<text text-anchor="start" x="73" y="-1102.5" font-family="Helvetica,sans-Serif" font-size="10.00">&lt; Token &gt; &amp;tl, TokenResult &amp;tRes)</text>
<text text-anchor="start" x="73" y="-1086.5" font-family="Helvetica,sans-Serif" font-size="10.00">and 10 more...</text>
<polygon fill="#666666" stroke="#666666" points="59,-1590 59,-1590 245,-1590 245,-1590 59,-1590"/>
<polygon fill="#666666" stroke="#666666" points="59,-1546 59,-1546 71,-1546 71,-1546 59,-1546"/>
<polygon fill="#666666" stroke="#666666" points="71,-1546 71,-1546 245,-1546 245,-1546 71,-1546"/>
<polygon fill="none" stroke="#666666" points="59,-1080 59,-1608 245,-1608 245,-1080 59,-1080"/>
</a>
</g>
</g>
<!-- Node4&#45;&gt;Node3 -->
<g id="edge3_Node000003_Node000004" class="edge">
<title>Node4&#45;&gt;Node3</title>
<g id="a_edge3_Node000003_Node000004"><a xlink:title=" ">
<path fill="none" stroke="#63b8ff" d="M152,-1069C152,-1060.25 152,-1051.77 152,-1043.67"/>
<polygon fill="none" stroke="#63b8ff" points="148.5,-1068.72 152,-1078.72 155.5,-1068.72 148.5,-1068.72"/>
</a>
</g>
</g>
<!-- Node5 -->
<g id="Node000005" class="node">
<title>Node5</title>
<g id="a_Node000005"><a xlink:href="class_k_token.html" target="_top" xlink:title=" ">
<polygon fill="white" stroke="none" points="219.88,-1720 84.12,-1720 84.12,-1644 219.88,-1644 219.88,-1720"/>
<text text-anchor="start" x="135.5" y="-1706.5" font-family="Helvetica,sans-Serif" font-size="10.00">KToken</text>
<text text-anchor="start" x="150.5" y="-1690.5" font-family="Helvetica,sans-Serif" font-size="10.00"> </text>
<text text-anchor="start" x="88.12" y="-1674.5" font-family="Helvetica,sans-Serif" font-size="10.00">#</text>
<text text-anchor="start" x="97.38" y="-1674.5" font-family="Helvetica,sans-Serif" font-size="10.00">bool addTokens(IteratorList</text>
<text text-anchor="start" x="97.38" y="-1662.5" font-family="Helvetica,sans-Serif" font-size="10.00">&lt; Token &gt; &amp;tl, TokenResult</text>
<text text-anchor="start" x="97.38" y="-1650.5" font-family="Helvetica,sans-Serif" font-size="10.00"> &amp;tRes) override</text>
<polygon fill="#666666" stroke="#666666" points="84.12,-1702 84.12,-1702 219.88,-1702 219.88,-1702 84.12,-1702"/>
<polygon fill="#666666" stroke="#666666" points="84.12,-1686 84.12,-1686 219.88,-1686 219.88,-1686 84.12,-1686"/>
<polygon fill="none" stroke="#666666" points="84.12,-1644 84.12,-1720 219.88,-1720 219.88,-1644 84.12,-1644"/>
</a>
</g>
</g>
<!-- Node5&#45;&gt;Node4 -->
<g id="edge4_Node000004_Node000005" class="edge">
<title>Node5&#45;&gt;Node4</title>
<g id="a_edge4_Node000004_Node000005"><a xlink:title=" ">
<path fill="none" stroke="#63b8ff" d="M152,-1632.66C152,-1625.01 152,-1616.68 152,-1607.82"/>
<polygon fill="none" stroke="#63b8ff" points="148.5,-1632.57 152,-1642.57 155.5,-1632.57 148.5,-1632.57"/>
</a>
</g>
</g>
<!-- Node6 -->
<g id="Node000006" class="node">
<title>Node6</title>
<g id="a_Node000006"><a xlink:href="class_token.html" target="_top" xlink:title=" ">
<polygon fill="white" stroke="none" points="222.88,-2120 81.12,-2120 81.12,-1756 222.88,-1756 222.88,-2120"/>
<text text-anchor="start" x="138.88" y="-2106.5" font-family="Helvetica,sans-Serif" font-size="10.00">Token</text>
<text text-anchor="start" x="85.5" y="-2090.5" font-family="Helvetica,sans-Serif" font-size="10.00">#</text>
<text text-anchor="start" x="95.12" y="-2090.5" font-family="Helvetica,sans-Serif" font-size="10.00">std::string tokenText</text>
<text text-anchor="start" x="85.5" y="-2074.5" font-family="Helvetica,sans-Serif" font-size="10.00">#</text>
<text text-anchor="start" x="95.12" y="-2074.5" font-family="Helvetica,sans-Serif" font-size="10.00">TokenVALUE tValue</text>
<text text-anchor="start" x="85.5" y="-2058.5" font-family="Helvetica,sans-Serif" font-size="10.00">#</text>
<text text-anchor="start" x="95.12" y="-2058.5" font-family="Helvetica,sans-Serif" font-size="10.00">int line</text>
<text text-anchor="start" x="85.12" y="-2042.5" font-family="Helvetica,sans-Serif" font-size="10.00">+</text>
<text text-anchor="start" x="95.12" y="-2042.5" font-family="Helvetica,sans-Serif" font-size="10.00">Token()</text>
<text text-anchor="start" x="85.12" y="-2026.5" font-family="Helvetica,sans-Serif" font-size="10.00">+</text>
<text text-anchor="start" x="95.12" y="-2026.5" font-family="Helvetica,sans-Serif" font-size="10.00">virtual DataType getData</text>
<text text-anchor="start" x="95.12" y="-2014.5" font-family="Helvetica,sans-Serif" font-size="10.00">Type(TokenResult &amp;tRes)</text>
<text text-anchor="start" x="85.12" y="-1998.5" font-family="Helvetica,sans-Serif" font-size="10.00">+</text>
<text text-anchor="start" x="95.12" y="-1998.5" font-family="Helvetica,sans-Serif" font-size="10.00">virtual void showTokenTree</text>
<text text-anchor="start" x="95.12" y="-1986.5" font-family="Helvetica,sans-Serif" font-size="10.00">(const int nestedLayer)</text>
<text text-anchor="start" x="85.12" y="-1970.5" font-family="Helvetica,sans-Serif" font-size="10.00">+</text>
<text text-anchor="start" x="95.12" y="-1970.5" font-family="Helvetica,sans-Serif" font-size="10.00">TokenVALUE getValue()</text>
<text text-anchor="start" x="85.12" y="-1954.5" font-family="Helvetica,sans-Serif" font-size="10.00">+</text>
<text text-anchor="start" x="95.12" y="-1954.5" font-family="Helvetica,sans-Serif" font-size="10.00">bool addError(TokenResult</text>
<text text-anchor="start" x="95.12" y="-1942.5" font-family="Helvetica,sans-Serif" font-size="10.00"> &amp;tRes, TokenVALUE value,</text>
<text text-anchor="start" x="95.12" y="-1930.5" font-family="Helvetica,sans-Serif" font-size="10.00"> ErrorType et=ErrorType::</text>
<text text-anchor="start" x="95.12" y="-1918.5" font-family="Helvetica,sans-Serif" font-size="10.00">MISSING)</text>
<text text-anchor="start" x="85.12" y="-1902.5" font-family="Helvetica,sans-Serif" font-size="10.00">+</text>
<text text-anchor="start" x="95.12" y="-1902.5" font-family="Helvetica,sans-Serif" font-size="10.00">bool addError(TokenResult</text>
<text text-anchor="start" x="95.12" y="-1890.5" font-family="Helvetica,sans-Serif" font-size="10.00"> &amp;tRes, DataType type)</text>
<text text-anchor="start" x="85.12" y="-1874.5" font-family="Helvetica,sans-Serif" font-size="10.00">+</text>
<text text-anchor="start" x="95.12" y="-1874.5" font-family="Helvetica,sans-Serif" font-size="10.00">std::string getTokenText()</text>
<text text-anchor="start" x="85.12" y="-1858.5" font-family="Helvetica,sans-Serif" font-size="10.00">+</text>
<text text-anchor="start" x="95.12" y="-1858.5" font-family="Helvetica,sans-Serif" font-size="10.00">int getLine()</text>
<text text-anchor="start" x="85.12" y="-1842.5" font-family="Helvetica,sans-Serif" font-size="10.00">+</text>
<text text-anchor="start" x="95.12" y="-1842.5" font-family="Helvetica,sans-Serif" font-size="10.00">bool hasValue(TokenVALUE</text>
<text text-anchor="start" x="95.12" y="-1830.5" font-family="Helvetica,sans-Serif" font-size="10.00"> value) const</text>
<text text-anchor="start" x="85.12" y="-1814.5" font-family="Helvetica,sans-Serif" font-size="10.00">+</text>
<text text-anchor="start" x="95.12" y="-1814.5" font-family="Helvetica,sans-Serif" font-size="10.00">virtual bool addTokens</text>
<text text-anchor="start" x="95.12" y="-1802.5" font-family="Helvetica,sans-Serif" font-size="10.00">(IteratorList&lt; Token &gt;</text>
<text text-anchor="start" x="95.12" y="-1790.5" font-family="Helvetica,sans-Serif" font-size="10.00"> &amp;tl, TokenResult &amp;tRes)</text>
<text text-anchor="start" x="85.12" y="-1774.5" font-family="Helvetica,sans-Serif" font-size="10.00">+</text>
<text text-anchor="start" x="95.12" y="-1774.5" font-family="Helvetica,sans-Serif" font-size="10.00">virtual std::shared</text>
<text text-anchor="start" x="95.12" y="-1762.5" font-family="Helvetica,sans-Serif" font-size="10.00">_ptr&lt; Tag &gt; execute()</text>
<polygon fill="#666666" stroke="#666666" points="81.12,-2102 81.12,-2102 222.88,-2102 222.88,-2102 81.12,-2102"/>
<polygon fill="#666666" stroke="#666666" points="81.12,-2054 81.12,-2054 93.12,-2054 93.12,-2054 81.12,-2054"/>
<polygon fill="#666666" stroke="#666666" points="93.12,-2054 93.12,-2054 222.88,-2054 222.88,-2054 93.12,-2054"/>
<polygon fill="none" stroke="#666666" points="81.12,-1756 81.12,-2120 222.88,-2120 222.88,-1756 81.12,-1756"/>
</a>
</g>
</g>
<!-- Node6&#45;&gt;Node5 -->
<g id="edge5_Node000005_Node000006" class="edge">
<title>Node6&#45;&gt;Node5</title>
<g id="a_edge5_Node000005_Node000006"><a xlink:title=" ">
<path fill="none" stroke="#63b8ff" d="M152,-1744.8C152,-1735.75 152,-1727.31 152,-1719.75"/>
<polygon fill="none" stroke="#63b8ff" points="148.5,-1744.61 152,-1754.61 155.5,-1744.61 148.5,-1744.61"/>
</a>
</g>
</g>
<!-- Node7 -->
<g id="Node000007" class="node">
<title>Node7</title>
<g id="a_Node000007"><a xlink:href="class_flow_token.html" target="_top" xlink:title=" ">
<polygon fill="white" stroke="none" points="419.12,-836 248.88,-836 248.88,-312 419.12,-312 419.12,-836"/>
<text text-anchor="start" x="310.38" y="-822.5" font-family="Helvetica,sans-Serif" font-size="10.00">FlowToken</text>
<text text-anchor="start" x="253.25" y="-806.5" font-family="Helvetica,sans-Serif" font-size="10.00">#</text>
<text text-anchor="start" x="262.88" y="-806.5" font-family="Helvetica,sans-Serif" font-size="10.00">std::vector&lt; std::shared</text>
<text text-anchor="start" x="262.88" y="-794.5" font-family="Helvetica,sans-Serif" font-size="10.00">_ptr&lt; Token &gt; &gt; nestedTokens</text>
<text text-anchor="start" x="253.25" y="-778.5" font-family="Helvetica,sans-Serif" font-size="10.00">#</text>
<text text-anchor="start" x="262.88" y="-778.5" font-family="Helvetica,sans-Serif" font-size="10.00">int lineFlow</text>
<text text-anchor="start" x="252.88" y="-762.5" font-family="Helvetica,sans-Serif" font-size="10.00">+</text>
<text text-anchor="start" x="262.88" y="-762.5" font-family="Helvetica,sans-Serif" font-size="10.00">bool addError(TokenResult</text>
<text text-anchor="start" x="262.88" y="-750.5" font-family="Helvetica,sans-Serif" font-size="10.00"> &amp;tRes, TokenVALUE value,</text>
<text text-anchor="start" x="262.88" y="-738.5" font-family="Helvetica,sans-Serif" font-size="10.00"> ErrorType et=ErrorType::</text>
<text text-anchor="start" x="262.88" y="-726.5" font-family="Helvetica,sans-Serif" font-size="10.00">MISSING)</text>
<text text-anchor="start" x="252.88" y="-710.5" font-family="Helvetica,sans-Serif" font-size="10.00">+</text>
<text text-anchor="start" x="262.88" y="-710.5" font-family="Helvetica,sans-Serif" font-size="10.00">bool addError(TokenResult</text>
<text text-anchor="start" x="262.88" y="-698.5" font-family="Helvetica,sans-Serif" font-size="10.00"> &amp;tRes, DataType type)</text>
<text text-anchor="start" x="252.88" y="-682.5" font-family="Helvetica,sans-Serif" font-size="10.00">+</text>
<text text-anchor="start" x="262.88" y="-682.5" font-family="Helvetica,sans-Serif" font-size="10.00">FlowToken()</text>
<text text-anchor="start" x="252.88" y="-666.5" font-family="Helvetica,sans-Serif" font-size="10.00">+</text>
<text text-anchor="start" x="262.88" y="-666.5" font-family="Helvetica,sans-Serif" font-size="10.00">FlowToken(int line)</text>
<text text-anchor="start" x="252.88" y="-650.5" font-family="Helvetica,sans-Serif" font-size="10.00">+</text>
<text text-anchor="start" x="262.88" y="-650.5" font-family="Helvetica,sans-Serif" font-size="10.00">void showTokenTree</text>
<text text-anchor="start" x="262.88" y="-638.5" font-family="Helvetica,sans-Serif" font-size="10.00">(const int nestedLayer)</text>
<text text-anchor="start" x="252.88" y="-622.5" font-family="Helvetica,sans-Serif" font-size="10.00">+</text>
<text text-anchor="start" x="262.88" y="-622.5" font-family="Helvetica,sans-Serif" font-size="10.00">bool addToken(TokenVALUE</text>
<text text-anchor="start" x="262.88" y="-610.5" font-family="Helvetica,sans-Serif" font-size="10.00"> tVal, IteratorList&lt; Token</text>
<text text-anchor="start" x="262.88" y="-598.5" font-family="Helvetica,sans-Serif" font-size="10.00"> &gt; &amp;tl, TokenResult &amp;tRes)</text>
<text text-anchor="start" x="252.88" y="-582.5" font-family="Helvetica,sans-Serif" font-size="10.00">+</text>
<text text-anchor="start" x="262.88" y="-582.5" font-family="Helvetica,sans-Serif" font-size="10.00">bool addType(DataType</text>
<text text-anchor="start" x="262.88" y="-570.5" font-family="Helvetica,sans-Serif" font-size="10.00"> tVal, IteratorList&lt;</text>
<text text-anchor="start" x="262.88" y="-558.5" font-family="Helvetica,sans-Serif" font-size="10.00"> Token &gt; &amp;tl, TokenResult</text>
<text text-anchor="start" x="262.88" y="-546.5" font-family="Helvetica,sans-Serif" font-size="10.00"> &amp;tRes)</text>
<text text-anchor="start" x="252.88" y="-530.5" font-family="Helvetica,sans-Serif" font-size="10.00">+</text>
<text text-anchor="start" x="262.88" y="-530.5" font-family="Helvetica,sans-Serif" font-size="10.00">bool addType(std::vector</text>
<text text-anchor="start" x="262.88" y="-518.5" font-family="Helvetica,sans-Serif" font-size="10.00">&lt; DataType &gt; listTypes,</text>
<text text-anchor="start" x="262.88" y="-506.5" font-family="Helvetica,sans-Serif" font-size="10.00"> IteratorList&lt; Token &gt; &amp;tl,</text>
<text text-anchor="start" x="262.88" y="-494.5" font-family="Helvetica,sans-Serif" font-size="10.00"> TokenResult &amp;tRes)</text>
<text text-anchor="start" x="253.25" y="-478.5" font-family="Helvetica,sans-Serif" font-size="10.00">#</text>
<text text-anchor="start" x="262.88" y="-478.5" font-family="Helvetica,sans-Serif" font-size="10.00">void printTabs(const</text>
<text text-anchor="start" x="262.88" y="-466.5" font-family="Helvetica,sans-Serif" font-size="10.00"> int nestedLayer)</text>
<text text-anchor="start" x="253.25" y="-450.5" font-family="Helvetica,sans-Serif" font-size="10.00">#</text>
<text text-anchor="start" x="262.88" y="-450.5" font-family="Helvetica,sans-Serif" font-size="10.00">bool addOb(IteratorList</text>
<text text-anchor="start" x="262.88" y="-438.5" font-family="Helvetica,sans-Serif" font-size="10.00">&lt; Token &gt; &amp;tl, TokenResult</text>
<text text-anchor="start" x="262.88" y="-426.5" font-family="Helvetica,sans-Serif" font-size="10.00"> &amp;tRes)</text>
<text text-anchor="start" x="253.25" y="-410.5" font-family="Helvetica,sans-Serif" font-size="10.00">#</text>
<text text-anchor="start" x="262.88" y="-410.5" font-family="Helvetica,sans-Serif" font-size="10.00">bool addCb(IteratorList</text>
<text text-anchor="start" x="262.88" y="-398.5" font-family="Helvetica,sans-Serif" font-size="10.00">&lt; Token &gt; &amp;tl, TokenResult</text>
<text text-anchor="start" x="262.88" y="-386.5" font-family="Helvetica,sans-Serif" font-size="10.00"> &amp;tRes)</text>
<text text-anchor="start" x="253.25" y="-370.5" font-family="Helvetica,sans-Serif" font-size="10.00">#</text>
<text text-anchor="start" x="262.88" y="-370.5" font-family="Helvetica,sans-Serif" font-size="10.00">bool addNestedTokens</text>
<text text-anchor="start" x="262.88" y="-358.5" font-family="Helvetica,sans-Serif" font-size="10.00">(IteratorList&lt; Token</text>
<text text-anchor="start" x="262.88" y="-346.5" font-family="Helvetica,sans-Serif" font-size="10.00"> &gt; &amp;tl, TokenResult &amp;tRes)</text>
<text text-anchor="start" x="253.25" y="-330.5" font-family="Helvetica,sans-Serif" font-size="10.00">#</text>
<text text-anchor="start" x="262.88" y="-330.5" font-family="Helvetica,sans-Serif" font-size="10.00">bool addBody(IteratorList</text>
<text text-anchor="start" x="262.88" y="-318.5" font-family="Helvetica,sans-Serif" font-size="10.00">&lt; Token &gt; &amp;tl, TokenResult &amp;tRes)</text>
<polygon fill="#666666" stroke="#666666" points="248.88,-818 248.88,-818 419.12,-818 419.12,-818 248.88,-818"/>
<polygon fill="#666666" stroke="#666666" points="248.88,-774 248.88,-774 260.88,-774 260.88,-774 248.88,-774"/>
<polygon fill="#666666" stroke="#666666" points="260.88,-774 260.88,-774 419.12,-774 419.12,-774 260.88,-774"/>
<polygon fill="none" stroke="#666666" points="248.88,-312 248.88,-836 419.12,-836 419.12,-312 248.88,-312"/>
</a>
</g>
</g>
<!-- Node7&#45;&gt;Node1 -->
<g id="edge6_Node000001_Node000007" class="edge">
<title>Node7&#45;&gt;Node1</title>
<g id="a_edge6_Node000001_Node000007"><a xlink:title=" ">
<path fill="none" stroke="#63b8ff" d="M268.16,-300.96C266.06,-292.28 264.03,-283.91 262.1,-275.93"/>
<polygon fill="none" stroke="#63b8ff" points="264.75,-301.74 270.5,-310.64 271.55,-300.1 264.75,-301.74"/>
</a>
</g>
</g>
</g>
</svg>
