<?xml version="1.0" encoding="UTF-8" standalone="no"?>
<!DOCTYPE svg PUBLIC "-//W3C//DTD SVG 1.1//EN"
 "http://www.w3.org/Graphics/SVG/1.1/DTD/svg11.dtd">
<!-- Generated by graphviz version 12.2.0 (20241103.1931)
 -->
<!-- Title: IteratorList&lt; T &gt; Pages: 1 -->
<svg width="151pt" height="480pt"
 viewBox="0.00 0.00 151.25 480.00" xmlns="http://www.w3.org/2000/svg" xmlns:xlink="http://www.w3.org/1999/xlink">
<g id="graph0" class="graph" transform="scale(1 1) rotate(0) translate(4 476)">
<title>IteratorList&lt; T &gt;</title>
<!-- Node1 -->
<g id="Node000001" class="node">
<title>Node1</title>
<g id="a_Node000001"><a xlink:title=" ">
<polygon fill="#999999" stroke="none" points="133.12,-472 10.12,-472 10.12,-260 133.12,-260 133.12,-472"/>
<text text-anchor="start" x="36.75" y="-458.5" font-family="Helvetica,sans-Serif" font-size="10.00">IteratorList&lt; T &gt;</text>
<text text-anchor="start" x="14.12" y="-442.5" font-family="Helvetica,sans-Serif" font-size="10.00">+</text>
<text text-anchor="start" x="24.12" y="-442.5" font-family="Helvetica,sans-Serif" font-size="10.00">std::vector&lt; std::shared</text>
<text text-anchor="start" x="24.12" y="-430.5" font-family="Helvetica,sans-Serif" font-size="10.00">_ptr&lt; T &gt; &gt; nextTokens</text>
<text text-anchor="start" x="14.12" y="-414.5" font-family="Helvetica,sans-Serif" font-size="10.00">+</text>
<text text-anchor="start" x="24.12" y="-414.5" font-family="Helvetica,sans-Serif" font-size="10.00">int current</text>
<text text-anchor="start" x="14.12" y="-398.5" font-family="Helvetica,sans-Serif" font-size="10.00">+</text>
<text text-anchor="start" x="24.12" y="-398.5" font-family="Helvetica,sans-Serif" font-size="10.00">IteratorList()</text>
<text text-anchor="start" x="14.12" y="-382.5" font-family="Helvetica,sans-Serif" font-size="10.00">+</text>
<text text-anchor="start" x="24.12" y="-382.5" font-family="Helvetica,sans-Serif" font-size="10.00">IteratorList(std::</text>
<text text-anchor="start" x="24.12" y="-370.5" font-family="Helvetica,sans-Serif" font-size="10.00">vector&lt; std::shared</text>
<text text-anchor="start" x="24.12" y="-358.5" font-family="Helvetica,sans-Serif" font-size="10.00">_ptr&lt; T &gt; &gt; nextTokens)</text>
<text text-anchor="start" x="14.12" y="-342.5" font-family="Helvetica,sans-Serif" font-size="10.00">+</text>
<text text-anchor="start" x="24.12" y="-342.5" font-family="Helvetica,sans-Serif" font-size="10.00">void next()</text>
<text text-anchor="start" x="14.12" y="-326.5" font-family="Helvetica,sans-Serif" font-size="10.00">+</text>
<text text-anchor="start" x="24.12" y="-326.5" font-family="Helvetica,sans-Serif" font-size="10.00">bool ended()</text>
<text text-anchor="start" x="14.12" y="-310.5" font-family="Helvetica,sans-Serif" font-size="10.00">+</text>
<text text-anchor="start" x="24.12" y="-310.5" font-family="Helvetica,sans-Serif" font-size="10.00">int size() const</text>
<text text-anchor="start" x="14.12" y="-294.5" font-family="Helvetica,sans-Serif" font-size="10.00">+</text>
<text text-anchor="start" x="24.12" y="-294.5" font-family="Helvetica,sans-Serif" font-size="10.00">std::shared_ptr&lt; T</text>
<text text-anchor="start" x="24.12" y="-282.5" font-family="Helvetica,sans-Serif" font-size="10.00"> &gt; currentToken()</text>
<text text-anchor="start" x="14.12" y="-266.5" font-family="Helvetica,sans-Serif" font-size="10.00">+</text>
<text text-anchor="start" x="24.12" y="-266.5" font-family="Helvetica,sans-Serif" font-size="10.00">bool empty() const</text>
<polygon fill="#666666" stroke="#666666" points="10.12,-454 10.12,-454 133.12,-454 133.12,-454 10.12,-454"/>
<polygon fill="#666666" stroke="#666666" points="10.12,-410 10.12,-410 22.12,-410 22.12,-410 10.12,-410"/>
<polygon fill="#666666" stroke="#666666" points="22.12,-410 22.12,-410 133.12,-410 133.12,-410 22.12,-410"/>
<polygon fill="none" stroke="#666666" points="10.12,-260 10.12,-472 133.12,-472 133.12,-260 10.12,-260"/>
</a>
</g>
</g>
<!-- Node2 -->
<g id="Node000002" class="node">
<title>Node2</title>
<g id="a_Node000002"><a xlink:href="class_iterator_list.html" target="_top" xlink:title=" ">
<polygon fill="white" stroke="none" points="143.25,-212 0,-212 0,0 143.25,0 143.25,-212"/>
<text text-anchor="start" x="26.62" y="-198.5" font-family="Helvetica,sans-Serif" font-size="10.00">IteratorList&lt; Token &gt;</text>
<text text-anchor="start" x="4" y="-182.5" font-family="Helvetica,sans-Serif" font-size="10.00">+</text>
<text text-anchor="start" x="14" y="-182.5" font-family="Helvetica,sans-Serif" font-size="10.00">std::vector&lt; std::shared</text>
<text text-anchor="start" x="14" y="-170.5" font-family="Helvetica,sans-Serif" font-size="10.00">_ptr&lt; Token &gt; &gt; nextTokens</text>
<text text-anchor="start" x="4" y="-154.5" font-family="Helvetica,sans-Serif" font-size="10.00">+</text>
<text text-anchor="start" x="14" y="-154.5" font-family="Helvetica,sans-Serif" font-size="10.00">int current</text>
<text text-anchor="start" x="4" y="-138.5" font-family="Helvetica,sans-Serif" font-size="10.00">+</text>
<text text-anchor="start" x="14" y="-138.5" font-family="Helvetica,sans-Serif" font-size="10.00">IteratorList()</text>
<text text-anchor="start" x="4" y="-122.5" font-family="Helvetica,sans-Serif" font-size="10.00">+</text>
<text text-anchor="start" x="14" y="-122.5" font-family="Helvetica,sans-Serif" font-size="10.00">IteratorList(std::</text>
<text text-anchor="start" x="14" y="-110.5" font-family="Helvetica,sans-Serif" font-size="10.00">vector&lt; std::shared</text>
<text text-anchor="start" x="14" y="-98.5" font-family="Helvetica,sans-Serif" font-size="10.00">_ptr&lt; Token &gt; &gt; nextTokens)</text>
<text text-anchor="start" x="4" y="-82.5" font-family="Helvetica,sans-Serif" font-size="10.00">+</text>
<text text-anchor="start" x="14" y="-82.5" font-family="Helvetica,sans-Serif" font-size="10.00">void next()</text>
<text text-anchor="start" x="4" y="-66.5" font-family="Helvetica,sans-Serif" font-size="10.00">+</text>
<text text-anchor="start" x="14" y="-66.5" font-family="Helvetica,sans-Serif" font-size="10.00">bool ended()</text>
<text text-anchor="start" x="4" y="-50.5" font-family="Helvetica,sans-Serif" font-size="10.00">+</text>
<text text-anchor="start" x="14" y="-50.5" font-family="Helvetica,sans-Serif" font-size="10.00">int size() const</text>
<text text-anchor="start" x="4" y="-34.5" font-family="Helvetica,sans-Serif" font-size="10.00">+</text>
<text text-anchor="start" x="14" y="-34.5" font-family="Helvetica,sans-Serif" font-size="10.00">std::shared_ptr&lt; Token</text>
<text text-anchor="start" x="14" y="-22.5" font-family="Helvetica,sans-Serif" font-size="10.00"> &gt; currentToken()</text>
<text text-anchor="start" x="4" y="-6.5" font-family="Helvetica,sans-Serif" font-size="10.00">+</text>
<text text-anchor="start" x="14" y="-6.5" font-family="Helvetica,sans-Serif" font-size="10.00">bool empty() const</text>
<polygon fill="#666666" stroke="#666666" points="0,-194 0,-194 143.25,-194 143.25,-194 0,-194"/>
<polygon fill="#666666" stroke="#666666" points="0,-150 0,-150 12,-150 12,-150 0,-150"/>
<polygon fill="#666666" stroke="#666666" points="12,-150 12,-150 143.25,-150 143.25,-150 12,-150"/>
<polygon fill="none" stroke="#666666" points="0,0 0,-212 143.25,-212 143.25,0 0,0"/>
</a>
</g>
</g>
<!-- Node1&#45;&gt;Node2 -->
<g id="edge1_Node000001_Node000002" class="edge">
<title>Node1&#45;&gt;Node2</title>
<g id="a_edge1_Node000001_Node000002"><a xlink:title=" ">
<path fill="none" stroke="orange" d="M71.62,-248.81C71.62,-236.49 71.62,-224.02 71.62,-211.85"/>
<polygon fill="orange" stroke="orange" points="68.13,-248.55 71.63,-258.55 75.13,-248.55 68.13,-248.55"/>
</a>
</g>
<text text-anchor="middle" x="94.88" y="-232.5" font-family="Helvetica,sans-Serif" font-size="10.00" fill="grey"> &lt; Token &gt;</text>
</g>
</g>
</svg>
