<?xml version="1.0" encoding="UTF-8" standalone="no"?>
<!DOCTYPE svg PUBLIC "-//W3C//DTD SVG 1.1//EN"
 "http://www.w3.org/Graphics/SVG/1.1/DTD/svg11.dtd">
<!-- Generated by graphviz version 12.2.0 (20241103.1931)
 -->
<!-- Title: FlowKToken Pages: 1 -->
<!--zoomable 1100 -->

<svg id="main" version="1.1" xmlns="http://www.w3.org/2000/svg" xmlns:xlink="http://www.w3.org/1999/xlink" xml:space="preserve" onload="init(evt)">

<style type="text/css"><![CDATA[
.node, .edge {opacity: 0.7;}
.node.selected, .edge.selected {opacity: 1;}
.edge:hover path { stroke: red; }
.edge:hover polygon { stroke: red; fill: red; }
]]></style>

<defs>
  <circle id="rim" cx="0" cy="0" r="7"/>
  <circle id="rim2" cx="0" cy="0" r="3.5"/>
  <g id="zoomPlus">
    <use xlink:href="#rim" fill="#404040"><set attributeName="fill" to="#808080" begin="zoomplus.mouseover" end="zoomplus.mouseout"/></use>
    <path d="M-4,0h8M0,-4v8" fill="none" stroke="white" stroke-width="1.5" pointer-events="none"/>
  </g>
  <g id="zoomMin">
    <use xlink:href="#rim" fill="#404040"><set attributeName="fill" to="#808080" begin="zoomminus.mouseover" end="zoomminus.mouseout"/></use>
    <path d="M-4,0h8" fill="none" stroke="white" stroke-width="1.5" pointer-events="none"/>
  </g>
  <g id="arrowUp" transform="translate(30 24)">
    <use xlink:href="#rim"/>
    <path pointer-events="none" fill="none" stroke="white" stroke-width="1.5" d="M0,-3.0v7 M-2.5,-0.5L0,-3.0L2.5,-0.5"/>
  </g>
  <g id="arrowRight" transform="rotate(90) translate(36 -43)">
    <use xlink:href="#rim"/>
    <path pointer-events="none" fill="none" stroke="white" stroke-width="1.5" d="M0,-3.0v7 M-2.5,-0.5L0,-3.0L2.5,-0.5"/>
  </g>
  <g id="arrowDown" transform="rotate(180) translate(-30 -48)">
    <use xlink:href="#rim"/>
    <path pointer-events="none" fill="none" stroke="white" stroke-width="1.5" d="M0,-3.0v7 M-2.5,-0.5L0,-3.0L2.5,-0.5"/>
  </g>
  <g id="arrowLeft" transform="rotate(270) translate(-36 17)">
    <use xlink:href="#rim"/>
    <path pointer-events="none" fill="none" stroke="white" stroke-width="1.5" d="M0,-3.0v7 M-2.5,-0.5L0,-3.0L2.5,-0.5"/>
  </g>
  <g id="resetDef">
    <use xlink:href="#rim2" fill="#404040"><set attributeName="fill" to="#808080" begin="reset.mouseover" end="reset.mouseout"/></use>
  </g>
</defs>
<script type="application/ecmascript">
var viewWidth = 335;
var viewHeight = 1100;
var sectionId = 'dynsection-1';
</script>
<script type="application/ecmascript" xlink:href="svg.min.js"/>
<svg id="graph" class="graph">
<g id="viewport">
<title>FlowKToken</title>
<!-- Node1 -->
<g id="Node000001" class="node">
<title>Node1</title>
<g id="a_Node000001"><a xlink:title=" ">
<polygon fill="#999999" stroke="none" points="224.12,-132 87.62,-132 87.62,0 224.12,0 224.12,-132"/>
<text text-anchor="start" x="128.88" y="-118.5" font-family="Helvetica,sans-Serif" font-size="10.00">FlowKToken</text>
<text text-anchor="start" x="154.38" y="-102.5" font-family="Helvetica,sans-Serif" font-size="10.00"> </text>
<text text-anchor="start" x="91.62" y="-86.5" font-family="Helvetica,sans-Serif" font-size="10.00">+</text>
<text text-anchor="start" x="101.62" y="-86.5" font-family="Helvetica,sans-Serif" font-size="10.00">FlowKToken()</text>
<text text-anchor="start" x="91.62" y="-70.5" font-family="Helvetica,sans-Serif" font-size="10.00">+</text>
<text text-anchor="start" x="101.62" y="-70.5" font-family="Helvetica,sans-Serif" font-size="10.00">void showTokenTree</text>
<text text-anchor="start" x="101.62" y="-58.5" font-family="Helvetica,sans-Serif" font-size="10.00">(const int nestedLayer)</text>
<text text-anchor="start" x="101.62" y="-46.5" font-family="Helvetica,sans-Serif" font-size="10.00"> override</text>
<text text-anchor="start" x="92" y="-30.5" font-family="Helvetica,sans-Serif" font-size="10.00">#</text>
<text text-anchor="start" x="101.62" y="-30.5" font-family="Helvetica,sans-Serif" font-size="10.00">bool addTokens(IteratorList</text>
<text text-anchor="start" x="101.62" y="-18.5" font-family="Helvetica,sans-Serif" font-size="10.00">&lt; Token &gt; &amp;tl, TokenResult</text>
<text text-anchor="start" x="101.62" y="-6.5" font-family="Helvetica,sans-Serif" font-size="10.00"> &amp;tRes) override</text>
<polygon fill="#666666" stroke="#666666" points="87.62,-114 87.62,-114 224.12,-114 224.12,-114 87.62,-114"/>
<polygon fill="#666666" stroke="#666666" points="87.62,-98 87.62,-98 224.12,-98 224.12,-98 87.62,-98"/>
<polygon fill="none" stroke="#666666" points="87.62,0 87.62,-132 224.12,-132 224.12,0 87.62,0"/>
</a>
</g>
</g>
<!-- Node2 -->
<g id="Node000002" class="node">
<title>Node2</title>
<g id="a_Node000002"><a xlink:href="class_k_token.html" target="_top" xlink:title=" ">
<polygon fill="white" stroke="none" points="138.75,-468 3,-468 3,-392 138.75,-392 138.75,-468"/>
<text text-anchor="start" x="54.38" y="-454.5" font-family="Helvetica,sans-Serif" font-size="10.00">KToken</text>
<text text-anchor="start" x="69.38" y="-438.5" font-family="Helvetica,sans-Serif" font-size="10.00"> </text>
<text text-anchor="start" x="7" y="-422.5" font-family="Helvetica,sans-Serif" font-size="10.00">#</text>
<text text-anchor="start" x="16.25" y="-422.5" font-family="Helvetica,sans-Serif" font-size="10.00">bool addTokens(IteratorList</text>
<text text-anchor="start" x="16.25" y="-410.5" font-family="Helvetica,sans-Serif" font-size="10.00">&lt; Token &gt; &amp;tl, TokenResult</text>
<text text-anchor="start" x="16.25" y="-398.5" font-family="Helvetica,sans-Serif" font-size="10.00"> &amp;tRes) override</text>
<polygon fill="#666666" stroke="#666666" points="3,-450 3,-450 138.75,-450 138.75,-450 3,-450"/>
<polygon fill="#666666" stroke="#666666" points="3,-434 3,-434 138.75,-434 138.75,-434 3,-434"/>
<polygon fill="none" stroke="#666666" points="3,-392 3,-468 138.75,-468 138.75,-392 3,-392"/>
</a>
</g>
</g>
<!-- Node2&#45;&gt;Node1 -->
<g id="edge1_Node000001_Node000002" class="edge">
<title>Node2&#45;&gt;Node1</title>
<g id="a_edge1_Node000001_Node000002"><a xlink:title=" ">
<path fill="none" stroke="#63b8ff" d="M82.07,-381.33C97.09,-317.36 123.83,-203.48 140.66,-131.78"/>
<polygon fill="none" stroke="#63b8ff" points="78.72,-380.29 79.84,-390.82 85.53,-381.89 78.72,-380.29"/>
</a>
</g>
</g>
<!-- Node3 -->
<g id="Node000003" class="node">
<title>Node3</title>
<g id="a_Node000003"><a xlink:href="class_token.html" target="_top" xlink:title=" ">
<polygon fill="white" stroke="none" points="141.75,-1092 0,-1092 0,-728 141.75,-728 141.75,-1092"/>
<text text-anchor="start" x="57.75" y="-1078.5" font-family="Helvetica,sans-Serif" font-size="10.00">Token</text>
<text text-anchor="start" x="4.38" y="-1062.5" font-family="Helvetica,sans-Serif" font-size="10.00">#</text>
<text text-anchor="start" x="14" y="-1062.5" font-family="Helvetica,sans-Serif" font-size="10.00">std::string tokenText</text>
<text text-anchor="start" x="4.38" y="-1046.5" font-family="Helvetica,sans-Serif" font-size="10.00">#</text>
<text text-anchor="start" x="14" y="-1046.5" font-family="Helvetica,sans-Serif" font-size="10.00">TokenVALUE tValue</text>
<text text-anchor="start" x="4.38" y="-1030.5" font-family="Helvetica,sans-Serif" font-size="10.00">#</text>
<text text-anchor="start" x="14" y="-1030.5" font-family="Helvetica,sans-Serif" font-size="10.00">int line</text>
<text text-anchor="start" x="4" y="-1014.5" font-family="Helvetica,sans-Serif" font-size="10.00">+</text>
<text text-anchor="start" x="14" y="-1014.5" font-family="Helvetica,sans-Serif" font-size="10.00">Token()</text>
<text text-anchor="start" x="4" y="-998.5" font-family="Helvetica,sans-Serif" font-size="10.00">+</text>
<text text-anchor="start" x="14" y="-998.5" font-family="Helvetica,sans-Serif" font-size="10.00">virtual DataType getData</text>
<text text-anchor="start" x="14" y="-986.5" font-family="Helvetica,sans-Serif" font-size="10.00">Type(TokenResult &amp;tRes)</text>
<text text-anchor="start" x="4" y="-970.5" font-family="Helvetica,sans-Serif" font-size="10.00">+</text>
<text text-anchor="start" x="14" y="-970.5" font-family="Helvetica,sans-Serif" font-size="10.00">virtual void showTokenTree</text>
<text text-anchor="start" x="14" y="-958.5" font-family="Helvetica,sans-Serif" font-size="10.00">(const int nestedLayer)</text>
<text text-anchor="start" x="4" y="-942.5" font-family="Helvetica,sans-Serif" font-size="10.00">+</text>
<text text-anchor="start" x="14" y="-942.5" font-family="Helvetica,sans-Serif" font-size="10.00">TokenVALUE getValue()</text>
<text text-anchor="start" x="4" y="-926.5" font-family="Helvetica,sans-Serif" font-size="10.00">+</text>
<text text-anchor="start" x="14" y="-926.5" font-family="Helvetica,sans-Serif" font-size="10.00">bool addError(TokenResult</text>
<text text-anchor="start" x="14" y="-914.5" font-family="Helvetica,sans-Serif" font-size="10.00"> &amp;tRes, TokenVALUE value,</text>
<text text-anchor="start" x="14" y="-902.5" font-family="Helvetica,sans-Serif" font-size="10.00"> ErrorType et=ErrorType::</text>
<text text-anchor="start" x="14" y="-890.5" font-family="Helvetica,sans-Serif" font-size="10.00">MISSING)</text>
<text text-anchor="start" x="4" y="-874.5" font-family="Helvetica,sans-Serif" font-size="10.00">+</text>
<text text-anchor="start" x="14" y="-874.5" font-family="Helvetica,sans-Serif" font-size="10.00">bool addError(TokenResult</text>
<text text-anchor="start" x="14" y="-862.5" font-family="Helvetica,sans-Serif" font-size="10.00"> &amp;tRes, DataType type)</text>
<text text-anchor="start" x="4" y="-846.5" font-family="Helvetica,sans-Serif" font-size="10.00">+</text>
<text text-anchor="start" x="14" y="-846.5" font-family="Helvetica,sans-Serif" font-size="10.00">std::string getTokenText()</text>
<text text-anchor="start" x="4" y="-830.5" font-family="Helvetica,sans-Serif" font-size="10.00">+</text>
<text text-anchor="start" x="14" y="-830.5" font-family="Helvetica,sans-Serif" font-size="10.00">int getLine()</text>
<text text-anchor="start" x="4" y="-814.5" font-family="Helvetica,sans-Serif" font-size="10.00">+</text>
<text text-anchor="start" x="14" y="-814.5" font-family="Helvetica,sans-Serif" font-size="10.00">bool hasValue(TokenVALUE</text>
<text text-anchor="start" x="14" y="-802.5" font-family="Helvetica,sans-Serif" font-size="10.00"> value) const</text>
<text text-anchor="start" x="4" y="-786.5" font-family="Helvetica,sans-Serif" font-size="10.00">+</text>
<text text-anchor="start" x="14" y="-786.5" font-family="Helvetica,sans-Serif" font-size="10.00">virtual bool addTokens</text>
<text text-anchor="start" x="14" y="-774.5" font-family="Helvetica,sans-Serif" font-size="10.00">(IteratorList&lt; Token &gt;</text>
<text text-anchor="start" x="14" y="-762.5" font-family="Helvetica,sans-Serif" font-size="10.00"> &amp;tl, TokenResult &amp;tRes)</text>
<text text-anchor="start" x="4" y="-746.5" font-family="Helvetica,sans-Serif" font-size="10.00">+</text>
<text text-anchor="start" x="14" y="-746.5" font-family="Helvetica,sans-Serif" font-size="10.00">virtual std::shared</text>
<text text-anchor="start" x="14" y="-734.5" font-family="Helvetica,sans-Serif" font-size="10.00">_ptr&lt; Tag &gt; execute()</text>
<polygon fill="#666666" stroke="#666666" points="0,-1074 0,-1074 141.75,-1074 141.75,-1074 0,-1074"/>
<polygon fill="#666666" stroke="#666666" points="0,-1026 0,-1026 12,-1026 12,-1026 0,-1026"/>
<polygon fill="#666666" stroke="#666666" points="12,-1026 12,-1026 141.75,-1026 141.75,-1026 12,-1026"/>
<polygon fill="none" stroke="#666666" points="0,-728 0,-1092 141.75,-1092 141.75,-728 0,-728"/>
</a>
</g>
</g>
<!-- Node3&#45;&gt;Node2 -->
<g id="edge2_Node000002_Node000003" class="edge">
<title>Node3&#45;&gt;Node2</title>
<g id="a_edge2_Node000002_Node000003"><a xlink:title=" ">
<path fill="none" stroke="#63b8ff" d="M70.88,-717.02C70.88,-624.15 70.88,-521.43 70.88,-467.96"/>
<polygon fill="none" stroke="#63b8ff" points="67.38,-716.78 70.88,-726.78 74.38,-716.78 67.38,-716.78"/>
</a>
</g>
</g>
<!-- Node4 -->
<g id="Node000004" class="node">
<title>Node4</title>
<g id="a_Node000004"><a xlink:href="class_flow_token.html" target="_top" xlink:title=" ">
<polygon fill="white" stroke="none" points="327,-692 156.75,-692 156.75,-168 327,-168 327,-692"/>
<text text-anchor="start" x="218.25" y="-678.5" font-family="Helvetica,sans-Serif" font-size="10.00">FlowToken</text>
<text text-anchor="start" x="161.12" y="-662.5" font-family="Helvetica,sans-Serif" font-size="10.00">#</text>
<text text-anchor="start" x="170.75" y="-662.5" font-family="Helvetica,sans-Serif" font-size="10.00">std::vector&lt; std::shared</text>
<text text-anchor="start" x="170.75" y="-650.5" font-family="Helvetica,sans-Serif" font-size="10.00">_ptr&lt; Token &gt; &gt; nestedTokens</text>
<text text-anchor="start" x="161.12" y="-634.5" font-family="Helvetica,sans-Serif" font-size="10.00">#</text>
<text text-anchor="start" x="170.75" y="-634.5" font-family="Helvetica,sans-Serif" font-size="10.00">int lineFlow</text>
<text text-anchor="start" x="160.75" y="-618.5" font-family="Helvetica,sans-Serif" font-size="10.00">+</text>
<text text-anchor="start" x="170.75" y="-618.5" font-family="Helvetica,sans-Serif" font-size="10.00">bool addError(TokenResult</text>
<text text-anchor="start" x="170.75" y="-606.5" font-family="Helvetica,sans-Serif" font-size="10.00"> &amp;tRes, TokenVALUE value,</text>
<text text-anchor="start" x="170.75" y="-594.5" font-family="Helvetica,sans-Serif" font-size="10.00"> ErrorType et=ErrorType::</text>
<text text-anchor="start" x="170.75" y="-582.5" font-family="Helvetica,sans-Serif" font-size="10.00">MISSING)</text>
<text text-anchor="start" x="160.75" y="-566.5" font-family="Helvetica,sans-Serif" font-size="10.00">+</text>
<text text-anchor="start" x="170.75" y="-566.5" font-family="Helvetica,sans-Serif" font-size="10.00">bool addError(TokenResult</text>
<text text-anchor="start" x="170.75" y="-554.5" font-family="Helvetica,sans-Serif" font-size="10.00"> &amp;tRes, DataType type)</text>
<text text-anchor="start" x="160.75" y="-538.5" font-family="Helvetica,sans-Serif" font-size="10.00">+</text>
<text text-anchor="start" x="170.75" y="-538.5" font-family="Helvetica,sans-Serif" font-size="10.00">FlowToken()</text>
<text text-anchor="start" x="160.75" y="-522.5" font-family="Helvetica,sans-Serif" font-size="10.00">+</text>
<text text-anchor="start" x="170.75" y="-522.5" font-family="Helvetica,sans-Serif" font-size="10.00">FlowToken(int line)</text>
<text text-anchor="start" x="160.75" y="-506.5" font-family="Helvetica,sans-Serif" font-size="10.00">+</text>
<text text-anchor="start" x="170.75" y="-506.5" font-family="Helvetica,sans-Serif" font-size="10.00">void showTokenTree</text>
<text text-anchor="start" x="170.75" y="-494.5" font-family="Helvetica,sans-Serif" font-size="10.00">(const int nestedLayer)</text>
<text text-anchor="start" x="160.75" y="-478.5" font-family="Helvetica,sans-Serif" font-size="10.00">+</text>
<text text-anchor="start" x="170.75" y="-478.5" font-family="Helvetica,sans-Serif" font-size="10.00">bool addToken(TokenVALUE</text>
<text text-anchor="start" x="170.75" y="-466.5" font-family="Helvetica,sans-Serif" font-size="10.00"> tVal, IteratorList&lt; Token</text>
<text text-anchor="start" x="170.75" y="-454.5" font-family="Helvetica,sans-Serif" font-size="10.00"> &gt; &amp;tl, TokenResult &amp;tRes)</text>
<text text-anchor="start" x="160.75" y="-438.5" font-family="Helvetica,sans-Serif" font-size="10.00">+</text>
<text text-anchor="start" x="170.75" y="-438.5" font-family="Helvetica,sans-Serif" font-size="10.00">bool addType(DataType</text>
<text text-anchor="start" x="170.75" y="-426.5" font-family="Helvetica,sans-Serif" font-size="10.00"> tVal, IteratorList&lt;</text>
<text text-anchor="start" x="170.75" y="-414.5" font-family="Helvetica,sans-Serif" font-size="10.00"> Token &gt; &amp;tl, TokenResult</text>
<text text-anchor="start" x="170.75" y="-402.5" font-family="Helvetica,sans-Serif" font-size="10.00"> &amp;tRes)</text>
<text text-anchor="start" x="160.75" y="-386.5" font-family="Helvetica,sans-Serif" font-size="10.00">+</text>
<text text-anchor="start" x="170.75" y="-386.5" font-family="Helvetica,sans-Serif" font-size="10.00">bool addType(std::vector</text>
<text text-anchor="start" x="170.75" y="-374.5" font-family="Helvetica,sans-Serif" font-size="10.00">&lt; DataType &gt; listTypes,</text>
<text text-anchor="start" x="170.75" y="-362.5" font-family="Helvetica,sans-Serif" font-size="10.00"> IteratorList&lt; Token &gt; &amp;tl,</text>
<text text-anchor="start" x="170.75" y="-350.5" font-family="Helvetica,sans-Serif" font-size="10.00"> TokenResult &amp;tRes)</text>
<text text-anchor="start" x="161.12" y="-334.5" font-family="Helvetica,sans-Serif" font-size="10.00">#</text>
<text text-anchor="start" x="170.75" y="-334.5" font-family="Helvetica,sans-Serif" font-size="10.00">void printTabs(const</text>
<text text-anchor="start" x="170.75" y="-322.5" font-family="Helvetica,sans-Serif" font-size="10.00"> int nestedLayer)</text>
<text text-anchor="start" x="161.12" y="-306.5" font-family="Helvetica,sans-Serif" font-size="10.00">#</text>
<text text-anchor="start" x="170.75" y="-306.5" font-family="Helvetica,sans-Serif" font-size="10.00">bool addOb(IteratorList</text>
<text text-anchor="start" x="170.75" y="-294.5" font-family="Helvetica,sans-Serif" font-size="10.00">&lt; Token &gt; &amp;tl, TokenResult</text>
<text text-anchor="start" x="170.75" y="-282.5" font-family="Helvetica,sans-Serif" font-size="10.00"> &amp;tRes)</text>
<text text-anchor="start" x="161.12" y="-266.5" font-family="Helvetica,sans-Serif" font-size="10.00">#</text>
<text text-anchor="start" x="170.75" y="-266.5" font-family="Helvetica,sans-Serif" font-size="10.00">bool addCb(IteratorList</text>
<text text-anchor="start" x="170.75" y="-254.5" font-family="Helvetica,sans-Serif" font-size="10.00">&lt; Token &gt; &amp;tl, TokenResult</text>
<text text-anchor="start" x="170.75" y="-242.5" font-family="Helvetica,sans-Serif" font-size="10.00"> &amp;tRes)</text>
<text text-anchor="start" x="161.12" y="-226.5" font-family="Helvetica,sans-Serif" font-size="10.00">#</text>
<text text-anchor="start" x="170.75" y="-226.5" font-family="Helvetica,sans-Serif" font-size="10.00">bool addNestedTokens</text>
<text text-anchor="start" x="170.75" y="-214.5" font-family="Helvetica,sans-Serif" font-size="10.00">(IteratorList&lt; Token</text>
<text text-anchor="start" x="170.75" y="-202.5" font-family="Helvetica,sans-Serif" font-size="10.00"> &gt; &amp;tl, TokenResult &amp;tRes)</text>
<text text-anchor="start" x="161.12" y="-186.5" font-family="Helvetica,sans-Serif" font-size="10.00">#</text>
<text text-anchor="start" x="170.75" y="-186.5" font-family="Helvetica,sans-Serif" font-size="10.00">bool addBody(IteratorList</text>
<text text-anchor="start" x="170.75" y="-174.5" font-family="Helvetica,sans-Serif" font-size="10.00">&lt; Token &gt; &amp;tl, TokenResult &amp;tRes)</text>
<polygon fill="#666666" stroke="#666666" points="156.75,-674 156.75,-674 327,-674 327,-674 156.75,-674"/>
<polygon fill="#666666" stroke="#666666" points="156.75,-630 156.75,-630 168.75,-630 168.75,-630 156.75,-630"/>
<polygon fill="#666666" stroke="#666666" points="168.75,-630 168.75,-630 327,-630 327,-630 168.75,-630"/>
<polygon fill="none" stroke="#666666" points="156.75,-168 156.75,-692 327,-692 327,-168 156.75,-168"/>
</a>
</g>
</g>
<!-- Node4&#45;&gt;Node1 -->
<g id="edge3_Node000001_Node000004" class="edge">
<title>Node4&#45;&gt;Node1</title>
<g id="a_edge3_Node000001_Node000004"><a xlink:title=" ">
<path fill="none" stroke="#63b8ff" d="M177.31,-157.24C175.19,-148.31 173.16,-139.77 171.26,-131.77"/>
<polygon fill="none" stroke="#63b8ff" points="173.88,-157.93 179.6,-166.85 180.69,-156.31 173.88,-157.93"/>
</a>
</g>
</g>
</g>
</svg>

<g id="navigator" transform="translate(0 0)" fill="#404254">
  <rect fill="#f2f5e9" fill-opacity="0.5" stroke="#606060" stroke-width=".5" x="0" y="0" width="60" height="60"/>
  <use id="zoomplus" xlink:href="#zoomPlus" x="17" y="9" onmousedown="handleZoom(evt,'in')"/>
  <use id="zoomminus" xlink:href="#zoomMin" x="42" y="9" onmousedown="handleZoom(evt,'out')"/>
  <use id="reset" xlink:href="#resetDef" x="30" y="36" onmousedown="handleReset()"/>
   <use id="arrowup" xlink:href="#arrowUp" x="0" y="0" onmousedown="handlePan(0,-1)"/>
  <use id="arrowright" xlink:href="#arrowRight" x="0" y="0" onmousedown="handlePan(1,0)"/>
  <use id="arrowdown" xlink:href="#arrowDown" x="0" y="0" onmousedown="handlePan(0,1)"/>
  <use id="arrowleft" xlink:href="#arrowLeft" x="0" y="0" onmousedown="handlePan(-1,0)"/>
</g>
<svg viewBox="0 0 15 15" width="100%" height="30px" preserveAspectRatio="xMaxYMin meet">
 <g id="arrow_out" transform="scale(0.3 0.3)">
  <a xlink:href="class_flow_k_token__coll__graph_org.svg" target="_base">
   <rect id="button" ry="5" rx="5" y="6" x="6" height="38" width="38"
        fill="#f2f5e9" fill-opacity="0.5" stroke="#606060" stroke-width="1.0"/>
   <path id="arrow"
     d="M 11.500037,31.436501 C 11.940474,20.09759 22.043105,11.32322 32.158766,21.979434 L 37.068811,17.246167 C 37.068811,17.246167 37.088388,32 37.088388,32 L 22.160133,31.978069 C 22.160133,31.978069 26.997745,27.140456 26.997745,27.140456 C 18.528582,18.264221 13.291696,25.230495 11.500037,31.436501 z"
     style="fill:#404040;"/>
  </a>
 </g>
</svg>

<style type='text/css'>
<![CDATA[
[data-mouse-over-selected='false'] { opacity: 0.7; }
[data-mouse-over-selected='true']  { opacity: 1.0; }
]]>
</style>
<script type="application/ecmascript"><![CDATA[
document.addEventListener('DOMContentLoaded', (event) => {
  highlightEdges();
  highlightAdjacentNodes();
});
]]></script>
</svg>
