<?xml version="1.0" encoding="UTF-8" standalone="no"?>
<!DOCTYPE svg PUBLIC "-//W3C//DTD SVG 1.1//EN"
 "http://www.w3.org/Graphics/SVG/1.1/DTD/svg11.dtd">
<!-- Generated by graphviz version 12.2.0 (20241103.1931)
 -->
<!-- Title: FlowToken::addError Pages: 1 -->
<!--zoomable 104 -->

<svg id="main" version="1.1" xmlns="http://www.w3.org/2000/svg" xmlns:xlink="http://www.w3.org/1999/xlink" xml:space="preserve" onload="init(evt)">

<style type="text/css"><![CDATA[
.node, .edge {opacity: 0.7;}
.node.selected, .edge.selected {opacity: 1;}
.edge:hover path { stroke: red; }
.edge:hover polygon { stroke: red; fill: red; }
]]></style>

<defs>
  <circle id="rim" cx="0" cy="0" r="7"/>
  <circle id="rim2" cx="0" cy="0" r="3.5"/>
  <g id="zoomPlus">
    <use xlink:href="#rim" fill="#404040"><set attributeName="fill" to="#808080" begin="zoomplus.mouseover" end="zoomplus.mouseout"/></use>
    <path d="M-4,0h8M0,-4v8" fill="none" stroke="white" stroke-width="1.5" pointer-events="none"/>
  </g>
  <g id="zoomMin">
    <use xlink:href="#rim" fill="#404040"><set attributeName="fill" to="#808080" begin="zoomminus.mouseover" end="zoomminus.mouseout"/></use>
    <path d="M-4,0h8" fill="none" stroke="white" stroke-width="1.5" pointer-events="none"/>
  </g>
  <g id="arrowUp" transform="translate(30 24)">
    <use xlink:href="#rim"/>
    <path pointer-events="none" fill="none" stroke="white" stroke-width="1.5" d="M0,-3.0v7 M-2.5,-0.5L0,-3.0L2.5,-0.5"/>
  </g>
  <g id="arrowRight" transform="rotate(90) translate(36 -43)">
    <use xlink:href="#rim"/>
    <path pointer-events="none" fill="none" stroke="white" stroke-width="1.5" d="M0,-3.0v7 M-2.5,-0.5L0,-3.0L2.5,-0.5"/>
  </g>
  <g id="arrowDown" transform="rotate(180) translate(-30 -48)">
    <use xlink:href="#rim"/>
    <path pointer-events="none" fill="none" stroke="white" stroke-width="1.5" d="M0,-3.0v7 M-2.5,-0.5L0,-3.0L2.5,-0.5"/>
  </g>
  <g id="arrowLeft" transform="rotate(270) translate(-36 17)">
    <use xlink:href="#rim"/>
    <path pointer-events="none" fill="none" stroke="white" stroke-width="1.5" d="M0,-3.0v7 M-2.5,-0.5L0,-3.0L2.5,-0.5"/>
  </g>
  <g id="resetDef">
    <use xlink:href="#rim2" fill="#404040"><set attributeName="fill" to="#808080" begin="reset.mouseover" end="reset.mouseout"/></use>
  </g>
</defs>
<script type="application/ecmascript">
var viewWidth = 761;
var viewHeight = 104;
var sectionId = 'dynsection-8';
</script>
<script type="application/ecmascript" xlink:href="svg.min.js"/>
<svg id="graph" class="graph">
<g id="viewport">
<title>FlowToken::addError</title>
<!-- Node1 -->
<g id="Node000001" class="node">
<title>Node1</title>
<g id="a_Node000001"><a xlink:title=" ">
<polygon fill="#999999" stroke="#666666" points="752.75,-58 646.75,-58 646.75,-38 752.75,-38 752.75,-58"/>
<text text-anchor="middle" x="699.75" y="-44.5" font-family="Helvetica,sans-Serif" font-size="10.00">FlowToken::addError</text>
</a>
</g>
</g>
<!-- Node2 -->
<g id="Node000002" class="node">
<title>Node2</title>
<g id="a_Node000002"><a xlink:href="class_flow_token.html#adf13c232a8b5279ae0027df6859fdd12" target="_top" xlink:title=" ">
<polygon fill="white" stroke="#666666" points="610.75,-77 462.75,-77 462.75,-57 610.75,-57 610.75,-77"/>
<text text-anchor="middle" x="536.75" y="-63.5" font-family="Helvetica,sans-Serif" font-size="10.00">FlowToken::addNestedTokens</text>
</a>
</g>
</g>
<!-- Node1&#45;&gt;Node2 -->
<g id="edge1_Node000001_Node000002" class="edge">
<title>Node1&#45;&gt;Node2</title>
<g id="a_edge1_Node000001_Node000002"><a xlink:title=" ">
<path fill="none" stroke="#63b8ff" d="M635.12,-55.51C627.24,-56.44 619.13,-57.4 611.11,-58.34"/>
<polygon fill="#63b8ff" stroke="#63b8ff" points="635.45,-58.99 644.97,-54.35 634.63,-52.04 635.45,-58.99"/>
</a>
</g>
</g>
<!-- Node8 -->
<g id="Node000008" class="node">
<title>Node8</title>
<g id="a_Node000008"><a xlink:href="class_flow_token.html#a7403770ae8bbe3efb6ec95608a5318be" target="_top" xlink:title=" ">
<polygon fill="white" stroke="#666666" points="585.62,-39 487.88,-39 487.88,-19 585.62,-19 585.62,-39"/>
<text text-anchor="middle" x="536.75" y="-25.5" font-family="Helvetica,sans-Serif" font-size="10.00">FlowToken::addOb</text>
</a>
</g>
</g>
<!-- Node1&#45;&gt;Node8 -->
<g id="edge7_Node000001_Node000008" class="edge">
<title>Node1&#45;&gt;Node8</title>
<g id="a_edge7_Node000001_Node000008"><a xlink:title=" ">
<path fill="none" stroke="#63b8ff" d="M635.3,-40.51C618.87,-38.57 601.45,-36.52 585.94,-34.69"/>
<polygon fill="#63b8ff" stroke="#63b8ff" points="634.63,-43.96 644.97,-41.65 635.45,-37.01 634.63,-43.96"/>
</a>
</g>
</g>
<!-- Node3 -->
<g id="Node000003" class="node">
<title>Node3</title>
<g id="a_Node000003"><a xlink:href="class_flow_token.html#abb30bac4dada1a3372776680719d517c" target="_top" xlink:title=" ">
<polygon fill="white" stroke="#666666" points="426.75,-58 319.25,-58 319.25,-38 426.75,-38 426.75,-58"/>
<text text-anchor="middle" x="373" y="-44.5" font-family="Helvetica,sans-Serif" font-size="10.00">FlowToken::addBody</text>
</a>
</g>
</g>
<!-- Node2&#45;&gt;Node3 -->
<g id="edge2_Node000002_Node000003" class="edge">
<title>Node2&#45;&gt;Node3</title>
<g id="a_edge2_Node000002_Node000003"><a xlink:title=" ">
<path fill="none" stroke="#63b8ff" d="M451.29,-57.08C443.1,-56.12 434.97,-55.16 427.22,-54.25"/>
<polygon fill="#63b8ff" stroke="#63b8ff" points="450.6,-60.52 460.94,-58.21 451.42,-53.57 450.6,-60.52"/>
</a>
</g>
</g>
<!-- Node4 -->
<g id="Node000004" class="node">
<title>Node4</title>
<g id="a_Node000004"><a xlink:href="class_flow_c_k_token.html#a70e9e870b981aca2c2995a7fcceac2ac" target="_top" xlink:title=" ">
<polygon fill="white" stroke="#666666" points="283.25,-96 152.5,-96 152.5,-76 283.25,-76 283.25,-96"/>
<text text-anchor="middle" x="217.88" y="-82.5" font-family="Helvetica,sans-Serif" font-size="10.00">FlowCKToken::addTokens</text>
</a>
</g>
</g>
<!-- Node3&#45;&gt;Node4 -->
<g id="edge3_Node000003_Node000004" class="edge">
<title>Node3&#45;&gt;Node4</title>
<g id="a_edge3_Node000003_Node000004"><a xlink:title=" ">
<path fill="none" stroke="#63b8ff" d="M318.62,-61.25C299.74,-65.93 278.79,-71.13 260.98,-75.55"/>
<polygon fill="#63b8ff" stroke="#63b8ff" points="319.42,-64.65 328.28,-58.85 317.73,-57.86 319.42,-64.65"/>
</a>
</g>
</g>
<!-- Node5 -->
<g id="Node000005" class="node">
<title>Node5</title>
<g id="a_Node000005"><a xlink:href="class_flow_k_token.html#a61c9d0279bdf37b161af7c4153e92e98" target="_top" xlink:title=" ">
<polygon fill="white" stroke="#666666" points="279.5,-58 156.25,-58 156.25,-38 279.5,-38 279.5,-58"/>
<text text-anchor="middle" x="217.88" y="-44.5" font-family="Helvetica,sans-Serif" font-size="10.00">FlowKToken::addTokens</text>
</a>
</g>
</g>
<!-- Node3&#45;&gt;Node5 -->
<g id="edge4_Node000003_Node000005" class="edge">
<title>Node3&#45;&gt;Node5</title>
<g id="a_edge4_Node000003_Node000005"><a xlink:title=" ">
<path fill="none" stroke="#63b8ff" d="M307.43,-48C298.27,-48 288.87,-48 279.78,-48"/>
<polygon fill="#63b8ff" stroke="#63b8ff" points="307.36,-51.5 317.36,-48 307.36,-44.5 307.36,-51.5"/>
</a>
</g>
</g>
<!-- Node6 -->
<g id="Node000006" class="node">
<title>Node6</title>
<g id="a_Node000006"><a xlink:href="class_flow_p_k_token.html#a03998327bfce2d536cf666aaa29950da" target="_top" xlink:title=" ">
<polygon fill="white" stroke="#666666" points="282.88,-20 152.88,-20 152.88,0 282.88,0 282.88,-20"/>
<text text-anchor="middle" x="217.88" y="-6.5" font-family="Helvetica,sans-Serif" font-size="10.00">FlowPKToken::addTokens</text>
</a>
</g>
</g>
<!-- Node3&#45;&gt;Node6 -->
<g id="edge5_Node000003_Node000006" class="edge">
<title>Node3&#45;&gt;Node6</title>
<g id="a_edge5_Node000003_Node000006"><a xlink:title=" ">
<path fill="none" stroke="#63b8ff" d="M318.62,-34.75C299.74,-30.07 278.79,-24.87 260.98,-20.45"/>
<polygon fill="#63b8ff" stroke="#63b8ff" points="317.73,-38.14 328.28,-37.15 319.42,-31.35 317.73,-38.14"/>
</a>
</g>
</g>
<!-- Node7 -->
<g id="Node000007" class="node">
<title>Node7</title>
<g id="a_Node000007"><a xlink:href="class_main_token.html#a4d466f7e8e8a0e9c7fa3eba722f51bcd" target="_top" xlink:title=" ">
<polygon fill="white" stroke="#666666" points="116.5,-20 0,-20 0,0 116.5,0 116.5,-20"/>
<text text-anchor="middle" x="58.25" y="-6.5" font-family="Helvetica,sans-Serif" font-size="10.00">MainToken::addTokens</text>
</a>
</g>
</g>
<!-- Node6&#45;&gt;Node7 -->
<g id="edge6_Node000006_Node000007" class="edge">
<title>Node6&#45;&gt;Node7</title>
<g id="a_edge6_Node000006_Node000007"><a xlink:title=" ">
<path fill="none" stroke="#63b8ff" d="M141.27,-10C133.1,-10 124.88,-10 116.96,-10"/>
<polygon fill="#63b8ff" stroke="#63b8ff" points="141.25,-13.5 151.25,-10 141.25,-6.5 141.25,-13.5"/>
</a>
</g>
</g>
<!-- Node8&#45;&gt;Node3 -->
<g id="edge8_Node000008_Node000003" class="edge">
<title>Node8&#45;&gt;Node3</title>
<g id="a_edge8_Node000008_Node000003"><a xlink:title=" ">
<path fill="none" stroke="#63b8ff" d="M476.65,-35.94C460.4,-37.85 442.88,-39.91 427,-41.77"/>
<polygon fill="#63b8ff" stroke="#63b8ff" points="476.63,-39.47 486.15,-34.83 475.81,-32.52 476.63,-39.47"/>
</a>
</g>
</g>
</g>
</svg>

<g id="navigator" transform="translate(0 0)" fill="#404254">
  <rect fill="#f2f5e9" fill-opacity="0.5" stroke="#606060" stroke-width=".5" x="0" y="0" width="60" height="60"/>
  <use id="zoomplus" xlink:href="#zoomPlus" x="17" y="9" onmousedown="handleZoom(evt,'in')"/>
  <use id="zoomminus" xlink:href="#zoomMin" x="42" y="9" onmousedown="handleZoom(evt,'out')"/>
  <use id="reset" xlink:href="#resetDef" x="30" y="36" onmousedown="handleReset()"/>
   <use id="arrowup" xlink:href="#arrowUp" x="0" y="0" onmousedown="handlePan(0,-1)"/>
  <use id="arrowright" xlink:href="#arrowRight" x="0" y="0" onmousedown="handlePan(1,0)"/>
  <use id="arrowdown" xlink:href="#arrowDown" x="0" y="0" onmousedown="handlePan(0,1)"/>
  <use id="arrowleft" xlink:href="#arrowLeft" x="0" y="0" onmousedown="handlePan(-1,0)"/>
</g>
<svg viewBox="0 0 15 15" width="100%" height="30px" preserveAspectRatio="xMaxYMin meet">
 <g id="arrow_out" transform="scale(0.3 0.3)">
  <a xlink:href="class_flow_token_a3a3cb964ee95cd5e565a009e4d6aabca_icgraph_org.svg" target="_base">
   <rect id="button" ry="5" rx="5" y="6" x="6" height="38" width="38"
        fill="#f2f5e9" fill-opacity="0.5" stroke="#606060" stroke-width="1.0"/>
   <path id="arrow"
     d="M 11.500037,31.436501 C 11.940474,20.09759 22.043105,11.32322 32.158766,21.979434 L 37.068811,17.246167 C 37.068811,17.246167 37.088388,32 37.088388,32 L 22.160133,31.978069 C 22.160133,31.978069 26.997745,27.140456 26.997745,27.140456 C 18.528582,18.264221 13.291696,25.230495 11.500037,31.436501 z"
     style="fill:#404040;"/>
  </a>
 </g>
</svg>

<style type='text/css'>
<![CDATA[
[data-mouse-over-selected='false'] { opacity: 0.7; }
[data-mouse-over-selected='true']  { opacity: 1.0; }
]]>
</style>
<script type="application/ecmascript"><![CDATA[
document.addEventListener('DOMContentLoaded', (event) => {
  highlightEdges();
  highlightAdjacentNodes();
});
]]></script>
</svg>
