<?xml version="1.0" encoding="UTF-8" standalone="no"?>
<!DOCTYPE svg PUBLIC "-//W3C//DTD SVG 1.1//EN"
 "http://www.w3.org/Graphics/SVG/1.1/DTD/svg11.dtd">
<!-- Generated by graphviz version 12.2.0 (20241103.1931)
 -->
<!-- Title: KPToken::addCp Pages: 1 -->
<!--zoomable 560 -->

<svg id="main" version="1.1" xmlns="http://www.w3.org/2000/svg" xmlns:xlink="http://www.w3.org/1999/xlink" xml:space="preserve" onload="init(evt)">

<style type="text/css"><![CDATA[
.node, .edge {opacity: 0.7;}
.node.selected, .edge.selected {opacity: 1;}
.edge:hover path { stroke: red; }
.edge:hover polygon { stroke: red; fill: red; }
]]></style>

<defs>
  <circle id="rim" cx="0" cy="0" r="7"/>
  <circle id="rim2" cx="0" cy="0" r="3.5"/>
  <g id="zoomPlus">
    <use xlink:href="#rim" fill="#404040"><set attributeName="fill" to="#808080" begin="zoomplus.mouseover" end="zoomplus.mouseout"/></use>
    <path d="M-4,0h8M0,-4v8" fill="none" stroke="white" stroke-width="1.5" pointer-events="none"/>
  </g>
  <g id="zoomMin">
    <use xlink:href="#rim" fill="#404040"><set attributeName="fill" to="#808080" begin="zoomminus.mouseover" end="zoomminus.mouseout"/></use>
    <path d="M-4,0h8" fill="none" stroke="white" stroke-width="1.5" pointer-events="none"/>
  </g>
  <g id="arrowUp" transform="translate(30 24)">
    <use xlink:href="#rim"/>
    <path pointer-events="none" fill="none" stroke="white" stroke-width="1.5" d="M0,-3.0v7 M-2.5,-0.5L0,-3.0L2.5,-0.5"/>
  </g>
  <g id="arrowRight" transform="rotate(90) translate(36 -43)">
    <use xlink:href="#rim"/>
    <path pointer-events="none" fill="none" stroke="white" stroke-width="1.5" d="M0,-3.0v7 M-2.5,-0.5L0,-3.0L2.5,-0.5"/>
  </g>
  <g id="arrowDown" transform="rotate(180) translate(-30 -48)">
    <use xlink:href="#rim"/>
    <path pointer-events="none" fill="none" stroke="white" stroke-width="1.5" d="M0,-3.0v7 M-2.5,-0.5L0,-3.0L2.5,-0.5"/>
  </g>
  <g id="arrowLeft" transform="rotate(270) translate(-36 17)">
    <use xlink:href="#rim"/>
    <path pointer-events="none" fill="none" stroke="white" stroke-width="1.5" d="M0,-3.0v7 M-2.5,-0.5L0,-3.0L2.5,-0.5"/>
  </g>
  <g id="resetDef">
    <use xlink:href="#rim2" fill="#404040"><set attributeName="fill" to="#808080" begin="reset.mouseover" end="reset.mouseout"/></use>
  </g>
</defs>
<script type="application/ecmascript">
var viewWidth = 265;
var viewHeight = 560;
var sectionId = 'dynsection-6';
</script>
<script type="application/ecmascript" xlink:href="svg.min.js"/>
<svg id="graph" class="graph">
<g id="viewport">
<title>KPToken::addCp</title>
<!-- Node1 -->
<g id="Node000001" class="node">
<title>Node1</title>
<g id="a_Node000001"><a xlink:title=" ">
<polygon fill="#999999" stroke="#666666" points="257,-286 166.75,-286 166.75,-266 257,-266 257,-286"/>
<text text-anchor="middle" x="211.88" y="-272.5" font-family="Helvetica,sans-Serif" font-size="10.00">KPToken::addCp</text>
</a>
</g>
</g>
<!-- Node2 -->
<g id="Node000002" class="node">
<title>Node2</title>
<g id="a_Node000002"><a xlink:href="class_flow_k_c_token.html#aabbf4019cb69b07eb25b11bd070824fc" target="_top" xlink:title=" ">
<polygon fill="white" stroke="#666666" points="130.75,-552 0,-552 0,-532 130.75,-532 130.75,-552"/>
<text text-anchor="middle" x="65.38" y="-538.5" font-family="Helvetica,sans-Serif" font-size="10.00">FlowKCToken::addTokens</text>
</a>
</g>
</g>
<!-- Node1&#45;&gt;Node2 -->
<g id="edge1_Node000001_Node000002" class="edge">
<title>Node1&#45;&gt;Node2</title>
<g id="a_edge1_Node000001_Node000002"><a xlink:title=" ">
<path fill="none" stroke="#63b8ff" d="M210.3,-297.81C207.82,-345.61 195.1,-460.34 130.75,-523 127.24,-526.41 123.15,-529.22 118.77,-531.52"/>
<polygon fill="#63b8ff" stroke="#63b8ff" points="213.79,-298.08 210.69,-287.95 206.79,-297.8 213.79,-298.08"/>
</a>
</g>
</g>
<!-- Node3 -->
<g id="Node000003" class="node">
<title>Node3</title>
<g id="a_Node000003"><a xlink:href="class_flow_k_p_token.html#afb97e689d4a475e1c20b5ae2a6732c62" target="_top" xlink:title=" ">
<polygon fill="white" stroke="#666666" points="130.38,-514 0.38,-514 0.38,-494 130.38,-494 130.38,-514"/>
<text text-anchor="middle" x="65.38" y="-500.5" font-family="Helvetica,sans-Serif" font-size="10.00">FlowKPToken::addTokens</text>
</a>
</g>
</g>
<!-- Node1&#45;&gt;Node3 -->
<g id="edge2_Node000001_Node000003" class="edge">
<title>Node1&#45;&gt;Node3</title>
<g id="a_edge2_Node000001_Node000003"><a xlink:title=" ">
<path fill="none" stroke="#63b8ff" d="M208.79,-297.88C203.57,-340.26 186.11,-433.86 130.75,-485 126.98,-488.48 122.61,-491.32 117.95,-493.65"/>
<polygon fill="#63b8ff" stroke="#63b8ff" points="212.27,-298.3 209.88,-287.98 205.31,-297.54 212.27,-298.3"/>
</a>
</g>
</g>
<!-- Node4 -->
<g id="Node000004" class="node">
<title>Node4</title>
<g id="a_Node000004"><a xlink:href="class_main_token.html#afe612ccf1e5346401b2fff76d029bbbe" target="_top" xlink:title=" ">
<polygon fill="white" stroke="#666666" points="123.62,-476 7.12,-476 7.12,-456 123.62,-456 123.62,-476"/>
<text text-anchor="middle" x="65.38" y="-462.5" font-family="Helvetica,sans-Serif" font-size="10.00">MainToken::addTokens</text>
</a>
</g>
</g>
<!-- Node1&#45;&gt;Node4 -->
<g id="edge3_Node000001_Node000004" class="edge">
<title>Node1&#45;&gt;Node4</title>
<g id="a_edge3_Node000001_Node000004"><a xlink:title=" ">
<path fill="none" stroke="#63b8ff" d="M206.79,-297.37C198.76,-333.56 177.46,-406.86 130.75,-447 126.77,-450.42 122.2,-453.22 117.38,-455.52"/>
<polygon fill="#63b8ff" stroke="#63b8ff" points="210.19,-298.22 208.79,-287.72 203.34,-296.8 210.19,-298.22"/>
</a>
</g>
</g>
<!-- Node5 -->
<g id="Node000005" class="node">
<title>Node5</title>
<g id="a_Node000005"><a xlink:href="class_store_token.html#ada7a74bb6d2f11f78f026be0554183e9" target="_top" xlink:title=" ">
<polygon fill="white" stroke="#666666" points="124.75,-438 6,-438 6,-418 124.75,-418 124.75,-438"/>
<text text-anchor="middle" x="65.38" y="-424.5" font-family="Helvetica,sans-Serif" font-size="10.00">StoreToken::addTokens</text>
</a>
</g>
</g>
<!-- Node1&#45;&gt;Node5 -->
<g id="edge4_Node000001_Node000005" class="edge">
<title>Node1&#45;&gt;Node5</title>
<g id="a_edge4_Node000001_Node000005"><a xlink:title=" ">
<path fill="none" stroke="#63b8ff" d="M203.75,-297.14C192.74,-326.58 168.81,-379.6 130.75,-409 126.32,-412.42 121.29,-415.22 116.04,-417.53"/>
<polygon fill="#63b8ff" stroke="#63b8ff" points="206.99,-298.46 207.05,-287.87 200.4,-296.11 206.99,-298.46"/>
</a>
</g>
</g>
<!-- Node6 -->
<g id="Node000006" class="node">
<title>Node6</title>
<g id="a_Node000006"><a xlink:href="class_wait_token.html#a025496a739c85ce044f303b38fee7608" target="_top" xlink:title=" ">
<polygon fill="white" stroke="#666666" points="122.88,-400 7.88,-400 7.88,-380 122.88,-380 122.88,-400"/>
<text text-anchor="middle" x="65.38" y="-386.5" font-family="Helvetica,sans-Serif" font-size="10.00">WaitToken::addTokens</text>
</a>
</g>
</g>
<!-- Node1&#45;&gt;Node6 -->
<g id="edge5_Node000001_Node000006" class="edge">
<title>Node1&#45;&gt;Node6</title>
<g id="a_edge5_Node000001_Node000006"><a xlink:title=" ">
<path fill="none" stroke="#63b8ff" d="M199.02,-296.06C185.26,-317.65 160.58,-351.52 130.75,-371 125.48,-374.44 119.57,-377.28 113.52,-379.61"/>
<polygon fill="#63b8ff" stroke="#63b8ff" points="201.98,-297.93 204.25,-287.58 196.02,-294.26 201.98,-297.93"/>
</a>
</g>
</g>
<!-- Node7 -->
<g id="Node000007" class="node">
<title>Node7</title>
<g id="a_Node000007"><a xlink:href="class_and_token.html#a70df2a2057b7d0c554fe086df11467cc" target="_top" xlink:title=" ">
<polygon fill="white" stroke="#666666" points="118.75,-362 12,-362 12,-342 118.75,-342 118.75,-362"/>
<text text-anchor="middle" x="65.38" y="-348.5" font-family="Helvetica,sans-Serif" font-size="10.00">AndToken::handleCp</text>
</a>
</g>
</g>
<!-- Node1&#45;&gt;Node7 -->
<g id="edge6_Node000001_Node000007" class="edge">
<title>Node1&#45;&gt;Node7</title>
<g id="a_edge6_Node000001_Node000007"><a xlink:title=" ">
<path fill="none" stroke="#63b8ff" d="M190.2,-293.64C174.7,-306.11 152.49,-322.43 130.75,-333 123.94,-336.31 116.44,-339.17 109.03,-341.58"/>
<polygon fill="#63b8ff" stroke="#63b8ff" points="192.26,-296.48 197.75,-287.42 187.81,-291.07 192.26,-296.48"/>
</a>
</g>
</g>
<!-- Node8 -->
<g id="Node000008" class="node">
<title>Node8</title>
<g id="a_Node000008"><a xlink:href="class_bool_token.html#a63b853332ad1212e93334291e995d2ca" target="_top" xlink:title=" ">
<polygon fill="white" stroke="#666666" points="119.88,-324 10.88,-324 10.88,-304 119.88,-304 119.88,-324"/>
<text text-anchor="middle" x="65.38" y="-310.5" font-family="Helvetica,sans-Serif" font-size="10.00">BoolToken::handleCp</text>
</a>
</g>
</g>
<!-- Node1&#45;&gt;Node8 -->
<g id="edge7_Node000001_Node000008" class="edge">
<title>Node1&#45;&gt;Node8</title>
<g id="a_edge7_Node000001_Node000008"><a xlink:title=" ">
<path fill="none" stroke="#63b8ff" d="M160,-289.38C142.32,-294.03 122.76,-299.17 106.11,-303.55"/>
<polygon fill="#63b8ff" stroke="#63b8ff" points="160.76,-292.8 169.54,-286.87 158.98,-286.03 160.76,-292.8"/>
</a>
</g>
</g>
<!-- Node9 -->
<g id="Node000009" class="node">
<title>Node9</title>
<g id="a_Node000009"><a xlink:href="class_coord_token.html#a73b59fd963fc06d9691307e4f8db3a70" target="_top" xlink:title=" ">
<polygon fill="white" stroke="#666666" points="123.25,-286 7.5,-286 7.5,-266 123.25,-266 123.25,-286"/>
<text text-anchor="middle" x="65.38" y="-272.5" font-family="Helvetica,sans-Serif" font-size="10.00">CoordToken::handleCp</text>
</a>
</g>
</g>
<!-- Node1&#45;&gt;Node9 -->
<g id="edge8_Node000001_Node000009" class="edge">
<title>Node1&#45;&gt;Node9</title>
<g id="a_edge8_Node000001_Node000009"><a xlink:title=" ">
<path fill="none" stroke="#63b8ff" d="M154.96,-276C144.66,-276 133.89,-276 123.56,-276"/>
<polygon fill="#63b8ff" stroke="#63b8ff" points="154.83,-279.5 164.83,-276 154.83,-272.5 154.83,-279.5"/>
</a>
</g>
</g>
<!-- Node10 -->
<g id="Node000010" class="node">
<title>Node10</title>
<g id="a_Node000010"><a xlink:href="class_direction_token.html#a7871329df529c15890f973f5cb37cc41" target="_top" xlink:title=" ">
<polygon fill="white" stroke="#666666" points="129.62,-248 1.12,-248 1.12,-228 129.62,-228 129.62,-248"/>
<text text-anchor="middle" x="65.38" y="-234.5" font-family="Helvetica,sans-Serif" font-size="10.00">DirectionToken::handleCp</text>
</a>
</g>
</g>
<!-- Node1&#45;&gt;Node10 -->
<g id="edge9_Node000001_Node000010" class="edge">
<title>Node1&#45;&gt;Node10</title>
<g id="a_edge9_Node000001_Node000010"><a xlink:title=" ">
<path fill="none" stroke="#63b8ff" d="M160,-262.62C142.32,-257.97 122.76,-252.83 106.11,-248.45"/>
<polygon fill="#63b8ff" stroke="#63b8ff" points="158.98,-265.97 169.54,-265.13 160.76,-259.2 158.98,-265.97"/>
</a>
</g>
</g>
<!-- Node11 -->
<g id="Node000011" class="node">
<title>Node11</title>
<g id="a_Node000011"><a xlink:href="class_float_token.html#acd02252e5f8e5d0eba5f3d23f647d2c2" target="_top" xlink:title=" ">
<polygon fill="white" stroke="#666666" points="121,-210 9.75,-210 9.75,-190 121,-190 121,-210"/>
<text text-anchor="middle" x="65.38" y="-196.5" font-family="Helvetica,sans-Serif" font-size="10.00">FloatToken::handleCp</text>
</a>
</g>
</g>
<!-- Node1&#45;&gt;Node11 -->
<g id="edge10_Node000001_Node000011" class="edge">
<title>Node1&#45;&gt;Node11</title>
<g id="a_edge10_Node000001_Node000011"><a xlink:title=" ">
<path fill="none" stroke="#63b8ff" d="M190.2,-258.36C174.7,-245.89 152.49,-229.57 130.75,-219 123.94,-215.69 116.44,-212.83 109.03,-210.42"/>
<polygon fill="#63b8ff" stroke="#63b8ff" points="187.81,-260.93 197.75,-264.58 192.26,-255.52 187.81,-260.93"/>
</a>
</g>
</g>
<!-- Node12 -->
<g id="Node000012" class="node">
<title>Node12</title>
<g id="a_Node000012"><a xlink:href="class_integer_token.html#ac31b66dbfeaf1298537cbe6c21df1b4f" target="_top" xlink:title=" ">
<polygon fill="white" stroke="#666666" points="125.12,-172 5.63,-172 5.63,-152 125.12,-152 125.12,-172"/>
<text text-anchor="middle" x="65.38" y="-158.5" font-family="Helvetica,sans-Serif" font-size="10.00">IntegerToken::handleCp</text>
</a>
</g>
</g>
<!-- Node1&#45;&gt;Node12 -->
<g id="edge11_Node000001_Node000012" class="edge">
<title>Node1&#45;&gt;Node12</title>
<g id="a_edge11_Node000001_Node000012"><a xlink:title=" ">
<path fill="none" stroke="#63b8ff" d="M199.02,-255.94C185.26,-234.35 160.58,-200.48 130.75,-181 125.48,-177.56 119.57,-174.72 113.52,-172.39"/>
<polygon fill="#63b8ff" stroke="#63b8ff" points="196.02,-257.74 204.25,-264.42 201.98,-254.07 196.02,-257.74"/>
</a>
</g>
</g>
<!-- Node13 -->
<g id="Node000013" class="node">
<title>Node13</title>
<g id="a_Node000013"><a xlink:href="class_not_token.html#a339f5cf0de259706aa841d25abe8ac9e" target="_top" xlink:title=" ">
<polygon fill="white" stroke="#666666" points="118,-134 12.75,-134 12.75,-114 118,-114 118,-134"/>
<text text-anchor="middle" x="65.38" y="-120.5" font-family="Helvetica,sans-Serif" font-size="10.00">NotToken::handleCp</text>
</a>
</g>
</g>
<!-- Node1&#45;&gt;Node13 -->
<g id="edge12_Node000001_Node000013" class="edge">
<title>Node1&#45;&gt;Node13</title>
<g id="a_edge12_Node000001_Node000013"><a xlink:title=" ">
<path fill="none" stroke="#63b8ff" d="M203.75,-254.86C192.74,-225.42 168.81,-172.4 130.75,-143 126.32,-139.58 121.29,-136.78 116.04,-134.47"/>
<polygon fill="#63b8ff" stroke="#63b8ff" points="200.4,-255.89 207.05,-264.13 206.99,-253.54 200.4,-255.89"/>
</a>
</g>
</g>
<!-- Node14 -->
<g id="Node000014" class="node">
<title>Node14</title>
<g id="a_Node000014"><a xlink:href="class_or_token.html#a9be27028cfb5166cbd2f2fabea9b9800" target="_top" xlink:title=" ">
<polygon fill="white" stroke="#666666" points="115.38,-96 15.38,-96 15.38,-76 115.38,-76 115.38,-96"/>
<text text-anchor="middle" x="65.38" y="-82.5" font-family="Helvetica,sans-Serif" font-size="10.00">OrToken::handleCp</text>
</a>
</g>
</g>
<!-- Node1&#45;&gt;Node14 -->
<g id="edge13_Node000001_Node000014" class="edge">
<title>Node1&#45;&gt;Node14</title>
<g id="a_edge13_Node000001_Node000014"><a xlink:title=" ">
<path fill="none" stroke="#63b8ff" d="M206.79,-254.63C198.76,-218.44 177.46,-145.14 130.75,-105 126.33,-101.2 121.18,-98.16 115.76,-95.73"/>
<polygon fill="#63b8ff" stroke="#63b8ff" points="203.34,-255.2 208.79,-264.28 210.19,-253.78 203.34,-255.2"/>
</a>
</g>
</g>
<!-- Node15 -->
<g id="Node000015" class="node">
<title>Node15</title>
<g id="a_Node000015"><a xlink:href="class_string_token.html#a75a4182fa9fd3c6e287fd8dddc366762" target="_top" xlink:title=" ">
<polygon fill="white" stroke="#666666" points="122.88,-58 7.88,-58 7.88,-38 122.88,-38 122.88,-58"/>
<text text-anchor="middle" x="65.38" y="-44.5" font-family="Helvetica,sans-Serif" font-size="10.00">StringToken::handleCp</text>
</a>
</g>
</g>
<!-- Node1&#45;&gt;Node15 -->
<g id="edge14_Node000001_Node000015" class="edge">
<title>Node1&#45;&gt;Node15</title>
<g id="a_edge14_Node000001_Node000015"><a xlink:title=" ">
<path fill="none" stroke="#63b8ff" d="M208.79,-254.12C203.57,-211.74 186.11,-118.14 130.75,-67 126.98,-63.52 122.61,-60.68 117.95,-58.35"/>
<polygon fill="#63b8ff" stroke="#63b8ff" points="205.31,-254.46 209.88,-264.02 212.27,-253.7 205.31,-254.46"/>
</a>
</g>
</g>
<!-- Node16 -->
<g id="Node000016" class="node">
<title>Node16</title>
<g id="a_Node000016"><a xlink:href="class_zone_token.html#a896e13f73755782e2ac32543beadc429" target="_top" xlink:title=" ">
<polygon fill="white" stroke="#666666" points="121,-20 9.75,-20 9.75,0 121,0 121,-20"/>
<text text-anchor="middle" x="65.38" y="-6.5" font-family="Helvetica,sans-Serif" font-size="10.00">ZoneToken::handleCp</text>
</a>
</g>
</g>
<!-- Node1&#45;&gt;Node16 -->
<g id="edge15_Node000001_Node000016" class="edge">
<title>Node1&#45;&gt;Node16</title>
<g id="a_edge15_Node000001_Node000016"><a xlink:title=" ">
<path fill="none" stroke="#63b8ff" d="M210.3,-254.19C207.82,-206.39 195.1,-91.66 130.75,-29 127.24,-25.59 123.15,-22.78 118.77,-20.48"/>
<polygon fill="#63b8ff" stroke="#63b8ff" points="206.79,-254.2 210.69,-264.05 213.79,-253.92 206.79,-254.2"/>
</a>
</g>
</g>
</g>
</svg>

<g id="navigator" transform="translate(0 0)" fill="#404254">
  <rect fill="#f2f5e9" fill-opacity="0.5" stroke="#606060" stroke-width=".5" x="0" y="0" width="60" height="60"/>
  <use id="zoomplus" xlink:href="#zoomPlus" x="17" y="9" onmousedown="handleZoom(evt,'in')"/>
  <use id="zoomminus" xlink:href="#zoomMin" x="42" y="9" onmousedown="handleZoom(evt,'out')"/>
  <use id="reset" xlink:href="#resetDef" x="30" y="36" onmousedown="handleReset()"/>
   <use id="arrowup" xlink:href="#arrowUp" x="0" y="0" onmousedown="handlePan(0,-1)"/>
  <use id="arrowright" xlink:href="#arrowRight" x="0" y="0" onmousedown="handlePan(1,0)"/>
  <use id="arrowdown" xlink:href="#arrowDown" x="0" y="0" onmousedown="handlePan(0,1)"/>
  <use id="arrowleft" xlink:href="#arrowLeft" x="0" y="0" onmousedown="handlePan(-1,0)"/>
</g>
<svg viewBox="0 0 15 15" width="100%" height="30px" preserveAspectRatio="xMaxYMin meet">
 <g id="arrow_out" transform="scale(0.3 0.3)">
  <a xlink:href="class_k_p_token_a0a95e55ef2440fbaa21cd74442eb3c65_icgraph_org.svg" target="_base">
   <rect id="button" ry="5" rx="5" y="6" x="6" height="38" width="38"
        fill="#f2f5e9" fill-opacity="0.5" stroke="#606060" stroke-width="1.0"/>
   <path id="arrow"
     d="M 11.500037,31.436501 C 11.940474,20.09759 22.043105,11.32322 32.158766,21.979434 L 37.068811,17.246167 C 37.068811,17.246167 37.088388,32 37.088388,32 L 22.160133,31.978069 C 22.160133,31.978069 26.997745,27.140456 26.997745,27.140456 C 18.528582,18.264221 13.291696,25.230495 11.500037,31.436501 z"
     style="fill:#404040;"/>
  </a>
 </g>
</svg>

<style type='text/css'>
<![CDATA[
[data-mouse-over-selected='false'] { opacity: 0.7; }
[data-mouse-over-selected='true']  { opacity: 1.0; }
]]>
</style>
<script type="application/ecmascript"><![CDATA[
document.addEventListener('DOMContentLoaded', (event) => {
  highlightEdges();
  highlightAdjacentNodes();
});
]]></script>
</svg>
