<?xml version="1.0" encoding="UTF-8" standalone="no"?>
<!DOCTYPE svg PUBLIC "-//W3C//DTD SVG 1.1//EN"
 "http://www.w3.org/Graphics/SVG/1.1/DTD/svg11.dtd">
<!-- Generated by graphviz version 12.2.0 (20241103.1931)
 -->
<!-- Title: game::botLoop Pages: 1 -->
<svg width="1021pt" height="161pt"
 viewBox="0.00 0.00 1020.50 161.00" xmlns="http://www.w3.org/2000/svg" xmlns:xlink="http://www.w3.org/1999/xlink">
<g id="graph0" class="graph" transform="scale(1 1) rotate(0) translate(4 157)">
<title>game::botLoop</title>
<!-- Node1 -->
<g id="Node000001" class="node">
<title>Node1</title>
<g id="a_Node000001"><a xlink:title=" ">
<polygon fill="#999999" stroke="#666666" points="80.5,-115 0,-115 0,-95 80.5,-95 80.5,-115"/>
<text text-anchor="middle" x="40.25" y="-101.5" font-family="Helvetica,sans-Serif" font-size="10.00">game::botLoop</text>
</a>
</g>
</g>
<!-- Node2 -->
<g id="Node000002" class="node">
<title>Node2</title>
<g id="a_Node000002"><a xlink:href="classgame.html#a1fb63d8618a3ec3989f04d2e71d90858" target="_top" xlink:title=" ">
<polygon fill="white" stroke="#666666" points="215,-153 116.5,-153 116.5,-133 215,-133 215,-153"/>
<text text-anchor="middle" x="165.75" y="-139.5" font-family="Helvetica,sans-Serif" font-size="10.00">game::activityLoop</text>
</a>
</g>
</g>
<!-- Node1&#45;&gt;Node2 -->
<g id="edge1_Node000001_Node000002" class="edge">
<title>Node1&#45;&gt;Node2</title>
<g id="a_edge1_Node000001_Node000002"><a xlink:title=" ">
<path fill="none" stroke="#63b8ff" d="M75.32,-115.48C89.09,-119.72 105.18,-124.67 119.88,-129.19"/>
<polygon fill="#63b8ff" stroke="#63b8ff" points="118.75,-132.51 129.34,-132.1 120.81,-125.82 118.75,-132.51"/>
</a>
</g>
</g>
<!-- Node3 -->
<g id="Node000003" class="node">
<title>Node3</title>
<g id="a_Node000003"><a xlink:href="classgame.html#a3aa7ed026a904be453162ca146ab4f3e" target="_top" xlink:title=" ">
<polygon fill="white" stroke="#666666" points="204.12,-115 127.38,-115 127.38,-95 204.12,-95 204.12,-115"/>
<text text-anchor="middle" x="165.75" y="-101.5" font-family="Helvetica,sans-Serif" font-size="10.00">game::botEnd</text>
</a>
</g>
</g>
<!-- Node1&#45;&gt;Node3 -->
<g id="edge2_Node000001_Node000003" class="edge">
<title>Node1&#45;&gt;Node3</title>
<g id="a_edge2_Node000001_Node000003"><a xlink:title=" ">
<path fill="none" stroke="#63b8ff" d="M80.67,-105C91.78,-105 104.02,-105 115.63,-105"/>
<polygon fill="#63b8ff" stroke="#63b8ff" points="115.46,-108.5 125.46,-105 115.46,-101.5 115.46,-108.5"/>
</a>
</g>
</g>
<!-- Node4 -->
<g id="Node000004" class="node">
<title>Node4</title>
<g id="a_Node000004"><a xlink:href="classgame.html#afcd2ff4a7609fb43e06d69b46647a316" target="_top" xlink:title=" ">
<polygon fill="white" stroke="#666666" points="211.62,-77 119.88,-77 119.88,-57 211.62,-57 211.62,-77"/>
<text text-anchor="middle" x="165.75" y="-63.5" font-family="Helvetica,sans-Serif" font-size="10.00">game::startGame</text>
</a>
</g>
</g>
<!-- Node1&#45;&gt;Node4 -->
<g id="edge3_Node000001_Node000004" class="edge">
<title>Node1&#45;&gt;Node4</title>
<g id="a_edge3_Node000001_Node000004"><a xlink:title=" ">
<path fill="none" stroke="#63b8ff" d="M75.32,-94.52C89.09,-90.28 105.18,-85.33 119.88,-80.81"/>
<polygon fill="#63b8ff" stroke="#63b8ff" points="120.81,-84.18 129.34,-77.9 118.75,-77.49 120.81,-84.18"/>
</a>
</g>
</g>
<!-- Node5 -->
<g id="Node000005" class="node">
<title>Node5</title>
<g id="a_Node000005"><a xlink:href="fadb_8cpp.html#afe8e2ff759a76e50349b7346fa6064bb" target="_top" xlink:title=" ">
<polygon fill="white" stroke="#666666" points="460.75,-134 378,-134 378,-114 460.75,-114 460.75,-134"/>
<text text-anchor="middle" x="419.38" y="-120.5" font-family="Helvetica,sans-Serif" font-size="10.00">launchPackage</text>
</a>
</g>
</g>
<!-- Node4&#45;&gt;Node5 -->
<g id="edge4_Node000004_Node000005" class="edge">
<title>Node4&#45;&gt;Node5</title>
<g id="a_edge4_Node000004_Node000005"><a xlink:title=" ">
<path fill="none" stroke="#63b8ff" d="M194.78,-77.43C201.47,-80.09 208.54,-83.03 215,-86 231.44,-93.55 233.71,-99.67 251,-105 288.5,-116.57 332.67,-121.23 366.22,-123.05"/>
<polygon fill="#63b8ff" stroke="#63b8ff" points="365.95,-126.54 376.1,-123.51 366.27,-119.55 365.95,-126.54"/>
</a>
</g>
</g>
<!-- Node12 -->
<g id="Node000012" class="node">
<title>Node12</title>
<g id="a_Node000012"><a xlink:href="fadb_8cpp.html#af7514591ff3da72ae2be4034040ef38d" target="_top" xlink:title=" ">
<polygon fill="white" stroke="#666666" points="328.88,-96 264.12,-96 264.12,-76 328.88,-76 328.88,-96"/>
<text text-anchor="middle" x="296.5" y="-82.5" font-family="Helvetica,sans-Serif" font-size="10.00">onPackage</text>
</a>
</g>
</g>
<!-- Node4&#45;&gt;Node12 -->
<g id="edge11_Node000004_Node000012" class="edge">
<title>Node4&#45;&gt;Node12</title>
<g id="a_edge11_Node000004_Node000012"><a xlink:title=" ">
<path fill="none" stroke="#63b8ff" d="M211.78,-73.65C225.02,-75.6 239.46,-77.73 252.56,-79.66"/>
<polygon fill="#63b8ff" stroke="#63b8ff" points="251.76,-83.08 262.17,-81.08 252.78,-76.16 251.76,-83.08"/>
</a>
</g>
</g>
<!-- Node14 -->
<g id="Node000014" class="node">
<title>Node14</title>
<g id="a_Node000014"><a xlink:href="fadb_8cpp.html#ac06de0d00f1b7585ae992534c92cda2f" target="_top" xlink:title=" ">
<polygon fill="white" stroke="#666666" points="454.38,-58 384.38,-58 384.38,-38 454.38,-38 454.38,-58"/>
<text text-anchor="middle" x="419.38" y="-44.5" font-family="Helvetica,sans-Serif" font-size="10.00">quitPackage</text>
</a>
</g>
</g>
<!-- Node4&#45;&gt;Node14 -->
<g id="edge14_Node000004_Node000014" class="edge">
<title>Node4&#45;&gt;Node14</title>
<g id="a_edge14_Node000004_Node000014"><a xlink:title=" ">
<path fill="none" stroke="#63b8ff" d="M212.03,-63.58C257.45,-60.15 327.05,-54.9 372.64,-51.45"/>
<polygon fill="#63b8ff" stroke="#63b8ff" points="372.75,-54.96 382.45,-50.71 372.22,-47.98 372.75,-54.96"/>
</a>
</g>
</g>
<!-- Node15 -->
<g id="Node000015" class="node">
<title>Node15</title>
<g id="a_Node000015"><a xlink:href="class_interactions.html#abd5b5d8a44970e1333e3611e302f166c" target="_top" xlink:title=" ">
<polygon fill="white" stroke="#666666" points="342,-20 251,-20 251,0 342,0 342,-20"/>
<text text-anchor="middle" x="296.5" y="-6.5" font-family="Helvetica,sans-Serif" font-size="10.00">Interactions::wait</text>
</a>
</g>
</g>
<!-- Node4&#45;&gt;Node15 -->
<g id="edge16_Node000004_Node000015" class="edge">
<title>Node4&#45;&gt;Node15</title>
<g id="a_edge16_Node000004_Node000015"><a xlink:title=" ">
<path fill="none" stroke="#63b8ff" d="M190.36,-56.55C210.33,-47.71 239.18,-34.94 261.61,-25.01"/>
<polygon fill="#63b8ff" stroke="#63b8ff" points="262.92,-28.25 270.65,-21 260.09,-21.85 262.92,-28.25"/>
</a>
</g>
</g>
<!-- Node6 -->
<g id="Node000006" class="node">
<title>Node6</title>
<g id="a_Node000006"><a xlink:href="fadb_8cpp.html#a0766d8b572678e0a830d45a4dcfb9d4d" target="_top" xlink:title=" ">
<polygon fill="white" stroke="#666666" points="607.25,-96 496.75,-96 496.75,-76 607.25,-76 607.25,-96"/>
<text text-anchor="middle" x="552" y="-82.5" font-family="Helvetica,sans-Serif" font-size="10.00">runAdbLocalhostShell</text>
</a>
</g>
</g>
<!-- Node5&#45;&gt;Node6 -->
<g id="edge5_Node000005_Node000006" class="edge">
<title>Node5&#45;&gt;Node6</title>
<g id="a_edge5_Node000005_Node000006"><a xlink:title=" ">
<path fill="none" stroke="#63b8ff" d="M456.41,-113.52C471.26,-109.2 488.66,-104.14 504.45,-99.54"/>
<polygon fill="#63b8ff" stroke="#63b8ff" points="505,-103.03 513.62,-96.87 503.05,-96.31 505,-103.03"/>
</a>
</g>
</g>
<!-- Node7 -->
<g id="Node000007" class="node">
<title>Node7</title>
<g id="a_Node000007"><a xlink:href="fadb_8cpp.html#ac6339b59ba8238f7483dece7f3fdf51b" target="_top" xlink:title=" ">
<polygon fill="white" stroke="#666666" points="732,-96 643.25,-96 643.25,-76 732,-76 732,-96"/>
<text text-anchor="middle" x="687.62" y="-82.5" font-family="Helvetica,sans-Serif" font-size="10.00">runAdbLocalhost</text>
</a>
</g>
</g>
<!-- Node6&#45;&gt;Node7 -->
<g id="edge6_Node000006_Node000007" class="edge">
<title>Node6&#45;&gt;Node7</title>
<g id="a_edge6_Node000006_Node000007"><a xlink:title=" ">
<path fill="none" stroke="#63b8ff" d="M607.74,-86C615.58,-86 623.66,-86 631.51,-86"/>
<polygon fill="#63b8ff" stroke="#63b8ff" points="631.29,-89.5 641.29,-86 631.29,-82.5 631.29,-89.5"/>
</a>
</g>
</g>
<!-- Node8 -->
<g id="Node000008" class="node">
<title>Node8</title>
<g id="a_Node000008"><a xlink:href="fadb_8cpp.html#a383ae5fedc9f597a03c74c729a2eb740" target="_top" xlink:title=" ">
<polygon fill="white" stroke="#666666" points="814.75,-96 768,-96 768,-76 814.75,-76 814.75,-96"/>
<text text-anchor="middle" x="791.38" y="-82.5" font-family="Helvetica,sans-Serif" font-size="10.00">runAdb</text>
</a>
</g>
</g>
<!-- Node7&#45;&gt;Node8 -->
<g id="edge7_Node000007_Node000008" class="edge">
<title>Node7&#45;&gt;Node8</title>
<g id="a_edge7_Node000007_Node000008"><a xlink:title=" ">
<path fill="none" stroke="#63b8ff" d="M732.37,-86C740.36,-86 748.58,-86 756.24,-86"/>
<polygon fill="#63b8ff" stroke="#63b8ff" points="756.18,-89.5 766.18,-86 756.18,-82.5 756.18,-89.5"/>
</a>
</g>
</g>
<!-- Node9 -->
<g id="Node000009" class="node">
<title>Node9</title>
<g id="a_Node000009"><a xlink:href="sys_commands_8cpp.html#a321eb7e335377aa7182bafc8a1605032" target="_top" xlink:title=" ">
<polygon fill="white" stroke="#666666" points="917.75,-96 850.75,-96 850.75,-76 917.75,-76 917.75,-96"/>
<text text-anchor="middle" x="884.25" y="-82.5" font-family="Helvetica,sans-Serif" font-size="10.00">receivePipe</text>
</a>
</g>
</g>
<!-- Node8&#45;&gt;Node9 -->
<g id="edge8_Node000008_Node000009" class="edge">
<title>Node8&#45;&gt;Node9</title>
<g id="a_edge8_Node000008_Node000009"><a xlink:title=" ">
<path fill="none" stroke="#63b8ff" d="M814.84,-86C822.21,-86 830.68,-86 839.08,-86"/>
<polygon fill="#63b8ff" stroke="#63b8ff" points="838.89,-89.5 848.89,-86 838.89,-82.5 838.89,-89.5"/>
</a>
</g>
</g>
<!-- Node10 -->
<g id="Node000010" class="node">
<title>Node10</title>
<g id="a_Node000010"><a xlink:href="sys_commands_8cpp.html#a4771c79171a937893508dabadadbe099" target="_top" xlink:title=" ">
<polygon fill="white" stroke="#666666" points="1012.5,-115 953.75,-115 953.75,-95 1012.5,-95 1012.5,-115"/>
<text text-anchor="middle" x="983.12" y="-101.5" font-family="Helvetica,sans-Serif" font-size="10.00">closePipe</text>
</a>
</g>
</g>
<!-- Node9&#45;&gt;Node10 -->
<g id="edge9_Node000009_Node000010" class="edge">
<title>Node9&#45;&gt;Node10</title>
<g id="a_edge9_Node000009_Node000010"><a xlink:title=" ">
<path fill="none" stroke="#63b8ff" d="M918.05,-92.43C925.81,-93.95 934.17,-95.59 942.21,-97.17"/>
<polygon fill="#63b8ff" stroke="#63b8ff" points="941.28,-100.56 951.77,-99.05 942.63,-93.69 941.28,-100.56"/>
</a>
</g>
</g>
<!-- Node11 -->
<g id="Node000011" class="node">
<title>Node11</title>
<g id="a_Node000011"><a xlink:href="sys_commands_8cpp.html#a3499ce0cd7e4ed28b3c5461a4d3aec84" target="_top" xlink:title=" ">
<polygon fill="white" stroke="#666666" points="1011.38,-77 954.88,-77 954.88,-57 1011.38,-57 1011.38,-77"/>
<text text-anchor="middle" x="983.12" y="-63.5" font-family="Helvetica,sans-Serif" font-size="10.00">openPipe</text>
</a>
</g>
</g>
<!-- Node9&#45;&gt;Node11 -->
<g id="edge10_Node000009_Node000011" class="edge">
<title>Node9&#45;&gt;Node11</title>
<g id="a_edge10_Node000009_Node000011"><a xlink:title=" ">
<path fill="none" stroke="#63b8ff" d="M918.05,-79.57C926.2,-77.97 935.01,-76.24 943.42,-74.59"/>
<polygon fill="#63b8ff" stroke="#63b8ff" points="943.9,-78.06 953.04,-72.7 942.55,-71.19 943.9,-78.06"/>
</a>
</g>
</g>
<!-- Node13 -->
<g id="Node000013" class="node">
<title>Node13</title>
<g id="a_Node000013"><a xlink:href="fadb_8cpp.html#a96a4fa7238d6acae66790dd58b1724c0" target="_top" xlink:title=" ">
<polygon fill="white" stroke="#666666" points="455.88,-96 382.88,-96 382.88,-76 455.88,-76 455.88,-96"/>
<text text-anchor="middle" x="419.38" y="-82.5" font-family="Helvetica,sans-Serif" font-size="10.00">currentFocus</text>
</a>
</g>
</g>
<!-- Node12&#45;&gt;Node13 -->
<g id="edge12_Node000012_Node000013" class="edge">
<title>Node12&#45;&gt;Node13</title>
<g id="a_edge12_Node000012_Node000013"><a xlink:title=" ">
<path fill="none" stroke="#63b8ff" d="M329.26,-86C342.05,-86 357.06,-86 371.09,-86"/>
<polygon fill="#63b8ff" stroke="#63b8ff" points="371.05,-89.5 381.05,-86 371.05,-82.5 371.05,-89.5"/>
</a>
</g>
</g>
<!-- Node13&#45;&gt;Node6 -->
<g id="edge13_Node000013_Node000006" class="edge">
<title>Node13&#45;&gt;Node6</title>
<g id="a_edge13_Node000013_Node000006"><a xlink:title=" ">
<path fill="none" stroke="#63b8ff" d="M456.07,-86C465.18,-86 475.27,-86 485.36,-86"/>
<polygon fill="#63b8ff" stroke="#63b8ff" points="485.2,-89.5 495.2,-86 485.2,-82.5 485.2,-89.5"/>
</a>
</g>
</g>
<!-- Node14&#45;&gt;Node6 -->
<g id="edge15_Node000014_Node000006" class="edge">
<title>Node14&#45;&gt;Node6</title>
<g id="a_edge15_Node000014_Node000006"><a xlink:title=" ">
<path fill="none" stroke="#63b8ff" d="M454.7,-57.98C469.8,-62.38 487.79,-67.61 504.11,-72.36"/>
<polygon fill="#63b8ff" stroke="#63b8ff" points="503.05,-75.7 513.63,-75.13 505.01,-68.98 503.05,-75.7"/>
</a>
</g>
</g>
</g>
</svg>
