<?xml version="1.0" encoding="UTF-8" standalone="no"?>
<!DOCTYPE svg PUBLIC "-//W3C//DTD SVG 1.1//EN"
 "http://www.w3.org/Graphics/SVG/1.1/DTD/svg11.dtd">
<!-- Generated by graphviz version 12.2.0 (20241103.1931)
 -->
<!-- Title: game::chronoPresetMenu Pages: 1 -->
<svg width="394pt" height="28pt"
 viewBox="0.00 0.00 393.50 28.00" xmlns="http://www.w3.org/2000/svg" xmlns:xlink="http://www.w3.org/1999/xlink">
<g id="graph0" class="graph" transform="scale(1 1) rotate(0) translate(4 24)">
<title>game::chronoPresetMenu</title>
<!-- Node1 -->
<g id="Node000001" class="node">
<title>Node1</title>
<g id="a_Node000001"><a xlink:title=" ">
<polygon fill="#999999" stroke="#666666" points="385.5,-20 257.75,-20 257.75,0 385.5,0 385.5,-20"/>
<text text-anchor="middle" x="321.62" y="-6.5" font-family="Helvetica,sans-Serif" font-size="10.00">game::chronoPresetMenu</text>
</a>
</g>
</g>
<!-- Node2 -->
<g id="Node000002" class="node">
<title>Node2</title>
<g id="a_Node000002"><a xlink:href="classgame.html#a8e1e939e9ccca1570f7be33d1026e7a8" target="_top" xlink:title=" ">
<polygon fill="white" stroke="#666666" points="221.75,-20 116.5,-20 116.5,0 221.75,0 221.75,-20"/>
<text text-anchor="middle" x="169.12" y="-6.5" font-family="Helvetica,sans-Serif" font-size="10.00">game::selectActivity</text>
</a>
</g>
</g>
<!-- Node1&#45;&gt;Node2 -->
<g id="edge1_Node000001_Node000002" class="edge">
<title>Node1&#45;&gt;Node2</title>
<g id="a_edge1_Node000001_Node000002"><a xlink:title=" ">
<path fill="none" stroke="#63b8ff" d="M246.41,-10C238.11,-10 229.8,-10 221.88,-10"/>
<polygon fill="#63b8ff" stroke="#63b8ff" points="246.16,-13.5 256.16,-10 246.16,-6.5 246.16,-13.5"/>
</a>
</g>
</g>
<!-- Node3 -->
<g id="Node000003" class="node">
<title>Node3</title>
<g id="a_Node000003"><a xlink:href="classgame.html#aea6b13468585f1be55d1736100158706" target="_top" xlink:title=" ">
<polygon fill="white" stroke="#666666" points="80.5,-20 0,-20 0,0 80.5,0 80.5,-20"/>
<text text-anchor="middle" x="40.25" y="-6.5" font-family="Helvetica,sans-Serif" font-size="10.00">game::startBot</text>
</a>
</g>
</g>
<!-- Node2&#45;&gt;Node3 -->
<g id="edge2_Node000002_Node000003" class="edge">
<title>Node2&#45;&gt;Node3</title>
<g id="a_edge2_Node000002_Node000003"><a xlink:title=" ">
<path fill="none" stroke="#63b8ff" d="M104.73,-10C96.61,-10 88.49,-10 80.9,-10"/>
<polygon fill="#63b8ff" stroke="#63b8ff" points="104.64,-13.5 114.64,-10 104.64,-6.5 104.64,-13.5"/>
</a>
</g>
</g>
</g>
</svg>
