<?xml version="1.0" encoding="UTF-8" standalone="no"?>
<!DOCTYPE svg PUBLIC "-//W3C//DTD SVG 1.1//EN"
 "http://www.w3.org/Graphics/SVG/1.1/DTD/svg11.dtd">
<!-- Generated by graphviz version 12.2.0 (20241103.1931)
 -->
<!-- Title: BotConfig::initBotFile Pages: 1 -->
<svg width="1442pt" height="386pt"
 viewBox="0.00 0.00 1442.00 386.00" xmlns="http://www.w3.org/2000/svg" xmlns:xlink="http://www.w3.org/1999/xlink">
<g id="graph0" class="graph" transform="scale(1 1) rotate(0) translate(4 382)">
<title>BotConfig::initBotFile</title>
<!-- Node1 -->
<g id="Node000001" class="node">
<title>Node1</title>
<g id="a_Node000001"><a xlink:title=" ">
<polygon fill="#999999" stroke="#666666" points="109,-114 0,-114 0,-94 109,-94 109,-114"/>
<text text-anchor="middle" x="54.5" y="-100.5" font-family="Helvetica,sans-Serif" font-size="10.00">BotConfig::initBotFile</text>
</a>
</g>
</g>
<!-- Node2 -->
<g id="Node000002" class="node">
<title>Node2</title>
<g id="a_Node000002"><a xlink:href="class_bot_config.html#aaa9ade6d9deb18e7457ab5d1d925e9e6" target="_top" xlink:title=" ">
<polygon fill="white" stroke="#666666" points="811.25,-152 699.25,-152 699.25,-132 811.25,-132 811.25,-152"/>
<text text-anchor="middle" x="755.25" y="-138.5" font-family="Helvetica,sans-Serif" font-size="10.00">BotConfig::doWriteInit</text>
</a>
</g>
</g>
<!-- Node1&#45;&gt;Node2 -->
<g id="edge1_Node000001_Node000002" class="edge">
<title>Node1&#45;&gt;Node2</title>
<g id="a_edge1_Node000001_Node000002"><a xlink:title=" ">
<path fill="none" stroke="#63b8ff" d="M109.46,-106.93C235.72,-113.8 550.08,-130.9 687.82,-138.39"/>
<polygon fill="#63b8ff" stroke="#63b8ff" points="687.32,-141.87 697.5,-138.91 687.7,-134.88 687.32,-141.87"/>
</a>
</g>
</g>
<!-- Node17 -->
<g id="Node000017" class="node">
<title>Node17</title>
<g id="a_Node000017"><a xlink:href="class_bot_config.html#add6ae08a184d93e02b4ad2a03aa95e90" target="_top" xlink:title=" ">
<polygon fill="white" stroke="#666666" points="253.25,-95 145,-95 145,-75 253.25,-75 253.25,-95"/>
<text text-anchor="middle" x="199.12" y="-81.5" font-family="Helvetica,sans-Serif" font-size="10.00">BotConfig::updateInit</text>
</a>
</g>
</g>
<!-- Node1&#45;&gt;Node17 -->
<g id="edge18_Node000001_Node000017" class="edge">
<title>Node1&#45;&gt;Node17</title>
<g id="a_edge18_Node000001_Node000017"><a xlink:title=" ">
<path fill="none" stroke="#63b8ff" d="M109.42,-96.82C117.25,-95.77 125.37,-94.69 133.39,-93.62"/>
<polygon fill="#63b8ff" stroke="#63b8ff" points="133.65,-97.12 143.1,-92.33 132.73,-90.18 133.65,-97.12"/>
</a>
</g>
</g>
<!-- Node3 -->
<g id="Node000003" class="node">
<title>Node3</title>
<g id="a_Node000003"><a xlink:href="class_bot_config.html#a100e179305b4c6eb54ff8a680616ec03" target="_top" xlink:title=" ">
<polygon fill="white" stroke="#666666" points="1003.5,-272 863.75,-272 863.75,-252 1003.5,-252 1003.5,-272"/>
<text text-anchor="middle" x="933.62" y="-258.5" font-family="Helvetica,sans-Serif" font-size="10.00">BotConfig::verifyParameters</text>
</a>
</g>
</g>
<!-- Node2&#45;&gt;Node3 -->
<g id="edge2_Node000002_Node000003" class="edge">
<title>Node2&#45;&gt;Node3</title>
<g id="a_edge2_Node000002_Node000003"><a xlink:title=" ">
<path fill="none" stroke="#63b8ff" d="M771.59,-152.44C802.29,-173.32 871.48,-220.4 908.37,-245.5"/>
<polygon fill="#63b8ff" stroke="#63b8ff" points="905.95,-248.09 916.19,-250.82 909.89,-242.3 905.95,-248.09"/>
</a>
</g>
</g>
<!-- Node12 -->
<g id="Node000012" class="node">
<title>Node12</title>
<g id="a_Node000012"><a xlink:href="class_bot_config.html#a5ea5db5fbc78be03cd9450d4b4c0e73c" target="_top" xlink:title=" ">
<polygon fill="white" stroke="#666666" points="983.62,-152 883.62,-152 883.62,-132 983.62,-132 983.62,-152"/>
<text text-anchor="middle" x="933.62" y="-138.5" font-family="Helvetica,sans-Serif" font-size="10.00">BotConfig::writeInit</text>
</a>
</g>
</g>
<!-- Node2&#45;&gt;Node12 -->
<g id="edge13_Node000002_Node000012" class="edge">
<title>Node2&#45;&gt;Node12</title>
<g id="a_edge13_Node000002_Node000012"><a xlink:title=" ">
<path fill="none" stroke="#63b8ff" d="M811.57,-142C830.74,-142 852.33,-142 871.91,-142"/>
<polygon fill="#63b8ff" stroke="#63b8ff" points="871.66,-145.5 881.66,-142 871.66,-138.5 871.66,-145.5"/>
</a>
</g>
</g>
<!-- Node4 -->
<g id="Node000004" class="node">
<title>Node4</title>
<g id="a_Node000004"><a xlink:href="class_bot_config.html#a1652dcc0a496d11e8d7f35d8c88e6014" target="_top" xlink:title=" ">
<polygon fill="white" stroke="#666666" points="1182.62,-228 1040.62,-228 1040.62,-208 1182.62,-208 1182.62,-228"/>
<text text-anchor="middle" x="1111.62" y="-214.5" font-family="Helvetica,sans-Serif" font-size="10.00">BotConfig::getBotFilecontent</text>
</a>
</g>
</g>
<!-- Node3&#45;&gt;Node4 -->
<g id="edge3_Node000003_Node000004" class="edge">
<title>Node3&#45;&gt;Node4</title>
<g id="a_edge3_Node000003_Node000004"><a xlink:title=" ">
<path fill="none" stroke="#63b8ff" d="M976.33,-251.57C1000.79,-245.46 1031.92,-237.68 1058.05,-231.14"/>
<polygon fill="#63b8ff" stroke="#63b8ff" points="1058.59,-234.62 1067.44,-228.8 1056.89,-227.83 1058.59,-234.62"/>
</a>
</g>
</g>
<!-- Node7 -->
<g id="Node000007" class="node">
<title>Node7</title>
<g id="a_Node000007"><a xlink:href="class_bot_config.html#a87ca6a00d5b852b1c96966bcd1cbb417" target="_top" xlink:title=" ">
<polygon fill="white" stroke="#666666" points="1180.75,-278 1042.5,-278 1042.5,-246 1180.75,-246 1180.75,-278"/>
<text text-anchor="start" x="1050.5" y="-264.5" font-family="Helvetica,sans-Serif" font-size="10.00">BotConfig::verifyBluestacks</text>
<text text-anchor="middle" x="1111.62" y="-252.5" font-family="Helvetica,sans-Serif" font-size="10.00">Parameters</text>
</a>
</g>
</g>
<!-- Node3&#45;&gt;Node7 -->
<g id="edge6_Node000003_Node000007" class="edge">
<title>Node3&#45;&gt;Node7</title>
<g id="a_edge6_Node000003_Node000007"><a xlink:title=" ">
<path fill="none" stroke="#63b8ff" d="M1003.93,-262C1012.79,-262 1021.92,-262 1030.93,-262"/>
<polygon fill="#63b8ff" stroke="#63b8ff" points="1030.73,-265.5 1040.73,-262 1030.73,-258.5 1030.73,-265.5"/>
</a>
</g>
</g>
<!-- Node10 -->
<g id="Node000010" class="node">
<title>Node10</title>
<g id="a_Node000010"><a xlink:href="class_bot_config.html#a065587486500e26019a183c4727ac9ef" target="_top" xlink:title=" ">
<polygon fill="white" stroke="#666666" points="1172.5,-378 1050.75,-378 1050.75,-346 1172.5,-346 1172.5,-378"/>
<text text-anchor="start" x="1058.75" y="-364.5" font-family="Helvetica,sans-Serif" font-size="10.00">BotConfig::verifyfavorite</text>
<text text-anchor="middle" x="1111.62" y="-352.5" font-family="Helvetica,sans-Serif" font-size="10.00">Parameters</text>
</a>
</g>
</g>
<!-- Node3&#45;&gt;Node10 -->
<g id="edge9_Node000003_Node000010" class="edge">
<title>Node3&#45;&gt;Node10</title>
<g id="a_edge9_Node000003_Node000010"><a xlink:title=" ">
<path fill="none" stroke="#63b8ff" d="M946.79,-272.47C965.6,-288.23 1003.35,-318.21 1039.5,-337 1042.18,-338.4 1044.96,-339.74 1047.8,-341.04"/>
<polygon fill="#63b8ff" stroke="#63b8ff" points="1046.28,-344.19 1056.85,-344.91 1049.03,-337.76 1046.28,-344.19"/>
</a>
</g>
</g>
<!-- Node11 -->
<g id="Node000011" class="node">
<title>Node11</title>
<g id="a_Node000011"><a xlink:href="class_bot_config.html#a6ed63ab2d1ba5fcb75a28e8068296585" target="_top" xlink:title=" ">
<polygon fill="white" stroke="#666666" points="1175.5,-328 1047.75,-328 1047.75,-296 1175.5,-296 1175.5,-328"/>
<text text-anchor="start" x="1055.75" y="-314.5" font-family="Helvetica,sans-Serif" font-size="10.00">BotConfig::verifyLdPlayer</text>
<text text-anchor="middle" x="1111.62" y="-302.5" font-family="Helvetica,sans-Serif" font-size="10.00">Parameters</text>
</a>
</g>
</g>
<!-- Node3&#45;&gt;Node11 -->
<g id="edge11_Node000003_Node000011" class="edge">
<title>Node3&#45;&gt;Node11</title>
<g id="a_edge11_Node000003_Node000011"><a xlink:title=" ">
<path fill="none" stroke="#63b8ff" d="M971.52,-272.48C991.89,-278.27 1017.84,-285.64 1041.8,-292.45"/>
<polygon fill="#63b8ff" stroke="#63b8ff" points="1040.61,-295.75 1051.19,-295.12 1042.53,-289.02 1040.61,-295.75"/>
</a>
</g>
</g>
<!-- Node5 -->
<g id="Node000005" class="node">
<title>Node5</title>
<g id="a_Node000005"><a xlink:href="_text_manager_8cpp.html#add36cc54cd9616a393a17b8961491477" target="_top" xlink:title=" ">
<polygon fill="white" stroke="#666666" points="1305.88,-228 1226.12,-228 1226.12,-208 1305.88,-208 1305.88,-228"/>
<text text-anchor="middle" x="1266" y="-214.5" font-family="Helvetica,sans-Serif" font-size="10.00">getFileContent</text>
</a>
</g>
</g>
<!-- Node4&#45;&gt;Node5 -->
<g id="edge4_Node000004_Node000005" class="edge">
<title>Node4&#45;&gt;Node5</title>
<g id="a_edge4_Node000004_Node000005"><a xlink:title=" ">
<path fill="none" stroke="#63b8ff" d="M1183.01,-218C1193.55,-218 1204.24,-218 1214.26,-218"/>
<polygon fill="#63b8ff" stroke="#63b8ff" points="1214.16,-221.5 1224.16,-218 1214.16,-214.5 1214.16,-221.5"/>
</a>
</g>
</g>
<!-- Node6 -->
<g id="Node000006" class="node">
<title>Node6</title>
<g id="a_Node000006"><a xlink:href="_text_manager_8cpp.html#a5e4308ca14d1f4cfc2456fc26b1361a8" target="_top" xlink:title=" ">
<polygon fill="white" stroke="#666666" points="1431.75,-228 1350.5,-228 1350.5,-208 1431.75,-208 1431.75,-228"/>
<text text-anchor="middle" x="1391.12" y="-214.5" font-family="Helvetica,sans-Serif" font-size="10.00">getIfstreamFile</text>
</a>
</g>
</g>
<!-- Node5&#45;&gt;Node6 -->
<g id="edge5_Node000005_Node000006" class="edge">
<title>Node5&#45;&gt;Node6</title>
<g id="a_edge5_Node000005_Node000006"><a xlink:title=" ">
<path fill="none" stroke="#63b8ff" d="M1306.3,-218C1316.74,-218 1328.18,-218 1339.15,-218"/>
<polygon fill="#63b8ff" stroke="#63b8ff" points="1338.84,-221.5 1348.84,-218 1338.84,-214.5 1338.84,-221.5"/>
</a>
</g>
</g>
<!-- Node8 -->
<g id="Node000008" class="node">
<title>Node8</title>
<g id="a_Node000008"><a xlink:href="_text_manager_8cpp.html#acd5e438b43d1ea1b3fc41a8badfe635b" target="_top" xlink:title=" ">
<polygon fill="white" stroke="#666666" points="1299.12,-297 1232.88,-297 1232.88,-277 1299.12,-277 1299.12,-297"/>
<text text-anchor="middle" x="1266" y="-283.5" font-family="Helvetica,sans-Serif" font-size="10.00">findContent</text>
</a>
</g>
</g>
<!-- Node7&#45;&gt;Node8 -->
<g id="edge7_Node000007_Node000008" class="edge">
<title>Node7&#45;&gt;Node8</title>
<g id="a_edge7_Node000007_Node000008"><a xlink:title=" ">
<path fill="none" stroke="#63b8ff" d="M1181.23,-273.26C1194.9,-275.5 1208.9,-277.8 1221.44,-279.85"/>
<polygon fill="#63b8ff" stroke="#63b8ff" points="1220.57,-283.26 1231.01,-281.42 1221.71,-276.35 1220.57,-283.26"/>
</a>
</g>
</g>
<!-- Node9 -->
<g id="Node000009" class="node">
<title>Node9</title>
<g id="a_Node000009"><a xlink:href="_text_manager_8cpp.html#afbb8972025ad14e914fdaafa26957439" target="_top" xlink:title=" ">
<polygon fill="white" stroke="#666666" points="1415.62,-114 1366.62,-114 1366.62,-94 1415.62,-94 1415.62,-114"/>
<text text-anchor="middle" x="1391.12" y="-100.5" font-family="Helvetica,sans-Serif" font-size="10.00">findPos</text>
</a>
</g>
</g>
<!-- Node8&#45;&gt;Node9 -->
<g id="edge8_Node000008_Node000009" class="edge">
<title>Node8&#45;&gt;Node9</title>
<g id="a_edge8_Node000008_Node000009"><a xlink:title=" ">
<path fill="none" stroke="#63b8ff" d="M1278.06,-276.65C1287.89,-267.04 1302.23,-251.99 1312.25,-237 1333.01,-205.92 1329.1,-193.1 1348.25,-161 1356.15,-147.76 1366.37,-133.8 1374.74,-123"/>
<polygon fill="#63b8ff" stroke="#63b8ff" points="1377.39,-125.3 1380.85,-115.28 1371.9,-120.95 1377.39,-125.3"/>
</a>
</g>
</g>
<!-- Node10&#45;&gt;Node8 -->
<g id="edge10_Node000010_Node000008" class="edge">
<title>Node10&#45;&gt;Node8</title>
<g id="a_edge10_Node000010_Node000008"><a xlink:title=" ">
<path fill="none" stroke="#63b8ff" d="M1163.67,-345.55C1170.52,-342.91 1177.37,-340.04 1183.75,-337 1203.74,-327.47 1225.01,-314.26 1240.78,-303.8"/>
<polygon fill="#63b8ff" stroke="#63b8ff" points="1242.68,-306.74 1249.02,-298.25 1238.77,-300.94 1242.68,-306.74"/>
</a>
</g>
</g>
<!-- Node11&#45;&gt;Node8 -->
<g id="edge12_Node000011_Node000008" class="edge">
<title>Node11&#45;&gt;Node8</title>
<g id="a_edge12_Node000011_Node000008"><a xlink:title=" ">
<path fill="none" stroke="#63b8ff" d="M1175.92,-301.61C1191.13,-299.12 1207.03,-296.51 1221.13,-294.2"/>
<polygon fill="#63b8ff" stroke="#63b8ff" points="1221.7,-297.65 1231,-292.58 1220.56,-290.74 1221.7,-297.65"/>
</a>
</g>
</g>
<!-- Node13 -->
<g id="Node000013" class="node">
<title>Node13</title>
<g id="a_Node000013"><a xlink:href="class_bot_config.html#aeb7fe97edfbfb8a9d0a30c156e8a5bb9" target="_top" xlink:title=" ">
<polygon fill="white" stroke="#666666" points="1183.75,-152 1039.5,-152 1039.5,-132 1183.75,-132 1183.75,-152"/>
<text text-anchor="middle" x="1111.62" y="-138.5" font-family="Helvetica,sans-Serif" font-size="10.00">BotConfig::textInitBluestacks</text>
</a>
</g>
</g>
<!-- Node12&#45;&gt;Node13 -->
<g id="edge14_Node000012_Node000013" class="edge">
<title>Node12&#45;&gt;Node13</title>
<g id="a_edge14_Node000012_Node000013"><a xlink:title=" ">
<path fill="none" stroke="#63b8ff" d="M984.12,-142C997.73,-142 1012.87,-142 1027.82,-142"/>
<polygon fill="#63b8ff" stroke="#63b8ff" points="1027.66,-145.5 1037.66,-142 1027.66,-138.5 1027.66,-145.5"/>
</a>
</g>
</g>
<!-- Node14 -->
<g id="Node000014" class="node">
<title>Node14</title>
<g id="a_Node000014"><a xlink:href="class_bot_config.html#a734ee0b264983e8da4ee33926e076602" target="_top" xlink:title=" ">
<polygon fill="white" stroke="#666666" points="1178.5,-114 1044.75,-114 1044.75,-94 1178.5,-94 1178.5,-114"/>
<text text-anchor="middle" x="1111.62" y="-100.5" font-family="Helvetica,sans-Serif" font-size="10.00">BotConfig::textInitLdPlayer</text>
</a>
</g>
</g>
<!-- Node12&#45;&gt;Node14 -->
<g id="edge15_Node000012_Node000014" class="edge">
<title>Node12&#45;&gt;Node14</title>
<g id="a_edge15_Node000012_Node000014"><a xlink:title=" ">
<path fill="none" stroke="#63b8ff" d="M983.18,-131.52C1004.25,-126.97 1029.11,-121.6 1051.26,-116.82"/>
<polygon fill="#63b8ff" stroke="#63b8ff" points="1051.71,-120.3 1060.75,-114.77 1050.23,-113.46 1051.71,-120.3"/>
</a>
</g>
</g>
<!-- Node15 -->
<g id="Node000015" class="node">
<title>Node15</title>
<g id="a_Node000015"><a xlink:href="_text_manager_8cpp.html#ab55140c566370b105b9bf81756293fa5" target="_top" xlink:title=" ">
<polygon fill="white" stroke="#666666" points="1297.62,-190 1234.38,-190 1234.38,-170 1297.62,-170 1297.62,-190"/>
<text text-anchor="middle" x="1266" y="-176.5" font-family="Helvetica,sans-Serif" font-size="10.00">writeToFile</text>
</a>
</g>
</g>
<!-- Node12&#45;&gt;Node15 -->
<g id="edge16_Node000012_Node000015" class="edge">
<title>Node12&#45;&gt;Node15</title>
<g id="a_edge16_Node000012_Node000015"><a xlink:title=" ">
<path fill="none" stroke="#63b8ff" d="M984.09,-151.96C1001.54,-155.21 1021.34,-158.6 1039.5,-161 1102.96,-169.4 1176.99,-174.81 1222.43,-177.62"/>
<polygon fill="#63b8ff" stroke="#63b8ff" points="1222.19,-181.12 1232.38,-178.23 1222.61,-174.13 1222.19,-181.12"/>
</a>
</g>
</g>
<!-- Node16 -->
<g id="Node000016" class="node">
<title>Node16</title>
<g id="a_Node000016"><a xlink:href="_text_manager_8cpp.html#a4a86df56d2737552b2fd63bfa85c5800" target="_top" xlink:title=" ">
<polygon fill="white" stroke="#666666" points="1434,-190 1348.25,-190 1348.25,-170 1434,-170 1434,-190"/>
<text text-anchor="middle" x="1391.12" y="-176.5" font-family="Helvetica,sans-Serif" font-size="10.00">getOfstreamFile</text>
</a>
</g>
</g>
<!-- Node15&#45;&gt;Node16 -->
<g id="edge17_Node000015_Node000016" class="edge">
<title>Node15&#45;&gt;Node16</title>
<g id="a_edge17_Node000015_Node000016"><a xlink:title=" ">
<path fill="none" stroke="#63b8ff" d="M1298.07,-180C1309.75,-180 1323.39,-180 1336.54,-180"/>
<polygon fill="#63b8ff" stroke="#63b8ff" points="1336.39,-183.5 1346.39,-180 1336.39,-176.5 1336.39,-183.5"/>
</a>
</g>
</g>
<!-- Node18 -->
<g id="Node000018" class="node">
<title>Node18</title>
<g id="a_Node000018"><a xlink:href="class_bot_config.html#a53485f20f89c00397495b545b91044da" target="_top" xlink:title=" ">
<polygon fill="white" stroke="#666666" points="628,-114 501,-114 501,-94 628,-94 628,-114"/>
<text text-anchor="middle" x="564.5" y="-100.5" font-family="Helvetica,sans-Serif" font-size="10.00">BotConfig::updateDataAll</text>
</a>
</g>
</g>
<!-- Node17&#45;&gt;Node18 -->
<g id="edge19_Node000017_Node000018" class="edge">
<title>Node17&#45;&gt;Node18</title>
<g id="a_edge19_Node000017_Node000018"><a xlink:title=" ">
<path fill="none" stroke="#63b8ff" d="M253.74,-87.8C316.11,-91.06 419.44,-96.47 489.44,-100.13"/>
<polygon fill="#63b8ff" stroke="#63b8ff" points="489.13,-103.62 499.3,-100.64 489.5,-96.63 489.13,-103.62"/>
</a>
</g>
</g>
<!-- Node26 -->
<g id="Node000026" class="node">
<title>Node26</title>
<g id="a_Node000026"><a xlink:href="class_bot_config.html#a994d7a4b890c4ab02c1da5778cc36f9c" target="_top" xlink:title=" ">
<polygon fill="white" stroke="#666666" points="446.25,-76 289.25,-76 289.25,-56 446.25,-56 446.25,-76"/>
<text text-anchor="middle" x="367.75" y="-62.5" font-family="Helvetica,sans-Serif" font-size="10.00">BotConfig::updateInitBluestacks</text>
</a>
</g>
</g>
<!-- Node17&#45;&gt;Node26 -->
<g id="edge34_Node000017_Node000026" class="edge">
<title>Node17&#45;&gt;Node26</title>
<g id="a_edge34_Node000017_Node000026"><a xlink:title=" ">
<path fill="none" stroke="#63b8ff" d="M253.3,-78.94C261.1,-78.05 269.29,-77.11 277.57,-76.17"/>
<polygon fill="#63b8ff" stroke="#63b8ff" points="277.83,-79.66 287.37,-75.05 277.04,-72.71 277.83,-79.66"/>
</a>
</g>
</g>
<!-- Node28 -->
<g id="Node000028" class="node">
<title>Node28</title>
<g id="a_Node000028"><a xlink:href="class_bot_config.html#a4630e1c0cfc4366a1e97df9452cad69d" target="_top" xlink:title=" ">
<polygon fill="white" stroke="#666666" points="441,-38 294.5,-38 294.5,-18 441,-18 441,-38"/>
<text text-anchor="middle" x="367.75" y="-24.5" font-family="Helvetica,sans-Serif" font-size="10.00">BotConfig::updateInitLdPlayer</text>
</a>
</g>
</g>
<!-- Node17&#45;&gt;Node28 -->
<g id="edge37_Node000017_Node000028" class="edge">
<title>Node17&#45;&gt;Node28</title>
<g id="a_edge37_Node000017_Node000028"><a xlink:title=" ">
<path fill="none" stroke="#63b8ff" d="M221.72,-74.62C239.53,-66.34 265.63,-54.87 289.25,-47 295.31,-44.98 301.71,-43.07 308.11,-41.3"/>
<polygon fill="#63b8ff" stroke="#63b8ff" points="308.63,-44.78 317.4,-38.84 306.83,-38.02 308.63,-44.78"/>
</a>
</g>
</g>
<!-- Node19 -->
<g id="Node000019" class="node">
<title>Node19</title>
<g id="a_Node000019"><a xlink:href="class_bot_config.html#a70992bec079cbf9412e69b0f0e712ca2" target="_top" xlink:title=" ">
<polygon fill="white" stroke="#666666" points="827.75,-76 682.75,-76 682.75,-56 827.75,-56 827.75,-76"/>
<text text-anchor="middle" x="755.25" y="-62.5" font-family="Helvetica,sans-Serif" font-size="10.00">BotConfig::updateBoolBotFile</text>
</a>
</g>
</g>
<!-- Node18&#45;&gt;Node19 -->
<g id="edge20_Node000018_Node000019" class="edge">
<title>Node18&#45;&gt;Node19</title>
<g id="a_edge20_Node000018_Node000019"><a xlink:title=" ">
<path fill="none" stroke="#63b8ff" d="M617.58,-93.52C640.37,-88.93 667.32,-83.5 691.24,-78.69"/>
<polygon fill="#63b8ff" stroke="#63b8ff" points="691.75,-82.15 700.86,-76.75 690.37,-75.29 691.75,-82.15"/>
</a>
</g>
</g>
<!-- Node20 -->
<g id="Node000020" class="node">
<title>Node20</title>
<g id="a_Node000020"><a xlink:href="class_bot_config.html#a7b0b572a14dd5f0630b335041f83049a" target="_top" xlink:title=" ">
<polygon fill="white" stroke="#666666" points="990.75,-76 876.5,-76 876.5,-56 990.75,-56 990.75,-76"/>
<text text-anchor="middle" x="933.62" y="-62.5" font-family="Helvetica,sans-Serif" font-size="10.00">BotConfig::updateBool</text>
</a>
</g>
</g>
<!-- Node19&#45;&gt;Node20 -->
<g id="edge21_Node000019_Node000020" class="edge">
<title>Node19&#45;&gt;Node20</title>
<g id="a_edge21_Node000019_Node000020"><a xlink:title=" ">
<path fill="none" stroke="#63b8ff" d="M828.24,-66C840.37,-66 852.92,-66 864.93,-66"/>
<polygon fill="#63b8ff" stroke="#63b8ff" points="864.74,-69.5 874.74,-66 864.74,-62.5 864.74,-69.5"/>
</a>
</g>
</g>
<!-- Node21 -->
<g id="Node000021" class="node">
<title>Node21</title>
<g id="a_Node000021"><a xlink:href="class_bot_config.html#ab92a15dd3027a7f42b452cdf5eaf9529" target="_top" xlink:title=" ">
<polygon fill="white" stroke="#666666" points="1171.75,-76 1051.5,-76 1051.5,-56 1171.75,-56 1171.75,-76"/>
<text text-anchor="middle" x="1111.62" y="-62.5" font-family="Helvetica,sans-Serif" font-size="10.00">BotConfig::updateString</text>
</a>
</g>
</g>
<!-- Node20&#45;&gt;Node21 -->
<g id="edge22_Node000020_Node000021" class="edge">
<title>Node20&#45;&gt;Node21</title>
<g id="a_edge22_Node000020_Node000021"><a xlink:title=" ">
<path fill="none" stroke="#63b8ff" d="M990.8,-66C1006.41,-66 1023.57,-66 1039.9,-66"/>
<polygon fill="#63b8ff" stroke="#63b8ff" points="1039.53,-69.5 1049.53,-66 1039.53,-62.5 1039.53,-69.5"/>
</a>
</g>
</g>
<!-- Node21&#45;&gt;Node5 -->
<g id="edge28_Node000021_Node000005" class="edge">
<title>Node21&#45;&gt;Node5</title>
<g id="a_edge28_Node000021_Node000005"><a xlink:title=" ">
<path fill="none" stroke="#63b8ff" d="M1171.53,-76.39C1175.99,-78.72 1180.15,-81.56 1183.75,-85 1222.15,-121.72 1183.94,-159.75 1219.75,-199 1220.33,-199.64 1220.94,-200.25 1221.57,-200.85"/>
<polygon fill="#63b8ff" stroke="#63b8ff" points="1219.37,-203.58 1229.51,-206.64 1223.49,-197.92 1219.37,-203.58"/>
</a>
</g>
</g>
<!-- Node21&#45;&gt;Node15 -->
<g id="edge33_Node000021_Node000015" class="edge">
<title>Node21&#45;&gt;Node15</title>
<g id="a_edge33_Node000021_Node000015"><a xlink:title=" ">
<path fill="none" stroke="#63b8ff" d="M1169.99,-76.43C1174.94,-78.74 1179.63,-81.56 1183.75,-85 1212.46,-108.93 1192.74,-135.17 1219.75,-161 1221.15,-162.34 1222.65,-163.58 1224.23,-164.75"/>
<polygon fill="#63b8ff" stroke="#63b8ff" points="1222.26,-167.65 1232.64,-169.78 1225.86,-161.64 1222.26,-167.65"/>
</a>
</g>
</g>
<!-- Node22 -->
<g id="Node000022" class="node">
<title>Node22</title>
<g id="a_Node000022"><a xlink:href="_text_manager_8cpp.html#a6a1f72a80ddaec746c95996b16e3a1dc" target="_top" xlink:title=" ">
<polygon fill="white" stroke="#666666" points="1308.5,-58 1223.5,-58 1223.5,-38 1308.5,-38 1308.5,-58"/>
<text text-anchor="middle" x="1266" y="-44.5" font-family="Helvetica,sans-Serif" font-size="10.00">getContentAfter</text>
</a>
</g>
</g>
<!-- Node21&#45;&gt;Node22 -->
<g id="edge23_Node000021_Node000022" class="edge">
<title>Node21&#45;&gt;Node22</title>
<g id="a_edge23_Node000021_Node000022"><a xlink:title=" ">
<path fill="none" stroke="#63b8ff" d="M1171.97,-58.99C1185.16,-57.43 1199.05,-55.79 1211.96,-54.27"/>
<polygon fill="#63b8ff" stroke="#63b8ff" points="1211.99,-57.79 1221.51,-53.14 1211.17,-50.83 1211.99,-57.79"/>
</a>
</g>
</g>
<!-- Node23 -->
<g id="Node000023" class="node">
<title>Node23</title>
<g id="a_Node000023"><a xlink:href="_text_manager_8cpp.html#a377407ab4c28873a8e1956ea343f9cc2" target="_top" xlink:title=" ">
<polygon fill="white" stroke="#666666" points="1312.25,-20 1219.75,-20 1219.75,0 1312.25,0 1312.25,-20"/>
<text text-anchor="middle" x="1266" y="-6.5" font-family="Helvetica,sans-Serif" font-size="10.00">getContentBefore</text>
</a>
</g>
</g>
<!-- Node21&#45;&gt;Node23 -->
<g id="edge26_Node000021_Node000023" class="edge">
<title>Node21&#45;&gt;Node23</title>
<g id="a_edge26_Node000021_Node000023"><a xlink:title=" ">
<path fill="none" stroke="#63b8ff" d="M1140.93,-55.6C1164.91,-46.79 1199.53,-34.06 1226.11,-24.29"/>
<polygon fill="#63b8ff" stroke="#63b8ff" points="1226.99,-27.7 1235.17,-20.96 1224.58,-21.13 1226.99,-27.7"/>
</a>
</g>
</g>
<!-- Node24 -->
<g id="Node000024" class="node">
<title>Node24</title>
<g id="a_Node000024"><a xlink:href="_text_manager_8cpp.html#af24bee60aa1d3d5b4ae3bf6ebd267ecd" target="_top" xlink:title=" ">
<polygon fill="white" stroke="#666666" points="1289.75,-152 1242.25,-152 1242.25,-132 1289.75,-132 1289.75,-152"/>
<text text-anchor="middle" x="1266" y="-138.5" font-family="Helvetica,sans-Serif" font-size="10.00">getLine</text>
</a>
</g>
</g>
<!-- Node21&#45;&gt;Node24 -->
<g id="edge29_Node000021_Node000024" class="edge">
<title>Node21&#45;&gt;Node24</title>
<g id="a_edge29_Node000021_Node000024"><a xlink:title=" ">
<path fill="none" stroke="#63b8ff" d="M1165.26,-76.49C1171.71,-78.8 1178.04,-81.6 1183.75,-85 1203.74,-96.9 1200.61,-109.77 1219.75,-123 1223.43,-125.54 1227.5,-127.84 1231.65,-129.89"/>
<polygon fill="#63b8ff" stroke="#63b8ff" points="1230.01,-132.99 1240.57,-133.85 1232.85,-126.59 1230.01,-132.99"/>
</a>
</g>
</g>
<!-- Node25 -->
<g id="Node000025" class="node">
<title>Node25</title>
<g id="a_Node000025"><a xlink:href="_text_manager_8cpp.html#a98e5aae2b6659418890caba4fad17d5e" target="_top" xlink:title=" ">
<polygon fill="white" stroke="#666666" points="1305.88,-114 1226.12,-114 1226.12,-94 1305.88,-94 1305.88,-114"/>
<text text-anchor="middle" x="1266" y="-100.5" font-family="Helvetica,sans-Serif" font-size="10.00">updateContent</text>
</a>
</g>
</g>
<!-- Node21&#45;&gt;Node25 -->
<g id="edge31_Node000021_Node000025" class="edge">
<title>Node21&#45;&gt;Node25</title>
<g id="a_edge31_Node000021_Node000025"><a xlink:title=" ">
<path fill="none" stroke="#63b8ff" d="M1154.67,-76.48C1173.22,-81.11 1195.19,-86.59 1214.61,-91.43"/>
<polygon fill="#63b8ff" stroke="#63b8ff" points="1213.69,-94.81 1224.24,-93.84 1215.39,-88.02 1213.69,-94.81"/>
</a>
</g>
</g>
<!-- Node22&#45;&gt;Node9 -->
<g id="edge24_Node000022_Node000009" class="edge">
<title>Node22&#45;&gt;Node9</title>
<g id="a_edge24_Node000022_Node000009"><a xlink:title=" ">
<path fill="none" stroke="#63b8ff" d="M1289.87,-58.4C1308.79,-67.01 1335.91,-79.34 1357.17,-89.01"/>
<polygon fill="#63b8ff" stroke="#63b8ff" points="1355.45,-92.07 1366,-93.03 1358.35,-85.7 1355.45,-92.07"/>
</a>
</g>
</g>
<!-- Node22&#45;&gt;Node22 -->
<g id="edge25_Node000022_Node000022" class="edge">
<title>Node22&#45;&gt;Node22</title>
<g id="a_edge25_Node000022_Node000022"><a xlink:title=" ">
<path fill="none" stroke="#63b8ff" d="M1246.12,-58.34C1237.62,-66.98 1244.25,-76 1266,-76 1277.89,-76 1285.27,-73.3 1288.12,-69.44"/>
<polygon fill="#63b8ff" stroke="#63b8ff" points="1291.58,-68.94 1286.18,-59.82 1284.72,-70.32 1291.58,-68.94"/>
</a>
</g>
</g>
<!-- Node23&#45;&gt;Node9 -->
<g id="edge27_Node000023_Node000009" class="edge">
<title>Node23&#45;&gt;Node9</title>
<g id="a_edge27_Node000023_Node000009"><a xlink:title=" ">
<path fill="none" stroke="#63b8ff" d="M1296.06,-20.32C1301.63,-22.81 1307.27,-25.72 1312.25,-29 1336.33,-44.85 1359.54,-68.67 1374.26,-85.2"/>
<polygon fill="#63b8ff" stroke="#63b8ff" points="1371.32,-87.15 1380.53,-92.39 1376.6,-82.55 1371.32,-87.15"/>
</a>
</g>
</g>
<!-- Node24&#45;&gt;Node9 -->
<g id="edge30_Node000024_Node000009" class="edge">
<title>Node24&#45;&gt;Node9</title>
<g id="a_edge30_Node000024_Node000009"><a xlink:title=" ">
<path fill="none" stroke="#63b8ff" d="M1290.16,-134.85C1308.5,-129.19 1334.4,-121.2 1355.25,-114.76"/>
<polygon fill="#63b8ff" stroke="#63b8ff" points="1356.26,-118.11 1364.78,-111.82 1354.2,-111.43 1356.26,-118.11"/>
</a>
</g>
</g>
<!-- Node25&#45;&gt;Node9 -->
<g id="edge32_Node000025_Node000009" class="edge">
<title>Node25&#45;&gt;Node9</title>
<g id="a_edge32_Node000025_Node000009"><a xlink:title=" ">
<path fill="none" stroke="#63b8ff" d="M1306.3,-104C1321.85,-104 1339.58,-104 1354.73,-104"/>
<polygon fill="#63b8ff" stroke="#63b8ff" points="1354.71,-107.5 1364.71,-104 1354.71,-100.5 1354.71,-107.5"/>
</a>
</g>
</g>
<!-- Node27 -->
<g id="Node000027" class="node">
<title>Node27</title>
<g id="a_Node000027"><a xlink:href="class_bot_config.html#ab4929dd1c99a9e725800349a9cfc3b0e" target="_top" xlink:title=" ">
<polygon fill="white" stroke="#666666" points="646.75,-76 482.25,-76 482.25,-56 646.75,-56 646.75,-76"/>
<text text-anchor="middle" x="564.5" y="-62.5" font-family="Helvetica,sans-Serif" font-size="10.00">BotConfig::updateDataBluestacks</text>
</a>
</g>
</g>
<!-- Node26&#45;&gt;Node27 -->
<g id="edge35_Node000026_Node000027" class="edge">
<title>Node26&#45;&gt;Node27</title>
<g id="a_edge35_Node000026_Node000027"><a xlink:title=" ">
<path fill="none" stroke="#63b8ff" d="M446.56,-66C454.48,-66 462.58,-66 470.64,-66"/>
<polygon fill="#63b8ff" stroke="#63b8ff" points="470.47,-69.5 480.47,-66 470.47,-62.5 470.47,-69.5"/>
</a>
</g>
</g>
<!-- Node27&#45;&gt;Node19 -->
<g id="edge36_Node000027_Node000019" class="edge">
<title>Node27&#45;&gt;Node19</title>
<g id="a_edge36_Node000027_Node000019"><a xlink:title=" ">
<path fill="none" stroke="#63b8ff" d="M647.19,-66C655.09,-66 663.11,-66 671.02,-66"/>
<polygon fill="#63b8ff" stroke="#63b8ff" points="671,-69.5 681,-66 671,-62.5 671,-69.5"/>
</a>
</g>
</g>
<!-- Node29 -->
<g id="Node000029" class="node">
<title>Node29</title>
<g id="a_Node000029"><a xlink:href="class_bot_config.html#ae1e96b6b256aa8894b603259674f6a6f" target="_top" xlink:title=" ">
<polygon fill="white" stroke="#666666" points="641.5,-38 487.5,-38 487.5,-18 641.5,-18 641.5,-38"/>
<text text-anchor="middle" x="564.5" y="-24.5" font-family="Helvetica,sans-Serif" font-size="10.00">BotConfig::updateDataLdPlayer</text>
</a>
</g>
</g>
<!-- Node28&#45;&gt;Node29 -->
<g id="edge38_Node000028_Node000029" class="edge">
<title>Node28&#45;&gt;Node29</title>
<g id="a_edge38_Node000028_Node000029"><a xlink:title=" ">
<path fill="none" stroke="#63b8ff" d="M441.27,-28C452.46,-28 464.12,-28 475.61,-28"/>
<polygon fill="#63b8ff" stroke="#63b8ff" points="475.5,-31.5 485.5,-28 475.5,-24.5 475.5,-31.5"/>
</a>
</g>
</g>
<!-- Node29&#45;&gt;Node19 -->
<g id="edge39_Node000029_Node000019" class="edge">
<title>Node29&#45;&gt;Node19</title>
<g id="a_edge39_Node000029_Node000019"><a xlink:title=" ">
<path fill="none" stroke="#63b8ff" d="M617.58,-38.48C640.37,-43.07 667.32,-48.5 691.24,-53.31"/>
<polygon fill="#63b8ff" stroke="#63b8ff" points="690.37,-56.71 700.86,-55.25 691.75,-49.85 690.37,-56.71"/>
</a>
</g>
</g>
</g>
</svg>
