<?xml version="1.0" encoding="UTF-8" standalone="no"?>
<!DOCTYPE svg PUBLIC "-//W3C//DTD SVG 1.1//EN"
 "http://www.w3.org/Graphics/SVG/1.1/DTD/svg11.dtd">
<!-- Generated by graphviz version 12.2.0 (20241103.1931)
 -->
<!-- Title: LDPlayer::isInstanceRunning Pages: 1 -->
<svg width="527pt" height="85pt"
 viewBox="0.00 0.00 526.50 85.00" xmlns="http://www.w3.org/2000/svg" xmlns:xlink="http://www.w3.org/1999/xlink">
<g id="graph0" class="graph" transform="scale(1 1) rotate(0) translate(4 81)">
<title>LDPlayer::isInstanceRunning</title>
<!-- Node1 -->
<g id="Node000001" class="node">
<title>Node1</title>
<g id="a_Node000001"><a xlink:title=" ">
<polygon fill="#999999" stroke="#666666" points="143.5,-39 0,-39 0,-19 143.5,-19 143.5,-39"/>
<text text-anchor="middle" x="71.75" y="-25.5" font-family="Helvetica,sans-Serif" font-size="10.00">LDPlayer::isInstanceRunning</text>
</a>
</g>
</g>
<!-- Node2 -->
<g id="Node000002" class="node">
<title>Node2</title>
<g id="a_Node000002"><a xlink:href="sys_commands_8cpp.html#a40529d2008c5ec34a2251615ad504e28" target="_top" xlink:title=" ">
<polygon fill="white" stroke="#666666" points="296.75,-58 203.5,-58 203.5,-38 296.75,-38 296.75,-58"/>
<text text-anchor="middle" x="250.12" y="-44.5" font-family="Helvetica,sans-Serif" font-size="10.00">moveAndExecute</text>
</a>
</g>
</g>
<!-- Node1&#45;&gt;Node2 -->
<g id="edge1_Node000001_Node000002" class="edge">
<title>Node1&#45;&gt;Node2</title>
<g id="a_edge1_Node000001_Node000002"><a xlink:title=" ">
<path fill="none" stroke="#63b8ff" d="M143.98,-36.67C159.9,-38.39 176.59,-40.19 191.86,-41.83"/>
<polygon fill="#63b8ff" stroke="#63b8ff" points="191.41,-45.3 201.73,-42.89 192.16,-38.34 191.41,-45.3"/>
</a>
</g>
</g>
<!-- Node6 -->
<g id="Node000006" class="node">
<title>Node6</title>
<g id="a_Node000006"><a xlink:href="class_l_d_player.html#aa85461ad56f19bcf3620c16d6781f640" target="_top" xlink:title=" ">
<polygon fill="white" stroke="#666666" points="320.75,-20 179.5,-20 179.5,0 320.75,0 320.75,-20"/>
<text text-anchor="middle" x="250.12" y="-6.5" font-family="Helvetica,sans-Serif" font-size="10.00">LDPlayer::transformInstance</text>
</a>
</g>
</g>
<!-- Node1&#45;&gt;Node6 -->
<g id="edge5_Node000001_Node000006" class="edge">
<title>Node1&#45;&gt;Node6</title>
<g id="a_edge5_Node000001_Node000006"><a xlink:title=" ">
<path fill="none" stroke="#63b8ff" d="M143.98,-21.33C151.84,-20.48 159.89,-19.61 167.87,-18.75"/>
<polygon fill="#63b8ff" stroke="#63b8ff" points="167.99,-22.26 177.56,-17.71 167.24,-15.3 167.99,-22.26"/>
</a>
</g>
</g>
<!-- Node3 -->
<g id="Node000003" class="node">
<title>Node3</title>
<g id="a_Node000003"><a xlink:href="sys_commands_8cpp.html#a321eb7e335377aa7182bafc8a1605032" target="_top" xlink:title=" ">
<polygon fill="white" stroke="#666666" points="423.75,-58 356.75,-58 356.75,-38 423.75,-38 423.75,-58"/>
<text text-anchor="middle" x="390.25" y="-44.5" font-family="Helvetica,sans-Serif" font-size="10.00">receivePipe</text>
</a>
</g>
</g>
<!-- Node2&#45;&gt;Node3 -->
<g id="edge2_Node000002_Node000003" class="edge">
<title>Node2&#45;&gt;Node3</title>
<g id="a_edge2_Node000002_Node000003"><a xlink:title=" ">
<path fill="none" stroke="#63b8ff" d="M297.12,-48C312.63,-48 329.89,-48 345.24,-48"/>
<polygon fill="#63b8ff" stroke="#63b8ff" points="345.04,-51.5 355.04,-48 345.04,-44.5 345.04,-51.5"/>
</a>
</g>
</g>
<!-- Node4 -->
<g id="Node000004" class="node">
<title>Node4</title>
<g id="a_Node000004"><a xlink:href="sys_commands_8cpp.html#a4771c79171a937893508dabadadbe099" target="_top" xlink:title=" ">
<polygon fill="white" stroke="#666666" points="518.5,-77 459.75,-77 459.75,-57 518.5,-57 518.5,-77"/>
<text text-anchor="middle" x="489.12" y="-63.5" font-family="Helvetica,sans-Serif" font-size="10.00">closePipe</text>
</a>
</g>
</g>
<!-- Node3&#45;&gt;Node4 -->
<g id="edge3_Node000003_Node000004" class="edge">
<title>Node3&#45;&gt;Node4</title>
<g id="a_edge3_Node000003_Node000004"><a xlink:title=" ">
<path fill="none" stroke="#63b8ff" d="M424.05,-54.43C431.81,-55.95 440.17,-57.59 448.21,-59.17"/>
<polygon fill="#63b8ff" stroke="#63b8ff" points="447.28,-62.56 457.77,-61.05 448.63,-55.69 447.28,-62.56"/>
</a>
</g>
</g>
<!-- Node5 -->
<g id="Node000005" class="node">
<title>Node5</title>
<g id="a_Node000005"><a xlink:href="sys_commands_8cpp.html#a3499ce0cd7e4ed28b3c5461a4d3aec84" target="_top" xlink:title=" ">
<polygon fill="white" stroke="#666666" points="517.38,-39 460.88,-39 460.88,-19 517.38,-19 517.38,-39"/>
<text text-anchor="middle" x="489.12" y="-25.5" font-family="Helvetica,sans-Serif" font-size="10.00">openPipe</text>
</a>
</g>
</g>
<!-- Node3&#45;&gt;Node5 -->
<g id="edge4_Node000003_Node000005" class="edge">
<title>Node3&#45;&gt;Node5</title>
<g id="a_edge4_Node000003_Node000005"><a xlink:title=" ">
<path fill="none" stroke="#63b8ff" d="M424.05,-41.57C432.2,-39.97 441.01,-38.24 449.42,-36.59"/>
<polygon fill="#63b8ff" stroke="#63b8ff" points="449.9,-40.06 459.04,-34.7 448.55,-33.19 449.9,-40.06"/>
</a>
</g>
</g>
</g>
</svg>
