<?xml version="1.0" encoding="UTF-8" standalone="no"?>
<!DOCTYPE svg PUBLIC "-//W3C//DTD SVG 1.1//EN"
 "http://www.w3.org/Graphics/SVG/1.1/DTD/svg11.dtd">
<!-- Generated by graphviz version 12.2.0 (20241103.1931)
 -->
<!-- Title: Interactions::fOneTemplateA Pages: 1 -->
<svg width="1055pt" height="322pt"
 viewBox="0.00 0.00 1054.75 322.00" xmlns="http://www.w3.org/2000/svg" xmlns:xlink="http://www.w3.org/1999/xlink">
<g id="graph0" class="graph" transform="scale(1 1) rotate(0) translate(4 318)">
<title>Interactions::fOneTemplateA</title>
<!-- Node1 -->
<g id="Node000001" class="node">
<title>Node1</title>
<g id="a_Node000001"><a xlink:title=" ">
<polygon fill="#999999" stroke="#666666" points="140.5,-96 0,-96 0,-76 140.5,-76 140.5,-96"/>
<text text-anchor="middle" x="70.25" y="-82.5" font-family="Helvetica,sans-Serif" font-size="10.00">Interactions::fOneTemplateA</text>
</a>
</g>
</g>
<!-- Node2 -->
<g id="Node000002" class="node">
<title>Node2</title>
<g id="a_Node000002"><a xlink:href="fopencv_8cpp.html#abe41135f4dce8bf30bbdf6fd28d2abbc" target="_top" xlink:title=" ">
<polygon fill="white" stroke="#666666" points="288.88,-209 190.38,-209 190.38,-189 288.88,-189 288.88,-209"/>
<text text-anchor="middle" x="239.62" y="-195.5" font-family="Helvetica,sans-Serif" font-size="10.00">cvmtfOneTemplate</text>
</a>
</g>
</g>
<!-- Node1&#45;&gt;Node2 -->
<g id="edge1_Node000001_Node000002" class="edge">
<title>Node1&#45;&gt;Node2</title>
<g id="a_edge1_Node000001_Node000002"><a xlink:title=" ">
<path fill="none" stroke="#63b8ff" d="M86.7,-96.43C115.72,-116.02 178.61,-158.49 213.7,-182.17"/>
<polygon fill="#63b8ff" stroke="#63b8ff" points="211.72,-185.06 221.96,-187.75 215.63,-179.25 211.72,-185.06"/>
</a>
</g>
</g>
<!-- Node9 -->
<g id="Node000009" class="node">
<title>Node9</title>
<g id="a_Node000009"><a xlink:href="class_interactions.html#a5b5af2b125ff152043789cfcf70ffb2b" target="_top" xlink:title=" ">
<polygon fill="white" stroke="#666666" points="302.75,-58 176.5,-58 176.5,-38 302.75,-38 302.75,-58"/>
<text text-anchor="middle" x="239.62" y="-44.5" font-family="Helvetica,sans-Serif" font-size="10.00">Interactions::getTemplate</text>
</a>
</g>
</g>
<!-- Node1&#45;&gt;Node9 -->
<g id="edge8_Node000001_Node000009" class="edge">
<title>Node1&#45;&gt;Node9</title>
<g id="a_edge8_Node000001_Node000009"><a xlink:title=" ">
<path fill="none" stroke="#63b8ff" d="M117.43,-75.52C137.28,-71.01 160.68,-65.7 181.59,-60.95"/>
<polygon fill="#63b8ff" stroke="#63b8ff" points="182.14,-64.41 191.12,-58.79 180.59,-57.59 182.14,-64.41"/>
</a>
</g>
</g>
<!-- Node11 -->
<g id="Node000011" class="node">
<title>Node11</title>
<g id="a_Node000011"><a xlink:href="class_interactions.html#a0a0ffd9ad1990de31fd7b2773db32667" target="_top" xlink:title=" ">
<polygon fill="white" stroke="#666666" points="300.12,-143 179.12,-143 179.12,-123 300.12,-123 300.12,-143"/>
<text text-anchor="middle" x="239.62" y="-129.5" font-family="Helvetica,sans-Serif" font-size="10.00">Interactions::loopPopUp</text>
</a>
</g>
</g>
<!-- Node1&#45;&gt;Node11 -->
<g id="edge10_Node000001_Node000011" class="edge">
<title>Node1&#45;&gt;Node11</title>
<g id="a_edge10_Node000001_Node000011"><a xlink:title=" ">
<path fill="none" stroke="#63b8ff" d="M108.4,-96.43C132.58,-103.22 164.37,-112.15 190.49,-119.48"/>
<polygon fill="#63b8ff" stroke="#63b8ff" points="189.26,-122.77 199.84,-122.11 191.16,-116.03 189.26,-122.77"/>
</a>
</g>
</g>
<!-- Node23 -->
<g id="Node000023" class="node">
<title>Node23</title>
<g id="a_Node000023"><a xlink:href="class_interactions.html#ade7f52c59105f434650b9358b22e5488" target="_top" xlink:title=" ">
<polygon fill="white" stroke="#666666" points="300.12,-20 179.12,-20 179.12,0 300.12,0 300.12,-20"/>
<text text-anchor="middle" x="239.62" y="-6.5" font-family="Helvetica,sans-Serif" font-size="10.00">Interactions::resetCount</text>
</a>
</g>
</g>
<!-- Node1&#45;&gt;Node23 -->
<g id="edge24_Node000001_Node000023" class="edge">
<title>Node1&#45;&gt;Node23</title>
<g id="a_edge24_Node000001_Node000023"><a xlink:title=" ">
<path fill="none" stroke="#63b8ff" d="M87.87,-75.64C108.19,-63.3 143.92,-42.65 176.5,-29 180.6,-27.28 184.9,-25.65 189.26,-24.1"/>
<polygon fill="#63b8ff" stroke="#63b8ff" points="190.28,-27.45 198.65,-20.96 188.06,-20.82 190.28,-27.45"/>
</a>
</g>
</g>
<!-- Node24 -->
<g id="Node000024" class="node">
<title>Node24</title>
<g id="a_Node000024"><a xlink:href="class_interactions.html#ad7daddd9df3cea80e69872b8afd6c8dc" target="_top" xlink:title=" ">
<polygon fill="white" stroke="#666666" points="476.25,-86 338.75,-86 338.75,-66 476.25,-66 476.25,-86"/>
<text text-anchor="middle" x="407.5" y="-72.5" font-family="Helvetica,sans-Serif" font-size="10.00">Interactions::templateFound</text>
</a>
</g>
</g>
<!-- Node1&#45;&gt;Node24 -->
<g id="edge25_Node000001_Node000024" class="edge">
<title>Node1&#45;&gt;Node24</title>
<g id="a_edge25_Node000001_Node000024"><a xlink:title=" ">
<path fill="none" stroke="#63b8ff" d="M140.71,-83.93C194.9,-82.31 270.22,-80.07 326.85,-78.38"/>
<polygon fill="#63b8ff" stroke="#63b8ff" points="326.87,-81.88 336.76,-78.08 326.66,-74.88 326.87,-81.88"/>
</a>
</g>
</g>
<!-- Node3 -->
<g id="Node000003" class="node">
<title>Node3</title>
<g id="a_Node000003"><a xlink:href="fopencv_8cpp.html#a69713584f69a121e4ed91918a64448a0" target="_top" xlink:title=" ">
<polygon fill="white" stroke="#666666" points="599.12,-238 518.62,-238 518.62,-218 599.12,-218 599.12,-238"/>
<text text-anchor="middle" x="558.88" y="-224.5" font-family="Helvetica,sans-Serif" font-size="10.00">cvmtfTemplate</text>
</a>
</g>
</g>
<!-- Node2&#45;&gt;Node3 -->
<g id="edge2_Node000002_Node000003" class="edge">
<title>Node2&#45;&gt;Node3</title>
<g id="a_edge2_Node000002_Node000003"><a xlink:title=" ">
<path fill="none" stroke="#63b8ff" d="M289.27,-204.1C305.05,-205.72 322.64,-207.48 338.75,-209 396.33,-214.43 462.48,-220.09 506.91,-223.8"/>
<polygon fill="#63b8ff" stroke="#63b8ff" points="506.51,-227.28 516.76,-224.62 507.09,-220.3 506.51,-227.28"/>
</a>
</g>
</g>
<!-- Node4 -->
<g id="Node000004" class="node">
<title>Node4</title>
<g id="a_Node000004"><a xlink:href="fopencv_8cpp.html#af6fc77188d314c0d5a58888452f9b313" target="_top" xlink:title=" ">
<polygon fill="white" stroke="#666666" points="724.62,-200 656.88,-200 656.88,-180 724.62,-180 724.62,-200"/>
<text text-anchor="middle" x="690.75" y="-186.5" font-family="Helvetica,sans-Serif" font-size="10.00">extractZone</text>
</a>
</g>
</g>
<!-- Node3&#45;&gt;Node4 -->
<g id="edge3_Node000003_Node000004" class="edge">
<title>Node3&#45;&gt;Node4</title>
<g id="a_edge3_Node000003_Node000004"><a xlink:title=" ">
<path fill="none" stroke="#63b8ff" d="M595.71,-217.52C611.2,-212.98 629.49,-207.63 645.79,-202.86"/>
<polygon fill="#63b8ff" stroke="#63b8ff" points="646.64,-206.26 655.25,-200.09 644.67,-199.54 646.64,-206.26"/>
</a>
</g>
</g>
<!-- Node5 -->
<g id="Node000005" class="node">
<title>Node5</title>
<g id="a_Node000005"><a xlink:href="struct_zone.html#a5301e7fcf185a5a79c1bf7d7930f4b8a" target="_top" xlink:title=" ">
<polygon fill="white" stroke="#666666" points="725,-314 656.5,-314 656.5,-294 725,-294 725,-314"/>
<text text-anchor="middle" x="690.75" y="-300.5" font-family="Helvetica,sans-Serif" font-size="10.00">Zone::isNull</text>
</a>
</g>
</g>
<!-- Node3&#45;&gt;Node5 -->
<g id="edge4_Node000003_Node000005" class="edge">
<title>Node3&#45;&gt;Node5</title>
<g id="a_edge4_Node000003_Node000005"><a xlink:title=" ">
<path fill="none" stroke="#63b8ff" d="M572.83,-238.49C588.43,-250.77 615.76,-271.19 641.5,-285 644.03,-286.36 646.69,-287.67 649.39,-288.94"/>
<polygon fill="#63b8ff" stroke="#63b8ff" points="647.96,-292.13 658.52,-292.91 650.75,-285.71 647.96,-292.13"/>
</a>
</g>
</g>
<!-- Node7 -->
<g id="Node000007" class="node">
<title>Node7</title>
<g id="a_Node000007"><a xlink:href="fopencv_8cpp.html#a1ed1ff1a9df2ab889e1423cb11a58c06" target="_top" xlink:title=" ">
<polygon fill="white" stroke="#666666" points="732.12,-276 649.38,-276 649.38,-256 732.12,-256 732.12,-276"/>
<text text-anchor="middle" x="690.75" y="-262.5" font-family="Helvetica,sans-Serif" font-size="10.00">messageFound</text>
</a>
</g>
</g>
<!-- Node3&#45;&gt;Node7 -->
<g id="edge6_Node000003_Node000007" class="edge">
<title>Node3&#45;&gt;Node7</title>
<g id="a_edge6_Node000003_Node000007"><a xlink:title=" ">
<path fill="none" stroke="#63b8ff" d="M595.71,-238.48C610.33,-242.76 627.43,-247.77 643.01,-252.33"/>
<polygon fill="#63b8ff" stroke="#63b8ff" points="642,-255.68 652.58,-255.12 643.97,-248.96 642,-255.68"/>
</a>
</g>
</g>
<!-- Node8 -->
<g id="Node000008" class="node">
<title>Node8</title>
<g id="a_Node000008"><a xlink:href="fopencv_8cpp.html#ae51fd1f3ed39bd8c9b8da4a313d5aeb3" target="_top" xlink:title=" ">
<polygon fill="white" stroke="#666666" points="740,-238 641.5,-238 641.5,-218 740,-218 740,-238"/>
<text text-anchor="middle" x="690.75" y="-224.5" font-family="Helvetica,sans-Serif" font-size="10.00">oneMatchTemplate</text>
</a>
</g>
</g>
<!-- Node3&#45;&gt;Node8 -->
<g id="edge7_Node000003_Node000008" class="edge">
<title>Node3&#45;&gt;Node8</title>
<g id="a_edge7_Node000003_Node000008"><a xlink:title=" ">
<path fill="none" stroke="#63b8ff" d="M599.55,-228C609.09,-228 619.49,-228 629.72,-228"/>
<polygon fill="#63b8ff" stroke="#63b8ff" points="629.64,-231.5 639.64,-228 629.64,-224.5 629.64,-231.5"/>
</a>
</g>
</g>
<!-- Node6 -->
<g id="Node000006" class="node">
<title>Node6</title>
<g id="a_Node000006"><a xlink:href="struct_coord.html#a34c573cd6230e5a532f12ae97e7395e2" target="_top" xlink:title=" ">
<polygon fill="white" stroke="#666666" points="849,-314 776,-314 776,-294 849,-294 849,-314"/>
<text text-anchor="middle" x="812.5" y="-300.5" font-family="Helvetica,sans-Serif" font-size="10.00">Coord::isNull</text>
</a>
</g>
</g>
<!-- Node5&#45;&gt;Node6 -->
<g id="edge5_Node000005_Node000006" class="edge">
<title>Node5&#45;&gt;Node6</title>
<g id="a_edge5_Node000005_Node000006"><a xlink:title=" ">
<path fill="none" stroke="#63b8ff" d="M725.43,-304C737.52,-304 751.39,-304 764.41,-304"/>
<polygon fill="#63b8ff" stroke="#63b8ff" points="764.05,-307.5 774.05,-304 764.05,-300.5 764.05,-307.5"/>
</a>
</g>
</g>
<!-- Node10 -->
<g id="Node000010" class="node">
<title>Node10</title>
<g id="a_Node000010"><a xlink:href="struct_template.html#a93d3c6f97592ba09d7819fda3c3296d7" target="_top" xlink:title=" ">
<polygon fill="white" stroke="#666666" points="455.62,-48 359.38,-48 359.38,-28 455.62,-28 455.62,-48"/>
<text text-anchor="middle" x="407.5" y="-34.5" font-family="Helvetica,sans-Serif" font-size="10.00">Template::setType</text>
</a>
</g>
</g>
<!-- Node9&#45;&gt;Node10 -->
<g id="edge9_Node000009_Node000010" class="edge">
<title>Node9&#45;&gt;Node10</title>
<g id="a_edge9_Node000009_Node000010"><a xlink:title=" ">
<path fill="none" stroke="#63b8ff" d="M302.86,-44.25C317.52,-43.36 333.09,-42.43 347.59,-41.55"/>
<polygon fill="#63b8ff" stroke="#63b8ff" points="347.67,-45.05 357.44,-40.96 347.25,-38.07 347.67,-45.05"/>
</a>
</g>
</g>
<!-- Node12 -->
<g id="Node000012" class="node">
<title>Node12</title>
<g id="a_Node000012"><a xlink:href="fopencv_8cpp.html#a5c455ed716b7fa4c675446fc5b8ba4fb" target="_top" xlink:title=" ">
<polygon fill="white" stroke="#666666" points="438.38,-124 376.62,-124 376.62,-104 438.38,-104 438.38,-124"/>
<text text-anchor="middle" x="407.5" y="-110.5" font-family="Helvetica,sans-Serif" font-size="10.00">CreateMat</text>
</a>
</g>
</g>
<!-- Node11&#45;&gt;Node12 -->
<g id="edge11_Node000011_Node000012" class="edge">
<title>Node11&#45;&gt;Node12</title>
<g id="a_edge11_Node000011_Node000012"><a xlink:title=" ">
<path fill="none" stroke="#63b8ff" d="M300.51,-126.14C321.97,-123.68 345.68,-120.97 365.21,-118.73"/>
<polygon fill="#63b8ff" stroke="#63b8ff" points="365.44,-122.23 374.98,-117.61 364.65,-115.27 365.44,-122.23"/>
</a>
</g>
</g>
<!-- Node13 -->
<g id="Node000013" class="node">
<title>Node13</title>
<g id="a_Node000013"><a xlink:href="class_interactions.html#aed04f9177d2aba467d71818a5e82c7bc" target="_top" xlink:title=" ">
<polygon fill="white" stroke="#666666" points="464.62,-162 350.38,-162 350.38,-142 464.62,-142 464.62,-162"/>
<text text-anchor="middle" x="407.5" y="-148.5" font-family="Helvetica,sans-Serif" font-size="10.00">Interactions::fcpopupA</text>
</a>
</g>
</g>
<!-- Node11&#45;&gt;Node13 -->
<g id="edge12_Node000011_Node000013" class="edge">
<title>Node11&#45;&gt;Node13</title>
<g id="a_edge12_Node000011_Node000013"><a xlink:title=" ">
<path fill="none" stroke="#63b8ff" d="M300.51,-139.86C312.87,-141.28 325.98,-142.78 338.6,-144.22"/>
<polygon fill="#63b8ff" stroke="#63b8ff" points="338.19,-147.7 348.52,-145.36 338.98,-140.74 338.19,-147.7"/>
</a>
</g>
</g>
<!-- Node16 -->
<g id="Node000016" class="node">
<title>Node16</title>
<g id="a_Node000016"><a xlink:href="fadb_8cpp.html#aeec40a5f78ae4713eedd84cb5f75746f" target="_top" xlink:title=" ">
<polygon fill="white" stroke="#666666" points="439.5,-200 375.5,-200 375.5,-180 439.5,-180 439.5,-200"/>
<text text-anchor="middle" x="407.5" y="-186.5" font-family="Helvetica,sans-Serif" font-size="10.00">screenshot</text>
</a>
</g>
</g>
<!-- Node11&#45;&gt;Node16 -->
<g id="edge17_Node000011_Node000016" class="edge">
<title>Node11&#45;&gt;Node16</title>
<g id="a_edge17_Node000011_Node000016"><a xlink:title=" ">
<path fill="none" stroke="#63b8ff" d="M265.39,-143.35C285.09,-151.4 313.44,-162.57 338.75,-171 346.97,-173.74 355.84,-176.42 364.36,-178.86"/>
<polygon fill="#63b8ff" stroke="#63b8ff" points="363.25,-182.18 373.82,-181.51 365.14,-175.44 363.25,-182.18"/>
</a>
</g>
</g>
<!-- Node13&#45;&gt;Node3 -->
<g id="edge15_Node000013_Node000003" class="edge">
<title>Node13&#45;&gt;Node3</title>
<g id="a_edge15_Node000013_Node000003"><a xlink:title=" ">
<path fill="none" stroke="#63b8ff" d="M457.49,-162.47C464.02,-164.79 470.45,-167.61 476.25,-171 495.78,-182.43 493.68,-194.07 512.25,-207 514.93,-208.87 517.81,-210.64 520.76,-212.3"/>
<polygon fill="#63b8ff" stroke="#63b8ff" points="519.11,-215.39 529.6,-216.83 522.3,-209.16 519.11,-215.39"/>
</a>
</g>
</g>
<!-- Node14 -->
<g id="Node000014" class="node">
<title>Node14</title>
<g id="a_Node000014"><a xlink:href="class_interactions.html#aae6172962092f278714536142e987cde" target="_top" xlink:title=" ">
<polygon fill="white" stroke="#666666" points="605.5,-91 512.25,-91 512.25,-71 605.5,-71 605.5,-91"/>
<text text-anchor="middle" x="558.88" y="-77.5" font-family="Helvetica,sans-Serif" font-size="10.00">Interactions::click</text>
</a>
</g>
</g>
<!-- Node13&#45;&gt;Node14 -->
<g id="edge13_Node000013_Node000014" class="edge">
<title>Node13&#45;&gt;Node14</title>
<g id="a_edge13_Node000013_Node000014"><a xlink:title=" ">
<path fill="none" stroke="#63b8ff" d="M452.9,-141.57C460.82,-139.15 468.89,-136.29 476.25,-133 497.46,-123.52 519.58,-109.11 535.43,-97.86"/>
<polygon fill="#63b8ff" stroke="#63b8ff" points="537.16,-100.93 543.2,-92.22 533.05,-95.26 537.16,-100.93"/>
</a>
</g>
</g>
<!-- Node15 -->
<g id="Node000015" class="node">
<title>Node15</title>
<g id="a_Node000015"><a xlink:href="class_interactions.html#abd5b5d8a44970e1333e3611e302f166c" target="_top" xlink:title=" ">
<polygon fill="white" stroke="#666666" points="604.38,-157 513.38,-157 513.38,-137 604.38,-137 604.38,-157"/>
<text text-anchor="middle" x="558.88" y="-143.5" font-family="Helvetica,sans-Serif" font-size="10.00">Interactions::wait</text>
</a>
</g>
</g>
<!-- Node13&#45;&gt;Node15 -->
<g id="edge16_Node000013_Node000015" class="edge">
<title>Node13&#45;&gt;Node15</title>
<g id="a_edge16_Node000013_Node000015"><a xlink:title=" ">
<path fill="none" stroke="#63b8ff" d="M464.97,-150.11C476.99,-149.71 489.68,-149.28 501.69,-148.88"/>
<polygon fill="#63b8ff" stroke="#63b8ff" points="501.57,-152.39 511.44,-148.55 501.33,-145.39 501.57,-152.39"/>
</a>
</g>
</g>
<!-- Node14&#45;&gt;Node14 -->
<g id="edge14_Node000014_Node000014" class="edge">
<title>Node14&#45;&gt;Node14</title>
<g id="a_edge14_Node000014_Node000014"><a xlink:title=" ">
<path fill="none" stroke="#63b8ff" d="M537.92,-91.34C528.97,-99.98 535.95,-109 558.88,-109 571.41,-109 579.18,-106.3 582.18,-102.44"/>
<polygon fill="#63b8ff" stroke="#63b8ff" points="585.64,-101.88 580.14,-92.82 578.79,-103.33 585.64,-101.88"/>
</a>
</g>
</g>
<!-- Node17 -->
<g id="Node000017" class="node">
<title>Node17</title>
<g id="a_Node000017"><a xlink:href="fadb_8cpp.html#a7ab9819839864ebd26d0e7e68e330418" target="_top" xlink:title=" ">
<polygon fill="white" stroke="#666666" points="601,-198 516.75,-198 516.75,-178 601,-178 601,-198"/>
<text text-anchor="middle" x="558.88" y="-184.5" font-family="Helvetica,sans-Serif" font-size="10.00">takeScreenshot</text>
</a>
</g>
</g>
<!-- Node16&#45;&gt;Node17 -->
<g id="edge18_Node000016_Node000017" class="edge">
<title>Node16&#45;&gt;Node17</title>
<g id="a_edge18_Node000016_Node000017"><a xlink:title=" ">
<path fill="none" stroke="#63b8ff" d="M439.81,-189.58C458.67,-189.33 483.17,-189 504.96,-188.71"/>
<polygon fill="#63b8ff" stroke="#63b8ff" points="504.93,-192.21 514.88,-188.58 504.83,-185.21 504.93,-192.21"/>
</a>
</g>
</g>
<!-- Node18 -->
<g id="Node000018" class="node">
<title>Node18</title>
<g id="a_Node000018"><a xlink:href="fadb_8cpp.html#ac6339b59ba8238f7483dece7f3fdf51b" target="_top" xlink:title=" ">
<polygon fill="white" stroke="#666666" points="735.12,-162 646.38,-162 646.38,-142 735.12,-142 735.12,-162"/>
<text text-anchor="middle" x="690.75" y="-148.5" font-family="Helvetica,sans-Serif" font-size="10.00">runAdbLocalhost</text>
</a>
</g>
</g>
<!-- Node17&#45;&gt;Node18 -->
<g id="edge19_Node000017_Node000018" class="edge">
<title>Node17&#45;&gt;Node18</title>
<g id="a_edge19_Node000017_Node000018"><a xlink:title=" ">
<path fill="none" stroke="#63b8ff" d="M597.44,-177.59C611.17,-173.78 626.9,-169.42 641.44,-165.39"/>
<polygon fill="#63b8ff" stroke="#63b8ff" points="642.11,-168.84 650.81,-162.79 640.24,-162.09 642.11,-168.84"/>
</a>
</g>
</g>
<!-- Node19 -->
<g id="Node000019" class="node">
<title>Node19</title>
<g id="a_Node000019"><a xlink:href="fadb_8cpp.html#a383ae5fedc9f597a03c74c729a2eb740" target="_top" xlink:title=" ">
<polygon fill="white" stroke="#666666" points="835.88,-162 789.12,-162 789.12,-142 835.88,-142 835.88,-162"/>
<text text-anchor="middle" x="812.5" y="-148.5" font-family="Helvetica,sans-Serif" font-size="10.00">runAdb</text>
</a>
</g>
</g>
<!-- Node18&#45;&gt;Node19 -->
<g id="edge20_Node000018_Node000019" class="edge">
<title>Node18&#45;&gt;Node19</title>
<g id="a_edge20_Node000018_Node000019"><a xlink:title=" ">
<path fill="none" stroke="#63b8ff" d="M735.32,-152C749.15,-152 764.22,-152 777.29,-152"/>
<polygon fill="#63b8ff" stroke="#63b8ff" points="777.12,-155.5 787.12,-152 777.12,-148.5 777.12,-155.5"/>
</a>
</g>
</g>
<!-- Node20 -->
<g id="Node000020" class="node">
<title>Node20</title>
<g id="a_Node000020"><a xlink:href="sys_commands_8cpp.html#a321eb7e335377aa7182bafc8a1605032" target="_top" xlink:title=" ">
<polygon fill="white" stroke="#666666" points="952,-162 885,-162 885,-142 952,-142 952,-162"/>
<text text-anchor="middle" x="918.5" y="-148.5" font-family="Helvetica,sans-Serif" font-size="10.00">receivePipe</text>
</a>
</g>
</g>
<!-- Node19&#45;&gt;Node20 -->
<g id="edge21_Node000019_Node000020" class="edge">
<title>Node19&#45;&gt;Node20</title>
<g id="a_edge21_Node000019_Node000020"><a xlink:title=" ">
<path fill="none" stroke="#63b8ff" d="M836.32,-152C847.22,-152 860.64,-152 873.41,-152"/>
<polygon fill="#63b8ff" stroke="#63b8ff" points="873.35,-155.5 883.35,-152 873.35,-148.5 873.35,-155.5"/>
</a>
</g>
</g>
<!-- Node21 -->
<g id="Node000021" class="node">
<title>Node21</title>
<g id="a_Node000021"><a xlink:href="sys_commands_8cpp.html#a4771c79171a937893508dabadadbe099" target="_top" xlink:title=" ">
<polygon fill="white" stroke="#666666" points="1046.75,-181 988,-181 988,-161 1046.75,-161 1046.75,-181"/>
<text text-anchor="middle" x="1017.38" y="-167.5" font-family="Helvetica,sans-Serif" font-size="10.00">closePipe</text>
</a>
</g>
</g>
<!-- Node20&#45;&gt;Node21 -->
<g id="edge22_Node000020_Node000021" class="edge">
<title>Node20&#45;&gt;Node21</title>
<g id="a_edge22_Node000020_Node000021"><a xlink:title=" ">
<path fill="none" stroke="#63b8ff" d="M952.3,-158.43C960.06,-159.95 968.42,-161.59 976.46,-163.17"/>
<polygon fill="#63b8ff" stroke="#63b8ff" points="975.53,-166.56 986.02,-165.05 976.88,-159.69 975.53,-166.56"/>
</a>
</g>
</g>
<!-- Node22 -->
<g id="Node000022" class="node">
<title>Node22</title>
<g id="a_Node000022"><a xlink:href="sys_commands_8cpp.html#a3499ce0cd7e4ed28b3c5461a4d3aec84" target="_top" xlink:title=" ">
<polygon fill="white" stroke="#666666" points="1045.62,-143 989.12,-143 989.12,-123 1045.62,-123 1045.62,-143"/>
<text text-anchor="middle" x="1017.38" y="-129.5" font-family="Helvetica,sans-Serif" font-size="10.00">openPipe</text>
</a>
</g>
</g>
<!-- Node20&#45;&gt;Node22 -->
<g id="edge23_Node000020_Node000022" class="edge">
<title>Node20&#45;&gt;Node22</title>
<g id="a_edge23_Node000020_Node000022"><a xlink:title=" ">
<path fill="none" stroke="#63b8ff" d="M952.3,-145.57C960.45,-143.97 969.26,-142.24 977.67,-140.59"/>
<polygon fill="#63b8ff" stroke="#63b8ff" points="978.15,-144.06 987.29,-138.7 976.8,-137.19 978.15,-144.06"/>
</a>
</g>
</g>
<!-- Node24&#45;&gt;Node14 -->
<g id="edge26_Node000024_Node000014" class="edge">
<title>Node24&#45;&gt;Node14</title>
<g id="a_edge26_Node000024_Node000014"><a xlink:title=" ">
<path fill="none" stroke="#63b8ff" d="M476.63,-78.28C484.7,-78.55 492.86,-78.82 500.75,-79.09"/>
<polygon fill="#63b8ff" stroke="#63b8ff" points="500.45,-82.58 510.56,-79.42 500.68,-75.58 500.45,-82.58"/>
</a>
</g>
</g>
<!-- Node24&#45;&gt;Node15 -->
<g id="edge27_Node000024_Node000015" class="edge">
<title>Node24&#45;&gt;Node15</title>
<g id="a_edge27_Node000024_Node000015"><a xlink:title=" ">
<path fill="none" stroke="#63b8ff" d="M452.9,-86.42C460.82,-88.85 468.89,-91.71 476.25,-95 493.58,-102.76 496.24,-107.8 512.25,-118 518.59,-122.04 525.42,-126.39 531.83,-130.46"/>
<polygon fill="#63b8ff" stroke="#63b8ff" points="529.8,-133.32 540.12,-135.73 533.56,-127.41 529.8,-133.32"/>
</a>
</g>
</g>
</g>
</svg>
