<?xml version="1.0" encoding="UTF-8" standalone="no"?>
<!DOCTYPE svg PUBLIC "-//W3C//DTD SVG 1.1//EN"
 "http://www.w3.org/Graphics/SVG/1.1/DTD/svg11.dtd">
<!-- Generated by graphviz version 12.2.0 (20241103.1931)
 -->
<!-- Title: FlowKToken::addOb Pages: 1 -->
<svg width="273pt" height="142pt"
 viewBox="0.00 0.00 273.25 142.00" xmlns="http://www.w3.org/2000/svg" xmlns:xlink="http://www.w3.org/1999/xlink">
<g id="graph0" class="graph" transform="scale(1 1) rotate(0) translate(4 138)">
<title>FlowKToken::addOb</title>
<!-- Node1 -->
<g id="Node000001" class="node">
<title>Node1</title>
<g id="a_Node000001"><a xlink:title=" ">
<polygon fill="#999999" stroke="#666666" points="104.5,-77 0,-77 0,-57 104.5,-57 104.5,-77"/>
<text text-anchor="middle" x="52.25" y="-63.5" font-family="Helvetica,sans-Serif" font-size="10.00">FlowKToken::addOb</text>
</a>
</g>
</g>
<!-- Node2 -->
<g id="Node000002" class="node">
<title>Node2</title>
<g id="a_Node000002"><a xlink:href="class_token.html#a4c0f84a84656f0b5e28c4193c3c13ea3" target="_top" xlink:title=" ">
<polygon fill="white" stroke="#666666" points="245.38,-134 160.38,-134 160.38,-114 245.38,-114 245.38,-134"/>
<text text-anchor="middle" x="202.88" y="-120.5" font-family="Helvetica,sans-Serif" font-size="10.00">Token::addError</text>
</a>
</g>
</g>
<!-- Node1&#45;&gt;Node2 -->
<g id="edge1_Node000001_Node000002" class="edge">
<title>Node1&#45;&gt;Node2</title>
<g id="a_edge1_Node000001_Node000002"><a xlink:title=" ">
<path fill="none" stroke="#63b8ff" d="M75.21,-77.37C92.69,-85.43 117.89,-96.6 140.5,-105 145.15,-106.73 150.05,-108.43 154.95,-110.06"/>
<polygon fill="#63b8ff" stroke="#63b8ff" points="153.6,-113.3 164.19,-113.04 155.75,-106.64 153.6,-113.3"/>
</a>
</g>
</g>
<!-- Node3 -->
<g id="Node000003" class="node">
<title>Node3</title>
<g id="a_Node000003"><a xlink:href="class_iterator_list.html#a4acf162e4a194bddd3c2fe26b073f45a" target="_top" xlink:title=" ">
<polygon fill="white" stroke="#666666" points="265.25,-96 140.5,-96 140.5,-76 265.25,-76 265.25,-96"/>
<text text-anchor="middle" x="202.88" y="-82.5" font-family="Helvetica,sans-Serif" font-size="10.00">IteratorList::currentToken</text>
</a>
</g>
</g>
<!-- Node1&#45;&gt;Node3 -->
<g id="edge2_Node000001_Node000003" class="edge">
<title>Node1&#45;&gt;Node3</title>
<g id="a_edge2_Node000001_Node000003"><a xlink:title=" ">
<path fill="none" stroke="#63b8ff" d="M104.81,-73.59C112.56,-74.58 120.68,-75.62 128.78,-76.66"/>
<polygon fill="#63b8ff" stroke="#63b8ff" points="128.3,-80.12 138.67,-77.92 129.19,-73.18 128.3,-80.12"/>
</a>
</g>
</g>
<!-- Node4 -->
<g id="Node000004" class="node">
<title>Node4</title>
<g id="a_Node000004"><a xlink:href="class_iterator_list.html#a2ebc1118094754b7d333b0a9d257d12b" target="_top" xlink:title=" ">
<polygon fill="white" stroke="#666666" points="250.25,-58 155.5,-58 155.5,-38 250.25,-38 250.25,-58"/>
<text text-anchor="middle" x="202.88" y="-44.5" font-family="Helvetica,sans-Serif" font-size="10.00">IteratorList::ended</text>
</a>
</g>
</g>
<!-- Node1&#45;&gt;Node4 -->
<g id="edge3_Node000001_Node000004" class="edge">
<title>Node1&#45;&gt;Node4</title>
<g id="a_edge3_Node000001_Node000004"><a xlink:title=" ">
<path fill="none" stroke="#63b8ff" d="M104.81,-60.41C117.52,-58.78 131.22,-57.03 144.2,-55.37"/>
<polygon fill="#63b8ff" stroke="#63b8ff" points="144.4,-58.88 153.87,-54.14 143.51,-51.93 144.4,-58.88"/>
</a>
</g>
</g>
<!-- Node5 -->
<g id="Node000005" class="node">
<title>Node5</title>
<g id="a_Node000005"><a xlink:href="class_iterator_list.html#af5c370ccb8698e2a9fb0714782d57203" target="_top" xlink:title=" ">
<polygon fill="white" stroke="#666666" points="246.5,-20 159.25,-20 159.25,0 246.5,0 246.5,-20"/>
<text text-anchor="middle" x="202.88" y="-6.5" font-family="Helvetica,sans-Serif" font-size="10.00">IteratorList::next</text>
</a>
</g>
</g>
<!-- Node1&#45;&gt;Node5 -->
<g id="edge4_Node000001_Node000005" class="edge">
<title>Node1&#45;&gt;Node5</title>
<g id="a_edge4_Node000001_Node000005"><a xlink:title=" ">
<path fill="none" stroke="#63b8ff" d="M75.21,-56.63C92.69,-48.57 117.89,-37.4 140.5,-29 145.15,-27.27 150.05,-25.57 154.95,-23.94"/>
<polygon fill="#63b8ff" stroke="#63b8ff" points="155.75,-27.36 164.19,-20.96 153.6,-20.7 155.75,-27.36"/>
</a>
</g>
</g>
</g>
</svg>
