<?xml version="1.0" encoding="UTF-8" standalone="no"?>
<!DOCTYPE svg PUBLIC "-//W3C//DTD SVG 1.1//EN"
 "http://www.w3.org/Graphics/SVG/1.1/DTD/svg11.dtd">
<!-- Generated by graphviz version 12.2.0 (20241103.1931)
 -->
<!-- Title: TagPanel::getCutButton Pages: 1 -->
<svg width="499pt" height="96pt"
 viewBox="0.00 0.00 498.50 96.00" xmlns="http://www.w3.org/2000/svg" xmlns:xlink="http://www.w3.org/1999/xlink">
<g id="graph0" class="graph" transform="scale(1 1) rotate(0) translate(4 92)">
<title>TagPanel::getCutButton</title>
<!-- Node1 -->
<g id="Node000001" class="node">
<title>Node1</title>
<g id="a_Node000001"><a xlink:title=" ">
<polygon fill="#999999" stroke="#666666" points="490.5,-48 370.25,-48 370.25,-28 490.5,-28 490.5,-48"/>
<text text-anchor="middle" x="430.38" y="-34.5" font-family="Helvetica,sans-Serif" font-size="10.00">TagPanel::getCutButton</text>
</a>
</g>
</g>
<!-- Node2 -->
<g id="Node000002" class="node">
<title>Node2</title>
<g id="a_Node000002"><a xlink:href="class_my_frame.html#acd9a16551875b5044f741e6cbd164423" target="_top" xlink:title=" ">
<polygon fill="white" stroke="#666666" points="334.25,-48 180.25,-48 180.25,-28 334.25,-28 334.25,-48"/>
<text text-anchor="middle" x="257.25" y="-34.5" font-family="Helvetica,sans-Serif" font-size="10.00">MyFrame::BindTagPanelEvents</text>
</a>
</g>
</g>
<!-- Node1&#45;&gt;Node2 -->
<g id="edge1_Node000001_Node000002" class="edge">
<title>Node1&#45;&gt;Node2</title>
<g id="a_edge1_Node000001_Node000002"><a xlink:title=" ">
<path fill="none" stroke="#63b8ff" d="M358.6,-38C350.71,-38 342.65,-38 334.7,-38"/>
<polygon fill="#63b8ff" stroke="#63b8ff" points="358.49,-41.5 368.49,-38 358.49,-34.5 358.49,-41.5"/>
</a>
</g>
</g>
<!-- Node3 -->
<g id="Node000003" class="node">
<title>Node3</title>
<g id="a_Node000003"><a xlink:href="class_my_frame.html#a01f2e54de1670750b396d4256eeff398" target="_top" xlink:title=" ">
<polygon fill="white" stroke="#666666" points="137.88,-70 6.38,-70 6.38,-50 137.88,-50 137.88,-70"/>
<text text-anchor="middle" x="72.12" y="-56.5" font-family="Helvetica,sans-Serif" font-size="10.00">MyFrame::BindEventsRec</text>
</a>
</g>
</g>
<!-- Node2&#45;&gt;Node3 -->
<g id="edge2_Node000002_Node000003" class="edge">
<title>Node2&#45;&gt;Node3</title>
<g id="a_edge2_Node000002_Node000003"><a xlink:title=" ">
<path fill="none" stroke="#63b8ff" d="M168.81,-48.5C158.53,-49.74 148.18,-50.98 138.28,-52.17"/>
<polygon fill="#63b8ff" stroke="#63b8ff" points="168.9,-52.02 178.41,-47.35 168.07,-45.07 168.9,-52.02"/>
</a>
</g>
</g>
<!-- Node4 -->
<g id="Node000004" class="node">
<title>Node4</title>
<g id="a_Node000004"><a xlink:href="class_my_frame.html#a4fa368851e6e293456a865a4e6f70aa9" target="_top" xlink:title=" ">
<polygon fill="white" stroke="#666666" points="144.25,-32 0,-32 0,0 144.25,0 144.25,-32"/>
<text text-anchor="start" x="8" y="-18.5" font-family="Helvetica,sans-Serif" font-size="10.00">MyFrame::BindFlowTagPanel</text>
<text text-anchor="middle" x="72.12" y="-6.5" font-family="Helvetica,sans-Serif" font-size="10.00">Events</text>
</a>
</g>
</g>
<!-- Node2&#45;&gt;Node4 -->
<g id="edge4_Node000002_Node000004" class="edge">
<title>Node2&#45;&gt;Node4</title>
<g id="a_edge4_Node000002_Node000004"><a xlink:title=" ">
<path fill="none" stroke="#63b8ff" d="M168.61,-27.47C160.58,-26.51 152.51,-25.54 144.65,-24.59"/>
<polygon fill="#63b8ff" stroke="#63b8ff" points="168.07,-30.93 178.41,-28.65 168.9,-23.98 168.07,-30.93"/>
</a>
</g>
</g>
<!-- Node3&#45;&gt;Node3 -->
<g id="edge3_Node000003_Node000003" class="edge">
<title>Node3&#45;&gt;Node3</title>
<g id="a_edge3_Node000003_Node000003"><a xlink:title=" ">
<path fill="none" stroke="#63b8ff" d="M105.19,-81.11C101.25,-85.14 90.23,-88 72.12,-88 39.95,-88 30.14,-78.98 42.71,-70.34"/>
<polygon fill="#63b8ff" stroke="#63b8ff" points="108.55,-80.12 102.03,-71.77 101.92,-82.37 108.55,-80.12"/>
</a>
</g>
</g>
</g>
</svg>
