<?xml version="1.0" encoding="UTF-8" standalone="no"?>
<!DOCTYPE svg PUBLIC "-//W3C//DTD SVG 1.1//EN"
 "http://www.w3.org/Graphics/SVG/1.1/DTD/svg11.dtd">
<!-- Generated by graphviz version 12.2.0 (20241103.1931)
 -->
<!-- Title: LDPlayer::stopInstance Pages: 1 -->
<svg width="502pt" height="85pt"
 viewBox="0.00 0.00 501.75 85.00" xmlns="http://www.w3.org/2000/svg" xmlns:xlink="http://www.w3.org/1999/xlink">
<g id="graph0" class="graph" transform="scale(1 1) rotate(0) translate(4 81)">
<title>LDPlayer::stopInstance</title>
<!-- Node1 -->
<g id="Node000001" class="node">
<title>Node1</title>
<g id="a_Node000001"><a xlink:title=" ">
<polygon fill="#999999" stroke="#666666" points="118.75,-39 0,-39 0,-19 118.75,-19 118.75,-39"/>
<text text-anchor="middle" x="59.38" y="-25.5" font-family="Helvetica,sans-Serif" font-size="10.00">LDPlayer::stopInstance</text>
</a>
</g>
</g>
<!-- Node2 -->
<g id="Node000002" class="node">
<title>Node2</title>
<g id="a_Node000002"><a xlink:href="sys_commands_8cpp.html#a40529d2008c5ec34a2251615ad504e28" target="_top" xlink:title=" ">
<polygon fill="white" stroke="#666666" points="272,-58 178.75,-58 178.75,-38 272,-38 272,-58"/>
<text text-anchor="middle" x="225.38" y="-44.5" font-family="Helvetica,sans-Serif" font-size="10.00">moveAndExecute</text>
</a>
</g>
</g>
<!-- Node1&#45;&gt;Node2 -->
<g id="edge1_Node000001_Node000002" class="edge">
<title>Node1&#45;&gt;Node2</title>
<g id="a_edge1_Node000001_Node000002"><a xlink:title=" ">
<path fill="none" stroke="#63b8ff" d="M119.12,-35.81C134.8,-37.62 151.71,-39.58 167.3,-41.39"/>
<polygon fill="#63b8ff" stroke="#63b8ff" points="166.54,-44.82 176.88,-42.5 167.35,-37.87 166.54,-44.82"/>
</a>
</g>
</g>
<!-- Node6 -->
<g id="Node000006" class="node">
<title>Node6</title>
<g id="a_Node000006"><a xlink:href="class_l_d_player.html#aa85461ad56f19bcf3620c16d6781f640" target="_top" xlink:title=" ">
<polygon fill="white" stroke="#666666" points="296,-20 154.75,-20 154.75,0 296,0 296,-20"/>
<text text-anchor="middle" x="225.38" y="-6.5" font-family="Helvetica,sans-Serif" font-size="10.00">LDPlayer::transformInstance</text>
</a>
</g>
</g>
<!-- Node1&#45;&gt;Node6 -->
<g id="edge5_Node000001_Node000006" class="edge">
<title>Node1&#45;&gt;Node6</title>
<g id="a_edge5_Node000001_Node000006"><a xlink:title=" ">
<path fill="none" stroke="#63b8ff" d="M119.12,-22.19C126.87,-21.3 134.91,-20.36 142.95,-19.43"/>
<polygon fill="#63b8ff" stroke="#63b8ff" points="143.25,-22.92 152.78,-18.29 142.45,-15.97 143.25,-22.92"/>
</a>
</g>
</g>
<!-- Node3 -->
<g id="Node000003" class="node">
<title>Node3</title>
<g id="a_Node000003"><a xlink:href="sys_commands_8cpp.html#a321eb7e335377aa7182bafc8a1605032" target="_top" xlink:title=" ">
<polygon fill="white" stroke="#666666" points="399,-58 332,-58 332,-38 399,-38 399,-58"/>
<text text-anchor="middle" x="365.5" y="-44.5" font-family="Helvetica,sans-Serif" font-size="10.00">receivePipe</text>
</a>
</g>
</g>
<!-- Node2&#45;&gt;Node3 -->
<g id="edge2_Node000002_Node000003" class="edge">
<title>Node2&#45;&gt;Node3</title>
<g id="a_edge2_Node000002_Node000003"><a xlink:title=" ">
<path fill="none" stroke="#63b8ff" d="M272.37,-48C287.88,-48 305.14,-48 320.49,-48"/>
<polygon fill="#63b8ff" stroke="#63b8ff" points="320.29,-51.5 330.29,-48 320.29,-44.5 320.29,-51.5"/>
</a>
</g>
</g>
<!-- Node4 -->
<g id="Node000004" class="node">
<title>Node4</title>
<g id="a_Node000004"><a xlink:href="sys_commands_8cpp.html#a4771c79171a937893508dabadadbe099" target="_top" xlink:title=" ">
<polygon fill="white" stroke="#666666" points="493.75,-77 435,-77 435,-57 493.75,-57 493.75,-77"/>
<text text-anchor="middle" x="464.38" y="-63.5" font-family="Helvetica,sans-Serif" font-size="10.00">closePipe</text>
</a>
</g>
</g>
<!-- Node3&#45;&gt;Node4 -->
<g id="edge3_Node000003_Node000004" class="edge">
<title>Node3&#45;&gt;Node4</title>
<g id="a_edge3_Node000003_Node000004"><a xlink:title=" ">
<path fill="none" stroke="#63b8ff" d="M399.3,-54.43C407.06,-55.95 415.42,-57.59 423.46,-59.17"/>
<polygon fill="#63b8ff" stroke="#63b8ff" points="422.53,-62.56 433.02,-61.05 423.88,-55.69 422.53,-62.56"/>
</a>
</g>
</g>
<!-- Node5 -->
<g id="Node000005" class="node">
<title>Node5</title>
<g id="a_Node000005"><a xlink:href="sys_commands_8cpp.html#a3499ce0cd7e4ed28b3c5461a4d3aec84" target="_top" xlink:title=" ">
<polygon fill="white" stroke="#666666" points="492.62,-39 436.12,-39 436.12,-19 492.62,-19 492.62,-39"/>
<text text-anchor="middle" x="464.38" y="-25.5" font-family="Helvetica,sans-Serif" font-size="10.00">openPipe</text>
</a>
</g>
</g>
<!-- Node3&#45;&gt;Node5 -->
<g id="edge4_Node000003_Node000005" class="edge">
<title>Node3&#45;&gt;Node5</title>
<g id="a_edge4_Node000003_Node000005"><a xlink:title=" ">
<path fill="none" stroke="#63b8ff" d="M399.3,-41.57C407.45,-39.97 416.26,-38.24 424.67,-36.59"/>
<polygon fill="#63b8ff" stroke="#63b8ff" points="425.15,-40.06 434.29,-34.7 423.8,-33.19 425.15,-40.06"/>
</a>
</g>
</g>
</g>
</svg>
