<?xml version="1.0" encoding="UTF-8" standalone="no"?>
<!DOCTYPE svg PUBLIC "-//W3C//DTD SVG 1.1//EN"
 "http://www.w3.org/Graphics/SVG/1.1/DTD/svg11.dtd">
<!-- Generated by graphviz version 12.2.0 (20241103.1931)
 -->
<!-- Title: BotConfig::updateFavoritePreset Pages: 1 -->
<!--zoomable 236 -->

<svg id="main" version="1.1" xmlns="http://www.w3.org/2000/svg" xmlns:xlink="http://www.w3.org/1999/xlink" xml:space="preserve" onload="init(evt)">

<style type="text/css"><![CDATA[
.node, .edge {opacity: 0.7;}
.node.selected, .edge.selected {opacity: 1;}
.edge:hover path { stroke: red; }
.edge:hover polygon { stroke: red; fill: red; }
]]></style>

<defs>
  <circle id="rim" cx="0" cy="0" r="7"/>
  <circle id="rim2" cx="0" cy="0" r="3.5"/>
  <g id="zoomPlus">
    <use xlink:href="#rim" fill="#404040"><set attributeName="fill" to="#808080" begin="zoomplus.mouseover" end="zoomplus.mouseout"/></use>
    <path d="M-4,0h8M0,-4v8" fill="none" stroke="white" stroke-width="1.5" pointer-events="none"/>
  </g>
  <g id="zoomMin">
    <use xlink:href="#rim" fill="#404040"><set attributeName="fill" to="#808080" begin="zoomminus.mouseover" end="zoomminus.mouseout"/></use>
    <path d="M-4,0h8" fill="none" stroke="white" stroke-width="1.5" pointer-events="none"/>
  </g>
  <g id="arrowUp" transform="translate(30 24)">
    <use xlink:href="#rim"/>
    <path pointer-events="none" fill="none" stroke="white" stroke-width="1.5" d="M0,-3.0v7 M-2.5,-0.5L0,-3.0L2.5,-0.5"/>
  </g>
  <g id="arrowRight" transform="rotate(90) translate(36 -43)">
    <use xlink:href="#rim"/>
    <path pointer-events="none" fill="none" stroke="white" stroke-width="1.5" d="M0,-3.0v7 M-2.5,-0.5L0,-3.0L2.5,-0.5"/>
  </g>
  <g id="arrowDown" transform="rotate(180) translate(-30 -48)">
    <use xlink:href="#rim"/>
    <path pointer-events="none" fill="none" stroke="white" stroke-width="1.5" d="M0,-3.0v7 M-2.5,-0.5L0,-3.0L2.5,-0.5"/>
  </g>
  <g id="arrowLeft" transform="rotate(270) translate(-36 17)">
    <use xlink:href="#rim"/>
    <path pointer-events="none" fill="none" stroke="white" stroke-width="1.5" d="M0,-3.0v7 M-2.5,-0.5L0,-3.0L2.5,-0.5"/>
  </g>
  <g id="resetDef">
    <use xlink:href="#rim2" fill="#404040"><set attributeName="fill" to="#808080" begin="reset.mouseover" end="reset.mouseout"/></use>
  </g>
</defs>
<script type="application/ecmascript">
var viewWidth = 545;
var viewHeight = 236;
var sectionId = 'dynsection-89';
</script>
<script type="application/ecmascript" xlink:href="svg.min.js"/>
<svg id="graph" class="graph">
<g id="viewport">
<title>BotConfig::updateFavoritePreset</title>
<!-- Node1 -->
<g id="Node000001" class="node">
<title>Node1</title>
<g id="a_Node000001"><a xlink:title=" ">
<polygon fill="#999999" stroke="#666666" points="130,-121 0,-121 0,-89 130,-89 130,-121"/>
<text text-anchor="start" x="8" y="-107.5" font-family="Helvetica,sans-Serif" font-size="10.00">BotConfig::updateFavorite</text>
<text text-anchor="middle" x="65" y="-95.5" font-family="Helvetica,sans-Serif" font-size="10.00">Preset</text>
</a>
</g>
</g>
<!-- Node2 -->
<g id="Node000002" class="node">
<title>Node2</title>
<g id="a_Node000002"><a xlink:href="class_bot_config.html#ab92a15dd3027a7f42b452cdf5eaf9529" target="_top" xlink:title=" ">
<polygon fill="white" stroke="#666666" points="286.25,-115 166,-115 166,-95 286.25,-95 286.25,-115"/>
<text text-anchor="middle" x="226.12" y="-101.5" font-family="Helvetica,sans-Serif" font-size="10.00">BotConfig::updateString</text>
</a>
</g>
</g>
<!-- Node1&#45;&gt;Node2 -->
<g id="edge1_Node000001_Node000002" class="edge">
<title>Node1&#45;&gt;Node2</title>
<g id="a_edge1_Node000001_Node000002"><a xlink:title=" ">
<path fill="none" stroke="#63b8ff" d="M130.26,-105C138.09,-105 146.12,-105 154.03,-105"/>
<polygon fill="#63b8ff" stroke="#63b8ff" points="154,-108.5 164,-105 154,-101.5 154,-108.5"/>
</a>
</g>
</g>
<!-- Node3 -->
<g id="Node000003" class="node">
<title>Node3</title>
<g id="a_Node000003"><a xlink:href="_text_manager_8cpp.html#a6a1f72a80ddaec746c95996b16e3a1dc" target="_top" xlink:title=" ">
<polygon fill="white" stroke="#666666" points="411,-210 326,-210 326,-190 411,-190 411,-210"/>
<text text-anchor="middle" x="368.5" y="-196.5" font-family="Helvetica,sans-Serif" font-size="10.00">getContentAfter</text>
</a>
</g>
</g>
<!-- Node2&#45;&gt;Node3 -->
<g id="edge2_Node000002_Node000003" class="edge">
<title>Node2&#45;&gt;Node3</title>
<g id="a_edge2_Node000002_Node000003"><a xlink:title=" ">
<path fill="none" stroke="#63b8ff" d="M238.08,-115.46C255.05,-131.23 289.17,-161.36 322.25,-181 324.39,-182.27 326.64,-183.5 328.93,-184.68"/>
<polygon fill="#63b8ff" stroke="#63b8ff" points="327.25,-187.76 337.78,-188.87 330.24,-181.43 327.25,-187.76"/>
</a>
</g>
</g>
<!-- Node5 -->
<g id="Node000005" class="node">
<title>Node5</title>
<g id="a_Node000005"><a xlink:href="_text_manager_8cpp.html#a377407ab4c28873a8e1956ea343f9cc2" target="_top" xlink:title=" ">
<polygon fill="white" stroke="#666666" points="414.75,-172 322.25,-172 322.25,-152 414.75,-152 414.75,-172"/>
<text text-anchor="middle" x="368.5" y="-158.5" font-family="Helvetica,sans-Serif" font-size="10.00">getContentBefore</text>
</a>
</g>
</g>
<!-- Node2&#45;&gt;Node5 -->
<g id="edge5_Node000002_Node000005" class="edge">
<title>Node2&#45;&gt;Node5</title>
<g id="a_edge5_Node000002_Node000005"><a xlink:title=" ">
<path fill="none" stroke="#63b8ff" d="M252.87,-115.45C274.94,-124.41 306.95,-137.41 331.54,-147.4"/>
<polygon fill="#63b8ff" stroke="#63b8ff" points="329.93,-150.52 340.51,-151.04 332.57,-144.04 329.93,-150.52"/>
</a>
</g>
</g>
<!-- Node6 -->
<g id="Node000006" class="node">
<title>Node6</title>
<g id="a_Node000006"><a xlink:href="_text_manager_8cpp.html#add36cc54cd9616a393a17b8961491477" target="_top" xlink:title=" ">
<polygon fill="white" stroke="#666666" points="408.38,-58 328.62,-58 328.62,-38 408.38,-38 408.38,-58"/>
<text text-anchor="middle" x="368.5" y="-44.5" font-family="Helvetica,sans-Serif" font-size="10.00">getFileContent</text>
</a>
</g>
</g>
<!-- Node2&#45;&gt;Node6 -->
<g id="edge7_Node000002_Node000006" class="edge">
<title>Node2&#45;&gt;Node6</title>
<g id="a_edge7_Node000002_Node000006"><a xlink:title=" ">
<path fill="none" stroke="#63b8ff" d="M252.87,-94.55C274.94,-85.59 306.95,-72.59 331.54,-62.6"/>
<polygon fill="#63b8ff" stroke="#63b8ff" points="332.57,-65.96 340.51,-58.96 329.93,-59.48 332.57,-65.96"/>
</a>
</g>
</g>
<!-- Node8 -->
<g id="Node000008" class="node">
<title>Node8</title>
<g id="a_Node000008"><a xlink:href="_text_manager_8cpp.html#af24bee60aa1d3d5b4ae3bf6ebd267ecd" target="_top" xlink:title=" ">
<polygon fill="white" stroke="#666666" points="392.25,-134 344.75,-134 344.75,-114 392.25,-114 392.25,-134"/>
<text text-anchor="middle" x="368.5" y="-120.5" font-family="Helvetica,sans-Serif" font-size="10.00">getLine</text>
</a>
</g>
</g>
<!-- Node2&#45;&gt;Node8 -->
<g id="edge9_Node000002_Node000008" class="edge">
<title>Node2&#45;&gt;Node8</title>
<g id="a_edge9_Node000002_Node000008"><a xlink:title=" ">
<path fill="none" stroke="#63b8ff" d="M286.66,-113.06C302.54,-115.21 319.16,-117.46 333.18,-119.35"/>
<polygon fill="#63b8ff" stroke="#63b8ff" points="332.38,-122.78 342.76,-120.65 333.32,-115.84 332.38,-122.78"/>
</a>
</g>
</g>
<!-- Node9 -->
<g id="Node000009" class="node">
<title>Node9</title>
<g id="a_Node000009"><a xlink:href="_text_manager_8cpp.html#a98e5aae2b6659418890caba4fad17d5e" target="_top" xlink:title=" ">
<polygon fill="white" stroke="#666666" points="408.38,-96 328.62,-96 328.62,-76 408.38,-76 408.38,-96"/>
<text text-anchor="middle" x="368.5" y="-82.5" font-family="Helvetica,sans-Serif" font-size="10.00">updateContent</text>
</a>
</g>
</g>
<!-- Node2&#45;&gt;Node9 -->
<g id="edge11_Node000002_Node000009" class="edge">
<title>Node2&#45;&gt;Node9</title>
<g id="a_edge11_Node000002_Node000009"><a xlink:title=" ">
<path fill="none" stroke="#63b8ff" d="M286.66,-96.94C296.75,-95.58 307.15,-94.17 316.99,-92.84"/>
<polygon fill="#63b8ff" stroke="#63b8ff" points="317.29,-96.33 326.73,-91.52 316.35,-89.39 317.29,-96.33"/>
</a>
</g>
</g>
<!-- Node10 -->
<g id="Node000010" class="node">
<title>Node10</title>
<g id="a_Node000010"><a xlink:href="_text_manager_8cpp.html#ab55140c566370b105b9bf81756293fa5" target="_top" xlink:title=" ">
<polygon fill="white" stroke="#666666" points="400.12,-20 336.88,-20 336.88,0 400.12,0 400.12,-20"/>
<text text-anchor="middle" x="368.5" y="-6.5" font-family="Helvetica,sans-Serif" font-size="10.00">writeToFile</text>
</a>
</g>
</g>
<!-- Node2&#45;&gt;Node10 -->
<g id="edge13_Node000002_Node000010" class="edge">
<title>Node2&#45;&gt;Node10</title>
<g id="a_edge13_Node000002_Node000010"><a xlink:title=" ">
<path fill="none" stroke="#63b8ff" d="M238.08,-94.54C255.05,-78.77 289.17,-48.64 322.25,-29 324.39,-27.73 326.64,-26.5 328.93,-25.32"/>
<polygon fill="#63b8ff" stroke="#63b8ff" points="330.24,-28.57 337.78,-21.13 327.25,-22.24 330.24,-28.57"/>
</a>
</g>
</g>
<!-- Node3&#45;&gt;Node3 -->
<g id="edge4_Node000003_Node000003" class="edge">
<title>Node3&#45;&gt;Node3</title>
<g id="a_edge4_Node000003_Node000003"><a xlink:title=" ">
<path fill="none" stroke="#63b8ff" d="M348.62,-210.34C340.12,-218.98 346.75,-228 368.5,-228 380.39,-228 387.77,-225.3 390.62,-221.44"/>
<polygon fill="#63b8ff" stroke="#63b8ff" points="394.08,-220.94 388.68,-211.82 387.22,-222.32 394.08,-220.94"/>
</a>
</g>
</g>
<!-- Node4 -->
<g id="Node000004" class="node">
<title>Node4</title>
<g id="a_Node000004"><a xlink:href="_text_manager_8cpp.html#afbb8972025ad14e914fdaafa26957439" target="_top" xlink:title=" ">
<polygon fill="white" stroke="#666666" points="518.12,-153 469.12,-153 469.12,-133 518.12,-133 518.12,-153"/>
<text text-anchor="middle" x="493.62" y="-139.5" font-family="Helvetica,sans-Serif" font-size="10.00">findPos</text>
</a>
</g>
</g>
<!-- Node3&#45;&gt;Node4 -->
<g id="edge3_Node000003_Node000004" class="edge">
<title>Node3&#45;&gt;Node4</title>
<g id="a_edge3_Node000003_Node000004"><a xlink:title=" ">
<path fill="none" stroke="#63b8ff" d="M394.98,-189.6C401.46,-186.87 408.39,-183.89 414.75,-181 430.36,-173.92 447.51,-165.61 461.72,-158.58"/>
<polygon fill="#63b8ff" stroke="#63b8ff" points="463.21,-161.75 470.6,-154.16 460.09,-155.48 463.21,-161.75"/>
</a>
</g>
</g>
<!-- Node5&#45;&gt;Node4 -->
<g id="edge6_Node000005_Node000004" class="edge">
<title>Node5&#45;&gt;Node4</title>
<g id="a_edge6_Node000005_Node000004"><a xlink:title=" ">
<path fill="none" stroke="#63b8ff" d="M415,-154.98C429.09,-152.8 444.39,-150.44 457.65,-148.4"/>
<polygon fill="#63b8ff" stroke="#63b8ff" points="457.86,-151.91 467.21,-146.92 456.79,-144.99 457.86,-151.91"/>
</a>
</g>
</g>
<!-- Node7 -->
<g id="Node000007" class="node">
<title>Node7</title>
<g id="a_Node000007"><a xlink:href="_text_manager_8cpp.html#a5e4308ca14d1f4cfc2456fc26b1361a8" target="_top" xlink:title=" ">
<polygon fill="white" stroke="#666666" points="534.25,-58 453,-58 453,-38 534.25,-38 534.25,-58"/>
<text text-anchor="middle" x="493.62" y="-44.5" font-family="Helvetica,sans-Serif" font-size="10.00">getIfstreamFile</text>
</a>
</g>
</g>
<!-- Node6&#45;&gt;Node7 -->
<g id="edge8_Node000006_Node000007" class="edge">
<title>Node6&#45;&gt;Node7</title>
<g id="a_edge8_Node000006_Node000007"><a xlink:title=" ">
<path fill="none" stroke="#63b8ff" d="M408.8,-48C419.24,-48 430.68,-48 441.65,-48"/>
<polygon fill="#63b8ff" stroke="#63b8ff" points="441.34,-51.5 451.34,-48 441.34,-44.5 441.34,-51.5"/>
</a>
</g>
</g>
<!-- Node8&#45;&gt;Node4 -->
<g id="edge10_Node000008_Node000004" class="edge">
<title>Node8&#45;&gt;Node4</title>
<g id="a_edge10_Node000008_Node000004"><a xlink:title=" ">
<path fill="none" stroke="#63b8ff" d="M392.66,-127.57C410.91,-130.39 436.67,-134.36 457.46,-137.57"/>
<polygon fill="#63b8ff" stroke="#63b8ff" points="456.82,-141.02 467.23,-139.08 457.89,-134.1 456.82,-141.02"/>
</a>
</g>
</g>
<!-- Node9&#45;&gt;Node4 -->
<g id="edge12_Node000009_Node000004" class="edge">
<title>Node9&#45;&gt;Node4</title>
<g id="a_edge12_Node000009_Node000004"><a xlink:title=" ">
<path fill="none" stroke="#63b8ff" d="M394.98,-96.4C401.46,-99.13 408.39,-102.11 414.75,-105 430.36,-112.08 447.51,-120.39 461.72,-127.42"/>
<polygon fill="#63b8ff" stroke="#63b8ff" points="460.09,-130.52 470.6,-131.84 463.21,-124.25 460.09,-130.52"/>
</a>
</g>
</g>
<!-- Node11 -->
<g id="Node000011" class="node">
<title>Node11</title>
<g id="a_Node000011"><a xlink:href="_text_manager_8cpp.html#a4a86df56d2737552b2fd63bfa85c5800" target="_top" xlink:title=" ">
<polygon fill="white" stroke="#666666" points="536.5,-20 450.75,-20 450.75,0 536.5,0 536.5,-20"/>
<text text-anchor="middle" x="493.62" y="-6.5" font-family="Helvetica,sans-Serif" font-size="10.00">getOfstreamFile</text>
</a>
</g>
</g>
<!-- Node10&#45;&gt;Node11 -->
<g id="edge14_Node000010_Node000011" class="edge">
<title>Node10&#45;&gt;Node11</title>
<g id="a_edge14_Node000010_Node000011"><a xlink:title=" ">
<path fill="none" stroke="#63b8ff" d="M400.57,-10C412.25,-10 425.89,-10 439.04,-10"/>
<polygon fill="#63b8ff" stroke="#63b8ff" points="438.89,-13.5 448.89,-10 438.89,-6.5 438.89,-13.5"/>
</a>
</g>
</g>
</g>
</svg>

<g id="navigator" transform="translate(0 0)" fill="#404254">
  <rect fill="#f2f5e9" fill-opacity="0.5" stroke="#606060" stroke-width=".5" x="0" y="0" width="60" height="60"/>
  <use id="zoomplus" xlink:href="#zoomPlus" x="17" y="9" onmousedown="handleZoom(evt,'in')"/>
  <use id="zoomminus" xlink:href="#zoomMin" x="42" y="9" onmousedown="handleZoom(evt,'out')"/>
  <use id="reset" xlink:href="#resetDef" x="30" y="36" onmousedown="handleReset()"/>
   <use id="arrowup" xlink:href="#arrowUp" x="0" y="0" onmousedown="handlePan(0,-1)"/>
  <use id="arrowright" xlink:href="#arrowRight" x="0" y="0" onmousedown="handlePan(1,0)"/>
  <use id="arrowdown" xlink:href="#arrowDown" x="0" y="0" onmousedown="handlePan(0,1)"/>
  <use id="arrowleft" xlink:href="#arrowLeft" x="0" y="0" onmousedown="handlePan(-1,0)"/>
</g>
<svg viewBox="0 0 15 15" width="100%" height="30px" preserveAspectRatio="xMaxYMin meet">
 <g id="arrow_out" transform="scale(0.3 0.3)">
  <a xlink:href="class_bot_config_ac766bf2645c392ae3057a93c7628aa85_cgraph_org.svg" target="_base">
   <rect id="button" ry="5" rx="5" y="6" x="6" height="38" width="38"
        fill="#f2f5e9" fill-opacity="0.5" stroke="#606060" stroke-width="1.0"/>
   <path id="arrow"
     d="M 11.500037,31.436501 C 11.940474,20.09759 22.043105,11.32322 32.158766,21.979434 L 37.068811,17.246167 C 37.068811,17.246167 37.088388,32 37.088388,32 L 22.160133,31.978069 C 22.160133,31.978069 26.997745,27.140456 26.997745,27.140456 C 18.528582,18.264221 13.291696,25.230495 11.500037,31.436501 z"
     style="fill:#404040;"/>
  </a>
 </g>
</svg>

<style type='text/css'>
<![CDATA[
[data-mouse-over-selected='false'] { opacity: 0.7; }
[data-mouse-over-selected='true']  { opacity: 1.0; }
]]>
</style>
<script type="application/ecmascript"><![CDATA[
document.addEventListener('DOMContentLoaded', (event) => {
  highlightEdges();
  highlightAdjacentNodes();
});
]]></script>
</svg>
