<?xml version="1.0" encoding="UTF-8" standalone="no"?>
<!DOCTYPE svg PUBLIC "-//W3C//DTD SVG 1.1//EN"
 "http://www.w3.org/Graphics/SVG/1.1/DTD/svg11.dtd">
<!-- Generated by graphviz version 12.2.0 (20241103.1931)
 -->
<!-- Title: ElifTag Pages: 1 -->
<svg width="138pt" height="748pt"
 viewBox="0.00 0.00 137.75 748.00" xmlns="http://www.w3.org/2000/svg" xmlns:xlink="http://www.w3.org/1999/xlink">
<g id="graph0" class="graph" transform="scale(1 1) rotate(0) translate(4 744)">
<title>ElifTag</title>
<!-- Node1 -->
<g id="Node000001" class="node">
<title>Node1</title>
<g id="a_Node000001"><a xlink:title=" ">
<polygon fill="#999999" stroke="none" points="127.5,-188 2.25,-188 2.25,0 127.5,0 127.5,-188"/>
<text text-anchor="start" x="49.88" y="-174.5" font-family="Helvetica,sans-Serif" font-size="10.00">ElifTag</text>
<text text-anchor="start" x="63.38" y="-158.5" font-family="Helvetica,sans-Serif" font-size="10.00"> </text>
<text text-anchor="start" x="6.25" y="-142.5" font-family="Helvetica,sans-Serif" font-size="10.00">+</text>
<text text-anchor="start" x="16.25" y="-142.5" font-family="Helvetica,sans-Serif" font-size="10.00">ElifTag()</text>
<text text-anchor="start" x="6.25" y="-126.5" font-family="Helvetica,sans-Serif" font-size="10.00">+</text>
<text text-anchor="start" x="16.25" y="-126.5" font-family="Helvetica,sans-Serif" font-size="10.00">ElifTag(const ElifTag</text>
<text text-anchor="start" x="16.25" y="-114.5" font-family="Helvetica,sans-Serif" font-size="10.00"> &amp;toCopy)</text>
<text text-anchor="start" x="6.25" y="-98.5" font-family="Helvetica,sans-Serif" font-size="10.00">+</text>
<text text-anchor="start" x="16.25" y="-98.5" font-family="Helvetica,sans-Serif" font-size="10.00">ElifTag(const std</text>
<text text-anchor="start" x="16.25" y="-86.5" font-family="Helvetica,sans-Serif" font-size="10.00">::shared_ptr&lt; Tag &gt;</text>
<text text-anchor="start" x="16.25" y="-74.5" font-family="Helvetica,sans-Serif" font-size="10.00"> &amp;condition, const std</text>
<text text-anchor="start" x="16.25" y="-62.5" font-family="Helvetica,sans-Serif" font-size="10.00">::vector&lt; std::shared_ptr</text>
<text text-anchor="start" x="16.25" y="-50.5" font-family="Helvetica,sans-Serif" font-size="10.00">&lt; Tag &gt; &gt; &amp;listTags)</text>
<text text-anchor="start" x="6.25" y="-34.5" font-family="Helvetica,sans-Serif" font-size="10.00">+</text>
<text text-anchor="start" x="16.25" y="-34.5" font-family="Helvetica,sans-Serif" font-size="10.00">std::shared_ptr&lt; ElifTag</text>
<text text-anchor="start" x="16.25" y="-22.5" font-family="Helvetica,sans-Serif" font-size="10.00"> &gt; clone()</text>
<text text-anchor="start" x="6.25" y="-6.5" font-family="Helvetica,sans-Serif" font-size="10.00">+</text>
<text text-anchor="start" x="16.25" y="-6.5" font-family="Helvetica,sans-Serif" font-size="10.00">void execute() override</text>
<polygon fill="#666666" stroke="#666666" points="2.25,-170 2.25,-170 127.5,-170 127.5,-170 2.25,-170"/>
<polygon fill="#666666" stroke="#666666" points="2.25,-154 2.25,-154 127.5,-154 127.5,-154 2.25,-154"/>
<polygon fill="none" stroke="#666666" points="2.25,0 2.25,-188 127.5,-188 127.5,0 2.25,0"/>
</a>
</g>
</g>
<!-- Node2 -->
<g id="Node000002" class="node">
<title>Node2</title>
<g id="a_Node000002"><a xlink:href="class_flow_tag.html" target="_top" xlink:title=" ">
<polygon fill="white" stroke="none" points="129.75,-544 0,-544 0,-224 129.75,-224 129.75,-544"/>
<text text-anchor="start" x="46.5" y="-530.5" font-family="Helvetica,sans-Serif" font-size="10.00">FlowTag</text>
<text text-anchor="start" x="4" y="-514.5" font-family="Helvetica,sans-Serif" font-size="10.00">+</text>
<text text-anchor="start" x="14" y="-514.5" font-family="Helvetica,sans-Serif" font-size="10.00">bool canReboot</text>
<text text-anchor="start" x="4" y="-498.5" font-family="Helvetica,sans-Serif" font-size="10.00">+</text>
<text text-anchor="start" x="14" y="-498.5" font-family="Helvetica,sans-Serif" font-size="10.00">bool executed</text>
<text text-anchor="start" x="4" y="-482.5" font-family="Helvetica,sans-Serif" font-size="10.00">+</text>
<text text-anchor="start" x="14" y="-482.5" font-family="Helvetica,sans-Serif" font-size="10.00">bool forcedExit</text>
<text text-anchor="start" x="4" y="-466.5" font-family="Helvetica,sans-Serif" font-size="10.00">+</text>
<text text-anchor="start" x="14" y="-466.5" font-family="Helvetica,sans-Serif" font-size="10.00">bool rebootLoop</text>
<text text-anchor="start" x="4" y="-450.5" font-family="Helvetica,sans-Serif" font-size="10.00">+</text>
<text text-anchor="start" x="14" y="-450.5" font-family="Helvetica,sans-Serif" font-size="10.00">std::shared_ptr&lt; Tag</text>
<text text-anchor="start" x="14" y="-438.5" font-family="Helvetica,sans-Serif" font-size="10.00"> &gt; condition</text>
<text text-anchor="start" x="4" y="-422.5" font-family="Helvetica,sans-Serif" font-size="10.00">+</text>
<text text-anchor="start" x="14" y="-422.5" font-family="Helvetica,sans-Serif" font-size="10.00">FlowTag * previousTag</text>
<text text-anchor="start" x="4" y="-406.5" font-family="Helvetica,sans-Serif" font-size="10.00">+</text>
<text text-anchor="start" x="14" y="-406.5" font-family="Helvetica,sans-Serif" font-size="10.00">FlowTag * parentFlowTag</text>
<text text-anchor="start" x="4" y="-390.5" font-family="Helvetica,sans-Serif" font-size="10.00">+</text>
<text text-anchor="start" x="14" y="-390.5" font-family="Helvetica,sans-Serif" font-size="10.00">std::vector&lt; std::shared</text>
<text text-anchor="start" x="14" y="-378.5" font-family="Helvetica,sans-Serif" font-size="10.00">_ptr&lt; Tag &gt; &gt; nestedTags</text>
<text text-anchor="start" x="4" y="-362.5" font-family="Helvetica,sans-Serif" font-size="10.00">+</text>
<text text-anchor="start" x="14" y="-362.5" font-family="Helvetica,sans-Serif" font-size="10.00">std::vector&lt; FlowTag</text>
<text text-anchor="start" x="14" y="-350.5" font-family="Helvetica,sans-Serif" font-size="10.00"> * &gt; listPreviousFlowTags</text>
<text text-anchor="start" x="4" y="-334.5" font-family="Helvetica,sans-Serif" font-size="10.00">+</text>
<text text-anchor="start" x="14" y="-334.5" font-family="Helvetica,sans-Serif" font-size="10.00">FlowTag()</text>
<text text-anchor="start" x="4" y="-318.5" font-family="Helvetica,sans-Serif" font-size="10.00">+</text>
<text text-anchor="start" x="14" y="-318.5" font-family="Helvetica,sans-Serif" font-size="10.00">FlowTag(const FlowTag</text>
<text text-anchor="start" x="14" y="-306.5" font-family="Helvetica,sans-Serif" font-size="10.00"> &amp;toCopy)</text>
<text text-anchor="start" x="4" y="-290.5" font-family="Helvetica,sans-Serif" font-size="10.00">+</text>
<text text-anchor="start" x="14" y="-290.5" font-family="Helvetica,sans-Serif" font-size="10.00">std::shared_ptr&lt; FlowTag</text>
<text text-anchor="start" x="14" y="-278.5" font-family="Helvetica,sans-Serif" font-size="10.00"> &gt; clone()</text>
<text text-anchor="start" x="4" y="-262.5" font-family="Helvetica,sans-Serif" font-size="10.00">+</text>
<text text-anchor="start" x="14" y="-262.5" font-family="Helvetica,sans-Serif" font-size="10.00">void showTag()</text>
<text text-anchor="start" x="4" y="-246.5" font-family="Helvetica,sans-Serif" font-size="10.00">+</text>
<text text-anchor="start" x="14" y="-246.5" font-family="Helvetica,sans-Serif" font-size="10.00">bool checkCondition()</text>
<text text-anchor="start" x="4" y="-230.5" font-family="Helvetica,sans-Serif" font-size="10.00">+</text>
<text text-anchor="start" x="14" y="-230.5" font-family="Helvetica,sans-Serif" font-size="10.00">void linkTags()</text>
<polygon fill="#666666" stroke="#666666" points="0,-526 0,-526 129.75,-526 129.75,-526 0,-526"/>
<polygon fill="#666666" stroke="#666666" points="0,-346 0,-346 12,-346 12,-346 0,-346"/>
<polygon fill="#666666" stroke="#666666" points="12,-346 12,-346 129.75,-346 129.75,-346 12,-346"/>
<polygon fill="none" stroke="#666666" points="0,-224 0,-544 129.75,-544 129.75,-224 0,-224"/>
</a>
</g>
</g>
<!-- Node2&#45;&gt;Node1 -->
<g id="edge1_Node000001_Node000002" class="edge">
<title>Node2&#45;&gt;Node1</title>
<g id="a_edge1_Node000001_Node000002"><a xlink:title=" ">
<path fill="none" stroke="#63b8ff" d="M64.88,-212.99C64.88,-204.46 64.88,-196.06 64.88,-187.91"/>
<polygon fill="none" stroke="#63b8ff" points="61.38,-212.74 64.88,-222.74 68.38,-212.74 61.38,-212.74"/>
</a>
</g>
</g>
<!-- Node3 -->
<g id="Node000003" class="node">
<title>Node3</title>
<g id="a_Node000003"><a xlink:href="class_tag.html" target="_top" xlink:title=" ">
<polygon fill="white" stroke="none" points="126.38,-740 3.38,-740 3.38,-580 126.38,-580 126.38,-740"/>
<text text-anchor="start" x="57" y="-726.5" font-family="Helvetica,sans-Serif" font-size="10.00">Tag</text>
<text text-anchor="start" x="7.38" y="-710.5" font-family="Helvetica,sans-Serif" font-size="10.00">+</text>
<text text-anchor="start" x="17.38" y="-710.5" font-family="Helvetica,sans-Serif" font-size="10.00">std::string tagText</text>
<text text-anchor="start" x="7.38" y="-694.5" font-family="Helvetica,sans-Serif" font-size="10.00">+</text>
<text text-anchor="start" x="17.38" y="-694.5" font-family="Helvetica,sans-Serif" font-size="10.00">int nbParents</text>
<text text-anchor="start" x="7.38" y="-678.5" font-family="Helvetica,sans-Serif" font-size="10.00">+</text>
<text text-anchor="start" x="17.38" y="-678.5" font-family="Helvetica,sans-Serif" font-size="10.00">bool doExecute</text>
<text text-anchor="start" x="7.38" y="-662.5" font-family="Helvetica,sans-Serif" font-size="10.00">+</text>
<text text-anchor="start" x="17.38" y="-662.5" font-family="Helvetica,sans-Serif" font-size="10.00">TagType myType</text>
<text text-anchor="start" x="7.38" y="-646.5" font-family="Helvetica,sans-Serif" font-size="10.00">+</text>
<text text-anchor="start" x="17.38" y="-646.5" font-family="Helvetica,sans-Serif" font-size="10.00">Tag()</text>
<text text-anchor="start" x="7.38" y="-630.5" font-family="Helvetica,sans-Serif" font-size="10.00">+</text>
<text text-anchor="start" x="17.38" y="-630.5" font-family="Helvetica,sans-Serif" font-size="10.00">Tag(const Tag &amp;toCopy)</text>
<text text-anchor="start" x="7.38" y="-614.5" font-family="Helvetica,sans-Serif" font-size="10.00">+</text>
<text text-anchor="start" x="17.38" y="-614.5" font-family="Helvetica,sans-Serif" font-size="10.00">std::shared_ptr&lt; Tag</text>
<text text-anchor="start" x="17.38" y="-602.5" font-family="Helvetica,sans-Serif" font-size="10.00"> &gt; clone()</text>
<text text-anchor="start" x="7.38" y="-586.5" font-family="Helvetica,sans-Serif" font-size="10.00">+</text>
<text text-anchor="start" x="17.38" y="-586.5" font-family="Helvetica,sans-Serif" font-size="10.00">virtual void execute()</text>
<polygon fill="#666666" stroke="#666666" points="3.38,-722 3.38,-722 126.38,-722 126.38,-722 3.38,-722"/>
<polygon fill="#666666" stroke="#666666" points="3.38,-658 3.38,-658 15.38,-658 15.38,-658 3.38,-658"/>
<polygon fill="#666666" stroke="#666666" points="15.38,-658 15.38,-658 126.38,-658 126.38,-658 15.38,-658"/>
<polygon fill="none" stroke="#666666" points="3.38,-580 3.38,-740 126.38,-740 126.38,-580 3.38,-580"/>
</a>
</g>
</g>
<!-- Node3&#45;&gt;Node2 -->
<g id="edge2_Node000002_Node000003" class="edge">
<title>Node3&#45;&gt;Node2</title>
<g id="a_edge2_Node000002_Node000003"><a xlink:title=" ">
<path fill="none" stroke="#63b8ff" d="M64.88,-568.83C64.88,-560.72 64.88,-552.37 64.88,-543.89"/>
<polygon fill="none" stroke="#63b8ff" points="61.38,-568.6 64.88,-578.6 68.38,-568.6 61.38,-568.6"/>
</a>
</g>
</g>
</g>
</svg>
