<?xml version="1.0" encoding="UTF-8" standalone="no"?>
<!DOCTYPE svg PUBLIC "-//W3C//DTD SVG 1.1//EN"
 "http://www.w3.org/Graphics/SVG/1.1/DTD/svg11.dtd">
<!-- Generated by graphviz version 12.2.0 (20241103.1931)
 -->
<!-- Title: ListTag::execute Pages: 1 -->
<svg width="391pt" height="110pt"
 viewBox="0.00 0.00 390.50 110.00" xmlns="http://www.w3.org/2000/svg" xmlns:xlink="http://www.w3.org/1999/xlink">
<g id="graph0" class="graph" transform="scale(1 1) rotate(0) translate(4 106)">
<title>ListTag::execute</title>
<!-- Node1 -->
<g id="Node000001" class="node">
<title>Node1</title>
<g id="a_Node000001"><a xlink:title=" ">
<polygon fill="#999999" stroke="#666666" points="382.5,-64 294.5,-64 294.5,-44 382.5,-44 382.5,-64"/>
<text text-anchor="middle" x="338.5" y="-50.5" font-family="Helvetica,sans-Serif" font-size="10.00">ListTag::execute</text>
</a>
</g>
</g>
<!-- Node2 -->
<g id="Node000002" class="node">
<title>Node2</title>
<g id="a_Node000002"><a xlink:href="class_compare_tag.html#a86f4370ec7c06612dc614d5ee0a80bbc" target="_top" xlink:title=" ">
<polygon fill="white" stroke="#666666" points="258.5,-102 146.5,-102 146.5,-82 258.5,-82 258.5,-102"/>
<text text-anchor="middle" x="202.5" y="-88.5" font-family="Helvetica,sans-Serif" font-size="10.00">CompareTag::execute</text>
</a>
</g>
</g>
<!-- Node1&#45;&gt;Node2 -->
<g id="edge1_Node000001_Node000002" class="edge">
<title>Node1&#45;&gt;Node2</title>
<g id="a_edge1_Node000001_Node000002"><a xlink:title=" ">
<path fill="none" stroke="#63b8ff" d="M289.62,-67.58C273.41,-72.18 255.57,-77.23 240.35,-81.55"/>
<polygon fill="#63b8ff" stroke="#63b8ff" points="290.41,-70.99 299.07,-64.9 288.5,-64.26 290.41,-70.99"/>
</a>
</g>
</g>
<!-- Node3 -->
<g id="Node000003" class="node">
<title>Node3</title>
<g id="a_Node000003"><a xlink:href="class_compare_tag.html#a574c5229cbbc446a28fa2ef1cea813c3" target="_top" xlink:title=" ">
<polygon fill="white" stroke="#666666" points="258.5,-64 146.5,-64 146.5,-44 258.5,-44 258.5,-64"/>
<text text-anchor="middle" x="202.5" y="-50.5" font-family="Helvetica,sans-Serif" font-size="10.00">CompareTag::execute</text>
</a>
</g>
</g>
<!-- Node1&#45;&gt;Node3 -->
<g id="edge2_Node000001_Node000003" class="edge">
<title>Node1&#45;&gt;Node3</title>
<g id="a_edge2_Node000001_Node000003"><a xlink:title=" ">
<path fill="none" stroke="#63b8ff" d="M282.93,-54C274.98,-54 266.78,-54 258.81,-54"/>
<polygon fill="#63b8ff" stroke="#63b8ff" points="282.85,-57.5 292.85,-54 282.85,-50.5 282.85,-57.5"/>
</a>
</g>
</g>
<!-- Node4 -->
<g id="Node000004" class="node">
<title>Node4</title>
<g id="a_Node000004"><a xlink:href="_tags_8cpp.html#a663afb00e3e4be1f6f395904d5ed7dea" target="_top" xlink:title=" ">
<polygon fill="white" stroke="#666666" points="235.62,-26 169.38,-26 169.38,-6 235.62,-6 235.62,-26"/>
<text text-anchor="middle" x="202.5" y="-12.5" font-family="Helvetica,sans-Serif" font-size="10.00">executeList</text>
</a>
</g>
</g>
<!-- Node1&#45;&gt;Node4 -->
<g id="edge3_Node000001_Node000004" class="edge">
<title>Node1&#45;&gt;Node4</title>
<g id="a_edge3_Node000001_Node000004"><a xlink:title=" ">
<path fill="none" stroke="#63b8ff" d="M289.7,-40.45C271.82,-35.38 251.95,-29.74 235.79,-25.16"/>
<polygon fill="#63b8ff" stroke="#63b8ff" points="288.5,-43.74 299.07,-43.1 290.41,-37.01 288.5,-43.74"/>
</a>
</g>
</g>
<!-- Node5 -->
<g id="Node000005" class="node">
<title>Node5</title>
<g id="a_Node000005"><a xlink:href="class_store_tag_3_01std_1_1vector_3_01_t_01_4_01_4.html#af14db3889a7c857f6b33676347fd9055" target="_top" xlink:title=" ">
<polygon fill="white" stroke="#666666" points="110.5,-32 0,-32 0,0 110.5,0 110.5,-32"/>
<text text-anchor="start" x="8" y="-18.5" font-family="Helvetica,sans-Serif" font-size="10.00">StoreTag&lt; std::vector</text>
<text text-anchor="middle" x="55.25" y="-6.5" font-family="Helvetica,sans-Serif" font-size="10.00">&lt; T &gt; &gt;::execute</text>
</a>
</g>
</g>
<!-- Node4&#45;&gt;Node5 -->
<g id="edge4_Node000004_Node000005" class="edge">
<title>Node4&#45;&gt;Node5</title>
<g id="a_edge4_Node000004_Node000005"><a xlink:title=" ">
<path fill="none" stroke="#63b8ff" d="M157.59,-16C142.91,-16 126.37,-16 110.98,-16"/>
<polygon fill="#63b8ff" stroke="#63b8ff" points="157.39,-19.5 167.39,-16 157.39,-12.5 157.39,-19.5"/>
</a>
</g>
</g>
</g>
</svg>
