<?xml version="1.0" encoding="UTF-8" standalone="no"?>
<!DOCTYPE svg PUBLIC "-//W3C//DTD SVG 1.1//EN"
 "http://www.w3.org/Graphics/SVG/1.1/DTD/svg11.dtd">
<!-- Generated by graphviz version 12.2.0 (20241103.1931)
 -->
<!-- Title: Emulator::checkAdb Pages: 1 -->
<svg width="267pt" height="66pt"
 viewBox="0.00 0.00 266.50 66.00" xmlns="http://www.w3.org/2000/svg" xmlns:xlink="http://www.w3.org/1999/xlink">
<g id="graph0" class="graph" transform="scale(1 1) rotate(0) translate(4 62)">
<title>Emulator::checkAdb</title>
<!-- Node1 -->
<g id="Node000001" class="node">
<title>Node1</title>
<g id="a_Node000001"><a xlink:title=" ">
<polygon fill="#999999" stroke="#666666" points="104.5,-39 0,-39 0,-19 104.5,-19 104.5,-39"/>
<text text-anchor="middle" x="52.25" y="-25.5" font-family="Helvetica,sans-Serif" font-size="10.00">Emulator::checkAdb</text>
</a>
</g>
</g>
<!-- Node2 -->
<g id="Node000002" class="node">
<title>Node2</title>
<g id="a_Node000002"><a xlink:href="class_emulator.html#ab8fac1aac86cb33884049cd55f65099a" target="_top" xlink:title=" ">
<polygon fill="white" stroke="#666666" points="255.88,-58 143.12,-58 143.12,-38 255.88,-38 255.88,-58"/>
<text text-anchor="middle" x="199.5" y="-44.5" font-family="Helvetica,sans-Serif" font-size="10.00">Emulator::activateAdb</text>
</a>
</g>
</g>
<!-- Node1&#45;&gt;Node2 -->
<g id="edge1_Node000001_Node000002" class="edge">
<title>Node1&#45;&gt;Node2</title>
<g id="a_edge1_Node000001_Node000002"><a xlink:title=" ">
<path fill="none" stroke="#63b8ff" d="M104.87,-35.75C113.58,-36.89 122.74,-38.09 131.77,-39.27"/>
<polygon fill="#63b8ff" stroke="#63b8ff" points="131.24,-42.73 141.61,-40.56 132.15,-35.79 131.24,-42.73"/>
</a>
</g>
</g>
<!-- Node3 -->
<g id="Node000003" class="node">
<title>Node3</title>
<g id="a_Node000003"><a xlink:href="class_emulator.html#ab509a885814d9a58e20854dc61f282e1" target="_top" xlink:title=" ">
<polygon fill="white" stroke="#666666" points="258.5,-20 140.5,-20 140.5,0 258.5,0 258.5,-20"/>
<text text-anchor="middle" x="199.5" y="-6.5" font-family="Helvetica,sans-Serif" font-size="10.00">Emulator::adbActivated</text>
</a>
</g>
</g>
<!-- Node1&#45;&gt;Node3 -->
<g id="edge2_Node000001_Node000003" class="edge">
<title>Node1&#45;&gt;Node3</title>
<g id="a_edge2_Node000001_Node000003"><a xlink:title=" ">
<path fill="none" stroke="#63b8ff" d="M104.87,-22.25C112.63,-21.23 120.74,-20.17 128.8,-19.12"/>
<polygon fill="#63b8ff" stroke="#63b8ff" points="129.16,-22.6 138.62,-17.83 128.25,-15.66 129.16,-22.6"/>
</a>
</g>
</g>
</g>
</svg>
