<?xml version="1.0" encoding="UTF-8" standalone="no"?>
<!DOCTYPE svg PUBLIC "-//W3C//DTD SVG 1.1//EN"
 "http://www.w3.org/Graphics/SVG/1.1/DTD/svg11.dtd">
<!-- Generated by graphviz version 12.2.0 (20241103.1931)
 -->
<!-- Title: LToken Pages: 1 -->
<!--zoomable 616 -->

<svg id="main" version="1.1" xmlns="http://www.w3.org/2000/svg" xmlns:xlink="http://www.w3.org/1999/xlink" xml:space="preserve" onload="init(evt)">

<style type="text/css"><![CDATA[
.node, .edge {opacity: 0.7;}
.node.selected, .edge.selected {opacity: 1;}
.edge:hover path { stroke: red; }
.edge:hover polygon { stroke: red; fill: red; }
]]></style>

<defs>
  <circle id="rim" cx="0" cy="0" r="7"/>
  <circle id="rim2" cx="0" cy="0" r="3.5"/>
  <g id="zoomPlus">
    <use xlink:href="#rim" fill="#404040"><set attributeName="fill" to="#808080" begin="zoomplus.mouseover" end="zoomplus.mouseout"/></use>
    <path d="M-4,0h8M0,-4v8" fill="none" stroke="white" stroke-width="1.5" pointer-events="none"/>
  </g>
  <g id="zoomMin">
    <use xlink:href="#rim" fill="#404040"><set attributeName="fill" to="#808080" begin="zoomminus.mouseover" end="zoomminus.mouseout"/></use>
    <path d="M-4,0h8" fill="none" stroke="white" stroke-width="1.5" pointer-events="none"/>
  </g>
  <g id="arrowUp" transform="translate(30 24)">
    <use xlink:href="#rim"/>
    <path pointer-events="none" fill="none" stroke="white" stroke-width="1.5" d="M0,-3.0v7 M-2.5,-0.5L0,-3.0L2.5,-0.5"/>
  </g>
  <g id="arrowRight" transform="rotate(90) translate(36 -43)">
    <use xlink:href="#rim"/>
    <path pointer-events="none" fill="none" stroke="white" stroke-width="1.5" d="M0,-3.0v7 M-2.5,-0.5L0,-3.0L2.5,-0.5"/>
  </g>
  <g id="arrowDown" transform="rotate(180) translate(-30 -48)">
    <use xlink:href="#rim"/>
    <path pointer-events="none" fill="none" stroke="white" stroke-width="1.5" d="M0,-3.0v7 M-2.5,-0.5L0,-3.0L2.5,-0.5"/>
  </g>
  <g id="arrowLeft" transform="rotate(270) translate(-36 17)">
    <use xlink:href="#rim"/>
    <path pointer-events="none" fill="none" stroke="white" stroke-width="1.5" d="M0,-3.0v7 M-2.5,-0.5L0,-3.0L2.5,-0.5"/>
  </g>
  <g id="resetDef">
    <use xlink:href="#rim2" fill="#404040"><set attributeName="fill" to="#808080" begin="reset.mouseover" end="reset.mouseout"/></use>
  </g>
</defs>
<script type="application/ecmascript">
var viewWidth = 967;
var viewHeight = 616;
var sectionId = 'dynsection-0';
</script>
<script type="application/ecmascript" xlink:href="svg.min.js"/>
<svg id="graph" class="graph">
<g id="viewport">
<title>LToken</title>
<!-- Node1 -->
<g id="Node000001" class="node">
<title>Node1</title>
<g id="a_Node000001"><a xlink:title=" ">
<polygon fill="#999999" stroke="none" points="489.62,-180 450.88,-180 450.88,-128 489.62,-128 489.62,-180"/>
<text text-anchor="start" x="454.88" y="-166.5" font-family="Helvetica,sans-Serif" font-size="10.00">LToken</text>
<text text-anchor="start" x="468.75" y="-150.5" font-family="Helvetica,sans-Serif" font-size="10.00"> </text>
<text text-anchor="start" x="468.75" y="-134.5" font-family="Helvetica,sans-Serif" font-size="10.00"> </text>
<polygon fill="#666666" stroke="#666666" points="450.88,-162 450.88,-162 489.62,-162 489.62,-162 450.88,-162"/>
<polygon fill="#666666" stroke="#666666" points="450.88,-146 450.88,-146 489.62,-146 489.62,-146 450.88,-146"/>
<polygon fill="none" stroke="#666666" points="450.88,-128 450.88,-180 489.62,-180 489.62,-128 450.88,-128"/>
</a>
</g>
</g>
<!-- Node3 -->
<g id="Node000003" class="node">
<title>Node3</title>
<g id="a_Node000003"><a xlink:href="class_false_token.html" target="_top" xlink:title=" ">
<polygon fill="white" stroke="none" points="118.5,-86 0,-86 0,-6 118.5,-6 118.5,-86"/>
<text text-anchor="start" x="34.12" y="-72.5" font-family="Helvetica,sans-Serif" font-size="10.00">FalseToken</text>
<text text-anchor="start" x="57.75" y="-56.5" font-family="Helvetica,sans-Serif" font-size="10.00"> </text>
<text text-anchor="start" x="4" y="-40.5" font-family="Helvetica,sans-Serif" font-size="10.00">+</text>
<text text-anchor="start" x="14" y="-40.5" font-family="Helvetica,sans-Serif" font-size="10.00">FalseToken()</text>
<text text-anchor="start" x="4" y="-24.5" font-family="Helvetica,sans-Serif" font-size="10.00">+</text>
<text text-anchor="start" x="14" y="-24.5" font-family="Helvetica,sans-Serif" font-size="10.00">DataType getDataType</text>
<text text-anchor="start" x="14" y="-12.5" font-family="Helvetica,sans-Serif" font-size="10.00">() override</text>
<polygon fill="#666666" stroke="#666666" points="0,-68 0,-68 118.5,-68 118.5,-68 0,-68"/>
<polygon fill="#666666" stroke="#666666" points="0,-52 0,-52 118.5,-52 118.5,-52 0,-52"/>
<polygon fill="none" stroke="#666666" points="0,-6 0,-86 118.5,-86 118.5,-6 0,-6"/>
</a>
</g>
</g>
<!-- Node1&#45;&gt;Node3 -->
<g id="edge2_Node000001_Node000003" class="edge">
<title>Node1&#45;&gt;Node3</title>
<g id="a_edge2_Node000001_Node000003"><a xlink:title=" ">
<path fill="none" stroke="#63b8ff" d="M439.87,-151.64C378.79,-148.04 237.59,-135.32 128.25,-92 123.86,-90.26 119.46,-88.22 115.12,-85.99"/>
<polygon fill="none" stroke="#63b8ff" points="439.3,-155.11 449.48,-152.16 439.68,-148.12 439.3,-155.11"/>
</a>
</g>
</g>
<!-- Node4 -->
<g id="Node000004" class="node">
<title>Node4</title>
<g id="a_Node000004"><a xlink:href="class_milli_second_token.html" target="_top" xlink:title=" ">
<polygon fill="white" stroke="none" points="255.5,-86 137,-86 137,-6 255.5,-6 255.5,-86"/>
<text text-anchor="start" x="158" y="-72.5" font-family="Helvetica,sans-Serif" font-size="10.00">MilliSecondToken</text>
<text text-anchor="start" x="194.75" y="-56.5" font-family="Helvetica,sans-Serif" font-size="10.00"> </text>
<text text-anchor="start" x="141" y="-40.5" font-family="Helvetica,sans-Serif" font-size="10.00">+</text>
<text text-anchor="start" x="151" y="-40.5" font-family="Helvetica,sans-Serif" font-size="10.00">MilliSecondToken()</text>
<text text-anchor="start" x="141" y="-24.5" font-family="Helvetica,sans-Serif" font-size="10.00">+</text>
<text text-anchor="start" x="151" y="-24.5" font-family="Helvetica,sans-Serif" font-size="10.00">DataType getDataType</text>
<text text-anchor="start" x="151" y="-12.5" font-family="Helvetica,sans-Serif" font-size="10.00">() override</text>
<polygon fill="#666666" stroke="#666666" points="137,-68 137,-68 255.5,-68 255.5,-68 137,-68"/>
<polygon fill="#666666" stroke="#666666" points="137,-52 137,-52 255.5,-52 255.5,-52 137,-52"/>
<polygon fill="none" stroke="#666666" points="137,-6 137,-86 255.5,-86 255.5,-6 137,-6"/>
</a>
</g>
</g>
<!-- Node1&#45;&gt;Node4 -->
<g id="edge3_Node000001_Node000004" class="edge">
<title>Node1&#45;&gt;Node4</title>
<g id="a_edge3_Node000001_Node000004"><a xlink:title=" ">
<path fill="none" stroke="#63b8ff" d="M439.84,-146.84C398.92,-137.92 324.44,-119.4 265.25,-92 261.23,-90.14 257.17,-88.07 253.14,-85.86"/>
<polygon fill="none" stroke="#63b8ff" points="438.94,-150.23 449.45,-148.89 440.4,-143.38 438.94,-150.23"/>
</a>
</g>
</g>
<!-- Node5 -->
<g id="Node000005" class="node">
<title>Node5</title>
<g id="a_Node000005"><a xlink:href="class_minute_token.html" target="_top" xlink:title=" ">
<polygon fill="white" stroke="none" points="392.5,-86 274,-86 274,-6 392.5,-6 392.5,-86"/>
<text text-anchor="start" x="305.5" y="-72.5" font-family="Helvetica,sans-Serif" font-size="10.00">MinuteToken</text>
<text text-anchor="start" x="331.75" y="-56.5" font-family="Helvetica,sans-Serif" font-size="10.00"> </text>
<text text-anchor="start" x="278" y="-40.5" font-family="Helvetica,sans-Serif" font-size="10.00">+</text>
<text text-anchor="start" x="288" y="-40.5" font-family="Helvetica,sans-Serif" font-size="10.00">MinuteToken()</text>
<text text-anchor="start" x="278" y="-24.5" font-family="Helvetica,sans-Serif" font-size="10.00">+</text>
<text text-anchor="start" x="288" y="-24.5" font-family="Helvetica,sans-Serif" font-size="10.00">DataType getDataType</text>
<text text-anchor="start" x="288" y="-12.5" font-family="Helvetica,sans-Serif" font-size="10.00">() override</text>
<polygon fill="#666666" stroke="#666666" points="274,-68 274,-68 392.5,-68 392.5,-68 274,-68"/>
<polygon fill="#666666" stroke="#666666" points="274,-52 274,-52 392.5,-52 392.5,-52 274,-52"/>
<polygon fill="none" stroke="#666666" points="274,-6 274,-86 392.5,-86 392.5,-6 274,-6"/>
</a>
</g>
</g>
<!-- Node1&#45;&gt;Node5 -->
<g id="edge4_Node000001_Node000005" class="edge">
<title>Node1&#45;&gt;Node5</title>
<g id="a_edge4_Node000001_Node000005"><a xlink:title=" ">
<path fill="none" stroke="#63b8ff" d="M442.1,-131.22C425.22,-118.16 403.26,-101.17 383.49,-85.87"/>
<polygon fill="none" stroke="#63b8ff" points="439.66,-133.76 449.71,-137.11 443.95,-128.22 439.66,-133.76"/>
</a>
</g>
</g>
<!-- Node6 -->
<g id="Node000006" class="node">
<title>Node6</title>
<g id="a_Node000006"><a xlink:href="class_numeric_token.html" target="_top" xlink:title=" ">
<polygon fill="white" stroke="none" points="529.5,-92 411,-92 411,0 529.5,0 529.5,-92"/>
<text text-anchor="start" x="438.75" y="-78.5" font-family="Helvetica,sans-Serif" font-size="10.00">NumericToken</text>
<text text-anchor="start" x="415" y="-62.5" font-family="Helvetica,sans-Serif" font-size="10.00">+</text>
<text text-anchor="start" x="425" y="-62.5" font-family="Helvetica,sans-Serif" font-size="10.00">int number</text>
<text text-anchor="start" x="415" y="-46.5" font-family="Helvetica,sans-Serif" font-size="10.00">+</text>
<text text-anchor="start" x="425" y="-46.5" font-family="Helvetica,sans-Serif" font-size="10.00">NumericToken(const</text>
<text text-anchor="start" x="425" y="-34.5" font-family="Helvetica,sans-Serif" font-size="10.00"> std::string &amp;nb)</text>
<text text-anchor="start" x="415" y="-18.5" font-family="Helvetica,sans-Serif" font-size="10.00">+</text>
<text text-anchor="start" x="425" y="-18.5" font-family="Helvetica,sans-Serif" font-size="10.00">DataType getDataType</text>
<text text-anchor="start" x="425" y="-6.5" font-family="Helvetica,sans-Serif" font-size="10.00">() override</text>
<polygon fill="#666666" stroke="#666666" points="411,-74 411,-74 529.5,-74 529.5,-74 411,-74"/>
<polygon fill="#666666" stroke="#666666" points="411,-58 411,-58 423,-58 423,-58 411,-58"/>
<polygon fill="#666666" stroke="#666666" points="423,-58 423,-58 529.5,-58 529.5,-58 423,-58"/>
<polygon fill="none" stroke="#666666" points="411,0 411,-92 529.5,-92 529.5,0 411,0"/>
</a>
</g>
</g>
<!-- Node1&#45;&gt;Node6 -->
<g id="edge5_Node000001_Node000006" class="edge">
<title>Node1&#45;&gt;Node6</title>
<g id="a_edge5_Node000001_Node000006"><a xlink:title=" ">
<path fill="none" stroke="#63b8ff" d="M470.25,-116.81C470.25,-108.71 470.25,-100.03 470.25,-91.64"/>
<polygon fill="none" stroke="#63b8ff" points="466.75,-116.63 470.25,-126.63 473.75,-116.63 466.75,-116.63"/>
</a>
</g>
</g>
<!-- Node7 -->
<g id="Node000007" class="node">
<title>Node7</title>
<g id="a_Node000007"><a xlink:href="class_second_token.html" target="_top" xlink:title=" ">
<polygon fill="white" stroke="none" points="666.5,-86 548,-86 548,-6 666.5,-6 666.5,-86"/>
<text text-anchor="start" x="577.62" y="-72.5" font-family="Helvetica,sans-Serif" font-size="10.00">SecondToken</text>
<text text-anchor="start" x="605.75" y="-56.5" font-family="Helvetica,sans-Serif" font-size="10.00"> </text>
<text text-anchor="start" x="552" y="-40.5" font-family="Helvetica,sans-Serif" font-size="10.00">+</text>
<text text-anchor="start" x="562" y="-40.5" font-family="Helvetica,sans-Serif" font-size="10.00">SecondToken()</text>
<text text-anchor="start" x="552" y="-24.5" font-family="Helvetica,sans-Serif" font-size="10.00">+</text>
<text text-anchor="start" x="562" y="-24.5" font-family="Helvetica,sans-Serif" font-size="10.00">DataType getDataType</text>
<text text-anchor="start" x="562" y="-12.5" font-family="Helvetica,sans-Serif" font-size="10.00">() override</text>
<polygon fill="#666666" stroke="#666666" points="548,-68 548,-68 666.5,-68 666.5,-68 548,-68"/>
<polygon fill="#666666" stroke="#666666" points="548,-52 548,-52 666.5,-52 666.5,-52 548,-52"/>
<polygon fill="none" stroke="#666666" points="548,-6 548,-86 666.5,-86 666.5,-6 548,-6"/>
</a>
</g>
</g>
<!-- Node1&#45;&gt;Node7 -->
<g id="edge6_Node000001_Node000007" class="edge">
<title>Node1&#45;&gt;Node7</title>
<g id="a_edge6_Node000001_Node000007"><a xlink:title=" ">
<path fill="none" stroke="#63b8ff" d="M498.4,-131.22C515.28,-118.16 537.24,-101.17 557.01,-85.87"/>
<polygon fill="none" stroke="#63b8ff" points="496.55,-128.22 490.79,-137.11 500.84,-133.76 496.55,-128.22"/>
</a>
</g>
</g>
<!-- Node8 -->
<g id="Node000008" class="node">
<title>Node8</title>
<g id="a_Node000008"><a xlink:href="class_string_literal_token.html" target="_top" xlink:title=" ">
<polygon fill="white" stroke="none" points="821.5,-92 685,-92 685,0 821.5,0 821.5,-92"/>
<text text-anchor="start" x="714.25" y="-78.5" font-family="Helvetica,sans-Serif" font-size="10.00">StringLiteralToken</text>
<text text-anchor="start" x="751.75" y="-62.5" font-family="Helvetica,sans-Serif" font-size="10.00"> </text>
<text text-anchor="start" x="689" y="-46.5" font-family="Helvetica,sans-Serif" font-size="10.00">+</text>
<text text-anchor="start" x="699" y="-46.5" font-family="Helvetica,sans-Serif" font-size="10.00">StringLiteralToken</text>
<text text-anchor="start" x="699" y="-34.5" font-family="Helvetica,sans-Serif" font-size="10.00">(const std::string &amp;content)</text>
<text text-anchor="start" x="689" y="-18.5" font-family="Helvetica,sans-Serif" font-size="10.00">+</text>
<text text-anchor="start" x="699" y="-18.5" font-family="Helvetica,sans-Serif" font-size="10.00">std::shared_ptr&lt; Tag</text>
<text text-anchor="start" x="699" y="-6.5" font-family="Helvetica,sans-Serif" font-size="10.00"> &gt; execute() override</text>
<polygon fill="#666666" stroke="#666666" points="685,-74 685,-74 821.5,-74 821.5,-74 685,-74"/>
<polygon fill="#666666" stroke="#666666" points="685,-58 685,-58 821.5,-58 821.5,-58 685,-58"/>
<polygon fill="none" stroke="#666666" points="685,0 685,-92 821.5,-92 821.5,0 685,0"/>
</a>
</g>
</g>
<!-- Node1&#45;&gt;Node8 -->
<g id="edge7_Node000001_Node000008" class="edge">
<title>Node1&#45;&gt;Node8</title>
<g id="a_edge7_Node000001_Node000008"><a xlink:title=" ">
<path fill="none" stroke="#63b8ff" d="M500.44,-146.36C541.12,-136.9 615.33,-117.78 675.25,-92 678.55,-90.58 681.89,-89.05 685.23,-87.44"/>
<polygon fill="none" stroke="#63b8ff" points="499.87,-142.9 490.9,-148.54 501.43,-149.73 499.87,-142.9"/>
</a>
</g>
</g>
<!-- Node9 -->
<g id="Node000009" class="node">
<title>Node9</title>
<g id="a_Node000009"><a xlink:href="class_true_token.html" target="_top" xlink:title=" ">
<polygon fill="white" stroke="none" points="958.5,-86 840,-86 840,-6 958.5,-6 958.5,-86"/>
<text text-anchor="start" x="876.38" y="-72.5" font-family="Helvetica,sans-Serif" font-size="10.00">TrueToken</text>
<text text-anchor="start" x="897.75" y="-56.5" font-family="Helvetica,sans-Serif" font-size="10.00"> </text>
<text text-anchor="start" x="844" y="-40.5" font-family="Helvetica,sans-Serif" font-size="10.00">+</text>
<text text-anchor="start" x="854" y="-40.5" font-family="Helvetica,sans-Serif" font-size="10.00">TrueToken()</text>
<text text-anchor="start" x="844" y="-24.5" font-family="Helvetica,sans-Serif" font-size="10.00">+</text>
<text text-anchor="start" x="854" y="-24.5" font-family="Helvetica,sans-Serif" font-size="10.00">DataType getDataType</text>
<text text-anchor="start" x="854" y="-12.5" font-family="Helvetica,sans-Serif" font-size="10.00">() override</text>
<polygon fill="#666666" stroke="#666666" points="840,-68 840,-68 958.5,-68 958.5,-68 840,-68"/>
<polygon fill="#666666" stroke="#666666" points="840,-52 840,-52 958.5,-52 958.5,-52 840,-52"/>
<polygon fill="none" stroke="#666666" points="840,-6 840,-86 958.5,-86 958.5,-6 840,-6"/>
</a>
</g>
</g>
<!-- Node1&#45;&gt;Node9 -->
<g id="edge8_Node000001_Node000009" class="edge">
<title>Node1&#45;&gt;Node9</title>
<g id="a_edge8_Node000001_Node000009"><a xlink:title=" ">
<path fill="none" stroke="#63b8ff" d="M500.45,-152.01C563.74,-149.07 714.06,-137.45 830.25,-92 834.78,-90.23 839.32,-88.13 843.79,-85.83"/>
<polygon fill="none" stroke="#63b8ff" points="500.68,-148.5 490.84,-152.42 500.98,-155.49 500.68,-148.5"/>
</a>
</g>
</g>
<!-- Node2 -->
<g id="Node000002" class="node">
<title>Node2</title>
<g id="a_Node000002"><a xlink:href="class_token.html" target="_top" xlink:title=" ">
<polygon fill="white" stroke="none" points="563.25,-608 377.25,-608 377.25,-216 563.25,-216 563.25,-608"/>
<text text-anchor="start" x="457.12" y="-594.5" font-family="Helvetica,sans-Serif" font-size="10.00">Token</text>
<text text-anchor="start" x="381.25" y="-578.5" font-family="Helvetica,sans-Serif" font-size="10.00">+</text>
<text text-anchor="start" x="391.25" y="-578.5" font-family="Helvetica,sans-Serif" font-size="10.00">std::string tokenText</text>
<text text-anchor="start" x="381.25" y="-562.5" font-family="Helvetica,sans-Serif" font-size="10.00">+</text>
<text text-anchor="start" x="391.25" y="-562.5" font-family="Helvetica,sans-Serif" font-size="10.00">TokenVALUE tValue</text>
<text text-anchor="start" x="381.25" y="-546.5" font-family="Helvetica,sans-Serif" font-size="10.00">+</text>
<text text-anchor="start" x="391.25" y="-546.5" font-family="Helvetica,sans-Serif" font-size="10.00">std::shared_ptr&lt; TokenResult</text>
<text text-anchor="start" x="391.25" y="-534.5" font-family="Helvetica,sans-Serif" font-size="10.00"> &gt; tRes</text>
<text text-anchor="start" x="381.25" y="-518.5" font-family="Helvetica,sans-Serif" font-size="10.00">+</text>
<text text-anchor="start" x="391.25" y="-518.5" font-family="Helvetica,sans-Serif" font-size="10.00">int line</text>
<text text-anchor="start" x="381.25" y="-502.5" font-family="Helvetica,sans-Serif" font-size="10.00">+</text>
<text text-anchor="start" x="391.25" y="-502.5" font-family="Helvetica,sans-Serif" font-size="10.00">Token()</text>
<text text-anchor="start" x="381.25" y="-486.5" font-family="Helvetica,sans-Serif" font-size="10.00">+</text>
<text text-anchor="start" x="391.25" y="-486.5" font-family="Helvetica,sans-Serif" font-size="10.00">std::shared_ptr&lt; TokenResult</text>
<text text-anchor="start" x="391.25" y="-474.5" font-family="Helvetica,sans-Serif" font-size="10.00"> &gt; updateRes(std::shared</text>
<text text-anchor="start" x="391.25" y="-462.5" font-family="Helvetica,sans-Serif" font-size="10.00">_ptr&lt; TokenResult &gt; tRes)</text>
<text text-anchor="start" x="381.25" y="-446.5" font-family="Helvetica,sans-Serif" font-size="10.00">+</text>
<text text-anchor="start" x="391.25" y="-446.5" font-family="Helvetica,sans-Serif" font-size="10.00">std::shared_ptr&lt; TokenResult</text>
<text text-anchor="start" x="391.25" y="-434.5" font-family="Helvetica,sans-Serif" font-size="10.00"> &gt; addError(TokenVALUE value,</text>
<text text-anchor="start" x="391.25" y="-422.5" font-family="Helvetica,sans-Serif" font-size="10.00"> ErrorType et=ErrorType::MISSING)</text>
<text text-anchor="start" x="381.25" y="-406.5" font-family="Helvetica,sans-Serif" font-size="10.00">+</text>
<text text-anchor="start" x="391.25" y="-406.5" font-family="Helvetica,sans-Serif" font-size="10.00">std::shared_ptr&lt; TokenResult</text>
<text text-anchor="start" x="391.25" y="-394.5" font-family="Helvetica,sans-Serif" font-size="10.00"> &gt; addError(const std::shared</text>
<text text-anchor="start" x="391.25" y="-382.5" font-family="Helvetica,sans-Serif" font-size="10.00">_ptr&lt; TokenResult &gt; &amp;tr)</text>
<text text-anchor="start" x="381.25" y="-366.5" font-family="Helvetica,sans-Serif" font-size="10.00">+</text>
<text text-anchor="start" x="391.25" y="-366.5" font-family="Helvetica,sans-Serif" font-size="10.00">std::shared_ptr&lt; TokenResult</text>
<text text-anchor="start" x="391.25" y="-354.5" font-family="Helvetica,sans-Serif" font-size="10.00"> &gt; addError(DataType type,</text>
<text text-anchor="start" x="391.25" y="-342.5" font-family="Helvetica,sans-Serif" font-size="10.00"> ErrorType et=ErrorType::REPLACED)</text>
<text text-anchor="start" x="381.25" y="-326.5" font-family="Helvetica,sans-Serif" font-size="10.00">+</text>
<text text-anchor="start" x="391.25" y="-326.5" font-family="Helvetica,sans-Serif" font-size="10.00">virtual DataType getData</text>
<text text-anchor="start" x="391.25" y="-314.5" font-family="Helvetica,sans-Serif" font-size="10.00">Type()</text>
<text text-anchor="start" x="381.25" y="-298.5" font-family="Helvetica,sans-Serif" font-size="10.00">+</text>
<text text-anchor="start" x="391.25" y="-298.5" font-family="Helvetica,sans-Serif" font-size="10.00">virtual std::shared</text>
<text text-anchor="start" x="391.25" y="-286.5" font-family="Helvetica,sans-Serif" font-size="10.00">_ptr&lt; TokenResult &gt;</text>
<text text-anchor="start" x="391.25" y="-274.5" font-family="Helvetica,sans-Serif" font-size="10.00"> addTokens(IteratorList</text>
<text text-anchor="start" x="391.25" y="-262.5" font-family="Helvetica,sans-Serif" font-size="10.00">&lt; Token &gt; &amp;tl, std::shared</text>
<text text-anchor="start" x="391.25" y="-250.5" font-family="Helvetica,sans-Serif" font-size="10.00">_ptr&lt; TokenResult &gt; tRes)</text>
<text text-anchor="start" x="381.25" y="-234.5" font-family="Helvetica,sans-Serif" font-size="10.00">+</text>
<text text-anchor="start" x="391.25" y="-234.5" font-family="Helvetica,sans-Serif" font-size="10.00">virtual std::shared</text>
<text text-anchor="start" x="391.25" y="-222.5" font-family="Helvetica,sans-Serif" font-size="10.00">_ptr&lt; Tag &gt; execute()</text>
<polygon fill="#666666" stroke="#666666" points="377.25,-590 377.25,-590 563.25,-590 563.25,-590 377.25,-590"/>
<polygon fill="#666666" stroke="#666666" points="377.25,-514 377.25,-514 389.25,-514 389.25,-514 377.25,-514"/>
<polygon fill="#666666" stroke="#666666" points="389.25,-514 389.25,-514 563.25,-514 563.25,-514 389.25,-514"/>
<polygon fill="none" stroke="#666666" points="377.25,-216 377.25,-608 563.25,-608 563.25,-216 377.25,-216"/>
</a>
</g>
</g>
<!-- Node2&#45;&gt;Node1 -->
<g id="edge1_Node000001_Node000002" class="edge">
<title>Node2&#45;&gt;Node1</title>
<g id="a_edge1_Node000001_Node000002"><a xlink:title=" ">
<path fill="none" stroke="#63b8ff" d="M470.25,-204.91C470.25,-195.53 470.25,-187.06 470.25,-179.87"/>
<polygon fill="none" stroke="#63b8ff" points="466.75,-204.8 470.25,-214.8 473.75,-204.8 466.75,-204.8"/>
</a>
</g>
</g>
</g>
</svg>

<g id="navigator" transform="translate(0 0)" fill="#404254">
  <rect fill="#f2f5e9" fill-opacity="0.5" stroke="#606060" stroke-width=".5" x="0" y="0" width="60" height="60"/>
  <use id="zoomplus" xlink:href="#zoomPlus" x="17" y="9" onmousedown="handleZoom(evt,'in')"/>
  <use id="zoomminus" xlink:href="#zoomMin" x="42" y="9" onmousedown="handleZoom(evt,'out')"/>
  <use id="reset" xlink:href="#resetDef" x="30" y="36" onmousedown="handleReset()"/>
   <use id="arrowup" xlink:href="#arrowUp" x="0" y="0" onmousedown="handlePan(0,-1)"/>
  <use id="arrowright" xlink:href="#arrowRight" x="0" y="0" onmousedown="handlePan(1,0)"/>
  <use id="arrowdown" xlink:href="#arrowDown" x="0" y="0" onmousedown="handlePan(0,1)"/>
  <use id="arrowleft" xlink:href="#arrowLeft" x="0" y="0" onmousedown="handlePan(-1,0)"/>
</g>
<svg viewBox="0 0 15 15" width="100%" height="30px" preserveAspectRatio="xMaxYMin meet">
 <g id="arrow_out" transform="scale(0.3 0.3)">
  <a xlink:href="class_l_token__inherit__graph_org.svg" target="_base">
   <rect id="button" ry="5" rx="5" y="6" x="6" height="38" width="38"
        fill="#f2f5e9" fill-opacity="0.5" stroke="#606060" stroke-width="1.0"/>
   <path id="arrow"
     d="M 11.500037,31.436501 C 11.940474,20.09759 22.043105,11.32322 32.158766,21.979434 L 37.068811,17.246167 C 37.068811,17.246167 37.088388,32 37.088388,32 L 22.160133,31.978069 C 22.160133,31.978069 26.997745,27.140456 26.997745,27.140456 C 18.528582,18.264221 13.291696,25.230495 11.500037,31.436501 z"
     style="fill:#404040;"/>
  </a>
 </g>
</svg>

<style type='text/css'>
<![CDATA[
[data-mouse-over-selected='false'] { opacity: 0.7; }
[data-mouse-over-selected='true']  { opacity: 1.0; }
]]>
</style>
<script type="application/ecmascript"><![CDATA[
document.addEventListener('DOMContentLoaded', (event) => {
  highlightEdges();
  highlightAdjacentNodes();
});
]]></script>
</svg>
