<?xml version="1.0" encoding="UTF-8" standalone="no"?>
<!DOCTYPE svg PUBLIC "-//W3C//DTD SVG 1.1//EN"
 "http://www.w3.org/Graphics/SVG/1.1/DTD/svg11.dtd">
<!-- Generated by graphviz version 12.2.0 (20241103.1931)
 -->
<!-- Title: TagPanel::init Pages: 1 -->
<svg width="1241pt" height="574pt"
 viewBox="0.00 0.00 1240.75 574.00" xmlns="http://www.w3.org/2000/svg" xmlns:xlink="http://www.w3.org/1999/xlink">
<g id="graph0" class="graph" transform="scale(1 1) rotate(0) translate(4 570)">
<title>TagPanel::init</title>
<!-- Node1 -->
<g id="Node000001" class="node">
<title>Node1</title>
<g id="a_Node000001"><a xlink:title=" ">
<polygon fill="#999999" stroke="#666666" points="75.25,-182 0,-182 0,-162 75.25,-162 75.25,-182"/>
<text text-anchor="middle" x="37.62" y="-168.5" font-family="Helvetica,sans-Serif" font-size="10.00">TagPanel::init</text>
</a>
</g>
</g>
<!-- Node2 -->
<g id="Node000002" class="node">
<title>Node2</title>
<g id="a_Node000002"><a xlink:href="class_tag_panel.html#a75a1eb94084fc21b1e50322a1c385733" target="_top" xlink:title=" ">
<polygon fill="white" stroke="#666666" points="245,-333 111.25,-333 111.25,-313 245,-313 245,-333"/>
<text text-anchor="middle" x="178.12" y="-319.5" font-family="Helvetica,sans-Serif" font-size="10.00">TagPanel::addComponents</text>
</a>
</g>
</g>
<!-- Node1&#45;&gt;Node2 -->
<g id="edge1_Node000001_Node000002" class="edge">
<title>Node1&#45;&gt;Node2</title>
<g id="a_edge1_Node000001_Node000002"><a xlink:title=" ">
<path fill="none" stroke="#63b8ff" d="M44.22,-182.31C55.25,-202.02 81.35,-245.79 111.25,-276 122.71,-287.58 137.31,-298.32 149.85,-306.59"/>
<polygon fill="#63b8ff" stroke="#63b8ff" points="147.78,-309.43 158.09,-311.86 151.55,-303.53 147.78,-309.43"/>
</a>
</g>
</g>
<!-- Node18 -->
<g id="Node000018" class="node">
<title>Node18</title>
<g id="a_Node000018"><a xlink:href="class_tag_panel.html#a2974706b1d2a79806571fbebd1f7d56b" target="_top" xlink:title=" ">
<polygon fill="white" stroke="#666666" points="229.62,-267 126.62,-267 126.62,-247 229.62,-247 229.62,-267"/>
<text text-anchor="middle" x="178.12" y="-253.5" font-family="Helvetica,sans-Serif" font-size="10.00">TagPanel::initSizers</text>
</a>
</g>
</g>
<!-- Node1&#45;&gt;Node18 -->
<g id="edge24_Node000001_Node000018" class="edge">
<title>Node1&#45;&gt;Node18</title>
<g id="a_edge24_Node000001_Node000018"><a xlink:title=" ">
<path fill="none" stroke="#63b8ff" d="M55.61,-182.42C79.41,-197.03 122.91,-223.73 150.89,-240.9"/>
<polygon fill="#63b8ff" stroke="#63b8ff" points="148.79,-243.72 159.15,-245.97 152.45,-237.75 148.79,-243.72"/>
</a>
</g>
</g>
<!-- Node22 -->
<g id="Node000022" class="node">
<title>Node22</title>
<g id="a_Node000022"><a xlink:href="class_tag_panel.html#a746b3898803ea72e2a7500d7ed73d9ce" target="_top" xlink:title=" ">
<polygon fill="white" stroke="#666666" points="230.38,-182 125.88,-182 125.88,-162 230.38,-162 230.38,-182"/>
<text text-anchor="middle" x="178.12" y="-168.5" font-family="Helvetica,sans-Serif" font-size="10.00">TagPanel::setColors</text>
</a>
</g>
</g>
<!-- Node1&#45;&gt;Node22 -->
<g id="edge28_Node000001_Node000022" class="edge">
<title>Node1&#45;&gt;Node22</title>
<g id="a_edge28_Node000001_Node000022"><a xlink:title=" ">
<path fill="none" stroke="#63b8ff" d="M75.74,-172C87.58,-172 101.02,-172 114.17,-172"/>
<polygon fill="#63b8ff" stroke="#63b8ff" points="114.07,-175.5 124.07,-172 114.07,-168.5 114.07,-175.5"/>
</a>
</g>
</g>
<!-- Node25 -->
<g id="Node000025" class="node">
<title>Node25</title>
<g id="a_Node000025"><a xlink:href="class_tag_panel.html#a370e5a7a79772ae4775f24de35506582" target="_top" xlink:title=" ">
<polygon fill="white" stroke="#666666" points="242.75,-125 113.5,-125 113.5,-105 242.75,-105 242.75,-125"/>
<text text-anchor="middle" x="178.12" y="-111.5" font-family="Helvetica,sans-Serif" font-size="10.00">TagPanel::setPaintEvents</text>
</a>
</g>
</g>
<!-- Node1&#45;&gt;Node25 -->
<g id="edge31_Node000001_Node000025" class="edge">
<title>Node1&#45;&gt;Node25</title>
<g id="a_edge31_Node000001_Node000025"><a xlink:title=" ">
<path fill="none" stroke="#63b8ff" d="M64.03,-161.55C85.7,-152.63 117.1,-139.7 141.32,-129.74"/>
<polygon fill="#63b8ff" stroke="#63b8ff" points="142.57,-133.01 150.48,-125.96 139.9,-126.53 142.57,-133.01"/>
</a>
</g>
</g>
<!-- Node31 -->
<g id="Node000031" class="node">
<title>Node31</title>
<g id="a_Node000031"><a xlink:href="class_tag_panel.html#aa65c4779bd09af4389b2ca49e6ea4136" target="_top" xlink:title=" ">
<polygon fill="white" stroke="#666666" points="237.12,-49 119.12,-49 119.12,-29 237.12,-29 237.12,-49"/>
<text text-anchor="middle" x="178.12" y="-35.5" font-family="Helvetica,sans-Serif" font-size="10.00">TagPanel::setTagName</text>
</a>
</g>
</g>
<!-- Node1&#45;&gt;Node31 -->
<g id="edge37_Node000001_Node000031" class="edge">
<title>Node1&#45;&gt;Node31</title>
<g id="a_edge37_Node000001_Node000031"><a xlink:title=" ">
<path fill="none" stroke="#63b8ff" d="M47.74,-161.87C61.22,-147.02 87.45,-118.65 111.25,-96 125.71,-82.24 142.76,-67.52 155.9,-56.49"/>
<polygon fill="#63b8ff" stroke="#63b8ff" points="158.07,-59.23 163.51,-50.14 153.59,-53.85 158.07,-59.23"/>
</a>
</g>
</g>
<!-- Node3 -->
<g id="Node000003" class="node">
<title>Node3</title>
<g id="a_Node000003"><a xlink:href="class_tag_panel.html#a6e53bfa1e9893d31775867a4f0c7c749" target="_top" xlink:title=" ">
<polygon fill="white" stroke="#666666" points="412.12,-362 302.38,-362 302.38,-342 412.12,-342 412.12,-362"/>
<text text-anchor="middle" x="357.25" y="-348.5" font-family="Helvetica,sans-Serif" font-size="10.00">TagPanel::setTagLine</text>
</a>
</g>
</g>
<!-- Node2&#45;&gt;Node3 -->
<g id="edge2_Node000002_Node000003" class="edge">
<title>Node2&#45;&gt;Node3</title>
<g id="a_edge2_Node000002_Node000003"><a xlink:title=" ">
<path fill="none" stroke="#63b8ff" d="M243.07,-333.47C258.62,-336.02 275.27,-338.74 290.88,-341.3"/>
<polygon fill="#63b8ff" stroke="#63b8ff" points="290.11,-344.72 300.55,-342.88 291.24,-337.81 290.11,-344.72"/>
</a>
</g>
</g>
<!-- Node4 -->
<g id="Node000004" class="node">
<title>Node4</title>
<g id="a_Node000004"><a xlink:href="class_tag_panel.html#aaa6f2d383b2380c7c103b5019bd05782" target="_top" xlink:title=" ">
<polygon fill="white" stroke="#666666" points="593.88,-409 488.62,-409 488.62,-389 593.88,-389 593.88,-409"/>
<text text-anchor="middle" x="541.25" y="-395.5" font-family="Helvetica,sans-Serif" font-size="10.00">TagPanel::addMover</text>
</a>
</g>
</g>
<!-- Node3&#45;&gt;Node4 -->
<g id="edge3_Node000003_Node000004" class="edge">
<title>Node3&#45;&gt;Node4</title>
<g id="a_edge3_Node000003_Node000004"><a xlink:title=" ">
<path fill="none" stroke="#63b8ff" d="M398.64,-362.43C425.18,-369.28 460.13,-378.31 488.67,-385.68"/>
<polygon fill="#63b8ff" stroke="#63b8ff" points="487.63,-389.03 498.19,-388.14 489.38,-382.25 487.63,-389.03"/>
</a>
</g>
</g>
<!-- Node14 -->
<g id="Node000014" class="node">
<title>Node14</title>
<g id="a_Node000014"><a xlink:href="class_tag_panel.html#ab2f6c36e777443dcffd1cff986027790" target="_top" xlink:title=" ">
<polygon fill="white" stroke="#666666" points="605.5,-362 477,-362 477,-342 605.5,-342 605.5,-362"/>
<text text-anchor="middle" x="541.25" y="-348.5" font-family="Helvetica,sans-Serif" font-size="10.00">TagPanel::initDeletePanel</text>
</a>
</g>
</g>
<!-- Node3&#45;&gt;Node14 -->
<g id="edge18_Node000003_Node000014" class="edge">
<title>Node3&#45;&gt;Node14</title>
<g id="a_edge18_Node000003_Node000014"><a xlink:title=" ">
<path fill="none" stroke="#63b8ff" d="M412.36,-352C428.95,-352 447.51,-352 465.23,-352"/>
<polygon fill="#63b8ff" stroke="#63b8ff" points="465.22,-355.5 475.22,-352 465.22,-348.5 465.22,-355.5"/>
</a>
</g>
</g>
<!-- Node16 -->
<g id="Node000016" class="node">
<title>Node16</title>
<g id="a_Node000016"><a xlink:href="class_tag_panel.html#a01e839de7aa3bedbe9a7bc1f152a02f8" target="_top" xlink:title=" ">
<polygon fill="white" stroke="#666666" points="613,-305 469.5,-305 469.5,-285 613,-285 613,-305"/>
<text text-anchor="middle" x="541.25" y="-291.5" font-family="Helvetica,sans-Serif" font-size="10.00">TagPanel::setStaticTagName</text>
</a>
</g>
</g>
<!-- Node3&#45;&gt;Node16 -->
<g id="edge22_Node000003_Node000016" class="edge">
<title>Node3&#45;&gt;Node16</title>
<g id="a_edge22_Node000003_Node000016"><a xlink:title=" ">
<path fill="none" stroke="#63b8ff" d="M402.61,-341.54C412.81,-338.93 423.57,-336.01 433.5,-333 456.69,-325.96 482.28,-316.9 502.59,-309.39"/>
<polygon fill="#63b8ff" stroke="#63b8ff" points="503.72,-312.7 511.86,-305.93 501.27,-306.14 503.72,-312.7"/>
</a>
</g>
</g>
<!-- Node5 -->
<g id="Node000005" class="node">
<title>Node5</title>
<g id="a_Node000005"><a xlink:href="class_tag_panel.html#a33ffecd8625bc7e0783d208d8d18daf7" target="_top" xlink:title=" ">
<polygon fill="white" stroke="#666666" points="796.25,-509 649,-509 649,-489 796.25,-489 796.25,-509"/>
<text text-anchor="middle" x="722.62" y="-495.5" font-family="Helvetica,sans-Serif" font-size="10.00">TagPanel::OnMoveDownClick</text>
</a>
</g>
</g>
<!-- Node4&#45;&gt;Node5 -->
<g id="edge4_Node000004_Node000005" class="edge">
<title>Node4&#45;&gt;Node5</title>
<g id="a_edge4_Node000004_Node000005"><a xlink:title=" ">
<path fill="none" stroke="#63b8ff" d="M560.77,-409.33C592.19,-426.84 656.13,-462.49 693.23,-483.17"/>
<polygon fill="#63b8ff" stroke="#63b8ff" points="691.18,-486.03 701.61,-487.84 694.58,-479.92 691.18,-486.03"/>
</a>
</g>
</g>
<!-- Node10 -->
<g id="Node000010" class="node">
<title>Node10</title>
<g id="a_Node000010"><a xlink:href="class_tag_panel.html#a4ddfadd1d39efac7f0123146fc9f8233" target="_top" xlink:title=" ">
<polygon fill="white" stroke="#666666" points="789.88,-414 655.38,-414 655.38,-394 789.88,-394 789.88,-414"/>
<text text-anchor="middle" x="722.62" y="-400.5" font-family="Helvetica,sans-Serif" font-size="10.00">TagPanel::OnMoveUpClick</text>
</a>
</g>
</g>
<!-- Node4&#45;&gt;Node10 -->
<g id="edge11_Node000004_Node000010" class="edge">
<title>Node4&#45;&gt;Node10</title>
<g id="a_edge11_Node000004_Node000010"><a xlink:title=" ">
<path fill="none" stroke="#63b8ff" d="M594.13,-400.45C609.6,-400.88 626.91,-401.36 643.66,-401.83"/>
<polygon fill="#63b8ff" stroke="#63b8ff" points="643.53,-405.32 653.62,-402.1 643.72,-398.33 643.53,-405.32"/>
</a>
</g>
</g>
<!-- Node13 -->
<g id="Node000013" class="node">
<title>Node13</title>
<g id="a_Node000013"><a xlink:href="class_tag_panel.html#a43c96ffa9523c002fb96126500209ce8" target="_top" xlink:title=" ">
<polygon fill="white" stroke="#666666" points="780.12,-376 665.12,-376 665.12,-356 780.12,-356 780.12,-376"/>
<text text-anchor="middle" x="722.62" y="-362.5" font-family="Helvetica,sans-Serif" font-size="10.00">TagPanel::SetLineFont</text>
</a>
</g>
</g>
<!-- Node4&#45;&gt;Node13 -->
<g id="edge17_Node000004_Node000013" class="edge">
<title>Node4&#45;&gt;Node13</title>
<g id="a_edge17_Node000004_Node000013"><a xlink:title=" ">
<path fill="none" stroke="#63b8ff" d="M594.13,-389.46C612.73,-386.03 633.98,-382.12 653.73,-378.49"/>
<polygon fill="#63b8ff" stroke="#63b8ff" points="654.14,-381.97 663.35,-376.72 652.88,-375.09 654.14,-381.97"/>
</a>
</g>
</g>
<!-- Node6 -->
<g id="Node000006" class="node">
<title>Node6</title>
<g id="a_Node000006"><a xlink:href="class_tag_panel.html#aefc411bf7be4bd7fd05b3e8a48a6671f" target="_top" xlink:title=" ">
<polygon fill="white" stroke="#666666" points="954.75,-566 842,-566 842,-546 954.75,-546 954.75,-566"/>
<text text-anchor="middle" x="898.38" y="-552.5" font-family="Helvetica,sans-Serif" font-size="10.00">TagPanel::getNextTag</text>
</a>
</g>
</g>
<!-- Node5&#45;&gt;Node6 -->
<g id="edge5_Node000005_Node000006" class="edge">
<title>Node5&#45;&gt;Node6</title>
<g id="a_edge5_Node000005_Node000006"><a xlink:title=" ">
<path fill="none" stroke="#63b8ff" d="M755.49,-509.45C783.33,-518.59 823.96,-531.92 854.61,-541.97"/>
<polygon fill="#63b8ff" stroke="#63b8ff" points="853.38,-545.25 863.98,-545.04 855.57,-538.6 853.38,-545.25"/>
</a>
</g>
</g>
<!-- Node7 -->
<g id="Node000007" class="node">
<title>Node7</title>
<g id="a_Node000007"><a xlink:href="_tag_panel_8cpp.html#a2f4c4fdbb29d8e8fadcbbd9673b3c370" target="_top" xlink:title=" ">
<polygon fill="white" stroke="#666666" points="1076.5,-452 1000.5,-452 1000.5,-432 1076.5,-432 1076.5,-452"/>
<text text-anchor="middle" x="1038.5" y="-438.5" font-family="Helvetica,sans-Serif" font-size="10.00">GetParentTag</text>
</a>
</g>
</g>
<!-- Node5&#45;&gt;Node7 -->
<g id="edge8_Node000005_Node000007" class="edge">
<title>Node5&#45;&gt;Node7</title>
<g id="a_edge8_Node000005_Node000007"><a xlink:title=" ">
<path fill="none" stroke="#63b8ff" d="M782.81,-509.5C832.68,-515.91 905.19,-519.41 964.5,-499 986.7,-491.36 1007.32,-473.89 1020.95,-460.29"/>
<polygon fill="#63b8ff" stroke="#63b8ff" points="1023.4,-462.79 1027.79,-453.15 1018.34,-457.95 1023.4,-462.79"/>
</a>
</g>
</g>
<!-- Node9 -->
<g id="Node000009" class="node">
<title>Node9</title>
<g id="a_Node000009"><a xlink:href="class_tag_panel.html#a9a11954167303954710c12832b39fbf4" target="_top" xlink:title=" ">
<polygon fill="white" stroke="#666666" points="950.62,-490 846.12,-490 846.12,-470 950.62,-470 950.62,-490"/>
<text text-anchor="middle" x="898.38" y="-476.5" font-family="Helvetica,sans-Serif" font-size="10.00">TagPanel::isLastTag</text>
</a>
</g>
</g>
<!-- Node5&#45;&gt;Node9 -->
<g id="edge9_Node000005_Node000009" class="edge">
<title>Node5&#45;&gt;Node9</title>
<g id="a_edge9_Node000005_Node000009"><a xlink:title=" ">
<path fill="none" stroke="#63b8ff" d="M796.56,-491.02C809.21,-489.64 822.27,-488.21 834.63,-486.86"/>
<polygon fill="#63b8ff" stroke="#63b8ff" points="834.68,-490.38 844.24,-485.81 833.92,-483.42 834.68,-490.38"/>
</a>
</g>
</g>
<!-- Node6&#45;&gt;Node7 -->
<g id="edge6_Node000006_Node000007" class="edge">
<title>Node6&#45;&gt;Node7</title>
<g id="a_edge6_Node000006_Node000007"><a xlink:title=" ">
<path fill="none" stroke="#63b8ff" d="M938.28,-545.52C947.36,-542.06 956.66,-537.61 964.5,-532 990.85,-513.14 1012.94,-482.39 1025.7,-462.17"/>
<polygon fill="#63b8ff" stroke="#63b8ff" points="1028.64,-464.08 1030.86,-453.72 1022.66,-460.43 1028.64,-464.08"/>
</a>
</g>
</g>
<!-- Node8 -->
<g id="Node000008" class="node">
<title>Node8</title>
<g id="a_Node000008"><a xlink:href="class_tag_panel.html#af3b5b6fc2b16171af7cab7b0d79d9ed7" target="_top" xlink:title=" ">
<polygon fill="white" stroke="#666666" points="1232.75,-452 1112.5,-452 1112.5,-432 1232.75,-432 1232.75,-452"/>
<text text-anchor="middle" x="1172.62" y="-438.5" font-family="Helvetica,sans-Serif" font-size="10.00">TagPanel::getParentTag</text>
</a>
</g>
</g>
<!-- Node7&#45;&gt;Node8 -->
<g id="edge7_Node000007_Node000008" class="edge">
<title>Node7&#45;&gt;Node8</title>
<g id="a_edge7_Node000007_Node000008"><a xlink:title=" ">
<path fill="none" stroke="#63b8ff" d="M1076.66,-442C1084.21,-442 1092.4,-442 1100.68,-442"/>
<polygon fill="#63b8ff" stroke="#63b8ff" points="1100.49,-445.5 1110.49,-442 1100.49,-438.5 1100.49,-445.5"/>
</a>
</g>
</g>
<!-- Node9&#45;&gt;Node7 -->
<g id="edge10_Node000009_Node000007" class="edge">
<title>Node9&#45;&gt;Node7</title>
<g id="a_edge10_Node000009_Node000007"><a xlink:title=" ">
<path fill="none" stroke="#63b8ff" d="M937.48,-469.52C953.6,-465.08 972.55,-459.87 989.59,-455.18"/>
<polygon fill="#63b8ff" stroke="#63b8ff" points="990.3,-458.62 999.01,-452.59 988.44,-451.87 990.3,-458.62"/>
</a>
</g>
</g>
<!-- Node10&#45;&gt;Node7 -->
<g id="edge12_Node000010_Node000007" class="edge">
<title>Node10&#45;&gt;Node7</title>
<g id="a_edge12_Node000010_Node000007"><a xlink:title=" ">
<path fill="none" stroke="#63b8ff" d="M778.47,-414.48C795.65,-417.53 814.7,-420.66 832.25,-423 885.63,-430.13 947.19,-435.44 988.85,-438.61"/>
<polygon fill="#63b8ff" stroke="#63b8ff" points="988.58,-442.1 998.81,-439.35 989.1,-435.12 988.58,-442.1"/>
</a>
</g>
</g>
<!-- Node11 -->
<g id="Node000011" class="node">
<title>Node11</title>
<g id="a_Node000011"><a xlink:href="class_tag_panel.html#a20a4cc67dc3ecd4538cb8af3c9668421" target="_top" xlink:title=" ">
<polygon fill="white" stroke="#666666" points="963.38,-414 833.38,-414 833.38,-394 963.38,-394 963.38,-414"/>
<text text-anchor="middle" x="898.38" y="-400.5" font-family="Helvetica,sans-Serif" font-size="10.00">TagPanel::getPreviousTag</text>
</a>
</g>
</g>
<!-- Node10&#45;&gt;Node11 -->
<g id="edge13_Node000010_Node000011" class="edge">
<title>Node10&#45;&gt;Node11</title>
<g id="a_edge13_Node000010_Node000011"><a xlink:title=" ">
<path fill="none" stroke="#63b8ff" d="M790.3,-404C800.57,-404 811.22,-404 821.66,-404"/>
<polygon fill="#63b8ff" stroke="#63b8ff" points="821.36,-407.5 831.36,-404 821.36,-400.5 821.36,-407.5"/>
</a>
</g>
</g>
<!-- Node12 -->
<g id="Node000012" class="node">
<title>Node12</title>
<g id="a_Node000012"><a xlink:href="class_tag_panel.html#aa16fddf213851034cb33b775ea653efc" target="_top" xlink:title=" ">
<polygon fill="white" stroke="#666666" points="951,-376 845.75,-376 845.75,-356 951,-356 951,-376"/>
<text text-anchor="middle" x="898.38" y="-362.5" font-family="Helvetica,sans-Serif" font-size="10.00">TagPanel::isFirstTag</text>
</a>
</g>
</g>
<!-- Node10&#45;&gt;Node12 -->
<g id="edge15_Node000010_Node000012" class="edge">
<title>Node10&#45;&gt;Node12</title>
<g id="a_edge15_Node000010_Node000012"><a xlink:title=" ">
<path fill="none" stroke="#63b8ff" d="M771.56,-393.52C792.26,-388.99 816.68,-383.65 838.47,-378.88"/>
<polygon fill="#63b8ff" stroke="#63b8ff" points="839.09,-382.33 848.11,-376.77 837.6,-375.49 839.09,-382.33"/>
</a>
</g>
</g>
<!-- Node11&#45;&gt;Node7 -->
<g id="edge14_Node000011_Node000007" class="edge">
<title>Node11&#45;&gt;Node7</title>
<g id="a_edge14_Node000011_Node000007"><a xlink:title=" ">
<path fill="none" stroke="#63b8ff" d="M937.48,-414.48C953.6,-418.92 972.55,-424.13 989.59,-428.82"/>
<polygon fill="#63b8ff" stroke="#63b8ff" points="988.44,-432.13 999.01,-431.41 990.3,-425.38 988.44,-432.13"/>
</a>
</g>
</g>
<!-- Node12&#45;&gt;Node7 -->
<g id="edge16_Node000012_Node000007" class="edge">
<title>Node12&#45;&gt;Node7</title>
<g id="a_edge16_Node000012_Node000007"><a xlink:title=" ">
<path fill="none" stroke="#63b8ff" d="M943.69,-376.46C950.83,-378.84 958,-381.67 964.5,-385 984.69,-395.34 1004.8,-411.6 1018.79,-424.11"/>
<polygon fill="#63b8ff" stroke="#63b8ff" points="1016.18,-426.47 1025.92,-430.66 1020.92,-421.32 1016.18,-426.47"/>
</a>
</g>
</g>
<!-- Node14&#45;&gt;Node13 -->
<g id="edge21_Node000014_Node000013" class="edge">
<title>Node14&#45;&gt;Node13</title>
<g id="a_edge21_Node000014_Node000013"><a xlink:title=" ">
<path fill="none" stroke="#63b8ff" d="M606,-356.98C621.39,-358.18 637.9,-359.47 653.49,-360.68"/>
<polygon fill="#63b8ff" stroke="#63b8ff" points="652.9,-364.15 663.14,-361.44 653.44,-357.17 652.9,-364.15"/>
</a>
</g>
</g>
<!-- Node15 -->
<g id="Node000015" class="node">
<title>Node15</title>
<g id="a_Node000015"><a xlink:href="class_tag_panel.html#a92b74a6332f46423e1509044989a4a0a" target="_top" xlink:title=" ">
<polygon fill="white" stroke="#666666" points="964.5,-338 832.25,-338 832.25,-306 964.5,-306 964.5,-338"/>
<text text-anchor="start" x="840.25" y="-324.5" font-family="Helvetica,sans-Serif" font-size="10.00">TagPanel::OnDeleteButton</text>
<text text-anchor="middle" x="898.38" y="-312.5" font-family="Helvetica,sans-Serif" font-size="10.00">Click</text>
</a>
</g>
</g>
<!-- Node14&#45;&gt;Node15 -->
<g id="edge19_Node000014_Node000015" class="edge">
<title>Node14&#45;&gt;Node15</title>
<g id="a_edge19_Node000014_Node000015"><a xlink:title=" ">
<path fill="none" stroke="#63b8ff" d="M605.74,-346.64C665.96,-341.55 756.55,-333.9 820.76,-328.47"/>
<polygon fill="#63b8ff" stroke="#63b8ff" points="820.85,-331.98 830.52,-327.65 820.27,-325 820.85,-331.98"/>
</a>
</g>
</g>
<!-- Node15&#45;&gt;Node7 -->
<g id="edge20_Node000015_Node000007" class="edge">
<title>Node15&#45;&gt;Node7</title>
<g id="a_edge20_Node000015_Node000007"><a xlink:title=" ">
<path fill="none" stroke="#63b8ff" d="M950.6,-338.48C955.5,-340.98 960.23,-343.81 964.5,-347 991.76,-367.34 1013.97,-400.45 1026.47,-421.72"/>
<polygon fill="#63b8ff" stroke="#63b8ff" points="1023.37,-423.35 1031.35,-430.32 1029.46,-419.89 1023.37,-423.35"/>
</a>
</g>
</g>
<!-- Node17 -->
<g id="Node000017" class="node">
<title>Node17</title>
<g id="a_Node000017"><a xlink:href="class_tag_panel.html#af2926b62ee8940d7aa87591255623814" target="_top" xlink:title=" ">
<polygon fill="white" stroke="#666666" points="782.75,-300 662.5,-300 662.5,-280 782.75,-280 782.75,-300"/>
<text text-anchor="middle" x="722.62" y="-286.5" font-family="Helvetica,sans-Serif" font-size="10.00">TagPanel::addTagName</text>
</a>
</g>
</g>
<!-- Node16&#45;&gt;Node17 -->
<g id="edge23_Node000016_Node000017" class="edge">
<title>Node16&#45;&gt;Node17</title>
<g id="a_edge23_Node000016_Node000017"><a xlink:title=" ">
<path fill="none" stroke="#63b8ff" d="M613.4,-293.02C625.76,-292.67 638.61,-292.31 650.95,-291.97"/>
<polygon fill="#63b8ff" stroke="#63b8ff" points="650.7,-295.48 660.6,-291.7 650.51,-288.48 650.7,-295.48"/>
</a>
</g>
</g>
<!-- Node19 -->
<g id="Node000019" class="node">
<title>Node19</title>
<g id="a_Node000019"><a xlink:href="class_tag_panel.html#af74a61159813873c529dbcb17a371a05" target="_top" xlink:title=" ">
<polygon fill="white" stroke="#666666" points="415.12,-324 299.38,-324 299.38,-304 415.12,-304 415.12,-324"/>
<text text-anchor="middle" x="357.25" y="-310.5" font-family="Helvetica,sans-Serif" font-size="10.00">TagPanel::initLineSizer</text>
</a>
</g>
</g>
<!-- Node18&#45;&gt;Node19 -->
<g id="edge25_Node000018_Node000019" class="edge">
<title>Node18&#45;&gt;Node19</title>
<g id="a_edge25_Node000018_Node000019"><a xlink:title=" ">
<path fill="none" stroke="#63b8ff" d="M204.81,-267.48C225.25,-275.59 254.69,-286.8 281,-295 287.26,-296.95 293.87,-298.85 300.45,-300.64"/>
<polygon fill="#63b8ff" stroke="#63b8ff" points="299.43,-303.99 310,-303.16 301.22,-297.22 299.43,-303.99"/>
</a>
</g>
</g>
<!-- Node20 -->
<g id="Node000020" class="node">
<title>Node20</title>
<g id="a_Node000020"><a xlink:href="class_tag_panel.html#ae24d607788ed14f2fc8b6a88ff9b7602" target="_top" xlink:title=" ">
<polygon fill="white" stroke="#666666" points="414,-286 300.5,-286 300.5,-266 414,-266 414,-286"/>
<text text-anchor="middle" x="357.25" y="-272.5" font-family="Helvetica,sans-Serif" font-size="10.00">TagPanel::initTagSizer</text>
</a>
</g>
</g>
<!-- Node18&#45;&gt;Node20 -->
<g id="edge26_Node000018_Node000020" class="edge">
<title>Node18&#45;&gt;Node20</title>
<g id="a_edge26_Node000018_Node000020"><a xlink:title=" ">
<path fill="none" stroke="#63b8ff" d="M229.88,-262.44C248.25,-264.42 269.3,-266.67 288.88,-268.77"/>
<polygon fill="#63b8ff" stroke="#63b8ff" points="288.38,-272.24 298.7,-269.83 289.13,-265.28 288.38,-272.24"/>
</a>
</g>
</g>
<!-- Node21 -->
<g id="Node000021" class="node">
<title>Node21</title>
<g id="a_Node000021"><a xlink:href="class_tag_panel.html#a99231e365be781b584996e68197621b9" target="_top" xlink:title=" ">
<polygon fill="white" stroke="#666666" points="414.38,-248 300.12,-248 300.12,-228 414.38,-228 414.38,-248"/>
<text text-anchor="middle" x="357.25" y="-234.5" font-family="Helvetica,sans-Serif" font-size="10.00">TagPanel::setTagSizer</text>
</a>
</g>
</g>
<!-- Node18&#45;&gt;Node21 -->
<g id="edge27_Node000018_Node000021" class="edge">
<title>Node18&#45;&gt;Node21</title>
<g id="a_edge27_Node000018_Node000021"><a xlink:title=" ">
<path fill="none" stroke="#63b8ff" d="M229.88,-251.56C248.17,-249.59 269.1,-247.35 288.6,-245.26"/>
<polygon fill="#63b8ff" stroke="#63b8ff" points="288.81,-248.75 298.38,-244.21 288.07,-241.79 288.81,-248.75"/>
</a>
</g>
</g>
<!-- Node23 -->
<g id="Node000023" class="node">
<title>Node23</title>
<g id="a_Node000023"><a xlink:href="class_tag_panel.html#a5edee5cee34656fe89fec14f26af0f80" target="_top" xlink:title=" ">
<polygon fill="white" stroke="#666666" points="419.25,-210 295.25,-210 295.25,-190 419.25,-190 419.25,-210"/>
<text text-anchor="middle" x="357.25" y="-196.5" font-family="Helvetica,sans-Serif" font-size="10.00">TagPanel::setPanelColor</text>
</a>
</g>
</g>
<!-- Node22&#45;&gt;Node23 -->
<g id="edge29_Node000022_Node000023" class="edge">
<title>Node22&#45;&gt;Node23</title>
<g id="a_edge29_Node000022_Node000023"><a xlink:title=" ">
<path fill="none" stroke="#63b8ff" d="M230.83,-180.17C247.33,-182.78 265.9,-185.72 283.6,-188.51"/>
<polygon fill="#63b8ff" stroke="#63b8ff" points="282.85,-191.94 293.28,-190.04 283.94,-185.03 282.85,-191.94"/>
</a>
</g>
</g>
<!-- Node24 -->
<g id="Node000024" class="node">
<title>Node24</title>
<g id="a_Node000024"><a xlink:href="class_tag_panel.html#a752cdf34c8cc8cc25ecc944683dff46b" target="_top" xlink:title=" ">
<polygon fill="white" stroke="#666666" points="427.88,-172 286.62,-172 286.62,-152 427.88,-152 427.88,-172"/>
<text text-anchor="middle" x="357.25" y="-158.5" font-family="Helvetica,sans-Serif" font-size="10.00">TagPanel::setTagNameColor</text>
</a>
</g>
</g>
<!-- Node22&#45;&gt;Node24 -->
<g id="edge30_Node000022_Node000024" class="edge">
<title>Node22&#45;&gt;Node24</title>
<g id="a_edge30_Node000022_Node000024"><a xlink:title=" ">
<path fill="none" stroke="#63b8ff" d="M230.83,-169.08C244.67,-168.3 259.96,-167.44 274.97,-166.59"/>
<polygon fill="#63b8ff" stroke="#63b8ff" points="275.07,-170.09 284.86,-166.03 274.67,-163.1 275.07,-170.09"/>
</a>
</g>
</g>
<!-- Node26 -->
<g id="Node000026" class="node">
<title>Node26</title>
<g id="a_Node000026"><a xlink:href="class_tag_panel.html#a5d57b2c271078562ca65bf9d0f9c656e" target="_top" xlink:title=" ">
<polygon fill="white" stroke="#666666" points="429.75,-134 284.75,-134 284.75,-114 429.75,-114 429.75,-134"/>
<text text-anchor="middle" x="357.25" y="-120.5" font-family="Helvetica,sans-Serif" font-size="10.00">TagPanel::DrawBordersEvent</text>
</a>
</g>
</g>
<!-- Node25&#45;&gt;Node26 -->
<g id="edge32_Node000025_Node000026" class="edge">
<title>Node25&#45;&gt;Node26</title>
<g id="a_edge32_Node000025_Node000026"><a xlink:title=" ">
<path fill="none" stroke="#63b8ff" d="M243.07,-118.25C252.79,-118.74 262.94,-119.26 273,-119.77"/>
<polygon fill="#63b8ff" stroke="#63b8ff" points="272.61,-123.25 282.77,-120.27 272.97,-116.26 272.61,-123.25"/>
</a>
</g>
</g>
<!-- Node27 -->
<g id="Node000027" class="node">
<title>Node27</title>
<g id="a_Node000027"><a xlink:href="class_tag_panel.html#a72db5ac659ea9dc41b2a236bd5ff0a12" target="_top" xlink:title=" ">
<polygon fill="white" stroke="#666666" points="419.25,-96 295.25,-96 295.25,-76 419.25,-76 419.25,-96"/>
<text text-anchor="middle" x="357.25" y="-82.5" font-family="Helvetica,sans-Serif" font-size="10.00">TagPanel::OnHoverPaint</text>
</a>
</g>
</g>
<!-- Node25&#45;&gt;Node27 -->
<g id="edge33_Node000025_Node000027" class="edge">
<title>Node25&#45;&gt;Node27</title>
<g id="a_edge33_Node000025_Node000027"><a xlink:title=" ">
<path fill="none" stroke="#63b8ff" d="M243.07,-104.53C256.23,-102.38 270.18,-100.09 283.62,-97.89"/>
<polygon fill="#63b8ff" stroke="#63b8ff" points="283.97,-101.38 293.27,-96.31 282.84,-94.47 283.97,-101.38"/>
</a>
</g>
</g>
<!-- Node29 -->
<g id="Node000029" class="node">
<title>Node29</title>
<g id="a_Node000029"><a xlink:href="class_tag_panel.html#af7c491223a887d2ce97353157adc9110" target="_top" xlink:title=" ">
<polygon fill="white" stroke="#666666" points="407.25,-58 307.25,-58 307.25,-38 407.25,-38 407.25,-58"/>
<text text-anchor="middle" x="357.25" y="-44.5" font-family="Helvetica,sans-Serif" font-size="10.00">TagPanel::OnInsert</text>
</a>
</g>
</g>
<!-- Node25&#45;&gt;Node29 -->
<g id="edge35_Node000025_Node000029" class="edge">
<title>Node25&#45;&gt;Node29</title>
<g id="a_edge35_Node000025_Node000029"><a xlink:title=" ">
<path fill="none" stroke="#63b8ff" d="M198.18,-104.66C218.31,-94.06 251.18,-77.68 281,-67 286.41,-65.06 292.11,-63.24 297.85,-61.56"/>
<polygon fill="#63b8ff" stroke="#63b8ff" points="298.72,-64.95 307.41,-58.89 296.83,-58.21 298.72,-64.95"/>
</a>
</g>
</g>
<!-- Node28 -->
<g id="Node000028" class="node">
<title>Node28</title>
<g id="a_Node000028"><a xlink:href="class_tag_panel.html#a2968cbcc5c04e34a50085877ddb53f65" target="_top" xlink:title=" ">
<polygon fill="white" stroke="#666666" points="605.88,-96 476.62,-96 476.62,-76 605.88,-76 605.88,-96"/>
<text text-anchor="middle" x="541.25" y="-82.5" font-family="Helvetica,sans-Serif" font-size="10.00">TagPanel::getPanelColour</text>
</a>
</g>
</g>
<!-- Node27&#45;&gt;Node28 -->
<g id="edge34_Node000027_Node000028" class="edge">
<title>Node27&#45;&gt;Node28</title>
<g id="a_edge34_Node000027_Node000028"><a xlink:title=" ">
<path fill="none" stroke="#63b8ff" d="M419.61,-86C434.17,-86 449.86,-86 464.96,-86"/>
<polygon fill="#63b8ff" stroke="#63b8ff" points="464.84,-89.5 474.84,-86 464.84,-82.5 464.84,-89.5"/>
</a>
</g>
</g>
<!-- Node30 -->
<g id="Node000030" class="node">
<title>Node30</title>
<g id="a_Node000030"><a xlink:href="class_tag_panel.html#af925f36858bbc30c39bd4716f64822d3" target="_top" xlink:title=" ">
<polygon fill="white" stroke="#666666" points="610,-58 472.5,-58 472.5,-38 610,-38 610,-58"/>
<text text-anchor="middle" x="541.25" y="-44.5" font-family="Helvetica,sans-Serif" font-size="10.00">TagPanel::updateInsertRect</text>
</a>
</g>
</g>
<!-- Node29&#45;&gt;Node30 -->
<g id="edge36_Node000029_Node000030" class="edge">
<title>Node29&#45;&gt;Node30</title>
<g id="a_edge36_Node000029_Node000030"><a xlink:title=" ">
<path fill="none" stroke="#63b8ff" d="M407.5,-48C423.9,-48 442.61,-48 460.7,-48"/>
<polygon fill="#63b8ff" stroke="#63b8ff" points="460.66,-51.5 470.66,-48 460.66,-44.5 460.66,-51.5"/>
</a>
</g>
</g>
<!-- Node32 -->
<g id="Node000032" class="node">
<title>Node32</title>
<g id="a_Node000032"><a xlink:href="class_tag_panel.html#adea8840b3b43bfee7f8e090a71dd708c" target="_top" xlink:title=" ">
<polygon fill="white" stroke="#666666" points="433.5,-20 281,-20 281,0 433.5,0 433.5,-20"/>
<text text-anchor="middle" x="357.25" y="-6.5" font-family="Helvetica,sans-Serif" font-size="10.00">TagPanel::setTagNameCustom</text>
</a>
</g>
</g>
<!-- Node31&#45;&gt;Node32 -->
<g id="edge38_Node000031_Node000032" class="edge">
<title>Node31&#45;&gt;Node32</title>
<g id="a_edge38_Node000031_Node000032"><a xlink:title=" ">
<path fill="none" stroke="#63b8ff" d="M237.61,-29.42C251.59,-27.14 266.69,-24.66 281.29,-22.27"/>
<polygon fill="#63b8ff" stroke="#63b8ff" points="281.53,-25.78 290.84,-20.71 280.4,-18.87 281.53,-25.78"/>
</a>
</g>
</g>
</g>
</svg>
