<?xml version="1.0" encoding="UTF-8" standalone="no"?>
<!DOCTYPE svg PUBLIC "-//W3C//DTD SVG 1.1//EN"
 "http://www.w3.org/Graphics/SVG/1.1/DTD/svg11.dtd">
<!-- Generated by graphviz version 12.2.0 (20241103.1931)
 -->
<!-- Title: MainTagPanel Pages: 1 -->
<!--zoomable 1535 -->

<svg id="main" version="1.1" xmlns="http://www.w3.org/2000/svg" xmlns:xlink="http://www.w3.org/1999/xlink" xml:space="preserve" onload="init(evt)">

<style type="text/css"><![CDATA[
.node, .edge {opacity: 0.7;}
.node.selected, .edge.selected {opacity: 1;}
.edge:hover path { stroke: red; }
.edge:hover polygon { stroke: red; fill: red; }
]]></style>

<defs>
  <circle id="rim" cx="0" cy="0" r="7"/>
  <circle id="rim2" cx="0" cy="0" r="3.5"/>
  <g id="zoomPlus">
    <use xlink:href="#rim" fill="#404040"><set attributeName="fill" to="#808080" begin="zoomplus.mouseover" end="zoomplus.mouseout"/></use>
    <path d="M-4,0h8M0,-4v8" fill="none" stroke="white" stroke-width="1.5" pointer-events="none"/>
  </g>
  <g id="zoomMin">
    <use xlink:href="#rim" fill="#404040"><set attributeName="fill" to="#808080" begin="zoomminus.mouseover" end="zoomminus.mouseout"/></use>
    <path d="M-4,0h8" fill="none" stroke="white" stroke-width="1.5" pointer-events="none"/>
  </g>
  <g id="arrowUp" transform="translate(30 24)">
    <use xlink:href="#rim"/>
    <path pointer-events="none" fill="none" stroke="white" stroke-width="1.5" d="M0,-3.0v7 M-2.5,-0.5L0,-3.0L2.5,-0.5"/>
  </g>
  <g id="arrowRight" transform="rotate(90) translate(36 -43)">
    <use xlink:href="#rim"/>
    <path pointer-events="none" fill="none" stroke="white" stroke-width="1.5" d="M0,-3.0v7 M-2.5,-0.5L0,-3.0L2.5,-0.5"/>
  </g>
  <g id="arrowDown" transform="rotate(180) translate(-30 -48)">
    <use xlink:href="#rim"/>
    <path pointer-events="none" fill="none" stroke="white" stroke-width="1.5" d="M0,-3.0v7 M-2.5,-0.5L0,-3.0L2.5,-0.5"/>
  </g>
  <g id="arrowLeft" transform="rotate(270) translate(-36 17)">
    <use xlink:href="#rim"/>
    <path pointer-events="none" fill="none" stroke="white" stroke-width="1.5" d="M0,-3.0v7 M-2.5,-0.5L0,-3.0L2.5,-0.5"/>
  </g>
  <g id="resetDef">
    <use xlink:href="#rim2" fill="#404040"><set attributeName="fill" to="#808080" begin="reset.mouseover" end="reset.mouseout"/></use>
  </g>
</defs>
<script type="application/ecmascript">
var viewWidth = 276;
var viewHeight = 1535;
var sectionId = 'dynsection-1';
</script>
<script type="application/ecmascript" xlink:href="svg.min.js"/>
<svg id="graph" class="graph">
<g id="viewport">
<title>MainTagPanel</title>
<!-- Node1 -->
<g id="Node000001" class="node">
<title>Node1</title>
<g id="a_Node000001"><a xlink:title=" ">
<polygon fill="#999999" stroke="none" points="166.88,-140 36.38,-140 36.38,0 166.88,0 166.88,-140"/>
<text text-anchor="start" x="70.88" y="-126.5" font-family="Helvetica,sans-Serif" font-size="10.00">MainTagPanel</text>
<text text-anchor="start" x="100.12" y="-110.5" font-family="Helvetica,sans-Serif" font-size="10.00"> </text>
<text text-anchor="start" x="40.38" y="-94.5" font-family="Helvetica,sans-Serif" font-size="10.00">+</text>
<text text-anchor="start" x="50.38" y="-94.5" font-family="Helvetica,sans-Serif" font-size="10.00">MainTagPanel(wxWindow</text>
<text text-anchor="start" x="50.38" y="-82.5" font-family="Helvetica,sans-Serif" font-size="10.00"> *window)</text>
<text text-anchor="start" x="40.38" y="-66.5" font-family="Helvetica,sans-Serif" font-size="10.00">+</text>
<text text-anchor="start" x="50.38" y="-66.5" font-family="Helvetica,sans-Serif" font-size="10.00">void setTagName()</text>
<text text-anchor="start" x="40.38" y="-50.5" font-family="Helvetica,sans-Serif" font-size="10.00">+</text>
<text text-anchor="start" x="50.38" y="-50.5" font-family="Helvetica,sans-Serif" font-size="10.00">void setPanelColor()</text>
<text text-anchor="start" x="40.38" y="-34.5" font-family="Helvetica,sans-Serif" font-size="10.00">+</text>
<text text-anchor="start" x="50.38" y="-34.5" font-family="Helvetica,sans-Serif" font-size="10.00">void setTagLine() override</text>
<text text-anchor="start" x="40.38" y="-18.5" font-family="Helvetica,sans-Serif" font-size="10.00">+</text>
<text text-anchor="start" x="50.38" y="-18.5" font-family="Helvetica,sans-Serif" font-size="10.00">MainTagPanel * clone</text>
<text text-anchor="start" x="50.38" y="-6.5" font-family="Helvetica,sans-Serif" font-size="10.00">() override</text>
<polygon fill="#666666" stroke="#666666" points="36.38,-122 36.38,-122 166.88,-122 166.88,-122 36.38,-122"/>
<polygon fill="#666666" stroke="#666666" points="36.38,-106 36.38,-106 166.88,-106 166.88,-106 36.38,-106"/>
<polygon fill="none" stroke="#666666" points="36.38,0 36.38,-140 166.88,-140 166.88,0 36.38,0"/>
</a>
</g>
</g>
<!-- Node2 -->
<g id="Node000002" class="node">
<title>Node2</title>
<g id="a_Node000002"><a xlink:href="class_flow_tag_panel.html" target="_top" xlink:title=" ">
<polygon fill="white" stroke="none" points="203.25,-557 0,-557 0,-177 203.25,-177 203.25,-557"/>
<text text-anchor="start" x="70.88" y="-543.5" font-family="Helvetica,sans-Serif" font-size="10.00">FlowTagPanel</text>
<text text-anchor="start" x="4.38" y="-527.5" font-family="Helvetica,sans-Serif" font-size="10.00">#</text>
<text text-anchor="start" x="14" y="-527.5" font-family="Helvetica,sans-Serif" font-size="10.00">wxSizerItem * bottomSpacer</text>
<text text-anchor="start" x="4.38" y="-511.5" font-family="Helvetica,sans-Serif" font-size="10.00">#</text>
<text text-anchor="start" x="14" y="-511.5" font-family="Helvetica,sans-Serif" font-size="10.00">int nbFlowParents</text>
<text text-anchor="start" x="4.38" y="-495.5" font-family="Helvetica,sans-Serif" font-size="10.00">#</text>
<text text-anchor="start" x="14" y="-495.5" font-family="Helvetica,sans-Serif" font-size="10.00">wxBoxSizer * childrenSizer</text>
<text text-anchor="start" x="4.38" y="-479.5" font-family="Helvetica,sans-Serif" font-size="10.00">#</text>
<text text-anchor="start" x="14" y="-479.5" font-family="Helvetica,sans-Serif" font-size="10.00">wxButton * hider</text>
<text text-anchor="start" x="4" y="-463.5" font-family="Helvetica,sans-Serif" font-size="10.00">+</text>
<text text-anchor="start" x="14" y="-463.5" font-family="Helvetica,sans-Serif" font-size="10.00">FlowTagPanel(bool</text>
<text text-anchor="start" x="14" y="-451.5" font-family="Helvetica,sans-Serif" font-size="10.00"> topConstructor=true)</text>
<text text-anchor="start" x="4" y="-435.5" font-family="Helvetica,sans-Serif" font-size="10.00">+</text>
<text text-anchor="start" x="14" y="-435.5" font-family="Helvetica,sans-Serif" font-size="10.00">FlowTagPanel(wxWindow</text>
<text text-anchor="start" x="14" y="-423.5" font-family="Helvetica,sans-Serif" font-size="10.00"> *parentWindow, bool topConstructor=true)</text>
<text text-anchor="start" x="4" y="-407.5" font-family="Helvetica,sans-Serif" font-size="10.00">+</text>
<text text-anchor="start" x="14" y="-407.5" font-family="Helvetica,sans-Serif" font-size="10.00">FlowTagPanel(const</text>
<text text-anchor="start" x="14" y="-395.5" font-family="Helvetica,sans-Serif" font-size="10.00"> FlowTagPanel &amp;toCopy,</text>
<text text-anchor="start" x="14" y="-383.5" font-family="Helvetica,sans-Serif" font-size="10.00"> bool topConstructor=true)</text>
<text text-anchor="start" x="4" y="-367.5" font-family="Helvetica,sans-Serif" font-size="10.00">+</text>
<text text-anchor="start" x="14" y="-367.5" font-family="Helvetica,sans-Serif" font-size="10.00">FlowTagPanel * clone</text>
<text text-anchor="start" x="14" y="-355.5" font-family="Helvetica,sans-Serif" font-size="10.00">() override</text>
<text text-anchor="start" x="4" y="-339.5" font-family="Helvetica,sans-Serif" font-size="10.00">+</text>
<text text-anchor="start" x="14" y="-339.5" font-family="Helvetica,sans-Serif" font-size="10.00">~FlowTagPanel()</text>
<text text-anchor="start" x="4" y="-323.5" font-family="Helvetica,sans-Serif" font-size="10.00">+</text>
<text text-anchor="start" x="14" y="-323.5" font-family="Helvetica,sans-Serif" font-size="10.00">void initChildrenSizer()</text>
<text text-anchor="start" x="4" y="-307.5" font-family="Helvetica,sans-Serif" font-size="10.00">+</text>
<text text-anchor="start" x="14" y="-307.5" font-family="Helvetica,sans-Serif" font-size="10.00">void cloneChildren</text>
<text text-anchor="start" x="14" y="-295.5" font-family="Helvetica,sans-Serif" font-size="10.00">(const FlowTagPanel</text>
<text text-anchor="start" x="14" y="-283.5" font-family="Helvetica,sans-Serif" font-size="10.00"> *toCopy)</text>
<text text-anchor="start" x="4" y="-267.5" font-family="Helvetica,sans-Serif" font-size="10.00">+</text>
<text text-anchor="start" x="14" y="-267.5" font-family="Helvetica,sans-Serif" font-size="10.00">void addComponents</text>
<text text-anchor="start" x="14" y="-255.5" font-family="Helvetica,sans-Serif" font-size="10.00">(TagPanel *tag) override</text>
<text text-anchor="start" x="4" y="-239.5" font-family="Helvetica,sans-Serif" font-size="10.00">+</text>
<text text-anchor="start" x="14" y="-239.5" font-family="Helvetica,sans-Serif" font-size="10.00">void addChild(TagPanel</text>
<text text-anchor="start" x="14" y="-227.5" font-family="Helvetica,sans-Serif" font-size="10.00"> *childrenTag)</text>
<text text-anchor="start" x="4" y="-211.5" font-family="Helvetica,sans-Serif" font-size="10.00">+</text>
<text text-anchor="start" x="14" y="-211.5" font-family="Helvetica,sans-Serif" font-size="10.00">void switchFlowTagVisibility</text>
<text text-anchor="start" x="14" y="-199.5" font-family="Helvetica,sans-Serif" font-size="10.00">(wxMouseEvent &amp;evt)</text>
<text text-anchor="start" x="14" y="-183.5" font-family="Helvetica,sans-Serif" font-size="10.00">and 46 more...</text>
<polygon fill="#666666" stroke="#666666" points="0,-539 0,-539 203.25,-539 203.25,-539 0,-539"/>
<polygon fill="#666666" stroke="#666666" points="0,-475 0,-475 12,-475 12,-475 0,-475"/>
<polygon fill="#666666" stroke="#666666" points="12,-475 12,-475 203.25,-475 203.25,-475 12,-475"/>
<polygon fill="none" stroke="#666666" points="0,-177 0,-557 203.25,-557 203.25,-177 0,-177"/>
</a>
</g>
</g>
<!-- Node2&#45;&gt;Node1 -->
<g id="edge1_Node000001_Node000002" class="edge">
<title>Node2&#45;&gt;Node1</title>
<g id="a_edge1_Node000001_Node000002"><a xlink:title=" ">
<path fill="none" stroke="#63b8ff" d="M101.62,-165.59C101.62,-156.64 101.62,-147.98 101.62,-139.78"/>
<polygon fill="none" stroke="#63b8ff" points="98.13,-165.57 101.63,-175.57 105.13,-165.57 98.13,-165.57"/>
</a>
</g>
</g>
<!-- Node3 -->
<g id="Node000003" class="node">
<title>Node3</title>
<g id="a_Node000003"><a xlink:href="class_tag_panel.html" target="_top" xlink:title=" ">
<polygon fill="white" stroke="none" points="185.38,-1438 9.88,-1438 9.88,-822 185.38,-822 185.38,-1438"/>
<text text-anchor="start" x="77.38" y="-1424.5" font-family="Helvetica,sans-Serif" font-size="10.00">TagPanel</text>
<text text-anchor="start" x="13.88" y="-1408.5" font-family="Helvetica,sans-Serif" font-size="10.00">+</text>
<text text-anchor="start" x="23.88" y="-1408.5" font-family="Helvetica,sans-Serif" font-size="10.00">HoverPosition previousHover</text>
<text text-anchor="start" x="13.88" y="-1392.5" font-family="Helvetica,sans-Serif" font-size="10.00">+</text>
<text text-anchor="start" x="23.88" y="-1392.5" font-family="Helvetica,sans-Serif" font-size="10.00">bool isInserting</text>
<text text-anchor="start" x="13.88" y="-1376.5" font-family="Helvetica,sans-Serif" font-size="10.00">+</text>
<text text-anchor="start" x="23.88" y="-1376.5" font-family="Helvetica,sans-Serif" font-size="10.00">bool isHovering</text>
<text text-anchor="start" x="14.25" y="-1360.5" font-family="Helvetica,sans-Serif" font-size="10.00">#</text>
<text text-anchor="start" x="23.88" y="-1360.5" font-family="Helvetica,sans-Serif" font-size="10.00">wxButton * cloneButton</text>
<text text-anchor="start" x="14.25" y="-1344.5" font-family="Helvetica,sans-Serif" font-size="10.00">#</text>
<text text-anchor="start" x="23.88" y="-1344.5" font-family="Helvetica,sans-Serif" font-size="10.00">wxButton * cutButton</text>
<text text-anchor="start" x="14.25" y="-1328.5" font-family="Helvetica,sans-Serif" font-size="10.00">#</text>
<text text-anchor="start" x="23.88" y="-1328.5" font-family="Helvetica,sans-Serif" font-size="10.00">wxButton * moveUpButton</text>
<text text-anchor="start" x="14.25" y="-1312.5" font-family="Helvetica,sans-Serif" font-size="10.00">#</text>
<text text-anchor="start" x="23.88" y="-1312.5" font-family="Helvetica,sans-Serif" font-size="10.00">wxButton * moveDownButton</text>
<text text-anchor="start" x="14.25" y="-1296.5" font-family="Helvetica,sans-Serif" font-size="10.00">#</text>
<text text-anchor="start" x="23.88" y="-1296.5" font-family="Helvetica,sans-Serif" font-size="10.00">wxButton * deleteButton</text>
<text text-anchor="start" x="14.25" y="-1280.5" font-family="Helvetica,sans-Serif" font-size="10.00">#</text>
<text text-anchor="start" x="23.88" y="-1280.5" font-family="Helvetica,sans-Serif" font-size="10.00">wxPoint insertPoint</text>
<text text-anchor="start" x="14.25" y="-1264.5" font-family="Helvetica,sans-Serif" font-size="10.00">#</text>
<text text-anchor="start" x="23.88" y="-1264.5" font-family="Helvetica,sans-Serif" font-size="10.00">wxSize insertRect</text>
<text text-anchor="start" x="14.25" y="-1248.5" font-family="Helvetica,sans-Serif" font-size="10.00">#</text>
<text text-anchor="start" x="23.88" y="-1248.5" font-family="Helvetica,sans-Serif" font-size="10.00">wxColour panelColor</text>
<text text-anchor="start" x="14.25" y="-1232.5" font-family="Helvetica,sans-Serif" font-size="10.00">#</text>
<text text-anchor="start" x="23.88" y="-1232.5" font-family="Helvetica,sans-Serif" font-size="10.00">wxColour tagNameColor</text>
<text text-anchor="start" x="14.25" y="-1216.5" font-family="Helvetica,sans-Serif" font-size="10.00">#</text>
<text text-anchor="start" x="23.88" y="-1216.5" font-family="Helvetica,sans-Serif" font-size="10.00">wxString tagName</text>
<text text-anchor="start" x="23.88" y="-1200.5" font-family="Helvetica,sans-Serif" font-size="10.00">and 8 more...</text>
<text text-anchor="start" x="13.88" y="-1184.5" font-family="Helvetica,sans-Serif" font-size="10.00">+</text>
<text text-anchor="start" x="23.88" y="-1184.5" font-family="Helvetica,sans-Serif" font-size="10.00">TagPanel(bool topConstructor</text>
<text text-anchor="start" x="23.88" y="-1172.5" font-family="Helvetica,sans-Serif" font-size="10.00">=true)</text>
<text text-anchor="start" x="13.88" y="-1156.5" font-family="Helvetica,sans-Serif" font-size="10.00">+</text>
<text text-anchor="start" x="23.88" y="-1156.5" font-family="Helvetica,sans-Serif" font-size="10.00">TagPanel(wxWindow</text>
<text text-anchor="start" x="23.88" y="-1144.5" font-family="Helvetica,sans-Serif" font-size="10.00"> *parentWindow, bool</text>
<text text-anchor="start" x="23.88" y="-1132.5" font-family="Helvetica,sans-Serif" font-size="10.00"> topConstructor=true)</text>
<text text-anchor="start" x="13.88" y="-1116.5" font-family="Helvetica,sans-Serif" font-size="10.00">+</text>
<text text-anchor="start" x="23.88" y="-1116.5" font-family="Helvetica,sans-Serif" font-size="10.00">TagPanel(const TagPanel</text>
<text text-anchor="start" x="23.88" y="-1104.5" font-family="Helvetica,sans-Serif" font-size="10.00"> &amp;toCopy, bool topConstructor=true)</text>
<text text-anchor="start" x="13.88" y="-1088.5" font-family="Helvetica,sans-Serif" font-size="10.00">+</text>
<text text-anchor="start" x="23.88" y="-1088.5" font-family="Helvetica,sans-Serif" font-size="10.00">virtual TagPanel *</text>
<text text-anchor="start" x="23.88" y="-1076.5" font-family="Helvetica,sans-Serif" font-size="10.00"> clone()</text>
<text text-anchor="start" x="13.88" y="-1060.5" font-family="Helvetica,sans-Serif" font-size="10.00">+</text>
<text text-anchor="start" x="23.88" y="-1060.5" font-family="Helvetica,sans-Serif" font-size="10.00">virtual int getTagHeight()</text>
<text text-anchor="start" x="13.88" y="-1044.5" font-family="Helvetica,sans-Serif" font-size="10.00">+</text>
<text text-anchor="start" x="23.88" y="-1044.5" font-family="Helvetica,sans-Serif" font-size="10.00">virtual void setTagName()</text>
<text text-anchor="start" x="13.88" y="-1028.5" font-family="Helvetica,sans-Serif" font-size="10.00">+</text>
<text text-anchor="start" x="23.88" y="-1028.5" font-family="Helvetica,sans-Serif" font-size="10.00">void setTagNameCustom</text>
<text text-anchor="start" x="23.88" y="-1016.5" font-family="Helvetica,sans-Serif" font-size="10.00">(const std::string &amp;name)</text>
<text text-anchor="start" x="13.88" y="-1000.5" font-family="Helvetica,sans-Serif" font-size="10.00">+</text>
<text text-anchor="start" x="23.88" y="-1000.5" font-family="Helvetica,sans-Serif" font-size="10.00">virtual void setTagLine()</text>
<text text-anchor="start" x="13.88" y="-984.5" font-family="Helvetica,sans-Serif" font-size="10.00">+</text>
<text text-anchor="start" x="23.88" y="-984.5" font-family="Helvetica,sans-Serif" font-size="10.00">virtual void setColors()</text>
<text text-anchor="start" x="13.88" y="-968.5" font-family="Helvetica,sans-Serif" font-size="10.00">+</text>
<text text-anchor="start" x="23.88" y="-968.5" font-family="Helvetica,sans-Serif" font-size="10.00">void initLineSizer()</text>
<text text-anchor="start" x="23.88" y="-952.5" font-family="Helvetica,sans-Serif" font-size="10.00">and 41 more...</text>
<text text-anchor="start" x="13.88" y="-936.5" font-family="Helvetica,sans-Serif" font-size="10.00">+</text>
<text text-anchor="start" x="23.88" y="-936.5" font-family="Helvetica,sans-Serif" font-size="10.00">static int getIndexOf</text>
<text text-anchor="start" x="23.88" y="-924.5" font-family="Helvetica,sans-Serif" font-size="10.00">(wxSizer *sizer, wxSizerItem</text>
<text text-anchor="start" x="23.88" y="-912.5" font-family="Helvetica,sans-Serif" font-size="10.00"> *item)</text>
<text text-anchor="start" x="13.88" y="-896.5" font-family="Helvetica,sans-Serif" font-size="10.00">+</text>
<text text-anchor="start" x="23.88" y="-896.5" font-family="Helvetica,sans-Serif" font-size="10.00">static void init(TagPanel</text>
<text text-anchor="start" x="23.88" y="-884.5" font-family="Helvetica,sans-Serif" font-size="10.00"> *tag)</text>
<text text-anchor="start" x="13.88" y="-868.5" font-family="Helvetica,sans-Serif" font-size="10.00">+</text>
<text text-anchor="start" x="23.88" y="-868.5" font-family="Helvetica,sans-Serif" font-size="10.00">static bool isTagPanel</text>
<text text-anchor="start" x="23.88" y="-856.5" font-family="Helvetica,sans-Serif" font-size="10.00">(wxWindow *window)</text>
<text text-anchor="start" x="13.88" y="-840.5" font-family="Helvetica,sans-Serif" font-size="10.00">+</text>
<text text-anchor="start" x="23.88" y="-840.5" font-family="Helvetica,sans-Serif" font-size="10.00">static TagPanel * getTag</text>
<text text-anchor="start" x="23.88" y="-828.5" font-family="Helvetica,sans-Serif" font-size="10.00">Panel(wxWindow *window)</text>
<polygon fill="#666666" stroke="#666666" points="9.88,-1420 9.88,-1420 185.38,-1420 185.38,-1420 9.88,-1420"/>
<polygon fill="#666666" stroke="#666666" points="9.88,-1196 9.88,-1196 21.88,-1196 21.88,-1196 9.88,-1196"/>
<polygon fill="#666666" stroke="#666666" points="21.88,-1196 21.88,-1196 185.38,-1196 185.38,-1196 21.88,-1196"/>
<polygon fill="none" stroke="#666666" points="9.88,-822 9.88,-1438 185.38,-1438 185.38,-822 9.88,-822"/>
</a>
</g>
</g>
<!-- Node3&#45;&gt;Node2 -->
<g id="edge2_Node000002_Node000003" class="edge">
<title>Node3&#45;&gt;Node2</title>
<g id="a_edge2_Node000002_Node000003"><a xlink:title=" ">
<path fill="none" stroke="#63b8ff" d="M99.3,-810.88C99.75,-724.45 100.23,-633.61 100.63,-556.85"/>
<polygon fill="none" stroke="#63b8ff" points="95.8,-810.68 99.25,-820.7 102.8,-810.72 95.8,-810.68"/>
</a>
</g>
</g>
<!-- Node5 -->
<g id="Node000005" class="node">
<title>Node5</title>
<g id="a_Node000005"><a xlink:href="class_empty_panel.html" target="_top" xlink:title=" ">
<polygon fill="white" stroke="none" points="267.88,-785 113.38,-785 113.38,-605 267.88,-605 267.88,-785"/>
<text text-anchor="start" x="164" y="-771.5" font-family="Helvetica,sans-Serif" font-size="10.00">EmptyPanel</text>
<text text-anchor="start" x="189.12" y="-755.5" font-family="Helvetica,sans-Serif" font-size="10.00"> </text>
<text text-anchor="start" x="117.38" y="-739.5" font-family="Helvetica,sans-Serif" font-size="10.00">+</text>
<text text-anchor="start" x="127.38" y="-739.5" font-family="Helvetica,sans-Serif" font-size="10.00">EmptyPanel(wxWindow</text>
<text text-anchor="start" x="127.38" y="-727.5" font-family="Helvetica,sans-Serif" font-size="10.00"> *parentWindow)</text>
<text text-anchor="start" x="117.38" y="-711.5" font-family="Helvetica,sans-Serif" font-size="10.00">+</text>
<text text-anchor="start" x="127.38" y="-711.5" font-family="Helvetica,sans-Serif" font-size="10.00">EmptyPanel(const EmptyPanel</text>
<text text-anchor="start" x="127.38" y="-699.5" font-family="Helvetica,sans-Serif" font-size="10.00"> &amp;toCopy)</text>
<text text-anchor="start" x="117.38" y="-683.5" font-family="Helvetica,sans-Serif" font-size="10.00">+</text>
<text text-anchor="start" x="127.38" y="-683.5" font-family="Helvetica,sans-Serif" font-size="10.00">EmptyPanel * clone</text>
<text text-anchor="start" x="127.38" y="-671.5" font-family="Helvetica,sans-Serif" font-size="10.00">() override</text>
<text text-anchor="start" x="117.38" y="-655.5" font-family="Helvetica,sans-Serif" font-size="10.00">+</text>
<text text-anchor="start" x="127.38" y="-655.5" font-family="Helvetica,sans-Serif" font-size="10.00">void setTagName() override</text>
<text text-anchor="start" x="117.38" y="-639.5" font-family="Helvetica,sans-Serif" font-size="10.00">+</text>
<text text-anchor="start" x="127.38" y="-639.5" font-family="Helvetica,sans-Serif" font-size="10.00">void setTagLine() override</text>
<text text-anchor="start" x="117.38" y="-623.5" font-family="Helvetica,sans-Serif" font-size="10.00">+</text>
<text text-anchor="start" x="127.38" y="-623.5" font-family="Helvetica,sans-Serif" font-size="10.00">void setPanelColor</text>
<text text-anchor="start" x="127.38" y="-611.5" font-family="Helvetica,sans-Serif" font-size="10.00">() override</text>
<polygon fill="#666666" stroke="#666666" points="113.38,-767 113.38,-767 267.88,-767 267.88,-767 113.38,-767"/>
<polygon fill="#666666" stroke="#666666" points="113.38,-751 113.38,-751 267.88,-751 267.88,-751 113.38,-751"/>
<polygon fill="none" stroke="#666666" points="113.38,-605 113.38,-785 267.88,-785 267.88,-605 113.38,-605"/>
</a>
</g>
</g>
<!-- Node3&#45;&gt;Node5 -->
<g id="edge5_Node000005_Node000003" class="edge">
<title>Node3&#45;&gt;Node5</title>
<g id="a_edge5_Node000005_Node000003"><a xlink:title=" ">
<path fill="none" stroke="#63b8ff" d="M165.93,-810.96C167.87,-801.93 169.75,-793.21 171.54,-784.88"/>
<polygon fill="none" stroke="#63b8ff" points="162.53,-810.12 163.86,-820.63 169.38,-811.59 162.53,-810.12"/>
</a>
</g>
</g>
<!-- Node4 -->
<g id="Node000004" class="node">
<title>Node4</title>
<g id="a_Node000004"><a xlink:title=" ">
<polygon fill="white" stroke="none" points="120.38,-1527 74.88,-1527 74.88,-1475 120.38,-1475 120.38,-1527"/>
<text text-anchor="start" x="78.88" y="-1513.5" font-family="Helvetica,sans-Serif" font-size="10.00">wxPanel</text>
<text text-anchor="start" x="96.12" y="-1497.5" font-family="Helvetica,sans-Serif" font-size="10.00"> </text>
<text text-anchor="start" x="96.12" y="-1481.5" font-family="Helvetica,sans-Serif" font-size="10.00"> </text>
<polygon fill="#666666" stroke="#666666" points="74.88,-1509 74.88,-1509 120.38,-1509 120.38,-1509 74.88,-1509"/>
<polygon fill="#666666" stroke="#666666" points="74.88,-1493 74.88,-1493 120.38,-1493 120.38,-1493 74.88,-1493"/>
<polygon fill="none" stroke="#666666" points="74.88,-1475 74.88,-1527 120.38,-1527 120.38,-1475 74.88,-1475"/>
</a>
</g>
</g>
<!-- Node4&#45;&gt;Node3 -->
<g id="edge3_Node000003_Node000004" class="edge">
<title>Node4&#45;&gt;Node3</title>
<g id="a_edge3_Node000003_Node000004"><a xlink:title=" ">
<path fill="none" stroke="#63b8ff" d="M97.62,-1463.89C97.62,-1456.12 97.62,-1447.33 97.62,-1437.73"/>
<polygon fill="none" stroke="#63b8ff" points="94.13,-1463.7 97.63,-1473.7 101.13,-1463.7 94.13,-1463.7"/>
</a>
</g>
</g>
<!-- Node5&#45;&gt;Node2 -->
<g id="edge4_Node000002_Node000005" class="edge">
<title>Node5&#45;&gt;Node2</title>
<g id="a_edge4_Node000002_Node000005"><a xlink:title=" ">
<path fill="none" stroke="#63b8ff" d="M166.42,-605.35C163.3,-593.9 160,-581.82 156.62,-569.43"/>
<polygon fill="none" stroke="#63b8ff" points="156.61,-569.39 151.17,-564.65 153.44,-557.81 158.88,-562.55 156.61,-569.39"/>
</a>
</g>
<text text-anchor="middle" x="197.17" y="-577.5" font-family="Helvetica,sans-Serif" font-size="10.00" fill="grey"> #emptyTagPanel</text>
</g>
</g>
</svg>

<g id="navigator" transform="translate(0 0)" fill="#404254">
  <rect fill="#f2f5e9" fill-opacity="0.5" stroke="#606060" stroke-width=".5" x="0" y="0" width="60" height="60"/>
  <use id="zoomplus" xlink:href="#zoomPlus" x="17" y="9" onmousedown="handleZoom(evt,'in')"/>
  <use id="zoomminus" xlink:href="#zoomMin" x="42" y="9" onmousedown="handleZoom(evt,'out')"/>
  <use id="reset" xlink:href="#resetDef" x="30" y="36" onmousedown="handleReset()"/>
   <use id="arrowup" xlink:href="#arrowUp" x="0" y="0" onmousedown="handlePan(0,-1)"/>
  <use id="arrowright" xlink:href="#arrowRight" x="0" y="0" onmousedown="handlePan(1,0)"/>
  <use id="arrowdown" xlink:href="#arrowDown" x="0" y="0" onmousedown="handlePan(0,1)"/>
  <use id="arrowleft" xlink:href="#arrowLeft" x="0" y="0" onmousedown="handlePan(-1,0)"/>
</g>
<svg viewBox="0 0 15 15" width="100%" height="30px" preserveAspectRatio="xMaxYMin meet">
 <g id="arrow_out" transform="scale(0.3 0.3)">
  <a xlink:href="class_main_tag_panel__coll__graph_org.svg" target="_base">
   <rect id="button" ry="5" rx="5" y="6" x="6" height="38" width="38"
        fill="#f2f5e9" fill-opacity="0.5" stroke="#606060" stroke-width="1.0"/>
   <path id="arrow"
     d="M 11.500037,31.436501 C 11.940474,20.09759 22.043105,11.32322 32.158766,21.979434 L 37.068811,17.246167 C 37.068811,17.246167 37.088388,32 37.088388,32 L 22.160133,31.978069 C 22.160133,31.978069 26.997745,27.140456 26.997745,27.140456 C 18.528582,18.264221 13.291696,25.230495 11.500037,31.436501 z"
     style="fill:#404040;"/>
  </a>
 </g>
</svg>

<style type='text/css'>
<![CDATA[
[data-mouse-over-selected='false'] { opacity: 0.7; }
[data-mouse-over-selected='true']  { opacity: 1.0; }
]]>
</style>
<script type="application/ecmascript"><![CDATA[
document.addEventListener('DOMContentLoaded', (event) => {
  highlightEdges();
  highlightAdjacentNodes();
});
]]></script>
</svg>
