<?xml version="1.0" encoding="UTF-8" standalone="no"?>
<!DOCTYPE svg PUBLIC "-//W3C//DTD SVG 1.1//EN"
 "http://www.w3.org/Graphics/SVG/1.1/DTD/svg11.dtd">
<!-- Generated by graphviz version 12.2.0 (20241103.1931)
 -->
<!-- Title: BotConfig::readDataBluestacks Pages: 1 -->
<!--zoomable 160 -->

<svg id="main" version="1.1" xmlns="http://www.w3.org/2000/svg" xmlns:xlink="http://www.w3.org/1999/xlink" xml:space="preserve" onload="init(evt)">

<style type="text/css"><![CDATA[
.node, .edge {opacity: 0.7;}
.node.selected, .edge.selected {opacity: 1;}
.edge:hover path { stroke: red; }
.edge:hover polygon { stroke: red; fill: red; }
]]></style>

<defs>
  <circle id="rim" cx="0" cy="0" r="7"/>
  <circle id="rim2" cx="0" cy="0" r="3.5"/>
  <g id="zoomPlus">
    <use xlink:href="#rim" fill="#404040"><set attributeName="fill" to="#808080" begin="zoomplus.mouseover" end="zoomplus.mouseout"/></use>
    <path d="M-4,0h8M0,-4v8" fill="none" stroke="white" stroke-width="1.5" pointer-events="none"/>
  </g>
  <g id="zoomMin">
    <use xlink:href="#rim" fill="#404040"><set attributeName="fill" to="#808080" begin="zoomminus.mouseover" end="zoomminus.mouseout"/></use>
    <path d="M-4,0h8" fill="none" stroke="white" stroke-width="1.5" pointer-events="none"/>
  </g>
  <g id="arrowUp" transform="translate(30 24)">
    <use xlink:href="#rim"/>
    <path pointer-events="none" fill="none" stroke="white" stroke-width="1.5" d="M0,-3.0v7 M-2.5,-0.5L0,-3.0L2.5,-0.5"/>
  </g>
  <g id="arrowRight" transform="rotate(90) translate(36 -43)">
    <use xlink:href="#rim"/>
    <path pointer-events="none" fill="none" stroke="white" stroke-width="1.5" d="M0,-3.0v7 M-2.5,-0.5L0,-3.0L2.5,-0.5"/>
  </g>
  <g id="arrowDown" transform="rotate(180) translate(-30 -48)">
    <use xlink:href="#rim"/>
    <path pointer-events="none" fill="none" stroke="white" stroke-width="1.5" d="M0,-3.0v7 M-2.5,-0.5L0,-3.0L2.5,-0.5"/>
  </g>
  <g id="arrowLeft" transform="rotate(270) translate(-36 17)">
    <use xlink:href="#rim"/>
    <path pointer-events="none" fill="none" stroke="white" stroke-width="1.5" d="M0,-3.0v7 M-2.5,-0.5L0,-3.0L2.5,-0.5"/>
  </g>
  <g id="resetDef">
    <use xlink:href="#rim2" fill="#404040"><set attributeName="fill" to="#808080" begin="reset.mouseover" end="reset.mouseout"/></use>
  </g>
</defs>
<script type="application/ecmascript">
var viewWidth = 1261;
var viewHeight = 160;
var sectionId = 'dynsection-39';
</script>
<script type="application/ecmascript" xlink:href="svg.min.js"/>
<svg id="graph" class="graph">
<g id="viewport">
<title>BotConfig::readDataBluestacks</title>
<!-- Node1 -->
<g id="Node000001" class="node">
<title>Node1</title>
<g id="a_Node000001"><a xlink:title=" ">
<polygon fill="#999999" stroke="#666666" points="154,-58 0,-58 0,-38 154,-38 154,-58"/>
<text text-anchor="middle" x="77" y="-44.5" font-family="Helvetica,sans-Serif" font-size="10.00">BotConfig::readDataBluestacks</text>
</a>
</g>
</g>
<!-- Node2 -->
<g id="Node000002" class="node">
<title>Node2</title>
<g id="a_Node000002"><a xlink:href="class_bot_config.html#a5aafe893fa75e1b711e3ef3f4e4db9cc" target="_top" xlink:title=" ">
<polygon fill="white" stroke="#666666" points="324.5,-58 190,-58 190,-38 324.5,-38 324.5,-58"/>
<text text-anchor="middle" x="257.25" y="-44.5" font-family="Helvetica,sans-Serif" font-size="10.00">BotConfig::readBoolBotFile</text>
</a>
</g>
</g>
<!-- Node1&#45;&gt;Node2 -->
<g id="edge1_Node000001_Node000002" class="edge">
<title>Node1&#45;&gt;Node2</title>
<g id="a_edge1_Node000001_Node000002"><a xlink:title=" ">
<path fill="none" stroke="#63b8ff" d="M154.37,-48C162.24,-48 170.25,-48 178.14,-48"/>
<polygon fill="#63b8ff" stroke="#63b8ff" points="178.08,-51.5 188.08,-48 178.08,-44.5 178.08,-51.5"/>
</a>
</g>
</g>
<!-- Node3 -->
<g id="Node000003" class="node">
<title>Node3</title>
<g id="a_Node000003"><a xlink:href="class_bot_config.html#a459cd36b6c6f36f9bd73ff207e2fe5ec" target="_top" xlink:title=" ">
<polygon fill="white" stroke="#666666" points="464.25,-58 360.5,-58 360.5,-38 464.25,-38 464.25,-58"/>
<text text-anchor="middle" x="412.38" y="-44.5" font-family="Helvetica,sans-Serif" font-size="10.00">BotConfig::readBool</text>
</a>
</g>
</g>
<!-- Node2&#45;&gt;Node3 -->
<g id="edge2_Node000002_Node000003" class="edge">
<title>Node2&#45;&gt;Node3</title>
<g id="a_edge2_Node000002_Node000003"><a xlink:title=" ">
<path fill="none" stroke="#63b8ff" d="M324.97,-48C332.87,-48 340.92,-48 348.77,-48"/>
<polygon fill="#63b8ff" stroke="#63b8ff" points="348.56,-51.5 358.56,-48 348.56,-44.5 348.56,-51.5"/>
</a>
</g>
</g>
<!-- Node4 -->
<g id="Node000004" class="node">
<title>Node4</title>
<g id="a_Node000004"><a xlink:href="class_bot_config.html#a623d05e4d8e0122d35b1a3e391fc2464" target="_top" xlink:title=" ">
<polygon fill="white" stroke="#666666" points="610,-58 500.25,-58 500.25,-38 610,-38 610,-58"/>
<text text-anchor="middle" x="555.12" y="-44.5" font-family="Helvetica,sans-Serif" font-size="10.00">BotConfig::readString</text>
</a>
</g>
</g>
<!-- Node3&#45;&gt;Node4 -->
<g id="edge3_Node000003_Node000004" class="edge">
<title>Node3&#45;&gt;Node4</title>
<g id="a_edge3_Node000003_Node000004"><a xlink:title=" ">
<path fill="none" stroke="#63b8ff" d="M464.59,-48C472.39,-48 480.53,-48 488.58,-48"/>
<polygon fill="#63b8ff" stroke="#63b8ff" points="488.36,-51.5 498.36,-48 488.36,-44.5 488.36,-51.5"/>
</a>
</g>
</g>
<!-- Node5 -->
<g id="Node000005" class="node">
<title>Node5</title>
<g id="a_Node000005"><a xlink:href="_text_manager_8cpp.html#a85a282af68cca7cf7d69487d1bacdc47" target="_top" xlink:title=" ">
<polygon fill="white" stroke="#666666" points="864.38,-96 780.12,-96 780.12,-76 864.38,-76 864.38,-96"/>
<text text-anchor="middle" x="822.25" y="-82.5" font-family="Helvetica,sans-Serif" font-size="10.00">extractBetween</text>
</a>
</g>
</g>
<!-- Node4&#45;&gt;Node5 -->
<g id="edge4_Node000004_Node000005" class="edge">
<title>Node4&#45;&gt;Node5</title>
<g id="a_edge4_Node000004_Node000005"><a xlink:title=" ">
<path fill="none" stroke="#63b8ff" d="M601.22,-58.46C615.49,-61.52 631.35,-64.66 646,-67 686.86,-73.52 733.45,-78.45 768.32,-81.66"/>
<polygon fill="#63b8ff" stroke="#63b8ff" points="767.88,-85.13 778.16,-82.54 768.51,-78.16 767.88,-85.13"/>
</a>
</g>
</g>
<!-- Node11 -->
<g id="Node000011" class="node">
<title>Node11</title>
<g id="a_Node000011"><a xlink:href="_text_manager_8cpp.html#add36cc54cd9616a393a17b8961491477" target="_top" xlink:title=" ">
<polygon fill="white" stroke="#666666" points="725.75,-20 646,-20 646,0 725.75,0 725.75,-20"/>
<text text-anchor="middle" x="685.88" y="-6.5" font-family="Helvetica,sans-Serif" font-size="10.00">getFileContent</text>
</a>
</g>
</g>
<!-- Node4&#45;&gt;Node11 -->
<g id="edge13_Node000004_Node000011" class="edge">
<title>Node4&#45;&gt;Node11</title>
<g id="a_edge13_Node000004_Node000011"><a xlink:title=" ">
<path fill="none" stroke="#63b8ff" d="M591.65,-37.52C606.14,-33.24 623.1,-28.23 638.54,-23.67"/>
<polygon fill="#63b8ff" stroke="#63b8ff" points="639.42,-27.07 648.02,-20.88 637.44,-20.35 639.42,-27.07"/>
</a>
</g>
</g>
<!-- Node12 -->
<g id="Node000012" class="node">
<title>Node12</title>
<g id="a_Node000012"><a xlink:href="_text_manager_8cpp.html#af24bee60aa1d3d5b4ae3bf6ebd267ecd" target="_top" xlink:title=" ">
<polygon fill="white" stroke="#666666" points="709.62,-58 662.12,-58 662.12,-38 709.62,-38 709.62,-58"/>
<text text-anchor="middle" x="685.88" y="-44.5" font-family="Helvetica,sans-Serif" font-size="10.00">getLine</text>
</a>
</g>
</g>
<!-- Node4&#45;&gt;Node12 -->
<g id="edge14_Node000004_Node000012" class="edge">
<title>Node4&#45;&gt;Node12</title>
<g id="a_edge14_Node000004_Node000012"><a xlink:title=" ">
<path fill="none" stroke="#63b8ff" d="M610.35,-48C624,-48 638.27,-48 650.62,-48"/>
<polygon fill="#63b8ff" stroke="#63b8ff" points="650.29,-51.5 660.29,-48 650.29,-44.5 650.29,-51.5"/>
</a>
</g>
</g>
<!-- Node6 -->
<g id="Node000006" class="node">
<title>Node6</title>
<g id="a_Node000006"><a xlink:href="_text_manager_8cpp.html#a6956d58559ef67f422247fdeb1c22775" target="_top" xlink:title=" ">
<polygon fill="white" stroke="#666666" points="998.5,-96 922.5,-96 922.5,-76 998.5,-76 998.5,-96"/>
<text text-anchor="middle" x="960.5" y="-82.5" font-family="Helvetica,sans-Serif" font-size="10.00">getStringAfter</text>
</a>
</g>
</g>
<!-- Node5&#45;&gt;Node6 -->
<g id="edge5_Node000005_Node000006" class="edge">
<title>Node5&#45;&gt;Node6</title>
<g id="a_edge5_Node000005_Node000006"><a xlink:title=" ">
<path fill="none" stroke="#63b8ff" d="M864.87,-86C879.46,-86 895.98,-86 911.08,-86"/>
<polygon fill="#63b8ff" stroke="#63b8ff" points="910.78,-89.5 920.78,-86 910.78,-82.5 910.78,-89.5"/>
</a>
</g>
</g>
<!-- Node10 -->
<g id="Node000010" class="node">
<title>Node10</title>
<g id="a_Node000010"><a xlink:href="_text_manager_8cpp.html#aff8311b88dbf5f3091f3ac1262543242" target="_top" xlink:title=" ">
<polygon fill="white" stroke="#666666" points="1002.25,-58 918.75,-58 918.75,-38 1002.25,-38 1002.25,-58"/>
<text text-anchor="middle" x="960.5" y="-44.5" font-family="Helvetica,sans-Serif" font-size="10.00">getStringBefore</text>
</a>
</g>
</g>
<!-- Node5&#45;&gt;Node10 -->
<g id="edge11_Node000005_Node000010" class="edge">
<title>Node5&#45;&gt;Node10</title>
<g id="a_edge11_Node000005_Node000010"><a xlink:title=" ">
<path fill="none" stroke="#63b8ff" d="M860.84,-75.52C876.33,-71.2 894.47,-66.14 910.95,-61.54"/>
<polygon fill="#63b8ff" stroke="#63b8ff" points="911.88,-64.91 920.57,-58.86 910,-58.17 911.88,-64.91"/>
</a>
</g>
</g>
<!-- Node7 -->
<g id="Node000007" class="node">
<title>Node7</title>
<g id="a_Node000007"><a xlink:href="_text_manager_8cpp.html#a5b66873abcff2faee361721f86b65dd0" target="_top" xlink:title=" ">
<polygon fill="white" stroke="#666666" points="1116.5,-96 1048.75,-96 1048.75,-76 1116.5,-76 1116.5,-96"/>
<text text-anchor="middle" x="1082.62" y="-82.5" font-family="Helvetica,sans-Serif" font-size="10.00">getPosAfter</text>
</a>
</g>
</g>
<!-- Node6&#45;&gt;Node7 -->
<g id="edge6_Node000006_Node000007" class="edge">
<title>Node6&#45;&gt;Node7</title>
<g id="a_edge6_Node000006_Node000007"><a xlink:title=" ">
<path fill="none" stroke="#63b8ff" d="M998.85,-86C1010.98,-86 1024.55,-86 1037.15,-86"/>
<polygon fill="#63b8ff" stroke="#63b8ff" points="1036.86,-89.5 1046.86,-86 1036.86,-82.5 1036.86,-89.5"/>
</a>
</g>
</g>
<!-- Node9 -->
<g id="Node000009" class="node">
<title>Node9</title>
<g id="a_Node000009"><a xlink:href="_text_manager_8cpp.html#a2946b90fb3df56b0a74d53eb4160f4e2" target="_top" xlink:title=" ">
<polygon fill="white" stroke="#666666" points="1127,-134 1038.25,-134 1038.25,-114 1127,-114 1127,-134"/>
<text text-anchor="middle" x="1082.62" y="-120.5" font-family="Helvetica,sans-Serif" font-size="10.00">getStringStarting</text>
</a>
</g>
</g>
<!-- Node6&#45;&gt;Node9 -->
<g id="edge8_Node000006_Node000009" class="edge">
<title>Node6&#45;&gt;Node9</title>
<g id="a_edge8_Node000006_Node000009"><a xlink:title=" ">
<path fill="none" stroke="#63b8ff" d="M994.64,-96.48C1008.03,-100.72 1023.68,-105.67 1037.98,-110.19"/>
<polygon fill="#63b8ff" stroke="#63b8ff" points="1036.56,-113.41 1047.15,-113.09 1038.67,-106.74 1036.56,-113.41"/>
</a>
</g>
</g>
<!-- Node8 -->
<g id="Node000008" class="node">
<title>Node8</title>
<g id="a_Node000008"><a xlink:href="_text_manager_8cpp.html#a3f4afb2b62acd297e783a22ffa9a7000" target="_top" xlink:title=" ">
<polygon fill="white" stroke="#666666" points="1253.25,-96 1163,-96 1163,-76 1253.25,-76 1253.25,-96"/>
<text text-anchor="middle" x="1208.12" y="-82.5" font-family="Helvetica,sans-Serif" font-size="10.00">getSequencePos</text>
</a>
</g>
</g>
<!-- Node7&#45;&gt;Node8 -->
<g id="edge7_Node000007_Node000008" class="edge">
<title>Node7&#45;&gt;Node8</title>
<g id="a_edge7_Node000007_Node000008"><a xlink:title=" ">
<path fill="none" stroke="#63b8ff" d="M1116.72,-86C1127.44,-86 1139.64,-86 1151.54,-86"/>
<polygon fill="#63b8ff" stroke="#63b8ff" points="1151.27,-89.5 1161.27,-86 1151.27,-82.5 1151.27,-89.5"/>
</a>
</g>
</g>
<!-- Node9&#45;&gt;Node8 -->
<g id="edge9_Node000009_Node000008" class="edge">
<title>Node9&#45;&gt;Node8</title>
<g id="a_edge9_Node000009_Node000008"><a xlink:title=" ">
<path fill="none" stroke="#63b8ff" d="M1117.7,-113.52C1131.47,-109.28 1147.55,-104.33 1162.25,-99.81"/>
<polygon fill="#63b8ff" stroke="#63b8ff" points="1163.19,-103.18 1171.72,-96.9 1161.13,-96.49 1163.19,-103.18"/>
</a>
</g>
</g>
<!-- Node9&#45;&gt;Node9 -->
<g id="edge10_Node000009_Node000009" class="edge">
<title>Node9&#45;&gt;Node9</title>
<g id="a_edge10_Node000009_Node000009"><a xlink:title=" ">
<path fill="none" stroke="#63b8ff" d="M1063.22,-134.34C1054.93,-142.98 1061.4,-152 1082.62,-152 1094.23,-152 1101.43,-149.3 1104.21,-145.44"/>
<polygon fill="#63b8ff" stroke="#63b8ff" points="1107.68,-144.96 1102.32,-135.82 1100.81,-146.31 1107.68,-144.96"/>
</a>
</g>
</g>
<!-- Node10&#45;&gt;Node8 -->
<g id="edge12_Node000010_Node000008" class="edge">
<title>Node10&#45;&gt;Node8</title>
<g id="a_edge12_Node000010_Node000008"><a xlink:title=" ">
<path fill="none" stroke="#63b8ff" d="M1002.5,-51.34C1036.11,-54.41 1084.84,-59.61 1127,-67 1136.51,-68.67 1146.59,-70.78 1156.26,-72.98"/>
<polygon fill="#63b8ff" stroke="#63b8ff" points="1155.37,-76.37 1165.9,-75.25 1156.97,-69.55 1155.37,-76.37"/>
</a>
</g>
</g>
<!-- Node12&#45;&gt;Node5 -->
<g id="edge15_Node000012_Node000005" class="edge">
<title>Node12&#45;&gt;Node5</title>
<g id="a_edge15_Node000012_Node000005"><a xlink:title=" ">
<path fill="none" stroke="#63b8ff" d="M709.97,-54.53C727.36,-59.45 751.78,-66.36 773.33,-72.45"/>
<polygon fill="#63b8ff" stroke="#63b8ff" points="772.24,-75.78 782.82,-75.13 774.15,-69.04 772.24,-75.78"/>
</a>
</g>
</g>
<!-- Node13 -->
<g id="Node000013" class="node">
<title>Node13</title>
<g id="a_Node000013"><a xlink:href="_text_manager_8cpp.html#a84a9e24fc5cce3cebf746bb656909bf8" target="_top" xlink:title=" ">
<polygon fill="white" stroke="#666666" points="882.75,-58 761.75,-58 761.75,-38 882.75,-38 882.75,-58"/>
<text text-anchor="middle" x="822.25" y="-44.5" font-family="Helvetica,sans-Serif" font-size="10.00">extractBetweenReverse</text>
</a>
</g>
</g>
<!-- Node12&#45;&gt;Node13 -->
<g id="edge16_Node000012_Node000013" class="edge">
<title>Node12&#45;&gt;Node13</title>
<g id="a_edge16_Node000012_Node000013"><a xlink:title=" ">
<path fill="none" stroke="#63b8ff" d="M709.97,-48C721.34,-48 735.71,-48 750.32,-48"/>
<polygon fill="#63b8ff" stroke="#63b8ff" points="749.98,-51.5 759.98,-48 749.98,-44.5 749.98,-51.5"/>
</a>
</g>
</g>
<!-- Node13&#45;&gt;Node6 -->
<g id="edge17_Node000013_Node000006" class="edge">
<title>Node13&#45;&gt;Node6</title>
<g id="a_edge17_Node000013_Node000006"><a xlink:title=" ">
<path fill="none" stroke="#63b8ff" d="M860.84,-58.48C876.33,-62.8 894.47,-67.86 910.95,-72.46"/>
<polygon fill="#63b8ff" stroke="#63b8ff" points="910,-75.83 920.57,-75.14 911.88,-69.09 910,-75.83"/>
</a>
</g>
</g>
<!-- Node13&#45;&gt;Node10 -->
<g id="edge18_Node000013_Node000010" class="edge">
<title>Node13&#45;&gt;Node10</title>
<g id="a_edge18_Node000013_Node000010"><a xlink:title=" ">
<path fill="none" stroke="#63b8ff" d="M883.01,-48C891.08,-48 899.31,-48 907.24,-48"/>
<polygon fill="#63b8ff" stroke="#63b8ff" points="907.07,-51.5 917.07,-48 907.07,-44.5 907.07,-51.5"/>
</a>
</g>
</g>
</g>
</svg>

<g id="navigator" transform="translate(0 0)" fill="#404254">
  <rect fill="#f2f5e9" fill-opacity="0.5" stroke="#606060" stroke-width=".5" x="0" y="0" width="60" height="60"/>
  <use id="zoomplus" xlink:href="#zoomPlus" x="17" y="9" onmousedown="handleZoom(evt,'in')"/>
  <use id="zoomminus" xlink:href="#zoomMin" x="42" y="9" onmousedown="handleZoom(evt,'out')"/>
  <use id="reset" xlink:href="#resetDef" x="30" y="36" onmousedown="handleReset()"/>
   <use id="arrowup" xlink:href="#arrowUp" x="0" y="0" onmousedown="handlePan(0,-1)"/>
  <use id="arrowright" xlink:href="#arrowRight" x="0" y="0" onmousedown="handlePan(1,0)"/>
  <use id="arrowdown" xlink:href="#arrowDown" x="0" y="0" onmousedown="handlePan(0,1)"/>
  <use id="arrowleft" xlink:href="#arrowLeft" x="0" y="0" onmousedown="handlePan(-1,0)"/>
</g>
<svg viewBox="0 0 15 15" width="100%" height="30px" preserveAspectRatio="xMaxYMin meet">
 <g id="arrow_out" transform="scale(0.3 0.3)">
  <a xlink:href="class_bot_config_ad461209f70e41b763999c7453e4529ee_cgraph_org.svg" target="_base">
   <rect id="button" ry="5" rx="5" y="6" x="6" height="38" width="38"
        fill="#f2f5e9" fill-opacity="0.5" stroke="#606060" stroke-width="1.0"/>
   <path id="arrow"
     d="M 11.500037,31.436501 C 11.940474,20.09759 22.043105,11.32322 32.158766,21.979434 L 37.068811,17.246167 C 37.068811,17.246167 37.088388,32 37.088388,32 L 22.160133,31.978069 C 22.160133,31.978069 26.997745,27.140456 26.997745,27.140456 C 18.528582,18.264221 13.291696,25.230495 11.500037,31.436501 z"
     style="fill:#404040;"/>
  </a>
 </g>
</svg>

<style type='text/css'>
<![CDATA[
[data-mouse-over-selected='false'] { opacity: 0.7; }
[data-mouse-over-selected='true']  { opacity: 1.0; }
]]>
</style>
<script type="application/ecmascript"><![CDATA[
document.addEventListener('DOMContentLoaded', (event) => {
  highlightEdges();
  highlightAdjacentNodes();
});
]]></script>
</svg>
