<?xml version="1.0" encoding="UTF-8" standalone="no"?>
<!DOCTYPE svg PUBLIC "-//W3C//DTD SVG 1.1//EN"
 "http://www.w3.org/Graphics/SVG/1.1/DTD/svg11.dtd">
<!-- Generated by graphviz version 12.2.0 (20241103.1931)
 -->
<!-- Title: MainToken::setOverloads Pages: 1 -->
<svg width="424pt" height="40pt"
 viewBox="0.00 0.00 423.50 40.00" xmlns="http://www.w3.org/2000/svg" xmlns:xlink="http://www.w3.org/1999/xlink">
<g id="graph0" class="graph" transform="scale(1 1) rotate(0) translate(4 36)">
<title>MainToken::setOverloads</title>
<!-- Node1 -->
<g id="Node000001" class="node">
<title>Node1</title>
<g id="a_Node000001"><a xlink:title=" ">
<polygon fill="#999999" stroke="#666666" points="127,-26 0,-26 0,-6 127,-6 127,-26"/>
<text text-anchor="middle" x="63.5" y="-12.5" font-family="Helvetica,sans-Serif" font-size="10.00">MainToken::setOverloads</text>
</a>
</g>
</g>
<!-- Node2 -->
<g id="Node000002" class="node">
<title>Node2</title>
<g id="a_Node000002"><a xlink:href="class_arguments_overload.html#a17fba6858e03080178ab2cf098861e5f" target="_top" xlink:title=" ">
<polygon fill="white" stroke="#666666" points="271.25,-32 163,-32 163,0 271.25,0 271.25,-32"/>
<text text-anchor="start" x="171" y="-18.5" font-family="Helvetica,sans-Serif" font-size="10.00">ArgumentsOverload::</text>
<text text-anchor="middle" x="217.12" y="-6.5" font-family="Helvetica,sans-Serif" font-size="10.00">addArgs</text>
</a>
</g>
</g>
<!-- Node1&#45;&gt;Node2 -->
<g id="edge1_Node000001_Node000002" class="edge">
<title>Node1&#45;&gt;Node2</title>
<g id="a_edge1_Node000001_Node000002"><a xlink:title=" ">
<path fill="none" stroke="#63b8ff" d="M127.49,-16C135.36,-16 143.42,-16 151.32,-16"/>
<polygon fill="#63b8ff" stroke="#63b8ff" points="151.22,-19.5 161.22,-16 151.22,-12.5 151.22,-19.5"/>
</a>
</g>
</g>
<!-- Node3 -->
<g id="Node000003" class="node">
<title>Node3</title>
<g id="a_Node000003"><a xlink:href="class_arguments_overload.html#a1dfc9815d235cec325412121bea6b559" target="_top" xlink:title=" ">
<polygon fill="white" stroke="#666666" points="415.5,-32 307.25,-32 307.25,0 415.5,0 415.5,-32"/>
<text text-anchor="start" x="315.25" y="-18.5" font-family="Helvetica,sans-Serif" font-size="10.00">ArgumentsOverload::</text>
<text text-anchor="middle" x="361.38" y="-6.5" font-family="Helvetica,sans-Serif" font-size="10.00">isPresent</text>
</a>
</g>
</g>
<!-- Node2&#45;&gt;Node3 -->
<g id="edge2_Node000002_Node000003" class="edge">
<title>Node2&#45;&gt;Node3</title>
<g id="a_edge2_Node000002_Node000003"><a xlink:title=" ">
<path fill="none" stroke="#63b8ff" d="M271.5,-16C279.43,-16 287.67,-16 295.8,-16"/>
<polygon fill="#63b8ff" stroke="#63b8ff" points="295.66,-19.5 305.66,-16 295.66,-12.5 295.66,-19.5"/>
</a>
</g>
</g>
</g>
</svg>
