<?xml version="1.0" encoding="UTF-8" standalone="no"?>
<!DOCTYPE svg PUBLIC "-//W3C//DTD SVG 1.1//EN"
 "http://www.w3.org/Graphics/SVG/1.1/DTD/svg11.dtd">
<!-- Generated by graphviz version 12.2.0 (20241103.1931)
 -->
<!-- Title: Interactions::fcOneTemplateMultipleTemplateA Pages: 1 -->
<!--zoomable 311 -->

<svg id="main" version="1.1" xmlns="http://www.w3.org/2000/svg" xmlns:xlink="http://www.w3.org/1999/xlink" xml:space="preserve" onload="init(evt)">

<style type="text/css"><![CDATA[
.node, .edge {opacity: 0.7;}
.node.selected, .edge.selected {opacity: 1;}
.edge:hover path { stroke: red; }
.edge:hover polygon { stroke: red; fill: red; }
]]></style>

<defs>
  <circle id="rim" cx="0" cy="0" r="7"/>
  <circle id="rim2" cx="0" cy="0" r="3.5"/>
  <g id="zoomPlus">
    <use xlink:href="#rim" fill="#404040"><set attributeName="fill" to="#808080" begin="zoomplus.mouseover" end="zoomplus.mouseout"/></use>
    <path d="M-4,0h8M0,-4v8" fill="none" stroke="white" stroke-width="1.5" pointer-events="none"/>
  </g>
  <g id="zoomMin">
    <use xlink:href="#rim" fill="#404040"><set attributeName="fill" to="#808080" begin="zoomminus.mouseover" end="zoomminus.mouseout"/></use>
    <path d="M-4,0h8" fill="none" stroke="white" stroke-width="1.5" pointer-events="none"/>
  </g>
  <g id="arrowUp" transform="translate(30 24)">
    <use xlink:href="#rim"/>
    <path pointer-events="none" fill="none" stroke="white" stroke-width="1.5" d="M0,-3.0v7 M-2.5,-0.5L0,-3.0L2.5,-0.5"/>
  </g>
  <g id="arrowRight" transform="rotate(90) translate(36 -43)">
    <use xlink:href="#rim"/>
    <path pointer-events="none" fill="none" stroke="white" stroke-width="1.5" d="M0,-3.0v7 M-2.5,-0.5L0,-3.0L2.5,-0.5"/>
  </g>
  <g id="arrowDown" transform="rotate(180) translate(-30 -48)">
    <use xlink:href="#rim"/>
    <path pointer-events="none" fill="none" stroke="white" stroke-width="1.5" d="M0,-3.0v7 M-2.5,-0.5L0,-3.0L2.5,-0.5"/>
  </g>
  <g id="arrowLeft" transform="rotate(270) translate(-36 17)">
    <use xlink:href="#rim"/>
    <path pointer-events="none" fill="none" stroke="white" stroke-width="1.5" d="M0,-3.0v7 M-2.5,-0.5L0,-3.0L2.5,-0.5"/>
  </g>
  <g id="resetDef">
    <use xlink:href="#rim2" fill="#404040"><set attributeName="fill" to="#808080" begin="reset.mouseover" end="reset.mouseout"/></use>
  </g>
</defs>
<script type="application/ecmascript">
var viewWidth = 1276;
var viewHeight = 311;
var sectionId = 'dynsection-31';
</script>
<script type="application/ecmascript" xlink:href="svg.min.js"/>
<svg id="graph" class="graph">
<g id="viewport">
<title>Interactions::fcOneTemplateMultipleTemplateA</title>
<!-- Node1 -->
<g id="Node000001" class="node">
<title>Node1</title>
<g id="a_Node000001"><a xlink:title=" ">
<polygon fill="#999999" stroke="#666666" points="139,-158 0,-158 0,-126 139,-126 139,-158"/>
<text text-anchor="start" x="8" y="-144.5" font-family="Helvetica,sans-Serif" font-size="10.00">Interactions::fcOneTemplate</text>
<text text-anchor="middle" x="69.5" y="-132.5" font-family="Helvetica,sans-Serif" font-size="10.00">MultipleTemplateA</text>
</a>
</g>
</g>
<!-- Node2 -->
<g id="Node000002" class="node">
<title>Node2</title>
<g id="a_Node000002"><a xlink:href="class_interactions.html#a2b8392d9a1a414b61dca6d6320fd2f79" target="_top" xlink:title=" ">
<polygon fill="white" stroke="#666666" points="308.75,-158 175,-158 175,-126 308.75,-126 308.75,-158"/>
<text text-anchor="start" x="183" y="-144.5" font-family="Helvetica,sans-Serif" font-size="10.00">Interactions::fOneTemplate</text>
<text text-anchor="middle" x="241.88" y="-132.5" font-family="Helvetica,sans-Serif" font-size="10.00">MultipleTemplateA</text>
</a>
</g>
</g>
<!-- Node1&#45;&gt;Node2 -->
<g id="edge1_Node000001_Node000002" class="edge">
<title>Node1&#45;&gt;Node2</title>
<g id="a_edge1_Node000001_Node000002"><a xlink:title=" ">
<path fill="none" stroke="#63b8ff" d="M139.31,-142C147.22,-142 155.32,-142 163.34,-142"/>
<polygon fill="#63b8ff" stroke="#63b8ff" points="163.06,-145.5 173.06,-142 163.06,-138.5 163.06,-145.5"/>
</a>
</g>
</g>
<!-- Node3 -->
<g id="Node000003" class="node">
<title>Node3</title>
<g id="a_Node000003"><a xlink:href="fopencv_8cpp.html#a95c56af5716e2b2d1b4df612796cc229" target="_top" xlink:title=" ">
<polygon fill="white" stroke="#666666" points="808.25,-247 694,-247 694,-227 808.25,-227 808.25,-247"/>
<text text-anchor="middle" x="751.12" y="-233.5" font-family="Helvetica,sans-Serif" font-size="10.00">cvmtfMultipleTemplate</text>
</a>
</g>
</g>
<!-- Node2&#45;&gt;Node3 -->
<g id="edge2_Node000002_Node000003" class="edge">
<title>Node2&#45;&gt;Node3</title>
<g id="a_edge2_Node000002_Node000003"><a xlink:title=" ">
<path fill="none" stroke="#63b8ff" d="M258.34,-158.34C276.88,-176.68 309.85,-205.5 344.75,-218 457.83,-258.5 600.08,-253.48 682.49,-245.61"/>
<polygon fill="#63b8ff" stroke="#63b8ff" points="682.61,-249.12 692.21,-244.64 681.91,-242.15 682.61,-249.12"/>
</a>
</g>
</g>
<!-- Node9 -->
<g id="Node000009" class="node">
<title>Node9</title>
<g id="a_Node000009"><a xlink:href="class_interactions.html#a5b5af2b125ff152043789cfcf70ffb2b" target="_top" xlink:title=" ">
<polygon fill="white" stroke="#666666" points="477.75,-209 351.5,-209 351.5,-189 477.75,-189 477.75,-209"/>
<text text-anchor="middle" x="414.62" y="-195.5" font-family="Helvetica,sans-Serif" font-size="10.00">Interactions::getTemplate</text>
</a>
</g>
</g>
<!-- Node2&#45;&gt;Node9 -->
<g id="edge9_Node000002_Node000009" class="edge">
<title>Node2&#45;&gt;Node9</title>
<g id="a_edge9_Node000002_Node000009"><a xlink:title=" ">
<path fill="none" stroke="#63b8ff" d="M284.22,-158.36C302.62,-165.4 324.64,-173.49 344.75,-180 350.5,-181.86 356.56,-183.7 362.6,-185.47"/>
<polygon fill="#63b8ff" stroke="#63b8ff" points="361.35,-188.75 371.93,-188.12 363.27,-182.02 361.35,-188.75"/>
</a>
</g>
</g>
<!-- Node11 -->
<g id="Node000011" class="node">
<title>Node11</title>
<g id="a_Node000011"><a xlink:href="class_interactions.html#a0a0ffd9ad1990de31fd7b2773db32667" target="_top" xlink:title=" ">
<polygon fill="white" stroke="#666666" points="475.12,-171 354.12,-171 354.12,-151 475.12,-151 475.12,-171"/>
<text text-anchor="middle" x="414.62" y="-157.5" font-family="Helvetica,sans-Serif" font-size="10.00">Interactions::loopPopUp</text>
</a>
</g>
</g>
<!-- Node2&#45;&gt;Node11 -->
<g id="edge11_Node000002_Node000011" class="edge">
<title>Node2&#45;&gt;Node11</title>
<g id="a_edge11_Node000002_Node000011"><a xlink:title=" ">
<path fill="none" stroke="#63b8ff" d="M308.89,-149.35C319.83,-150.56 331.21,-151.83 342.27,-153.06"/>
<polygon fill="#63b8ff" stroke="#63b8ff" points="341.82,-156.53 352.14,-154.16 342.59,-149.57 341.82,-156.53"/>
</a>
</g>
</g>
<!-- Node26 -->
<g id="Node000026" class="node">
<title>Node26</title>
<g id="a_Node000026"><a xlink:href="class_interactions.html#a9947d091de5ba2d09ec925866d231fe1" target="_top" xlink:title=" ">
<polygon fill="white" stroke="#666666" points="484.5,-133 344.75,-133 344.75,-113 484.5,-113 484.5,-133"/>
<text text-anchor="middle" x="414.62" y="-119.5" font-family="Helvetica,sans-Serif" font-size="10.00">Interactions::orderTemplates</text>
</a>
</g>
</g>
<!-- Node2&#45;&gt;Node26 -->
<g id="edge29_Node000002_Node000026" class="edge">
<title>Node2&#45;&gt;Node26</title>
<g id="a_edge29_Node000002_Node000026"><a xlink:title=" ">
<path fill="none" stroke="#63b8ff" d="M308.89,-134.65C316.8,-133.77 324.94,-132.87 333.03,-131.97"/>
<polygon fill="#63b8ff" stroke="#63b8ff" points="333.34,-135.46 342.89,-130.87 332.56,-128.5 333.34,-135.46"/>
</a>
</g>
</g>
<!-- Node27 -->
<g id="Node000027" class="node">
<title>Node27</title>
<g id="a_Node000027"><a xlink:href="class_interactions.html#ade7f52c59105f434650b9358b22e5488" target="_top" xlink:title=" ">
<polygon fill="white" stroke="#666666" points="475.12,-95 354.12,-95 354.12,-75 475.12,-75 475.12,-95"/>
<text text-anchor="middle" x="414.62" y="-81.5" font-family="Helvetica,sans-Serif" font-size="10.00">Interactions::resetCount</text>
</a>
</g>
</g>
<!-- Node2&#45;&gt;Node27 -->
<g id="edge30_Node000002_Node000027" class="edge">
<title>Node2&#45;&gt;Node27</title>
<g id="a_edge30_Node000002_Node000027"><a xlink:title=" ">
<path fill="none" stroke="#63b8ff" d="M284.22,-125.64C302.62,-118.6 324.64,-110.51 344.75,-104 350.5,-102.14 356.56,-100.3 362.6,-98.53"/>
<polygon fill="#63b8ff" stroke="#63b8ff" points="363.27,-101.98 371.93,-95.88 361.35,-95.25 363.27,-101.98"/>
</a>
</g>
</g>
<!-- Node28 -->
<g id="Node000028" class="node">
<title>Node28</title>
<g id="a_Node000028"><a xlink:href="class_interactions.html#ad7daddd9df3cea80e69872b8afd6c8dc" target="_top" xlink:title=" ">
<polygon fill="white" stroke="#666666" points="658,-77 520.5,-77 520.5,-57 658,-57 658,-77"/>
<text text-anchor="middle" x="589.25" y="-63.5" font-family="Helvetica,sans-Serif" font-size="10.00">Interactions::templateFound</text>
</a>
</g>
</g>
<!-- Node2&#45;&gt;Node28 -->
<g id="edge31_Node000002_Node000028" class="edge">
<title>Node2&#45;&gt;Node28</title>
<g id="a_edge31_Node000002_Node000028"><a xlink:title=" ">
<path fill="none" stroke="#63b8ff" d="M257.91,-125.7C276.3,-107.11 309.36,-77.75 344.75,-66 401.14,-47.28 469.01,-49.42 518.76,-55.15"/>
<polygon fill="#63b8ff" stroke="#63b8ff" points="518.18,-58.61 528.54,-56.36 519.04,-51.66 518.18,-58.61"/>
</a>
</g>
</g>
<!-- Node4 -->
<g id="Node000004" class="node">
<title>Node4</title>
<g id="a_Node000004"><a xlink:href="fopencv_8cpp.html#af6fc77188d314c0d5a58888452f9b313" target="_top" xlink:title=" ">
<polygon fill="white" stroke="#666666" points="936.38,-209 868.62,-209 868.62,-189 936.38,-189 936.38,-209"/>
<text text-anchor="middle" x="902.5" y="-195.5" font-family="Helvetica,sans-Serif" font-size="10.00">extractZone</text>
</a>
</g>
</g>
<!-- Node3&#45;&gt;Node4 -->
<g id="edge3_Node000003_Node000004" class="edge">
<title>Node3&#45;&gt;Node4</title>
<g id="a_edge3_Node000003_Node000004"><a xlink:title=" ">
<path fill="none" stroke="#63b8ff" d="M793.34,-226.52C813.21,-221.46 837.07,-215.39 857.32,-210.24"/>
<polygon fill="#63b8ff" stroke="#63b8ff" points="858.16,-213.64 866.98,-207.78 856.43,-206.85 858.16,-213.64"/>
</a>
</g>
</g>
<!-- Node5 -->
<g id="Node000005" class="node">
<title>Node5</title>
<g id="a_Node000005"><a xlink:href="struct_zone.html#a5301e7fcf185a5a79c1bf7d7930f4b8a" target="_top" xlink:title=" ">
<polygon fill="white" stroke="#666666" points="936.75,-247 868.25,-247 868.25,-227 936.75,-227 936.75,-247"/>
<text text-anchor="middle" x="902.5" y="-233.5" font-family="Helvetica,sans-Serif" font-size="10.00">Zone::isNull</text>
</a>
</g>
</g>
<!-- Node3&#45;&gt;Node5 -->
<g id="edge4_Node000003_Node000005" class="edge">
<title>Node3&#45;&gt;Node5</title>
<g id="a_edge4_Node000003_Node000005"><a xlink:title=" ">
<path fill="none" stroke="#63b8ff" d="M808.6,-237C824.53,-237 841.64,-237 856.78,-237"/>
<polygon fill="#63b8ff" stroke="#63b8ff" points="856.41,-240.5 866.41,-237 856.41,-233.5 856.41,-240.5"/>
</a>
</g>
</g>
<!-- Node7 -->
<g id="Node000007" class="node">
<title>Node7</title>
<g id="a_Node000007"><a xlink:href="fopencv_8cpp.html#a7521a083566181475d36ee14aad60f1d" target="_top" xlink:title=" ">
<polygon fill="white" stroke="#666666" points="960.75,-285 844.25,-285 844.25,-265 960.75,-265 960.75,-285"/>
<text text-anchor="middle" x="902.5" y="-271.5" font-family="Helvetica,sans-Serif" font-size="10.00">multipleMatchTemplate</text>
</a>
</g>
</g>
<!-- Node3&#45;&gt;Node7 -->
<g id="edge6_Node000003_Node000007" class="edge">
<title>Node3&#45;&gt;Node7</title>
<g id="a_edge6_Node000003_Node000007"><a xlink:title=" ">
<path fill="none" stroke="#63b8ff" d="M793.34,-247.48C810.64,-251.89 830.97,-257.06 849.31,-261.72"/>
<polygon fill="#63b8ff" stroke="#63b8ff" points="848.4,-265.1 858.95,-264.18 850.13,-258.32 848.4,-265.1"/>
</a>
</g>
</g>
<!-- Node6 -->
<g id="Node000006" class="node">
<title>Node6</title>
<g id="a_Node000006"><a xlink:href="struct_coord.html#a34c573cd6230e5a532f12ae97e7395e2" target="_top" xlink:title=" ">
<polygon fill="white" stroke="#666666" points="1069.75,-247 996.75,-247 996.75,-227 1069.75,-227 1069.75,-247"/>
<text text-anchor="middle" x="1033.25" y="-233.5" font-family="Helvetica,sans-Serif" font-size="10.00">Coord::isNull</text>
</a>
</g>
</g>
<!-- Node5&#45;&gt;Node6 -->
<g id="edge5_Node000005_Node000006" class="edge">
<title>Node5&#45;&gt;Node6</title>
<g id="a_edge5_Node000005_Node000006"><a xlink:title=" ">
<path fill="none" stroke="#63b8ff" d="M936.99,-237C951.74,-237 969.32,-237 985.35,-237"/>
<polygon fill="#63b8ff" stroke="#63b8ff" points="985.16,-240.5 995.16,-237 985.16,-233.5 985.16,-240.5"/>
</a>
</g>
</g>
<!-- Node8 -->
<g id="Node000008" class="node">
<title>Node8</title>
<g id="a_Node000008"><a xlink:href="fopencv_8cpp.html#a6abdcaeee06b3da6f210daf0162bcd01" target="_top" xlink:title=" ">
<polygon fill="white" stroke="#666666" points="1062.62,-285 1003.88,-285 1003.88,-265 1062.62,-265 1062.62,-285"/>
<text text-anchor="middle" x="1033.25" y="-271.5" font-family="Helvetica,sans-Serif" font-size="10.00">intersects</text>
</a>
</g>
</g>
<!-- Node7&#45;&gt;Node8 -->
<g id="edge7_Node000007_Node000008" class="edge">
<title>Node7&#45;&gt;Node8</title>
<g id="a_edge7_Node000007_Node000008"><a xlink:title=" ">
<path fill="none" stroke="#63b8ff" d="M961.1,-275C971.57,-275 982.28,-275 992.11,-275"/>
<polygon fill="#63b8ff" stroke="#63b8ff" points="992.08,-278.5 1002.08,-275 992.08,-271.5 992.08,-278.5"/>
</a>
</g>
</g>
<!-- Node8&#45;&gt;Node8 -->
<g id="edge8_Node000008_Node000008" class="edge">
<title>Node8&#45;&gt;Node8</title>
<g id="a_edge8_Node000008_Node000008"><a xlink:title=" ">
<path fill="none" stroke="#63b8ff" d="M1016.41,-285.34C1009.21,-293.98 1014.82,-303 1033.25,-303 1043.33,-303 1049.57,-300.3 1051.98,-296.44"/>
<polygon fill="#63b8ff" stroke="#63b8ff" points="1055.48,-296.1 1050.35,-286.83 1048.58,-297.28 1055.48,-296.1"/>
</a>
</g>
</g>
<!-- Node10 -->
<g id="Node000010" class="node">
<title>Node10</title>
<g id="a_Node000010"><a xlink:href="struct_template.html#a93d3c6f97592ba09d7819fda3c3296d7" target="_top" xlink:title=" ">
<polygon fill="white" stroke="#666666" points="637.38,-209 541.12,-209 541.12,-189 637.38,-189 637.38,-209"/>
<text text-anchor="middle" x="589.25" y="-195.5" font-family="Helvetica,sans-Serif" font-size="10.00">Template::setType</text>
</a>
</g>
</g>
<!-- Node9&#45;&gt;Node10 -->
<g id="edge10_Node000009_Node000010" class="edge">
<title>Node9&#45;&gt;Node10</title>
<g id="a_edge10_Node000009_Node000010"><a xlink:title=" ">
<path fill="none" stroke="#63b8ff" d="M477.95,-199C494.74,-199 512.85,-199 529.44,-199"/>
<polygon fill="#63b8ff" stroke="#63b8ff" points="529.14,-202.5 539.14,-199 529.14,-195.5 529.14,-202.5"/>
</a>
</g>
</g>
<!-- Node12 -->
<g id="Node000012" class="node">
<title>Node12</title>
<g id="a_Node000012"><a xlink:href="fopencv_8cpp.html#a5c455ed716b7fa4c675446fc5b8ba4fb" target="_top" xlink:title=" ">
<polygon fill="white" stroke="#666666" points="620.12,-171 558.38,-171 558.38,-151 620.12,-151 620.12,-171"/>
<text text-anchor="middle" x="589.25" y="-157.5" font-family="Helvetica,sans-Serif" font-size="10.00">CreateMat</text>
</a>
</g>
</g>
<!-- Node11&#45;&gt;Node12 -->
<g id="edge12_Node000011_Node000012" class="edge">
<title>Node11&#45;&gt;Node12</title>
<g id="a_edge12_Node000011_Node000012"><a xlink:title=" ">
<path fill="none" stroke="#63b8ff" d="M475.52,-161C499.02,-161 525.41,-161 546.74,-161"/>
<polygon fill="#63b8ff" stroke="#63b8ff" points="546.51,-164.5 556.51,-161 546.51,-157.5 546.51,-164.5"/>
</a>
</g>
</g>
<!-- Node13 -->
<g id="Node000013" class="node">
<title>Node13</title>
<g id="a_Node000013"><a xlink:href="class_interactions.html#aed04f9177d2aba467d71818a5e82c7bc" target="_top" xlink:title=" ">
<polygon fill="white" stroke="#666666" points="646.38,-133 532.12,-133 532.12,-113 646.38,-113 646.38,-133"/>
<text text-anchor="middle" x="589.25" y="-119.5" font-family="Helvetica,sans-Serif" font-size="10.00">Interactions::fcpopupA</text>
</a>
</g>
</g>
<!-- Node11&#45;&gt;Node13 -->
<g id="edge13_Node000011_Node000013" class="edge">
<title>Node11&#45;&gt;Node13</title>
<g id="a_edge13_Node000011_Node000013"><a xlink:title=" ">
<path fill="none" stroke="#63b8ff" d="M463.25,-150.52C483.82,-145.99 508.08,-140.65 529.73,-135.88"/>
<polygon fill="#63b8ff" stroke="#63b8ff" points="530.29,-139.34 539.3,-133.78 528.78,-132.51 530.29,-139.34"/>
</a>
</g>
</g>
<!-- Node19 -->
<g id="Node000019" class="node">
<title>Node19</title>
<g id="a_Node000019"><a xlink:href="fadb_8cpp.html#aeec40a5f78ae4713eedd84cb5f75746f" target="_top" xlink:title=" ">
<polygon fill="white" stroke="#666666" points="621.25,-39 557.25,-39 557.25,-19 621.25,-19 621.25,-39"/>
<text text-anchor="middle" x="589.25" y="-25.5" font-family="Helvetica,sans-Serif" font-size="10.00">screenshot</text>
</a>
</g>
</g>
<!-- Node11&#45;&gt;Node19 -->
<g id="edge22_Node000011_Node000019" class="edge">
<title>Node11&#45;&gt;Node19</title>
<g id="a_edge22_Node000011_Node000019"><a xlink:title=" ">
<path fill="none" stroke="#63b8ff" d="M471.8,-150.54C476.41,-148.23 480.73,-145.42 484.5,-142 517.62,-111.93 487.44,-78.14 520.5,-48 527.56,-41.56 536.63,-37.29 545.82,-34.45"/>
<polygon fill="#63b8ff" stroke="#63b8ff" points="546.65,-37.85 555.5,-32.02 544.95,-31.06 546.65,-37.85"/>
</a>
</g>
</g>
<!-- Node14 -->
<g id="Node000014" class="node">
<title>Node14</title>
<g id="a_Node000014"><a xlink:href="class_interactions.html#aae6172962092f278714536142e987cde" target="_top" xlink:title=" ">
<polygon fill="white" stroke="#666666" points="797.75,-77 704.5,-77 704.5,-57 797.75,-57 797.75,-77"/>
<text text-anchor="middle" x="751.12" y="-63.5" font-family="Helvetica,sans-Serif" font-size="10.00">Interactions::click</text>
</a>
</g>
</g>
<!-- Node13&#45;&gt;Node14 -->
<g id="edge14_Node000013_Node000014" class="edge">
<title>Node13&#45;&gt;Node14</title>
<g id="a_edge14_Node000013_Node000014"><a xlink:title=" ">
<path fill="none" stroke="#63b8ff" d="M619.95,-112.6C645.22,-103.75 681.75,-90.95 709.69,-81.16"/>
<polygon fill="#63b8ff" stroke="#63b8ff" points="710.61,-84.55 718.89,-77.94 708.29,-77.94 710.61,-84.55"/>
</a>
</g>
</g>
<!-- Node15 -->
<g id="Node000015" class="node">
<title>Node15</title>
<g id="a_Node000015"><a xlink:href="fopencv_8cpp.html#a69713584f69a121e4ed91918a64448a0" target="_top" xlink:title=" ">
<polygon fill="white" stroke="#666666" points="791.38,-171 710.88,-171 710.88,-151 791.38,-151 791.38,-171"/>
<text text-anchor="middle" x="751.12" y="-157.5" font-family="Helvetica,sans-Serif" font-size="10.00">cvmtfTemplate</text>
</a>
</g>
</g>
<!-- Node13&#45;&gt;Node15 -->
<g id="edge16_Node000013_Node000015" class="edge">
<title>Node13&#45;&gt;Node15</title>
<g id="a_edge16_Node000013_Node000015"><a xlink:title=" ">
<path fill="none" stroke="#63b8ff" d="M634.36,-133.48C654.57,-138.29 678.64,-144.01 699.58,-148.99"/>
<polygon fill="#63b8ff" stroke="#63b8ff" points="698.52,-152.33 709.05,-151.24 700.13,-145.52 698.52,-152.33"/>
</a>
</g>
</g>
<!-- Node18 -->
<g id="Node000018" class="node">
<title>Node18</title>
<g id="a_Node000018"><a xlink:href="class_interactions.html#abd5b5d8a44970e1333e3611e302f166c" target="_top" xlink:title=" ">
<polygon fill="white" stroke="#666666" points="796.62,-133 705.62,-133 705.62,-113 796.62,-113 796.62,-133"/>
<text text-anchor="middle" x="751.12" y="-119.5" font-family="Helvetica,sans-Serif" font-size="10.00">Interactions::wait</text>
</a>
</g>
</g>
<!-- Node13&#45;&gt;Node18 -->
<g id="edge21_Node000013_Node000018" class="edge">
<title>Node13&#45;&gt;Node18</title>
<g id="a_edge21_Node000013_Node000018"><a xlink:title=" ">
<path fill="none" stroke="#63b8ff" d="M646.62,-123C661.95,-123 678.55,-123 693.87,-123"/>
<polygon fill="#63b8ff" stroke="#63b8ff" points="693.79,-126.5 703.79,-123 693.79,-119.5 693.79,-126.5"/>
</a>
</g>
</g>
<!-- Node14&#45;&gt;Node14 -->
<g id="edge15_Node000014_Node000014" class="edge">
<title>Node14&#45;&gt;Node14</title>
<g id="a_edge15_Node000014_Node000014"><a xlink:title=" ">
<path fill="none" stroke="#63b8ff" d="M727.07,-77.34C716.79,-85.98 724.81,-95 751.12,-95 765.52,-95 774.43,-92.3 777.88,-88.44"/>
<polygon fill="#63b8ff" stroke="#63b8ff" points="781.3,-87.7 775.53,-78.81 774.5,-89.35 781.3,-87.7"/>
</a>
</g>
</g>
<!-- Node15&#45;&gt;Node4 -->
<g id="edge17_Node000015_Node000004" class="edge">
<title>Node15&#45;&gt;Node4</title>
<g id="a_edge17_Node000015_Node000004"><a xlink:title=" ">
<path fill="none" stroke="#63b8ff" d="M791.76,-171.08C811.89,-176.2 836.41,-182.44 857.16,-187.72"/>
<polygon fill="#63b8ff" stroke="#63b8ff" points="856.23,-191.1 866.79,-190.17 857.96,-184.31 856.23,-191.1"/>
</a>
</g>
</g>
<!-- Node15&#45;&gt;Node5 -->
<g id="edge18_Node000015_Node000005" class="edge">
<title>Node15&#45;&gt;Node5</title>
<g id="a_edge18_Node000015_Node000005"><a xlink:title=" ">
<path fill="none" stroke="#63b8ff" d="M766.52,-171.39C784.16,-183.77 815.28,-204.46 844.25,-218 848.47,-219.97 852.94,-221.83 857.46,-223.56"/>
<polygon fill="#63b8ff" stroke="#63b8ff" points="855.97,-226.74 866.56,-226.82 858.34,-220.15 855.97,-226.74"/>
</a>
</g>
</g>
<!-- Node16 -->
<g id="Node000016" class="node">
<title>Node16</title>
<g id="a_Node000016"><a xlink:href="fopencv_8cpp.html#a1ed1ff1a9df2ab889e1423cb11a58c06" target="_top" xlink:title=" ">
<polygon fill="white" stroke="#666666" points="943.88,-171 861.12,-171 861.12,-151 943.88,-151 943.88,-171"/>
<text text-anchor="middle" x="902.5" y="-157.5" font-family="Helvetica,sans-Serif" font-size="10.00">messageFound</text>
</a>
</g>
</g>
<!-- Node15&#45;&gt;Node16 -->
<g id="edge19_Node000015_Node000016" class="edge">
<title>Node15&#45;&gt;Node16</title>
<g id="a_edge19_Node000015_Node000016"><a xlink:title=" ">
<path fill="none" stroke="#63b8ff" d="M791.76,-161C809.37,-161 830.34,-161 849.21,-161"/>
<polygon fill="#63b8ff" stroke="#63b8ff" points="849.12,-164.5 859.12,-161 849.12,-157.5 849.12,-164.5"/>
</a>
</g>
</g>
<!-- Node17 -->
<g id="Node000017" class="node">
<title>Node17</title>
<g id="a_Node000017"><a xlink:href="fopencv_8cpp.html#ae51fd1f3ed39bd8c9b8da4a313d5aeb3" target="_top" xlink:title=" ">
<polygon fill="white" stroke="#666666" points="951.75,-133 853.25,-133 853.25,-113 951.75,-113 951.75,-133"/>
<text text-anchor="middle" x="902.5" y="-119.5" font-family="Helvetica,sans-Serif" font-size="10.00">oneMatchTemplate</text>
</a>
</g>
</g>
<!-- Node15&#45;&gt;Node17 -->
<g id="edge20_Node000015_Node000017" class="edge">
<title>Node15&#45;&gt;Node17</title>
<g id="a_edge20_Node000015_Node000017"><a xlink:title=" ">
<path fill="none" stroke="#63b8ff" d="M791.76,-150.92C809.38,-146.43 830.37,-141.1 849.24,-136.29"/>
<polygon fill="#63b8ff" stroke="#63b8ff" points="850.08,-139.69 858.91,-133.84 848.35,-132.91 850.08,-139.69"/>
</a>
</g>
</g>
<!-- Node20 -->
<g id="Node000020" class="node">
<title>Node20</title>
<g id="a_Node000020"><a xlink:href="fadb_8cpp.html#a7ab9819839864ebd26d0e7e68e330418" target="_top" xlink:title=" ">
<polygon fill="white" stroke="#666666" points="793.25,-39 709,-39 709,-19 793.25,-19 793.25,-39"/>
<text text-anchor="middle" x="751.12" y="-25.5" font-family="Helvetica,sans-Serif" font-size="10.00">takeScreenshot</text>
</a>
</g>
</g>
<!-- Node19&#45;&gt;Node20 -->
<g id="edge23_Node000019_Node000020" class="edge">
<title>Node19&#45;&gt;Node20</title>
<g id="a_edge23_Node000019_Node000020"><a xlink:title=" ">
<path fill="none" stroke="#63b8ff" d="M621.46,-29C643.05,-29 672.31,-29 697.47,-29"/>
<polygon fill="#63b8ff" stroke="#63b8ff" points="697.19,-32.5 707.19,-29 697.19,-25.5 697.19,-32.5"/>
</a>
</g>
</g>
<!-- Node21 -->
<g id="Node000021" class="node">
<title>Node21</title>
<g id="a_Node000021"><a xlink:href="fadb_8cpp.html#ac6339b59ba8238f7483dece7f3fdf51b" target="_top" xlink:title=" ">
<polygon fill="white" stroke="#666666" points="946.88,-39 858.12,-39 858.12,-19 946.88,-19 946.88,-39"/>
<text text-anchor="middle" x="902.5" y="-25.5" font-family="Helvetica,sans-Serif" font-size="10.00">runAdbLocalhost</text>
</a>
</g>
</g>
<!-- Node20&#45;&gt;Node21 -->
<g id="edge24_Node000020_Node000021" class="edge">
<title>Node20&#45;&gt;Node21</title>
<g id="a_edge24_Node000020_Node000021"><a xlink:title=" ">
<path fill="none" stroke="#63b8ff" d="M793.73,-29C810.09,-29 829.1,-29 846.56,-29"/>
<polygon fill="#63b8ff" stroke="#63b8ff" points="846.26,-32.5 856.26,-29 846.26,-25.5 846.26,-32.5"/>
</a>
</g>
</g>
<!-- Node22 -->
<g id="Node000022" class="node">
<title>Node22</title>
<g id="a_Node000022"><a xlink:href="fadb_8cpp.html#a383ae5fedc9f597a03c74c729a2eb740" target="_top" xlink:title=" ">
<polygon fill="white" stroke="#666666" points="1056.62,-39 1009.88,-39 1009.88,-19 1056.62,-19 1056.62,-39"/>
<text text-anchor="middle" x="1033.25" y="-25.5" font-family="Helvetica,sans-Serif" font-size="10.00">runAdb</text>
</a>
</g>
</g>
<!-- Node21&#45;&gt;Node22 -->
<g id="edge25_Node000021_Node000022" class="edge">
<title>Node21&#45;&gt;Node22</title>
<g id="a_edge25_Node000021_Node000022"><a xlink:title=" ">
<path fill="none" stroke="#63b8ff" d="M947.09,-29C963.83,-29 982.68,-29 998.37,-29"/>
<polygon fill="#63b8ff" stroke="#63b8ff" points="998.16,-32.5 1008.16,-29 998.16,-25.5 998.16,-32.5"/>
</a>
</g>
</g>
<!-- Node23 -->
<g id="Node000023" class="node">
<title>Node23</title>
<g id="a_Node000023"><a xlink:href="sys_commands_8cpp.html#a321eb7e335377aa7182bafc8a1605032" target="_top" xlink:title=" ">
<polygon fill="white" stroke="#666666" points="1172.75,-39 1105.75,-39 1105.75,-19 1172.75,-19 1172.75,-39"/>
<text text-anchor="middle" x="1139.25" y="-25.5" font-family="Helvetica,sans-Serif" font-size="10.00">receivePipe</text>
</a>
</g>
</g>
<!-- Node22&#45;&gt;Node23 -->
<g id="edge26_Node000022_Node000023" class="edge">
<title>Node22&#45;&gt;Node23</title>
<g id="a_edge26_Node000022_Node000023"><a xlink:title=" ">
<path fill="none" stroke="#63b8ff" d="M1057.07,-29C1067.97,-29 1081.39,-29 1094.16,-29"/>
<polygon fill="#63b8ff" stroke="#63b8ff" points="1094.1,-32.5 1104.1,-29 1094.1,-25.5 1094.1,-32.5"/>
</a>
</g>
</g>
<!-- Node24 -->
<g id="Node000024" class="node">
<title>Node24</title>
<g id="a_Node000024"><a xlink:href="sys_commands_8cpp.html#a4771c79171a937893508dabadadbe099" target="_top" xlink:title=" ">
<polygon fill="white" stroke="#666666" points="1267.5,-58 1208.75,-58 1208.75,-38 1267.5,-38 1267.5,-58"/>
<text text-anchor="middle" x="1238.12" y="-44.5" font-family="Helvetica,sans-Serif" font-size="10.00">closePipe</text>
</a>
</g>
</g>
<!-- Node23&#45;&gt;Node24 -->
<g id="edge27_Node000023_Node000024" class="edge">
<title>Node23&#45;&gt;Node24</title>
<g id="a_edge27_Node000023_Node000024"><a xlink:title=" ">
<path fill="none" stroke="#63b8ff" d="M1173.05,-35.43C1180.81,-36.95 1189.17,-38.59 1197.21,-40.17"/>
<polygon fill="#63b8ff" stroke="#63b8ff" points="1196.28,-43.56 1206.77,-42.05 1197.63,-36.69 1196.28,-43.56"/>
</a>
</g>
</g>
<!-- Node25 -->
<g id="Node000025" class="node">
<title>Node25</title>
<g id="a_Node000025"><a xlink:href="sys_commands_8cpp.html#a3499ce0cd7e4ed28b3c5461a4d3aec84" target="_top" xlink:title=" ">
<polygon fill="white" stroke="#666666" points="1266.38,-20 1209.88,-20 1209.88,0 1266.38,0 1266.38,-20"/>
<text text-anchor="middle" x="1238.12" y="-6.5" font-family="Helvetica,sans-Serif" font-size="10.00">openPipe</text>
</a>
</g>
</g>
<!-- Node23&#45;&gt;Node25 -->
<g id="edge28_Node000023_Node000025" class="edge">
<title>Node23&#45;&gt;Node25</title>
<g id="a_edge28_Node000023_Node000025"><a xlink:title=" ">
<path fill="none" stroke="#63b8ff" d="M1173.05,-22.57C1181.2,-20.97 1190.01,-19.24 1198.42,-17.59"/>
<polygon fill="#63b8ff" stroke="#63b8ff" points="1198.9,-21.06 1208.04,-15.7 1197.55,-14.19 1198.9,-21.06"/>
</a>
</g>
</g>
<!-- Node28&#45;&gt;Node14 -->
<g id="edge32_Node000028_Node000014" class="edge">
<title>Node28&#45;&gt;Node14</title>
<g id="a_edge32_Node000028_Node000014"><a xlink:title=" ">
<path fill="none" stroke="#63b8ff" d="M658.05,-67C669.67,-67 681.65,-67 692.96,-67"/>
<polygon fill="#63b8ff" stroke="#63b8ff" points="692.94,-70.5 702.94,-67 692.94,-63.5 692.94,-70.5"/>
</a>
</g>
</g>
<!-- Node28&#45;&gt;Node18 -->
<g id="edge33_Node000028_Node000018" class="edge">
<title>Node28&#45;&gt;Node18</title>
<g id="a_edge33_Node000028_Node000018"><a xlink:title=" ">
<path fill="none" stroke="#63b8ff" d="M619.27,-77.49C640.05,-84.97 668.71,-95.21 694,-104 698.66,-105.62 703.55,-107.3 708.41,-108.96"/>
<polygon fill="#63b8ff" stroke="#63b8ff" points="706.9,-112.14 717.49,-112.05 709.15,-105.52 706.9,-112.14"/>
</a>
</g>
</g>
</g>
</svg>

<g id="navigator" transform="translate(0 0)" fill="#404254">
  <rect fill="#f2f5e9" fill-opacity="0.5" stroke="#606060" stroke-width=".5" x="0" y="0" width="60" height="60"/>
  <use id="zoomplus" xlink:href="#zoomPlus" x="17" y="9" onmousedown="handleZoom(evt,'in')"/>
  <use id="zoomminus" xlink:href="#zoomMin" x="42" y="9" onmousedown="handleZoom(evt,'out')"/>
  <use id="reset" xlink:href="#resetDef" x="30" y="36" onmousedown="handleReset()"/>
   <use id="arrowup" xlink:href="#arrowUp" x="0" y="0" onmousedown="handlePan(0,-1)"/>
  <use id="arrowright" xlink:href="#arrowRight" x="0" y="0" onmousedown="handlePan(1,0)"/>
  <use id="arrowdown" xlink:href="#arrowDown" x="0" y="0" onmousedown="handlePan(0,1)"/>
  <use id="arrowleft" xlink:href="#arrowLeft" x="0" y="0" onmousedown="handlePan(-1,0)"/>
</g>
<svg viewBox="0 0 15 15" width="100%" height="30px" preserveAspectRatio="xMaxYMin meet">
 <g id="arrow_out" transform="scale(0.3 0.3)">
  <a xlink:href="class_interactions_a8de1d76318ef0c22ad891b28008a44a3_cgraph_org.svg" target="_base">
   <rect id="button" ry="5" rx="5" y="6" x="6" height="38" width="38"
        fill="#f2f5e9" fill-opacity="0.5" stroke="#606060" stroke-width="1.0"/>
   <path id="arrow"
     d="M 11.500037,31.436501 C 11.940474,20.09759 22.043105,11.32322 32.158766,21.979434 L 37.068811,17.246167 C 37.068811,17.246167 37.088388,32 37.088388,32 L 22.160133,31.978069 C 22.160133,31.978069 26.997745,27.140456 26.997745,27.140456 C 18.528582,18.264221 13.291696,25.230495 11.500037,31.436501 z"
     style="fill:#404040;"/>
  </a>
 </g>
</svg>

<style type='text/css'>
<![CDATA[
[data-mouse-over-selected='false'] { opacity: 0.7; }
[data-mouse-over-selected='true']  { opacity: 1.0; }
]]>
</style>
<script type="application/ecmascript"><![CDATA[
document.addEventListener('DOMContentLoaded', (event) => {
  highlightEdges();
  highlightAdjacentNodes();
});
]]></script>
</svg>
