<?xml version="1.0" encoding="UTF-8" standalone="no"?>
<!DOCTYPE svg PUBLIC "-//W3C//DTD SVG 1.1//EN"
 "http://www.w3.org/Graphics/SVG/1.1/DTD/svg11.dtd">
<!-- Generated by graphviz version 12.2.0 (20241103.1931)
 -->
<!-- Title: LDPlayer::setSubFolders Pages: 1 -->
<!--zoomable 66 -->

<svg id="main" version="1.1" xmlns="http://www.w3.org/2000/svg" xmlns:xlink="http://www.w3.org/1999/xlink" xml:space="preserve" onload="init(evt)">

<style type="text/css"><![CDATA[
.node, .edge {opacity: 0.7;}
.node.selected, .edge.selected {opacity: 1;}
.edge:hover path { stroke: red; }
.edge:hover polygon { stroke: red; fill: red; }
]]></style>

<defs>
  <circle id="rim" cx="0" cy="0" r="7"/>
  <circle id="rim2" cx="0" cy="0" r="3.5"/>
  <g id="zoomPlus">
    <use xlink:href="#rim" fill="#404040"><set attributeName="fill" to="#808080" begin="zoomplus.mouseover" end="zoomplus.mouseout"/></use>
    <path d="M-4,0h8M0,-4v8" fill="none" stroke="white" stroke-width="1.5" pointer-events="none"/>
  </g>
  <g id="zoomMin">
    <use xlink:href="#rim" fill="#404040"><set attributeName="fill" to="#808080" begin="zoomminus.mouseover" end="zoomminus.mouseout"/></use>
    <path d="M-4,0h8" fill="none" stroke="white" stroke-width="1.5" pointer-events="none"/>
  </g>
  <g id="arrowUp" transform="translate(30 24)">
    <use xlink:href="#rim"/>
    <path pointer-events="none" fill="none" stroke="white" stroke-width="1.5" d="M0,-3.0v7 M-2.5,-0.5L0,-3.0L2.5,-0.5"/>
  </g>
  <g id="arrowRight" transform="rotate(90) translate(36 -43)">
    <use xlink:href="#rim"/>
    <path pointer-events="none" fill="none" stroke="white" stroke-width="1.5" d="M0,-3.0v7 M-2.5,-0.5L0,-3.0L2.5,-0.5"/>
  </g>
  <g id="arrowDown" transform="rotate(180) translate(-30 -48)">
    <use xlink:href="#rim"/>
    <path pointer-events="none" fill="none" stroke="white" stroke-width="1.5" d="M0,-3.0v7 M-2.5,-0.5L0,-3.0L2.5,-0.5"/>
  </g>
  <g id="arrowLeft" transform="rotate(270) translate(-36 17)">
    <use xlink:href="#rim"/>
    <path pointer-events="none" fill="none" stroke="white" stroke-width="1.5" d="M0,-3.0v7 M-2.5,-0.5L0,-3.0L2.5,-0.5"/>
  </g>
  <g id="resetDef">
    <use xlink:href="#rim2" fill="#404040"><set attributeName="fill" to="#808080" begin="reset.mouseover" end="reset.mouseout"/></use>
  </g>
</defs>
<script type="application/ecmascript">
var viewWidth = 1159;
var viewHeight = 66;
var sectionId = 'dynsection-35';
</script>
<script type="application/ecmascript" xlink:href="svg.min.js"/>
<svg id="graph" class="graph">
<g id="viewport">
<title>LDPlayer::setSubFolders</title>
<!-- Node1 -->
<g id="Node000001" class="node">
<title>Node1</title>
<g id="a_Node000001"><a xlink:title=" ">
<polygon fill="#999999" stroke="#666666" points="1151,-39 1025.5,-39 1025.5,-19 1151,-19 1151,-39"/>
<text text-anchor="middle" x="1088.25" y="-25.5" font-family="Helvetica,sans-Serif" font-size="10.00">LDPlayer::setSubFolders</text>
</a>
</g>
</g>
<!-- Node2 -->
<g id="Node000002" class="node">
<title>Node2</title>
<g id="a_Node000002"><a xlink:href="class_l_d_player.html#aed9eaafd453b9fcdea05322cf052e743" target="_top" xlink:title=" ">
<polygon fill="white" stroke="#666666" points="822.75,-58 696.5,-58 696.5,-38 822.75,-38 822.75,-58"/>
<text text-anchor="middle" x="759.62" y="-44.5" font-family="Helvetica,sans-Serif" font-size="10.00">LDPlayer::receiveFolders</text>
</a>
</g>
</g>
<!-- Node1&#45;&gt;Node2 -->
<g id="edge1_Node000001_Node000002" class="edge">
<title>Node1&#45;&gt;Node2</title>
<g id="a_edge1_Node000001_Node000002"><a xlink:title=" ">
<path fill="none" stroke="#63b8ff" d="M1013.87,-33.27C956.48,-36.61 877.56,-41.2 823.15,-44.36"/>
<polygon fill="#63b8ff" stroke="#63b8ff" points="1013.75,-36.78 1023.53,-32.71 1013.35,-29.79 1013.75,-36.78"/>
</a>
</g>
</g>
<!-- Node7 -->
<g id="Node000007" class="node">
<title>Node7</title>
<g id="a_Node000007"><a xlink:href="class_l_d_player.html#a99b2174bd6a896874fe39023faa4e88c" target="_top" xlink:title=" ">
<polygon fill="white" stroke="#666666" points="989.5,-20 858.75,-20 858.75,0 989.5,0 989.5,-20"/>
<text text-anchor="middle" x="924.12" y="-6.5" font-family="Helvetica,sans-Serif" font-size="10.00">LDPlayer::searchEmulator</text>
</a>
</g>
</g>
<!-- Node1&#45;&gt;Node7 -->
<g id="edge6_Node000001_Node000007" class="edge">
<title>Node1&#45;&gt;Node7</title>
<g id="a_edge6_Node000001_Node000007"><a xlink:title=" ">
<path fill="none" stroke="#63b8ff" d="M1013.83,-20.4C1005.84,-19.46 997.74,-18.51 989.86,-17.59"/>
<polygon fill="#63b8ff" stroke="#63b8ff" points="1013.19,-23.84 1023.53,-21.53 1014,-16.89 1013.19,-23.84"/>
</a>
</g>
</g>
<!-- Node3 -->
<g id="Node000003" class="node">
<title>Node3</title>
<g id="a_Node000003"><a xlink:href="class_bot_config.html#ac91f46c5dca7953454d5a2340dfd7f5c" target="_top" xlink:title=" ">
<polygon fill="white" stroke="#666666" points="549.25,-39 432.75,-39 432.75,-19 549.25,-19 549.25,-39"/>
<text text-anchor="middle" x="491" y="-25.5" font-family="Helvetica,sans-Serif" font-size="10.00">BotConfig::initLdPlayer</text>
</a>
</g>
</g>
<!-- Node2&#45;&gt;Node3 -->
<g id="edge2_Node000002_Node000003" class="edge">
<title>Node2&#45;&gt;Node3</title>
<g id="a_edge2_Node000002_Node000003"><a xlink:title=" ">
<path fill="none" stroke="#63b8ff" d="M684.65,-42.73C641.98,-39.69 589.12,-35.92 549.57,-33.1"/>
<polygon fill="#63b8ff" stroke="#63b8ff" points="684.38,-46.22 694.6,-43.44 684.88,-39.24 684.38,-46.22"/>
</a>
</g>
</g>
<!-- Node4 -->
<g id="Node000004" class="node">
<title>Node4</title>
<g id="a_Node000004"><a xlink:href="class_bot_config.html#af8c906f3cd22726a96e758886c756068" target="_top" xlink:title=" ">
<polygon fill="white" stroke="#666666" points="396.75,-39 274.25,-39 274.25,-19 396.75,-19 396.75,-39"/>
<text text-anchor="middle" x="335.5" y="-25.5" font-family="Helvetica,sans-Serif" font-size="10.00">BotConfig::initEmulators</text>
</a>
</g>
</g>
<!-- Node3&#45;&gt;Node4 -->
<g id="edge3_Node000003_Node000004" class="edge">
<title>Node3&#45;&gt;Node4</title>
<g id="a_edge3_Node000003_Node000004"><a xlink:title=" ">
<path fill="none" stroke="#63b8ff" d="M420.94,-29C413.04,-29 405.02,-29 397.24,-29"/>
<polygon fill="#63b8ff" stroke="#63b8ff" points="420.89,-32.5 430.89,-29 420.89,-25.5 420.89,-32.5"/>
</a>
</g>
</g>
<!-- Node5 -->
<g id="Node000005" class="node">
<title>Node5</title>
<g id="a_Node000005"><a xlink:href="class_bot_config.html#a8925ef3403b945f27b9ee2719ef257b9" target="_top" xlink:title=" ">
<polygon fill="white" stroke="#666666" points="238.25,-39 116.5,-39 116.5,-19 238.25,-19 238.25,-39"/>
<text text-anchor="middle" x="177.38" y="-25.5" font-family="Helvetica,sans-Serif" font-size="10.00">BotConfig::initBotConfig</text>
</a>
</g>
</g>
<!-- Node4&#45;&gt;Node5 -->
<g id="edge4_Node000004_Node000005" class="edge">
<title>Node4&#45;&gt;Node5</title>
<g id="a_edge4_Node000004_Node000005"><a xlink:title=" ">
<path fill="none" stroke="#63b8ff" d="M262.79,-29C254.69,-29 246.5,-29 238.58,-29"/>
<polygon fill="#63b8ff" stroke="#63b8ff" points="262.62,-32.5 272.62,-29 262.62,-25.5 262.62,-32.5"/>
</a>
</g>
</g>
<!-- Node6 -->
<g id="Node000006" class="node">
<title>Node6</title>
<g id="a_Node000006"><a xlink:href="classgame.html#aea6b13468585f1be55d1736100158706" target="_top" xlink:title=" ">
<polygon fill="white" stroke="#666666" points="80.5,-39 0,-39 0,-19 80.5,-19 80.5,-39"/>
<text text-anchor="middle" x="40.25" y="-25.5" font-family="Helvetica,sans-Serif" font-size="10.00">game::startBot</text>
</a>
</g>
</g>
<!-- Node5&#45;&gt;Node6 -->
<g id="edge5_Node000005_Node000006" class="edge">
<title>Node5&#45;&gt;Node6</title>
<g id="a_edge5_Node000005_Node000006"><a xlink:title=" ">
<path fill="none" stroke="#63b8ff" d="M105.04,-29C96.77,-29 88.57,-29 80.95,-29"/>
<polygon fill="#63b8ff" stroke="#63b8ff" points="104.81,-32.5 114.81,-29 104.81,-25.5 104.81,-32.5"/>
</a>
</g>
</g>
<!-- Node8 -->
<g id="Node000008" class="node">
<title>Node8</title>
<g id="a_Node000008"><a xlink:href="class_l_d_player.html#af652c272f07898fcabf0df740fbacefa" target="_top" xlink:title=" ">
<polygon fill="white" stroke="#666666" points="816.75,-20 702.5,-20 702.5,0 816.75,0 816.75,-20"/>
<text text-anchor="middle" x="759.62" y="-6.5" font-family="Helvetica,sans-Serif" font-size="10.00">LDPlayer::initEmulator</text>
</a>
</g>
</g>
<!-- Node7&#45;&gt;Node8 -->
<g id="edge7_Node000007_Node000008" class="edge">
<title>Node7&#45;&gt;Node8</title>
<g id="a_edge7_Node000007_Node000008"><a xlink:title=" ">
<path fill="none" stroke="#63b8ff" d="M847.14,-10C837.07,-10 826.89,-10 817.22,-10"/>
<polygon fill="#63b8ff" stroke="#63b8ff" points="846.92,-13.5 856.92,-10 846.92,-6.5 846.92,-13.5"/>
</a>
</g>
</g>
<!-- Node9 -->
<g id="Node000009" class="node">
<title>Node9</title>
<g id="a_Node000009"><a xlink:href="class_l_d_player.html#aa4d08272c0957b3f9ccd69bee91d39ac" target="_top" xlink:title=" ">
<polygon fill="white" stroke="#666666" points="660.5,-20 585.25,-20 585.25,0 660.5,0 660.5,-20"/>
<text text-anchor="middle" x="622.88" y="-6.5" font-family="Helvetica,sans-Serif" font-size="10.00">LDPlayer::init</text>
</a>
</g>
</g>
<!-- Node8&#45;&gt;Node9 -->
<g id="edge8_Node000008_Node000009" class="edge">
<title>Node8&#45;&gt;Node9</title>
<g id="a_edge8_Node000008_Node000009"><a xlink:title=" ">
<path fill="none" stroke="#63b8ff" d="M691.02,-10C680.62,-10 670.23,-10 660.84,-10"/>
<polygon fill="#63b8ff" stroke="#63b8ff" points="690.75,-13.5 700.75,-10 690.75,-6.5 690.75,-13.5"/>
</a>
</g>
</g>
<!-- Node9&#45;&gt;Node3 -->
<g id="edge9_Node000009_Node000003" class="edge">
<title>Node9&#45;&gt;Node3</title>
<g id="a_edge9_Node000009_Node000003"><a xlink:title=" ">
<path fill="none" stroke="#63b8ff" d="M573.7,-17.05C565.77,-18.21 557.48,-19.42 549.35,-20.61"/>
<polygon fill="#63b8ff" stroke="#63b8ff" points="574.12,-20.52 583.51,-15.61 573.11,-13.6 574.12,-20.52"/>
</a>
</g>
</g>
</g>
</svg>

<g id="navigator" transform="translate(0 0)" fill="#404254">
  <rect fill="#f2f5e9" fill-opacity="0.5" stroke="#606060" stroke-width=".5" x="0" y="0" width="60" height="60"/>
  <use id="zoomplus" xlink:href="#zoomPlus" x="17" y="9" onmousedown="handleZoom(evt,'in')"/>
  <use id="zoomminus" xlink:href="#zoomMin" x="42" y="9" onmousedown="handleZoom(evt,'out')"/>
  <use id="reset" xlink:href="#resetDef" x="30" y="36" onmousedown="handleReset()"/>
   <use id="arrowup" xlink:href="#arrowUp" x="0" y="0" onmousedown="handlePan(0,-1)"/>
  <use id="arrowright" xlink:href="#arrowRight" x="0" y="0" onmousedown="handlePan(1,0)"/>
  <use id="arrowdown" xlink:href="#arrowDown" x="0" y="0" onmousedown="handlePan(0,1)"/>
  <use id="arrowleft" xlink:href="#arrowLeft" x="0" y="0" onmousedown="handlePan(-1,0)"/>
</g>
<svg viewBox="0 0 15 15" width="100%" height="30px" preserveAspectRatio="xMaxYMin meet">
 <g id="arrow_out" transform="scale(0.3 0.3)">
  <a xlink:href="class_l_d_player_a0c546f98352f25c612d1dda1819c5131_icgraph_org.svg" target="_base">
   <rect id="button" ry="5" rx="5" y="6" x="6" height="38" width="38"
        fill="#f2f5e9" fill-opacity="0.5" stroke="#606060" stroke-width="1.0"/>
   <path id="arrow"
     d="M 11.500037,31.436501 C 11.940474,20.09759 22.043105,11.32322 32.158766,21.979434 L 37.068811,17.246167 C 37.068811,17.246167 37.088388,32 37.088388,32 L 22.160133,31.978069 C 22.160133,31.978069 26.997745,27.140456 26.997745,27.140456 C 18.528582,18.264221 13.291696,25.230495 11.500037,31.436501 z"
     style="fill:#404040;"/>
  </a>
 </g>
</svg>

<style type='text/css'>
<![CDATA[
[data-mouse-over-selected='false'] { opacity: 0.7; }
[data-mouse-over-selected='true']  { opacity: 1.0; }
]]>
</style>
<script type="application/ecmascript"><![CDATA[
document.addEventListener('DOMContentLoaded', (event) => {
  highlightEdges();
  highlightAdjacentNodes();
});
]]></script>
</svg>
