<?xml version="1.0" encoding="UTF-8" standalone="no"?>
<!DOCTYPE svg PUBLIC "-//W3C//DTD SVG 1.1//EN"
 "http://www.w3.org/Graphics/SVG/1.1/DTD/svg11.dtd">
<!-- Generated by graphviz version 12.2.0 (20241103.1931)
 -->
<!-- Title: BotConfig::updateLdPlayerFolder Pages: 1 -->
<!--zoomable 236 -->

<svg id="main" version="1.1" xmlns="http://www.w3.org/2000/svg" xmlns:xlink="http://www.w3.org/1999/xlink" xml:space="preserve" onload="init(evt)">

<style type="text/css"><![CDATA[
.node, .edge {opacity: 0.7;}
.node.selected, .edge.selected {opacity: 1;}
.edge:hover path { stroke: red; }
.edge:hover polygon { stroke: red; fill: red; }
]]></style>

<defs>
  <circle id="rim" cx="0" cy="0" r="7"/>
  <circle id="rim2" cx="0" cy="0" r="3.5"/>
  <g id="zoomPlus">
    <use xlink:href="#rim" fill="#404040"><set attributeName="fill" to="#808080" begin="zoomplus.mouseover" end="zoomplus.mouseout"/></use>
    <path d="M-4,0h8M0,-4v8" fill="none" stroke="white" stroke-width="1.5" pointer-events="none"/>
  </g>
  <g id="zoomMin">
    <use xlink:href="#rim" fill="#404040"><set attributeName="fill" to="#808080" begin="zoomminus.mouseover" end="zoomminus.mouseout"/></use>
    <path d="M-4,0h8" fill="none" stroke="white" stroke-width="1.5" pointer-events="none"/>
  </g>
  <g id="arrowUp" transform="translate(30 24)">
    <use xlink:href="#rim"/>
    <path pointer-events="none" fill="none" stroke="white" stroke-width="1.5" d="M0,-3.0v7 M-2.5,-0.5L0,-3.0L2.5,-0.5"/>
  </g>
  <g id="arrowRight" transform="rotate(90) translate(36 -43)">
    <use xlink:href="#rim"/>
    <path pointer-events="none" fill="none" stroke="white" stroke-width="1.5" d="M0,-3.0v7 M-2.5,-0.5L0,-3.0L2.5,-0.5"/>
  </g>
  <g id="arrowDown" transform="rotate(180) translate(-30 -48)">
    <use xlink:href="#rim"/>
    <path pointer-events="none" fill="none" stroke="white" stroke-width="1.5" d="M0,-3.0v7 M-2.5,-0.5L0,-3.0L2.5,-0.5"/>
  </g>
  <g id="arrowLeft" transform="rotate(270) translate(-36 17)">
    <use xlink:href="#rim"/>
    <path pointer-events="none" fill="none" stroke="white" stroke-width="1.5" d="M0,-3.0v7 M-2.5,-0.5L0,-3.0L2.5,-0.5"/>
  </g>
  <g id="resetDef">
    <use xlink:href="#rim2" fill="#404040"><set attributeName="fill" to="#808080" begin="reset.mouseover" end="reset.mouseout"/></use>
  </g>
</defs>
<script type="application/ecmascript">
var viewWidth = 735;
var viewHeight = 236;
var sectionId = 'dynsection-100';
</script>
<script type="application/ecmascript" xlink:href="svg.min.js"/>
<svg id="graph" class="graph">
<g id="viewport">
<title>BotConfig::updateLdPlayerFolder</title>
<!-- Node1 -->
<g id="Node000001" class="node">
<title>Node1</title>
<g id="a_Node000001"><a xlink:title=" ">
<polygon fill="#999999" stroke="#666666" points="133,-121 0,-121 0,-89 133,-89 133,-121"/>
<text text-anchor="start" x="8" y="-107.5" font-family="Helvetica,sans-Serif" font-size="10.00">BotConfig::updateLdPlayer</text>
<text text-anchor="middle" x="66.5" y="-95.5" font-family="Helvetica,sans-Serif" font-size="10.00">Folder</text>
</a>
</g>
</g>
<!-- Node2 -->
<g id="Node000002" class="node">
<title>Node2</title>
<g id="a_Node000002"><a xlink:href="class_bot_config.html#a7fe6cbda7ec98c3070e6f9437f6eeb84" target="_top" xlink:title=" ">
<polygon fill="white" stroke="#666666" points="320,-115 169,-115 169,-95 320,-95 320,-115"/>
<text text-anchor="middle" x="244.5" y="-101.5" font-family="Helvetica,sans-Serif" font-size="10.00">BotConfig::updateStringBotFile</text>
</a>
</g>
</g>
<!-- Node1&#45;&gt;Node2 -->
<g id="edge1_Node000001_Node000002" class="edge">
<title>Node1&#45;&gt;Node2</title>
<g id="a_edge1_Node000001_Node000002"><a xlink:title=" ">
<path fill="none" stroke="#63b8ff" d="M133.29,-105C141.12,-105 149.2,-105 157.26,-105"/>
<polygon fill="#63b8ff" stroke="#63b8ff" points="157.1,-108.5 167.1,-105 157.1,-101.5 157.1,-108.5"/>
</a>
</g>
</g>
<!-- Node3 -->
<g id="Node000003" class="node">
<title>Node3</title>
<g id="a_Node000003"><a xlink:href="class_bot_config.html#ab92a15dd3027a7f42b452cdf5eaf9529" target="_top" xlink:title=" ">
<polygon fill="white" stroke="#666666" points="476.25,-115 356,-115 356,-95 476.25,-95 476.25,-115"/>
<text text-anchor="middle" x="416.12" y="-101.5" font-family="Helvetica,sans-Serif" font-size="10.00">BotConfig::updateString</text>
</a>
</g>
</g>
<!-- Node2&#45;&gt;Node3 -->
<g id="edge2_Node000002_Node000003" class="edge">
<title>Node2&#45;&gt;Node3</title>
<g id="a_edge2_Node000002_Node000003"><a xlink:title=" ">
<path fill="none" stroke="#63b8ff" d="M320.39,-105C328.32,-105 336.37,-105 344.26,-105"/>
<polygon fill="#63b8ff" stroke="#63b8ff" points="344.14,-108.5 354.14,-105 344.14,-101.5 344.14,-108.5"/>
</a>
</g>
</g>
<!-- Node4 -->
<g id="Node000004" class="node">
<title>Node4</title>
<g id="a_Node000004"><a xlink:href="_text_manager_8cpp.html#a6a1f72a80ddaec746c95996b16e3a1dc" target="_top" xlink:title=" ">
<polygon fill="white" stroke="#666666" points="601,-210 516,-210 516,-190 601,-190 601,-210"/>
<text text-anchor="middle" x="558.5" y="-196.5" font-family="Helvetica,sans-Serif" font-size="10.00">getContentAfter</text>
</a>
</g>
</g>
<!-- Node3&#45;&gt;Node4 -->
<g id="edge3_Node000003_Node000004" class="edge">
<title>Node3&#45;&gt;Node4</title>
<g id="a_edge3_Node000003_Node000004"><a xlink:title=" ">
<path fill="none" stroke="#63b8ff" d="M428.08,-115.46C445.05,-131.23 479.17,-161.36 512.25,-181 514.39,-182.27 516.64,-183.5 518.93,-184.68"/>
<polygon fill="#63b8ff" stroke="#63b8ff" points="517.25,-187.76 527.78,-188.87 520.24,-181.43 517.25,-187.76"/>
</a>
</g>
</g>
<!-- Node6 -->
<g id="Node000006" class="node">
<title>Node6</title>
<g id="a_Node000006"><a xlink:href="_text_manager_8cpp.html#a377407ab4c28873a8e1956ea343f9cc2" target="_top" xlink:title=" ">
<polygon fill="white" stroke="#666666" points="604.75,-172 512.25,-172 512.25,-152 604.75,-152 604.75,-172"/>
<text text-anchor="middle" x="558.5" y="-158.5" font-family="Helvetica,sans-Serif" font-size="10.00">getContentBefore</text>
</a>
</g>
</g>
<!-- Node3&#45;&gt;Node6 -->
<g id="edge6_Node000003_Node000006" class="edge">
<title>Node3&#45;&gt;Node6</title>
<g id="a_edge6_Node000003_Node000006"><a xlink:title=" ">
<path fill="none" stroke="#63b8ff" d="M442.87,-115.45C464.94,-124.41 496.95,-137.41 521.54,-147.4"/>
<polygon fill="#63b8ff" stroke="#63b8ff" points="519.93,-150.52 530.51,-151.04 522.57,-144.04 519.93,-150.52"/>
</a>
</g>
</g>
<!-- Node7 -->
<g id="Node000007" class="node">
<title>Node7</title>
<g id="a_Node000007"><a xlink:href="_text_manager_8cpp.html#add36cc54cd9616a393a17b8961491477" target="_top" xlink:title=" ">
<polygon fill="white" stroke="#666666" points="598.38,-58 518.62,-58 518.62,-38 598.38,-38 598.38,-58"/>
<text text-anchor="middle" x="558.5" y="-44.5" font-family="Helvetica,sans-Serif" font-size="10.00">getFileContent</text>
</a>
</g>
</g>
<!-- Node3&#45;&gt;Node7 -->
<g id="edge8_Node000003_Node000007" class="edge">
<title>Node3&#45;&gt;Node7</title>
<g id="a_edge8_Node000003_Node000007"><a xlink:title=" ">
<path fill="none" stroke="#63b8ff" d="M442.87,-94.55C464.94,-85.59 496.95,-72.59 521.54,-62.6"/>
<polygon fill="#63b8ff" stroke="#63b8ff" points="522.57,-65.96 530.51,-58.96 519.93,-59.48 522.57,-65.96"/>
</a>
</g>
</g>
<!-- Node9 -->
<g id="Node000009" class="node">
<title>Node9</title>
<g id="a_Node000009"><a xlink:href="_text_manager_8cpp.html#af24bee60aa1d3d5b4ae3bf6ebd267ecd" target="_top" xlink:title=" ">
<polygon fill="white" stroke="#666666" points="582.25,-134 534.75,-134 534.75,-114 582.25,-114 582.25,-134"/>
<text text-anchor="middle" x="558.5" y="-120.5" font-family="Helvetica,sans-Serif" font-size="10.00">getLine</text>
</a>
</g>
</g>
<!-- Node3&#45;&gt;Node9 -->
<g id="edge10_Node000003_Node000009" class="edge">
<title>Node3&#45;&gt;Node9</title>
<g id="a_edge10_Node000003_Node000009"><a xlink:title=" ">
<path fill="none" stroke="#63b8ff" d="M476.66,-113.06C492.54,-115.21 509.16,-117.46 523.18,-119.35"/>
<polygon fill="#63b8ff" stroke="#63b8ff" points="522.38,-122.78 532.76,-120.65 523.32,-115.84 522.38,-122.78"/>
</a>
</g>
</g>
<!-- Node10 -->
<g id="Node000010" class="node">
<title>Node10</title>
<g id="a_Node000010"><a xlink:href="_text_manager_8cpp.html#a98e5aae2b6659418890caba4fad17d5e" target="_top" xlink:title=" ">
<polygon fill="white" stroke="#666666" points="598.38,-96 518.62,-96 518.62,-76 598.38,-76 598.38,-96"/>
<text text-anchor="middle" x="558.5" y="-82.5" font-family="Helvetica,sans-Serif" font-size="10.00">updateContent</text>
</a>
</g>
</g>
<!-- Node3&#45;&gt;Node10 -->
<g id="edge12_Node000003_Node000010" class="edge">
<title>Node3&#45;&gt;Node10</title>
<g id="a_edge12_Node000003_Node000010"><a xlink:title=" ">
<path fill="none" stroke="#63b8ff" d="M476.66,-96.94C486.75,-95.58 497.15,-94.17 506.99,-92.84"/>
<polygon fill="#63b8ff" stroke="#63b8ff" points="507.29,-96.33 516.73,-91.52 506.35,-89.39 507.29,-96.33"/>
</a>
</g>
</g>
<!-- Node11 -->
<g id="Node000011" class="node">
<title>Node11</title>
<g id="a_Node000011"><a xlink:href="_text_manager_8cpp.html#ab55140c566370b105b9bf81756293fa5" target="_top" xlink:title=" ">
<polygon fill="white" stroke="#666666" points="590.12,-20 526.88,-20 526.88,0 590.12,0 590.12,-20"/>
<text text-anchor="middle" x="558.5" y="-6.5" font-family="Helvetica,sans-Serif" font-size="10.00">writeToFile</text>
</a>
</g>
</g>
<!-- Node3&#45;&gt;Node11 -->
<g id="edge14_Node000003_Node000011" class="edge">
<title>Node3&#45;&gt;Node11</title>
<g id="a_edge14_Node000003_Node000011"><a xlink:title=" ">
<path fill="none" stroke="#63b8ff" d="M428.08,-94.54C445.05,-78.77 479.17,-48.64 512.25,-29 514.39,-27.73 516.64,-26.5 518.93,-25.32"/>
<polygon fill="#63b8ff" stroke="#63b8ff" points="520.24,-28.57 527.78,-21.13 517.25,-22.24 520.24,-28.57"/>
</a>
</g>
</g>
<!-- Node4&#45;&gt;Node4 -->
<g id="edge5_Node000004_Node000004" class="edge">
<title>Node4&#45;&gt;Node4</title>
<g id="a_edge5_Node000004_Node000004"><a xlink:title=" ">
<path fill="none" stroke="#63b8ff" d="M538.62,-210.34C530.12,-218.98 536.75,-228 558.5,-228 570.39,-228 577.77,-225.3 580.62,-221.44"/>
<polygon fill="#63b8ff" stroke="#63b8ff" points="584.08,-220.94 578.68,-211.82 577.22,-222.32 584.08,-220.94"/>
</a>
</g>
</g>
<!-- Node5 -->
<g id="Node000005" class="node">
<title>Node5</title>
<g id="a_Node000005"><a xlink:href="_text_manager_8cpp.html#afbb8972025ad14e914fdaafa26957439" target="_top" xlink:title=" ">
<polygon fill="white" stroke="#666666" points="708.12,-153 659.12,-153 659.12,-133 708.12,-133 708.12,-153"/>
<text text-anchor="middle" x="683.62" y="-139.5" font-family="Helvetica,sans-Serif" font-size="10.00">findPos</text>
</a>
</g>
</g>
<!-- Node4&#45;&gt;Node5 -->
<g id="edge4_Node000004_Node000005" class="edge">
<title>Node4&#45;&gt;Node5</title>
<g id="a_edge4_Node000004_Node000005"><a xlink:title=" ">
<path fill="none" stroke="#63b8ff" d="M584.98,-189.6C591.46,-186.87 598.39,-183.89 604.75,-181 620.36,-173.92 637.51,-165.61 651.72,-158.58"/>
<polygon fill="#63b8ff" stroke="#63b8ff" points="653.21,-161.75 660.6,-154.16 650.09,-155.48 653.21,-161.75"/>
</a>
</g>
</g>
<!-- Node6&#45;&gt;Node5 -->
<g id="edge7_Node000006_Node000005" class="edge">
<title>Node6&#45;&gt;Node5</title>
<g id="a_edge7_Node000006_Node000005"><a xlink:title=" ">
<path fill="none" stroke="#63b8ff" d="M605,-154.98C619.09,-152.8 634.39,-150.44 647.65,-148.4"/>
<polygon fill="#63b8ff" stroke="#63b8ff" points="647.86,-151.91 657.21,-146.92 646.79,-144.99 647.86,-151.91"/>
</a>
</g>
</g>
<!-- Node8 -->
<g id="Node000008" class="node">
<title>Node8</title>
<g id="a_Node000008"><a xlink:href="_text_manager_8cpp.html#a5e4308ca14d1f4cfc2456fc26b1361a8" target="_top" xlink:title=" ">
<polygon fill="white" stroke="#666666" points="724.25,-58 643,-58 643,-38 724.25,-38 724.25,-58"/>
<text text-anchor="middle" x="683.62" y="-44.5" font-family="Helvetica,sans-Serif" font-size="10.00">getIfstreamFile</text>
</a>
</g>
</g>
<!-- Node7&#45;&gt;Node8 -->
<g id="edge9_Node000007_Node000008" class="edge">
<title>Node7&#45;&gt;Node8</title>
<g id="a_edge9_Node000007_Node000008"><a xlink:title=" ">
<path fill="none" stroke="#63b8ff" d="M598.8,-48C609.24,-48 620.68,-48 631.65,-48"/>
<polygon fill="#63b8ff" stroke="#63b8ff" points="631.34,-51.5 641.34,-48 631.34,-44.5 631.34,-51.5"/>
</a>
</g>
</g>
<!-- Node9&#45;&gt;Node5 -->
<g id="edge11_Node000009_Node000005" class="edge">
<title>Node9&#45;&gt;Node5</title>
<g id="a_edge11_Node000009_Node000005"><a xlink:title=" ">
<path fill="none" stroke="#63b8ff" d="M582.66,-127.57C600.91,-130.39 626.67,-134.36 647.46,-137.57"/>
<polygon fill="#63b8ff" stroke="#63b8ff" points="646.82,-141.02 657.23,-139.08 647.89,-134.1 646.82,-141.02"/>
</a>
</g>
</g>
<!-- Node10&#45;&gt;Node5 -->
<g id="edge13_Node000010_Node000005" class="edge">
<title>Node10&#45;&gt;Node5</title>
<g id="a_edge13_Node000010_Node000005"><a xlink:title=" ">
<path fill="none" stroke="#63b8ff" d="M584.98,-96.4C591.46,-99.13 598.39,-102.11 604.75,-105 620.36,-112.08 637.51,-120.39 651.72,-127.42"/>
<polygon fill="#63b8ff" stroke="#63b8ff" points="650.09,-130.52 660.6,-131.84 653.21,-124.25 650.09,-130.52"/>
</a>
</g>
</g>
<!-- Node12 -->
<g id="Node000012" class="node">
<title>Node12</title>
<g id="a_Node000012"><a xlink:href="_text_manager_8cpp.html#a4a86df56d2737552b2fd63bfa85c5800" target="_top" xlink:title=" ">
<polygon fill="white" stroke="#666666" points="726.5,-20 640.75,-20 640.75,0 726.5,0 726.5,-20"/>
<text text-anchor="middle" x="683.62" y="-6.5" font-family="Helvetica,sans-Serif" font-size="10.00">getOfstreamFile</text>
</a>
</g>
</g>
<!-- Node11&#45;&gt;Node12 -->
<g id="edge15_Node000011_Node000012" class="edge">
<title>Node11&#45;&gt;Node12</title>
<g id="a_edge15_Node000011_Node000012"><a xlink:title=" ">
<path fill="none" stroke="#63b8ff" d="M590.57,-10C602.25,-10 615.89,-10 629.04,-10"/>
<polygon fill="#63b8ff" stroke="#63b8ff" points="628.89,-13.5 638.89,-10 628.89,-6.5 628.89,-13.5"/>
</a>
</g>
</g>
</g>
</svg>

<g id="navigator" transform="translate(0 0)" fill="#404254">
  <rect fill="#f2f5e9" fill-opacity="0.5" stroke="#606060" stroke-width=".5" x="0" y="0" width="60" height="60"/>
  <use id="zoomplus" xlink:href="#zoomPlus" x="17" y="9" onmousedown="handleZoom(evt,'in')"/>
  <use id="zoomminus" xlink:href="#zoomMin" x="42" y="9" onmousedown="handleZoom(evt,'out')"/>
  <use id="reset" xlink:href="#resetDef" x="30" y="36" onmousedown="handleReset()"/>
   <use id="arrowup" xlink:href="#arrowUp" x="0" y="0" onmousedown="handlePan(0,-1)"/>
  <use id="arrowright" xlink:href="#arrowRight" x="0" y="0" onmousedown="handlePan(1,0)"/>
  <use id="arrowdown" xlink:href="#arrowDown" x="0" y="0" onmousedown="handlePan(0,1)"/>
  <use id="arrowleft" xlink:href="#arrowLeft" x="0" y="0" onmousedown="handlePan(-1,0)"/>
</g>
<svg viewBox="0 0 15 15" width="100%" height="30px" preserveAspectRatio="xMaxYMin meet">
 <g id="arrow_out" transform="scale(0.3 0.3)">
  <a xlink:href="class_bot_config_a095c01a9b9e6ff1db9c683716337f45f_cgraph_org.svg" target="_base">
   <rect id="button" ry="5" rx="5" y="6" x="6" height="38" width="38"
        fill="#f2f5e9" fill-opacity="0.5" stroke="#606060" stroke-width="1.0"/>
   <path id="arrow"
     d="M 11.500037,31.436501 C 11.940474,20.09759 22.043105,11.32322 32.158766,21.979434 L 37.068811,17.246167 C 37.068811,17.246167 37.088388,32 37.088388,32 L 22.160133,31.978069 C 22.160133,31.978069 26.997745,27.140456 26.997745,27.140456 C 18.528582,18.264221 13.291696,25.230495 11.500037,31.436501 z"
     style="fill:#404040;"/>
  </a>
 </g>
</svg>

<style type='text/css'>
<![CDATA[
[data-mouse-over-selected='false'] { opacity: 0.7; }
[data-mouse-over-selected='true']  { opacity: 1.0; }
]]>
</style>
<script type="application/ecmascript"><![CDATA[
document.addEventListener('DOMContentLoaded', (event) => {
  highlightEdges();
  highlightAdjacentNodes();
});
]]></script>
</svg>
