<?xml version="1.0" encoding="UTF-8" standalone="no"?>
<!DOCTYPE svg PUBLIC "-//W3C//DTD SVG 1.1//EN"
 "http://www.w3.org/Graphics/SVG/1.1/DTD/svg11.dtd">
<!-- Generated by graphviz version 12.2.0 (20241103.1931)
 -->
<!-- Title: ZoneTag::execute Pages: 1 -->
<svg width="313pt" height="66pt"
 viewBox="0.00 0.00 313.25 66.00" xmlns="http://www.w3.org/2000/svg" xmlns:xlink="http://www.w3.org/1999/xlink">

<svg id="main" version="1.1" xmlns="http://www.w3.org/2000/svg" xmlns:xlink="http://www.w3.org/1999/xlink" xml:space="preserve">

<style type="text/css"><![CDATA[
.node, .edge {opacity: 0.7;}
.node.selected, .edge.selected {opacity: 1;}
.edge:hover path { stroke: red; }
.edge:hover polygon { stroke: red; fill: red; }
]]></style>
<script type="application/ecmascript" xlink:href="svg.min.js"/>
<svg id="graph" class="graph">
<g id="graph0" class="graph" transform="scale(1 1) rotate(0) translate(4 62)">
<title>ZoneTag::execute</title>
<!-- Node1 -->
<g id="Node000001" class="node">
<title>Node1</title>
<g id="a_Node000001"><a xlink:title=" ">
<polygon fill="#999999" stroke="#666666" points="94,-39 0,-39 0,-19 94,-19 94,-39"/>
<text text-anchor="middle" x="47" y="-25.5" font-family="Helvetica,sans-Serif" font-size="10.00">ZoneTag::execute</text>
</a>
</g>
</g>
<!-- Node2 -->
<g id="Node000002" class="node">
<title>Node2</title>
<g id="a_Node000002"><a xlink:href="_tags_8cpp.html#af880453da2451d42d582407678414cca" target="_top" xlink:title=" ">
<polygon fill="white" stroke="#666666" points="202.25,-39 130,-39 130,-19 202.25,-19 202.25,-39"/>
<text text-anchor="middle" x="166.12" y="-25.5" font-family="Helvetica,sans-Serif" font-size="10.00">executeZone</text>
</a>
</g>
</g>
<!-- Node1&#45;&gt;Node2 -->
<g id="edge1_Node000001_Node000002" class="edge">
<title>Node1&#45;&gt;Node2</title>
<g id="a_edge1_Node000001_Node000002"><a xlink:title=" ">
<path fill="none" stroke="#63b8ff" d="M94.29,-29C102.2,-29 110.41,-29 118.33,-29"/>
<polygon fill="#63b8ff" stroke="#63b8ff" points="118.13,-32.5 128.13,-29 118.13,-25.5 118.13,-32.5"/>
</a>
</g>
</g>
<!-- Node2&#45;&gt;Node2 -->
<g id="edge2_Node000002_Node000002" class="edge">
<title>Node2&#45;&gt;Node2</title>
<g id="a_edge2_Node000002_Node000002"><a xlink:title=" ">
<path fill="none" stroke="#63b8ff" d="M149.34,-39.34C142.17,-47.98 147.76,-57 166.12,-57 176.17,-57 182.39,-54.3 184.79,-50.44"/>
<polygon fill="#63b8ff" stroke="#63b8ff" points="188.29,-50.1 183.16,-40.83 181.39,-51.28 188.29,-50.1"/>
</a>
</g>
</g>
<!-- Node3 -->
<g id="Node000003" class="node">
<title>Node3</title>
<g id="a_Node000003"><a xlink:href="_tags_8cpp.html#aad17b0d48f011d5869f82adb31915669" target="_top" xlink:title=" ">
<polygon fill="white" stroke="#666666" points="304.88,-58 238.62,-58 238.62,-38 304.88,-38 304.88,-58"/>
<text text-anchor="middle" x="271.75" y="-44.5" font-family="Helvetica,sans-Serif" font-size="10.00">getLoadTag</text>
</a>
</g>
</g>
<!-- Node2&#45;&gt;Node3 -->
<g id="edge3_Node000002_Node000003" class="edge">
<title>Node2&#45;&gt;Node3</title>
<g id="a_edge3_Node000002_Node000003"><a xlink:title=" ">
<path fill="none" stroke="#63b8ff" d="M202.5,-35.49C210.39,-36.93 218.85,-38.48 227.03,-39.98"/>
<polygon fill="#63b8ff" stroke="#63b8ff" points="226.37,-43.42 236.83,-41.78 227.63,-36.54 226.37,-43.42"/>
</a>
</g>
</g>
<!-- Node4 -->
<g id="Node000004" class="node">
<title>Node4</title>
<g id="a_Node000004"><a xlink:href="_tags_8cpp.html#a87514b166197bc785f979c9b79214abb" target="_top" xlink:title=" ">
<polygon fill="white" stroke="#666666" points="305.25,-20 238.25,-20 238.25,0 305.25,0 305.25,-20"/>
<text text-anchor="middle" x="271.75" y="-6.5" font-family="Helvetica,sans-Serif" font-size="10.00">getZoneTag</text>
</a>
</g>
</g>
<!-- Node2&#45;&gt;Node4 -->
<g id="edge4_Node000002_Node000004" class="edge">
<title>Node2&#45;&gt;Node4</title>
<g id="a_edge4_Node000002_Node000004"><a xlink:title=" ">
<path fill="none" stroke="#63b8ff" d="M202.5,-22.51C210.31,-21.08 218.67,-19.55 226.78,-18.06"/>
<polygon fill="#63b8ff" stroke="#63b8ff" points="227.28,-21.53 236.49,-16.28 226.02,-14.64 227.28,-21.53"/>
</a>
</g>
</g>
</g>
</svg>
</svg>

<style type='text/css'>
<![CDATA[
[data-mouse-over-selected='false'] { opacity: 0.7; }
[data-mouse-over-selected='true']  { opacity: 1.0; }
]]>
</style>
<script type="application/ecmascript"><![CDATA[
document.addEventListener('DOMContentLoaded', (event) => {
  highlightEdges();
  highlightAdjacentNodes();
});
]]></script>
</svg>
