<?xml version="1.0" encoding="UTF-8" standalone="no"?>
<!DOCTYPE svg PUBLIC "-//W3C//DTD SVG 1.1//EN"
 "http://www.w3.org/Graphics/SVG/1.1/DTD/svg11.dtd">
<!-- Generated by graphviz version 12.2.0 (20241103.1931)
 -->
<!-- Title: Lexer::showAllTokens Pages: 1 -->
<svg width="1604pt" height="28pt"
 viewBox="0.00 0.00 1604.25 28.00" xmlns="http://www.w3.org/2000/svg" xmlns:xlink="http://www.w3.org/1999/xlink">
<g id="graph0" class="graph" transform="scale(1 1) rotate(0) translate(4 24)">
<title>Lexer::showAllTokens</title>
<!-- Node1 -->
<g id="Node000001" class="node">
<title>Node1</title>
<g id="a_Node000001"><a xlink:title=" ">
<polygon fill="#999999" stroke="#666666" points="1596.25,-20 1484.25,-20 1484.25,0 1596.25,0 1596.25,-20"/>
<text text-anchor="middle" x="1540.25" y="-6.5" font-family="Helvetica,sans-Serif" font-size="10.00">Lexer::showAllTokens</text>
</a>
</g>
</g>
<!-- Node2 -->
<g id="Node000002" class="node">
<title>Node2</title>
<g id="a_Node000002"><a xlink:href="class_interpretor.html#aa49f073000719629567f5563fc487836" target="_top" xlink:title=" ">
<polygon fill="white" stroke="#666666" points="1448.25,-20 1318.25,-20 1318.25,0 1448.25,0 1448.25,-20"/>
<text text-anchor="middle" x="1383.25" y="-6.5" font-family="Helvetica,sans-Serif" font-size="10.00">Interpretor::createMainTag</text>
</a>
</g>
</g>
<!-- Node1&#45;&gt;Node2 -->
<g id="edge1_Node000001_Node000002" class="edge">
<title>Node1&#45;&gt;Node2</title>
<g id="a_edge1_Node000001_Node000002"><a xlink:title=" ">
<path fill="none" stroke="#63b8ff" d="M1472.67,-10C1464.72,-10 1456.61,-10 1448.69,-10"/>
<polygon fill="#63b8ff" stroke="#63b8ff" points="1472.65,-13.5 1482.65,-10 1472.65,-6.5 1472.65,-13.5"/>
</a>
</g>
</g>
<!-- Node3 -->
<g id="Node000003" class="node">
<title>Node3</title>
<g id="a_Node000003"><a xlink:href="class_interpretor.html#a860d7cc665a3202f6f462dc1293fe5e6" target="_top" xlink:title=" ">
<polygon fill="white" stroke="#666666" points="1282.25,-20 1148.5,-20 1148.5,0 1282.25,0 1282.25,-20"/>
<text text-anchor="middle" x="1215.38" y="-6.5" font-family="Helvetica,sans-Serif" font-size="10.00">Interpretor::readActivityFile</text>
</a>
</g>
</g>
<!-- Node2&#45;&gt;Node3 -->
<g id="edge2_Node000002_Node000003" class="edge">
<title>Node2&#45;&gt;Node3</title>
<g id="a_edge2_Node000002_Node000003"><a xlink:title=" ">
<path fill="none" stroke="#63b8ff" d="M1306.78,-10C1298.69,-10 1290.5,-10 1282.53,-10"/>
<polygon fill="#63b8ff" stroke="#63b8ff" points="1306.6,-13.5 1316.6,-10 1306.6,-6.5 1306.6,-13.5"/>
</a>
</g>
</g>
<!-- Node4 -->
<g id="Node000004" class="node">
<title>Node4</title>
<g id="a_Node000004"><a xlink:href="class_my_frame.html#a6e0ebad55b1d785b586997826c512f7d" target="_top" xlink:title=" ">
<polygon fill="white" stroke="#666666" points="1112.5,-20 999,-20 999,0 1112.5,0 1112.5,-20"/>
<text text-anchor="middle" x="1055.75" y="-6.5" font-family="Helvetica,sans-Serif" font-size="10.00">MyFrame::getMainTag</text>
</a>
</g>
</g>
<!-- Node3&#45;&gt;Node4 -->
<g id="edge3_Node000003_Node000004" class="edge">
<title>Node3&#45;&gt;Node4</title>
<g id="a_edge3_Node000003_Node000004"><a xlink:title=" ">
<path fill="none" stroke="#63b8ff" d="M1137.01,-10C1128.88,-10 1120.74,-10 1112.92,-10"/>
<polygon fill="#63b8ff" stroke="#63b8ff" points="1136.93,-13.5 1146.93,-10 1136.93,-6.5 1136.93,-13.5"/>
</a>
</g>
</g>
<!-- Node5 -->
<g id="Node000005" class="node">
<title>Node5</title>
<g id="a_Node000005"><a xlink:href="class_my_frame.html#abb986879321b4dceaffb43eae82e37f1" target="_top" xlink:title=" ">
<polygon fill="white" stroke="#666666" points="963,-20 827,-20 827,0 963,0 963,-20"/>
<text text-anchor="middle" x="895" y="-6.5" font-family="Helvetica,sans-Serif" font-size="10.00">MyFrame::createPanelTags</text>
</a>
</g>
</g>
<!-- Node4&#45;&gt;Node5 -->
<g id="edge4_Node000004_Node000005" class="edge">
<title>Node4&#45;&gt;Node5</title>
<g id="a_edge4_Node000004_Node000005"><a xlink:title=" ">
<path fill="none" stroke="#63b8ff" d="M987.34,-10C979.43,-10 971.35,-10 963.44,-10"/>
<polygon fill="#63b8ff" stroke="#63b8ff" points="987.27,-13.5 997.27,-10 987.27,-6.5 987.27,-13.5"/>
</a>
</g>
</g>
<!-- Node6 -->
<g id="Node000006" class="node">
<title>Node6</title>
<g id="a_Node000006"><a xlink:href="class_my_frame.html#a7795237fe8d78e10023b2e078f9728e3" target="_top" xlink:title=" ">
<polygon fill="white" stroke="#666666" points="791,-20 642.25,-20 642.25,0 791,0 791,-20"/>
<text text-anchor="middle" x="716.62" y="-6.5" font-family="Helvetica,sans-Serif" font-size="10.00">MyFrame::setProgramWindow</text>
</a>
</g>
</g>
<!-- Node5&#45;&gt;Node6 -->
<g id="edge5_Node000005_Node000006" class="edge">
<title>Node5&#45;&gt;Node6</title>
<g id="a_edge5_Node000005_Node000006"><a xlink:title=" ">
<path fill="none" stroke="#63b8ff" d="M815.14,-10C807.27,-10 799.3,-10 791.49,-10"/>
<polygon fill="#63b8ff" stroke="#63b8ff" points="815.05,-13.5 825.05,-10 815.05,-6.5 815.05,-13.5"/>
</a>
</g>
</g>
<!-- Node7 -->
<g id="Node000007" class="node">
<title>Node7</title>
<g id="a_Node000007"><a xlink:href="class_my_frame.html#a72b4f4c02d1a12561c4cc1f5f7685db8" target="_top" xlink:title=" ">
<polygon fill="white" stroke="#666666" points="606.25,-20 468,-20 468,0 606.25,0 606.25,-20"/>
<text text-anchor="middle" x="537.12" y="-6.5" font-family="Helvetica,sans-Serif" font-size="10.00">MyFrame::setProgramPanel</text>
</a>
</g>
</g>
<!-- Node6&#45;&gt;Node7 -->
<g id="edge6_Node000006_Node000007" class="edge">
<title>Node6&#45;&gt;Node7</title>
<g id="a_edge6_Node000006_Node000007"><a xlink:title=" ">
<path fill="none" stroke="#63b8ff" d="M630.55,-10C622.49,-10 614.39,-10 606.51,-10"/>
<polygon fill="#63b8ff" stroke="#63b8ff" points="630.38,-13.5 640.38,-10 630.38,-6.5 630.38,-13.5"/>
</a>
</g>
</g>
<!-- Node8 -->
<g id="Node000008" class="node">
<title>Node8</title>
<g id="a_Node000008"><a xlink:href="class_my_frame.html#a0281cb45b6735fcbd2c885d98c874d18" target="_top" xlink:title=" ">
<polygon fill="white" stroke="#666666" points="432,-20 299,-20 299,0 432,0 432,-20"/>
<text text-anchor="middle" x="365.5" y="-6.5" font-family="Helvetica,sans-Serif" font-size="10.00">MyFrame::setBottomPanel</text>
</a>
</g>
</g>
<!-- Node7&#45;&gt;Node8 -->
<g id="edge7_Node000007_Node000008" class="edge">
<title>Node7&#45;&gt;Node8</title>
<g id="a_edge7_Node000007_Node000008"><a xlink:title=" ">
<path fill="none" stroke="#63b8ff" d="M456.3,-10C448.24,-10 440.12,-10 432.23,-10"/>
<polygon fill="#63b8ff" stroke="#63b8ff" points="456.11,-13.5 466.11,-10 456.11,-6.5 456.11,-13.5"/>
</a>
</g>
</g>
<!-- Node9 -->
<g id="Node000009" class="node">
<title>Node9</title>
<g id="a_Node000009"><a xlink:href="class_my_frame.html#a774684146b2b14e42891f6d8b8a73912" target="_top" xlink:title=" ">
<polygon fill="white" stroke="#666666" points="263,-20 140.5,-20 140.5,0 263,0 263,-20"/>
<text text-anchor="middle" x="201.75" y="-6.5" font-family="Helvetica,sans-Serif" font-size="10.00">MyFrame::setMainPanel</text>
</a>
</g>
</g>
<!-- Node8&#45;&gt;Node9 -->
<g id="edge8_Node000008_Node000009" class="edge">
<title>Node8&#45;&gt;Node9</title>
<g id="a_edge8_Node000008_Node000009"><a xlink:title=" ">
<path fill="none" stroke="#63b8ff" d="M287.35,-10C279.26,-10 271.13,-10 263.27,-10"/>
<polygon fill="#63b8ff" stroke="#63b8ff" points="287.2,-13.5 297.2,-10 287.2,-6.5 287.2,-13.5"/>
</a>
</g>
</g>
<!-- Node10 -->
<g id="Node000010" class="node">
<title>Node10</title>
<g id="a_Node000010"><a xlink:href="class_my_frame.html#af13d7bffe3d6844c2331085f423764a4" target="_top" xlink:title=" ">
<polygon fill="white" stroke="#666666" points="104.5,-20 0,-20 0,0 104.5,0 104.5,-20"/>
<text text-anchor="middle" x="52.25" y="-6.5" font-family="Helvetica,sans-Serif" font-size="10.00">MyFrame::MyFrame</text>
</a>
</g>
</g>
<!-- Node9&#45;&gt;Node10 -->
<g id="edge9_Node000009_Node000010" class="edge">
<title>Node9&#45;&gt;Node10</title>
<g id="a_edge9_Node000009_Node000010"><a xlink:title=" ">
<path fill="none" stroke="#63b8ff" d="M128.91,-10C120.79,-10 112.64,-10 104.85,-10"/>
<polygon fill="#63b8ff" stroke="#63b8ff" points="128.82,-13.5 138.82,-10 128.82,-6.5 128.82,-13.5"/>
</a>
</g>
</g>
</g>
</svg>
