<?xml version="1.0" encoding="UTF-8" standalone="no"?>
<!DOCTYPE svg PUBLIC "-//W3C//DTD SVG 1.1//EN"
 "http://www.w3.org/Graphics/SVG/1.1/DTD/svg11.dtd">
<!-- Generated by graphviz version 12.2.0 (20241103.1931)
 -->
<!-- Title: TemplateToken::addTimeType Pages: 1 -->
<svg width="626pt" height="104pt"
 viewBox="0.00 0.00 625.50 104.00" xmlns="http://www.w3.org/2000/svg" xmlns:xlink="http://www.w3.org/1999/xlink">
<g id="graph0" class="graph" transform="scale(1 1) rotate(0) translate(4 100)">
<title>TemplateToken::addTimeType</title>
<!-- Node1 -->
<g id="Node000001" class="node">
<title>Node1</title>
<g id="a_Node000001"><a xlink:title=" ">
<polygon fill="#999999" stroke="#666666" points="146.5,-58 0,-58 0,-38 146.5,-38 146.5,-58"/>
<text text-anchor="middle" x="73.25" y="-44.5" font-family="Helvetica,sans-Serif" font-size="10.00">TemplateToken::addTimeType</text>
</a>
</g>
</g>
<!-- Node2 -->
<g id="Node000002" class="node">
<title>Node2</title>
<g id="a_Node000002"><a xlink:href="class_template_token.html#ac4146f0f59ba02482abb40679265e21d" target="_top" xlink:title=" ">
<polygon fill="white" stroke="#666666" points="307.25,-58 182.5,-58 182.5,-38 307.25,-38 307.25,-58"/>
<text text-anchor="middle" x="244.88" y="-44.5" font-family="Helvetica,sans-Serif" font-size="10.00">TemplateToken::addType</text>
</a>
</g>
</g>
<!-- Node1&#45;&gt;Node2 -->
<g id="edge1_Node000001_Node000002" class="edge">
<title>Node1&#45;&gt;Node2</title>
<g id="a_edge1_Node000001_Node000002"><a xlink:title=" ">
<path fill="none" stroke="#63b8ff" d="M146.68,-48C154.6,-48 162.68,-48 170.61,-48"/>
<polygon fill="#63b8ff" stroke="#63b8ff" points="170.59,-51.5 180.59,-48 170.59,-44.5 170.59,-51.5"/>
</a>
</g>
</g>
<!-- Node3 -->
<g id="Node000003" class="node">
<title>Node3</title>
<g id="a_Node000003"><a xlink:href="class_template_token.html#ad981d8ad4aeb0162d344d334ff3ac0f3" target="_top" xlink:title=" ">
<polygon fill="white" stroke="#666666" points="468,-96 343.25,-96 343.25,-76 468,-76 468,-96"/>
<text text-anchor="middle" x="405.62" y="-82.5" font-family="Helvetica,sans-Serif" font-size="10.00">TemplateToken::addError</text>
</a>
</g>
</g>
<!-- Node2&#45;&gt;Node3 -->
<g id="edge2_Node000002_Node000003" class="edge">
<title>Node2&#45;&gt;Node3</title>
<g id="a_edge2_Node000002_Node000003"><a xlink:title=" ">
<path fill="none" stroke="#63b8ff" d="M289.67,-58.48C308.33,-62.95 330.28,-68.21 349.98,-72.92"/>
<polygon fill="#63b8ff" stroke="#63b8ff" points="348.96,-76.27 359.5,-75.2 350.59,-69.47 348.96,-76.27"/>
</a>
</g>
</g>
<!-- Node5 -->
<g id="Node000005" class="node">
<title>Node5</title>
<g id="a_Node000005"><a xlink:href="class_iterator_list.html#a4acf162e4a194bddd3c2fe26b073f45a" target="_top" xlink:title=" ">
<polygon fill="white" stroke="#666666" points="468,-58 343.25,-58 343.25,-38 468,-38 468,-58"/>
<text text-anchor="middle" x="405.62" y="-44.5" font-family="Helvetica,sans-Serif" font-size="10.00">IteratorList::currentToken</text>
</a>
</g>
</g>
<!-- Node2&#45;&gt;Node5 -->
<g id="edge4_Node000002_Node000005" class="edge">
<title>Node2&#45;&gt;Node5</title>
<g id="a_edge4_Node000002_Node000005"><a xlink:title=" ">
<path fill="none" stroke="#63b8ff" d="M307.71,-48C315.58,-48 323.69,-48 331.71,-48"/>
<polygon fill="#63b8ff" stroke="#63b8ff" points="331.45,-51.5 341.45,-48 331.45,-44.5 331.45,-51.5"/>
</a>
</g>
</g>
<!-- Node6 -->
<g id="Node000006" class="node">
<title>Node6</title>
<g id="a_Node000006"><a xlink:href="class_iterator_list.html#a2ebc1118094754b7d333b0a9d257d12b" target="_top" xlink:title=" ">
<polygon fill="white" stroke="#666666" points="453,-20 358.25,-20 358.25,0 453,0 453,-20"/>
<text text-anchor="middle" x="405.62" y="-6.5" font-family="Helvetica,sans-Serif" font-size="10.00">IteratorList::ended</text>
</a>
</g>
</g>
<!-- Node2&#45;&gt;Node6 -->
<g id="edge5_Node000002_Node000006" class="edge">
<title>Node2&#45;&gt;Node6</title>
<g id="a_edge5_Node000002_Node000006"><a xlink:title=" ">
<path fill="none" stroke="#63b8ff" d="M289.67,-37.52C308.33,-33.05 330.28,-27.79 349.98,-23.08"/>
<polygon fill="#63b8ff" stroke="#63b8ff" points="350.59,-26.53 359.5,-20.8 348.96,-19.73 350.59,-26.53"/>
</a>
</g>
</g>
<!-- Node4 -->
<g id="Node000004" class="node">
<title>Node4</title>
<g id="a_Node000004"><a xlink:href="class_token_result.html#af997915a62dcb5643b9d61b78a22c9f4" target="_top" xlink:title=" ">
<polygon fill="white" stroke="#666666" points="617.5,-96 504,-96 504,-76 617.5,-76 617.5,-96"/>
<text text-anchor="middle" x="560.75" y="-82.5" font-family="Helvetica,sans-Serif" font-size="10.00">TokenResult::addError</text>
</a>
</g>
</g>
<!-- Node3&#45;&gt;Node4 -->
<g id="edge3_Node000003_Node000004" class="edge">
<title>Node3&#45;&gt;Node4</title>
<g id="a_edge3_Node000003_Node000004"><a xlink:title=" ">
<path fill="none" stroke="#63b8ff" d="M468.47,-86C476.27,-86 484.29,-86 492.18,-86"/>
<polygon fill="#63b8ff" stroke="#63b8ff" points="492.1,-89.5 502.1,-86 492.1,-82.5 492.1,-89.5"/>
</a>
</g>
</g>
</g>
</svg>
