<?xml version="1.0" encoding="UTF-8" standalone="no"?>
<!DOCTYPE svg PUBLIC "-//W3C//DTD SVG 1.1//EN"
 "http://www.w3.org/Graphics/SVG/1.1/DTD/svg11.dtd">
<!-- Generated by graphviz version 12.2.0 (20241103.1931)
 -->
<!-- Title: FlowTagPanel::insertChild Pages: 1 -->
<!--zoomable 161 -->

<svg id="main" version="1.1" xmlns="http://www.w3.org/2000/svg" xmlns:xlink="http://www.w3.org/1999/xlink" xml:space="preserve" onload="init(evt)">

<style type="text/css"><![CDATA[
.node, .edge {opacity: 0.7;}
.node.selected, .edge.selected {opacity: 1;}
.edge:hover path { stroke: red; }
.edge:hover polygon { stroke: red; fill: red; }
]]></style>

<defs>
  <circle id="rim" cx="0" cy="0" r="7"/>
  <circle id="rim2" cx="0" cy="0" r="3.5"/>
  <g id="zoomPlus">
    <use xlink:href="#rim" fill="#404040"><set attributeName="fill" to="#808080" begin="zoomplus.mouseover" end="zoomplus.mouseout"/></use>
    <path d="M-4,0h8M0,-4v8" fill="none" stroke="white" stroke-width="1.5" pointer-events="none"/>
  </g>
  <g id="zoomMin">
    <use xlink:href="#rim" fill="#404040"><set attributeName="fill" to="#808080" begin="zoomminus.mouseover" end="zoomminus.mouseout"/></use>
    <path d="M-4,0h8" fill="none" stroke="white" stroke-width="1.5" pointer-events="none"/>
  </g>
  <g id="arrowUp" transform="translate(30 24)">
    <use xlink:href="#rim"/>
    <path pointer-events="none" fill="none" stroke="white" stroke-width="1.5" d="M0,-3.0v7 M-2.5,-0.5L0,-3.0L2.5,-0.5"/>
  </g>
  <g id="arrowRight" transform="rotate(90) translate(36 -43)">
    <use xlink:href="#rim"/>
    <path pointer-events="none" fill="none" stroke="white" stroke-width="1.5" d="M0,-3.0v7 M-2.5,-0.5L0,-3.0L2.5,-0.5"/>
  </g>
  <g id="arrowDown" transform="rotate(180) translate(-30 -48)">
    <use xlink:href="#rim"/>
    <path pointer-events="none" fill="none" stroke="white" stroke-width="1.5" d="M0,-3.0v7 M-2.5,-0.5L0,-3.0L2.5,-0.5"/>
  </g>
  <g id="arrowLeft" transform="rotate(270) translate(-36 17)">
    <use xlink:href="#rim"/>
    <path pointer-events="none" fill="none" stroke="white" stroke-width="1.5" d="M0,-3.0v7 M-2.5,-0.5L0,-3.0L2.5,-0.5"/>
  </g>
  <g id="resetDef">
    <use xlink:href="#rim2" fill="#404040"><set attributeName="fill" to="#808080" begin="reset.mouseover" end="reset.mouseout"/></use>
  </g>
</defs>
<script type="application/ecmascript">
var viewWidth = 865;
var viewHeight = 161;
var sectionId = 'dynsection-46';
</script>
<script type="application/ecmascript" xlink:href="svg.min.js"/>
<svg id="graph" class="graph">
<g id="viewport">
<title>FlowTagPanel::insertChild</title>
<!-- Node1 -->
<g id="Node000001" class="node">
<title>Node1</title>
<g id="a_Node000001"><a xlink:title=" ">
<polygon fill="#999999" stroke="#666666" points="130,-96 0,-96 0,-76 130,-76 130,-96"/>
<text text-anchor="middle" x="65" y="-82.5" font-family="Helvetica,sans-Serif" font-size="10.00">FlowTagPanel::insertChild</text>
</a>
</g>
</g>
<!-- Node2 -->
<g id="Node000002" class="node">
<title>Node2</title>
<g id="a_Node000002"><a xlink:href="class_flow_tag_panel.html#aa81a6c6c05a02665ceef5ee70dfe8552" target="_top" xlink:title=" ">
<polygon fill="white" stroke="#666666" points="317.38,-153 174.62,-153 174.62,-133 317.38,-133 317.38,-153"/>
<text text-anchor="middle" x="246" y="-139.5" font-family="Helvetica,sans-Serif" font-size="10.00">FlowTagPanel::containsChild</text>
</a>
</g>
</g>
<!-- Node1&#45;&gt;Node2 -->
<g id="edge1_Node000001_Node000002" class="edge">
<title>Node1&#45;&gt;Node2</title>
<g id="a_edge1_Node000001_Node000002"><a xlink:title=" ">
<path fill="none" stroke="#63b8ff" d="M90.76,-96.42C110.81,-104.61 139.91,-115.94 166,-124 172.55,-126.02 179.45,-127.96 186.34,-129.77"/>
<polygon fill="#63b8ff" stroke="#63b8ff" points="185.09,-133.07 195.64,-132.14 186.82,-126.28 185.09,-133.07"/>
</a>
</g>
</g>
<!-- Node4 -->
<g id="Node000004" class="node">
<title>Node4</title>
<g id="a_Node000004"><a xlink:href="class_flow_tag_panel.html#a63038ffcf254ad71b547d31456a0fd2f" target="_top" xlink:title=" ">
<polygon fill="white" stroke="#666666" points="323.38,-115 168.62,-115 168.62,-95 323.38,-95 323.38,-115"/>
<text text-anchor="middle" x="246" y="-101.5" font-family="Helvetica,sans-Serif" font-size="10.00">FlowTagPanel::hideEmptyPanel</text>
</a>
</g>
</g>
<!-- Node1&#45;&gt;Node4 -->
<g id="edge3_Node000001_Node000004" class="edge">
<title>Node1&#45;&gt;Node4</title>
<g id="a_edge3_Node000001_Node000004"><a xlink:title=" ">
<path fill="none" stroke="#63b8ff" d="M130.37,-92.83C139.04,-93.75 148.05,-94.71 157.04,-95.66"/>
<polygon fill="#63b8ff" stroke="#63b8ff" points="156.57,-99.13 166.88,-96.71 157.31,-92.17 156.57,-99.13"/>
</a>
</g>
</g>
<!-- Node5 -->
<g id="Node000005" class="node">
<title>Node5</title>
<g id="a_Node000005"><a xlink:href="class_flow_tag_panel.html#a3ed9948e56d17d5b28c2c8708a90bea2" target="_top" xlink:title=" ">
<polygon fill="white" stroke="#666666" points="305.75,-77 186.25,-77 186.25,-57 305.75,-57 305.75,-77"/>
<text text-anchor="middle" x="246" y="-63.5" font-family="Helvetica,sans-Serif" font-size="10.00">FlowTagPanel::isEmpty</text>
</a>
</g>
</g>
<!-- Node1&#45;&gt;Node5 -->
<g id="edge4_Node000001_Node000005" class="edge">
<title>Node1&#45;&gt;Node5</title>
<g id="a_edge4_Node000001_Node000005"><a xlink:title=" ">
<path fill="none" stroke="#63b8ff" d="M130.37,-79.17C144.83,-77.63 160.24,-76 174.91,-74.44"/>
<polygon fill="#63b8ff" stroke="#63b8ff" points="174.89,-77.96 184.46,-73.43 174.15,-71 174.89,-77.96"/>
</a>
</g>
</g>
<!-- Node7 -->
<g id="Node000007" class="node">
<title>Node7</title>
<g id="a_Node000007"><a xlink:href="class_flow_tag_panel.html#ad1a55f7e5c1eb22bed92049643bb75b9" target="_top" xlink:title=" ">
<polygon fill="white" stroke="#666666" points="326,-39 166,-39 166,-19 326,-19 326,-39"/>
<text text-anchor="middle" x="246" y="-25.5" font-family="Helvetica,sans-Serif" font-size="10.00">FlowTagPanel::showEmptyPanel</text>
</a>
</g>
</g>
<!-- Node1&#45;&gt;Node7 -->
<g id="edge6_Node000001_Node000007" class="edge">
<title>Node1&#45;&gt;Node7</title>
<g id="a_edge6_Node000001_Node000007"><a xlink:title=" ">
<path fill="none" stroke="#63b8ff" d="M90.76,-75.58C110.81,-67.39 139.91,-56.06 166,-48 172.55,-45.98 179.45,-44.04 186.34,-42.23"/>
<polygon fill="#63b8ff" stroke="#63b8ff" points="186.82,-45.72 195.64,-39.86 185.09,-38.93 186.82,-45.72"/>
</a>
</g>
</g>
<!-- Node3 -->
<g id="Node000003" class="node">
<title>Node3</title>
<g id="a_Node000003"><a xlink:href="class_flow_tag_panel.html#aaa4b6f8ffb98f825f255cdd2017fc17a" target="_top" xlink:title=" ">
<polygon fill="white" stroke="#666666" points="499.5,-153 378.5,-153 378.5,-133 499.5,-133 499.5,-153"/>
<text text-anchor="middle" x="439" y="-139.5" font-family="Helvetica,sans-Serif" font-size="10.00">FlowTagPanel::getIndex</text>
</a>
</g>
</g>
<!-- Node2&#45;&gt;Node3 -->
<g id="edge2_Node000002_Node000003" class="edge">
<title>Node2&#45;&gt;Node3</title>
<g id="a_edge2_Node000002_Node000003"><a xlink:title=" ">
<path fill="none" stroke="#63b8ff" d="M317.85,-143C333.83,-143 350.79,-143 366.78,-143"/>
<polygon fill="#63b8ff" stroke="#63b8ff" points="366.71,-146.5 376.71,-143 366.71,-139.5 366.71,-146.5"/>
</a>
</g>
</g>
<!-- Node6 -->
<g id="Node000006" class="node">
<title>Node6</title>
<g id="a_Node000006"><a xlink:href="class_flow_tag_panel.html#a908b8a9b0319c8c60588dff9296e9baf" target="_top" xlink:title=" ">
<polygon fill="white" stroke="#666666" points="516,-77 362,-77 362,-57 516,-57 516,-77"/>
<text text-anchor="middle" x="439" y="-63.5" font-family="Helvetica,sans-Serif" font-size="10.00">FlowTagPanel::getChildrenTags</text>
</a>
</g>
</g>
<!-- Node5&#45;&gt;Node6 -->
<g id="edge5_Node000005_Node000006" class="edge">
<title>Node5&#45;&gt;Node6</title>
<g id="a_edge5_Node000005_Node000006"><a xlink:title=" ">
<path fill="none" stroke="#63b8ff" d="M306.13,-67C320.09,-67 335.28,-67 350.22,-67"/>
<polygon fill="#63b8ff" stroke="#63b8ff" points="350.05,-70.5 360.05,-67 350.05,-63.5 350.05,-70.5"/>
</a>
</g>
</g>
<!-- Node8 -->
<g id="Node000008" class="node">
<title>Node8</title>
<g id="a_Node000008"><a xlink:href="class_flow_tag_panel.html#a24aede4ad59f41a079d4c38e26955d55" target="_top" xlink:title=" ">
<polygon fill="white" stroke="#666666" points="499.88,-39 378.12,-39 378.12,-19 499.88,-19 499.88,-39"/>
<text text-anchor="middle" x="439" y="-25.5" font-family="Helvetica,sans-Serif" font-size="10.00">FlowTagPanel::addChild</text>
</a>
</g>
</g>
<!-- Node7&#45;&gt;Node8 -->
<g id="edge7_Node000007_Node000008" class="edge">
<title>Node7&#45;&gt;Node8</title>
<g id="a_edge7_Node000007_Node000008"><a xlink:title=" ">
<path fill="none" stroke="#63b8ff" d="M326.34,-29C339.66,-29 353.41,-29 366.51,-29"/>
<polygon fill="#63b8ff" stroke="#63b8ff" points="366.32,-32.5 376.32,-29 366.32,-25.5 366.32,-32.5"/>
</a>
</g>
</g>
<!-- Node9 -->
<g id="Node000009" class="node">
<title>Node9</title>
<g id="a_Node000009"><a xlink:href="class_flow_tag_panel.html#af98215cc2497f7ef7d8e4ed00e94ca33" target="_top" xlink:title=" ">
<polygon fill="white" stroke="#666666" points="682,-39 552,-39 552,-19 682,-19 682,-39"/>
<text text-anchor="middle" x="617" y="-25.5" font-family="Helvetica,sans-Serif" font-size="10.00">FlowTagPanel::insertChild</text>
</a>
</g>
</g>
<!-- Node8&#45;&gt;Node9 -->
<g id="edge8_Node000008_Node000009" class="edge">
<title>Node8&#45;&gt;Node9</title>
<g id="a_edge8_Node000008_Node000009"><a xlink:title=" ">
<path fill="none" stroke="#63b8ff" d="M500.08,-29C513.07,-29 526.97,-29 540.47,-29"/>
<polygon fill="#63b8ff" stroke="#63b8ff" points="540.17,-32.5 550.17,-29 540.17,-25.5 540.17,-32.5"/>
</a>
</g>
</g>
<!-- Node9&#45;&gt;Node9 -->
<g id="edge11_Node000009_Node000009" class="edge">
<title>Node9&#45;&gt;Node9</title>
<g id="a_edge11_Node000009_Node000009"><a xlink:title=" ">
<path fill="none" stroke="#63b8ff" d="M589.91,-39.34C578.33,-47.98 587.36,-57 617,-57 633.67,-57 643.82,-54.14 647.45,-50.11"/>
<polygon fill="#63b8ff" stroke="#63b8ff" points="650.86,-49.29 644.54,-40.78 644.18,-51.37 650.86,-49.29"/>
</a>
</g>
</g>
<!-- Node10 -->
<g id="Node000010" class="node">
<title>Node10</title>
<g id="a_Node000010"><a xlink:href="class_tag_panel.html#a975da9b33d0c94992472b291df4aadbe" target="_top" xlink:title=" ">
<polygon fill="white" stroke="#666666" points="842.75,-58 732.25,-58 732.25,-38 842.75,-38 842.75,-58"/>
<text text-anchor="middle" x="787.5" y="-44.5" font-family="Helvetica,sans-Serif" font-size="10.00">TagPanel::getIndexOf</text>
</a>
</g>
</g>
<!-- Node9&#45;&gt;Node10 -->
<g id="edge9_Node000009_Node000010" class="edge">
<title>Node9&#45;&gt;Node10</title>
<g id="a_edge9_Node000009_Node000010"><a xlink:title=" ">
<path fill="none" stroke="#63b8ff" d="M682.18,-36.24C694.72,-37.65 707.88,-39.13 720.47,-40.55"/>
<polygon fill="#63b8ff" stroke="#63b8ff" points="720,-44.02 730.33,-41.67 720.79,-37.07 720,-44.02"/>
</a>
</g>
</g>
<!-- Node11 -->
<g id="Node000011" class="node">
<title>Node11</title>
<g id="a_Node000011"><a xlink:href="class_flow_tag_panel.html#a292d74fbfba61f5c7df90789a9eb31e2" target="_top" xlink:title=" ">
<polygon fill="white" stroke="#666666" points="857,-20 718,-20 718,0 857,0 857,-20"/>
<text text-anchor="middle" x="787.5" y="-6.5" font-family="Helvetica,sans-Serif" font-size="10.00">FlowTagPanel::getSizerItem</text>
</a>
</g>
</g>
<!-- Node9&#45;&gt;Node11 -->
<g id="edge10_Node000009_Node000011" class="edge">
<title>Node9&#45;&gt;Node11</title>
<g id="a_edge10_Node000009_Node000011"><a xlink:title=" ">
<path fill="none" stroke="#63b8ff" d="M682.18,-21.76C690.09,-20.87 698.24,-19.95 706.34,-19.04"/>
<polygon fill="#63b8ff" stroke="#63b8ff" points="706.68,-22.52 716.22,-17.92 705.89,-15.57 706.68,-22.52"/>
</a>
</g>
</g>
</g>
</svg>

<g id="navigator" transform="translate(0 0)" fill="#404254">
  <rect fill="#f2f5e9" fill-opacity="0.5" stroke="#606060" stroke-width=".5" x="0" y="0" width="60" height="60"/>
  <use id="zoomplus" xlink:href="#zoomPlus" x="17" y="9" onmousedown="handleZoom(evt,'in')"/>
  <use id="zoomminus" xlink:href="#zoomMin" x="42" y="9" onmousedown="handleZoom(evt,'out')"/>
  <use id="reset" xlink:href="#resetDef" x="30" y="36" onmousedown="handleReset()"/>
   <use id="arrowup" xlink:href="#arrowUp" x="0" y="0" onmousedown="handlePan(0,-1)"/>
  <use id="arrowright" xlink:href="#arrowRight" x="0" y="0" onmousedown="handlePan(1,0)"/>
  <use id="arrowdown" xlink:href="#arrowDown" x="0" y="0" onmousedown="handlePan(0,1)"/>
  <use id="arrowleft" xlink:href="#arrowLeft" x="0" y="0" onmousedown="handlePan(-1,0)"/>
</g>
<svg viewBox="0 0 15 15" width="100%" height="30px" preserveAspectRatio="xMaxYMin meet">
 <g id="arrow_out" transform="scale(0.3 0.3)">
  <a xlink:href="class_flow_tag_panel_a38bade8b3e467e730e739bce386b5ea0_cgraph_org.svg" target="_base">
   <rect id="button" ry="5" rx="5" y="6" x="6" height="38" width="38"
        fill="#f2f5e9" fill-opacity="0.5" stroke="#606060" stroke-width="1.0"/>
   <path id="arrow"
     d="M 11.500037,31.436501 C 11.940474,20.09759 22.043105,11.32322 32.158766,21.979434 L 37.068811,17.246167 C 37.068811,17.246167 37.088388,32 37.088388,32 L 22.160133,31.978069 C 22.160133,31.978069 26.997745,27.140456 26.997745,27.140456 C 18.528582,18.264221 13.291696,25.230495 11.500037,31.436501 z"
     style="fill:#404040;"/>
  </a>
 </g>
</svg>

<style type='text/css'>
<![CDATA[
[data-mouse-over-selected='false'] { opacity: 0.7; }
[data-mouse-over-selected='true']  { opacity: 1.0; }
]]>
</style>
<script type="application/ecmascript"><![CDATA[
document.addEventListener('DOMContentLoaded', (event) => {
  highlightEdges();
  highlightAdjacentNodes();
});
]]></script>
</svg>
