<?xml version="1.0" encoding="UTF-8" standalone="no"?>
<!DOCTYPE svg PUBLIC "-//W3C//DTD SVG 1.1//EN"
 "http://www.w3.org/Graphics/SVG/1.1/DTD/svg11.dtd">
<!-- Generated by graphviz version 12.2.0 (20241103.1931)
 -->
<!-- Title: IfTagPanel Pages: 1 -->
<svg width="276pt" height="1575pt"
 viewBox="0.00 0.00 275.88 1575.00" xmlns="http://www.w3.org/2000/svg" xmlns:xlink="http://www.w3.org/1999/xlink">
<g id="graph0" class="graph" transform="scale(1 1) rotate(0) translate(4 1571)">
<title>IfTagPanel</title>
<!-- Node1 -->
<g id="Node000001" class="node">
<title>Node1</title>
<g id="a_Node000001"><a xlink:title=" ">
<polygon fill="#999999" stroke="none" points="172.12,-180 31.12,-180 31.12,0 172.12,0 172.12,-180"/>
<text text-anchor="start" x="78.38" y="-166.5" font-family="Helvetica,sans-Serif" font-size="10.00">IfTagPanel</text>
<text text-anchor="start" x="100.12" y="-150.5" font-family="Helvetica,sans-Serif" font-size="10.00"> </text>
<text text-anchor="start" x="35.12" y="-134.5" font-family="Helvetica,sans-Serif" font-size="10.00">+</text>
<text text-anchor="start" x="45.12" y="-134.5" font-family="Helvetica,sans-Serif" font-size="10.00">IfTagPanel(wxWindow</text>
<text text-anchor="start" x="45.12" y="-122.5" font-family="Helvetica,sans-Serif" font-size="10.00"> *parentWindow)</text>
<text text-anchor="start" x="35.12" y="-106.5" font-family="Helvetica,sans-Serif" font-size="10.00">+</text>
<text text-anchor="start" x="45.12" y="-106.5" font-family="Helvetica,sans-Serif" font-size="10.00">IfTagPanel * clone</text>
<text text-anchor="start" x="45.12" y="-94.5" font-family="Helvetica,sans-Serif" font-size="10.00">() override</text>
<text text-anchor="start" x="35.12" y="-78.5" font-family="Helvetica,sans-Serif" font-size="10.00">+</text>
<text text-anchor="start" x="45.12" y="-78.5" font-family="Helvetica,sans-Serif" font-size="10.00">IfTagPanel(const IfTagPanel</text>
<text text-anchor="start" x="45.12" y="-66.5" font-family="Helvetica,sans-Serif" font-size="10.00"> &amp;toCopy)</text>
<text text-anchor="start" x="35.12" y="-50.5" font-family="Helvetica,sans-Serif" font-size="10.00">+</text>
<text text-anchor="start" x="45.12" y="-50.5" font-family="Helvetica,sans-Serif" font-size="10.00">void setPanelColor</text>
<text text-anchor="start" x="45.12" y="-38.5" font-family="Helvetica,sans-Serif" font-size="10.00">() override</text>
<text text-anchor="start" x="35.12" y="-22.5" font-family="Helvetica,sans-Serif" font-size="10.00">+</text>
<text text-anchor="start" x="45.12" y="-22.5" font-family="Helvetica,sans-Serif" font-size="10.00">void setTagLine() override</text>
<text text-anchor="start" x="35.12" y="-6.5" font-family="Helvetica,sans-Serif" font-size="10.00">+</text>
<text text-anchor="start" x="45.12" y="-6.5" font-family="Helvetica,sans-Serif" font-size="10.00">void setTagName() override</text>
<polygon fill="#666666" stroke="#666666" points="31.12,-162 31.12,-162 172.12,-162 172.12,-162 31.12,-162"/>
<polygon fill="#666666" stroke="#666666" points="31.12,-146 31.12,-146 172.12,-146 172.12,-146 31.12,-146"/>
<polygon fill="none" stroke="#666666" points="31.12,0 31.12,-180 172.12,-180 172.12,0 31.12,0"/>
</a>
</g>
</g>
<!-- Node2 -->
<g id="Node000002" class="node">
<title>Node2</title>
<g id="a_Node000002"><a xlink:href="class_flow_tag_panel.html" target="_top" xlink:title=" ">
<polygon fill="white" stroke="none" points="203.25,-597 0,-597 0,-217 203.25,-217 203.25,-597"/>
<text text-anchor="start" x="70.88" y="-583.5" font-family="Helvetica,sans-Serif" font-size="10.00">FlowTagPanel</text>
<text text-anchor="start" x="4.38" y="-567.5" font-family="Helvetica,sans-Serif" font-size="10.00">#</text>
<text text-anchor="start" x="14" y="-567.5" font-family="Helvetica,sans-Serif" font-size="10.00">wxSizerItem * bottomSpacer</text>
<text text-anchor="start" x="4.38" y="-551.5" font-family="Helvetica,sans-Serif" font-size="10.00">#</text>
<text text-anchor="start" x="14" y="-551.5" font-family="Helvetica,sans-Serif" font-size="10.00">int nbFlowParents</text>
<text text-anchor="start" x="4.38" y="-535.5" font-family="Helvetica,sans-Serif" font-size="10.00">#</text>
<text text-anchor="start" x="14" y="-535.5" font-family="Helvetica,sans-Serif" font-size="10.00">wxBoxSizer * childrenSizer</text>
<text text-anchor="start" x="4.38" y="-519.5" font-family="Helvetica,sans-Serif" font-size="10.00">#</text>
<text text-anchor="start" x="14" y="-519.5" font-family="Helvetica,sans-Serif" font-size="10.00">wxButton * hider</text>
<text text-anchor="start" x="4" y="-503.5" font-family="Helvetica,sans-Serif" font-size="10.00">+</text>
<text text-anchor="start" x="14" y="-503.5" font-family="Helvetica,sans-Serif" font-size="10.00">FlowTagPanel(bool</text>
<text text-anchor="start" x="14" y="-491.5" font-family="Helvetica,sans-Serif" font-size="10.00"> topConstructor=true)</text>
<text text-anchor="start" x="4" y="-475.5" font-family="Helvetica,sans-Serif" font-size="10.00">+</text>
<text text-anchor="start" x="14" y="-475.5" font-family="Helvetica,sans-Serif" font-size="10.00">FlowTagPanel(wxWindow</text>
<text text-anchor="start" x="14" y="-463.5" font-family="Helvetica,sans-Serif" font-size="10.00"> *parentWindow, bool topConstructor=true)</text>
<text text-anchor="start" x="4" y="-447.5" font-family="Helvetica,sans-Serif" font-size="10.00">+</text>
<text text-anchor="start" x="14" y="-447.5" font-family="Helvetica,sans-Serif" font-size="10.00">FlowTagPanel(const</text>
<text text-anchor="start" x="14" y="-435.5" font-family="Helvetica,sans-Serif" font-size="10.00"> FlowTagPanel &amp;toCopy,</text>
<text text-anchor="start" x="14" y="-423.5" font-family="Helvetica,sans-Serif" font-size="10.00"> bool topConstructor=true)</text>
<text text-anchor="start" x="4" y="-407.5" font-family="Helvetica,sans-Serif" font-size="10.00">+</text>
<text text-anchor="start" x="14" y="-407.5" font-family="Helvetica,sans-Serif" font-size="10.00">FlowTagPanel * clone</text>
<text text-anchor="start" x="14" y="-395.5" font-family="Helvetica,sans-Serif" font-size="10.00">() override</text>
<text text-anchor="start" x="4" y="-379.5" font-family="Helvetica,sans-Serif" font-size="10.00">+</text>
<text text-anchor="start" x="14" y="-379.5" font-family="Helvetica,sans-Serif" font-size="10.00">~FlowTagPanel()</text>
<text text-anchor="start" x="4" y="-363.5" font-family="Helvetica,sans-Serif" font-size="10.00">+</text>
<text text-anchor="start" x="14" y="-363.5" font-family="Helvetica,sans-Serif" font-size="10.00">void initChildrenSizer()</text>
<text text-anchor="start" x="4" y="-347.5" font-family="Helvetica,sans-Serif" font-size="10.00">+</text>
<text text-anchor="start" x="14" y="-347.5" font-family="Helvetica,sans-Serif" font-size="10.00">void cloneChildren</text>
<text text-anchor="start" x="14" y="-335.5" font-family="Helvetica,sans-Serif" font-size="10.00">(const FlowTagPanel</text>
<text text-anchor="start" x="14" y="-323.5" font-family="Helvetica,sans-Serif" font-size="10.00"> *toCopy)</text>
<text text-anchor="start" x="4" y="-307.5" font-family="Helvetica,sans-Serif" font-size="10.00">+</text>
<text text-anchor="start" x="14" y="-307.5" font-family="Helvetica,sans-Serif" font-size="10.00">void addComponents</text>
<text text-anchor="start" x="14" y="-295.5" font-family="Helvetica,sans-Serif" font-size="10.00">(TagPanel *tag) override</text>
<text text-anchor="start" x="4" y="-279.5" font-family="Helvetica,sans-Serif" font-size="10.00">+</text>
<text text-anchor="start" x="14" y="-279.5" font-family="Helvetica,sans-Serif" font-size="10.00">void addChild(TagPanel</text>
<text text-anchor="start" x="14" y="-267.5" font-family="Helvetica,sans-Serif" font-size="10.00"> *childrenTag)</text>
<text text-anchor="start" x="4" y="-251.5" font-family="Helvetica,sans-Serif" font-size="10.00">+</text>
<text text-anchor="start" x="14" y="-251.5" font-family="Helvetica,sans-Serif" font-size="10.00">void switchFlowTagVisibility</text>
<text text-anchor="start" x="14" y="-239.5" font-family="Helvetica,sans-Serif" font-size="10.00">(wxMouseEvent &amp;evt)</text>
<text text-anchor="start" x="14" y="-223.5" font-family="Helvetica,sans-Serif" font-size="10.00">and 46 more...</text>
<polygon fill="#666666" stroke="#666666" points="0,-579 0,-579 203.25,-579 203.25,-579 0,-579"/>
<polygon fill="#666666" stroke="#666666" points="0,-515 0,-515 12,-515 12,-515 0,-515"/>
<polygon fill="#666666" stroke="#666666" points="12,-515 12,-515 203.25,-515 203.25,-515 12,-515"/>
<polygon fill="none" stroke="#666666" points="0,-217 0,-597 203.25,-597 203.25,-217 0,-217"/>
</a>
</g>
</g>
<!-- Node2&#45;&gt;Node1 -->
<g id="edge1_Node000001_Node000002" class="edge">
<title>Node2&#45;&gt;Node1</title>
<g id="a_edge1_Node000001_Node000002"><a xlink:title=" ">
<path fill="none" stroke="#63b8ff" d="M101.62,-205.84C101.62,-196.87 101.62,-188.09 101.62,-179.65"/>
<polygon fill="none" stroke="#63b8ff" points="98.13,-205.79 101.63,-215.79 105.13,-205.79 98.13,-205.79"/>
</a>
</g>
</g>
<!-- Node3 -->
<g id="Node000003" class="node">
<title>Node3</title>
<g id="a_Node000003"><a xlink:href="class_tag_panel.html" target="_top" xlink:title=" ">
<polygon fill="white" stroke="none" points="185.38,-1478 9.88,-1478 9.88,-862 185.38,-862 185.38,-1478"/>
<text text-anchor="start" x="77.38" y="-1464.5" font-family="Helvetica,sans-Serif" font-size="10.00">TagPanel</text>
<text text-anchor="start" x="13.88" y="-1448.5" font-family="Helvetica,sans-Serif" font-size="10.00">+</text>
<text text-anchor="start" x="23.88" y="-1448.5" font-family="Helvetica,sans-Serif" font-size="10.00">HoverPosition previousHover</text>
<text text-anchor="start" x="13.88" y="-1432.5" font-family="Helvetica,sans-Serif" font-size="10.00">+</text>
<text text-anchor="start" x="23.88" y="-1432.5" font-family="Helvetica,sans-Serif" font-size="10.00">bool isInserting</text>
<text text-anchor="start" x="13.88" y="-1416.5" font-family="Helvetica,sans-Serif" font-size="10.00">+</text>
<text text-anchor="start" x="23.88" y="-1416.5" font-family="Helvetica,sans-Serif" font-size="10.00">bool isHovering</text>
<text text-anchor="start" x="14.25" y="-1400.5" font-family="Helvetica,sans-Serif" font-size="10.00">#</text>
<text text-anchor="start" x="23.88" y="-1400.5" font-family="Helvetica,sans-Serif" font-size="10.00">wxButton * cloneButton</text>
<text text-anchor="start" x="14.25" y="-1384.5" font-family="Helvetica,sans-Serif" font-size="10.00">#</text>
<text text-anchor="start" x="23.88" y="-1384.5" font-family="Helvetica,sans-Serif" font-size="10.00">wxButton * cutButton</text>
<text text-anchor="start" x="14.25" y="-1368.5" font-family="Helvetica,sans-Serif" font-size="10.00">#</text>
<text text-anchor="start" x="23.88" y="-1368.5" font-family="Helvetica,sans-Serif" font-size="10.00">wxButton * moveUpButton</text>
<text text-anchor="start" x="14.25" y="-1352.5" font-family="Helvetica,sans-Serif" font-size="10.00">#</text>
<text text-anchor="start" x="23.88" y="-1352.5" font-family="Helvetica,sans-Serif" font-size="10.00">wxButton * moveDownButton</text>
<text text-anchor="start" x="14.25" y="-1336.5" font-family="Helvetica,sans-Serif" font-size="10.00">#</text>
<text text-anchor="start" x="23.88" y="-1336.5" font-family="Helvetica,sans-Serif" font-size="10.00">wxButton * deleteButton</text>
<text text-anchor="start" x="14.25" y="-1320.5" font-family="Helvetica,sans-Serif" font-size="10.00">#</text>
<text text-anchor="start" x="23.88" y="-1320.5" font-family="Helvetica,sans-Serif" font-size="10.00">wxPoint insertPoint</text>
<text text-anchor="start" x="14.25" y="-1304.5" font-family="Helvetica,sans-Serif" font-size="10.00">#</text>
<text text-anchor="start" x="23.88" y="-1304.5" font-family="Helvetica,sans-Serif" font-size="10.00">wxSize insertRect</text>
<text text-anchor="start" x="14.25" y="-1288.5" font-family="Helvetica,sans-Serif" font-size="10.00">#</text>
<text text-anchor="start" x="23.88" y="-1288.5" font-family="Helvetica,sans-Serif" font-size="10.00">wxColour panelColor</text>
<text text-anchor="start" x="14.25" y="-1272.5" font-family="Helvetica,sans-Serif" font-size="10.00">#</text>
<text text-anchor="start" x="23.88" y="-1272.5" font-family="Helvetica,sans-Serif" font-size="10.00">wxColour tagNameColor</text>
<text text-anchor="start" x="14.25" y="-1256.5" font-family="Helvetica,sans-Serif" font-size="10.00">#</text>
<text text-anchor="start" x="23.88" y="-1256.5" font-family="Helvetica,sans-Serif" font-size="10.00">wxString tagName</text>
<text text-anchor="start" x="23.88" y="-1240.5" font-family="Helvetica,sans-Serif" font-size="10.00">and 8 more...</text>
<text text-anchor="start" x="13.88" y="-1224.5" font-family="Helvetica,sans-Serif" font-size="10.00">+</text>
<text text-anchor="start" x="23.88" y="-1224.5" font-family="Helvetica,sans-Serif" font-size="10.00">TagPanel(bool topConstructor</text>
<text text-anchor="start" x="23.88" y="-1212.5" font-family="Helvetica,sans-Serif" font-size="10.00">=true)</text>
<text text-anchor="start" x="13.88" y="-1196.5" font-family="Helvetica,sans-Serif" font-size="10.00">+</text>
<text text-anchor="start" x="23.88" y="-1196.5" font-family="Helvetica,sans-Serif" font-size="10.00">TagPanel(wxWindow</text>
<text text-anchor="start" x="23.88" y="-1184.5" font-family="Helvetica,sans-Serif" font-size="10.00"> *parentWindow, bool</text>
<text text-anchor="start" x="23.88" y="-1172.5" font-family="Helvetica,sans-Serif" font-size="10.00"> topConstructor=true)</text>
<text text-anchor="start" x="13.88" y="-1156.5" font-family="Helvetica,sans-Serif" font-size="10.00">+</text>
<text text-anchor="start" x="23.88" y="-1156.5" font-family="Helvetica,sans-Serif" font-size="10.00">TagPanel(const TagPanel</text>
<text text-anchor="start" x="23.88" y="-1144.5" font-family="Helvetica,sans-Serif" font-size="10.00"> &amp;toCopy, bool topConstructor=true)</text>
<text text-anchor="start" x="13.88" y="-1128.5" font-family="Helvetica,sans-Serif" font-size="10.00">+</text>
<text text-anchor="start" x="23.88" y="-1128.5" font-family="Helvetica,sans-Serif" font-size="10.00">virtual TagPanel *</text>
<text text-anchor="start" x="23.88" y="-1116.5" font-family="Helvetica,sans-Serif" font-size="10.00"> clone()</text>
<text text-anchor="start" x="13.88" y="-1100.5" font-family="Helvetica,sans-Serif" font-size="10.00">+</text>
<text text-anchor="start" x="23.88" y="-1100.5" font-family="Helvetica,sans-Serif" font-size="10.00">virtual int getTagHeight()</text>
<text text-anchor="start" x="13.88" y="-1084.5" font-family="Helvetica,sans-Serif" font-size="10.00">+</text>
<text text-anchor="start" x="23.88" y="-1084.5" font-family="Helvetica,sans-Serif" font-size="10.00">virtual void setTagName()</text>
<text text-anchor="start" x="13.88" y="-1068.5" font-family="Helvetica,sans-Serif" font-size="10.00">+</text>
<text text-anchor="start" x="23.88" y="-1068.5" font-family="Helvetica,sans-Serif" font-size="10.00">void setTagNameCustom</text>
<text text-anchor="start" x="23.88" y="-1056.5" font-family="Helvetica,sans-Serif" font-size="10.00">(const std::string &amp;name)</text>
<text text-anchor="start" x="13.88" y="-1040.5" font-family="Helvetica,sans-Serif" font-size="10.00">+</text>
<text text-anchor="start" x="23.88" y="-1040.5" font-family="Helvetica,sans-Serif" font-size="10.00">virtual void setTagLine()</text>
<text text-anchor="start" x="13.88" y="-1024.5" font-family="Helvetica,sans-Serif" font-size="10.00">+</text>
<text text-anchor="start" x="23.88" y="-1024.5" font-family="Helvetica,sans-Serif" font-size="10.00">virtual void setColors()</text>
<text text-anchor="start" x="13.88" y="-1008.5" font-family="Helvetica,sans-Serif" font-size="10.00">+</text>
<text text-anchor="start" x="23.88" y="-1008.5" font-family="Helvetica,sans-Serif" font-size="10.00">void initLineSizer()</text>
<text text-anchor="start" x="23.88" y="-992.5" font-family="Helvetica,sans-Serif" font-size="10.00">and 41 more...</text>
<text text-anchor="start" x="13.88" y="-976.5" font-family="Helvetica,sans-Serif" font-size="10.00">+</text>
<text text-anchor="start" x="23.88" y="-976.5" font-family="Helvetica,sans-Serif" font-size="10.00">static int getIndexOf</text>
<text text-anchor="start" x="23.88" y="-964.5" font-family="Helvetica,sans-Serif" font-size="10.00">(wxSizer *sizer, wxSizerItem</text>
<text text-anchor="start" x="23.88" y="-952.5" font-family="Helvetica,sans-Serif" font-size="10.00"> *item)</text>
<text text-anchor="start" x="13.88" y="-936.5" font-family="Helvetica,sans-Serif" font-size="10.00">+</text>
<text text-anchor="start" x="23.88" y="-936.5" font-family="Helvetica,sans-Serif" font-size="10.00">static void init(TagPanel</text>
<text text-anchor="start" x="23.88" y="-924.5" font-family="Helvetica,sans-Serif" font-size="10.00"> *tag)</text>
<text text-anchor="start" x="13.88" y="-908.5" font-family="Helvetica,sans-Serif" font-size="10.00">+</text>
<text text-anchor="start" x="23.88" y="-908.5" font-family="Helvetica,sans-Serif" font-size="10.00">static bool isTagPanel</text>
<text text-anchor="start" x="23.88" y="-896.5" font-family="Helvetica,sans-Serif" font-size="10.00">(wxWindow *window)</text>
<text text-anchor="start" x="13.88" y="-880.5" font-family="Helvetica,sans-Serif" font-size="10.00">+</text>
<text text-anchor="start" x="23.88" y="-880.5" font-family="Helvetica,sans-Serif" font-size="10.00">static TagPanel * getTag</text>
<text text-anchor="start" x="23.88" y="-868.5" font-family="Helvetica,sans-Serif" font-size="10.00">Panel(wxWindow *window)</text>
<polygon fill="#666666" stroke="#666666" points="9.88,-1460 9.88,-1460 185.38,-1460 185.38,-1460 9.88,-1460"/>
<polygon fill="#666666" stroke="#666666" points="9.88,-1236 9.88,-1236 21.88,-1236 21.88,-1236 9.88,-1236"/>
<polygon fill="#666666" stroke="#666666" points="21.88,-1236 21.88,-1236 185.38,-1236 185.38,-1236 21.88,-1236"/>
<polygon fill="none" stroke="#666666" points="9.88,-862 9.88,-1478 185.38,-1478 185.38,-862 9.88,-862"/>
</a>
</g>
</g>
<!-- Node3&#45;&gt;Node2 -->
<g id="edge2_Node000002_Node000003" class="edge">
<title>Node3&#45;&gt;Node2</title>
<g id="a_edge2_Node000002_Node000003"><a xlink:title=" ">
<path fill="none" stroke="#63b8ff" d="M99.3,-850.88C99.75,-764.45 100.23,-673.61 100.63,-596.85"/>
<polygon fill="none" stroke="#63b8ff" points="95.8,-850.68 99.25,-860.7 102.8,-850.72 95.8,-850.68"/>
</a>
</g>
</g>
<!-- Node5 -->
<g id="Node000005" class="node">
<title>Node5</title>
<g id="a_Node000005"><a xlink:href="class_empty_panel.html" target="_top" xlink:title=" ">
<polygon fill="white" stroke="none" points="267.88,-825 113.38,-825 113.38,-645 267.88,-645 267.88,-825"/>
<text text-anchor="start" x="164" y="-811.5" font-family="Helvetica,sans-Serif" font-size="10.00">EmptyPanel</text>
<text text-anchor="start" x="189.12" y="-795.5" font-family="Helvetica,sans-Serif" font-size="10.00"> </text>
<text text-anchor="start" x="117.38" y="-779.5" font-family="Helvetica,sans-Serif" font-size="10.00">+</text>
<text text-anchor="start" x="127.38" y="-779.5" font-family="Helvetica,sans-Serif" font-size="10.00">EmptyPanel(wxWindow</text>
<text text-anchor="start" x="127.38" y="-767.5" font-family="Helvetica,sans-Serif" font-size="10.00"> *parentWindow)</text>
<text text-anchor="start" x="117.38" y="-751.5" font-family="Helvetica,sans-Serif" font-size="10.00">+</text>
<text text-anchor="start" x="127.38" y="-751.5" font-family="Helvetica,sans-Serif" font-size="10.00">EmptyPanel(const EmptyPanel</text>
<text text-anchor="start" x="127.38" y="-739.5" font-family="Helvetica,sans-Serif" font-size="10.00"> &amp;toCopy)</text>
<text text-anchor="start" x="117.38" y="-723.5" font-family="Helvetica,sans-Serif" font-size="10.00">+</text>
<text text-anchor="start" x="127.38" y="-723.5" font-family="Helvetica,sans-Serif" font-size="10.00">EmptyPanel * clone</text>
<text text-anchor="start" x="127.38" y="-711.5" font-family="Helvetica,sans-Serif" font-size="10.00">() override</text>
<text text-anchor="start" x="117.38" y="-695.5" font-family="Helvetica,sans-Serif" font-size="10.00">+</text>
<text text-anchor="start" x="127.38" y="-695.5" font-family="Helvetica,sans-Serif" font-size="10.00">void setTagName() override</text>
<text text-anchor="start" x="117.38" y="-679.5" font-family="Helvetica,sans-Serif" font-size="10.00">+</text>
<text text-anchor="start" x="127.38" y="-679.5" font-family="Helvetica,sans-Serif" font-size="10.00">void setTagLine() override</text>
<text text-anchor="start" x="117.38" y="-663.5" font-family="Helvetica,sans-Serif" font-size="10.00">+</text>
<text text-anchor="start" x="127.38" y="-663.5" font-family="Helvetica,sans-Serif" font-size="10.00">void setPanelColor</text>
<text text-anchor="start" x="127.38" y="-651.5" font-family="Helvetica,sans-Serif" font-size="10.00">() override</text>
<polygon fill="#666666" stroke="#666666" points="113.38,-807 113.38,-807 267.88,-807 267.88,-807 113.38,-807"/>
<polygon fill="#666666" stroke="#666666" points="113.38,-791 113.38,-791 267.88,-791 267.88,-791 113.38,-791"/>
<polygon fill="none" stroke="#666666" points="113.38,-645 113.38,-825 267.88,-825 267.88,-645 113.38,-645"/>
</a>
</g>
</g>
<!-- Node3&#45;&gt;Node5 -->
<g id="edge5_Node000005_Node000003" class="edge">
<title>Node3&#45;&gt;Node5</title>
<g id="a_edge5_Node000005_Node000003"><a xlink:title=" ">
<path fill="none" stroke="#63b8ff" d="M165.93,-850.96C167.87,-841.93 169.75,-833.21 171.54,-824.88"/>
<polygon fill="none" stroke="#63b8ff" points="162.53,-850.12 163.86,-860.63 169.38,-851.59 162.53,-850.12"/>
</a>
</g>
</g>
<!-- Node4 -->
<g id="Node000004" class="node">
<title>Node4</title>
<g id="a_Node000004"><a xlink:title=" ">
<polygon fill="white" stroke="none" points="120.38,-1567 74.88,-1567 74.88,-1515 120.38,-1515 120.38,-1567"/>
<text text-anchor="start" x="78.88" y="-1553.5" font-family="Helvetica,sans-Serif" font-size="10.00">wxPanel</text>
<text text-anchor="start" x="96.12" y="-1537.5" font-family="Helvetica,sans-Serif" font-size="10.00"> </text>
<text text-anchor="start" x="96.12" y="-1521.5" font-family="Helvetica,sans-Serif" font-size="10.00"> </text>
<polygon fill="#666666" stroke="#666666" points="74.88,-1549 74.88,-1549 120.38,-1549 120.38,-1549 74.88,-1549"/>
<polygon fill="#666666" stroke="#666666" points="74.88,-1533 74.88,-1533 120.38,-1533 120.38,-1533 74.88,-1533"/>
<polygon fill="none" stroke="#666666" points="74.88,-1515 74.88,-1567 120.38,-1567 120.38,-1515 74.88,-1515"/>
</a>
</g>
</g>
<!-- Node4&#45;&gt;Node3 -->
<g id="edge3_Node000003_Node000004" class="edge">
<title>Node4&#45;&gt;Node3</title>
<g id="a_edge3_Node000003_Node000004"><a xlink:title=" ">
<path fill="none" stroke="#63b8ff" d="M97.62,-1503.89C97.62,-1496.12 97.62,-1487.33 97.62,-1477.73"/>
<polygon fill="none" stroke="#63b8ff" points="94.13,-1503.7 97.63,-1513.7 101.13,-1503.7 94.13,-1503.7"/>
</a>
</g>
</g>
<!-- Node5&#45;&gt;Node2 -->
<g id="edge4_Node000002_Node000005" class="edge">
<title>Node5&#45;&gt;Node2</title>
<g id="a_edge4_Node000002_Node000005"><a xlink:title=" ">
<path fill="none" stroke="#63b8ff" d="M166.42,-645.35C163.3,-633.9 160,-621.82 156.62,-609.43"/>
<polygon fill="none" stroke="#63b8ff" points="156.61,-609.39 151.17,-604.65 153.44,-597.81 158.88,-602.55 156.61,-609.39"/>
</a>
</g>
<text text-anchor="middle" x="197.17" y="-617.5" font-family="Helvetica,sans-Serif" font-size="10.00" fill="grey"> #emptyTagPanel</text>
</g>
</g>
</svg>
