<?xml version="1.0" encoding="UTF-8" standalone="no"?>
<!DOCTYPE svg PUBLIC "-//W3C//DTD SVG 1.1//EN"
 "http://www.w3.org/Graphics/SVG/1.1/DTD/svg11.dtd">
<!-- Generated by graphviz version 12.2.0 (20241103.1931)
 -->
<!-- Title: ListTag::executeSimpleTag Pages: 1 -->
<svg width="353pt" height="66pt"
 viewBox="0.00 0.00 353.00 66.00" xmlns="http://www.w3.org/2000/svg" xmlns:xlink="http://www.w3.org/1999/xlink">

<svg id="main" version="1.1" xmlns="http://www.w3.org/2000/svg" xmlns:xlink="http://www.w3.org/1999/xlink" xml:space="preserve">

<style type="text/css"><![CDATA[
.node, .edge {opacity: 0.7;}
.node.selected, .edge.selected {opacity: 1;}
.edge:hover path { stroke: red; }
.edge:hover polygon { stroke: red; fill: red; }
]]></style>
<script type="application/ecmascript" xlink:href="svg.min.js"/>
<svg id="graph" class="graph">
<g id="graph0" class="graph" transform="scale(1 1) rotate(0) translate(4 62)">
<title>ListTag::executeSimpleTag</title>
<!-- Node1 -->
<g id="Node000001" class="node">
<title>Node1</title>
<g id="a_Node000001"><a xlink:title=" ">
<polygon fill="#999999" stroke="#666666" points="133.75,-39 0,-39 0,-19 133.75,-19 133.75,-39"/>
<text text-anchor="middle" x="66.88" y="-25.5" font-family="Helvetica,sans-Serif" font-size="10.00">ListTag::executeSimpleTag</text>
</a>
</g>
</g>
<!-- Node2 -->
<g id="Node000002" class="node">
<title>Node2</title>
<g id="a_Node000002"><a xlink:href="_tags_8cpp.html#af880453da2451d42d582407678414cca" target="_top" xlink:title=" ">
<polygon fill="white" stroke="#666666" points="242,-39 169.75,-39 169.75,-19 242,-19 242,-39"/>
<text text-anchor="middle" x="205.88" y="-25.5" font-family="Helvetica,sans-Serif" font-size="10.00">executeZone</text>
</a>
</g>
</g>
<!-- Node1&#45;&gt;Node2 -->
<g id="edge1_Node000001_Node000002" class="edge">
<title>Node1&#45;&gt;Node2</title>
<g id="a_edge1_Node000001_Node000002"><a xlink:title=" ">
<path fill="none" stroke="#63b8ff" d="M133.97,-29C142.06,-29 150.19,-29 157.91,-29"/>
<polygon fill="#63b8ff" stroke="#63b8ff" points="157.75,-32.5 167.75,-29 157.75,-25.5 157.75,-32.5"/>
</a>
</g>
</g>
<!-- Node2&#45;&gt;Node2 -->
<g id="edge2_Node000002_Node000002" class="edge">
<title>Node2&#45;&gt;Node2</title>
<g id="a_edge2_Node000002_Node000002"><a xlink:title=" ">
<path fill="none" stroke="#63b8ff" d="M189.09,-39.34C181.92,-47.98 187.51,-57 205.88,-57 215.92,-57 222.14,-54.3 224.54,-50.44"/>
<polygon fill="#63b8ff" stroke="#63b8ff" points="228.04,-50.1 222.91,-40.83 221.14,-51.28 228.04,-50.1"/>
</a>
</g>
</g>
<!-- Node3 -->
<g id="Node000003" class="node">
<title>Node3</title>
<g id="a_Node000003"><a xlink:href="_tags_8cpp.html#aad17b0d48f011d5869f82adb31915669" target="_top" xlink:title=" ">
<polygon fill="white" stroke="#666666" points="344.62,-58 278.38,-58 278.38,-38 344.62,-38 344.62,-58"/>
<text text-anchor="middle" x="311.5" y="-44.5" font-family="Helvetica,sans-Serif" font-size="10.00">getLoadTag</text>
</a>
</g>
</g>
<!-- Node2&#45;&gt;Node3 -->
<g id="edge3_Node000002_Node000003" class="edge">
<title>Node2&#45;&gt;Node3</title>
<g id="a_edge3_Node000002_Node000003"><a xlink:title=" ">
<path fill="none" stroke="#63b8ff" d="M242.25,-35.49C250.14,-36.93 258.6,-38.48 266.78,-39.98"/>
<polygon fill="#63b8ff" stroke="#63b8ff" points="266.12,-43.42 276.58,-41.78 267.38,-36.54 266.12,-43.42"/>
</a>
</g>
</g>
<!-- Node4 -->
<g id="Node000004" class="node">
<title>Node4</title>
<g id="a_Node000004"><a xlink:href="_tags_8cpp.html#a87514b166197bc785f979c9b79214abb" target="_top" xlink:title=" ">
<polygon fill="white" stroke="#666666" points="345,-20 278,-20 278,0 345,0 345,-20"/>
<text text-anchor="middle" x="311.5" y="-6.5" font-family="Helvetica,sans-Serif" font-size="10.00">getZoneTag</text>
</a>
</g>
</g>
<!-- Node2&#45;&gt;Node4 -->
<g id="edge4_Node000002_Node000004" class="edge">
<title>Node2&#45;&gt;Node4</title>
<g id="a_edge4_Node000002_Node000004"><a xlink:title=" ">
<path fill="none" stroke="#63b8ff" d="M242.25,-22.51C250.06,-21.08 258.42,-19.55 266.53,-18.06"/>
<polygon fill="#63b8ff" stroke="#63b8ff" points="267.03,-21.53 276.24,-16.28 265.77,-14.64 267.03,-21.53"/>
</a>
</g>
</g>
</g>
</svg>
</svg>

<style type='text/css'>
<![CDATA[
[data-mouse-over-selected='false'] { opacity: 0.7; }
[data-mouse-over-selected='true']  { opacity: 1.0; }
]]>
</style>
<script type="application/ecmascript"><![CDATA[
document.addEventListener('DOMContentLoaded', (event) => {
  highlightEdges();
  highlightAdjacentNodes();
});
]]></script>
</svg>
