<?xml version="1.0" encoding="UTF-8" standalone="no"?>
<!DOCTYPE svg PUBLIC "-//W3C//DTD SVG 1.1//EN"
 "http://www.w3.org/Graphics/SVG/1.1/DTD/svg11.dtd">
<!-- Generated by graphviz version 12.2.0 (20241103.1931)
 -->
<!-- Title: ContinueTag Pages: 1 -->
<svg width="139pt" height="684pt"
 viewBox="0.00 0.00 139.25 684.00" xmlns="http://www.w3.org/2000/svg" xmlns:xlink="http://www.w3.org/1999/xlink">
<g id="graph0" class="graph" transform="scale(1 1) rotate(0) translate(4 680)">
<title>ContinueTag</title>
<!-- Node1 -->
<g id="Node000001" class="node">
<title>Node1</title>
<g id="a_Node000001"><a xlink:title=" ">
<polygon fill="#999999" stroke="none" points="131.25,-124 0,-124 0,0 131.25,0 131.25,-124"/>
<text text-anchor="start" x="38.25" y="-110.5" font-family="Helvetica,sans-Serif" font-size="10.00">ContinueTag</text>
<text text-anchor="start" x="64.12" y="-94.5" font-family="Helvetica,sans-Serif" font-size="10.00"> </text>
<text text-anchor="start" x="4" y="-78.5" font-family="Helvetica,sans-Serif" font-size="10.00">+</text>
<text text-anchor="start" x="14" y="-78.5" font-family="Helvetica,sans-Serif" font-size="10.00">ContinueTag()</text>
<text text-anchor="start" x="4" y="-62.5" font-family="Helvetica,sans-Serif" font-size="10.00">+</text>
<text text-anchor="start" x="14" y="-62.5" font-family="Helvetica,sans-Serif" font-size="10.00">ContinueTag(const</text>
<text text-anchor="start" x="14" y="-50.5" font-family="Helvetica,sans-Serif" font-size="10.00"> ContinueTag &amp;toCopy)</text>
<text text-anchor="start" x="4" y="-34.5" font-family="Helvetica,sans-Serif" font-size="10.00">+</text>
<text text-anchor="start" x="14" y="-34.5" font-family="Helvetica,sans-Serif" font-size="10.00">std::shared_ptr&lt; Continue</text>
<text text-anchor="start" x="14" y="-22.5" font-family="Helvetica,sans-Serif" font-size="10.00">Tag &gt; clone()</text>
<text text-anchor="start" x="4" y="-6.5" font-family="Helvetica,sans-Serif" font-size="10.00">+</text>
<text text-anchor="start" x="14" y="-6.5" font-family="Helvetica,sans-Serif" font-size="10.00">void execute() override</text>
<polygon fill="#666666" stroke="#666666" points="0,-106 0,-106 131.25,-106 131.25,-106 0,-106"/>
<polygon fill="#666666" stroke="#666666" points="0,-90 0,-90 131.25,-90 131.25,-90 0,-90"/>
<polygon fill="none" stroke="#666666" points="0,0 0,-124 131.25,-124 131.25,0 0,0"/>
</a>
</g>
</g>
<!-- Node2 -->
<g id="Node000002" class="node">
<title>Node2</title>
<g id="a_Node000002"><a xlink:href="class_flow_tag.html" target="_top" xlink:title=" ">
<polygon fill="white" stroke="none" points="130.5,-480 0.75,-480 0.75,-160 130.5,-160 130.5,-480"/>
<text text-anchor="start" x="47.25" y="-466.5" font-family="Helvetica,sans-Serif" font-size="10.00">FlowTag</text>
<text text-anchor="start" x="4.75" y="-450.5" font-family="Helvetica,sans-Serif" font-size="10.00">+</text>
<text text-anchor="start" x="14.75" y="-450.5" font-family="Helvetica,sans-Serif" font-size="10.00">bool canReboot</text>
<text text-anchor="start" x="4.75" y="-434.5" font-family="Helvetica,sans-Serif" font-size="10.00">+</text>
<text text-anchor="start" x="14.75" y="-434.5" font-family="Helvetica,sans-Serif" font-size="10.00">bool executed</text>
<text text-anchor="start" x="4.75" y="-418.5" font-family="Helvetica,sans-Serif" font-size="10.00">+</text>
<text text-anchor="start" x="14.75" y="-418.5" font-family="Helvetica,sans-Serif" font-size="10.00">bool forcedExit</text>
<text text-anchor="start" x="4.75" y="-402.5" font-family="Helvetica,sans-Serif" font-size="10.00">+</text>
<text text-anchor="start" x="14.75" y="-402.5" font-family="Helvetica,sans-Serif" font-size="10.00">bool rebootLoop</text>
<text text-anchor="start" x="4.75" y="-386.5" font-family="Helvetica,sans-Serif" font-size="10.00">+</text>
<text text-anchor="start" x="14.75" y="-386.5" font-family="Helvetica,sans-Serif" font-size="10.00">std::shared_ptr&lt; Tag</text>
<text text-anchor="start" x="14.75" y="-374.5" font-family="Helvetica,sans-Serif" font-size="10.00"> &gt; condition</text>
<text text-anchor="start" x="4.75" y="-358.5" font-family="Helvetica,sans-Serif" font-size="10.00">+</text>
<text text-anchor="start" x="14.75" y="-358.5" font-family="Helvetica,sans-Serif" font-size="10.00">FlowTag * previousTag</text>
<text text-anchor="start" x="4.75" y="-342.5" font-family="Helvetica,sans-Serif" font-size="10.00">+</text>
<text text-anchor="start" x="14.75" y="-342.5" font-family="Helvetica,sans-Serif" font-size="10.00">FlowTag * parentFlowTag</text>
<text text-anchor="start" x="4.75" y="-326.5" font-family="Helvetica,sans-Serif" font-size="10.00">+</text>
<text text-anchor="start" x="14.75" y="-326.5" font-family="Helvetica,sans-Serif" font-size="10.00">std::vector&lt; std::shared</text>
<text text-anchor="start" x="14.75" y="-314.5" font-family="Helvetica,sans-Serif" font-size="10.00">_ptr&lt; Tag &gt; &gt; nestedTags</text>
<text text-anchor="start" x="4.75" y="-298.5" font-family="Helvetica,sans-Serif" font-size="10.00">+</text>
<text text-anchor="start" x="14.75" y="-298.5" font-family="Helvetica,sans-Serif" font-size="10.00">std::vector&lt; FlowTag</text>
<text text-anchor="start" x="14.75" y="-286.5" font-family="Helvetica,sans-Serif" font-size="10.00"> * &gt; listPreviousFlowTags</text>
<text text-anchor="start" x="4.75" y="-270.5" font-family="Helvetica,sans-Serif" font-size="10.00">+</text>
<text text-anchor="start" x="14.75" y="-270.5" font-family="Helvetica,sans-Serif" font-size="10.00">FlowTag()</text>
<text text-anchor="start" x="4.75" y="-254.5" font-family="Helvetica,sans-Serif" font-size="10.00">+</text>
<text text-anchor="start" x="14.75" y="-254.5" font-family="Helvetica,sans-Serif" font-size="10.00">FlowTag(const FlowTag</text>
<text text-anchor="start" x="14.75" y="-242.5" font-family="Helvetica,sans-Serif" font-size="10.00"> &amp;toCopy)</text>
<text text-anchor="start" x="4.75" y="-226.5" font-family="Helvetica,sans-Serif" font-size="10.00">+</text>
<text text-anchor="start" x="14.75" y="-226.5" font-family="Helvetica,sans-Serif" font-size="10.00">std::shared_ptr&lt; FlowTag</text>
<text text-anchor="start" x="14.75" y="-214.5" font-family="Helvetica,sans-Serif" font-size="10.00"> &gt; clone()</text>
<text text-anchor="start" x="4.75" y="-198.5" font-family="Helvetica,sans-Serif" font-size="10.00">+</text>
<text text-anchor="start" x="14.75" y="-198.5" font-family="Helvetica,sans-Serif" font-size="10.00">void showTag()</text>
<text text-anchor="start" x="4.75" y="-182.5" font-family="Helvetica,sans-Serif" font-size="10.00">+</text>
<text text-anchor="start" x="14.75" y="-182.5" font-family="Helvetica,sans-Serif" font-size="10.00">bool checkCondition()</text>
<text text-anchor="start" x="4.75" y="-166.5" font-family="Helvetica,sans-Serif" font-size="10.00">+</text>
<text text-anchor="start" x="14.75" y="-166.5" font-family="Helvetica,sans-Serif" font-size="10.00">void linkTags()</text>
<polygon fill="#666666" stroke="#666666" points="0.75,-462 0.75,-462 130.5,-462 130.5,-462 0.75,-462"/>
<polygon fill="#666666" stroke="#666666" points="0.75,-282 0.75,-282 12.75,-282 12.75,-282 0.75,-282"/>
<polygon fill="#666666" stroke="#666666" points="12.75,-282 12.75,-282 130.5,-282 130.5,-282 12.75,-282"/>
<polygon fill="none" stroke="#666666" points="0.75,-160 0.75,-480 130.5,-480 130.5,-160 0.75,-160"/>
</a>
</g>
</g>
<!-- Node2&#45;&gt;Node1 -->
<g id="edge1_Node000001_Node000002" class="edge">
<title>Node2&#45;&gt;Node1</title>
<g id="a_edge1_Node000001_Node000002"><a xlink:title=" ">
<path fill="none" stroke="#63b8ff" d="M65.62,-148.92C65.62,-140.17 65.62,-131.72 65.62,-123.75"/>
<polygon fill="none" stroke="#63b8ff" points="62.13,-148.63 65.63,-158.63 69.13,-148.63 62.13,-148.63"/>
</a>
</g>
</g>
<!-- Node3 -->
<g id="Node000003" class="node">
<title>Node3</title>
<g id="a_Node000003"><a xlink:href="class_tag.html" target="_top" xlink:title=" ">
<polygon fill="white" stroke="none" points="127.12,-676 4.12,-676 4.12,-516 127.12,-516 127.12,-676"/>
<text text-anchor="start" x="57.75" y="-662.5" font-family="Helvetica,sans-Serif" font-size="10.00">Tag</text>
<text text-anchor="start" x="8.12" y="-646.5" font-family="Helvetica,sans-Serif" font-size="10.00">+</text>
<text text-anchor="start" x="18.12" y="-646.5" font-family="Helvetica,sans-Serif" font-size="10.00">std::string tagText</text>
<text text-anchor="start" x="8.12" y="-630.5" font-family="Helvetica,sans-Serif" font-size="10.00">+</text>
<text text-anchor="start" x="18.12" y="-630.5" font-family="Helvetica,sans-Serif" font-size="10.00">int nbParents</text>
<text text-anchor="start" x="8.12" y="-614.5" font-family="Helvetica,sans-Serif" font-size="10.00">+</text>
<text text-anchor="start" x="18.12" y="-614.5" font-family="Helvetica,sans-Serif" font-size="10.00">bool doExecute</text>
<text text-anchor="start" x="8.12" y="-598.5" font-family="Helvetica,sans-Serif" font-size="10.00">+</text>
<text text-anchor="start" x="18.12" y="-598.5" font-family="Helvetica,sans-Serif" font-size="10.00">TagType myType</text>
<text text-anchor="start" x="8.12" y="-582.5" font-family="Helvetica,sans-Serif" font-size="10.00">+</text>
<text text-anchor="start" x="18.12" y="-582.5" font-family="Helvetica,sans-Serif" font-size="10.00">Tag()</text>
<text text-anchor="start" x="8.12" y="-566.5" font-family="Helvetica,sans-Serif" font-size="10.00">+</text>
<text text-anchor="start" x="18.12" y="-566.5" font-family="Helvetica,sans-Serif" font-size="10.00">Tag(const Tag &amp;toCopy)</text>
<text text-anchor="start" x="8.12" y="-550.5" font-family="Helvetica,sans-Serif" font-size="10.00">+</text>
<text text-anchor="start" x="18.12" y="-550.5" font-family="Helvetica,sans-Serif" font-size="10.00">std::shared_ptr&lt; Tag</text>
<text text-anchor="start" x="18.12" y="-538.5" font-family="Helvetica,sans-Serif" font-size="10.00"> &gt; clone()</text>
<text text-anchor="start" x="8.12" y="-522.5" font-family="Helvetica,sans-Serif" font-size="10.00">+</text>
<text text-anchor="start" x="18.12" y="-522.5" font-family="Helvetica,sans-Serif" font-size="10.00">virtual void execute()</text>
<polygon fill="#666666" stroke="#666666" points="4.12,-658 4.12,-658 127.12,-658 127.12,-658 4.12,-658"/>
<polygon fill="#666666" stroke="#666666" points="4.12,-594 4.12,-594 16.12,-594 16.12,-594 4.12,-594"/>
<polygon fill="#666666" stroke="#666666" points="16.12,-594 16.12,-594 127.12,-594 127.12,-594 16.12,-594"/>
<polygon fill="none" stroke="#666666" points="4.12,-516 4.12,-676 127.12,-676 127.12,-516 4.12,-516"/>
</a>
</g>
</g>
<!-- Node3&#45;&gt;Node2 -->
<g id="edge2_Node000002_Node000003" class="edge">
<title>Node3&#45;&gt;Node2</title>
<g id="a_edge2_Node000002_Node000003"><a xlink:title=" ">
<path fill="none" stroke="#63b8ff" d="M65.62,-504.83C65.62,-496.72 65.62,-488.37 65.62,-479.89"/>
<polygon fill="none" stroke="#63b8ff" points="62.13,-504.6 65.63,-514.6 69.13,-504.6 62.13,-504.6"/>
</a>
</g>
</g>
</g>
</svg>
