<?xml version="1.0" encoding="UTF-8" standalone="no"?>
<!DOCTYPE svg PUBLIC "-//W3C//DTD SVG 1.1//EN"
 "http://www.w3.org/Graphics/SVG/1.1/DTD/svg11.dtd">
<!-- Generated by graphviz version 12.2.0 (20241103.1931)
 -->
<!-- Title: BotConfig::readSearchAll Pages: 1 -->
<!--zoomable 126 -->

<svg id="main" version="1.1" xmlns="http://www.w3.org/2000/svg" xmlns:xlink="http://www.w3.org/1999/xlink" xml:space="preserve" onload="init(evt)">

<style type="text/css"><![CDATA[
.node, .edge {opacity: 0.7;}
.node.selected, .edge.selected {opacity: 1;}
.edge:hover path { stroke: red; }
.edge:hover polygon { stroke: red; fill: red; }
]]></style>

<defs>
  <circle id="rim" cx="0" cy="0" r="7"/>
  <circle id="rim2" cx="0" cy="0" r="3.5"/>
  <g id="zoomPlus">
    <use xlink:href="#rim" fill="#404040"><set attributeName="fill" to="#808080" begin="zoomplus.mouseover" end="zoomplus.mouseout"/></use>
    <path d="M-4,0h8M0,-4v8" fill="none" stroke="white" stroke-width="1.5" pointer-events="none"/>
  </g>
  <g id="zoomMin">
    <use xlink:href="#rim" fill="#404040"><set attributeName="fill" to="#808080" begin="zoomminus.mouseover" end="zoomminus.mouseout"/></use>
    <path d="M-4,0h8" fill="none" stroke="white" stroke-width="1.5" pointer-events="none"/>
  </g>
  <g id="arrowUp" transform="translate(30 24)">
    <use xlink:href="#rim"/>
    <path pointer-events="none" fill="none" stroke="white" stroke-width="1.5" d="M0,-3.0v7 M-2.5,-0.5L0,-3.0L2.5,-0.5"/>
  </g>
  <g id="arrowRight" transform="rotate(90) translate(36 -43)">
    <use xlink:href="#rim"/>
    <path pointer-events="none" fill="none" stroke="white" stroke-width="1.5" d="M0,-3.0v7 M-2.5,-0.5L0,-3.0L2.5,-0.5"/>
  </g>
  <g id="arrowDown" transform="rotate(180) translate(-30 -48)">
    <use xlink:href="#rim"/>
    <path pointer-events="none" fill="none" stroke="white" stroke-width="1.5" d="M0,-3.0v7 M-2.5,-0.5L0,-3.0L2.5,-0.5"/>
  </g>
  <g id="arrowLeft" transform="rotate(270) translate(-36 17)">
    <use xlink:href="#rim"/>
    <path pointer-events="none" fill="none" stroke="white" stroke-width="1.5" d="M0,-3.0v7 M-2.5,-0.5L0,-3.0L2.5,-0.5"/>
  </g>
  <g id="resetDef">
    <use xlink:href="#rim2" fill="#404040"><set attributeName="fill" to="#808080" begin="reset.mouseover" end="reset.mouseout"/></use>
  </g>
</defs>
<script type="application/ecmascript">
var viewWidth = 1232;
var viewHeight = 126;
var sectionId = 'dynsection-55';
</script>
<script type="application/ecmascript" xlink:href="svg.min.js"/>
<svg id="graph" class="graph">
<g id="viewport">
<title>BotConfig::readSearchAll</title>
<!-- Node1 -->
<g id="Node000001" class="node">
<title>Node1</title>
<g id="a_Node000001"><a xlink:title=" ">
<polygon fill="#999999" stroke="#666666" points="126.25,-99 0,-99 0,-79 126.25,-79 126.25,-99"/>
<text text-anchor="middle" x="63.12" y="-85.5" font-family="Helvetica,sans-Serif" font-size="10.00">BotConfig::readSearchAll</text>
</a>
</g>
</g>
<!-- Node2 -->
<g id="Node000002" class="node">
<title>Node2</title>
<g id="a_Node000002"><a xlink:href="class_bot_config.html#a0c63abf2bd51de63c3de85b91fc1e5f1" target="_top" xlink:title=" ">
<polygon fill="white" stroke="#666666" points="312.12,-118 165.62,-118 165.62,-98 312.12,-98 312.12,-118"/>
<text text-anchor="middle" x="238.88" y="-104.5" font-family="Helvetica,sans-Serif" font-size="10.00">BotConfig::readDataCollected</text>
</a>
</g>
</g>
<!-- Node1&#45;&gt;Node2 -->
<g id="edge1_Node000001_Node000002" class="edge">
<title>Node1&#45;&gt;Node2</title>
<g id="a_edge1_Node000001_Node000002"><a xlink:title=" ">
<path fill="none" stroke="#63b8ff" d="M126.36,-95.81C135.36,-96.79 144.75,-97.82 154.08,-98.84"/>
<polygon fill="#63b8ff" stroke="#63b8ff" points="153.59,-102.3 163.91,-99.91 154.35,-95.35 153.59,-102.3"/>
</a>
</g>
</g>
<!-- Node11 -->
<g id="Node000011" class="node">
<title>Node11</title>
<g id="a_Node000011"><a xlink:href="class_bot_config.html#ab89c77f603cb134bb5a1859dcd1bd850" target="_top" xlink:title=" ">
<polygon fill="white" stroke="#666666" points="315.5,-80 162.25,-80 162.25,-60 315.5,-60 315.5,-80"/>
<text text-anchor="middle" x="238.88" y="-66.5" font-family="Helvetica,sans-Serif" font-size="10.00">BotConfig::readSearchLdPlayer</text>
</a>
</g>
</g>
<!-- Node1&#45;&gt;Node11 -->
<g id="edge11_Node000001_Node000011" class="edge">
<title>Node1&#45;&gt;Node11</title>
<g id="a_edge11_Node000001_Node000011"><a xlink:title=" ">
<path fill="none" stroke="#63b8ff" d="M126.36,-82.19C134.17,-81.34 142.27,-80.45 150.38,-79.57"/>
<polygon fill="#63b8ff" stroke="#63b8ff" points="150.75,-83.05 160.31,-78.48 149.99,-76.09 150.75,-83.05"/>
</a>
</g>
</g>
<!-- Node3 -->
<g id="Node000003" class="node">
<title>Node3</title>
<g id="a_Node000003"><a xlink:href="class_bot_config.html#a5aafe893fa75e1b711e3ef3f4e4db9cc" target="_top" xlink:title=" ">
<polygon fill="white" stroke="#666666" points="667.75,-96 533.25,-96 533.25,-76 667.75,-76 667.75,-96"/>
<text text-anchor="middle" x="600.5" y="-82.5" font-family="Helvetica,sans-Serif" font-size="10.00">BotConfig::readBoolBotFile</text>
</a>
</g>
</g>
<!-- Node2&#45;&gt;Node3 -->
<g id="edge2_Node000002_Node000003" class="edge">
<title>Node2&#45;&gt;Node3</title>
<g id="a_edge2_Node000002_Node000003"><a xlink:title=" ">
<path fill="none" stroke="#63b8ff" d="M312.22,-103.57C372.95,-99.86 459.5,-94.56 521.71,-90.76"/>
<polygon fill="#63b8ff" stroke="#63b8ff" points="521.76,-94.26 531.52,-90.16 521.33,-87.28 521.76,-94.26"/>
</a>
</g>
</g>
<!-- Node4 -->
<g id="Node000004" class="node">
<title>Node4</title>
<g id="a_Node000004"><a xlink:href="class_bot_config.html#a459cd36b6c6f36f9bd73ff207e2fe5ec" target="_top" xlink:title=" ">
<polygon fill="white" stroke="#666666" points="825.88,-86 722.12,-86 722.12,-66 825.88,-66 825.88,-86"/>
<text text-anchor="middle" x="774" y="-72.5" font-family="Helvetica,sans-Serif" font-size="10.00">BotConfig::readBool</text>
</a>
</g>
</g>
<!-- Node3&#45;&gt;Node4 -->
<g id="edge3_Node000003_Node000004" class="edge">
<title>Node3&#45;&gt;Node4</title>
<g id="a_edge3_Node000003_Node000004"><a xlink:title=" ">
<path fill="none" stroke="#63b8ff" d="M667.81,-82.13C681.8,-81.32 696.52,-80.46 710.37,-79.65"/>
<polygon fill="#63b8ff" stroke="#63b8ff" points="710.47,-83.15 720.25,-79.08 710.07,-76.16 710.47,-83.15"/>
</a>
</g>
</g>
<!-- Node5 -->
<g id="Node000005" class="node">
<title>Node5</title>
<g id="a_Node000005"><a xlink:href="class_bot_config.html#a623d05e4d8e0122d35b1a3e391fc2464" target="_top" xlink:title=" ">
<polygon fill="white" stroke="#666666" points="990,-58 880.25,-58 880.25,-38 990,-38 990,-58"/>
<text text-anchor="middle" x="935.12" y="-44.5" font-family="Helvetica,sans-Serif" font-size="10.00">BotConfig::readString</text>
</a>
</g>
</g>
<!-- Node4&#45;&gt;Node5 -->
<g id="edge4_Node000004_Node000005" class="edge">
<title>Node4&#45;&gt;Node5</title>
<g id="a_edge4_Node000004_Node000005"><a xlink:title=" ">
<path fill="none" stroke="#63b8ff" d="M826.22,-66.99C839.77,-64.6 854.58,-62 868.77,-59.5"/>
<polygon fill="#63b8ff" stroke="#63b8ff" points="869.25,-62.97 878.49,-57.79 868.03,-56.08 869.25,-62.97"/>
</a>
</g>
</g>
<!-- Node6 -->
<g id="Node000006" class="node">
<title>Node6</title>
<g id="a_Node000006"><a xlink:href="_text_manager_8cpp.html#aa61ad4367d44c1e14541c7c1c46da795" target="_top" xlink:title=" ">
<polygon fill="white" stroke="#666666" points="1106.5,-96 1026,-96 1026,-76 1106.5,-76 1106.5,-96"/>
<text text-anchor="middle" x="1066.25" y="-82.5" font-family="Helvetica,sans-Serif" font-size="10.00">extractContent</text>
</a>
</g>
</g>
<!-- Node5&#45;&gt;Node6 -->
<g id="edge5_Node000005_Node000006" class="edge">
<title>Node5&#45;&gt;Node6</title>
<g id="a_edge5_Node000005_Node000006"><a xlink:title=" ">
<path fill="none" stroke="#63b8ff" d="M971.75,-58.48C986.29,-62.76 1003.29,-67.77 1018.78,-72.33"/>
<polygon fill="#63b8ff" stroke="#63b8ff" points="1017.71,-75.66 1028.29,-75.12 1019.68,-68.94 1017.71,-75.66"/>
</a>
</g>
</g>
<!-- Node8 -->
<g id="Node000008" class="node">
<title>Node8</title>
<g id="a_Node000008"><a xlink:href="_text_manager_8cpp.html#add36cc54cd9616a393a17b8961491477" target="_top" xlink:title=" ">
<polygon fill="white" stroke="#666666" points="1106.12,-20 1026.38,-20 1026.38,0 1106.12,0 1106.12,-20"/>
<text text-anchor="middle" x="1066.25" y="-6.5" font-family="Helvetica,sans-Serif" font-size="10.00">getFileContent</text>
</a>
</g>
</g>
<!-- Node5&#45;&gt;Node8 -->
<g id="edge7_Node000005_Node000008" class="edge">
<title>Node5&#45;&gt;Node8</title>
<g id="a_edge7_Node000005_Node000008"><a xlink:title=" ">
<path fill="none" stroke="#63b8ff" d="M971.75,-37.52C986.29,-33.24 1003.29,-28.23 1018.78,-23.67"/>
<polygon fill="#63b8ff" stroke="#63b8ff" points="1019.68,-27.06 1028.29,-20.88 1017.71,-20.34 1019.68,-27.06"/>
</a>
</g>
</g>
<!-- Node10 -->
<g id="Node000010" class="node">
<title>Node10</title>
<g id="a_Node000010"><a xlink:href="_text_manager_8cpp.html#af24bee60aa1d3d5b4ae3bf6ebd267ecd" target="_top" xlink:title=" ">
<polygon fill="white" stroke="#666666" points="1090,-58 1042.5,-58 1042.5,-38 1090,-38 1090,-58"/>
<text text-anchor="middle" x="1066.25" y="-44.5" font-family="Helvetica,sans-Serif" font-size="10.00">getLine</text>
</a>
</g>
</g>
<!-- Node5&#45;&gt;Node10 -->
<g id="edge9_Node000005_Node000010" class="edge">
<title>Node5&#45;&gt;Node10</title>
<g id="a_edge9_Node000005_Node000010"><a xlink:title=" ">
<path fill="none" stroke="#63b8ff" d="M990.14,-48C1003.96,-48 1018.45,-48 1030.98,-48"/>
<polygon fill="#63b8ff" stroke="#63b8ff" points="1030.78,-51.5 1040.78,-48 1030.78,-44.5 1030.78,-51.5"/>
</a>
</g>
</g>
<!-- Node7 -->
<g id="Node000007" class="node">
<title>Node7</title>
<g id="a_Node000007"><a xlink:href="_text_manager_8cpp.html#afbb8972025ad14e914fdaafa26957439" target="_top" xlink:title=" ">
<polygon fill="white" stroke="#666666" points="1207.62,-77 1158.62,-77 1158.62,-57 1207.62,-57 1207.62,-77"/>
<text text-anchor="middle" x="1183.12" y="-63.5" font-family="Helvetica,sans-Serif" font-size="10.00">findPos</text>
</a>
</g>
</g>
<!-- Node6&#45;&gt;Node7 -->
<g id="edge6_Node000006_Node000007" class="edge">
<title>Node6&#45;&gt;Node7</title>
<g id="a_edge6_Node000006_Node000007"><a xlink:title=" ">
<path fill="none" stroke="#63b8ff" d="M1106.78,-79.46C1119.9,-77.29 1134.4,-74.89 1147.15,-72.78"/>
<polygon fill="#63b8ff" stroke="#63b8ff" points="1147.49,-76.28 1156.79,-71.19 1146.35,-69.37 1147.49,-76.28"/>
</a>
</g>
</g>
<!-- Node9 -->
<g id="Node000009" class="node">
<title>Node9</title>
<g id="a_Node000009"><a xlink:href="_text_manager_8cpp.html#a5e4308ca14d1f4cfc2456fc26b1361a8" target="_top" xlink:title=" ">
<polygon fill="white" stroke="#666666" points="1223.75,-20 1142.5,-20 1142.5,0 1223.75,0 1223.75,-20"/>
<text text-anchor="middle" x="1183.12" y="-6.5" font-family="Helvetica,sans-Serif" font-size="10.00">getIfstreamFile</text>
</a>
</g>
</g>
<!-- Node8&#45;&gt;Node9 -->
<g id="edge8_Node000008_Node000009" class="edge">
<title>Node8&#45;&gt;Node9</title>
<g id="a_edge8_Node000008_Node000009"><a xlink:title=" ">
<path fill="none" stroke="#63b8ff" d="M1106.46,-10C1114.33,-10 1122.7,-10 1130.9,-10"/>
<polygon fill="#63b8ff" stroke="#63b8ff" points="1130.8,-13.5 1140.8,-10 1130.8,-6.5 1130.8,-13.5"/>
</a>
</g>
</g>
<!-- Node10&#45;&gt;Node7 -->
<g id="edge10_Node000010_Node000007" class="edge">
<title>Node10&#45;&gt;Node7</title>
<g id="a_edge10_Node000010_Node000007"><a xlink:title=" ">
<path fill="none" stroke="#63b8ff" d="M1090.5,-51.84C1106.82,-54.54 1128.92,-58.2 1147.34,-61.25"/>
<polygon fill="#63b8ff" stroke="#63b8ff" points="1146.59,-64.67 1157.03,-62.85 1147.73,-57.76 1146.59,-64.67"/>
</a>
</g>
</g>
<!-- Node12 -->
<g id="Node000012" class="node">
<title>Node12</title>
<g id="a_Node000012"><a xlink:href="class_bot_config.html#a0c8b3da81dd5f06097ee696f2f466b67" target="_top" xlink:title=" ">
<polygon fill="white" stroke="#666666" points="497.25,-80 351.5,-80 351.5,-60 497.25,-60 497.25,-80"/>
<text text-anchor="middle" x="424.38" y="-66.5" font-family="Helvetica,sans-Serif" font-size="10.00">BotConfig::readDataLDPlayer</text>
</a>
</g>
</g>
<!-- Node11&#45;&gt;Node12 -->
<g id="edge12_Node000011_Node000012" class="edge">
<title>Node11&#45;&gt;Node12</title>
<g id="a_edge12_Node000011_Node000012"><a xlink:title=" ">
<path fill="none" stroke="#63b8ff" d="M315.84,-70C323.65,-70 331.63,-70 339.52,-70"/>
<polygon fill="#63b8ff" stroke="#63b8ff" points="339.49,-73.5 349.49,-70 339.49,-66.5 339.49,-73.5"/>
</a>
</g>
</g>
<!-- Node13 -->
<g id="Node000013" class="node">
<title>Node13</title>
<g id="a_Node000013"><a xlink:href="class_bot_config.html#a1ede9834fcb1b8dcedf47a367241d030" target="_top" xlink:title=" ">
<polygon fill="white" stroke="#666666" points="488.62,-42 360.12,-42 360.12,-10 488.62,-10 488.62,-42"/>
<text text-anchor="start" x="368.12" y="-28.5" font-family="Helvetica,sans-Serif" font-size="10.00">BotConfig::verifyEmulator</text>
<text text-anchor="middle" x="424.38" y="-16.5" font-family="Helvetica,sans-Serif" font-size="10.00">Folder</text>
</a>
</g>
</g>
<!-- Node11&#45;&gt;Node13 -->
<g id="edge14_Node000011_Node000013" class="edge">
<title>Node11&#45;&gt;Node13</title>
<g id="a_edge14_Node000011_Node000013"><a xlink:title=" ">
<path fill="none" stroke="#63b8ff" d="M283.36,-59.57C302.85,-54.9 326.41,-49.25 348.6,-43.93"/>
<polygon fill="#63b8ff" stroke="#63b8ff" points="349.32,-47.36 358.22,-41.62 347.68,-40.55 349.32,-47.36"/>
</a>
</g>
</g>
<!-- Node12&#45;&gt;Node3 -->
<g id="edge13_Node000012_Node000003" class="edge">
<title>Node12&#45;&gt;Node3</title>
<g id="a_edge13_Node000012_Node000003"><a xlink:title=" ">
<path fill="none" stroke="#63b8ff" d="M497.71,-76.65C505.65,-77.38 513.75,-78.12 521.75,-78.86"/>
<polygon fill="#63b8ff" stroke="#63b8ff" points="521.18,-82.32 531.46,-79.75 521.82,-75.35 521.18,-82.32"/>
</a>
</g>
</g>
<!-- Node14 -->
<g id="Node000014" class="node">
<title>Node14</title>
<g id="a_Node000014"><a xlink:href="sys_commands_8cpp.html#a662dd4893690567ba825a473508f47e2" target="_top" xlink:title=" ">
<polygon fill="white" stroke="#666666" points="631.75,-58 569.25,-58 569.25,-38 631.75,-38 631.75,-58"/>
<text text-anchor="middle" x="600.5" y="-44.5" font-family="Helvetica,sans-Serif" font-size="10.00">pathExists</text>
</a>
</g>
</g>
<!-- Node13&#45;&gt;Node14 -->
<g id="edge15_Node000013_Node000014" class="edge">
<title>Node13&#45;&gt;Node14</title>
<g id="a_edge15_Node000013_Node000014"><a xlink:title=" ">
<path fill="none" stroke="#63b8ff" d="M488.73,-34C511.76,-36.91 537.19,-40.13 557.86,-42.74"/>
<polygon fill="#63b8ff" stroke="#63b8ff" points="557.26,-46.19 567.62,-43.97 558.14,-39.25 557.26,-46.19"/>
</a>
</g>
</g>
<!-- Node15 -->
<g id="Node000015" class="node">
<title>Node15</title>
<g id="a_Node000015"><a xlink:href="class_bot_config.html#a6347ad0b79f04a755fe1d7151ed87cd2" target="_top" xlink:title=" ">
<polygon fill="white" stroke="#666666" points="844.25,-39 703.75,-39 703.75,-19 844.25,-19 844.25,-39"/>
<text text-anchor="middle" x="774" y="-25.5" font-family="Helvetica,sans-Serif" font-size="10.00">BotConfig::readStringBotFile</text>
</a>
</g>
</g>
<!-- Node13&#45;&gt;Node15 -->
<g id="edge16_Node000013_Node000015" class="edge">
<title>Node13&#45;&gt;Node15</title>
<g id="a_edge16_Node000013_Node000015"><a xlink:title=" ">
<path fill="none" stroke="#63b8ff" d="M488.73,-26.55C545.88,-27.04 630.24,-27.77 692.22,-28.3"/>
<polygon fill="#63b8ff" stroke="#63b8ff" points="691.98,-31.8 702.01,-28.39 692.04,-24.8 691.98,-31.8"/>
</a>
</g>
</g>
<!-- Node15&#45;&gt;Node5 -->
<g id="edge17_Node000015_Node000005" class="edge">
<title>Node15&#45;&gt;Node5</title>
<g id="a_edge17_Node000015_Node000005"><a xlink:title=" ">
<path fill="none" stroke="#63b8ff" d="M844.33,-37.28C852.41,-38.24 860.64,-39.23 868.67,-40.18"/>
<polygon fill="#63b8ff" stroke="#63b8ff" points="868.01,-43.63 878.35,-41.34 868.84,-36.68 868.01,-43.63"/>
</a>
</g>
</g>
</g>
</svg>

<g id="navigator" transform="translate(0 0)" fill="#404254">
  <rect fill="#f2f5e9" fill-opacity="0.5" stroke="#606060" stroke-width=".5" x="0" y="0" width="60" height="60"/>
  <use id="zoomplus" xlink:href="#zoomPlus" x="17" y="9" onmousedown="handleZoom(evt,'in')"/>
  <use id="zoomminus" xlink:href="#zoomMin" x="42" y="9" onmousedown="handleZoom(evt,'out')"/>
  <use id="reset" xlink:href="#resetDef" x="30" y="36" onmousedown="handleReset()"/>
   <use id="arrowup" xlink:href="#arrowUp" x="0" y="0" onmousedown="handlePan(0,-1)"/>
  <use id="arrowright" xlink:href="#arrowRight" x="0" y="0" onmousedown="handlePan(1,0)"/>
  <use id="arrowdown" xlink:href="#arrowDown" x="0" y="0" onmousedown="handlePan(0,1)"/>
  <use id="arrowleft" xlink:href="#arrowLeft" x="0" y="0" onmousedown="handlePan(-1,0)"/>
</g>
<svg viewBox="0 0 15 15" width="100%" height="30px" preserveAspectRatio="xMaxYMin meet">
 <g id="arrow_out" transform="scale(0.3 0.3)">
  <a xlink:href="class_bot_config_ae75cf338c4da36cf1996494dae4273ca_cgraph_org.svg" target="_base">
   <rect id="button" ry="5" rx="5" y="6" x="6" height="38" width="38"
        fill="#f2f5e9" fill-opacity="0.5" stroke="#606060" stroke-width="1.0"/>
   <path id="arrow"
     d="M 11.500037,31.436501 C 11.940474,20.09759 22.043105,11.32322 32.158766,21.979434 L 37.068811,17.246167 C 37.068811,17.246167 37.088388,32 37.088388,32 L 22.160133,31.978069 C 22.160133,31.978069 26.997745,27.140456 26.997745,27.140456 C 18.528582,18.264221 13.291696,25.230495 11.500037,31.436501 z"
     style="fill:#404040;"/>
  </a>
 </g>
</svg>

<style type='text/css'>
<![CDATA[
[data-mouse-over-selected='false'] { opacity: 0.7; }
[data-mouse-over-selected='true']  { opacity: 1.0; }
]]>
</style>
<script type="application/ecmascript"><![CDATA[
document.addEventListener('DOMContentLoaded', (event) => {
  highlightEdges();
  highlightAdjacentNodes();
});
]]></script>
</svg>
