<?xml version="1.0" encoding="UTF-8" standalone="no"?>
<!DOCTYPE svg PUBLIC "-//W3C//DTD SVG 1.1//EN"
 "http://www.w3.org/Graphics/SVG/1.1/DTD/svg11.dtd">
<!-- Generated by graphviz version 12.2.0 (20241103.1931)
 -->
<!-- Title: BotConfig::readBool Pages: 1 -->
<svg width="901pt" height="160pt"
 viewBox="0.00 0.00 900.75 160.00" xmlns="http://www.w3.org/2000/svg" xmlns:xlink="http://www.w3.org/1999/xlink">
<g id="graph0" class="graph" transform="scale(1 1) rotate(0) translate(4 156)">
<title>BotConfig::readBool</title>
<!-- Node1 -->
<g id="Node000001" class="node">
<title>Node1</title>
<g id="a_Node000001"><a xlink:title=" ">
<polygon fill="#999999" stroke="#666666" points="103.75,-58 0,-58 0,-38 103.75,-38 103.75,-58"/>
<text text-anchor="middle" x="51.88" y="-44.5" font-family="Helvetica,sans-Serif" font-size="10.00">BotConfig::readBool</text>
</a>
</g>
</g>
<!-- Node2 -->
<g id="Node000002" class="node">
<title>Node2</title>
<g id="a_Node000002"><a xlink:href="class_bot_config.html#a623d05e4d8e0122d35b1a3e391fc2464" target="_top" xlink:title=" ">
<polygon fill="white" stroke="#666666" points="249.5,-58 139.75,-58 139.75,-38 249.5,-38 249.5,-58"/>
<text text-anchor="middle" x="194.62" y="-44.5" font-family="Helvetica,sans-Serif" font-size="10.00">BotConfig::readString</text>
</a>
</g>
</g>
<!-- Node1&#45;&gt;Node2 -->
<g id="edge1_Node000001_Node000002" class="edge">
<title>Node1&#45;&gt;Node2</title>
<g id="a_edge1_Node000001_Node000002"><a xlink:title=" ">
<path fill="none" stroke="#63b8ff" d="M104.09,-48C111.89,-48 120.03,-48 128.08,-48"/>
<polygon fill="#63b8ff" stroke="#63b8ff" points="127.86,-51.5 137.86,-48 127.86,-44.5 127.86,-51.5"/>
</a>
</g>
</g>
<!-- Node3 -->
<g id="Node000003" class="node">
<title>Node3</title>
<g id="a_Node000003"><a xlink:href="_text_manager_8cpp.html#a85a282af68cca7cf7d69487d1bacdc47" target="_top" xlink:title=" ">
<polygon fill="white" stroke="#666666" points="503.88,-96 419.62,-96 419.62,-76 503.88,-76 503.88,-96"/>
<text text-anchor="middle" x="461.75" y="-82.5" font-family="Helvetica,sans-Serif" font-size="10.00">extractBetween</text>
</a>
</g>
</g>
<!-- Node2&#45;&gt;Node3 -->
<g id="edge2_Node000002_Node000003" class="edge">
<title>Node2&#45;&gt;Node3</title>
<g id="a_edge2_Node000002_Node000003"><a xlink:title=" ">
<path fill="none" stroke="#63b8ff" d="M240.72,-58.46C254.99,-61.52 270.85,-64.66 285.5,-67 326.36,-73.52 372.95,-78.45 407.82,-81.66"/>
<polygon fill="#63b8ff" stroke="#63b8ff" points="407.38,-85.13 417.66,-82.54 408.01,-78.16 407.38,-85.13"/>
</a>
</g>
</g>
<!-- Node9 -->
<g id="Node000009" class="node">
<title>Node9</title>
<g id="a_Node000009"><a xlink:href="_text_manager_8cpp.html#add36cc54cd9616a393a17b8961491477" target="_top" xlink:title=" ">
<polygon fill="white" stroke="#666666" points="365.25,-20 285.5,-20 285.5,0 365.25,0 365.25,-20"/>
<text text-anchor="middle" x="325.38" y="-6.5" font-family="Helvetica,sans-Serif" font-size="10.00">getFileContent</text>
</a>
</g>
</g>
<!-- Node2&#45;&gt;Node9 -->
<g id="edge11_Node000002_Node000009" class="edge">
<title>Node2&#45;&gt;Node9</title>
<g id="a_edge11_Node000002_Node000009"><a xlink:title=" ">
<path fill="none" stroke="#63b8ff" d="M231.15,-37.52C245.64,-33.24 262.6,-28.23 278.04,-23.67"/>
<polygon fill="#63b8ff" stroke="#63b8ff" points="278.92,-27.07 287.52,-20.88 276.94,-20.35 278.92,-27.07"/>
</a>
</g>
</g>
<!-- Node10 -->
<g id="Node000010" class="node">
<title>Node10</title>
<g id="a_Node000010"><a xlink:href="_text_manager_8cpp.html#af24bee60aa1d3d5b4ae3bf6ebd267ecd" target="_top" xlink:title=" ">
<polygon fill="white" stroke="#666666" points="349.12,-58 301.62,-58 301.62,-38 349.12,-38 349.12,-58"/>
<text text-anchor="middle" x="325.38" y="-44.5" font-family="Helvetica,sans-Serif" font-size="10.00">getLine</text>
</a>
</g>
</g>
<!-- Node2&#45;&gt;Node10 -->
<g id="edge12_Node000002_Node000010" class="edge">
<title>Node2&#45;&gt;Node10</title>
<g id="a_edge12_Node000002_Node000010"><a xlink:title=" ">
<path fill="none" stroke="#63b8ff" d="M249.85,-48C263.5,-48 277.77,-48 290.12,-48"/>
<polygon fill="#63b8ff" stroke="#63b8ff" points="289.79,-51.5 299.79,-48 289.79,-44.5 289.79,-51.5"/>
</a>
</g>
</g>
<!-- Node4 -->
<g id="Node000004" class="node">
<title>Node4</title>
<g id="a_Node000004"><a xlink:href="_text_manager_8cpp.html#a6956d58559ef67f422247fdeb1c22775" target="_top" xlink:title=" ">
<polygon fill="white" stroke="#666666" points="638,-96 562,-96 562,-76 638,-76 638,-96"/>
<text text-anchor="middle" x="600" y="-82.5" font-family="Helvetica,sans-Serif" font-size="10.00">getStringAfter</text>
</a>
</g>
</g>
<!-- Node3&#45;&gt;Node4 -->
<g id="edge3_Node000003_Node000004" class="edge">
<title>Node3&#45;&gt;Node4</title>
<g id="a_edge3_Node000003_Node000004"><a xlink:title=" ">
<path fill="none" stroke="#63b8ff" d="M504.37,-86C518.96,-86 535.48,-86 550.58,-86"/>
<polygon fill="#63b8ff" stroke="#63b8ff" points="550.28,-89.5 560.28,-86 550.28,-82.5 550.28,-89.5"/>
</a>
</g>
</g>
<!-- Node8 -->
<g id="Node000008" class="node">
<title>Node8</title>
<g id="a_Node000008"><a xlink:href="_text_manager_8cpp.html#aff8311b88dbf5f3091f3ac1262543242" target="_top" xlink:title=" ">
<polygon fill="white" stroke="#666666" points="641.75,-58 558.25,-58 558.25,-38 641.75,-38 641.75,-58"/>
<text text-anchor="middle" x="600" y="-44.5" font-family="Helvetica,sans-Serif" font-size="10.00">getStringBefore</text>
</a>
</g>
</g>
<!-- Node3&#45;&gt;Node8 -->
<g id="edge9_Node000003_Node000008" class="edge">
<title>Node3&#45;&gt;Node8</title>
<g id="a_edge9_Node000003_Node000008"><a xlink:title=" ">
<path fill="none" stroke="#63b8ff" d="M500.34,-75.52C515.83,-71.2 533.97,-66.14 550.45,-61.54"/>
<polygon fill="#63b8ff" stroke="#63b8ff" points="551.38,-64.91 560.07,-58.86 549.5,-58.17 551.38,-64.91"/>
</a>
</g>
</g>
<!-- Node5 -->
<g id="Node000005" class="node">
<title>Node5</title>
<g id="a_Node000005"><a xlink:href="_text_manager_8cpp.html#a5b66873abcff2faee361721f86b65dd0" target="_top" xlink:title=" ">
<polygon fill="white" stroke="#666666" points="756,-96 688.25,-96 688.25,-76 756,-76 756,-96"/>
<text text-anchor="middle" x="722.12" y="-82.5" font-family="Helvetica,sans-Serif" font-size="10.00">getPosAfter</text>
</a>
</g>
</g>
<!-- Node4&#45;&gt;Node5 -->
<g id="edge4_Node000004_Node000005" class="edge">
<title>Node4&#45;&gt;Node5</title>
<g id="a_edge4_Node000004_Node000005"><a xlink:title=" ">
<path fill="none" stroke="#63b8ff" d="M638.35,-86C650.48,-86 664.05,-86 676.65,-86"/>
<polygon fill="#63b8ff" stroke="#63b8ff" points="676.36,-89.5 686.36,-86 676.36,-82.5 676.36,-89.5"/>
</a>
</g>
</g>
<!-- Node7 -->
<g id="Node000007" class="node">
<title>Node7</title>
<g id="a_Node000007"><a xlink:href="_text_manager_8cpp.html#a2946b90fb3df56b0a74d53eb4160f4e2" target="_top" xlink:title=" ">
<polygon fill="white" stroke="#666666" points="766.5,-134 677.75,-134 677.75,-114 766.5,-114 766.5,-134"/>
<text text-anchor="middle" x="722.12" y="-120.5" font-family="Helvetica,sans-Serif" font-size="10.00">getStringStarting</text>
</a>
</g>
</g>
<!-- Node4&#45;&gt;Node7 -->
<g id="edge6_Node000004_Node000007" class="edge">
<title>Node4&#45;&gt;Node7</title>
<g id="a_edge6_Node000004_Node000007"><a xlink:title=" ">
<path fill="none" stroke="#63b8ff" d="M634.14,-96.48C647.53,-100.72 663.18,-105.67 677.48,-110.19"/>
<polygon fill="#63b8ff" stroke="#63b8ff" points="676.06,-113.41 686.65,-113.09 678.17,-106.74 676.06,-113.41"/>
</a>
</g>
</g>
<!-- Node6 -->
<g id="Node000006" class="node">
<title>Node6</title>
<g id="a_Node000006"><a xlink:href="_text_manager_8cpp.html#a3f4afb2b62acd297e783a22ffa9a7000" target="_top" xlink:title=" ">
<polygon fill="white" stroke="#666666" points="892.75,-96 802.5,-96 802.5,-76 892.75,-76 892.75,-96"/>
<text text-anchor="middle" x="847.62" y="-82.5" font-family="Helvetica,sans-Serif" font-size="10.00">getSequencePos</text>
</a>
</g>
</g>
<!-- Node5&#45;&gt;Node6 -->
<g id="edge5_Node000005_Node000006" class="edge">
<title>Node5&#45;&gt;Node6</title>
<g id="a_edge5_Node000005_Node000006"><a xlink:title=" ">
<path fill="none" stroke="#63b8ff" d="M756.22,-86C766.94,-86 779.14,-86 791.04,-86"/>
<polygon fill="#63b8ff" stroke="#63b8ff" points="790.77,-89.5 800.77,-86 790.77,-82.5 790.77,-89.5"/>
</a>
</g>
</g>
<!-- Node7&#45;&gt;Node6 -->
<g id="edge7_Node000007_Node000006" class="edge">
<title>Node7&#45;&gt;Node6</title>
<g id="a_edge7_Node000007_Node000006"><a xlink:title=" ">
<path fill="none" stroke="#63b8ff" d="M757.2,-113.52C770.97,-109.28 787.05,-104.33 801.75,-99.81"/>
<polygon fill="#63b8ff" stroke="#63b8ff" points="802.69,-103.18 811.22,-96.9 800.63,-96.49 802.69,-103.18"/>
</a>
</g>
</g>
<!-- Node7&#45;&gt;Node7 -->
<g id="edge8_Node000007_Node000007" class="edge">
<title>Node7&#45;&gt;Node7</title>
<g id="a_edge8_Node000007_Node000007"><a xlink:title=" ">
<path fill="none" stroke="#63b8ff" d="M702.72,-134.34C694.43,-142.98 700.9,-152 722.12,-152 733.73,-152 740.93,-149.3 743.71,-145.44"/>
<polygon fill="#63b8ff" stroke="#63b8ff" points="747.18,-144.96 741.82,-135.82 740.31,-146.31 747.18,-144.96"/>
</a>
</g>
</g>
<!-- Node8&#45;&gt;Node6 -->
<g id="edge10_Node000008_Node000006" class="edge">
<title>Node8&#45;&gt;Node6</title>
<g id="a_edge10_Node000008_Node000006"><a xlink:title=" ">
<path fill="none" stroke="#63b8ff" d="M642,-51.34C675.61,-54.41 724.34,-59.61 766.5,-67 776.01,-68.67 786.09,-70.78 795.76,-72.98"/>
<polygon fill="#63b8ff" stroke="#63b8ff" points="794.87,-76.37 805.4,-75.25 796.47,-69.55 794.87,-76.37"/>
</a>
</g>
</g>
<!-- Node10&#45;&gt;Node3 -->
<g id="edge13_Node000010_Node000003" class="edge">
<title>Node10&#45;&gt;Node3</title>
<g id="a_edge13_Node000010_Node000003"><a xlink:title=" ">
<path fill="none" stroke="#63b8ff" d="M349.47,-54.53C366.86,-59.45 391.28,-66.36 412.83,-72.45"/>
<polygon fill="#63b8ff" stroke="#63b8ff" points="411.74,-75.78 422.32,-75.13 413.65,-69.04 411.74,-75.78"/>
</a>
</g>
</g>
<!-- Node11 -->
<g id="Node000011" class="node">
<title>Node11</title>
<g id="a_Node000011"><a xlink:href="_text_manager_8cpp.html#a84a9e24fc5cce3cebf746bb656909bf8" target="_top" xlink:title=" ">
<polygon fill="white" stroke="#666666" points="522.25,-58 401.25,-58 401.25,-38 522.25,-38 522.25,-58"/>
<text text-anchor="middle" x="461.75" y="-44.5" font-family="Helvetica,sans-Serif" font-size="10.00">extractBetweenReverse</text>
</a>
</g>
</g>
<!-- Node10&#45;&gt;Node11 -->
<g id="edge14_Node000010_Node000011" class="edge">
<title>Node10&#45;&gt;Node11</title>
<g id="a_edge14_Node000010_Node000011"><a xlink:title=" ">
<path fill="none" stroke="#63b8ff" d="M349.47,-48C360.84,-48 375.21,-48 389.82,-48"/>
<polygon fill="#63b8ff" stroke="#63b8ff" points="389.48,-51.5 399.48,-48 389.48,-44.5 389.48,-51.5"/>
</a>
</g>
</g>
<!-- Node11&#45;&gt;Node4 -->
<g id="edge15_Node000011_Node000004" class="edge">
<title>Node11&#45;&gt;Node4</title>
<g id="a_edge15_Node000011_Node000004"><a xlink:title=" ">
<path fill="none" stroke="#63b8ff" d="M500.34,-58.48C515.83,-62.8 533.97,-67.86 550.45,-72.46"/>
<polygon fill="#63b8ff" stroke="#63b8ff" points="549.5,-75.83 560.07,-75.14 551.38,-69.09 549.5,-75.83"/>
</a>
</g>
</g>
<!-- Node11&#45;&gt;Node8 -->
<g id="edge16_Node000011_Node000008" class="edge">
<title>Node11&#45;&gt;Node8</title>
<g id="a_edge16_Node000011_Node000008"><a xlink:title=" ">
<path fill="none" stroke="#63b8ff" d="M522.51,-48C530.58,-48 538.81,-48 546.74,-48"/>
<polygon fill="#63b8ff" stroke="#63b8ff" points="546.57,-51.5 556.57,-48 546.57,-44.5 546.57,-51.5"/>
</a>
</g>
</g>
</g>
</svg>
