<?xml version="1.0" encoding="UTF-8" standalone="no"?>
<!DOCTYPE svg PUBLIC "-//W3C//DTD SVG 1.1//EN"
 "http://www.w3.org/Graphics/SVG/1.1/DTD/svg11.dtd">
<!-- Generated by graphviz version 12.2.0 (20241103.1931)
 -->
<!-- Title: TagPanel::createDetailsPanel Pages: 1 -->
<svg width="488pt" height="104pt"
 viewBox="0.00 0.00 488.00 104.00" xmlns="http://www.w3.org/2000/svg" xmlns:xlink="http://www.w3.org/1999/xlink">

<svg id="main" version="1.1" xmlns="http://www.w3.org/2000/svg" xmlns:xlink="http://www.w3.org/1999/xlink" xml:space="preserve">

<style type="text/css"><![CDATA[
.node, .edge {opacity: 0.7;}
.node.selected, .edge.selected {opacity: 1;}
.edge:hover path { stroke: red; }
.edge:hover polygon { stroke: red; fill: red; }
]]></style>
<script type="application/ecmascript" xlink:href="svg.min.js"/>
<svg id="graph" class="graph">
<g id="graph0" class="graph" transform="scale(1 1) rotate(0) translate(4 100)">
<title>TagPanel::createDetailsPanel</title>
<!-- Node1 -->
<g id="Node000001" class="node">
<title>Node1</title>
<g id="a_Node000001"><a xlink:title=" ">
<polygon fill="#999999" stroke="#666666" points="145,-58 0,-58 0,-38 145,-38 145,-58"/>
<text text-anchor="middle" x="72.5" y="-44.5" font-family="Helvetica,sans-Serif" font-size="10.00">TagPanel::createDetailsPanel</text>
</a>
</g>
</g>
<!-- Node2 -->
<g id="Node000002" class="node">
<title>Node2</title>
<g id="a_Node000002"><a xlink:href="class_tag_panel.html#a5a896e5052102ac83010bc155bfd49aa" target="_top" xlink:title=" ">
<polygon fill="white" stroke="#666666" points="320.38,-96 189.62,-96 189.62,-76 320.38,-76 320.38,-96"/>
<text text-anchor="middle" x="255" y="-82.5" font-family="Helvetica,sans-Serif" font-size="10.00">TagPanel::initDetailsPanel</text>
</a>
</g>
</g>
<!-- Node1&#45;&gt;Node2 -->
<g id="edge1_Node000001_Node000002" class="edge">
<title>Node1&#45;&gt;Node2</title>
<g id="a_edge1_Node000001_Node000002"><a xlink:title=" ">
<path fill="none" stroke="#63b8ff" d="M123.3,-58.48C144.9,-63.03 170.4,-68.4 193.12,-73.18"/>
<polygon fill="#63b8ff" stroke="#63b8ff" points="192.37,-76.6 202.88,-75.24 193.82,-69.75 192.37,-76.6"/>
</a>
</g>
</g>
<!-- Node3 -->
<g id="Node000003" class="node">
<title>Node3</title>
<g id="a_Node000003"><a xlink:href="class_tag_panel.html#a66d61d27a1bc39bf48ec00fd0f09dfd8" target="_top" xlink:title=" ">
<polygon fill="white" stroke="#666666" points="329,-58 181,-58 181,-38 329,-38 329,-58"/>
<text text-anchor="middle" x="255" y="-44.5" font-family="Helvetica,sans-Serif" font-size="10.00">TagPanel::initDetailsTagName</text>
</a>
</g>
</g>
<!-- Node1&#45;&gt;Node3 -->
<g id="edge2_Node000001_Node000003" class="edge">
<title>Node1&#45;&gt;Node3</title>
<g id="a_edge2_Node000001_Node000003"><a xlink:title=" ">
<path fill="none" stroke="#63b8ff" d="M145.36,-48C153.24,-48 161.32,-48 169.34,-48"/>
<polygon fill="#63b8ff" stroke="#63b8ff" points="169.1,-51.5 179.1,-48 169.1,-44.5 169.1,-51.5"/>
</a>
</g>
</g>
<!-- Node5 -->
<g id="Node000005" class="node">
<title>Node5</title>
<g id="a_Node000005"><a xlink:href="class_tag_panel.html#a82ceff512bd6bf6302d782ea908c9ef9" target="_top" xlink:title=" ">
<polygon fill="white" stroke="#666666" points="311.38,-20 198.62,-20 198.62,0 311.38,0 311.38,-20"/>
<text text-anchor="middle" x="255" y="-6.5" font-family="Helvetica,sans-Serif" font-size="10.00">TagPanel::linkToPanel</text>
</a>
</g>
</g>
<!-- Node1&#45;&gt;Node5 -->
<g id="edge4_Node000001_Node000005" class="edge">
<title>Node1&#45;&gt;Node5</title>
<g id="a_edge4_Node000001_Node000005"><a xlink:title=" ">
<path fill="none" stroke="#63b8ff" d="M123.3,-37.52C144.9,-32.97 170.4,-27.6 193.12,-22.82"/>
<polygon fill="#63b8ff" stroke="#63b8ff" points="193.82,-26.25 202.88,-20.76 192.37,-19.4 193.82,-26.25"/>
</a>
</g>
</g>
<!-- Node4 -->
<g id="Node000004" class="node">
<title>Node4</title>
<g id="a_Node000004"><a xlink:href="class_tag_panel.html#a43c96ffa9523c002fb96126500209ce8" target="_top" xlink:title=" ">
<polygon fill="white" stroke="#666666" points="480,-58 365,-58 365,-38 480,-38 480,-58"/>
<text text-anchor="middle" x="422.5" y="-44.5" font-family="Helvetica,sans-Serif" font-size="10.00">TagPanel::SetLineFont</text>
</a>
</g>
</g>
<!-- Node3&#45;&gt;Node4 -->
<g id="edge3_Node000003_Node000004" class="edge">
<title>Node3&#45;&gt;Node4</title>
<g id="a_edge3_Node000003_Node000004"><a xlink:title=" ">
<path fill="none" stroke="#63b8ff" d="M329.07,-48C337.1,-48 345.25,-48 353.22,-48"/>
<polygon fill="#63b8ff" stroke="#63b8ff" points="353.21,-51.5 363.21,-48 353.21,-44.5 353.21,-51.5"/>
</a>
</g>
</g>
</g>
</svg>
</svg>

<style type='text/css'>
<![CDATA[
[data-mouse-over-selected='false'] { opacity: 0.7; }
[data-mouse-over-selected='true']  { opacity: 1.0; }
]]>
</style>
<script type="application/ecmascript"><![CDATA[
document.addEventListener('DOMContentLoaded', (event) => {
  highlightEdges();
  highlightAdjacentNodes();
});
]]></script>
</svg>
