<?xml version="1.0" encoding="UTF-8" standalone="no"?>
<!DOCTYPE svg PUBLIC "-//W3C//DTD SVG 1.1//EN"
 "http://www.w3.org/Graphics/SVG/1.1/DTD/svg11.dtd">
<!-- Generated by graphviz version 12.2.0 (20241103.1931)
 -->
<!-- Title: LDPlayer::startInstance Pages: 1 -->
<svg width="503pt" height="85pt"
 viewBox="0.00 0.00 502.50 85.00" xmlns="http://www.w3.org/2000/svg" xmlns:xlink="http://www.w3.org/1999/xlink">
<g id="graph0" class="graph" transform="scale(1 1) rotate(0) translate(4 81)">
<title>LDPlayer::startInstance</title>
<!-- Node1 -->
<g id="Node000001" class="node">
<title>Node1</title>
<g id="a_Node000001"><a xlink:title=" ">
<polygon fill="#999999" stroke="#666666" points="119.5,-39 0,-39 0,-19 119.5,-19 119.5,-39"/>
<text text-anchor="middle" x="59.75" y="-25.5" font-family="Helvetica,sans-Serif" font-size="10.00">LDPlayer::startInstance</text>
</a>
</g>
</g>
<!-- Node2 -->
<g id="Node000002" class="node">
<title>Node2</title>
<g id="a_Node000002"><a xlink:href="sys_commands_8cpp.html#a40529d2008c5ec34a2251615ad504e28" target="_top" xlink:title=" ">
<polygon fill="white" stroke="#666666" points="272.75,-58 179.5,-58 179.5,-38 272.75,-38 272.75,-58"/>
<text text-anchor="middle" x="226.12" y="-44.5" font-family="Helvetica,sans-Serif" font-size="10.00">moveAndExecute</text>
</a>
</g>
</g>
<!-- Node1&#45;&gt;Node2 -->
<g id="edge1_Node000001_Node000002" class="edge">
<title>Node1&#45;&gt;Node2</title>
<g id="a_edge1_Node000001_Node000002"><a xlink:title=" ">
<path fill="none" stroke="#63b8ff" d="M119.63,-35.81C135.34,-37.62 152.3,-39.58 167.92,-41.39"/>
<polygon fill="#63b8ff" stroke="#63b8ff" points="167.19,-44.83 177.52,-42.5 167.99,-37.87 167.19,-44.83"/>
</a>
</g>
</g>
<!-- Node6 -->
<g id="Node000006" class="node">
<title>Node6</title>
<g id="a_Node000006"><a xlink:href="class_l_d_player.html#aa85461ad56f19bcf3620c16d6781f640" target="_top" xlink:title=" ">
<polygon fill="white" stroke="#666666" points="296.75,-20 155.5,-20 155.5,0 296.75,0 296.75,-20"/>
<text text-anchor="middle" x="226.12" y="-6.5" font-family="Helvetica,sans-Serif" font-size="10.00">LDPlayer::transformInstance</text>
</a>
</g>
</g>
<!-- Node1&#45;&gt;Node6 -->
<g id="edge5_Node000001_Node000006" class="edge">
<title>Node1&#45;&gt;Node6</title>
<g id="a_edge5_Node000001_Node000006"><a xlink:title=" ">
<path fill="none" stroke="#63b8ff" d="M119.63,-22.19C127.55,-21.28 135.78,-20.33 143.99,-19.38"/>
<polygon fill="#63b8ff" stroke="#63b8ff" points="144.12,-22.89 153.66,-18.26 143.32,-15.93 144.12,-22.89"/>
</a>
</g>
</g>
<!-- Node3 -->
<g id="Node000003" class="node">
<title>Node3</title>
<g id="a_Node000003"><a xlink:href="sys_commands_8cpp.html#a321eb7e335377aa7182bafc8a1605032" target="_top" xlink:title=" ">
<polygon fill="white" stroke="#666666" points="399.75,-58 332.75,-58 332.75,-38 399.75,-38 399.75,-58"/>
<text text-anchor="middle" x="366.25" y="-44.5" font-family="Helvetica,sans-Serif" font-size="10.00">receivePipe</text>
</a>
</g>
</g>
<!-- Node2&#45;&gt;Node3 -->
<g id="edge2_Node000002_Node000003" class="edge">
<title>Node2&#45;&gt;Node3</title>
<g id="a_edge2_Node000002_Node000003"><a xlink:title=" ">
<path fill="none" stroke="#63b8ff" d="M273.12,-48C288.63,-48 305.89,-48 321.24,-48"/>
<polygon fill="#63b8ff" stroke="#63b8ff" points="321.04,-51.5 331.04,-48 321.04,-44.5 321.04,-51.5"/>
</a>
</g>
</g>
<!-- Node4 -->
<g id="Node000004" class="node">
<title>Node4</title>
<g id="a_Node000004"><a xlink:href="sys_commands_8cpp.html#a4771c79171a937893508dabadadbe099" target="_top" xlink:title=" ">
<polygon fill="white" stroke="#666666" points="494.5,-77 435.75,-77 435.75,-57 494.5,-57 494.5,-77"/>
<text text-anchor="middle" x="465.12" y="-63.5" font-family="Helvetica,sans-Serif" font-size="10.00">closePipe</text>
</a>
</g>
</g>
<!-- Node3&#45;&gt;Node4 -->
<g id="edge3_Node000003_Node000004" class="edge">
<title>Node3&#45;&gt;Node4</title>
<g id="a_edge3_Node000003_Node000004"><a xlink:title=" ">
<path fill="none" stroke="#63b8ff" d="M400.05,-54.43C407.81,-55.95 416.17,-57.59 424.21,-59.17"/>
<polygon fill="#63b8ff" stroke="#63b8ff" points="423.28,-62.56 433.77,-61.05 424.63,-55.69 423.28,-62.56"/>
</a>
</g>
</g>
<!-- Node5 -->
<g id="Node000005" class="node">
<title>Node5</title>
<g id="a_Node000005"><a xlink:href="sys_commands_8cpp.html#a3499ce0cd7e4ed28b3c5461a4d3aec84" target="_top" xlink:title=" ">
<polygon fill="white" stroke="#666666" points="493.38,-39 436.88,-39 436.88,-19 493.38,-19 493.38,-39"/>
<text text-anchor="middle" x="465.12" y="-25.5" font-family="Helvetica,sans-Serif" font-size="10.00">openPipe</text>
</a>
</g>
</g>
<!-- Node3&#45;&gt;Node5 -->
<g id="edge4_Node000003_Node000005" class="edge">
<title>Node3&#45;&gt;Node5</title>
<g id="a_edge4_Node000003_Node000005"><a xlink:title=" ">
<path fill="none" stroke="#63b8ff" d="M400.05,-41.57C408.2,-39.97 417.01,-38.24 425.42,-36.59"/>
<polygon fill="#63b8ff" stroke="#63b8ff" points="425.9,-40.06 435.04,-34.7 424.55,-33.19 425.9,-40.06"/>
</a>
</g>
</g>
</g>
</svg>
