<?xml version="1.0" encoding="UTF-8" standalone="no"?>
<!DOCTYPE svg PUBLIC "-//W3C//DTD SVG 1.1//EN"
 "http://www.w3.org/Graphics/SVG/1.1/DTD/svg11.dtd">
<!-- Generated by graphviz version 12.2.0 (20241103.1931)
 -->
<!-- Title: FlowTagPanel Pages: 1 -->
<!--zoomable 1358 -->

<svg id="main" version="1.1" xmlns="http://www.w3.org/2000/svg" xmlns:xlink="http://www.w3.org/1999/xlink" xml:space="preserve" onload="init(evt)">

<style type="text/css"><![CDATA[
.node, .edge {opacity: 0.7;}
.node.selected, .edge.selected {opacity: 1;}
.edge:hover path { stroke: red; }
.edge:hover polygon { stroke: red; fill: red; }
]]></style>

<defs>
  <circle id="rim" cx="0" cy="0" r="7"/>
  <circle id="rim2" cx="0" cy="0" r="3.5"/>
  <g id="zoomPlus">
    <use xlink:href="#rim" fill="#404040"><set attributeName="fill" to="#808080" begin="zoomplus.mouseover" end="zoomplus.mouseout"/></use>
    <path d="M-4,0h8M0,-4v8" fill="none" stroke="white" stroke-width="1.5" pointer-events="none"/>
  </g>
  <g id="zoomMin">
    <use xlink:href="#rim" fill="#404040"><set attributeName="fill" to="#808080" begin="zoomminus.mouseover" end="zoomminus.mouseout"/></use>
    <path d="M-4,0h8" fill="none" stroke="white" stroke-width="1.5" pointer-events="none"/>
  </g>
  <g id="arrowUp" transform="translate(30 24)">
    <use xlink:href="#rim"/>
    <path pointer-events="none" fill="none" stroke="white" stroke-width="1.5" d="M0,-3.0v7 M-2.5,-0.5L0,-3.0L2.5,-0.5"/>
  </g>
  <g id="arrowRight" transform="rotate(90) translate(36 -43)">
    <use xlink:href="#rim"/>
    <path pointer-events="none" fill="none" stroke="white" stroke-width="1.5" d="M0,-3.0v7 M-2.5,-0.5L0,-3.0L2.5,-0.5"/>
  </g>
  <g id="arrowDown" transform="rotate(180) translate(-30 -48)">
    <use xlink:href="#rim"/>
    <path pointer-events="none" fill="none" stroke="white" stroke-width="1.5" d="M0,-3.0v7 M-2.5,-0.5L0,-3.0L2.5,-0.5"/>
  </g>
  <g id="arrowLeft" transform="rotate(270) translate(-36 17)">
    <use xlink:href="#rim"/>
    <path pointer-events="none" fill="none" stroke="white" stroke-width="1.5" d="M0,-3.0v7 M-2.5,-0.5L0,-3.0L2.5,-0.5"/>
  </g>
  <g id="resetDef">
    <use xlink:href="#rim2" fill="#404040"><set attributeName="fill" to="#808080" begin="reset.mouseover" end="reset.mouseout"/></use>
  </g>
</defs>
<script type="application/ecmascript">
var viewWidth = 276;
var viewHeight = 1358;
var sectionId = 'dynsection-1';
</script>
<script type="application/ecmascript" xlink:href="svg.min.js"/>
<svg id="graph" class="graph">
<g id="viewport">
<title>FlowTagPanel</title>
<!-- Node1 -->
<g id="Node000001" class="node">
<title>Node1</title>
<g id="a_Node000001"><a xlink:title=" ">
<polygon fill="#999999" stroke="none" points="203.25,-380 0,-380 0,0 203.25,0 203.25,-380"/>
<text text-anchor="start" x="70.88" y="-366.5" font-family="Helvetica,sans-Serif" font-size="10.00">FlowTagPanel</text>
<text text-anchor="start" x="4.38" y="-350.5" font-family="Helvetica,sans-Serif" font-size="10.00">#</text>
<text text-anchor="start" x="14" y="-350.5" font-family="Helvetica,sans-Serif" font-size="10.00">wxSizerItem * bottomSpacer</text>
<text text-anchor="start" x="4.38" y="-334.5" font-family="Helvetica,sans-Serif" font-size="10.00">#</text>
<text text-anchor="start" x="14" y="-334.5" font-family="Helvetica,sans-Serif" font-size="10.00">int nbFlowParents</text>
<text text-anchor="start" x="4.38" y="-318.5" font-family="Helvetica,sans-Serif" font-size="10.00">#</text>
<text text-anchor="start" x="14" y="-318.5" font-family="Helvetica,sans-Serif" font-size="10.00">wxBoxSizer * childrenSizer</text>
<text text-anchor="start" x="4.38" y="-302.5" font-family="Helvetica,sans-Serif" font-size="10.00">#</text>
<text text-anchor="start" x="14" y="-302.5" font-family="Helvetica,sans-Serif" font-size="10.00">wxButton * hider</text>
<text text-anchor="start" x="4" y="-286.5" font-family="Helvetica,sans-Serif" font-size="10.00">+</text>
<text text-anchor="start" x="14" y="-286.5" font-family="Helvetica,sans-Serif" font-size="10.00">FlowTagPanel(bool</text>
<text text-anchor="start" x="14" y="-274.5" font-family="Helvetica,sans-Serif" font-size="10.00"> topConstructor=true)</text>
<text text-anchor="start" x="4" y="-258.5" font-family="Helvetica,sans-Serif" font-size="10.00">+</text>
<text text-anchor="start" x="14" y="-258.5" font-family="Helvetica,sans-Serif" font-size="10.00">FlowTagPanel(wxWindow</text>
<text text-anchor="start" x="14" y="-246.5" font-family="Helvetica,sans-Serif" font-size="10.00"> *parentWindow, bool topConstructor=true)</text>
<text text-anchor="start" x="4" y="-230.5" font-family="Helvetica,sans-Serif" font-size="10.00">+</text>
<text text-anchor="start" x="14" y="-230.5" font-family="Helvetica,sans-Serif" font-size="10.00">FlowTagPanel(const</text>
<text text-anchor="start" x="14" y="-218.5" font-family="Helvetica,sans-Serif" font-size="10.00"> FlowTagPanel &amp;toCopy,</text>
<text text-anchor="start" x="14" y="-206.5" font-family="Helvetica,sans-Serif" font-size="10.00"> bool topConstructor=true)</text>
<text text-anchor="start" x="4" y="-190.5" font-family="Helvetica,sans-Serif" font-size="10.00">+</text>
<text text-anchor="start" x="14" y="-190.5" font-family="Helvetica,sans-Serif" font-size="10.00">FlowTagPanel * clone</text>
<text text-anchor="start" x="14" y="-178.5" font-family="Helvetica,sans-Serif" font-size="10.00">() override</text>
<text text-anchor="start" x="4" y="-162.5" font-family="Helvetica,sans-Serif" font-size="10.00">+</text>
<text text-anchor="start" x="14" y="-162.5" font-family="Helvetica,sans-Serif" font-size="10.00">~FlowTagPanel()</text>
<text text-anchor="start" x="4" y="-146.5" font-family="Helvetica,sans-Serif" font-size="10.00">+</text>
<text text-anchor="start" x="14" y="-146.5" font-family="Helvetica,sans-Serif" font-size="10.00">void initChildrenSizer()</text>
<text text-anchor="start" x="4" y="-130.5" font-family="Helvetica,sans-Serif" font-size="10.00">+</text>
<text text-anchor="start" x="14" y="-130.5" font-family="Helvetica,sans-Serif" font-size="10.00">void cloneChildren</text>
<text text-anchor="start" x="14" y="-118.5" font-family="Helvetica,sans-Serif" font-size="10.00">(const FlowTagPanel</text>
<text text-anchor="start" x="14" y="-106.5" font-family="Helvetica,sans-Serif" font-size="10.00"> *toCopy)</text>
<text text-anchor="start" x="4" y="-90.5" font-family="Helvetica,sans-Serif" font-size="10.00">+</text>
<text text-anchor="start" x="14" y="-90.5" font-family="Helvetica,sans-Serif" font-size="10.00">void addComponents</text>
<text text-anchor="start" x="14" y="-78.5" font-family="Helvetica,sans-Serif" font-size="10.00">(TagPanel *tag) override</text>
<text text-anchor="start" x="4" y="-62.5" font-family="Helvetica,sans-Serif" font-size="10.00">+</text>
<text text-anchor="start" x="14" y="-62.5" font-family="Helvetica,sans-Serif" font-size="10.00">void addChild(TagPanel</text>
<text text-anchor="start" x="14" y="-50.5" font-family="Helvetica,sans-Serif" font-size="10.00"> *childrenTag)</text>
<text text-anchor="start" x="4" y="-34.5" font-family="Helvetica,sans-Serif" font-size="10.00">+</text>
<text text-anchor="start" x="14" y="-34.5" font-family="Helvetica,sans-Serif" font-size="10.00">void switchFlowTagVisibility</text>
<text text-anchor="start" x="14" y="-22.5" font-family="Helvetica,sans-Serif" font-size="10.00">(wxMouseEvent &amp;evt)</text>
<text text-anchor="start" x="14" y="-6.5" font-family="Helvetica,sans-Serif" font-size="10.00">and 46 more...</text>
<polygon fill="#666666" stroke="#666666" points="0,-362 0,-362 203.25,-362 203.25,-362 0,-362"/>
<polygon fill="#666666" stroke="#666666" points="0,-298 0,-298 12,-298 12,-298 0,-298"/>
<polygon fill="#666666" stroke="#666666" points="12,-298 12,-298 203.25,-298 203.25,-298 12,-298"/>
<polygon fill="none" stroke="#666666" points="0,0 0,-380 203.25,-380 203.25,0 0,0"/>
</a>
</g>
</g>
<!-- Node2 -->
<g id="Node000002" class="node">
<title>Node2</title>
<g id="a_Node000002"><a xlink:href="class_tag_panel.html" target="_top" xlink:title=" ">
<polygon fill="white" stroke="none" points="185.38,-1261 9.88,-1261 9.88,-645 185.38,-645 185.38,-1261"/>
<text text-anchor="start" x="77.38" y="-1247.5" font-family="Helvetica,sans-Serif" font-size="10.00">TagPanel</text>
<text text-anchor="start" x="13.88" y="-1231.5" font-family="Helvetica,sans-Serif" font-size="10.00">+</text>
<text text-anchor="start" x="23.88" y="-1231.5" font-family="Helvetica,sans-Serif" font-size="10.00">HoverPosition previousHover</text>
<text text-anchor="start" x="13.88" y="-1215.5" font-family="Helvetica,sans-Serif" font-size="10.00">+</text>
<text text-anchor="start" x="23.88" y="-1215.5" font-family="Helvetica,sans-Serif" font-size="10.00">bool isInserting</text>
<text text-anchor="start" x="13.88" y="-1199.5" font-family="Helvetica,sans-Serif" font-size="10.00">+</text>
<text text-anchor="start" x="23.88" y="-1199.5" font-family="Helvetica,sans-Serif" font-size="10.00">bool isHovering</text>
<text text-anchor="start" x="14.25" y="-1183.5" font-family="Helvetica,sans-Serif" font-size="10.00">#</text>
<text text-anchor="start" x="23.88" y="-1183.5" font-family="Helvetica,sans-Serif" font-size="10.00">wxButton * cloneButton</text>
<text text-anchor="start" x="14.25" y="-1167.5" font-family="Helvetica,sans-Serif" font-size="10.00">#</text>
<text text-anchor="start" x="23.88" y="-1167.5" font-family="Helvetica,sans-Serif" font-size="10.00">wxButton * cutButton</text>
<text text-anchor="start" x="14.25" y="-1151.5" font-family="Helvetica,sans-Serif" font-size="10.00">#</text>
<text text-anchor="start" x="23.88" y="-1151.5" font-family="Helvetica,sans-Serif" font-size="10.00">wxButton * moveUpButton</text>
<text text-anchor="start" x="14.25" y="-1135.5" font-family="Helvetica,sans-Serif" font-size="10.00">#</text>
<text text-anchor="start" x="23.88" y="-1135.5" font-family="Helvetica,sans-Serif" font-size="10.00">wxButton * moveDownButton</text>
<text text-anchor="start" x="14.25" y="-1119.5" font-family="Helvetica,sans-Serif" font-size="10.00">#</text>
<text text-anchor="start" x="23.88" y="-1119.5" font-family="Helvetica,sans-Serif" font-size="10.00">wxButton * deleteButton</text>
<text text-anchor="start" x="14.25" y="-1103.5" font-family="Helvetica,sans-Serif" font-size="10.00">#</text>
<text text-anchor="start" x="23.88" y="-1103.5" font-family="Helvetica,sans-Serif" font-size="10.00">wxPoint insertPoint</text>
<text text-anchor="start" x="14.25" y="-1087.5" font-family="Helvetica,sans-Serif" font-size="10.00">#</text>
<text text-anchor="start" x="23.88" y="-1087.5" font-family="Helvetica,sans-Serif" font-size="10.00">wxSize insertRect</text>
<text text-anchor="start" x="14.25" y="-1071.5" font-family="Helvetica,sans-Serif" font-size="10.00">#</text>
<text text-anchor="start" x="23.88" y="-1071.5" font-family="Helvetica,sans-Serif" font-size="10.00">wxColour panelColor</text>
<text text-anchor="start" x="14.25" y="-1055.5" font-family="Helvetica,sans-Serif" font-size="10.00">#</text>
<text text-anchor="start" x="23.88" y="-1055.5" font-family="Helvetica,sans-Serif" font-size="10.00">wxColour tagNameColor</text>
<text text-anchor="start" x="14.25" y="-1039.5" font-family="Helvetica,sans-Serif" font-size="10.00">#</text>
<text text-anchor="start" x="23.88" y="-1039.5" font-family="Helvetica,sans-Serif" font-size="10.00">wxString tagName</text>
<text text-anchor="start" x="23.88" y="-1023.5" font-family="Helvetica,sans-Serif" font-size="10.00">and 8 more...</text>
<text text-anchor="start" x="13.88" y="-1007.5" font-family="Helvetica,sans-Serif" font-size="10.00">+</text>
<text text-anchor="start" x="23.88" y="-1007.5" font-family="Helvetica,sans-Serif" font-size="10.00">TagPanel(bool topConstructor</text>
<text text-anchor="start" x="23.88" y="-995.5" font-family="Helvetica,sans-Serif" font-size="10.00">=true)</text>
<text text-anchor="start" x="13.88" y="-979.5" font-family="Helvetica,sans-Serif" font-size="10.00">+</text>
<text text-anchor="start" x="23.88" y="-979.5" font-family="Helvetica,sans-Serif" font-size="10.00">TagPanel(wxWindow</text>
<text text-anchor="start" x="23.88" y="-967.5" font-family="Helvetica,sans-Serif" font-size="10.00"> *parentWindow, bool</text>
<text text-anchor="start" x="23.88" y="-955.5" font-family="Helvetica,sans-Serif" font-size="10.00"> topConstructor=true)</text>
<text text-anchor="start" x="13.88" y="-939.5" font-family="Helvetica,sans-Serif" font-size="10.00">+</text>
<text text-anchor="start" x="23.88" y="-939.5" font-family="Helvetica,sans-Serif" font-size="10.00">TagPanel(const TagPanel</text>
<text text-anchor="start" x="23.88" y="-927.5" font-family="Helvetica,sans-Serif" font-size="10.00"> &amp;toCopy, bool topConstructor=true)</text>
<text text-anchor="start" x="13.88" y="-911.5" font-family="Helvetica,sans-Serif" font-size="10.00">+</text>
<text text-anchor="start" x="23.88" y="-911.5" font-family="Helvetica,sans-Serif" font-size="10.00">virtual TagPanel *</text>
<text text-anchor="start" x="23.88" y="-899.5" font-family="Helvetica,sans-Serif" font-size="10.00"> clone()</text>
<text text-anchor="start" x="13.88" y="-883.5" font-family="Helvetica,sans-Serif" font-size="10.00">+</text>
<text text-anchor="start" x="23.88" y="-883.5" font-family="Helvetica,sans-Serif" font-size="10.00">virtual int getTagHeight()</text>
<text text-anchor="start" x="13.88" y="-867.5" font-family="Helvetica,sans-Serif" font-size="10.00">+</text>
<text text-anchor="start" x="23.88" y="-867.5" font-family="Helvetica,sans-Serif" font-size="10.00">virtual void setTagName()</text>
<text text-anchor="start" x="13.88" y="-851.5" font-family="Helvetica,sans-Serif" font-size="10.00">+</text>
<text text-anchor="start" x="23.88" y="-851.5" font-family="Helvetica,sans-Serif" font-size="10.00">void setTagNameCustom</text>
<text text-anchor="start" x="23.88" y="-839.5" font-family="Helvetica,sans-Serif" font-size="10.00">(const std::string &amp;name)</text>
<text text-anchor="start" x="13.88" y="-823.5" font-family="Helvetica,sans-Serif" font-size="10.00">+</text>
<text text-anchor="start" x="23.88" y="-823.5" font-family="Helvetica,sans-Serif" font-size="10.00">virtual void setTagLine()</text>
<text text-anchor="start" x="13.88" y="-807.5" font-family="Helvetica,sans-Serif" font-size="10.00">+</text>
<text text-anchor="start" x="23.88" y="-807.5" font-family="Helvetica,sans-Serif" font-size="10.00">virtual void setColors()</text>
<text text-anchor="start" x="13.88" y="-791.5" font-family="Helvetica,sans-Serif" font-size="10.00">+</text>
<text text-anchor="start" x="23.88" y="-791.5" font-family="Helvetica,sans-Serif" font-size="10.00">void initLineSizer()</text>
<text text-anchor="start" x="23.88" y="-775.5" font-family="Helvetica,sans-Serif" font-size="10.00">and 41 more...</text>
<text text-anchor="start" x="13.88" y="-759.5" font-family="Helvetica,sans-Serif" font-size="10.00">+</text>
<text text-anchor="start" x="23.88" y="-759.5" font-family="Helvetica,sans-Serif" font-size="10.00">static int getIndexOf</text>
<text text-anchor="start" x="23.88" y="-747.5" font-family="Helvetica,sans-Serif" font-size="10.00">(wxSizer *sizer, wxSizerItem</text>
<text text-anchor="start" x="23.88" y="-735.5" font-family="Helvetica,sans-Serif" font-size="10.00"> *item)</text>
<text text-anchor="start" x="13.88" y="-719.5" font-family="Helvetica,sans-Serif" font-size="10.00">+</text>
<text text-anchor="start" x="23.88" y="-719.5" font-family="Helvetica,sans-Serif" font-size="10.00">static void init(TagPanel</text>
<text text-anchor="start" x="23.88" y="-707.5" font-family="Helvetica,sans-Serif" font-size="10.00"> *tag)</text>
<text text-anchor="start" x="13.88" y="-691.5" font-family="Helvetica,sans-Serif" font-size="10.00">+</text>
<text text-anchor="start" x="23.88" y="-691.5" font-family="Helvetica,sans-Serif" font-size="10.00">static bool isTagPanel</text>
<text text-anchor="start" x="23.88" y="-679.5" font-family="Helvetica,sans-Serif" font-size="10.00">(wxWindow *window)</text>
<text text-anchor="start" x="13.88" y="-663.5" font-family="Helvetica,sans-Serif" font-size="10.00">+</text>
<text text-anchor="start" x="23.88" y="-663.5" font-family="Helvetica,sans-Serif" font-size="10.00">static TagPanel * getTag</text>
<text text-anchor="start" x="23.88" y="-651.5" font-family="Helvetica,sans-Serif" font-size="10.00">Panel(wxWindow *window)</text>
<polygon fill="#666666" stroke="#666666" points="9.88,-1243 9.88,-1243 185.38,-1243 185.38,-1243 9.88,-1243"/>
<polygon fill="#666666" stroke="#666666" points="9.88,-1019 9.88,-1019 21.88,-1019 21.88,-1019 9.88,-1019"/>
<polygon fill="#666666" stroke="#666666" points="21.88,-1019 21.88,-1019 185.38,-1019 185.38,-1019 21.88,-1019"/>
<polygon fill="none" stroke="#666666" points="9.88,-645 9.88,-1261 185.38,-1261 185.38,-645 9.88,-645"/>
</a>
</g>
</g>
<!-- Node2&#45;&gt;Node1 -->
<g id="edge1_Node000001_Node000002" class="edge">
<title>Node2&#45;&gt;Node1</title>
<g id="a_edge1_Node000001_Node000002"><a xlink:title=" ">
<path fill="none" stroke="#63b8ff" d="M99.3,-633.88C99.75,-547.45 100.23,-456.61 100.63,-379.85"/>
<polygon fill="none" stroke="#63b8ff" points="95.8,-633.68 99.25,-643.7 102.8,-633.72 95.8,-633.68"/>
</a>
</g>
</g>
<!-- Node4 -->
<g id="Node000004" class="node">
<title>Node4</title>
<g id="a_Node000004"><a xlink:href="class_empty_panel.html" target="_top" xlink:title=" ">
<polygon fill="white" stroke="none" points="267.88,-608 113.38,-608 113.38,-428 267.88,-428 267.88,-608"/>
<text text-anchor="start" x="164" y="-594.5" font-family="Helvetica,sans-Serif" font-size="10.00">EmptyPanel</text>
<text text-anchor="start" x="189.12" y="-578.5" font-family="Helvetica,sans-Serif" font-size="10.00"> </text>
<text text-anchor="start" x="117.38" y="-562.5" font-family="Helvetica,sans-Serif" font-size="10.00">+</text>
<text text-anchor="start" x="127.38" y="-562.5" font-family="Helvetica,sans-Serif" font-size="10.00">EmptyPanel(wxWindow</text>
<text text-anchor="start" x="127.38" y="-550.5" font-family="Helvetica,sans-Serif" font-size="10.00"> *parentWindow)</text>
<text text-anchor="start" x="117.38" y="-534.5" font-family="Helvetica,sans-Serif" font-size="10.00">+</text>
<text text-anchor="start" x="127.38" y="-534.5" font-family="Helvetica,sans-Serif" font-size="10.00">EmptyPanel(const EmptyPanel</text>
<text text-anchor="start" x="127.38" y="-522.5" font-family="Helvetica,sans-Serif" font-size="10.00"> &amp;toCopy)</text>
<text text-anchor="start" x="117.38" y="-506.5" font-family="Helvetica,sans-Serif" font-size="10.00">+</text>
<text text-anchor="start" x="127.38" y="-506.5" font-family="Helvetica,sans-Serif" font-size="10.00">EmptyPanel * clone</text>
<text text-anchor="start" x="127.38" y="-494.5" font-family="Helvetica,sans-Serif" font-size="10.00">() override</text>
<text text-anchor="start" x="117.38" y="-478.5" font-family="Helvetica,sans-Serif" font-size="10.00">+</text>
<text text-anchor="start" x="127.38" y="-478.5" font-family="Helvetica,sans-Serif" font-size="10.00">void setTagName() override</text>
<text text-anchor="start" x="117.38" y="-462.5" font-family="Helvetica,sans-Serif" font-size="10.00">+</text>
<text text-anchor="start" x="127.38" y="-462.5" font-family="Helvetica,sans-Serif" font-size="10.00">void setTagLine() override</text>
<text text-anchor="start" x="117.38" y="-446.5" font-family="Helvetica,sans-Serif" font-size="10.00">+</text>
<text text-anchor="start" x="127.38" y="-446.5" font-family="Helvetica,sans-Serif" font-size="10.00">void setPanelColor</text>
<text text-anchor="start" x="127.38" y="-434.5" font-family="Helvetica,sans-Serif" font-size="10.00">() override</text>
<polygon fill="#666666" stroke="#666666" points="113.38,-590 113.38,-590 267.88,-590 267.88,-590 113.38,-590"/>
<polygon fill="#666666" stroke="#666666" points="113.38,-574 113.38,-574 267.88,-574 267.88,-574 113.38,-574"/>
<polygon fill="none" stroke="#666666" points="113.38,-428 113.38,-608 267.88,-608 267.88,-428 113.38,-428"/>
</a>
</g>
</g>
<!-- Node2&#45;&gt;Node4 -->
<g id="edge4_Node000004_Node000002" class="edge">
<title>Node2&#45;&gt;Node4</title>
<g id="a_edge4_Node000004_Node000002"><a xlink:title=" ">
<path fill="none" stroke="#63b8ff" d="M165.93,-633.96C167.87,-624.93 169.75,-616.21 171.54,-607.88"/>
<polygon fill="none" stroke="#63b8ff" points="162.53,-633.12 163.86,-643.63 169.38,-634.59 162.53,-633.12"/>
</a>
</g>
</g>
<!-- Node3 -->
<g id="Node000003" class="node">
<title>Node3</title>
<g id="a_Node000003"><a xlink:title=" ">
<polygon fill="white" stroke="none" points="120.38,-1350 74.88,-1350 74.88,-1298 120.38,-1298 120.38,-1350"/>
<text text-anchor="start" x="78.88" y="-1336.5" font-family="Helvetica,sans-Serif" font-size="10.00">wxPanel</text>
<text text-anchor="start" x="96.12" y="-1320.5" font-family="Helvetica,sans-Serif" font-size="10.00"> </text>
<text text-anchor="start" x="96.12" y="-1304.5" font-family="Helvetica,sans-Serif" font-size="10.00"> </text>
<polygon fill="#666666" stroke="#666666" points="74.88,-1332 74.88,-1332 120.38,-1332 120.38,-1332 74.88,-1332"/>
<polygon fill="#666666" stroke="#666666" points="74.88,-1316 74.88,-1316 120.38,-1316 120.38,-1316 74.88,-1316"/>
<polygon fill="none" stroke="#666666" points="74.88,-1298 74.88,-1350 120.38,-1350 120.38,-1298 74.88,-1298"/>
</a>
</g>
</g>
<!-- Node3&#45;&gt;Node2 -->
<g id="edge2_Node000002_Node000003" class="edge">
<title>Node3&#45;&gt;Node2</title>
<g id="a_edge2_Node000002_Node000003"><a xlink:title=" ">
<path fill="none" stroke="#63b8ff" d="M97.62,-1286.89C97.62,-1279.12 97.62,-1270.33 97.62,-1260.73"/>
<polygon fill="none" stroke="#63b8ff" points="94.13,-1286.7 97.63,-1296.7 101.13,-1286.7 94.13,-1286.7"/>
</a>
</g>
</g>
<!-- Node4&#45;&gt;Node1 -->
<g id="edge3_Node000001_Node000004" class="edge">
<title>Node4&#45;&gt;Node1</title>
<g id="a_edge3_Node000001_Node000004"><a xlink:title=" ">
<path fill="none" stroke="#63b8ff" d="M166.42,-428.35C163.3,-416.9 160,-404.82 156.62,-392.43"/>
<polygon fill="none" stroke="#63b8ff" points="156.61,-392.39 151.17,-387.65 153.44,-380.81 158.88,-385.55 156.61,-392.39"/>
</a>
</g>
<text text-anchor="middle" x="197.17" y="-400.5" font-family="Helvetica,sans-Serif" font-size="10.00" fill="grey"> #emptyTagPanel</text>
</g>
</g>
</svg>

<g id="navigator" transform="translate(0 0)" fill="#404254">
  <rect fill="#f2f5e9" fill-opacity="0.5" stroke="#606060" stroke-width=".5" x="0" y="0" width="60" height="60"/>
  <use id="zoomplus" xlink:href="#zoomPlus" x="17" y="9" onmousedown="handleZoom(evt,'in')"/>
  <use id="zoomminus" xlink:href="#zoomMin" x="42" y="9" onmousedown="handleZoom(evt,'out')"/>
  <use id="reset" xlink:href="#resetDef" x="30" y="36" onmousedown="handleReset()"/>
   <use id="arrowup" xlink:href="#arrowUp" x="0" y="0" onmousedown="handlePan(0,-1)"/>
  <use id="arrowright" xlink:href="#arrowRight" x="0" y="0" onmousedown="handlePan(1,0)"/>
  <use id="arrowdown" xlink:href="#arrowDown" x="0" y="0" onmousedown="handlePan(0,1)"/>
  <use id="arrowleft" xlink:href="#arrowLeft" x="0" y="0" onmousedown="handlePan(-1,0)"/>
</g>
<svg viewBox="0 0 15 15" width="100%" height="30px" preserveAspectRatio="xMaxYMin meet">
 <g id="arrow_out" transform="scale(0.3 0.3)">
  <a xlink:href="class_flow_tag_panel__coll__graph_org.svg" target="_base">
   <rect id="button" ry="5" rx="5" y="6" x="6" height="38" width="38"
        fill="#f2f5e9" fill-opacity="0.5" stroke="#606060" stroke-width="1.0"/>
   <path id="arrow"
     d="M 11.500037,31.436501 C 11.940474,20.09759 22.043105,11.32322 32.158766,21.979434 L 37.068811,17.246167 C 37.068811,17.246167 37.088388,32 37.088388,32 L 22.160133,31.978069 C 22.160133,31.978069 26.997745,27.140456 26.997745,27.140456 C 18.528582,18.264221 13.291696,25.230495 11.500037,31.436501 z"
     style="fill:#404040;"/>
  </a>
 </g>
</svg>

<style type='text/css'>
<![CDATA[
[data-mouse-over-selected='false'] { opacity: 0.7; }
[data-mouse-over-selected='true']  { opacity: 1.0; }
]]>
</style>
<script type="application/ecmascript"><![CDATA[
document.addEventListener('DOMContentLoaded', (event) => {
  highlightEdges();
  highlightAdjacentNodes();
});
]]></script>
</svg>
