<?xml version="1.0" encoding="UTF-8" standalone="no"?>
<!DOCTYPE svg PUBLIC "-//W3C//DTD SVG 1.1//EN"
 "http://www.w3.org/Graphics/SVG/1.1/DTD/svg11.dtd">
<!-- Generated by graphviz version 12.2.0 (20241103.1931)
 -->
<!-- Title: Alchemy::craftBetterPill Pages: 1 -->
<svg width="1477pt" height="493pt"
 viewBox="0.00 0.00 1476.75 493.00" xmlns="http://www.w3.org/2000/svg" xmlns:xlink="http://www.w3.org/1999/xlink">
<g id="graph0" class="graph" transform="scale(1 1) rotate(0) translate(4 489)">
<title>Alchemy::craftBetterPill</title>
<!-- Node1 -->
<g id="Node000001" class="node">
<title>Node1</title>
<g id="a_Node000001"><a xlink:title=" ">
<polygon fill="#999999" stroke="#666666" points="119.5,-254 0,-254 0,-234 119.5,-234 119.5,-254"/>
<text text-anchor="middle" x="59.75" y="-240.5" font-family="Helvetica,sans-Serif" font-size="10.00">Alchemy::craftBetterPill</text>
</a>
</g>
</g>
<!-- Node2 -->
<g id="Node000002" class="node">
<title>Node2</title>
<g id="a_Node000002"><a xlink:href="class_interactions.html#aae6172962092f278714536142e987cde" target="_top" xlink:title=" ">
<polygon fill="white" stroke="#666666" points="999,-457 905.75,-457 905.75,-437 999,-437 999,-457"/>
<text text-anchor="middle" x="952.38" y="-443.5" font-family="Helvetica,sans-Serif" font-size="10.00">Interactions::click</text>
</a>
</g>
</g>
<!-- Node1&#45;&gt;Node2 -->
<g id="edge1_Node000001_Node000002" class="edge">
<title>Node1&#45;&gt;Node2</title>
<g id="a_edge1_Node000001_Node000002"><a xlink:title=" ">
<path fill="none" stroke="#63b8ff" d="M68.3,-254.36C102.89,-300.48 251.77,-485 420,-485 420,-485 420,-485 601.5,-485 705.25,-485 825.29,-468.28 894.37,-457.02"/>
<polygon fill="#63b8ff" stroke="#63b8ff" points="894.63,-460.53 903.93,-455.45 893.49,-453.62 894.63,-460.53"/>
</a>
</g>
</g>
<!-- Node3 -->
<g id="Node000003" class="node">
<title>Node3</title>
<g id="a_Node000003"><a xlink:href="class_interactions.html#a25637266a0bf2b2c77d5c7e276baabd0" target="_top" xlink:title=" ">
<polygon fill="white" stroke="#666666" points="462.38,-311 379.62,-311 379.62,-291 462.38,-291 462.38,-311"/>
<text text-anchor="middle" x="421" y="-297.5" font-family="Helvetica,sans-Serif" font-size="10.00">Interactions::fA</text>
</a>
</g>
</g>
<!-- Node1&#45;&gt;Node3 -->
<g id="edge3_Node000001_Node000003" class="edge">
<title>Node1&#45;&gt;Node3</title>
<g id="a_edge3_Node000001_Node000003"><a xlink:title=" ">
<path fill="none" stroke="#63b8ff" d="M69.34,-254.46C84.53,-272.03 118.1,-306.85 155.5,-320 229.91,-346.15 323.18,-328.8 376.74,-314.45"/>
<polygon fill="#63b8ff" stroke="#63b8ff" points="377.39,-317.9 386.09,-311.85 375.52,-311.16 377.39,-317.9"/>
</a>
</g>
</g>
<!-- Node25 -->
<g id="Node000025" class="node">
<title>Node25</title>
<g id="a_Node000025"><a xlink:href="class_interactions.html#a85395e185b74c6e25d0f27459b0de33c" target="_top" xlink:title=" ">
<polygon fill="white" stroke="#666666" points="276.88,-311 188.88,-311 188.88,-291 276.88,-291 276.88,-311"/>
<text text-anchor="middle" x="232.88" y="-297.5" font-family="Helvetica,sans-Serif" font-size="10.00">Interactions::fcA</text>
</a>
</g>
</g>
<!-- Node1&#45;&gt;Node25 -->
<g id="edge29_Node000001_Node000025" class="edge">
<title>Node1&#45;&gt;Node25</title>
<g id="a_edge29_Node000001_Node000025"><a xlink:title=" ">
<path fill="none" stroke="#63b8ff" d="M90.12,-254.49C108.79,-261.09 133.51,-269.72 155.5,-277 165.67,-280.37 176.65,-283.89 187.02,-287.16"/>
<polygon fill="#63b8ff" stroke="#63b8ff" points="185.93,-290.48 196.52,-290.14 188.03,-283.8 185.93,-290.48"/>
</a>
</g>
</g>
<!-- Node26 -->
<g id="Node000026" class="node">
<title>Node26</title>
<g id="a_Node000026"><a xlink:href="class_interactions.html#aaba8562157b738fac74c4ab64ba6a9f8" target="_top" xlink:title=" ">
<polygon fill="white" stroke="#666666" points="310.25,-159 155.5,-159 155.5,-127 310.25,-127 310.25,-159"/>
<text text-anchor="start" x="163.5" y="-145.5" font-family="Helvetica,sans-Serif" font-size="10.00">Interactions::fcCompareMultiple</text>
<text text-anchor="middle" x="232.88" y="-133.5" font-family="Helvetica,sans-Serif" font-size="10.00">TemplateA</text>
</a>
</g>
</g>
<!-- Node1&#45;&gt;Node26 -->
<g id="edge31_Node000001_Node000026" class="edge">
<title>Node1&#45;&gt;Node26</title>
<g id="a_edge31_Node000001_Node000026"><a xlink:title=" ">
<path fill="none" stroke="#63b8ff" d="M70.92,-233.73C87.36,-217.65 121.38,-186.47 155.5,-168 158.17,-166.56 160.94,-165.18 163.76,-163.86"/>
<polygon fill="#63b8ff" stroke="#63b8ff" points="165.01,-167.13 172.82,-159.98 162.25,-160.7 165.01,-167.13"/>
</a>
</g>
</g>
<!-- Node32 -->
<g id="Node000032" class="node">
<title>Node32</title>
<g id="a_Node000032"><a xlink:href="class_interactions.html#af01fb8407a9f18982f7e75f0433f7ef2" target="_top" xlink:title=" ">
<polygon fill="white" stroke="#666666" points="305.75,-197 160,-197 160,-177 305.75,-177 305.75,-197"/>
<text text-anchor="middle" x="232.88" y="-183.5" font-family="Helvetica,sans-Serif" font-size="10.00">Interactions::fcOneTemplateA</text>
</a>
</g>
</g>
<!-- Node1&#45;&gt;Node32 -->
<g id="edge47_Node000001_Node000032" class="edge">
<title>Node1&#45;&gt;Node32</title>
<g id="a_edge47_Node000001_Node000032"><a xlink:title=" ">
<path fill="none" stroke="#63b8ff" d="M90.12,-233.51C108.79,-226.91 133.51,-218.28 155.5,-211 165.67,-207.63 176.65,-204.11 187.02,-200.84"/>
<polygon fill="#63b8ff" stroke="#63b8ff" points="188.03,-204.2 196.52,-197.86 185.93,-197.52 188.03,-204.2"/>
</a>
</g>
</g>
<!-- Node33 -->
<g id="Node000033" class="node">
<title>Node33</title>
<g id="a_Node000033"><a xlink:href="class_interactions.html#ad86db2bcd0900e15cfd36374937d7748" target="_top" xlink:title=" ">
<polygon fill="white" stroke="#666666" points="491.25,-229 350.75,-229 350.75,-209 491.25,-209 491.25,-229"/>
<text text-anchor="middle" x="421" y="-215.5" font-family="Helvetica,sans-Serif" font-size="10.00">Interactions::fOneTemplateA</text>
</a>
</g>
</g>
<!-- Node1&#45;&gt;Node33 -->
<g id="edge65_Node000001_Node000033" class="edge">
<title>Node1&#45;&gt;Node33</title>
<g id="a_edge65_Node000001_Node000033"><a xlink:title=" ">
<path fill="none" stroke="#63b8ff" d="M119.67,-239.9C179.42,-235.74 272.32,-229.28 338.97,-224.64"/>
<polygon fill="#63b8ff" stroke="#63b8ff" points="339.03,-228.14 348.76,-223.96 338.54,-221.16 339.03,-228.14"/>
</a>
</g>
</g>
<!-- Node35 -->
<g id="Node000035" class="node">
<title>Node35</title>
<g id="a_Node000035"><a xlink:href="class_interactions.html#a7a8357271583869fba1939d42718a569" target="_top" xlink:title=" ">
<polygon fill="white" stroke="#666666" points="306.5,-109 159.25,-109 159.25,-89 306.5,-89 306.5,-109"/>
<text text-anchor="middle" x="232.88" y="-95.5" font-family="Helvetica,sans-Serif" font-size="10.00">Interactions::fNumberIntegerA</text>
</a>
</g>
</g>
<!-- Node1&#45;&gt;Node35 -->
<g id="edge55_Node000001_Node000035" class="edge">
<title>Node1&#45;&gt;Node35</title>
<g id="a_edge55_Node000001_Node000035"><a xlink:title=" ">
<path fill="none" stroke="#63b8ff" d="M65.47,-233.62C77.06,-209.33 109.4,-148.53 155.5,-118 157.63,-116.59 159.85,-115.28 162.15,-114.08"/>
<polygon fill="#63b8ff" stroke="#63b8ff" points="163.53,-117.29 171.21,-110 160.66,-110.91 163.53,-117.29"/>
</a>
</g>
</g>
<!-- Node39 -->
<g id="Node000039" class="node">
<title>Node39</title>
<g id="a_Node000039"><a xlink:href="class_interactions.html#ae6f71f7be8c80c4954bdd0f594891e66" target="_top" xlink:title=" ">
<polygon fill="white" stroke="#666666" points="475.88,-270 366.12,-270 366.12,-250 475.88,-250 475.88,-270"/>
<text text-anchor="middle" x="421" y="-256.5" font-family="Helvetica,sans-Serif" font-size="10.00">Interactions::fSwipeA</text>
</a>
</g>
</g>
<!-- Node1&#45;&gt;Node39 -->
<g id="edge66_Node000001_Node000039" class="edge">
<title>Node1&#45;&gt;Node39</title>
<g id="a_edge66_Node000001_Node000039"><a xlink:title=" ">
<path fill="none" stroke="#63b8ff" d="M119.67,-246.62C184.21,-249.5 287.46,-254.1 354.5,-257.08"/>
<polygon fill="#63b8ff" stroke="#63b8ff" points="354.1,-260.57 364.24,-257.52 354.41,-253.58 354.1,-260.57"/>
</a>
</g>
</g>
<!-- Node2&#45;&gt;Node2 -->
<g id="edge2_Node000002_Node000002" class="edge">
<title>Node2&#45;&gt;Node2</title>
<g id="a_edge2_Node000002_Node000002"><a xlink:title=" ">
<path fill="none" stroke="#63b8ff" d="M928.32,-457.34C918.04,-465.98 926.06,-475 952.38,-475 966.77,-475 975.68,-472.3 979.13,-468.44"/>
<polygon fill="#63b8ff" stroke="#63b8ff" points="982.55,-467.7 976.78,-458.81 975.75,-469.35 982.55,-467.7"/>
</a>
</g>
</g>
<!-- Node4 -->
<g id="Node000004" class="node">
<title>Node4</title>
<g id="a_Node000004"><a xlink:href="fopencv_8cpp.html#a69713584f69a121e4ed91918a64448a0" target="_top" xlink:title=" ">
<polygon fill="white" stroke="#666666" points="992.62,-267 912.12,-267 912.12,-247 992.62,-247 992.62,-267"/>
<text text-anchor="middle" x="952.38" y="-253.5" font-family="Helvetica,sans-Serif" font-size="10.00">cvmtfTemplate</text>
</a>
</g>
</g>
<!-- Node3&#45;&gt;Node4 -->
<g id="edge4_Node000003_Node000004" class="edge">
<title>Node3&#45;&gt;Node4</title>
<g id="a_edge4_Node000003_Node000004"><a xlink:title=" ">
<path fill="none" stroke="#63b8ff" d="M438.3,-311.35C459.05,-323.86 496.46,-344.2 531.75,-352 678.52,-384.44 853.84,-307.18 922.13,-272.64"/>
<polygon fill="#63b8ff" stroke="#63b8ff" points="923.51,-275.86 930.8,-268.18 920.31,-269.64 923.51,-275.86"/>
</a>
</g>
</g>
<!-- Node10 -->
<g id="Node000010" class="node">
<title>Node10</title>
<g id="a_Node000010"><a xlink:href="class_interactions.html#a5b5af2b125ff152043789cfcf70ffb2b" target="_top" xlink:title=" ">
<polygon fill="white" stroke="#666666" points="663.62,-153 537.38,-153 537.38,-133 663.62,-133 663.62,-153"/>
<text text-anchor="middle" x="600.5" y="-139.5" font-family="Helvetica,sans-Serif" font-size="10.00">Interactions::getTemplate</text>
</a>
</g>
</g>
<!-- Node3&#45;&gt;Node10 -->
<g id="edge10_Node000003_Node000010" class="edge">
<title>Node3&#45;&gt;Node10</title>
<g id="a_edge10_Node000003_Node000010"><a xlink:title=" ">
<path fill="none" stroke="#63b8ff" d="M462.51,-296.34C474.52,-293.16 486.83,-287.84 495.75,-279 534.39,-240.69 492.8,-199.99 531.75,-162 532.52,-161.25 533.31,-160.54 534.12,-159.85"/>
<polygon fill="#63b8ff" stroke="#63b8ff" points="536.04,-162.78 542.41,-154.31 532.15,-156.96 536.04,-162.78"/>
</a>
</g>
</g>
<!-- Node12 -->
<g id="Node000012" class="node">
<title>Node12</title>
<g id="a_Node000012"><a xlink:href="class_interactions.html#a0a0ffd9ad1990de31fd7b2773db32667" target="_top" xlink:title=" ">
<polygon fill="white" stroke="#666666" points="661,-267 540,-267 540,-247 661,-247 661,-267"/>
<text text-anchor="middle" x="600.5" y="-253.5" font-family="Helvetica,sans-Serif" font-size="10.00">Interactions::loopPopUp</text>
</a>
</g>
</g>
<!-- Node3&#45;&gt;Node12 -->
<g id="edge12_Node000003_Node000012" class="edge">
<title>Node3&#45;&gt;Node12</title>
<g id="a_edge12_Node000003_Node000012"><a xlink:title=" ">
<path fill="none" stroke="#63b8ff" d="M462.72,-290.91C487.53,-284.76 519.5,-276.83 546.3,-270.19"/>
<polygon fill="#63b8ff" stroke="#63b8ff" points="547.09,-273.6 555.96,-267.79 545.41,-266.8 547.09,-273.6"/>
</a>
</g>
</g>
<!-- Node23 -->
<g id="Node000023" class="node">
<title>Node23</title>
<g id="a_Node000023"><a xlink:href="class_interactions.html#ade7f52c59105f434650b9358b22e5488" target="_top" xlink:title=" ">
<polygon fill="white" stroke="#666666" points="661,-229 540,-229 540,-209 661,-209 661,-229"/>
<text text-anchor="middle" x="600.5" y="-215.5" font-family="Helvetica,sans-Serif" font-size="10.00">Interactions::resetCount</text>
</a>
</g>
</g>
<!-- Node3&#45;&gt;Node23 -->
<g id="edge25_Node000003_Node000023" class="edge">
<title>Node3&#45;&gt;Node23</title>
<g id="a_edge25_Node000003_Node000023"><a xlink:title=" ">
<path fill="none" stroke="#63b8ff" d="M462.81,-293.21C474.04,-289.93 485.85,-285.35 495.75,-279 516.16,-265.91 511.23,-250.92 531.75,-238 534.15,-236.49 536.67,-235.1 539.26,-233.82"/>
<polygon fill="#63b8ff" stroke="#63b8ff" points="540.39,-237.14 548.2,-229.98 537.63,-230.71 540.39,-237.14"/>
</a>
</g>
</g>
<!-- Node24 -->
<g id="Node000024" class="node">
<title>Node24</title>
<g id="a_Node000024"><a xlink:href="class_interactions.html#ad7daddd9df3cea80e69872b8afd6c8dc" target="_top" xlink:title=" ">
<polygon fill="white" stroke="#666666" points="669.25,-343 531.75,-343 531.75,-323 669.25,-323 669.25,-343"/>
<text text-anchor="middle" x="600.5" y="-329.5" font-family="Helvetica,sans-Serif" font-size="10.00">Interactions::templateFound</text>
</a>
</g>
</g>
<!-- Node3&#45;&gt;Node24 -->
<g id="edge26_Node000003_Node000024" class="edge">
<title>Node3&#45;&gt;Node24</title>
<g id="a_edge26_Node000003_Node000024"><a xlink:title=" ">
<path fill="none" stroke="#63b8ff" d="M462.72,-308.34C482.78,-311.96 507.51,-316.42 530.41,-320.54"/>
<polygon fill="#63b8ff" stroke="#63b8ff" points="529.52,-323.94 539.99,-322.27 530.77,-317.05 529.52,-323.94"/>
</a>
</g>
</g>
<!-- Node5 -->
<g id="Node000005" class="node">
<title>Node5</title>
<g id="a_Node000005"><a xlink:href="fopencv_8cpp.html#af6fc77188d314c0d5a58888452f9b313" target="_top" xlink:title=" ">
<polygon fill="white" stroke="#666666" points="1137.62,-191 1069.88,-191 1069.88,-171 1137.62,-171 1137.62,-191"/>
<text text-anchor="middle" x="1103.75" y="-177.5" font-family="Helvetica,sans-Serif" font-size="10.00">extractZone</text>
</a>
</g>
</g>
<!-- Node4&#45;&gt;Node5 -->
<g id="edge5_Node000004_Node000005" class="edge">
<title>Node4&#45;&gt;Node5</title>
<g id="a_edge5_Node000004_Node000005"><a xlink:title=" ">
<path fill="none" stroke="#63b8ff" d="M967.77,-246.61C985.41,-234.23 1016.53,-213.54 1045.5,-200 1049.77,-198 1054.31,-196.12 1058.89,-194.38"/>
<polygon fill="#63b8ff" stroke="#63b8ff" points="1059.88,-197.74 1068.12,-191.07 1057.52,-191.15 1059.88,-197.74"/>
</a>
</g>
</g>
<!-- Node6 -->
<g id="Node000006" class="node">
<title>Node6</title>
<g id="a_Node000006"><a xlink:href="struct_zone.html#a5301e7fcf185a5a79c1bf7d7930f4b8a" target="_top" xlink:title=" ">
<polygon fill="white" stroke="#666666" points="1138,-229 1069.5,-229 1069.5,-209 1138,-209 1138,-229"/>
<text text-anchor="middle" x="1103.75" y="-215.5" font-family="Helvetica,sans-Serif" font-size="10.00">Zone::isNull</text>
</a>
</g>
</g>
<!-- Node4&#45;&gt;Node6 -->
<g id="edge6_Node000004_Node000006" class="edge">
<title>Node4&#45;&gt;Node6</title>
<g id="a_edge6_Node000004_Node000006"><a xlink:title=" ">
<path fill="none" stroke="#63b8ff" d="M993.01,-246.92C1012.99,-241.83 1037.31,-235.65 1057.96,-230.39"/>
<polygon fill="#63b8ff" stroke="#63b8ff" points="1058.72,-233.81 1067.54,-227.96 1056.99,-227.03 1058.72,-233.81"/>
</a>
</g>
</g>
<!-- Node8 -->
<g id="Node000008" class="node">
<title>Node8</title>
<g id="a_Node000008"><a xlink:href="fopencv_8cpp.html#a1ed1ff1a9df2ab889e1423cb11a58c06" target="_top" xlink:title=" ">
<polygon fill="white" stroke="#666666" points="1145.12,-267 1062.38,-267 1062.38,-247 1145.12,-247 1145.12,-267"/>
<text text-anchor="middle" x="1103.75" y="-253.5" font-family="Helvetica,sans-Serif" font-size="10.00">messageFound</text>
</a>
</g>
</g>
<!-- Node4&#45;&gt;Node8 -->
<g id="edge8_Node000004_Node000008" class="edge">
<title>Node4&#45;&gt;Node8</title>
<g id="a_edge8_Node000004_Node000008"><a xlink:title=" ">
<path fill="none" stroke="#63b8ff" d="M993.01,-257C1010.62,-257 1031.59,-257 1050.46,-257"/>
<polygon fill="#63b8ff" stroke="#63b8ff" points="1050.37,-260.5 1060.37,-257 1050.37,-253.5 1050.37,-260.5"/>
</a>
</g>
</g>
<!-- Node9 -->
<g id="Node000009" class="node">
<title>Node9</title>
<g id="a_Node000009"><a xlink:href="fopencv_8cpp.html#ae51fd1f3ed39bd8c9b8da4a313d5aeb3" target="_top" xlink:title=" ">
<polygon fill="white" stroke="#666666" points="1153,-305 1054.5,-305 1054.5,-285 1153,-285 1153,-305"/>
<text text-anchor="middle" x="1103.75" y="-291.5" font-family="Helvetica,sans-Serif" font-size="10.00">oneMatchTemplate</text>
</a>
</g>
</g>
<!-- Node4&#45;&gt;Node9 -->
<g id="edge9_Node000004_Node000009" class="edge">
<title>Node4&#45;&gt;Node9</title>
<g id="a_edge9_Node000004_Node000009"><a xlink:title=" ">
<path fill="none" stroke="#63b8ff" d="M993.01,-267.08C1010.63,-271.57 1031.62,-276.9 1050.49,-281.71"/>
<polygon fill="#63b8ff" stroke="#63b8ff" points="1049.6,-285.09 1060.16,-284.16 1051.33,-278.31 1049.6,-285.09"/>
</a>
</g>
</g>
<!-- Node7 -->
<g id="Node000007" class="node">
<title>Node7</title>
<g id="a_Node000007"><a xlink:href="struct_coord.html#a34c573cd6230e5a532f12ae97e7395e2" target="_top" xlink:title=" ">
<polygon fill="white" stroke="#666666" points="1271,-229 1198,-229 1198,-209 1271,-209 1271,-229"/>
<text text-anchor="middle" x="1234.5" y="-215.5" font-family="Helvetica,sans-Serif" font-size="10.00">Coord::isNull</text>
</a>
</g>
</g>
<!-- Node6&#45;&gt;Node7 -->
<g id="edge7_Node000006_Node000007" class="edge">
<title>Node6&#45;&gt;Node7</title>
<g id="a_edge7_Node000006_Node000007"><a xlink:title=" ">
<path fill="none" stroke="#63b8ff" d="M1138.24,-219C1152.99,-219 1170.57,-219 1186.6,-219"/>
<polygon fill="#63b8ff" stroke="#63b8ff" points="1186.41,-222.5 1196.41,-219 1186.41,-215.5 1186.41,-222.5"/>
</a>
</g>
</g>
<!-- Node11 -->
<g id="Node000011" class="node">
<title>Node11</title>
<g id="a_Node000011"><a xlink:href="struct_template.html#a93d3c6f97592ba09d7819fda3c3296d7" target="_top" xlink:title=" ">
<polygon fill="white" stroke="#666666" points="830.38,-182 734.12,-182 734.12,-162 830.38,-162 830.38,-182"/>
<text text-anchor="middle" x="782.25" y="-168.5" font-family="Helvetica,sans-Serif" font-size="10.00">Template::setType</text>
</a>
</g>
</g>
<!-- Node10&#45;&gt;Node11 -->
<g id="edge11_Node000010_Node000011" class="edge">
<title>Node10&#45;&gt;Node11</title>
<g id="a_edge11_Node000010_Node000011"><a xlink:title=" ">
<path fill="none" stroke="#63b8ff" d="M664.12,-153.1C683.08,-156.16 703.83,-159.51 722.53,-162.53"/>
<polygon fill="#63b8ff" stroke="#63b8ff" points="721.95,-165.98 732.38,-164.11 723.06,-159.07 721.95,-165.98"/>
</a>
</g>
</g>
<!-- Node13 -->
<g id="Node000013" class="node">
<title>Node13</title>
<g id="a_Node000013"><a xlink:href="fopencv_8cpp.html#a5c455ed716b7fa4c675446fc5b8ba4fb" target="_top" xlink:title=" ">
<polygon fill="white" stroke="#666666" points="813.12,-267 751.38,-267 751.38,-247 813.12,-247 813.12,-267"/>
<text text-anchor="middle" x="782.25" y="-253.5" font-family="Helvetica,sans-Serif" font-size="10.00">CreateMat</text>
</a>
</g>
</g>
<!-- Node12&#45;&gt;Node13 -->
<g id="edge13_Node000012_Node000013" class="edge">
<title>Node12&#45;&gt;Node13</title>
<g id="a_edge13_Node000012_Node000013"><a xlink:title=" ">
<path fill="none" stroke="#63b8ff" d="M661.35,-257C687.04,-257 716.42,-257 739.67,-257"/>
<polygon fill="#63b8ff" stroke="#63b8ff" points="739.37,-260.5 749.37,-257 739.37,-253.5 739.37,-260.5"/>
</a>
</g>
</g>
<!-- Node14 -->
<g id="Node000014" class="node">
<title>Node14</title>
<g id="a_Node000014"><a xlink:href="class_interactions.html#aed04f9177d2aba467d71818a5e82c7bc" target="_top" xlink:title=" ">
<polygon fill="white" stroke="#666666" points="839.38,-381 725.12,-381 725.12,-361 839.38,-361 839.38,-381"/>
<text text-anchor="middle" x="782.25" y="-367.5" font-family="Helvetica,sans-Serif" font-size="10.00">Interactions::fcpopupA</text>
</a>
</g>
</g>
<!-- Node12&#45;&gt;Node14 -->
<g id="edge14_Node000012_Node000014" class="edge">
<title>Node12&#45;&gt;Node14</title>
<g id="a_edge14_Node000012_Node000014"><a xlink:title=" ">
<path fill="none" stroke="#63b8ff" d="M617.77,-267.32C649.1,-287.19 718.05,-330.92 755.62,-354.74"/>
<polygon fill="#63b8ff" stroke="#63b8ff" points="753.29,-357.41 763.61,-359.81 757.04,-351.5 753.29,-357.41"/>
</a>
</g>
</g>
<!-- Node16 -->
<g id="Node000016" class="node">
<title>Node16</title>
<g id="a_Node000016"><a xlink:href="fadb_8cpp.html#aeec40a5f78ae4713eedd84cb5f75746f" target="_top" xlink:title=" ">
<polygon fill="white" stroke="#666666" points="814.25,-39 750.25,-39 750.25,-19 814.25,-19 814.25,-39"/>
<text text-anchor="middle" x="782.25" y="-25.5" font-family="Helvetica,sans-Serif" font-size="10.00">screenshot</text>
</a>
</g>
</g>
<!-- Node12&#45;&gt;Node16 -->
<g id="edge18_Node000012_Node000016" class="edge">
<title>Node12&#45;&gt;Node16</title>
<g id="a_edge18_Node000012_Node000016"><a xlink:title=" ">
<path fill="none" stroke="#63b8ff" d="M658.37,-246.56C662.4,-244.23 666.11,-241.41 669.25,-238 726.29,-176.06 648.85,-114.52 705.25,-52 713.88,-42.44 726.32,-36.79 738.66,-33.48"/>
<polygon fill="#63b8ff" stroke="#63b8ff" points="739.34,-36.91 748.36,-31.37 737.85,-30.07 739.34,-36.91"/>
</a>
</g>
</g>
<!-- Node14&#45;&gt;Node2 -->
<g id="edge15_Node000014_Node000002" class="edge">
<title>Node14&#45;&gt;Node2</title>
<g id="a_edge15_Node000014_Node000002"><a xlink:title=" ">
<path fill="none" stroke="#63b8ff" d="M806.27,-381.41C835.24,-394.5 885.2,-417.09 918.27,-432.03"/>
<polygon fill="#63b8ff" stroke="#63b8ff" points="916.43,-435.04 926.98,-435.97 919.31,-428.66 916.43,-435.04"/>
</a>
</g>
</g>
<!-- Node14&#45;&gt;Node4 -->
<g id="edge16_Node000014_Node000004" class="edge">
<title>Node14&#45;&gt;Node4</title>
<g id="a_edge16_Node000014_Node000004"><a xlink:title=" ">
<path fill="none" stroke="#63b8ff" d="M828.56,-360.5C839.05,-357.05 849.87,-352.62 859.25,-347 890.73,-328.14 919.72,-296.46 936.46,-276.16"/>
<polygon fill="#63b8ff" stroke="#63b8ff" points="939.17,-278.38 942.71,-268.39 933.72,-273.99 939.17,-278.38"/>
</a>
</g>
</g>
<!-- Node15 -->
<g id="Node000015" class="node">
<title>Node15</title>
<g id="a_Node000015"><a xlink:href="class_interactions.html#abd5b5d8a44970e1333e3611e302f166c" target="_top" xlink:title=" ">
<polygon fill="white" stroke="#666666" points="997.88,-400 906.88,-400 906.88,-380 997.88,-380 997.88,-400"/>
<text text-anchor="middle" x="952.38" y="-386.5" font-family="Helvetica,sans-Serif" font-size="10.00">Interactions::wait</text>
</a>
</g>
</g>
<!-- Node14&#45;&gt;Node15 -->
<g id="edge17_Node000014_Node000015" class="edge">
<title>Node14&#45;&gt;Node15</title>
<g id="a_edge17_Node000014_Node000015"><a xlink:title=" ">
<path fill="none" stroke="#63b8ff" d="M839.7,-377.38C857.54,-379.4 877.25,-381.62 895.08,-383.64"/>
<polygon fill="#63b8ff" stroke="#63b8ff" points="894.66,-387.11 904.99,-384.76 895.44,-380.16 894.66,-387.11"/>
</a>
</g>
</g>
<!-- Node17 -->
<g id="Node000017" class="node">
<title>Node17</title>
<g id="a_Node000017"><a xlink:href="fadb_8cpp.html#a7ab9819839864ebd26d0e7e68e330418" target="_top" xlink:title=" ">
<polygon fill="white" stroke="#666666" points="994.5,-39 910.25,-39 910.25,-19 994.5,-19 994.5,-39"/>
<text text-anchor="middle" x="952.38" y="-25.5" font-family="Helvetica,sans-Serif" font-size="10.00">takeScreenshot</text>
</a>
</g>
</g>
<!-- Node16&#45;&gt;Node17 -->
<g id="edge19_Node000016_Node000017" class="edge">
<title>Node16&#45;&gt;Node17</title>
<g id="a_edge19_Node000016_Node000017"><a xlink:title=" ">
<path fill="none" stroke="#63b8ff" d="M814.48,-29C837.99,-29 870.78,-29 898.38,-29"/>
<polygon fill="#63b8ff" stroke="#63b8ff" points="898.33,-32.5 908.33,-29 898.33,-25.5 898.33,-32.5"/>
</a>
</g>
</g>
<!-- Node18 -->
<g id="Node000018" class="node">
<title>Node18</title>
<g id="a_Node000018"><a xlink:href="fadb_8cpp.html#ac6339b59ba8238f7483dece7f3fdf51b" target="_top" xlink:title=" ">
<polygon fill="white" stroke="#666666" points="1148.12,-39 1059.38,-39 1059.38,-19 1148.12,-19 1148.12,-39"/>
<text text-anchor="middle" x="1103.75" y="-25.5" font-family="Helvetica,sans-Serif" font-size="10.00">runAdbLocalhost</text>
</a>
</g>
</g>
<!-- Node17&#45;&gt;Node18 -->
<g id="edge20_Node000017_Node000018" class="edge">
<title>Node17&#45;&gt;Node18</title>
<g id="a_edge20_Node000017_Node000018"><a xlink:title=" ">
<path fill="none" stroke="#63b8ff" d="M994.98,-29C1011.34,-29 1030.35,-29 1047.81,-29"/>
<polygon fill="#63b8ff" stroke="#63b8ff" points="1047.51,-32.5 1057.51,-29 1047.51,-25.5 1047.51,-32.5"/>
</a>
</g>
</g>
<!-- Node19 -->
<g id="Node000019" class="node">
<title>Node19</title>
<g id="a_Node000019"><a xlink:href="fadb_8cpp.html#a383ae5fedc9f597a03c74c729a2eb740" target="_top" xlink:title=" ">
<polygon fill="white" stroke="#666666" points="1257.88,-39 1211.12,-39 1211.12,-19 1257.88,-19 1257.88,-39"/>
<text text-anchor="middle" x="1234.5" y="-25.5" font-family="Helvetica,sans-Serif" font-size="10.00">runAdb</text>
</a>
</g>
</g>
<!-- Node18&#45;&gt;Node19 -->
<g id="edge21_Node000018_Node000019" class="edge">
<title>Node18&#45;&gt;Node19</title>
<g id="a_edge21_Node000018_Node000019"><a xlink:title=" ">
<path fill="none" stroke="#63b8ff" d="M1148.34,-29C1165.08,-29 1183.93,-29 1199.62,-29"/>
<polygon fill="#63b8ff" stroke="#63b8ff" points="1199.41,-32.5 1209.41,-29 1199.41,-25.5 1199.41,-32.5"/>
</a>
</g>
</g>
<!-- Node20 -->
<g id="Node000020" class="node">
<title>Node20</title>
<g id="a_Node000020"><a xlink:href="sys_commands_8cpp.html#a321eb7e335377aa7182bafc8a1605032" target="_top" xlink:title=" ">
<polygon fill="white" stroke="#666666" points="1374,-39 1307,-39 1307,-19 1374,-19 1374,-39"/>
<text text-anchor="middle" x="1340.5" y="-25.5" font-family="Helvetica,sans-Serif" font-size="10.00">receivePipe</text>
</a>
</g>
</g>
<!-- Node19&#45;&gt;Node20 -->
<g id="edge22_Node000019_Node000020" class="edge">
<title>Node19&#45;&gt;Node20</title>
<g id="a_edge22_Node000019_Node000020"><a xlink:title=" ">
<path fill="none" stroke="#63b8ff" d="M1258.32,-29C1269.22,-29 1282.64,-29 1295.41,-29"/>
<polygon fill="#63b8ff" stroke="#63b8ff" points="1295.35,-32.5 1305.35,-29 1295.35,-25.5 1295.35,-32.5"/>
</a>
</g>
</g>
<!-- Node21 -->
<g id="Node000021" class="node">
<title>Node21</title>
<g id="a_Node000021"><a xlink:href="sys_commands_8cpp.html#a4771c79171a937893508dabadadbe099" target="_top" xlink:title=" ">
<polygon fill="white" stroke="#666666" points="1468.75,-58 1410,-58 1410,-38 1468.75,-38 1468.75,-58"/>
<text text-anchor="middle" x="1439.38" y="-44.5" font-family="Helvetica,sans-Serif" font-size="10.00">closePipe</text>
</a>
</g>
</g>
<!-- Node20&#45;&gt;Node21 -->
<g id="edge23_Node000020_Node000021" class="edge">
<title>Node20&#45;&gt;Node21</title>
<g id="a_edge23_Node000020_Node000021"><a xlink:title=" ">
<path fill="none" stroke="#63b8ff" d="M1374.3,-35.43C1382.06,-36.95 1390.42,-38.59 1398.46,-40.17"/>
<polygon fill="#63b8ff" stroke="#63b8ff" points="1397.53,-43.56 1408.02,-42.05 1398.88,-36.69 1397.53,-43.56"/>
</a>
</g>
</g>
<!-- Node22 -->
<g id="Node000022" class="node">
<title>Node22</title>
<g id="a_Node000022"><a xlink:href="sys_commands_8cpp.html#a3499ce0cd7e4ed28b3c5461a4d3aec84" target="_top" xlink:title=" ">
<polygon fill="white" stroke="#666666" points="1467.62,-20 1411.12,-20 1411.12,0 1467.62,0 1467.62,-20"/>
<text text-anchor="middle" x="1439.38" y="-6.5" font-family="Helvetica,sans-Serif" font-size="10.00">openPipe</text>
</a>
</g>
</g>
<!-- Node20&#45;&gt;Node22 -->
<g id="edge24_Node000020_Node000022" class="edge">
<title>Node20&#45;&gt;Node22</title>
<g id="a_edge24_Node000020_Node000022"><a xlink:title=" ">
<path fill="none" stroke="#63b8ff" d="M1374.3,-22.57C1382.45,-20.97 1391.26,-19.24 1399.67,-17.59"/>
<polygon fill="#63b8ff" stroke="#63b8ff" points="1400.15,-21.06 1409.29,-15.7 1398.8,-14.19 1400.15,-21.06"/>
</a>
</g>
</g>
<!-- Node24&#45;&gt;Node2 -->
<g id="edge27_Node000024_Node000002" class="edge">
<title>Node24&#45;&gt;Node2</title>
<g id="a_edge27_Node000024_Node000002"><a xlink:title=" ">
<path fill="none" stroke="#63b8ff" d="M611.61,-343.26C629.01,-360.24 666.52,-393.9 705.25,-410 766.64,-435.51 843.15,-443.72 894.42,-446.21"/>
<polygon fill="#63b8ff" stroke="#63b8ff" points="893.95,-449.7 904.09,-446.62 894.25,-442.7 893.95,-449.7"/>
</a>
</g>
</g>
<!-- Node24&#45;&gt;Node15 -->
<g id="edge28_Node000024_Node000015" class="edge">
<title>Node24&#45;&gt;Node15</title>
<g id="a_edge28_Node000024_Node000015"><a xlink:title=" ">
<path fill="none" stroke="#63b8ff" d="M614.98,-343.35C633.91,-357.17 670.02,-380.96 705.25,-390 768.8,-406.31 844.65,-403.05 895.2,-397.84"/>
<polygon fill="#63b8ff" stroke="#63b8ff" points="895.47,-401.33 905.02,-396.76 894.7,-394.37 895.47,-401.33"/>
</a>
</g>
</g>
<!-- Node25&#45;&gt;Node3 -->
<g id="edge30_Node000025_Node000003" class="edge">
<title>Node25&#45;&gt;Node3</title>
<g id="a_edge30_Node000025_Node000003"><a xlink:title=" ">
<path fill="none" stroke="#63b8ff" d="M277.04,-301C304.13,-301 339.23,-301 367.87,-301"/>
<polygon fill="#63b8ff" stroke="#63b8ff" points="367.78,-304.5 377.78,-301 367.78,-297.5 367.78,-304.5"/>
</a>
</g>
</g>
<!-- Node27 -->
<g id="Node000027" class="node">
<title>Node27</title>
<g id="a_Node000027"><a xlink:href="class_interactions.html#a1e4898ef6baa65c69e8f4a94e34f91f9" target="_top" xlink:title=" ">
<polygon fill="white" stroke="#666666" points="495.75,-165 346.25,-165 346.25,-133 495.75,-133 495.75,-165"/>
<text text-anchor="start" x="354.25" y="-151.5" font-family="Helvetica,sans-Serif" font-size="10.00">Interactions::fCompareMultiple</text>
<text text-anchor="middle" x="421" y="-139.5" font-family="Helvetica,sans-Serif" font-size="10.00">TemplateA</text>
</a>
</g>
</g>
<!-- Node26&#45;&gt;Node27 -->
<g id="edge32_Node000026_Node000027" class="edge">
<title>Node26&#45;&gt;Node27</title>
<g id="a_edge32_Node000026_Node000027"><a xlink:title=" ">
<path fill="none" stroke="#63b8ff" d="M310.65,-145.48C318.46,-145.73 326.42,-145.98 334.31,-146.24"/>
<polygon fill="#63b8ff" stroke="#63b8ff" points="334.17,-149.74 344.28,-146.56 334.4,-142.74 334.17,-149.74"/>
</a>
</g>
</g>
<!-- Node27&#45;&gt;Node10 -->
<g id="edge43_Node000027_Node000010" class="edge">
<title>Node27&#45;&gt;Node10</title>
<g id="a_edge43_Node000027_Node000010"><a xlink:title=" ">
<path fill="none" stroke="#63b8ff" d="M496.25,-146.49C506.01,-146.16 516.02,-145.82 525.77,-145.49"/>
<polygon fill="#63b8ff" stroke="#63b8ff" points="525.69,-149 535.57,-145.16 525.45,-142 525.69,-149"/>
</a>
</g>
</g>
<!-- Node27&#45;&gt;Node12 -->
<g id="edge44_Node000027_Node000012" class="edge">
<title>Node27&#45;&gt;Node12</title>
<g id="a_edge44_Node000027_Node000012"><a xlink:title=" ">
<path fill="none" stroke="#63b8ff" d="M448.57,-165.45C463.05,-174.88 480.98,-187.34 495.75,-200 513.41,-215.14 511.83,-225.98 531.75,-238 534.22,-239.49 536.81,-240.87 539.48,-242.14"/>
<polygon fill="#63b8ff" stroke="#63b8ff" points="538.1,-245.36 548.67,-245.96 540.78,-238.89 538.1,-245.36"/>
</a>
</g>
</g>
<!-- Node27&#45;&gt;Node23 -->
<g id="edge45_Node000027_Node000023" class="edge">
<title>Node27&#45;&gt;Node23</title>
<g id="a_edge45_Node000027_Node000023"><a xlink:title=" ">
<path fill="none" stroke="#63b8ff" d="M453.6,-165.34C475.22,-176.11 504.75,-190.02 531.75,-200 536.78,-201.86 542.09,-203.64 547.42,-205.32"/>
<polygon fill="#63b8ff" stroke="#63b8ff" points="546.28,-208.63 556.87,-208.16 548.3,-201.93 546.28,-208.63"/>
</a>
</g>
</g>
<!-- Node27&#45;&gt;Node24 -->
<g id="edge46_Node000027_Node000024" class="edge">
<title>Node27&#45;&gt;Node24</title>
<g id="a_edge46_Node000027_Node000024"><a xlink:title=" ">
<path fill="none" stroke="#63b8ff" d="M452.82,-165.28C467.26,-174.07 483.86,-186 495.75,-200 519.94,-228.49 508.93,-246.4 531.75,-276 543.72,-291.53 560.59,-305.73 574.49,-316.08"/>
<polygon fill="#63b8ff" stroke="#63b8ff" points="572.16,-318.71 582.32,-321.71 576.25,-313.03 572.16,-318.71"/>
</a>
</g>
</g>
<!-- Node28 -->
<g id="Node000028" class="node">
<title>Node28</title>
<g id="a_Node000028"><a xlink:href="fopencv_8cpp.html#ade157d547c93a4a6c0c6395cbcd15e10" target="_top" xlink:title=" ">
<polygon fill="white" stroke="#666666" points="859.25,-144 705.25,-144 705.25,-124 859.25,-124 859.25,-144"/>
<text text-anchor="middle" x="782.25" y="-130.5" font-family="Helvetica,sans-Serif" font-size="10.00">cvmtfCompareMultipleTemplate</text>
</a>
</g>
</g>
<!-- Node27&#45;&gt;Node28 -->
<g id="edge33_Node000027_Node000028" class="edge">
<title>Node27&#45;&gt;Node28</title>
<g id="a_edge33_Node000027_Node000028"><a xlink:title=" ">
<path fill="none" stroke="#63b8ff" d="M483.11,-132.53C498.84,-129 515.83,-125.79 531.75,-124 585.29,-117.98 645.65,-120.16 693.59,-124"/>
<polygon fill="#63b8ff" stroke="#63b8ff" points="693.11,-127.47 703.36,-124.83 693.69,-120.5 693.11,-127.47"/>
</a>
</g>
</g>
<!-- Node28&#45;&gt;Node4 -->
<g id="edge40_Node000028_Node000004" class="edge">
<title>Node28&#45;&gt;Node4</title>
<g id="a_edge40_Node000028_Node000004"><a xlink:title=" ">
<path fill="none" stroke="#63b8ff" d="M845.72,-144.48C850.59,-146.79 855.18,-149.6 859.25,-153 889.16,-178.01 867.42,-205.69 895.25,-233 898.43,-236.13 902.09,-238.87 905.98,-241.28"/>
<polygon fill="#63b8ff" stroke="#63b8ff" points="904.16,-244.28 914.63,-245.88 907.45,-238.1 904.16,-244.28"/>
</a>
</g>
</g>
<!-- Node28&#45;&gt;Node8 -->
<g id="edge42_Node000028_Node000008" class="edge">
<title>Node28&#45;&gt;Node8</title>
<g id="a_edge42_Node000028_Node000008"><a xlink:title=" ">
<path fill="none" stroke="#63b8ff" d="M841.24,-144.45C847.55,-146.75 853.7,-149.57 859.25,-153 880.16,-165.93 874.63,-181.6 895.25,-195 921.02,-211.75 998.52,-232.39 1051.15,-245.13"/>
<polygon fill="#63b8ff" stroke="#63b8ff" points="1050.29,-248.52 1060.83,-247.44 1051.92,-241.71 1050.29,-248.52"/>
</a>
</g>
</g>
<!-- Node29 -->
<g id="Node000029" class="node">
<title>Node29</title>
<g id="a_Node000029"><a xlink:href="fopencv_8cpp.html#a95c56af5716e2b2d1b4df612796cc229" target="_top" xlink:title=" ">
<polygon fill="white" stroke="#666666" points="1009.5,-153 895.25,-153 895.25,-133 1009.5,-133 1009.5,-153"/>
<text text-anchor="middle" x="952.38" y="-139.5" font-family="Helvetica,sans-Serif" font-size="10.00">cvmtfMultipleTemplate</text>
</a>
</g>
</g>
<!-- Node28&#45;&gt;Node29 -->
<g id="edge34_Node000028_Node000029" class="edge">
<title>Node28&#45;&gt;Node29</title>
<g id="a_edge34_Node000028_Node000029"><a xlink:title=" ">
<path fill="none" stroke="#63b8ff" d="M859.44,-138.08C867.5,-138.51 875.65,-138.95 883.6,-139.37"/>
<polygon fill="#63b8ff" stroke="#63b8ff" points="883.39,-142.87 893.56,-139.91 883.76,-135.88 883.39,-142.87"/>
</a>
</g>
</g>
<!-- Node31 -->
<g id="Node000031" class="node">
<title>Node31</title>
<g id="a_Node000031"><a xlink:href="fopencv_8cpp.html#a6abdcaeee06b3da6f210daf0162bcd01" target="_top" xlink:title=" ">
<polygon fill="white" stroke="#666666" points="1263.88,-115 1205.12,-115 1205.12,-95 1263.88,-95 1263.88,-115"/>
<text text-anchor="middle" x="1234.5" y="-101.5" font-family="Helvetica,sans-Serif" font-size="10.00">intersects</text>
</a>
</g>
</g>
<!-- Node28&#45;&gt;Node31 -->
<g id="edge41_Node000028_Node000031" class="edge">
<title>Node28&#45;&gt;Node31</title>
<g id="a_edge41_Node000028_Node000031"><a xlink:title=" ">
<path fill="none" stroke="#63b8ff" d="M859.74,-126.83C871.62,-125.82 883.76,-124.84 895.25,-124 1002.99,-116.17 1130.24,-109.79 1193.55,-106.82"/>
<polygon fill="#63b8ff" stroke="#63b8ff" points="1193.63,-110.32 1203.46,-106.36 1193.31,-103.32 1193.63,-110.32"/>
</a>
</g>
</g>
<!-- Node29&#45;&gt;Node5 -->
<g id="edge35_Node000029_Node000005" class="edge">
<title>Node29&#45;&gt;Node5</title>
<g id="a_edge35_Node000029_Node000005"><a xlink:title=" ">
<path fill="none" stroke="#63b8ff" d="M994.59,-153.48C1014.46,-158.54 1038.32,-164.61 1058.57,-169.76"/>
<polygon fill="#63b8ff" stroke="#63b8ff" points="1057.68,-173.15 1068.23,-172.22 1059.41,-166.36 1057.68,-173.15"/>
</a>
</g>
</g>
<!-- Node29&#45;&gt;Node6 -->
<g id="edge36_Node000029_Node000006" class="edge">
<title>Node29&#45;&gt;Node6</title>
<g id="a_edge36_Node000029_Node000006"><a xlink:title=" ">
<path fill="none" stroke="#63b8ff" d="M982.88,-153.42C991.76,-157.13 1001.31,-161.71 1009.5,-167 1027.74,-178.77 1026.79,-189.01 1045.5,-200 1049.56,-202.39 1053.97,-204.52 1058.47,-206.42"/>
<polygon fill="#63b8ff" stroke="#63b8ff" points="1057.01,-209.61 1067.61,-209.89 1059.5,-203.07 1057.01,-209.61"/>
</a>
</g>
</g>
<!-- Node30 -->
<g id="Node000030" class="node">
<title>Node30</title>
<g id="a_Node000030"><a xlink:href="fopencv_8cpp.html#a7521a083566181475d36ee14aad60f1d" target="_top" xlink:title=" ">
<polygon fill="white" stroke="#666666" points="1162,-153 1045.5,-153 1045.5,-133 1162,-133 1162,-153"/>
<text text-anchor="middle" x="1103.75" y="-139.5" font-family="Helvetica,sans-Serif" font-size="10.00">multipleMatchTemplate</text>
</a>
</g>
</g>
<!-- Node29&#45;&gt;Node30 -->
<g id="edge37_Node000029_Node000030" class="edge">
<title>Node29&#45;&gt;Node30</title>
<g id="a_edge37_Node000029_Node000030"><a xlink:title=" ">
<path fill="none" stroke="#63b8ff" d="M1009.85,-143C1017.71,-143 1025.86,-143 1033.91,-143"/>
<polygon fill="#63b8ff" stroke="#63b8ff" points="1033.69,-146.5 1043.69,-143 1033.69,-139.5 1033.69,-146.5"/>
</a>
</g>
</g>
<!-- Node30&#45;&gt;Node31 -->
<g id="edge38_Node000030_Node000031" class="edge">
<title>Node30&#45;&gt;Node31</title>
<g id="a_edge38_Node000030_Node000031"><a xlink:title=" ">
<path fill="none" stroke="#63b8ff" d="M1140.27,-132.52C1157,-127.58 1177.01,-121.67 1194.19,-116.6"/>
<polygon fill="#63b8ff" stroke="#63b8ff" points="1194.96,-120.02 1203.56,-113.84 1192.98,-113.31 1194.96,-120.02"/>
</a>
</g>
</g>
<!-- Node31&#45;&gt;Node31 -->
<g id="edge39_Node000031_Node000031" class="edge">
<title>Node31&#45;&gt;Node31</title>
<g id="a_edge39_Node000031_Node000031"><a xlink:title=" ">
<path fill="none" stroke="#63b8ff" d="M1217.66,-115.34C1210.46,-123.98 1216.07,-133 1234.5,-133 1244.58,-133 1250.82,-130.3 1253.23,-126.44"/>
<polygon fill="#63b8ff" stroke="#63b8ff" points="1256.73,-126.1 1251.6,-116.83 1249.83,-127.28 1256.73,-126.1"/>
</a>
</g>
</g>
<!-- Node32&#45;&gt;Node33 -->
<g id="edge48_Node000032_Node000033" class="edge">
<title>Node32&#45;&gt;Node33</title>
<g id="a_edge48_Node000032_Node000033"><a xlink:title=" ">
<path fill="none" stroke="#63b8ff" d="M294.82,-197.48C311.78,-200.39 330.36,-203.59 347.89,-206.6"/>
<polygon fill="#63b8ff" stroke="#63b8ff" points="347.3,-210.05 357.75,-208.3 348.48,-203.15 347.3,-210.05"/>
</a>
</g>
</g>
<!-- Node33&#45;&gt;Node10 -->
<g id="edge51_Node000033_Node000010" class="edge">
<title>Node33&#45;&gt;Node10</title>
<g id="a_edge51_Node000033_Node000010"><a xlink:title=" ">
<path fill="none" stroke="#63b8ff" d="M439.34,-208.56C460.54,-196.15 497.8,-175.41 531.75,-162 536.41,-160.16 541.32,-158.42 546.28,-156.79"/>
<polygon fill="#63b8ff" stroke="#63b8ff" points="547.17,-160.18 555.69,-153.88 545.1,-153.5 547.17,-160.18"/>
</a>
</g>
</g>
<!-- Node33&#45;&gt;Node12 -->
<g id="edge52_Node000033_Node000012" class="edge">
<title>Node33&#45;&gt;Node12</title>
<g id="a_edge52_Node000033_Node000012"><a xlink:title=" ">
<path fill="none" stroke="#63b8ff" d="M470.97,-229.48C492.22,-234.03 517.29,-239.4 539.63,-244.18"/>
<polygon fill="#63b8ff" stroke="#63b8ff" points="538.7,-247.56 549.21,-246.23 540.16,-240.72 538.7,-247.56"/>
</a>
</g>
</g>
<!-- Node33&#45;&gt;Node23 -->
<g id="edge53_Node000033_Node000023" class="edge">
<title>Node33&#45;&gt;Node23</title>
<g id="a_edge53_Node000033_Node000023"><a xlink:title=" ">
<path fill="none" stroke="#63b8ff" d="M491.64,-219C503.64,-219 516.13,-219 528.17,-219"/>
<polygon fill="#63b8ff" stroke="#63b8ff" points="528.03,-222.5 538.03,-219 528.03,-215.5 528.03,-222.5"/>
</a>
</g>
</g>
<!-- Node33&#45;&gt;Node24 -->
<g id="edge54_Node000033_Node000024" class="edge">
<title>Node33&#45;&gt;Node24</title>
<g id="a_edge54_Node000033_Node000024"><a xlink:title=" ">
<path fill="none" stroke="#63b8ff" d="M469.45,-229.47C478.51,-232.48 487.68,-236.27 495.75,-241 515,-252.29 515.2,-261.03 531.75,-276 546.85,-289.66 564.46,-304.44 577.94,-315.53"/>
<polygon fill="#63b8ff" stroke="#63b8ff" points="575.4,-317.97 585.36,-321.59 579.83,-312.55 575.4,-317.97"/>
</a>
</g>
</g>
<!-- Node34 -->
<g id="Node000034" class="node">
<title>Node34</title>
<g id="a_Node000034"><a xlink:href="fopencv_8cpp.html#abe41135f4dce8bf30bbdf6fd28d2abbc" target="_top" xlink:title=" ">
<polygon fill="white" stroke="#666666" points="649.75,-191 551.25,-191 551.25,-171 649.75,-171 649.75,-191"/>
<text text-anchor="middle" x="600.5" y="-177.5" font-family="Helvetica,sans-Serif" font-size="10.00">cvmtfOneTemplate</text>
</a>
</g>
</g>
<!-- Node33&#45;&gt;Node34 -->
<g id="edge49_Node000033_Node000034" class="edge">
<title>Node33&#45;&gt;Node34</title>
<g id="a_edge49_Node000033_Node000034"><a xlink:title=" ">
<path fill="none" stroke="#63b8ff" d="M470.97,-208.52C492.3,-203.95 517.5,-198.55 539.91,-193.76"/>
<polygon fill="#63b8ff" stroke="#63b8ff" points="540.47,-197.22 549.51,-191.7 539,-190.37 540.47,-197.22"/>
</a>
</g>
</g>
<!-- Node34&#45;&gt;Node4 -->
<g id="edge50_Node000034_Node000004" class="edge">
<title>Node34&#45;&gt;Node4</title>
<g id="a_edge50_Node000034_Node000004"><a xlink:title=" ">
<path fill="none" stroke="#63b8ff" d="M649.78,-191.49C715.7,-205.81 833.34,-231.36 900.56,-245.96"/>
<polygon fill="#63b8ff" stroke="#63b8ff" points="899.71,-249.36 910.22,-248.06 901.19,-242.52 899.71,-249.36"/>
</a>
</g>
</g>
<!-- Node35&#45;&gt;Node16 -->
<g id="edge64_Node000035_Node000016" class="edge">
<title>Node35&#45;&gt;Node16</title>
<g id="a_edge64_Node000035_Node000016"><a xlink:title=" ">
<path fill="none" stroke="#63b8ff" d="M251.03,-88.69C272.45,-76.42 310.62,-56.52 346.25,-48 486.63,-14.41 659.61,-20.36 738.45,-25.55"/>
<polygon fill="#63b8ff" stroke="#63b8ff" points="738.11,-29.03 748.32,-26.23 738.59,-22.05 738.11,-29.03"/>
</a>
</g>
</g>
<!-- Node35&#45;&gt;Node27 -->
<g id="edge56_Node000035_Node000027" class="edge">
<title>Node35&#45;&gt;Node27</title>
<g id="a_edge56_Node000035_Node000027"><a xlink:title=" ">
<path fill="none" stroke="#63b8ff" d="M276.75,-109.42C287.69,-112.14 299.42,-115.12 310.25,-118 323.84,-121.61 338.34,-125.6 352.19,-129.49"/>
<polygon fill="#63b8ff" stroke="#63b8ff" points="351.1,-132.82 361.67,-132.16 353,-126.08 351.1,-132.82"/>
</a>
</g>
</g>
<!-- Node36 -->
<g id="Node000036" class="node">
<title>Node36</title>
<g id="a_Node000036"><a xlink:href="class_interactions.html#a8dd8d6d917a4a95c2e2ef2d389380751" target="_top" xlink:title=" ">
<polygon fill="white" stroke="#666666" points="492,-77 350,-77 350,-57 492,-57 492,-77"/>
<text text-anchor="middle" x="421" y="-63.5" font-family="Helvetica,sans-Serif" font-size="10.00">Interactions::fMultipleDigitsA</text>
</a>
</g>
</g>
<!-- Node35&#45;&gt;Node36 -->
<g id="edge57_Node000035_Node000036" class="edge">
<title>Node35&#45;&gt;Node36</title>
<g id="a_edge57_Node000035_Node000036"><a xlink:title=" ">
<path fill="none" stroke="#63b8ff" d="M294.82,-88.52C311.78,-85.61 330.36,-82.41 347.89,-79.4"/>
<polygon fill="#63b8ff" stroke="#63b8ff" points="348.48,-82.85 357.75,-77.7 347.3,-75.95 348.48,-82.85"/>
</a>
</g>
</g>
<!-- Node38 -->
<g id="Node000038" class="node">
<title>Node38</title>
<g id="a_Node000038"><a xlink:href="class_interactions.html#af3c13c1ae7d10eb3f41f626549982d41" target="_top" xlink:title=" ">
<polygon fill="white" stroke="#666666" points="481.12,-115 360.88,-115 360.88,-95 481.12,-95 481.12,-115"/>
<text text-anchor="middle" x="421" y="-101.5" font-family="Helvetica,sans-Serif" font-size="10.00">Interactions::orderDigits</text>
</a>
</g>
</g>
<!-- Node35&#45;&gt;Node38 -->
<g id="edge63_Node000035_Node000038" class="edge">
<title>Node35&#45;&gt;Node38</title>
<g id="a_edge63_Node000035_Node000038"><a xlink:title=" ">
<path fill="none" stroke="#63b8ff" d="M306.9,-101.35C320.75,-101.8 335.21,-102.27 348.99,-102.71"/>
<polygon fill="#63b8ff" stroke="#63b8ff" points="348.76,-106.21 358.87,-103.03 348.98,-99.21 348.76,-106.21"/>
</a>
</g>
</g>
<!-- Node36&#45;&gt;Node10 -->
<g id="edge62_Node000036_Node000010" class="edge">
<title>Node36&#45;&gt;Node10</title>
<g id="a_edge62_Node000036_Node000010"><a xlink:title=" ">
<path fill="none" stroke="#63b8ff" d="M469.77,-77.44C478.54,-79.88 487.51,-82.74 495.75,-86 523.7,-97.07 553.58,-114.1 574.07,-126.67"/>
<polygon fill="#63b8ff" stroke="#63b8ff" points="571.97,-129.48 582.3,-131.8 575.67,-123.54 571.97,-129.48"/>
</a>
</g>
</g>
<!-- Node37 -->
<g id="Node000037" class="node">
<title>Node37</title>
<g id="a_Node000037"><a xlink:href="fopencv_8cpp.html#a154cb9c9b19db5ba6c4df73e72c98256" target="_top" xlink:title=" ">
<polygon fill="white" stroke="#666666" points="859.25,-93 705.25,-93 705.25,-61 859.25,-61 859.25,-93"/>
<text text-anchor="start" x="713.25" y="-79.5" font-family="Helvetica,sans-Serif" font-size="10.00">cvmtfMultipleTemplateCompare</text>
<text text-anchor="middle" x="782.25" y="-67.5" font-family="Helvetica,sans-Serif" font-size="10.00">MultipleTemplate</text>
</a>
</g>
</g>
<!-- Node36&#45;&gt;Node37 -->
<g id="edge58_Node000036_Node000037" class="edge">
<title>Node36&#45;&gt;Node37</title>
<g id="a_edge58_Node000036_Node000037"><a xlink:title=" ">
<path fill="none" stroke="#63b8ff" d="M492.12,-68.95C549.69,-70.55 631.54,-72.83 693.46,-74.56"/>
<polygon fill="#63b8ff" stroke="#63b8ff" points="693.18,-78.05 703.27,-74.83 693.37,-71.05 693.18,-78.05"/>
</a>
</g>
</g>
<!-- Node37&#45;&gt;Node8 -->
<g id="edge61_Node000037_Node000008" class="edge">
<title>Node37&#45;&gt;Node8</title>
<g id="a_edge61_Node000037_Node000008"><a xlink:title=" ">
<path fill="none" stroke="#63b8ff" d="M824.37,-93.35C836.31,-99.18 848.9,-106.45 859.25,-115 879.54,-131.76 873.52,-147.16 895.25,-162 938.9,-191.81 965.22,-166.15 1009.5,-195 1030.38,-208.61 1024.89,-223.99 1045.5,-238 1047.46,-239.33 1049.53,-240.58 1051.66,-241.75"/>
<polygon fill="#63b8ff" stroke="#63b8ff" points="1050.09,-244.88 1060.63,-245.97 1053.07,-238.54 1050.09,-244.88"/>
</a>
</g>
</g>
<!-- Node37&#45;&gt;Node29 -->
<g id="edge59_Node000037_Node000029" class="edge">
<title>Node37&#45;&gt;Node29</title>
<g id="a_edge59_Node000037_Node000029"><a xlink:title=" ">
<path fill="none" stroke="#63b8ff" d="M825.24,-93.48C852.64,-104.24 888.08,-118.15 914.42,-128.49"/>
<polygon fill="#63b8ff" stroke="#63b8ff" points="913.1,-131.73 923.69,-132.13 915.66,-125.22 913.1,-131.73"/>
</a>
</g>
</g>
<!-- Node37&#45;&gt;Node31 -->
<g id="edge60_Node000037_Node000031" class="edge">
<title>Node37&#45;&gt;Node31</title>
<g id="a_edge60_Node000037_Node000031"><a xlink:title=" ">
<path fill="none" stroke="#63b8ff" d="M859.69,-76.33C936.37,-76.47 1057.74,-78.94 1162,-91 1172.32,-92.19 1183.37,-94.06 1193.63,-96.05"/>
<polygon fill="#63b8ff" stroke="#63b8ff" points="1192.81,-99.45 1203.3,-98.01 1194.2,-92.59 1192.81,-99.45"/>
</a>
</g>
</g>
<!-- Node39&#45;&gt;Node4 -->
<g id="edge67_Node000039_Node000004" class="edge">
<title>Node39&#45;&gt;Node4</title>
<g id="a_edge67_Node000039_Node000004"><a xlink:title=" ">
<path fill="none" stroke="#63b8ff" d="M476.26,-269.5C493.9,-272.16 513.6,-274.68 531.75,-276 676.92,-286.53 714.45,-290.78 859.25,-276 872.83,-274.61 887.37,-272.11 900.78,-269.36"/>
<polygon fill="#63b8ff" stroke="#63b8ff" points="901.22,-272.85 910.26,-267.33 899.75,-266 901.22,-272.85"/>
</a>
</g>
</g>
<!-- Node39&#45;&gt;Node10 -->
<g id="edge68_Node000039_Node000010" class="edge">
<title>Node39&#45;&gt;Node10</title>
<g id="a_edge68_Node000039_Node000010"><a xlink:title=" ">
<path fill="none" stroke="#63b8ff" d="M476.31,-249.62C483.35,-246.67 490.07,-242.87 495.75,-238 524.11,-213.66 503.19,-186.1 531.75,-162 533.03,-160.92 534.37,-159.9 535.76,-158.93"/>
<polygon fill="#63b8ff" stroke="#63b8ff" points="537.24,-162.12 544.2,-154.13 533.78,-156.03 537.24,-162.12"/>
</a>
</g>
</g>
<!-- Node39&#45;&gt;Node12 -->
<g id="edge69_Node000039_Node000012" class="edge">
<title>Node39&#45;&gt;Node12</title>
<g id="a_edge69_Node000039_Node000012"><a xlink:title=" ">
<path fill="none" stroke="#63b8ff" d="M476.22,-259.08C492.7,-258.81 511.05,-258.49 528.46,-258.2"/>
<polygon fill="#63b8ff" stroke="#63b8ff" points="528.28,-261.7 538.22,-258.04 528.16,-254.71 528.28,-261.7"/>
</a>
</g>
</g>
<!-- Node39&#45;&gt;Node23 -->
<g id="edge70_Node000039_Node000023" class="edge">
<title>Node39&#45;&gt;Node23</title>
<g id="a_edge70_Node000039_Node000023"><a xlink:title=" ">
<path fill="none" stroke="#63b8ff" d="M467.25,-249.55C490.41,-244.2 518.82,-237.64 543.36,-231.97"/>
<polygon fill="#63b8ff" stroke="#63b8ff" points="543.9,-235.43 552.86,-229.77 542.33,-228.61 543.9,-235.43"/>
</a>
</g>
</g>
<!-- Node39&#45;&gt;Node24 -->
<g id="edge71_Node000039_Node000024" class="edge">
<title>Node39&#45;&gt;Node24</title>
<g id="a_edge71_Node000039_Node000024"><a xlink:title=" ">
<path fill="none" stroke="#63b8ff" d="M466.27,-270.44C476.23,-273.54 486.56,-277.37 495.75,-282 513.61,-291 514.12,-299.55 531.75,-309 538.32,-312.52 545.52,-315.71 552.69,-318.52"/>
<polygon fill="#63b8ff" stroke="#63b8ff" points="551.46,-321.8 562.05,-321.98 553.88,-315.23 551.46,-321.8"/>
</a>
</g>
</g>
</g>
</svg>
