<?xml version="1.0" encoding="UTF-8" standalone="no"?>
<!DOCTYPE svg PUBLIC "-//W3C//DTD SVG 1.1//EN"
 "http://www.w3.org/Graphics/SVG/1.1/DTD/svg11.dtd">
<!-- Generated by graphviz version 12.2.0 (20241103.1931)
 -->
<!-- Title: Interactions::fnbUniqueCompareTemplateA Pages: 1 -->
<!--zoomable 387 -->

<svg id="main" version="1.1" xmlns="http://www.w3.org/2000/svg" xmlns:xlink="http://www.w3.org/1999/xlink" xml:space="preserve" onload="init(evt)">

<style type="text/css"><![CDATA[
.node, .edge {opacity: 0.7;}
.node.selected, .edge.selected {opacity: 1;}
.edge:hover path { stroke: red; }
.edge:hover polygon { stroke: red; fill: red; }
]]></style>

<defs>
  <circle id="rim" cx="0" cy="0" r="7"/>
  <circle id="rim2" cx="0" cy="0" r="3.5"/>
  <g id="zoomPlus">
    <use xlink:href="#rim" fill="#404040"><set attributeName="fill" to="#808080" begin="zoomplus.mouseover" end="zoomplus.mouseout"/></use>
    <path d="M-4,0h8M0,-4v8" fill="none" stroke="white" stroke-width="1.5" pointer-events="none"/>
  </g>
  <g id="zoomMin">
    <use xlink:href="#rim" fill="#404040"><set attributeName="fill" to="#808080" begin="zoomminus.mouseover" end="zoomminus.mouseout"/></use>
    <path d="M-4,0h8" fill="none" stroke="white" stroke-width="1.5" pointer-events="none"/>
  </g>
  <g id="arrowUp" transform="translate(30 24)">
    <use xlink:href="#rim"/>
    <path pointer-events="none" fill="none" stroke="white" stroke-width="1.5" d="M0,-3.0v7 M-2.5,-0.5L0,-3.0L2.5,-0.5"/>
  </g>
  <g id="arrowRight" transform="rotate(90) translate(36 -43)">
    <use xlink:href="#rim"/>
    <path pointer-events="none" fill="none" stroke="white" stroke-width="1.5" d="M0,-3.0v7 M-2.5,-0.5L0,-3.0L2.5,-0.5"/>
  </g>
  <g id="arrowDown" transform="rotate(180) translate(-30 -48)">
    <use xlink:href="#rim"/>
    <path pointer-events="none" fill="none" stroke="white" stroke-width="1.5" d="M0,-3.0v7 M-2.5,-0.5L0,-3.0L2.5,-0.5"/>
  </g>
  <g id="arrowLeft" transform="rotate(270) translate(-36 17)">
    <use xlink:href="#rim"/>
    <path pointer-events="none" fill="none" stroke="white" stroke-width="1.5" d="M0,-3.0v7 M-2.5,-0.5L0,-3.0L2.5,-0.5"/>
  </g>
  <g id="resetDef">
    <use xlink:href="#rim2" fill="#404040"><set attributeName="fill" to="#808080" begin="reset.mouseover" end="reset.mouseout"/></use>
  </g>
</defs>
<script type="application/ecmascript">
var viewWidth = 1127;
var viewHeight = 387;
var sectionId = 'dynsection-46';
</script>
<script type="application/ecmascript" xlink:href="svg.min.js"/>
<svg id="graph" class="graph">
<g id="viewport">
<title>Interactions::fnbUniqueCompareTemplateA</title>
<!-- Node1 -->
<g id="Node000001" class="node">
<title>Node1</title>
<g id="a_Node000001"><a xlink:title=" ">
<polygon fill="#999999" stroke="#666666" points="157,-102 0,-102 0,-70 157,-70 157,-102"/>
<text text-anchor="start" x="8" y="-88.5" font-family="Helvetica,sans-Serif" font-size="10.00">Interactions::fnbUniqueCompare</text>
<text text-anchor="middle" x="78.5" y="-76.5" font-family="Helvetica,sans-Serif" font-size="10.00">TemplateA</text>
</a>
</g>
</g>
<!-- Node2 -->
<g id="Node000002" class="node">
<title>Node2</title>
<g id="a_Node000002"><a xlink:href="fopencv_8cpp.html#a154cb9c9b19db5ba6c4df73e72c98256" target="_top" xlink:title=" ">
<polygon fill="white" stroke="#666666" points="509.25,-271 355.25,-271 355.25,-239 509.25,-239 509.25,-271"/>
<text text-anchor="start" x="363.25" y="-257.5" font-family="Helvetica,sans-Serif" font-size="10.00">cvmtfMultipleTemplateCompare</text>
<text text-anchor="middle" x="432.25" y="-245.5" font-family="Helvetica,sans-Serif" font-size="10.00">MultipleTemplate</text>
</a>
</g>
</g>
<!-- Node1&#45;&gt;Node2 -->
<g id="edge1_Node000001_Node000002" class="edge">
<title>Node1&#45;&gt;Node2</title>
<g id="a_edge1_Node000001_Node000002"><a xlink:title=" ">
<path fill="none" stroke="#63b8ff" d="M105.61,-102.37C128.31,-116.32 162.27,-136.49 193,-152 255.46,-183.52 329.79,-214.69 378.62,-234.35"/>
<polygon fill="#63b8ff" stroke="#63b8ff" points="377.26,-237.57 387.84,-238.04 379.86,-231.07 377.26,-237.57"/>
</a>
</g>
</g>
<!-- Node10 -->
<g id="Node000010" class="node">
<title>Node10</title>
<g id="a_Node000010"><a xlink:href="class_interactions.html#a5b5af2b125ff152043789cfcf70ffb2b" target="_top" xlink:title=" ">
<polygon fill="white" stroke="#666666" points="319.25,-58 193,-58 193,-38 319.25,-38 319.25,-58"/>
<text text-anchor="middle" x="256.12" y="-44.5" font-family="Helvetica,sans-Serif" font-size="10.00">Interactions::getTemplate</text>
</a>
</g>
</g>
<!-- Node1&#45;&gt;Node10 -->
<g id="edge11_Node000001_Node000010" class="edge">
<title>Node1&#45;&gt;Node10</title>
<g id="a_edge11_Node000001_Node000010"><a xlink:title=" ">
<path fill="none" stroke="#63b8ff" d="M155.51,-69.55C168.92,-66.65 182.7,-63.67 195.58,-60.88"/>
<polygon fill="#63b8ff" stroke="#63b8ff" points="196.11,-64.35 205.14,-58.81 194.63,-57.51 196.11,-64.35"/>
</a>
</g>
</g>
<!-- Node12 -->
<g id="Node000012" class="node">
<title>Node12</title>
<g id="a_Node000012"><a xlink:href="class_interactions.html#a0a0ffd9ad1990de31fd7b2773db32667" target="_top" xlink:title=" ">
<polygon fill="white" stroke="#666666" points="316.62,-143 195.62,-143 195.62,-123 316.62,-123 316.62,-143"/>
<text text-anchor="middle" x="256.12" y="-129.5" font-family="Helvetica,sans-Serif" font-size="10.00">Interactions::loopPopUp</text>
</a>
</g>
</g>
<!-- Node1&#45;&gt;Node12 -->
<g id="edge13_Node000001_Node000012" class="edge">
<title>Node1&#45;&gt;Node12</title>
<g id="a_edge13_Node000001_Node000012"><a xlink:title=" ">
<path fill="none" stroke="#63b8ff" d="M140.93,-102.44C161.86,-108.04 185,-114.23 204.95,-119.57"/>
<polygon fill="#63b8ff" stroke="#63b8ff" points="203.94,-122.93 214.51,-122.13 205.75,-116.16 203.94,-122.93"/>
</a>
</g>
</g>
<!-- Node26 -->
<g id="Node000026" class="node">
<title>Node26</title>
<g id="a_Node000026"><a xlink:href="class_interactions.html#ade7f52c59105f434650b9358b22e5488" target="_top" xlink:title=" ">
<polygon fill="white" stroke="#666666" points="316.62,-20 195.62,-20 195.62,0 316.62,0 316.62,-20"/>
<text text-anchor="middle" x="256.12" y="-6.5" font-family="Helvetica,sans-Serif" font-size="10.00">Interactions::resetCount</text>
</a>
</g>
</g>
<!-- Node1&#45;&gt;Node26 -->
<g id="edge31_Node000001_Node000026" class="edge">
<title>Node1&#45;&gt;Node26</title>
<g id="a_edge31_Node000001_Node000026"><a xlink:title=" ">
<path fill="none" stroke="#63b8ff" d="M108.74,-69.6C131.3,-57.37 163.53,-40.81 193,-29 197.36,-27.25 201.94,-25.57 206.56,-23.98"/>
<polygon fill="#63b8ff" stroke="#63b8ff" points="207.47,-27.37 215.88,-20.92 205.29,-20.72 207.47,-27.37"/>
</a>
</g>
</g>
<!-- Node27 -->
<g id="Node000027" class="node">
<title>Node27</title>
<g id="a_Node000027"><a xlink:href="class_interactions.html#ad7daddd9df3cea80e69872b8afd6c8dc" target="_top" xlink:title=" ">
<polygon fill="white" stroke="#666666" points="501,-86 363.5,-86 363.5,-66 501,-66 501,-86"/>
<text text-anchor="middle" x="432.25" y="-72.5" font-family="Helvetica,sans-Serif" font-size="10.00">Interactions::templateFound</text>
</a>
</g>
</g>
<!-- Node1&#45;&gt;Node27 -->
<g id="edge32_Node000001_Node000027" class="edge">
<title>Node1&#45;&gt;Node27</title>
<g id="a_edge32_Node000001_Node000027"><a xlink:title=" ">
<path fill="none" stroke="#63b8ff" d="M157.13,-83.79C214.88,-82.15 293.45,-79.92 351.67,-78.26"/>
<polygon fill="#63b8ff" stroke="#63b8ff" points="351.62,-81.77 361.52,-77.98 351.42,-74.77 351.62,-81.77"/>
</a>
</g>
</g>
<!-- Node3 -->
<g id="Node000003" class="node">
<title>Node3</title>
<g id="a_Node000003"><a xlink:href="fopencv_8cpp.html#a95c56af5716e2b2d1b4df612796cc229" target="_top" xlink:title=" ">
<polygon fill="white" stroke="#666666" points="659.5,-285 545.25,-285 545.25,-265 659.5,-265 659.5,-285"/>
<text text-anchor="middle" x="602.38" y="-271.5" font-family="Helvetica,sans-Serif" font-size="10.00">cvmtfMultipleTemplate</text>
</a>
</g>
</g>
<!-- Node2&#45;&gt;Node3 -->
<g id="edge2_Node000002_Node000003" class="edge">
<title>Node2&#45;&gt;Node3</title>
<g id="a_edge2_Node000002_Node000003"><a xlink:title=" ">
<path fill="none" stroke="#63b8ff" d="M509.44,-264.06C517.59,-265.03 525.84,-266.01 533.88,-266.97"/>
<polygon fill="#63b8ff" stroke="#63b8ff" points="533.22,-270.42 543.57,-268.12 534.05,-263.47 533.22,-270.42"/>
</a>
</g>
</g>
<!-- Node8 -->
<g id="Node000008" class="node">
<title>Node8</title>
<g id="a_Node000008"><a xlink:href="fopencv_8cpp.html#a6abdcaeee06b3da6f210daf0162bcd01" target="_top" xlink:title=" ">
<polygon fill="white" stroke="#666666" points="913.88,-361 855.12,-361 855.12,-341 913.88,-341 913.88,-361"/>
<text text-anchor="middle" x="884.5" y="-347.5" font-family="Helvetica,sans-Serif" font-size="10.00">intersects</text>
</a>
</g>
</g>
<!-- Node2&#45;&gt;Node8 -->
<g id="edge9_Node000002_Node000008" class="edge">
<title>Node2&#45;&gt;Node8</title>
<g id="a_edge9_Node000002_Node000008"><a xlink:title=" ">
<path fill="none" stroke="#63b8ff" d="M466.15,-271.33C514.83,-294.49 609.57,-335.77 695.5,-351 746.03,-359.96 805.41,-357.91 843.71,-355"/>
<polygon fill="#63b8ff" stroke="#63b8ff" points="843.7,-358.51 853.37,-354.2 843.12,-351.54 843.7,-358.51"/>
</a>
</g>
</g>
<!-- Node9 -->
<g id="Node000009" class="node">
<title>Node9</title>
<g id="a_Node000009"><a xlink:href="fopencv_8cpp.html#a1ed1ff1a9df2ab889e1423cb11a58c06" target="_top" xlink:title=" ">
<polygon fill="white" stroke="#666666" points="795.12,-190 712.38,-190 712.38,-170 795.12,-170 795.12,-190"/>
<text text-anchor="middle" x="753.75" y="-176.5" font-family="Helvetica,sans-Serif" font-size="10.00">messageFound</text>
</a>
</g>
</g>
<!-- Node2&#45;&gt;Node9 -->
<g id="edge10_Node000002_Node000009" class="edge">
<title>Node2&#45;&gt;Node9</title>
<g id="a_edge10_Node000002_Node000009"><a xlink:title=" ">
<path fill="none" stroke="#63b8ff" d="M466.79,-238.63C488.65,-228.62 518.06,-216.36 545.25,-209 597.08,-194.97 658.13,-187.48 700.54,-183.65"/>
<polygon fill="#63b8ff" stroke="#63b8ff" points="700.81,-187.14 710.47,-182.79 700.21,-180.17 700.81,-187.14"/>
</a>
</g>
</g>
<!-- Node4 -->
<g id="Node000004" class="node">
<title>Node4</title>
<g id="a_Node000004"><a xlink:href="fopencv_8cpp.html#af6fc77188d314c0d5a58888452f9b313" target="_top" xlink:title=" ">
<polygon fill="white" stroke="#666666" points="787.62,-304 719.88,-304 719.88,-284 787.62,-284 787.62,-304"/>
<text text-anchor="middle" x="753.75" y="-290.5" font-family="Helvetica,sans-Serif" font-size="10.00">extractZone</text>
</a>
</g>
</g>
<!-- Node3&#45;&gt;Node4 -->
<g id="edge3_Node000003_Node000004" class="edge">
<title>Node3&#45;&gt;Node4</title>
<g id="a_edge3_Node000003_Node000004"><a xlink:title=" ">
<path fill="none" stroke="#63b8ff" d="M659.85,-282.18C675.91,-284.23 693.17,-286.42 708.41,-288.36"/>
<polygon fill="#63b8ff" stroke="#63b8ff" points="707.74,-291.8 718.1,-289.59 708.62,-284.86 707.74,-291.8"/>
</a>
</g>
</g>
<!-- Node5 -->
<g id="Node000005" class="node">
<title>Node5</title>
<g id="a_Node000005"><a xlink:href="struct_zone.html#a5301e7fcf185a5a79c1bf7d7930f4b8a" target="_top" xlink:title=" ">
<polygon fill="white" stroke="#666666" points="788,-266 719.5,-266 719.5,-246 788,-246 788,-266"/>
<text text-anchor="middle" x="753.75" y="-252.5" font-family="Helvetica,sans-Serif" font-size="10.00">Zone::isNull</text>
</a>
</g>
</g>
<!-- Node3&#45;&gt;Node5 -->
<g id="edge4_Node000003_Node000005" class="edge">
<title>Node3&#45;&gt;Node5</title>
<g id="a_edge4_Node000003_Node000005"><a xlink:title=" ">
<path fill="none" stroke="#63b8ff" d="M659.85,-267.82C675.78,-265.79 692.89,-263.61 708.03,-261.69"/>
<polygon fill="#63b8ff" stroke="#63b8ff" points="708.19,-265.2 717.67,-260.46 707.31,-258.25 708.19,-265.2"/>
</a>
</g>
</g>
<!-- Node7 -->
<g id="Node000007" class="node">
<title>Node7</title>
<g id="a_Node000007"><a xlink:href="fopencv_8cpp.html#a7521a083566181475d36ee14aad60f1d" target="_top" xlink:title=" ">
<polygon fill="white" stroke="#666666" points="812,-342 695.5,-342 695.5,-322 812,-322 812,-342"/>
<text text-anchor="middle" x="753.75" y="-328.5" font-family="Helvetica,sans-Serif" font-size="10.00">multipleMatchTemplate</text>
</a>
</g>
</g>
<!-- Node3&#45;&gt;Node7 -->
<g id="edge6_Node000003_Node000007" class="edge">
<title>Node3&#45;&gt;Node7</title>
<g id="a_edge6_Node000003_Node000007"><a xlink:title=" ">
<path fill="none" stroke="#63b8ff" d="M627.44,-285.47C645.92,-293.38 672.15,-304.32 695.5,-313 699.92,-314.64 704.55,-316.29 709.19,-317.9"/>
<polygon fill="#63b8ff" stroke="#63b8ff" points="707.89,-321.15 718.48,-321.06 710.14,-314.53 707.89,-321.15"/>
</a>
</g>
</g>
<!-- Node6 -->
<g id="Node000006" class="node">
<title>Node6</title>
<g id="a_Node000006"><a xlink:href="struct_coord.html#a34c573cd6230e5a532f12ae97e7395e2" target="_top" xlink:title=" ">
<polygon fill="white" stroke="#666666" points="921,-266 848,-266 848,-246 921,-246 921,-266"/>
<text text-anchor="middle" x="884.5" y="-252.5" font-family="Helvetica,sans-Serif" font-size="10.00">Coord::isNull</text>
</a>
</g>
</g>
<!-- Node5&#45;&gt;Node6 -->
<g id="edge5_Node000005_Node000006" class="edge">
<title>Node5&#45;&gt;Node6</title>
<g id="a_edge5_Node000005_Node000006"><a xlink:title=" ">
<path fill="none" stroke="#63b8ff" d="M788.24,-256C802.99,-256 820.57,-256 836.6,-256"/>
<polygon fill="#63b8ff" stroke="#63b8ff" points="836.41,-259.5 846.41,-256 836.41,-252.5 836.41,-259.5"/>
</a>
</g>
</g>
<!-- Node7&#45;&gt;Node8 -->
<g id="edge7_Node000007_Node000008" class="edge">
<title>Node7&#45;&gt;Node8</title>
<g id="a_edge7_Node000007_Node000008"><a xlink:title=" ">
<path fill="none" stroke="#63b8ff" d="M812.35,-340.5C822.93,-342.06 833.77,-343.66 843.69,-345.12"/>
<polygon fill="#63b8ff" stroke="#63b8ff" points="842.94,-348.55 853.34,-346.55 843.96,-341.63 842.94,-348.55"/>
</a>
</g>
</g>
<!-- Node8&#45;&gt;Node8 -->
<g id="edge8_Node000008_Node000008" class="edge">
<title>Node8&#45;&gt;Node8</title>
<g id="a_edge8_Node000008_Node000008"><a xlink:title=" ">
<path fill="none" stroke="#63b8ff" d="M867.66,-361.34C860.46,-369.98 866.07,-379 884.5,-379 894.58,-379 900.82,-376.3 903.23,-372.44"/>
<polygon fill="#63b8ff" stroke="#63b8ff" points="906.73,-372.1 901.6,-362.83 899.83,-373.28 906.73,-372.1"/>
</a>
</g>
</g>
<!-- Node11 -->
<g id="Node000011" class="node">
<title>Node11</title>
<g id="a_Node000011"><a xlink:href="struct_template.html#a93d3c6f97592ba09d7819fda3c3296d7" target="_top" xlink:title=" ">
<polygon fill="white" stroke="#666666" points="480.38,-48 384.12,-48 384.12,-28 480.38,-28 480.38,-48"/>
<text text-anchor="middle" x="432.25" y="-34.5" font-family="Helvetica,sans-Serif" font-size="10.00">Template::setType</text>
</a>
</g>
</g>
<!-- Node10&#45;&gt;Node11 -->
<g id="edge12_Node000010_Node000011" class="edge">
<title>Node10&#45;&gt;Node11</title>
<g id="a_edge12_Node000010_Node000011"><a xlink:title=" ">
<path fill="none" stroke="#63b8ff" d="M319.5,-44.42C336.7,-43.43 355.31,-42.36 372.31,-41.38"/>
<polygon fill="#63b8ff" stroke="#63b8ff" points="372.5,-44.88 382.28,-40.81 372.1,-37.89 372.5,-44.88"/>
</a>
</g>
</g>
<!-- Node13 -->
<g id="Node000013" class="node">
<title>Node13</title>
<g id="a_Node000013"><a xlink:href="fopencv_8cpp.html#a5c455ed716b7fa4c675446fc5b8ba4fb" target="_top" xlink:title=" ">
<polygon fill="white" stroke="#666666" points="463.12,-200 401.38,-200 401.38,-180 463.12,-180 463.12,-200"/>
<text text-anchor="middle" x="432.25" y="-186.5" font-family="Helvetica,sans-Serif" font-size="10.00">CreateMat</text>
</a>
</g>
</g>
<!-- Node12&#45;&gt;Node13 -->
<g id="edge14_Node000012_Node000013" class="edge">
<title>Node12&#45;&gt;Node13</title>
<g id="a_edge14_Node000012_Node000013"><a xlink:title=" ">
<path fill="none" stroke="#63b8ff" d="M281.42,-143.38C301.1,-151.55 329.65,-162.88 355.25,-171 366.43,-174.55 378.71,-177.86 390.07,-180.7"/>
<polygon fill="#63b8ff" stroke="#63b8ff" points="389.03,-184.05 399.58,-183.01 390.69,-177.24 389.03,-184.05"/>
</a>
</g>
</g>
<!-- Node14 -->
<g id="Node000014" class="node">
<title>Node14</title>
<g id="a_Node000014"><a xlink:href="class_interactions.html#aed04f9177d2aba467d71818a5e82c7bc" target="_top" xlink:title=" ">
<polygon fill="white" stroke="#666666" points="489.38,-124 375.12,-124 375.12,-104 489.38,-104 489.38,-124"/>
<text text-anchor="middle" x="432.25" y="-110.5" font-family="Helvetica,sans-Serif" font-size="10.00">Interactions::fcpopupA</text>
</a>
</g>
</g>
<!-- Node12&#45;&gt;Node14 -->
<g id="edge15_Node000012_Node000014" class="edge">
<title>Node12&#45;&gt;Node14</title>
<g id="a_edge15_Node000012_Node000014"><a xlink:title=" ">
<path fill="none" stroke="#63b8ff" d="M317.05,-126.46C332.09,-124.82 348.33,-123.05 363.71,-121.37"/>
<polygon fill="#63b8ff" stroke="#63b8ff" points="363.67,-124.9 373.23,-120.33 362.91,-117.94 363.67,-124.9"/>
</a>
</g>
</g>
<!-- Node19 -->
<g id="Node000019" class="node">
<title>Node19</title>
<g id="a_Node000019"><a xlink:href="fadb_8cpp.html#aeec40a5f78ae4713eedd84cb5f75746f" target="_top" xlink:title=" ">
<polygon fill="white" stroke="#666666" points="464.25,-162 400.25,-162 400.25,-142 464.25,-142 464.25,-162"/>
<text text-anchor="middle" x="432.25" y="-148.5" font-family="Helvetica,sans-Serif" font-size="10.00">screenshot</text>
</a>
</g>
</g>
<!-- Node12&#45;&gt;Node19 -->
<g id="edge24_Node000012_Node000019" class="edge">
<title>Node12&#45;&gt;Node19</title>
<g id="a_edge24_Node000012_Node000019"><a xlink:title=" ">
<path fill="none" stroke="#63b8ff" d="M317.05,-139.54C340.62,-142.11 367.14,-145.01 388.69,-147.36"/>
<polygon fill="#63b8ff" stroke="#63b8ff" points="388.28,-150.83 398.6,-148.44 389.04,-143.87 388.28,-150.83"/>
</a>
</g>
</g>
<!-- Node15 -->
<g id="Node000015" class="node">
<title>Node15</title>
<g id="a_Node000015"><a xlink:href="class_interactions.html#aae6172962092f278714536142e987cde" target="_top" xlink:title=" ">
<polygon fill="white" stroke="#666666" points="649,-68 555.75,-68 555.75,-48 649,-48 649,-68"/>
<text text-anchor="middle" x="602.38" y="-54.5" font-family="Helvetica,sans-Serif" font-size="10.00">Interactions::click</text>
</a>
</g>
</g>
<!-- Node14&#45;&gt;Node15 -->
<g id="edge16_Node000014_Node000015" class="edge">
<title>Node14&#45;&gt;Node15</title>
<g id="a_edge16_Node000014_Node000015"><a xlink:title=" ">
<path fill="none" stroke="#63b8ff" d="M479.35,-103.55C489.29,-101 499.68,-98.1 509.25,-95 528.94,-88.62 550.43,-80.08 567.69,-72.82"/>
<polygon fill="#63b8ff" stroke="#63b8ff" points="568.63,-76.23 576.45,-69.08 565.88,-69.79 568.63,-76.23"/>
</a>
</g>
</g>
<!-- Node16 -->
<g id="Node000016" class="node">
<title>Node16</title>
<g id="a_Node000016"><a xlink:href="fopencv_8cpp.html#a69713584f69a121e4ed91918a64448a0" target="_top" xlink:title=" ">
<polygon fill="white" stroke="#666666" points="642.62,-238 562.12,-238 562.12,-218 642.62,-218 642.62,-238"/>
<text text-anchor="middle" x="602.38" y="-224.5" font-family="Helvetica,sans-Serif" font-size="10.00">cvmtfTemplate</text>
</a>
</g>
</g>
<!-- Node14&#45;&gt;Node16 -->
<g id="edge18_Node000014_Node000016" class="edge">
<title>Node14&#45;&gt;Node16</title>
<g id="a_edge18_Node000014_Node000016"><a xlink:title=" ">
<path fill="none" stroke="#63b8ff" d="M489.48,-124.17C496.38,-126.53 503.14,-129.43 509.25,-133 529.34,-144.73 529.09,-154.27 545.25,-171 557.74,-183.93 571.94,-198.35 582.93,-209.45"/>
<polygon fill="#63b8ff" stroke="#63b8ff" points="580.38,-211.84 589.9,-216.48 585.35,-206.91 580.38,-211.84"/>
</a>
</g>
</g>
<!-- Node18 -->
<g id="Node000018" class="node">
<title>Node18</title>
<g id="a_Node000018"><a xlink:href="class_interactions.html#abd5b5d8a44970e1333e3611e302f166c" target="_top" xlink:title=" ">
<polygon fill="white" stroke="#666666" points="647.88,-124 556.88,-124 556.88,-104 647.88,-104 647.88,-124"/>
<text text-anchor="middle" x="602.38" y="-110.5" font-family="Helvetica,sans-Serif" font-size="10.00">Interactions::wait</text>
</a>
</g>
</g>
<!-- Node14&#45;&gt;Node18 -->
<g id="edge23_Node000014_Node000018" class="edge">
<title>Node14&#45;&gt;Node18</title>
<g id="a_edge23_Node000014_Node000018"><a xlink:title=" ">
<path fill="none" stroke="#63b8ff" d="M489.7,-114C507.54,-114 527.25,-114 545.08,-114"/>
<polygon fill="#63b8ff" stroke="#63b8ff" points="544.98,-117.5 554.98,-114 544.98,-110.5 544.98,-117.5"/>
</a>
</g>
</g>
<!-- Node15&#45;&gt;Node15 -->
<g id="edge17_Node000015_Node000015" class="edge">
<title>Node15&#45;&gt;Node15</title>
<g id="a_edge17_Node000015_Node000015"><a xlink:title=" ">
<path fill="none" stroke="#63b8ff" d="M578.32,-68.34C568.04,-76.98 576.06,-86 602.38,-86 616.77,-86 625.68,-83.3 629.13,-79.44"/>
<polygon fill="#63b8ff" stroke="#63b8ff" points="632.55,-78.7 626.78,-69.81 625.75,-80.35 632.55,-78.7"/>
</a>
</g>
</g>
<!-- Node16&#45;&gt;Node4 -->
<g id="edge19_Node000016_Node000004" class="edge">
<title>Node16&#45;&gt;Node4</title>
<g id="a_edge19_Node000016_Node000004"><a xlink:title=" ">
<path fill="none" stroke="#63b8ff" d="M624.49,-238.39C635.03,-243.62 647.97,-250.08 659.5,-256 675.6,-264.26 678.86,-267.9 695.5,-275 699.78,-276.83 704.3,-278.59 708.85,-280.26"/>
<polygon fill="#63b8ff" stroke="#63b8ff" points="707.38,-283.45 717.98,-283.46 709.7,-276.85 707.38,-283.45"/>
</a>
</g>
</g>
<!-- Node16&#45;&gt;Node5 -->
<g id="edge20_Node000016_Node000005" class="edge">
<title>Node16&#45;&gt;Node5</title>
<g id="a_edge20_Node000016_Node000005"><a xlink:title=" ">
<path fill="none" stroke="#63b8ff" d="M643.01,-235.43C662.99,-239.18 687.31,-243.73 707.96,-247.6"/>
<polygon fill="#63b8ff" stroke="#63b8ff" points="707.05,-250.99 717.52,-249.4 708.34,-244.11 707.05,-250.99"/>
</a>
</g>
</g>
<!-- Node16&#45;&gt;Node9 -->
<g id="edge21_Node000016_Node000009" class="edge">
<title>Node16&#45;&gt;Node9</title>
<g id="a_edge21_Node000016_Node000009"><a xlink:title=" ">
<path fill="none" stroke="#63b8ff" d="M635.79,-217.58C657.34,-210.66 685.9,-201.48 709.41,-193.93"/>
<polygon fill="#63b8ff" stroke="#63b8ff" points="710.25,-197.33 718.7,-190.94 708.11,-190.67 710.25,-197.33"/>
</a>
</g>
</g>
<!-- Node17 -->
<g id="Node000017" class="node">
<title>Node17</title>
<g id="a_Node000017"><a xlink:href="fopencv_8cpp.html#ae51fd1f3ed39bd8c9b8da4a313d5aeb3" target="_top" xlink:title=" ">
<polygon fill="white" stroke="#666666" points="803,-228 704.5,-228 704.5,-208 803,-208 803,-228"/>
<text text-anchor="middle" x="753.75" y="-214.5" font-family="Helvetica,sans-Serif" font-size="10.00">oneMatchTemplate</text>
</a>
</g>
</g>
<!-- Node16&#45;&gt;Node17 -->
<g id="edge22_Node000016_Node000017" class="edge">
<title>Node16&#45;&gt;Node17</title>
<g id="a_edge22_Node000016_Node000017"><a xlink:title=" ">
<path fill="none" stroke="#63b8ff" d="M643.01,-225.35C658.25,-224.33 676.01,-223.14 692.74,-222.02"/>
<polygon fill="#63b8ff" stroke="#63b8ff" points="692.87,-225.52 702.61,-221.36 692.4,-218.53 692.87,-225.52"/>
</a>
</g>
</g>
<!-- Node20 -->
<g id="Node000020" class="node">
<title>Node20</title>
<g id="a_Node000020"><a xlink:href="fadb_8cpp.html#a7ab9819839864ebd26d0e7e68e330418" target="_top" xlink:title=" ">
<polygon fill="white" stroke="#666666" points="644.5,-162 560.25,-162 560.25,-142 644.5,-142 644.5,-162"/>
<text text-anchor="middle" x="602.38" y="-148.5" font-family="Helvetica,sans-Serif" font-size="10.00">takeScreenshot</text>
</a>
</g>
</g>
<!-- Node19&#45;&gt;Node20 -->
<g id="edge25_Node000019_Node000020" class="edge">
<title>Node19&#45;&gt;Node20</title>
<g id="a_edge25_Node000019_Node000020"><a xlink:title=" ">
<path fill="none" stroke="#63b8ff" d="M464.48,-152C487.99,-152 520.78,-152 548.38,-152"/>
<polygon fill="#63b8ff" stroke="#63b8ff" points="548.33,-155.5 558.33,-152 548.33,-148.5 548.33,-155.5"/>
</a>
</g>
</g>
<!-- Node21 -->
<g id="Node000021" class="node">
<title>Node21</title>
<g id="a_Node000021"><a xlink:href="fadb_8cpp.html#ac6339b59ba8238f7483dece7f3fdf51b" target="_top" xlink:title=" ">
<polygon fill="white" stroke="#666666" points="798.12,-152 709.38,-152 709.38,-132 798.12,-132 798.12,-152"/>
<text text-anchor="middle" x="753.75" y="-138.5" font-family="Helvetica,sans-Serif" font-size="10.00">runAdbLocalhost</text>
</a>
</g>
</g>
<!-- Node20&#45;&gt;Node21 -->
<g id="edge26_Node000020_Node000021" class="edge">
<title>Node20&#45;&gt;Node21</title>
<g id="a_edge26_Node000020_Node000021"><a xlink:title=" ">
<path fill="none" stroke="#63b8ff" d="M644.98,-149.21C661.34,-148.12 680.35,-146.85 697.81,-145.68"/>
<polygon fill="#63b8ff" stroke="#63b8ff" points="697.76,-149.19 707.51,-145.03 697.3,-142.2 697.76,-149.19"/>
</a>
</g>
</g>
<!-- Node22 -->
<g id="Node000022" class="node">
<title>Node22</title>
<g id="a_Node000022"><a xlink:href="fadb_8cpp.html#a383ae5fedc9f597a03c74c729a2eb740" target="_top" xlink:title=" ">
<polygon fill="white" stroke="#666666" points="907.88,-152 861.12,-152 861.12,-132 907.88,-132 907.88,-152"/>
<text text-anchor="middle" x="884.5" y="-138.5" font-family="Helvetica,sans-Serif" font-size="10.00">runAdb</text>
</a>
</g>
</g>
<!-- Node21&#45;&gt;Node22 -->
<g id="edge27_Node000021_Node000022" class="edge">
<title>Node21&#45;&gt;Node22</title>
<g id="a_edge27_Node000021_Node000022"><a xlink:title=" ">
<path fill="none" stroke="#63b8ff" d="M798.34,-142C815.08,-142 833.93,-142 849.62,-142"/>
<polygon fill="#63b8ff" stroke="#63b8ff" points="849.41,-145.5 859.41,-142 849.41,-138.5 849.41,-145.5"/>
</a>
</g>
</g>
<!-- Node23 -->
<g id="Node000023" class="node">
<title>Node23</title>
<g id="a_Node000023"><a xlink:href="sys_commands_8cpp.html#a321eb7e335377aa7182bafc8a1605032" target="_top" xlink:title=" ">
<polygon fill="white" stroke="#666666" points="1024,-152 957,-152 957,-132 1024,-132 1024,-152"/>
<text text-anchor="middle" x="990.5" y="-138.5" font-family="Helvetica,sans-Serif" font-size="10.00">receivePipe</text>
</a>
</g>
</g>
<!-- Node22&#45;&gt;Node23 -->
<g id="edge28_Node000022_Node000023" class="edge">
<title>Node22&#45;&gt;Node23</title>
<g id="a_edge28_Node000022_Node000023"><a xlink:title=" ">
<path fill="none" stroke="#63b8ff" d="M908.32,-142C919.22,-142 932.64,-142 945.41,-142"/>
<polygon fill="#63b8ff" stroke="#63b8ff" points="945.35,-145.5 955.35,-142 945.35,-138.5 945.35,-145.5"/>
</a>
</g>
</g>
<!-- Node24 -->
<g id="Node000024" class="node">
<title>Node24</title>
<g id="a_Node000024"><a xlink:href="sys_commands_8cpp.html#a4771c79171a937893508dabadadbe099" target="_top" xlink:title=" ">
<polygon fill="white" stroke="#666666" points="1118.75,-171 1060,-171 1060,-151 1118.75,-151 1118.75,-171"/>
<text text-anchor="middle" x="1089.38" y="-157.5" font-family="Helvetica,sans-Serif" font-size="10.00">closePipe</text>
</a>
</g>
</g>
<!-- Node23&#45;&gt;Node24 -->
<g id="edge29_Node000023_Node000024" class="edge">
<title>Node23&#45;&gt;Node24</title>
<g id="a_edge29_Node000023_Node000024"><a xlink:title=" ">
<path fill="none" stroke="#63b8ff" d="M1024.3,-148.43C1032.06,-149.95 1040.42,-151.59 1048.46,-153.17"/>
<polygon fill="#63b8ff" stroke="#63b8ff" points="1047.53,-156.56 1058.02,-155.05 1048.88,-149.69 1047.53,-156.56"/>
</a>
</g>
</g>
<!-- Node25 -->
<g id="Node000025" class="node">
<title>Node25</title>
<g id="a_Node000025"><a xlink:href="sys_commands_8cpp.html#a3499ce0cd7e4ed28b3c5461a4d3aec84" target="_top" xlink:title=" ">
<polygon fill="white" stroke="#666666" points="1117.62,-133 1061.12,-133 1061.12,-113 1117.62,-113 1117.62,-133"/>
<text text-anchor="middle" x="1089.38" y="-119.5" font-family="Helvetica,sans-Serif" font-size="10.00">openPipe</text>
</a>
</g>
</g>
<!-- Node23&#45;&gt;Node25 -->
<g id="edge30_Node000023_Node000025" class="edge">
<title>Node23&#45;&gt;Node25</title>
<g id="a_edge30_Node000023_Node000025"><a xlink:title=" ">
<path fill="none" stroke="#63b8ff" d="M1024.3,-135.57C1032.45,-133.97 1041.26,-132.24 1049.67,-130.59"/>
<polygon fill="#63b8ff" stroke="#63b8ff" points="1050.15,-134.06 1059.29,-128.7 1048.8,-127.19 1050.15,-134.06"/>
</a>
</g>
</g>
<!-- Node27&#45;&gt;Node15 -->
<g id="edge33_Node000027_Node000015" class="edge">
<title>Node27&#45;&gt;Node15</title>
<g id="a_edge33_Node000027_Node000015"><a xlink:title=" ">
<path fill="none" stroke="#63b8ff" d="M501.15,-68.73C515.39,-67.21 530.27,-65.61 544.08,-64.13"/>
<polygon fill="#63b8ff" stroke="#63b8ff" points="544.31,-67.63 553.88,-63.08 543.56,-60.67 544.31,-67.63"/>
</a>
</g>
</g>
<!-- Node27&#45;&gt;Node18 -->
<g id="edge34_Node000027_Node000018" class="edge">
<title>Node27&#45;&gt;Node18</title>
<g id="a_edge34_Node000027_Node000018"><a xlink:title=" ">
<path fill="none" stroke="#63b8ff" d="M479.64,-86.48C499.99,-91.08 524.05,-96.52 545.39,-101.35"/>
<polygon fill="#63b8ff" stroke="#63b8ff" points="544.59,-104.75 555.11,-103.54 546.13,-97.93 544.59,-104.75"/>
</a>
</g>
</g>
</g>
</svg>

<g id="navigator" transform="translate(0 0)" fill="#404254">
  <rect fill="#f2f5e9" fill-opacity="0.5" stroke="#606060" stroke-width=".5" x="0" y="0" width="60" height="60"/>
  <use id="zoomplus" xlink:href="#zoomPlus" x="17" y="9" onmousedown="handleZoom(evt,'in')"/>
  <use id="zoomminus" xlink:href="#zoomMin" x="42" y="9" onmousedown="handleZoom(evt,'out')"/>
  <use id="reset" xlink:href="#resetDef" x="30" y="36" onmousedown="handleReset()"/>
   <use id="arrowup" xlink:href="#arrowUp" x="0" y="0" onmousedown="handlePan(0,-1)"/>
  <use id="arrowright" xlink:href="#arrowRight" x="0" y="0" onmousedown="handlePan(1,0)"/>
  <use id="arrowdown" xlink:href="#arrowDown" x="0" y="0" onmousedown="handlePan(0,1)"/>
  <use id="arrowleft" xlink:href="#arrowLeft" x="0" y="0" onmousedown="handlePan(-1,0)"/>
</g>
<svg viewBox="0 0 15 15" width="100%" height="30px" preserveAspectRatio="xMaxYMin meet">
 <g id="arrow_out" transform="scale(0.3 0.3)">
  <a xlink:href="class_interactions_a136e4508ae7f2b36eea44465ffa0002d_cgraph_org.svg" target="_base">
   <rect id="button" ry="5" rx="5" y="6" x="6" height="38" width="38"
        fill="#f2f5e9" fill-opacity="0.5" stroke="#606060" stroke-width="1.0"/>
   <path id="arrow"
     d="M 11.500037,31.436501 C 11.940474,20.09759 22.043105,11.32322 32.158766,21.979434 L 37.068811,17.246167 C 37.068811,17.246167 37.088388,32 37.088388,32 L 22.160133,31.978069 C 22.160133,31.978069 26.997745,27.140456 26.997745,27.140456 C 18.528582,18.264221 13.291696,25.230495 11.500037,31.436501 z"
     style="fill:#404040;"/>
  </a>
 </g>
</svg>

<style type='text/css'>
<![CDATA[
[data-mouse-over-selected='false'] { opacity: 0.7; }
[data-mouse-over-selected='true']  { opacity: 1.0; }
]]>
</style>
<script type="application/ecmascript"><![CDATA[
document.addEventListener('DOMContentLoaded', (event) => {
  highlightEdges();
  highlightAdjacentNodes();
});
]]></script>
</svg>
