<?xml version="1.0" encoding="UTF-8" standalone="no"?>
<!DOCTYPE svg PUBLIC "-//W3C//DTD SVG 1.1//EN"
 "http://www.w3.org/Graphics/SVG/1.1/DTD/svg11.dtd">
<!-- Generated by graphviz version 12.2.0 (20241103.1931)
 -->
<!-- Title: FlowTagPanel::switchFlowTagVisibility Pages: 1 -->
<svg width="692pt" height="134pt"
 viewBox="0.00 0.00 692.25 134.00" xmlns="http://www.w3.org/2000/svg" xmlns:xlink="http://www.w3.org/1999/xlink">
<g id="graph0" class="graph" transform="scale(1 1) rotate(0) translate(4 130)">
<title>FlowTagPanel::switchFlowTagVisibility</title>
<!-- Node1 -->
<g id="Node000001" class="node">
<title>Node1</title>
<g id="a_Node000001"><a xlink:title=" ">
<polygon fill="#999999" stroke="#666666" points="133,-88 0,-88 0,-56 133,-56 133,-88"/>
<text text-anchor="start" x="8" y="-74.5" font-family="Helvetica,sans-Serif" font-size="10.00">FlowTagPanel::switchFlow</text>
<text text-anchor="middle" x="66.5" y="-62.5" font-family="Helvetica,sans-Serif" font-size="10.00">TagVisibility</text>
</a>
</g>
</g>
<!-- Node2 -->
<g id="Node000002" class="node">
<title>Node2</title>
<g id="a_Node000002"><a xlink:href="class_flow_tag_panel.html#a38a7e2167532623906ae82c0b92728c2" target="_top" xlink:title=" ">
<polygon fill="white" stroke="#666666" points="315.5,-126 169,-126 169,-106 315.5,-106 315.5,-126"/>
<text text-anchor="middle" x="242.25" y="-112.5" font-family="Helvetica,sans-Serif" font-size="10.00">FlowTagPanel::childrenVisible</text>
</a>
</g>
</g>
<!-- Node1&#45;&gt;Node2 -->
<g id="edge1_Node000001_Node000002" class="edge">
<title>Node1&#45;&gt;Node2</title>
<g id="a_edge1_Node000001_Node000002"><a xlink:title=" ">
<path fill="none" stroke="#63b8ff" d="M132.2,-88.38C150.89,-93.12 171.04,-98.22 188.88,-102.74"/>
<polygon fill="#63b8ff" stroke="#63b8ff" points="187.92,-106.11 198.47,-105.17 189.64,-99.32 187.92,-106.11"/>
</a>
</g>
</g>
<!-- Node3 -->
<g id="Node000003" class="node">
<title>Node3</title>
<g id="a_Node000003"><a xlink:href="class_flow_tag_panel.html#ae4f118933196a60a71cfa6b4b9b69894" target="_top" xlink:title=" ">
<polygon fill="white" stroke="#666666" points="308.75,-88 175.75,-88 175.75,-56 308.75,-56 308.75,-88"/>
<text text-anchor="start" x="183.75" y="-74.5" font-family="Helvetica,sans-Serif" font-size="10.00">FlowTagPanel::setChildren</text>
<text text-anchor="middle" x="242.25" y="-62.5" font-family="Helvetica,sans-Serif" font-size="10.00">Visibility</text>
</a>
</g>
</g>
<!-- Node1&#45;&gt;Node3 -->
<g id="edge2_Node000001_Node000003" class="edge">
<title>Node1&#45;&gt;Node3</title>
<g id="a_edge2_Node000001_Node000003"><a xlink:title=" ">
<path fill="none" stroke="#63b8ff" d="M133.19,-72C143.24,-72 153.7,-72 163.98,-72"/>
<polygon fill="#63b8ff" stroke="#63b8ff" points="163.96,-75.5 173.96,-72 163.96,-68.5 163.96,-75.5"/>
</a>
</g>
</g>
<!-- Node8 -->
<g id="Node000008" class="node">
<title>Node8</title>
<g id="a_Node000008"><a xlink:href="class_flow_tag_panel.html#a482b23630874fb9f414c9b029501aadd" target="_top" xlink:title=" ">
<polygon fill="white" stroke="#666666" points="313.25,-20 171.25,-20 171.25,0 313.25,0 313.25,-20"/>
<text text-anchor="middle" x="242.25" y="-6.5" font-family="Helvetica,sans-Serif" font-size="10.00">FlowTagPanel::updateLayout</text>
</a>
</g>
</g>
<!-- Node1&#45;&gt;Node8 -->
<g id="edge8_Node000001_Node000008" class="edge">
<title>Node1&#45;&gt;Node8</title>
<g id="a_edge8_Node000001_Node000008"><a xlink:title=" ">
<path fill="none" stroke="#63b8ff" d="M113.61,-55.55C140.88,-45.82 175.08,-33.61 201.21,-24.29"/>
<polygon fill="#63b8ff" stroke="#63b8ff" points="202.21,-27.65 210.45,-20.99 199.86,-21.05 202.21,-27.65"/>
</a>
</g>
</g>
<!-- Node4 -->
<g id="Node000004" class="node">
<title>Node4</title>
<g id="a_Node000004"><a xlink:href="class_flow_tag_panel.html#a1822bbc91daca9379e090f363e870d40" target="_top" xlink:title=" ">
<polygon fill="white" stroke="#666666" points="491.62,-70 354.12,-70 354.12,-50 491.62,-50 491.62,-70"/>
<text text-anchor="middle" x="422.88" y="-56.5" font-family="Helvetica,sans-Serif" font-size="10.00">FlowTagPanel::hideChildren</text>
</a>
</g>
</g>
<!-- Node3&#45;&gt;Node4 -->
<g id="edge3_Node000003_Node000004" class="edge">
<title>Node3&#45;&gt;Node4</title>
<g id="a_edge3_Node000003_Node000004"><a xlink:title=" ">
<path fill="none" stroke="#63b8ff" d="M309,-67.58C319.97,-66.85 331.45,-66.07 342.71,-65.32"/>
<polygon fill="#63b8ff" stroke="#63b8ff" points="342.61,-68.83 352.36,-64.67 342.15,-61.85 342.61,-68.83"/>
</a>
</g>
</g>
<!-- Node7 -->
<g id="Node000007" class="node">
<title>Node7</title>
<g id="a_Node000007"><a xlink:href="class_flow_tag_panel.html#a4c02b86a1776b70cdd14afd50de4736b" target="_top" xlink:title=" ">
<polygon fill="white" stroke="#666666" points="494.25,-108 351.5,-108 351.5,-88 494.25,-88 494.25,-108"/>
<text text-anchor="middle" x="422.88" y="-94.5" font-family="Helvetica,sans-Serif" font-size="10.00">FlowTagPanel::showChildren</text>
</a>
</g>
</g>
<!-- Node3&#45;&gt;Node7 -->
<g id="edge6_Node000003_Node000007" class="edge">
<title>Node3&#45;&gt;Node7</title>
<g id="a_edge6_Node000003_Node000007"><a xlink:title=" ">
<path fill="none" stroke="#63b8ff" d="M309,-81.57C319.08,-83.04 329.6,-84.57 339.97,-86.08"/>
<polygon fill="#63b8ff" stroke="#63b8ff" points="339.26,-89.51 349.66,-87.49 340.27,-82.58 339.26,-89.51"/>
</a>
</g>
</g>
<!-- Node5 -->
<g id="Node000005" class="node">
<title>Node5</title>
<g id="a_Node000005"><a xlink:href="class_flow_tag_panel.html#a908b8a9b0319c8c60588dff9296e9baf" target="_top" xlink:title=" ">
<polygon fill="white" stroke="#666666" points="684.25,-108 530.25,-108 530.25,-88 684.25,-88 684.25,-108"/>
<text text-anchor="middle" x="607.25" y="-94.5" font-family="Helvetica,sans-Serif" font-size="10.00">FlowTagPanel::getChildrenTags</text>
</a>
</g>
</g>
<!-- Node4&#45;&gt;Node5 -->
<g id="edge4_Node000004_Node000005" class="edge">
<title>Node4&#45;&gt;Node5</title>
<g id="a_edge4_Node000004_Node000005"><a xlink:title=" ">
<path fill="none" stroke="#63b8ff" d="M474.19,-70.48C496.12,-75.05 522.02,-80.45 545.05,-85.25"/>
<polygon fill="#63b8ff" stroke="#63b8ff" points="544.11,-88.63 554.61,-87.24 545.54,-81.77 544.11,-88.63"/>
</a>
</g>
</g>
<!-- Node6 -->
<g id="Node000006" class="node">
<title>Node6</title>
<g id="a_Node000006"><a xlink:href="class_tag_panel.html#a975da9b33d0c94992472b291df4aadbe" target="_top" xlink:title=" ">
<polygon fill="white" stroke="#666666" points="662.5,-70 552,-70 552,-50 662.5,-50 662.5,-70"/>
<text text-anchor="middle" x="607.25" y="-56.5" font-family="Helvetica,sans-Serif" font-size="10.00">TagPanel::getIndexOf</text>
</a>
</g>
</g>
<!-- Node4&#45;&gt;Node6 -->
<g id="edge5_Node000004_Node000006" class="edge">
<title>Node4&#45;&gt;Node6</title>
<g id="a_edge5_Node000004_Node000006"><a xlink:title=" ">
<path fill="none" stroke="#63b8ff" d="M492.04,-60C507.84,-60 524.62,-60 540.31,-60"/>
<polygon fill="#63b8ff" stroke="#63b8ff" points="540.01,-63.5 550.01,-60 540.01,-56.5 540.01,-63.5"/>
</a>
</g>
</g>
<!-- Node7&#45;&gt;Node5 -->
<g id="edge7_Node000007_Node000005" class="edge">
<title>Node7&#45;&gt;Node5</title>
<g id="a_edge7_Node000007_Node000005"><a xlink:title=" ">
<path fill="none" stroke="#63b8ff" d="M494.65,-98C502.47,-98 510.51,-98 518.51,-98"/>
<polygon fill="#63b8ff" stroke="#63b8ff" points="518.26,-101.5 528.26,-98 518.26,-94.5 518.26,-101.5"/>
</a>
</g>
</g>
<!-- Node8&#45;&gt;Node8 -->
<g id="edge11_Node000008_Node000008" class="edge">
<title>Node8&#45;&gt;Node8</title>
<g id="a_edge11_Node000008_Node000008"><a xlink:title=" ">
<path fill="none" stroke="#63b8ff" d="M214.33,-20.34C202.39,-28.98 211.7,-38 242.25,-38 259.43,-38 269.9,-35.14 273.64,-31.11"/>
<polygon fill="#63b8ff" stroke="#63b8ff" points="277.03,-30.23 270.64,-21.78 270.37,-32.37 277.03,-30.23"/>
</a>
</g>
</g>
<!-- Node9 -->
<g id="Node000009" class="node">
<title>Node9</title>
<g id="a_Node000009"><a xlink:href="_tag_panel_8cpp.html#a2f4c4fdbb29d8e8fadcbbd9673b3c370" target="_top" xlink:title=" ">
<polygon fill="white" stroke="#666666" points="460.88,-20 384.88,-20 384.88,0 460.88,0 460.88,-20"/>
<text text-anchor="middle" x="422.88" y="-6.5" font-family="Helvetica,sans-Serif" font-size="10.00">GetParentTag</text>
</a>
</g>
</g>
<!-- Node8&#45;&gt;Node9 -->
<g id="edge9_Node000008_Node000009" class="edge">
<title>Node8&#45;&gt;Node9</title>
<g id="a_edge9_Node000008_Node000009"><a xlink:title=" ">
<path fill="none" stroke="#63b8ff" d="M313.59,-10C333.55,-10 354.83,-10 373.19,-10"/>
<polygon fill="#63b8ff" stroke="#63b8ff" points="372.99,-13.5 382.99,-10 372.99,-6.5 372.99,-13.5"/>
</a>
</g>
</g>
<!-- Node10 -->
<g id="Node000010" class="node">
<title>Node10</title>
<g id="a_Node000010"><a xlink:href="class_tag_panel.html#af3b5b6fc2b16171af7cab7b0d79d9ed7" target="_top" xlink:title=" ">
<polygon fill="white" stroke="#666666" points="667.38,-20 547.12,-20 547.12,0 667.38,0 667.38,-20"/>
<text text-anchor="middle" x="607.25" y="-6.5" font-family="Helvetica,sans-Serif" font-size="10.00">TagPanel::getParentTag</text>
</a>
</g>
</g>
<!-- Node9&#45;&gt;Node10 -->
<g id="edge10_Node000009_Node000010" class="edge">
<title>Node9&#45;&gt;Node10</title>
<g id="a_edge10_Node000009_Node000010"><a xlink:title=" ">
<path fill="none" stroke="#63b8ff" d="M461.22,-10C482.55,-10 510,-10 535.27,-10"/>
<polygon fill="#63b8ff" stroke="#63b8ff" points="535.18,-13.5 545.18,-10 535.18,-6.5 535.18,-13.5"/>
</a>
</g>
</g>
</g>
</svg>
