<?xml version="1.0" encoding="UTF-8" standalone="no"?>
<!DOCTYPE svg PUBLIC "-//W3C//DTD SVG 1.1//EN"
 "http://www.w3.org/Graphics/SVG/1.1/DTD/svg11.dtd">
<!-- Generated by graphviz version 12.2.0 (20241103.1931)
 -->
<!-- Title: LDPlayer::hasGame Pages: 1 -->
<!--zoomable 90 -->

<svg id="main" version="1.1" xmlns="http://www.w3.org/2000/svg" xmlns:xlink="http://www.w3.org/1999/xlink" xml:space="preserve" onload="init(evt)">

<style type="text/css"><![CDATA[
.node, .edge {opacity: 0.7;}
.node.selected, .edge.selected {opacity: 1;}
.edge:hover path { stroke: red; }
.edge:hover polygon { stroke: red; fill: red; }
]]></style>

<defs>
  <circle id="rim" cx="0" cy="0" r="7"/>
  <circle id="rim2" cx="0" cy="0" r="3.5"/>
  <g id="zoomPlus">
    <use xlink:href="#rim" fill="#404040"><set attributeName="fill" to="#808080" begin="zoomplus.mouseover" end="zoomplus.mouseout"/></use>
    <path d="M-4,0h8M0,-4v8" fill="none" stroke="white" stroke-width="1.5" pointer-events="none"/>
  </g>
  <g id="zoomMin">
    <use xlink:href="#rim" fill="#404040"><set attributeName="fill" to="#808080" begin="zoomminus.mouseover" end="zoomminus.mouseout"/></use>
    <path d="M-4,0h8" fill="none" stroke="white" stroke-width="1.5" pointer-events="none"/>
  </g>
  <g id="arrowUp" transform="translate(30 24)">
    <use xlink:href="#rim"/>
    <path pointer-events="none" fill="none" stroke="white" stroke-width="1.5" d="M0,-3.0v7 M-2.5,-0.5L0,-3.0L2.5,-0.5"/>
  </g>
  <g id="arrowRight" transform="rotate(90) translate(36 -43)">
    <use xlink:href="#rim"/>
    <path pointer-events="none" fill="none" stroke="white" stroke-width="1.5" d="M0,-3.0v7 M-2.5,-0.5L0,-3.0L2.5,-0.5"/>
  </g>
  <g id="arrowDown" transform="rotate(180) translate(-30 -48)">
    <use xlink:href="#rim"/>
    <path pointer-events="none" fill="none" stroke="white" stroke-width="1.5" d="M0,-3.0v7 M-2.5,-0.5L0,-3.0L2.5,-0.5"/>
  </g>
  <g id="arrowLeft" transform="rotate(270) translate(-36 17)">
    <use xlink:href="#rim"/>
    <path pointer-events="none" fill="none" stroke="white" stroke-width="1.5" d="M0,-3.0v7 M-2.5,-0.5L0,-3.0L2.5,-0.5"/>
  </g>
  <g id="resetDef">
    <use xlink:href="#rim2" fill="#404040"><set attributeName="fill" to="#808080" begin="reset.mouseover" end="reset.mouseout"/></use>
  </g>
</defs>
<script type="application/ecmascript">
var viewWidth = 1310;
var viewHeight = 90;
var sectionId = 'dynsection-12';
</script>
<script type="application/ecmascript" xlink:href="svg.min.js"/>
<svg id="graph" class="graph">
<g id="viewport">
<title>LDPlayer::hasGame</title>
<!-- Node1 -->
<g id="Node000001" class="node">
<title>Node1</title>
<g id="a_Node000001"><a xlink:title=" ">
<polygon fill="#999999" stroke="#666666" points="1302,-51 1197.5,-51 1197.5,-31 1302,-31 1302,-51"/>
<text text-anchor="middle" x="1249.75" y="-37.5" font-family="Helvetica,sans-Serif" font-size="10.00">LDPlayer::hasGame</text>
</a>
</g>
</g>
<!-- Node2 -->
<g id="Node000002" class="node">
<title>Node2</title>
<g id="a_Node000002"><a xlink:href="class_l_d_player.html#ae531fb07962ccef1e326f231c520ae28" target="_top" xlink:title=" ">
<polygon fill="white" stroke="#666666" points="1161.5,-80 1032.25,-80 1032.25,-48 1161.5,-48 1161.5,-80"/>
<text text-anchor="start" x="1040.25" y="-66.5" font-family="Helvetica,sans-Serif" font-size="10.00">LDPlayer::searchInstance</text>
<text text-anchor="middle" x="1096.88" y="-54.5" font-family="Helvetica,sans-Serif" font-size="10.00">Config</text>
</a>
</g>
</g>
<!-- Node1&#45;&gt;Node2 -->
<g id="edge1_Node000001_Node000002" class="edge">
<title>Node1&#45;&gt;Node2</title>
<g id="a_edge1_Node000001_Node000002"><a xlink:title=" ">
<path fill="none" stroke="#63b8ff" d="M1186.13,-50.55C1178.14,-51.76 1169.96,-53.01 1161.95,-54.23"/>
<polygon fill="#63b8ff" stroke="#63b8ff" points="1186.39,-54.05 1195.75,-49.08 1185.34,-47.13 1186.39,-54.05"/>
</a>
</g>
</g>
<!-- Node10 -->
<g id="Node000010" class="node">
<title>Node10</title>
<g id="a_Node000010"><a xlink:href="class_l_d_player.html#a06ec722fa75c1be28d1ebb785050771e" target="_top" xlink:title=" ">
<polygon fill="white" stroke="#666666" points="988,-32 858.75,-32 858.75,0 988,0 988,-32"/>
<text text-anchor="start" x="866.75" y="-18.5" font-family="Helvetica,sans-Serif" font-size="10.00">LDPlayer::setListPlayable</text>
<text text-anchor="middle" x="923.38" y="-6.5" font-family="Helvetica,sans-Serif" font-size="10.00">Instances</text>
</a>
</g>
</g>
<!-- Node1&#45;&gt;Node10 -->
<g id="edge9_Node000001_Node000010" class="edge">
<title>Node1&#45;&gt;Node10</title>
<g id="a_edge9_Node000001_Node000010"><a xlink:title=" ">
<path fill="none" stroke="#63b8ff" d="M1185.99,-36.16C1129.1,-31.78 1045.63,-25.35 988.36,-20.93"/>
<polygon fill="#63b8ff" stroke="#63b8ff" points="1185.6,-39.64 1195.84,-36.92 1186.14,-32.66 1185.6,-39.64"/>
</a>
</g>
</g>
<!-- Node3 -->
<g id="Node000003" class="node">
<title>Node3</title>
<g id="a_Node000003"><a xlink:href="class_l_d_player.html#a0f72cc2becd0739ee469eca4088c4f2a" target="_top" xlink:title=" ">
<polygon fill="white" stroke="#666666" points="996.25,-82 850.5,-82 850.5,-50 996.25,-50 996.25,-82"/>
<text text-anchor="start" x="858.5" y="-68.5" font-family="Helvetica,sans-Serif" font-size="10.00">LDPlayer::searchAllInstances</text>
<text text-anchor="middle" x="923.38" y="-56.5" font-family="Helvetica,sans-Serif" font-size="10.00">Config</text>
</a>
</g>
</g>
<!-- Node2&#45;&gt;Node3 -->
<g id="edge2_Node000002_Node000003" class="edge">
<title>Node2&#45;&gt;Node3</title>
<g id="a_edge2_Node000002_Node000003"><a xlink:title=" ">
<path fill="none" stroke="#63b8ff" d="M1020.52,-64.88C1012.6,-64.97 1004.55,-65.07 996.66,-65.16"/>
<polygon fill="#63b8ff" stroke="#63b8ff" points="1020.54,-68.38 1030.5,-64.76 1020.46,-61.38 1020.54,-68.38"/>
</a>
</g>
</g>
<!-- Node4 -->
<g id="Node000004" class="node">
<title>Node4</title>
<g id="a_Node000004"><a xlink:href="class_l_d_player.html#a5a7ed2dad62f72bc13993da3d50f385e" target="_top" xlink:title=" ">
<polygon fill="white" stroke="#666666" points="814.5,-51 696.5,-51 696.5,-31 814.5,-31 814.5,-51"/>
<text text-anchor="middle" x="755.5" y="-37.5" font-family="Helvetica,sans-Serif" font-size="10.00">LDPlayer::initInstances</text>
</a>
</g>
</g>
<!-- Node3&#45;&gt;Node4 -->
<g id="edge3_Node000003_Node000004" class="edge">
<title>Node3&#45;&gt;Node4</title>
<g id="a_edge3_Node000003_Node000004"><a xlink:title=" ">
<path fill="none" stroke="#63b8ff" d="M838.72,-53.39C830.65,-52.18 822.59,-50.96 814.84,-49.79"/>
<polygon fill="#63b8ff" stroke="#63b8ff" points="838.2,-56.85 848.61,-54.88 839.24,-49.93 838.2,-56.85"/>
</a>
</g>
</g>
<!-- Node5 -->
<g id="Node000005" class="node">
<title>Node5</title>
<g id="a_Node000005"><a xlink:href="class_l_d_player.html#aa4d08272c0957b3f9ccd69bee91d39ac" target="_top" xlink:title=" ">
<polygon fill="white" stroke="#666666" points="660.5,-51 585.25,-51 585.25,-31 660.5,-31 660.5,-51"/>
<text text-anchor="middle" x="622.88" y="-37.5" font-family="Helvetica,sans-Serif" font-size="10.00">LDPlayer::init</text>
</a>
</g>
</g>
<!-- Node4&#45;&gt;Node5 -->
<g id="edge4_Node000004_Node000005" class="edge">
<title>Node4&#45;&gt;Node5</title>
<g id="a_edge4_Node000004_Node000005"><a xlink:title=" ">
<path fill="none" stroke="#63b8ff" d="M684.81,-41C676.57,-41 668.42,-41 660.89,-41"/>
<polygon fill="#63b8ff" stroke="#63b8ff" points="684.55,-44.5 694.55,-41 684.55,-37.5 684.55,-44.5"/>
</a>
</g>
</g>
<!-- Node6 -->
<g id="Node000006" class="node">
<title>Node6</title>
<g id="a_Node000006"><a xlink:href="class_bot_config.html#ac91f46c5dca7953454d5a2340dfd7f5c" target="_top" xlink:title=" ">
<polygon fill="white" stroke="#666666" points="549.25,-51 432.75,-51 432.75,-31 549.25,-31 549.25,-51"/>
<text text-anchor="middle" x="491" y="-37.5" font-family="Helvetica,sans-Serif" font-size="10.00">BotConfig::initLdPlayer</text>
</a>
</g>
</g>
<!-- Node5&#45;&gt;Node6 -->
<g id="edge5_Node000005_Node000006" class="edge">
<title>Node5&#45;&gt;Node6</title>
<g id="a_edge5_Node000005_Node000006"><a xlink:title=" ">
<path fill="none" stroke="#63b8ff" d="M573.7,-41C565.77,-41 557.48,-41 549.35,-41"/>
<polygon fill="#63b8ff" stroke="#63b8ff" points="573.49,-44.5 583.49,-41 573.49,-37.5 573.49,-44.5"/>
</a>
</g>
</g>
<!-- Node7 -->
<g id="Node000007" class="node">
<title>Node7</title>
<g id="a_Node000007"><a xlink:href="class_bot_config.html#af8c906f3cd22726a96e758886c756068" target="_top" xlink:title=" ">
<polygon fill="white" stroke="#666666" points="396.75,-51 274.25,-51 274.25,-31 396.75,-31 396.75,-51"/>
<text text-anchor="middle" x="335.5" y="-37.5" font-family="Helvetica,sans-Serif" font-size="10.00">BotConfig::initEmulators</text>
</a>
</g>
</g>
<!-- Node6&#45;&gt;Node7 -->
<g id="edge6_Node000006_Node000007" class="edge">
<title>Node6&#45;&gt;Node7</title>
<g id="a_edge6_Node000006_Node000007"><a xlink:title=" ">
<path fill="none" stroke="#63b8ff" d="M420.94,-41C413.04,-41 405.02,-41 397.24,-41"/>
<polygon fill="#63b8ff" stroke="#63b8ff" points="420.89,-44.5 430.89,-41 420.89,-37.5 420.89,-44.5"/>
</a>
</g>
</g>
<!-- Node8 -->
<g id="Node000008" class="node">
<title>Node8</title>
<g id="a_Node000008"><a xlink:href="class_bot_config.html#a8925ef3403b945f27b9ee2719ef257b9" target="_top" xlink:title=" ">
<polygon fill="white" stroke="#666666" points="238.25,-51 116.5,-51 116.5,-31 238.25,-31 238.25,-51"/>
<text text-anchor="middle" x="177.38" y="-37.5" font-family="Helvetica,sans-Serif" font-size="10.00">BotConfig::initBotConfig</text>
</a>
</g>
</g>
<!-- Node7&#45;&gt;Node8 -->
<g id="edge7_Node000007_Node000008" class="edge">
<title>Node7&#45;&gt;Node8</title>
<g id="a_edge7_Node000007_Node000008"><a xlink:title=" ">
<path fill="none" stroke="#63b8ff" d="M262.79,-41C254.69,-41 246.5,-41 238.58,-41"/>
<polygon fill="#63b8ff" stroke="#63b8ff" points="262.62,-44.5 272.62,-41 262.62,-37.5 262.62,-44.5"/>
</a>
</g>
</g>
<!-- Node9 -->
<g id="Node000009" class="node">
<title>Node9</title>
<g id="a_Node000009"><a xlink:href="classgame.html#aea6b13468585f1be55d1736100158706" target="_top" xlink:title=" ">
<polygon fill="white" stroke="#666666" points="80.5,-51 0,-51 0,-31 80.5,-31 80.5,-51"/>
<text text-anchor="middle" x="40.25" y="-37.5" font-family="Helvetica,sans-Serif" font-size="10.00">game::startBot</text>
</a>
</g>
</g>
<!-- Node8&#45;&gt;Node9 -->
<g id="edge8_Node000008_Node000009" class="edge">
<title>Node8&#45;&gt;Node9</title>
<g id="a_edge8_Node000008_Node000009"><a xlink:title=" ">
<path fill="none" stroke="#63b8ff" d="M105.04,-41C96.77,-41 88.57,-41 80.95,-41"/>
<polygon fill="#63b8ff" stroke="#63b8ff" points="104.81,-44.5 114.81,-41 104.81,-37.5 104.81,-44.5"/>
</a>
</g>
</g>
<!-- Node10&#45;&gt;Node4 -->
<g id="edge10_Node000010_Node000004" class="edge">
<title>Node10&#45;&gt;Node4</title>
<g id="a_edge10_Node000010_Node000004"><a xlink:title=" ">
<path fill="none" stroke="#63b8ff" d="M847.42,-27.3C836.48,-28.95 825.36,-30.62 814.82,-32.21"/>
<polygon fill="#63b8ff" stroke="#63b8ff" points="847.85,-30.77 857.22,-25.82 846.81,-23.85 847.85,-30.77"/>
</a>
</g>
</g>
</g>
</svg>

<g id="navigator" transform="translate(0 0)" fill="#404254">
  <rect fill="#f2f5e9" fill-opacity="0.5" stroke="#606060" stroke-width=".5" x="0" y="0" width="60" height="60"/>
  <use id="zoomplus" xlink:href="#zoomPlus" x="17" y="9" onmousedown="handleZoom(evt,'in')"/>
  <use id="zoomminus" xlink:href="#zoomMin" x="42" y="9" onmousedown="handleZoom(evt,'out')"/>
  <use id="reset" xlink:href="#resetDef" x="30" y="36" onmousedown="handleReset()"/>
   <use id="arrowup" xlink:href="#arrowUp" x="0" y="0" onmousedown="handlePan(0,-1)"/>
  <use id="arrowright" xlink:href="#arrowRight" x="0" y="0" onmousedown="handlePan(1,0)"/>
  <use id="arrowdown" xlink:href="#arrowDown" x="0" y="0" onmousedown="handlePan(0,1)"/>
  <use id="arrowleft" xlink:href="#arrowLeft" x="0" y="0" onmousedown="handlePan(-1,0)"/>
</g>
<svg viewBox="0 0 15 15" width="100%" height="30px" preserveAspectRatio="xMaxYMin meet">
 <g id="arrow_out" transform="scale(0.3 0.3)">
  <a xlink:href="class_l_d_player_afdff9653762ee40295fd344ae3ab637a_icgraph_org.svg" target="_base">
   <rect id="button" ry="5" rx="5" y="6" x="6" height="38" width="38"
        fill="#f2f5e9" fill-opacity="0.5" stroke="#606060" stroke-width="1.0"/>
   <path id="arrow"
     d="M 11.500037,31.436501 C 11.940474,20.09759 22.043105,11.32322 32.158766,21.979434 L 37.068811,17.246167 C 37.068811,17.246167 37.088388,32 37.088388,32 L 22.160133,31.978069 C 22.160133,31.978069 26.997745,27.140456 26.997745,27.140456 C 18.528582,18.264221 13.291696,25.230495 11.500037,31.436501 z"
     style="fill:#404040;"/>
  </a>
 </g>
</svg>

<style type='text/css'>
<![CDATA[
[data-mouse-over-selected='false'] { opacity: 0.7; }
[data-mouse-over-selected='true']  { opacity: 1.0; }
]]>
</style>
<script type="application/ecmascript"><![CDATA[
document.addEventListener('DOMContentLoaded', (event) => {
  highlightEdges();
  highlightAdjacentNodes();
});
]]></script>
</svg>
