<?xml version="1.0" encoding="UTF-8" standalone="no"?>
<!DOCTYPE svg PUBLIC "-//W3C//DTD SVG 1.1//EN"
 "http://www.w3.org/Graphics/SVG/1.1/DTD/svg11.dtd">
<!-- Generated by graphviz version 12.2.0 (20241103.1931)
 -->
<!-- Title: fsfml::setSpriteColor Pages: 1 -->
<!--zoomable 90 -->

<svg id="main" version="1.1" xmlns="http://www.w3.org/2000/svg" xmlns:xlink="http://www.w3.org/1999/xlink" xml:space="preserve" onload="init(evt)">

<style type="text/css"><![CDATA[
.node, .edge {opacity: 0.7;}
.node.selected, .edge.selected {opacity: 1;}
.edge:hover path { stroke: red; }
.edge:hover polygon { stroke: red; fill: red; }
]]></style>

<defs>
  <circle id="rim" cx="0" cy="0" r="7"/>
  <circle id="rim2" cx="0" cy="0" r="3.5"/>
  <g id="zoomPlus">
    <use xlink:href="#rim" fill="#404040"><set attributeName="fill" to="#808080" begin="zoomplus.mouseover" end="zoomplus.mouseout"/></use>
    <path d="M-4,0h8M0,-4v8" fill="none" stroke="white" stroke-width="1.5" pointer-events="none"/>
  </g>
  <g id="zoomMin">
    <use xlink:href="#rim" fill="#404040"><set attributeName="fill" to="#808080" begin="zoomminus.mouseover" end="zoomminus.mouseout"/></use>
    <path d="M-4,0h8" fill="none" stroke="white" stroke-width="1.5" pointer-events="none"/>
  </g>
  <g id="arrowUp" transform="translate(30 24)">
    <use xlink:href="#rim"/>
    <path pointer-events="none" fill="none" stroke="white" stroke-width="1.5" d="M0,-3.0v7 M-2.5,-0.5L0,-3.0L2.5,-0.5"/>
  </g>
  <g id="arrowRight" transform="rotate(90) translate(36 -43)">
    <use xlink:href="#rim"/>
    <path pointer-events="none" fill="none" stroke="white" stroke-width="1.5" d="M0,-3.0v7 M-2.5,-0.5L0,-3.0L2.5,-0.5"/>
  </g>
  <g id="arrowDown" transform="rotate(180) translate(-30 -48)">
    <use xlink:href="#rim"/>
    <path pointer-events="none" fill="none" stroke="white" stroke-width="1.5" d="M0,-3.0v7 M-2.5,-0.5L0,-3.0L2.5,-0.5"/>
  </g>
  <g id="arrowLeft" transform="rotate(270) translate(-36 17)">
    <use xlink:href="#rim"/>
    <path pointer-events="none" fill="none" stroke="white" stroke-width="1.5" d="M0,-3.0v7 M-2.5,-0.5L0,-3.0L2.5,-0.5"/>
  </g>
  <g id="resetDef">
    <use xlink:href="#rim2" fill="#404040"><set attributeName="fill" to="#808080" begin="reset.mouseover" end="reset.mouseout"/></use>
  </g>
</defs>
<script type="application/ecmascript">
var viewWidth = 1058;
var viewHeight = 90;
var sectionId = 'dynsection-108';
</script>
<script type="application/ecmascript" xlink:href="svg.min.js"/>
<svg id="graph" class="graph">
<g id="viewport">
<title>fsfml::setSpriteColor</title>
<!-- Node1 -->
<g id="Node000001" class="node">
<title>Node1</title>
<g id="a_Node000001"><a xlink:title=" ">
<polygon fill="#999999" stroke="#666666" points="1049.5,-51 943.5,-51 943.5,-31 1049.5,-31 1049.5,-51"/>
<text text-anchor="middle" x="996.5" y="-37.5" font-family="Helvetica,sans-Serif" font-size="10.00">fsfml::setSpriteColor</text>
</a>
</g>
</g>
<!-- Node2 -->
<g id="Node000002" class="node">
<title>Node2</title>
<g id="a_Node000002"><a xlink:href="classfsfml.html#a086f93c342c36c44f23fd318faab987b" target="_top" xlink:title=" ">
<polygon fill="white" stroke="#666666" points="907.5,-82 773,-82 773,-50 907.5,-50 907.5,-82"/>
<text text-anchor="start" x="781" y="-68.5" font-family="Helvetica,sans-Serif" font-size="10.00">fsfml::changeColorElement</text>
<text text-anchor="middle" x="840.25" y="-56.5" font-family="Helvetica,sans-Serif" font-size="10.00">Hover</text>
</a>
</g>
</g>
<!-- Node1&#45;&gt;Node2 -->
<g id="edge1_Node000001_Node000002" class="edge">
<title>Node1&#45;&gt;Node2</title>
<g id="a_edge1_Node000001_Node000002"><a xlink:title=" ">
<path fill="none" stroke="#63b8ff" d="M932.15,-51.27C924.15,-52.56 915.96,-53.89 907.91,-55.2"/>
<polygon fill="#63b8ff" stroke="#63b8ff" points="932.47,-54.76 941.78,-49.71 931.35,-47.85 932.47,-54.76"/>
</a>
</g>
</g>
<!-- Node8 -->
<g id="Node000008" class="node">
<title>Node8</title>
<g id="a_Node000008"><a xlink:href="classfsfml.html#a6206758c01c270444e8c704535a2acb7" target="_top" xlink:title=" ">
<polygon fill="white" stroke="#666666" points="907.5,-32 773,-32 773,0 907.5,0 907.5,-32"/>
<text text-anchor="start" x="781" y="-18.5" font-family="Helvetica,sans-Serif" font-size="10.00">fsfml::changeColorElement</text>
<text text-anchor="middle" x="840.25" y="-6.5" font-family="Helvetica,sans-Serif" font-size="10.00">Pressed</text>
</a>
</g>
</g>
<!-- Node1&#45;&gt;Node8 -->
<g id="edge7_Node000001_Node000008" class="edge">
<title>Node1&#45;&gt;Node8</title>
<g id="a_edge7_Node000001_Node000008"><a xlink:title=" ">
<path fill="none" stroke="#63b8ff" d="M932.15,-30.73C924.15,-29.44 915.96,-28.11 907.91,-26.8"/>
<polygon fill="#63b8ff" stroke="#63b8ff" points="931.35,-34.15 941.78,-32.29 932.47,-27.24 931.35,-34.15"/>
</a>
</g>
</g>
<!-- Node3 -->
<g id="Node000003" class="node">
<title>Node3</title>
<g id="a_Node000003"><a xlink:href="classfsfml.html#a25eeb8db0d0be9115d85caf1400c018f" target="_top" xlink:title=" ">
<polygon fill="white" stroke="#666666" points="737,-57 602.5,-57 602.5,-25 737,-25 737,-57"/>
<text text-anchor="start" x="610.5" y="-43.5" font-family="Helvetica,sans-Serif" font-size="10.00">fsfml::changeColorElement</text>
<text text-anchor="middle" x="669.75" y="-31.5" font-family="Helvetica,sans-Serif" font-size="10.00">Mouse</text>
</a>
</g>
</g>
<!-- Node2&#45;&gt;Node3 -->
<g id="edge2_Node000002_Node000003" class="edge">
<title>Node2&#45;&gt;Node3</title>
<g id="a_edge2_Node000002_Node000003"><a xlink:title=" ">
<path fill="none" stroke="#63b8ff" d="M761.4,-54.45C753.39,-53.26 745.29,-52.06 737.41,-50.89"/>
<polygon fill="#63b8ff" stroke="#63b8ff" points="760.75,-57.89 771.16,-55.9 761.78,-50.97 760.75,-57.89"/>
</a>
</g>
</g>
<!-- Node4 -->
<g id="Node000004" class="node">
<title>Node4</title>
<g id="a_Node000004"><a xlink:href="classfsfml.html#ac93c3196218e12fa0e03b10252f9a895" target="_top" xlink:title=" ">
<polygon fill="white" stroke="#666666" points="566.5,-51 432,-51 432,-31 566.5,-31 566.5,-51"/>
<text text-anchor="middle" x="499.25" y="-37.5" font-family="Helvetica,sans-Serif" font-size="10.00">fsfml::changeColorElement</text>
</a>
</g>
</g>
<!-- Node3&#45;&gt;Node4 -->
<g id="edge3_Node000003_Node000004" class="edge">
<title>Node3&#45;&gt;Node4</title>
<g id="a_edge3_Node000003_Node000004"><a xlink:title=" ">
<path fill="none" stroke="#63b8ff" d="M590.9,-41C582.89,-41 574.79,-41 566.91,-41"/>
<polygon fill="#63b8ff" stroke="#63b8ff" points="590.64,-44.5 600.64,-41 590.64,-37.5 590.64,-44.5"/>
</a>
</g>
</g>
<!-- Node5 -->
<g id="Node000005" class="node">
<title>Node5</title>
<g id="a_Node000005"><a xlink:href="classfsfml.html#a7e31fbe38054def5364e705811d867de" target="_top" xlink:title=" ">
<polygon fill="white" stroke="#666666" points="396,-51 290.75,-51 290.75,-31 396,-31 396,-51"/>
<text text-anchor="middle" x="343.38" y="-37.5" font-family="Helvetica,sans-Serif" font-size="10.00">fsfml::ElementEvent</text>
</a>
</g>
</g>
<!-- Node4&#45;&gt;Node5 -->
<g id="edge4_Node000004_Node000005" class="edge">
<title>Node4&#45;&gt;Node5</title>
<g id="a_edge4_Node000004_Node000005"><a xlink:title=" ">
<path fill="none" stroke="#63b8ff" d="M420.19,-41C412.07,-41 403.96,-41 396.23,-41"/>
<polygon fill="#63b8ff" stroke="#63b8ff" points="420.14,-44.5 430.14,-41 420.14,-37.5 420.14,-44.5"/>
</a>
</g>
</g>
<!-- Node6 -->
<g id="Node000006" class="node">
<title>Node6</title>
<g id="a_Node000006"><a xlink:href="classfsfml.html#a6b4ab16d375ff176a0533dccdc09fc20" target="_top" xlink:title=" ">
<polygon fill="white" stroke="#666666" points="254.75,-51 160.75,-51 160.75,-31 254.75,-31 254.75,-51"/>
<text text-anchor="middle" x="207.75" y="-37.5" font-family="Helvetica,sans-Serif" font-size="10.00">fsfml::PanelEvent</text>
</a>
</g>
</g>
<!-- Node5&#45;&gt;Node6 -->
<g id="edge5_Node000005_Node000006" class="edge">
<title>Node5&#45;&gt;Node6</title>
<g id="a_edge5_Node000005_Node000006"><a xlink:title=" ">
<path fill="none" stroke="#63b8ff" d="M279.06,-41C271.02,-41 262.92,-41 255.21,-41"/>
<polygon fill="#63b8ff" stroke="#63b8ff" points="278.82,-44.5 288.82,-41 278.82,-37.5 278.82,-44.5"/>
</a>
</g>
</g>
<!-- Node7 -->
<g id="Node000007" class="node">
<title>Node7</title>
<g id="a_Node000007"><a xlink:href="classfsfml.html#ad0c2351c234aa59ef60b2c38b5fe5dd9" target="_top" xlink:title=" ">
<polygon fill="white" stroke="#666666" points="124.75,-51 0,-51 0,-31 124.75,-31 124.75,-51"/>
<text text-anchor="middle" x="62.38" y="-37.5" font-family="Helvetica,sans-Serif" font-size="10.00">fsfml::handleActivePanel</text>
</a>
</g>
</g>
<!-- Node6&#45;&gt;Node7 -->
<g id="edge6_Node000006_Node000007" class="edge">
<title>Node6&#45;&gt;Node7</title>
<g id="a_edge6_Node000006_Node000007"><a xlink:title=" ">
<path fill="none" stroke="#63b8ff" d="M149.21,-41C141.29,-41 133.13,-41 125.13,-41"/>
<polygon fill="#63b8ff" stroke="#63b8ff" points="149.08,-44.5 159.08,-41 149.08,-37.5 149.08,-44.5"/>
</a>
</g>
</g>
<!-- Node8&#45;&gt;Node3 -->
<g id="edge8_Node000008_Node000003" class="edge">
<title>Node8&#45;&gt;Node3</title>
<g id="a_edge8_Node000008_Node000003"><a xlink:title=" ">
<path fill="none" stroke="#63b8ff" d="M761.4,-27.55C753.39,-28.74 745.29,-29.94 737.41,-31.11"/>
<polygon fill="#63b8ff" stroke="#63b8ff" points="761.78,-31.03 771.16,-26.1 760.75,-24.11 761.78,-31.03"/>
</a>
</g>
</g>
</g>
</svg>

<g id="navigator" transform="translate(0 0)" fill="#404254">
  <rect fill="#f2f5e9" fill-opacity="0.5" stroke="#606060" stroke-width=".5" x="0" y="0" width="60" height="60"/>
  <use id="zoomplus" xlink:href="#zoomPlus" x="17" y="9" onmousedown="handleZoom(evt,'in')"/>
  <use id="zoomminus" xlink:href="#zoomMin" x="42" y="9" onmousedown="handleZoom(evt,'out')"/>
  <use id="reset" xlink:href="#resetDef" x="30" y="36" onmousedown="handleReset()"/>
   <use id="arrowup" xlink:href="#arrowUp" x="0" y="0" onmousedown="handlePan(0,-1)"/>
  <use id="arrowright" xlink:href="#arrowRight" x="0" y="0" onmousedown="handlePan(1,0)"/>
  <use id="arrowdown" xlink:href="#arrowDown" x="0" y="0" onmousedown="handlePan(0,1)"/>
  <use id="arrowleft" xlink:href="#arrowLeft" x="0" y="0" onmousedown="handlePan(-1,0)"/>
</g>
<svg viewBox="0 0 15 15" width="100%" height="30px" preserveAspectRatio="xMaxYMin meet">
 <g id="arrow_out" transform="scale(0.3 0.3)">
  <a xlink:href="classfsfml_a5eb57f7a09768d185d53cf87fb8544ee_icgraph_org.svg" target="_base">
   <rect id="button" ry="5" rx="5" y="6" x="6" height="38" width="38"
        fill="#f2f5e9" fill-opacity="0.5" stroke="#606060" stroke-width="1.0"/>
   <path id="arrow"
     d="M 11.500037,31.436501 C 11.940474,20.09759 22.043105,11.32322 32.158766,21.979434 L 37.068811,17.246167 C 37.068811,17.246167 37.088388,32 37.088388,32 L 22.160133,31.978069 C 22.160133,31.978069 26.997745,27.140456 26.997745,27.140456 C 18.528582,18.264221 13.291696,25.230495 11.500037,31.436501 z"
     style="fill:#404040;"/>
  </a>
 </g>
</svg>

<style type='text/css'>
<![CDATA[
[data-mouse-over-selected='false'] { opacity: 0.7; }
[data-mouse-over-selected='true']  { opacity: 1.0; }
]]>
</style>
<script type="application/ecmascript"><![CDATA[
document.addEventListener('DOMContentLoaded', (event) => {
  highlightEdges();
  highlightAdjacentNodes();
});
]]></script>
</svg>
