<?xml version="1.0" encoding="UTF-8" standalone="no"?>
<!DOCTYPE svg PUBLIC "-//W3C//DTD SVG 1.1//EN"
 "http://www.w3.org/Graphics/SVG/1.1/DTD/svg11.dtd">
<!-- Generated by graphviz version 12.2.0 (20241103.1931)
 -->
<!-- Title: Instance::getGlobalId Pages: 1 -->
<svg width="913pt" height="128pt"
 viewBox="0.00 0.00 912.50 128.00" xmlns="http://www.w3.org/2000/svg" xmlns:xlink="http://www.w3.org/1999/xlink">
<g id="graph0" class="graph" transform="scale(1 1) rotate(0) translate(4 124)">
<title>Instance::getGlobalId</title>
<!-- Node1 -->
<g id="Node000001" class="node">
<title>Node1</title>
<g id="a_Node000001"><a xlink:title=" ">
<polygon fill="#999999" stroke="#666666" points="904.5,-70 795.5,-70 795.5,-50 904.5,-50 904.5,-70"/>
<text text-anchor="middle" x="850" y="-56.5" font-family="Helvetica,sans-Serif" font-size="10.00">Instance::getGlobalId</text>
</a>
</g>
</g>
<!-- Node2 -->
<g id="Node000002" class="node">
<title>Node2</title>
<g id="a_Node000002"><a xlink:href="struct_all_emulators.html#aa1df5ba4e1c2d0b4427f5d1bd3f3339c" target="_top" xlink:title=" ">
<polygon fill="white" stroke="#666666" points="757.62,-120 631.38,-120 631.38,-88 757.62,-88 757.62,-120"/>
<text text-anchor="start" x="639.38" y="-106.5" font-family="Helvetica,sans-Serif" font-size="10.00">AllEmulators::getFavorite</text>
<text text-anchor="middle" x="694.5" y="-94.5" font-family="Helvetica,sans-Serif" font-size="10.00">InstanceIndex</text>
</a>
</g>
</g>
<!-- Node1&#45;&gt;Node2 -->
<g id="edge1_Node000001_Node000002" class="edge">
<title>Node1&#45;&gt;Node2</title>
<g id="a_edge1_Node000001_Node000002"><a xlink:title=" ">
<path fill="none" stroke="#63b8ff" d="M801.76,-73.54C786.33,-77.96 769.02,-82.93 752.92,-87.54"/>
<polygon fill="#63b8ff" stroke="#63b8ff" points="802.52,-76.96 811.17,-70.84 800.59,-70.24 802.52,-76.96"/>
</a>
</g>
</g>
<!-- Node7 -->
<g id="Node000007" class="node">
<title>Node7</title>
<g id="a_Node000007"><a xlink:href="struct_all_emulators.html#a6ffd909ec5cb08d91a6dc09a59db58e1" target="_top" xlink:title=" ">
<polygon fill="white" stroke="#666666" points="758.75,-70 630.25,-70 630.25,-50 758.75,-50 758.75,-70"/>
<text text-anchor="middle" x="694.5" y="-56.5" font-family="Helvetica,sans-Serif" font-size="10.00">AllEmulators::getInstance</text>
</a>
</g>
</g>
<!-- Node1&#45;&gt;Node7 -->
<g id="edge6_Node000001_Node000007" class="edge">
<title>Node1&#45;&gt;Node7</title>
<g id="a_edge6_Node000001_Node000007"><a xlink:title=" ">
<path fill="none" stroke="#63b8ff" d="M783.9,-60C775.71,-60 767.34,-60 759.17,-60"/>
<polygon fill="#63b8ff" stroke="#63b8ff" points="783.8,-63.5 793.8,-60 783.8,-56.5 783.8,-63.5"/>
</a>
</g>
</g>
<!-- Node8 -->
<g id="Node000008" class="node">
<title>Node8</title>
<g id="a_Node000008"><a xlink:href="class_bot_config.html#a9c0206c0081858886963267f855a9ec8" target="_top" xlink:title=" ">
<polygon fill="white" stroke="#666666" points="759.5,-32 629.5,-32 629.5,0 759.5,0 759.5,-32"/>
<text text-anchor="start" x="637.5" y="-18.5" font-family="Helvetica,sans-Serif" font-size="10.00">BotConfig::updateFavorite</text>
<text text-anchor="middle" x="694.5" y="-6.5" font-family="Helvetica,sans-Serif" font-size="10.00">Instance</text>
</a>
</g>
</g>
<!-- Node1&#45;&gt;Node8 -->
<g id="edge7_Node000001_Node000008" class="edge">
<title>Node1&#45;&gt;Node8</title>
<g id="a_edge7_Node000001_Node000008"><a xlink:title=" ">
<path fill="none" stroke="#63b8ff" d="M801.76,-46.46C786.33,-42.04 769.02,-37.07 752.92,-32.46"/>
<polygon fill="#63b8ff" stroke="#63b8ff" points="800.59,-49.76 811.17,-49.16 802.52,-43.04 800.59,-49.76"/>
</a>
</g>
</g>
<!-- Node3 -->
<g id="Node000003" class="node">
<title>Node3</title>
<g id="a_Node000003"><a xlink:href="class_bot_config.html#ac00a1d2728bca4fe8ad17e8dc8b792e2" target="_top" xlink:title=" ">
<polygon fill="white" stroke="#666666" points="581.12,-120 451.88,-120 451.88,-88 581.12,-88 581.12,-120"/>
<text text-anchor="start" x="459.88" y="-106.5" font-family="Helvetica,sans-Serif" font-size="10.00">BotConfig::handleFavorite</text>
<text text-anchor="middle" x="516.5" y="-94.5" font-family="Helvetica,sans-Serif" font-size="10.00">Instance</text>
</a>
</g>
</g>
<!-- Node2&#45;&gt;Node3 -->
<g id="edge2_Node000002_Node000003" class="edge">
<title>Node2&#45;&gt;Node3</title>
<g id="a_edge2_Node000002_Node000003"><a xlink:title=" ">
<path fill="none" stroke="#63b8ff" d="M619.46,-104C606.78,-104 593.71,-104 581.33,-104"/>
<polygon fill="#63b8ff" stroke="#63b8ff" points="619.44,-107.5 629.44,-104 619.44,-100.5 619.44,-107.5"/>
</a>
</g>
</g>
<!-- Node4 -->
<g id="Node000004" class="node">
<title>Node4</title>
<g id="a_Node000004"><a xlink:href="class_bot_config.html#a72e8877046483a6c3c8f03a21ea9c6b2" target="_top" xlink:title=" ">
<polygon fill="white" stroke="#666666" points="403.5,-120 274.25,-120 274.25,-88 403.5,-88 403.5,-120"/>
<text text-anchor="start" x="282.25" y="-106.5" font-family="Helvetica,sans-Serif" font-size="10.00">BotConfig::choosePlaying</text>
<text text-anchor="middle" x="338.88" y="-94.5" font-family="Helvetica,sans-Serif" font-size="10.00">Instance</text>
</a>
</g>
</g>
<!-- Node3&#45;&gt;Node4 -->
<g id="edge3_Node000003_Node000004" class="edge">
<title>Node3&#45;&gt;Node4</title>
<g id="a_edge3_Node000003_Node000004"><a xlink:title=" ">
<path fill="none" stroke="#63b8ff" d="M440.11,-104C427.99,-104 415.54,-104 403.73,-104"/>
<polygon fill="#63b8ff" stroke="#63b8ff" points="440.09,-107.5 450.08,-104 440.08,-100.5 440.09,-107.5"/>
</a>
</g>
</g>
<!-- Node5 -->
<g id="Node000005" class="node">
<title>Node5</title>
<g id="a_Node000005"><a xlink:href="class_bot_config.html#a8925ef3403b945f27b9ee2719ef257b9" target="_top" xlink:title=" ">
<polygon fill="white" stroke="#666666" points="238.25,-114 116.5,-114 116.5,-94 238.25,-94 238.25,-114"/>
<text text-anchor="middle" x="177.38" y="-100.5" font-family="Helvetica,sans-Serif" font-size="10.00">BotConfig::initBotConfig</text>
</a>
</g>
</g>
<!-- Node4&#45;&gt;Node5 -->
<g id="edge4_Node000004_Node000005" class="edge">
<title>Node4&#45;&gt;Node5</title>
<g id="a_edge4_Node000004_Node000005"><a xlink:title=" ">
<path fill="none" stroke="#63b8ff" d="M262.65,-104C254.63,-104 246.54,-104 238.72,-104"/>
<polygon fill="#63b8ff" stroke="#63b8ff" points="262.41,-107.5 272.41,-104 262.41,-100.5 262.41,-107.5"/>
</a>
</g>
</g>
<!-- Node6 -->
<g id="Node000006" class="node">
<title>Node6</title>
<g id="a_Node000006"><a xlink:href="classgame.html#aea6b13468585f1be55d1736100158706" target="_top" xlink:title=" ">
<polygon fill="white" stroke="#666666" points="80.5,-114 0,-114 0,-94 80.5,-94 80.5,-114"/>
<text text-anchor="middle" x="40.25" y="-100.5" font-family="Helvetica,sans-Serif" font-size="10.00">game::startBot</text>
</a>
</g>
</g>
<!-- Node5&#45;&gt;Node6 -->
<g id="edge5_Node000005_Node000006" class="edge">
<title>Node5&#45;&gt;Node6</title>
<g id="a_edge5_Node000005_Node000006"><a xlink:title=" ">
<path fill="none" stroke="#63b8ff" d="M105.04,-104C96.77,-104 88.57,-104 80.95,-104"/>
<polygon fill="#63b8ff" stroke="#63b8ff" points="104.81,-107.5 114.81,-104 104.81,-100.5 104.81,-107.5"/>
</a>
</g>
</g>
<!-- Node9 -->
<g id="Node000009" class="node">
<title>Node9</title>
<g id="a_Node000009"><a xlink:href="class_bot_config.html#af5d808aed675a21368cb8669ed12b756" target="_top" xlink:title=" ">
<polygon fill="white" stroke="#666666" points="593.5,-32 439.5,-32 439.5,0 593.5,0 593.5,-32"/>
<text text-anchor="start" x="447.5" y="-18.5" font-family="Helvetica,sans-Serif" font-size="10.00">BotConfig::interactUserFavorite</text>
<text text-anchor="middle" x="516.5" y="-6.5" font-family="Helvetica,sans-Serif" font-size="10.00">Instance</text>
</a>
</g>
</g>
<!-- Node8&#45;&gt;Node9 -->
<g id="edge8_Node000008_Node000009" class="edge">
<title>Node8&#45;&gt;Node9</title>
<g id="a_edge8_Node000008_Node000009"><a xlink:title=" ">
<path fill="none" stroke="#63b8ff" d="M618.16,-16C610.08,-16 601.85,-16 593.76,-16"/>
<polygon fill="#63b8ff" stroke="#63b8ff" points="617.95,-19.5 627.95,-16 617.95,-12.5 617.95,-19.5"/>
</a>
</g>
</g>
</g>
</svg>
