<?xml version="1.0" encoding="UTF-8" standalone="no"?>
<!DOCTYPE svg PUBLIC "-//W3C//DTD SVG 1.1//EN"
 "http://www.w3.org/Graphics/SVG/1.1/DTD/svg11.dtd">
<!-- Generated by graphviz version 12.2.0 (20241103.1931)
 -->
<!-- Title: Instance Pages: 1 -->
<!--zoomable 568 -->

<svg id="main" version="1.1" xmlns="http://www.w3.org/2000/svg" xmlns:xlink="http://www.w3.org/1999/xlink" xml:space="preserve" onload="init(evt)">

<style type="text/css"><![CDATA[
.node, .edge {opacity: 0.7;}
.node.selected, .edge.selected {opacity: 1;}
.edge:hover path { stroke: red; }
.edge:hover polygon { stroke: red; fill: red; }
]]></style>

<defs>
  <circle id="rim" cx="0" cy="0" r="7"/>
  <circle id="rim2" cx="0" cy="0" r="3.5"/>
  <g id="zoomPlus">
    <use xlink:href="#rim" fill="#404040"><set attributeName="fill" to="#808080" begin="zoomplus.mouseover" end="zoomplus.mouseout"/></use>
    <path d="M-4,0h8M0,-4v8" fill="none" stroke="white" stroke-width="1.5" pointer-events="none"/>
  </g>
  <g id="zoomMin">
    <use xlink:href="#rim" fill="#404040"><set attributeName="fill" to="#808080" begin="zoomminus.mouseover" end="zoomminus.mouseout"/></use>
    <path d="M-4,0h8" fill="none" stroke="white" stroke-width="1.5" pointer-events="none"/>
  </g>
  <g id="arrowUp" transform="translate(30 24)">
    <use xlink:href="#rim"/>
    <path pointer-events="none" fill="none" stroke="white" stroke-width="1.5" d="M0,-3.0v7 M-2.5,-0.5L0,-3.0L2.5,-0.5"/>
  </g>
  <g id="arrowRight" transform="rotate(90) translate(36 -43)">
    <use xlink:href="#rim"/>
    <path pointer-events="none" fill="none" stroke="white" stroke-width="1.5" d="M0,-3.0v7 M-2.5,-0.5L0,-3.0L2.5,-0.5"/>
  </g>
  <g id="arrowDown" transform="rotate(180) translate(-30 -48)">
    <use xlink:href="#rim"/>
    <path pointer-events="none" fill="none" stroke="white" stroke-width="1.5" d="M0,-3.0v7 M-2.5,-0.5L0,-3.0L2.5,-0.5"/>
  </g>
  <g id="arrowLeft" transform="rotate(270) translate(-36 17)">
    <use xlink:href="#rim"/>
    <path pointer-events="none" fill="none" stroke="white" stroke-width="1.5" d="M0,-3.0v7 M-2.5,-0.5L0,-3.0L2.5,-0.5"/>
  </g>
  <g id="resetDef">
    <use xlink:href="#rim2" fill="#404040"><set attributeName="fill" to="#808080" begin="reset.mouseover" end="reset.mouseout"/></use>
  </g>
</defs>
<script type="application/ecmascript">
var viewWidth = 308;
var viewHeight = 568;
var sectionId = 'dynsection-0';
</script>
<script type="application/ecmascript" xlink:href="svg.min.js"/>
<svg id="graph" class="graph">
<g id="viewport">
<title>Instance</title>
<!-- Node1 -->
<g id="Node000001" class="node">
<title>Node1</title>
<g id="a_Node000001"><a xlink:title=" ">
<polygon fill="#999999" stroke="none" points="213.25,-560 66.25,-560 66.25,-204 213.25,-204 213.25,-560"/>
<text text-anchor="start" x="121" y="-546.5" font-family="Helvetica,sans-Serif" font-size="10.00">Instance</text>
<text text-anchor="start" x="70.25" y="-530.5" font-family="Helvetica,sans-Serif" font-size="10.00">+</text>
<text text-anchor="start" x="80.25" y="-530.5" font-family="Helvetica,sans-Serif" font-size="10.00">std::string instanceName</text>
<text text-anchor="start" x="70.25" y="-514.5" font-family="Helvetica,sans-Serif" font-size="10.00">+</text>
<text text-anchor="start" x="80.25" y="-514.5" font-family="Helvetica,sans-Serif" font-size="10.00">std::string instanceFolder</text>
<text text-anchor="start" x="70.25" y="-498.5" font-family="Helvetica,sans-Serif" font-size="10.00">+</text>
<text text-anchor="start" x="80.25" y="-498.5" font-family="Helvetica,sans-Serif" font-size="10.00">std::string adbKey</text>
<text text-anchor="start" x="70.25" y="-482.5" font-family="Helvetica,sans-Serif" font-size="10.00">+</text>
<text text-anchor="start" x="80.25" y="-482.5" font-family="Helvetica,sans-Serif" font-size="10.00">std::string instanceId</text>
<text text-anchor="start" x="70.25" y="-466.5" font-family="Helvetica,sans-Serif" font-size="10.00">+</text>
<text text-anchor="start" x="80.25" y="-466.5" font-family="Helvetica,sans-Serif" font-size="10.00">EmulatorType myType</text>
<text text-anchor="start" x="70.25" y="-450.5" font-family="Helvetica,sans-Serif" font-size="10.00">+</text>
<text text-anchor="start" x="80.25" y="-450.5" font-family="Helvetica,sans-Serif" font-size="10.00">bool launch</text>
<text text-anchor="start" x="70.25" y="-434.5" font-family="Helvetica,sans-Serif" font-size="10.00">+</text>
<text text-anchor="start" x="80.25" y="-434.5" font-family="Helvetica,sans-Serif" font-size="10.00">int dpi</text>
<text text-anchor="start" x="70.25" y="-418.5" font-family="Helvetica,sans-Serif" font-size="10.00">+</text>
<text text-anchor="start" x="80.25" y="-418.5" font-family="Helvetica,sans-Serif" font-size="10.00">int width</text>
<text text-anchor="start" x="70.25" y="-402.5" font-family="Helvetica,sans-Serif" font-size="10.00">+</text>
<text text-anchor="start" x="80.25" y="-402.5" font-family="Helvetica,sans-Serif" font-size="10.00">int height</text>
<text text-anchor="start" x="70.25" y="-386.5" font-family="Helvetica,sans-Serif" font-size="10.00">+</text>
<text text-anchor="start" x="80.25" y="-386.5" font-family="Helvetica,sans-Serif" font-size="10.00">bool hasGame</text>
<text text-anchor="start" x="70.25" y="-370.5" font-family="Helvetica,sans-Serif" font-size="10.00">+</text>
<text text-anchor="start" x="80.25" y="-370.5" font-family="Helvetica,sans-Serif" font-size="10.00">Instance()</text>
<text text-anchor="start" x="70.25" y="-354.5" font-family="Helvetica,sans-Serif" font-size="10.00">+</text>
<text text-anchor="start" x="80.25" y="-354.5" font-family="Helvetica,sans-Serif" font-size="10.00">Instance(std::string</text>
<text text-anchor="start" x="80.25" y="-342.5" font-family="Helvetica,sans-Serif" font-size="10.00"> instanceName)</text>
<text text-anchor="start" x="70.25" y="-326.5" font-family="Helvetica,sans-Serif" font-size="10.00">+</text>
<text text-anchor="start" x="80.25" y="-326.5" font-family="Helvetica,sans-Serif" font-size="10.00">virtual std::string</text>
<text text-anchor="start" x="80.25" y="-314.5" font-family="Helvetica,sans-Serif" font-size="10.00"> getAdbKey()</text>
<text text-anchor="start" x="70.25" y="-298.5" font-family="Helvetica,sans-Serif" font-size="10.00">+</text>
<text text-anchor="start" x="80.25" y="-298.5" font-family="Helvetica,sans-Serif" font-size="10.00">const std::string getGlobalId()</text>
<text text-anchor="start" x="70.25" y="-282.5" font-family="Helvetica,sans-Serif" font-size="10.00">+</text>
<text text-anchor="start" x="80.25" y="-282.5" font-family="Helvetica,sans-Serif" font-size="10.00">virtual void setGlobalId()=0</text>
<text text-anchor="start" x="70.25" y="-266.5" font-family="Helvetica,sans-Serif" font-size="10.00">+</text>
<text text-anchor="start" x="80.25" y="-266.5" font-family="Helvetica,sans-Serif" font-size="10.00">virtual EmulatorType</text>
<text text-anchor="start" x="80.25" y="-254.5" font-family="Helvetica,sans-Serif" font-size="10.00"> getType()</text>
<text text-anchor="start" x="70.25" y="-238.5" font-family="Helvetica,sans-Serif" font-size="10.00">+</text>
<text text-anchor="start" x="80.25" y="-238.5" font-family="Helvetica,sans-Serif" font-size="10.00">virtual void setLaunch</text>
<text text-anchor="start" x="80.25" y="-226.5" font-family="Helvetica,sans-Serif" font-size="10.00">(bool b)</text>
<text text-anchor="start" x="70.25" y="-210.5" font-family="Helvetica,sans-Serif" font-size="10.00">+</text>
<text text-anchor="start" x="80.25" y="-210.5" font-family="Helvetica,sans-Serif" font-size="10.00">virtual void showInstance()=0</text>
<polygon fill="#666666" stroke="#666666" points="66.25,-542 66.25,-542 213.25,-542 213.25,-542 66.25,-542"/>
<polygon fill="#666666" stroke="#666666" points="66.25,-382 66.25,-382 78.25,-382 78.25,-382 66.25,-382"/>
<polygon fill="#666666" stroke="#666666" points="78.25,-382 78.25,-382 213.25,-382 213.25,-382 78.25,-382"/>
<polygon fill="none" stroke="#666666" points="66.25,-204 66.25,-560 213.25,-560 213.25,-204 66.25,-204"/>
</a>
</g>
</g>
<!-- Node2 -->
<g id="Node000002" class="node">
<title>Node2</title>
<g id="a_Node000002"><a xlink:href="class_bluestacks_instance.html" target="_top" xlink:title=" ">
<polygon fill="white" stroke="none" points="121.5,-162 0,-162 0,-6 121.5,-6 121.5,-162"/>
<text text-anchor="start" x="17.62" y="-148.5" font-family="Helvetica,sans-Serif" font-size="10.00">BluestacksInstance</text>
<text text-anchor="start" x="4" y="-132.5" font-family="Helvetica,sans-Serif" font-size="10.00">+</text>
<text text-anchor="start" x="14" y="-132.5" font-family="Helvetica,sans-Serif" font-size="10.00">int bootTime</text>
<text text-anchor="start" x="4" y="-116.5" font-family="Helvetica,sans-Serif" font-size="10.00">+</text>
<text text-anchor="start" x="14" y="-116.5" font-family="Helvetica,sans-Serif" font-size="10.00">std::string engineName</text>
<text text-anchor="start" x="4" y="-100.5" font-family="Helvetica,sans-Serif" font-size="10.00">+</text>
<text text-anchor="start" x="14" y="-100.5" font-family="Helvetica,sans-Serif" font-size="10.00">std::string instancePath</text>
<text text-anchor="start" x="4" y="-84.5" font-family="Helvetica,sans-Serif" font-size="10.00">+</text>
<text text-anchor="start" x="14" y="-84.5" font-family="Helvetica,sans-Serif" font-size="10.00">std::string id</text>
<text text-anchor="start" x="4" y="-68.5" font-family="Helvetica,sans-Serif" font-size="10.00">+</text>
<text text-anchor="start" x="14" y="-68.5" font-family="Helvetica,sans-Serif" font-size="10.00">BluestacksInstance()</text>
<text text-anchor="start" x="4" y="-52.5" font-family="Helvetica,sans-Serif" font-size="10.00">+</text>
<text text-anchor="start" x="14" y="-52.5" font-family="Helvetica,sans-Serif" font-size="10.00">void showInstance()</text>
<text text-anchor="start" x="14" y="-40.5" font-family="Helvetica,sans-Serif" font-size="10.00"> override</text>
<text text-anchor="start" x="4" y="-24.5" font-family="Helvetica,sans-Serif" font-size="10.00">+</text>
<text text-anchor="start" x="14" y="-24.5" font-family="Helvetica,sans-Serif" font-size="10.00">void setGlobalId()</text>
<text text-anchor="start" x="14" y="-12.5" font-family="Helvetica,sans-Serif" font-size="10.00"> override</text>
<polygon fill="#666666" stroke="#666666" points="0,-144 0,-144 121.5,-144 121.5,-144 0,-144"/>
<polygon fill="#666666" stroke="#666666" points="0,-80 0,-80 12,-80 12,-80 0,-80"/>
<polygon fill="#666666" stroke="#666666" points="12,-80 12,-80 121.5,-80 121.5,-80 12,-80"/>
<polygon fill="none" stroke="#666666" points="0,-6 0,-162 121.5,-162 121.5,-6 0,-6"/>
</a>
</g>
</g>
<!-- Node1&#45;&gt;Node2 -->
<g id="edge1_Node000001_Node000002" class="edge">
<title>Node1&#45;&gt;Node2</title>
<g id="a_edge1_Node000001_Node000002"><a xlink:title=" ">
<path fill="none" stroke="#63b8ff" d="M89.62,-193.18C86.73,-182.34 83.92,-171.8 81.26,-161.83"/>
<polygon fill="none" stroke="#63b8ff" points="86.19,-193.89 92.15,-202.65 92.95,-192.09 86.19,-193.89"/>
</a>
</g>
</g>
<!-- Node3 -->
<g id="Node000003" class="node">
<title>Node3</title>
<g id="a_Node000003"><a xlink:href="class_l_d_player_instance.html" target="_top" xlink:title=" ">
<polygon fill="white" stroke="none" points="299.62,-168 139.88,-168 139.88,0 299.62,0 299.62,-168"/>
<text text-anchor="start" x="180.75" y="-154.5" font-family="Helvetica,sans-Serif" font-size="10.00">LDPlayerInstance</text>
<text text-anchor="start" x="143.88" y="-138.5" font-family="Helvetica,sans-Serif" font-size="10.00">+</text>
<text text-anchor="start" x="153.88" y="-138.5" font-family="Helvetica,sans-Serif" font-size="10.00">std::string packageInfoFileName</text>
<text text-anchor="start" x="143.88" y="-122.5" font-family="Helvetica,sans-Serif" font-size="10.00">+</text>
<text text-anchor="start" x="153.88" y="-122.5" font-family="Helvetica,sans-Serif" font-size="10.00">std::string engineName</text>
<text text-anchor="start" x="143.88" y="-106.5" font-family="Helvetica,sans-Serif" font-size="10.00">+</text>
<text text-anchor="start" x="153.88" y="-106.5" font-family="Helvetica,sans-Serif" font-size="10.00">int ldId</text>
<text text-anchor="start" x="143.88" y="-90.5" font-family="Helvetica,sans-Serif" font-size="10.00">+</text>
<text text-anchor="start" x="153.88" y="-90.5" font-family="Helvetica,sans-Serif" font-size="10.00">LDPlayerInstance()</text>
<text text-anchor="start" x="143.88" y="-74.5" font-family="Helvetica,sans-Serif" font-size="10.00">+</text>
<text text-anchor="start" x="153.88" y="-74.5" font-family="Helvetica,sans-Serif" font-size="10.00">LDPlayerInstance(std</text>
<text text-anchor="start" x="153.88" y="-62.5" font-family="Helvetica,sans-Serif" font-size="10.00">::string instanceName)</text>
<text text-anchor="start" x="143.88" y="-46.5" font-family="Helvetica,sans-Serif" font-size="10.00">+</text>
<text text-anchor="start" x="153.88" y="-46.5" font-family="Helvetica,sans-Serif" font-size="10.00">void showInstance()</text>
<text text-anchor="start" x="153.88" y="-34.5" font-family="Helvetica,sans-Serif" font-size="10.00"> override</text>
<text text-anchor="start" x="143.88" y="-18.5" font-family="Helvetica,sans-Serif" font-size="10.00">+</text>
<text text-anchor="start" x="153.88" y="-18.5" font-family="Helvetica,sans-Serif" font-size="10.00">void setGlobalId()</text>
<text text-anchor="start" x="153.88" y="-6.5" font-family="Helvetica,sans-Serif" font-size="10.00"> override</text>
<polygon fill="#666666" stroke="#666666" points="139.88,-150 139.88,-150 299.62,-150 299.62,-150 139.88,-150"/>
<polygon fill="#666666" stroke="#666666" points="139.88,-102 139.88,-102 151.88,-102 151.88,-102 139.88,-102"/>
<polygon fill="#666666" stroke="#666666" points="151.88,-102 151.88,-102 299.62,-102 299.62,-102 151.88,-102"/>
<polygon fill="none" stroke="#666666" points="139.88,0 139.88,-168 299.62,-168 299.62,0 139.88,0"/>
</a>
</g>
</g>
<!-- Node1&#45;&gt;Node3 -->
<g id="edge2_Node000001_Node000003" class="edge">
<title>Node1&#45;&gt;Node3</title>
<g id="a_edge2_Node000001_Node000003"><a xlink:title=" ">
<path fill="none" stroke="#63b8ff" d="M190.54,-193.09C192.87,-184.47 195.15,-176.04 197.34,-167.93"/>
<polygon fill="none" stroke="#63b8ff" points="187.18,-192.09 187.95,-202.65 193.94,-193.91 187.18,-192.09"/>
</a>
</g>
</g>
</g>
</svg>

<g id="navigator" transform="translate(0 0)" fill="#404254">
  <rect fill="#f2f5e9" fill-opacity="0.5" stroke="#606060" stroke-width=".5" x="0" y="0" width="60" height="60"/>
  <use id="zoomplus" xlink:href="#zoomPlus" x="17" y="9" onmousedown="handleZoom(evt,'in')"/>
  <use id="zoomminus" xlink:href="#zoomMin" x="42" y="9" onmousedown="handleZoom(evt,'out')"/>
  <use id="reset" xlink:href="#resetDef" x="30" y="36" onmousedown="handleReset()"/>
   <use id="arrowup" xlink:href="#arrowUp" x="0" y="0" onmousedown="handlePan(0,-1)"/>
  <use id="arrowright" xlink:href="#arrowRight" x="0" y="0" onmousedown="handlePan(1,0)"/>
  <use id="arrowdown" xlink:href="#arrowDown" x="0" y="0" onmousedown="handlePan(0,1)"/>
  <use id="arrowleft" xlink:href="#arrowLeft" x="0" y="0" onmousedown="handlePan(-1,0)"/>
</g>
<svg viewBox="0 0 15 15" width="100%" height="30px" preserveAspectRatio="xMaxYMin meet">
 <g id="arrow_out" transform="scale(0.3 0.3)">
  <a xlink:href="class_instance__inherit__graph_org.svg" target="_base">
   <rect id="button" ry="5" rx="5" y="6" x="6" height="38" width="38"
        fill="#f2f5e9" fill-opacity="0.5" stroke="#606060" stroke-width="1.0"/>
   <path id="arrow"
     d="M 11.500037,31.436501 C 11.940474,20.09759 22.043105,11.32322 32.158766,21.979434 L 37.068811,17.246167 C 37.068811,17.246167 37.088388,32 37.088388,32 L 22.160133,31.978069 C 22.160133,31.978069 26.997745,27.140456 26.997745,27.140456 C 18.528582,18.264221 13.291696,25.230495 11.500037,31.436501 z"
     style="fill:#404040;"/>
  </a>
 </g>
</svg>

<style type='text/css'>
<![CDATA[
[data-mouse-over-selected='false'] { opacity: 0.7; }
[data-mouse-over-selected='true']  { opacity: 1.0; }
]]>
</style>
<script type="application/ecmascript"><![CDATA[
document.addEventListener('DOMContentLoaded', (event) => {
  highlightEdges();
  highlightAdjacentNodes();
});
]]></script>
</svg>
