<?xml version="1.0" encoding="UTF-8" standalone="no"?>
<!DOCTYPE svg PUBLIC "-//W3C//DTD SVG 1.1//EN"
 "http://www.w3.org/Graphics/SVG/1.1/DTD/svg11.dtd">
<!-- Generated by graphviz version 12.2.0 (20241103.1931)
 -->
<!-- Title: TagPanel Pages: 1 -->
<!--zoomable 712 -->

<svg id="main" version="1.1" xmlns="http://www.w3.org/2000/svg" xmlns:xlink="http://www.w3.org/1999/xlink" xml:space="preserve" onload="init(evt)">

<style type="text/css"><![CDATA[
.node, .edge {opacity: 0.7;}
.node.selected, .edge.selected {opacity: 1;}
.edge:hover path { stroke: red; }
.edge:hover polygon { stroke: red; fill: red; }
]]></style>

<defs>
  <circle id="rim" cx="0" cy="0" r="7"/>
  <circle id="rim2" cx="0" cy="0" r="3.5"/>
  <g id="zoomPlus">
    <use xlink:href="#rim" fill="#404040"><set attributeName="fill" to="#808080" begin="zoomplus.mouseover" end="zoomplus.mouseout"/></use>
    <path d="M-4,0h8M0,-4v8" fill="none" stroke="white" stroke-width="1.5" pointer-events="none"/>
  </g>
  <g id="zoomMin">
    <use xlink:href="#rim" fill="#404040"><set attributeName="fill" to="#808080" begin="zoomminus.mouseover" end="zoomminus.mouseout"/></use>
    <path d="M-4,0h8" fill="none" stroke="white" stroke-width="1.5" pointer-events="none"/>
  </g>
  <g id="arrowUp" transform="translate(30 24)">
    <use xlink:href="#rim"/>
    <path pointer-events="none" fill="none" stroke="white" stroke-width="1.5" d="M0,-3.0v7 M-2.5,-0.5L0,-3.0L2.5,-0.5"/>
  </g>
  <g id="arrowRight" transform="rotate(90) translate(36 -43)">
    <use xlink:href="#rim"/>
    <path pointer-events="none" fill="none" stroke="white" stroke-width="1.5" d="M0,-3.0v7 M-2.5,-0.5L0,-3.0L2.5,-0.5"/>
  </g>
  <g id="arrowDown" transform="rotate(180) translate(-30 -48)">
    <use xlink:href="#rim"/>
    <path pointer-events="none" fill="none" stroke="white" stroke-width="1.5" d="M0,-3.0v7 M-2.5,-0.5L0,-3.0L2.5,-0.5"/>
  </g>
  <g id="arrowLeft" transform="rotate(270) translate(-36 17)">
    <use xlink:href="#rim"/>
    <path pointer-events="none" fill="none" stroke="white" stroke-width="1.5" d="M0,-3.0v7 M-2.5,-0.5L0,-3.0L2.5,-0.5"/>
  </g>
  <g id="resetDef">
    <use xlink:href="#rim2" fill="#404040"><set attributeName="fill" to="#808080" begin="reset.mouseover" end="reset.mouseout"/></use>
  </g>
</defs>
<script type="application/ecmascript">
var viewWidth = 184;
var viewHeight = 712;
var sectionId = 'dynsection-1';
</script>
<script type="application/ecmascript" xlink:href="svg.min.js"/>
<svg id="graph" class="graph">
<g id="viewport">
<title>TagPanel</title>
<!-- Node1 -->
<g id="Node000001" class="node">
<title>Node1</title>
<g id="a_Node000001"><a xlink:title=" ">
<polygon fill="#999999" stroke="none" points="175.5,-616 0,-616 0,0 175.5,0 175.5,-616"/>
<text text-anchor="start" x="67.5" y="-602.5" font-family="Helvetica,sans-Serif" font-size="10.00">TagPanel</text>
<text text-anchor="start" x="4" y="-586.5" font-family="Helvetica,sans-Serif" font-size="10.00">+</text>
<text text-anchor="start" x="14" y="-586.5" font-family="Helvetica,sans-Serif" font-size="10.00">HoverPosition previousHover</text>
<text text-anchor="start" x="4" y="-570.5" font-family="Helvetica,sans-Serif" font-size="10.00">+</text>
<text text-anchor="start" x="14" y="-570.5" font-family="Helvetica,sans-Serif" font-size="10.00">bool isInserting</text>
<text text-anchor="start" x="4" y="-554.5" font-family="Helvetica,sans-Serif" font-size="10.00">+</text>
<text text-anchor="start" x="14" y="-554.5" font-family="Helvetica,sans-Serif" font-size="10.00">bool isHovering</text>
<text text-anchor="start" x="4.38" y="-538.5" font-family="Helvetica,sans-Serif" font-size="10.00">#</text>
<text text-anchor="start" x="14" y="-538.5" font-family="Helvetica,sans-Serif" font-size="10.00">wxButton * cloneButton</text>
<text text-anchor="start" x="4.38" y="-522.5" font-family="Helvetica,sans-Serif" font-size="10.00">#</text>
<text text-anchor="start" x="14" y="-522.5" font-family="Helvetica,sans-Serif" font-size="10.00">wxButton * cutButton</text>
<text text-anchor="start" x="4.38" y="-506.5" font-family="Helvetica,sans-Serif" font-size="10.00">#</text>
<text text-anchor="start" x="14" y="-506.5" font-family="Helvetica,sans-Serif" font-size="10.00">wxButton * moveUpButton</text>
<text text-anchor="start" x="4.38" y="-490.5" font-family="Helvetica,sans-Serif" font-size="10.00">#</text>
<text text-anchor="start" x="14" y="-490.5" font-family="Helvetica,sans-Serif" font-size="10.00">wxButton * moveDownButton</text>
<text text-anchor="start" x="4.38" y="-474.5" font-family="Helvetica,sans-Serif" font-size="10.00">#</text>
<text text-anchor="start" x="14" y="-474.5" font-family="Helvetica,sans-Serif" font-size="10.00">wxButton * deleteButton</text>
<text text-anchor="start" x="4.38" y="-458.5" font-family="Helvetica,sans-Serif" font-size="10.00">#</text>
<text text-anchor="start" x="14" y="-458.5" font-family="Helvetica,sans-Serif" font-size="10.00">wxPoint insertPoint</text>
<text text-anchor="start" x="4.38" y="-442.5" font-family="Helvetica,sans-Serif" font-size="10.00">#</text>
<text text-anchor="start" x="14" y="-442.5" font-family="Helvetica,sans-Serif" font-size="10.00">wxSize insertRect</text>
<text text-anchor="start" x="4.38" y="-426.5" font-family="Helvetica,sans-Serif" font-size="10.00">#</text>
<text text-anchor="start" x="14" y="-426.5" font-family="Helvetica,sans-Serif" font-size="10.00">wxColour panelColor</text>
<text text-anchor="start" x="4.38" y="-410.5" font-family="Helvetica,sans-Serif" font-size="10.00">#</text>
<text text-anchor="start" x="14" y="-410.5" font-family="Helvetica,sans-Serif" font-size="10.00">wxColour tagNameColor</text>
<text text-anchor="start" x="4.38" y="-394.5" font-family="Helvetica,sans-Serif" font-size="10.00">#</text>
<text text-anchor="start" x="14" y="-394.5" font-family="Helvetica,sans-Serif" font-size="10.00">wxString tagName</text>
<text text-anchor="start" x="14" y="-378.5" font-family="Helvetica,sans-Serif" font-size="10.00">and 8 more...</text>
<text text-anchor="start" x="4" y="-362.5" font-family="Helvetica,sans-Serif" font-size="10.00">+</text>
<text text-anchor="start" x="14" y="-362.5" font-family="Helvetica,sans-Serif" font-size="10.00">TagPanel(bool topConstructor</text>
<text text-anchor="start" x="14" y="-350.5" font-family="Helvetica,sans-Serif" font-size="10.00">=true)</text>
<text text-anchor="start" x="4" y="-334.5" font-family="Helvetica,sans-Serif" font-size="10.00">+</text>
<text text-anchor="start" x="14" y="-334.5" font-family="Helvetica,sans-Serif" font-size="10.00">TagPanel(wxWindow</text>
<text text-anchor="start" x="14" y="-322.5" font-family="Helvetica,sans-Serif" font-size="10.00"> *parentWindow, bool</text>
<text text-anchor="start" x="14" y="-310.5" font-family="Helvetica,sans-Serif" font-size="10.00"> topConstructor=true)</text>
<text text-anchor="start" x="4" y="-294.5" font-family="Helvetica,sans-Serif" font-size="10.00">+</text>
<text text-anchor="start" x="14" y="-294.5" font-family="Helvetica,sans-Serif" font-size="10.00">TagPanel(const TagPanel</text>
<text text-anchor="start" x="14" y="-282.5" font-family="Helvetica,sans-Serif" font-size="10.00"> &amp;toCopy, bool topConstructor=true)</text>
<text text-anchor="start" x="4" y="-266.5" font-family="Helvetica,sans-Serif" font-size="10.00">+</text>
<text text-anchor="start" x="14" y="-266.5" font-family="Helvetica,sans-Serif" font-size="10.00">virtual TagPanel *</text>
<text text-anchor="start" x="14" y="-254.5" font-family="Helvetica,sans-Serif" font-size="10.00"> clone()</text>
<text text-anchor="start" x="4" y="-238.5" font-family="Helvetica,sans-Serif" font-size="10.00">+</text>
<text text-anchor="start" x="14" y="-238.5" font-family="Helvetica,sans-Serif" font-size="10.00">virtual int getTagHeight()</text>
<text text-anchor="start" x="4" y="-222.5" font-family="Helvetica,sans-Serif" font-size="10.00">+</text>
<text text-anchor="start" x="14" y="-222.5" font-family="Helvetica,sans-Serif" font-size="10.00">virtual void setTagName()</text>
<text text-anchor="start" x="4" y="-206.5" font-family="Helvetica,sans-Serif" font-size="10.00">+</text>
<text text-anchor="start" x="14" y="-206.5" font-family="Helvetica,sans-Serif" font-size="10.00">void setTagNameCustom</text>
<text text-anchor="start" x="14" y="-194.5" font-family="Helvetica,sans-Serif" font-size="10.00">(const std::string &amp;name)</text>
<text text-anchor="start" x="4" y="-178.5" font-family="Helvetica,sans-Serif" font-size="10.00">+</text>
<text text-anchor="start" x="14" y="-178.5" font-family="Helvetica,sans-Serif" font-size="10.00">virtual void setTagLine()</text>
<text text-anchor="start" x="4" y="-162.5" font-family="Helvetica,sans-Serif" font-size="10.00">+</text>
<text text-anchor="start" x="14" y="-162.5" font-family="Helvetica,sans-Serif" font-size="10.00">virtual void setColors()</text>
<text text-anchor="start" x="4" y="-146.5" font-family="Helvetica,sans-Serif" font-size="10.00">+</text>
<text text-anchor="start" x="14" y="-146.5" font-family="Helvetica,sans-Serif" font-size="10.00">void initLineSizer()</text>
<text text-anchor="start" x="14" y="-130.5" font-family="Helvetica,sans-Serif" font-size="10.00">and 41 more...</text>
<text text-anchor="start" x="4" y="-114.5" font-family="Helvetica,sans-Serif" font-size="10.00">+</text>
<text text-anchor="start" x="14" y="-114.5" font-family="Helvetica,sans-Serif" font-size="10.00">static int getIndexOf</text>
<text text-anchor="start" x="14" y="-102.5" font-family="Helvetica,sans-Serif" font-size="10.00">(wxSizer *sizer, wxSizerItem</text>
<text text-anchor="start" x="14" y="-90.5" font-family="Helvetica,sans-Serif" font-size="10.00"> *item)</text>
<text text-anchor="start" x="4" y="-74.5" font-family="Helvetica,sans-Serif" font-size="10.00">+</text>
<text text-anchor="start" x="14" y="-74.5" font-family="Helvetica,sans-Serif" font-size="10.00">static void init(TagPanel</text>
<text text-anchor="start" x="14" y="-62.5" font-family="Helvetica,sans-Serif" font-size="10.00"> *tag)</text>
<text text-anchor="start" x="4" y="-46.5" font-family="Helvetica,sans-Serif" font-size="10.00">+</text>
<text text-anchor="start" x="14" y="-46.5" font-family="Helvetica,sans-Serif" font-size="10.00">static bool isTagPanel</text>
<text text-anchor="start" x="14" y="-34.5" font-family="Helvetica,sans-Serif" font-size="10.00">(wxWindow *window)</text>
<text text-anchor="start" x="4" y="-18.5" font-family="Helvetica,sans-Serif" font-size="10.00">+</text>
<text text-anchor="start" x="14" y="-18.5" font-family="Helvetica,sans-Serif" font-size="10.00">static TagPanel * getTag</text>
<text text-anchor="start" x="14" y="-6.5" font-family="Helvetica,sans-Serif" font-size="10.00">Panel(wxWindow *window)</text>
<polygon fill="#666666" stroke="#666666" points="0,-598 0,-598 175.5,-598 175.5,-598 0,-598"/>
<polygon fill="#666666" stroke="#666666" points="0,-374 0,-374 12,-374 12,-374 0,-374"/>
<polygon fill="#666666" stroke="#666666" points="12,-374 12,-374 175.5,-374 175.5,-374 12,-374"/>
<polygon fill="none" stroke="#666666" points="0,0 0,-616 175.5,-616 175.5,0 0,0"/>
</a>
</g>
</g>
<!-- Node2 -->
<g id="Node000002" class="node">
<title>Node2</title>
<g id="a_Node000002"><a xlink:title=" ">
<polygon fill="white" stroke="none" points="110.5,-704 65,-704 65,-652 110.5,-652 110.5,-704"/>
<text text-anchor="start" x="69" y="-690.5" font-family="Helvetica,sans-Serif" font-size="10.00">wxPanel</text>
<text text-anchor="start" x="86.25" y="-674.5" font-family="Helvetica,sans-Serif" font-size="10.00"> </text>
<text text-anchor="start" x="86.25" y="-658.5" font-family="Helvetica,sans-Serif" font-size="10.00"> </text>
<polygon fill="#666666" stroke="#666666" points="65,-686 65,-686 110.5,-686 110.5,-686 65,-686"/>
<polygon fill="#666666" stroke="#666666" points="65,-670 65,-670 110.5,-670 110.5,-670 65,-670"/>
<polygon fill="none" stroke="#666666" points="65,-652 65,-704 110.5,-704 110.5,-652 65,-652"/>
</a>
</g>
</g>
<!-- Node2&#45;&gt;Node1 -->
<g id="edge1_Node000001_Node000002" class="edge">
<title>Node2&#45;&gt;Node1</title>
<g id="a_edge1_Node000001_Node000002"><a xlink:title=" ">
<path fill="none" stroke="#63b8ff" d="M87.75,-641.01C87.75,-633.54 87.75,-625.12 87.75,-615.94"/>
<polygon fill="none" stroke="#63b8ff" points="84.25,-640.77 87.75,-650.77 91.25,-640.77 84.25,-640.77"/>
</a>
</g>
</g>
</g>
</svg>

<g id="navigator" transform="translate(0 0)" fill="#404254">
  <rect fill="#f2f5e9" fill-opacity="0.5" stroke="#606060" stroke-width=".5" x="0" y="0" width="60" height="60"/>
  <use id="zoomplus" xlink:href="#zoomPlus" x="17" y="9" onmousedown="handleZoom(evt,'in')"/>
  <use id="zoomminus" xlink:href="#zoomMin" x="42" y="9" onmousedown="handleZoom(evt,'out')"/>
  <use id="reset" xlink:href="#resetDef" x="30" y="36" onmousedown="handleReset()"/>
   <use id="arrowup" xlink:href="#arrowUp" x="0" y="0" onmousedown="handlePan(0,-1)"/>
  <use id="arrowright" xlink:href="#arrowRight" x="0" y="0" onmousedown="handlePan(1,0)"/>
  <use id="arrowdown" xlink:href="#arrowDown" x="0" y="0" onmousedown="handlePan(0,1)"/>
  <use id="arrowleft" xlink:href="#arrowLeft" x="0" y="0" onmousedown="handlePan(-1,0)"/>
</g>
<svg viewBox="0 0 15 15" width="100%" height="30px" preserveAspectRatio="xMaxYMin meet">
 <g id="arrow_out" transform="scale(0.3 0.3)">
  <a xlink:href="class_tag_panel__coll__graph_org.svg" target="_base">
   <rect id="button" ry="5" rx="5" y="6" x="6" height="38" width="38"
        fill="#f2f5e9" fill-opacity="0.5" stroke="#606060" stroke-width="1.0"/>
   <path id="arrow"
     d="M 11.500037,31.436501 C 11.940474,20.09759 22.043105,11.32322 32.158766,21.979434 L 37.068811,17.246167 C 37.068811,17.246167 37.088388,32 37.088388,32 L 22.160133,31.978069 C 22.160133,31.978069 26.997745,27.140456 26.997745,27.140456 C 18.528582,18.264221 13.291696,25.230495 11.500037,31.436501 z"
     style="fill:#404040;"/>
  </a>
 </g>
</svg>

<style type='text/css'>
<![CDATA[
[data-mouse-over-selected='false'] { opacity: 0.7; }
[data-mouse-over-selected='true']  { opacity: 1.0; }
]]>
</style>
<script type="application/ecmascript"><![CDATA[
document.addEventListener('DOMContentLoaded', (event) => {
  highlightEdges();
  highlightAdjacentNodes();
});
]]></script>
</svg>
