<?xml version="1.0" encoding="UTF-8" standalone="no"?>
<!DOCTYPE svg PUBLIC "-//W3C//DTD SVG 1.1//EN"
 "http://www.w3.org/Graphics/SVG/1.1/DTD/svg11.dtd">
<!-- Generated by graphviz version 12.2.0 (20241103.1931)
 -->
<!-- Title: Interactions::templateFound Pages: 1 -->
<svg width="989pt" height="122pt"
 viewBox="0.00 0.00 989.00 122.00" xmlns="http://www.w3.org/2000/svg" xmlns:xlink="http://www.w3.org/1999/xlink">
<g id="graph0" class="graph" transform="scale(1 1) rotate(0) translate(4 118)">
<title>Interactions::templateFound</title>
<!-- Node1 -->
<g id="Node000001" class="node">
<title>Node1</title>
<g id="a_Node000001"><a xlink:title=" ">
<polygon fill="#999999" stroke="#666666" points="137.5,-58 0,-58 0,-38 137.5,-38 137.5,-58"/>
<text text-anchor="middle" x="68.75" y="-44.5" font-family="Helvetica,sans-Serif" font-size="10.00">Interactions::templateFound</text>
</a>
</g>
</g>
<!-- Node2 -->
<g id="Node000002" class="node">
<title>Node2</title>
<g id="a_Node000002"><a xlink:href="class_interactions.html#aae6172962092f278714536142e987cde" target="_top" xlink:title=" ">
<polygon fill="white" stroke="#666666" points="272.75,-96 179.5,-96 179.5,-76 272.75,-76 272.75,-96"/>
<text text-anchor="middle" x="226.12" y="-82.5" font-family="Helvetica,sans-Serif" font-size="10.00">Interactions::click</text>
</a>
</g>
</g>
<!-- Node1&#45;&gt;Node2 -->
<g id="edge1_Node000001_Node000002" class="edge">
<title>Node1&#45;&gt;Node2</title>
<g id="a_edge1_Node000001_Node000002"><a xlink:title=" ">
<path fill="none" stroke="#63b8ff" d="M112.62,-58.48C130.79,-62.93 152.17,-68.16 171.38,-72.85"/>
<polygon fill="#63b8ff" stroke="#63b8ff" points="170.38,-76.21 180.93,-75.19 172.04,-69.41 170.38,-76.21"/>
</a>
</g>
</g>
<!-- Node3 -->
<g id="Node000003" class="node">
<title>Node3</title>
<g id="a_Node000003"><a xlink:href="class_interactions.html#a9044fca002a4287ad1a89ce0422a68e5" target="_top" xlink:title=" ">
<polygon fill="white" stroke="#666666" points="278.75,-58 173.5,-58 173.5,-38 278.75,-38 278.75,-58"/>
<text text-anchor="middle" x="226.12" y="-44.5" font-family="Helvetica,sans-Serif" font-size="10.00">Interactions::gSwipe</text>
</a>
</g>
</g>
<!-- Node1&#45;&gt;Node3 -->
<g id="edge3_Node000001_Node000003" class="edge">
<title>Node1&#45;&gt;Node3</title>
<g id="a_edge3_Node000001_Node000003"><a xlink:title=" ">
<path fill="none" stroke="#63b8ff" d="M137.9,-48C145.9,-48 154.03,-48 161.96,-48"/>
<polygon fill="#63b8ff" stroke="#63b8ff" points="161.87,-51.5 171.87,-48 161.87,-44.5 161.87,-51.5"/>
</a>
</g>
</g>
<!-- Node12 -->
<g id="Node000012" class="node">
<title>Node12</title>
<g id="a_Node000012"><a xlink:href="class_interactions.html#abd5b5d8a44970e1333e3611e302f166c" target="_top" xlink:title=" ">
<polygon fill="white" stroke="#666666" points="271.62,-20 180.62,-20 180.62,0 271.62,0 271.62,-20"/>
<text text-anchor="middle" x="226.12" y="-6.5" font-family="Helvetica,sans-Serif" font-size="10.00">Interactions::wait</text>
</a>
</g>
</g>
<!-- Node1&#45;&gt;Node12 -->
<g id="edge12_Node000001_Node000012" class="edge">
<title>Node1&#45;&gt;Node12</title>
<g id="a_edge12_Node000001_Node000012"><a xlink:title=" ">
<path fill="none" stroke="#63b8ff" d="M112.62,-37.52C130.79,-33.07 152.17,-27.84 171.38,-23.15"/>
<polygon fill="#63b8ff" stroke="#63b8ff" points="172.04,-26.59 180.93,-20.81 170.38,-19.79 172.04,-26.59"/>
</a>
</g>
</g>
<!-- Node2&#45;&gt;Node2 -->
<g id="edge2_Node000002_Node000002" class="edge">
<title>Node2&#45;&gt;Node2</title>
<g id="a_edge2_Node000002_Node000002"><a xlink:title=" ">
<path fill="none" stroke="#63b8ff" d="M208.75,-96.34C201.32,-104.98 207.11,-114 226.12,-114 236.52,-114 242.97,-111.3 245.46,-107.44"/>
<polygon fill="#63b8ff" stroke="#63b8ff" points="248.95,-107.07 243.77,-97.83 242.05,-108.28 248.95,-107.07"/>
</a>
</g>
</g>
<!-- Node4 -->
<g id="Node000004" class="node">
<title>Node4</title>
<g id="a_Node000004"><a xlink:href="fadb_8cpp.html#aaaa05d37f22f833c0f941bf81f963504" target="_top" xlink:title=" ">
<polygon fill="white" stroke="#666666" points="356.25,-58 314.75,-58 314.75,-38 356.25,-38 356.25,-58"/>
<text text-anchor="middle" x="335.5" y="-44.5" font-family="Helvetica,sans-Serif" font-size="10.00">swipe</text>
</a>
</g>
</g>
<!-- Node3&#45;&gt;Node4 -->
<g id="edge4_Node000003_Node000004" class="edge">
<title>Node3&#45;&gt;Node4</title>
<g id="a_edge4_Node000003_Node000004"><a xlink:title=" ">
<path fill="none" stroke="#63b8ff" d="M279.24,-48C287.35,-48 295.5,-48 302.97,-48"/>
<polygon fill="#63b8ff" stroke="#63b8ff" points="302.86,-51.5 312.86,-48 302.86,-44.5 302.86,-51.5"/>
</a>
</g>
</g>
<!-- Node5 -->
<g id="Node000005" class="node">
<title>Node5</title>
<g id="a_Node000005"><a xlink:href="fadb_8cpp.html#a735aed1798e65a5276053c44211ce025" target="_top" xlink:title=" ">
<polygon fill="white" stroke="#666666" points="429.25,-58 392.25,-58 392.25,-38 429.25,-38 429.25,-58"/>
<text text-anchor="middle" x="410.75" y="-44.5" font-family="Helvetica,sans-Serif" font-size="10.00">input</text>
</a>
</g>
</g>
<!-- Node4&#45;&gt;Node5 -->
<g id="edge5_Node000004_Node000005" class="edge">
<title>Node4&#45;&gt;Node5</title>
<g id="a_edge5_Node000004_Node000005"><a xlink:title=" ">
<path fill="none" stroke="#63b8ff" d="M356.52,-48C363.92,-48 372.46,-48 380.51,-48"/>
<polygon fill="#63b8ff" stroke="#63b8ff" points="380.25,-51.5 390.25,-48 380.25,-44.5 380.25,-51.5"/>
</a>
</g>
</g>
<!-- Node6 -->
<g id="Node000006" class="node">
<title>Node6</title>
<g id="a_Node000006"><a xlink:href="fadb_8cpp.html#a0766d8b572678e0a830d45a4dcfb9d4d" target="_top" xlink:title=" ">
<polygon fill="white" stroke="#666666" points="575.75,-58 465.25,-58 465.25,-38 575.75,-38 575.75,-58"/>
<text text-anchor="middle" x="520.5" y="-44.5" font-family="Helvetica,sans-Serif" font-size="10.00">runAdbLocalhostShell</text>
</a>
</g>
</g>
<!-- Node5&#45;&gt;Node6 -->
<g id="edge6_Node000005_Node000006" class="edge">
<title>Node5&#45;&gt;Node6</title>
<g id="a_edge6_Node000005_Node000006"><a xlink:title=" ">
<path fill="none" stroke="#63b8ff" d="M429.54,-48C436.44,-48 444.79,-48 453.59,-48"/>
<polygon fill="#63b8ff" stroke="#63b8ff" points="453.39,-51.5 463.39,-48 453.39,-44.5 453.39,-51.5"/>
</a>
</g>
</g>
<!-- Node7 -->
<g id="Node000007" class="node">
<title>Node7</title>
<g id="a_Node000007"><a xlink:href="fadb_8cpp.html#ac6339b59ba8238f7483dece7f3fdf51b" target="_top" xlink:title=" ">
<polygon fill="white" stroke="#666666" points="700.5,-58 611.75,-58 611.75,-38 700.5,-38 700.5,-58"/>
<text text-anchor="middle" x="656.12" y="-44.5" font-family="Helvetica,sans-Serif" font-size="10.00">runAdbLocalhost</text>
</a>
</g>
</g>
<!-- Node6&#45;&gt;Node7 -->
<g id="edge7_Node000006_Node000007" class="edge">
<title>Node6&#45;&gt;Node7</title>
<g id="a_edge7_Node000006_Node000007"><a xlink:title=" ">
<path fill="none" stroke="#63b8ff" d="M576.24,-48C584.08,-48 592.16,-48 600.01,-48"/>
<polygon fill="#63b8ff" stroke="#63b8ff" points="599.79,-51.5 609.79,-48 599.79,-44.5 599.79,-51.5"/>
</a>
</g>
</g>
<!-- Node8 -->
<g id="Node000008" class="node">
<title>Node8</title>
<g id="a_Node000008"><a xlink:href="fadb_8cpp.html#a383ae5fedc9f597a03c74c729a2eb740" target="_top" xlink:title=" ">
<polygon fill="white" stroke="#666666" points="783.25,-58 736.5,-58 736.5,-38 783.25,-38 783.25,-58"/>
<text text-anchor="middle" x="759.88" y="-44.5" font-family="Helvetica,sans-Serif" font-size="10.00">runAdb</text>
</a>
</g>
</g>
<!-- Node7&#45;&gt;Node8 -->
<g id="edge8_Node000007_Node000008" class="edge">
<title>Node7&#45;&gt;Node8</title>
<g id="a_edge8_Node000007_Node000008"><a xlink:title=" ">
<path fill="none" stroke="#63b8ff" d="M700.87,-48C708.86,-48 717.08,-48 724.74,-48"/>
<polygon fill="#63b8ff" stroke="#63b8ff" points="724.68,-51.5 734.68,-48 724.68,-44.5 724.68,-51.5"/>
</a>
</g>
</g>
<!-- Node9 -->
<g id="Node000009" class="node">
<title>Node9</title>
<g id="a_Node000009"><a xlink:href="sys_commands_8cpp.html#a321eb7e335377aa7182bafc8a1605032" target="_top" xlink:title=" ">
<polygon fill="white" stroke="#666666" points="886.25,-58 819.25,-58 819.25,-38 886.25,-38 886.25,-58"/>
<text text-anchor="middle" x="852.75" y="-44.5" font-family="Helvetica,sans-Serif" font-size="10.00">receivePipe</text>
</a>
</g>
</g>
<!-- Node8&#45;&gt;Node9 -->
<g id="edge9_Node000008_Node000009" class="edge">
<title>Node8&#45;&gt;Node9</title>
<g id="a_edge9_Node000008_Node000009"><a xlink:title=" ">
<path fill="none" stroke="#63b8ff" d="M783.34,-48C790.71,-48 799.18,-48 807.58,-48"/>
<polygon fill="#63b8ff" stroke="#63b8ff" points="807.39,-51.5 817.39,-48 807.39,-44.5 807.39,-51.5"/>
</a>
</g>
</g>
<!-- Node10 -->
<g id="Node000010" class="node">
<title>Node10</title>
<g id="a_Node000010"><a xlink:href="sys_commands_8cpp.html#a4771c79171a937893508dabadadbe099" target="_top" xlink:title=" ">
<polygon fill="white" stroke="#666666" points="981,-77 922.25,-77 922.25,-57 981,-57 981,-77"/>
<text text-anchor="middle" x="951.62" y="-63.5" font-family="Helvetica,sans-Serif" font-size="10.00">closePipe</text>
</a>
</g>
</g>
<!-- Node9&#45;&gt;Node10 -->
<g id="edge10_Node000009_Node000010" class="edge">
<title>Node9&#45;&gt;Node10</title>
<g id="a_edge10_Node000009_Node000010"><a xlink:title=" ">
<path fill="none" stroke="#63b8ff" d="M886.55,-54.43C894.31,-55.95 902.67,-57.59 910.71,-59.17"/>
<polygon fill="#63b8ff" stroke="#63b8ff" points="909.78,-62.56 920.27,-61.05 911.13,-55.69 909.78,-62.56"/>
</a>
</g>
</g>
<!-- Node11 -->
<g id="Node000011" class="node">
<title>Node11</title>
<g id="a_Node000011"><a xlink:href="sys_commands_8cpp.html#a3499ce0cd7e4ed28b3c5461a4d3aec84" target="_top" xlink:title=" ">
<polygon fill="white" stroke="#666666" points="979.88,-39 923.38,-39 923.38,-19 979.88,-19 979.88,-39"/>
<text text-anchor="middle" x="951.62" y="-25.5" font-family="Helvetica,sans-Serif" font-size="10.00">openPipe</text>
</a>
</g>
</g>
<!-- Node9&#45;&gt;Node11 -->
<g id="edge11_Node000009_Node000011" class="edge">
<title>Node9&#45;&gt;Node11</title>
<g id="a_edge11_Node000009_Node000011"><a xlink:title=" ">
<path fill="none" stroke="#63b8ff" d="M886.55,-41.57C894.7,-39.97 903.51,-38.24 911.92,-36.59"/>
<polygon fill="#63b8ff" stroke="#63b8ff" points="912.4,-40.06 921.54,-34.7 911.05,-33.19 912.4,-40.06"/>
</a>
</g>
</g>
</g>
</svg>
