<?xml version="1.0" encoding="UTF-8" standalone="no"?>
<!DOCTYPE svg PUBLIC "-//W3C//DTD SVG 1.1//EN"
 "http://www.w3.org/Graphics/SVG/1.1/DTD/svg11.dtd">
<!-- Generated by graphviz version 12.2.0 (20241103.1931)
 -->
<!-- Title: BotConfig::updateDataBluestacks Pages: 1 -->
<!--zoomable 236 -->

<svg id="main" version="1.1" xmlns="http://www.w3.org/2000/svg" xmlns:xlink="http://www.w3.org/1999/xlink" xml:space="preserve" onload="init(evt)">

<style type="text/css"><![CDATA[
.node, .edge {opacity: 0.7;}
.node.selected, .edge.selected {opacity: 1;}
.edge:hover path { stroke: red; }
.edge:hover polygon { stroke: red; fill: red; }
]]></style>

<defs>
  <circle id="rim" cx="0" cy="0" r="7"/>
  <circle id="rim2" cx="0" cy="0" r="3.5"/>
  <g id="zoomPlus">
    <use xlink:href="#rim" fill="#404040"><set attributeName="fill" to="#808080" begin="zoomplus.mouseover" end="zoomplus.mouseout"/></use>
    <path d="M-4,0h8M0,-4v8" fill="none" stroke="white" stroke-width="1.5" pointer-events="none"/>
  </g>
  <g id="zoomMin">
    <use xlink:href="#rim" fill="#404040"><set attributeName="fill" to="#808080" begin="zoomminus.mouseover" end="zoomminus.mouseout"/></use>
    <path d="M-4,0h8" fill="none" stroke="white" stroke-width="1.5" pointer-events="none"/>
  </g>
  <g id="arrowUp" transform="translate(30 24)">
    <use xlink:href="#rim"/>
    <path pointer-events="none" fill="none" stroke="white" stroke-width="1.5" d="M0,-3.0v7 M-2.5,-0.5L0,-3.0L2.5,-0.5"/>
  </g>
  <g id="arrowRight" transform="rotate(90) translate(36 -43)">
    <use xlink:href="#rim"/>
    <path pointer-events="none" fill="none" stroke="white" stroke-width="1.5" d="M0,-3.0v7 M-2.5,-0.5L0,-3.0L2.5,-0.5"/>
  </g>
  <g id="arrowDown" transform="rotate(180) translate(-30 -48)">
    <use xlink:href="#rim"/>
    <path pointer-events="none" fill="none" stroke="white" stroke-width="1.5" d="M0,-3.0v7 M-2.5,-0.5L0,-3.0L2.5,-0.5"/>
  </g>
  <g id="arrowLeft" transform="rotate(270) translate(-36 17)">
    <use xlink:href="#rim"/>
    <path pointer-events="none" fill="none" stroke="white" stroke-width="1.5" d="M0,-3.0v7 M-2.5,-0.5L0,-3.0L2.5,-0.5"/>
  </g>
  <g id="resetDef">
    <use xlink:href="#rim2" fill="#404040"><set attributeName="fill" to="#808080" begin="reset.mouseover" end="reset.mouseout"/></use>
  </g>
</defs>
<script type="application/ecmascript">
var viewWidth = 910;
var viewHeight = 236;
var sectionId = 'dynsection-83';
</script>
<script type="application/ecmascript" xlink:href="svg.min.js"/>
<svg id="graph" class="graph">
<g id="viewport">
<title>BotConfig::updateDataBluestacks</title>
<!-- Node1 -->
<g id="Node000001" class="node">
<title>Node1</title>
<g id="a_Node000001"><a xlink:title=" ">
<polygon fill="#999999" stroke="#666666" points="164.5,-115 0,-115 0,-95 164.5,-95 164.5,-115"/>
<text text-anchor="middle" x="82.25" y="-101.5" font-family="Helvetica,sans-Serif" font-size="10.00">BotConfig::updateDataBluestacks</text>
</a>
</g>
</g>
<!-- Node2 -->
<g id="Node000002" class="node">
<title>Node2</title>
<g id="a_Node000002"><a xlink:href="class_bot_config.html#a70992bec079cbf9412e69b0f0e712ca2" target="_top" xlink:title=" ">
<polygon fill="white" stroke="#666666" points="345.5,-115 200.5,-115 200.5,-95 345.5,-95 345.5,-115"/>
<text text-anchor="middle" x="273" y="-101.5" font-family="Helvetica,sans-Serif" font-size="10.00">BotConfig::updateBoolBotFile</text>
</a>
</g>
</g>
<!-- Node1&#45;&gt;Node2 -->
<g id="edge1_Node000001_Node000002" class="edge">
<title>Node1&#45;&gt;Node2</title>
<g id="a_edge1_Node000001_Node000002"><a xlink:title=" ">
<path fill="none" stroke="#63b8ff" d="M164.94,-105C172.84,-105 180.86,-105 188.77,-105"/>
<polygon fill="#63b8ff" stroke="#63b8ff" points="188.75,-108.5 198.75,-105 188.75,-101.5 188.75,-108.5"/>
</a>
</g>
</g>
<!-- Node3 -->
<g id="Node000003" class="node">
<title>Node3</title>
<g id="a_Node000003"><a xlink:href="class_bot_config.html#a7b0b572a14dd5f0630b335041f83049a" target="_top" xlink:title=" ">
<polygon fill="white" stroke="#666666" points="495.75,-115 381.5,-115 381.5,-95 495.75,-95 495.75,-115"/>
<text text-anchor="middle" x="438.62" y="-101.5" font-family="Helvetica,sans-Serif" font-size="10.00">BotConfig::updateBool</text>
</a>
</g>
</g>
<!-- Node2&#45;&gt;Node3 -->
<g id="edge2_Node000002_Node000003" class="edge">
<title>Node2&#45;&gt;Node3</title>
<g id="a_edge2_Node000002_Node000003"><a xlink:title=" ">
<path fill="none" stroke="#63b8ff" d="M345.77,-105C353.73,-105 361.82,-105 369.73,-105"/>
<polygon fill="#63b8ff" stroke="#63b8ff" points="369.65,-108.5 379.65,-105 369.65,-101.5 369.65,-108.5"/>
</a>
</g>
</g>
<!-- Node4 -->
<g id="Node000004" class="node">
<title>Node4</title>
<g id="a_Node000004"><a xlink:href="class_bot_config.html#ab92a15dd3027a7f42b452cdf5eaf9529" target="_top" xlink:title=" ">
<polygon fill="white" stroke="#666666" points="652,-115 531.75,-115 531.75,-95 652,-95 652,-115"/>
<text text-anchor="middle" x="591.88" y="-101.5" font-family="Helvetica,sans-Serif" font-size="10.00">BotConfig::updateString</text>
</a>
</g>
</g>
<!-- Node3&#45;&gt;Node4 -->
<g id="edge3_Node000003_Node000004" class="edge">
<title>Node3&#45;&gt;Node4</title>
<g id="a_edge3_Node000003_Node000004"><a xlink:title=" ">
<path fill="none" stroke="#63b8ff" d="M495.94,-105C503.82,-105 512,-105 520.1,-105"/>
<polygon fill="#63b8ff" stroke="#63b8ff" points="519.96,-108.5 529.96,-105 519.96,-101.5 519.96,-108.5"/>
</a>
</g>
</g>
<!-- Node5 -->
<g id="Node000005" class="node">
<title>Node5</title>
<g id="a_Node000005"><a xlink:href="_text_manager_8cpp.html#a6a1f72a80ddaec746c95996b16e3a1dc" target="_top" xlink:title=" ">
<polygon fill="white" stroke="#666666" points="776.75,-210 691.75,-210 691.75,-190 776.75,-190 776.75,-210"/>
<text text-anchor="middle" x="734.25" y="-196.5" font-family="Helvetica,sans-Serif" font-size="10.00">getContentAfter</text>
</a>
</g>
</g>
<!-- Node4&#45;&gt;Node5 -->
<g id="edge4_Node000004_Node000005" class="edge">
<title>Node4&#45;&gt;Node5</title>
<g id="a_edge4_Node000004_Node000005"><a xlink:title=" ">
<path fill="none" stroke="#63b8ff" d="M603.83,-115.46C620.8,-131.23 654.92,-161.36 688,-181 690.14,-182.27 692.39,-183.5 694.68,-184.68"/>
<polygon fill="#63b8ff" stroke="#63b8ff" points="693,-187.76 703.53,-188.87 695.99,-181.43 693,-187.76"/>
</a>
</g>
</g>
<!-- Node7 -->
<g id="Node000007" class="node">
<title>Node7</title>
<g id="a_Node000007"><a xlink:href="_text_manager_8cpp.html#a377407ab4c28873a8e1956ea343f9cc2" target="_top" xlink:title=" ">
<polygon fill="white" stroke="#666666" points="780.5,-172 688,-172 688,-152 780.5,-152 780.5,-172"/>
<text text-anchor="middle" x="734.25" y="-158.5" font-family="Helvetica,sans-Serif" font-size="10.00">getContentBefore</text>
</a>
</g>
</g>
<!-- Node4&#45;&gt;Node7 -->
<g id="edge7_Node000004_Node000007" class="edge">
<title>Node4&#45;&gt;Node7</title>
<g id="a_edge7_Node000004_Node000007"><a xlink:title=" ">
<path fill="none" stroke="#63b8ff" d="M618.62,-115.45C640.69,-124.41 672.7,-137.41 697.29,-147.4"/>
<polygon fill="#63b8ff" stroke="#63b8ff" points="695.68,-150.52 706.26,-151.04 698.32,-144.04 695.68,-150.52"/>
</a>
</g>
</g>
<!-- Node8 -->
<g id="Node000008" class="node">
<title>Node8</title>
<g id="a_Node000008"><a xlink:href="_text_manager_8cpp.html#add36cc54cd9616a393a17b8961491477" target="_top" xlink:title=" ">
<polygon fill="white" stroke="#666666" points="774.12,-58 694.38,-58 694.38,-38 774.12,-38 774.12,-58"/>
<text text-anchor="middle" x="734.25" y="-44.5" font-family="Helvetica,sans-Serif" font-size="10.00">getFileContent</text>
</a>
</g>
</g>
<!-- Node4&#45;&gt;Node8 -->
<g id="edge9_Node000004_Node000008" class="edge">
<title>Node4&#45;&gt;Node8</title>
<g id="a_edge9_Node000004_Node000008"><a xlink:title=" ">
<path fill="none" stroke="#63b8ff" d="M618.62,-94.55C640.69,-85.59 672.7,-72.59 697.29,-62.6"/>
<polygon fill="#63b8ff" stroke="#63b8ff" points="698.32,-65.96 706.26,-58.96 695.68,-59.48 698.32,-65.96"/>
</a>
</g>
</g>
<!-- Node10 -->
<g id="Node000010" class="node">
<title>Node10</title>
<g id="a_Node000010"><a xlink:href="_text_manager_8cpp.html#af24bee60aa1d3d5b4ae3bf6ebd267ecd" target="_top" xlink:title=" ">
<polygon fill="white" stroke="#666666" points="758,-134 710.5,-134 710.5,-114 758,-114 758,-134"/>
<text text-anchor="middle" x="734.25" y="-120.5" font-family="Helvetica,sans-Serif" font-size="10.00">getLine</text>
</a>
</g>
</g>
<!-- Node4&#45;&gt;Node10 -->
<g id="edge11_Node000004_Node000010" class="edge">
<title>Node4&#45;&gt;Node10</title>
<g id="a_edge11_Node000004_Node000010"><a xlink:title=" ">
<path fill="none" stroke="#63b8ff" d="M652.41,-113.06C668.29,-115.21 684.91,-117.46 698.93,-119.35"/>
<polygon fill="#63b8ff" stroke="#63b8ff" points="698.13,-122.78 708.51,-120.65 699.07,-115.84 698.13,-122.78"/>
</a>
</g>
</g>
<!-- Node11 -->
<g id="Node000011" class="node">
<title>Node11</title>
<g id="a_Node000011"><a xlink:href="_text_manager_8cpp.html#a98e5aae2b6659418890caba4fad17d5e" target="_top" xlink:title=" ">
<polygon fill="white" stroke="#666666" points="774.12,-96 694.38,-96 694.38,-76 774.12,-76 774.12,-96"/>
<text text-anchor="middle" x="734.25" y="-82.5" font-family="Helvetica,sans-Serif" font-size="10.00">updateContent</text>
</a>
</g>
</g>
<!-- Node4&#45;&gt;Node11 -->
<g id="edge13_Node000004_Node000011" class="edge">
<title>Node4&#45;&gt;Node11</title>
<g id="a_edge13_Node000004_Node000011"><a xlink:title=" ">
<path fill="none" stroke="#63b8ff" d="M652.41,-96.94C662.5,-95.58 672.9,-94.17 682.74,-92.84"/>
<polygon fill="#63b8ff" stroke="#63b8ff" points="683.04,-96.33 692.48,-91.52 682.1,-89.39 683.04,-96.33"/>
</a>
</g>
</g>
<!-- Node12 -->
<g id="Node000012" class="node">
<title>Node12</title>
<g id="a_Node000012"><a xlink:href="_text_manager_8cpp.html#ab55140c566370b105b9bf81756293fa5" target="_top" xlink:title=" ">
<polygon fill="white" stroke="#666666" points="765.88,-20 702.62,-20 702.62,0 765.88,0 765.88,-20"/>
<text text-anchor="middle" x="734.25" y="-6.5" font-family="Helvetica,sans-Serif" font-size="10.00">writeToFile</text>
</a>
</g>
</g>
<!-- Node4&#45;&gt;Node12 -->
<g id="edge15_Node000004_Node000012" class="edge">
<title>Node4&#45;&gt;Node12</title>
<g id="a_edge15_Node000004_Node000012"><a xlink:title=" ">
<path fill="none" stroke="#63b8ff" d="M603.83,-94.54C620.8,-78.77 654.92,-48.64 688,-29 690.14,-27.73 692.39,-26.5 694.68,-25.32"/>
<polygon fill="#63b8ff" stroke="#63b8ff" points="695.99,-28.57 703.53,-21.13 693,-22.24 695.99,-28.57"/>
</a>
</g>
</g>
<!-- Node5&#45;&gt;Node5 -->
<g id="edge6_Node000005_Node000005" class="edge">
<title>Node5&#45;&gt;Node5</title>
<g id="a_edge6_Node000005_Node000005"><a xlink:title=" ">
<path fill="none" stroke="#63b8ff" d="M714.37,-210.34C705.87,-218.98 712.5,-228 734.25,-228 746.14,-228 753.52,-225.3 756.37,-221.44"/>
<polygon fill="#63b8ff" stroke="#63b8ff" points="759.83,-220.94 754.43,-211.82 752.97,-222.32 759.83,-220.94"/>
</a>
</g>
</g>
<!-- Node6 -->
<g id="Node000006" class="node">
<title>Node6</title>
<g id="a_Node000006"><a xlink:href="_text_manager_8cpp.html#afbb8972025ad14e914fdaafa26957439" target="_top" xlink:title=" ">
<polygon fill="white" stroke="#666666" points="883.88,-153 834.88,-153 834.88,-133 883.88,-133 883.88,-153"/>
<text text-anchor="middle" x="859.38" y="-139.5" font-family="Helvetica,sans-Serif" font-size="10.00">findPos</text>
</a>
</g>
</g>
<!-- Node5&#45;&gt;Node6 -->
<g id="edge5_Node000005_Node000006" class="edge">
<title>Node5&#45;&gt;Node6</title>
<g id="a_edge5_Node000005_Node000006"><a xlink:title=" ">
<path fill="none" stroke="#63b8ff" d="M760.73,-189.6C767.21,-186.87 774.14,-183.89 780.5,-181 796.11,-173.92 813.26,-165.61 827.47,-158.58"/>
<polygon fill="#63b8ff" stroke="#63b8ff" points="828.96,-161.75 836.35,-154.16 825.84,-155.48 828.96,-161.75"/>
</a>
</g>
</g>
<!-- Node7&#45;&gt;Node6 -->
<g id="edge8_Node000007_Node000006" class="edge">
<title>Node7&#45;&gt;Node6</title>
<g id="a_edge8_Node000007_Node000006"><a xlink:title=" ">
<path fill="none" stroke="#63b8ff" d="M780.75,-154.98C794.84,-152.8 810.14,-150.44 823.4,-148.4"/>
<polygon fill="#63b8ff" stroke="#63b8ff" points="823.61,-151.91 832.96,-146.92 822.54,-144.99 823.61,-151.91"/>
</a>
</g>
</g>
<!-- Node9 -->
<g id="Node000009" class="node">
<title>Node9</title>
<g id="a_Node000009"><a xlink:href="_text_manager_8cpp.html#a5e4308ca14d1f4cfc2456fc26b1361a8" target="_top" xlink:title=" ">
<polygon fill="white" stroke="#666666" points="900,-58 818.75,-58 818.75,-38 900,-38 900,-58"/>
<text text-anchor="middle" x="859.38" y="-44.5" font-family="Helvetica,sans-Serif" font-size="10.00">getIfstreamFile</text>
</a>
</g>
</g>
<!-- Node8&#45;&gt;Node9 -->
<g id="edge10_Node000008_Node000009" class="edge">
<title>Node8&#45;&gt;Node9</title>
<g id="a_edge10_Node000008_Node000009"><a xlink:title=" ">
<path fill="none" stroke="#63b8ff" d="M774.55,-48C784.99,-48 796.43,-48 807.4,-48"/>
<polygon fill="#63b8ff" stroke="#63b8ff" points="807.09,-51.5 817.09,-48 807.09,-44.5 807.09,-51.5"/>
</a>
</g>
</g>
<!-- Node10&#45;&gt;Node6 -->
<g id="edge12_Node000010_Node000006" class="edge">
<title>Node10&#45;&gt;Node6</title>
<g id="a_edge12_Node000010_Node000006"><a xlink:title=" ">
<path fill="none" stroke="#63b8ff" d="M758.41,-127.57C776.66,-130.39 802.42,-134.36 823.21,-137.57"/>
<polygon fill="#63b8ff" stroke="#63b8ff" points="822.57,-141.02 832.98,-139.08 823.64,-134.1 822.57,-141.02"/>
</a>
</g>
</g>
<!-- Node11&#45;&gt;Node6 -->
<g id="edge14_Node000011_Node000006" class="edge">
<title>Node11&#45;&gt;Node6</title>
<g id="a_edge14_Node000011_Node000006"><a xlink:title=" ">
<path fill="none" stroke="#63b8ff" d="M760.73,-96.4C767.21,-99.13 774.14,-102.11 780.5,-105 796.11,-112.08 813.26,-120.39 827.47,-127.42"/>
<polygon fill="#63b8ff" stroke="#63b8ff" points="825.84,-130.52 836.35,-131.84 828.96,-124.25 825.84,-130.52"/>
</a>
</g>
</g>
<!-- Node13 -->
<g id="Node000013" class="node">
<title>Node13</title>
<g id="a_Node000013"><a xlink:href="_text_manager_8cpp.html#a4a86df56d2737552b2fd63bfa85c5800" target="_top" xlink:title=" ">
<polygon fill="white" stroke="#666666" points="902.25,-20 816.5,-20 816.5,0 902.25,0 902.25,-20"/>
<text text-anchor="middle" x="859.38" y="-6.5" font-family="Helvetica,sans-Serif" font-size="10.00">getOfstreamFile</text>
</a>
</g>
</g>
<!-- Node12&#45;&gt;Node13 -->
<g id="edge16_Node000012_Node000013" class="edge">
<title>Node12&#45;&gt;Node13</title>
<g id="a_edge16_Node000012_Node000013"><a xlink:title=" ">
<path fill="none" stroke="#63b8ff" d="M766.32,-10C778,-10 791.64,-10 804.79,-10"/>
<polygon fill="#63b8ff" stroke="#63b8ff" points="804.64,-13.5 814.64,-10 804.64,-6.5 804.64,-13.5"/>
</a>
</g>
</g>
</g>
</svg>

<g id="navigator" transform="translate(0 0)" fill="#404254">
  <rect fill="#f2f5e9" fill-opacity="0.5" stroke="#606060" stroke-width=".5" x="0" y="0" width="60" height="60"/>
  <use id="zoomplus" xlink:href="#zoomPlus" x="17" y="9" onmousedown="handleZoom(evt,'in')"/>
  <use id="zoomminus" xlink:href="#zoomMin" x="42" y="9" onmousedown="handleZoom(evt,'out')"/>
  <use id="reset" xlink:href="#resetDef" x="30" y="36" onmousedown="handleReset()"/>
   <use id="arrowup" xlink:href="#arrowUp" x="0" y="0" onmousedown="handlePan(0,-1)"/>
  <use id="arrowright" xlink:href="#arrowRight" x="0" y="0" onmousedown="handlePan(1,0)"/>
  <use id="arrowdown" xlink:href="#arrowDown" x="0" y="0" onmousedown="handlePan(0,1)"/>
  <use id="arrowleft" xlink:href="#arrowLeft" x="0" y="0" onmousedown="handlePan(-1,0)"/>
</g>
<svg viewBox="0 0 15 15" width="100%" height="30px" preserveAspectRatio="xMaxYMin meet">
 <g id="arrow_out" transform="scale(0.3 0.3)">
  <a xlink:href="class_bot_config_ab4929dd1c99a9e725800349a9cfc3b0e_cgraph_org.svg" target="_base">
   <rect id="button" ry="5" rx="5" y="6" x="6" height="38" width="38"
        fill="#f2f5e9" fill-opacity="0.5" stroke="#606060" stroke-width="1.0"/>
   <path id="arrow"
     d="M 11.500037,31.436501 C 11.940474,20.09759 22.043105,11.32322 32.158766,21.979434 L 37.068811,17.246167 C 37.068811,17.246167 37.088388,32 37.088388,32 L 22.160133,31.978069 C 22.160133,31.978069 26.997745,27.140456 26.997745,27.140456 C 18.528582,18.264221 13.291696,25.230495 11.500037,31.436501 z"
     style="fill:#404040;"/>
  </a>
 </g>
</svg>

<style type='text/css'>
<![CDATA[
[data-mouse-over-selected='false'] { opacity: 0.7; }
[data-mouse-over-selected='true']  { opacity: 1.0; }
]]>
</style>
<script type="application/ecmascript"><![CDATA[
document.addEventListener('DOMContentLoaded', (event) => {
  highlightEdges();
  highlightAdjacentNodes();
});
]]></script>
</svg>
