<?xml version="1.0" encoding="UTF-8" standalone="no"?>
<!DOCTYPE svg PUBLIC "-//W3C//DTD SVG 1.1//EN"
 "http://www.w3.org/Graphics/SVG/1.1/DTD/svg11.dtd">
<!-- Generated by graphviz version 12.2.0 (20241103.1931)
 -->
<!-- Title: MainTag Pages: 1 -->
<!--zoomable 764 -->

<svg id="main" version="1.1" xmlns="http://www.w3.org/2000/svg" xmlns:xlink="http://www.w3.org/1999/xlink" xml:space="preserve" onload="init(evt)">

<style type="text/css"><![CDATA[
.node, .edge {opacity: 0.7;}
.node.selected, .edge.selected {opacity: 1;}
.edge:hover path { stroke: red; }
.edge:hover polygon { stroke: red; fill: red; }
]]></style>

<defs>
  <circle id="rim" cx="0" cy="0" r="7"/>
  <circle id="rim2" cx="0" cy="0" r="3.5"/>
  <g id="zoomPlus">
    <use xlink:href="#rim" fill="#404040"><set attributeName="fill" to="#808080" begin="zoomplus.mouseover" end="zoomplus.mouseout"/></use>
    <path d="M-4,0h8M0,-4v8" fill="none" stroke="white" stroke-width="1.5" pointer-events="none"/>
  </g>
  <g id="zoomMin">
    <use xlink:href="#rim" fill="#404040"><set attributeName="fill" to="#808080" begin="zoomminus.mouseover" end="zoomminus.mouseout"/></use>
    <path d="M-4,0h8" fill="none" stroke="white" stroke-width="1.5" pointer-events="none"/>
  </g>
  <g id="arrowUp" transform="translate(30 24)">
    <use xlink:href="#rim"/>
    <path pointer-events="none" fill="none" stroke="white" stroke-width="1.5" d="M0,-3.0v7 M-2.5,-0.5L0,-3.0L2.5,-0.5"/>
  </g>
  <g id="arrowRight" transform="rotate(90) translate(36 -43)">
    <use xlink:href="#rim"/>
    <path pointer-events="none" fill="none" stroke="white" stroke-width="1.5" d="M0,-3.0v7 M-2.5,-0.5L0,-3.0L2.5,-0.5"/>
  </g>
  <g id="arrowDown" transform="rotate(180) translate(-30 -48)">
    <use xlink:href="#rim"/>
    <path pointer-events="none" fill="none" stroke="white" stroke-width="1.5" d="M0,-3.0v7 M-2.5,-0.5L0,-3.0L2.5,-0.5"/>
  </g>
  <g id="arrowLeft" transform="rotate(270) translate(-36 17)">
    <use xlink:href="#rim"/>
    <path pointer-events="none" fill="none" stroke="white" stroke-width="1.5" d="M0,-3.0v7 M-2.5,-0.5L0,-3.0L2.5,-0.5"/>
  </g>
  <g id="resetDef">
    <use xlink:href="#rim2" fill="#404040"><set attributeName="fill" to="#808080" begin="reset.mouseover" end="reset.mouseout"/></use>
  </g>
</defs>
<script type="application/ecmascript">
var viewWidth = 138;
var viewHeight = 764;
var sectionId = 'dynsection-0';
</script>
<script type="application/ecmascript" xlink:href="svg.min.js"/>
<svg id="graph" class="graph">
<g id="viewport">
<title>MainTag</title>
<!-- Node1 -->
<g id="Node000001" class="node">
<title>Node1</title>
<g id="a_Node000001"><a xlink:title=" ">
<polygon fill="#999999" stroke="none" points="129.38,-204 0.38,-204 0.38,0 129.38,0 129.38,-204"/>
<text text-anchor="start" x="46.5" y="-190.5" font-family="Helvetica,sans-Serif" font-size="10.00">MainTag</text>
<text text-anchor="start" x="4.38" y="-174.5" font-family="Helvetica,sans-Serif" font-size="10.00">+</text>
<text text-anchor="start" x="14.38" y="-174.5" font-family="Helvetica,sans-Serif" font-size="10.00">std::vector&lt; std::shared</text>
<text text-anchor="start" x="14.38" y="-162.5" font-family="Helvetica,sans-Serif" font-size="10.00">_ptr&lt; Tag &gt; &gt; argvTag</text>
<text text-anchor="start" x="4.38" y="-146.5" font-family="Helvetica,sans-Serif" font-size="10.00">+</text>
<text text-anchor="start" x="14.38" y="-146.5" font-family="Helvetica,sans-Serif" font-size="10.00">MainTag()</text>
<text text-anchor="start" x="4.38" y="-130.5" font-family="Helvetica,sans-Serif" font-size="10.00">+</text>
<text text-anchor="start" x="14.38" y="-130.5" font-family="Helvetica,sans-Serif" font-size="10.00">MainTag(const MainTag</text>
<text text-anchor="start" x="14.38" y="-118.5" font-family="Helvetica,sans-Serif" font-size="10.00"> &amp;toCopy)</text>
<text text-anchor="start" x="4.38" y="-102.5" font-family="Helvetica,sans-Serif" font-size="10.00">+</text>
<text text-anchor="start" x="14.38" y="-102.5" font-family="Helvetica,sans-Serif" font-size="10.00">MainTag(std::shared</text>
<text text-anchor="start" x="14.38" y="-90.5" font-family="Helvetica,sans-Serif" font-size="10.00">_ptr&lt; Tag &gt; innerTag)</text>
<text text-anchor="start" x="4.38" y="-74.5" font-family="Helvetica,sans-Serif" font-size="10.00">+</text>
<text text-anchor="start" x="14.38" y="-74.5" font-family="Helvetica,sans-Serif" font-size="10.00">MainTag(const std</text>
<text text-anchor="start" x="14.38" y="-62.5" font-family="Helvetica,sans-Serif" font-size="10.00">::vector&lt; std::shared</text>
<text text-anchor="start" x="14.38" y="-50.5" font-family="Helvetica,sans-Serif" font-size="10.00">_ptr&lt; Tag &gt; &gt; &amp;tags)</text>
<text text-anchor="start" x="4.38" y="-34.5" font-family="Helvetica,sans-Serif" font-size="10.00">+</text>
<text text-anchor="start" x="14.38" y="-34.5" font-family="Helvetica,sans-Serif" font-size="10.00">std::shared_ptr&lt; MainTag</text>
<text text-anchor="start" x="14.38" y="-22.5" font-family="Helvetica,sans-Serif" font-size="10.00"> &gt; clone()</text>
<text text-anchor="start" x="4.38" y="-6.5" font-family="Helvetica,sans-Serif" font-size="10.00">+</text>
<text text-anchor="start" x="14.38" y="-6.5" font-family="Helvetica,sans-Serif" font-size="10.00">void execute() override</text>
<polygon fill="#666666" stroke="#666666" points="0.38,-186 0.38,-186 129.38,-186 129.38,-186 0.38,-186"/>
<polygon fill="#666666" stroke="#666666" points="0.38,-158 0.38,-158 12.38,-158 12.38,-158 0.38,-158"/>
<polygon fill="#666666" stroke="#666666" points="12.38,-158 12.38,-158 129.38,-158 129.38,-158 12.38,-158"/>
<polygon fill="none" stroke="#666666" points="0.38,0 0.38,-204 129.38,-204 129.38,0 0.38,0"/>
</a>
</g>
</g>
<!-- Node2 -->
<g id="Node000002" class="node">
<title>Node2</title>
<g id="a_Node000002"><a xlink:href="class_flow_tag.html" target="_top" xlink:title=" ">
<polygon fill="white" stroke="none" points="129.75,-560 0,-560 0,-240 129.75,-240 129.75,-560"/>
<text text-anchor="start" x="46.5" y="-546.5" font-family="Helvetica,sans-Serif" font-size="10.00">FlowTag</text>
<text text-anchor="start" x="4" y="-530.5" font-family="Helvetica,sans-Serif" font-size="10.00">+</text>
<text text-anchor="start" x="14" y="-530.5" font-family="Helvetica,sans-Serif" font-size="10.00">bool canReboot</text>
<text text-anchor="start" x="4" y="-514.5" font-family="Helvetica,sans-Serif" font-size="10.00">+</text>
<text text-anchor="start" x="14" y="-514.5" font-family="Helvetica,sans-Serif" font-size="10.00">bool executed</text>
<text text-anchor="start" x="4" y="-498.5" font-family="Helvetica,sans-Serif" font-size="10.00">+</text>
<text text-anchor="start" x="14" y="-498.5" font-family="Helvetica,sans-Serif" font-size="10.00">bool forcedExit</text>
<text text-anchor="start" x="4" y="-482.5" font-family="Helvetica,sans-Serif" font-size="10.00">+</text>
<text text-anchor="start" x="14" y="-482.5" font-family="Helvetica,sans-Serif" font-size="10.00">bool rebootLoop</text>
<text text-anchor="start" x="4" y="-466.5" font-family="Helvetica,sans-Serif" font-size="10.00">+</text>
<text text-anchor="start" x="14" y="-466.5" font-family="Helvetica,sans-Serif" font-size="10.00">std::shared_ptr&lt; Tag</text>
<text text-anchor="start" x="14" y="-454.5" font-family="Helvetica,sans-Serif" font-size="10.00"> &gt; condition</text>
<text text-anchor="start" x="4" y="-438.5" font-family="Helvetica,sans-Serif" font-size="10.00">+</text>
<text text-anchor="start" x="14" y="-438.5" font-family="Helvetica,sans-Serif" font-size="10.00">FlowTag * previousTag</text>
<text text-anchor="start" x="4" y="-422.5" font-family="Helvetica,sans-Serif" font-size="10.00">+</text>
<text text-anchor="start" x="14" y="-422.5" font-family="Helvetica,sans-Serif" font-size="10.00">FlowTag * parentFlowTag</text>
<text text-anchor="start" x="4" y="-406.5" font-family="Helvetica,sans-Serif" font-size="10.00">+</text>
<text text-anchor="start" x="14" y="-406.5" font-family="Helvetica,sans-Serif" font-size="10.00">std::vector&lt; std::shared</text>
<text text-anchor="start" x="14" y="-394.5" font-family="Helvetica,sans-Serif" font-size="10.00">_ptr&lt; Tag &gt; &gt; nestedTags</text>
<text text-anchor="start" x="4" y="-378.5" font-family="Helvetica,sans-Serif" font-size="10.00">+</text>
<text text-anchor="start" x="14" y="-378.5" font-family="Helvetica,sans-Serif" font-size="10.00">std::vector&lt; FlowTag</text>
<text text-anchor="start" x="14" y="-366.5" font-family="Helvetica,sans-Serif" font-size="10.00"> * &gt; listPreviousFlowTags</text>
<text text-anchor="start" x="4" y="-350.5" font-family="Helvetica,sans-Serif" font-size="10.00">+</text>
<text text-anchor="start" x="14" y="-350.5" font-family="Helvetica,sans-Serif" font-size="10.00">FlowTag()</text>
<text text-anchor="start" x="4" y="-334.5" font-family="Helvetica,sans-Serif" font-size="10.00">+</text>
<text text-anchor="start" x="14" y="-334.5" font-family="Helvetica,sans-Serif" font-size="10.00">FlowTag(const FlowTag</text>
<text text-anchor="start" x="14" y="-322.5" font-family="Helvetica,sans-Serif" font-size="10.00"> &amp;toCopy)</text>
<text text-anchor="start" x="4" y="-306.5" font-family="Helvetica,sans-Serif" font-size="10.00">+</text>
<text text-anchor="start" x="14" y="-306.5" font-family="Helvetica,sans-Serif" font-size="10.00">std::shared_ptr&lt; FlowTag</text>
<text text-anchor="start" x="14" y="-294.5" font-family="Helvetica,sans-Serif" font-size="10.00"> &gt; clone()</text>
<text text-anchor="start" x="4" y="-278.5" font-family="Helvetica,sans-Serif" font-size="10.00">+</text>
<text text-anchor="start" x="14" y="-278.5" font-family="Helvetica,sans-Serif" font-size="10.00">void showTag()</text>
<text text-anchor="start" x="4" y="-262.5" font-family="Helvetica,sans-Serif" font-size="10.00">+</text>
<text text-anchor="start" x="14" y="-262.5" font-family="Helvetica,sans-Serif" font-size="10.00">bool checkCondition()</text>
<text text-anchor="start" x="4" y="-246.5" font-family="Helvetica,sans-Serif" font-size="10.00">+</text>
<text text-anchor="start" x="14" y="-246.5" font-family="Helvetica,sans-Serif" font-size="10.00">void linkTags()</text>
<polygon fill="#666666" stroke="#666666" points="0,-542 0,-542 129.75,-542 129.75,-542 0,-542"/>
<polygon fill="#666666" stroke="#666666" points="0,-362 0,-362 12,-362 12,-362 0,-362"/>
<polygon fill="#666666" stroke="#666666" points="12,-362 12,-362 129.75,-362 129.75,-362 12,-362"/>
<polygon fill="none" stroke="#666666" points="0,-240 0,-560 129.75,-560 129.75,-240 0,-240"/>
</a>
</g>
</g>
<!-- Node2&#45;&gt;Node1 -->
<g id="edge1_Node000001_Node000002" class="edge">
<title>Node2&#45;&gt;Node1</title>
<g id="a_edge1_Node000001_Node000002"><a xlink:title=" ">
<path fill="none" stroke="#63b8ff" d="M64.88,-228.92C64.88,-220.41 64.88,-211.99 64.88,-203.79"/>
<polygon fill="none" stroke="#63b8ff" points="61.38,-228.66 64.88,-238.66 68.38,-228.66 61.38,-228.66"/>
</a>
</g>
</g>
<!-- Node3 -->
<g id="Node000003" class="node">
<title>Node3</title>
<g id="a_Node000003"><a xlink:href="class_tag.html" target="_top" xlink:title=" ">
<polygon fill="white" stroke="none" points="126.38,-756 3.38,-756 3.38,-596 126.38,-596 126.38,-756"/>
<text text-anchor="start" x="57" y="-742.5" font-family="Helvetica,sans-Serif" font-size="10.00">Tag</text>
<text text-anchor="start" x="7.38" y="-726.5" font-family="Helvetica,sans-Serif" font-size="10.00">+</text>
<text text-anchor="start" x="17.38" y="-726.5" font-family="Helvetica,sans-Serif" font-size="10.00">std::string tagText</text>
<text text-anchor="start" x="7.38" y="-710.5" font-family="Helvetica,sans-Serif" font-size="10.00">+</text>
<text text-anchor="start" x="17.38" y="-710.5" font-family="Helvetica,sans-Serif" font-size="10.00">int nbParents</text>
<text text-anchor="start" x="7.38" y="-694.5" font-family="Helvetica,sans-Serif" font-size="10.00">+</text>
<text text-anchor="start" x="17.38" y="-694.5" font-family="Helvetica,sans-Serif" font-size="10.00">bool doExecute</text>
<text text-anchor="start" x="7.38" y="-678.5" font-family="Helvetica,sans-Serif" font-size="10.00">+</text>
<text text-anchor="start" x="17.38" y="-678.5" font-family="Helvetica,sans-Serif" font-size="10.00">TagType myType</text>
<text text-anchor="start" x="7.38" y="-662.5" font-family="Helvetica,sans-Serif" font-size="10.00">+</text>
<text text-anchor="start" x="17.38" y="-662.5" font-family="Helvetica,sans-Serif" font-size="10.00">Tag()</text>
<text text-anchor="start" x="7.38" y="-646.5" font-family="Helvetica,sans-Serif" font-size="10.00">+</text>
<text text-anchor="start" x="17.38" y="-646.5" font-family="Helvetica,sans-Serif" font-size="10.00">Tag(const Tag &amp;toCopy)</text>
<text text-anchor="start" x="7.38" y="-630.5" font-family="Helvetica,sans-Serif" font-size="10.00">+</text>
<text text-anchor="start" x="17.38" y="-630.5" font-family="Helvetica,sans-Serif" font-size="10.00">std::shared_ptr&lt; Tag</text>
<text text-anchor="start" x="17.38" y="-618.5" font-family="Helvetica,sans-Serif" font-size="10.00"> &gt; clone()</text>
<text text-anchor="start" x="7.38" y="-602.5" font-family="Helvetica,sans-Serif" font-size="10.00">+</text>
<text text-anchor="start" x="17.38" y="-602.5" font-family="Helvetica,sans-Serif" font-size="10.00">virtual void execute()</text>
<polygon fill="#666666" stroke="#666666" points="3.38,-738 3.38,-738 126.38,-738 126.38,-738 3.38,-738"/>
<polygon fill="#666666" stroke="#666666" points="3.38,-674 3.38,-674 15.38,-674 15.38,-674 3.38,-674"/>
<polygon fill="#666666" stroke="#666666" points="15.38,-674 15.38,-674 126.38,-674 126.38,-674 15.38,-674"/>
<polygon fill="none" stroke="#666666" points="3.38,-596 3.38,-756 126.38,-756 126.38,-596 3.38,-596"/>
</a>
</g>
</g>
<!-- Node3&#45;&gt;Node2 -->
<g id="edge2_Node000002_Node000003" class="edge">
<title>Node3&#45;&gt;Node2</title>
<g id="a_edge2_Node000002_Node000003"><a xlink:title=" ">
<path fill="none" stroke="#63b8ff" d="M64.88,-584.83C64.88,-576.72 64.88,-568.37 64.88,-559.89"/>
<polygon fill="none" stroke="#63b8ff" points="61.38,-584.6 64.88,-594.6 68.38,-584.6 61.38,-584.6"/>
</a>
</g>
</g>
</g>
</svg>

<g id="navigator" transform="translate(0 0)" fill="#404254">
  <rect fill="#f2f5e9" fill-opacity="0.5" stroke="#606060" stroke-width=".5" x="0" y="0" width="60" height="60"/>
  <use id="zoomplus" xlink:href="#zoomPlus" x="17" y="9" onmousedown="handleZoom(evt,'in')"/>
  <use id="zoomminus" xlink:href="#zoomMin" x="42" y="9" onmousedown="handleZoom(evt,'out')"/>
  <use id="reset" xlink:href="#resetDef" x="30" y="36" onmousedown="handleReset()"/>
   <use id="arrowup" xlink:href="#arrowUp" x="0" y="0" onmousedown="handlePan(0,-1)"/>
  <use id="arrowright" xlink:href="#arrowRight" x="0" y="0" onmousedown="handlePan(1,0)"/>
  <use id="arrowdown" xlink:href="#arrowDown" x="0" y="0" onmousedown="handlePan(0,1)"/>
  <use id="arrowleft" xlink:href="#arrowLeft" x="0" y="0" onmousedown="handlePan(-1,0)"/>
</g>
<svg viewBox="0 0 15 15" width="100%" height="30px" preserveAspectRatio="xMaxYMin meet">
 <g id="arrow_out" transform="scale(0.3 0.3)">
  <a xlink:href="class_main_tag__inherit__graph_org.svg" target="_base">
   <rect id="button" ry="5" rx="5" y="6" x="6" height="38" width="38"
        fill="#f2f5e9" fill-opacity="0.5" stroke="#606060" stroke-width="1.0"/>
   <path id="arrow"
     d="M 11.500037,31.436501 C 11.940474,20.09759 22.043105,11.32322 32.158766,21.979434 L 37.068811,17.246167 C 37.068811,17.246167 37.088388,32 37.088388,32 L 22.160133,31.978069 C 22.160133,31.978069 26.997745,27.140456 26.997745,27.140456 C 18.528582,18.264221 13.291696,25.230495 11.500037,31.436501 z"
     style="fill:#404040;"/>
  </a>
 </g>
</svg>

<style type='text/css'>
<![CDATA[
[data-mouse-over-selected='false'] { opacity: 0.7; }
[data-mouse-over-selected='true']  { opacity: 1.0; }
]]>
</style>
<script type="application/ecmascript"><![CDATA[
document.addEventListener('DOMContentLoaded', (event) => {
  highlightEdges();
  highlightAdjacentNodes();
});
]]></script>
</svg>
