<?xml version="1.0" encoding="UTF-8" standalone="no"?>
<!DOCTYPE svg PUBLIC "-//W3C//DTD SVG 1.1//EN"
 "http://www.w3.org/Graphics/SVG/1.1/DTD/svg11.dtd">
<!-- Generated by graphviz version 12.2.0 (20241103.1931)
 -->
<!-- Title: Interactions::fcOneTemplateA Pages: 1 -->
<svg width="1418pt" height="322pt"
 viewBox="0.00 0.00 1418.25 322.00" xmlns="http://www.w3.org/2000/svg" xmlns:xlink="http://www.w3.org/1999/xlink">
<g id="graph0" class="graph" transform="scale(1 1) rotate(0) translate(4 318)">
<title>Interactions::fcOneTemplateA</title>
<!-- Node1 -->
<g id="Node000001" class="node">
<title>Node1</title>
<g id="a_Node000001"><a xlink:title=" ">
<polygon fill="#999999" stroke="#666666" points="145.75,-96 0,-96 0,-76 145.75,-76 145.75,-96"/>
<text text-anchor="middle" x="72.88" y="-82.5" font-family="Helvetica,sans-Serif" font-size="10.00">Interactions::fcOneTemplateA</text>
</a>
</g>
</g>
<!-- Node2 -->
<g id="Node000002" class="node">
<title>Node2</title>
<g id="a_Node000002"><a xlink:href="class_interactions.html#af01fb8407a9f18982f7e75f0433f7ef2" target="_top" xlink:title=" ">
<polygon fill="white" stroke="#666666" points="327.5,-77 181.75,-77 181.75,-57 327.5,-57 327.5,-77"/>
<text text-anchor="middle" x="254.62" y="-63.5" font-family="Helvetica,sans-Serif" font-size="10.00">Interactions::fcOneTemplateA</text>
</a>
</g>
</g>
<!-- Node1&#45;&gt;Node2 -->
<g id="edge1_Node000001_Node000002" class="edge">
<title>Node1&#45;&gt;Node2</title>
<g id="a_edge1_Node000001_Node000002"><a xlink:title=" ">
<path fill="none" stroke="#63b8ff" d="M146.21,-78.35C154.1,-77.52 162.18,-76.67 170.19,-75.82"/>
<polygon fill="#63b8ff" stroke="#63b8ff" points="170.36,-79.32 179.93,-74.79 169.62,-72.36 170.36,-79.32"/>
</a>
</g>
</g>
<!-- Node3 -->
<g id="Node000003" class="node">
<title>Node3</title>
<g id="a_Node000003"><a xlink:href="class_interactions.html#ad86db2bcd0900e15cfd36374937d7748" target="_top" xlink:title=" ">
<polygon fill="white" stroke="#666666" points="504,-96 363.5,-96 363.5,-76 504,-76 504,-96"/>
<text text-anchor="middle" x="433.75" y="-82.5" font-family="Helvetica,sans-Serif" font-size="10.00">Interactions::fOneTemplateA</text>
</a>
</g>
</g>
<!-- Node1&#45;&gt;Node3 -->
<g id="edge30_Node000001_Node000003" class="edge">
<title>Node1&#45;&gt;Node3</title>
<g id="a_edge30_Node000001_Node000003"><a xlink:title=" ">
<path fill="none" stroke="#63b8ff" d="M146.07,-86C205.61,-86 290.03,-86 351.85,-86"/>
<polygon fill="#63b8ff" stroke="#63b8ff" points="351.6,-89.5 361.6,-86 351.6,-82.5 351.6,-89.5"/>
</a>
</g>
</g>
<!-- Node2&#45;&gt;Node3 -->
<g id="edge2_Node000002_Node000003" class="edge">
<title>Node2&#45;&gt;Node3</title>
<g id="a_edge2_Node000002_Node000003"><a xlink:title=" ">
<path fill="none" stroke="#63b8ff" d="M327.92,-74.76C335.86,-75.61 343.97,-76.48 351.99,-77.34"/>
<polygon fill="#63b8ff" stroke="#63b8ff" points="351.44,-80.8 361.75,-78.38 352.18,-73.84 351.44,-80.8"/>
</a>
</g>
</g>
<!-- Node4 -->
<g id="Node000004" class="node">
<title>Node4</title>
<g id="a_Node000004"><a xlink:href="fopencv_8cpp.html#abe41135f4dce8bf30bbdf6fd28d2abbc" target="_top" xlink:title=" ">
<polygon fill="white" stroke="#666666" points="652.38,-214 553.88,-214 553.88,-194 652.38,-194 652.38,-214"/>
<text text-anchor="middle" x="603.12" y="-200.5" font-family="Helvetica,sans-Serif" font-size="10.00">cvmtfOneTemplate</text>
</a>
</g>
</g>
<!-- Node3&#45;&gt;Node4 -->
<g id="edge3_Node000003_Node000004" class="edge">
<title>Node3&#45;&gt;Node4</title>
<g id="a_edge3_Node000003_Node000004"><a xlink:title=" ">
<path fill="none" stroke="#63b8ff" d="M448.95,-96.47C469.08,-111.25 507.12,-139.02 540,-162 552.13,-170.48 565.74,-179.71 577.12,-187.35"/>
<polygon fill="#63b8ff" stroke="#63b8ff" points="574.95,-190.11 585.2,-192.76 578.84,-184.29 574.95,-190.11"/>
</a>
</g>
</g>
<!-- Node11 -->
<g id="Node000011" class="node">
<title>Node11</title>
<g id="a_Node000011"><a xlink:href="class_interactions.html#a5b5af2b125ff152043789cfcf70ffb2b" target="_top" xlink:title=" ">
<polygon fill="white" stroke="#666666" points="666.25,-58 540,-58 540,-38 666.25,-38 666.25,-58"/>
<text text-anchor="middle" x="603.12" y="-44.5" font-family="Helvetica,sans-Serif" font-size="10.00">Interactions::getTemplate</text>
</a>
</g>
</g>
<!-- Node3&#45;&gt;Node11 -->
<g id="edge10_Node000003_Node000011" class="edge">
<title>Node3&#45;&gt;Node11</title>
<g id="a_edge10_Node000003_Node000011"><a xlink:title=" ">
<path fill="none" stroke="#63b8ff" d="M480.93,-75.52C500.78,-71.01 524.18,-65.7 545.09,-60.95"/>
<polygon fill="#63b8ff" stroke="#63b8ff" points="545.64,-64.41 554.62,-58.79 544.09,-57.59 545.64,-64.41"/>
</a>
</g>
</g>
<!-- Node13 -->
<g id="Node000013" class="node">
<title>Node13</title>
<g id="a_Node000013"><a xlink:href="class_interactions.html#a0a0ffd9ad1990de31fd7b2773db32667" target="_top" xlink:title=" ">
<polygon fill="white" stroke="#666666" points="663.62,-153 542.62,-153 542.62,-133 663.62,-133 663.62,-153"/>
<text text-anchor="middle" x="603.12" y="-139.5" font-family="Helvetica,sans-Serif" font-size="10.00">Interactions::loopPopUp</text>
</a>
</g>
</g>
<!-- Node3&#45;&gt;Node13 -->
<g id="edge12_Node000003_Node000013" class="edge">
<title>Node3&#45;&gt;Node13</title>
<g id="a_edge12_Node000003_Node000013"><a xlink:title=" ">
<path fill="none" stroke="#63b8ff" d="M465.45,-96.45C492.14,-105.55 531.06,-118.8 560.54,-128.84"/>
<polygon fill="#63b8ff" stroke="#63b8ff" points="559.31,-132.12 569.9,-132.03 561.57,-125.49 559.31,-132.12"/>
</a>
</g>
</g>
<!-- Node25 -->
<g id="Node000025" class="node">
<title>Node25</title>
<g id="a_Node000025"><a xlink:href="class_interactions.html#ade7f52c59105f434650b9358b22e5488" target="_top" xlink:title=" ">
<polygon fill="white" stroke="#666666" points="663.62,-20 542.62,-20 542.62,0 663.62,0 663.62,-20"/>
<text text-anchor="middle" x="603.12" y="-6.5" font-family="Helvetica,sans-Serif" font-size="10.00">Interactions::resetCount</text>
</a>
</g>
</g>
<!-- Node3&#45;&gt;Node25 -->
<g id="edge26_Node000003_Node000025" class="edge">
<title>Node3&#45;&gt;Node25</title>
<g id="a_edge26_Node000003_Node000025"><a xlink:title=" ">
<path fill="none" stroke="#63b8ff" d="M451.37,-75.64C471.69,-63.3 507.42,-42.65 540,-29 544.1,-27.28 548.4,-25.65 552.76,-24.1"/>
<polygon fill="#63b8ff" stroke="#63b8ff" points="553.78,-27.45 562.15,-20.96 551.56,-20.82 553.78,-27.45"/>
</a>
</g>
</g>
<!-- Node26 -->
<g id="Node000026" class="node">
<title>Node26</title>
<g id="a_Node000026"><a xlink:href="class_interactions.html#ad7daddd9df3cea80e69872b8afd6c8dc" target="_top" xlink:title=" ">
<polygon fill="white" stroke="#666666" points="839.75,-86 702.25,-86 702.25,-66 839.75,-66 839.75,-86"/>
<text text-anchor="middle" x="771" y="-72.5" font-family="Helvetica,sans-Serif" font-size="10.00">Interactions::templateFound</text>
</a>
</g>
</g>
<!-- Node3&#45;&gt;Node26 -->
<g id="edge27_Node000003_Node000026" class="edge">
<title>Node3&#45;&gt;Node26</title>
<g id="a_edge27_Node000003_Node000026"><a xlink:title=" ">
<path fill="none" stroke="#63b8ff" d="M504.21,-83.93C558.4,-82.31 633.72,-80.07 690.35,-78.38"/>
<polygon fill="#63b8ff" stroke="#63b8ff" points="690.37,-81.88 700.26,-78.08 690.16,-74.88 690.37,-81.88"/>
</a>
</g>
</g>
<!-- Node5 -->
<g id="Node000005" class="node">
<title>Node5</title>
<g id="a_Node000005"><a xlink:href="fopencv_8cpp.html#a69713584f69a121e4ed91918a64448a0" target="_top" xlink:title=" ">
<polygon fill="white" stroke="#666666" points="962.62,-238 882.12,-238 882.12,-218 962.62,-218 962.62,-238"/>
<text text-anchor="middle" x="922.38" y="-224.5" font-family="Helvetica,sans-Serif" font-size="10.00">cvmtfTemplate</text>
</a>
</g>
</g>
<!-- Node4&#45;&gt;Node5 -->
<g id="edge4_Node000004_Node000005" class="edge">
<title>Node4&#45;&gt;Node5</title>
<g id="a_edge4_Node000004_Node000005"><a xlink:title=" ">
<path fill="none" stroke="#63b8ff" d="M652.65,-207.67C711.56,-212.13 810.44,-219.61 870.42,-224.15"/>
<polygon fill="#63b8ff" stroke="#63b8ff" points="870.13,-227.63 880.37,-224.9 870.66,-220.65 870.13,-227.63"/>
</a>
</g>
</g>
<!-- Node6 -->
<g id="Node000006" class="node">
<title>Node6</title>
<g id="a_Node000006"><a xlink:href="fopencv_8cpp.html#af6fc77188d314c0d5a58888452f9b313" target="_top" xlink:title=" ">
<polygon fill="white" stroke="#666666" points="1088.12,-200 1020.38,-200 1020.38,-180 1088.12,-180 1088.12,-200"/>
<text text-anchor="middle" x="1054.25" y="-186.5" font-family="Helvetica,sans-Serif" font-size="10.00">extractZone</text>
</a>
</g>
</g>
<!-- Node5&#45;&gt;Node6 -->
<g id="edge5_Node000005_Node000006" class="edge">
<title>Node5&#45;&gt;Node6</title>
<g id="a_edge5_Node000005_Node000006"><a xlink:title=" ">
<path fill="none" stroke="#63b8ff" d="M959.21,-217.52C974.7,-212.98 992.99,-207.63 1009.29,-202.86"/>
<polygon fill="#63b8ff" stroke="#63b8ff" points="1010.14,-206.26 1018.75,-200.09 1008.17,-199.54 1010.14,-206.26"/>
</a>
</g>
</g>
<!-- Node7 -->
<g id="Node000007" class="node">
<title>Node7</title>
<g id="a_Node000007"><a xlink:href="struct_zone.html#a5301e7fcf185a5a79c1bf7d7930f4b8a" target="_top" xlink:title=" ">
<polygon fill="white" stroke="#666666" points="1088.5,-314 1020,-314 1020,-294 1088.5,-294 1088.5,-314"/>
<text text-anchor="middle" x="1054.25" y="-300.5" font-family="Helvetica,sans-Serif" font-size="10.00">Zone::isNull</text>
</a>
</g>
</g>
<!-- Node5&#45;&gt;Node7 -->
<g id="edge6_Node000005_Node000007" class="edge">
<title>Node5&#45;&gt;Node7</title>
<g id="a_edge6_Node000005_Node000007"><a xlink:title=" ">
<path fill="none" stroke="#63b8ff" d="M936.33,-238.49C951.93,-250.77 979.26,-271.19 1005,-285 1007.53,-286.36 1010.19,-287.67 1012.89,-288.94"/>
<polygon fill="#63b8ff" stroke="#63b8ff" points="1011.46,-292.13 1022.02,-292.91 1014.25,-285.71 1011.46,-292.13"/>
</a>
</g>
</g>
<!-- Node9 -->
<g id="Node000009" class="node">
<title>Node9</title>
<g id="a_Node000009"><a xlink:href="fopencv_8cpp.html#a1ed1ff1a9df2ab889e1423cb11a58c06" target="_top" xlink:title=" ">
<polygon fill="white" stroke="#666666" points="1095.62,-276 1012.88,-276 1012.88,-256 1095.62,-256 1095.62,-276"/>
<text text-anchor="middle" x="1054.25" y="-262.5" font-family="Helvetica,sans-Serif" font-size="10.00">messageFound</text>
</a>
</g>
</g>
<!-- Node5&#45;&gt;Node9 -->
<g id="edge8_Node000005_Node000009" class="edge">
<title>Node5&#45;&gt;Node9</title>
<g id="a_edge8_Node000005_Node000009"><a xlink:title=" ">
<path fill="none" stroke="#63b8ff" d="M959.21,-238.48C973.83,-242.76 990.93,-247.77 1006.51,-252.33"/>
<polygon fill="#63b8ff" stroke="#63b8ff" points="1005.5,-255.68 1016.08,-255.12 1007.47,-248.96 1005.5,-255.68"/>
</a>
</g>
</g>
<!-- Node10 -->
<g id="Node000010" class="node">
<title>Node10</title>
<g id="a_Node000010"><a xlink:href="fopencv_8cpp.html#ae51fd1f3ed39bd8c9b8da4a313d5aeb3" target="_top" xlink:title=" ">
<polygon fill="white" stroke="#666666" points="1103.5,-238 1005,-238 1005,-218 1103.5,-218 1103.5,-238"/>
<text text-anchor="middle" x="1054.25" y="-224.5" font-family="Helvetica,sans-Serif" font-size="10.00">oneMatchTemplate</text>
</a>
</g>
</g>
<!-- Node5&#45;&gt;Node10 -->
<g id="edge9_Node000005_Node000010" class="edge">
<title>Node5&#45;&gt;Node10</title>
<g id="a_edge9_Node000005_Node000010"><a xlink:title=" ">
<path fill="none" stroke="#63b8ff" d="M963.05,-228C972.59,-228 982.99,-228 993.22,-228"/>
<polygon fill="#63b8ff" stroke="#63b8ff" points="993.14,-231.5 1003.14,-228 993.14,-224.5 993.14,-231.5"/>
</a>
</g>
</g>
<!-- Node8 -->
<g id="Node000008" class="node">
<title>Node8</title>
<g id="a_Node000008"><a xlink:href="struct_coord.html#a34c573cd6230e5a532f12ae97e7395e2" target="_top" xlink:title=" ">
<polygon fill="white" stroke="#666666" points="1212.5,-314 1139.5,-314 1139.5,-294 1212.5,-294 1212.5,-314"/>
<text text-anchor="middle" x="1176" y="-300.5" font-family="Helvetica,sans-Serif" font-size="10.00">Coord::isNull</text>
</a>
</g>
</g>
<!-- Node7&#45;&gt;Node8 -->
<g id="edge7_Node000007_Node000008" class="edge">
<title>Node7&#45;&gt;Node8</title>
<g id="a_edge7_Node000007_Node000008"><a xlink:title=" ">
<path fill="none" stroke="#63b8ff" d="M1088.93,-304C1101.02,-304 1114.89,-304 1127.91,-304"/>
<polygon fill="#63b8ff" stroke="#63b8ff" points="1127.55,-307.5 1137.55,-304 1127.55,-300.5 1127.55,-307.5"/>
</a>
</g>
</g>
<!-- Node12 -->
<g id="Node000012" class="node">
<title>Node12</title>
<g id="a_Node000012"><a xlink:href="struct_template.html#a93d3c6f97592ba09d7819fda3c3296d7" target="_top" xlink:title=" ">
<polygon fill="white" stroke="#666666" points="819.12,-48 722.88,-48 722.88,-28 819.12,-28 819.12,-48"/>
<text text-anchor="middle" x="771" y="-34.5" font-family="Helvetica,sans-Serif" font-size="10.00">Template::setType</text>
</a>
</g>
</g>
<!-- Node11&#45;&gt;Node12 -->
<g id="edge11_Node000011_Node000012" class="edge">
<title>Node11&#45;&gt;Node12</title>
<g id="a_edge11_Node000011_Node000012"><a xlink:title=" ">
<path fill="none" stroke="#63b8ff" d="M666.36,-44.25C681.02,-43.36 696.59,-42.43 711.09,-41.55"/>
<polygon fill="#63b8ff" stroke="#63b8ff" points="711.17,-45.05 720.94,-40.96 710.75,-38.07 711.17,-45.05"/>
</a>
</g>
</g>
<!-- Node14 -->
<g id="Node000014" class="node">
<title>Node14</title>
<g id="a_Node000014"><a xlink:href="fopencv_8cpp.html#a5c455ed716b7fa4c675446fc5b8ba4fb" target="_top" xlink:title=" ">
<polygon fill="white" stroke="#666666" points="801.88,-124 740.12,-124 740.12,-104 801.88,-104 801.88,-124"/>
<text text-anchor="middle" x="771" y="-110.5" font-family="Helvetica,sans-Serif" font-size="10.00">CreateMat</text>
</a>
</g>
</g>
<!-- Node13&#45;&gt;Node14 -->
<g id="edge13_Node000013_Node000014" class="edge">
<title>Node13&#45;&gt;Node14</title>
<g id="a_edge13_Node000013_Node000014"><a xlink:title=" ">
<path fill="none" stroke="#63b8ff" d="M664.01,-132.53C685.47,-128.78 709.18,-124.63 728.71,-121.22"/>
<polygon fill="#63b8ff" stroke="#63b8ff" points="729.25,-124.68 738.49,-119.51 728.04,-117.78 729.25,-124.68"/>
</a>
</g>
</g>
<!-- Node15 -->
<g id="Node000015" class="node">
<title>Node15</title>
<g id="a_Node000015"><a xlink:href="class_interactions.html#aed04f9177d2aba467d71818a5e82c7bc" target="_top" xlink:title=" ">
<polygon fill="white" stroke="#666666" points="828.12,-162 713.88,-162 713.88,-142 828.12,-142 828.12,-162"/>
<text text-anchor="middle" x="771" y="-148.5" font-family="Helvetica,sans-Serif" font-size="10.00">Interactions::fcpopupA</text>
</a>
</g>
</g>
<!-- Node13&#45;&gt;Node15 -->
<g id="edge14_Node000013_Node000015" class="edge">
<title>Node13&#45;&gt;Node15</title>
<g id="a_edge14_Node000013_Node000015"><a xlink:title=" ">
<path fill="none" stroke="#63b8ff" d="M664.01,-146.25C676.37,-146.92 689.48,-147.63 702.1,-148.32"/>
<polygon fill="#63b8ff" stroke="#63b8ff" points="701.84,-151.81 712.01,-148.85 702.22,-144.82 701.84,-151.81"/>
</a>
</g>
</g>
<!-- Node18 -->
<g id="Node000018" class="node">
<title>Node18</title>
<g id="a_Node000018"><a xlink:href="fadb_8cpp.html#aeec40a5f78ae4713eedd84cb5f75746f" target="_top" xlink:title=" ">
<polygon fill="white" stroke="#666666" points="803,-200 739,-200 739,-180 803,-180 803,-200"/>
<text text-anchor="middle" x="771" y="-186.5" font-family="Helvetica,sans-Serif" font-size="10.00">screenshot</text>
</a>
</g>
</g>
<!-- Node13&#45;&gt;Node18 -->
<g id="edge19_Node000013_Node000018" class="edge">
<title>Node13&#45;&gt;Node18</title>
<g id="a_edge19_Node000013_Node000018"><a xlink:title=" ">
<path fill="none" stroke="#63b8ff" d="M640.46,-153.41C658.95,-158.7 681.79,-165.21 702.25,-171 710.5,-173.34 719.33,-175.82 727.79,-178.19"/>
<polygon fill="#63b8ff" stroke="#63b8ff" points="726.59,-181.49 737.17,-180.82 728.48,-174.75 726.59,-181.49"/>
</a>
</g>
</g>
<!-- Node15&#45;&gt;Node5 -->
<g id="edge17_Node000015_Node000005" class="edge">
<title>Node15&#45;&gt;Node5</title>
<g id="a_edge17_Node000015_Node000005"><a xlink:title=" ">
<path fill="none" stroke="#63b8ff" d="M820.99,-162.47C827.52,-164.79 833.95,-167.61 839.75,-171 859.28,-182.43 857.18,-194.07 875.75,-207 878.43,-208.87 881.31,-210.64 884.26,-212.3"/>
<polygon fill="#63b8ff" stroke="#63b8ff" points="882.61,-215.39 893.1,-216.83 885.8,-209.16 882.61,-215.39"/>
</a>
</g>
</g>
<!-- Node16 -->
<g id="Node000016" class="node">
<title>Node16</title>
<g id="a_Node000016"><a xlink:href="class_interactions.html#aae6172962092f278714536142e987cde" target="_top" xlink:title=" ">
<polygon fill="white" stroke="#666666" points="969,-91 875.75,-91 875.75,-71 969,-71 969,-91"/>
<text text-anchor="middle" x="922.38" y="-77.5" font-family="Helvetica,sans-Serif" font-size="10.00">Interactions::click</text>
</a>
</g>
</g>
<!-- Node15&#45;&gt;Node16 -->
<g id="edge15_Node000015_Node000016" class="edge">
<title>Node15&#45;&gt;Node16</title>
<g id="a_edge15_Node000015_Node000016"><a xlink:title=" ">
<path fill="none" stroke="#63b8ff" d="M816.4,-141.57C824.32,-139.15 832.39,-136.29 839.75,-133 860.96,-123.52 883.08,-109.11 898.93,-97.86"/>
<polygon fill="#63b8ff" stroke="#63b8ff" points="900.66,-100.93 906.7,-92.22 896.55,-95.26 900.66,-100.93"/>
</a>
</g>
</g>
<!-- Node17 -->
<g id="Node000017" class="node">
<title>Node17</title>
<g id="a_Node000017"><a xlink:href="class_interactions.html#abd5b5d8a44970e1333e3611e302f166c" target="_top" xlink:title=" ">
<polygon fill="white" stroke="#666666" points="967.88,-157 876.88,-157 876.88,-137 967.88,-137 967.88,-157"/>
<text text-anchor="middle" x="922.38" y="-143.5" font-family="Helvetica,sans-Serif" font-size="10.00">Interactions::wait</text>
</a>
</g>
</g>
<!-- Node15&#45;&gt;Node17 -->
<g id="edge18_Node000015_Node000017" class="edge">
<title>Node15&#45;&gt;Node17</title>
<g id="a_edge18_Node000015_Node000017"><a xlink:title=" ">
<path fill="none" stroke="#63b8ff" d="M828.47,-150.11C840.49,-149.71 853.18,-149.28 865.19,-148.88"/>
<polygon fill="#63b8ff" stroke="#63b8ff" points="865.07,-152.39 874.94,-148.55 864.83,-145.39 865.07,-152.39"/>
</a>
</g>
</g>
<!-- Node16&#45;&gt;Node16 -->
<g id="edge16_Node000016_Node000016" class="edge">
<title>Node16&#45;&gt;Node16</title>
<g id="a_edge16_Node000016_Node000016"><a xlink:title=" ">
<path fill="none" stroke="#63b8ff" d="M901.42,-91.34C892.47,-99.98 899.45,-109 922.38,-109 934.91,-109 942.68,-106.3 945.68,-102.44"/>
<polygon fill="#63b8ff" stroke="#63b8ff" points="949.14,-101.88 943.64,-92.82 942.29,-103.33 949.14,-101.88"/>
</a>
</g>
</g>
<!-- Node19 -->
<g id="Node000019" class="node">
<title>Node19</title>
<g id="a_Node000019"><a xlink:href="fadb_8cpp.html#a7ab9819839864ebd26d0e7e68e330418" target="_top" xlink:title=" ">
<polygon fill="white" stroke="#666666" points="964.5,-198 880.25,-198 880.25,-178 964.5,-178 964.5,-198"/>
<text text-anchor="middle" x="922.38" y="-184.5" font-family="Helvetica,sans-Serif" font-size="10.00">takeScreenshot</text>
</a>
</g>
</g>
<!-- Node18&#45;&gt;Node19 -->
<g id="edge20_Node000018_Node000019" class="edge">
<title>Node18&#45;&gt;Node19</title>
<g id="a_edge20_Node000018_Node000019"><a xlink:title=" ">
<path fill="none" stroke="#63b8ff" d="M803.31,-189.58C822.17,-189.33 846.67,-189 868.46,-188.71"/>
<polygon fill="#63b8ff" stroke="#63b8ff" points="868.43,-192.21 878.38,-188.58 868.33,-185.21 868.43,-192.21"/>
</a>
</g>
</g>
<!-- Node20 -->
<g id="Node000020" class="node">
<title>Node20</title>
<g id="a_Node000020"><a xlink:href="fadb_8cpp.html#ac6339b59ba8238f7483dece7f3fdf51b" target="_top" xlink:title=" ">
<polygon fill="white" stroke="#666666" points="1098.62,-162 1009.88,-162 1009.88,-142 1098.62,-142 1098.62,-162"/>
<text text-anchor="middle" x="1054.25" y="-148.5" font-family="Helvetica,sans-Serif" font-size="10.00">runAdbLocalhost</text>
</a>
</g>
</g>
<!-- Node19&#45;&gt;Node20 -->
<g id="edge21_Node000019_Node000020" class="edge">
<title>Node19&#45;&gt;Node20</title>
<g id="a_edge21_Node000019_Node000020"><a xlink:title=" ">
<path fill="none" stroke="#63b8ff" d="M960.94,-177.59C974.67,-173.78 990.4,-169.42 1004.94,-165.39"/>
<polygon fill="#63b8ff" stroke="#63b8ff" points="1005.61,-168.84 1014.31,-162.79 1003.74,-162.09 1005.61,-168.84"/>
</a>
</g>
</g>
<!-- Node21 -->
<g id="Node000021" class="node">
<title>Node21</title>
<g id="a_Node000021"><a xlink:href="fadb_8cpp.html#a383ae5fedc9f597a03c74c729a2eb740" target="_top" xlink:title=" ">
<polygon fill="white" stroke="#666666" points="1199.38,-162 1152.62,-162 1152.62,-142 1199.38,-142 1199.38,-162"/>
<text text-anchor="middle" x="1176" y="-148.5" font-family="Helvetica,sans-Serif" font-size="10.00">runAdb</text>
</a>
</g>
</g>
<!-- Node20&#45;&gt;Node21 -->
<g id="edge22_Node000020_Node000021" class="edge">
<title>Node20&#45;&gt;Node21</title>
<g id="a_edge22_Node000020_Node000021"><a xlink:title=" ">
<path fill="none" stroke="#63b8ff" d="M1098.82,-152C1112.65,-152 1127.72,-152 1140.79,-152"/>
<polygon fill="#63b8ff" stroke="#63b8ff" points="1140.62,-155.5 1150.62,-152 1140.62,-148.5 1140.62,-155.5"/>
</a>
</g>
</g>
<!-- Node22 -->
<g id="Node000022" class="node">
<title>Node22</title>
<g id="a_Node000022"><a xlink:href="sys_commands_8cpp.html#a321eb7e335377aa7182bafc8a1605032" target="_top" xlink:title=" ">
<polygon fill="white" stroke="#666666" points="1315.5,-162 1248.5,-162 1248.5,-142 1315.5,-142 1315.5,-162"/>
<text text-anchor="middle" x="1282" y="-148.5" font-family="Helvetica,sans-Serif" font-size="10.00">receivePipe</text>
</a>
</g>
</g>
<!-- Node21&#45;&gt;Node22 -->
<g id="edge23_Node000021_Node000022" class="edge">
<title>Node21&#45;&gt;Node22</title>
<g id="a_edge23_Node000021_Node000022"><a xlink:title=" ">
<path fill="none" stroke="#63b8ff" d="M1199.82,-152C1210.72,-152 1224.14,-152 1236.91,-152"/>
<polygon fill="#63b8ff" stroke="#63b8ff" points="1236.85,-155.5 1246.85,-152 1236.85,-148.5 1236.85,-155.5"/>
</a>
</g>
</g>
<!-- Node23 -->
<g id="Node000023" class="node">
<title>Node23</title>
<g id="a_Node000023"><a xlink:href="sys_commands_8cpp.html#a4771c79171a937893508dabadadbe099" target="_top" xlink:title=" ">
<polygon fill="white" stroke="#666666" points="1410.25,-181 1351.5,-181 1351.5,-161 1410.25,-161 1410.25,-181"/>
<text text-anchor="middle" x="1380.88" y="-167.5" font-family="Helvetica,sans-Serif" font-size="10.00">closePipe</text>
</a>
</g>
</g>
<!-- Node22&#45;&gt;Node23 -->
<g id="edge24_Node000022_Node000023" class="edge">
<title>Node22&#45;&gt;Node23</title>
<g id="a_edge24_Node000022_Node000023"><a xlink:title=" ">
<path fill="none" stroke="#63b8ff" d="M1315.8,-158.43C1323.56,-159.95 1331.92,-161.59 1339.96,-163.17"/>
<polygon fill="#63b8ff" stroke="#63b8ff" points="1339.03,-166.56 1349.52,-165.05 1340.38,-159.69 1339.03,-166.56"/>
</a>
</g>
</g>
<!-- Node24 -->
<g id="Node000024" class="node">
<title>Node24</title>
<g id="a_Node000024"><a xlink:href="sys_commands_8cpp.html#a3499ce0cd7e4ed28b3c5461a4d3aec84" target="_top" xlink:title=" ">
<polygon fill="white" stroke="#666666" points="1409.12,-143 1352.62,-143 1352.62,-123 1409.12,-123 1409.12,-143"/>
<text text-anchor="middle" x="1380.88" y="-129.5" font-family="Helvetica,sans-Serif" font-size="10.00">openPipe</text>
</a>
</g>
</g>
<!-- Node22&#45;&gt;Node24 -->
<g id="edge25_Node000022_Node000024" class="edge">
<title>Node22&#45;&gt;Node24</title>
<g id="a_edge25_Node000022_Node000024"><a xlink:title=" ">
<path fill="none" stroke="#63b8ff" d="M1315.8,-145.57C1323.95,-143.97 1332.76,-142.24 1341.17,-140.59"/>
<polygon fill="#63b8ff" stroke="#63b8ff" points="1341.65,-144.06 1350.79,-138.7 1340.3,-137.19 1341.65,-144.06"/>
</a>
</g>
</g>
<!-- Node26&#45;&gt;Node16 -->
<g id="edge28_Node000026_Node000016" class="edge">
<title>Node26&#45;&gt;Node16</title>
<g id="a_edge28_Node000026_Node000016"><a xlink:title=" ">
<path fill="none" stroke="#63b8ff" d="M840.13,-78.28C848.2,-78.55 856.36,-78.82 864.25,-79.09"/>
<polygon fill="#63b8ff" stroke="#63b8ff" points="863.95,-82.58 874.06,-79.42 864.18,-75.58 863.95,-82.58"/>
</a>
</g>
</g>
<!-- Node26&#45;&gt;Node17 -->
<g id="edge29_Node000026_Node000017" class="edge">
<title>Node26&#45;&gt;Node17</title>
<g id="a_edge29_Node000026_Node000017"><a xlink:title=" ">
<path fill="none" stroke="#63b8ff" d="M816.4,-86.42C824.32,-88.85 832.39,-91.71 839.75,-95 857.08,-102.76 859.74,-107.8 875.75,-118 882.09,-122.04 888.92,-126.39 895.33,-130.46"/>
<polygon fill="#63b8ff" stroke="#63b8ff" points="893.3,-133.32 903.62,-135.73 897.06,-127.41 893.3,-133.32"/>
</a>
</g>
</g>
</g>
</svg>
