<?xml version="1.0" encoding="UTF-8" standalone="no"?>
<!DOCTYPE svg PUBLIC "-//W3C//DTD SVG 1.1//EN"
 "http://www.w3.org/Graphics/SVG/1.1/DTD/svg11.dtd">
<!-- Generated by graphviz version 12.2.0 (20241103.1931)
 -->
<!-- Title: KPToken::addInteger Pages: 1 -->
<svg width="276pt" height="142pt"
 viewBox="0.00 0.00 276.25 142.00" xmlns="http://www.w3.org/2000/svg" xmlns:xlink="http://www.w3.org/1999/xlink">
<g id="graph0" class="graph" transform="scale(1 1) rotate(0) translate(4 138)">
<title>KPToken::addInteger</title>
<!-- Node1 -->
<g id="Node000001" class="node">
<title>Node1</title>
<g id="a_Node000001"><a xlink:title=" ">
<polygon fill="#999999" stroke="#666666" points="107.5,-77 0,-77 0,-57 107.5,-57 107.5,-77"/>
<text text-anchor="middle" x="53.75" y="-63.5" font-family="Helvetica,sans-Serif" font-size="10.00">KPToken::addInteger</text>
</a>
</g>
</g>
<!-- Node2 -->
<g id="Node000002" class="node">
<title>Node2</title>
<g id="a_Node000002"><a xlink:href="class_token.html#a4c0f84a84656f0b5e28c4193c3c13ea3" target="_top" xlink:title=" ">
<polygon fill="white" stroke="#666666" points="248.38,-134 163.38,-134 163.38,-114 248.38,-114 248.38,-134"/>
<text text-anchor="middle" x="205.88" y="-120.5" font-family="Helvetica,sans-Serif" font-size="10.00">Token::addError</text>
</a>
</g>
</g>
<!-- Node1&#45;&gt;Node2 -->
<g id="edge1_Node000001_Node000002" class="edge">
<title>Node1&#45;&gt;Node2</title>
<g id="a_edge1_Node000001_Node000002"><a xlink:title=" ">
<path fill="none" stroke="#63b8ff" d="M77.1,-77.34C94.9,-85.38 120.53,-96.55 143.5,-105 148.22,-106.74 153.18,-108.45 158.15,-110.1"/>
<polygon fill="#63b8ff" stroke="#63b8ff" points="156.93,-113.38 167.52,-113.11 159.08,-106.72 156.93,-113.38"/>
</a>
</g>
</g>
<!-- Node3 -->
<g id="Node000003" class="node">
<title>Node3</title>
<g id="a_Node000003"><a xlink:href="class_iterator_list.html#a4acf162e4a194bddd3c2fe26b073f45a" target="_top" xlink:title=" ">
<polygon fill="white" stroke="#666666" points="268.25,-96 143.5,-96 143.5,-76 268.25,-76 268.25,-96"/>
<text text-anchor="middle" x="205.88" y="-82.5" font-family="Helvetica,sans-Serif" font-size="10.00">IteratorList::currentToken</text>
</a>
</g>
</g>
<!-- Node1&#45;&gt;Node3 -->
<g id="edge2_Node000001_Node000003" class="edge">
<title>Node1&#45;&gt;Node3</title>
<g id="a_edge2_Node000001_Node000003"><a xlink:title=" ">
<path fill="none" stroke="#63b8ff" d="M107.68,-73.7C115.57,-74.7 123.82,-75.74 132.04,-76.78"/>
<polygon fill="#63b8ff" stroke="#63b8ff" points="131.32,-80.22 141.68,-78 132.2,-73.27 131.32,-80.22"/>
</a>
</g>
</g>
<!-- Node4 -->
<g id="Node000004" class="node">
<title>Node4</title>
<g id="a_Node000004"><a xlink:href="class_iterator_list.html#a2ebc1118094754b7d333b0a9d257d12b" target="_top" xlink:title=" ">
<polygon fill="white" stroke="#666666" points="253.25,-58 158.5,-58 158.5,-38 253.25,-38 253.25,-58"/>
<text text-anchor="middle" x="205.88" y="-44.5" font-family="Helvetica,sans-Serif" font-size="10.00">IteratorList::ended</text>
</a>
</g>
</g>
<!-- Node1&#45;&gt;Node4 -->
<g id="edge3_Node000001_Node000004" class="edge">
<title>Node1&#45;&gt;Node4</title>
<g id="a_edge3_Node000001_Node000004"><a xlink:title=" ">
<path fill="none" stroke="#63b8ff" d="M107.68,-60.3C120.48,-58.68 134.22,-56.94 147.22,-55.3"/>
<polygon fill="#63b8ff" stroke="#63b8ff" points="147.43,-58.8 156.91,-54.07 146.55,-51.85 147.43,-58.8"/>
</a>
</g>
</g>
<!-- Node5 -->
<g id="Node000005" class="node">
<title>Node5</title>
<g id="a_Node000005"><a xlink:href="_interpretor_8cpp.html#a40f9b1829e7de9bd4d9522c575baca2c" target="_top" xlink:title=" ">
<polygon fill="white" stroke="#666666" points="245.75,-20 166,-20 166,0 245.75,0 245.75,-20"/>
<text text-anchor="middle" x="205.88" y="-6.5" font-family="Helvetica,sans-Serif" font-size="10.00">isIntegerToken</text>
</a>
</g>
</g>
<!-- Node1&#45;&gt;Node5 -->
<g id="edge4_Node000001_Node000005" class="edge">
<title>Node1&#45;&gt;Node5</title>
<g id="a_edge4_Node000001_Node000005"><a xlink:title=" ">
<path fill="none" stroke="#63b8ff" d="M77.1,-56.66C94.9,-48.62 120.53,-37.45 143.5,-29 148.22,-27.26 153.18,-25.55 158.15,-23.9"/>
<polygon fill="#63b8ff" stroke="#63b8ff" points="159.08,-27.28 167.52,-20.89 156.93,-20.62 159.08,-27.28"/>
</a>
</g>
</g>
</g>
</svg>
