<?xml version="1.0" encoding="UTF-8" standalone="no"?>
<!DOCTYPE svg PUBLIC "-//W3C//DTD SVG 1.1//EN"
 "http://www.w3.org/Graphics/SVG/1.1/DTD/svg11.dtd">
<!-- Generated by graphviz version 12.2.0 (20241103.1931)
 -->
<!-- Title: BotConfig::updateStringBotFile Pages: 1 -->
<!--zoomable 140 -->

<svg id="main" version="1.1" xmlns="http://www.w3.org/2000/svg" xmlns:xlink="http://www.w3.org/1999/xlink" xml:space="preserve" onload="init(evt)">

<style type="text/css"><![CDATA[
.node, .edge {opacity: 0.7;}
.node.selected, .edge.selected {opacity: 1;}
.edge:hover path { stroke: red; }
.edge:hover polygon { stroke: red; fill: red; }
]]></style>

<defs>
  <circle id="rim" cx="0" cy="0" r="7"/>
  <circle id="rim2" cx="0" cy="0" r="3.5"/>
  <g id="zoomPlus">
    <use xlink:href="#rim" fill="#404040"><set attributeName="fill" to="#808080" begin="zoomplus.mouseover" end="zoomplus.mouseout"/></use>
    <path d="M-4,0h8M0,-4v8" fill="none" stroke="white" stroke-width="1.5" pointer-events="none"/>
  </g>
  <g id="zoomMin">
    <use xlink:href="#rim" fill="#404040"><set attributeName="fill" to="#808080" begin="zoomminus.mouseover" end="zoomminus.mouseout"/></use>
    <path d="M-4,0h8" fill="none" stroke="white" stroke-width="1.5" pointer-events="none"/>
  </g>
  <g id="arrowUp" transform="translate(30 24)">
    <use xlink:href="#rim"/>
    <path pointer-events="none" fill="none" stroke="white" stroke-width="1.5" d="M0,-3.0v7 M-2.5,-0.5L0,-3.0L2.5,-0.5"/>
  </g>
  <g id="arrowRight" transform="rotate(90) translate(36 -43)">
    <use xlink:href="#rim"/>
    <path pointer-events="none" fill="none" stroke="white" stroke-width="1.5" d="M0,-3.0v7 M-2.5,-0.5L0,-3.0L2.5,-0.5"/>
  </g>
  <g id="arrowDown" transform="rotate(180) translate(-30 -48)">
    <use xlink:href="#rim"/>
    <path pointer-events="none" fill="none" stroke="white" stroke-width="1.5" d="M0,-3.0v7 M-2.5,-0.5L0,-3.0L2.5,-0.5"/>
  </g>
  <g id="arrowLeft" transform="rotate(270) translate(-36 17)">
    <use xlink:href="#rim"/>
    <path pointer-events="none" fill="none" stroke="white" stroke-width="1.5" d="M0,-3.0v7 M-2.5,-0.5L0,-3.0L2.5,-0.5"/>
  </g>
  <g id="resetDef">
    <use xlink:href="#rim2" fill="#404040"><set attributeName="fill" to="#808080" begin="reset.mouseover" end="reset.mouseout"/></use>
  </g>
</defs>
<script type="application/ecmascript">
var viewWidth = 934;
var viewHeight = 140;
var sectionId = 'dynsection-105';
</script>
<script type="application/ecmascript" xlink:href="svg.min.js"/>
<svg id="graph" class="graph">
<g id="viewport">
<title>BotConfig::updateStringBotFile</title>
<!-- Node1 -->
<g id="Node000001" class="node">
<title>Node1</title>
<g id="a_Node000001"><a xlink:title=" ">
<polygon fill="#999999" stroke="#666666" points="926.25,-76 775.25,-76 775.25,-56 926.25,-56 926.25,-76"/>
<text text-anchor="middle" x="850.75" y="-62.5" font-family="Helvetica,sans-Serif" font-size="10.00">BotConfig::updateStringBotFile</text>
</a>
</g>
</g>
<!-- Node2 -->
<g id="Node000002" class="node">
<title>Node2</title>
<g id="a_Node000002"><a xlink:href="class_bot_config.html#ab9fe07595e423fcdfc22322dd1ede393" target="_top" xlink:title=" ">
<polygon fill="white" stroke="#666666" points="739.25,-132 595.75,-132 595.75,-100 739.25,-100 739.25,-132"/>
<text text-anchor="start" x="603.75" y="-118.5" font-family="Helvetica,sans-Serif" font-size="10.00">BotConfig::updateBluestacks</text>
<text text-anchor="middle" x="667.5" y="-106.5" font-family="Helvetica,sans-Serif" font-size="10.00">Config</text>
</a>
</g>
</g>
<!-- Node1&#45;&gt;Node2 -->
<g id="edge1_Node000001_Node000002" class="edge">
<title>Node1&#45;&gt;Node2</title>
<g id="a_edge1_Node000001_Node000002"><a xlink:title=" ">
<path fill="none" stroke="#63b8ff" d="M800.82,-79.5C778.45,-85.67 751.75,-93.03 728.21,-99.53"/>
<polygon fill="#63b8ff" stroke="#63b8ff" points="801.59,-82.92 810.3,-76.88 799.72,-76.17 801.59,-82.92"/>
</a>
</g>
</g>
<!-- Node7 -->
<g id="Node000007" class="node">
<title>Node7</title>
<g id="a_Node000007"><a xlink:href="class_bot_config.html#ae21ba22e6f1b9dfcacf38dd78f904d82" target="_top" xlink:title=" ">
<polygon fill="white" stroke="#666666" points="739.25,-82 595.75,-82 595.75,-50 739.25,-50 739.25,-82"/>
<text text-anchor="start" x="603.75" y="-68.5" font-family="Helvetica,sans-Serif" font-size="10.00">BotConfig::updateBluestacks</text>
<text text-anchor="middle" x="667.5" y="-56.5" font-family="Helvetica,sans-Serif" font-size="10.00">Folder</text>
</a>
</g>
</g>
<!-- Node1&#45;&gt;Node7 -->
<g id="edge6_Node000001_Node000007" class="edge">
<title>Node1&#45;&gt;Node7</title>
<g id="a_edge6_Node000001_Node000007"><a xlink:title=" ">
<path fill="none" stroke="#63b8ff" d="M763.65,-66C755.6,-66 747.49,-66 739.6,-66"/>
<polygon fill="#63b8ff" stroke="#63b8ff" points="763.47,-69.5 773.47,-66 763.47,-62.5 763.47,-69.5"/>
</a>
</g>
</g>
<!-- Node8 -->
<g id="Node000008" class="node">
<title>Node8</title>
<g id="a_Node000008"><a xlink:href="class_bot_config.html#a095c01a9b9e6ff1db9c683716337f45f" target="_top" xlink:title=" ">
<polygon fill="white" stroke="#666666" points="734,-32 601,-32 601,0 734,0 734,-32"/>
<text text-anchor="start" x="609" y="-18.5" font-family="Helvetica,sans-Serif" font-size="10.00">BotConfig::updateLdPlayer</text>
<text text-anchor="middle" x="667.5" y="-6.5" font-family="Helvetica,sans-Serif" font-size="10.00">Folder</text>
</a>
</g>
</g>
<!-- Node1&#45;&gt;Node8 -->
<g id="edge8_Node000001_Node000008" class="edge">
<title>Node1&#45;&gt;Node8</title>
<g id="a_edge8_Node000001_Node000008"><a xlink:title=" ">
<path fill="none" stroke="#63b8ff" d="M800.82,-52.5C778.45,-46.33 751.75,-38.97 728.21,-32.47"/>
<polygon fill="#63b8ff" stroke="#63b8ff" points="799.72,-55.83 810.3,-55.12 801.59,-49.08 799.72,-55.83"/>
</a>
</g>
</g>
<!-- Node3 -->
<g id="Node000003" class="node">
<title>Node3</title>
<g id="a_Node000003"><a xlink:href="class_bot_config.html#a24360fdf5b92d7fb02ca39004ceb06cf" target="_top" xlink:title=" ">
<polygon fill="white" stroke="#666666" points="559.75,-76 432.75,-76 432.75,-56 559.75,-56 559.75,-76"/>
<text text-anchor="middle" x="496.25" y="-62.5" font-family="Helvetica,sans-Serif" font-size="10.00">BotConfig::initBluestacks</text>
</a>
</g>
</g>
<!-- Node2&#45;&gt;Node3 -->
<g id="edge2_Node000002_Node000003" class="edge">
<title>Node2&#45;&gt;Node3</title>
<g id="a_edge2_Node000002_Node000003"><a xlink:title=" ">
<path fill="none" stroke="#63b8ff" d="M600.28,-96.44C577.18,-89.61 552.16,-82.22 532.56,-76.43"/>
<polygon fill="#63b8ff" stroke="#63b8ff" points="599.05,-99.72 609.63,-99.2 601.03,-93.01 599.05,-99.72"/>
</a>
</g>
</g>
<!-- Node4 -->
<g id="Node000004" class="node">
<title>Node4</title>
<g id="a_Node000004"><a xlink:href="class_bot_config.html#af8c906f3cd22726a96e758886c756068" target="_top" xlink:title=" ">
<polygon fill="white" stroke="#666666" points="396.75,-57 274.25,-57 274.25,-37 396.75,-37 396.75,-57"/>
<text text-anchor="middle" x="335.5" y="-43.5" font-family="Helvetica,sans-Serif" font-size="10.00">BotConfig::initEmulators</text>
</a>
</g>
</g>
<!-- Node3&#45;&gt;Node4 -->
<g id="edge3_Node000003_Node000004" class="edge">
<title>Node3&#45;&gt;Node4</title>
<g id="a_edge3_Node000003_Node000004"><a xlink:title=" ">
<path fill="none" stroke="#63b8ff" d="M421.23,-57.14C413.19,-56.18 405.08,-55.21 397.23,-54.27"/>
<polygon fill="#63b8ff" stroke="#63b8ff" points="420.66,-60.6 431,-58.31 421.49,-53.65 420.66,-60.6"/>
</a>
</g>
</g>
<!-- Node5 -->
<g id="Node000005" class="node">
<title>Node5</title>
<g id="a_Node000005"><a xlink:href="class_bot_config.html#a8925ef3403b945f27b9ee2719ef257b9" target="_top" xlink:title=" ">
<polygon fill="white" stroke="#666666" points="238.25,-57 116.5,-57 116.5,-37 238.25,-37 238.25,-57"/>
<text text-anchor="middle" x="177.38" y="-43.5" font-family="Helvetica,sans-Serif" font-size="10.00">BotConfig::initBotConfig</text>
</a>
</g>
</g>
<!-- Node4&#45;&gt;Node5 -->
<g id="edge4_Node000004_Node000005" class="edge">
<title>Node4&#45;&gt;Node5</title>
<g id="a_edge4_Node000004_Node000005"><a xlink:title=" ">
<path fill="none" stroke="#63b8ff" d="M262.79,-47C254.69,-47 246.5,-47 238.58,-47"/>
<polygon fill="#63b8ff" stroke="#63b8ff" points="262.62,-50.5 272.62,-47 262.62,-43.5 262.62,-50.5"/>
</a>
</g>
</g>
<!-- Node6 -->
<g id="Node000006" class="node">
<title>Node6</title>
<g id="a_Node000006"><a xlink:href="classgame.html#aea6b13468585f1be55d1736100158706" target="_top" xlink:title=" ">
<polygon fill="white" stroke="#666666" points="80.5,-57 0,-57 0,-37 80.5,-37 80.5,-57"/>
<text text-anchor="middle" x="40.25" y="-43.5" font-family="Helvetica,sans-Serif" font-size="10.00">game::startBot</text>
</a>
</g>
</g>
<!-- Node5&#45;&gt;Node6 -->
<g id="edge5_Node000005_Node000006" class="edge">
<title>Node5&#45;&gt;Node6</title>
<g id="a_edge5_Node000005_Node000006"><a xlink:title=" ">
<path fill="none" stroke="#63b8ff" d="M105.04,-47C96.77,-47 88.57,-47 80.95,-47"/>
<polygon fill="#63b8ff" stroke="#63b8ff" points="104.81,-50.5 114.81,-47 104.81,-43.5 104.81,-50.5"/>
</a>
</g>
</g>
<!-- Node7&#45;&gt;Node3 -->
<g id="edge7_Node000007_Node000003" class="edge">
<title>Node7&#45;&gt;Node3</title>
<g id="a_edge7_Node000007_Node000003"><a xlink:title=" ">
<path fill="none" stroke="#63b8ff" d="M584.31,-66C576.21,-66 568.08,-66 560.22,-66"/>
<polygon fill="#63b8ff" stroke="#63b8ff" points="584.19,-69.5 594.19,-66 584.19,-62.5 584.19,-69.5"/>
</a>
</g>
</g>
<!-- Node9 -->
<g id="Node000009" class="node">
<title>Node9</title>
<g id="a_Node000009"><a xlink:href="class_bot_config.html#ac91f46c5dca7953454d5a2340dfd7f5c" target="_top" xlink:title=" ">
<polygon fill="white" stroke="#666666" points="554.5,-32 438,-32 438,-12 554.5,-12 554.5,-32"/>
<text text-anchor="middle" x="496.25" y="-18.5" font-family="Helvetica,sans-Serif" font-size="10.00">BotConfig::initLdPlayer</text>
</a>
</g>
</g>
<!-- Node8&#45;&gt;Node9 -->
<g id="edge9_Node000008_Node000009" class="edge">
<title>Node8&#45;&gt;Node9</title>
<g id="a_edge9_Node000008_Node000009"><a xlink:title=" ">
<path fill="none" stroke="#63b8ff" d="M589.11,-18.74C577.54,-19.15 565.8,-19.57 554.74,-19.96"/>
<polygon fill="#63b8ff" stroke="#63b8ff" points="589.2,-22.24 599.07,-18.39 588.95,-15.25 589.2,-22.24"/>
</a>
</g>
</g>
<!-- Node9&#45;&gt;Node4 -->
<g id="edge10_Node000009_Node000004" class="edge">
<title>Node9&#45;&gt;Node4</title>
<g id="a_edge10_Node000009_Node000004"><a xlink:title=" ">
<path fill="none" stroke="#63b8ff" d="M426.6,-32.81C416.82,-34.35 406.82,-35.93 397.21,-37.44"/>
<polygon fill="#63b8ff" stroke="#63b8ff" points="427.11,-36.27 436.44,-31.26 426.02,-29.36 427.11,-36.27"/>
</a>
</g>
</g>
</g>
</svg>

<g id="navigator" transform="translate(0 0)" fill="#404254">
  <rect fill="#f2f5e9" fill-opacity="0.5" stroke="#606060" stroke-width=".5" x="0" y="0" width="60" height="60"/>
  <use id="zoomplus" xlink:href="#zoomPlus" x="17" y="9" onmousedown="handleZoom(evt,'in')"/>
  <use id="zoomminus" xlink:href="#zoomMin" x="42" y="9" onmousedown="handleZoom(evt,'out')"/>
  <use id="reset" xlink:href="#resetDef" x="30" y="36" onmousedown="handleReset()"/>
   <use id="arrowup" xlink:href="#arrowUp" x="0" y="0" onmousedown="handlePan(0,-1)"/>
  <use id="arrowright" xlink:href="#arrowRight" x="0" y="0" onmousedown="handlePan(1,0)"/>
  <use id="arrowdown" xlink:href="#arrowDown" x="0" y="0" onmousedown="handlePan(0,1)"/>
  <use id="arrowleft" xlink:href="#arrowLeft" x="0" y="0" onmousedown="handlePan(-1,0)"/>
</g>
<svg viewBox="0 0 15 15" width="100%" height="30px" preserveAspectRatio="xMaxYMin meet">
 <g id="arrow_out" transform="scale(0.3 0.3)">
  <a xlink:href="class_bot_config_a7fe6cbda7ec98c3070e6f9437f6eeb84_icgraph_org.svg" target="_base">
   <rect id="button" ry="5" rx="5" y="6" x="6" height="38" width="38"
        fill="#f2f5e9" fill-opacity="0.5" stroke="#606060" stroke-width="1.0"/>
   <path id="arrow"
     d="M 11.500037,31.436501 C 11.940474,20.09759 22.043105,11.32322 32.158766,21.979434 L 37.068811,17.246167 C 37.068811,17.246167 37.088388,32 37.088388,32 L 22.160133,31.978069 C 22.160133,31.978069 26.997745,27.140456 26.997745,27.140456 C 18.528582,18.264221 13.291696,25.230495 11.500037,31.436501 z"
     style="fill:#404040;"/>
  </a>
 </g>
</svg>

<style type='text/css'>
<![CDATA[
[data-mouse-over-selected='false'] { opacity: 0.7; }
[data-mouse-over-selected='true']  { opacity: 1.0; }
]]>
</style>
<script type="application/ecmascript"><![CDATA[
document.addEventListener('DOMContentLoaded', (event) => {
  highlightEdges();
  highlightAdjacentNodes();
});
]]></script>
</svg>
