<?xml version="1.0" encoding="UTF-8" standalone="no"?>
<!DOCTYPE svg PUBLIC "-//W3C//DTD SVG 1.1//EN"
 "http://www.w3.org/Graphics/SVG/1.1/DTD/svg11.dtd">
<!-- Generated by graphviz version 12.2.0 (20241103.1931)
 -->
<!-- Title: Interactions::fcCompareMultipleTemplateA Pages: 1 -->
<svg width="1310pt" height="405pt"
 viewBox="0.00 0.00 1310.00 405.00" xmlns="http://www.w3.org/2000/svg" xmlns:xlink="http://www.w3.org/1999/xlink">
<g id="graph0" class="graph" transform="scale(1 1) rotate(0) translate(4 401)">
<title>Interactions::fcCompareMultipleTemplateA</title>
<!-- Node1 -->
<g id="Node000001" class="node">
<title>Node1</title>
<g id="a_Node000001"><a xlink:title=" ">
<polygon fill="#999999" stroke="#666666" points="154.75,-102 0,-102 0,-70 154.75,-70 154.75,-102"/>
<text text-anchor="start" x="8" y="-88.5" font-family="Helvetica,sans-Serif" font-size="10.00">Interactions::fcCompareMultiple</text>
<text text-anchor="middle" x="77.38" y="-76.5" font-family="Helvetica,sans-Serif" font-size="10.00">TemplateA</text>
</a>
</g>
</g>
<!-- Node2 -->
<g id="Node000002" class="node">
<title>Node2</title>
<g id="a_Node000002"><a xlink:href="class_interactions.html#a1e4898ef6baa65c69e8f4a94e34f91f9" target="_top" xlink:title=" ">
<polygon fill="white" stroke="#666666" points="340.25,-102 190.75,-102 190.75,-70 340.25,-70 340.25,-102"/>
<text text-anchor="start" x="198.75" y="-88.5" font-family="Helvetica,sans-Serif" font-size="10.00">Interactions::fCompareMultiple</text>
<text text-anchor="middle" x="265.5" y="-76.5" font-family="Helvetica,sans-Serif" font-size="10.00">TemplateA</text>
</a>
</g>
</g>
<!-- Node1&#45;&gt;Node2 -->
<g id="edge1_Node000001_Node000002" class="edge">
<title>Node1&#45;&gt;Node2</title>
<g id="a_edge1_Node000001_Node000002"><a xlink:title=" ">
<path fill="none" stroke="#63b8ff" d="M155.15,-86C162.96,-86 170.92,-86 178.81,-86"/>
<polygon fill="#63b8ff" stroke="#63b8ff" points="178.78,-89.5 188.78,-86 178.78,-82.5 178.78,-89.5"/>
</a>
</g>
</g>
<!-- Node3 -->
<g id="Node000003" class="node">
<title>Node3</title>
<g id="a_Node000003"><a xlink:href="fopencv_8cpp.html#ade157d547c93a4a6c0c6395cbcd15e10" target="_top" xlink:title=" ">
<polygon fill="white" stroke="#666666" points="692.5,-256 538.5,-256 538.5,-236 692.5,-236 692.5,-256"/>
<text text-anchor="middle" x="615.5" y="-242.5" font-family="Helvetica,sans-Serif" font-size="10.00">cvmtfCompareMultipleTemplate</text>
</a>
</g>
</g>
<!-- Node2&#45;&gt;Node3 -->
<g id="edge2_Node000002_Node000003" class="edge">
<title>Node2&#45;&gt;Node3</title>
<g id="a_edge2_Node000002_Node000003"><a xlink:title=" ">
<path fill="none" stroke="#63b8ff" d="M291.12,-102.42C312.94,-116.58 345.95,-137.04 376.25,-152 443.02,-184.96 524.38,-215.02 572.67,-231.87"/>
<polygon fill="#63b8ff" stroke="#63b8ff" points="571.31,-235.11 581.9,-235.07 573.6,-228.49 571.31,-235.11"/>
</a>
</g>
</g>
<!-- Node13 -->
<g id="Node000013" class="node">
<title>Node13</title>
<g id="a_Node000013"><a xlink:href="class_interactions.html#a5b5af2b125ff152043789cfcf70ffb2b" target="_top" xlink:title=" ">
<polygon fill="white" stroke="#666666" points="502.5,-58 376.25,-58 376.25,-38 502.5,-38 502.5,-58"/>
<text text-anchor="middle" x="439.38" y="-44.5" font-family="Helvetica,sans-Serif" font-size="10.00">Interactions::getTemplate</text>
</a>
</g>
</g>
<!-- Node2&#45;&gt;Node13 -->
<g id="edge17_Node000002_Node000013" class="edge">
<title>Node2&#45;&gt;Node13</title>
<g id="a_edge17_Node000002_Node000013"><a xlink:title=" ">
<path fill="none" stroke="#63b8ff" d="M340.39,-69.66C353.76,-66.71 367.53,-63.66 380.36,-60.83"/>
<polygon fill="#63b8ff" stroke="#63b8ff" points="380.88,-64.3 389.89,-58.72 379.37,-57.46 380.88,-64.3"/>
</a>
</g>
</g>
<!-- Node15 -->
<g id="Node000015" class="node">
<title>Node15</title>
<g id="a_Node000015"><a xlink:href="class_interactions.html#a0a0ffd9ad1990de31fd7b2773db32667" target="_top" xlink:title=" ">
<polygon fill="white" stroke="#666666" points="499.88,-143 378.88,-143 378.88,-123 499.88,-123 499.88,-143"/>
<text text-anchor="middle" x="439.38" y="-129.5" font-family="Helvetica,sans-Serif" font-size="10.00">Interactions::loopPopUp</text>
</a>
</g>
</g>
<!-- Node2&#45;&gt;Node15 -->
<g id="edge19_Node000002_Node000015" class="edge">
<title>Node2&#45;&gt;Node15</title>
<g id="a_edge19_Node000002_Node000015"><a xlink:title=" ">
<path fill="none" stroke="#63b8ff" d="M326.61,-102.44C347.01,-108.01 369.54,-114.18 388.99,-119.5"/>
<polygon fill="#63b8ff" stroke="#63b8ff" points="388.03,-122.86 398.6,-122.12 389.87,-116.11 388.03,-122.86"/>
</a>
</g>
</g>
<!-- Node27 -->
<g id="Node000027" class="node">
<title>Node27</title>
<g id="a_Node000027"><a xlink:href="class_interactions.html#ade7f52c59105f434650b9358b22e5488" target="_top" xlink:title=" ">
<polygon fill="white" stroke="#666666" points="499.88,-20 378.88,-20 378.88,0 499.88,0 499.88,-20"/>
<text text-anchor="middle" x="439.38" y="-6.5" font-family="Helvetica,sans-Serif" font-size="10.00">Interactions::resetCount</text>
</a>
</g>
</g>
<!-- Node2&#45;&gt;Node27 -->
<g id="edge33_Node000002_Node000027" class="edge">
<title>Node2&#45;&gt;Node27</title>
<g id="a_edge33_Node000002_Node000027"><a xlink:title=" ">
<path fill="none" stroke="#63b8ff" d="M294.71,-69.53C316.48,-57.27 347.63,-40.69 376.25,-29 380.54,-27.25 385.05,-25.57 389.6,-23.99"/>
<polygon fill="#63b8ff" stroke="#63b8ff" points="390.38,-27.41 398.77,-20.95 388.18,-20.77 390.38,-27.41"/>
</a>
</g>
</g>
<!-- Node28 -->
<g id="Node000028" class="node">
<title>Node28</title>
<g id="a_Node000028"><a xlink:href="class_interactions.html#ad7daddd9df3cea80e69872b8afd6c8dc" target="_top" xlink:title=" ">
<polygon fill="white" stroke="#666666" points="684.25,-86 546.75,-86 546.75,-66 684.25,-66 684.25,-86"/>
<text text-anchor="middle" x="615.5" y="-72.5" font-family="Helvetica,sans-Serif" font-size="10.00">Interactions::templateFound</text>
</a>
</g>
</g>
<!-- Node2&#45;&gt;Node28 -->
<g id="edge34_Node000002_Node000028" class="edge">
<title>Node2&#45;&gt;Node28</title>
<g id="a_edge34_Node000002_Node000028"><a xlink:title=" ">
<path fill="none" stroke="#63b8ff" d="M340.73,-83.87C397.81,-82.23 476.52,-79.97 534.9,-78.29"/>
<polygon fill="#63b8ff" stroke="#63b8ff" points="534.88,-81.79 544.78,-78 534.68,-74.79 534.88,-81.79"/>
</a>
</g>
</g>
<!-- Node4 -->
<g id="Node000004" class="node">
<title>Node4</title>
<g id="a_Node000004"><a xlink:href="fopencv_8cpp.html#a95c56af5716e2b2d1b4df612796cc229" target="_top" xlink:title=" ">
<polygon fill="white" stroke="#666666" points="842.75,-313 728.5,-313 728.5,-293 842.75,-293 842.75,-313"/>
<text text-anchor="middle" x="785.62" y="-299.5" font-family="Helvetica,sans-Serif" font-size="10.00">cvmtfMultipleTemplate</text>
</a>
</g>
</g>
<!-- Node3&#45;&gt;Node4 -->
<g id="edge3_Node000003_Node000004" class="edge">
<title>Node3&#45;&gt;Node4</title>
<g id="a_edge3_Node000003_Node000004"><a xlink:title=" ">
<path fill="none" stroke="#63b8ff" d="M647.34,-256.45C674.15,-265.55 713.24,-278.8 742.86,-288.84"/>
<polygon fill="#63b8ff" stroke="#63b8ff" points="741.67,-292.13 752.27,-292.03 743.92,-285.5 741.67,-292.13"/>
</a>
</g>
</g>
<!-- Node9 -->
<g id="Node000009" class="node">
<title>Node9</title>
<g id="a_Node000009"><a xlink:href="fopencv_8cpp.html#a6abdcaeee06b3da6f210daf0162bcd01" target="_top" xlink:title=" ">
<polygon fill="white" stroke="#666666" points="1097.12,-379 1038.38,-379 1038.38,-359 1097.12,-359 1097.12,-379"/>
<text text-anchor="middle" x="1067.75" y="-365.5" font-family="Helvetica,sans-Serif" font-size="10.00">intersects</text>
</a>
</g>
</g>
<!-- Node3&#45;&gt;Node9 -->
<g id="edge15_Node000003_Node000009" class="edge">
<title>Node3&#45;&gt;Node9</title>
<g id="a_edge15_Node000003_Node000009"><a xlink:title=" ">
<path fill="none" stroke="#63b8ff" d="M629.18,-256.46C649.18,-272.5 689.77,-303.31 728.5,-322 791.51,-352.41 809.58,-358.43 878.75,-369 929.33,-376.73 988.47,-374.99 1026.72,-372.48"/>
<polygon fill="#63b8ff" stroke="#63b8ff" points="1026.64,-376 1036.37,-371.8 1026.15,-369.01 1026.64,-376"/>
</a>
</g>
</g>
<!-- Node10 -->
<g id="Node000010" class="node">
<title>Node10</title>
<g id="a_Node000010"><a xlink:href="fopencv_8cpp.html#a69713584f69a121e4ed91918a64448a0" target="_top" xlink:title=" ">
<polygon fill="white" stroke="#666666" points="825.88,-256 745.38,-256 745.38,-236 825.88,-236 825.88,-256"/>
<text text-anchor="middle" x="785.62" y="-242.5" font-family="Helvetica,sans-Serif" font-size="10.00">cvmtfTemplate</text>
</a>
</g>
</g>
<!-- Node3&#45;&gt;Node10 -->
<g id="edge10_Node000003_Node000010" class="edge">
<title>Node3&#45;&gt;Node10</title>
<g id="a_edge10_Node000003_Node000010"><a xlink:title=" ">
<path fill="none" stroke="#63b8ff" d="M692.69,-246C706.53,-246 720.65,-246 733.54,-246"/>
<polygon fill="#63b8ff" stroke="#63b8ff" points="733.48,-249.5 743.48,-246 733.48,-242.5 733.48,-249.5"/>
</a>
</g>
</g>
<!-- Node11 -->
<g id="Node000011" class="node">
<title>Node11</title>
<g id="a_Node000011"><a xlink:href="fopencv_8cpp.html#a1ed1ff1a9df2ab889e1423cb11a58c06" target="_top" xlink:title=" ">
<polygon fill="white" stroke="#666666" points="978.38,-208 895.62,-208 895.62,-188 978.38,-188 978.38,-208"/>
<text text-anchor="middle" x="937" y="-194.5" font-family="Helvetica,sans-Serif" font-size="10.00">messageFound</text>
</a>
</g>
</g>
<!-- Node3&#45;&gt;Node11 -->
<g id="edge16_Node000003_Node000011" class="edge">
<title>Node3&#45;&gt;Node11</title>
<g id="a_edge16_Node000003_Node000011"><a xlink:title=" ">
<path fill="none" stroke="#63b8ff" d="M676.32,-235.52C693.18,-232.66 711.54,-229.62 728.5,-227 781.4,-218.82 842.05,-210.46 884.06,-204.83"/>
<polygon fill="#63b8ff" stroke="#63b8ff" points="884.44,-208.31 893.89,-203.52 883.52,-201.37 884.44,-208.31"/>
</a>
</g>
</g>
<!-- Node5 -->
<g id="Node000005" class="node">
<title>Node5</title>
<g id="a_Node000005"><a xlink:href="fopencv_8cpp.html#af6fc77188d314c0d5a58888452f9b313" target="_top" xlink:title=" ">
<polygon fill="white" stroke="#666666" points="970.88,-284 903.12,-284 903.12,-264 970.88,-264 970.88,-284"/>
<text text-anchor="middle" x="937" y="-270.5" font-family="Helvetica,sans-Serif" font-size="10.00">extractZone</text>
</a>
</g>
</g>
<!-- Node4&#45;&gt;Node5 -->
<g id="edge4_Node000004_Node000005" class="edge">
<title>Node4&#45;&gt;Node5</title>
<g id="a_edge4_Node000004_Node000005"><a xlink:title=" ">
<path fill="none" stroke="#63b8ff" d="M840.55,-292.53C857.36,-289.27 875.7,-285.71 891.77,-282.59"/>
<polygon fill="#63b8ff" stroke="#63b8ff" points="892.38,-286.03 901.53,-280.69 891.04,-279.16 892.38,-286.03"/>
</a>
</g>
</g>
<!-- Node6 -->
<g id="Node000006" class="node">
<title>Node6</title>
<g id="a_Node000006"><a xlink:href="struct_zone.html#a5301e7fcf185a5a79c1bf7d7930f4b8a" target="_top" xlink:title=" ">
<polygon fill="white" stroke="#666666" points="971.25,-322 902.75,-322 902.75,-302 971.25,-302 971.25,-322"/>
<text text-anchor="middle" x="937" y="-308.5" font-family="Helvetica,sans-Serif" font-size="10.00">Zone::isNull</text>
</a>
</g>
</g>
<!-- Node4&#45;&gt;Node6 -->
<g id="edge5_Node000004_Node000006" class="edge">
<title>Node4&#45;&gt;Node6</title>
<g id="a_edge5_Node000004_Node000006"><a xlink:title=" ">
<path fill="none" stroke="#63b8ff" d="M843.1,-306.4C859.03,-307.36 876.14,-308.39 891.28,-309.31"/>
<polygon fill="#63b8ff" stroke="#63b8ff" points="890.72,-312.78 900.91,-309.89 891.14,-305.79 890.72,-312.78"/>
</a>
</g>
</g>
<!-- Node8 -->
<g id="Node000008" class="node">
<title>Node8</title>
<g id="a_Node000008"><a xlink:href="fopencv_8cpp.html#a7521a083566181475d36ee14aad60f1d" target="_top" xlink:title=" ">
<polygon fill="white" stroke="#666666" points="995.25,-360 878.75,-360 878.75,-340 995.25,-340 995.25,-360"/>
<text text-anchor="middle" x="937" y="-346.5" font-family="Helvetica,sans-Serif" font-size="10.00">multipleMatchTemplate</text>
</a>
</g>
</g>
<!-- Node4&#45;&gt;Node8 -->
<g id="edge7_Node000004_Node000008" class="edge">
<title>Node4&#45;&gt;Node8</title>
<g id="a_edge7_Node000004_Node000008"><a xlink:title=" ">
<path fill="none" stroke="#63b8ff" d="M819.78,-313.43C840.98,-320.1 868.72,-328.83 891.79,-336.09"/>
<polygon fill="#63b8ff" stroke="#63b8ff" points="890.65,-339.4 901.24,-339.06 892.75,-332.72 890.65,-339.4"/>
</a>
</g>
</g>
<!-- Node7 -->
<g id="Node000007" class="node">
<title>Node7</title>
<g id="a_Node000007"><a xlink:href="struct_coord.html#a34c573cd6230e5a532f12ae97e7395e2" target="_top" xlink:title=" ">
<polygon fill="white" stroke="#666666" points="1104.25,-322 1031.25,-322 1031.25,-302 1104.25,-302 1104.25,-322"/>
<text text-anchor="middle" x="1067.75" y="-308.5" font-family="Helvetica,sans-Serif" font-size="10.00">Coord::isNull</text>
</a>
</g>
</g>
<!-- Node6&#45;&gt;Node7 -->
<g id="edge6_Node000006_Node000007" class="edge">
<title>Node6&#45;&gt;Node7</title>
<g id="a_edge6_Node000006_Node000007"><a xlink:title=" ">
<path fill="none" stroke="#63b8ff" d="M971.49,-312C986.24,-312 1003.82,-312 1019.85,-312"/>
<polygon fill="#63b8ff" stroke="#63b8ff" points="1019.66,-315.5 1029.66,-312 1019.66,-308.5 1019.66,-315.5"/>
</a>
</g>
</g>
<!-- Node8&#45;&gt;Node9 -->
<g id="edge8_Node000008_Node000009" class="edge">
<title>Node8&#45;&gt;Node9</title>
<g id="a_edge8_Node000008_Node000009"><a xlink:title=" ">
<path fill="none" stroke="#63b8ff" d="M995.6,-358.5C1006.18,-360.06 1017.02,-361.66 1026.94,-363.12"/>
<polygon fill="#63b8ff" stroke="#63b8ff" points="1026.19,-366.55 1036.59,-364.55 1027.21,-359.63 1026.19,-366.55"/>
</a>
</g>
</g>
<!-- Node9&#45;&gt;Node9 -->
<g id="edge9_Node000009_Node000009" class="edge">
<title>Node9&#45;&gt;Node9</title>
<g id="a_edge9_Node000009_Node000009"><a xlink:title=" ">
<path fill="none" stroke="#63b8ff" d="M1050.91,-379.34C1043.71,-387.98 1049.32,-397 1067.75,-397 1077.83,-397 1084.07,-394.3 1086.48,-390.44"/>
<polygon fill="#63b8ff" stroke="#63b8ff" points="1089.98,-390.1 1084.85,-380.83 1083.08,-391.28 1089.98,-390.1"/>
</a>
</g>
</g>
<!-- Node10&#45;&gt;Node5 -->
<g id="edge11_Node000010_Node000005" class="edge">
<title>Node10&#45;&gt;Node5</title>
<g id="a_edge11_Node000010_Node000005"><a xlink:title=" ">
<path fill="none" stroke="#63b8ff" d="M826.26,-253.43C846.39,-257.2 870.91,-261.8 891.66,-265.69"/>
<polygon fill="#63b8ff" stroke="#63b8ff" points="890.79,-269.09 901.27,-267.49 892.08,-262.21 890.79,-269.09"/>
</a>
</g>
</g>
<!-- Node10&#45;&gt;Node6 -->
<g id="edge12_Node000010_Node000006" class="edge">
<title>Node10&#45;&gt;Node6</title>
<g id="a_edge12_Node000010_Node000006"><a xlink:title=" ">
<path fill="none" stroke="#63b8ff" d="M804.94,-256.39C823.25,-266.52 852.41,-281.99 878.75,-293 882.87,-294.72 887.21,-296.4 891.58,-298"/>
<polygon fill="#63b8ff" stroke="#63b8ff" points="890.36,-301.28 900.96,-301.29 892.68,-294.68 890.36,-301.28"/>
</a>
</g>
</g>
<!-- Node10&#45;&gt;Node11 -->
<g id="edge13_Node000010_Node000011" class="edge">
<title>Node10&#45;&gt;Node11</title>
<g id="a_edge13_Node000010_Node000011"><a xlink:title=" ">
<path fill="none" stroke="#63b8ff" d="M819.04,-235.58C840.59,-228.66 869.15,-219.48 892.66,-211.93"/>
<polygon fill="#63b8ff" stroke="#63b8ff" points="893.5,-215.33 901.95,-208.94 891.36,-208.67 893.5,-215.33"/>
</a>
</g>
</g>
<!-- Node12 -->
<g id="Node000012" class="node">
<title>Node12</title>
<g id="a_Node000012"><a xlink:href="fopencv_8cpp.html#ae51fd1f3ed39bd8c9b8da4a313d5aeb3" target="_top" xlink:title=" ">
<polygon fill="white" stroke="#666666" points="986.25,-246 887.75,-246 887.75,-226 986.25,-226 986.25,-246"/>
<text text-anchor="middle" x="937" y="-232.5" font-family="Helvetica,sans-Serif" font-size="10.00">oneMatchTemplate</text>
</a>
</g>
</g>
<!-- Node10&#45;&gt;Node12 -->
<g id="edge14_Node000010_Node000012" class="edge">
<title>Node10&#45;&gt;Node12</title>
<g id="a_edge14_Node000010_Node000012"><a xlink:title=" ">
<path fill="none" stroke="#63b8ff" d="M826.26,-243.35C841.5,-242.33 859.26,-241.14 875.99,-240.02"/>
<polygon fill="#63b8ff" stroke="#63b8ff" points="876.12,-243.52 885.86,-239.36 875.65,-236.53 876.12,-243.52"/>
</a>
</g>
</g>
<!-- Node14 -->
<g id="Node000014" class="node">
<title>Node14</title>
<g id="a_Node000014"><a xlink:href="struct_template.html#a93d3c6f97592ba09d7819fda3c3296d7" target="_top" xlink:title=" ">
<polygon fill="white" stroke="#666666" points="663.62,-48 567.38,-48 567.38,-28 663.62,-28 663.62,-48"/>
<text text-anchor="middle" x="615.5" y="-34.5" font-family="Helvetica,sans-Serif" font-size="10.00">Template::setType</text>
</a>
</g>
</g>
<!-- Node13&#45;&gt;Node14 -->
<g id="edge18_Node000013_Node000014" class="edge">
<title>Node13&#45;&gt;Node14</title>
<g id="a_edge18_Node000013_Node000014"><a xlink:title=" ">
<path fill="none" stroke="#63b8ff" d="M502.75,-44.42C519.95,-43.43 538.56,-42.36 555.56,-41.38"/>
<polygon fill="#63b8ff" stroke="#63b8ff" points="555.75,-44.88 565.53,-40.81 555.35,-37.89 555.75,-44.88"/>
</a>
</g>
</g>
<!-- Node16 -->
<g id="Node000016" class="node">
<title>Node16</title>
<g id="a_Node000016"><a xlink:href="fopencv_8cpp.html#a5c455ed716b7fa4c675446fc5b8ba4fb" target="_top" xlink:title=" ">
<polygon fill="white" stroke="#666666" points="646.38,-124 584.62,-124 584.62,-104 646.38,-104 646.38,-124"/>
<text text-anchor="middle" x="615.5" y="-110.5" font-family="Helvetica,sans-Serif" font-size="10.00">CreateMat</text>
</a>
</g>
</g>
<!-- Node15&#45;&gt;Node16 -->
<g id="edge20_Node000015_Node000016" class="edge">
<title>Node15&#45;&gt;Node16</title>
<g id="a_edge20_Node000015_Node000016"><a xlink:title=" ">
<path fill="none" stroke="#63b8ff" d="M500.3,-126.46C524.31,-123.84 551.39,-120.89 573.15,-118.51"/>
<polygon fill="#63b8ff" stroke="#63b8ff" points="573.25,-122.02 582.81,-117.46 572.49,-115.06 573.25,-122.02"/>
</a>
</g>
</g>
<!-- Node17 -->
<g id="Node000017" class="node">
<title>Node17</title>
<g id="a_Node000017"><a xlink:href="class_interactions.html#aed04f9177d2aba467d71818a5e82c7bc" target="_top" xlink:title=" ">
<polygon fill="white" stroke="#666666" points="672.62,-162 558.38,-162 558.38,-142 672.62,-142 672.62,-162"/>
<text text-anchor="middle" x="615.5" y="-148.5" font-family="Helvetica,sans-Serif" font-size="10.00">Interactions::fcpopupA</text>
</a>
</g>
</g>
<!-- Node15&#45;&gt;Node17 -->
<g id="edge21_Node000015_Node000017" class="edge">
<title>Node15&#45;&gt;Node17</title>
<g id="a_edge21_Node000015_Node000017"><a xlink:title=" ">
<path fill="none" stroke="#63b8ff" d="M500.3,-139.54C515.34,-141.18 531.58,-142.95 546.96,-144.63"/>
<polygon fill="#63b8ff" stroke="#63b8ff" points="546.16,-148.06 556.48,-145.67 546.92,-141.1 546.16,-148.06"/>
</a>
</g>
</g>
<!-- Node20 -->
<g id="Node000020" class="node">
<title>Node20</title>
<g id="a_Node000020"><a xlink:href="fadb_8cpp.html#aeec40a5f78ae4713eedd84cb5f75746f" target="_top" xlink:title=" ">
<polygon fill="white" stroke="#666666" points="647.5,-200 583.5,-200 583.5,-180 647.5,-180 647.5,-200"/>
<text text-anchor="middle" x="615.5" y="-186.5" font-family="Helvetica,sans-Serif" font-size="10.00">screenshot</text>
</a>
</g>
</g>
<!-- Node15&#45;&gt;Node20 -->
<g id="edge26_Node000015_Node000020" class="edge">
<title>Node15&#45;&gt;Node20</title>
<g id="a_edge26_Node000015_Node000020"><a xlink:title=" ">
<path fill="none" stroke="#63b8ff" d="M464.67,-143.38C484.35,-151.55 512.9,-162.88 538.5,-171 549.28,-174.42 561.07,-177.62 572.08,-180.39"/>
<polygon fill="#63b8ff" stroke="#63b8ff" points="571.18,-183.77 581.72,-182.74 572.84,-176.97 571.18,-183.77"/>
</a>
</g>
</g>
<!-- Node17&#45;&gt;Node10 -->
<g id="edge24_Node000017_Node000010" class="edge">
<title>Node17&#45;&gt;Node10</title>
<g id="a_edge24_Node000017_Node000010"><a xlink:title=" ">
<path fill="none" stroke="#63b8ff" d="M670.71,-162.43C678.22,-164.76 685.69,-167.59 692.5,-171 721.4,-185.47 749.43,-210.32 766.84,-227.43"/>
<polygon fill="#63b8ff" stroke="#63b8ff" points="764.32,-229.86 773.85,-234.5 769.29,-224.93 764.32,-229.86"/>
</a>
</g>
</g>
<!-- Node18 -->
<g id="Node000018" class="node">
<title>Node18</title>
<g id="a_Node000018"><a xlink:href="class_interactions.html#aae6172962092f278714536142e987cde" target="_top" xlink:title=" ">
<polygon fill="white" stroke="#666666" points="832.25,-124 739,-124 739,-104 832.25,-104 832.25,-124"/>
<text text-anchor="middle" x="785.62" y="-110.5" font-family="Helvetica,sans-Serif" font-size="10.00">Interactions::click</text>
</a>
</g>
</g>
<!-- Node17&#45;&gt;Node18 -->
<g id="edge22_Node000017_Node000018" class="edge">
<title>Node17&#45;&gt;Node18</title>
<g id="a_edge22_Node000017_Node000018"><a xlink:title=" ">
<path fill="none" stroke="#63b8ff" d="M662.89,-141.52C682.91,-136.99 706.52,-131.65 727.6,-126.89"/>
<polygon fill="#63b8ff" stroke="#63b8ff" points="728.22,-130.34 737.21,-124.72 726.68,-123.51 728.22,-130.34"/>
</a>
</g>
</g>
<!-- Node19 -->
<g id="Node000019" class="node">
<title>Node19</title>
<g id="a_Node000019"><a xlink:href="class_interactions.html#abd5b5d8a44970e1333e3611e302f166c" target="_top" xlink:title=" ">
<polygon fill="white" stroke="#666666" points="831.12,-86 740.12,-86 740.12,-66 831.12,-66 831.12,-86"/>
<text text-anchor="middle" x="785.62" y="-72.5" font-family="Helvetica,sans-Serif" font-size="10.00">Interactions::wait</text>
</a>
</g>
</g>
<!-- Node17&#45;&gt;Node19 -->
<g id="edge25_Node000017_Node000019" class="edge">
<title>Node17&#45;&gt;Node19</title>
<g id="a_edge25_Node000017_Node000019"><a xlink:title=" ">
<path fill="none" stroke="#63b8ff" d="M672.73,-141.83C679.63,-139.47 686.39,-136.57 692.5,-133 712.59,-121.27 708.91,-107.54 728.5,-95 730.73,-93.57 733.08,-92.24 735.5,-91"/>
<polygon fill="#63b8ff" stroke="#63b8ff" points="736.68,-94.31 744.36,-87.01 733.81,-87.92 736.68,-94.31"/>
</a>
</g>
</g>
<!-- Node18&#45;&gt;Node18 -->
<g id="edge23_Node000018_Node000018" class="edge">
<title>Node18&#45;&gt;Node18</title>
<g id="a_edge23_Node000018_Node000018"><a xlink:title=" ">
<path fill="none" stroke="#63b8ff" d="M761.57,-124.34C751.29,-132.98 759.31,-142 785.62,-142 800.02,-142 808.93,-139.3 812.38,-135.44"/>
<polygon fill="#63b8ff" stroke="#63b8ff" points="815.8,-134.7 810.03,-125.81 809,-136.35 815.8,-134.7"/>
</a>
</g>
</g>
<!-- Node21 -->
<g id="Node000021" class="node">
<title>Node21</title>
<g id="a_Node000021"><a xlink:href="fadb_8cpp.html#a7ab9819839864ebd26d0e7e68e330418" target="_top" xlink:title=" ">
<polygon fill="white" stroke="#666666" points="827.75,-180 743.5,-180 743.5,-160 827.75,-160 827.75,-180"/>
<text text-anchor="middle" x="785.62" y="-166.5" font-family="Helvetica,sans-Serif" font-size="10.00">takeScreenshot</text>
</a>
</g>
</g>
<!-- Node20&#45;&gt;Node21 -->
<g id="edge27_Node000020_Node000021" class="edge">
<title>Node20&#45;&gt;Node21</title>
<g id="a_edge27_Node000020_Node000021"><a xlink:title=" ">
<path fill="none" stroke="#63b8ff" d="M647.73,-186.29C671.35,-183.48 704.33,-179.55 732,-176.26"/>
<polygon fill="#63b8ff" stroke="#63b8ff" points="732.07,-179.78 741.59,-175.12 731.25,-172.83 732.07,-179.78"/>
</a>
</g>
</g>
<!-- Node22 -->
<g id="Node000022" class="node">
<title>Node22</title>
<g id="a_Node000022"><a xlink:href="fadb_8cpp.html#ac6339b59ba8238f7483dece7f3fdf51b" target="_top" xlink:title=" ">
<polygon fill="white" stroke="#666666" points="981.38,-170 892.62,-170 892.62,-150 981.38,-150 981.38,-170"/>
<text text-anchor="middle" x="937" y="-156.5" font-family="Helvetica,sans-Serif" font-size="10.00">runAdbLocalhost</text>
</a>
</g>
</g>
<!-- Node21&#45;&gt;Node22 -->
<g id="edge28_Node000021_Node000022" class="edge">
<title>Node21&#45;&gt;Node22</title>
<g id="a_edge28_Node000021_Node000022"><a xlink:title=" ">
<path fill="none" stroke="#63b8ff" d="M828.23,-167.21C844.59,-166.12 863.6,-164.85 881.06,-163.68"/>
<polygon fill="#63b8ff" stroke="#63b8ff" points="881.01,-167.19 890.76,-163.03 880.55,-160.2 881.01,-167.19"/>
</a>
</g>
</g>
<!-- Node23 -->
<g id="Node000023" class="node">
<title>Node23</title>
<g id="a_Node000023"><a xlink:href="fadb_8cpp.html#a383ae5fedc9f597a03c74c729a2eb740" target="_top" xlink:title=" ">
<polygon fill="white" stroke="#666666" points="1091.12,-170 1044.38,-170 1044.38,-150 1091.12,-150 1091.12,-170"/>
<text text-anchor="middle" x="1067.75" y="-156.5" font-family="Helvetica,sans-Serif" font-size="10.00">runAdb</text>
</a>
</g>
</g>
<!-- Node22&#45;&gt;Node23 -->
<g id="edge29_Node000022_Node000023" class="edge">
<title>Node22&#45;&gt;Node23</title>
<g id="a_edge29_Node000022_Node000023"><a xlink:title=" ">
<path fill="none" stroke="#63b8ff" d="M981.59,-160C998.33,-160 1017.18,-160 1032.87,-160"/>
<polygon fill="#63b8ff" stroke="#63b8ff" points="1032.66,-163.5 1042.66,-160 1032.66,-156.5 1032.66,-163.5"/>
</a>
</g>
</g>
<!-- Node24 -->
<g id="Node000024" class="node">
<title>Node24</title>
<g id="a_Node000024"><a xlink:href="sys_commands_8cpp.html#a321eb7e335377aa7182bafc8a1605032" target="_top" xlink:title=" ">
<polygon fill="white" stroke="#666666" points="1207.25,-170 1140.25,-170 1140.25,-150 1207.25,-150 1207.25,-170"/>
<text text-anchor="middle" x="1173.75" y="-156.5" font-family="Helvetica,sans-Serif" font-size="10.00">receivePipe</text>
</a>
</g>
</g>
<!-- Node23&#45;&gt;Node24 -->
<g id="edge30_Node000023_Node000024" class="edge">
<title>Node23&#45;&gt;Node24</title>
<g id="a_edge30_Node000023_Node000024"><a xlink:title=" ">
<path fill="none" stroke="#63b8ff" d="M1091.57,-160C1102.47,-160 1115.89,-160 1128.66,-160"/>
<polygon fill="#63b8ff" stroke="#63b8ff" points="1128.6,-163.5 1138.6,-160 1128.6,-156.5 1128.6,-163.5"/>
</a>
</g>
</g>
<!-- Node25 -->
<g id="Node000025" class="node">
<title>Node25</title>
<g id="a_Node000025"><a xlink:href="sys_commands_8cpp.html#a4771c79171a937893508dabadadbe099" target="_top" xlink:title=" ">
<polygon fill="white" stroke="#666666" points="1302,-189 1243.25,-189 1243.25,-169 1302,-169 1302,-189"/>
<text text-anchor="middle" x="1272.62" y="-175.5" font-family="Helvetica,sans-Serif" font-size="10.00">closePipe</text>
</a>
</g>
</g>
<!-- Node24&#45;&gt;Node25 -->
<g id="edge31_Node000024_Node000025" class="edge">
<title>Node24&#45;&gt;Node25</title>
<g id="a_edge31_Node000024_Node000025"><a xlink:title=" ">
<path fill="none" stroke="#63b8ff" d="M1207.55,-166.43C1215.31,-167.95 1223.67,-169.59 1231.71,-171.17"/>
<polygon fill="#63b8ff" stroke="#63b8ff" points="1230.78,-174.56 1241.27,-173.05 1232.13,-167.69 1230.78,-174.56"/>
</a>
</g>
</g>
<!-- Node26 -->
<g id="Node000026" class="node">
<title>Node26</title>
<g id="a_Node000026"><a xlink:href="sys_commands_8cpp.html#a3499ce0cd7e4ed28b3c5461a4d3aec84" target="_top" xlink:title=" ">
<polygon fill="white" stroke="#666666" points="1300.88,-151 1244.38,-151 1244.38,-131 1300.88,-131 1300.88,-151"/>
<text text-anchor="middle" x="1272.62" y="-137.5" font-family="Helvetica,sans-Serif" font-size="10.00">openPipe</text>
</a>
</g>
</g>
<!-- Node24&#45;&gt;Node26 -->
<g id="edge32_Node000024_Node000026" class="edge">
<title>Node24&#45;&gt;Node26</title>
<g id="a_edge32_Node000024_Node000026"><a xlink:title=" ">
<path fill="none" stroke="#63b8ff" d="M1207.55,-153.57C1215.7,-151.97 1224.51,-150.24 1232.92,-148.59"/>
<polygon fill="#63b8ff" stroke="#63b8ff" points="1233.4,-152.06 1242.54,-146.7 1232.05,-145.19 1233.4,-152.06"/>
</a>
</g>
</g>
<!-- Node28&#45;&gt;Node18 -->
<g id="edge35_Node000028_Node000018" class="edge">
<title>Node28&#45;&gt;Node18</title>
<g id="a_edge35_Node000028_Node000018"><a xlink:title=" ">
<path fill="none" stroke="#63b8ff" d="M662.89,-86.48C682.91,-91.01 706.52,-96.35 727.6,-101.11"/>
<polygon fill="#63b8ff" stroke="#63b8ff" points="726.68,-104.49 737.21,-103.28 728.22,-97.66 726.68,-104.49"/>
</a>
</g>
</g>
<!-- Node28&#45;&gt;Node19 -->
<g id="edge36_Node000028_Node000019" class="edge">
<title>Node28&#45;&gt;Node19</title>
<g id="a_edge36_Node000028_Node000019"><a xlink:title=" ">
<path fill="none" stroke="#63b8ff" d="M684.4,-76C698.92,-76 714.12,-76 728.16,-76"/>
<polygon fill="#63b8ff" stroke="#63b8ff" points="728.12,-79.5 738.12,-76 728.12,-72.5 728.12,-79.5"/>
</a>
</g>
</g>
</g>
</svg>
