<?xml version="1.0" encoding="UTF-8" standalone="no"?>
<!DOCTYPE svg PUBLIC "-//W3C//DTD SVG 1.1//EN"
 "http://www.w3.org/Graphics/SVG/1.1/DTD/svg11.dtd">
<!-- Generated by graphviz version 12.2.0 (20241103.1931)
 -->
<!-- Title: fsfml::autoSeparate Pages: 1 -->
<!--zoomable 104 -->

<svg id="main" version="1.1" xmlns="http://www.w3.org/2000/svg" xmlns:xlink="http://www.w3.org/1999/xlink" xml:space="preserve" onload="init(evt)">

<style type="text/css"><![CDATA[
.node, .edge {opacity: 0.7;}
.node.selected, .edge.selected {opacity: 1;}
.edge:hover path { stroke: red; }
.edge:hover polygon { stroke: red; fill: red; }
]]></style>

<defs>
  <circle id="rim" cx="0" cy="0" r="7"/>
  <circle id="rim2" cx="0" cy="0" r="3.5"/>
  <g id="zoomPlus">
    <use xlink:href="#rim" fill="#404040"><set attributeName="fill" to="#808080" begin="zoomplus.mouseover" end="zoomplus.mouseout"/></use>
    <path d="M-4,0h8M0,-4v8" fill="none" stroke="white" stroke-width="1.5" pointer-events="none"/>
  </g>
  <g id="zoomMin">
    <use xlink:href="#rim" fill="#404040"><set attributeName="fill" to="#808080" begin="zoomminus.mouseover" end="zoomminus.mouseout"/></use>
    <path d="M-4,0h8" fill="none" stroke="white" stroke-width="1.5" pointer-events="none"/>
  </g>
  <g id="arrowUp" transform="translate(30 24)">
    <use xlink:href="#rim"/>
    <path pointer-events="none" fill="none" stroke="white" stroke-width="1.5" d="M0,-3.0v7 M-2.5,-0.5L0,-3.0L2.5,-0.5"/>
  </g>
  <g id="arrowRight" transform="rotate(90) translate(36 -43)">
    <use xlink:href="#rim"/>
    <path pointer-events="none" fill="none" stroke="white" stroke-width="1.5" d="M0,-3.0v7 M-2.5,-0.5L0,-3.0L2.5,-0.5"/>
  </g>
  <g id="arrowDown" transform="rotate(180) translate(-30 -48)">
    <use xlink:href="#rim"/>
    <path pointer-events="none" fill="none" stroke="white" stroke-width="1.5" d="M0,-3.0v7 M-2.5,-0.5L0,-3.0L2.5,-0.5"/>
  </g>
  <g id="arrowLeft" transform="rotate(270) translate(-36 17)">
    <use xlink:href="#rim"/>
    <path pointer-events="none" fill="none" stroke="white" stroke-width="1.5" d="M0,-3.0v7 M-2.5,-0.5L0,-3.0L2.5,-0.5"/>
  </g>
  <g id="resetDef">
    <use xlink:href="#rim2" fill="#404040"><set attributeName="fill" to="#808080" begin="reset.mouseover" end="reset.mouseout"/></use>
  </g>
</defs>
<script type="application/ecmascript">
var viewWidth = 730;
var viewHeight = 104;
var sectionId = 'dynsection-14';
</script>
<script type="application/ecmascript" xlink:href="svg.min.js"/>
<svg id="graph" class="graph">
<g id="viewport">
<title>fsfml::autoSeparate</title>
<!-- Node1 -->
<g id="Node000001" class="node">
<title>Node1</title>
<g id="a_Node000001"><a xlink:title=" ">
<polygon fill="#999999" stroke="#666666" points="101.5,-58 0,-58 0,-38 101.5,-38 101.5,-58"/>
<text text-anchor="middle" x="50.75" y="-44.5" font-family="Helvetica,sans-Serif" font-size="10.00">fsfml::autoSeparate</text>
</a>
</g>
</g>
<!-- Node2 -->
<g id="Node000002" class="node">
<title>Node2</title>
<g id="a_Node000002"><a xlink:href="classfsfml.html#aac1968ad932a98b9142e4cee0c38cd2a" target="_top" xlink:title=" ">
<polygon fill="white" stroke="#666666" points="261.5,-77 137.5,-77 137.5,-57 261.5,-57 261.5,-77"/>
<text text-anchor="middle" x="199.5" y="-63.5" font-family="Helvetica,sans-Serif" font-size="10.00">fsfml::separateElementX</text>
</a>
</g>
</g>
<!-- Node1&#45;&gt;Node2 -->
<g id="edge1_Node000001_Node000002" class="edge">
<title>Node1&#45;&gt;Node2</title>
<g id="a_edge1_Node000001_Node000002"><a xlink:title=" ">
<path fill="none" stroke="#63b8ff" d="M101.84,-54.49C109.57,-55.49 117.69,-56.54 125.8,-57.59"/>
<polygon fill="#63b8ff" stroke="#63b8ff" points="125.34,-61.06 135.71,-58.87 126.24,-54.11 125.34,-61.06"/>
</a>
</g>
</g>
<!-- Node9 -->
<g id="Node000009" class="node">
<title>Node9</title>
<g id="a_Node000009"><a xlink:href="classfsfml.html#a9f922766e67798b7172b4479a89eed9b" target="_top" xlink:title=" ">
<polygon fill="white" stroke="#666666" points="261.5,-39 137.5,-39 137.5,-19 261.5,-19 261.5,-39"/>
<text text-anchor="middle" x="199.5" y="-25.5" font-family="Helvetica,sans-Serif" font-size="10.00">fsfml::separateElementY</text>
</a>
</g>
</g>
<!-- Node1&#45;&gt;Node9 -->
<g id="edge8_Node000001_Node000009" class="edge">
<title>Node1&#45;&gt;Node9</title>
<g id="a_edge8_Node000001_Node000009"><a xlink:title=" ">
<path fill="none" stroke="#63b8ff" d="M101.84,-41.51C109.57,-40.51 117.69,-39.46 125.8,-38.41"/>
<polygon fill="#63b8ff" stroke="#63b8ff" points="126.24,-41.89 135.71,-37.13 125.34,-34.94 126.24,-41.89"/>
</a>
</g>
</g>
<!-- Node3 -->
<g id="Node000003" class="node">
<title>Node3</title>
<g id="a_Node000003"><a xlink:href="classfsfml.html#a27da377b199c90dbed037bf3c298b58f" target="_top" xlink:title=" ">
<polygon fill="white" stroke="#666666" points="449.25,-96 297.5,-96 297.5,-76 449.25,-76 449.25,-96"/>
<text text-anchor="middle" x="373.38" y="-82.5" font-family="Helvetica,sans-Serif" font-size="10.00">fsfml::distanceBorderElementX</text>
</a>
</g>
</g>
<!-- Node2&#45;&gt;Node3 -->
<g id="edge2_Node000002_Node000003" class="edge">
<title>Node2&#45;&gt;Node3</title>
<g id="a_edge2_Node000002_Node000003"><a xlink:title=" ">
<path fill="none" stroke="#63b8ff" d="M261.58,-73.75C269.47,-74.62 277.67,-75.53 285.88,-76.44"/>
<polygon fill="#63b8ff" stroke="#63b8ff" points="285.22,-79.89 295.54,-77.51 285.99,-72.93 285.22,-79.89"/>
</a>
</g>
</g>
<!-- Node4 -->
<g id="Node000004" class="node">
<title>Node4</title>
<g id="a_Node000004"><a xlink:href="classfsfml.html#a9cfc61fa4330f08605082f2dc0a3763f" target="_top" xlink:title=" ">
<polygon fill="white" stroke="#666666" points="425.25,-58 321.5,-58 321.5,-38 425.25,-38 425.25,-58"/>
<text text-anchor="middle" x="373.38" y="-44.5" font-family="Helvetica,sans-Serif" font-size="10.00">fsfml::moveElement</text>
</a>
</g>
</g>
<!-- Node2&#45;&gt;Node4 -->
<g id="edge3_Node000002_Node000004" class="edge">
<title>Node2&#45;&gt;Node4</title>
<g id="a_edge3_Node000002_Node000004"><a xlink:title=" ">
<path fill="none" stroke="#63b8ff" d="M261.58,-60.25C277.26,-58.51 294.16,-56.65 309.91,-54.91"/>
<polygon fill="#63b8ff" stroke="#63b8ff" points="310.09,-58.41 319.64,-53.83 309.32,-51.45 310.09,-58.41"/>
</a>
</g>
</g>
<!-- Node5 -->
<g id="Node000005" class="node">
<title>Node5</title>
<g id="a_Node000005"><a xlink:href="classfsfml.html#a914f1f9ee2c9f8a97db5704052161a3e" target="_top" xlink:title=" ">
<polygon fill="white" stroke="#666666" points="586.38,-77 493.12,-77 493.12,-57 586.38,-57 586.38,-77"/>
<text text-anchor="middle" x="539.75" y="-63.5" font-family="Helvetica,sans-Serif" font-size="10.00">fsfml::moveSprite</text>
</a>
</g>
</g>
<!-- Node4&#45;&gt;Node5 -->
<g id="edge4_Node000004_Node000005" class="edge">
<title>Node4&#45;&gt;Node5</title>
<g id="a_edge4_Node000004_Node000005"><a xlink:title=" ">
<path fill="none" stroke="#63b8ff" d="M425.48,-53.91C443.19,-55.95 463.16,-58.26 481.35,-60.36"/>
<polygon fill="#63b8ff" stroke="#63b8ff" points="480.86,-63.83 491.19,-61.5 481.66,-56.88 480.86,-63.83"/>
</a>
</g>
</g>
<!-- Node6 -->
<g id="Node000006" class="node">
<title>Node6</title>
<g id="a_Node000006"><a xlink:href="classfsfml.html#aa9726b537036754c5927b584939e0e75" target="_top" xlink:title=" ">
<polygon fill="white" stroke="#666666" points="594.25,-39 485.25,-39 485.25,-19 594.25,-19 594.25,-39"/>
<text text-anchor="middle" x="539.75" y="-25.5" font-family="Helvetica,sans-Serif" font-size="10.00">fsfml::updateElement</text>
</a>
</g>
</g>
<!-- Node4&#45;&gt;Node6 -->
<g id="edge5_Node000004_Node000006" class="edge">
<title>Node4&#45;&gt;Node6</title>
<g id="a_edge5_Node000004_Node000006"><a xlink:title=" ">
<path fill="none" stroke="#63b8ff" d="M425.48,-42.09C440.65,-40.34 457.47,-38.39 473.41,-36.55"/>
<polygon fill="#63b8ff" stroke="#63b8ff" points="473.79,-40.03 483.32,-35.41 472.99,-33.08 473.79,-40.03"/>
</a>
</g>
</g>
<!-- Node7 -->
<g id="Node000007" class="node">
<title>Node7</title>
<g id="a_Node000007"><a xlink:href="struct_element.html#afb65b315f0c1ce49bcaa10aec825fc45" target="_top" xlink:title=" ">
<polygon fill="white" stroke="#666666" points="722,-58 630.25,-58 630.25,-38 722,-38 722,-58"/>
<text text-anchor="middle" x="676.12" y="-44.5" font-family="Helvetica,sans-Serif" font-size="10.00">Element::setArea</text>
</a>
</g>
</g>
<!-- Node6&#45;&gt;Node7 -->
<g id="edge6_Node000006_Node000007" class="edge">
<title>Node6&#45;&gt;Node7</title>
<g id="a_edge6_Node000006_Node000007"><a xlink:title=" ">
<path fill="none" stroke="#63b8ff" d="M594.63,-36.62C602.48,-37.73 610.58,-38.87 618.48,-39.99"/>
<polygon fill="#63b8ff" stroke="#63b8ff" points="617.98,-43.45 628.37,-41.39 618.96,-36.52 617.98,-43.45"/>
</a>
</g>
</g>
<!-- Node8 -->
<g id="Node000008" class="node">
<title>Node8</title>
<g id="a_Node000008"><a xlink:href="struct_element.html#a40f17d5f017c9c43f204fc5d92010485" target="_top" xlink:title=" ">
<polygon fill="white" stroke="#666666" points="721.62,-20 630.62,-20 630.62,0 721.62,0 721.62,-20"/>
<text text-anchor="middle" x="676.12" y="-6.5" font-family="Helvetica,sans-Serif" font-size="10.00">Element::setSize</text>
</a>
</g>
</g>
<!-- Node6&#45;&gt;Node8 -->
<g id="edge7_Node000006_Node000008" class="edge">
<title>Node6&#45;&gt;Node8</title>
<g id="a_edge7_Node000006_Node000008"><a xlink:title=" ">
<path fill="none" stroke="#63b8ff" d="M594.63,-21.38C602.67,-20.24 610.98,-19.07 619.06,-17.93"/>
<polygon fill="#63b8ff" stroke="#63b8ff" points="619.38,-21.42 628.79,-16.55 618.4,-14.49 619.38,-21.42"/>
</a>
</g>
</g>
<!-- Node9&#45;&gt;Node4 -->
<g id="edge10_Node000009_Node000004" class="edge">
<title>Node9&#45;&gt;Node4</title>
<g id="a_edge10_Node000009_Node000004"><a xlink:title=" ">
<path fill="none" stroke="#63b8ff" d="M261.58,-35.75C277.26,-37.49 294.16,-39.35 309.91,-41.09"/>
<polygon fill="#63b8ff" stroke="#63b8ff" points="309.32,-44.55 319.64,-42.17 310.09,-37.59 309.32,-44.55"/>
</a>
</g>
</g>
<!-- Node10 -->
<g id="Node000010" class="node">
<title>Node10</title>
<g id="a_Node000010"><a xlink:href="classfsfml.html#a46e8d36f5909284ba10f98b1062b2e8d" target="_top" xlink:title=" ">
<polygon fill="white" stroke="#666666" points="449.25,-20 297.5,-20 297.5,0 449.25,0 449.25,-20"/>
<text text-anchor="middle" x="373.38" y="-6.5" font-family="Helvetica,sans-Serif" font-size="10.00">fsfml::distanceBorderElementY</text>
</a>
</g>
</g>
<!-- Node9&#45;&gt;Node10 -->
<g id="edge9_Node000009_Node000010" class="edge">
<title>Node9&#45;&gt;Node10</title>
<g id="a_edge9_Node000009_Node000010"><a xlink:title=" ">
<path fill="none" stroke="#63b8ff" d="M261.58,-22.25C269.47,-21.38 277.67,-20.47 285.88,-19.56"/>
<polygon fill="#63b8ff" stroke="#63b8ff" points="285.99,-23.07 295.54,-18.49 285.22,-16.11 285.99,-23.07"/>
</a>
</g>
</g>
</g>
</svg>

<g id="navigator" transform="translate(0 0)" fill="#404254">
  <rect fill="#f2f5e9" fill-opacity="0.5" stroke="#606060" stroke-width=".5" x="0" y="0" width="60" height="60"/>
  <use id="zoomplus" xlink:href="#zoomPlus" x="17" y="9" onmousedown="handleZoom(evt,'in')"/>
  <use id="zoomminus" xlink:href="#zoomMin" x="42" y="9" onmousedown="handleZoom(evt,'out')"/>
  <use id="reset" xlink:href="#resetDef" x="30" y="36" onmousedown="handleReset()"/>
   <use id="arrowup" xlink:href="#arrowUp" x="0" y="0" onmousedown="handlePan(0,-1)"/>
  <use id="arrowright" xlink:href="#arrowRight" x="0" y="0" onmousedown="handlePan(1,0)"/>
  <use id="arrowdown" xlink:href="#arrowDown" x="0" y="0" onmousedown="handlePan(0,1)"/>
  <use id="arrowleft" xlink:href="#arrowLeft" x="0" y="0" onmousedown="handlePan(-1,0)"/>
</g>
<svg viewBox="0 0 15 15" width="100%" height="30px" preserveAspectRatio="xMaxYMin meet">
 <g id="arrow_out" transform="scale(0.3 0.3)">
  <a xlink:href="classfsfml_aaedb2c3e71e110318848a8ccc956a2e2_cgraph_org.svg" target="_base">
   <rect id="button" ry="5" rx="5" y="6" x="6" height="38" width="38"
        fill="#f2f5e9" fill-opacity="0.5" stroke="#606060" stroke-width="1.0"/>
   <path id="arrow"
     d="M 11.500037,31.436501 C 11.940474,20.09759 22.043105,11.32322 32.158766,21.979434 L 37.068811,17.246167 C 37.068811,17.246167 37.088388,32 37.088388,32 L 22.160133,31.978069 C 22.160133,31.978069 26.997745,27.140456 26.997745,27.140456 C 18.528582,18.264221 13.291696,25.230495 11.500037,31.436501 z"
     style="fill:#404040;"/>
  </a>
 </g>
</svg>

<style type='text/css'>
<![CDATA[
[data-mouse-over-selected='false'] { opacity: 0.7; }
[data-mouse-over-selected='true']  { opacity: 1.0; }
]]>
</style>
<script type="application/ecmascript"><![CDATA[
document.addEventListener('DOMContentLoaded', (event) => {
  highlightEdges();
  highlightAdjacentNodes();
});
]]></script>
</svg>
