<?xml version="1.0" encoding="UTF-8" standalone="no"?>
<!DOCTYPE svg PUBLIC "-//W3C//DTD SVG 1.1//EN"
 "http://www.w3.org/Graphics/SVG/1.1/DTD/svg11.dtd">
<!-- Generated by graphviz version 12.2.0 (20241103.1931)
 -->
<!-- Title: MPKToken Pages: 1 -->
<!--zoomable 1640 -->

<svg id="main" version="1.1" xmlns="http://www.w3.org/2000/svg" xmlns:xlink="http://www.w3.org/1999/xlink" xml:space="preserve" onload="init(evt)">

<style type="text/css"><![CDATA[
.node, .edge {opacity: 0.7;}
.node.selected, .edge.selected {opacity: 1;}
.edge:hover path { stroke: red; }
.edge:hover polygon { stroke: red; fill: red; }
]]></style>

<defs>
  <circle id="rim" cx="0" cy="0" r="7"/>
  <circle id="rim2" cx="0" cy="0" r="3.5"/>
  <g id="zoomPlus">
    <use xlink:href="#rim" fill="#404040"><set attributeName="fill" to="#808080" begin="zoomplus.mouseover" end="zoomplus.mouseout"/></use>
    <path d="M-4,0h8M0,-4v8" fill="none" stroke="white" stroke-width="1.5" pointer-events="none"/>
  </g>
  <g id="zoomMin">
    <use xlink:href="#rim" fill="#404040"><set attributeName="fill" to="#808080" begin="zoomminus.mouseover" end="zoomminus.mouseout"/></use>
    <path d="M-4,0h8" fill="none" stroke="white" stroke-width="1.5" pointer-events="none"/>
  </g>
  <g id="arrowUp" transform="translate(30 24)">
    <use xlink:href="#rim"/>
    <path pointer-events="none" fill="none" stroke="white" stroke-width="1.5" d="M0,-3.0v7 M-2.5,-0.5L0,-3.0L2.5,-0.5"/>
  </g>
  <g id="arrowRight" transform="rotate(90) translate(36 -43)">
    <use xlink:href="#rim"/>
    <path pointer-events="none" fill="none" stroke="white" stroke-width="1.5" d="M0,-3.0v7 M-2.5,-0.5L0,-3.0L2.5,-0.5"/>
  </g>
  <g id="arrowDown" transform="rotate(180) translate(-30 -48)">
    <use xlink:href="#rim"/>
    <path pointer-events="none" fill="none" stroke="white" stroke-width="1.5" d="M0,-3.0v7 M-2.5,-0.5L0,-3.0L2.5,-0.5"/>
  </g>
  <g id="arrowLeft" transform="rotate(270) translate(-36 17)">
    <use xlink:href="#rim"/>
    <path pointer-events="none" fill="none" stroke="white" stroke-width="1.5" d="M0,-3.0v7 M-2.5,-0.5L0,-3.0L2.5,-0.5"/>
  </g>
  <g id="resetDef">
    <use xlink:href="#rim2" fill="#404040"><set attributeName="fill" to="#808080" begin="reset.mouseover" end="reset.mouseout"/></use>
  </g>
</defs>
<script type="application/ecmascript">
var viewWidth = 689;
var viewHeight = 1640;
var sectionId = 'dynsection-0';
</script>
<script type="application/ecmascript" xlink:href="svg.min.js"/>
<svg id="graph" class="graph">
<g id="viewport">
<title>MPKToken</title>
<!-- Node1 -->
<g id="Node000001" class="node">
<title>Node1</title>
<g id="a_Node000001"><a xlink:title=" ">
<polygon fill="#999999" stroke="none" points="429.25,-556 292.75,-556 292.75,-424 429.25,-424 429.25,-556"/>
<text text-anchor="start" x="337" y="-542.5" font-family="Helvetica,sans-Serif" font-size="10.00">MPKToken</text>
<text text-anchor="start" x="359.5" y="-526.5" font-family="Helvetica,sans-Serif" font-size="10.00"> </text>
<text text-anchor="start" x="296.75" y="-510.5" font-family="Helvetica,sans-Serif" font-size="10.00">+</text>
<text text-anchor="start" x="306.75" y="-510.5" font-family="Helvetica,sans-Serif" font-size="10.00">MPKToken()</text>
<text text-anchor="start" x="296.75" y="-494.5" font-family="Helvetica,sans-Serif" font-size="10.00">+</text>
<text text-anchor="start" x="306.75" y="-494.5" font-family="Helvetica,sans-Serif" font-size="10.00">bool addTokens(IteratorList</text>
<text text-anchor="start" x="306.75" y="-482.5" font-family="Helvetica,sans-Serif" font-size="10.00">&lt; Token &gt; &amp;tl, TokenResult</text>
<text text-anchor="start" x="306.75" y="-470.5" font-family="Helvetica,sans-Serif" font-size="10.00"> &amp;tRes) override</text>
<text text-anchor="start" x="297.12" y="-454.5" font-family="Helvetica,sans-Serif" font-size="10.00">#</text>
<text text-anchor="start" x="306.75" y="-454.5" font-family="Helvetica,sans-Serif" font-size="10.00">void showArguments</text>
<text text-anchor="start" x="306.75" y="-442.5" font-family="Helvetica,sans-Serif" font-size="10.00">(const int nestedLayer)</text>
<text text-anchor="start" x="306.75" y="-430.5" font-family="Helvetica,sans-Serif" font-size="10.00"> override</text>
<polygon fill="#666666" stroke="#666666" points="292.75,-538 292.75,-538 429.25,-538 429.25,-538 292.75,-538"/>
<polygon fill="#666666" stroke="#666666" points="292.75,-522 292.75,-522 429.25,-522 429.25,-522 292.75,-522"/>
<polygon fill="none" stroke="#666666" points="292.75,-424 292.75,-556 429.25,-556 429.25,-424 292.75,-424"/>
</a>
</g>
</g>
<!-- Node5 -->
<g id="Node000005" class="node">
<title>Node5</title>
<g id="a_Node000005"><a xlink:href="class_b_m_p_k_token.html" target="_top" xlink:title=" ">
<polygon fill="white" stroke="none" points="190.5,-326 43.5,-326 43.5,-178 190.5,-178 190.5,-326"/>
<text text-anchor="start" x="89.62" y="-312.5" font-family="Helvetica,sans-Serif" font-size="10.00">BMPKToken</text>
<text text-anchor="start" x="115.5" y="-296.5" font-family="Helvetica,sans-Serif" font-size="10.00"> </text>
<text text-anchor="start" x="47.5" y="-280.5" font-family="Helvetica,sans-Serif" font-size="10.00">+</text>
<text text-anchor="start" x="57.5" y="-280.5" font-family="Helvetica,sans-Serif" font-size="10.00">BMPKToken()</text>
<text text-anchor="start" x="47.5" y="-264.5" font-family="Helvetica,sans-Serif" font-size="10.00">+</text>
<text text-anchor="start" x="57.5" y="-264.5" font-family="Helvetica,sans-Serif" font-size="10.00">void setOverloads()</text>
<text text-anchor="start" x="57.5" y="-252.5" font-family="Helvetica,sans-Serif" font-size="10.00"> final</text>
<text text-anchor="start" x="47.5" y="-236.5" font-family="Helvetica,sans-Serif" font-size="10.00">+</text>
<text text-anchor="start" x="57.5" y="-236.5" font-family="Helvetica,sans-Serif" font-size="10.00">DataType getDataType</text>
<text text-anchor="start" x="57.5" y="-224.5" font-family="Helvetica,sans-Serif" font-size="10.00">(TokenResult &amp;tRes) override</text>
<text text-anchor="start" x="47.5" y="-208.5" font-family="Helvetica,sans-Serif" font-size="10.00">+</text>
<text text-anchor="start" x="57.5" y="-208.5" font-family="Helvetica,sans-Serif" font-size="10.00">bool addTokens(IteratorList</text>
<text text-anchor="start" x="57.5" y="-196.5" font-family="Helvetica,sans-Serif" font-size="10.00">&lt; Token &gt; &amp;tl, TokenResult</text>
<text text-anchor="start" x="57.5" y="-184.5" font-family="Helvetica,sans-Serif" font-size="10.00"> &amp;tRes) override</text>
<polygon fill="#666666" stroke="#666666" points="43.5,-308 43.5,-308 190.5,-308 190.5,-308 43.5,-308"/>
<polygon fill="#666666" stroke="#666666" points="43.5,-292 43.5,-292 190.5,-292 190.5,-292 43.5,-292"/>
<polygon fill="none" stroke="#666666" points="43.5,-178 43.5,-326 190.5,-326 190.5,-178 43.5,-178"/>
</a>
</g>
</g>
<!-- Node1&#45;&gt;Node5 -->
<g id="edge4_Node000001_Node000005" class="edge">
<title>Node1&#45;&gt;Node5</title>
<g id="a_edge4_Node000001_Node000005"><a xlink:title=" ">
<path fill="none" stroke="#63b8ff" d="M283.11,-449.91C254.85,-433.33 224,-412.21 200,-388 182.09,-369.92 166.28,-347.28 153.4,-325.74"/>
<polygon fill="none" stroke="#63b8ff" points="281.26,-452.89 291.67,-454.83 284.75,-446.82 281.26,-452.89"/>
</a>
</g>
</g>
<!-- Node8 -->
<g id="Node000008" class="node">
<title>Node8</title>
<g id="a_Node000008"><a xlink:href="class_list_token.html" target="_top" xlink:title=" ">
<polygon fill="white" stroke="none" points="345.25,-340 208.75,-340 208.75,-164 345.25,-164 345.25,-340"/>
<text text-anchor="start" x="256" y="-326.5" font-family="Helvetica,sans-Serif" font-size="10.00">ListToken</text>
<text text-anchor="start" x="213.12" y="-310.5" font-family="Helvetica,sans-Serif" font-size="10.00">#</text>
<text text-anchor="start" x="222.75" y="-310.5" font-family="Helvetica,sans-Serif" font-size="10.00">DataType dType</text>
<text text-anchor="start" x="213.12" y="-294.5" font-family="Helvetica,sans-Serif" font-size="10.00">#</text>
<text text-anchor="start" x="222.75" y="-294.5" font-family="Helvetica,sans-Serif" font-size="10.00">std::vector&lt; std::shared</text>
<text text-anchor="start" x="222.75" y="-282.5" font-family="Helvetica,sans-Serif" font-size="10.00">_ptr&lt; Token &gt; &gt; listToken</text>
<text text-anchor="start" x="212.75" y="-266.5" font-family="Helvetica,sans-Serif" font-size="10.00">+</text>
<text text-anchor="start" x="222.75" y="-266.5" font-family="Helvetica,sans-Serif" font-size="10.00">ListToken()</text>
<text text-anchor="start" x="212.75" y="-250.5" font-family="Helvetica,sans-Serif" font-size="10.00">+</text>
<text text-anchor="start" x="222.75" y="-250.5" font-family="Helvetica,sans-Serif" font-size="10.00">void setOverloads()</text>
<text text-anchor="start" x="222.75" y="-238.5" font-family="Helvetica,sans-Serif" font-size="10.00"> final</text>
<text text-anchor="start" x="212.75" y="-222.5" font-family="Helvetica,sans-Serif" font-size="10.00">+</text>
<text text-anchor="start" x="222.75" y="-222.5" font-family="Helvetica,sans-Serif" font-size="10.00">bool addTokens(IteratorList</text>
<text text-anchor="start" x="222.75" y="-210.5" font-family="Helvetica,sans-Serif" font-size="10.00">&lt; Token &gt; &amp;tl, TokenResult</text>
<text text-anchor="start" x="222.75" y="-198.5" font-family="Helvetica,sans-Serif" font-size="10.00"> &amp;tRes) override</text>
<text text-anchor="start" x="212.75" y="-182.5" font-family="Helvetica,sans-Serif" font-size="10.00">+</text>
<text text-anchor="start" x="222.75" y="-182.5" font-family="Helvetica,sans-Serif" font-size="10.00">std::shared_ptr&lt; Tag</text>
<text text-anchor="start" x="222.75" y="-170.5" font-family="Helvetica,sans-Serif" font-size="10.00"> &gt; execute() override</text>
<polygon fill="#666666" stroke="#666666" points="208.75,-322 208.75,-322 345.25,-322 345.25,-322 208.75,-322"/>
<polygon fill="#666666" stroke="#666666" points="208.75,-278 208.75,-278 220.75,-278 220.75,-278 208.75,-278"/>
<polygon fill="#666666" stroke="#666666" points="220.75,-278 220.75,-278 345.25,-278 345.25,-278 220.75,-278"/>
<polygon fill="none" stroke="#666666" points="208.75,-164 208.75,-340 345.25,-340 345.25,-164 208.75,-164"/>
</a>
</g>
</g>
<!-- Node1&#45;&gt;Node8 -->
<g id="edge7_Node000001_Node000008" class="edge">
<title>Node1&#45;&gt;Node8</title>
<g id="a_edge7_Node000001_Node000008"><a xlink:title=" ">
<path fill="none" stroke="#63b8ff" d="M334.16,-413.6C325.8,-390.09 316.5,-363.99 307.88,-339.77"/>
<polygon fill="none" stroke="#63b8ff" points="330.78,-414.53 337.43,-422.77 337.37,-412.18 330.78,-414.53"/>
</a>
</g>
</g>
<!-- Node9 -->
<g id="Node000009" class="node">
<title>Node9</title>
<g id="a_Node000009"><a xlink:href="class_store_token.html" target="_top" xlink:title=" ">
<polygon fill="white" stroke="none" points="526.75,-388 363.25,-388 363.25,-116 526.75,-116 526.75,-388"/>
<text text-anchor="start" x="420.25" y="-374.5" font-family="Helvetica,sans-Serif" font-size="10.00">StoreToken</text>
<text text-anchor="start" x="367.62" y="-358.5" font-family="Helvetica,sans-Serif" font-size="10.00">#</text>
<text text-anchor="start" x="377.25" y="-358.5" font-family="Helvetica,sans-Serif" font-size="10.00">std::shared_ptr&lt; Token</text>
<text text-anchor="start" x="377.25" y="-346.5" font-family="Helvetica,sans-Serif" font-size="10.00"> &gt; identifierToken</text>
<text text-anchor="start" x="367.62" y="-330.5" font-family="Helvetica,sans-Serif" font-size="10.00">#</text>
<text text-anchor="start" x="377.25" y="-330.5" font-family="Helvetica,sans-Serif" font-size="10.00">std::shared_ptr&lt; Token</text>
<text text-anchor="start" x="377.25" y="-318.5" font-family="Helvetica,sans-Serif" font-size="10.00"> &gt; valueToken</text>
<text text-anchor="start" x="367.25" y="-302.5" font-family="Helvetica,sans-Serif" font-size="10.00">+</text>
<text text-anchor="start" x="377.25" y="-302.5" font-family="Helvetica,sans-Serif" font-size="10.00">StoreToken()</text>
<text text-anchor="start" x="367.25" y="-286.5" font-family="Helvetica,sans-Serif" font-size="10.00">+</text>
<text text-anchor="start" x="377.25" y="-286.5" font-family="Helvetica,sans-Serif" font-size="10.00">void setOverloads()</text>
<text text-anchor="start" x="377.25" y="-274.5" font-family="Helvetica,sans-Serif" font-size="10.00"> final</text>
<text text-anchor="start" x="367.25" y="-258.5" font-family="Helvetica,sans-Serif" font-size="10.00">+</text>
<text text-anchor="start" x="377.25" y="-258.5" font-family="Helvetica,sans-Serif" font-size="10.00">void dispatchArguments</text>
<text text-anchor="start" x="377.25" y="-246.5" font-family="Helvetica,sans-Serif" font-size="10.00">() override</text>
<text text-anchor="start" x="367.25" y="-230.5" font-family="Helvetica,sans-Serif" font-size="10.00">+</text>
<text text-anchor="start" x="377.25" y="-230.5" font-family="Helvetica,sans-Serif" font-size="10.00">std::shared_ptr&lt; Tag</text>
<text text-anchor="start" x="377.25" y="-218.5" font-family="Helvetica,sans-Serif" font-size="10.00"> &gt; execute() override</text>
<text text-anchor="start" x="367.62" y="-202.5" font-family="Helvetica,sans-Serif" font-size="10.00">#</text>
<text text-anchor="start" x="377.25" y="-202.5" font-family="Helvetica,sans-Serif" font-size="10.00">std::vector&lt; T &gt; test</text>
<text text-anchor="start" x="377.25" y="-190.5" font-family="Helvetica,sans-Serif" font-size="10.00">(int i)</text>
<text text-anchor="start" x="367.62" y="-174.5" font-family="Helvetica,sans-Serif" font-size="10.00">#</text>
<text text-anchor="start" x="377.25" y="-174.5" font-family="Helvetica,sans-Serif" font-size="10.00">bool addValue(IteratorList</text>
<text text-anchor="start" x="377.25" y="-162.5" font-family="Helvetica,sans-Serif" font-size="10.00">&lt; Token &gt; &amp;tl, TokenResult tRes)</text>
<text text-anchor="start" x="367.62" y="-146.5" font-family="Helvetica,sans-Serif" font-size="10.00">#</text>
<text text-anchor="start" x="377.25" y="-146.5" font-family="Helvetica,sans-Serif" font-size="10.00">bool addTokens(IteratorList</text>
<text text-anchor="start" x="377.25" y="-134.5" font-family="Helvetica,sans-Serif" font-size="10.00">&lt; Token &gt; &amp;tl, TokenResult</text>
<text text-anchor="start" x="377.25" y="-122.5" font-family="Helvetica,sans-Serif" font-size="10.00"> &amp;tRes) override</text>
<polygon fill="#666666" stroke="#666666" points="363.25,-370 363.25,-370 526.75,-370 526.75,-370 363.25,-370"/>
<polygon fill="#666666" stroke="#666666" points="363.25,-314 363.25,-314 375.25,-314 375.25,-314 363.25,-314"/>
<polygon fill="#666666" stroke="#666666" points="375.25,-314 375.25,-314 526.75,-314 526.75,-314 375.25,-314"/>
<polygon fill="none" stroke="#666666" points="363.25,-116 363.25,-388 526.75,-388 526.75,-116 363.25,-116"/>
</a>
</g>
</g>
<!-- Node1&#45;&gt;Node9 -->
<g id="edge8_Node000001_Node000009" class="edge">
<title>Node1&#45;&gt;Node9</title>
<g id="a_edge8_Node000001_Node000009"><a xlink:title=" ">
<path fill="none" stroke="#63b8ff" d="M387.87,-413.5C390.82,-405.21 393.89,-396.6 397,-387.86"/>
<polygon fill="none" stroke="#63b8ff" points="384.63,-412.18 384.57,-422.77 391.22,-414.53 384.63,-412.18"/>
</a>
</g>
</g>
<!-- Node10 -->
<g id="Node000010" class="node">
<title>Node10</title>
<g id="a_Node000010"><a xlink:href="class_wait_token.html" target="_top" xlink:title=" ">
<polygon fill="white" stroke="none" points="681.25,-360 544.75,-360 544.75,-144 681.25,-144 681.25,-360"/>
<text text-anchor="start" x="590.12" y="-346.5" font-family="Helvetica,sans-Serif" font-size="10.00">WaitToken</text>
<text text-anchor="start" x="549.12" y="-330.5" font-family="Helvetica,sans-Serif" font-size="10.00">#</text>
<text text-anchor="start" x="558.75" y="-330.5" font-family="Helvetica,sans-Serif" font-size="10.00">std::shared_ptr&lt; Token</text>
<text text-anchor="start" x="558.75" y="-318.5" font-family="Helvetica,sans-Serif" font-size="10.00"> &gt; numberToken</text>
<text text-anchor="start" x="549.12" y="-302.5" font-family="Helvetica,sans-Serif" font-size="10.00">#</text>
<text text-anchor="start" x="558.75" y="-302.5" font-family="Helvetica,sans-Serif" font-size="10.00">std::shared_ptr&lt; Token</text>
<text text-anchor="start" x="558.75" y="-290.5" font-family="Helvetica,sans-Serif" font-size="10.00"> &gt; timeTypeToken</text>
<text text-anchor="start" x="548.75" y="-274.5" font-family="Helvetica,sans-Serif" font-size="10.00">+</text>
<text text-anchor="start" x="558.75" y="-274.5" font-family="Helvetica,sans-Serif" font-size="10.00">WaitToken()</text>
<text text-anchor="start" x="548.75" y="-258.5" font-family="Helvetica,sans-Serif" font-size="10.00">+</text>
<text text-anchor="start" x="558.75" y="-258.5" font-family="Helvetica,sans-Serif" font-size="10.00">void setOverloads()</text>
<text text-anchor="start" x="558.75" y="-246.5" font-family="Helvetica,sans-Serif" font-size="10.00"> final</text>
<text text-anchor="start" x="548.75" y="-230.5" font-family="Helvetica,sans-Serif" font-size="10.00">+</text>
<text text-anchor="start" x="558.75" y="-230.5" font-family="Helvetica,sans-Serif" font-size="10.00">void dispatchArguments</text>
<text text-anchor="start" x="558.75" y="-218.5" font-family="Helvetica,sans-Serif" font-size="10.00">() override</text>
<text text-anchor="start" x="548.75" y="-202.5" font-family="Helvetica,sans-Serif" font-size="10.00">+</text>
<text text-anchor="start" x="558.75" y="-202.5" font-family="Helvetica,sans-Serif" font-size="10.00">std::shared_ptr&lt; Tag</text>
<text text-anchor="start" x="558.75" y="-190.5" font-family="Helvetica,sans-Serif" font-size="10.00"> &gt; execute() override</text>
<text text-anchor="start" x="548.75" y="-174.5" font-family="Helvetica,sans-Serif" font-size="10.00">+</text>
<text text-anchor="start" x="558.75" y="-174.5" font-family="Helvetica,sans-Serif" font-size="10.00">bool addTokens(IteratorList</text>
<text text-anchor="start" x="558.75" y="-162.5" font-family="Helvetica,sans-Serif" font-size="10.00">&lt; Token &gt; &amp;tl, TokenResult</text>
<text text-anchor="start" x="558.75" y="-150.5" font-family="Helvetica,sans-Serif" font-size="10.00"> &amp;tRes) override</text>
<polygon fill="#666666" stroke="#666666" points="544.75,-342 544.75,-342 681.25,-342 681.25,-342 544.75,-342"/>
<polygon fill="#666666" stroke="#666666" points="544.75,-286 544.75,-286 556.75,-286 556.75,-286 544.75,-286"/>
<polygon fill="#666666" stroke="#666666" points="556.75,-286 556.75,-286 681.25,-286 681.25,-286 556.75,-286"/>
<polygon fill="none" stroke="#666666" points="544.75,-144 544.75,-360 681.25,-360 681.25,-144 544.75,-144"/>
</a>
</g>
</g>
<!-- Node1&#45;&gt;Node10 -->
<g id="edge9_Node000001_Node000010" class="edge">
<title>Node1&#45;&gt;Node10</title>
<g id="a_edge9_Node000001_Node000010"><a xlink:title=" ">
<path fill="none" stroke="#63b8ff" d="M438.98,-455.28C471.68,-438.45 508.42,-415.72 536,-388 544.47,-379.49 552.32,-369.86 559.51,-359.75"/>
<polygon fill="none" stroke="#63b8ff" points="437.69,-452.01 430.33,-459.63 440.84,-458.26 437.69,-452.01"/>
</a>
</g>
</g>
<!-- Node2 -->
<g id="Node000002" class="node">
<title>Node2</title>
<g id="a_Node000002"><a xlink:href="class_p_k_token.html" target="_top" xlink:title=" ">
<polygon fill="white" stroke="none" points="454,-1120 268,-1120 268,-592 454,-592 454,-1120"/>
<text text-anchor="start" x="341.12" y="-1106.5" font-family="Helvetica,sans-Serif" font-size="10.00">PKToken</text>
<text text-anchor="start" x="272.38" y="-1090.5" font-family="Helvetica,sans-Serif" font-size="10.00">#</text>
<text text-anchor="start" x="282" y="-1090.5" font-family="Helvetica,sans-Serif" font-size="10.00">ArgumentsOverload argsOverload</text>
<text text-anchor="start" x="272.38" y="-1074.5" font-family="Helvetica,sans-Serif" font-size="10.00">#</text>
<text text-anchor="start" x="282" y="-1074.5" font-family="Helvetica,sans-Serif" font-size="10.00">std::vector&lt; std::shared</text>
<text text-anchor="start" x="282" y="-1062.5" font-family="Helvetica,sans-Serif" font-size="10.00">_ptr&lt; Token &gt; &gt; argTokens</text>
<text text-anchor="start" x="272" y="-1046.5" font-family="Helvetica,sans-Serif" font-size="10.00">+</text>
<text text-anchor="start" x="282" y="-1046.5" font-family="Helvetica,sans-Serif" font-size="10.00">PKToken()</text>
<text text-anchor="start" x="272" y="-1030.5" font-family="Helvetica,sans-Serif" font-size="10.00">+</text>
<text text-anchor="start" x="282" y="-1030.5" font-family="Helvetica,sans-Serif" font-size="10.00">void showTokenTree</text>
<text text-anchor="start" x="282" y="-1018.5" font-family="Helvetica,sans-Serif" font-size="10.00">(const int nestedLayer)</text>
<text text-anchor="start" x="282" y="-1006.5" font-family="Helvetica,sans-Serif" font-size="10.00"> override</text>
<text text-anchor="start" x="272" y="-990.5" font-family="Helvetica,sans-Serif" font-size="10.00">+</text>
<text text-anchor="start" x="282" y="-990.5" font-family="Helvetica,sans-Serif" font-size="10.00">bool addTokens(IteratorList</text>
<text text-anchor="start" x="282" y="-978.5" font-family="Helvetica,sans-Serif" font-size="10.00">&lt; Token &gt; &amp;tl, TokenResult</text>
<text text-anchor="start" x="282" y="-966.5" font-family="Helvetica,sans-Serif" font-size="10.00"> &amp;tRes) override</text>
<text text-anchor="start" x="272.38" y="-950.5" font-family="Helvetica,sans-Serif" font-size="10.00">#</text>
<text text-anchor="start" x="282" y="-950.5" font-family="Helvetica,sans-Serif" font-size="10.00">bool addToken(TokenVALUE</text>
<text text-anchor="start" x="282" y="-938.5" font-family="Helvetica,sans-Serif" font-size="10.00"> tVal, IteratorList&lt; Token</text>
<text text-anchor="start" x="282" y="-926.5" font-family="Helvetica,sans-Serif" font-size="10.00"> &gt; &amp;tl, TokenResult &amp;tRes)</text>
<text text-anchor="start" x="272.38" y="-910.5" font-family="Helvetica,sans-Serif" font-size="10.00">#</text>
<text text-anchor="start" x="282" y="-910.5" font-family="Helvetica,sans-Serif" font-size="10.00">bool addType(DataType</text>
<text text-anchor="start" x="282" y="-898.5" font-family="Helvetica,sans-Serif" font-size="10.00"> tVal, IteratorList&lt;</text>
<text text-anchor="start" x="282" y="-886.5" font-family="Helvetica,sans-Serif" font-size="10.00"> Token &gt; &amp;tl, TokenResult</text>
<text text-anchor="start" x="282" y="-874.5" font-family="Helvetica,sans-Serif" font-size="10.00"> &amp;tRes)</text>
<text text-anchor="start" x="272.38" y="-858.5" font-family="Helvetica,sans-Serif" font-size="10.00">#</text>
<text text-anchor="start" x="282" y="-858.5" font-family="Helvetica,sans-Serif" font-size="10.00">bool addType(std::vector</text>
<text text-anchor="start" x="282" y="-846.5" font-family="Helvetica,sans-Serif" font-size="10.00">&lt; DataType &gt; listTypes,</text>
<text text-anchor="start" x="282" y="-834.5" font-family="Helvetica,sans-Serif" font-size="10.00"> IteratorList&lt; Token &gt; &amp;tl,</text>
<text text-anchor="start" x="282" y="-822.5" font-family="Helvetica,sans-Serif" font-size="10.00"> TokenResult &amp;tRes)</text>
<text text-anchor="start" x="272.38" y="-806.5" font-family="Helvetica,sans-Serif" font-size="10.00">#</text>
<text text-anchor="start" x="282" y="-806.5" font-family="Helvetica,sans-Serif" font-size="10.00">bool addNumber(IteratorList</text>
<text text-anchor="start" x="282" y="-794.5" font-family="Helvetica,sans-Serif" font-size="10.00">&lt; Token &gt; &amp;tl, TokenResult &amp;tRes)</text>
<text text-anchor="start" x="272.38" y="-778.5" font-family="Helvetica,sans-Serif" font-size="10.00">#</text>
<text text-anchor="start" x="282" y="-778.5" font-family="Helvetica,sans-Serif" font-size="10.00">bool addDataType(Iterator</text>
<text text-anchor="start" x="282" y="-766.5" font-family="Helvetica,sans-Serif" font-size="10.00">List&lt; Token &gt; &amp;tl, TokenResult &amp;tRes)</text>
<text text-anchor="start" x="272.38" y="-750.5" font-family="Helvetica,sans-Serif" font-size="10.00">#</text>
<text text-anchor="start" x="282" y="-750.5" font-family="Helvetica,sans-Serif" font-size="10.00">bool addInteger(Iterator</text>
<text text-anchor="start" x="282" y="-738.5" font-family="Helvetica,sans-Serif" font-size="10.00">List&lt; Token &gt; &amp;tl, TokenResult</text>
<text text-anchor="start" x="282" y="-726.5" font-family="Helvetica,sans-Serif" font-size="10.00"> &amp;tRes)</text>
<text text-anchor="start" x="272.38" y="-710.5" font-family="Helvetica,sans-Serif" font-size="10.00">#</text>
<text text-anchor="start" x="282" y="-710.5" font-family="Helvetica,sans-Serif" font-size="10.00">bool addFloat(IteratorList</text>
<text text-anchor="start" x="282" y="-698.5" font-family="Helvetica,sans-Serif" font-size="10.00">&lt; Token &gt; &amp;tl, TokenResult &amp;tRes)</text>
<text text-anchor="start" x="272.38" y="-682.5" font-family="Helvetica,sans-Serif" font-size="10.00">#</text>
<text text-anchor="start" x="282" y="-682.5" font-family="Helvetica,sans-Serif" font-size="10.00">bool addCoord(IteratorList</text>
<text text-anchor="start" x="282" y="-670.5" font-family="Helvetica,sans-Serif" font-size="10.00">&lt; Token &gt; &amp;tl, TokenResult &amp;tRes)</text>
<text text-anchor="start" x="272.38" y="-654.5" font-family="Helvetica,sans-Serif" font-size="10.00">#</text>
<text text-anchor="start" x="282" y="-654.5" font-family="Helvetica,sans-Serif" font-size="10.00">bool addZone(IteratorList</text>
<text text-anchor="start" x="282" y="-642.5" font-family="Helvetica,sans-Serif" font-size="10.00">&lt; Token &gt; &amp;tl, TokenResult &amp;tRes)</text>
<text text-anchor="start" x="272.38" y="-626.5" font-family="Helvetica,sans-Serif" font-size="10.00">#</text>
<text text-anchor="start" x="282" y="-626.5" font-family="Helvetica,sans-Serif" font-size="10.00">bool addBool(IteratorList</text>
<text text-anchor="start" x="282" y="-614.5" font-family="Helvetica,sans-Serif" font-size="10.00">&lt; Token &gt; &amp;tl, TokenResult &amp;tRes)</text>
<text text-anchor="start" x="282" y="-598.5" font-family="Helvetica,sans-Serif" font-size="10.00">and 10 more...</text>
<polygon fill="#666666" stroke="#666666" points="268,-1102 268,-1102 454,-1102 454,-1102 268,-1102"/>
<polygon fill="#666666" stroke="#666666" points="268,-1058 268,-1058 280,-1058 280,-1058 268,-1058"/>
<polygon fill="#666666" stroke="#666666" points="280,-1058 280,-1058 454,-1058 454,-1058 280,-1058"/>
<polygon fill="none" stroke="#666666" points="268,-592 268,-1120 454,-1120 454,-592 268,-592"/>
</a>
</g>
</g>
<!-- Node2&#45;&gt;Node1 -->
<g id="edge1_Node000001_Node000002" class="edge">
<title>Node2&#45;&gt;Node1</title>
<g id="a_edge1_Node000001_Node000002"><a xlink:title=" ">
<path fill="none" stroke="#63b8ff" d="M361,-581C361,-572.17 361,-563.73 361,-555.8"/>
<polygon fill="none" stroke="#63b8ff" points="357.5,-580.88 361,-590.88 364.5,-580.88 357.5,-580.88"/>
</a>
</g>
</g>
<!-- Node3 -->
<g id="Node000003" class="node">
<title>Node3</title>
<g id="a_Node000003"><a xlink:href="class_k_token.html" target="_top" xlink:title=" ">
<polygon fill="white" stroke="none" points="428.88,-1232 293.12,-1232 293.12,-1156 428.88,-1156 428.88,-1232"/>
<text text-anchor="start" x="344.5" y="-1218.5" font-family="Helvetica,sans-Serif" font-size="10.00">KToken</text>
<text text-anchor="start" x="359.5" y="-1202.5" font-family="Helvetica,sans-Serif" font-size="10.00"> </text>
<text text-anchor="start" x="297.12" y="-1186.5" font-family="Helvetica,sans-Serif" font-size="10.00">#</text>
<text text-anchor="start" x="306.38" y="-1186.5" font-family="Helvetica,sans-Serif" font-size="10.00">bool addTokens(IteratorList</text>
<text text-anchor="start" x="306.38" y="-1174.5" font-family="Helvetica,sans-Serif" font-size="10.00">&lt; Token &gt; &amp;tl, TokenResult</text>
<text text-anchor="start" x="306.38" y="-1162.5" font-family="Helvetica,sans-Serif" font-size="10.00"> &amp;tRes) override</text>
<polygon fill="#666666" stroke="#666666" points="293.12,-1214 293.12,-1214 428.88,-1214 428.88,-1214 293.12,-1214"/>
<polygon fill="#666666" stroke="#666666" points="293.12,-1198 293.12,-1198 428.88,-1198 428.88,-1198 293.12,-1198"/>
<polygon fill="none" stroke="#666666" points="293.12,-1156 293.12,-1232 428.88,-1232 428.88,-1156 293.12,-1156"/>
</a>
</g>
</g>
<!-- Node3&#45;&gt;Node2 -->
<g id="edge2_Node000002_Node000003" class="edge">
<title>Node3&#45;&gt;Node2</title>
<g id="a_edge2_Node000002_Node000003"><a xlink:title=" ">
<path fill="none" stroke="#63b8ff" d="M361,-1144.66C361,-1137.01 361,-1128.68 361,-1119.82"/>
<polygon fill="none" stroke="#63b8ff" points="357.5,-1144.57 361,-1154.57 364.5,-1144.57 357.5,-1144.57"/>
</a>
</g>
</g>
<!-- Node4 -->
<g id="Node000004" class="node">
<title>Node4</title>
<g id="a_Node000004"><a xlink:href="class_token.html" target="_top" xlink:title=" ">
<polygon fill="white" stroke="none" points="431.88,-1632 290.12,-1632 290.12,-1268 431.88,-1268 431.88,-1632"/>
<text text-anchor="start" x="347.88" y="-1618.5" font-family="Helvetica,sans-Serif" font-size="10.00">Token</text>
<text text-anchor="start" x="294.5" y="-1602.5" font-family="Helvetica,sans-Serif" font-size="10.00">#</text>
<text text-anchor="start" x="304.12" y="-1602.5" font-family="Helvetica,sans-Serif" font-size="10.00">std::string tokenText</text>
<text text-anchor="start" x="294.5" y="-1586.5" font-family="Helvetica,sans-Serif" font-size="10.00">#</text>
<text text-anchor="start" x="304.12" y="-1586.5" font-family="Helvetica,sans-Serif" font-size="10.00">TokenVALUE tValue</text>
<text text-anchor="start" x="294.5" y="-1570.5" font-family="Helvetica,sans-Serif" font-size="10.00">#</text>
<text text-anchor="start" x="304.12" y="-1570.5" font-family="Helvetica,sans-Serif" font-size="10.00">int line</text>
<text text-anchor="start" x="294.12" y="-1554.5" font-family="Helvetica,sans-Serif" font-size="10.00">+</text>
<text text-anchor="start" x="304.12" y="-1554.5" font-family="Helvetica,sans-Serif" font-size="10.00">Token()</text>
<text text-anchor="start" x="294.12" y="-1538.5" font-family="Helvetica,sans-Serif" font-size="10.00">+</text>
<text text-anchor="start" x="304.12" y="-1538.5" font-family="Helvetica,sans-Serif" font-size="10.00">virtual DataType getData</text>
<text text-anchor="start" x="304.12" y="-1526.5" font-family="Helvetica,sans-Serif" font-size="10.00">Type(TokenResult &amp;tRes)</text>
<text text-anchor="start" x="294.12" y="-1510.5" font-family="Helvetica,sans-Serif" font-size="10.00">+</text>
<text text-anchor="start" x="304.12" y="-1510.5" font-family="Helvetica,sans-Serif" font-size="10.00">virtual void showTokenTree</text>
<text text-anchor="start" x="304.12" y="-1498.5" font-family="Helvetica,sans-Serif" font-size="10.00">(const int nestedLayer)</text>
<text text-anchor="start" x="294.12" y="-1482.5" font-family="Helvetica,sans-Serif" font-size="10.00">+</text>
<text text-anchor="start" x="304.12" y="-1482.5" font-family="Helvetica,sans-Serif" font-size="10.00">TokenVALUE getValue()</text>
<text text-anchor="start" x="294.12" y="-1466.5" font-family="Helvetica,sans-Serif" font-size="10.00">+</text>
<text text-anchor="start" x="304.12" y="-1466.5" font-family="Helvetica,sans-Serif" font-size="10.00">bool addError(TokenResult</text>
<text text-anchor="start" x="304.12" y="-1454.5" font-family="Helvetica,sans-Serif" font-size="10.00"> &amp;tRes, TokenVALUE value,</text>
<text text-anchor="start" x="304.12" y="-1442.5" font-family="Helvetica,sans-Serif" font-size="10.00"> ErrorType et=ErrorType::</text>
<text text-anchor="start" x="304.12" y="-1430.5" font-family="Helvetica,sans-Serif" font-size="10.00">MISSING)</text>
<text text-anchor="start" x="294.12" y="-1414.5" font-family="Helvetica,sans-Serif" font-size="10.00">+</text>
<text text-anchor="start" x="304.12" y="-1414.5" font-family="Helvetica,sans-Serif" font-size="10.00">bool addError(TokenResult</text>
<text text-anchor="start" x="304.12" y="-1402.5" font-family="Helvetica,sans-Serif" font-size="10.00"> &amp;tRes, DataType type)</text>
<text text-anchor="start" x="294.12" y="-1386.5" font-family="Helvetica,sans-Serif" font-size="10.00">+</text>
<text text-anchor="start" x="304.12" y="-1386.5" font-family="Helvetica,sans-Serif" font-size="10.00">std::string getTokenText()</text>
<text text-anchor="start" x="294.12" y="-1370.5" font-family="Helvetica,sans-Serif" font-size="10.00">+</text>
<text text-anchor="start" x="304.12" y="-1370.5" font-family="Helvetica,sans-Serif" font-size="10.00">int getLine()</text>
<text text-anchor="start" x="294.12" y="-1354.5" font-family="Helvetica,sans-Serif" font-size="10.00">+</text>
<text text-anchor="start" x="304.12" y="-1354.5" font-family="Helvetica,sans-Serif" font-size="10.00">bool hasValue(TokenVALUE</text>
<text text-anchor="start" x="304.12" y="-1342.5" font-family="Helvetica,sans-Serif" font-size="10.00"> value) const</text>
<text text-anchor="start" x="294.12" y="-1326.5" font-family="Helvetica,sans-Serif" font-size="10.00">+</text>
<text text-anchor="start" x="304.12" y="-1326.5" font-family="Helvetica,sans-Serif" font-size="10.00">virtual bool addTokens</text>
<text text-anchor="start" x="304.12" y="-1314.5" font-family="Helvetica,sans-Serif" font-size="10.00">(IteratorList&lt; Token &gt;</text>
<text text-anchor="start" x="304.12" y="-1302.5" font-family="Helvetica,sans-Serif" font-size="10.00"> &amp;tl, TokenResult &amp;tRes)</text>
<text text-anchor="start" x="294.12" y="-1286.5" font-family="Helvetica,sans-Serif" font-size="10.00">+</text>
<text text-anchor="start" x="304.12" y="-1286.5" font-family="Helvetica,sans-Serif" font-size="10.00">virtual std::shared</text>
<text text-anchor="start" x="304.12" y="-1274.5" font-family="Helvetica,sans-Serif" font-size="10.00">_ptr&lt; Tag &gt; execute()</text>
<polygon fill="#666666" stroke="#666666" points="290.12,-1614 290.12,-1614 431.88,-1614 431.88,-1614 290.12,-1614"/>
<polygon fill="#666666" stroke="#666666" points="290.12,-1566 290.12,-1566 302.12,-1566 302.12,-1566 290.12,-1566"/>
<polygon fill="#666666" stroke="#666666" points="302.12,-1566 302.12,-1566 431.88,-1566 431.88,-1566 302.12,-1566"/>
<polygon fill="none" stroke="#666666" points="290.12,-1268 290.12,-1632 431.88,-1632 431.88,-1268 290.12,-1268"/>
</a>
</g>
</g>
<!-- Node4&#45;&gt;Node3 -->
<g id="edge3_Node000003_Node000004" class="edge">
<title>Node4&#45;&gt;Node3</title>
<g id="a_edge3_Node000003_Node000004"><a xlink:title=" ">
<path fill="none" stroke="#63b8ff" d="M361,-1256.8C361,-1247.75 361,-1239.31 361,-1231.75"/>
<polygon fill="none" stroke="#63b8ff" points="357.5,-1256.61 361,-1266.61 364.5,-1256.61 357.5,-1256.61"/>
</a>
</g>
</g>
<!-- Node6 -->
<g id="Node000006" class="node">
<title>Node6</title>
<g id="a_Node000006"><a xlink:href="class_and_token.html" target="_top" xlink:title=" ">
<polygon fill="white" stroke="none" points="108,-80 0,-80 0,0 108,0 108,-80"/>
<text text-anchor="start" x="32.25" y="-66.5" font-family="Helvetica,sans-Serif" font-size="10.00">AndToken</text>
<text text-anchor="start" x="52.5" y="-50.5" font-family="Helvetica,sans-Serif" font-size="10.00"> </text>
<text text-anchor="start" x="4" y="-34.5" font-family="Helvetica,sans-Serif" font-size="10.00">+</text>
<text text-anchor="start" x="14" y="-34.5" font-family="Helvetica,sans-Serif" font-size="10.00">AndToken()</text>
<text text-anchor="start" x="4" y="-18.5" font-family="Helvetica,sans-Serif" font-size="10.00">+</text>
<text text-anchor="start" x="14" y="-18.5" font-family="Helvetica,sans-Serif" font-size="10.00">std::shared_ptr&lt; Tag</text>
<text text-anchor="start" x="14" y="-6.5" font-family="Helvetica,sans-Serif" font-size="10.00"> &gt; execute() override</text>
<polygon fill="#666666" stroke="#666666" points="0,-62 0,-62 108,-62 108,-62 0,-62"/>
<polygon fill="#666666" stroke="#666666" points="0,-46 0,-46 108,-46 108,-46 0,-46"/>
<polygon fill="none" stroke="#666666" points="0,0 0,-80 108,-80 108,0 0,0"/>
</a>
</g>
</g>
<!-- Node5&#45;&gt;Node6 -->
<g id="edge5_Node000005_Node000006" class="edge">
<title>Node5&#45;&gt;Node6</title>
<g id="a_edge5_Node000005_Node000006"><a xlink:title=" ">
<path fill="none" stroke="#63b8ff" d="M91.84,-167.15C82.79,-136.95 73,-104.33 65.65,-79.82"/>
<polygon fill="none" stroke="#63b8ff" points="88.48,-168.12 94.71,-176.69 95.19,-166.11 88.48,-168.12"/>
</a>
</g>
</g>
<!-- Node7 -->
<g id="Node000007" class="node">
<title>Node7</title>
<g id="a_Node000007"><a xlink:href="class_or_token.html" target="_top" xlink:title=" ">
<polygon fill="white" stroke="none" points="234,-80 126,-80 126,0 234,0 234,-80"/>
<text text-anchor="start" x="161.62" y="-66.5" font-family="Helvetica,sans-Serif" font-size="10.00">OrToken</text>
<text text-anchor="start" x="178.5" y="-50.5" font-family="Helvetica,sans-Serif" font-size="10.00"> </text>
<text text-anchor="start" x="130" y="-34.5" font-family="Helvetica,sans-Serif" font-size="10.00">+</text>
<text text-anchor="start" x="140" y="-34.5" font-family="Helvetica,sans-Serif" font-size="10.00">OrToken()</text>
<text text-anchor="start" x="130" y="-18.5" font-family="Helvetica,sans-Serif" font-size="10.00">+</text>
<text text-anchor="start" x="140" y="-18.5" font-family="Helvetica,sans-Serif" font-size="10.00">std::shared_ptr&lt; Tag</text>
<text text-anchor="start" x="140" y="-6.5" font-family="Helvetica,sans-Serif" font-size="10.00"> &gt; execute() override</text>
<polygon fill="#666666" stroke="#666666" points="126,-62 126,-62 234,-62 234,-62 126,-62"/>
<polygon fill="#666666" stroke="#666666" points="126,-46 126,-46 234,-46 234,-46 126,-46"/>
<polygon fill="none" stroke="#666666" points="126,0 126,-80 234,-80 234,0 126,0"/>
</a>
</g>
</g>
<!-- Node5&#45;&gt;Node7 -->
<g id="edge6_Node000005_Node000007" class="edge">
<title>Node5&#45;&gt;Node7</title>
<g id="a_edge6_Node000005_Node000007"><a xlink:title=" ">
<path fill="none" stroke="#63b8ff" d="M142.16,-167.15C151.21,-136.95 161,-104.33 168.35,-79.82"/>
<polygon fill="none" stroke="#63b8ff" points="138.81,-166.11 139.29,-176.69 145.52,-168.12 138.81,-166.11"/>
</a>
</g>
</g>
</g>
</svg>

<g id="navigator" transform="translate(0 0)" fill="#404254">
  <rect fill="#f2f5e9" fill-opacity="0.5" stroke="#606060" stroke-width=".5" x="0" y="0" width="60" height="60"/>
  <use id="zoomplus" xlink:href="#zoomPlus" x="17" y="9" onmousedown="handleZoom(evt,'in')"/>
  <use id="zoomminus" xlink:href="#zoomMin" x="42" y="9" onmousedown="handleZoom(evt,'out')"/>
  <use id="reset" xlink:href="#resetDef" x="30" y="36" onmousedown="handleReset()"/>
   <use id="arrowup" xlink:href="#arrowUp" x="0" y="0" onmousedown="handlePan(0,-1)"/>
  <use id="arrowright" xlink:href="#arrowRight" x="0" y="0" onmousedown="handlePan(1,0)"/>
  <use id="arrowdown" xlink:href="#arrowDown" x="0" y="0" onmousedown="handlePan(0,1)"/>
  <use id="arrowleft" xlink:href="#arrowLeft" x="0" y="0" onmousedown="handlePan(-1,0)"/>
</g>
<svg viewBox="0 0 15 15" width="100%" height="30px" preserveAspectRatio="xMaxYMin meet">
 <g id="arrow_out" transform="scale(0.3 0.3)">
  <a xlink:href="class_m_p_k_token__inherit__graph_org.svg" target="_base">
   <rect id="button" ry="5" rx="5" y="6" x="6" height="38" width="38"
        fill="#f2f5e9" fill-opacity="0.5" stroke="#606060" stroke-width="1.0"/>
   <path id="arrow"
     d="M 11.500037,31.436501 C 11.940474,20.09759 22.043105,11.32322 32.158766,21.979434 L 37.068811,17.246167 C 37.068811,17.246167 37.088388,32 37.088388,32 L 22.160133,31.978069 C 22.160133,31.978069 26.997745,27.140456 26.997745,27.140456 C 18.528582,18.264221 13.291696,25.230495 11.500037,31.436501 z"
     style="fill:#404040;"/>
  </a>
 </g>
</svg>

<style type='text/css'>
<![CDATA[
[data-mouse-over-selected='false'] { opacity: 0.7; }
[data-mouse-over-selected='true']  { opacity: 1.0; }
]]>
</style>
<script type="application/ecmascript"><![CDATA[
document.addEventListener('DOMContentLoaded', (event) => {
  highlightEdges();
  highlightAdjacentNodes();
});
]]></script>
</svg>
