<?xml version="1.0" encoding="UTF-8" standalone="no"?>
<!DOCTYPE svg PUBLIC "-//W3C//DTD SVG 1.1//EN"
 "http://www.w3.org/Graphics/SVG/1.1/DTD/svg11.dtd">
<!-- Generated by graphviz version 12.2.0 (20241103.1931)
 -->
<!-- Title: TemplateToken::addType Pages: 1 -->
<svg width="315pt" height="370pt"
 viewBox="0.00 0.00 315.25 370.00" xmlns="http://www.w3.org/2000/svg" xmlns:xlink="http://www.w3.org/1999/xlink">

<svg id="main" version="1.1" xmlns="http://www.w3.org/2000/svg" xmlns:xlink="http://www.w3.org/1999/xlink" xml:space="preserve">

<style type="text/css"><![CDATA[
.node, .edge {opacity: 0.7;}
.node.selected, .edge.selected {opacity: 1;}
.edge:hover path { stroke: red; }
.edge:hover polygon { stroke: red; fill: red; }
]]></style>
<script type="application/ecmascript" xlink:href="svg.min.js"/>
<svg id="graph" class="graph">
<g id="graph0" class="graph" transform="scale(1 1) rotate(0) translate(4 366)">
<title>TemplateToken::addType</title>
<!-- Node1 -->
<g id="Node000001" class="node">
<title>Node1</title>
<g id="a_Node000001"><a xlink:title=" ">
<polygon fill="#999999" stroke="#666666" points="307.25,-191 182.5,-191 182.5,-171 307.25,-171 307.25,-191"/>
<text text-anchor="middle" x="244.88" y="-177.5" font-family="Helvetica,sans-Serif" font-size="10.00">TemplateToken::addType</text>
</a>
</g>
</g>
<!-- Node2 -->
<g id="Node000002" class="node">
<title>Node2</title>
<g id="a_Node000002"><a xlink:href="class_template_token.html#a6eb3afbfb157bc54af838a654d570d00" target="_top" xlink:title=" ">
<polygon fill="white" stroke="#666666" points="134.88,-362 11.62,-362 11.62,-342 134.88,-342 134.88,-362"/>
<text text-anchor="middle" x="73.25" y="-348.5" font-family="Helvetica,sans-Serif" font-size="10.00">TemplateToken::addBool</text>
</a>
</g>
</g>
<!-- Node1&#45;&gt;Node2 -->
<g id="edge1_Node000001_Node000002" class="edge">
<title>Node1&#45;&gt;Node2</title>
<g id="a_edge1_Node000001_Node000002"><a xlink:title=" ">
<path fill="none" stroke="#63b8ff" d="M236.24,-202.06C223.15,-235.14 193.22,-299 146.5,-333 141.78,-336.43 136.49,-339.25 130.97,-341.55"/>
<polygon fill="#63b8ff" stroke="#63b8ff" points="239.48,-203.38 239.77,-192.79 232.94,-200.9 239.48,-203.38"/>
</a>
</g>
</g>
<!-- Node3 -->
<g id="Node000003" class="node">
<title>Node3</title>
<g id="a_Node000003"><a xlink:href="class_template_token.html#aaffa06b318ca9e8b874a6598d721e424" target="_top" xlink:title=" ">
<polygon fill="white" stroke="#666666" points="138.25,-324 8.25,-324 8.25,-304 138.25,-304 138.25,-324"/>
<text text-anchor="middle" x="73.25" y="-310.5" font-family="Helvetica,sans-Serif" font-size="10.00">TemplateToken::addCoord</text>
</a>
</g>
</g>
<!-- Node1&#45;&gt;Node3 -->
<g id="edge2_Node000001_Node000003" class="edge">
<title>Node1&#45;&gt;Node3</title>
<g id="a_edge2_Node000001_Node000003"><a xlink:title=" ">
<path fill="none" stroke="#63b8ff" d="M232.14,-201.13C216.1,-226.85 184.89,-270.91 146.5,-295 141.01,-298.45 134.9,-301.27 128.64,-303.59"/>
<polygon fill="#63b8ff" stroke="#63b8ff" points="235.1,-203.01 237.28,-192.64 229.11,-199.38 235.1,-203.01"/>
</a>
</g>
</g>
<!-- Node4 -->
<g id="Node000004" class="node">
<title>Node4</title>
<g id="a_Node000004"><a xlink:href="class_template_token.html#ae5409c200682323bbd3ab7952ef4b4f5" target="_top" xlink:title=" ">
<polygon fill="white" stroke="#666666" points="146.12,-286 0.38,-286 0.38,-266 146.12,-266 146.12,-286"/>
<text text-anchor="middle" x="73.25" y="-272.5" font-family="Helvetica,sans-Serif" font-size="10.00">TemplateToken::addDataType</text>
</a>
</g>
</g>
<!-- Node1&#45;&gt;Node4 -->
<g id="edge3_Node000001_Node000004" class="edge">
<title>Node1&#45;&gt;Node4</title>
<g id="a_edge3_Node000001_Node000004"><a xlink:title=" ">
<path fill="none" stroke="#63b8ff" d="M225.38,-199.23C206.89,-216.49 176.89,-241.95 146.5,-257 139.64,-260.4 132.11,-263.24 124.57,-265.6"/>
<polygon fill="#63b8ff" stroke="#63b8ff" points="227.58,-201.98 232.4,-192.54 222.74,-196.91 227.58,-201.98"/>
</a>
</g>
</g>
<!-- Node5 -->
<g id="Node000005" class="node">
<title>Node5</title>
<g id="a_Node000005"><a xlink:href="class_template_token.html#a8d9b343f2012524731d7cc7d657b30bc" target="_top" xlink:title=" ">
<polygon fill="white" stroke="#666666" points="136,-248 10.5,-248 10.5,-228 136,-228 136,-248"/>
<text text-anchor="middle" x="73.25" y="-234.5" font-family="Helvetica,sans-Serif" font-size="10.00">TemplateToken::addFloat</text>
</a>
</g>
</g>
<!-- Node1&#45;&gt;Node5 -->
<g id="edge4_Node000001_Node000005" class="edge">
<title>Node1&#45;&gt;Node5</title>
<g id="a_edge4_Node000001_Node000005"><a xlink:title=" ">
<path fill="none" stroke="#63b8ff" d="M208.83,-195.8C190.46,-203.27 167.46,-212.18 146.5,-219 137.13,-222.05 126.95,-224.96 117.28,-227.55"/>
<polygon fill="#63b8ff" stroke="#63b8ff" points="210.03,-199.09 217.94,-192.05 207.37,-192.62 210.03,-199.09"/>
</a>
</g>
</g>
<!-- Node6 -->
<g id="Node000006" class="node">
<title>Node6</title>
<g id="a_Node000006"><a xlink:href="class_template_token.html#a96ca35999c1a6551e66bb77922cac8aa" target="_top" xlink:title=" ">
<polygon fill="white" stroke="#666666" points="140.12,-210 6.38,-210 6.38,-190 140.12,-190 140.12,-210"/>
<text text-anchor="middle" x="73.25" y="-196.5" font-family="Helvetica,sans-Serif" font-size="10.00">TemplateToken::addInteger</text>
</a>
</g>
</g>
<!-- Node1&#45;&gt;Node6 -->
<g id="edge5_Node000001_Node000006" class="edge">
<title>Node1&#45;&gt;Node6</title>
<g id="a_edge5_Node000001_Node000006"><a xlink:title=" ">
<path fill="none" stroke="#63b8ff" d="M170.89,-189.18C160.79,-190.31 150.46,-191.46 140.5,-192.58"/>
<polygon fill="#63b8ff" stroke="#63b8ff" points="171.1,-192.67 180.65,-188.08 170.33,-185.72 171.1,-192.67"/>
</a>
</g>
</g>
<!-- Node7 -->
<g id="Node000007" class="node">
<title>Node7</title>
<g id="a_Node000007"><a xlink:href="class_template_token.html#a6fa9056c91c1a555678b264f4e3e7508" target="_top" xlink:title=" ">
<polygon fill="white" stroke="#666666" points="142.38,-172 4.12,-172 4.12,-152 142.38,-152 142.38,-172"/>
<text text-anchor="middle" x="73.25" y="-158.5" font-family="Helvetica,sans-Serif" font-size="10.00">TemplateToken::addNumber</text>
</a>
</g>
</g>
<!-- Node1&#45;&gt;Node7 -->
<g id="edge6_Node000001_Node000007" class="edge">
<title>Node1&#45;&gt;Node7</title>
<g id="a_edge6_Node000001_Node000007"><a xlink:title=" ">
<path fill="none" stroke="#63b8ff" d="M170.91,-172.83C161.58,-171.78 152.06,-170.72 142.81,-169.68"/>
<polygon fill="#63b8ff" stroke="#63b8ff" points="170.33,-176.28 180.65,-173.92 171.1,-169.33 170.33,-176.28"/>
</a>
</g>
</g>
<!-- Node8 -->
<g id="Node000008" class="node">
<title>Node8</title>
<g id="a_Node000008"><a xlink:href="class_template_token.html#adb300eb290123fa430ce7aaff136a46d" target="_top" xlink:title=" ">
<polygon fill="white" stroke="#666666" points="137.88,-134 8.62,-134 8.62,-114 137.88,-114 137.88,-134"/>
<text text-anchor="middle" x="73.25" y="-120.5" font-family="Helvetica,sans-Serif" font-size="10.00">TemplateToken::addString</text>
</a>
</g>
</g>
<!-- Node1&#45;&gt;Node8 -->
<g id="edge7_Node000001_Node000008" class="edge">
<title>Node1&#45;&gt;Node8</title>
<g id="a_edge7_Node000001_Node000008"><a xlink:title=" ">
<path fill="none" stroke="#63b8ff" d="M208.83,-166.2C190.46,-158.73 167.46,-149.82 146.5,-143 137.13,-139.95 126.95,-137.04 117.28,-134.45"/>
<polygon fill="#63b8ff" stroke="#63b8ff" points="207.37,-169.38 217.94,-169.95 210.03,-162.91 207.37,-169.38"/>
</a>
</g>
</g>
<!-- Node9 -->
<g id="Node000009" class="node">
<title>Node9</title>
<g id="a_Node000009"><a xlink:href="class_template_token.html#aa3148f8f737edb75778c19616148ee48" target="_top" xlink:title=" ">
<polygon fill="white" stroke="#666666" points="146.5,-96 0,-96 0,-76 146.5,-76 146.5,-96"/>
<text text-anchor="middle" x="73.25" y="-82.5" font-family="Helvetica,sans-Serif" font-size="10.00">TemplateToken::addTimeType</text>
</a>
</g>
</g>
<!-- Node1&#45;&gt;Node9 -->
<g id="edge8_Node000001_Node000009" class="edge">
<title>Node1&#45;&gt;Node9</title>
<g id="a_edge8_Node000001_Node000009"><a xlink:title=" ">
<path fill="none" stroke="#63b8ff" d="M225.38,-162.77C206.89,-145.51 176.89,-120.05 146.5,-105 139.64,-101.6 132.11,-98.76 124.57,-96.4"/>
<polygon fill="#63b8ff" stroke="#63b8ff" points="222.74,-165.09 232.4,-169.46 227.58,-160.02 222.74,-165.09"/>
</a>
</g>
</g>
<!-- Node10 -->
<g id="Node000010" class="node">
<title>Node10</title>
<g id="a_Node000010"><a xlink:href="class_template_token.html#a23f3e763a82c043ee0e4e211680eab24" target="_top" xlink:title=" ">
<polygon fill="white" stroke="#666666" points="135.62,-58 10.88,-58 10.88,-38 135.62,-38 135.62,-58"/>
<text text-anchor="middle" x="73.25" y="-44.5" font-family="Helvetica,sans-Serif" font-size="10.00">TemplateToken::addType</text>
</a>
</g>
</g>
<!-- Node1&#45;&gt;Node10 -->
<g id="edge9_Node000001_Node000010" class="edge">
<title>Node1&#45;&gt;Node10</title>
<g id="a_edge9_Node000001_Node000010"><a xlink:title=" ">
<path fill="none" stroke="#63b8ff" d="M232.14,-160.87C216.1,-135.15 184.89,-91.09 146.5,-67 141.01,-63.55 134.9,-60.73 128.64,-58.41"/>
<polygon fill="#63b8ff" stroke="#63b8ff" points="229.11,-162.62 237.28,-169.36 235.1,-158.99 229.11,-162.62"/>
</a>
</g>
</g>
<!-- Node11 -->
<g id="Node000011" class="node">
<title>Node11</title>
<g id="a_Node000011"><a xlink:href="class_template_token.html#a277108b785df33d49c4957aaf14d7935" target="_top" xlink:title=" ">
<polygon fill="white" stroke="#666666" points="136,-20 10.5,-20 10.5,0 136,0 136,-20"/>
<text text-anchor="middle" x="73.25" y="-6.5" font-family="Helvetica,sans-Serif" font-size="10.00">TemplateToken::addZone</text>
</a>
</g>
</g>
<!-- Node1&#45;&gt;Node11 -->
<g id="edge10_Node000001_Node000011" class="edge">
<title>Node1&#45;&gt;Node11</title>
<g id="a_edge10_Node000001_Node000011"><a xlink:title=" ">
<path fill="none" stroke="#63b8ff" d="M236.24,-159.94C223.15,-126.86 193.22,-63 146.5,-29 141.78,-25.57 136.49,-22.75 130.97,-20.45"/>
<polygon fill="#63b8ff" stroke="#63b8ff" points="232.94,-161.1 239.77,-169.21 239.48,-158.62 232.94,-161.1"/>
</a>
</g>
</g>
</g>
</svg>
</svg>

<style type='text/css'>
<![CDATA[
[data-mouse-over-selected='false'] { opacity: 0.7; }
[data-mouse-over-selected='true']  { opacity: 1.0; }
]]>
</style>
<script type="application/ecmascript"><![CDATA[
document.addEventListener('DOMContentLoaded', (event) => {
  highlightEdges();
  highlightAdjacentNodes();
});
]]></script>
</svg>
