<?xml version="1.0" encoding="UTF-8" standalone="no"?>
<!DOCTYPE svg PUBLIC "-//W3C//DTD SVG 1.1//EN"
 "http://www.w3.org/Graphics/SVG/1.1/DTD/svg11.dtd">
<!-- Generated by graphviz version 12.2.0 (20241103.1931)
 -->
<!-- Title: IntegerToken::IntegerToken Pages: 1 -->
<svg width="603pt" height="40pt"
 viewBox="0.00 0.00 603.00 40.00" xmlns="http://www.w3.org/2000/svg" xmlns:xlink="http://www.w3.org/1999/xlink">
<g id="graph0" class="graph" transform="scale(1 1) rotate(0) translate(4 36)">
<title>IntegerToken::IntegerToken</title>
<!-- Node1 -->
<g id="Node000001" class="node">
<title>Node1</title>
<g id="a_Node000001"><a xlink:title=" ">
<polygon fill="#999999" stroke="#666666" points="134.5,-26 0,-26 0,-6 134.5,-6 134.5,-26"/>
<text text-anchor="middle" x="67.25" y="-12.5" font-family="Helvetica,sans-Serif" font-size="10.00">IntegerToken::IntegerToken</text>
</a>
</g>
</g>
<!-- Node2 -->
<g id="Node000002" class="node">
<title>Node2</title>
<g id="a_Node000002"><a xlink:href="class_integer_token.html#a30a0007432b5d56252b4a3f703569801" target="_top" xlink:title=" ">
<polygon fill="white" stroke="#666666" points="306.5,-26 170.5,-26 170.5,-6 306.5,-6 306.5,-26"/>
<text text-anchor="middle" x="238.5" y="-12.5" font-family="Helvetica,sans-Serif" font-size="10.00">IntegerToken::setOverloads</text>
</a>
</g>
</g>
<!-- Node1&#45;&gt;Node2 -->
<g id="edge1_Node000001_Node000002" class="edge">
<title>Node1&#45;&gt;Node2</title>
<g id="a_edge1_Node000001_Node000002"><a xlink:title=" ">
<path fill="none" stroke="#63b8ff" d="M134.66,-16C142.59,-16 150.74,-16 158.83,-16"/>
<polygon fill="#63b8ff" stroke="#63b8ff" points="158.66,-19.5 168.66,-16 158.66,-12.5 158.66,-19.5"/>
</a>
</g>
</g>
<!-- Node3 -->
<g id="Node000003" class="node">
<title>Node3</title>
<g id="a_Node000003"><a xlink:href="class_arguments_overload.html#a17fba6858e03080178ab2cf098861e5f" target="_top" xlink:title=" ">
<polygon fill="white" stroke="#666666" points="450.75,-32 342.5,-32 342.5,0 450.75,0 450.75,-32"/>
<text text-anchor="start" x="350.5" y="-18.5" font-family="Helvetica,sans-Serif" font-size="10.00">ArgumentsOverload::</text>
<text text-anchor="middle" x="396.62" y="-6.5" font-family="Helvetica,sans-Serif" font-size="10.00">addArgs</text>
</a>
</g>
</g>
<!-- Node2&#45;&gt;Node3 -->
<g id="edge2_Node000002_Node000003" class="edge">
<title>Node2&#45;&gt;Node3</title>
<g id="a_edge2_Node000002_Node000003"><a xlink:title=" ">
<path fill="none" stroke="#63b8ff" d="M306.62,-16C314.61,-16 322.77,-16 330.73,-16"/>
<polygon fill="#63b8ff" stroke="#63b8ff" points="330.71,-19.5 340.71,-16 330.71,-12.5 330.71,-19.5"/>
</a>
</g>
</g>
<!-- Node4 -->
<g id="Node000004" class="node">
<title>Node4</title>
<g id="a_Node000004"><a xlink:href="class_arguments_overload.html#a1dfc9815d235cec325412121bea6b559" target="_top" xlink:title=" ">
<polygon fill="white" stroke="#666666" points="595,-32 486.75,-32 486.75,0 595,0 595,-32"/>
<text text-anchor="start" x="494.75" y="-18.5" font-family="Helvetica,sans-Serif" font-size="10.00">ArgumentsOverload::</text>
<text text-anchor="middle" x="540.88" y="-6.5" font-family="Helvetica,sans-Serif" font-size="10.00">isPresent</text>
</a>
</g>
</g>
<!-- Node3&#45;&gt;Node4 -->
<g id="edge3_Node000003_Node000004" class="edge">
<title>Node3&#45;&gt;Node4</title>
<g id="a_edge3_Node000003_Node000004"><a xlink:title=" ">
<path fill="none" stroke="#63b8ff" d="M451,-16C458.93,-16 467.17,-16 475.3,-16"/>
<polygon fill="#63b8ff" stroke="#63b8ff" points="475.16,-19.5 485.16,-16 475.16,-12.5 475.16,-19.5"/>
</a>
</g>
</g>
</g>
</svg>
