<?xml version="1.0" encoding="UTF-8" standalone="no"?>
<!DOCTYPE svg PUBLIC "-//W3C//DTD SVG 1.1//EN"
 "http://www.w3.org/Graphics/SVG/1.1/DTD/svg11.dtd">
<!-- Generated by graphviz version 12.2.0 (20241103.1931)
 -->
<!-- Title: Lexer::getNextPunctuationToken Pages: 1 -->
<!--zoomable 85 -->

<svg id="main" version="1.1" xmlns="http://www.w3.org/2000/svg" xmlns:xlink="http://www.w3.org/1999/xlink" xml:space="preserve" onload="init(evt)">

<style type="text/css"><![CDATA[
.node, .edge {opacity: 0.7;}
.node.selected, .edge.selected {opacity: 1;}
.edge:hover path { stroke: red; }
.edge:hover polygon { stroke: red; fill: red; }
]]></style>

<defs>
  <circle id="rim" cx="0" cy="0" r="7"/>
  <circle id="rim2" cx="0" cy="0" r="3.5"/>
  <g id="zoomPlus">
    <use xlink:href="#rim" fill="#404040"><set attributeName="fill" to="#808080" begin="zoomplus.mouseover" end="zoomplus.mouseout"/></use>
    <path d="M-4,0h8M0,-4v8" fill="none" stroke="white" stroke-width="1.5" pointer-events="none"/>
  </g>
  <g id="zoomMin">
    <use xlink:href="#rim" fill="#404040"><set attributeName="fill" to="#808080" begin="zoomminus.mouseover" end="zoomminus.mouseout"/></use>
    <path d="M-4,0h8" fill="none" stroke="white" stroke-width="1.5" pointer-events="none"/>
  </g>
  <g id="arrowUp" transform="translate(30 24)">
    <use xlink:href="#rim"/>
    <path pointer-events="none" fill="none" stroke="white" stroke-width="1.5" d="M0,-3.0v7 M-2.5,-0.5L0,-3.0L2.5,-0.5"/>
  </g>
  <g id="arrowRight" transform="rotate(90) translate(36 -43)">
    <use xlink:href="#rim"/>
    <path pointer-events="none" fill="none" stroke="white" stroke-width="1.5" d="M0,-3.0v7 M-2.5,-0.5L0,-3.0L2.5,-0.5"/>
  </g>
  <g id="arrowDown" transform="rotate(180) translate(-30 -48)">
    <use xlink:href="#rim"/>
    <path pointer-events="none" fill="none" stroke="white" stroke-width="1.5" d="M0,-3.0v7 M-2.5,-0.5L0,-3.0L2.5,-0.5"/>
  </g>
  <g id="arrowLeft" transform="rotate(270) translate(-36 17)">
    <use xlink:href="#rim"/>
    <path pointer-events="none" fill="none" stroke="white" stroke-width="1.5" d="M0,-3.0v7 M-2.5,-0.5L0,-3.0L2.5,-0.5"/>
  </g>
  <g id="resetDef">
    <use xlink:href="#rim2" fill="#404040"><set attributeName="fill" to="#808080" begin="reset.mouseover" end="reset.mouseout"/></use>
  </g>
</defs>
<script type="application/ecmascript">
var viewWidth = 2108;
var viewHeight = 85;
var sectionId = 'dynsection-5';
</script>
<script type="application/ecmascript" xlink:href="svg.min.js"/>
<svg id="graph" class="graph">
<g id="viewport">
<title>Lexer::getNextPunctuationToken</title>
<!-- Node1 -->
<g id="Node000001" class="node">
<title>Node1</title>
<g id="a_Node000001"><a xlink:title=" ">
<polygon fill="#999999" stroke="#666666" points="2100.25,-45 1968,-45 1968,-13 2100.25,-13 2100.25,-45"/>
<text text-anchor="start" x="1976" y="-31.5" font-family="Helvetica,sans-Serif" font-size="10.00">Lexer::getNextPunctuation</text>
<text text-anchor="middle" x="2034.12" y="-19.5" font-family="Helvetica,sans-Serif" font-size="10.00">Token</text>
</a>
</g>
</g>
<!-- Node2 -->
<g id="Node000002" class="node">
<title>Node2</title>
<g id="a_Node000002"><a xlink:href="class_lexer.html#a243227232c190f441498270efa40ccb8" target="_top" xlink:title=" ">
<polygon fill="white" stroke="#666666" points="1932,-39 1799.75,-39 1799.75,-19 1932,-19 1932,-39"/>
<text text-anchor="middle" x="1865.88" y="-25.5" font-family="Helvetica,sans-Serif" font-size="10.00">Lexer::getNextTokenString</text>
</a>
</g>
</g>
<!-- Node1&#45;&gt;Node2 -->
<g id="edge1_Node000001_Node000002" class="edge">
<title>Node1&#45;&gt;Node2</title>
<g id="a_edge1_Node000001_Node000002"><a xlink:title=" ">
<path fill="none" stroke="#63b8ff" d="M1956.59,-29C1948.53,-29 1940.38,-29 1932.46,-29"/>
<polygon fill="#63b8ff" stroke="#63b8ff" points="1956.38,-32.5 1966.38,-29 1956.38,-25.5 1956.38,-32.5"/>
</a>
</g>
</g>
<!-- Node3 -->
<g id="Node000003" class="node">
<title>Node3</title>
<g id="a_Node000003"><a xlink:href="class_lexer.html#acf897fb607a542d5c7c8cd4b0dcb1d18" target="_top" xlink:title=" ">
<polygon fill="white" stroke="#666666" points="1752.12,-58 1644.62,-58 1644.62,-38 1752.12,-38 1752.12,-58"/>
<text text-anchor="middle" x="1698.38" y="-44.5" font-family="Helvetica,sans-Serif" font-size="10.00">Lexer::extractTokens</text>
</a>
</g>
</g>
<!-- Node2&#45;&gt;Node3 -->
<g id="edge2_Node000002_Node000003" class="edge">
<title>Node2&#45;&gt;Node3</title>
<g id="a_edge2_Node000002_Node000003"><a xlink:title=" ">
<path fill="none" stroke="#63b8ff" d="M1788.06,-37.82C1776.07,-39.2 1763.92,-40.59 1752.61,-41.89"/>
<polygon fill="#63b8ff" stroke="#63b8ff" points="1788.43,-41.3 1797.96,-36.68 1787.63,-34.35 1788.43,-41.3"/>
</a>
</g>
</g>
<!-- Node16 -->
<g id="Node000016" class="node">
<title>Node16</title>
<g id="a_Node000016"><a xlink:href="class_lexer.html#a67add67d465e634d6820b6dcc711708a" target="_top" xlink:title=" ">
<polygon fill="white" stroke="#666666" points="1763.75,-20 1633,-20 1633,0 1763.75,0 1763.75,-20"/>
<text text-anchor="middle" x="1698.38" y="-6.5" font-family="Helvetica,sans-Serif" font-size="10.00">Lexer::getNextTokenValue</text>
</a>
</g>
</g>
<!-- Node2&#45;&gt;Node16 -->
<g id="edge16_Node000002_Node000016" class="edge">
<title>Node2&#45;&gt;Node16</title>
<g id="a_edge16_Node000002_Node000016"><a xlink:title=" ">
<path fill="none" stroke="#63b8ff" d="M1788.15,-20.19C1780.09,-19.27 1771.95,-18.33 1764.04,-17.42"/>
<polygon fill="#63b8ff" stroke="#63b8ff" points="1787.63,-23.65 1797.96,-21.32 1788.43,-16.7 1787.63,-23.65"/>
</a>
</g>
</g>
<!-- Node4 -->
<g id="Node000004" class="node">
<title>Node4</title>
<g id="a_Node000004"><a xlink:href="class_interpretor.html#a213dd04d8ca9dbb188f29e2284fcbc5a" target="_top" xlink:title=" ">
<polygon fill="white" stroke="#666666" points="1597,-58 1485.75,-58 1485.75,-38 1597,-38 1597,-58"/>
<text text-anchor="middle" x="1541.38" y="-44.5" font-family="Helvetica,sans-Serif" font-size="10.00">Interpretor::getTokens</text>
</a>
</g>
</g>
<!-- Node3&#45;&gt;Node4 -->
<g id="edge3_Node000003_Node000004" class="edge">
<title>Node3&#45;&gt;Node4</title>
<g id="a_edge3_Node000003_Node000004"><a xlink:title=" ">
<path fill="none" stroke="#63b8ff" d="M1633.23,-48C1621.34,-48 1609.01,-48 1597.42,-48"/>
<polygon fill="#63b8ff" stroke="#63b8ff" points="1632.95,-51.5 1642.95,-48 1632.95,-44.5 1632.95,-51.5"/>
</a>
</g>
</g>
<!-- Node5 -->
<g id="Node000005" class="node">
<title>Node5</title>
<g id="a_Node000005"><a xlink:href="class_interpretor.html#ad464f7beab8778df1253377d8084325c" target="_top" xlink:title=" ">
<polygon fill="white" stroke="#666666" points="1444.5,-77 1323.5,-77 1323.5,-57 1444.5,-57 1444.5,-77"/>
<text text-anchor="middle" x="1384" y="-63.5" font-family="Helvetica,sans-Serif" font-size="10.00">Interpretor::compileTags</text>
</a>
</g>
</g>
<!-- Node4&#45;&gt;Node5 -->
<g id="edge4_Node000004_Node000005" class="edge">
<title>Node4&#45;&gt;Node5</title>
<g id="a_edge4_Node000004_Node000005"><a xlink:title=" ">
<path fill="none" stroke="#63b8ff" d="M1474.27,-56.08C1464.5,-57.28 1454.47,-58.5 1444.83,-59.68"/>
<polygon fill="#63b8ff" stroke="#63b8ff" points="1474.59,-59.57 1484.09,-54.88 1473.74,-52.62 1474.59,-59.57"/>
</a>
</g>
</g>
<!-- Node14 -->
<g id="Node000014" class="node">
<title>Node14</title>
<g id="a_Node000014"><a xlink:href="class_interpretor.html#a73bdd0d1c2896aa2039bdccde17c0fa1" target="_top" xlink:title=" ">
<polygon fill="white" stroke="#666666" points="1449.75,-39 1318.25,-39 1318.25,-19 1449.75,-19 1449.75,-39"/>
<text text-anchor="middle" x="1384" y="-25.5" font-family="Helvetica,sans-Serif" font-size="10.00">Interpretor::compileTokens</text>
</a>
</g>
</g>
<!-- Node4&#45;&gt;Node14 -->
<g id="edge13_Node000004_Node000014" class="edge">
<title>Node4&#45;&gt;Node14</title>
<g id="a_edge13_Node000004_Node000014"><a xlink:title=" ">
<path fill="none" stroke="#63b8ff" d="M1474.41,-39.93C1466.39,-38.95 1458.2,-37.95 1450.2,-36.97"/>
<polygon fill="#63b8ff" stroke="#63b8ff" points="1473.74,-43.38 1484.09,-41.12 1474.59,-36.43 1473.74,-43.38"/>
</a>
</g>
</g>
<!-- Node6 -->
<g id="Node000006" class="node">
<title>Node6</title>
<g id="a_Node000006"><a xlink:href="class_interpretor.html#a6e04dd33cb518270ae83197706689a2e" target="_top" xlink:title=" ">
<polygon fill="white" stroke="#666666" points="1282.25,-77 1148.5,-77 1148.5,-57 1282.25,-57 1282.25,-77"/>
<text text-anchor="middle" x="1215.38" y="-63.5" font-family="Helvetica,sans-Serif" font-size="10.00">Interpretor::readActivityFile</text>
</a>
</g>
</g>
<!-- Node5&#45;&gt;Node6 -->
<g id="edge5_Node000005_Node000006" class="edge">
<title>Node5&#45;&gt;Node6</title>
<g id="a_edge5_Node000005_Node000006"><a xlink:title=" ">
<path fill="none" stroke="#63b8ff" d="M1312.03,-67C1302.31,-67 1292.35,-67 1282.71,-67"/>
<polygon fill="#63b8ff" stroke="#63b8ff" points="1311.8,-70.5 1321.8,-67 1311.8,-63.5 1311.8,-70.5"/>
</a>
</g>
</g>
<!-- Node7 -->
<g id="Node000007" class="node">
<title>Node7</title>
<g id="a_Node000007"><a xlink:href="class_my_frame.html#a6e0ebad55b1d785b586997826c512f7d" target="_top" xlink:title=" ">
<polygon fill="white" stroke="#666666" points="1112.5,-58 999,-58 999,-38 1112.5,-38 1112.5,-58"/>
<text text-anchor="middle" x="1055.75" y="-44.5" font-family="Helvetica,sans-Serif" font-size="10.00">MyFrame::getMainTag</text>
</a>
</g>
</g>
<!-- Node6&#45;&gt;Node7 -->
<g id="edge6_Node000006_Node000007" class="edge">
<title>Node6&#45;&gt;Node7</title>
<g id="a_edge6_Node000006_Node000007"><a xlink:title=" ">
<path fill="none" stroke="#63b8ff" d="M1137.29,-57.71C1129.07,-56.72 1120.83,-55.72 1112.92,-54.77"/>
<polygon fill="#63b8ff" stroke="#63b8ff" points="1136.59,-61.15 1146.94,-58.87 1137.43,-54.2 1136.59,-61.15"/>
</a>
</g>
</g>
<!-- Node8 -->
<g id="Node000008" class="node">
<title>Node8</title>
<g id="a_Node000008"><a xlink:href="class_my_frame.html#abb986879321b4dceaffb43eae82e37f1" target="_top" xlink:title=" ">
<polygon fill="white" stroke="#666666" points="963,-58 827,-58 827,-38 963,-38 963,-58"/>
<text text-anchor="middle" x="895" y="-44.5" font-family="Helvetica,sans-Serif" font-size="10.00">MyFrame::createPanelTags</text>
</a>
</g>
</g>
<!-- Node7&#45;&gt;Node8 -->
<g id="edge7_Node000007_Node000008" class="edge">
<title>Node7&#45;&gt;Node8</title>
<g id="a_edge7_Node000007_Node000008"><a xlink:title=" ">
<path fill="none" stroke="#63b8ff" d="M987.34,-48C979.43,-48 971.35,-48 963.44,-48"/>
<polygon fill="#63b8ff" stroke="#63b8ff" points="987.27,-51.5 997.27,-48 987.27,-44.5 987.27,-51.5"/>
</a>
</g>
</g>
<!-- Node9 -->
<g id="Node000009" class="node">
<title>Node9</title>
<g id="a_Node000009"><a xlink:href="class_my_frame.html#a7795237fe8d78e10023b2e078f9728e3" target="_top" xlink:title=" ">
<polygon fill="white" stroke="#666666" points="791,-58 642.25,-58 642.25,-38 791,-38 791,-58"/>
<text text-anchor="middle" x="716.62" y="-44.5" font-family="Helvetica,sans-Serif" font-size="10.00">MyFrame::setProgramWindow</text>
</a>
</g>
</g>
<!-- Node8&#45;&gt;Node9 -->
<g id="edge8_Node000008_Node000009" class="edge">
<title>Node8&#45;&gt;Node9</title>
<g id="a_edge8_Node000008_Node000009"><a xlink:title=" ">
<path fill="none" stroke="#63b8ff" d="M815.14,-48C807.27,-48 799.3,-48 791.49,-48"/>
<polygon fill="#63b8ff" stroke="#63b8ff" points="815.05,-51.5 825.05,-48 815.05,-44.5 815.05,-51.5"/>
</a>
</g>
</g>
<!-- Node10 -->
<g id="Node000010" class="node">
<title>Node10</title>
<g id="a_Node000010"><a xlink:href="class_my_frame.html#a72b4f4c02d1a12561c4cc1f5f7685db8" target="_top" xlink:title=" ">
<polygon fill="white" stroke="#666666" points="606.25,-58 468,-58 468,-38 606.25,-38 606.25,-58"/>
<text text-anchor="middle" x="537.12" y="-44.5" font-family="Helvetica,sans-Serif" font-size="10.00">MyFrame::setProgramPanel</text>
</a>
</g>
</g>
<!-- Node9&#45;&gt;Node10 -->
<g id="edge9_Node000009_Node000010" class="edge">
<title>Node9&#45;&gt;Node10</title>
<g id="a_edge9_Node000009_Node000010"><a xlink:title=" ">
<path fill="none" stroke="#63b8ff" d="M630.55,-48C622.49,-48 614.39,-48 606.51,-48"/>
<polygon fill="#63b8ff" stroke="#63b8ff" points="630.38,-51.5 640.38,-48 630.38,-44.5 630.38,-51.5"/>
</a>
</g>
</g>
<!-- Node11 -->
<g id="Node000011" class="node">
<title>Node11</title>
<g id="a_Node000011"><a xlink:href="class_my_frame.html#a0281cb45b6735fcbd2c885d98c874d18" target="_top" xlink:title=" ">
<polygon fill="white" stroke="#666666" points="432,-58 299,-58 299,-38 432,-38 432,-58"/>
<text text-anchor="middle" x="365.5" y="-44.5" font-family="Helvetica,sans-Serif" font-size="10.00">MyFrame::setBottomPanel</text>
</a>
</g>
</g>
<!-- Node10&#45;&gt;Node11 -->
<g id="edge10_Node000010_Node000011" class="edge">
<title>Node10&#45;&gt;Node11</title>
<g id="a_edge10_Node000010_Node000011"><a xlink:title=" ">
<path fill="none" stroke="#63b8ff" d="M456.3,-48C448.24,-48 440.12,-48 432.23,-48"/>
<polygon fill="#63b8ff" stroke="#63b8ff" points="456.11,-51.5 466.11,-48 456.11,-44.5 456.11,-51.5"/>
</a>
</g>
</g>
<!-- Node12 -->
<g id="Node000012" class="node">
<title>Node12</title>
<g id="a_Node000012"><a xlink:href="class_my_frame.html#a774684146b2b14e42891f6d8b8a73912" target="_top" xlink:title=" ">
<polygon fill="white" stroke="#666666" points="263,-58 140.5,-58 140.5,-38 263,-38 263,-58"/>
<text text-anchor="middle" x="201.75" y="-44.5" font-family="Helvetica,sans-Serif" font-size="10.00">MyFrame::setMainPanel</text>
</a>
</g>
</g>
<!-- Node11&#45;&gt;Node12 -->
<g id="edge11_Node000011_Node000012" class="edge">
<title>Node11&#45;&gt;Node12</title>
<g id="a_edge11_Node000011_Node000012"><a xlink:title=" ">
<path fill="none" stroke="#63b8ff" d="M287.35,-48C279.26,-48 271.13,-48 263.27,-48"/>
<polygon fill="#63b8ff" stroke="#63b8ff" points="287.2,-51.5 297.2,-48 287.2,-44.5 287.2,-51.5"/>
</a>
</g>
</g>
<!-- Node13 -->
<g id="Node000013" class="node">
<title>Node13</title>
<g id="a_Node000013"><a xlink:href="class_my_frame.html#af13d7bffe3d6844c2331085f423764a4" target="_top" xlink:title=" ">
<polygon fill="white" stroke="#666666" points="104.5,-58 0,-58 0,-38 104.5,-38 104.5,-58"/>
<text text-anchor="middle" x="52.25" y="-44.5" font-family="Helvetica,sans-Serif" font-size="10.00">MyFrame::MyFrame</text>
</a>
</g>
</g>
<!-- Node12&#45;&gt;Node13 -->
<g id="edge12_Node000012_Node000013" class="edge">
<title>Node12&#45;&gt;Node13</title>
<g id="a_edge12_Node000012_Node000013"><a xlink:title=" ">
<path fill="none" stroke="#63b8ff" d="M128.91,-48C120.79,-48 112.64,-48 104.85,-48"/>
<polygon fill="#63b8ff" stroke="#63b8ff" points="128.82,-51.5 138.82,-48 128.82,-44.5 128.82,-51.5"/>
</a>
</g>
</g>
<!-- Node15 -->
<g id="Node000015" class="node">
<title>Node15</title>
<g id="a_Node000015"><a xlink:href="class_interpretor.html#a885b425a60dd2467089fc680f4528f03" target="_top" xlink:title=" ">
<polygon fill="white" stroke="#666666" points="1274.75,-39 1156,-39 1156,-19 1274.75,-19 1274.75,-39"/>
<text text-anchor="middle" x="1215.38" y="-25.5" font-family="Helvetica,sans-Serif" font-size="10.00">Interpretor::doUnitTests</text>
</a>
</g>
</g>
<!-- Node14&#45;&gt;Node15 -->
<g id="edge14_Node000014_Node000015" class="edge">
<title>Node14&#45;&gt;Node15</title>
<g id="a_edge14_Node000014_Node000015"><a xlink:title=" ">
<path fill="none" stroke="#63b8ff" d="M1306.69,-29C1296.09,-29 1285.33,-29 1275.12,-29"/>
<polygon fill="#63b8ff" stroke="#63b8ff" points="1306.59,-32.5 1316.59,-29 1306.59,-25.5 1306.59,-32.5"/>
</a>
</g>
</g>
<!-- Node15&#45;&gt;Node7 -->
<g id="edge15_Node000015_Node000007" class="edge">
<title>Node15&#45;&gt;Node7</title>
<g id="a_edge15_Node000015_Node000007"><a xlink:title=" ">
<path fill="none" stroke="#63b8ff" d="M1144.37,-37.44C1133.83,-38.71 1123.08,-40.01 1112.88,-41.23"/>
<polygon fill="#63b8ff" stroke="#63b8ff" points="1144.67,-40.93 1154.18,-36.26 1143.83,-33.98 1144.67,-40.93"/>
</a>
</g>
</g>
</g>
</svg>

<g id="navigator" transform="translate(0 0)" fill="#404254">
  <rect fill="#f2f5e9" fill-opacity="0.5" stroke="#606060" stroke-width=".5" x="0" y="0" width="60" height="60"/>
  <use id="zoomplus" xlink:href="#zoomPlus" x="17" y="9" onmousedown="handleZoom(evt,'in')"/>
  <use id="zoomminus" xlink:href="#zoomMin" x="42" y="9" onmousedown="handleZoom(evt,'out')"/>
  <use id="reset" xlink:href="#resetDef" x="30" y="36" onmousedown="handleReset()"/>
   <use id="arrowup" xlink:href="#arrowUp" x="0" y="0" onmousedown="handlePan(0,-1)"/>
  <use id="arrowright" xlink:href="#arrowRight" x="0" y="0" onmousedown="handlePan(1,0)"/>
  <use id="arrowdown" xlink:href="#arrowDown" x="0" y="0" onmousedown="handlePan(0,1)"/>
  <use id="arrowleft" xlink:href="#arrowLeft" x="0" y="0" onmousedown="handlePan(-1,0)"/>
</g>
<svg viewBox="0 0 15 15" width="100%" height="30px" preserveAspectRatio="xMaxYMin meet">
 <g id="arrow_out" transform="scale(0.3 0.3)">
  <a xlink:href="class_lexer_aeea59528280fc24aaf8a24d0182df826_icgraph_org.svg" target="_base">
   <rect id="button" ry="5" rx="5" y="6" x="6" height="38" width="38"
        fill="#f2f5e9" fill-opacity="0.5" stroke="#606060" stroke-width="1.0"/>
   <path id="arrow"
     d="M 11.500037,31.436501 C 11.940474,20.09759 22.043105,11.32322 32.158766,21.979434 L 37.068811,17.246167 C 37.068811,17.246167 37.088388,32 37.088388,32 L 22.160133,31.978069 C 22.160133,31.978069 26.997745,27.140456 26.997745,27.140456 C 18.528582,18.264221 13.291696,25.230495 11.500037,31.436501 z"
     style="fill:#404040;"/>
  </a>
 </g>
</svg>

<style type='text/css'>
<![CDATA[
[data-mouse-over-selected='false'] { opacity: 0.7; }
[data-mouse-over-selected='true']  { opacity: 1.0; }
]]>
</style>
<script type="application/ecmascript"><![CDATA[
document.addEventListener('DOMContentLoaded', (event) => {
  highlightEdges();
  highlightAdjacentNodes();
});
]]></script>
</svg>
