<?xml version="1.0" encoding="UTF-8" standalone="no"?>
<!DOCTYPE svg PUBLIC "-//W3C//DTD SVG 1.1//EN"
 "http://www.w3.org/Graphics/SVG/1.1/DTD/svg11.dtd">
<!-- Generated by graphviz version 12.2.0 (20241103.1931)
 -->
<!-- Title: NumericToken Pages: 1 -->
<svg width="194pt" height="616pt"
 viewBox="0.00 0.00 194.00 616.00" xmlns="http://www.w3.org/2000/svg" xmlns:xlink="http://www.w3.org/1999/xlink">
<g id="graph0" class="graph" transform="scale(1 1) rotate(0) translate(4 612)">
<title>NumericToken</title>
<!-- Node1 -->
<g id="Node000001" class="node">
<title>Node1</title>
<g id="a_Node000001"><a xlink:title=" ">
<polygon fill="#999999" stroke="none" points="152.25,-92 33.75,-92 33.75,0 152.25,0 152.25,-92"/>
<text text-anchor="start" x="61.5" y="-78.5" font-family="Helvetica,sans-Serif" font-size="10.00">NumericToken</text>
<text text-anchor="start" x="37.75" y="-62.5" font-family="Helvetica,sans-Serif" font-size="10.00">+</text>
<text text-anchor="start" x="47.75" y="-62.5" font-family="Helvetica,sans-Serif" font-size="10.00">int number</text>
<text text-anchor="start" x="37.75" y="-46.5" font-family="Helvetica,sans-Serif" font-size="10.00">+</text>
<text text-anchor="start" x="47.75" y="-46.5" font-family="Helvetica,sans-Serif" font-size="10.00">NumericToken(const</text>
<text text-anchor="start" x="47.75" y="-34.5" font-family="Helvetica,sans-Serif" font-size="10.00"> std::string &amp;nb)</text>
<text text-anchor="start" x="37.75" y="-18.5" font-family="Helvetica,sans-Serif" font-size="10.00">+</text>
<text text-anchor="start" x="47.75" y="-18.5" font-family="Helvetica,sans-Serif" font-size="10.00">DataType getDataType</text>
<text text-anchor="start" x="47.75" y="-6.5" font-family="Helvetica,sans-Serif" font-size="10.00">() override</text>
<polygon fill="#666666" stroke="#666666" points="33.75,-74 33.75,-74 152.25,-74 152.25,-74 33.75,-74"/>
<polygon fill="#666666" stroke="#666666" points="33.75,-58 33.75,-58 45.75,-58 45.75,-58 33.75,-58"/>
<polygon fill="#666666" stroke="#666666" points="45.75,-58 45.75,-58 152.25,-58 152.25,-58 45.75,-58"/>
<polygon fill="none" stroke="#666666" points="33.75,0 33.75,-92 152.25,-92 152.25,0 33.75,0"/>
</a>
</g>
</g>
<!-- Node2 -->
<g id="Node000002" class="node">
<title>Node2</title>
<g id="a_Node000002"><a xlink:href="class_l_token.html" target="_top" xlink:title=" ">
<polygon fill="white" stroke="none" points="112.38,-180 73.62,-180 73.62,-128 112.38,-128 112.38,-180"/>
<text text-anchor="start" x="77.62" y="-166.5" font-family="Helvetica,sans-Serif" font-size="10.00">LToken</text>
<text text-anchor="start" x="91.5" y="-150.5" font-family="Helvetica,sans-Serif" font-size="10.00"> </text>
<text text-anchor="start" x="91.5" y="-134.5" font-family="Helvetica,sans-Serif" font-size="10.00"> </text>
<polygon fill="#666666" stroke="#666666" points="73.62,-162 73.62,-162 112.38,-162 112.38,-162 73.62,-162"/>
<polygon fill="#666666" stroke="#666666" points="73.62,-146 73.62,-146 112.38,-146 112.38,-146 73.62,-146"/>
<polygon fill="none" stroke="#666666" points="73.62,-128 73.62,-180 112.38,-180 112.38,-128 73.62,-128"/>
</a>
</g>
</g>
<!-- Node2&#45;&gt;Node1 -->
<g id="edge1_Node000001_Node000002" class="edge">
<title>Node2&#45;&gt;Node1</title>
<g id="a_edge1_Node000001_Node000002"><a xlink:title=" ">
<path fill="none" stroke="#63b8ff" d="M93,-116.81C93,-108.71 93,-100.03 93,-91.64"/>
<polygon fill="none" stroke="#63b8ff" points="89.5,-116.63 93,-126.63 96.5,-116.63 89.5,-116.63"/>
</a>
</g>
</g>
<!-- Node3 -->
<g id="Node000003" class="node">
<title>Node3</title>
<g id="a_Node000003"><a xlink:href="class_token.html" target="_top" xlink:title=" ">
<polygon fill="white" stroke="none" points="186,-608 0,-608 0,-216 186,-216 186,-608"/>
<text text-anchor="start" x="79.88" y="-594.5" font-family="Helvetica,sans-Serif" font-size="10.00">Token</text>
<text text-anchor="start" x="4" y="-578.5" font-family="Helvetica,sans-Serif" font-size="10.00">+</text>
<text text-anchor="start" x="14" y="-578.5" font-family="Helvetica,sans-Serif" font-size="10.00">std::string tokenText</text>
<text text-anchor="start" x="4" y="-562.5" font-family="Helvetica,sans-Serif" font-size="10.00">+</text>
<text text-anchor="start" x="14" y="-562.5" font-family="Helvetica,sans-Serif" font-size="10.00">TokenVALUE tValue</text>
<text text-anchor="start" x="4" y="-546.5" font-family="Helvetica,sans-Serif" font-size="10.00">+</text>
<text text-anchor="start" x="14" y="-546.5" font-family="Helvetica,sans-Serif" font-size="10.00">std::shared_ptr&lt; TokenResult</text>
<text text-anchor="start" x="14" y="-534.5" font-family="Helvetica,sans-Serif" font-size="10.00"> &gt; tRes</text>
<text text-anchor="start" x="4" y="-518.5" font-family="Helvetica,sans-Serif" font-size="10.00">+</text>
<text text-anchor="start" x="14" y="-518.5" font-family="Helvetica,sans-Serif" font-size="10.00">int line</text>
<text text-anchor="start" x="4" y="-502.5" font-family="Helvetica,sans-Serif" font-size="10.00">+</text>
<text text-anchor="start" x="14" y="-502.5" font-family="Helvetica,sans-Serif" font-size="10.00">Token()</text>
<text text-anchor="start" x="4" y="-486.5" font-family="Helvetica,sans-Serif" font-size="10.00">+</text>
<text text-anchor="start" x="14" y="-486.5" font-family="Helvetica,sans-Serif" font-size="10.00">std::shared_ptr&lt; TokenResult</text>
<text text-anchor="start" x="14" y="-474.5" font-family="Helvetica,sans-Serif" font-size="10.00"> &gt; updateRes(std::shared</text>
<text text-anchor="start" x="14" y="-462.5" font-family="Helvetica,sans-Serif" font-size="10.00">_ptr&lt; TokenResult &gt; tRes)</text>
<text text-anchor="start" x="4" y="-446.5" font-family="Helvetica,sans-Serif" font-size="10.00">+</text>
<text text-anchor="start" x="14" y="-446.5" font-family="Helvetica,sans-Serif" font-size="10.00">std::shared_ptr&lt; TokenResult</text>
<text text-anchor="start" x="14" y="-434.5" font-family="Helvetica,sans-Serif" font-size="10.00"> &gt; addError(TokenVALUE value,</text>
<text text-anchor="start" x="14" y="-422.5" font-family="Helvetica,sans-Serif" font-size="10.00"> ErrorType et=ErrorType::MISSING)</text>
<text text-anchor="start" x="4" y="-406.5" font-family="Helvetica,sans-Serif" font-size="10.00">+</text>
<text text-anchor="start" x="14" y="-406.5" font-family="Helvetica,sans-Serif" font-size="10.00">std::shared_ptr&lt; TokenResult</text>
<text text-anchor="start" x="14" y="-394.5" font-family="Helvetica,sans-Serif" font-size="10.00"> &gt; addError(const std::shared</text>
<text text-anchor="start" x="14" y="-382.5" font-family="Helvetica,sans-Serif" font-size="10.00">_ptr&lt; TokenResult &gt; &amp;tr)</text>
<text text-anchor="start" x="4" y="-366.5" font-family="Helvetica,sans-Serif" font-size="10.00">+</text>
<text text-anchor="start" x="14" y="-366.5" font-family="Helvetica,sans-Serif" font-size="10.00">std::shared_ptr&lt; TokenResult</text>
<text text-anchor="start" x="14" y="-354.5" font-family="Helvetica,sans-Serif" font-size="10.00"> &gt; addError(DataType type,</text>
<text text-anchor="start" x="14" y="-342.5" font-family="Helvetica,sans-Serif" font-size="10.00"> ErrorType et=ErrorType::REPLACED)</text>
<text text-anchor="start" x="4" y="-326.5" font-family="Helvetica,sans-Serif" font-size="10.00">+</text>
<text text-anchor="start" x="14" y="-326.5" font-family="Helvetica,sans-Serif" font-size="10.00">virtual DataType getData</text>
<text text-anchor="start" x="14" y="-314.5" font-family="Helvetica,sans-Serif" font-size="10.00">Type()</text>
<text text-anchor="start" x="4" y="-298.5" font-family="Helvetica,sans-Serif" font-size="10.00">+</text>
<text text-anchor="start" x="14" y="-298.5" font-family="Helvetica,sans-Serif" font-size="10.00">virtual std::shared</text>
<text text-anchor="start" x="14" y="-286.5" font-family="Helvetica,sans-Serif" font-size="10.00">_ptr&lt; TokenResult &gt;</text>
<text text-anchor="start" x="14" y="-274.5" font-family="Helvetica,sans-Serif" font-size="10.00"> addTokens(IteratorList</text>
<text text-anchor="start" x="14" y="-262.5" font-family="Helvetica,sans-Serif" font-size="10.00">&lt; Token &gt; &amp;tl, std::shared</text>
<text text-anchor="start" x="14" y="-250.5" font-family="Helvetica,sans-Serif" font-size="10.00">_ptr&lt; TokenResult &gt; tRes)</text>
<text text-anchor="start" x="4" y="-234.5" font-family="Helvetica,sans-Serif" font-size="10.00">+</text>
<text text-anchor="start" x="14" y="-234.5" font-family="Helvetica,sans-Serif" font-size="10.00">virtual std::shared</text>
<text text-anchor="start" x="14" y="-222.5" font-family="Helvetica,sans-Serif" font-size="10.00">_ptr&lt; Tag &gt; execute()</text>
<polygon fill="#666666" stroke="#666666" points="0,-590 0,-590 186,-590 186,-590 0,-590"/>
<polygon fill="#666666" stroke="#666666" points="0,-514 0,-514 12,-514 12,-514 0,-514"/>
<polygon fill="#666666" stroke="#666666" points="12,-514 12,-514 186,-514 186,-514 12,-514"/>
<polygon fill="none" stroke="#666666" points="0,-216 0,-608 186,-608 186,-216 0,-216"/>
</a>
</g>
</g>
<!-- Node3&#45;&gt;Node2 -->
<g id="edge2_Node000002_Node000003" class="edge">
<title>Node3&#45;&gt;Node2</title>
<g id="a_edge2_Node000002_Node000003"><a xlink:title=" ">
<path fill="none" stroke="#63b8ff" d="M93,-204.91C93,-195.53 93,-187.06 93,-179.87"/>
<polygon fill="none" stroke="#63b8ff" points="89.5,-204.8 93,-214.8 96.5,-204.8 89.5,-204.8"/>
</a>
</g>
</g>
</g>
</svg>
