<?xml version="1.0" encoding="UTF-8" standalone="no"?>
<!DOCTYPE svg PUBLIC "-//W3C//DTD SVG 1.1//EN"
 "http://www.w3.org/Graphics/SVG/1.1/DTD/svg11.dtd">
<!-- Generated by graphviz version 12.2.0 (20241103.1931)
 -->
<!-- Title: ZoneTag Pages: 1 -->
<svg width="280pt" height="988pt"
 viewBox="0.00 0.00 279.62 988.00" xmlns="http://www.w3.org/2000/svg" xmlns:xlink="http://www.w3.org/1999/xlink">
<g id="graph0" class="graph" transform="scale(1 1) rotate(0) translate(4 984)">
<title>ZoneTag</title>
<!-- Node1 -->
<g id="Node000001" class="node">
<title>Node1</title>
<g id="a_Node000001"><a xlink:title=" ">
<polygon fill="#999999" stroke="none" points="142.38,-176 12.62,-176 12.62,0 142.38,0 142.38,-176"/>
<text text-anchor="start" x="58.75" y="-162.5" font-family="Helvetica,sans-Serif" font-size="10.00">ZoneTag</text>
<text text-anchor="start" x="16.62" y="-146.5" font-family="Helvetica,sans-Serif" font-size="10.00">+</text>
<text text-anchor="start" x="26.62" y="-146.5" font-family="Helvetica,sans-Serif" font-size="10.00">std::shared_ptr&lt; Tag</text>
<text text-anchor="start" x="26.62" y="-134.5" font-family="Helvetica,sans-Serif" font-size="10.00"> &gt; zoneTag</text>
<text text-anchor="start" x="16.62" y="-118.5" font-family="Helvetica,sans-Serif" font-size="10.00">+</text>
<text text-anchor="start" x="26.62" y="-118.5" font-family="Helvetica,sans-Serif" font-size="10.00">ZoneTag()</text>
<text text-anchor="start" x="16.62" y="-102.5" font-family="Helvetica,sans-Serif" font-size="10.00">+</text>
<text text-anchor="start" x="26.62" y="-102.5" font-family="Helvetica,sans-Serif" font-size="10.00">ZoneTag(const ZoneTag</text>
<text text-anchor="start" x="26.62" y="-90.5" font-family="Helvetica,sans-Serif" font-size="10.00"> &amp;toCopy)</text>
<text text-anchor="start" x="16.62" y="-74.5" font-family="Helvetica,sans-Serif" font-size="10.00">+</text>
<text text-anchor="start" x="26.62" y="-74.5" font-family="Helvetica,sans-Serif" font-size="10.00">ZoneTag(const std</text>
<text text-anchor="start" x="26.62" y="-62.5" font-family="Helvetica,sans-Serif" font-size="10.00">::shared_ptr&lt; Tag &gt;</text>
<text text-anchor="start" x="26.62" y="-50.5" font-family="Helvetica,sans-Serif" font-size="10.00"> &amp;parameters)</text>
<text text-anchor="start" x="16.62" y="-34.5" font-family="Helvetica,sans-Serif" font-size="10.00">+</text>
<text text-anchor="start" x="26.62" y="-34.5" font-family="Helvetica,sans-Serif" font-size="10.00">std::shared_ptr&lt; ZoneTag</text>
<text text-anchor="start" x="26.62" y="-22.5" font-family="Helvetica,sans-Serif" font-size="10.00"> &gt; clone()</text>
<text text-anchor="start" x="16.62" y="-6.5" font-family="Helvetica,sans-Serif" font-size="10.00">+</text>
<text text-anchor="start" x="26.62" y="-6.5" font-family="Helvetica,sans-Serif" font-size="10.00">void execute() override</text>
<polygon fill="#666666" stroke="#666666" points="12.62,-158 12.62,-158 142.38,-158 142.38,-158 12.62,-158"/>
<polygon fill="#666666" stroke="#666666" points="12.62,-130 12.62,-130 24.62,-130 24.62,-130 12.62,-130"/>
<polygon fill="#666666" stroke="#666666" points="24.62,-130 24.62,-130 142.38,-130 142.38,-130 24.62,-130"/>
<polygon fill="none" stroke="#666666" points="12.62,0 12.62,-176 142.38,-176 142.38,0 12.62,0"/>
</a>
</g>
</g>
<!-- Node2 -->
<g id="Node000002" class="node">
<title>Node2</title>
<g id="a_Node000002"><a xlink:href="class_tag.html" target="_top" xlink:title=" ">
<polygon fill="white" stroke="none" points="123,-478 0,-478 0,-318 123,-318 123,-478"/>
<text text-anchor="start" x="53.62" y="-464.5" font-family="Helvetica,sans-Serif" font-size="10.00">Tag</text>
<text text-anchor="start" x="4" y="-448.5" font-family="Helvetica,sans-Serif" font-size="10.00">+</text>
<text text-anchor="start" x="14" y="-448.5" font-family="Helvetica,sans-Serif" font-size="10.00">std::string tagText</text>
<text text-anchor="start" x="4" y="-432.5" font-family="Helvetica,sans-Serif" font-size="10.00">+</text>
<text text-anchor="start" x="14" y="-432.5" font-family="Helvetica,sans-Serif" font-size="10.00">int nbParents</text>
<text text-anchor="start" x="4" y="-416.5" font-family="Helvetica,sans-Serif" font-size="10.00">+</text>
<text text-anchor="start" x="14" y="-416.5" font-family="Helvetica,sans-Serif" font-size="10.00">bool doExecute</text>
<text text-anchor="start" x="4" y="-400.5" font-family="Helvetica,sans-Serif" font-size="10.00">+</text>
<text text-anchor="start" x="14" y="-400.5" font-family="Helvetica,sans-Serif" font-size="10.00">TagType myType</text>
<text text-anchor="start" x="4" y="-384.5" font-family="Helvetica,sans-Serif" font-size="10.00">+</text>
<text text-anchor="start" x="14" y="-384.5" font-family="Helvetica,sans-Serif" font-size="10.00">Tag()</text>
<text text-anchor="start" x="4" y="-368.5" font-family="Helvetica,sans-Serif" font-size="10.00">+</text>
<text text-anchor="start" x="14" y="-368.5" font-family="Helvetica,sans-Serif" font-size="10.00">Tag(const Tag &amp;toCopy)</text>
<text text-anchor="start" x="4" y="-352.5" font-family="Helvetica,sans-Serif" font-size="10.00">+</text>
<text text-anchor="start" x="14" y="-352.5" font-family="Helvetica,sans-Serif" font-size="10.00">std::shared_ptr&lt; Tag</text>
<text text-anchor="start" x="14" y="-340.5" font-family="Helvetica,sans-Serif" font-size="10.00"> &gt; clone()</text>
<text text-anchor="start" x="4" y="-324.5" font-family="Helvetica,sans-Serif" font-size="10.00">+</text>
<text text-anchor="start" x="14" y="-324.5" font-family="Helvetica,sans-Serif" font-size="10.00">virtual void execute()</text>
<polygon fill="#666666" stroke="#666666" points="0,-460 0,-460 123,-460 123,-460 0,-460"/>
<polygon fill="#666666" stroke="#666666" points="0,-396 0,-396 12,-396 12,-396 0,-396"/>
<polygon fill="#666666" stroke="#666666" points="12,-396 12,-396 123,-396 123,-396 12,-396"/>
<polygon fill="none" stroke="#666666" points="0,-318 0,-478 123,-478 123,-318 0,-318"/>
</a>
</g>
</g>
<!-- Node2&#45;&gt;Node1 -->
<g id="edge1_Node000001_Node000002" class="edge">
<title>Node2&#45;&gt;Node1</title>
<g id="a_edge1_Node000001_Node000002"><a xlink:title=" ">
<path fill="none" stroke="#63b8ff" d="M66.19,-306.65C68.34,-265.37 70.87,-216.69 72.99,-175.84"/>
<polygon fill="none" stroke="#63b8ff" points="62.7,-306.4 65.68,-316.57 69.69,-306.77 62.7,-306.4"/>
</a>
</g>
</g>
<!-- Node3 -->
<g id="Node000003" class="node">
<title>Node3</title>
<g id="a_Node000003"><a xlink:href="struct_zone.html" target="_top" xlink:title=" ">
<polygon fill="white" stroke="none" points="261.88,-572 141.12,-572 141.12,-224 261.88,-224 261.88,-572"/>
<text text-anchor="start" x="190.62" y="-558.5" font-family="Helvetica,sans-Serif" font-size="10.00">Zone</text>
<text text-anchor="start" x="145.12" y="-542.5" font-family="Helvetica,sans-Serif" font-size="10.00">+</text>
<text text-anchor="start" x="155.12" y="-542.5" font-family="Helvetica,sans-Serif" font-size="10.00">int width</text>
<text text-anchor="start" x="145.12" y="-526.5" font-family="Helvetica,sans-Serif" font-size="10.00">+</text>
<text text-anchor="start" x="155.12" y="-526.5" font-family="Helvetica,sans-Serif" font-size="10.00">int height</text>
<text text-anchor="start" x="145.12" y="-510.5" font-family="Helvetica,sans-Serif" font-size="10.00">+</text>
<text text-anchor="start" x="155.12" y="-510.5" font-family="Helvetica,sans-Serif" font-size="10.00">int right</text>
<text text-anchor="start" x="145.12" y="-494.5" font-family="Helvetica,sans-Serif" font-size="10.00">+</text>
<text text-anchor="start" x="155.12" y="-494.5" font-family="Helvetica,sans-Serif" font-size="10.00">int left</text>
<text text-anchor="start" x="145.12" y="-478.5" font-family="Helvetica,sans-Serif" font-size="10.00">+</text>
<text text-anchor="start" x="155.12" y="-478.5" font-family="Helvetica,sans-Serif" font-size="10.00">int top</text>
<text text-anchor="start" x="145.12" y="-462.5" font-family="Helvetica,sans-Serif" font-size="10.00">+</text>
<text text-anchor="start" x="155.12" y="-462.5" font-family="Helvetica,sans-Serif" font-size="10.00">int bottom</text>
<text text-anchor="start" x="145.12" y="-446.5" font-family="Helvetica,sans-Serif" font-size="10.00">+</text>
<text text-anchor="start" x="155.12" y="-446.5" font-family="Helvetica,sans-Serif" font-size="10.00">Zone()</text>
<text text-anchor="start" x="145.12" y="-430.5" font-family="Helvetica,sans-Serif" font-size="10.00">+</text>
<text text-anchor="start" x="155.12" y="-430.5" font-family="Helvetica,sans-Serif" font-size="10.00">Zone(const Coord &amp;c1,</text>
<text text-anchor="start" x="155.12" y="-418.5" font-family="Helvetica,sans-Serif" font-size="10.00"> const Coord &amp;c2)</text>
<text text-anchor="start" x="145.12" y="-402.5" font-family="Helvetica,sans-Serif" font-size="10.00">+</text>
<text text-anchor="start" x="155.12" y="-402.5" font-family="Helvetica,sans-Serif" font-size="10.00">Zone(const Zone &amp;Z)</text>
<text text-anchor="start" x="145.12" y="-386.5" font-family="Helvetica,sans-Serif" font-size="10.00">+</text>
<text text-anchor="start" x="155.12" y="-386.5" font-family="Helvetica,sans-Serif" font-size="10.00">void showZone()</text>
<text text-anchor="start" x="145.12" y="-370.5" font-family="Helvetica,sans-Serif" font-size="10.00">+</text>
<text text-anchor="start" x="155.12" y="-370.5" font-family="Helvetica,sans-Serif" font-size="10.00">bool operator==(const</text>
<text text-anchor="start" x="155.12" y="-358.5" font-family="Helvetica,sans-Serif" font-size="10.00"> Zone &amp;other) const</text>
<text text-anchor="start" x="145.12" y="-342.5" font-family="Helvetica,sans-Serif" font-size="10.00">+</text>
<text text-anchor="start" x="155.12" y="-342.5" font-family="Helvetica,sans-Serif" font-size="10.00">bool operator!=(const</text>
<text text-anchor="start" x="155.12" y="-330.5" font-family="Helvetica,sans-Serif" font-size="10.00"> Zone &amp;other) const</text>
<text text-anchor="start" x="145.12" y="-314.5" font-family="Helvetica,sans-Serif" font-size="10.00">+</text>
<text text-anchor="start" x="155.12" y="-314.5" font-family="Helvetica,sans-Serif" font-size="10.00">Zone &amp; operator=(const</text>
<text text-anchor="start" x="155.12" y="-302.5" font-family="Helvetica,sans-Serif" font-size="10.00"> Zone &amp;other)</text>
<text text-anchor="start" x="145.12" y="-286.5" font-family="Helvetica,sans-Serif" font-size="10.00">+</text>
<text text-anchor="start" x="155.12" y="-286.5" font-family="Helvetica,sans-Serif" font-size="10.00">Zone operator+(const</text>
<text text-anchor="start" x="155.12" y="-274.5" font-family="Helvetica,sans-Serif" font-size="10.00"> Zone &amp;other) const</text>
<text text-anchor="start" x="145.12" y="-258.5" font-family="Helvetica,sans-Serif" font-size="10.00">+</text>
<text text-anchor="start" x="155.12" y="-258.5" font-family="Helvetica,sans-Serif" font-size="10.00">Zone operator&#45;(const</text>
<text text-anchor="start" x="155.12" y="-246.5" font-family="Helvetica,sans-Serif" font-size="10.00"> Zone &amp;other) const</text>
<text text-anchor="start" x="145.12" y="-230.5" font-family="Helvetica,sans-Serif" font-size="10.00">+</text>
<text text-anchor="start" x="155.12" y="-230.5" font-family="Helvetica,sans-Serif" font-size="10.00">bool isNull()</text>
<polygon fill="#666666" stroke="#666666" points="141.12,-554 141.12,-554 261.88,-554 261.88,-554 141.12,-554"/>
<polygon fill="#666666" stroke="#666666" points="141.12,-458 141.12,-458 153.12,-458 153.12,-458 141.12,-458"/>
<polygon fill="#666666" stroke="#666666" points="153.12,-458 153.12,-458 261.88,-458 261.88,-458 153.12,-458"/>
<polygon fill="none" stroke="#666666" points="141.12,-224 141.12,-572 261.88,-572 261.88,-224 141.12,-224"/>
</a>
</g>
</g>
<!-- Node3&#45;&gt;Node1 -->
<g id="edge2_Node000001_Node000003" class="edge">
<title>Node3&#45;&gt;Node1</title>
<g id="a_edge2_Node000001_Node000003"><a xlink:title=" ">
<path fill="none" stroke="#63b8ff" d="M141.17,-245.55C138.24,-238.26 135.34,-231.05 132.5,-224 127.73,-212.17 122.71,-199.77 117.72,-187.47"/>
<polygon fill="none" stroke="#63b8ff" points="117.81,-187.7 111.84,-183.64 113.29,-176.58 119.25,-180.63 117.81,-187.7"/>
</a>
</g>
<text text-anchor="middle" x="147.2" y="-196.5" font-family="Helvetica,sans-Serif" font-size="10.00" fill="grey"> +myZone</text>
</g>
<!-- Node4 -->
<g id="Node000004" class="node">
<title>Node4</title>
<g id="a_Node000004"><a xlink:href="struct_coord.html" target="_top" xlink:title=" ">
<polygon fill="white" stroke="none" points="271.62,-980 131.38,-980 131.38,-632 271.62,-632 271.62,-980"/>
<text text-anchor="start" x="188.38" y="-966.5" font-family="Helvetica,sans-Serif" font-size="10.00">Coord</text>
<text text-anchor="start" x="135.38" y="-950.5" font-family="Helvetica,sans-Serif" font-size="10.00">+</text>
<text text-anchor="start" x="145.38" y="-950.5" font-family="Helvetica,sans-Serif" font-size="10.00">int x</text>
<text text-anchor="start" x="135.38" y="-934.5" font-family="Helvetica,sans-Serif" font-size="10.00">+</text>
<text text-anchor="start" x="145.38" y="-934.5" font-family="Helvetica,sans-Serif" font-size="10.00">int y</text>
<text text-anchor="start" x="135.38" y="-918.5" font-family="Helvetica,sans-Serif" font-size="10.00">+</text>
<text text-anchor="start" x="145.38" y="-918.5" font-family="Helvetica,sans-Serif" font-size="10.00">Coord()</text>
<text text-anchor="start" x="135.38" y="-902.5" font-family="Helvetica,sans-Serif" font-size="10.00">+</text>
<text text-anchor="start" x="145.38" y="-902.5" font-family="Helvetica,sans-Serif" font-size="10.00">Coord(const Coord &amp;Co)</text>
<text text-anchor="start" x="135.38" y="-886.5" font-family="Helvetica,sans-Serif" font-size="10.00">+</text>
<text text-anchor="start" x="145.38" y="-886.5" font-family="Helvetica,sans-Serif" font-size="10.00">Coord(int x1, int y1)</text>
<text text-anchor="start" x="135.38" y="-870.5" font-family="Helvetica,sans-Serif" font-size="10.00">+</text>
<text text-anchor="start" x="145.38" y="-870.5" font-family="Helvetica,sans-Serif" font-size="10.00">Coord(double x1, double y1)</text>
<text text-anchor="start" x="135.38" y="-854.5" font-family="Helvetica,sans-Serif" font-size="10.00">+</text>
<text text-anchor="start" x="145.38" y="-854.5" font-family="Helvetica,sans-Serif" font-size="10.00">Coord(int x1, double y1)</text>
<text text-anchor="start" x="135.38" y="-838.5" font-family="Helvetica,sans-Serif" font-size="10.00">+</text>
<text text-anchor="start" x="145.38" y="-838.5" font-family="Helvetica,sans-Serif" font-size="10.00">Coord(double x1, int y1)</text>
<text text-anchor="start" x="135.38" y="-822.5" font-family="Helvetica,sans-Serif" font-size="10.00">+</text>
<text text-anchor="start" x="145.38" y="-822.5" font-family="Helvetica,sans-Serif" font-size="10.00">void showCoords()</text>
<text text-anchor="start" x="135.38" y="-806.5" font-family="Helvetica,sans-Serif" font-size="10.00">+</text>
<text text-anchor="start" x="145.38" y="-806.5" font-family="Helvetica,sans-Serif" font-size="10.00">bool isNull()</text>
<text text-anchor="start" x="135.38" y="-790.5" font-family="Helvetica,sans-Serif" font-size="10.00">+</text>
<text text-anchor="start" x="145.38" y="-790.5" font-family="Helvetica,sans-Serif" font-size="10.00">bool operator==(const</text>
<text text-anchor="start" x="145.38" y="-778.5" font-family="Helvetica,sans-Serif" font-size="10.00"> Coord &amp;other) const</text>
<text text-anchor="start" x="135.38" y="-762.5" font-family="Helvetica,sans-Serif" font-size="10.00">+</text>
<text text-anchor="start" x="145.38" y="-762.5" font-family="Helvetica,sans-Serif" font-size="10.00">bool operator!=(const</text>
<text text-anchor="start" x="145.38" y="-750.5" font-family="Helvetica,sans-Serif" font-size="10.00"> Coord &amp;other) const</text>
<text text-anchor="start" x="135.38" y="-734.5" font-family="Helvetica,sans-Serif" font-size="10.00">+</text>
<text text-anchor="start" x="145.38" y="-734.5" font-family="Helvetica,sans-Serif" font-size="10.00">Coord &amp; operator=(const</text>
<text text-anchor="start" x="145.38" y="-722.5" font-family="Helvetica,sans-Serif" font-size="10.00"> Coord &amp;other)</text>
<text text-anchor="start" x="135.38" y="-706.5" font-family="Helvetica,sans-Serif" font-size="10.00">+</text>
<text text-anchor="start" x="145.38" y="-706.5" font-family="Helvetica,sans-Serif" font-size="10.00">Coord operator+(const</text>
<text text-anchor="start" x="145.38" y="-694.5" font-family="Helvetica,sans-Serif" font-size="10.00"> Coord &amp;other) const</text>
<text text-anchor="start" x="135.38" y="-678.5" font-family="Helvetica,sans-Serif" font-size="10.00">+</text>
<text text-anchor="start" x="145.38" y="-678.5" font-family="Helvetica,sans-Serif" font-size="10.00">Coord operator&#45;(const</text>
<text text-anchor="start" x="145.38" y="-666.5" font-family="Helvetica,sans-Serif" font-size="10.00"> Coord &amp;other) const</text>
<text text-anchor="start" x="135.38" y="-650.5" font-family="Helvetica,sans-Serif" font-size="10.00">+</text>
<text text-anchor="start" x="145.38" y="-650.5" font-family="Helvetica,sans-Serif" font-size="10.00">Coord operator*(const</text>
<text text-anchor="start" x="145.38" y="-638.5" font-family="Helvetica,sans-Serif" font-size="10.00"> Coord &amp;other) const</text>
<polygon fill="#666666" stroke="#666666" points="131.38,-962 131.38,-962 271.62,-962 271.62,-962 131.38,-962"/>
<polygon fill="#666666" stroke="#666666" points="131.38,-930 131.38,-930 143.38,-930 143.38,-930 131.38,-930"/>
<polygon fill="#666666" stroke="#666666" points="143.38,-930 143.38,-930 271.62,-930 271.62,-930 143.38,-930"/>
<polygon fill="none" stroke="#666666" points="131.38,-632 131.38,-980 271.62,-980 271.62,-632 131.38,-632"/>
</a>
</g>
</g>
<!-- Node4&#45;&gt;Node3 -->
<g id="edge3_Node000003_Node000004" class="edge">
<title>Node4&#45;&gt;Node3</title>
<g id="a_edge3_Node000003_Node000004"><a xlink:title=" ">
<path fill="none" stroke="#63b8ff" d="M201.5,-632.23C201.5,-616.48 201.5,-600.48 201.5,-584.62"/>
<polygon fill="none" stroke="#63b8ff" points="201.5,-584.84 197.5,-578.84 201.5,-572.84 205.5,-578.84 201.5,-584.84"/>
</a>
</g>
<text text-anchor="middle" x="212.38" y="-604.5" font-family="Helvetica,sans-Serif" font-size="10.00" fill="grey"> +C1</text>
<text text-anchor="middle" x="212.38" y="-592.5" font-family="Helvetica,sans-Serif" font-size="10.00" fill="grey">+C2</text>
</g>
</g>
</svg>
