<?xml version="1.0" encoding="UTF-8" standalone="no"?>
<!DOCTYPE svg PUBLIC "-//W3C//DTD SVG 1.1//EN"
 "http://www.w3.org/Graphics/SVG/1.1/DTD/svg11.dtd">
<!-- Generated by graphviz version 12.2.0 (20241103.1931)
 -->
<!-- Title: Activities Pages: 1 -->
<svg width="289pt" height="1822pt"
 viewBox="0.00 0.00 289.00 1822.00" xmlns="http://www.w3.org/2000/svg" xmlns:xlink="http://www.w3.org/1999/xlink">
<g id="graph0" class="graph" transform="scale(1 1) rotate(0) translate(4 1818)">
<title>Activities</title>
<!-- Node1 -->
<g id="Node000001" class="node">
<title>Node1</title>
<g id="a_Node000001"><a xlink:title=" ">
<polygon fill="#999999" stroke="none" points="154.88,-92 42.38,-92 42.38,0 154.88,0 154.88,-92"/>
<text text-anchor="start" x="78.38" y="-78.5" font-family="Helvetica,sans-Serif" font-size="10.00">Activities</text>
<text text-anchor="start" x="46.38" y="-62.5" font-family="Helvetica,sans-Serif" font-size="10.00">+</text>
<text text-anchor="start" x="56.38" y="-62.5" font-family="Helvetica,sans-Serif" font-size="10.00">std::vector&lt; Activity</text>
<text text-anchor="start" x="56.38" y="-50.5" font-family="Helvetica,sans-Serif" font-size="10.00"> * &gt; allActivities</text>
<text text-anchor="start" x="46.38" y="-34.5" font-family="Helvetica,sans-Serif" font-size="10.00">+</text>
<text text-anchor="start" x="56.38" y="-34.5" font-family="Helvetica,sans-Serif" font-size="10.00">std::vector&lt; ShortCut</text>
<text text-anchor="start" x="56.38" y="-22.5" font-family="Helvetica,sans-Serif" font-size="10.00"> &gt; allShortCuts</text>
<text text-anchor="start" x="97.12" y="-6.5" font-family="Helvetica,sans-Serif" font-size="10.00"> </text>
<polygon fill="#666666" stroke="#666666" points="42.38,-74 42.38,-74 154.88,-74 154.88,-74 42.38,-74"/>
<polygon fill="#666666" stroke="#666666" points="42.38,-18 42.38,-18 54.38,-18 54.38,-18 42.38,-18"/>
<polygon fill="#666666" stroke="#666666" points="54.38,-18 54.38,-18 154.88,-18 154.88,-18 54.38,-18"/>
<polygon fill="none" stroke="#666666" points="42.38,0 42.38,-92 154.88,-92 154.88,0 42.38,0"/>
</a>
</g>
</g>
<!-- Node2 -->
<g id="Node000002" class="node">
<title>Node2</title>
<g id="a_Node000002"><a xlink:href="class_activity.html" target="_top" xlink:title=" ">
<polygon fill="white" stroke="none" points="247.5,-329 129.75,-329 129.75,-129 247.5,-129 247.5,-329"/>
<text text-anchor="start" x="172.12" y="-315.5" font-family="Helvetica,sans-Serif" font-size="10.00">Activity</text>
<text text-anchor="start" x="133.75" y="-299.5" font-family="Helvetica,sans-Serif" font-size="10.00">+</text>
<text text-anchor="start" x="143.75" y="-299.5" font-family="Helvetica,sans-Serif" font-size="10.00">bool activate</text>
<text text-anchor="start" x="133.75" y="-283.5" font-family="Helvetica,sans-Serif" font-size="10.00">+</text>
<text text-anchor="start" x="143.75" y="-283.5" font-family="Helvetica,sans-Serif" font-size="10.00">bool automatic</text>
<text text-anchor="start" x="133.75" y="-267.5" font-family="Helvetica,sans-Serif" font-size="10.00">+</text>
<text text-anchor="start" x="143.75" y="-267.5" font-family="Helvetica,sans-Serif" font-size="10.00">std::string name</text>
<text text-anchor="start" x="133.75" y="-251.5" font-family="Helvetica,sans-Serif" font-size="10.00">+</text>
<text text-anchor="start" x="143.75" y="-251.5" font-family="Helvetica,sans-Serif" font-size="10.00">char key</text>
<text text-anchor="start" x="133.75" y="-235.5" font-family="Helvetica,sans-Serif" font-size="10.00">+</text>
<text text-anchor="start" x="143.75" y="-235.5" font-family="Helvetica,sans-Serif" font-size="10.00">virtual bool doActivity()</text>
<text text-anchor="start" x="133.75" y="-219.5" font-family="Helvetica,sans-Serif" font-size="10.00">+</text>
<text text-anchor="start" x="143.75" y="-219.5" font-family="Helvetica,sans-Serif" font-size="10.00">Activity()</text>
<text text-anchor="start" x="133.75" y="-203.5" font-family="Helvetica,sans-Serif" font-size="10.00">+</text>
<text text-anchor="start" x="143.75" y="-203.5" font-family="Helvetica,sans-Serif" font-size="10.00">Activity(bool act,</text>
<text text-anchor="start" x="143.75" y="-191.5" font-family="Helvetica,sans-Serif" font-size="10.00"> std::string n, char k)</text>
<text text-anchor="start" x="133.75" y="-175.5" font-family="Helvetica,sans-Serif" font-size="10.00">+</text>
<text text-anchor="start" x="143.75" y="-175.5" font-family="Helvetica,sans-Serif" font-size="10.00">Activity(const Activity</text>
<text text-anchor="start" x="143.75" y="-163.5" font-family="Helvetica,sans-Serif" font-size="10.00"> &amp;copy)</text>
<text text-anchor="start" x="133.75" y="-147.5" font-family="Helvetica,sans-Serif" font-size="10.00">+</text>
<text text-anchor="start" x="143.75" y="-147.5" font-family="Helvetica,sans-Serif" font-size="10.00">void showActivity()</text>
<text text-anchor="start" x="143.75" y="-135.5" font-family="Helvetica,sans-Serif" font-size="10.00"> const</text>
<polygon fill="#666666" stroke="#666666" points="129.75,-311 129.75,-311 247.5,-311 247.5,-311 129.75,-311"/>
<polygon fill="#666666" stroke="#666666" points="129.75,-247 129.75,-247 141.75,-247 141.75,-247 129.75,-247"/>
<polygon fill="#666666" stroke="#666666" points="141.75,-247 141.75,-247 247.5,-247 247.5,-247 141.75,-247"/>
<polygon fill="none" stroke="#666666" points="129.75,-129 129.75,-329 247.5,-329 247.5,-129 129.75,-129"/>
</a>
</g>
</g>
<!-- Node2&#45;&gt;Node1 -->
<g id="edge1_Node000001_Node000002" class="edge">
<title>Node2&#45;&gt;Node1</title>
<g id="a_edge1_Node000001_Node000002"><a xlink:title=" ">
<path fill="none" stroke="#63b8ff" d="M134.43,-119.01C129.69,-109.47 125.09,-100.23 120.86,-91.71"/>
<polygon fill="none" stroke="#63b8ff" points="131.15,-120.28 138.74,-127.67 137.42,-117.16 131.15,-120.28"/>
</a>
</g>
</g>
<!-- Node3 -->
<g id="Node000003" class="node">
<title>Node3</title>
<g id="a_Node000003"><a xlink:href="class_interactions.html" target="_top" xlink:title=" ">
<polygon fill="white" stroke="none" points="197.25,-1110 0,-1110 0,-366 197.25,-366 197.25,-1110"/>
<text text-anchor="start" x="73.12" y="-1096.5" font-family="Helvetica,sans-Serif" font-size="10.00">Interactions</text>
<text text-anchor="start" x="4" y="-1080.5" font-family="Helvetica,sans-Serif" font-size="10.00">+</text>
<text text-anchor="start" x="14" y="-1080.5" font-family="Helvetica,sans-Serif" font-size="10.00">std::vector&lt; Coord</text>
<text text-anchor="start" x="14" y="-1068.5" font-family="Helvetica,sans-Serif" font-size="10.00"> &gt; resMultCoords</text>
<text text-anchor="start" x="4" y="-1052.5" font-family="Helvetica,sans-Serif" font-size="10.00">+</text>
<text text-anchor="start" x="14" y="-1052.5" font-family="Helvetica,sans-Serif" font-size="10.00">std::string adbId</text>
<text text-anchor="start" x="4" y="-1036.5" font-family="Helvetica,sans-Serif" font-size="10.00">+</text>
<text text-anchor="start" x="14" y="-1036.5" font-family="Helvetica,sans-Serif" font-size="10.00">std::vector&lt; Popup</text>
<text text-anchor="start" x="14" y="-1024.5" font-family="Helvetica,sans-Serif" font-size="10.00"> &gt; listPopup</text>
<text text-anchor="start" x="4" y="-1008.5" font-family="Helvetica,sans-Serif" font-size="10.00">+</text>
<text text-anchor="start" x="14" y="-1008.5" font-family="Helvetica,sans-Serif" font-size="10.00">std::map&lt; std::string,</text>
<text text-anchor="start" x="14" y="-996.5" font-family="Helvetica,sans-Serif" font-size="10.00"> Template &gt; allTemplates</text>
<text text-anchor="start" x="4" y="-980.5" font-family="Helvetica,sans-Serif" font-size="10.00">+</text>
<text text-anchor="start" x="14" y="-980.5" font-family="Helvetica,sans-Serif" font-size="10.00">int rebootCount</text>
<text text-anchor="start" x="4" y="-964.5" font-family="Helvetica,sans-Serif" font-size="10.00">+</text>
<text text-anchor="start" x="14" y="-964.5" font-family="Helvetica,sans-Serif" font-size="10.00">int dimX</text>
<text text-anchor="start" x="4" y="-948.5" font-family="Helvetica,sans-Serif" font-size="10.00">+</text>
<text text-anchor="start" x="14" y="-948.5" font-family="Helvetica,sans-Serif" font-size="10.00">int dimY</text>
<text text-anchor="start" x="4" y="-932.5" font-family="Helvetica,sans-Serif" font-size="10.00">+</text>
<text text-anchor="start" x="14" y="-932.5" font-family="Helvetica,sans-Serif" font-size="10.00">static const int waitnotfound</text>
<text text-anchor="start" x="4" y="-916.5" font-family="Helvetica,sans-Serif" font-size="10.00">+</text>
<text text-anchor="start" x="14" y="-916.5" font-family="Helvetica,sans-Serif" font-size="10.00">static const int waitfound</text>
<text text-anchor="start" x="4" y="-900.5" font-family="Helvetica,sans-Serif" font-size="10.00">+</text>
<text text-anchor="start" x="14" y="-900.5" font-family="Helvetica,sans-Serif" font-size="10.00">static const int DEFAULTDELAY</text>
<text text-anchor="start" x="4" y="-884.5" font-family="Helvetica,sans-Serif" font-size="10.00">+</text>
<text text-anchor="start" x="14" y="-884.5" font-family="Helvetica,sans-Serif" font-size="10.00">static const int MAXREBOOT</text>
<text text-anchor="start" x="4" y="-868.5" font-family="Helvetica,sans-Serif" font-size="10.00">+</text>
<text text-anchor="start" x="14" y="-868.5" font-family="Helvetica,sans-Serif" font-size="10.00">Interactions()</text>
<text text-anchor="start" x="4" y="-852.5" font-family="Helvetica,sans-Serif" font-size="10.00">+</text>
<text text-anchor="start" x="14" y="-852.5" font-family="Helvetica,sans-Serif" font-size="10.00">bool fcA(const std</text>
<text text-anchor="start" x="14" y="-840.5" font-family="Helvetica,sans-Serif" font-size="10.00">::string &amp;Templ, Zone</text>
<text text-anchor="start" x="14" y="-828.5" font-family="Helvetica,sans-Serif" font-size="10.00"> Z=Zone(), unsigned int</text>
<text text-anchor="start" x="14" y="-816.5" font-family="Helvetica,sans-Serif" font-size="10.00"> delayMilliseconds=DEFAULTDELAY)</text>
<text text-anchor="start" x="4" y="-800.5" font-family="Helvetica,sans-Serif" font-size="10.00">+</text>
<text text-anchor="start" x="14" y="-800.5" font-family="Helvetica,sans-Serif" font-size="10.00">bool fA(const std::</text>
<text text-anchor="start" x="14" y="-788.5" font-family="Helvetica,sans-Serif" font-size="10.00">string &amp;Templ, Zone</text>
<text text-anchor="start" x="14" y="-776.5" font-family="Helvetica,sans-Serif" font-size="10.00"> Z=Zone(), unsigned int</text>
<text text-anchor="start" x="14" y="-764.5" font-family="Helvetica,sans-Serif" font-size="10.00"> delayMilliseconds=DEFAULTDELAY,</text>
<text text-anchor="start" x="14" y="-752.5" font-family="Helvetica,sans-Serif" font-size="10.00"> bool willInteract=false)</text>
<text text-anchor="start" x="4" y="-736.5" font-family="Helvetica,sans-Serif" font-size="10.00">+</text>
<text text-anchor="start" x="14" y="-736.5" font-family="Helvetica,sans-Serif" font-size="10.00">bool fcpopupA()</text>
<text text-anchor="start" x="4" y="-720.5" font-family="Helvetica,sans-Serif" font-size="10.00">+</text>
<text text-anchor="start" x="14" y="-720.5" font-family="Helvetica,sans-Serif" font-size="10.00">Template loopPopUp</text>
<text text-anchor="start" x="14" y="-708.5" font-family="Helvetica,sans-Serif" font-size="10.00">(typeMat color=Gray)</text>
<text text-anchor="start" x="4" y="-692.5" font-family="Helvetica,sans-Serif" font-size="10.00">+</text>
<text text-anchor="start" x="14" y="-692.5" font-family="Helvetica,sans-Serif" font-size="10.00">void fillPopup()</text>
<text text-anchor="start" x="4" y="-676.5" font-family="Helvetica,sans-Serif" font-size="10.00">+</text>
<text text-anchor="start" x="14" y="-676.5" font-family="Helvetica,sans-Serif" font-size="10.00">bool fcOneTemplateMultiple</text>
<text text-anchor="start" x="14" y="-664.5" font-family="Helvetica,sans-Serif" font-size="10.00">TemplateA(const std::string</text>
<text text-anchor="start" x="14" y="-652.5" font-family="Helvetica,sans-Serif" font-size="10.00"> &amp;Templ, Direction direction,</text>
<text text-anchor="start" x="14" y="-640.5" font-family="Helvetica,sans-Serif" font-size="10.00"> int order, Zone Z=Zone(), unsigned</text>
<text text-anchor="start" x="14" y="-628.5" font-family="Helvetica,sans-Serif" font-size="10.00"> int delayMilliseconds=DEFAULTDELAY)</text>
<text text-anchor="start" x="4" y="-612.5" font-family="Helvetica,sans-Serif" font-size="10.00">+</text>
<text text-anchor="start" x="14" y="-612.5" font-family="Helvetica,sans-Serif" font-size="10.00">bool fOneTemplateMultiple</text>
<text text-anchor="start" x="14" y="-600.5" font-family="Helvetica,sans-Serif" font-size="10.00">TemplateA(const std::string</text>
<text text-anchor="start" x="14" y="-588.5" font-family="Helvetica,sans-Serif" font-size="10.00"> &amp;Templ, Direction direction,</text>
<text text-anchor="start" x="14" y="-576.5" font-family="Helvetica,sans-Serif" font-size="10.00"> int order, Zone Z=Zone(), unsigned</text>
<text text-anchor="start" x="14" y="-564.5" font-family="Helvetica,sans-Serif" font-size="10.00"> int delayMilliseconds=DEFAULTDELAY,</text>
<text text-anchor="start" x="14" y="-552.5" font-family="Helvetica,sans-Serif" font-size="10.00"> bool willInteract=false)</text>
<text text-anchor="start" x="4" y="-536.5" font-family="Helvetica,sans-Serif" font-size="10.00">+</text>
<text text-anchor="start" x="14" y="-536.5" font-family="Helvetica,sans-Serif" font-size="10.00">bool fOneTemplateMultiple</text>
<text text-anchor="start" x="14" y="-524.5" font-family="Helvetica,sans-Serif" font-size="10.00">TemplateA(const std::vector</text>
<text text-anchor="start" x="14" y="-512.5" font-family="Helvetica,sans-Serif" font-size="10.00">&lt; std::string &gt; &amp;alltempl,</text>
<text text-anchor="start" x="14" y="-500.5" font-family="Helvetica,sans-Serif" font-size="10.00"> const Direction &amp;direction,</text>
<text text-anchor="start" x="14" y="-488.5" font-family="Helvetica,sans-Serif" font-size="10.00"> int order, Zone Z=Zone(), unsigned</text>
<text text-anchor="start" x="14" y="-476.5" font-family="Helvetica,sans-Serif" font-size="10.00"> int delayMilliseconds=DEFAULTDELAY,</text>
<text text-anchor="start" x="14" y="-464.5" font-family="Helvetica,sans-Serif" font-size="10.00"> bool willInteract=false)</text>
<text text-anchor="start" x="4" y="-448.5" font-family="Helvetica,sans-Serif" font-size="10.00">+</text>
<text text-anchor="start" x="14" y="-448.5" font-family="Helvetica,sans-Serif" font-size="10.00">bool fcOneTemplateMultiple</text>
<text text-anchor="start" x="14" y="-436.5" font-family="Helvetica,sans-Serif" font-size="10.00">TemplateA(const std::vector</text>
<text text-anchor="start" x="14" y="-424.5" font-family="Helvetica,sans-Serif" font-size="10.00">&lt; std::string &gt; &amp;alltempl,</text>
<text text-anchor="start" x="14" y="-412.5" font-family="Helvetica,sans-Serif" font-size="10.00"> const Direction &amp;direction,</text>
<text text-anchor="start" x="14" y="-400.5" font-family="Helvetica,sans-Serif" font-size="10.00"> int order, Zone Z=Zone(), unsigned</text>
<text text-anchor="start" x="14" y="-388.5" font-family="Helvetica,sans-Serif" font-size="10.00"> int delayMilliseconds=DEFAULTDELAY)</text>
<text text-anchor="start" x="14" y="-372.5" font-family="Helvetica,sans-Serif" font-size="10.00">and 72 more...</text>
<polygon fill="#666666" stroke="#666666" points="0,-1092 0,-1092 197.25,-1092 197.25,-1092 0,-1092"/>
<polygon fill="#666666" stroke="#666666" points="0,-880 0,-880 12,-880 12,-880 0,-880"/>
<polygon fill="#666666" stroke="#666666" points="12,-880 12,-880 197.25,-880 197.25,-880 12,-880"/>
<polygon fill="none" stroke="#666666" points="0,-366 0,-1110 197.25,-1110 197.25,-366 0,-366"/>
</a>
</g>
</g>
<!-- Node3&#45;&gt;Node1 -->
<g id="edge6_Node000001_Node000003" class="edge">
<title>Node3&#45;&gt;Node1</title>
<g id="a_edge6_Node000001_Node000003"><a xlink:title=" ">
<path fill="none" stroke="#63b8ff" d="M94.44,-366.02C94.26,-287.74 94.59,-205.65 95.88,-129 96.01,-121.06 96.21,-112.68 96.45,-104.44"/>
<polygon fill="none" stroke="#63b8ff" points="96.45,-104.57 92.64,-98.45 96.83,-92.58 100.64,-98.7 96.45,-104.57"/>
</a>
</g>
<text text-anchor="middle" x="108.25" y="-225.5" font-family="Helvetica,sans-Serif" font-size="10.00" fill="grey"> +inte</text>
</g>
<!-- Node3&#45;&gt;Node2 -->
<g id="edge2_Node000002_Node000003" class="edge">
<title>Node3&#45;&gt;Node2</title>
<g id="a_edge2_Node000002_Node000003"><a xlink:title=" ">
<path fill="none" stroke="#63b8ff" d="M166.43,-355.05C168.03,-346.03 169.58,-337.3 171.06,-328.94"/>
<polygon fill="none" stroke="#63b8ff" points="163.01,-354.25 164.71,-364.71 169.91,-355.48 163.01,-354.25"/>
</a>
</g>
</g>
<!-- Node4 -->
<g id="Node000004" class="node">
<title>Node4</title>
<g id="a_Node000004"><a xlink:href="struct_coord.html" target="_top" xlink:title=" ">
<polygon fill="white" stroke="none" points="168.75,-1814 28.5,-1814 28.5,-1466 168.75,-1466 168.75,-1814"/>
<text text-anchor="start" x="85.5" y="-1800.5" font-family="Helvetica,sans-Serif" font-size="10.00">Coord</text>
<text text-anchor="start" x="32.5" y="-1784.5" font-family="Helvetica,sans-Serif" font-size="10.00">+</text>
<text text-anchor="start" x="42.5" y="-1784.5" font-family="Helvetica,sans-Serif" font-size="10.00">int x</text>
<text text-anchor="start" x="32.5" y="-1768.5" font-family="Helvetica,sans-Serif" font-size="10.00">+</text>
<text text-anchor="start" x="42.5" y="-1768.5" font-family="Helvetica,sans-Serif" font-size="10.00">int y</text>
<text text-anchor="start" x="32.5" y="-1752.5" font-family="Helvetica,sans-Serif" font-size="10.00">+</text>
<text text-anchor="start" x="42.5" y="-1752.5" font-family="Helvetica,sans-Serif" font-size="10.00">Coord()</text>
<text text-anchor="start" x="32.5" y="-1736.5" font-family="Helvetica,sans-Serif" font-size="10.00">+</text>
<text text-anchor="start" x="42.5" y="-1736.5" font-family="Helvetica,sans-Serif" font-size="10.00">Coord(const Coord &amp;Co)</text>
<text text-anchor="start" x="32.5" y="-1720.5" font-family="Helvetica,sans-Serif" font-size="10.00">+</text>
<text text-anchor="start" x="42.5" y="-1720.5" font-family="Helvetica,sans-Serif" font-size="10.00">Coord(int x1, int y1)</text>
<text text-anchor="start" x="32.5" y="-1704.5" font-family="Helvetica,sans-Serif" font-size="10.00">+</text>
<text text-anchor="start" x="42.5" y="-1704.5" font-family="Helvetica,sans-Serif" font-size="10.00">Coord(double x1, double y1)</text>
<text text-anchor="start" x="32.5" y="-1688.5" font-family="Helvetica,sans-Serif" font-size="10.00">+</text>
<text text-anchor="start" x="42.5" y="-1688.5" font-family="Helvetica,sans-Serif" font-size="10.00">Coord(int x1, double y1)</text>
<text text-anchor="start" x="32.5" y="-1672.5" font-family="Helvetica,sans-Serif" font-size="10.00">+</text>
<text text-anchor="start" x="42.5" y="-1672.5" font-family="Helvetica,sans-Serif" font-size="10.00">Coord(double x1, int y1)</text>
<text text-anchor="start" x="32.5" y="-1656.5" font-family="Helvetica,sans-Serif" font-size="10.00">+</text>
<text text-anchor="start" x="42.5" y="-1656.5" font-family="Helvetica,sans-Serif" font-size="10.00">void showCoords()</text>
<text text-anchor="start" x="32.5" y="-1640.5" font-family="Helvetica,sans-Serif" font-size="10.00">+</text>
<text text-anchor="start" x="42.5" y="-1640.5" font-family="Helvetica,sans-Serif" font-size="10.00">bool isNull()</text>
<text text-anchor="start" x="32.5" y="-1624.5" font-family="Helvetica,sans-Serif" font-size="10.00">+</text>
<text text-anchor="start" x="42.5" y="-1624.5" font-family="Helvetica,sans-Serif" font-size="10.00">bool operator==(const</text>
<text text-anchor="start" x="42.5" y="-1612.5" font-family="Helvetica,sans-Serif" font-size="10.00"> Coord &amp;other) const</text>
<text text-anchor="start" x="32.5" y="-1596.5" font-family="Helvetica,sans-Serif" font-size="10.00">+</text>
<text text-anchor="start" x="42.5" y="-1596.5" font-family="Helvetica,sans-Serif" font-size="10.00">bool operator!=(const</text>
<text text-anchor="start" x="42.5" y="-1584.5" font-family="Helvetica,sans-Serif" font-size="10.00"> Coord &amp;other) const</text>
<text text-anchor="start" x="32.5" y="-1568.5" font-family="Helvetica,sans-Serif" font-size="10.00">+</text>
<text text-anchor="start" x="42.5" y="-1568.5" font-family="Helvetica,sans-Serif" font-size="10.00">Coord &amp; operator=(const</text>
<text text-anchor="start" x="42.5" y="-1556.5" font-family="Helvetica,sans-Serif" font-size="10.00"> Coord &amp;other)</text>
<text text-anchor="start" x="32.5" y="-1540.5" font-family="Helvetica,sans-Serif" font-size="10.00">+</text>
<text text-anchor="start" x="42.5" y="-1540.5" font-family="Helvetica,sans-Serif" font-size="10.00">Coord operator+(const</text>
<text text-anchor="start" x="42.5" y="-1528.5" font-family="Helvetica,sans-Serif" font-size="10.00"> Coord &amp;other) const</text>
<text text-anchor="start" x="32.5" y="-1512.5" font-family="Helvetica,sans-Serif" font-size="10.00">+</text>
<text text-anchor="start" x="42.5" y="-1512.5" font-family="Helvetica,sans-Serif" font-size="10.00">Coord operator&#45;(const</text>
<text text-anchor="start" x="42.5" y="-1500.5" font-family="Helvetica,sans-Serif" font-size="10.00"> Coord &amp;other) const</text>
<text text-anchor="start" x="32.5" y="-1484.5" font-family="Helvetica,sans-Serif" font-size="10.00">+</text>
<text text-anchor="start" x="42.5" y="-1484.5" font-family="Helvetica,sans-Serif" font-size="10.00">Coord operator*(const</text>
<text text-anchor="start" x="42.5" y="-1472.5" font-family="Helvetica,sans-Serif" font-size="10.00"> Coord &amp;other) const</text>
<polygon fill="#666666" stroke="#666666" points="28.5,-1796 28.5,-1796 168.75,-1796 168.75,-1796 28.5,-1796"/>
<polygon fill="#666666" stroke="#666666" points="28.5,-1764 28.5,-1764 40.5,-1764 40.5,-1764 28.5,-1764"/>
<polygon fill="#666666" stroke="#666666" points="40.5,-1764 40.5,-1764 168.75,-1764 168.75,-1764 40.5,-1764"/>
<polygon fill="none" stroke="#666666" points="28.5,-1466 28.5,-1814 168.75,-1814 168.75,-1466 28.5,-1466"/>
</a>
</g>
</g>
<!-- Node4&#45;&gt;Node3 -->
<g id="edge3_Node000003_Node000004" class="edge">
<title>Node4&#45;&gt;Node3</title>
<g id="a_edge3_Node000003_Node000004"><a xlink:title=" ">
<path fill="none" stroke="#63b8ff" d="M92.63,-1466.19C92.22,-1449.9 91.87,-1433.64 91.62,-1418 90.11,-1322.39 90.26,-1219.21 91.17,-1122.85"/>
<polygon fill="none" stroke="#63b8ff" points="91.17,-1122.81 87.23,-1116.78 91.29,-1110.81 95.23,-1116.85 91.17,-1122.81"/>
</a>
</g>
<text text-anchor="middle" x="118.62" y="-1284.5" font-family="Helvetica,sans-Serif" font-size="10.00" fill="grey"> +resCoords</text>
</g>
<!-- Node5 -->
<g id="Node000005" class="node">
<title>Node5</title>
<g id="a_Node000005"><a xlink:href="struct_template.html" target="_top" xlink:title=" ">
<polygon fill="white" stroke="none" points="281,-1418 154.25,-1418 154.25,-1158 281,-1158 281,-1418"/>
<text text-anchor="start" x="197.75" y="-1404.5" font-family="Helvetica,sans-Serif" font-size="10.00">Template</text>
<text text-anchor="start" x="158.25" y="-1388.5" font-family="Helvetica,sans-Serif" font-size="10.00">+</text>
<text text-anchor="start" x="168.25" y="-1388.5" font-family="Helvetica,sans-Serif" font-size="10.00">cv::Mat mat</text>
<text text-anchor="start" x="158.25" y="-1372.5" font-family="Helvetica,sans-Serif" font-size="10.00">+</text>
<text text-anchor="start" x="168.25" y="-1372.5" font-family="Helvetica,sans-Serif" font-size="10.00">cv::Mat graymat</text>
<text text-anchor="start" x="158.25" y="-1356.5" font-family="Helvetica,sans-Serif" font-size="10.00">+</text>
<text text-anchor="start" x="168.25" y="-1356.5" font-family="Helvetica,sans-Serif" font-size="10.00">typeMat type</text>
<text text-anchor="start" x="158.25" y="-1340.5" font-family="Helvetica,sans-Serif" font-size="10.00">+</text>
<text text-anchor="start" x="168.25" y="-1340.5" font-family="Helvetica,sans-Serif" font-size="10.00">std::string id</text>
<text text-anchor="start" x="158.25" y="-1324.5" font-family="Helvetica,sans-Serif" font-size="10.00">+</text>
<text text-anchor="start" x="168.25" y="-1324.5" font-family="Helvetica,sans-Serif" font-size="10.00">float score</text>
<text text-anchor="start" x="158.25" y="-1308.5" font-family="Helvetica,sans-Serif" font-size="10.00">+</text>
<text text-anchor="start" x="168.25" y="-1308.5" font-family="Helvetica,sans-Serif" font-size="10.00">int width</text>
<text text-anchor="start" x="158.25" y="-1292.5" font-family="Helvetica,sans-Serif" font-size="10.00">+</text>
<text text-anchor="start" x="168.25" y="-1292.5" font-family="Helvetica,sans-Serif" font-size="10.00">int height</text>
<text text-anchor="start" x="158.25" y="-1276.5" font-family="Helvetica,sans-Serif" font-size="10.00">+</text>
<text text-anchor="start" x="168.25" y="-1276.5" font-family="Helvetica,sans-Serif" font-size="10.00">Template()</text>
<text text-anchor="start" x="158.25" y="-1260.5" font-family="Helvetica,sans-Serif" font-size="10.00">+</text>
<text text-anchor="start" x="168.25" y="-1260.5" font-family="Helvetica,sans-Serif" font-size="10.00">Template(const std</text>
<text text-anchor="start" x="168.25" y="-1248.5" font-family="Helvetica,sans-Serif" font-size="10.00">::string namemat)</text>
<text text-anchor="start" x="158.25" y="-1232.5" font-family="Helvetica,sans-Serif" font-size="10.00">+</text>
<text text-anchor="start" x="168.25" y="-1232.5" font-family="Helvetica,sans-Serif" font-size="10.00">Template(const std</text>
<text text-anchor="start" x="168.25" y="-1220.5" font-family="Helvetica,sans-Serif" font-size="10.00">::string id, typeMat type)</text>
<text text-anchor="start" x="158.25" y="-1204.5" font-family="Helvetica,sans-Serif" font-size="10.00">+</text>
<text text-anchor="start" x="168.25" y="-1204.5" font-family="Helvetica,sans-Serif" font-size="10.00">Template(const Template</text>
<text text-anchor="start" x="168.25" y="-1192.5" font-family="Helvetica,sans-Serif" font-size="10.00"> &amp;other)</text>
<text text-anchor="start" x="158.25" y="-1176.5" font-family="Helvetica,sans-Serif" font-size="10.00">+</text>
<text text-anchor="start" x="168.25" y="-1176.5" font-family="Helvetica,sans-Serif" font-size="10.00">void setType(typeMat</text>
<text text-anchor="start" x="168.25" y="-1164.5" font-family="Helvetica,sans-Serif" font-size="10.00"> type)</text>
<polygon fill="#666666" stroke="#666666" points="154.25,-1400 154.25,-1400 281,-1400 281,-1400 154.25,-1400"/>
<polygon fill="#666666" stroke="#666666" points="154.25,-1288 154.25,-1288 166.25,-1288 166.25,-1288 154.25,-1288"/>
<polygon fill="#666666" stroke="#666666" points="166.25,-1288 166.25,-1288 281,-1288 281,-1288 166.25,-1288"/>
<polygon fill="none" stroke="#666666" points="154.25,-1158 154.25,-1418 281,-1418 281,-1158 154.25,-1158"/>
</a>
</g>
</g>
<!-- Node4&#45;&gt;Node5 -->
<g id="edge5_Node000005_Node000004" class="edge">
<title>Node4&#45;&gt;Node5</title>
<g id="a_edge5_Node000005_Node000004"><a xlink:title=" ">
<path fill="none" stroke="#63b8ff" d="M157.43,-1466.05C161.51,-1454.04 165.6,-1442.01 169.62,-1430.19"/>
<polygon fill="none" stroke="#63b8ff" points="169.62,-1430.18 167.77,-1423.21 173.49,-1418.82 175.34,-1425.79 169.62,-1430.18"/>
</a>
</g>
<text text-anchor="middle" x="173.5" y="-1438.5" font-family="Helvetica,sans-Serif" font-size="10.00" fill="grey"> +C</text>
</g>
<!-- Node5&#45;&gt;Node3 -->
<g id="edge4_Node000003_Node000005" class="edge">
<title>Node5&#45;&gt;Node3</title>
<g id="a_edge4_Node000003_Node000005"><a xlink:title=" ">
<path fill="none" stroke="#63b8ff" d="M189.65,-1158.17C187.15,-1146.66 184.55,-1134.67 181.87,-1122.33"/>
<polygon fill="none" stroke="#63b8ff" points="181.9,-1122.48 176.72,-1117.47 179.35,-1110.76 184.54,-1115.77 181.9,-1122.48"/>
</a>
</g>
<text text-anchor="middle" x="213.72" y="-1130.5" font-family="Helvetica,sans-Serif" font-size="10.00" fill="grey"> +background</text>
</g>
</g>
</svg>
