<?xml version="1.0" encoding="UTF-8" standalone="no"?>
<!DOCTYPE svg PUBLIC "-//W3C//DTD SVG 1.1//EN"
 "http://www.w3.org/Graphics/SVG/1.1/DTD/svg11.dtd">
<!-- Generated by graphviz version 12.2.0 (20241103.1931)
 -->
<!-- Title: FlowTagPanel::insertChild Pages: 1 -->
<!--zoomable 218 -->

<svg id="main" version="1.1" xmlns="http://www.w3.org/2000/svg" xmlns:xlink="http://www.w3.org/1999/xlink" xml:space="preserve" onload="init(evt)">

<style type="text/css"><![CDATA[
.node, .edge {opacity: 0.7;}
.node.selected, .edge.selected {opacity: 1;}
.edge:hover path { stroke: red; }
.edge:hover polygon { stroke: red; fill: red; }
]]></style>

<defs>
  <circle id="rim" cx="0" cy="0" r="7"/>
  <circle id="rim2" cx="0" cy="0" r="3.5"/>
  <g id="zoomPlus">
    <use xlink:href="#rim" fill="#404040"><set attributeName="fill" to="#808080" begin="zoomplus.mouseover" end="zoomplus.mouseout"/></use>
    <path d="M-4,0h8M0,-4v8" fill="none" stroke="white" stroke-width="1.5" pointer-events="none"/>
  </g>
  <g id="zoomMin">
    <use xlink:href="#rim" fill="#404040"><set attributeName="fill" to="#808080" begin="zoomminus.mouseover" end="zoomminus.mouseout"/></use>
    <path d="M-4,0h8" fill="none" stroke="white" stroke-width="1.5" pointer-events="none"/>
  </g>
  <g id="arrowUp" transform="translate(30 24)">
    <use xlink:href="#rim"/>
    <path pointer-events="none" fill="none" stroke="white" stroke-width="1.5" d="M0,-3.0v7 M-2.5,-0.5L0,-3.0L2.5,-0.5"/>
  </g>
  <g id="arrowRight" transform="rotate(90) translate(36 -43)">
    <use xlink:href="#rim"/>
    <path pointer-events="none" fill="none" stroke="white" stroke-width="1.5" d="M0,-3.0v7 M-2.5,-0.5L0,-3.0L2.5,-0.5"/>
  </g>
  <g id="arrowDown" transform="rotate(180) translate(-30 -48)">
    <use xlink:href="#rim"/>
    <path pointer-events="none" fill="none" stroke="white" stroke-width="1.5" d="M0,-3.0v7 M-2.5,-0.5L0,-3.0L2.5,-0.5"/>
  </g>
  <g id="arrowLeft" transform="rotate(270) translate(-36 17)">
    <use xlink:href="#rim"/>
    <path pointer-events="none" fill="none" stroke="white" stroke-width="1.5" d="M0,-3.0v7 M-2.5,-0.5L0,-3.0L2.5,-0.5"/>
  </g>
  <g id="resetDef">
    <use xlink:href="#rim2" fill="#404040"><set attributeName="fill" to="#808080" begin="reset.mouseover" end="reset.mouseout"/></use>
  </g>
</defs>
<script type="application/ecmascript">
var viewWidth = 704;
var viewHeight = 218;
var sectionId = 'dynsection-48';
</script>
<script type="application/ecmascript" xlink:href="svg.min.js"/>
<svg id="graph" class="graph">
<g id="viewport">
<title>FlowTagPanel::insertChild</title>
<!-- Node1 -->
<g id="Node000001" class="node">
<title>Node1</title>
<g id="a_Node000001"><a xlink:title=" ">
<polygon fill="#999999" stroke="#666666" points="695.5,-58 565.5,-58 565.5,-38 695.5,-38 695.5,-58"/>
<text text-anchor="middle" x="630.5" y="-44.5" font-family="Helvetica,sans-Serif" font-size="10.00">FlowTagPanel::insertChild</text>
</a>
</g>
</g>
<!-- Node1&#45;&gt;Node1 -->
<g id="edge12_Node000001_Node000001" class="edge">
<title>Node1&#45;&gt;Node1</title>
<g id="a_edge12_Node000001_Node000001"><a xlink:title=" ">
<path fill="none" stroke="#63b8ff" d="M661.29,-69.11C657.62,-73.14 647.35,-76 630.5,-76 600.54,-76 591.41,-66.98 603.11,-58.34"/>
<polygon fill="#63b8ff" stroke="#63b8ff" points="664.69,-68.27 658.34,-59.78 658.02,-70.37 664.69,-68.27"/>
</a>
</g>
</g>
<!-- Node2 -->
<g id="Node000002" class="node">
<title>Node2</title>
<g id="a_Node000002"><a xlink:href="class_flow_tag_panel.html#a24aede4ad59f41a079d4c38e26955d55" target="_top" xlink:title=" ">
<polygon fill="white" stroke="#666666" points="519,-77 397.25,-77 397.25,-57 519,-57 519,-77"/>
<text text-anchor="middle" x="458.12" y="-63.5" font-family="Helvetica,sans-Serif" font-size="10.00">FlowTagPanel::addChild</text>
</a>
</g>
</g>
<!-- Node1&#45;&gt;Node2 -->
<g id="edge1_Node000001_Node000002" class="edge">
<title>Node1&#45;&gt;Node2</title>
<g id="a_edge1_Node000001_Node000002"><a xlink:title=" ">
<path fill="none" stroke="#63b8ff" d="M553.71,-56.45C542.23,-57.73 530.51,-59.04 519.41,-60.28"/>
<polygon fill="#63b8ff" stroke="#63b8ff" points="554.03,-59.94 563.58,-55.35 553.26,-52.98 554.03,-59.94"/>
</a>
</g>
</g>
<!-- Node13 -->
<g id="Node000013" class="node">
<title>Node13</title>
<g id="a_Node000013"><a xlink:href="class_flow_tag_panel.html#a1e44ca3ceb2df81762129896dbdb7b62" target="_top" xlink:title=" ">
<polygon fill="white" stroke="#666666" points="529.5,-39 386.75,-39 386.75,-19 529.5,-19 529.5,-39"/>
<text text-anchor="middle" x="458.12" y="-25.5" font-family="Helvetica,sans-Serif" font-size="10.00">FlowTagPanel::swapChildren</text>
</a>
</g>
</g>
<!-- Node1&#45;&gt;Node13 -->
<g id="edge13_Node000001_Node000013" class="edge">
<title>Node1&#45;&gt;Node13</title>
<g id="a_edge13_Node000001_Node000013"><a xlink:title=" ">
<path fill="none" stroke="#63b8ff" d="M553.91,-39.57C545.92,-38.68 537.82,-37.78 529.9,-36.89"/>
<polygon fill="#63b8ff" stroke="#63b8ff" points="553.26,-43.02 563.58,-40.65 554.03,-36.06 553.26,-43.02"/>
</a>
</g>
</g>
<!-- Node3 -->
<g id="Node000003" class="node">
<title>Node3</title>
<g id="a_Node000003"><a xlink:href="class_flow_tag_panel.html#a8c328c48878111ffebcc91b7b37a8b77" target="_top" xlink:title=" ">
<polygon fill="white" stroke="#666666" points="338.38,-181 203.12,-181 203.12,-161 338.38,-161 338.38,-181"/>
<text text-anchor="middle" x="270.75" y="-167.5" font-family="Helvetica,sans-Serif" font-size="10.00">FlowTagPanel::addChildren</text>
</a>
</g>
</g>
<!-- Node2&#45;&gt;Node3 -->
<g id="edge2_Node000002_Node000003" class="edge">
<title>Node2&#45;&gt;Node3</title>
<g id="a_edge2_Node000002_Node000003"><a xlink:title=" ">
<path fill="none" stroke="#63b8ff" d="M428.66,-82.97C390.27,-104.51 322.94,-142.28 290.4,-160.54"/>
<polygon fill="#63b8ff" stroke="#63b8ff" points="430.34,-86.04 437.35,-78.09 426.92,-79.93 430.34,-86.04"/>
</a>
</g>
</g>
<!-- Node5 -->
<g id="Node000005" class="node">
<title>Node5</title>
<g id="a_Node000005"><a xlink:href="class_flow_tag_panel.html#a0e1305928f680ed7efb08d17d951d814" target="_top" xlink:title=" ">
<polygon fill="white" stroke="#666666" points="342.12,-115 199.38,-115 199.38,-95 342.12,-95 342.12,-115"/>
<text text-anchor="middle" x="270.75" y="-101.5" font-family="Helvetica,sans-Serif" font-size="10.00">FlowTagPanel::cloneChildren</text>
</a>
</g>
</g>
<!-- Node2&#45;&gt;Node5 -->
<g id="edge4_Node000002_Node000005" class="edge">
<title>Node2&#45;&gt;Node5</title>
<g id="a_edge4_Node000002_Node000005"><a xlink:title=" ">
<path fill="none" stroke="#63b8ff" d="M394.74,-79.79C371.32,-84.59 345,-89.99 322.73,-94.55"/>
<polygon fill="#63b8ff" stroke="#63b8ff" points="395.4,-83.23 404.5,-77.79 394,-76.37 395.4,-83.23"/>
</a>
</g>
</g>
<!-- Node9 -->
<g id="Node000009" class="node">
<title>Node9</title>
<g id="a_Node000009"><a xlink:href="class_flow_tag_panel.html#ab190cd6aefb44611ef4b382c315da514" target="_top" xlink:title=" ">
<polygon fill="white" stroke="#666666" points="345.5,-58 196,-58 196,-38 345.5,-38 345.5,-58"/>
<text text-anchor="middle" x="270.75" y="-44.5" font-family="Helvetica,sans-Serif" font-size="10.00">FlowTagPanel::initEmptyPanel</text>
</a>
</g>
</g>
<!-- Node2&#45;&gt;Node9 -->
<g id="edge8_Node000002_Node000009" class="edge">
<title>Node2&#45;&gt;Node9</title>
<g id="a_edge8_Node000002_Node000009"><a xlink:title=" ">
<path fill="none" stroke="#63b8ff" d="M385.67,-59.68C372.63,-58.34 359.01,-56.94 345.9,-55.6"/>
<polygon fill="#63b8ff" stroke="#63b8ff" points="385.13,-63.14 395.43,-60.68 385.84,-56.18 385.13,-63.14"/>
</a>
</g>
</g>
<!-- Node11 -->
<g id="Node000011" class="node">
<title>Node11</title>
<g id="a_Node000011"><a xlink:href="class_flow_tag_panel.html#ad1a55f7e5c1eb22bed92049643bb75b9" target="_top" xlink:title=" ">
<polygon fill="white" stroke="#666666" points="350.75,-20 190.75,-20 190.75,0 350.75,0 350.75,-20"/>
<text text-anchor="middle" x="270.75" y="-6.5" font-family="Helvetica,sans-Serif" font-size="10.00">FlowTagPanel::showEmptyPanel</text>
</a>
</g>
</g>
<!-- Node2&#45;&gt;Node11 -->
<g id="edge10_Node000002_Node000011" class="edge">
<title>Node2&#45;&gt;Node11</title>
<g id="a_edge10_Node000002_Node000011"><a xlink:title=" ">
<path fill="none" stroke="#63b8ff" d="M401.39,-53.19C396.39,-51.58 391.45,-49.85 386.75,-48 369.91,-41.38 367.68,-35.39 350.75,-29 342.04,-25.71 332.57,-22.86 323.31,-20.43"/>
<polygon fill="#63b8ff" stroke="#63b8ff" points="400.31,-56.52 410.89,-56.07 402.34,-49.82 400.31,-56.52"/>
</a>
</g>
</g>
<!-- Node4 -->
<g id="Node000004" class="node">
<title>Node4</title>
<g id="a_Node000004"><a xlink:href="class_flow_tag_panel.html#aaeeb052f14fc5e6aa2be1f124e82b694" target="_top" xlink:title=" ">
<polygon fill="white" stroke="#666666" points="153.25,-210 1.5,-210 1.5,-190 153.25,-190 153.25,-210"/>
<text text-anchor="middle" x="77.38" y="-196.5" font-family="Helvetica,sans-Serif" font-size="10.00">FlowTagPanel::addTagAndSize</text>
</a>
</g>
</g>
<!-- Node3&#45;&gt;Node4 -->
<g id="edge3_Node000003_Node000004" class="edge">
<title>Node3&#45;&gt;Node4</title>
<g id="a_edge3_Node000003_Node000004"><a xlink:title=" ">
<path fill="none" stroke="#63b8ff" d="M191.75,-182.82C177.11,-185.04 161.89,-187.34 147.54,-189.52"/>
<polygon fill="#63b8ff" stroke="#63b8ff" points="191.96,-186.33 201.32,-181.37 190.91,-179.41 191.96,-186.33"/>
</a>
</g>
</g>
<!-- Node6 -->
<g id="Node000006" class="node">
<title>Node6</title>
<g id="a_Node000006"><a xlink:href="class_flow_tag_panel.html#ad022a384de848b36e615014a9f727755" target="_top" xlink:title=" ">
<polygon fill="white" stroke="#666666" points="149.88,-172 4.88,-172 4.88,-152 149.88,-152 149.88,-172"/>
<text text-anchor="middle" x="77.38" y="-158.5" font-family="Helvetica,sans-Serif" font-size="10.00">FlowTagPanel::FlowTagPanel</text>
</a>
</g>
</g>
<!-- Node5&#45;&gt;Node6 -->
<g id="edge5_Node000005_Node000006" class="edge">
<title>Node5&#45;&gt;Node6</title>
<g id="a_edge5_Node000005_Node000006"><a xlink:title=" ">
<path fill="none" stroke="#63b8ff" d="M229.56,-119.11C207.58,-126.61 179.81,-135.75 154.75,-143 144.51,-145.96 133.42,-148.88 122.95,-151.51"/>
<polygon fill="#63b8ff" stroke="#63b8ff" points="230.41,-122.51 238.73,-115.95 228.13,-115.89 230.41,-122.51"/>
</a>
</g>
</g>
<!-- Node7 -->
<g id="Node000007" class="node">
<title>Node7</title>
<g id="a_Node000007"><a xlink:href="class_if_tag_panel.html#ae771ebf0ecffe9a2bf16f02999ef469e" target="_top" xlink:title=" ">
<polygon fill="white" stroke="#666666" points="134.88,-134 19.88,-134 19.88,-114 134.88,-114 134.88,-134"/>
<text text-anchor="middle" x="77.38" y="-120.5" font-family="Helvetica,sans-Serif" font-size="10.00">IfTagPanel::IfTagPanel</text>
</a>
</g>
</g>
<!-- Node5&#45;&gt;Node7 -->
<g id="edge6_Node000005_Node000007" class="edge">
<title>Node5&#45;&gt;Node7</title>
<g id="a_edge6_Node000005_Node000007"><a xlink:title=" ">
<path fill="none" stroke="#63b8ff" d="M187.58,-113.16C169.99,-114.9 151.77,-116.71 135.37,-118.34"/>
<polygon fill="#63b8ff" stroke="#63b8ff" points="187.92,-116.64 197.53,-112.17 187.23,-109.68 187.92,-116.64"/>
</a>
</g>
</g>
<!-- Node8 -->
<g id="Node000008" class="node">
<title>Node8</title>
<g id="a_Node000008"><a xlink:href="class_loop_tag_panel.html#a16b4c63d3e9be7b20a4ef02091f0a993" target="_top" xlink:title=" ">
<polygon fill="white" stroke="#666666" points="149.88,-96 4.88,-96 4.88,-76 149.88,-76 149.88,-96"/>
<text text-anchor="middle" x="77.38" y="-82.5" font-family="Helvetica,sans-Serif" font-size="10.00">LoopTagPanel::LoopTagPanel</text>
</a>
</g>
</g>
<!-- Node5&#45;&gt;Node8 -->
<g id="edge7_Node000005_Node000008" class="edge">
<title>Node5&#45;&gt;Node8</title>
<g id="a_edge7_Node000005_Node000008"><a xlink:title=" ">
<path fill="none" stroke="#63b8ff" d="M187.66,-96.85C175.16,-95.61 162.34,-94.34 150.08,-93.12"/>
<polygon fill="#63b8ff" stroke="#63b8ff" points="187.23,-100.32 197.53,-97.83 187.92,-93.36 187.23,-100.32"/>
</a>
</g>
</g>
<!-- Node10 -->
<g id="Node000010" class="node">
<title>Node10</title>
<g id="a_Node000010"><a xlink:href="class_flow_tag_panel.html#a92c626fbe9ab70ee75813edec7e323ba" target="_top" xlink:title=" ">
<polygon fill="white" stroke="#666666" points="154.75,-58 0,-58 0,-38 154.75,-38 154.75,-58"/>
<text text-anchor="middle" x="77.38" y="-44.5" font-family="Helvetica,sans-Serif" font-size="10.00">FlowTagPanel::addComponents</text>
</a>
</g>
</g>
<!-- Node9&#45;&gt;Node10 -->
<g id="edge9_Node000009_Node000010" class="edge">
<title>Node9&#45;&gt;Node10</title>
<g id="a_edge9_Node000009_Node000010"><a xlink:title=" ">
<path fill="none" stroke="#63b8ff" d="M184.37,-48C174.59,-48 164.67,-48 155.02,-48"/>
<polygon fill="#63b8ff" stroke="#63b8ff" points="184.25,-51.5 194.25,-48 184.25,-44.5 184.25,-51.5"/>
</a>
</g>
</g>
<!-- Node12 -->
<g id="Node000012" class="node">
<title>Node12</title>
<g id="a_Node000012"><a xlink:href="class_flow_tag_panel.html#a38bade8b3e467e730e739bce386b5ea0" target="_top" xlink:title=" ">
<polygon fill="white" stroke="#666666" points="142.38,-20 12.38,-20 12.38,0 142.38,0 142.38,-20"/>
<text text-anchor="middle" x="77.38" y="-6.5" font-family="Helvetica,sans-Serif" font-size="10.00">FlowTagPanel::insertChild</text>
</a>
</g>
</g>
<!-- Node11&#45;&gt;Node12 -->
<g id="edge11_Node000011_Node000012" class="edge">
<title>Node11&#45;&gt;Node12</title>
<g id="a_edge11_Node000011_Node000012"><a xlink:title=" ">
<path fill="none" stroke="#63b8ff" d="M179.06,-10C166.8,-10 154.44,-10 142.78,-10"/>
<polygon fill="#63b8ff" stroke="#63b8ff" points="178.74,-13.5 188.74,-10 178.74,-6.5 178.74,-13.5"/>
</a>
</g>
</g>
</g>
</svg>

<g id="navigator" transform="translate(0 0)" fill="#404254">
  <rect fill="#f2f5e9" fill-opacity="0.5" stroke="#606060" stroke-width=".5" x="0" y="0" width="60" height="60"/>
  <use id="zoomplus" xlink:href="#zoomPlus" x="17" y="9" onmousedown="handleZoom(evt,'in')"/>
  <use id="zoomminus" xlink:href="#zoomMin" x="42" y="9" onmousedown="handleZoom(evt,'out')"/>
  <use id="reset" xlink:href="#resetDef" x="30" y="36" onmousedown="handleReset()"/>
   <use id="arrowup" xlink:href="#arrowUp" x="0" y="0" onmousedown="handlePan(0,-1)"/>
  <use id="arrowright" xlink:href="#arrowRight" x="0" y="0" onmousedown="handlePan(1,0)"/>
  <use id="arrowdown" xlink:href="#arrowDown" x="0" y="0" onmousedown="handlePan(0,1)"/>
  <use id="arrowleft" xlink:href="#arrowLeft" x="0" y="0" onmousedown="handlePan(-1,0)"/>
</g>
<svg viewBox="0 0 15 15" width="100%" height="30px" preserveAspectRatio="xMaxYMin meet">
 <g id="arrow_out" transform="scale(0.3 0.3)">
  <a xlink:href="class_flow_tag_panel_af98215cc2497f7ef7d8e4ed00e94ca33_icgraph_org.svg" target="_base">
   <rect id="button" ry="5" rx="5" y="6" x="6" height="38" width="38"
        fill="#f2f5e9" fill-opacity="0.5" stroke="#606060" stroke-width="1.0"/>
   <path id="arrow"
     d="M 11.500037,31.436501 C 11.940474,20.09759 22.043105,11.32322 32.158766,21.979434 L 37.068811,17.246167 C 37.068811,17.246167 37.088388,32 37.088388,32 L 22.160133,31.978069 C 22.160133,31.978069 26.997745,27.140456 26.997745,27.140456 C 18.528582,18.264221 13.291696,25.230495 11.500037,31.436501 z"
     style="fill:#404040;"/>
  </a>
 </g>
</svg>

<style type='text/css'>
<![CDATA[
[data-mouse-over-selected='false'] { opacity: 0.7; }
[data-mouse-over-selected='true']  { opacity: 1.0; }
]]>
</style>
<script type="application/ecmascript"><![CDATA[
document.addEventListener('DOMContentLoaded', (event) => {
  highlightEdges();
  highlightAdjacentNodes();
});
]]></script>
</svg>
