<?xml version="1.0" encoding="UTF-8" standalone="no"?>
<!DOCTYPE svg PUBLIC "-//W3C//DTD SVG 1.1//EN"
 "http://www.w3.org/Graphics/SVG/1.1/DTD/svg11.dtd">
<!-- Generated by graphviz version 12.2.0 (20241103.1931)
 -->
<!-- Title: BotConfig::updateDataAll Pages: 1 -->
<!--zoomable 256 -->

<svg id="main" version="1.1" xmlns="http://www.w3.org/2000/svg" xmlns:xlink="http://www.w3.org/1999/xlink" xml:space="preserve" onload="init(evt)">

<style type="text/css"><![CDATA[
.node, .edge {opacity: 0.7;}
.node.selected, .edge.selected {opacity: 1;}
.edge:hover path { stroke: red; }
.edge:hover polygon { stroke: red; fill: red; }
]]></style>

<defs>
  <circle id="rim" cx="0" cy="0" r="7"/>
  <circle id="rim2" cx="0" cy="0" r="3.5"/>
  <g id="zoomPlus">
    <use xlink:href="#rim" fill="#404040"><set attributeName="fill" to="#808080" begin="zoomplus.mouseover" end="zoomplus.mouseout"/></use>
    <path d="M-4,0h8M0,-4v8" fill="none" stroke="white" stroke-width="1.5" pointer-events="none"/>
  </g>
  <g id="zoomMin">
    <use xlink:href="#rim" fill="#404040"><set attributeName="fill" to="#808080" begin="zoomminus.mouseover" end="zoomminus.mouseout"/></use>
    <path d="M-4,0h8" fill="none" stroke="white" stroke-width="1.5" pointer-events="none"/>
  </g>
  <g id="arrowUp" transform="translate(30 24)">
    <use xlink:href="#rim"/>
    <path pointer-events="none" fill="none" stroke="white" stroke-width="1.5" d="M0,-3.0v7 M-2.5,-0.5L0,-3.0L2.5,-0.5"/>
  </g>
  <g id="arrowRight" transform="rotate(90) translate(36 -43)">
    <use xlink:href="#rim"/>
    <path pointer-events="none" fill="none" stroke="white" stroke-width="1.5" d="M0,-3.0v7 M-2.5,-0.5L0,-3.0L2.5,-0.5"/>
  </g>
  <g id="arrowDown" transform="rotate(180) translate(-30 -48)">
    <use xlink:href="#rim"/>
    <path pointer-events="none" fill="none" stroke="white" stroke-width="1.5" d="M0,-3.0v7 M-2.5,-0.5L0,-3.0L2.5,-0.5"/>
  </g>
  <g id="arrowLeft" transform="rotate(270) translate(-36 17)">
    <use xlink:href="#rim"/>
    <path pointer-events="none" fill="none" stroke="white" stroke-width="1.5" d="M0,-3.0v7 M-2.5,-0.5L0,-3.0L2.5,-0.5"/>
  </g>
  <g id="resetDef">
    <use xlink:href="#rim2" fill="#404040"><set attributeName="fill" to="#808080" begin="reset.mouseover" end="reset.mouseout"/></use>
  </g>
</defs>
<script type="application/ecmascript">
var viewWidth = 1266;
var viewHeight = 256;
var sectionId = 'dynsection-81';
</script>
<script type="application/ecmascript" xlink:href="svg.min.js"/>
<svg id="graph" class="graph">
<g id="viewport">
<title>BotConfig::updateDataAll</title>
<!-- Node1 -->
<g id="Node000001" class="node">
<title>Node1</title>
<g id="a_Node000001"><a xlink:title=" ">
<polygon fill="#999999" stroke="#666666" points="127,-115 0,-115 0,-95 127,-95 127,-115"/>
<text text-anchor="middle" x="63.5" y="-101.5" font-family="Helvetica,sans-Serif" font-size="10.00">BotConfig::updateDataAll</text>
</a>
</g>
</g>
<!-- Node2 -->
<g id="Node000002" class="node">
<title>Node2</title>
<g id="a_Node000002"><a xlink:href="class_bot_config.html#a70992bec079cbf9412e69b0f0e712ca2" target="_top" xlink:title=" ">
<polygon fill="white" stroke="#666666" points="308,-115 163,-115 163,-95 308,-95 308,-115"/>
<text text-anchor="middle" x="235.5" y="-101.5" font-family="Helvetica,sans-Serif" font-size="10.00">BotConfig::updateBoolBotFile</text>
</a>
</g>
</g>
<!-- Node1&#45;&gt;Node2 -->
<g id="edge1_Node000001_Node000002" class="edge">
<title>Node1&#45;&gt;Node2</title>
<g id="a_edge1_Node000001_Node000002"><a xlink:title=" ">
<path fill="none" stroke="#63b8ff" d="M127.32,-105C135.16,-105 143.28,-105 151.37,-105"/>
<polygon fill="#63b8ff" stroke="#63b8ff" points="151.25,-108.5 161.25,-105 151.25,-101.5 151.25,-108.5"/>
</a>
</g>
</g>
<!-- Node3 -->
<g id="Node000003" class="node">
<title>Node3</title>
<g id="a_Node000003"><a xlink:href="class_bot_config.html#a7b0b572a14dd5f0630b335041f83049a" target="_top" xlink:title=" ">
<polygon fill="white" stroke="#666666" points="458.25,-115 344,-115 344,-95 458.25,-95 458.25,-115"/>
<text text-anchor="middle" x="401.12" y="-101.5" font-family="Helvetica,sans-Serif" font-size="10.00">BotConfig::updateBool</text>
</a>
</g>
</g>
<!-- Node2&#45;&gt;Node3 -->
<g id="edge2_Node000002_Node000003" class="edge">
<title>Node2&#45;&gt;Node3</title>
<g id="a_edge2_Node000002_Node000003"><a xlink:title=" ">
<path fill="none" stroke="#63b8ff" d="M308.27,-105C316.23,-105 324.32,-105 332.23,-105"/>
<polygon fill="#63b8ff" stroke="#63b8ff" points="332.15,-108.5 342.15,-105 332.15,-101.5 332.15,-108.5"/>
</a>
</g>
</g>
<!-- Node4 -->
<g id="Node000004" class="node">
<title>Node4</title>
<g id="a_Node000004"><a xlink:href="class_bot_config.html#ab92a15dd3027a7f42b452cdf5eaf9529" target="_top" xlink:title=" ">
<polygon fill="white" stroke="#666666" points="614.5,-115 494.25,-115 494.25,-95 614.5,-95 614.5,-115"/>
<text text-anchor="middle" x="554.38" y="-101.5" font-family="Helvetica,sans-Serif" font-size="10.00">BotConfig::updateString</text>
</a>
</g>
</g>
<!-- Node3&#45;&gt;Node4 -->
<g id="edge3_Node000003_Node000004" class="edge">
<title>Node3&#45;&gt;Node4</title>
<g id="a_edge3_Node000003_Node000004"><a xlink:title=" ">
<path fill="none" stroke="#63b8ff" d="M458.44,-105C466.32,-105 474.5,-105 482.6,-105"/>
<polygon fill="#63b8ff" stroke="#63b8ff" points="482.46,-108.5 492.46,-105 482.46,-101.5 482.46,-108.5"/>
</a>
</g>
</g>
<!-- Node5 -->
<g id="Node000005" class="node">
<title>Node5</title>
<g id="a_Node000005"><a xlink:href="_text_manager_8cpp.html#add36cc54cd9616a393a17b8961491477" target="_top" xlink:title=" ">
<polygon fill="white" stroke="#666666" points="730.25,-248 650.5,-248 650.5,-228 730.25,-228 730.25,-248"/>
<text text-anchor="middle" x="690.38" y="-234.5" font-family="Helvetica,sans-Serif" font-size="10.00">getFileContent</text>
</a>
</g>
</g>
<!-- Node4&#45;&gt;Node5 -->
<g id="edge4_Node000004_Node000005" class="edge">
<title>Node4&#45;&gt;Node5</title>
<g id="a_edge4_Node000004_Node000005"><a xlink:title=" ">
<path fill="none" stroke="#63b8ff" d="M562.64,-115.22C577.5,-135.66 613.14,-182.33 650.5,-214 653.56,-216.59 656.92,-219.1 660.35,-221.44"/>
<polygon fill="#63b8ff" stroke="#63b8ff" points="658.42,-224.36 668.73,-226.79 662.18,-218.46 658.42,-224.36"/>
</a>
</g>
</g>
<!-- Node6 -->
<g id="Node000006" class="node">
<title>Node6</title>
<g id="a_Node000006"><a xlink:href="_text_manager_8cpp.html#af24bee60aa1d3d5b4ae3bf6ebd267ecd" target="_top" xlink:title=" ">
<polygon fill="white" stroke="#666666" points="714.12,-134 666.62,-134 666.62,-114 714.12,-114 714.12,-134"/>
<text text-anchor="middle" x="690.38" y="-120.5" font-family="Helvetica,sans-Serif" font-size="10.00">getLine</text>
</a>
</g>
</g>
<!-- Node4&#45;&gt;Node6 -->
<g id="edge5_Node000004_Node000006" class="edge">
<title>Node4&#45;&gt;Node6</title>
<g id="a_edge5_Node000004_Node000006"><a xlink:title=" ">
<path fill="none" stroke="#63b8ff" d="M614.93,-113.44C628.7,-115.4 642.9,-117.41 655.15,-119.15"/>
<polygon fill="#63b8ff" stroke="#63b8ff" points="654.34,-122.57 664.73,-120.51 655.32,-115.64 654.34,-122.57"/>
</a>
</g>
</g>
<!-- Node8 -->
<g id="Node000008" class="node">
<title>Node8</title>
<g id="a_Node000008"><a xlink:href="_text_manager_8cpp.html#a6956d58559ef67f422247fdeb1c22775" target="_top" xlink:title=" ">
<polygon fill="white" stroke="#666666" points="1003,-153 927,-153 927,-133 1003,-133 1003,-153"/>
<text text-anchor="middle" x="965" y="-139.5" font-family="Helvetica,sans-Serif" font-size="10.00">getStringAfter</text>
</a>
</g>
</g>
<!-- Node4&#45;&gt;Node8 -->
<g id="edge18_Node000004_Node000008" class="edge">
<title>Node4&#45;&gt;Node8</title>
<g id="a_edge18_Node000004_Node000008"><a xlink:title=" ">
<path fill="none" stroke="#63b8ff" d="M575.93,-115.36C612.87,-133.3 693.43,-169.35 766.25,-181 819.35,-189.49 834.89,-193.25 887.25,-181 905.42,-176.75 924.23,-167.53 938.68,-159.24"/>
<polygon fill="#63b8ff" stroke="#63b8ff" points="940.27,-162.36 947.06,-154.22 936.68,-156.35 940.27,-162.36"/>
</a>
</g>
</g>
<!-- Node12 -->
<g id="Node000012" class="node">
<title>Node12</title>
<g id="a_Node000012"><a xlink:href="_text_manager_8cpp.html#aff8311b88dbf5f3091f3ac1262543242" target="_top" xlink:title=" ">
<polygon fill="white" stroke="#666666" points="1006.75,-96 923.25,-96 923.25,-76 1006.75,-76 1006.75,-96"/>
<text text-anchor="middle" x="965" y="-82.5" font-family="Helvetica,sans-Serif" font-size="10.00">getStringBefore</text>
</a>
</g>
</g>
<!-- Node4&#45;&gt;Node12 -->
<g id="edge19_Node000004_Node000012" class="edge">
<title>Node4&#45;&gt;Node12</title>
<g id="a_edge19_Node000004_Node000012"><a xlink:title=" ">
<path fill="none" stroke="#63b8ff" d="M594.48,-94.55C656.56,-79.3 781.47,-54.1 887.25,-67 897.45,-68.24 908.24,-70.38 918.41,-72.79"/>
<polygon fill="#63b8ff" stroke="#63b8ff" points="917.55,-76.18 928.1,-75.22 919.25,-69.39 917.55,-76.18"/>
</a>
</g>
</g>
<!-- Node14 -->
<g id="Node000014" class="node">
<title>Node14</title>
<g id="a_Node000014"><a xlink:href="_text_manager_8cpp.html#ac695ebe5513185f42689b419f58d8a83" target="_top" xlink:title=" ">
<polygon fill="white" stroke="#666666" points="866.62,-96 786.88,-96 786.88,-76 866.62,-76 866.62,-96"/>
<text text-anchor="middle" x="826.75" y="-82.5" font-family="Helvetica,sans-Serif" font-size="10.00">updateContent</text>
</a>
</g>
</g>
<!-- Node4&#45;&gt;Node14 -->
<g id="edge20_Node000004_Node000014" class="edge">
<title>Node4&#45;&gt;Node14</title>
<g id="a_edge20_Node000004_Node000014"><a xlink:title=" ">
<path fill="none" stroke="#63b8ff" d="M614.71,-100.83C662.76,-97.45 729.71,-92.75 775.22,-89.55"/>
<polygon fill="#63b8ff" stroke="#63b8ff" points="775.36,-93.05 785.09,-88.86 774.87,-86.07 775.36,-93.05"/>
</a>
</g>
</g>
<!-- Node15 -->
<g id="Node000015" class="node">
<title>Node15</title>
<g id="a_Node000015"><a xlink:href="_text_manager_8cpp.html#ab55140c566370b105b9bf81756293fa5" target="_top" xlink:title=" ">
<polygon fill="white" stroke="#666666" points="722,-20 658.75,-20 658.75,0 722,0 722,-20"/>
<text text-anchor="middle" x="690.38" y="-6.5" font-family="Helvetica,sans-Serif" font-size="10.00">writeToFile</text>
</a>
</g>
</g>
<!-- Node4&#45;&gt;Node15 -->
<g id="edge23_Node000004_Node000015" class="edge">
<title>Node4&#45;&gt;Node15</title>
<g id="a_edge23_Node000004_Node000015"><a xlink:title=" ">
<path fill="none" stroke="#63b8ff" d="M568.65,-94.51C586.79,-80.3 620.51,-54.39 650.5,-34 654.23,-31.46 658.22,-28.87 662.17,-26.37"/>
<polygon fill="#63b8ff" stroke="#63b8ff" points="663.81,-29.47 670.46,-21.23 660.12,-23.52 663.81,-29.47"/>
</a>
</g>
</g>
<!-- Node7 -->
<g id="Node000007" class="node">
<title>Node7</title>
<g id="a_Node000007"><a xlink:href="_text_manager_8cpp.html#a85a282af68cca7cf7d69487d1bacdc47" target="_top" xlink:title=" ">
<polygon fill="white" stroke="#666666" points="868.88,-172 784.62,-172 784.62,-152 868.88,-152 868.88,-172"/>
<text text-anchor="middle" x="826.75" y="-158.5" font-family="Helvetica,sans-Serif" font-size="10.00">extractBetween</text>
</a>
</g>
</g>
<!-- Node6&#45;&gt;Node7 -->
<g id="edge6_Node000006_Node000007" class="edge">
<title>Node6&#45;&gt;Node7</title>
<g id="a_edge6_Node000006_Node000007"><a xlink:title=" ">
<path fill="none" stroke="#63b8ff" d="M714.47,-130.53C731.86,-135.45 756.28,-142.36 777.83,-148.45"/>
<polygon fill="#63b8ff" stroke="#63b8ff" points="776.74,-151.78 787.32,-151.13 778.65,-145.04 776.74,-151.78"/>
</a>
</g>
</g>
<!-- Node13 -->
<g id="Node000013" class="node">
<title>Node13</title>
<g id="a_Node000013"><a xlink:href="_text_manager_8cpp.html#a84a9e24fc5cce3cebf746bb656909bf8" target="_top" xlink:title=" ">
<polygon fill="white" stroke="#666666" points="887.25,-134 766.25,-134 766.25,-114 887.25,-114 887.25,-134"/>
<text text-anchor="middle" x="826.75" y="-120.5" font-family="Helvetica,sans-Serif" font-size="10.00">extractBetweenReverse</text>
</a>
</g>
</g>
<!-- Node6&#45;&gt;Node13 -->
<g id="edge15_Node000006_Node000013" class="edge">
<title>Node6&#45;&gt;Node13</title>
<g id="a_edge15_Node000006_Node000013"><a xlink:title=" ">
<path fill="none" stroke="#63b8ff" d="M714.47,-124C725.84,-124 740.21,-124 754.82,-124"/>
<polygon fill="#63b8ff" stroke="#63b8ff" points="754.48,-127.5 764.48,-124 754.48,-120.5 754.48,-127.5"/>
</a>
</g>
</g>
<!-- Node7&#45;&gt;Node8 -->
<g id="edge7_Node000007_Node000008" class="edge">
<title>Node7&#45;&gt;Node8</title>
<g id="a_edge7_Node000007_Node000008"><a xlink:title=" ">
<path fill="none" stroke="#63b8ff" d="M869.37,-156.2C883.96,-154.16 900.48,-151.86 915.58,-149.75"/>
<polygon fill="#63b8ff" stroke="#63b8ff" points="915.88,-153.24 925.3,-148.4 914.91,-146.31 915.88,-153.24"/>
</a>
</g>
</g>
<!-- Node7&#45;&gt;Node12 -->
<g id="edge13_Node000007_Node000012" class="edge">
<title>Node7&#45;&gt;Node12</title>
<g id="a_edge13_Node000007_Node000012"><a xlink:title=" ">
<path fill="none" stroke="#63b8ff" d="M866.9,-151.54C873.84,-149.11 880.88,-146.27 887.25,-143 908.16,-132.27 929.42,-115.97 944.25,-103.55"/>
<polygon fill="#63b8ff" stroke="#63b8ff" points="946.13,-106.55 951.44,-97.38 941.57,-101.23 946.13,-106.55"/>
</a>
</g>
</g>
<!-- Node9 -->
<g id="Node000009" class="node">
<title>Node9</title>
<g id="a_Node000009"><a xlink:href="_text_manager_8cpp.html#a5b66873abcff2faee361721f86b65dd0" target="_top" xlink:title=" ">
<polygon fill="white" stroke="#666666" points="1121,-134 1053.25,-134 1053.25,-114 1121,-114 1121,-134"/>
<text text-anchor="middle" x="1087.12" y="-120.5" font-family="Helvetica,sans-Serif" font-size="10.00">getPosAfter</text>
</a>
</g>
</g>
<!-- Node8&#45;&gt;Node9 -->
<g id="edge8_Node000008_Node000009" class="edge">
<title>Node8&#45;&gt;Node9</title>
<g id="a_edge8_Node000008_Node000009"><a xlink:title=" ">
<path fill="none" stroke="#63b8ff" d="M1003.35,-137.09C1015.48,-135.17 1029.05,-133.03 1041.65,-131.03"/>
<polygon fill="#63b8ff" stroke="#63b8ff" points="1042.04,-134.52 1051.38,-129.5 1040.95,-127.6 1042.04,-134.52"/>
</a>
</g>
</g>
<!-- Node11 -->
<g id="Node000011" class="node">
<title>Node11</title>
<g id="a_Node000011"><a xlink:href="_text_manager_8cpp.html#a2946b90fb3df56b0a74d53eb4160f4e2" target="_top" xlink:title=" ">
<polygon fill="white" stroke="#666666" points="1131.5,-172 1042.75,-172 1042.75,-152 1131.5,-152 1131.5,-172"/>
<text text-anchor="middle" x="1087.12" y="-158.5" font-family="Helvetica,sans-Serif" font-size="10.00">getStringStarting</text>
</a>
</g>
</g>
<!-- Node8&#45;&gt;Node11 -->
<g id="edge10_Node000008_Node000011" class="edge">
<title>Node8&#45;&gt;Node11</title>
<g id="a_edge10_Node000008_Node000011"><a xlink:title=" ">
<path fill="none" stroke="#63b8ff" d="M1003.35,-148.91C1012.16,-150.3 1021.74,-151.82 1031.15,-153.31"/>
<polygon fill="#63b8ff" stroke="#63b8ff" points="1030.57,-156.76 1040.99,-154.86 1031.66,-149.84 1030.57,-156.76"/>
</a>
</g>
</g>
<!-- Node10 -->
<g id="Node000010" class="node">
<title>Node10</title>
<g id="a_Node000010"><a xlink:href="_text_manager_8cpp.html#a3f4afb2b62acd297e783a22ffa9a7000" target="_top" xlink:title=" ">
<polygon fill="white" stroke="#666666" points="1257.75,-134 1167.5,-134 1167.5,-114 1257.75,-114 1257.75,-134"/>
<text text-anchor="middle" x="1212.62" y="-120.5" font-family="Helvetica,sans-Serif" font-size="10.00">getSequencePos</text>
</a>
</g>
</g>
<!-- Node9&#45;&gt;Node10 -->
<g id="edge9_Node000009_Node000010" class="edge">
<title>Node9&#45;&gt;Node10</title>
<g id="a_edge9_Node000009_Node000010"><a xlink:title=" ">
<path fill="none" stroke="#63b8ff" d="M1121.22,-124C1131.94,-124 1144.14,-124 1156.04,-124"/>
<polygon fill="#63b8ff" stroke="#63b8ff" points="1155.77,-127.5 1165.77,-124 1155.77,-120.5 1155.77,-127.5"/>
</a>
</g>
</g>
<!-- Node11&#45;&gt;Node10 -->
<g id="edge11_Node000011_Node000010" class="edge">
<title>Node11&#45;&gt;Node10</title>
<g id="a_edge11_Node000011_Node000010"><a xlink:title=" ">
<path fill="none" stroke="#63b8ff" d="M1122.2,-151.52C1135.97,-147.28 1152.05,-142.33 1166.75,-137.81"/>
<polygon fill="#63b8ff" stroke="#63b8ff" points="1167.69,-141.18 1176.22,-134.9 1165.63,-134.49 1167.69,-141.18"/>
</a>
</g>
</g>
<!-- Node11&#45;&gt;Node11 -->
<g id="edge12_Node000011_Node000011" class="edge">
<title>Node11&#45;&gt;Node11</title>
<g id="a_edge12_Node000011_Node000011"><a xlink:title=" ">
<path fill="none" stroke="#63b8ff" d="M1067.72,-172.34C1059.43,-180.98 1065.9,-190 1087.12,-190 1098.73,-190 1105.93,-187.3 1108.71,-183.44"/>
<polygon fill="#63b8ff" stroke="#63b8ff" points="1112.18,-182.96 1106.82,-173.82 1105.31,-184.31 1112.18,-182.96"/>
</a>
</g>
</g>
<!-- Node12&#45;&gt;Node10 -->
<g id="edge14_Node000012_Node000010" class="edge">
<title>Node12&#45;&gt;Node10</title>
<g id="a_edge14_Node000012_Node000010"><a xlink:title=" ">
<path fill="none" stroke="#63b8ff" d="M1007,-89.34C1040.61,-92.41 1089.34,-97.61 1131.5,-105 1141.01,-106.67 1151.09,-108.78 1160.76,-110.98"/>
<polygon fill="#63b8ff" stroke="#63b8ff" points="1159.87,-114.37 1170.4,-113.25 1161.47,-107.55 1159.87,-114.37"/>
</a>
</g>
</g>
<!-- Node13&#45;&gt;Node8 -->
<g id="edge16_Node000013_Node000008" class="edge">
<title>Node13&#45;&gt;Node8</title>
<g id="a_edge16_Node000013_Node000008"><a xlink:title=" ">
<path fill="none" stroke="#63b8ff" d="M887.51,-132.33C896.86,-133.64 906.43,-134.97 915.49,-136.23"/>
<polygon fill="#63b8ff" stroke="#63b8ff" points="914.75,-139.67 925.14,-137.58 915.72,-132.73 914.75,-139.67"/>
</a>
</g>
</g>
<!-- Node13&#45;&gt;Node12 -->
<g id="edge17_Node000013_Node000012" class="edge">
<title>Node13&#45;&gt;Node12</title>
<g id="a_edge17_Node000013_Node000012"><a xlink:title=" ">
<path fill="none" stroke="#63b8ff" d="M865.34,-113.52C880.83,-109.2 898.97,-104.14 915.45,-99.54"/>
<polygon fill="#63b8ff" stroke="#63b8ff" points="916.38,-102.91 925.07,-96.86 914.5,-96.17 916.38,-102.91"/>
</a>
</g>
</g>
<!-- Node14&#45;&gt;Node8 -->
<g id="edge21_Node000014_Node000008" class="edge">
<title>Node14&#45;&gt;Node8</title>
<g id="a_edge21_Node000014_Node000008"><a xlink:title=" ">
<path fill="none" stroke="#63b8ff" d="M863.62,-96.49C871.48,-99.06 879.71,-101.95 887.25,-105 903.4,-111.53 920.84,-120.04 935,-127.35"/>
<polygon fill="#63b8ff" stroke="#63b8ff" points="933.3,-130.41 943.79,-131.95 936.55,-124.21 933.3,-130.41"/>
</a>
</g>
</g>
<!-- Node14&#45;&gt;Node12 -->
<g id="edge22_Node000014_Node000012" class="edge">
<title>Node14&#45;&gt;Node12</title>
<g id="a_edge22_Node000014_Node000012"><a xlink:title=" ">
<path fill="none" stroke="#63b8ff" d="M866.79,-86C880.83,-86 896.89,-86 911.87,-86"/>
<polygon fill="#63b8ff" stroke="#63b8ff" points="911.54,-89.5 921.54,-86 911.54,-82.5 911.54,-89.5"/>
</a>
</g>
</g>
<!-- Node16 -->
<g id="Node000016" class="node">
<title>Node16</title>
<g id="a_Node000016"><a xlink:href="_text_manager_8cpp.html#a4a86df56d2737552b2fd63bfa85c5800" target="_top" xlink:title=" ">
<polygon fill="white" stroke="#666666" points="869.62,-20 783.88,-20 783.88,0 869.62,0 869.62,-20"/>
<text text-anchor="middle" x="826.75" y="-6.5" font-family="Helvetica,sans-Serif" font-size="10.00">getOfstreamFile</text>
</a>
</g>
</g>
<!-- Node15&#45;&gt;Node16 -->
<g id="edge24_Node000015_Node000016" class="edge">
<title>Node15&#45;&gt;Node16</title>
<g id="a_edge24_Node000015_Node000016"><a xlink:title=" ">
<path fill="none" stroke="#63b8ff" d="M722.2,-10C737,-10 755.16,-10 772.12,-10"/>
<polygon fill="#63b8ff" stroke="#63b8ff" points="772.1,-13.5 782.1,-10 772.1,-6.5 772.1,-13.5"/>
</a>
</g>
</g>
</g>
</svg>

<g id="navigator" transform="translate(0 0)" fill="#404254">
  <rect fill="#f2f5e9" fill-opacity="0.5" stroke="#606060" stroke-width=".5" x="0" y="0" width="60" height="60"/>
  <use id="zoomplus" xlink:href="#zoomPlus" x="17" y="9" onmousedown="handleZoom(evt,'in')"/>
  <use id="zoomminus" xlink:href="#zoomMin" x="42" y="9" onmousedown="handleZoom(evt,'out')"/>
  <use id="reset" xlink:href="#resetDef" x="30" y="36" onmousedown="handleReset()"/>
   <use id="arrowup" xlink:href="#arrowUp" x="0" y="0" onmousedown="handlePan(0,-1)"/>
  <use id="arrowright" xlink:href="#arrowRight" x="0" y="0" onmousedown="handlePan(1,0)"/>
  <use id="arrowdown" xlink:href="#arrowDown" x="0" y="0" onmousedown="handlePan(0,1)"/>
  <use id="arrowleft" xlink:href="#arrowLeft" x="0" y="0" onmousedown="handlePan(-1,0)"/>
</g>
<svg viewBox="0 0 15 15" width="100%" height="30px" preserveAspectRatio="xMaxYMin meet">
 <g id="arrow_out" transform="scale(0.3 0.3)">
  <a xlink:href="class_bot_config_a53485f20f89c00397495b545b91044da_cgraph_org.svg" target="_base">
   <rect id="button" ry="5" rx="5" y="6" x="6" height="38" width="38"
        fill="#f2f5e9" fill-opacity="0.5" stroke="#606060" stroke-width="1.0"/>
   <path id="arrow"
     d="M 11.500037,31.436501 C 11.940474,20.09759 22.043105,11.32322 32.158766,21.979434 L 37.068811,17.246167 C 37.068811,17.246167 37.088388,32 37.088388,32 L 22.160133,31.978069 C 22.160133,31.978069 26.997745,27.140456 26.997745,27.140456 C 18.528582,18.264221 13.291696,25.230495 11.500037,31.436501 z"
     style="fill:#404040;"/>
  </a>
 </g>
</svg>

<style type='text/css'>
<![CDATA[
[data-mouse-over-selected='false'] { opacity: 0.7; }
[data-mouse-over-selected='true']  { opacity: 1.0; }
]]>
</style>
<script type="application/ecmascript"><![CDATA[
document.addEventListener('DOMContentLoaded', (event) => {
  highlightEdges();
  highlightAdjacentNodes();
});
]]></script>
</svg>
