<?xml version="1.0" encoding="UTF-8" standalone="no"?>
<!DOCTYPE svg PUBLIC "-//W3C//DTD SVG 1.1//EN"
 "http://www.w3.org/Graphics/SVG/1.1/DTD/svg11.dtd">
<!-- Generated by graphviz version 12.2.0 (20241103.1931)
 -->
<!-- Title: Interactions::orderDigits Pages: 1 -->
<svg width="618pt" height="218pt"
 viewBox="0.00 0.00 618.00 218.00" xmlns="http://www.w3.org/2000/svg" xmlns:xlink="http://www.w3.org/1999/xlink">
<g id="graph0" class="graph" transform="scale(1 1) rotate(0) translate(4 214)">
<title>Interactions::orderDigits</title>
<!-- Node1 -->
<g id="Node000001" class="node">
<title>Node1</title>
<g id="a_Node000001"><a xlink:title=" ">
<polygon fill="#999999" stroke="#666666" points="610,-134 489.75,-134 489.75,-114 610,-114 610,-134"/>
<text text-anchor="middle" x="549.88" y="-120.5" font-family="Helvetica,sans-Serif" font-size="10.00">Interactions::orderDigits</text>
</a>
</g>
</g>
<!-- Node2 -->
<g id="Node000002" class="node">
<title>Node2</title>
<g id="a_Node000002"><a xlink:href="class_interactions.html#a834d2963fb9d55be32d7123f94057c1c" target="_top" xlink:title=" ">
<polygon fill="white" stroke="#666666" points="453.75,-200 300.5,-200 300.5,-180 453.75,-180 453.75,-200"/>
<text text-anchor="middle" x="377.12" y="-186.5" font-family="Helvetica,sans-Serif" font-size="10.00">Interactions::fNumberDecimalA</text>
</a>
</g>
</g>
<!-- Node1&#45;&gt;Node2 -->
<g id="edge1_Node000001_Node000002" class="edge">
<title>Node1&#45;&gt;Node2</title>
<g id="a_edge1_Node000001_Node000002"><a xlink:title=" ">
<path fill="none" stroke="#63b8ff" d="M520.94,-139.77C502.35,-149.77 477.13,-162.4 453.75,-171 444.98,-174.23 435.45,-177.09 426.2,-179.56"/>
<polygon fill="#63b8ff" stroke="#63b8ff" points="522.37,-142.98 529.47,-135.11 519.02,-136.84 522.37,-142.98"/>
</a>
</g>
</g>
<!-- Node3 -->
<g id="Node000003" class="node">
<title>Node3</title>
<g id="a_Node000003"><a xlink:href="class_interactions.html#a4b05b281fd479a1e86264290462f7112" target="_top" xlink:title=" ">
<polygon fill="white" stroke="#666666" points="453.75,-162 300.5,-162 300.5,-142 453.75,-142 453.75,-162"/>
<text text-anchor="middle" x="377.12" y="-148.5" font-family="Helvetica,sans-Serif" font-size="10.00">Interactions::fNumberDecimalA</text>
</a>
</g>
</g>
<!-- Node1&#45;&gt;Node3 -->
<g id="edge2_Node000001_Node000003" class="edge">
<title>Node1&#45;&gt;Node3</title>
<g id="a_edge2_Node000001_Node000003"><a xlink:title=" ">
<path fill="none" stroke="#63b8ff" d="M478.62,-135.52C466.47,-137.51 453.89,-139.58 441.92,-141.54"/>
<polygon fill="#63b8ff" stroke="#63b8ff" points="478.84,-139.03 488.14,-133.96 477.71,-132.12 478.84,-139.03"/>
</a>
</g>
</g>
<!-- Node6 -->
<g id="Node000006" class="node">
<title>Node6</title>
<g id="a_Node000006"><a xlink:href="class_interactions.html#a7a8357271583869fba1939d42718a569" target="_top" xlink:title=" ">
<polygon fill="white" stroke="#666666" points="450.75,-115 303.5,-115 303.5,-95 450.75,-95 450.75,-115"/>
<text text-anchor="middle" x="377.12" y="-101.5" font-family="Helvetica,sans-Serif" font-size="10.00">Interactions::fNumberIntegerA</text>
</a>
</g>
</g>
<!-- Node1&#45;&gt;Node6 -->
<g id="edge5_Node000001_Node000006" class="edge">
<title>Node1&#45;&gt;Node6</title>
<g id="a_edge5_Node000001_Node000006"><a xlink:title=" ">
<path fill="none" stroke="#63b8ff" d="M478.38,-116.16C469.38,-115.15 460.15,-114.13 451.11,-113.12"/>
<polygon fill="#63b8ff" stroke="#63b8ff" points="477.8,-119.61 488.13,-117.24 478.58,-112.66 477.8,-119.61"/>
</a>
</g>
</g>
<!-- Node11 -->
<g id="Node000011" class="node">
<title>Node11</title>
<g id="a_Node000011"><a xlink:href="class_interactions.html#ab309ac8a5a9dce72e641a1d83dfddcb4" target="_top" xlink:title=" ">
<polygon fill="white" stroke="#666666" points="450.75,-77 303.5,-77 303.5,-57 450.75,-57 450.75,-77"/>
<text text-anchor="middle" x="377.12" y="-63.5" font-family="Helvetica,sans-Serif" font-size="10.00">Interactions::fNumberIntegerA</text>
</a>
</g>
</g>
<!-- Node1&#45;&gt;Node11 -->
<g id="edge12_Node000001_Node000011" class="edge">
<title>Node1&#45;&gt;Node11</title>
<g id="a_edge12_Node000001_Node000011"><a xlink:title=" ">
<path fill="none" stroke="#63b8ff" d="M514.82,-109.11C496.86,-101.59 474.35,-92.67 453.75,-86 444.22,-82.91 433.88,-80.03 423.99,-77.48"/>
<polygon fill="#63b8ff" stroke="#63b8ff" points="513.39,-112.3 523.96,-112.99 516.12,-105.86 513.39,-112.3"/>
</a>
</g>
</g>
<!-- Node4 -->
<g id="Node000004" class="node">
<title>Node4</title>
<g id="a_Node000004"><a xlink:href="class_arena.html#a1de3cf9bc5b3afd9ce88edd8ec9a4563" target="_top" xlink:title=" ">
<polygon fill="white" stroke="#666666" points="247.62,-210 156.62,-210 156.62,-190 247.62,-190 247.62,-210"/>
<text text-anchor="middle" x="202.12" y="-196.5" font-family="Helvetica,sans-Serif" font-size="10.00">Arena::doActivity</text>
</a>
</g>
</g>
<!-- Node3&#45;&gt;Node4 -->
<g id="edge3_Node000003_Node000004" class="edge">
<title>Node3&#45;&gt;Node4</title>
<g id="a_edge3_Node000003_Node000004"><a xlink:title=" ">
<path fill="none" stroke="#63b8ff" d="M322.26,-165.23C314.93,-167.12 307.52,-169.07 300.5,-171 279.24,-176.83 255.52,-183.89 236.82,-189.57"/>
<polygon fill="#63b8ff" stroke="#63b8ff" points="322.95,-168.66 331.78,-162.8 321.23,-161.88 322.95,-168.66"/>
</a>
</g>
</g>
<!-- Node5 -->
<g id="Node000005" class="node">
<title>Node5</title>
<g id="a_Node000005"><a xlink:href="class_otherworld.html#a98c0d70a80579783f415323ccbb0e0a3" target="_top" xlink:title=" ">
<polygon fill="white" stroke="#666666" points="258.5,-172 145.75,-172 145.75,-152 258.5,-152 258.5,-172"/>
<text text-anchor="middle" x="202.12" y="-158.5" font-family="Helvetica,sans-Serif" font-size="10.00">Otherworld::doActivity</text>
</a>
</g>
</g>
<!-- Node3&#45;&gt;Node5 -->
<g id="edge4_Node000003_Node000005" class="edge">
<title>Node3&#45;&gt;Node5</title>
<g id="a_edge4_Node000003_Node000005"><a xlink:title=" ">
<path fill="none" stroke="#63b8ff" d="M288.8,-157.05C278.64,-157.64 268.49,-158.22 258.92,-158.77"/>
<polygon fill="#63b8ff" stroke="#63b8ff" points="288.95,-160.54 298.73,-156.47 288.55,-153.56 288.95,-160.54"/>
</a>
</g>
</g>
<!-- Node7 -->
<g id="Node000007" class="node">
<title>Node7</title>
<g id="a_Node000007"><a xlink:href="class_alchemy.html#ae1ada9705b99bbeb5a4c5cfa1003424a" target="_top" xlink:title=" ">
<polygon fill="white" stroke="#666666" points="261.88,-134 142.38,-134 142.38,-114 261.88,-114 261.88,-134"/>
<text text-anchor="middle" x="202.12" y="-120.5" font-family="Helvetica,sans-Serif" font-size="10.00">Alchemy::craftBetterPill</text>
</a>
</g>
</g>
<!-- Node6&#45;&gt;Node7 -->
<g id="edge6_Node000006_Node000007" class="edge">
<title>Node6&#45;&gt;Node7</title>
<g id="a_edge6_Node000006_Node000007"><a xlink:title=" ">
<path fill="none" stroke="#63b8ff" d="M291.82,-114.26C281.86,-115.35 271.87,-116.45 262.37,-117.49"/>
<polygon fill="#63b8ff" stroke="#63b8ff" points="291.95,-117.77 301.5,-113.2 291.18,-110.81 291.95,-117.77"/>
</a>
</g>
</g>
<!-- Node8 -->
<g id="Node000008" class="node">
<title>Node8</title>
<g id="a_Node000008"><a xlink:href="class_alchemy.html#aad0ec6faf7a5f72d0392ee1a7fbe94f9" target="_top" xlink:title=" ">
<polygon fill="white" stroke="#666666" points="103.75,-96 0,-96 0,-76 103.75,-76 103.75,-96"/>
<text text-anchor="middle" x="51.88" y="-82.5" font-family="Helvetica,sans-Serif" font-size="10.00">Alchemy::doActivity</text>
</a>
</g>
</g>
<!-- Node6&#45;&gt;Node8 -->
<g id="edge10_Node000006_Node000008" class="edge">
<title>Node6&#45;&gt;Node8</title>
<g id="a_edge10_Node000006_Node000008"><a xlink:title=" ">
<path fill="none" stroke="#63b8ff" d="M291.9,-100.05C232.31,-96.55 154.35,-91.96 103.94,-89"/>
<polygon fill="#63b8ff" stroke="#63b8ff" points="291.48,-103.53 301.67,-100.62 291.89,-96.54 291.48,-103.53"/>
</a>
</g>
</g>
<!-- Node9 -->
<g id="Node000009" class="node">
<title>Node9</title>
<g id="a_Node000009"><a xlink:href="class_alchemy.html#a3f9c7cdb0d2b8df78c40bb3e4374d3c1" target="_top" xlink:title=" ">
<polygon fill="white" stroke="#666666" points="264.5,-58 139.75,-58 139.75,-38 264.5,-38 264.5,-58"/>
<text text-anchor="middle" x="202.12" y="-44.5" font-family="Helvetica,sans-Serif" font-size="10.00">Alchemy::craftNormalPill</text>
</a>
</g>
</g>
<!-- Node6&#45;&gt;Node9 -->
<g id="edge8_Node000006_Node000009" class="edge">
<title>Node6&#45;&gt;Node9</title>
<g id="a_edge8_Node000006_Node000009"><a xlink:title=" ">
<path fill="none" stroke="#63b8ff" d="M319.76,-91.67C313.23,-89.88 306.7,-87.98 300.5,-86 299.6,-85.71 258.43,-69.63 229.92,-58.48"/>
<polygon fill="#63b8ff" stroke="#63b8ff" points="318.65,-95 329.21,-94.18 320.44,-88.23 318.65,-95"/>
</a>
</g>
</g>
<!-- Node10 -->
<g id="Node000010" class="node">
<title>Node10</title>
<g id="a_Node000010"><a xlink:href="class_garden.html#aa57f4ad267096e9c448782c6f8ee82ff" target="_top" xlink:title=" ">
<polygon fill="white" stroke="#666666" points="250.62,-20 153.62,-20 153.62,0 250.62,0 250.62,-20"/>
<text text-anchor="middle" x="202.12" y="-6.5" font-family="Helvetica,sans-Serif" font-size="10.00">Garden::doActivity</text>
</a>
</g>
</g>
<!-- Node6&#45;&gt;Node10 -->
<g id="edge11_Node000006_Node000010" class="edge">
<title>Node6&#45;&gt;Node10</title>
<g id="a_edge11_Node000006_Node000010"><a xlink:title=" ">
<path fill="none" stroke="#63b8ff" d="M306.02,-89.59C304.11,-88.47 302.27,-87.28 300.5,-86 276.23,-68.42 288.28,-47.22 264.5,-29 259.98,-25.54 254.83,-22.7 249.48,-20.38"/>
<polygon fill="#63b8ff" stroke="#63b8ff" points="304.1,-92.55 314.62,-93.85 307.21,-86.27 304.1,-92.55"/>
</a>
</g>
</g>
<!-- Node7&#45;&gt;Node8 -->
<g id="edge7_Node000007_Node000008" class="edge">
<title>Node7&#45;&gt;Node8</title>
<g id="a_edge7_Node000007_Node000008"><a xlink:title=" ">
<path fill="none" stroke="#63b8ff" d="M149.18,-110.69C130.98,-106.02 110.8,-100.85 93.64,-96.45"/>
<polygon fill="#63b8ff" stroke="#63b8ff" points="148.2,-114.05 158.76,-113.14 149.94,-107.27 148.2,-114.05"/>
</a>
</g>
</g>
<!-- Node9&#45;&gt;Node8 -->
<g id="edge9_Node000009_Node000008" class="edge">
<title>Node9&#45;&gt;Node8</title>
<g id="a_edge9_Node000009_Node000008"><a xlink:title=" ">
<path fill="none" stroke="#63b8ff" d="M149.18,-61.31C130.98,-65.98 110.8,-71.15 93.64,-75.55"/>
<polygon fill="#63b8ff" stroke="#63b8ff" points="149.94,-64.73 158.76,-58.86 148.2,-57.95 149.94,-64.73"/>
</a>
</g>
</g>
</g>
</svg>
