<?xml version="1.0" encoding="UTF-8" standalone="no"?>
<!DOCTYPE svg PUBLIC "-//W3C//DTD SVG 1.1//EN"
 "http://www.w3.org/Graphics/SVG/1.1/DTD/svg11.dtd">
<!-- Generated by graphviz version 12.2.0 (20241103.1931)
 -->
<!-- Title: screenshot Pages: 1 -->
<svg width="598pt" height="66pt"
 viewBox="0.00 0.00 597.50 66.00" xmlns="http://www.w3.org/2000/svg" xmlns:xlink="http://www.w3.org/1999/xlink">
<g id="graph0" class="graph" transform="scale(1 1) rotate(0) translate(4 62)">
<title>screenshot</title>
<!-- Node1 -->
<g id="Node000001" class="node">
<title>Node1</title>
<g id="a_Node000001"><a xlink:title=" ">
<polygon fill="#999999" stroke="#666666" points="64,-39 0,-39 0,-19 64,-19 64,-39"/>
<text text-anchor="middle" x="32" y="-25.5" font-family="Helvetica,sans-Serif" font-size="10.00">screenshot</text>
</a>
</g>
</g>
<!-- Node2 -->
<g id="Node000002" class="node">
<title>Node2</title>
<g id="a_Node000002"><a xlink:href="fadb_8cpp.html#a7ab9819839864ebd26d0e7e68e330418" target="_top" xlink:title=" ">
<polygon fill="white" stroke="#666666" points="184.25,-39 100,-39 100,-19 184.25,-19 184.25,-39"/>
<text text-anchor="middle" x="142.12" y="-25.5" font-family="Helvetica,sans-Serif" font-size="10.00">takeScreenshot</text>
</a>
</g>
</g>
<!-- Node1&#45;&gt;Node2 -->
<g id="edge1_Node000001_Node000002" class="edge">
<title>Node1&#45;&gt;Node2</title>
<g id="a_edge1_Node000001_Node000002"><a xlink:title=" ">
<path fill="none" stroke="#63b8ff" d="M64.27,-29C71.91,-29 80.28,-29 88.61,-29"/>
<polygon fill="#63b8ff" stroke="#63b8ff" points="88.34,-32.5 98.34,-29 88.34,-25.5 88.34,-32.5"/>
</a>
</g>
</g>
<!-- Node3 -->
<g id="Node000003" class="node">
<title>Node3</title>
<g id="a_Node000003"><a xlink:href="fadb_8cpp.html#ac6339b59ba8238f7483dece7f3fdf51b" target="_top" xlink:title=" ">
<polygon fill="white" stroke="#666666" points="309,-39 220.25,-39 220.25,-19 309,-19 309,-39"/>
<text text-anchor="middle" x="264.62" y="-25.5" font-family="Helvetica,sans-Serif" font-size="10.00">runAdbLocalhost</text>
</a>
</g>
</g>
<!-- Node2&#45;&gt;Node3 -->
<g id="edge2_Node000002_Node000003" class="edge">
<title>Node2&#45;&gt;Node3</title>
<g id="a_edge2_Node000002_Node000003"><a xlink:title=" ">
<path fill="none" stroke="#63b8ff" d="M184.59,-29C192.37,-29 200.61,-29 208.71,-29"/>
<polygon fill="#63b8ff" stroke="#63b8ff" points="208.51,-32.5 218.51,-29 208.51,-25.5 208.51,-32.5"/>
</a>
</g>
</g>
<!-- Node4 -->
<g id="Node000004" class="node">
<title>Node4</title>
<g id="a_Node000004"><a xlink:href="fadb_8cpp.html#a383ae5fedc9f597a03c74c729a2eb740" target="_top" xlink:title=" ">
<polygon fill="white" stroke="#666666" points="391.75,-39 345,-39 345,-19 391.75,-19 391.75,-39"/>
<text text-anchor="middle" x="368.38" y="-25.5" font-family="Helvetica,sans-Serif" font-size="10.00">runAdb</text>
</a>
</g>
</g>
<!-- Node3&#45;&gt;Node4 -->
<g id="edge3_Node000003_Node000004" class="edge">
<title>Node3&#45;&gt;Node4</title>
<g id="a_edge3_Node000003_Node000004"><a xlink:title=" ">
<path fill="none" stroke="#63b8ff" d="M309.37,-29C317.36,-29 325.58,-29 333.24,-29"/>
<polygon fill="#63b8ff" stroke="#63b8ff" points="333.18,-32.5 343.18,-29 333.18,-25.5 333.18,-32.5"/>
</a>
</g>
</g>
<!-- Node5 -->
<g id="Node000005" class="node">
<title>Node5</title>
<g id="a_Node000005"><a xlink:href="sys_commands_8cpp.html#a321eb7e335377aa7182bafc8a1605032" target="_top" xlink:title=" ">
<polygon fill="white" stroke="#666666" points="494.75,-39 427.75,-39 427.75,-19 494.75,-19 494.75,-39"/>
<text text-anchor="middle" x="461.25" y="-25.5" font-family="Helvetica,sans-Serif" font-size="10.00">receivePipe</text>
</a>
</g>
</g>
<!-- Node4&#45;&gt;Node5 -->
<g id="edge4_Node000004_Node000005" class="edge">
<title>Node4&#45;&gt;Node5</title>
<g id="a_edge4_Node000004_Node000005"><a xlink:title=" ">
<path fill="none" stroke="#63b8ff" d="M391.84,-29C399.21,-29 407.68,-29 416.08,-29"/>
<polygon fill="#63b8ff" stroke="#63b8ff" points="415.89,-32.5 425.89,-29 415.89,-25.5 415.89,-32.5"/>
</a>
</g>
</g>
<!-- Node6 -->
<g id="Node000006" class="node">
<title>Node6</title>
<g id="a_Node000006"><a xlink:href="sys_commands_8cpp.html#a4771c79171a937893508dabadadbe099" target="_top" xlink:title=" ">
<polygon fill="white" stroke="#666666" points="589.5,-58 530.75,-58 530.75,-38 589.5,-38 589.5,-58"/>
<text text-anchor="middle" x="560.12" y="-44.5" font-family="Helvetica,sans-Serif" font-size="10.00">closePipe</text>
</a>
</g>
</g>
<!-- Node5&#45;&gt;Node6 -->
<g id="edge5_Node000005_Node000006" class="edge">
<title>Node5&#45;&gt;Node6</title>
<g id="a_edge5_Node000005_Node000006"><a xlink:title=" ">
<path fill="none" stroke="#63b8ff" d="M495.05,-35.43C502.81,-36.95 511.17,-38.59 519.21,-40.17"/>
<polygon fill="#63b8ff" stroke="#63b8ff" points="518.28,-43.56 528.77,-42.05 519.63,-36.69 518.28,-43.56"/>
</a>
</g>
</g>
<!-- Node7 -->
<g id="Node000007" class="node">
<title>Node7</title>
<g id="a_Node000007"><a xlink:href="sys_commands_8cpp.html#a3499ce0cd7e4ed28b3c5461a4d3aec84" target="_top" xlink:title=" ">
<polygon fill="white" stroke="#666666" points="588.38,-20 531.88,-20 531.88,0 588.38,0 588.38,-20"/>
<text text-anchor="middle" x="560.12" y="-6.5" font-family="Helvetica,sans-Serif" font-size="10.00">openPipe</text>
</a>
</g>
</g>
<!-- Node5&#45;&gt;Node7 -->
<g id="edge6_Node000005_Node000007" class="edge">
<title>Node5&#45;&gt;Node7</title>
<g id="a_edge6_Node000005_Node000007"><a xlink:title=" ">
<path fill="none" stroke="#63b8ff" d="M495.05,-22.57C503.2,-20.97 512.01,-19.24 520.42,-17.59"/>
<polygon fill="#63b8ff" stroke="#63b8ff" points="520.9,-21.06 530.04,-15.7 519.55,-14.19 520.9,-21.06"/>
</a>
</g>
</g>
</g>
</svg>
