<?xml version="1.0" encoding="UTF-8" standalone="no"?>
<!DOCTYPE svg PUBLIC "-//W3C//DTD SVG 1.1//EN"
 "http://www.w3.org/Graphics/SVG/1.1/DTD/svg11.dtd">
<!-- Generated by graphviz version 12.2.0 (20241103.1931)
 -->
<!-- Title: input Pages: 1 -->
<svg width="597pt" height="66pt"
 viewBox="0.00 0.00 596.75 66.00" xmlns="http://www.w3.org/2000/svg" xmlns:xlink="http://www.w3.org/1999/xlink">
<g id="graph0" class="graph" transform="scale(1 1) rotate(0) translate(4 62)">
<title>input</title>
<!-- Node1 -->
<g id="Node000001" class="node">
<title>Node1</title>
<g id="a_Node000001"><a xlink:title=" ">
<polygon fill="#999999" stroke="#666666" points="37,-39 0,-39 0,-19 37,-19 37,-39"/>
<text text-anchor="middle" x="18.5" y="-25.5" font-family="Helvetica,sans-Serif" font-size="10.00">input</text>
</a>
</g>
</g>
<!-- Node2 -->
<g id="Node000002" class="node">
<title>Node2</title>
<g id="a_Node000002"><a xlink:href="fadb_8cpp.html#a0766d8b572678e0a830d45a4dcfb9d4d" target="_top" xlink:title=" ">
<polygon fill="white" stroke="#666666" points="183.5,-39 73,-39 73,-19 183.5,-19 183.5,-39"/>
<text text-anchor="middle" x="128.25" y="-25.5" font-family="Helvetica,sans-Serif" font-size="10.00">runAdbLocalhostShell</text>
</a>
</g>
</g>
<!-- Node1&#45;&gt;Node2 -->
<g id="edge1_Node000001_Node000002" class="edge">
<title>Node1&#45;&gt;Node2</title>
<g id="a_edge1_Node000001_Node000002"><a xlink:title=" ">
<path fill="none" stroke="#63b8ff" d="M37.29,-29C44.19,-29 52.54,-29 61.34,-29"/>
<polygon fill="#63b8ff" stroke="#63b8ff" points="61.14,-32.5 71.14,-29 61.14,-25.5 61.14,-32.5"/>
</a>
</g>
</g>
<!-- Node3 -->
<g id="Node000003" class="node">
<title>Node3</title>
<g id="a_Node000003"><a xlink:href="fadb_8cpp.html#ac6339b59ba8238f7483dece7f3fdf51b" target="_top" xlink:title=" ">
<polygon fill="white" stroke="#666666" points="308.25,-39 219.5,-39 219.5,-19 308.25,-19 308.25,-39"/>
<text text-anchor="middle" x="263.88" y="-25.5" font-family="Helvetica,sans-Serif" font-size="10.00">runAdbLocalhost</text>
</a>
</g>
</g>
<!-- Node2&#45;&gt;Node3 -->
<g id="edge2_Node000002_Node000003" class="edge">
<title>Node2&#45;&gt;Node3</title>
<g id="a_edge2_Node000002_Node000003"><a xlink:title=" ">
<path fill="none" stroke="#63b8ff" d="M183.99,-29C191.83,-29 199.91,-29 207.76,-29"/>
<polygon fill="#63b8ff" stroke="#63b8ff" points="207.54,-32.5 217.54,-29 207.54,-25.5 207.54,-32.5"/>
</a>
</g>
</g>
<!-- Node4 -->
<g id="Node000004" class="node">
<title>Node4</title>
<g id="a_Node000004"><a xlink:href="fadb_8cpp.html#a383ae5fedc9f597a03c74c729a2eb740" target="_top" xlink:title=" ">
<polygon fill="white" stroke="#666666" points="391,-39 344.25,-39 344.25,-19 391,-19 391,-39"/>
<text text-anchor="middle" x="367.62" y="-25.5" font-family="Helvetica,sans-Serif" font-size="10.00">runAdb</text>
</a>
</g>
</g>
<!-- Node3&#45;&gt;Node4 -->
<g id="edge3_Node000003_Node000004" class="edge">
<title>Node3&#45;&gt;Node4</title>
<g id="a_edge3_Node000003_Node000004"><a xlink:title=" ">
<path fill="none" stroke="#63b8ff" d="M308.62,-29C316.61,-29 324.83,-29 332.49,-29"/>
<polygon fill="#63b8ff" stroke="#63b8ff" points="332.43,-32.5 342.43,-29 332.43,-25.5 332.43,-32.5"/>
</a>
</g>
</g>
<!-- Node5 -->
<g id="Node000005" class="node">
<title>Node5</title>
<g id="a_Node000005"><a xlink:href="sys_commands_8cpp.html#a321eb7e335377aa7182bafc8a1605032" target="_top" xlink:title=" ">
<polygon fill="white" stroke="#666666" points="494,-39 427,-39 427,-19 494,-19 494,-39"/>
<text text-anchor="middle" x="460.5" y="-25.5" font-family="Helvetica,sans-Serif" font-size="10.00">receivePipe</text>
</a>
</g>
</g>
<!-- Node4&#45;&gt;Node5 -->
<g id="edge4_Node000004_Node000005" class="edge">
<title>Node4&#45;&gt;Node5</title>
<g id="a_edge4_Node000004_Node000005"><a xlink:title=" ">
<path fill="none" stroke="#63b8ff" d="M391.09,-29C398.46,-29 406.93,-29 415.33,-29"/>
<polygon fill="#63b8ff" stroke="#63b8ff" points="415.14,-32.5 425.14,-29 415.14,-25.5 415.14,-32.5"/>
</a>
</g>
</g>
<!-- Node6 -->
<g id="Node000006" class="node">
<title>Node6</title>
<g id="a_Node000006"><a xlink:href="sys_commands_8cpp.html#a4771c79171a937893508dabadadbe099" target="_top" xlink:title=" ">
<polygon fill="white" stroke="#666666" points="588.75,-58 530,-58 530,-38 588.75,-38 588.75,-58"/>
<text text-anchor="middle" x="559.38" y="-44.5" font-family="Helvetica,sans-Serif" font-size="10.00">closePipe</text>
</a>
</g>
</g>
<!-- Node5&#45;&gt;Node6 -->
<g id="edge5_Node000005_Node000006" class="edge">
<title>Node5&#45;&gt;Node6</title>
<g id="a_edge5_Node000005_Node000006"><a xlink:title=" ">
<path fill="none" stroke="#63b8ff" d="M494.3,-35.43C502.06,-36.95 510.42,-38.59 518.46,-40.17"/>
<polygon fill="#63b8ff" stroke="#63b8ff" points="517.53,-43.56 528.02,-42.05 518.88,-36.69 517.53,-43.56"/>
</a>
</g>
</g>
<!-- Node7 -->
<g id="Node000007" class="node">
<title>Node7</title>
<g id="a_Node000007"><a xlink:href="sys_commands_8cpp.html#a3499ce0cd7e4ed28b3c5461a4d3aec84" target="_top" xlink:title=" ">
<polygon fill="white" stroke="#666666" points="587.62,-20 531.12,-20 531.12,0 587.62,0 587.62,-20"/>
<text text-anchor="middle" x="559.38" y="-6.5" font-family="Helvetica,sans-Serif" font-size="10.00">openPipe</text>
</a>
</g>
</g>
<!-- Node5&#45;&gt;Node7 -->
<g id="edge6_Node000005_Node000007" class="edge">
<title>Node5&#45;&gt;Node7</title>
<g id="a_edge6_Node000005_Node000007"><a xlink:title=" ">
<path fill="none" stroke="#63b8ff" d="M494.3,-22.57C502.45,-20.97 511.26,-19.24 519.67,-17.59"/>
<polygon fill="#63b8ff" stroke="#63b8ff" points="520.15,-21.06 529.29,-15.7 518.8,-14.19 520.15,-21.06"/>
</a>
</g>
</g>
</g>
</svg>
