<?xml version="1.0" encoding="UTF-8" standalone="no"?>
<!DOCTYPE svg PUBLIC "-//W3C//DTD SVG 1.1//EN"
 "http://www.w3.org/Graphics/SVG/1.1/DTD/svg11.dtd">
<!-- Generated by graphviz version 12.2.0 (20241103.1931)
 -->
<!-- Title: onPackage Pages: 1 -->
<svg width="317pt" height="28pt"
 viewBox="0.00 0.00 317.00 28.00" xmlns="http://www.w3.org/2000/svg" xmlns:xlink="http://www.w3.org/1999/xlink">
<g id="graph0" class="graph" transform="scale(1 1) rotate(0) translate(4 24)">
<title>onPackage</title>
<!-- Node1 -->
<g id="Node000001" class="node">
<title>Node1</title>
<g id="a_Node000001"><a xlink:title=" ">
<polygon fill="#999999" stroke="#666666" points="309,-20 244.25,-20 244.25,0 309,0 309,-20"/>
<text text-anchor="middle" x="276.62" y="-6.5" font-family="Helvetica,sans-Serif" font-size="10.00">onPackage</text>
</a>
</g>
</g>
<!-- Node2 -->
<g id="Node000002" class="node">
<title>Node2</title>
<g id="a_Node000002"><a xlink:href="classgame.html#afcd2ff4a7609fb43e06d69b46647a316" target="_top" xlink:title=" ">
<polygon fill="white" stroke="#666666" points="208.25,-20 116.5,-20 116.5,0 208.25,0 208.25,-20"/>
<text text-anchor="middle" x="162.38" y="-6.5" font-family="Helvetica,sans-Serif" font-size="10.00">game::startGame</text>
</a>
</g>
</g>
<!-- Node1&#45;&gt;Node2 -->
<g id="edge1_Node000001_Node000002" class="edge">
<title>Node1&#45;&gt;Node2</title>
<g id="a_edge1_Node000001_Node000002"><a xlink:title=" ">
<path fill="none" stroke="#63b8ff" d="M232.36,-10C224.61,-10 216.53,-10 208.73,-10"/>
<polygon fill="#63b8ff" stroke="#63b8ff" points="232.25,-13.5 242.25,-10 232.25,-6.5 232.25,-13.5"/>
</a>
</g>
</g>
<!-- Node3 -->
<g id="Node000003" class="node">
<title>Node3</title>
<g id="a_Node000003"><a xlink:href="classgame.html#a0a7c02ea9f02e80203667b3d07270293" target="_top" xlink:title=" ">
<polygon fill="white" stroke="#666666" points="80.5,-20 0,-20 0,0 80.5,0 80.5,-20"/>
<text text-anchor="middle" x="40.25" y="-6.5" font-family="Helvetica,sans-Serif" font-size="10.00">game::botLoop</text>
</a>
</g>
</g>
<!-- Node2&#45;&gt;Node3 -->
<g id="edge2_Node000002_Node000003" class="edge">
<title>Node2&#45;&gt;Node3</title>
<g id="a_edge2_Node000002_Node000003"><a xlink:title=" ">
<path fill="none" stroke="#63b8ff" d="M104.86,-10C96.67,-10 88.4,-10 80.66,-10"/>
<polygon fill="#63b8ff" stroke="#63b8ff" points="104.79,-13.5 114.79,-10 104.79,-6.5 104.79,-13.5"/>
</a>
</g>
</g>
</g>
</svg>
