<?xml version="1.0" encoding="UTF-8" standalone="no"?>
<!DOCTYPE svg PUBLIC "-//W3C//DTD SVG 1.1//EN"
 "http://www.w3.org/Graphics/SVG/1.1/DTD/svg11.dtd">
<!-- Generated by graphviz version 12.2.0 (20241103.1931)
 -->
<!-- Title: input Pages: 1 -->
<svg width="454pt" height="408pt"
 viewBox="0.00 0.00 453.75 408.00" xmlns="http://www.w3.org/2000/svg" xmlns:xlink="http://www.w3.org/1999/xlink">
<g id="graph0" class="graph" transform="scale(1 1) rotate(0) translate(4 404)">
<title>input</title>
<!-- Node1 -->
<g id="Node000001" class="node">
<title>Node1</title>
<g id="a_Node000001"><a xlink:title=" ">
<polygon fill="#999999" stroke="#666666" points="445.75,-248 408.75,-248 408.75,-228 445.75,-228 445.75,-248"/>
<text text-anchor="middle" x="427.25" y="-234.5" font-family="Helvetica,sans-Serif" font-size="10.00">input</text>
</a>
</g>
</g>
<!-- Node2 -->
<g id="Node000002" class="node">
<title>Node2</title>
<g id="a_Node000002"><a xlink:href="fadb_8cpp.html#a19fea9f49a77d823c2d231d8a14ef5cd" target="_top" xlink:title=" ">
<polygon fill="white" stroke="#666666" points="370.88,-324 316.62,-324 316.62,-304 370.88,-304 370.88,-324"/>
<text text-anchor="middle" x="343.75" y="-310.5" font-family="Helvetica,sans-Serif" font-size="10.00">adbBack</text>
</a>
</g>
</g>
<!-- Node1&#45;&gt;Node2 -->
<g id="edge1_Node000001_Node000002" class="edge">
<title>Node1&#45;&gt;Node2</title>
<g id="a_edge1_Node000001_Node000002"><a xlink:title=" ">
<path fill="none" stroke="#63b8ff" d="M410.47,-256.83C400.29,-268.45 386.43,-283.32 372.75,-295 369.26,-297.98 365.3,-300.9 361.48,-303.53"/>
<polygon fill="#63b8ff" stroke="#63b8ff" points="412.93,-259.34 416.79,-249.48 407.62,-254.78 412.93,-259.34"/>
</a>
</g>
</g>
<!-- Node3 -->
<g id="Node000003" class="node">
<title>Node3</title>
<g id="a_Node000003"><a xlink:href="fadb_8cpp.html#a83bd07ec6d72e6209af1ab3b9c0c54ef" target="_top" xlink:title=" ">
<polygon fill="white" stroke="#666666" points="372.75,-286 314.75,-286 314.75,-266 372.75,-266 372.75,-286"/>
<text text-anchor="middle" x="343.75" y="-272.5" font-family="Helvetica,sans-Serif" font-size="10.00">adbHome</text>
</a>
</g>
</g>
<!-- Node1&#45;&gt;Node3 -->
<g id="edge2_Node000001_Node000003" class="edge">
<title>Node1&#45;&gt;Node3</title>
<g id="a_edge2_Node000001_Node000003"><a xlink:title=" ">
<path fill="none" stroke="#63b8ff" d="M398.14,-251.11C387.98,-255.84 376.66,-261.12 367.06,-265.6"/>
<polygon fill="#63b8ff" stroke="#63b8ff" points="399.61,-254.28 407.19,-246.89 396.65,-247.94 399.61,-254.28"/>
</a>
</g>
</g>
<!-- Node4 -->
<g id="Node000004" class="node">
<title>Node4</title>
<g id="a_Node000004"><a xlink:href="fadb_8cpp.html#a52f8c6a456c8b5ed9ea479abde58598c" target="_top" xlink:title=" ">
<polygon fill="white" stroke="#666666" points="371.62,-248 315.88,-248 315.88,-228 371.62,-228 371.62,-248"/>
<text text-anchor="middle" x="343.75" y="-234.5" font-family="Helvetica,sans-Serif" font-size="10.00">adbMenu</text>
</a>
</g>
</g>
<!-- Node1&#45;&gt;Node4 -->
<g id="edge3_Node000001_Node000004" class="edge">
<title>Node1&#45;&gt;Node4</title>
<g id="a_edge3_Node000001_Node000004"><a xlink:title=" ">
<path fill="none" stroke="#63b8ff" d="M397.22,-238C389.01,-238 380.12,-238 372.02,-238"/>
<polygon fill="#63b8ff" stroke="#63b8ff" points="397.05,-241.5 407.05,-238 397.05,-234.5 397.05,-241.5"/>
</a>
</g>
</g>
<!-- Node5 -->
<g id="Node000005" class="node">
<title>Node5</title>
<g id="a_Node000005"><a xlink:href="fadb_8cpp.html#aaaa05d37f22f833c0f941bf81f963504" target="_top" xlink:title=" ">
<polygon fill="white" stroke="#666666" points="364.5,-210 323,-210 323,-190 364.5,-190 364.5,-210"/>
<text text-anchor="middle" x="343.75" y="-196.5" font-family="Helvetica,sans-Serif" font-size="10.00">swipe</text>
</a>
</g>
</g>
<!-- Node1&#45;&gt;Node5 -->
<g id="edge4_Node000001_Node000005" class="edge">
<title>Node1&#45;&gt;Node5</title>
<g id="a_edge4_Node000001_Node000005"><a xlink:title=" ">
<path fill="none" stroke="#63b8ff" d="M398.23,-224.93C387.3,-219.84 375.02,-214.11 364.98,-209.43"/>
<polygon fill="#63b8ff" stroke="#63b8ff" points="396.65,-228.06 407.19,-229.11 399.61,-221.72 396.65,-228.06"/>
</a>
</g>
</g>
<!-- Node18 -->
<g id="Node000018" class="node">
<title>Node18</title>
<g id="a_Node000018"><a xlink:href="fadb_8cpp.html#aa473853dcd4f0bff3e28f729af6e9641" target="_top" xlink:title=" ">
<polygon fill="white" stroke="#666666" points="363.75,-172 323.75,-172 323.75,-152 363.75,-152 363.75,-172"/>
<text text-anchor="middle" x="343.75" y="-158.5" font-family="Helvetica,sans-Serif" font-size="10.00">touch</text>
</a>
</g>
</g>
<!-- Node1&#45;&gt;Node18 -->
<g id="edge17_Node000001_Node000018" class="edge">
<title>Node1&#45;&gt;Node18</title>
<g id="a_edge17_Node000001_Node000018"><a xlink:title=" ">
<path fill="none" stroke="#63b8ff" d="M410.47,-219.17C400.29,-207.55 386.43,-192.68 372.75,-181 369.26,-178.02 365.3,-175.1 361.48,-172.47"/>
<polygon fill="#63b8ff" stroke="#63b8ff" points="407.62,-221.22 416.79,-226.52 412.93,-216.66 407.62,-221.22"/>
</a>
</g>
</g>
<!-- Node6 -->
<g id="Node000006" class="node">
<title>Node6</title>
<g id="a_Node000006"><a xlink:href="class_interactions.html#a9044fca002a4287ad1a89ce0422a68e5" target="_top" xlink:title=" ">
<polygon fill="white" stroke="#666666" points="278.75,-210 173.5,-210 173.5,-190 278.75,-190 278.75,-210"/>
<text text-anchor="middle" x="226.12" y="-196.5" font-family="Helvetica,sans-Serif" font-size="10.00">Interactions::gSwipe</text>
</a>
</g>
</g>
<!-- Node5&#45;&gt;Node6 -->
<g id="edge5_Node000005_Node000006" class="edge">
<title>Node5&#45;&gt;Node6</title>
<g id="a_edge5_Node000005_Node000006"><a xlink:title=" ">
<path fill="none" stroke="#63b8ff" d="M311.18,-200C301.18,-200 289.86,-200 278.83,-200"/>
<polygon fill="#63b8ff" stroke="#63b8ff" points="311.1,-203.5 321.1,-200 311.1,-196.5 311.1,-203.5"/>
</a>
</g>
</g>
<!-- Node7 -->
<g id="Node000007" class="node">
<title>Node7</title>
<g id="a_Node000007"><a xlink:href="class_alchemy.html#aad0ec6faf7a5f72d0392ee1a7fbe94f9" target="_top" xlink:title=" ">
<polygon fill="white" stroke="#666666" points="120.62,-400 16.88,-400 16.88,-380 120.62,-380 120.62,-400"/>
<text text-anchor="middle" x="68.75" y="-386.5" font-family="Helvetica,sans-Serif" font-size="10.00">Alchemy::doActivity</text>
</a>
</g>
</g>
<!-- Node6&#45;&gt;Node7 -->
<g id="edge6_Node000006_Node000007" class="edge">
<title>Node6&#45;&gt;Node7</title>
<g id="a_edge6_Node000006_Node000007"><a xlink:title=" ">
<path fill="none" stroke="#63b8ff" d="M220.24,-221C210.73,-257.16 186.23,-331.16 137.5,-371 132.58,-375.02 126.87,-378.19 120.88,-380.69"/>
<polygon fill="#63b8ff" stroke="#63b8ff" points="223.52,-222.3 222.54,-211.75 216.73,-220.61 223.52,-222.3"/>
</a>
</g>
</g>
<!-- Node8 -->
<g id="Node000008" class="node">
<title>Node8</title>
<g id="a_Node000008"><a xlink:href="class_divinities.html#ac9b5e74421a2888bf4f84065115210eb" target="_top" xlink:title=" ">
<polygon fill="white" stroke="#666666" points="121.75,-362 15.75,-362 15.75,-342 121.75,-342 121.75,-362"/>
<text text-anchor="middle" x="68.75" y="-348.5" font-family="Helvetica,sans-Serif" font-size="10.00">Divinities::doActivity</text>
</a>
</g>
</g>
<!-- Node6&#45;&gt;Node8 -->
<g id="edge7_Node000006_Node000008" class="edge">
<title>Node6&#45;&gt;Node8</title>
<g id="a_edge7_Node000006_Node000008"><a xlink:title=" ">
<path fill="none" stroke="#63b8ff" d="M217,-220.83C204.45,-250.29 177.52,-303.77 137.5,-333 132.76,-336.46 127.42,-339.29 121.87,-341.6"/>
<polygon fill="#63b8ff" stroke="#63b8ff" points="220.12,-222.47 220.67,-211.89 213.64,-219.81 220.12,-222.47"/>
</a>
</g>
</g>
<!-- Node9 -->
<g id="Node000009" class="node">
<title>Node9</title>
<g id="a_Node000009"><a xlink:href="class_garden.html#aa57f4ad267096e9c448782c6f8ee82ff" target="_top" xlink:title=" ">
<polygon fill="white" stroke="#666666" points="117.25,-324 20.25,-324 20.25,-304 117.25,-304 117.25,-324"/>
<text text-anchor="middle" x="68.75" y="-310.5" font-family="Helvetica,sans-Serif" font-size="10.00">Garden::doActivity</text>
</a>
</g>
</g>
<!-- Node6&#45;&gt;Node9 -->
<g id="edge8_Node000006_Node000009" class="edge">
<title>Node6&#45;&gt;Node9</title>
<g id="a_edge8_Node000006_Node000009"><a xlink:title=" ">
<path fill="none" stroke="#63b8ff" d="M212.2,-219.52C196.88,-241.12 169.38,-275.47 137.5,-295 131.35,-298.76 124.44,-301.8 117.44,-304.25"/>
<polygon fill="#63b8ff" stroke="#63b8ff" points="214.88,-221.79 217.67,-211.57 209.12,-217.82 214.88,-221.79"/>
</a>
</g>
</g>
<!-- Node10 -->
<g id="Node000010" class="node">
<title>Node10</title>
<g id="a_Node000010"><a xlink:href="class_heirloom.html#a52cbb91e89e42dd674d100effa2d07cd" target="_top" xlink:title=" ">
<polygon fill="white" stroke="#666666" points="121,-286 16.5,-286 16.5,-266 121,-266 121,-286"/>
<text text-anchor="middle" x="68.75" y="-272.5" font-family="Helvetica,sans-Serif" font-size="10.00">Heirloom::doActivity</text>
</a>
</g>
</g>
<!-- Node6&#45;&gt;Node10 -->
<g id="edge9_Node000006_Node000010" class="edge">
<title>Node6&#45;&gt;Node10</title>
<g id="a_edge9_Node000006_Node000010"><a xlink:title=" ">
<path fill="none" stroke="#63b8ff" d="M202.78,-217.27C185.69,-229.78 161.13,-246.3 137.5,-257 130.27,-260.27 122.34,-263.11 114.53,-265.52"/>
<polygon fill="#63b8ff" stroke="#63b8ff" points="204.78,-220.14 210.7,-211.35 200.59,-214.54 204.78,-220.14"/>
</a>
</g>
</g>
<!-- Node11 -->
<g id="Node000011" class="node">
<title>Node11</title>
<g id="a_Node000011"><a xlink:href="class_mail.html#a1c771a812fa2eba0f0d257f9bdeaef31" target="_top" xlink:title=" ">
<polygon fill="white" stroke="#666666" points="110.5,-248 27,-248 27,-228 110.5,-228 110.5,-248"/>
<text text-anchor="middle" x="68.75" y="-234.5" font-family="Helvetica,sans-Serif" font-size="10.00">Mail::doActivity</text>
</a>
</g>
</g>
<!-- Node6&#45;&gt;Node11 -->
<g id="edge10_Node000006_Node000011" class="edge">
<title>Node6&#45;&gt;Node11</title>
<g id="a_edge10_Node000006_Node000011"><a xlink:title=" ">
<path fill="none" stroke="#63b8ff" d="M171.22,-213.18C151.43,-218.02 129.36,-223.42 110.87,-227.94"/>
<polygon fill="#63b8ff" stroke="#63b8ff" points="171.9,-216.62 180.79,-210.84 170.24,-209.82 171.9,-216.62"/>
</a>
</g>
</g>
<!-- Node12 -->
<g id="Node000012" class="node">
<title>Node12</title>
<g id="a_Node000012"><a xlink:href="class_otherworld.html#a98c0d70a80579783f415323ccbb0e0a3" target="_top" xlink:title=" ">
<polygon fill="white" stroke="#666666" points="125.12,-210 12.38,-210 12.38,-190 125.12,-190 125.12,-210"/>
<text text-anchor="middle" x="68.75" y="-196.5" font-family="Helvetica,sans-Serif" font-size="10.00">Otherworld::doActivity</text>
</a>
</g>
</g>
<!-- Node6&#45;&gt;Node12 -->
<g id="edge11_Node000006_Node000012" class="edge">
<title>Node6&#45;&gt;Node12</title>
<g id="a_edge11_Node000006_Node000012"><a xlink:title=" ">
<path fill="none" stroke="#63b8ff" d="M162,-200C149.92,-200 137.36,-200 125.53,-200"/>
<polygon fill="#63b8ff" stroke="#63b8ff" points="161.87,-203.5 171.87,-200 161.87,-196.5 161.87,-203.5"/>
</a>
</g>
</g>
<!-- Node13 -->
<g id="Node000013" class="node">
<title>Node13</title>
<g id="a_Node000013"><a xlink:href="class_ranking.html#a3c16793fcd16b703a3afc7a0e443236b" target="_top" xlink:title=" ">
<polygon fill="white" stroke="#666666" points="119.5,-172 18,-172 18,-152 119.5,-152 119.5,-172"/>
<text text-anchor="middle" x="68.75" y="-158.5" font-family="Helvetica,sans-Serif" font-size="10.00">Ranking::doActivity</text>
</a>
</g>
</g>
<!-- Node6&#45;&gt;Node13 -->
<g id="edge12_Node000006_Node000013" class="edge">
<title>Node6&#45;&gt;Node13</title>
<g id="a_edge12_Node000006_Node000013"><a xlink:title=" ">
<path fill="none" stroke="#63b8ff" d="M171.23,-186.82C152.01,-182.12 130.63,-176.89 112.48,-172.45"/>
<polygon fill="#63b8ff" stroke="#63b8ff" points="170.24,-190.18 180.79,-189.16 171.9,-183.38 170.24,-190.18"/>
</a>
</g>
</g>
<!-- Node14 -->
<g id="Node000014" class="node">
<title>Node14</title>
<g id="a_Node000014"><a xlink:href="class_worldrift.html#a338b2b6c6c28ed33457b4fa9179c4733" target="_top" xlink:title=" ">
<polygon fill="white" stroke="#666666" points="119.5,-134 18,-134 18,-114 119.5,-114 119.5,-134"/>
<text text-anchor="middle" x="68.75" y="-120.5" font-family="Helvetica,sans-Serif" font-size="10.00">Worldrift::doActivity</text>
</a>
</g>
</g>
<!-- Node6&#45;&gt;Node14 -->
<g id="edge13_Node000006_Node000014" class="edge">
<title>Node6&#45;&gt;Node14</title>
<g id="a_edge13_Node000006_Node000014"><a xlink:title=" ">
<path fill="none" stroke="#63b8ff" d="M179.65,-184.66C177.53,-183.51 175.46,-182.29 173.5,-181 154.07,-168.2 157.42,-155.02 137.5,-143 131.85,-139.59 125.57,-136.78 119.18,-134.45"/>
<polygon fill="#63b8ff" stroke="#63b8ff" points="178.01,-187.76 188.54,-188.88 181.01,-181.43 178.01,-187.76"/>
</a>
</g>
</g>
<!-- Node15 -->
<g id="Node000015" class="node">
<title>Node15</title>
<g id="a_Node000015"><a xlink:href="class_interactions.html#a1a602b1baed0f80f749fbb5d569349b8" target="_top" xlink:title=" ">
<polygon fill="white" stroke="#666666" points="124.75,-96 12.75,-96 12.75,-76 124.75,-76 124.75,-96"/>
<text text-anchor="middle" x="68.75" y="-82.5" font-family="Helvetica,sans-Serif" font-size="10.00">Interactions::gSwipeX</text>
</a>
</g>
</g>
<!-- Node6&#45;&gt;Node15 -->
<g id="edge14_Node000006_Node000015" class="edge">
<title>Node6&#45;&gt;Node15</title>
<g id="a_edge14_Node000006_Node000015"><a xlink:title=" ">
<path fill="none" stroke="#63b8ff" d="M176.8,-183.74C175.65,-182.87 174.55,-181.96 173.5,-181 145.91,-155.78 166.06,-129.1 137.5,-105 133.39,-101.53 128.69,-98.7 123.73,-96.38"/>
<polygon fill="#63b8ff" stroke="#63b8ff" points="174.63,-186.51 184.98,-188.76 178.28,-180.55 174.63,-186.51"/>
</a>
</g>
</g>
<!-- Node16 -->
<g id="Node000016" class="node">
<title>Node16</title>
<g id="a_Node000016"><a xlink:href="class_interactions.html#a21f2cc1ce6998a0d6d934f36d7f2df24" target="_top" xlink:title=" ">
<polygon fill="white" stroke="#666666" points="124.75,-58 12.75,-58 12.75,-38 124.75,-38 124.75,-58"/>
<text text-anchor="middle" x="68.75" y="-44.5" font-family="Helvetica,sans-Serif" font-size="10.00">Interactions::gSwipeY</text>
</a>
</g>
</g>
<!-- Node6&#45;&gt;Node16 -->
<g id="edge15_Node000006_Node000016" class="edge">
<title>Node6&#45;&gt;Node16</title>
<g id="a_edge15_Node000006_Node000016"><a xlink:title=" ">
<path fill="none" stroke="#63b8ff" d="M175.76,-183.18C174.97,-182.48 174.22,-181.76 173.5,-181 136.82,-142.56 175.68,-103.96 137.5,-67 133.9,-63.52 129.72,-60.66 125.23,-58.32"/>
<polygon fill="#63b8ff" stroke="#63b8ff" points="173.58,-185.93 183.8,-188.74 177.57,-180.17 173.58,-185.93"/>
</a>
</g>
</g>
<!-- Node17 -->
<g id="Node000017" class="node">
<title>Node17</title>
<g id="a_Node000017"><a xlink:href="class_interactions.html#a1491cc82f7f888b42c035f0325b9610d" target="_top" xlink:title=" ">
<polygon fill="white" stroke="#666666" points="137.5,-20 0,-20 0,0 137.5,0 137.5,-20"/>
<text text-anchor="middle" x="68.75" y="-6.5" font-family="Helvetica,sans-Serif" font-size="10.00">Interactions::templateFound</text>
</a>
</g>
</g>
<!-- Node6&#45;&gt;Node17 -->
<g id="edge16_Node000006_Node000017" class="edge">
<title>Node6&#45;&gt;Node17</title>
<g id="a_edge16_Node000006_Node000017"><a xlink:title=" ">
<path fill="none" stroke="#63b8ff" d="M175.28,-182.87C174.66,-182.26 174.07,-181.64 173.5,-181 127.44,-129.05 185.58,-79.08 137.5,-29 134.2,-25.56 130.33,-22.73 126.15,-20.4"/>
<polygon fill="#63b8ff" stroke="#63b8ff" points="172.95,-185.5 183.07,-188.65 177.13,-179.88 172.95,-185.5"/>
</a>
</g>
</g>
<!-- Node19 -->
<g id="Node000019" class="node">
<title>Node19</title>
<g id="a_Node000019"><a xlink:href="class_interactions.html#af23557a5473cf551e7a1268f5fc2f0c6" target="_top" xlink:title=" ">
<polygon fill="white" stroke="#666666" points="272.75,-172 179.5,-172 179.5,-152 272.75,-152 272.75,-172"/>
<text text-anchor="middle" x="226.12" y="-158.5" font-family="Helvetica,sans-Serif" font-size="10.00">Interactions::click</text>
</a>
</g>
</g>
<!-- Node18&#45;&gt;Node19 -->
<g id="edge18_Node000018_Node000019" class="edge">
<title>Node18&#45;&gt;Node19</title>
<g id="a_edge18_Node000018_Node000019"><a xlink:title=" ">
<path fill="none" stroke="#63b8ff" d="M312.19,-162C300.2,-162 286.18,-162 273.02,-162"/>
<polygon fill="#63b8ff" stroke="#63b8ff" points="311.88,-165.5 321.88,-162 311.88,-158.5 311.88,-165.5"/>
</a>
</g>
</g>
</g>
</svg>
