<?xml version="1.0" encoding="UTF-8" standalone="no"?>
<!DOCTYPE svg PUBLIC "-//W3C//DTD SVG 1.1//EN"
 "http://www.w3.org/Graphics/SVG/1.1/DTD/svg11.dtd">
<!-- Generated by graphviz version 12.2.0 (20241103.1931)
 -->
<!-- Title: adbMenu Pages: 1 -->
<!--zoomable 66 -->

<svg id="main" version="1.1" xmlns="http://www.w3.org/2000/svg" xmlns:xlink="http://www.w3.org/1999/xlink" xml:space="preserve" onload="init(evt)">

<style type="text/css"><![CDATA[
.node, .edge {opacity: 0.7;}
.node.selected, .edge.selected {opacity: 1;}
.edge:hover path { stroke: red; }
.edge:hover polygon { stroke: red; fill: red; }
]]></style>

<defs>
  <circle id="rim" cx="0" cy="0" r="7"/>
  <circle id="rim2" cx="0" cy="0" r="3.5"/>
  <g id="zoomPlus">
    <use xlink:href="#rim" fill="#404040"><set attributeName="fill" to="#808080" begin="zoomplus.mouseover" end="zoomplus.mouseout"/></use>
    <path d="M-4,0h8M0,-4v8" fill="none" stroke="white" stroke-width="1.5" pointer-events="none"/>
  </g>
  <g id="zoomMin">
    <use xlink:href="#rim" fill="#404040"><set attributeName="fill" to="#808080" begin="zoomminus.mouseover" end="zoomminus.mouseout"/></use>
    <path d="M-4,0h8" fill="none" stroke="white" stroke-width="1.5" pointer-events="none"/>
  </g>
  <g id="arrowUp" transform="translate(30 24)">
    <use xlink:href="#rim"/>
    <path pointer-events="none" fill="none" stroke="white" stroke-width="1.5" d="M0,-3.0v7 M-2.5,-0.5L0,-3.0L2.5,-0.5"/>
  </g>
  <g id="arrowRight" transform="rotate(90) translate(36 -43)">
    <use xlink:href="#rim"/>
    <path pointer-events="none" fill="none" stroke="white" stroke-width="1.5" d="M0,-3.0v7 M-2.5,-0.5L0,-3.0L2.5,-0.5"/>
  </g>
  <g id="arrowDown" transform="rotate(180) translate(-30 -48)">
    <use xlink:href="#rim"/>
    <path pointer-events="none" fill="none" stroke="white" stroke-width="1.5" d="M0,-3.0v7 M-2.5,-0.5L0,-3.0L2.5,-0.5"/>
  </g>
  <g id="arrowLeft" transform="rotate(270) translate(-36 17)">
    <use xlink:href="#rim"/>
    <path pointer-events="none" fill="none" stroke="white" stroke-width="1.5" d="M0,-3.0v7 M-2.5,-0.5L0,-3.0L2.5,-0.5"/>
  </g>
  <g id="resetDef">
    <use xlink:href="#rim2" fill="#404040"><set attributeName="fill" to="#808080" begin="reset.mouseover" end="reset.mouseout"/></use>
  </g>
</defs>
<script type="application/ecmascript">
var viewWidth = 689;
var viewHeight = 66;
var sectionId = 'dynsection-3';
</script>
<script type="application/ecmascript" xlink:href="svg.min.js"/>
<svg id="graph" class="graph">
<g id="viewport">
<title>adbMenu</title>
<!-- Node1 -->
<g id="Node000001" class="node">
<title>Node1</title>
<g id="a_Node000001"><a xlink:title=" ">
<polygon fill="#999999" stroke="#666666" points="55.75,-39 0,-39 0,-19 55.75,-19 55.75,-39"/>
<text text-anchor="middle" x="27.88" y="-25.5" font-family="Helvetica,sans-Serif" font-size="10.00">adbMenu</text>
</a>
</g>
</g>
<!-- Node2 -->
<g id="Node000002" class="node">
<title>Node2</title>
<g id="a_Node000002"><a xlink:href="fadb_8cpp.html#a735aed1798e65a5276053c44211ce025" target="_top" xlink:title=" ">
<polygon fill="white" stroke="#666666" points="128.75,-39 91.75,-39 91.75,-19 128.75,-19 128.75,-39"/>
<text text-anchor="middle" x="110.25" y="-25.5" font-family="Helvetica,sans-Serif" font-size="10.00">input</text>
</a>
</g>
</g>
<!-- Node1&#45;&gt;Node2 -->
<g id="edge1_Node000001_Node000002" class="edge">
<title>Node1&#45;&gt;Node2</title>
<g id="a_edge1_Node000001_Node000002"><a xlink:title=" ">
<path fill="none" stroke="#63b8ff" d="M56.09,-29C63.83,-29 72.29,-29 80.14,-29"/>
<polygon fill="#63b8ff" stroke="#63b8ff" points="79.9,-32.5 89.9,-29 79.9,-25.5 79.9,-32.5"/>
</a>
</g>
</g>
<!-- Node3 -->
<g id="Node000003" class="node">
<title>Node3</title>
<g id="a_Node000003"><a xlink:href="fadb_8cpp.html#a0766d8b572678e0a830d45a4dcfb9d4d" target="_top" xlink:title=" ">
<polygon fill="white" stroke="#666666" points="275.25,-39 164.75,-39 164.75,-19 275.25,-19 275.25,-39"/>
<text text-anchor="middle" x="220" y="-25.5" font-family="Helvetica,sans-Serif" font-size="10.00">runAdbLocalhostShell</text>
</a>
</g>
</g>
<!-- Node2&#45;&gt;Node3 -->
<g id="edge2_Node000002_Node000003" class="edge">
<title>Node2&#45;&gt;Node3</title>
<g id="a_edge2_Node000002_Node000003"><a xlink:title=" ">
<path fill="none" stroke="#63b8ff" d="M129.04,-29C135.94,-29 144.29,-29 153.09,-29"/>
<polygon fill="#63b8ff" stroke="#63b8ff" points="152.89,-32.5 162.89,-29 152.89,-25.5 152.89,-32.5"/>
</a>
</g>
</g>
<!-- Node4 -->
<g id="Node000004" class="node">
<title>Node4</title>
<g id="a_Node000004"><a xlink:href="fadb_8cpp.html#ac6339b59ba8238f7483dece7f3fdf51b" target="_top" xlink:title=" ">
<polygon fill="white" stroke="#666666" points="400,-39 311.25,-39 311.25,-19 400,-19 400,-39"/>
<text text-anchor="middle" x="355.62" y="-25.5" font-family="Helvetica,sans-Serif" font-size="10.00">runAdbLocalhost</text>
</a>
</g>
</g>
<!-- Node3&#45;&gt;Node4 -->
<g id="edge3_Node000003_Node000004" class="edge">
<title>Node3&#45;&gt;Node4</title>
<g id="a_edge3_Node000003_Node000004"><a xlink:title=" ">
<path fill="none" stroke="#63b8ff" d="M275.74,-29C283.58,-29 291.66,-29 299.51,-29"/>
<polygon fill="#63b8ff" stroke="#63b8ff" points="299.29,-32.5 309.29,-29 299.29,-25.5 299.29,-32.5"/>
</a>
</g>
</g>
<!-- Node5 -->
<g id="Node000005" class="node">
<title>Node5</title>
<g id="a_Node000005"><a xlink:href="fadb_8cpp.html#a383ae5fedc9f597a03c74c729a2eb740" target="_top" xlink:title=" ">
<polygon fill="white" stroke="#666666" points="482.75,-39 436,-39 436,-19 482.75,-19 482.75,-39"/>
<text text-anchor="middle" x="459.38" y="-25.5" font-family="Helvetica,sans-Serif" font-size="10.00">runAdb</text>
</a>
</g>
</g>
<!-- Node4&#45;&gt;Node5 -->
<g id="edge4_Node000004_Node000005" class="edge">
<title>Node4&#45;&gt;Node5</title>
<g id="a_edge4_Node000004_Node000005"><a xlink:title=" ">
<path fill="none" stroke="#63b8ff" d="M400.37,-29C408.36,-29 416.58,-29 424.24,-29"/>
<polygon fill="#63b8ff" stroke="#63b8ff" points="424.18,-32.5 434.18,-29 424.18,-25.5 424.18,-32.5"/>
</a>
</g>
</g>
<!-- Node6 -->
<g id="Node000006" class="node">
<title>Node6</title>
<g id="a_Node000006"><a xlink:href="sys_commands_8cpp.html#a321eb7e335377aa7182bafc8a1605032" target="_top" xlink:title=" ">
<polygon fill="white" stroke="#666666" points="585.75,-39 518.75,-39 518.75,-19 585.75,-19 585.75,-39"/>
<text text-anchor="middle" x="552.25" y="-25.5" font-family="Helvetica,sans-Serif" font-size="10.00">receivePipe</text>
</a>
</g>
</g>
<!-- Node5&#45;&gt;Node6 -->
<g id="edge5_Node000005_Node000006" class="edge">
<title>Node5&#45;&gt;Node6</title>
<g id="a_edge5_Node000005_Node000006"><a xlink:title=" ">
<path fill="none" stroke="#63b8ff" d="M482.84,-29C490.21,-29 498.68,-29 507.08,-29"/>
<polygon fill="#63b8ff" stroke="#63b8ff" points="506.89,-32.5 516.89,-29 506.89,-25.5 506.89,-32.5"/>
</a>
</g>
</g>
<!-- Node7 -->
<g id="Node000007" class="node">
<title>Node7</title>
<g id="a_Node000007"><a xlink:href="sys_commands_8cpp.html#a4771c79171a937893508dabadadbe099" target="_top" xlink:title=" ">
<polygon fill="white" stroke="#666666" points="680.5,-58 621.75,-58 621.75,-38 680.5,-38 680.5,-58"/>
<text text-anchor="middle" x="651.12" y="-44.5" font-family="Helvetica,sans-Serif" font-size="10.00">closePipe</text>
</a>
</g>
</g>
<!-- Node6&#45;&gt;Node7 -->
<g id="edge6_Node000006_Node000007" class="edge">
<title>Node6&#45;&gt;Node7</title>
<g id="a_edge6_Node000006_Node000007"><a xlink:title=" ">
<path fill="none" stroke="#63b8ff" d="M586.05,-35.43C593.81,-36.95 602.17,-38.59 610.21,-40.17"/>
<polygon fill="#63b8ff" stroke="#63b8ff" points="609.28,-43.56 619.77,-42.05 610.63,-36.69 609.28,-43.56"/>
</a>
</g>
</g>
<!-- Node8 -->
<g id="Node000008" class="node">
<title>Node8</title>
<g id="a_Node000008"><a xlink:href="sys_commands_8cpp.html#a3499ce0cd7e4ed28b3c5461a4d3aec84" target="_top" xlink:title=" ">
<polygon fill="white" stroke="#666666" points="679.38,-20 622.88,-20 622.88,0 679.38,0 679.38,-20"/>
<text text-anchor="middle" x="651.12" y="-6.5" font-family="Helvetica,sans-Serif" font-size="10.00">openPipe</text>
</a>
</g>
</g>
<!-- Node6&#45;&gt;Node8 -->
<g id="edge7_Node000006_Node000008" class="edge">
<title>Node6&#45;&gt;Node8</title>
<g id="a_edge7_Node000006_Node000008"><a xlink:title=" ">
<path fill="none" stroke="#63b8ff" d="M586.05,-22.57C594.2,-20.97 603.01,-19.24 611.42,-17.59"/>
<polygon fill="#63b8ff" stroke="#63b8ff" points="611.9,-21.06 621.04,-15.7 610.55,-14.19 611.9,-21.06"/>
</a>
</g>
</g>
</g>
</svg>

<g id="navigator" transform="translate(0 0)" fill="#404254">
  <rect fill="#f2f5e9" fill-opacity="0.5" stroke="#606060" stroke-width=".5" x="0" y="0" width="60" height="60"/>
  <use id="zoomplus" xlink:href="#zoomPlus" x="17" y="9" onmousedown="handleZoom(evt,'in')"/>
  <use id="zoomminus" xlink:href="#zoomMin" x="42" y="9" onmousedown="handleZoom(evt,'out')"/>
  <use id="reset" xlink:href="#resetDef" x="30" y="36" onmousedown="handleReset()"/>
   <use id="arrowup" xlink:href="#arrowUp" x="0" y="0" onmousedown="handlePan(0,-1)"/>
  <use id="arrowright" xlink:href="#arrowRight" x="0" y="0" onmousedown="handlePan(1,0)"/>
  <use id="arrowdown" xlink:href="#arrowDown" x="0" y="0" onmousedown="handlePan(0,1)"/>
  <use id="arrowleft" xlink:href="#arrowLeft" x="0" y="0" onmousedown="handlePan(-1,0)"/>
</g>
<svg viewBox="0 0 15 15" width="100%" height="30px" preserveAspectRatio="xMaxYMin meet">
 <g id="arrow_out" transform="scale(0.3 0.3)">
  <a xlink:href="fadb_8cpp_a52f8c6a456c8b5ed9ea479abde58598c_cgraph_org.svg" target="_base">
   <rect id="button" ry="5" rx="5" y="6" x="6" height="38" width="38"
        fill="#f2f5e9" fill-opacity="0.5" stroke="#606060" stroke-width="1.0"/>
   <path id="arrow"
     d="M 11.500037,31.436501 C 11.940474,20.09759 22.043105,11.32322 32.158766,21.979434 L 37.068811,17.246167 C 37.068811,17.246167 37.088388,32 37.088388,32 L 22.160133,31.978069 C 22.160133,31.978069 26.997745,27.140456 26.997745,27.140456 C 18.528582,18.264221 13.291696,25.230495 11.500037,31.436501 z"
     style="fill:#404040;"/>
  </a>
 </g>
</svg>

<style type='text/css'>
<![CDATA[
[data-mouse-over-selected='false'] { opacity: 0.7; }
[data-mouse-over-selected='true']  { opacity: 1.0; }
]]>
</style>
<script type="application/ecmascript"><![CDATA[
document.addEventListener('DOMContentLoaded', (event) => {
  highlightEdges();
  highlightAdjacentNodes();
});
]]></script>
</svg>
