<?xml version="1.0" encoding="UTF-8" standalone="no"?>
<!DOCTYPE svg PUBLIC "-//W3C//DTD SVG 1.1//EN"
 "http://www.w3.org/Graphics/SVG/1.1/DTD/svg11.dtd">
<!-- Generated by graphviz version 12.2.0 (20241103.1931)
 -->
<!-- Title: src/fadb.h Pages: 1 -->
<!--zoomable 140 -->

<svg id="main" version="1.1" xmlns="http://www.w3.org/2000/svg" xmlns:xlink="http://www.w3.org/1999/xlink" xml:space="preserve" onload="init(evt)">

<style type="text/css"><![CDATA[
.node, .edge {opacity: 0.7;}
.node.selected, .edge.selected {opacity: 1;}
.edge:hover path { stroke: red; }
.edge:hover polygon { stroke: red; fill: red; }
]]></style>

<defs>
  <circle id="rim" cx="0" cy="0" r="7"/>
  <circle id="rim2" cx="0" cy="0" r="3.5"/>
  <g id="zoomPlus">
    <use xlink:href="#rim" fill="#404040"><set attributeName="fill" to="#808080" begin="zoomplus.mouseover" end="zoomplus.mouseout"/></use>
    <path d="M-4,0h8M0,-4v8" fill="none" stroke="white" stroke-width="1.5" pointer-events="none"/>
  </g>
  <g id="zoomMin">
    <use xlink:href="#rim" fill="#404040"><set attributeName="fill" to="#808080" begin="zoomminus.mouseover" end="zoomminus.mouseout"/></use>
    <path d="M-4,0h8" fill="none" stroke="white" stroke-width="1.5" pointer-events="none"/>
  </g>
  <g id="arrowUp" transform="translate(30 24)">
    <use xlink:href="#rim"/>
    <path pointer-events="none" fill="none" stroke="white" stroke-width="1.5" d="M0,-3.0v7 M-2.5,-0.5L0,-3.0L2.5,-0.5"/>
  </g>
  <g id="arrowRight" transform="rotate(90) translate(36 -43)">
    <use xlink:href="#rim"/>
    <path pointer-events="none" fill="none" stroke="white" stroke-width="1.5" d="M0,-3.0v7 M-2.5,-0.5L0,-3.0L2.5,-0.5"/>
  </g>
  <g id="arrowDown" transform="rotate(180) translate(-30 -48)">
    <use xlink:href="#rim"/>
    <path pointer-events="none" fill="none" stroke="white" stroke-width="1.5" d="M0,-3.0v7 M-2.5,-0.5L0,-3.0L2.5,-0.5"/>
  </g>
  <g id="arrowLeft" transform="rotate(270) translate(-36 17)">
    <use xlink:href="#rim"/>
    <path pointer-events="none" fill="none" stroke="white" stroke-width="1.5" d="M0,-3.0v7 M-2.5,-0.5L0,-3.0L2.5,-0.5"/>
  </g>
  <g id="resetDef">
    <use xlink:href="#rim2" fill="#404040"><set attributeName="fill" to="#808080" begin="reset.mouseover" end="reset.mouseout"/></use>
  </g>
</defs>
<script type="application/ecmascript">
var viewWidth = 1399;
var viewHeight = 140;
var sectionId = 'dynsection-0';
</script>
<script type="application/ecmascript" xlink:href="svg.min.js"/>
<svg id="graph" class="graph">
<g id="viewport">
<title>src/fadb.h</title>
<!-- Node1 -->
<g id="Node000001" class="node">
<title>Node1</title>
<g id="a_Node000001"><a xlink:title=" ">
<polygon fill="#999999" stroke="#666666" points="461.12,-132 401.62,-132 401.62,-112 461.12,-112 461.12,-132"/>
<text text-anchor="middle" x="431.38" y="-118.5" font-family="Helvetica,sans-Serif" font-size="10.00">src/fadb.h</text>
</a>
</g>
</g>
<!-- Node2 -->
<g id="Node000002" class="node">
<title>Node2</title>
<g id="a_Node000002"><a xlink:title=" ">
<polygon fill="#e0e0e0" stroke="#999999" points="64.75,-20 0,-20 0,0 64.75,0 64.75,-20"/>
<text text-anchor="middle" x="32.38" y="-6.5" font-family="Helvetica,sans-Serif" font-size="10.00">Windows.h</text>
</a>
</g>
</g>
<!-- Node1&#45;&gt;Node2 -->
<g id="edge1_Node000001_Node000002" class="edge">
<title>Node1&#45;&gt;Node2</title>
<g id="a_edge1_Node000001_Node000002"><a xlink:title=" ">
<path fill="none" stroke="#63b8ff" d="M401.34,-116.78C357.21,-110.2 272.47,-96.13 202.38,-76 152.77,-61.76 97.27,-39.23 63.58,-24.79"/>
<polygon fill="#63b8ff" stroke="#63b8ff" points="65.4,-21.76 54.83,-21 62.62,-28.19 65.4,-21.76"/>
</a>
</g>
</g>
<!-- Node3 -->
<g id="Node000003" class="node">
<title>Node3</title>
<g id="a_Node000003"><a xlink:title=" ">
<polygon fill="#e0e0e0" stroke="#999999" points="1317.12,-20 1263.62,-20 1263.62,0 1317.12,0 1317.12,-20"/>
<text text-anchor="middle" x="1290.38" y="-6.5" font-family="Helvetica,sans-Serif" font-size="10.00">iostream</text>
</a>
</g>
</g>
<!-- Node1&#45;&gt;Node3 -->
<g id="edge2_Node000001_Node000003" class="edge">
<title>Node1&#45;&gt;Node3</title>
<g id="a_edge2_Node000001_Node000003"><a xlink:title=" ">
<path fill="none" stroke="#63b8ff" d="M461.36,-120.59C597.83,-118.56 1156.72,-108.3 1227.38,-76 1249.18,-66.03 1267.37,-44.86 1278.51,-29.37"/>
<polygon fill="#63b8ff" stroke="#63b8ff" points="1281.18,-31.68 1283.93,-21.45 1275.4,-27.73 1281.18,-31.68"/>
</a>
</g>
</g>
<!-- Node4 -->
<g id="Node000004" class="node">
<title>Node4</title>
<g id="a_Node000004"><a xlink:title=" ">
<polygon fill="#e0e0e0" stroke="#999999" points="120.25,-20 82.5,-20 82.5,0 120.25,0 120.25,-20"/>
<text text-anchor="middle" x="101.38" y="-6.5" font-family="Helvetica,sans-Serif" font-size="10.00">array</text>
</a>
</g>
</g>
<!-- Node1&#45;&gt;Node4 -->
<g id="edge3_Node000001_Node000004" class="edge">
<title>Node1&#45;&gt;Node4</title>
<g id="a_edge3_Node000001_Node000004"><a xlink:title=" ">
<path fill="none" stroke="#63b8ff" d="M401.19,-114.4C366.56,-106.53 308.25,-92.37 259.38,-76 213.58,-60.67 162.13,-38.55 130.74,-24.48"/>
<polygon fill="#63b8ff" stroke="#63b8ff" points="132.45,-21.41 121.9,-20.48 129.57,-27.79 132.45,-21.41"/>
</a>
</g>
</g>
<!-- Node5 -->
<g id="Node000005" class="node">
<title>Node5</title>
<g id="a_Node000005"><a xlink:title=" ">
<polygon fill="#e0e0e0" stroke="#999999" points="190,-20 138.75,-20 138.75,0 190,0 190,-20"/>
<text text-anchor="middle" x="164.38" y="-6.5" font-family="Helvetica,sans-Serif" font-size="10.00">memory</text>
</a>
</g>
</g>
<!-- Node1&#45;&gt;Node5 -->
<g id="edge4_Node000001_Node000005" class="edge">
<title>Node1&#45;&gt;Node5</title>
<g id="a_edge4_Node000001_Node000005"><a xlink:title=" ">
<path fill="none" stroke="#63b8ff" d="M403.56,-111.61C378.27,-102.9 340.03,-89.32 307.38,-76 267.52,-59.74 222.45,-38.82 193.75,-25.17"/>
<polygon fill="#63b8ff" stroke="#63b8ff" points="195.49,-22.12 184.96,-20.97 192.47,-28.44 195.49,-22.12"/>
</a>
</g>
</g>
<!-- Node6 -->
<g id="Node000006" class="node">
<title>Node6</title>
<g id="a_Node000006"><a xlink:title=" ">
<polygon fill="#e0e0e0" stroke="#999999" points="248.38,-20 208.38,-20 208.38,0 248.38,0 248.38,-20"/>
<text text-anchor="middle" x="228.38" y="-6.5" font-family="Helvetica,sans-Serif" font-size="10.00">ctime</text>
</a>
</g>
</g>
<!-- Node1&#45;&gt;Node6 -->
<g id="edge5_Node000001_Node000006" class="edge">
<title>Node1&#45;&gt;Node6</title>
<g id="a_edge5_Node000001_Node000006"><a xlink:title=" ">
<path fill="none" stroke="#63b8ff" d="M414.07,-111.62C378.71,-92.46 297.96,-48.71 255.55,-25.72"/>
<polygon fill="#63b8ff" stroke="#63b8ff" points="257.43,-22.76 246.97,-21.08 254.09,-28.92 257.43,-22.76"/>
</a>
</g>
</g>
<!-- Node7 -->
<g id="Node000007" class="node">
<title>Node7</title>
<g id="a_Node000007"><a xlink:title=" ">
<polygon fill="#e0e0e0" stroke="#999999" points="327.88,-20 266.88,-20 266.88,0 327.88,0 327.88,-20"/>
<text text-anchor="middle" x="297.38" y="-6.5" font-family="Helvetica,sans-Serif" font-size="10.00">filesystem</text>
</a>
</g>
</g>
<!-- Node1&#45;&gt;Node7 -->
<g id="edge6_Node000001_Node000007" class="edge">
<title>Node1&#45;&gt;Node7</title>
<g id="a_edge6_Node000001_Node000007"><a xlink:title=" ">
<path fill="none" stroke="#63b8ff" d="M419.95,-111.62C397.21,-92.95 346,-50.92 317.49,-27.52"/>
<polygon fill="#63b8ff" stroke="#63b8ff" points="319.89,-24.95 309.94,-21.32 315.45,-30.37 319.89,-24.95"/>
</a>
</g>
</g>
<!-- Node8 -->
<g id="Node000008" class="node">
<title>Node8</title>
<g id="a_Node000008"><a xlink:title=" ">
<polygon fill="#e0e0e0" stroke="#999999" points="391,-20 345.75,-20 345.75,0 391,0 391,-20"/>
<text text-anchor="middle" x="368.38" y="-6.5" font-family="Helvetica,sans-Serif" font-size="10.00">atomic</text>
</a>
</g>
</g>
<!-- Node1&#45;&gt;Node8 -->
<g id="edge7_Node000001_Node000008" class="edge">
<title>Node1&#45;&gt;Node8</title>
<g id="a_edge7_Node000001_Node000008"><a xlink:title=" ">
<path fill="none" stroke="#63b8ff" d="M426,-111.62C415.68,-93.6 392.89,-53.81 379.27,-30.02"/>
<polygon fill="#63b8ff" stroke="#63b8ff" points="382.49,-28.61 374.48,-21.67 376.42,-32.09 382.49,-28.61"/>
</a>
</g>
</g>
<!-- Node9 -->
<g id="Node000009" class="node">
<title>Node9</title>
<g id="a_Node000009"><a xlink:title=" ">
<polygon fill="#e0e0e0" stroke="#999999" points="454,-20 408.75,-20 408.75,0 454,0 454,-20"/>
<text text-anchor="middle" x="431.38" y="-6.5" font-family="Helvetica,sans-Serif" font-size="10.00">chrono</text>
</a>
</g>
</g>
<!-- Node1&#45;&gt;Node9 -->
<g id="edge8_Node000001_Node000009" class="edge">
<title>Node1&#45;&gt;Node9</title>
<g id="a_edge8_Node000001_Node000009"><a xlink:title=" ">
<path fill="none" stroke="#63b8ff" d="M431.38,-111.62C431.38,-94.01 431.38,-55.59 431.38,-31.65"/>
<polygon fill="#63b8ff" stroke="#63b8ff" points="434.88,-31.87 431.38,-21.87 427.88,-31.87 434.88,-31.87"/>
</a>
</g>
</g>
<!-- Node10 -->
<g id="Node000010" class="node">
<title>Node10</title>
<g id="a_Node000010"><a xlink:title=" ">
<polygon fill="#e0e0e0" stroke="#999999" points="514.88,-20 471.88,-20 471.88,0 514.88,0 514.88,-20"/>
<text text-anchor="middle" x="493.38" y="-6.5" font-family="Helvetica,sans-Serif" font-size="10.00">thread</text>
</a>
</g>
</g>
<!-- Node1&#45;&gt;Node10 -->
<g id="edge9_Node000001_Node000010" class="edge">
<title>Node1&#45;&gt;Node10</title>
<g id="a_edge9_Node000001_Node000010"><a xlink:title=" ">
<path fill="none" stroke="#63b8ff" d="M436.66,-111.62C446.77,-93.68 469.04,-54.17 482.47,-30.35"/>
<polygon fill="#63b8ff" stroke="#63b8ff" points="485.5,-32.1 487.36,-21.67 479.4,-28.67 485.5,-32.1"/>
</a>
</g>
</g>
<!-- Node11 -->
<g id="Node000011" class="node">
<title>Node11</title>
<g id="a_Node000011"><a xlink:title=" ">
<polygon fill="#e0e0e0" stroke="#999999" points="591.75,-20 533,-20 533,0 591.75,0 591.75,-20"/>
<text text-anchor="middle" x="562.38" y="-6.5" font-family="Helvetica,sans-Serif" font-size="10.00">stdexcept</text>
</a>
</g>
</g>
<!-- Node1&#45;&gt;Node11 -->
<g id="edge10_Node000001_Node000011" class="edge">
<title>Node1&#45;&gt;Node11</title>
<g id="a_edge10_Node000001_Node000011"><a xlink:title=" ">
<path fill="none" stroke="#63b8ff" d="M442.54,-111.62C464.78,-92.95 514.84,-50.92 542.71,-27.52"/>
<polygon fill="#63b8ff" stroke="#63b8ff" points="544.67,-30.44 550.08,-21.33 540.17,-25.08 544.67,-30.44"/>
</a>
</g>
</g>
<!-- Node12 -->
<g id="Node000012" class="node">
<title>Node12</title>
<g id="a_Node000012"><a xlink:title=" ">
<polygon fill="#e0e0e0" stroke="#999999" points="1058.5,-20 1016.25,-20 1016.25,0 1058.5,0 1058.5,-20"/>
<text text-anchor="middle" x="1037.38" y="-6.5" font-family="Helvetica,sans-Serif" font-size="10.00">cstdio</text>
</a>
</g>
</g>
<!-- Node1&#45;&gt;Node12 -->
<g id="edge11_Node000001_Node000012" class="edge">
<title>Node1&#45;&gt;Node12</title>
<g id="a_edge11_Node000001_Node000012"><a xlink:title=" ">
<path fill="none" stroke="#63b8ff" d="M461.61,-116.98C546.17,-105.47 792.29,-70.13 1004.78,-20.4"/>
<polygon fill="#63b8ff" stroke="#63b8ff" points="1005.42,-23.85 1014.35,-18.14 1003.82,-17.03 1005.42,-23.85"/>
</a>
</g>
</g>
<!-- Node13 -->
<g id="Node000013" class="node">
<title>Node13</title>
<g id="a_Node000013"><a xlink:href="sys_commands_8h.html" target="_top" xlink:title=" ">
<polygon fill="white" stroke="#666666" points="677.5,-76 587.25,-76 587.25,-56 677.5,-56 677.5,-76"/>
<text text-anchor="middle" x="632.38" y="-62.5" font-family="Helvetica,sans-Serif" font-size="10.00">sysCommands.h</text>
</a>
</g>
</g>
<!-- Node1&#45;&gt;Node13 -->
<g id="edge12_Node000001_Node000013" class="edge">
<title>Node1&#45;&gt;Node13</title>
<g id="a_edge12_Node000001_Node000013"><a xlink:title=" ">
<path fill="none" stroke="#63b8ff" d="M461.47,-112.92C494.56,-104.03 548.12,-89.64 586.46,-79.33"/>
<polygon fill="#63b8ff" stroke="#63b8ff" points="587.13,-82.78 595.88,-76.81 585.31,-76.02 587.13,-82.78"/>
</a>
</g>
</g>
<!-- Node23 -->
<g id="Node000023" class="node">
<title>Node23</title>
<g id="a_Node000023"><a xlink:href="_text_manager_8h.html" target="_top" xlink:title=" ">
<polygon fill="white" stroke="#666666" points="1218.62,-76 1138.12,-76 1138.12,-56 1218.62,-56 1218.62,-76"/>
<text text-anchor="middle" x="1178.38" y="-62.5" font-family="Helvetica,sans-Serif" font-size="10.00">TextManager.h</text>
</a>
</g>
</g>
<!-- Node1&#45;&gt;Node23 -->
<g id="edge33_Node000001_Node000023" class="edge">
<title>Node1&#45;&gt;Node23</title>
<g id="a_edge33_Node000001_Node000023"><a xlink:title=" ">
<path fill="none" stroke="#63b8ff" d="M461.58,-118.82C575.73,-110.57 981.57,-81.23 1126.48,-70.75"/>
<polygon fill="#63b8ff" stroke="#63b8ff" points="1126.44,-74.26 1136.16,-70.05 1125.94,-67.28 1126.44,-74.26"/>
</a>
</g>
</g>
<!-- Node13&#45;&gt;Node2 -->
<g id="edge13_Node000013_Node000002" class="edge">
<title>Node13&#45;&gt;Node2</title>
<g id="a_edge13_Node000013_Node000002"><a xlink:title=" ">
<path fill="none" stroke="#63b8ff" d="M586.85,-63.43C493.08,-59.75 271.49,-48.72 76.31,-20.25"/>
<polygon fill="#63b8ff" stroke="#63b8ff" points="76.88,-16.8 66.47,-18.8 75.85,-23.72 76.88,-16.8"/>
</a>
</g>
</g>
<!-- Node13&#45;&gt;Node3 -->
<g id="edge14_Node000013_Node000003" class="edge">
<title>Node13&#45;&gt;Node3</title>
<g id="a_edge14_Node000013_Node000003"><a xlink:title=" ">
<path fill="none" stroke="#63b8ff" d="M677.65,-64.51C779.12,-62.81 1032.46,-55.26 1252.24,-20.26"/>
<polygon fill="#63b8ff" stroke="#63b8ff" points="1252.54,-23.76 1261.85,-18.7 1251.42,-16.85 1252.54,-23.76"/>
</a>
</g>
</g>
<!-- Node13&#45;&gt;Node4 -->
<g id="edge15_Node000013_Node000004" class="edge">
<title>Node13&#45;&gt;Node4</title>
<g id="a_edge15_Node000013_Node000004"><a xlink:title=" ">
<path fill="none" stroke="#63b8ff" d="M586.8,-64.29C499.8,-62.22 304.09,-54.08 131.57,-20"/>
<polygon fill="#63b8ff" stroke="#63b8ff" points="132.48,-16.61 121.99,-18.07 131.1,-23.47 132.48,-16.61"/>
</a>
</g>
</g>
<!-- Node13&#45;&gt;Node5 -->
<g id="edge16_Node000013_Node000005" class="edge">
<title>Node13&#45;&gt;Node5</title>
<g id="a_edge16_Node000013_Node000005"><a xlink:title=" ">
<path fill="none" stroke="#63b8ff" d="M586.87,-62.5C509.57,-57.76 347.57,-45.74 201.23,-20.07"/>
<polygon fill="#63b8ff" stroke="#63b8ff" points="202.22,-16.69 191.76,-18.38 200.99,-23.58 202.22,-16.69"/>
</a>
</g>
</g>
<!-- Node13&#45;&gt;Node6 -->
<g id="edge17_Node000013_Node000006" class="edge">
<title>Node13&#45;&gt;Node6</title>
<g id="a_edge17_Node000013_Node000006"><a xlink:title=" ">
<path fill="none" stroke="#63b8ff" d="M586.91,-62.22C518.01,-57.42 382.94,-45.75 259.95,-20.21"/>
<polygon fill="#63b8ff" stroke="#63b8ff" points="260.84,-16.82 250.33,-18.17 259.39,-23.67 260.84,-16.82"/>
</a>
</g>
</g>
<!-- Node13&#45;&gt;Node7 -->
<g id="edge32_Node000013_Node000007" class="edge">
<title>Node13&#45;&gt;Node7</title>
<g id="a_edge32_Node000013_Node000007"><a xlink:title=" ">
<path fill="none" stroke="#63b8ff" d="M586.81,-59.17C530.74,-51.75 432.43,-37.96 339.05,-20.4"/>
<polygon fill="#63b8ff" stroke="#63b8ff" points="339.95,-17.01 329.47,-18.58 338.64,-23.88 339.95,-17.01"/>
</a>
</g>
</g>
<!-- Node13&#45;&gt;Node8 -->
<g id="edge19_Node000013_Node000008" class="edge">
<title>Node13&#45;&gt;Node8</title>
<g id="a_edge19_Node000013_Node000008"><a xlink:title=" ">
<path fill="none" stroke="#63b8ff" d="M587.01,-57.51C542.25,-49.84 471.68,-36.99 402.43,-20.58"/>
<polygon fill="#63b8ff" stroke="#63b8ff" points="403.35,-17.2 392.81,-18.27 401.71,-24.01 403.35,-17.2"/>
</a>
</g>
</g>
<!-- Node13&#45;&gt;Node9 -->
<g id="edge20_Node000013_Node000009" class="edge">
<title>Node13&#45;&gt;Node9</title>
<g id="a_edge20_Node000013_Node000009"><a xlink:title=" ">
<path fill="none" stroke="#63b8ff" d="M596.4,-55.58C564.43,-47.17 516.16,-34.39 465.32,-20.51"/>
<polygon fill="#63b8ff" stroke="#63b8ff" points="466.47,-17.19 455.9,-17.93 464.62,-23.94 466.47,-17.19"/>
</a>
</g>
</g>
<!-- Node13&#45;&gt;Node10 -->
<g id="edge21_Node000013_Node000010" class="edge">
<title>Node13&#45;&gt;Node10</title>
<g id="a_edge21_Node000013_Node000010"><a xlink:title=" ">
<path fill="none" stroke="#63b8ff" d="M608.16,-55.59C585.26,-46.7 550.74,-33.29 525.54,-23.49"/>
<polygon fill="#63b8ff" stroke="#63b8ff" points="527.03,-20.32 516.44,-19.96 524.49,-26.84 527.03,-20.32"/>
</a>
</g>
</g>
<!-- Node13&#45;&gt;Node11 -->
<g id="edge22_Node000013_Node000011" class="edge">
<title>Node13&#45;&gt;Node11</title>
<g id="a_edge22_Node000013_Node000011"><a xlink:title=" ">
<path fill="none" stroke="#63b8ff" d="M620.18,-55.59C610.04,-47.77 595.38,-36.46 583.36,-27.19"/>
<polygon fill="#63b8ff" stroke="#63b8ff" points="585.68,-24.56 575.63,-21.22 581.41,-30.1 585.68,-24.56"/>
</a>
</g>
</g>
<!-- Node13&#45;&gt;Node12 -->
<g id="edge23_Node000013_Node000012" class="edge">
<title>Node13&#45;&gt;Node12</title>
<g id="a_edge23_Node000013_Node000012"><a xlink:title=" ">
<path fill="none" stroke="#63b8ff" d="M677.81,-62.08C746.68,-57.11 881.69,-45.2 1004.75,-20.23"/>
<polygon fill="#63b8ff" stroke="#63b8ff" points="1005.29,-23.7 1014.38,-18.24 1003.88,-16.84 1005.29,-23.7"/>
</a>
</g>
</g>
<!-- Node14 -->
<g id="Node000014" class="node">
<title>Node14</title>
<g id="a_Node000014"><a xlink:title=" ">
<polygon fill="#e0e0e0" stroke="#999999" points="1245.88,-20 1202.88,-20 1202.88,0 1245.88,0 1245.88,-20"/>
<text text-anchor="middle" x="1224.38" y="-6.5" font-family="Helvetica,sans-Serif" font-size="10.00">vector</text>
</a>
</g>
</g>
<!-- Node13&#45;&gt;Node14 -->
<g id="edge18_Node000013_Node000014" class="edge">
<title>Node13&#45;&gt;Node14</title>
<g id="a_edge18_Node000013_Node000014"><a xlink:title=" ">
<path fill="none" stroke="#63b8ff" d="M677.86,-64.46C772.11,-62.68 995.55,-55 1191.41,-19.96"/>
<polygon fill="#63b8ff" stroke="#63b8ff" points="1191.79,-23.45 1201,-18.22 1190.54,-16.57 1191.79,-23.45"/>
</a>
</g>
</g>
<!-- Node15 -->
<g id="Node000015" class="node">
<title>Node15</title>
<g id="a_Node000015"><a xlink:title=" ">
<polygon fill="#e0e0e0" stroke="#999999" points="654.62,-20 610.12,-20 610.12,0 654.62,0 654.62,-20"/>
<text text-anchor="middle" x="632.38" y="-6.5" font-family="Helvetica,sans-Serif" font-size="10.00">cstdlib</text>
</a>
</g>
</g>
<!-- Node13&#45;&gt;Node15 -->
<g id="edge24_Node000013_Node000015" class="edge">
<title>Node13&#45;&gt;Node15</title>
<g id="a_edge24_Node000013_Node000015"><a xlink:title=" ">
<path fill="none" stroke="#63b8ff" d="M632.38,-55.59C632.38,-49.01 632.38,-39.96 632.38,-31.73"/>
<polygon fill="#63b8ff" stroke="#63b8ff" points="635.88,-31.81 632.38,-21.81 628.88,-31.81 635.88,-31.81"/>
</a>
</g>
</g>
<!-- Node16 -->
<g id="Node000016" class="node">
<title>Node16</title>
<g id="a_Node000016"><a xlink:title=" ">
<polygon fill="#e0e0e0" stroke="#999999" points="736,-20 672.75,-20 672.75,0 736,0 736,-20"/>
<text text-anchor="middle" x="704.38" y="-6.5" font-family="Helvetica,sans-Serif" font-size="10.00">TlHelp32.h</text>
</a>
</g>
</g>
<!-- Node13&#45;&gt;Node16 -->
<g id="edge25_Node000013_Node000016" class="edge">
<title>Node13&#45;&gt;Node16</title>
<g id="a_edge25_Node000013_Node000016"><a xlink:title=" ">
<path fill="none" stroke="#63b8ff" d="M644.92,-55.59C655.34,-47.77 670.42,-36.46 682.79,-27.19"/>
<polygon fill="#63b8ff" stroke="#63b8ff" points="684.87,-30.01 690.77,-21.21 680.67,-24.41 684.87,-30.01"/>
</a>
</g>
</g>
<!-- Node17 -->
<g id="Node000017" class="node">
<title>Node17</title>
<g id="a_Node000017"><a xlink:title=" ">
<polygon fill="#e0e0e0" stroke="#999999" points="802.5,-20 754.25,-20 754.25,0 802.5,0 802.5,-20"/>
<text text-anchor="middle" x="778.38" y="-6.5" font-family="Helvetica,sans-Serif" font-size="10.00">direct.h</text>
</a>
</g>
</g>
<!-- Node13&#45;&gt;Node17 -->
<g id="edge26_Node000013_Node000017" class="edge">
<title>Node13&#45;&gt;Node17</title>
<g id="a_edge26_Node000013_Node000017"><a xlink:title=" ">
<path fill="none" stroke="#63b8ff" d="M657.81,-55.59C681.54,-46.82 717.16,-33.64 743.53,-23.89"/>
<polygon fill="#63b8ff" stroke="#63b8ff" points="744.62,-27.22 752.79,-20.46 742.19,-20.65 744.62,-27.22"/>
</a>
</g>
</g>
<!-- Node18 -->
<g id="Node000018" class="node">
<title>Node18</title>
<g id="a_Node000018"><a xlink:title=" ">
<polygon fill="#e0e0e0" stroke="#999999" points="1125.88,-20 1076.88,-20 1076.88,0 1125.88,0 1125.88,-20"/>
<text text-anchor="middle" x="1101.38" y="-6.5" font-family="Helvetica,sans-Serif" font-size="10.00">fstream</text>
</a>
</g>
</g>
<!-- Node13&#45;&gt;Node18 -->
<g id="edge27_Node000013_Node000018" class="edge">
<title>Node13&#45;&gt;Node18</title>
<g id="a_edge27_Node000013_Node000018"><a xlink:title=" ">
<path fill="none" stroke="#63b8ff" d="M677.79,-62.64C755.35,-58.09 918.38,-46.34 1065.57,-20.04"/>
<polygon fill="#63b8ff" stroke="#63b8ff" points="1065.89,-23.54 1075.1,-18.31 1064.64,-16.65 1065.89,-23.54"/>
</a>
</g>
</g>
<!-- Node19 -->
<g id="Node000019" class="node">
<title>Node19</title>
<g id="a_Node000019"><a xlink:title=" ">
<polygon fill="#e0e0e0" stroke="#999999" points="890,-20 820.75,-20 820.75,0 890,0 890,-20"/>
<text text-anchor="middle" x="855.38" y="-6.5" font-family="Helvetica,sans-Serif" font-size="10.00">Netlistmgr.h</text>
</a>
</g>
</g>
<!-- Node13&#45;&gt;Node19 -->
<g id="edge28_Node000013_Node000019" class="edge">
<title>Node13&#45;&gt;Node19</title>
<g id="a_edge28_Node000013_Node000019"><a xlink:title=" ">
<path fill="none" stroke="#63b8ff" d="M671.47,-55.53C709.95,-46.21 768.7,-31.99 809.39,-22.13"/>
<polygon fill="#63b8ff" stroke="#63b8ff" points="810,-25.59 818.89,-19.83 808.35,-18.79 810,-25.59"/>
</a>
</g>
</g>
<!-- Node20 -->
<g id="Node000020" class="node">
<title>Node20</title>
<g id="a_Node000020"><a xlink:title=" ">
<polygon fill="#e0e0e0" stroke="#999999" points="948.38,-20 908.38,-20 908.38,0 948.38,0 948.38,-20"/>
<text text-anchor="middle" x="928.38" y="-6.5" font-family="Helvetica,sans-Serif" font-size="10.00">bitset</text>
</a>
</g>
</g>
<!-- Node13&#45;&gt;Node20 -->
<g id="edge29_Node000013_Node000020" class="edge">
<title>Node13&#45;&gt;Node20</title>
<g id="a_edge29_Node000013_Node000020"><a xlink:title=" ">
<path fill="none" stroke="#63b8ff" d="M677.62,-59.26C728.74,-52.36 814.55,-39.53 897.09,-20.28"/>
<polygon fill="#63b8ff" stroke="#63b8ff" points="897.79,-23.71 906.72,-17.99 896.18,-16.9 897.79,-23.71"/>
</a>
</g>
</g>
<!-- Node21 -->
<g id="Node000021" class="node">
<title>Node21</title>
<g id="a_Node000021"><a xlink:title=" ">
<polygon fill="#e0e0e0" stroke="#999999" points="1184.38,-20 1144.38,-20 1144.38,0 1184.38,0 1184.38,-20"/>
<text text-anchor="middle" x="1164.38" y="-6.5" font-family="Helvetica,sans-Serif" font-size="10.00">string</text>
</a>
</g>
</g>
<!-- Node13&#45;&gt;Node21 -->
<g id="edge30_Node000013_Node000021" class="edge">
<title>Node13&#45;&gt;Node21</title>
<g id="a_edge30_Node000013_Node000021"><a xlink:title=" ">
<path fill="none" stroke="#63b8ff" d="M677.92,-64.14C764.87,-61.82 960.5,-53.26 1132.86,-20.1"/>
<polygon fill="#63b8ff" stroke="#63b8ff" points="1133.29,-23.59 1142.43,-18.23 1131.95,-16.72 1133.29,-23.59"/>
</a>
</g>
</g>
<!-- Node22 -->
<g id="Node000022" class="node">
<title>Node22</title>
<g id="a_Node000022"><a xlink:title=" ">
<polygon fill="#e0e0e0" stroke="#999999" points="998.25,-20 966.5,-20 966.5,0 998.25,0 998.25,-20"/>
<text text-anchor="middle" x="982.38" y="-6.5" font-family="Helvetica,sans-Serif" font-size="10.00">io.h</text>
</a>
</g>
</g>
<!-- Node13&#45;&gt;Node22 -->
<g id="edge31_Node000013_Node000022" class="edge">
<title>Node13&#45;&gt;Node22</title>
<g id="a_edge31_Node000013_Node000022"><a xlink:title=" ">
<path fill="none" stroke="#63b8ff" d="M677.89,-61.7C739.09,-56.61 851.33,-44.98 955.13,-20.09"/>
<polygon fill="#63b8ff" stroke="#63b8ff" points="955.77,-23.54 964.65,-17.76 954.1,-16.74 955.77,-23.54"/>
</a>
</g>
</g>
<!-- Node23&#45;&gt;Node3 -->
<g id="edge35_Node000023_Node000003" class="edge">
<title>Node23&#45;&gt;Node3</title>
<g id="a_edge35_Node000023_Node000003"><a xlink:title=" ">
<path fill="none" stroke="#63b8ff" d="M1197.88,-55.59C1215.12,-47.28 1240.53,-35.03 1260.36,-25.47"/>
<polygon fill="#63b8ff" stroke="#63b8ff" points="1261.86,-28.63 1269.35,-21.14 1258.82,-22.33 1261.86,-28.63"/>
</a>
</g>
</g>
<!-- Node23&#45;&gt;Node14 -->
<g id="edge37_Node000023_Node000014" class="edge">
<title>Node23&#45;&gt;Node14</title>
<g id="a_edge37_Node000023_Node000014"><a xlink:title=" ">
<path fill="none" stroke="#63b8ff" d="M1186.39,-55.59C1192.65,-48.24 1201.55,-37.8 1209.16,-28.87"/>
<polygon fill="#63b8ff" stroke="#63b8ff" points="1211.65,-31.33 1215.47,-21.45 1206.32,-26.79 1211.65,-31.33"/>
</a>
</g>
</g>
<!-- Node23&#45;&gt;Node18 -->
<g id="edge36_Node000023_Node000018" class="edge">
<title>Node23&#45;&gt;Node18</title>
<g id="a_edge36_Node000023_Node000018"><a xlink:title=" ">
<path fill="none" stroke="#63b8ff" d="M1164.96,-55.59C1153.77,-47.74 1137.56,-36.38 1124.32,-27.09"/>
<polygon fill="#63b8ff" stroke="#63b8ff" points="1126.33,-24.22 1116.13,-21.35 1122.31,-29.96 1126.33,-24.22"/>
</a>
</g>
</g>
<!-- Node23&#45;&gt;Node21 -->
<g id="edge34_Node000023_Node000021" class="edge">
<title>Node23&#45;&gt;Node21</title>
<g id="a_edge34_Node000023_Node000021"><a xlink:title=" ">
<path fill="none" stroke="#63b8ff" d="M1175.94,-55.59C1174.21,-48.93 1171.83,-39.75 1169.67,-31.44"/>
<polygon fill="#63b8ff" stroke="#63b8ff" points="1173.06,-30.56 1167.17,-21.76 1166.29,-32.32 1173.06,-30.56"/>
</a>
</g>
</g>
<!-- Node24 -->
<g id="Node000024" class="node">
<title>Node24</title>
<g id="a_Node000024"><a xlink:title=" ">
<polygon fill="#e0e0e0" stroke="#999999" points="1391.25,-20 1335.5,-20 1335.5,0 1391.25,0 1391.25,-20"/>
<text text-anchor="middle" x="1363.38" y="-6.5" font-family="Helvetica,sans-Serif" font-size="10.00">algorithm</text>
</a>
</g>
</g>
<!-- Node23&#45;&gt;Node24 -->
<g id="edge38_Node000023_Node000024" class="edge">
<title>Node23&#45;&gt;Node24</title>
<g id="a_edge38_Node000023_Node000024"><a xlink:title=" ">
<path fill="none" stroke="#63b8ff" d="M1210.6,-55.59C1242.22,-46.36 1290.49,-32.27 1324.29,-22.41"/>
<polygon fill="#63b8ff" stroke="#63b8ff" points="1325.08,-25.82 1333.7,-19.66 1323.12,-19.1 1325.08,-25.82"/>
</a>
</g>
</g>
</g>
</svg>

<g id="navigator" transform="translate(0 0)" fill="#404254">
  <rect fill="#f2f5e9" fill-opacity="0.5" stroke="#606060" stroke-width=".5" x="0" y="0" width="60" height="60"/>
  <use id="zoomplus" xlink:href="#zoomPlus" x="17" y="9" onmousedown="handleZoom(evt,'in')"/>
  <use id="zoomminus" xlink:href="#zoomMin" x="42" y="9" onmousedown="handleZoom(evt,'out')"/>
  <use id="reset" xlink:href="#resetDef" x="30" y="36" onmousedown="handleReset()"/>
   <use id="arrowup" xlink:href="#arrowUp" x="0" y="0" onmousedown="handlePan(0,-1)"/>
  <use id="arrowright" xlink:href="#arrowRight" x="0" y="0" onmousedown="handlePan(1,0)"/>
  <use id="arrowdown" xlink:href="#arrowDown" x="0" y="0" onmousedown="handlePan(0,1)"/>
  <use id="arrowleft" xlink:href="#arrowLeft" x="0" y="0" onmousedown="handlePan(-1,0)"/>
</g>
<svg viewBox="0 0 15 15" width="100%" height="30px" preserveAspectRatio="xMaxYMin meet">
 <g id="arrow_out" transform="scale(0.3 0.3)">
  <a xlink:href="fadb_8h__incl_org.svg" target="_base">
   <rect id="button" ry="5" rx="5" y="6" x="6" height="38" width="38"
        fill="#f2f5e9" fill-opacity="0.5" stroke="#606060" stroke-width="1.0"/>
   <path id="arrow"
     d="M 11.500037,31.436501 C 11.940474,20.09759 22.043105,11.32322 32.158766,21.979434 L 37.068811,17.246167 C 37.068811,17.246167 37.088388,32 37.088388,32 L 22.160133,31.978069 C 22.160133,31.978069 26.997745,27.140456 26.997745,27.140456 C 18.528582,18.264221 13.291696,25.230495 11.500037,31.436501 z"
     style="fill:#404040;"/>
  </a>
 </g>
</svg>

<style type='text/css'>
<![CDATA[
[data-mouse-over-selected='false'] { opacity: 0.7; }
[data-mouse-over-selected='true']  { opacity: 1.0; }
]]>
</style>
<script type="application/ecmascript"><![CDATA[
document.addEventListener('DOMContentLoaded', (event) => {
  highlightEdges();
  highlightAdjacentNodes();
});
]]></script>
</svg>
