<?xml version="1.0" encoding="UTF-8" standalone="no"?>
<!DOCTYPE svg PUBLIC "-//W3C//DTD SVG 1.1//EN"
 "http://www.w3.org/Graphics/SVG/1.1/DTD/svg11.dtd">
<!-- Generated by graphviz version 12.2.0 (20241103.1931)
 -->
<!-- Title: cvmtfOneTemplate Pages: 1 -->
<svg width="467pt" height="142pt"
 viewBox="0.00 0.00 466.50 142.00" xmlns="http://www.w3.org/2000/svg" xmlns:xlink="http://www.w3.org/1999/xlink">
<g id="graph0" class="graph" transform="scale(1 1) rotate(0) translate(4 138)">
<title>cvmtfOneTemplate</title>
<!-- Node1 -->
<g id="Node000001" class="node">
<title>Node1</title>
<g id="a_Node000001"><a xlink:title=" ">
<polygon fill="#999999" stroke="#666666" points="98.5,-77 0,-77 0,-57 98.5,-57 98.5,-77"/>
<text text-anchor="middle" x="49.25" y="-63.5" font-family="Helvetica,sans-Serif" font-size="10.00">cvmtfOneTemplate</text>
</a>
</g>
</g>
<!-- Node2 -->
<g id="Node000002" class="node">
<title>Node2</title>
<g id="a_Node000002"><a xlink:href="fopencv_8cpp.html#a69713584f69a121e4ed91918a64448a0" target="_top" xlink:title=" ">
<polygon fill="white" stroke="#666666" points="215,-77 134.5,-77 134.5,-57 215,-57 215,-77"/>
<text text-anchor="middle" x="174.75" y="-63.5" font-family="Helvetica,sans-Serif" font-size="10.00">cvmtfTemplate</text>
</a>
</g>
</g>
<!-- Node1&#45;&gt;Node2 -->
<g id="edge1_Node000001_Node000002" class="edge">
<title>Node1&#45;&gt;Node2</title>
<g id="a_edge1_Node000001_Node000002"><a xlink:title=" ">
<path fill="none" stroke="#63b8ff" d="M98.71,-67C106.61,-67 114.81,-67 122.77,-67"/>
<polygon fill="#63b8ff" stroke="#63b8ff" points="122.68,-70.5 132.68,-67 122.68,-63.5 122.68,-70.5"/>
</a>
</g>
</g>
<!-- Node3 -->
<g id="Node000003" class="node">
<title>Node3</title>
<g id="a_Node000003"><a xlink:href="fopencv_8cpp.html#af6fc77188d314c0d5a58888452f9b313" target="_top" xlink:title=" ">
<polygon fill="white" stroke="#666666" points="334.12,-134 266.38,-134 266.38,-114 334.12,-114 334.12,-134"/>
<text text-anchor="middle" x="300.25" y="-120.5" font-family="Helvetica,sans-Serif" font-size="10.00">extractZone</text>
</a>
</g>
</g>
<!-- Node2&#45;&gt;Node3 -->
<g id="edge2_Node000002_Node000003" class="edge">
<title>Node2&#45;&gt;Node3</title>
<g id="a_edge2_Node000002_Node000003"><a xlink:title=" ">
<path fill="none" stroke="#63b8ff" d="M195,-77.34C210.07,-85.28 231.63,-96.32 251,-105 254.18,-106.43 257.51,-107.86 260.86,-109.26"/>
<polygon fill="#63b8ff" stroke="#63b8ff" points="259.53,-112.49 270.11,-113.01 262.16,-106.01 259.53,-112.49"/>
</a>
</g>
</g>
<!-- Node4 -->
<g id="Node000004" class="node">
<title>Node4</title>
<g id="a_Node000004"><a xlink:href="struct_zone.html#a5301e7fcf185a5a79c1bf7d7930f4b8a" target="_top" xlink:title=" ">
<polygon fill="white" stroke="#666666" points="334.5,-96 266,-96 266,-76 334.5,-76 334.5,-96"/>
<text text-anchor="middle" x="300.25" y="-82.5" font-family="Helvetica,sans-Serif" font-size="10.00">Zone::isNull</text>
</a>
</g>
</g>
<!-- Node2&#45;&gt;Node4 -->
<g id="edge3_Node000002_Node000004" class="edge">
<title>Node2&#45;&gt;Node4</title>
<g id="a_edge3_Node000002_Node000004"><a xlink:title=" ">
<path fill="none" stroke="#63b8ff" d="M215.17,-73.06C227.72,-75 241.71,-77.15 254.61,-79.13"/>
<polygon fill="#63b8ff" stroke="#63b8ff" points="253.69,-82.53 264.11,-80.59 254.75,-75.61 253.69,-82.53"/>
</a>
</g>
</g>
<!-- Node6 -->
<g id="Node000006" class="node">
<title>Node6</title>
<g id="a_Node000006"><a xlink:href="fopencv_8cpp.html#a1ed1ff1a9df2ab889e1423cb11a58c06" target="_top" xlink:title=" ">
<polygon fill="white" stroke="#666666" points="341.62,-58 258.88,-58 258.88,-38 341.62,-38 341.62,-58"/>
<text text-anchor="middle" x="300.25" y="-44.5" font-family="Helvetica,sans-Serif" font-size="10.00">messageFound</text>
</a>
</g>
</g>
<!-- Node2&#45;&gt;Node6 -->
<g id="edge5_Node000002_Node000006" class="edge">
<title>Node2&#45;&gt;Node6</title>
<g id="a_edge5_Node000002_Node000006"><a xlink:title=" ">
<path fill="none" stroke="#63b8ff" d="M215.17,-60.94C225.43,-59.36 236.66,-57.63 247.46,-55.97"/>
<polygon fill="#63b8ff" stroke="#63b8ff" points="247.66,-59.48 257.01,-54.5 246.6,-52.56 247.66,-59.48"/>
</a>
</g>
</g>
<!-- Node7 -->
<g id="Node000007" class="node">
<title>Node7</title>
<g id="a_Node000007"><a xlink:href="fopencv_8cpp.html#ae51fd1f3ed39bd8c9b8da4a313d5aeb3" target="_top" xlink:title=" ">
<polygon fill="white" stroke="#666666" points="349.5,-20 251,-20 251,0 349.5,0 349.5,-20"/>
<text text-anchor="middle" x="300.25" y="-6.5" font-family="Helvetica,sans-Serif" font-size="10.00">oneMatchTemplate</text>
</a>
</g>
</g>
<!-- Node2&#45;&gt;Node7 -->
<g id="edge6_Node000002_Node000007" class="edge">
<title>Node2&#45;&gt;Node7</title>
<g id="a_edge6_Node000002_Node000007"><a xlink:title=" ">
<path fill="none" stroke="#63b8ff" d="M195,-56.66C210.07,-48.72 231.63,-37.68 251,-29 254.18,-27.57 257.51,-26.14 260.86,-24.74"/>
<polygon fill="#63b8ff" stroke="#63b8ff" points="262.16,-27.99 270.11,-20.99 259.53,-21.51 262.16,-27.99"/>
</a>
</g>
</g>
<!-- Node5 -->
<g id="Node000005" class="node">
<title>Node5</title>
<g id="a_Node000005"><a xlink:href="struct_coord.html#a34c573cd6230e5a532f12ae97e7395e2" target="_top" xlink:title=" ">
<polygon fill="white" stroke="#666666" points="458.5,-96 385.5,-96 385.5,-76 458.5,-76 458.5,-96"/>
<text text-anchor="middle" x="422" y="-82.5" font-family="Helvetica,sans-Serif" font-size="10.00">Coord::isNull</text>
</a>
</g>
</g>
<!-- Node4&#45;&gt;Node5 -->
<g id="edge4_Node000004_Node000005" class="edge">
<title>Node4&#45;&gt;Node5</title>
<g id="a_edge4_Node000004_Node000005"><a xlink:title=" ">
<path fill="none" stroke="#63b8ff" d="M334.93,-86C347.02,-86 360.89,-86 373.91,-86"/>
<polygon fill="#63b8ff" stroke="#63b8ff" points="373.55,-89.5 383.55,-86 373.55,-82.5 373.55,-89.5"/>
</a>
</g>
</g>
</g>
</svg>
