<?xml version="1.0" encoding="UTF-8" standalone="no"?>
<!DOCTYPE svg PUBLIC "-//W3C//DTD SVG 1.1//EN"
 "http://www.w3.org/Graphics/SVG/1.1/DTD/svg11.dtd">
<!-- Generated by graphviz version 12.2.0 (20241103.1931)
 -->
<!-- Title: Graphical Class Hierarchy Pages: 1 -->
<svg width="164pt" height="66pt"
 viewBox="0.00 0.00 163.75 66.00" xmlns="http://www.w3.org/2000/svg" xmlns:xlink="http://www.w3.org/1999/xlink">
<g id="graph0" class="graph" transform="scale(1 1) rotate(0) translate(4 62)">
<title>Graphical Class Hierarchy</title>
<!-- Node0 -->
<g id="Node000000" class="node">
<title>Node0</title>
<g id="a_Node000000"><a xlink:href="class_emulator.html" target="_top" xlink:title=" ">
<polygon fill="white" stroke="#666666" points="55,-39 0,-39 0,-19 55,-19 55,-39"/>
<text text-anchor="middle" x="27.5" y="-25.5" font-family="Helvetica,sans-Serif" font-size="10.00">Emulator</text>
</a>
</g>
</g>
<!-- Node1 -->
<g id="Node000001" class="node">
<title>Node1</title>
<g id="a_Node000001"><a xlink:href="class_bluestacks.html" target="_top" xlink:title=" ">
<polygon fill="white" stroke="#666666" points="155.75,-58 91,-58 91,-38 155.75,-38 155.75,-58"/>
<text text-anchor="middle" x="123.38" y="-44.5" font-family="Helvetica,sans-Serif" font-size="10.00">Bluestacks</text>
</a>
</g>
</g>
<!-- Node0&#45;&gt;Node1 -->
<g id="edge1_Node000000_Node000001" class="edge">
<title>Node0&#45;&gt;Node1</title>
<g id="a_edge1_Node000000_Node000001"><a xlink:title=" ">
<path fill="none" stroke="#63b8ff" d="M66.48,-36.69C74.56,-38.32 83.01,-40.03 90.82,-41.61"/>
<polygon fill="#63b8ff" stroke="#63b8ff" points="67.38,-33.3 56.88,-34.74 65.99,-40.16 67.38,-33.3"/>
</a>
</g>
</g>
<!-- Node2 -->
<g id="Node000002" class="node">
<title>Node2</title>
<g id="a_Node000002"><a xlink:href="class_l_d_player.html" target="_top" xlink:title=" ">
<polygon fill="white" stroke="#666666" points="151.62,-20 95.12,-20 95.12,0 151.62,0 151.62,-20"/>
<text text-anchor="middle" x="123.38" y="-6.5" font-family="Helvetica,sans-Serif" font-size="10.00">LDPlayer</text>
</a>
</g>
</g>
<!-- Node0&#45;&gt;Node2 -->
<g id="edge2_Node000000_Node000002" class="edge">
<title>Node0&#45;&gt;Node2</title>
<g id="a_edge2_Node000000_Node000002"><a xlink:title=" ">
<path fill="none" stroke="#63b8ff" d="M66.58,-21.29C76.03,-19.38 85.98,-17.37 94.82,-15.58"/>
<polygon fill="#63b8ff" stroke="#63b8ff" points="65.99,-17.84 56.88,-23.26 67.38,-24.7 65.99,-17.84"/>
</a>
</g>
</g>
</g>
</svg>
