<?xml version="1.0" encoding="UTF-8" standalone="no"?>
<!DOCTYPE svg PUBLIC "-//W3C//DTD SVG 1.1//EN"
 "http://www.w3.org/Graphics/SVG/1.1/DTD/svg11.dtd">
<!-- Generated by graphviz version 12.2.0 (20241103.1931)
 -->
<!-- Title: Graphical Class Hierarchy Pages: 1 -->
<svg width="672pt" height="807pt"
 viewBox="0.00 0.00 671.75 807.00" xmlns="http://www.w3.org/2000/svg" xmlns:xlink="http://www.w3.org/1999/xlink">
<g id="graph0" class="graph" transform="scale(1 1) rotate(0) translate(4 803)">
<title>Graphical Class Hierarchy</title>
<!-- Node0 -->
<g id="Node000000" class="node">
<title>Node0</title>
<g id="a_Node000000"><a xlink:href="class_token.html" target="_top" xlink:title=" ">
<polygon fill="white" stroke="#666666" points="42.25,-381 0,-381 0,-361 42.25,-361 42.25,-381"/>
<text text-anchor="middle" x="21.12" y="-367.5" font-family="Helvetica,sans-Serif" font-size="10.00">Token</text>
</a>
</g>
</g>
<!-- Node1 -->
<g id="Node000001" class="node">
<title>Node1</title>
<g id="a_Node000001"><a xlink:href="class_identifier_token.html" target="_top" xlink:title=" ">
<polygon fill="white" stroke="#666666" points="159.88,-609 80.12,-609 80.12,-589 159.88,-589 159.88,-609"/>
<text text-anchor="middle" x="120" y="-595.5" font-family="Helvetica,sans-Serif" font-size="10.00">IdentifierToken</text>
</a>
</g>
</g>
<!-- Node0&#45;&gt;Node1 -->
<g id="edge65_Node000000_Node000001" class="edge">
<title>Node0&#45;&gt;Node1</title>
<g id="a_edge65_Node000000_Node000001"><a xlink:title=" ">
<path fill="none" stroke="#63b8ff" d="M22.17,-392.32C23.36,-433.39 31.5,-524.32 78.25,-580 81.16,-583.47 84.84,-586.34 88.8,-588.71"/>
<polygon fill="#63b8ff" stroke="#63b8ff" points="25.67,-392.51 22.01,-382.57 18.67,-392.63 25.67,-392.51"/>
</a>
</g>
</g>
<!-- Node2 -->
<g id="Node000002" class="node">
<title>Node2</title>
<g id="a_Node000002"><a xlink:href="class_k_token.html" target="_top" xlink:title=" ">
<polygon fill="white" stroke="#666666" points="144.5,-571 95.5,-571 95.5,-551 144.5,-551 144.5,-571"/>
<text text-anchor="middle" x="120" y="-557.5" font-family="Helvetica,sans-Serif" font-size="10.00">KToken</text>
</a>
</g>
</g>
<!-- Node0&#45;&gt;Node2 -->
<g id="edge66_Node000000_Node000002" class="edge">
<title>Node0&#45;&gt;Node2</title>
<g id="a_edge66_Node000000_Node000002"><a xlink:title=" ">
<path fill="none" stroke="#63b8ff" d="M32.59,-391.53C53.22,-431.98 98.44,-520.68 113.79,-550.78"/>
<polygon fill="#63b8ff" stroke="#63b8ff" points="35.82,-390.15 28.16,-382.83 29.58,-393.33 35.82,-390.15"/>
</a>
</g>
</g>
<!-- Node31 -->
<g id="Node000031" class="node">
<title>Node31</title>
<g id="a_Node000031"><a xlink:href="class_l_token.html" target="_top" xlink:title=" ">
<polygon fill="white" stroke="#666666" points="143.38,-400 96.62,-400 96.62,-380 143.38,-380 143.38,-400"/>
<text text-anchor="middle" x="120" y="-386.5" font-family="Helvetica,sans-Serif" font-size="10.00">LToken</text>
</a>
</g>
</g>
<!-- Node0&#45;&gt;Node31 -->
<g id="edge95_Node000000_Node000031" class="edge">
<title>Node0&#45;&gt;Node31</title>
<g id="a_edge95_Node000000_Node000031"><a xlink:title=" ">
<path fill="none" stroke="#63b8ff" d="M53.76,-377.2C67.7,-379.94 83.76,-383.09 96.46,-385.58"/>
<polygon fill="#63b8ff" stroke="#63b8ff" points="54.64,-373.81 44.15,-375.32 53.29,-380.68 54.64,-373.81"/>
</a>
</g>
</g>
<!-- Node39 -->
<g id="Node000039" class="node">
<title>Node39</title>
<g id="a_Node000039"><a xlink:href="class_o_token.html" target="_top" xlink:title=" ">
<polygon fill="white" stroke="#666666" points="144.88,-362 95.12,-362 95.12,-342 144.88,-342 144.88,-362"/>
<text text-anchor="middle" x="120" y="-348.5" font-family="Helvetica,sans-Serif" font-size="10.00">OToken</text>
</a>
</g>
</g>
<!-- Node0&#45;&gt;Node39 -->
<g id="edge103_Node000000_Node000039" class="edge">
<title>Node0&#45;&gt;Node39</title>
<g id="a_edge103_Node000000_Node000039"><a xlink:title=" ">
<path fill="none" stroke="#63b8ff" d="M53.75,-364.8C67.06,-362.19 82.31,-359.2 94.72,-356.76"/>
<polygon fill="#63b8ff" stroke="#63b8ff" points="53.29,-361.32 44.15,-366.68 54.64,-368.19 53.29,-361.32"/>
</a>
</g>
</g>
<!-- Node40 -->
<g id="Node000040" class="node">
<title>Node40</title>
<g id="a_Node000040"><a xlink:href="class_p_token.html" target="_top" xlink:title=" ">
<polygon fill="white" stroke="#666666" points="144.5,-172 95.5,-172 95.5,-152 144.5,-152 144.5,-172"/>
<text text-anchor="middle" x="120" y="-158.5" font-family="Helvetica,sans-Serif" font-size="10.00">PToken</text>
</a>
</g>
</g>
<!-- Node0&#45;&gt;Node40 -->
<g id="edge104_Node000000_Node000040" class="edge">
<title>Node0&#45;&gt;Node40</title>
<g id="a_edge104_Node000000_Node000040"><a xlink:title=" ">
<path fill="none" stroke="#63b8ff" d="M31.71,-350.33C52.06,-306.41 98.99,-205.18 114.17,-172.43"/>
<polygon fill="#63b8ff" stroke="#63b8ff" points="28.6,-348.72 27.57,-359.26 34.95,-351.66 28.6,-348.72"/>
</a>
</g>
</g>
<!-- Node48 -->
<g id="Node000048" class="node">
<title>Node48</title>
<g id="a_Node000048"><a xlink:href="class_unknown_token.html" target="_top" xlink:title=" ">
<polygon fill="white" stroke="#666666" points="161.75,-134 78.25,-134 78.25,-114 161.75,-114 161.75,-134"/>
<text text-anchor="middle" x="120" y="-120.5" font-family="Helvetica,sans-Serif" font-size="10.00">UnknownToken</text>
</a>
</g>
</g>
<!-- Node0&#45;&gt;Node48 -->
<g id="edge112_Node000000_Node000048" class="edge">
<title>Node0&#45;&gt;Node48</title>
<g id="a_edge112_Node000000_Node000048"><a xlink:title=" ">
<path fill="none" stroke="#63b8ff" d="M21.57,-349.26C21.59,-305.26 27.6,-204.63 78.25,-143 81.03,-139.62 84.54,-136.81 88.33,-134.49"/>
<polygon fill="#63b8ff" stroke="#63b8ff" points="18.07,-349.07 21.68,-359.03 25.07,-348.99 18.07,-349.07"/>
</a>
</g>
</g>
<!-- Node3 -->
<g id="Node000003" class="node">
<title>Node3</title>
<g id="a_Node000003"><a xlink:href="class_break_token.html" target="_top" xlink:title=" ">
<polygon fill="white" stroke="#666666" points="297.38,-666 229.62,-666 229.62,-646 297.38,-646 297.38,-666"/>
<text text-anchor="middle" x="263.5" y="-652.5" font-family="Helvetica,sans-Serif" font-size="10.00">BreakToken</text>
</a>
</g>
</g>
<!-- Node2&#45;&gt;Node3 -->
<g id="edge67_Node000002_Node000003" class="edge">
<title>Node2&#45;&gt;Node3</title>
<g id="a_edge67_Node000002_Node000003"><a xlink:title=" ">
<path fill="none" stroke="#63b8ff" d="M154.73,-574.77C157.22,-576.36 159.6,-578.1 161.75,-580 184.24,-599.8 173.83,-618.95 197.75,-637 206.91,-643.92 218.55,-648.32 229.42,-651.12"/>
<polygon fill="#63b8ff" stroke="#63b8ff" points="156.58,-571.79 146.13,-570.06 153.23,-577.93 156.58,-571.79"/>
</a>
</g>
</g>
<!-- Node4 -->
<g id="Node000004" class="node">
<title>Node4</title>
<g id="a_Node000004"><a xlink:href="class_continue_token.html" target="_top" xlink:title=" ">
<polygon fill="white" stroke="#666666" points="304.12,-628 222.88,-628 222.88,-608 304.12,-608 304.12,-628"/>
<text text-anchor="middle" x="263.5" y="-614.5" font-family="Helvetica,sans-Serif" font-size="10.00">ContinueToken</text>
</a>
</g>
</g>
<!-- Node2&#45;&gt;Node4 -->
<g id="edge68_Node000002_Node000004" class="edge">
<title>Node2&#45;&gt;Node4</title>
<g id="a_edge68_Node000002_Node000004"><a xlink:title=" ">
<path fill="none" stroke="#63b8ff" d="M154.29,-576.36C156.82,-577.58 159.33,-578.8 161.75,-580 177.95,-588.05 180.99,-592.2 197.75,-599 205.67,-602.22 214.34,-605.14 222.69,-607.68"/>
<polygon fill="#63b8ff" stroke="#63b8ff" points="155.84,-573.22 145.31,-572.1 152.85,-579.55 155.84,-573.22"/>
</a>
</g>
</g>
<!-- Node5 -->
<g id="Node000005" class="node">
<title>Node5</title>
<g id="a_Node000005"><a xlink:href="class_flow_k_token.html" target="_top" xlink:title=" ">
<polygon fill="white" stroke="#666666" points="298.5,-590 228.5,-590 228.5,-570 298.5,-570 298.5,-590"/>
<text text-anchor="middle" x="263.5" y="-576.5" font-family="Helvetica,sans-Serif" font-size="10.00">FlowKToken</text>
</a>
</g>
</g>
<!-- Node2&#45;&gt;Node5 -->
<g id="edge69_Node000002_Node000005" class="edge">
<title>Node2&#45;&gt;Node5</title>
<g id="a_edge69_Node000002_Node000005"><a xlink:title=" ">
<path fill="none" stroke="#63b8ff" d="M155.87,-565.68C177.89,-568.64 206.21,-572.44 228.13,-575.38"/>
<polygon fill="#63b8ff" stroke="#63b8ff" points="156.56,-562.24 146.18,-564.38 155.63,-569.18 156.56,-562.24"/>
</a>
</g>
</g>
<!-- Node7 -->
<g id="Node000007" class="node">
<title>Node7</title>
<g id="a_Node000007"><a xlink:href="class_k_p_token.html" target="_top" xlink:title=" ">
<polygon fill="white" stroke="#666666" points="291.38,-552 235.62,-552 235.62,-532 291.38,-532 291.38,-552"/>
<text text-anchor="middle" x="263.5" y="-538.5" font-family="Helvetica,sans-Serif" font-size="10.00">KPToken</text>
</a>
</g>
</g>
<!-- Node2&#45;&gt;Node7 -->
<g id="edge71_Node000002_Node000007" class="edge">
<title>Node2&#45;&gt;Node7</title>
<g id="a_edge71_Node000002_Node000007"><a xlink:title=" ">
<path fill="none" stroke="#63b8ff" d="M156.01,-556.3C180.52,-553.01 212.78,-548.68 235.35,-545.65"/>
<polygon fill="#63b8ff" stroke="#63b8ff" points="155.63,-552.82 146.18,-557.62 156.56,-559.76 155.63,-552.82"/>
</a>
</g>
</g>
<!-- Node6 -->
<g id="Node000006" class="node">
<title>Node6</title>
<g id="a_Node000006"><a xlink:href="class_else_token.html" target="_top" xlink:title=" ">
<polygon fill="white" stroke="#666666" points="437.12,-742 375.38,-742 375.38,-722 437.12,-722 437.12,-742"/>
<text text-anchor="middle" x="406.25" y="-728.5" font-family="Helvetica,sans-Serif" font-size="10.00">ElseToken</text>
</a>
</g>
</g>
<!-- Node5&#45;&gt;Node6 -->
<g id="edge70_Node000005_Node000006" class="edge">
<title>Node5&#45;&gt;Node6</title>
<g id="a_edge70_Node000005_Node000006"><a xlink:title=" ">
<path fill="none" stroke="#63b8ff" d="M309.48,-586.94C316.78,-589.72 323.74,-593.6 329.25,-599 367.2,-636.18 330.35,-672.94 365.25,-713 368.18,-716.36 371.83,-719.18 375.74,-721.52"/>
<polygon fill="#63b8ff" stroke="#63b8ff" points="310.71,-583.66 300.12,-584.04 308.64,-590.34 310.71,-583.66"/>
</a>
</g>
</g>
<!-- Node8 -->
<g id="Node000008" class="node">
<title>Node8</title>
<g id="a_Node000008"><a xlink:href="class_and_token.html" target="_top" xlink:title=" ">
<polygon fill="white" stroke="#666666" points="436,-704 376.5,-704 376.5,-684 436,-684 436,-704"/>
<text text-anchor="middle" x="406.25" y="-690.5" font-family="Helvetica,sans-Serif" font-size="10.00">AndToken</text>
</a>
</g>
</g>
<!-- Node7&#45;&gt;Node8 -->
<g id="edge72_Node000007_Node000008" class="edge">
<title>Node7&#45;&gt;Node8</title>
<g id="a_edge72_Node000007_Node000008"><a xlink:title=" ">
<path fill="none" stroke="#63b8ff" d="M302.88,-546.73C312.49,-549.54 322.09,-553.99 329.25,-561 367.2,-598.18 330.35,-634.94 365.25,-675 368.28,-678.48 372.09,-681.37 376.14,-683.76"/>
<polygon fill="#63b8ff" stroke="#63b8ff" points="303.74,-543.33 293.2,-544.46 302.14,-550.15 303.74,-543.33"/>
</a>
</g>
</g>
<!-- Node9 -->
<g id="Node000009" class="node">
<title>Node9</title>
<g id="a_Node000009"><a xlink:href="class_compare_token.html" target="_top" xlink:title=" ">
<polygon fill="white" stroke="#666666" points="447.25,-666 365.25,-666 365.25,-646 447.25,-646 447.25,-666"/>
<text text-anchor="middle" x="406.25" y="-652.5" font-family="Helvetica,sans-Serif" font-size="10.00">CompareToken</text>
</a>
</g>
</g>
<!-- Node7&#45;&gt;Node9 -->
<g id="edge73_Node000007_Node000009" class="edge">
<title>Node7&#45;&gt;Node9</title>
<g id="a_edge73_Node000007_Node000009"><a xlink:title=" ">
<path fill="none" stroke="#63b8ff" d="M302.75,-547.54C312.2,-550.36 321.76,-554.6 329.25,-561 357.67,-585.28 338.84,-610.56 365.25,-637 368.62,-640.37 372.7,-643.23 376.96,-645.61"/>
<polygon fill="#63b8ff" stroke="#63b8ff" points="303.84,-544.2 293.29,-545.21 302.16,-551 303.84,-544.2"/>
</a>
</g>
</g>
<!-- Node10 -->
<g id="Node000010" class="node">
<title>Node10</title>
<g id="a_Node000010"><a xlink:href="class_e_k_p_token.html" target="_top" xlink:title=" ">
<polygon fill="white" stroke="#666666" points="437.5,-628 375,-628 375,-608 437.5,-608 437.5,-628"/>
<text text-anchor="middle" x="406.25" y="-614.5" font-family="Helvetica,sans-Serif" font-size="10.00">EKPToken</text>
</a>
</g>
</g>
<!-- Node7&#45;&gt;Node10 -->
<g id="edge74_Node000007_Node000010" class="edge">
<title>Node7&#45;&gt;Node10</title>
<g id="a_edge74_Node000007_Node000010"><a xlink:title=" ">
<path fill="none" stroke="#63b8ff" d="M302.54,-549.55C311.69,-552.32 321.15,-556.05 329.25,-561 349.1,-573.14 346.42,-585.33 365.25,-599 369.73,-602.25 374.85,-605.18 379.9,-607.7"/>
<polygon fill="#63b8ff" stroke="#63b8ff" points="303.68,-546.23 293.11,-547.01 301.86,-552.99 303.68,-546.23"/>
</a>
</g>
</g>
<!-- Node18 -->
<g id="Node000018" class="node">
<title>Node18</title>
<g id="a_Node000018"><a xlink:href="class_flow_k_p_token.html" target="_top" xlink:title=" ">
<polygon fill="white" stroke="#666666" points="444.62,-590 367.88,-590 367.88,-570 444.62,-570 444.62,-590"/>
<text text-anchor="middle" x="406.25" y="-576.5" font-family="Helvetica,sans-Serif" font-size="10.00">FlowKPToken</text>
</a>
</g>
</g>
<!-- Node7&#45;&gt;Node18 -->
<g id="edge82_Node000007_Node000018" class="edge">
<title>Node7&#45;&gt;Node18</title>
<g id="a_edge82_Node000007_Node000018"><a xlink:title=" ">
<path fill="none" stroke="#63b8ff" d="M302.62,-552.29C322.78,-557.74 347.45,-564.4 367.55,-569.82"/>
<polygon fill="#63b8ff" stroke="#63b8ff" points="303.67,-548.95 293.1,-549.72 301.84,-555.71 303.67,-548.95"/>
</a>
</g>
</g>
<!-- Node25 -->
<g id="Node000025" class="node">
<title>Node25</title>
<g id="a_Node000025"><a xlink:href="class_list_token.html" target="_top" xlink:title=" ">
<polygon fill="white" stroke="#666666" points="435.25,-552 377.25,-552 377.25,-532 435.25,-532 435.25,-552"/>
<text text-anchor="middle" x="406.25" y="-538.5" font-family="Helvetica,sans-Serif" font-size="10.00">ListToken</text>
</a>
</g>
</g>
<!-- Node7&#45;&gt;Node25 -->
<g id="edge89_Node000007_Node000025" class="edge">
<title>Node7&#45;&gt;Node25</title>
<g id="a_edge89_Node000007_Node000025"><a xlink:title=" ">
<path fill="none" stroke="#63b8ff" d="M302.96,-542C326.45,-542 355.95,-542 377.23,-542"/>
<polygon fill="#63b8ff" stroke="#63b8ff" points="303.15,-538.5 293.15,-542 303.15,-545.5 303.15,-538.5"/>
</a>
</g>
</g>
<!-- Node26 -->
<g id="Node000026" class="node">
<title>Node26</title>
<g id="a_Node000026"><a xlink:href="class_not_token.html" target="_top" xlink:title=" ">
<polygon fill="white" stroke="#666666" points="435.25,-514 377.25,-514 377.25,-494 435.25,-494 435.25,-514"/>
<text text-anchor="middle" x="406.25" y="-500.5" font-family="Helvetica,sans-Serif" font-size="10.00">NotToken</text>
</a>
</g>
</g>
<!-- Node7&#45;&gt;Node26 -->
<g id="edge90_Node000007_Node000026" class="edge">
<title>Node7&#45;&gt;Node26</title>
<g id="a_edge90_Node000007_Node000026"><a xlink:title=" ">
<path fill="none" stroke="#63b8ff" d="M302.64,-531.7C326.18,-525.35 355.86,-517.34 377.23,-511.56"/>
<polygon fill="#63b8ff" stroke="#63b8ff" points="301.84,-528.29 293.1,-534.28 303.67,-535.05 301.84,-528.29"/>
</a>
</g>
</g>
<!-- Node27 -->
<g id="Node000027" class="node">
<title>Node27</title>
<g id="a_Node000027"><a xlink:href="class_or_token.html" target="_top" xlink:title=" ">
<polygon fill="white" stroke="#666666" points="432.62,-476 379.88,-476 379.88,-456 432.62,-456 432.62,-476"/>
<text text-anchor="middle" x="406.25" y="-462.5" font-family="Helvetica,sans-Serif" font-size="10.00">OrToken</text>
</a>
</g>
</g>
<!-- Node7&#45;&gt;Node27 -->
<g id="edge91_Node000007_Node000027" class="edge">
<title>Node7&#45;&gt;Node27</title>
<g id="a_edge91_Node000007_Node000027"><a xlink:title=" ">
<path fill="none" stroke="#63b8ff" d="M302.54,-534.45C311.69,-531.68 321.15,-527.95 329.25,-523 349.1,-510.86 346.42,-498.67 365.25,-485 369.73,-481.75 374.85,-478.82 379.9,-476.3"/>
<polygon fill="#63b8ff" stroke="#63b8ff" points="301.86,-531.01 293.11,-536.99 303.68,-537.77 301.86,-531.01"/>
</a>
</g>
</g>
<!-- Node28 -->
<g id="Node000028" class="node">
<title>Node28</title>
<g id="a_Node000028"><a xlink:href="class_print_token.html" target="_top" xlink:title=" ">
<polygon fill="white" stroke="#666666" points="437.5,-438 375,-438 375,-418 437.5,-418 437.5,-438"/>
<text text-anchor="middle" x="406.25" y="-424.5" font-family="Helvetica,sans-Serif" font-size="10.00">PrintToken</text>
</a>
</g>
</g>
<!-- Node7&#45;&gt;Node28 -->
<g id="edge92_Node000007_Node000028" class="edge">
<title>Node7&#45;&gt;Node28</title>
<g id="a_edge92_Node000007_Node000028"><a xlink:title=" ">
<path fill="none" stroke="#63b8ff" d="M302.75,-536.46C312.2,-533.64 321.76,-529.4 329.25,-523 357.67,-498.72 338.84,-473.44 365.25,-447 368.62,-443.63 372.7,-440.77 376.96,-438.39"/>
<polygon fill="#63b8ff" stroke="#63b8ff" points="302.16,-533 293.29,-538.79 303.84,-539.8 302.16,-533"/>
</a>
</g>
</g>
<!-- Node29 -->
<g id="Node000029" class="node">
<title>Node29</title>
<g id="a_Node000029"><a xlink:href="class_store_token.html" target="_top" xlink:title=" ">
<polygon fill="white" stroke="#666666" points="439,-400 373.5,-400 373.5,-380 439,-380 439,-400"/>
<text text-anchor="middle" x="406.25" y="-386.5" font-family="Helvetica,sans-Serif" font-size="10.00">StoreToken</text>
</a>
</g>
</g>
<!-- Node7&#45;&gt;Node29 -->
<g id="edge93_Node000007_Node000029" class="edge">
<title>Node7&#45;&gt;Node29</title>
<g id="a_edge93_Node000007_Node000029"><a xlink:title=" ">
<path fill="none" stroke="#63b8ff" d="M302.88,-537.27C312.49,-534.46 322.09,-530.01 329.25,-523 367.2,-485.82 330.35,-449.06 365.25,-409 368.18,-405.64 371.83,-402.82 375.74,-400.48"/>
<polygon fill="#63b8ff" stroke="#63b8ff" points="302.14,-533.85 293.2,-539.54 303.74,-540.67 302.14,-533.85"/>
</a>
</g>
</g>
<!-- Node30 -->
<g id="Node000030" class="node">
<title>Node30</title>
<g id="a_Node000030"><a xlink:href="class_wait_token.html" target="_top" xlink:title=" ">
<polygon fill="white" stroke="#666666" points="437.12,-362 375.38,-362 375.38,-342 437.12,-342 437.12,-362"/>
<text text-anchor="middle" x="406.25" y="-348.5" font-family="Helvetica,sans-Serif" font-size="10.00">WaitToken</text>
</a>
</g>
</g>
<!-- Node7&#45;&gt;Node30 -->
<g id="edge94_Node000007_Node000030" class="edge">
<title>Node7&#45;&gt;Node30</title>
<g id="a_edge94_Node000007_Node000030"><a xlink:title=" ">
<path fill="none" stroke="#63b8ff" d="M302.66,-537.78C312.47,-534.98 322.22,-530.41 329.25,-523 377.03,-472.63 321.6,-424.98 365.25,-371 368.05,-367.53 371.64,-364.66 375.51,-362.29"/>
<polygon fill="#63b8ff" stroke="#63b8ff" points="302.18,-534.3 293.19,-539.91 303.72,-541.13 302.18,-534.3"/>
</a>
</g>
</g>
<!-- Node11 -->
<g id="Node000011" class="node">
<title>Node11</title>
<g id="a_Node000011"><a xlink:href="class_bool_token.html" target="_top" xlink:title=" ">
<polygon fill="white" stroke="#666666" points="554.75,-799 493,-799 493,-779 554.75,-779 554.75,-799"/>
<text text-anchor="middle" x="523.88" y="-785.5" font-family="Helvetica,sans-Serif" font-size="10.00">BoolToken</text>
</a>
</g>
</g>
<!-- Node10&#45;&gt;Node11 -->
<g id="edge75_Node000010_Node000011" class="edge">
<title>Node10&#45;&gt;Node11</title>
<g id="a_edge75_Node000010_Node000011"><a xlink:title=" ">
<path fill="none" stroke="#63b8ff" d="M445.86,-635.44C446.34,-635.94 446.8,-636.47 447.25,-637 486.51,-684 444.08,-722.93 483.25,-770 486.08,-773.4 489.66,-776.24 493.51,-778.59"/>
<polygon fill="#63b8ff" stroke="#63b8ff" points="448.1,-632.75 438.08,-629.31 443.77,-638.25 448.1,-632.75"/>
</a>
</g>
</g>
<!-- Node12 -->
<g id="Node000012" class="node">
<title>Node12</title>
<g id="a_Node000012"><a xlink:href="class_coord_token.html" target="_top" xlink:title=" ">
<polygon fill="white" stroke="#666666" points="558.12,-761 489.62,-761 489.62,-741 558.12,-741 558.12,-761"/>
<text text-anchor="middle" x="523.88" y="-747.5" font-family="Helvetica,sans-Serif" font-size="10.00">CoordToken</text>
</a>
</g>
</g>
<!-- Node10&#45;&gt;Node12 -->
<g id="edge76_Node000010_Node000012" class="edge">
<title>Node10&#45;&gt;Node12</title>
<g id="a_edge76_Node000010_Node000012"><a xlink:title=" ">
<path fill="none" stroke="#63b8ff" d="M445.42,-635.15C446.05,-635.75 446.66,-636.36 447.25,-637 477.85,-670.2 452.71,-698.75 483.25,-732 486.35,-735.37 490.17,-738.21 494.21,-740.57"/>
<polygon fill="#63b8ff" stroke="#63b8ff" points="447.55,-632.37 437.41,-629.29 443.41,-638.02 447.55,-632.37"/>
</a>
</g>
</g>
<!-- Node13 -->
<g id="Node000013" class="node">
<title>Node13</title>
<g id="a_Node000013"><a xlink:href="class_direction_token.html" target="_top" xlink:title=" ">
<polygon fill="white" stroke="#666666" points="564.5,-723 483.25,-723 483.25,-703 564.5,-703 564.5,-723"/>
<text text-anchor="middle" x="523.88" y="-709.5" font-family="Helvetica,sans-Serif" font-size="10.00">DirectionToken</text>
</a>
</g>
</g>
<!-- Node10&#45;&gt;Node13 -->
<g id="edge77_Node000010_Node000013" class="edge">
<title>Node10&#45;&gt;Node13</title>
<g id="a_edge77_Node000010_Node000013"><a xlink:title=" ">
<path fill="none" stroke="#63b8ff" d="M443.89,-634.27C445.06,-635.14 446.18,-636.05 447.25,-637 469.67,-656.88 460.87,-674.08 483.25,-694 487.01,-697.35 491.47,-700.23 496.01,-702.67"/>
<polygon fill="#63b8ff" stroke="#63b8ff" points="445.98,-631.45 435.65,-629.1 442.27,-637.38 445.98,-631.45"/>
</a>
</g>
</g>
<!-- Node14 -->
<g id="Node000014" class="node">
<title>Node14</title>
<g id="a_Node000014"><a xlink:href="class_float_token.html" target="_top" xlink:title=" ">
<polygon fill="white" stroke="#666666" points="555.88,-685 491.88,-685 491.88,-665 555.88,-665 555.88,-685"/>
<text text-anchor="middle" x="523.88" y="-671.5" font-family="Helvetica,sans-Serif" font-size="10.00">FloatToken</text>
</a>
</g>
</g>
<!-- Node10&#45;&gt;Node14 -->
<g id="edge78_Node000010_Node000014" class="edge">
<title>Node10&#45;&gt;Node14</title>
<g id="a_edge78_Node000010_Node000014"><a xlink:title=" ">
<path fill="none" stroke="#63b8ff" d="M439.92,-633.38C442.41,-634.59 444.87,-635.81 447.25,-637 463.42,-645.11 467.09,-647.87 483.25,-656 488.97,-658.88 495.21,-661.92 501,-664.7"/>
<polygon fill="#63b8ff" stroke="#63b8ff" points="441.65,-630.33 431.12,-629.14 438.61,-636.63 441.65,-630.33"/>
</a>
</g>
</g>
<!-- Node15 -->
<g id="Node000015" class="node">
<title>Node15</title>
<g id="a_Node000015"><a xlink:href="class_integer_token.html" target="_top" xlink:title=" ">
<polygon fill="white" stroke="#666666" points="560,-647 487.75,-647 487.75,-627 560,-627 560,-647"/>
<text text-anchor="middle" x="523.88" y="-633.5" font-family="Helvetica,sans-Serif" font-size="10.00">IntegerToken</text>
</a>
</g>
</g>
<!-- Node10&#45;&gt;Node15 -->
<g id="edge79_Node000010_Node000015" class="edge">
<title>Node10&#45;&gt;Node15</title>
<g id="a_edge79_Node000010_Node000015"><a xlink:title=" ">
<path fill="none" stroke="#63b8ff" d="M449.12,-624.88C461.72,-626.95 475.41,-629.2 487.54,-631.19"/>
<polygon fill="#63b8ff" stroke="#63b8ff" points="449.86,-621.46 439.43,-623.29 448.73,-628.36 449.86,-621.46"/>
</a>
</g>
</g>
<!-- Node16 -->
<g id="Node000016" class="node">
<title>Node16</title>
<g id="a_Node000016"><a xlink:href="class_string_token.html" target="_top" xlink:title=" ">
<polygon fill="white" stroke="#666666" points="557.75,-609 490,-609 490,-589 557.75,-589 557.75,-609"/>
<text text-anchor="middle" x="523.88" y="-595.5" font-family="Helvetica,sans-Serif" font-size="10.00">StringToken</text>
</a>
</g>
</g>
<!-- Node10&#45;&gt;Node16 -->
<g id="edge80_Node000010_Node000016" class="edge">
<title>Node10&#45;&gt;Node16</title>
<g id="a_edge80_Node000010_Node000016"><a xlink:title=" ">
<path fill="none" stroke="#63b8ff" d="M449.22,-611.1C462.52,-608.92 477.02,-606.54 489.61,-604.47"/>
<polygon fill="#63b8ff" stroke="#63b8ff" points="448.73,-607.64 439.43,-612.71 449.86,-614.54 448.73,-607.64"/>
</a>
</g>
</g>
<!-- Node17 -->
<g id="Node000017" class="node">
<title>Node17</title>
<g id="a_Node000017"><a xlink:href="class_zone_token.html" target="_top" xlink:title=" ">
<polygon fill="white" stroke="#666666" points="555.88,-571 491.88,-571 491.88,-551 555.88,-551 555.88,-571"/>
<text text-anchor="middle" x="523.88" y="-557.5" font-family="Helvetica,sans-Serif" font-size="10.00">ZoneToken</text>
</a>
</g>
</g>
<!-- Node10&#45;&gt;Node17 -->
<g id="edge81_Node000010_Node000017" class="edge">
<title>Node10&#45;&gt;Node17</title>
<g id="a_edge81_Node000010_Node000017"><a xlink:title=" ">
<path fill="none" stroke="#63b8ff" d="M439.92,-602.62C442.41,-601.41 444.87,-600.19 447.25,-599 463.42,-590.89 467.09,-588.13 483.25,-580 488.97,-577.12 495.21,-574.08 501,-571.3"/>
<polygon fill="#63b8ff" stroke="#63b8ff" points="438.61,-599.37 431.12,-606.86 441.65,-605.67 438.61,-599.37"/>
</a>
</g>
</g>
<!-- Node19 -->
<g id="Node000019" class="node">
<title>Node19</title>
<g id="a_Node000019"><a xlink:href="class_do_loop_token.html" target="_top" xlink:title=" ">
<polygon fill="white" stroke="#666666" points="561.88,-533 485.88,-533 485.88,-513 561.88,-513 561.88,-533"/>
<text text-anchor="middle" x="523.88" y="-519.5" font-family="Helvetica,sans-Serif" font-size="10.00">DoLoopToken</text>
</a>
</g>
</g>
<!-- Node18&#45;&gt;Node19 -->
<g id="edge83_Node000018_Node000019" class="edge">
<title>Node18&#45;&gt;Node19</title>
<g id="a_edge83_Node000018_Node000019"><a xlink:title=" ">
<path fill="none" stroke="#63b8ff" d="M439.92,-564.62C442.41,-563.41 444.87,-562.19 447.25,-561 463.42,-552.89 467.09,-550.13 483.25,-542 488.97,-539.12 495.21,-536.08 501,-533.3"/>
<polygon fill="#63b8ff" stroke="#63b8ff" points="438.61,-561.37 431.12,-568.86 441.65,-567.67 438.61,-561.37"/>
</a>
</g>
</g>
<!-- Node20 -->
<g id="Node000020" class="node">
<title>Node20</title>
<g id="a_Node000020"><a xlink:href="class_flow_k_c_token.html" target="_top" xlink:title=" ">
<polygon fill="white" stroke="#666666" points="562.62,-495 485.12,-495 485.12,-475 562.62,-475 562.62,-495"/>
<text text-anchor="middle" x="523.88" y="-481.5" font-family="Helvetica,sans-Serif" font-size="10.00">FlowKCToken</text>
</a>
</g>
</g>
<!-- Node18&#45;&gt;Node20 -->
<g id="edge84_Node000018_Node000020" class="edge">
<title>Node18&#45;&gt;Node20</title>
<g id="a_edge84_Node000018_Node000020"><a xlink:title=" ">
<path fill="none" stroke="#63b8ff" d="M443.89,-563.73C445.06,-562.86 446.18,-561.95 447.25,-561 469.67,-541.12 460.87,-523.92 483.25,-504 487.01,-500.65 491.47,-497.77 496.01,-495.33"/>
<polygon fill="#63b8ff" stroke="#63b8ff" points="442.27,-560.62 435.65,-568.9 445.98,-566.55 442.27,-560.62"/>
</a>
</g>
</g>
<!-- Node24 -->
<g id="Node000024" class="node">
<title>Node24</title>
<g id="a_Node000024"><a xlink:href="class_main_token.html" target="_top" xlink:title=" ">
<polygon fill="white" stroke="#666666" points="555.5,-457 492.25,-457 492.25,-437 555.5,-437 555.5,-457"/>
<text text-anchor="middle" x="523.88" y="-443.5" font-family="Helvetica,sans-Serif" font-size="10.00">MainToken</text>
</a>
</g>
</g>
<!-- Node18&#45;&gt;Node24 -->
<g id="edge88_Node000018_Node000024" class="edge">
<title>Node18&#45;&gt;Node24</title>
<g id="a_edge88_Node000018_Node000024"><a xlink:title=" ">
<path fill="none" stroke="#63b8ff" d="M445.42,-562.85C446.05,-562.25 446.66,-561.64 447.25,-561 477.85,-527.8 452.71,-499.25 483.25,-466 486.35,-462.63 490.17,-459.79 494.21,-457.43"/>
<polygon fill="#63b8ff" stroke="#63b8ff" points="443.41,-559.98 437.41,-568.71 447.55,-565.63 443.41,-559.98"/>
</a>
</g>
</g>
<!-- Node21 -->
<g id="Node000021" class="node">
<title>Node21</title>
<g id="a_Node000021"><a xlink:href="class_elif_token.html" target="_top" xlink:title=" ">
<polygon fill="white" stroke="#666666" points="660.38,-533 603.88,-533 603.88,-513 660.38,-513 660.38,-533"/>
<text text-anchor="middle" x="632.12" y="-519.5" font-family="Helvetica,sans-Serif" font-size="10.00">ElifToken</text>
</a>
</g>
</g>
<!-- Node20&#45;&gt;Node21 -->
<g id="edge85_Node000020_Node000021" class="edge">
<title>Node20&#45;&gt;Node21</title>
<g id="a_edge85_Node000020_Node000021"><a xlink:title=" ">
<path fill="none" stroke="#63b8ff" d="M564.76,-499.27C577.75,-503.91 591.87,-508.96 603.73,-513.2"/>
<polygon fill="#63b8ff" stroke="#63b8ff" points="566.21,-496.07 555.61,-495.99 563.85,-502.66 566.21,-496.07"/>
</a>
</g>
</g>
<!-- Node22 -->
<g id="Node000022" class="node">
<title>Node22</title>
<g id="a_Node000022"><a xlink:href="class_if_token.html" target="_top" xlink:title=" ">
<polygon fill="white" stroke="#666666" points="656.25,-495 608,-495 608,-475 656.25,-475 656.25,-495"/>
<text text-anchor="middle" x="632.12" y="-481.5" font-family="Helvetica,sans-Serif" font-size="10.00">IfToken</text>
</a>
</g>
</g>
<!-- Node20&#45;&gt;Node22 -->
<g id="edge86_Node000020_Node000022" class="edge">
<title>Node20&#45;&gt;Node22</title>
<g id="a_edge86_Node000020_Node000022"><a xlink:title=" ">
<path fill="none" stroke="#63b8ff" d="M574.34,-485C585.9,-485 597.7,-485 607.53,-485"/>
<polygon fill="#63b8ff" stroke="#63b8ff" points="574.45,-481.5 564.45,-485 574.45,-488.5 574.45,-481.5"/>
</a>
</g>
</g>
<!-- Node23 -->
<g id="Node000023" class="node">
<title>Node23</title>
<g id="a_Node000023"><a xlink:href="class_loop_token.html" target="_top" xlink:title=" ">
<polygon fill="white" stroke="#666666" points="663.75,-457 600.5,-457 600.5,-437 663.75,-437 663.75,-457"/>
<text text-anchor="middle" x="632.12" y="-443.5" font-family="Helvetica,sans-Serif" font-size="10.00">LoopToken</text>
</a>
</g>
</g>
<!-- Node20&#45;&gt;Node23 -->
<g id="edge87_Node000020_Node000023" class="edge">
<title>Node20&#45;&gt;Node23</title>
<g id="a_edge87_Node000020_Node000023"><a xlink:title=" ">
<path fill="none" stroke="#63b8ff" d="M564.7,-470.76C577.05,-466.34 590.42,-461.56 601.91,-457.45"/>
<polygon fill="#63b8ff" stroke="#63b8ff" points="563.85,-467.34 555.61,-474.01 566.21,-473.93 563.85,-467.34"/>
</a>
</g>
</g>
<!-- Node32 -->
<g id="Node000032" class="node">
<title>Node32</title>
<g id="a_Node000032"><a xlink:href="class_false_token.html" target="_top" xlink:title=" ">
<polygon fill="white" stroke="#666666" points="296.62,-514 230.38,-514 230.38,-494 296.62,-494 296.62,-514"/>
<text text-anchor="middle" x="263.5" y="-500.5" font-family="Helvetica,sans-Serif" font-size="10.00">FalseToken</text>
</a>
</g>
</g>
<!-- Node31&#45;&gt;Node32 -->
<g id="edge96_Node000031_Node000032" class="edge">
<title>Node31&#45;&gt;Node32</title>
<g id="a_edge96_Node000031_Node000032"><a xlink:title=" ">
<path fill="none" stroke="#63b8ff" d="M132.14,-410.08C145.15,-431.69 168.63,-465.57 197.75,-485 207.4,-491.44 219.27,-495.74 230.2,-498.59"/>
<polygon fill="#63b8ff" stroke="#63b8ff" points="135.28,-408.5 127.23,-401.61 129.22,-412.02 135.28,-408.5"/>
</a>
</g>
</g>
<!-- Node33 -->
<g id="Node000033" class="node">
<title>Node33</title>
<g id="a_Node000033"><a xlink:href="class_milli_second_token.html" target="_top" xlink:title=" ">
<polygon fill="white" stroke="#666666" points="309.75,-476 217.25,-476 217.25,-456 309.75,-456 309.75,-476"/>
<text text-anchor="middle" x="263.5" y="-462.5" font-family="Helvetica,sans-Serif" font-size="10.00">MilliSecondToken</text>
</a>
</g>
</g>
<!-- Node31&#45;&gt;Node33 -->
<g id="edge97_Node000031_Node000033" class="edge">
<title>Node31&#45;&gt;Node33</title>
<g id="a_edge97_Node000031_Node000033"><a xlink:title=" ">
<path fill="none" stroke="#63b8ff" d="M140.68,-407.7C155.46,-420.19 176.71,-436.52 197.75,-447 204.46,-450.34 211.86,-453.2 219.19,-455.61"/>
<polygon fill="#63b8ff" stroke="#63b8ff" points="143.36,-405.39 133.51,-401.48 138.77,-410.68 143.36,-405.39"/>
</a>
</g>
</g>
<!-- Node34 -->
<g id="Node000034" class="node">
<title>Node34</title>
<g id="a_Node000034"><a xlink:href="class_minute_token.html" target="_top" xlink:title=" ">
<polygon fill="white" stroke="#666666" points="299.25,-438 227.75,-438 227.75,-418 299.25,-418 299.25,-438"/>
<text text-anchor="middle" x="263.5" y="-424.5" font-family="Helvetica,sans-Serif" font-size="10.00">MinuteToken</text>
</a>
</g>
</g>
<!-- Node31&#45;&gt;Node34 -->
<g id="edge98_Node000031_Node000034" class="edge">
<title>Node31&#45;&gt;Node34</title>
<g id="a_edge98_Node000031_Node000034"><a xlink:title=" ">
<path fill="none" stroke="#63b8ff" d="M154.84,-399.09C176.75,-404.97 205.22,-412.62 227.38,-418.57"/>
<polygon fill="#63b8ff" stroke="#63b8ff" points="155.76,-395.71 145.2,-396.5 153.95,-402.47 155.76,-395.71"/>
</a>
</g>
</g>
<!-- Node35 -->
<g id="Node000035" class="node">
<title>Node35</title>
<g id="a_Node000035"><a xlink:href="class_numeric_token.html" target="_top" xlink:title=" ">
<polygon fill="white" stroke="#666666" points="303,-400 224,-400 224,-380 303,-380 303,-400"/>
<text text-anchor="middle" x="263.5" y="-386.5" font-family="Helvetica,sans-Serif" font-size="10.00">NumericToken</text>
</a>
</g>
</g>
<!-- Node31&#45;&gt;Node35 -->
<g id="edge99_Node000031_Node000035" class="edge">
<title>Node31&#45;&gt;Node35</title>
<g id="a_edge99_Node000031_Node000035"><a xlink:title=" ">
<path fill="none" stroke="#63b8ff" d="M155.13,-390C175.75,-390 202.09,-390 223.53,-390"/>
<polygon fill="#63b8ff" stroke="#63b8ff" points="155.25,-386.5 145.25,-390 155.25,-393.5 155.25,-386.5"/>
</a>
</g>
</g>
<!-- Node36 -->
<g id="Node000036" class="node">
<title>Node36</title>
<g id="a_Node000036"><a xlink:href="class_second_token.html" target="_top" xlink:title=" ">
<polygon fill="white" stroke="#666666" points="301.12,-362 225.88,-362 225.88,-342 301.12,-342 301.12,-362"/>
<text text-anchor="middle" x="263.5" y="-348.5" font-family="Helvetica,sans-Serif" font-size="10.00">SecondToken</text>
</a>
</g>
</g>
<!-- Node31&#45;&gt;Node36 -->
<g id="edge100_Node000031_Node000036" class="edge">
<title>Node31&#45;&gt;Node36</title>
<g id="a_edge100_Node000031_Node000036"><a xlink:title=" ">
<path fill="none" stroke="#63b8ff" d="M154.85,-380.91C176.13,-375.19 203.61,-367.82 225.47,-361.94"/>
<polygon fill="#63b8ff" stroke="#63b8ff" points="153.95,-377.53 145.2,-383.5 155.76,-384.29 153.95,-377.53"/>
</a>
</g>
</g>
<!-- Node37 -->
<g id="Node000037" class="node">
<title>Node37</title>
<g id="a_Node000037"><a xlink:href="class_string_literal_token.html" target="_top" xlink:title=" ">
<polygon fill="white" stroke="#666666" points="310.5,-324 216.5,-324 216.5,-304 310.5,-304 310.5,-324"/>
<text text-anchor="middle" x="263.5" y="-310.5" font-family="Helvetica,sans-Serif" font-size="10.00">StringLiteralToken</text>
</a>
</g>
</g>
<!-- Node31&#45;&gt;Node37 -->
<g id="edge101_Node000031_Node000037" class="edge">
<title>Node31&#45;&gt;Node37</title>
<g id="a_edge101_Node000031_Node000037"><a xlink:title=" ">
<path fill="none" stroke="#63b8ff" d="M153.88,-376.02C156.62,-374.46 159.28,-372.78 161.75,-371 180.63,-357.4 177.9,-345.14 197.75,-333 203.45,-329.52 209.82,-326.64 216.28,-324.28"/>
<polygon fill="#63b8ff" stroke="#63b8ff" points="152.48,-372.81 145.18,-380.49 155.68,-379.03 152.48,-372.81"/>
</a>
</g>
</g>
<!-- Node38 -->
<g id="Node000038" class="node">
<title>Node38</title>
<g id="a_Node000038"><a xlink:href="class_true_token.html" target="_top" xlink:title=" ">
<polygon fill="white" stroke="#666666" points="294.38,-286 232.62,-286 232.62,-266 294.38,-266 294.38,-286"/>
<text text-anchor="middle" x="263.5" y="-272.5" font-family="Helvetica,sans-Serif" font-size="10.00">TrueToken</text>
</a>
</g>
</g>
<!-- Node31&#45;&gt;Node38 -->
<g id="edge102_Node000031_Node000038" class="edge">
<title>Node31&#45;&gt;Node38</title>
<g id="a_edge102_Node000031_Node000038"><a xlink:title=" ">
<path fill="none" stroke="#63b8ff" d="M153.43,-377.55C156.44,-375.63 159.28,-373.45 161.75,-371 188.26,-344.65 169.33,-319.28 197.75,-295 207.37,-286.78 220.4,-282.12 232.25,-279.47"/>
<polygon fill="#63b8ff" stroke="#63b8ff" points="152,-374.34 144.81,-382.12 155.28,-380.52 152,-374.34"/>
</a>
</g>
</g>
<!-- Node41 -->
<g id="Node000041" class="node">
<title>Node41</title>
<g id="a_Node000041"><a xlink:href="class_close_angle_brackets_token.html" target="_top" xlink:title=" ">
<polygon fill="white" stroke="#666666" points="329.25,-248 197.75,-248 197.75,-228 329.25,-228 329.25,-248"/>
<text text-anchor="middle" x="263.5" y="-234.5" font-family="Helvetica,sans-Serif" font-size="10.00">CloseAngleBracketsToken</text>
</a>
</g>
</g>
<!-- Node40&#45;&gt;Node41 -->
<g id="edge105_Node000040_Node000041" class="edge">
<title>Node40&#45;&gt;Node41</title>
<g id="a_edge105_Node000040_Node000041"><a xlink:title=" ">
<path fill="none" stroke="#63b8ff" d="M140.68,-179.7C155.46,-192.19 176.71,-208.52 197.75,-219 204.46,-222.34 211.86,-225.2 219.19,-227.61"/>
<polygon fill="#63b8ff" stroke="#63b8ff" points="143.36,-177.39 133.51,-173.48 138.77,-182.68 143.36,-177.39"/>
</a>
</g>
</g>
<!-- Node42 -->
<g id="Node000042" class="node">
<title>Node42</title>
<g id="a_Node000042"><a xlink:href="class_close_brackets_token.html" target="_top" xlink:title=" ">
<polygon fill="white" stroke="#666666" points="316.88,-210 210.12,-210 210.12,-190 316.88,-190 316.88,-210"/>
<text text-anchor="middle" x="263.5" y="-196.5" font-family="Helvetica,sans-Serif" font-size="10.00">CloseBracketsToken</text>
</a>
</g>
</g>
<!-- Node40&#45;&gt;Node42 -->
<g id="edge106_Node000040_Node000042" class="edge">
<title>Node40&#45;&gt;Node42</title>
<g id="a_edge106_Node000040_Node000042"><a xlink:title=" ">
<path fill="none" stroke="#63b8ff" d="M155.75,-171.33C176.26,-176.84 202.28,-183.83 223.49,-189.52"/>
<polygon fill="#63b8ff" stroke="#63b8ff" points="156.71,-167.97 146.15,-168.75 154.9,-174.73 156.71,-167.97"/>
</a>
</g>
</g>
<!-- Node43 -->
<g id="Node000043" class="node">
<title>Node43</title>
<g id="a_Node000043"><a xlink:href="class_close_parenthesis_token.html" target="_top" xlink:title=" ">
<polygon fill="white" stroke="#666666" points="323.25,-172 203.75,-172 203.75,-152 323.25,-152 323.25,-172"/>
<text text-anchor="middle" x="263.5" y="-158.5" font-family="Helvetica,sans-Serif" font-size="10.00">CloseParenthesisToken</text>
</a>
</g>
</g>
<!-- Node40&#45;&gt;Node43 -->
<g id="edge107_Node000040_Node000043" class="edge">
<title>Node40&#45;&gt;Node43</title>
<g id="a_edge107_Node000040_Node000043"><a xlink:title=" ">
<path fill="none" stroke="#63b8ff" d="M155.99,-162C170.28,-162 187.21,-162 203.31,-162"/>
<polygon fill="#63b8ff" stroke="#63b8ff" points="156.2,-158.5 146.2,-162 156.2,-165.5 156.2,-158.5"/>
</a>
</g>
</g>
<!-- Node44 -->
<g id="Node000044" class="node">
<title>Node44</title>
<g id="a_Node000044"><a xlink:href="class_comma_token.html" target="_top" xlink:title=" ">
<polygon fill="white" stroke="#666666" points="301.88,-134 225.12,-134 225.12,-114 301.88,-114 301.88,-134"/>
<text text-anchor="middle" x="263.5" y="-120.5" font-family="Helvetica,sans-Serif" font-size="10.00">CommaToken</text>
</a>
</g>
</g>
<!-- Node40&#45;&gt;Node44 -->
<g id="edge108_Node000040_Node000044" class="edge">
<title>Node40&#45;&gt;Node44</title>
<g id="a_edge108_Node000040_Node000044"><a xlink:title=" ">
<path fill="none" stroke="#63b8ff" d="M155.67,-152.69C176.64,-147.06 203.39,-139.87 224.87,-134.1"/>
<polygon fill="#63b8ff" stroke="#63b8ff" points="154.9,-149.27 146.15,-155.25 156.71,-156.03 154.9,-149.27"/>
</a>
</g>
</g>
<!-- Node45 -->
<g id="Node000045" class="node">
<title>Node45</title>
<g id="a_Node000045"><a xlink:href="class_open_angle_brackets_token.html" target="_top" xlink:title=" ">
<polygon fill="white" stroke="#666666" points="328.12,-96 198.88,-96 198.88,-76 328.12,-76 328.12,-96"/>
<text text-anchor="middle" x="263.5" y="-82.5" font-family="Helvetica,sans-Serif" font-size="10.00">OpenAngleBracketsToken</text>
</a>
</g>
</g>
<!-- Node40&#45;&gt;Node45 -->
<g id="edge109_Node000040_Node000045" class="edge">
<title>Node40&#45;&gt;Node45</title>
<g id="a_edge109_Node000040_Node000045"><a xlink:title=" ">
<path fill="none" stroke="#63b8ff" d="M154.8,-147.49C157.22,-146.08 159.56,-144.58 161.75,-143 180.63,-129.4 177.9,-117.14 197.75,-105 203.35,-101.58 209.59,-98.74 215.94,-96.4"/>
<polygon fill="#63b8ff" stroke="#63b8ff" points="153.26,-144.34 146.03,-152.08 156.51,-150.55 153.26,-144.34"/>
</a>
</g>
</g>
<!-- Node46 -->
<g id="Node000046" class="node">
<title>Node46</title>
<g id="a_Node000046"><a xlink:href="class_open_brackets_token.html" target="_top" xlink:title=" ">
<polygon fill="white" stroke="#666666" points="315.75,-58 211.25,-58 211.25,-38 315.75,-38 315.75,-58"/>
<text text-anchor="middle" x="263.5" y="-44.5" font-family="Helvetica,sans-Serif" font-size="10.00">OpenBracketsToken</text>
</a>
</g>
</g>
<!-- Node40&#45;&gt;Node46 -->
<g id="edge110_Node000040_Node000046" class="edge">
<title>Node40&#45;&gt;Node46</title>
<g id="a_edge110_Node000040_Node000046"><a xlink:title=" ">
<path fill="none" stroke="#63b8ff" d="M154.55,-148.81C157.15,-147.08 159.59,-145.14 161.75,-143 188.26,-116.65 169.33,-91.28 197.75,-67 201.76,-63.58 206.36,-60.77 211.22,-58.47"/>
<polygon fill="#63b8ff" stroke="#63b8ff" points="153.11,-145.61 146.07,-153.52 156.51,-151.73 153.11,-145.61"/>
</a>
</g>
</g>
<!-- Node47 -->
<g id="Node000047" class="node">
<title>Node47</title>
<g id="a_Node000047"><a xlink:href="class_open_parenthesis_token.html" target="_top" xlink:title=" ">
<polygon fill="white" stroke="#666666" points="322.12,-20 204.88,-20 204.88,0 322.12,0 322.12,-20"/>
<text text-anchor="middle" x="263.5" y="-6.5" font-family="Helvetica,sans-Serif" font-size="10.00">OpenParenthesisToken</text>
</a>
</g>
</g>
<!-- Node40&#45;&gt;Node47 -->
<g id="edge111_Node000040_Node000047" class="edge">
<title>Node40&#45;&gt;Node47</title>
<g id="a_edge111_Node000040_Node000047"><a xlink:title=" ">
<path fill="none" stroke="#63b8ff" d="M154.7,-149.24C157.3,-147.41 159.7,-145.34 161.75,-143 196.79,-103.06 159.8,-66.18 197.75,-29 201.26,-25.56 205.37,-22.73 209.77,-20.41"/>
<polygon fill="#63b8ff" stroke="#63b8ff" points="153.06,-146.15 146.08,-154.12 156.51,-152.24 153.06,-146.15"/>
</a>
</g>
</g>
</g>
</svg>
