<?xml version="1.0" encoding="UTF-8" standalone="no"?>
<!DOCTYPE svg PUBLIC "-//W3C//DTD SVG 1.1//EN"
 "http://www.w3.org/Graphics/SVG/1.1/DTD/svg11.dtd">
<!-- Generated by graphviz version 12.2.0 (20241103.1931)
 -->
<!-- Title: Graphical Class Hierarchy Pages: 1 -->
<svg width="317pt" height="971pt"
 viewBox="0.00 0.00 317.00 971.00" xmlns="http://www.w3.org/2000/svg" xmlns:xlink="http://www.w3.org/1999/xlink">
<g id="graph0" class="graph" transform="scale(1 1) rotate(0) translate(4 967)">
<title>Graphical Class Hierarchy</title>
<!-- Node0 -->
<g id="Node000000" class="node">
<title>Node0</title>
<g id="a_Node000000"><a xlink:href="class_tag.html" target="_top" xlink:title=" ">
<polygon fill="white" stroke="#666666" points="31.75,-469 0,-469 0,-449 31.75,-449 31.75,-469"/>
<text text-anchor="middle" x="15.88" y="-455.5" font-family="Helvetica,sans-Serif" font-size="10.00">Tag</text>
</a>
</g>
</g>
<!-- Node1 -->
<g id="Node000001" class="node">
<title>Node1</title>
<g id="a_Node000001"><a xlink:href="class_bool_tag.html" target="_top" xlink:title=" ">
<polygon fill="white" stroke="#666666" points="148.62,-906 97.38,-906 97.38,-886 148.62,-886 148.62,-906"/>
<text text-anchor="middle" x="123" y="-892.5" font-family="Helvetica,sans-Serif" font-size="10.00">BoolTag</text>
</a>
</g>
</g>
<!-- Node0&#45;&gt;Node1 -->
<g id="edge81_Node000000_Node000001" class="edge">
<title>Node0&#45;&gt;Node1</title>
<g id="a_edge81_Node000000_Node000001"><a xlink:title=" ">
<path fill="none" stroke="#63b8ff" d="M16.6,-480.9C16.05,-557.95 18.04,-815.21 67.75,-877 74.88,-885.86 86.42,-890.6 97.03,-893.13"/>
<polygon fill="#63b8ff" stroke="#63b8ff" points="20.09,-480.96 16.69,-470.92 13.09,-480.89 20.09,-480.96"/>
</a>
</g>
</g>
<!-- Node6 -->
<g id="Node000006" class="node">
<title>Node6</title>
<g id="a_Node000006"><a xlink:href="class_click_tag.html" target="_top" xlink:title=" ">
<polygon fill="white" stroke="#666666" points="150.12,-868 95.88,-868 95.88,-848 150.12,-848 150.12,-868"/>
<text text-anchor="middle" x="123" y="-854.5" font-family="Helvetica,sans-Serif" font-size="10.00">ClickTag</text>
</a>
</g>
</g>
<!-- Node0&#45;&gt;Node6 -->
<g id="edge86_Node000000_Node000006" class="edge">
<title>Node0&#45;&gt;Node6</title>
<g id="a_edge86_Node000000_Node000006"><a xlink:title=" ">
<path fill="none" stroke="#63b8ff" d="M16.89,-480.29C17.37,-552.01 22.45,-783.38 67.75,-839 74.56,-847.36 85.28,-852.04 95.39,-854.67"/>
<polygon fill="#63b8ff" stroke="#63b8ff" points="20.39,-480.67 16.85,-470.69 13.39,-480.7 20.39,-480.67"/>
</a>
</g>
</g>
<!-- Node7 -->
<g id="Node000007" class="node">
<title>Node7</title>
<g id="a_Node000007"><a xlink:href="class_compare_type_tag.html" target="_top" xlink:title=" ">
<polygon fill="white" stroke="#666666" points="169.25,-830 76.75,-830 76.75,-810 169.25,-810 169.25,-830"/>
<text text-anchor="middle" x="123" y="-816.5" font-family="Helvetica,sans-Serif" font-size="10.00">CompareTypeTag</text>
</a>
</g>
</g>
<!-- Node0&#45;&gt;Node7 -->
<g id="edge87_Node000000_Node000007" class="edge">
<title>Node0&#45;&gt;Node7</title>
<g id="a_edge87_Node000000_Node000007"><a xlink:title=" ">
<path fill="none" stroke="#63b8ff" d="M17.26,-480.74C18.86,-548.1 27.06,-751.78 67.75,-801 70.61,-804.46 74.14,-807.29 78.02,-809.61"/>
<polygon fill="#63b8ff" stroke="#63b8ff" points="20.76,-480.93 17.05,-471 13.76,-481.07 20.76,-480.93"/>
</a>
</g>
</g>
<!-- Node8 -->
<g id="Node000008" class="node">
<title>Node8</title>
<g id="a_Node000008"><a xlink:href="class_coord_tag.html" target="_top" xlink:title=" ">
<polygon fill="white" stroke="#666666" points="152,-792 94,-792 94,-772 152,-772 152,-792"/>
<text text-anchor="middle" x="123" y="-778.5" font-family="Helvetica,sans-Serif" font-size="10.00">CoordTag</text>
</a>
</g>
</g>
<!-- Node0&#45;&gt;Node8 -->
<g id="edge88_Node000000_Node000008" class="edge">
<title>Node0&#45;&gt;Node8</title>
<g id="a_edge88_Node000000_Node000008"><a xlink:title=" ">
<path fill="none" stroke="#63b8ff" d="M17.7,-480.7C20.5,-542.89 31.55,-720.01 67.75,-763 74.24,-770.71 84.06,-775.29 93.56,-778.02"/>
<polygon fill="#63b8ff" stroke="#63b8ff" points="21.2,-480.63 17.29,-470.78 14.21,-480.92 21.2,-480.63"/>
</a>
</g>
</g>
<!-- Node9 -->
<g id="Node000009" class="node">
<title>Node9</title>
<g id="a_Node000009"><a xlink:href="class_dim_x_tag.html" target="_top" xlink:title=" ">
<polygon fill="white" stroke="#666666" points="151.25,-754 94.75,-754 94.75,-734 151.25,-734 151.25,-754"/>
<text text-anchor="middle" x="123" y="-740.5" font-family="Helvetica,sans-Serif" font-size="10.00">DimXTag</text>
</a>
</g>
</g>
<!-- Node0&#45;&gt;Node9 -->
<g id="edge89_Node000000_Node000009" class="edge">
<title>Node0&#45;&gt;Node9</title>
<g id="a_edge89_Node000000_Node000009"><a xlink:title=" ">
<path fill="none" stroke="#63b8ff" d="M18.27,-480.57C22.34,-537.18 36,-688.17 67.75,-725 74.53,-732.86 84.75,-737.47 94.5,-740.17"/>
<polygon fill="#63b8ff" stroke="#63b8ff" points="21.79,-480.68 17.61,-470.95 14.8,-481.16 21.79,-480.68"/>
</a>
</g>
</g>
<!-- Node10 -->
<g id="Node000010" class="node">
<title>Node10</title>
<g id="a_Node000010"><a xlink:href="class_dim_y_tag.html" target="_top" xlink:title=" ">
<polygon fill="white" stroke="#666666" points="151.25,-716 94.75,-716 94.75,-696 151.25,-696 151.25,-716"/>
<text text-anchor="middle" x="123" y="-702.5" font-family="Helvetica,sans-Serif" font-size="10.00">DimYTag</text>
</a>
</g>
</g>
<!-- Node0&#45;&gt;Node10 -->
<g id="edge90_Node000000_Node000010" class="edge">
<title>Node0&#45;&gt;Node10</title>
<g id="a_edge90_Node000000_Node000010"><a xlink:title=" ">
<path fill="none" stroke="#63b8ff" d="M19.01,-480.46C24.46,-531.13 40.42,-656.26 67.75,-687 74.58,-694.68 84.7,-699.26 94.35,-701.98"/>
<polygon fill="#63b8ff" stroke="#63b8ff" points="22.52,-480.37 18.01,-470.79 15.56,-481.09 22.52,-480.37"/>
</a>
</g>
</g>
<!-- Node11 -->
<g id="Node000011" class="node">
<title>Node11</title>
<g id="a_Node000011"><a xlink:href="class_direction_tag.html" target="_top" xlink:title=" ">
<polygon fill="white" stroke="#666666" points="158.38,-678 87.62,-678 87.62,-658 158.38,-658 158.38,-678"/>
<text text-anchor="middle" x="123" y="-664.5" font-family="Helvetica,sans-Serif" font-size="10.00">DirectionTag</text>
</a>
</g>
</g>
<!-- Node0&#45;&gt;Node11 -->
<g id="edge91_Node000000_Node000011" class="edge">
<title>Node0&#45;&gt;Node11</title>
<g id="a_edge91_Node000000_Node000011"><a xlink:title=" ">
<path fill="none" stroke="#63b8ff" d="M16.47,-480.6C16.94,-519.41 23.52,-601.31 67.75,-649 72.98,-654.63 79.97,-658.6 87.19,-661.39"/>
<polygon fill="#63b8ff" stroke="#63b8ff" points="19.97,-480.73 16.5,-470.72 12.97,-480.71 19.97,-480.73"/>
</a>
</g>
</g>
<!-- Node12 -->
<g id="Node000012" class="node">
<title>Node12</title>
<g id="a_Node000012"><a xlink:href="class_find_click_tag.html" target="_top" xlink:title=" ">
<polygon fill="white" stroke="#666666" points="159.5,-640 86.5,-640 86.5,-620 159.5,-620 159.5,-640"/>
<text text-anchor="middle" x="123" y="-626.5" font-family="Helvetica,sans-Serif" font-size="10.00">FindClickTag</text>
</a>
</g>
</g>
<!-- Node0&#45;&gt;Node12 -->
<g id="edge92_Node000000_Node000012" class="edge">
<title>Node0&#45;&gt;Node12</title>
<g id="a_edge92_Node000000_Node000012"><a xlink:title=" ">
<path fill="none" stroke="#63b8ff" d="M18.26,-480.8C21.49,-513.42 32.21,-574.97 67.75,-611 72.8,-616.12 79.29,-619.86 86.03,-622.59"/>
<polygon fill="#63b8ff" stroke="#63b8ff" points="21.76,-480.65 17.46,-470.97 14.79,-481.22 21.76,-480.65"/>
</a>
</g>
</g>
<!-- Node13 -->
<g id="Node000013" class="node">
<title>Node13</title>
<g id="a_Node000013"><a xlink:href="class_find_swipe_tag.html" target="_top" xlink:title=" ">
<polygon fill="white" stroke="#666666" points="161.75,-602 84.25,-602 84.25,-582 161.75,-582 161.75,-602"/>
<text text-anchor="middle" x="123" y="-588.5" font-family="Helvetica,sans-Serif" font-size="10.00">FindSwipeTag</text>
</a>
</g>
</g>
<!-- Node0&#45;&gt;Node13 -->
<g id="edge93_Node000000_Node000013" class="edge">
<title>Node0&#45;&gt;Node13</title>
<g id="a_edge93_Node000000_Node000013"><a xlink:title=" ">
<path fill="none" stroke="#63b8ff" d="M21.05,-480.43C27.08,-505.89 40.62,-548.03 67.75,-573 72.38,-577.26 78.01,-580.57 83.88,-583.15"/>
<polygon fill="#63b8ff" stroke="#63b8ff" points="24.52,-479.94 18.98,-470.91 17.68,-481.42 24.52,-479.94"/>
</a>
</g>
</g>
<!-- Node14 -->
<g id="Node000014" class="node">
<title>Node14</title>
<g id="a_Node000014"><a xlink:href="class_find_tag.html" target="_top" xlink:title=" ">
<polygon fill="white" stroke="#666666" points="148.25,-564 97.75,-564 97.75,-544 148.25,-544 148.25,-564"/>
<text text-anchor="middle" x="123" y="-550.5" font-family="Helvetica,sans-Serif" font-size="10.00">FindTag</text>
</a>
</g>
</g>
<!-- Node0&#45;&gt;Node14 -->
<g id="edge94_Node000000_Node000014" class="edge">
<title>Node0&#45;&gt;Node14</title>
<g id="a_edge94_Node000000_Node000014"><a xlink:title=" ">
<path fill="none" stroke="#63b8ff" d="M25.97,-479.48C34.51,-496.54 48.8,-520.33 67.75,-535 76.35,-541.66 87.46,-546.09 97.39,-548.99"/>
<polygon fill="#63b8ff" stroke="#63b8ff" points="29.29,-478.32 21.85,-470.78 22.97,-481.31 29.29,-478.32"/>
</a>
</g>
</g>
<!-- Node15 -->
<g id="Node000015" class="node">
<title>Node15</title>
<g id="a_Node000015"><a xlink:href="class_float_tag.html" target="_top" xlink:title=" ">
<polygon fill="white" stroke="#666666" points="149.75,-526 96.25,-526 96.25,-506 149.75,-506 149.75,-526"/>
<text text-anchor="middle" x="123" y="-512.5" font-family="Helvetica,sans-Serif" font-size="10.00">FloatTag</text>
</a>
</g>
</g>
<!-- Node0&#45;&gt;Node15 -->
<g id="edge95_Node000000_Node000015" class="edge">
<title>Node0&#45;&gt;Node15</title>
<g id="a_edge95_Node000000_Node000015"><a xlink:title=" ">
<path fill="none" stroke="#63b8ff" d="M37.52,-476.67C46.41,-483.67 57.17,-491.37 67.75,-497 76.56,-501.69 86.76,-505.61 95.93,-508.66"/>
<polygon fill="#63b8ff" stroke="#63b8ff" points="39.84,-474.05 29.88,-470.45 35.42,-479.48 39.84,-474.05"/>
</a>
</g>
</g>
<!-- Node16 -->
<g id="Node000016" class="node">
<title>Node16</title>
<g id="a_Node000016"><a xlink:href="class_flow_tag.html" target="_top" xlink:title=" ">
<polygon fill="white" stroke="#666666" points="149.38,-488 96.62,-488 96.62,-468 149.38,-468 149.38,-488"/>
<text text-anchor="middle" x="123" y="-474.5" font-family="Helvetica,sans-Serif" font-size="10.00">FlowTag</text>
</a>
</g>
</g>
<!-- Node0&#45;&gt;Node16 -->
<g id="edge96_Node000000_Node000016" class="edge">
<title>Node0&#45;&gt;Node16</title>
<g id="a_edge96_Node000000_Node000016"><a xlink:title=" ">
<path fill="none" stroke="#63b8ff" d="M42.87,-463.7C59.2,-466.65 80.16,-470.44 96.41,-473.37"/>
<polygon fill="#63b8ff" stroke="#63b8ff" points="43.89,-460.33 33.43,-461.99 42.64,-467.21 43.89,-460.33"/>
</a>
</g>
</g>
<!-- Node27 -->
<g id="Node000027" class="node">
<title>Node27</title>
<g id="a_Node000027"><a xlink:href="class_function_tag.html" target="_top" xlink:title=" ">
<polygon fill="white" stroke="#666666" points="157.62,-450 88.38,-450 88.38,-430 157.62,-430 157.62,-450"/>
<text text-anchor="middle" x="123" y="-436.5" font-family="Helvetica,sans-Serif" font-size="10.00">FunctionTag</text>
</a>
</g>
</g>
<!-- Node0&#45;&gt;Node27 -->
<g id="edge107_Node000000_Node000027" class="edge">
<title>Node0&#45;&gt;Node27</title>
<g id="a_edge107_Node000000_Node000027"><a xlink:title=" ">
<path fill="none" stroke="#63b8ff" d="M43,-454.28C56.7,-451.8 73.64,-448.74 88.31,-446.09"/>
<polygon fill="#63b8ff" stroke="#63b8ff" points="42.64,-450.79 33.43,-456.01 43.89,-457.67 42.64,-450.79"/>
</a>
</g>
</g>
<!-- Node28 -->
<g id="Node000028" class="node">
<title>Node28</title>
<g id="a_Node000028"><a xlink:href="class_int_tag.html" target="_top" xlink:title=" ">
<polygon fill="white" stroke="#666666" points="144.5,-412 101.5,-412 101.5,-392 144.5,-392 144.5,-412"/>
<text text-anchor="middle" x="123" y="-398.5" font-family="Helvetica,sans-Serif" font-size="10.00">IntTag</text>
</a>
</g>
</g>
<!-- Node0&#45;&gt;Node28 -->
<g id="edge108_Node000000_Node000028" class="edge">
<title>Node0&#45;&gt;Node28</title>
<g id="a_edge108_Node000000_Node000028"><a xlink:title=" ">
<path fill="none" stroke="#63b8ff" d="M37.52,-441.33C46.41,-434.33 57.17,-426.63 67.75,-421 78.23,-415.42 90.69,-410.92 101.03,-407.71"/>
<polygon fill="#63b8ff" stroke="#63b8ff" points="35.42,-438.52 29.88,-447.55 39.84,-443.95 35.42,-438.52"/>
</a>
</g>
</g>
<!-- Node29 -->
<g id="Node000029" class="node">
<title>Node29</title>
<g id="a_Node000029"><a xlink:href="class_list_tag.html" target="_top" xlink:title=" ">
<polygon fill="white" stroke="#666666" points="158.38,-374 87.62,-374 87.62,-354 158.38,-354 158.38,-374"/>
<text text-anchor="middle" x="123" y="-360.5" font-family="Helvetica,sans-Serif" font-size="10.00">ListTag&lt; T &gt;</text>
</a>
</g>
</g>
<!-- Node0&#45;&gt;Node29 -->
<g id="edge109_Node000000_Node000029" class="edge">
<title>Node0&#45;&gt;Node29</title>
<g id="a_edge109_Node000000_Node000029"><a xlink:title=" ">
<path fill="none" stroke="#63b8ff" d="M25.97,-438.52C34.51,-421.46 48.8,-397.67 67.75,-383 73.51,-378.54 80.4,-375.08 87.3,-372.41"/>
<polygon fill="#63b8ff" stroke="#63b8ff" points="22.97,-436.69 21.85,-447.22 29.29,-439.68 22.97,-436.69"/>
</a>
</g>
</g>
<!-- Node30 -->
<g id="Node000030" class="node">
<title>Node30</title>
<g id="a_Node000030"><a xlink:href="class_load_tag.html" target="_top" xlink:title=" ">
<polygon fill="white" stroke="#666666" points="161,-336 85,-336 85,-316 161,-316 161,-336"/>
<text text-anchor="middle" x="123" y="-322.5" font-family="Helvetica,sans-Serif" font-size="10.00">LoadTag&lt; T &gt;</text>
</a>
</g>
</g>
<!-- Node0&#45;&gt;Node30 -->
<g id="edge110_Node000000_Node000030" class="edge">
<title>Node0&#45;&gt;Node30</title>
<g id="a_edge110_Node000000_Node000030"><a xlink:title=" ">
<path fill="none" stroke="#63b8ff" d="M21.05,-437.57C27.08,-412.11 40.62,-369.97 67.75,-345 72.6,-340.54 78.55,-337.12 84.72,-334.49"/>
<polygon fill="#63b8ff" stroke="#63b8ff" points="17.68,-436.58 18.98,-447.09 24.52,-438.06 17.68,-436.58"/>
</a>
</g>
</g>
<!-- Node31 -->
<g id="Node000031" class="node">
<title>Node31</title>
<g id="a_Node000031"><a xlink:href="class_print_tag.html" target="_top" xlink:title=" ">
<polygon fill="white" stroke="#666666" points="160.62,-298 85.38,-298 85.38,-278 160.62,-278 160.62,-298"/>
<text text-anchor="middle" x="123" y="-284.5" font-family="Helvetica,sans-Serif" font-size="10.00">PrintTag&lt; T &gt;</text>
</a>
</g>
</g>
<!-- Node0&#45;&gt;Node31 -->
<g id="edge111_Node000000_Node000031" class="edge">
<title>Node0&#45;&gt;Node31</title>
<g id="a_edge111_Node000000_Node000031"><a xlink:title=" ">
<path fill="none" stroke="#63b8ff" d="M18.26,-437.2C21.49,-404.58 32.21,-343.03 67.75,-307 72.51,-302.17 78.58,-298.56 84.91,-295.87"/>
<polygon fill="#63b8ff" stroke="#63b8ff" points="14.79,-436.78 17.46,-447.03 21.76,-437.35 14.79,-436.78"/>
</a>
</g>
</g>
<!-- Node32 -->
<g id="Node000032" class="node">
<title>Node32</title>
<g id="a_Node000032"><a xlink:href="class_store_tag.html" target="_top" xlink:title=" ">
<polygon fill="white" stroke="#666666" points="162.12,-260 83.88,-260 83.88,-240 162.12,-240 162.12,-260"/>
<text text-anchor="middle" x="123" y="-246.5" font-family="Helvetica,sans-Serif" font-size="10.00">StoreTag&lt; T &gt;</text>
</a>
</g>
</g>
<!-- Node0&#45;&gt;Node32 -->
<g id="edge112_Node000000_Node000032" class="edge">
<title>Node0&#45;&gt;Node32</title>
<g id="a_edge112_Node000000_Node000032"><a xlink:title=" ">
<path fill="none" stroke="#63b8ff" d="M16.47,-437.4C16.94,-398.59 23.52,-316.69 67.75,-269 72.09,-264.32 77.66,-260.79 83.56,-258.13"/>
<polygon fill="#63b8ff" stroke="#63b8ff" points="12.97,-437.29 16.5,-447.28 19.97,-437.27 12.97,-437.29"/>
</a>
</g>
</g>
<!-- Node33 -->
<g id="Node000033" class="node">
<title>Node33</title>
<g id="a_Node000033"><a xlink:href="class_store_tag_3_01std_1_1vector_3_01_t_01_4_01_4.html" target="_top" xlink:title=" ">
<polygon fill="white" stroke="#666666" points="178.25,-222 67.75,-222 67.75,-190 178.25,-190 178.25,-222"/>
<text text-anchor="start" x="75.75" y="-208.5" font-family="Helvetica,sans-Serif" font-size="10.00">StoreTag&lt; std::vector</text>
<text text-anchor="middle" x="123" y="-196.5" font-family="Helvetica,sans-Serif" font-size="10.00">&lt; T &gt; &gt;</text>
</a>
</g>
</g>
<!-- Node0&#45;&gt;Node33 -->
<g id="edge113_Node000000_Node000033" class="edge">
<title>Node0&#45;&gt;Node33</title>
<g id="a_edge113_Node000000_Node000033"><a xlink:title=" ">
<path fill="none" stroke="#63b8ff" d="M19.25,-437.36C25.16,-386.83 41.97,-262.93 67.75,-231 70.36,-227.77 73.47,-224.94 76.88,-222.47"/>
<polygon fill="#63b8ff" stroke="#63b8ff" points="15.8,-436.69 18.15,-447.03 22.75,-437.48 15.8,-436.69"/>
</a>
</g>
</g>
<!-- Node34 -->
<g id="Node000034" class="node">
<title>Node34</title>
<g id="a_Node000034"><a xlink:href="class_string_tag.html" target="_top" xlink:title=" ">
<polygon fill="white" stroke="#666666" points="151.62,-172 94.38,-172 94.38,-152 151.62,-152 151.62,-172"/>
<text text-anchor="middle" x="123" y="-158.5" font-family="Helvetica,sans-Serif" font-size="10.00">StringTag</text>
</a>
</g>
</g>
<!-- Node0&#45;&gt;Node34 -->
<g id="edge114_Node000000_Node000034" class="edge">
<title>Node0&#45;&gt;Node34</title>
<g id="a_edge114_Node000000_Node000034"><a xlink:title=" ">
<path fill="none" stroke="#63b8ff" d="M18.08,-437.25C21.75,-378.74 34.62,-219.74 67.75,-181 74.37,-173.26 84.32,-168.68 93.91,-165.96"/>
<polygon fill="#63b8ff" stroke="#63b8ff" points="14.59,-437.01 17.49,-447.2 21.58,-437.42 14.59,-437.01"/>
</a>
</g>
</g>
<!-- Node35 -->
<g id="Node000035" class="node">
<title>Node35</title>
<g id="a_Node000035"><a xlink:href="class_swipe_tag.html" target="_top" xlink:title=" ">
<polygon fill="white" stroke="#666666" points="152.38,-134 93.62,-134 93.62,-114 152.38,-114 152.38,-134"/>
<text text-anchor="middle" x="123" y="-120.5" font-family="Helvetica,sans-Serif" font-size="10.00">SwipeTag</text>
</a>
</g>
</g>
<!-- Node0&#45;&gt;Node35 -->
<g id="edge115_Node000000_Node000035" class="edge">
<title>Node0&#45;&gt;Node35</title>
<g id="a_edge115_Node000000_Node000035"><a xlink:title=" ">
<path fill="none" stroke="#63b8ff" d="M17.55,-437.28C19.97,-373.42 30.13,-187.95 67.75,-143 74.15,-135.35 83.83,-130.77 93.25,-128.04"/>
<polygon fill="#63b8ff" stroke="#63b8ff" points="14.06,-437.03 17.21,-447.15 21.05,-437.27 14.06,-437.03"/>
</a>
</g>
</g>
<!-- Node36 -->
<g id="Node000036" class="node">
<title>Node36</title>
<g id="a_Node000036"><a xlink:href="class_time_type_tag.html" target="_top" xlink:title=" ">
<polygon fill="white" stroke="#666666" points="160.25,-96 85.75,-96 85.75,-76 160.25,-76 160.25,-96"/>
<text text-anchor="middle" x="123" y="-82.5" font-family="Helvetica,sans-Serif" font-size="10.00">TimeTypeTag</text>
</a>
</g>
</g>
<!-- Node0&#45;&gt;Node36 -->
<g id="edge116_Node000000_Node000036" class="edge">
<title>Node0&#45;&gt;Node36</title>
<g id="a_edge116_Node000000_Node000036"><a xlink:title=" ">
<path fill="none" stroke="#63b8ff" d="M17.13,-437.42C18.37,-368.66 25.6,-156.24 67.75,-105 72.31,-99.45 78.6,-95.52 85.28,-92.74"/>
<polygon fill="#63b8ff" stroke="#63b8ff" points="13.63,-437.28 16.98,-447.33 20.63,-437.38 13.63,-437.28"/>
</a>
</g>
</g>
<!-- Node37 -->
<g id="Node000037" class="node">
<title>Node37</title>
<g id="a_Node000037"><a xlink:href="class_wait_tag.html" target="_top" xlink:title=" ">
<polygon fill="white" stroke="#666666" points="148.62,-58 97.38,-58 97.38,-38 148.62,-38 148.62,-58"/>
<text text-anchor="middle" x="123" y="-44.5" font-family="Helvetica,sans-Serif" font-size="10.00">WaitTag</text>
</a>
</g>
</g>
<!-- Node0&#45;&gt;Node37 -->
<g id="edge117_Node000000_Node000037" class="edge">
<title>Node0&#45;&gt;Node37</title>
<g id="a_edge117_Node000000_Node000037"><a xlink:title=" ">
<path fill="none" stroke="#63b8ff" d="M16.79,-437.04C16.96,-363.08 21.16,-124.44 67.75,-67 74.92,-58.16 86.46,-53.43 97.06,-50.9"/>
<polygon fill="#63b8ff" stroke="#63b8ff" points="13.29,-437 16.8,-447 20.29,-436.99 13.29,-437"/>
</a>
</g>
</g>
<!-- Node38 -->
<g id="Node000038" class="node">
<title>Node38</title>
<g id="a_Node000038"><a xlink:href="class_zone_tag.html" target="_top" xlink:title=" ">
<polygon fill="white" stroke="#666666" points="149.75,-20 96.25,-20 96.25,0 149.75,0 149.75,-20"/>
<text text-anchor="middle" x="123" y="-6.5" font-family="Helvetica,sans-Serif" font-size="10.00">ZoneTag</text>
</a>
</g>
</g>
<!-- Node0&#45;&gt;Node38 -->
<g id="edge118_Node000000_Node000038" class="edge">
<title>Node0&#45;&gt;Node38</title>
<g id="a_edge118_Node000000_Node000038"><a xlink:title=" ">
<path fill="none" stroke="#63b8ff" d="M16.52,-437.48C15.64,-359.48 16.52,-92.89 67.75,-29 74.62,-20.44 85.6,-15.72 95.89,-13.13"/>
<polygon fill="#63b8ff" stroke="#63b8ff" points="13.01,-437.22 16.65,-447.17 20.01,-437.12 13.01,-437.22"/>
</a>
</g>
</g>
<!-- Node2 -->
<g id="Node000002" class="node">
<title>Node2</title>
<g id="a_Node000002"><a xlink:href="class_and_tag.html" target="_top" xlink:title=" ">
<polygon fill="white" stroke="#666666" points="286.12,-963 237.12,-963 237.12,-943 286.12,-943 286.12,-963"/>
<text text-anchor="middle" x="261.62" y="-949.5" font-family="Helvetica,sans-Serif" font-size="10.00">AndTag</text>
</a>
</g>
</g>
<!-- Node1&#45;&gt;Node2 -->
<g id="edge82_Node000001_Node000002" class="edge">
<title>Node1&#45;&gt;Node2</title>
<g id="a_edge82_Node000001_Node000002"><a xlink:title=" ">
<path fill="none" stroke="#63b8ff" d="M158.9,-910.79C175.63,-917.85 195.96,-926.4 214.25,-934 221.64,-937.07 229.71,-940.39 237.01,-943.38"/>
<polygon fill="#63b8ff" stroke="#63b8ff" points="160.46,-907.65 149.88,-906.98 157.73,-914.09 160.46,-907.65"/>
</a>
</g>
</g>
<!-- Node3 -->
<g id="Node000003" class="node">
<title>Node3</title>
<g id="a_Node000003"><a xlink:href="class_compare_tag.html" target="_top" xlink:title=" ">
<polygon fill="white" stroke="#666666" points="309,-925 214.25,-925 214.25,-905 309,-905 309,-925"/>
<text text-anchor="middle" x="261.62" y="-911.5" font-family="Helvetica,sans-Serif" font-size="10.00">CompareTag&lt; T &gt;</text>
</a>
</g>
</g>
<!-- Node1&#45;&gt;Node3 -->
<g id="edge83_Node000001_Node000003" class="edge">
<title>Node1&#45;&gt;Node3</title>
<g id="a_edge83_Node000001_Node000003"><a xlink:title=" ">
<path fill="none" stroke="#63b8ff" d="M160.38,-901.06C176.8,-903.34 196.4,-906.07 213.89,-908.5"/>
<polygon fill="#63b8ff" stroke="#63b8ff" points="160.95,-897.6 150.56,-899.69 159.98,-904.54 160.95,-897.6"/>
</a>
</g>
</g>
<!-- Node4 -->
<g id="Node000004" class="node">
<title>Node4</title>
<g id="a_Node000004"><a xlink:href="class_not_tag.html" target="_top" xlink:title=" ">
<polygon fill="white" stroke="#666666" points="285.38,-887 237.88,-887 237.88,-867 285.38,-867 285.38,-887"/>
<text text-anchor="middle" x="261.62" y="-873.5" font-family="Helvetica,sans-Serif" font-size="10.00">NotTag</text>
</a>
</g>
</g>
<!-- Node1&#45;&gt;Node4 -->
<g id="edge84_Node000001_Node000004" class="edge">
<title>Node1&#45;&gt;Node4</title>
<g id="a_edge84_Node000001_Node000004"><a xlink:title=" ">
<path fill="none" stroke="#63b8ff" d="M160.44,-890.93C184.93,-887.53 216.46,-883.14 237.55,-880.21"/>
<polygon fill="#63b8ff" stroke="#63b8ff" points="159.98,-887.46 150.56,-892.31 160.95,-894.4 159.98,-887.46"/>
</a>
</g>
</g>
<!-- Node5 -->
<g id="Node000005" class="node">
<title>Node5</title>
<g id="a_Node000005"><a xlink:href="class_or_tag.html" target="_top" xlink:title=" ">
<polygon fill="white" stroke="#666666" points="282.75,-849 240.5,-849 240.5,-829 282.75,-829 282.75,-849"/>
<text text-anchor="middle" x="261.62" y="-835.5" font-family="Helvetica,sans-Serif" font-size="10.00">OrTag</text>
</a>
</g>
</g>
<!-- Node1&#45;&gt;Node5 -->
<g id="edge85_Node000001_Node000005" class="edge">
<title>Node1&#45;&gt;Node5</title>
<g id="a_edge85_Node000001_Node000005"><a xlink:title=" ">
<path fill="none" stroke="#63b8ff" d="M159.32,-884.49C165.69,-882.17 172.21,-879.63 178.25,-877 194.83,-869.77 197.86,-865.66 214.25,-858 222.61,-854.09 231.99,-850.17 240.12,-846.9"/>
<polygon fill="#63b8ff" stroke="#63b8ff" points="158.58,-881.04 150.3,-887.65 160.9,-887.64 158.58,-881.04"/>
</a>
</g>
</g>
<!-- Node17 -->
<g id="Node000017" class="node">
<title>Node17</title>
<g id="a_Node000017"><a xlink:href="class_break_tag.html" target="_top" xlink:title=" ">
<polygon fill="white" stroke="#666666" points="290.25,-659 233,-659 233,-639 290.25,-639 290.25,-659"/>
<text text-anchor="middle" x="261.62" y="-645.5" font-family="Helvetica,sans-Serif" font-size="10.00">BreakTag</text>
</a>
</g>
</g>
<!-- Node16&#45;&gt;Node17 -->
<g id="edge97_Node000016_Node000017" class="edge">
<title>Node16&#45;&gt;Node17</title>
<g id="a_edge97_Node000016_Node000017"><a xlink:title=" ">
<path fill="none" stroke="#63b8ff" d="M160.34,-485.24C167.01,-487.98 173.39,-491.77 178.25,-497 219.95,-541.84 173.73,-584.09 214.25,-630 219.09,-635.48 225.74,-639.41 232.5,-642.22"/>
<polygon fill="#63b8ff" stroke="#63b8ff" points="161.82,-482.04 151.23,-482.2 159.61,-488.68 161.82,-482.04"/>
</a>
</g>
</g>
<!-- Node18 -->
<g id="Node000018" class="node">
<title>Node18</title>
<g id="a_Node000018"><a xlink:href="class_case_tag.html" target="_top" xlink:title=" ">
<polygon fill="white" stroke="#666666" points="289.12,-621 234.12,-621 234.12,-601 289.12,-601 289.12,-621"/>
<text text-anchor="middle" x="261.62" y="-607.5" font-family="Helvetica,sans-Serif" font-size="10.00">CaseTag</text>
</a>
</g>
</g>
<!-- Node16&#45;&gt;Node18 -->
<g id="edge98_Node000016_Node000018" class="edge">
<title>Node16&#45;&gt;Node18</title>
<g id="a_edge98_Node000016_Node000018"><a xlink:title=" ">
<path fill="none" stroke="#63b8ff" d="M160.13,-485.69C166.77,-488.4 173.19,-492.06 178.25,-497 210.58,-528.52 182.75,-559.65 214.25,-592 219.59,-597.49 226.74,-601.45 233.82,-604.28"/>
<polygon fill="#63b8ff" stroke="#63b8ff" points="161.72,-482.53 151.13,-482.65 159.48,-489.17 161.72,-482.53"/>
</a>
</g>
</g>
<!-- Node19 -->
<g id="Node000019" class="node">
<title>Node19</title>
<g id="a_Node000019"><a xlink:href="class_continue_tag.html" target="_top" xlink:title=" ">
<polygon fill="white" stroke="#666666" points="297,-583 226.25,-583 226.25,-563 297,-563 297,-583"/>
<text text-anchor="middle" x="261.62" y="-569.5" font-family="Helvetica,sans-Serif" font-size="10.00">ContinueTag</text>
</a>
</g>
</g>
<!-- Node16&#45;&gt;Node19 -->
<g id="edge99_Node000016_Node000019" class="edge">
<title>Node16&#45;&gt;Node19</title>
<g id="a_edge99_Node000016_Node000019"><a xlink:title=" ">
<path fill="none" stroke="#63b8ff" d="M160.42,-486.94C166.76,-489.52 173,-492.82 178.25,-497 201.69,-515.66 191.3,-534.74 214.25,-554 218.25,-557.36 222.92,-560.18 227.73,-562.54"/>
<polygon fill="#63b8ff" stroke="#63b8ff" points="161.82,-483.72 151.23,-483.72 159.51,-490.33 161.82,-483.72"/>
</a>
</g>
</g>
<!-- Node20 -->
<g id="Node000020" class="node">
<title>Node20</title>
<g id="a_Node000020"><a xlink:href="class_do_loop_tag.html" target="_top" xlink:title=" ">
<polygon fill="white" stroke="#666666" points="294.38,-545 228.88,-545 228.88,-525 294.38,-525 294.38,-545"/>
<text text-anchor="middle" x="261.62" y="-531.5" font-family="Helvetica,sans-Serif" font-size="10.00">DoLoopTag</text>
</a>
</g>
</g>
<!-- Node16&#45;&gt;Node20 -->
<g id="edge100_Node000016_Node000020" class="edge">
<title>Node16&#45;&gt;Node20</title>
<g id="a_edge100_Node000016_Node000020"><a xlink:title=" ">
<path fill="none" stroke="#63b8ff" d="M160.33,-489.88C166.37,-492.1 172.53,-494.51 178.25,-497 194.83,-504.23 197.86,-508.34 214.25,-516 220.56,-518.95 227.45,-521.91 233.95,-524.59"/>
<polygon fill="#63b8ff" stroke="#63b8ff" points="161.72,-486.66 151.12,-486.63 159.38,-493.26 161.72,-486.66"/>
</a>
</g>
</g>
<!-- Node21 -->
<g id="Node000021" class="node">
<title>Node21</title>
<g id="a_Node000021"><a xlink:href="class_elif_tag.html" target="_top" xlink:title=" ">
<polygon fill="white" stroke="#666666" points="284.62,-507 238.62,-507 238.62,-487 284.62,-487 284.62,-507"/>
<text text-anchor="middle" x="261.62" y="-493.5" font-family="Helvetica,sans-Serif" font-size="10.00">ElifTag</text>
</a>
</g>
</g>
<!-- Node16&#45;&gt;Node21 -->
<g id="edge101_Node000016_Node000021" class="edge">
<title>Node16&#45;&gt;Node21</title>
<g id="a_edge101_Node000016_Node000021"><a xlink:title=" ">
<path fill="none" stroke="#63b8ff" d="M160.83,-483.12C185.52,-486.56 217.24,-490.97 238.21,-493.88"/>
<polygon fill="#63b8ff" stroke="#63b8ff" points="161.58,-479.69 151.2,-481.78 160.62,-486.63 161.58,-479.69"/>
</a>
</g>
</g>
<!-- Node22 -->
<g id="Node000022" class="node">
<title>Node22</title>
<g id="a_Node000022"><a xlink:href="class_else_tag.html" target="_top" xlink:title=" ">
<polygon fill="white" stroke="#666666" points="287.25,-469 236,-469 236,-449 287.25,-449 287.25,-469"/>
<text text-anchor="middle" x="261.62" y="-455.5" font-family="Helvetica,sans-Serif" font-size="10.00">ElseTag</text>
</a>
</g>
</g>
<!-- Node16&#45;&gt;Node22 -->
<g id="edge102_Node000016_Node000022" class="edge">
<title>Node16&#45;&gt;Node22</title>
<g id="a_edge102_Node000016_Node000022"><a xlink:title=" ">
<path fill="none" stroke="#63b8ff" d="M161.05,-472.85C184.67,-469.56 214.64,-465.39 235.5,-462.49"/>
<polygon fill="#63b8ff" stroke="#63b8ff" points="160.62,-469.37 151.2,-474.22 161.58,-476.31 160.62,-469.37"/>
</a>
</g>
</g>
<!-- Node23 -->
<g id="Node000023" class="node">
<title>Node23</title>
<g id="a_Node000023"><a xlink:href="class_if_tag.html" target="_top" xlink:title=" ">
<polygon fill="white" stroke="#666666" points="280.5,-431 242.75,-431 242.75,-411 280.5,-411 280.5,-431"/>
<text text-anchor="middle" x="261.62" y="-417.5" font-family="Helvetica,sans-Serif" font-size="10.00">IfTag</text>
</a>
</g>
</g>
<!-- Node16&#45;&gt;Node23 -->
<g id="edge103_Node000016_Node000023" class="edge">
<title>Node16&#45;&gt;Node23</title>
<g id="a_edge103_Node000016_Node000023"><a xlink:title=" ">
<path fill="none" stroke="#63b8ff" d="M160.33,-466.12C166.37,-463.9 172.53,-461.49 178.25,-459 194.83,-451.77 197.86,-447.66 214.25,-440 223.39,-435.73 233.77,-431.42 242.39,-428"/>
<polygon fill="#63b8ff" stroke="#63b8ff" points="159.38,-462.74 151.12,-469.37 161.72,-469.34 159.38,-462.74"/>
</a>
</g>
</g>
<!-- Node24 -->
<g id="Node000024" class="node">
<title>Node24</title>
<g id="a_Node000024"><a xlink:href="class_loop_tag.html" target="_top" xlink:title=" ">
<polygon fill="white" stroke="#666666" points="288,-393 235.25,-393 235.25,-373 288,-373 288,-393"/>
<text text-anchor="middle" x="261.62" y="-379.5" font-family="Helvetica,sans-Serif" font-size="10.00">LoopTag</text>
</a>
</g>
</g>
<!-- Node16&#45;&gt;Node24 -->
<g id="edge104_Node000016_Node000024" class="edge">
<title>Node16&#45;&gt;Node24</title>
<g id="a_edge104_Node000016_Node000024"><a xlink:title=" ">
<path fill="none" stroke="#63b8ff" d="M160.42,-469.06C166.76,-466.48 173,-463.18 178.25,-459 201.69,-440.34 191.3,-421.26 214.25,-402 220.25,-396.97 227.76,-393.12 234.98,-390.26"/>
<polygon fill="#63b8ff" stroke="#63b8ff" points="159.51,-465.67 151.23,-472.28 161.82,-472.28 159.51,-465.67"/>
</a>
</g>
</g>
<!-- Node25 -->
<g id="Node000025" class="node">
<title>Node25</title>
<g id="a_Node000025"><a xlink:href="class_main_tag.html" target="_top" xlink:title=" ">
<polygon fill="white" stroke="#666666" points="288,-355 235.25,-355 235.25,-335 288,-335 288,-355"/>
<text text-anchor="middle" x="261.62" y="-341.5" font-family="Helvetica,sans-Serif" font-size="10.00">MainTag</text>
</a>
</g>
</g>
<!-- Node16&#45;&gt;Node25 -->
<g id="edge105_Node000016_Node000025" class="edge">
<title>Node16&#45;&gt;Node25</title>
<g id="a_edge105_Node000016_Node000025"><a xlink:title=" ">
<path fill="none" stroke="#63b8ff" d="M160.13,-470.31C166.77,-467.6 173.19,-463.94 178.25,-459 210.58,-427.48 182.75,-396.35 214.25,-364 219.83,-358.27 227.39,-354.2 234.79,-351.34"/>
<polygon fill="#63b8ff" stroke="#63b8ff" points="159.48,-466.83 151.13,-473.35 161.72,-473.47 159.48,-466.83"/>
</a>
</g>
</g>
<!-- Node26 -->
<g id="Node000026" class="node">
<title>Node26</title>
<g id="a_Node000026"><a xlink:href="class_switch_tag.html" target="_top" xlink:title=" ">
<polygon fill="white" stroke="#666666" points="292.5,-317 230.75,-317 230.75,-297 292.5,-297 292.5,-317"/>
<text text-anchor="middle" x="261.62" y="-303.5" font-family="Helvetica,sans-Serif" font-size="10.00">SwitchTag</text>
</a>
</g>
</g>
<!-- Node16&#45;&gt;Node26 -->
<g id="edge106_Node000016_Node000026" class="edge">
<title>Node16&#45;&gt;Node26</title>
<g id="a_edge106_Node000016_Node000026"><a xlink:title=" ">
<path fill="none" stroke="#63b8ff" d="M160.34,-470.76C167.01,-468.02 173.39,-464.23 178.25,-459 219.95,-414.16 173.73,-371.91 214.25,-326 218.63,-321.04 224.49,-317.35 230.58,-314.62"/>
<polygon fill="#63b8ff" stroke="#63b8ff" points="159.61,-467.32 151.23,-473.8 161.82,-473.96 159.61,-467.32"/>
</a>
</g>
</g>
</g>
</svg>
